<?xml version="1.0" encoding="UTF-8"?><svg id="Layer_1" xmlns="http://www.w3.org/2000/svg" xmlns:xlink="http://www.w3.org/1999/xlink" viewBox="0 0 129.99 200.45"><defs><style>.cls-1,.cls-2,.cls-3,.cls-4,.cls-5,.cls-6,.cls-7,.cls-8,.cls-9,.cls-10{fill:none;}.cls-2,.cls-5,.cls-6,.cls-7,.cls-8,.cls-9,.cls-10{stroke-width:2.2px;}.cls-2,.cls-5,.cls-6,.cls-7,.cls-8,.cls-10{stroke:#d1d3d4;}.cls-2,.cls-10{stroke-linejoin:round;}.cls-11{clip-path:url(#clippath);}.cls-12{fill:#a7a9ab;}.cls-13{fill:#414042;}.cls-14{fill:#58595b;}.cls-3{stroke:#949598;}.cls-3,.cls-4{stroke-width:.16px;}.cls-3,.cls-4,.cls-5,.cls-6,.cls-7,.cls-8,.cls-9{stroke-miterlimit:10;}.cls-4{stroke:#6d6e71;}.cls-15{clip-path:url(#clippath-1);}.cls-5{filter:url(#drop-shadow-2);}.cls-6{filter:url(#drop-shadow-4);}.cls-7{filter:url(#drop-shadow-3);}.cls-8{filter:url(#drop-shadow-1);}.cls-9{stroke:#e6e7e8;}.cls-10{stroke-linecap:round;}</style><clipPath id="clippath"><polyline class="cls-1" points="64.99 199.38 64.99 75.3 .86 38.28 .82 162.42"/></clipPath><filter id="drop-shadow-1" filterUnits="userSpaceOnUse"><feOffset dx="0" dy="0"/><feGaussianBlur result="blur" stdDeviation="3.11"/><feFlood flood-color="#221f20" flood-opacity=".2"/><feComposite in2="blur" operator="in"/><feComposite in="SourceGraphic"/></filter><filter id="drop-shadow-2" filterUnits="userSpaceOnUse"><feOffset dx="0" dy="0"/><feGaussianBlur result="blur-2" stdDeviation="3.11"/><feFlood flood-color="#221f20" flood-opacity=".2"/><feComposite in2="blur-2" operator="in"/><feComposite in="SourceGraphic"/></filter><clipPath id="clippath-1"><polyline class="cls-1" points="64.99 199.38 64.99 75.3 129.12 38.28 129.16 162.42"/></clipPath><filter id="drop-shadow-3" filterUnits="userSpaceOnUse"><feOffset dx="0" dy="0"/><feGaussianBlur result="blur-3" stdDeviation="3.11"/><feFlood flood-color="#221f20" flood-opacity=".2"/><feComposite in2="blur-3" operator="in"/><feComposite in="SourceGraphic"/></filter><filter id="drop-shadow-4" filterUnits="userSpaceOnUse"><feOffset dx="0" dy="0"/><feGaussianBlur result="blur-4" stdDeviation="3.11"/><feFlood flood-color="#221f20" flood-opacity=".2"/><feComposite in2="blur-4" operator="in"/><feComposite in="SourceGraphic"/></filter></defs><polyline class="cls-12" points="64.99 -.38 21.44 25.16 0 37.39 .86 38.28 64.99 75.3 129.99 37.69 129.8 37.38 109.01 25.37 64.99 -.38"/><polyline class="cls-13" points="64.99 199.38 64.99 75.3 .86 38.28 .82 162.42"/><line class="cls-4" x1="64.99" y1="75.3" x2=".89" y2="38.3"/><line class="cls-4" x1="64.99" y1="79.23" x2=".89" y2="42.22"/><line class="cls-4" x1="64.99" y1="82.97" x2=".89" y2="45.96"/><line class="cls-4" x1="64.99" y1="86.59" x2=".89" y2="49.58"/><line class="cls-4" x1="64.99" y1="90.13" x2=".89" y2="53.12"/><line class="cls-4" x1="64.99" y1="93.87" x2=".89" y2="56.86"/><line class="cls-4" x1="64.99" y1="97.49" x2=".89" y2="60.48"/><line class="cls-4" x1="64.99" y1="101.14" x2=".89" y2="64.13"/><line class="cls-4" x1="64.99" y1="104.88" x2=".89" y2="67.87"/><line class="cls-4" x1="64.99" y1="108.5" x2=".89" y2="71.49"/><line class="cls-4" x1="64.99" y1="112.31" x2=".89" y2="75.3"/><line class="cls-4" x1="64.99" y1="115.93" x2=".89" y2="78.92"/><line class="cls-4" x1="64.99" y1="119.47" x2=".89" y2="82.46"/><line class="cls-4" x1="64.99" y1="123.21" x2=".89" y2="86.2"/><line class="cls-4" x1="64.99" y1="126.83" x2=".89" y2="89.82"/><line class="cls-4" x1="64.99" y1="130.48" x2=".89" y2="93.48"/><line class="cls-4" x1="64.99" y1="134.22" x2=".89" y2="97.21"/><line class="cls-4" x1="64.99" y1="137.84" x2=".89" y2="100.83"/><line class="cls-4" x1="64.99" y1="141.47" x2=".89" y2="104.46"/><line class="cls-4" x1="64.99" y1="145.09" x2=".89" y2="108.08"/><line class="cls-4" x1="64.99" y1="148.63" x2=".89" y2="111.62"/><line class="cls-4" x1="64.99" y1="152.37" x2=".89" y2="115.36"/><line class="cls-4" x1="64.99" y1="155.99" x2=".89" y2="118.98"/><line class="cls-4" x1="64.99" y1="159.64" x2=".89" y2="122.63"/><line class="cls-4" x1="64.99" y1="163.38" x2=".89" y2="126.37"/><line class="cls-4" x1="64.99" y1="167" x2=".89" y2="129.99"/><line class="cls-4" x1="64.99" y1="170.72" x2=".89" y2="133.72"/><line class="cls-4" x1="64.99" y1="174.34" x2=".89" y2="137.34"/><line class="cls-4" x1="64.99" y1="177.88" x2=".89" y2="140.88"/><line class="cls-4" x1="64.99" y1="181.62" x2=".89" y2="144.61"/><line class="cls-4" x1="64.99" y1="185.24" x2=".89" y2="148.24"/><line class="cls-4" x1="64.99" y1="188.9" x2=".89" y2="151.89"/><line class="cls-4" x1="64.99" y1="192.63" x2=".89" y2="155.63"/><line class="cls-4" x1="64.99" y1="196.25" x2=".89" y2="159.25"/><line class="cls-4" x1="64.99" y1="199.38" x2=".89" y2="162.37"/><line class="cls-4" x1=".82" y1="162.42" x2=".89" y2="38.3"/><line class="cls-4" x1="64.99" y1="199.38" x2="64.99" y2="75.3"/><line class="cls-4" x1="61.86" y1="197.67" x2="61.86" y2="73.79"/><line class="cls-4" x1="58.46" y1="195.65" x2="58.46" y2="71.78"/><line class="cls-4" x1="55.06" y1="193.64" x2="55.06" y2="69.77"/><line class="cls-4" x1="51.66" y1="191.63" x2="51.66" y2="67.75"/><line class="cls-4" x1="48.25" y1="189.62" x2="48.25" y2="65.74"/><line class="cls-4" x1="44.85" y1="187.6" x2="44.85" y2="63.73"/><line class="cls-4" x1="41.45" y1="185.59" x2="41.45" y2="61.71"/><line class="cls-4" x1="38.05" y1="183.58" x2="38.05" y2="59.7"/><line class="cls-4" x1="34.64" y1="181.88" x2="34.64" y2="57.7"/><line class="cls-4" x1="31.24" y1="179.86" x2="31.24" y2="55.68"/><line class="cls-4" x1="27.84" y1="177.96" x2="27.84" y2="53.99"/><line class="cls-4" x1="24.44" y1="176.09" x2="24.44" y2="52.02"/><line class="cls-4" x1="21.03" y1="174.07" x2="21.03" y2="50"/><line class="cls-4" x1="17.63" y1="172.05" x2="17.63" y2="47.98"/><line class="cls-4" x1="14.23" y1="170.04" x2="14.23" y2="45.97"/><line class="cls-4" x1="10.83" y1="168.02" x2="10.83" y2="43.95"/><line class="cls-4" x1="7.42" y1="166.01" x2="7.42" y2="41.94"/><line class="cls-4" x1="4.02" y1="163.99" x2="4.02" y2="39.92"/><g class="cls-11"><line class="cls-8" x1=".82" y1="162.42" x2="64.99" y2="75.3"/><line class="cls-5" x1="65.01" y1="199.37" x2=".88" y2="38.27"/></g><polyline class="cls-2" points="64.99 75.3 .86 38.28 .82 162.42"/><line class="cls-2" x1="64.99" y1="199.18" x2=".86" y2="162.15"/><polyline class="cls-14" points="64.99 199.38 64.99 75.3 129.12 38.28 129.16 162.42"/><line class="cls-3" x1="64.99" y1="75.3" x2="129.09" y2="38.3"/><line class="cls-3" x1="64.99" y1="79.23" x2="129.09" y2="42.22"/><line class="cls-3" x1="64.99" y1="82.97" x2="129.09" y2="45.96"/><line class="cls-3" x1="64.99" y1="86.59" x2="129.09" y2="49.58"/><line class="cls-3" x1="64.99" y1="90.13" x2="129.09" y2="53.12"/><line class="cls-3" x1="64.99" y1="93.87" x2="129.09" y2="56.86"/><line class="cls-3" x1="64.99" y1="97.49" x2="129.09" y2="60.48"/><line class="cls-3" x1="64.99" y1="101.14" x2="129.09" y2="64.13"/><line class="cls-3" x1="64.99" y1="104.88" x2="129.09" y2="67.87"/><line class="cls-3" x1="64.99" y1="108.5" x2="129.09" y2="71.49"/><line class="cls-3" x1="64.99" y1="112.31" x2="129.09" y2="75.3"/><line class="cls-3" x1="64.99" y1="115.93" x2="129.09" y2="78.92"/><line class="cls-3" x1="64.99" y1="119.47" x2="129.09" y2="82.46"/><line class="cls-3" x1="64.99" y1="123.21" x2="129.09" y2="86.2"/><line class="cls-3" x1="64.99" y1="126.83" x2="129.09" y2="89.82"/><line class="cls-3" x1="64.99" y1="130.48" x2="129.09" y2="93.48"/><line class="cls-3" x1="64.99" y1="134.22" x2="129.09" y2="97.21"/><line class="cls-3" x1="64.99" y1="137.84" x2="129.09" y2="100.83"/><line class="cls-3" x1="64.99" y1="141.47" x2="129.09" y2="104.46"/><line class="cls-3" x1="64.99" y1="145.09" x2="129.09" y2="108.08"/><line class="cls-3" x1="64.99" y1="148.63" x2="129.09" y2="111.62"/><line class="cls-3" x1="64.99" y1="152.37" x2="129.09" y2="115.36"/><line class="cls-3" x1="64.99" y1="155.99" x2="129.09" y2="118.98"/><line class="cls-3" x1="64.99" y1="159.64" x2="129.09" y2="122.63"/><line class="cls-3" x1="64.99" y1="163.38" x2="129.09" y2="126.37"/><line class="cls-3" x1="64.99" y1="167" x2="129.09" y2="129.99"/><line class="cls-3" x1="64.99" y1="170.72" x2="129.09" y2="133.72"/><line class="cls-3" x1="64.99" y1="174.34" x2="129.09" y2="137.34"/><line class="cls-3" x1="64.99" y1="177.88" x2="129.09" y2="140.88"/><line class="cls-3" x1="64.99" y1="181.62" x2="129.09" y2="144.61"/><line class="cls-3" x1="64.99" y1="185.24" x2="129.09" y2="148.24"/><line class="cls-3" x1="64.99" y1="188.9" x2="129.09" y2="151.89"/><line class="cls-3" x1="64.99" y1="192.63" x2="129.09" y2="155.63"/><line class="cls-3" x1="64.99" y1="196.25" x2="129.09" y2="159.25"/><line class="cls-3" x1="64.99" y1="199.38" x2="129.09" y2="162.37"/><line class="cls-3" x1="129.16" y1="162.42" x2="129.09" y2="38.3"/><line class="cls-3" x1="64.99" y1="199.38" x2="64.99" y2="75.3"/><line class="cls-3" x1="68.12" y1="197.67" x2="68.12" y2="73.79"/><line class="cls-3" x1="71.52" y1="195.65" x2="71.52" y2="71.78"/><line class="cls-3" x1="74.92" y1="193.64" x2="74.92" y2="69.77"/><line class="cls-3" x1="78.33" y1="191.63" x2="78.33" y2="67.75"/><line class="cls-3" x1="81.73" y1="189.62" x2="81.73" y2="65.74"/><line class="cls-3" x1="85.13" y1="187.6" x2="85.13" y2="63.73"/><line class="cls-3" x1="88.53" y1="185.59" x2="88.53" y2="61.71"/><line class="cls-3" x1="91.94" y1="183.58" x2="91.94" y2="59.7"/><line class="cls-3" x1="95.34" y1="181.88" x2="95.34" y2="57.7"/><line class="cls-3" x1="98.74" y1="179.86" x2="98.74" y2="55.68"/><line class="cls-3" x1="102.14" y1="177.96" x2="102.14" y2="53.99"/><line class="cls-3" x1="105.55" y1="176.09" x2="105.55" y2="52.02"/><line class="cls-3" x1="108.95" y1="174.07" x2="108.95" y2="50"/><line class="cls-3" x1="112.35" y1="172.05" x2="112.35" y2="47.98"/><line class="cls-3" x1="115.75" y1="170.04" x2="115.75" y2="45.97"/><line class="cls-3" x1="119.16" y1="168.02" x2="119.16" y2="43.95"/><line class="cls-3" x1="122.56" y1="166.01" x2="122.56" y2="41.94"/><line class="cls-3" x1="125.96" y1="163.99" x2="125.96" y2="39.92"/><g class="cls-15"><line class="cls-7" x1="129.16" y1="162.42" x2="64.99" y2="75.3"/><line class="cls-6" x1="64.97" y1="199.37" x2="129.11" y2="38.27"/></g><line class="cls-9" x1="64.99" y1="199.38" x2="64.99" y2="75.3"/><polyline class="cls-10" points="64.99 75.3 129.12 38.28 129.16 162.42"/><line class="cls-10" x1="64.99" y1="199.91" x2="129.12" y2="162.89"/></svg>