<svg viewBox="0 0 64 64" fill="none" xmlns="http://www.w3.org/2000/svg">
<path d="M15 32.5708H9V48.5708H15V32.5708Z" fill="white"/>
<path d="M28 32.5708H22V48.5708H28V32.5708Z" fill="white"/>
<path d="M42 32.5708H36V48.5708H42V32.5708Z" fill="white"/>
<path d="M55 32.5708H49V48.5708H55V32.5708Z" fill="white"/>
<path d="M58 48.5708H6C4.89543 48.5708 4 49.4662 4 50.5708V54.5708C4 55.6754 4.89543 56.5708 6 56.5708H58C59.1046 56.5708 60 55.6754 60 54.5708V50.5708C60 49.4662 59.1046 48.5708 58 48.5708Z" fill="#B7CDE1"/>
<path d="M58 32.5708H6C5.46957 32.5708 4.96086 32.3601 4.58579 31.985C4.21071 31.6099 4 31.1012 4 30.5708V27.5708C3.99988 27.2518 4.07606 26.9374 4.22219 26.6538C4.36831 26.3703 4.58014 26.1258 4.84 25.9408L30.84 7.37077C31.1787 7.1296 31.5842 7 32 7C32.4158 7 32.8213 7.1296 33.16 7.37077L59.16 25.9408C59.4199 26.1258 59.6317 26.3703 59.7778 26.6538C59.9239 26.9374 60.0001 27.2518 60 27.5708V30.5708C60 31.1012 59.7893 31.6099 59.4142 31.985C59.0391 32.3601 58.5304 32.5708 58 32.5708Z" fill="#B7CDE1"/>
<g style="mix-blend-mode:multiply">
<path d="M15 29.5708H9V51.5708H15V29.5708Z" fill="#B7CDE1"/>
</g>
<g style="mix-blend-mode:multiply">
<path d="M28 29.5708H22V51.5708H28V29.5708Z" fill="#B7CDE1"/>
</g>
<g style="mix-blend-mode:multiply">
<path d="M42 29.5708H36V51.5708H42V29.5708Z" fill="#B7CDE1"/>
</g>
<g style="mix-blend-mode:multiply">
<path d="M55 29.5708H49V51.5708H55V29.5708Z" fill="#B7CDE1"/>
</g>
<path d="M52.5 62C57.7467 62 62 57.7467 62 52.5C62 47.2533 57.7467 43 52.5 43C47.2533 43 43 47.2533 43 52.5C43 57.7467 47.2533 62 52.5 62Z" fill="#00A362"/>
<path fill-rule="evenodd" clip-rule="evenodd" d="M49.6823 53.9389C49.7889 54.0494 49.9166 54.1373 50.0579 54.1974C50.1992 54.2575 50.3512 54.2884 50.5047 54.2884C50.6582 54.2884 50.8102 54.2575 50.9515 54.1974C51.0928 54.1373 51.2205 54.0494 51.3271 53.9389L55.7931 49.2673C55.8721 49.1829 55.9676 49.1157 56.0737 49.0697C56.1798 49.0237 56.2942 49 56.4098 49C56.5255 49 56.6399 49.0237 56.7459 49.0697C56.852 49.1157 56.9476 49.1829 57.0266 49.2673C57.1871 49.4439 57.2761 49.674 57.2761 49.9127C57.2761 50.1513 57.1871 50.3814 57.0266 50.558L51.1215 56.7372C51.0425 56.8213 50.9468 56.8881 50.8407 56.9333C50.7345 56.9785 50.6201 57.0012 50.5047 56.9999C50.3896 56.9992 50.2758 56.9756 50.1699 56.9305C50.064 56.8854 49.9682 56.8197 49.8879 56.7372L47.2495 53.9731C47.0889 53.7965 47 53.5665 47 53.3278C47 53.0892 47.0889 52.8591 47.2495 52.6825V52.6825C47.3285 52.5981 47.424 52.5308 47.5301 52.4849C47.6362 52.4389 47.7506 52.4152 47.8662 52.4152C47.9819 52.4152 48.0963 52.4389 48.2024 52.4849C48.3084 52.5308 48.404 52.5981 48.483 52.6825L49.6823 53.9389Z" fill="white"/>
</svg>
