<svg viewBox="0 0 64 64" fill="none" xmlns="http://www.w3.org/2000/svg">
<path d="M15 32.5708H9V48.5708H15V32.5708Z" fill="white"/>
<path d="M28 32.5708H22V48.5708H28V32.5708Z" fill="white"/>
<path d="M42 32.5708H36V48.5708H42V32.5708Z" fill="white"/>
<path d="M55 32.5708H49V48.5708H55V32.5708Z" fill="white"/>
<path d="M58 48.5708H6C4.89543 48.5708 4 49.4662 4 50.5708V54.5708C4 55.6754 4.89543 56.5708 6 56.5708H58C59.1046 56.5708 60 55.6754 60 54.5708V50.5708C60 49.4662 59.1046 48.5708 58 48.5708Z" fill="#B7CDE1"/>
<path d="M58 32.5708H6C5.46957 32.5708 4.96086 32.3601 4.58579 31.985C4.21071 31.6099 4 31.1012 4 30.5708V27.5708C3.99988 27.2518 4.07606 26.9374 4.22219 26.6538C4.36831 26.3703 4.58014 26.1258 4.84 25.9408L30.84 7.37077C31.1787 7.1296 31.5842 7 32 7C32.4158 7 32.8213 7.1296 33.16 7.37077L59.16 25.9408C59.4199 26.1258 59.6317 26.3703 59.7778 26.6538C59.9239 26.9374 60.0001 27.2518 60 27.5708V30.5708C60 31.1012 59.7893 31.6099 59.4142 31.985C59.0391 32.3601 58.5304 32.5708 58 32.5708Z" fill="#B7CDE1"/>
<g style="mix-blend-mode:multiply">
<path d="M15 29.5708H9V51.5708H15V29.5708Z" fill="#B7CDE1"/>
</g>
<g style="mix-blend-mode:multiply">
<path d="M28 29.5708H22V51.5708H28V29.5708Z" fill="#B7CDE1"/>
</g>
<g style="mix-blend-mode:multiply">
<path d="M42 29.5708H36V51.5708H42V29.5708Z" fill="#B7CDE1"/>
</g>
<g style="mix-blend-mode:multiply">
<path d="M55 29.5708H49V51.5708H55V29.5708Z" fill="#B7CDE1"/>
</g>
<path d="M52.5 62C57.7467 62 62 57.7467 62 52.5C62 47.2533 57.7467 43 52.5 43C47.2533 43 43 47.2533 43 52.5C43 57.7467 47.2533 62 52.5 62Z" fill="#1482FF"/>
<path d="M51.4708 53.5292L51.4757 57.3013C51.4608 57.4447 51.4762 57.5897 51.5209 57.7268C51.5656 57.8639 51.6386 57.9901 51.7352 58.0972C51.8318 58.2043 51.9497 58.2899 52.0815 58.3485C52.2133 58.4071 52.3559 58.4374 52.5001 58.4374C52.6442 58.4374 52.7869 58.4071 52.9186 58.3485C53.0504 58.2899 53.1683 58.2043 53.2649 58.0972C53.3615 57.9901 53.4345 57.8639 53.4792 57.7268C53.5239 57.5897 53.5393 57.4447 53.5244 57.3013L53.5292 53.5292L57.3013 53.5243C57.5547 53.4981 57.7894 53.3788 57.96 53.1896C58.1305 53.0004 58.2249 52.7547 58.2249 52.5C58.2249 52.2453 58.1305 51.9996 57.9599 51.8104C57.7894 51.6212 57.5547 51.5019 57.3013 51.4756L53.5292 51.4708L53.5244 47.6987C53.5393 47.5553 53.5238 47.4103 53.4792 47.2732C53.4344 47.1361 53.3615 47.0099 53.2649 46.9028C53.1683 46.7957 53.0503 46.7101 52.9186 46.6515C52.7869 46.5929 52.6442 46.5626 52.5 46.5626C52.3558 46.5626 52.2132 46.5929 52.0815 46.6515C51.9497 46.7101 51.8318 46.7957 51.7352 46.9028C51.6386 47.0099 51.5656 47.1361 51.5209 47.2732C51.4762 47.4103 51.4608 47.5553 51.4757 47.6987L51.4708 51.4708L47.6987 51.4756C47.5553 51.4608 47.4104 51.4762 47.2733 51.5209C47.1362 51.5656 47.01 51.6386 46.9029 51.7351C46.7958 51.8317 46.7102 51.9497 46.6516 52.0814C46.593 52.2132 46.5627 52.3558 46.5627 52.5C46.5627 52.6442 46.5929 52.7868 46.6516 52.9185C46.7102 53.0503 46.7958 53.1683 46.9029 53.2648C47.01 53.3614 47.1362 53.4344 47.2733 53.4791C47.4104 53.5238 47.5553 53.5392 47.6988 53.5243L51.4708 53.5292Z" fill="white"/>
</svg>
