<svg viewBox="0 0 32 33" fill="none" xmlns="http://www.w3.org/2000/svg">
<path d="M7.5 18.1665H4.5V26.1665H7.5V18.1665Z" fill="white"/>
<path d="M14 18.1665H11V26.1665H14V18.1665Z" fill="white"/>
<path d="M21 18.1665H18V26.1665H21V18.1665Z" fill="white"/>
<path d="M27.5 18.1665H24.5V26.1665H27.5V18.1665Z" fill="white"/>
<path d="M29 26.1665H3C2.44772 26.1665 2 26.6142 2 27.1665V29.1665C2 29.7188 2.44772 30.1665 3 30.1665H29C29.5523 30.1665 30 29.7188 30 29.1665V27.1665C30 26.6142 29.5523 26.1665 29 26.1665Z" fill="#B7CDE1"/>
<path d="M29 18.1662H3C2.73478 18.1662 2.48043 18.0609 2.29289 17.8734C2.10536 17.6858 2 17.4315 2 17.1662V15.6662C1.99994 15.5067 2.03803 15.3496 2.11109 15.2078C2.18416 15.066 2.29007 14.9438 2.42 14.8512L15.42 5.56624C15.5894 5.44566 15.7921 5.38086 16 5.38086C16.2079 5.38086 16.4106 5.44566 16.58 5.56624L29.58 14.8512C29.7099 14.9438 29.8158 15.066 29.8889 15.2078C29.962 15.3496 30.0001 15.5067 30 15.6662V17.1662C30 17.4315 29.8946 17.6858 29.7071 17.8734C29.5196 18.0609 29.2652 18.1662 29 18.1662Z" fill="#B7CDE1"/>
<g style="mix-blend-mode:multiply">
<path d="M7.5 16.6665H4.5V27.6665H7.5V16.6665Z" fill="#B7CDE1"/>
</g>
<g style="mix-blend-mode:multiply">
<path d="M14 16.6665H11V27.6665H14V16.6665Z" fill="#B7CDE1"/>
</g>
<g style="mix-blend-mode:multiply">
<path d="M21 16.6665H18V27.6665H21V16.6665Z" fill="#B7CDE1"/>
</g>
<g style="mix-blend-mode:multiply">
<path d="M27.5 16.6665H24.5V27.6665H27.5V16.6665Z" fill="#B7CDE1"/>
</g>
</svg>
