<svg viewBox="0 0 32 32" fill="none" xmlns="http://www.w3.org/2000/svg">
<path d="M21.765 12.0449L16.115 19.4149C16.0561 19.496 16.0183 19.5905 16.005 19.6899C15.9907 19.79 16.0045 19.8921 16.045 19.9849C16.0844 20.0756 16.1464 20.1548 16.225 20.2149C16.3046 20.2773 16.3996 20.3171 16.5 20.3299L25.84 21.4999C25.9382 21.5074 26.0366 21.4884 26.125 21.4449C26.2142 21.4051 26.2916 21.3431 26.35 21.2649C26.4095 21.1846 26.4459 21.0894 26.455 20.9899C26.4649 20.8926 26.4494 20.7944 26.41 20.7049L22.74 12.1649C22.7001 12.0743 22.6361 11.9965 22.555 11.9399C22.4765 11.881 22.3841 11.8436 22.2868 11.8313C22.1894 11.8191 22.0906 11.8323 22 11.8699C21.9076 11.9065 21.8266 11.9669 21.765 12.0449Z" fill="white"/>
<g style="mix-blend-mode:multiply">
<path d="M2.05001 23.53C2.01709 23.5769 1.99962 23.6328 2.00001 23.69C2.0007 23.7494 2.01993 23.8071 2.05501 23.855C2.09312 23.9035 2.14305 23.9414 2.20001 23.965C2.26247 23.9799 2.32755 23.9799 2.39001 23.965H29.605C29.6672 23.9823 29.7328 23.9823 29.795 23.965C29.8539 23.9449 29.9047 23.9063 29.94 23.855C29.9786 23.8106 29.9999 23.7538 30 23.695C30.0011 23.6361 29.9836 23.5784 29.95 23.53L28.695 21C28.6174 20.8648 28.5052 20.7527 28.37 20.675C28.2274 20.5949 28.0683 20.5487 27.905 20.54H4.09001C3.9267 20.5487 3.76759 20.5949 3.62501 20.675C3.49119 20.7528 3.38068 20.865 3.30501 21L2.05001 23.53Z" fill="white"/>
</g>
<path d="M27.23 20.5002H4.65504C4.56203 20.4955 4.46901 20.5092 4.38135 20.5407C4.29369 20.5721 4.21313 20.6206 4.14433 20.6834C4.07552 20.7462 4.01984 20.8219 3.98048 20.9063C3.94113 20.9908 3.91888 21.0821 3.91504 21.1752V29.3252C3.92411 29.5126 4.00706 29.6889 4.14573 29.8154C4.2844 29.9419 4.46752 30.0083 4.65504 30.0002H27.23C27.4167 30.007 27.5985 29.9399 27.7361 29.8136C27.8737 29.6872 27.956 29.5117 27.965 29.3252V21.1652C27.9547 20.9799 27.8717 20.8062 27.7341 20.6817C27.5965 20.5572 27.4154 20.492 27.23 20.5002V20.5002Z" fill="#B7CDE1"/>
<g style="mix-blend-mode:multiply">
<g style="mix-blend-mode:multiply">
<path d="M2.05001 23.53C2.01709 23.5769 1.99962 23.6328 2.00001 23.69C2.0007 23.7494 2.01993 23.8071 2.05501 23.855C2.09312 23.9035 2.14305 23.9414 2.20001 23.965C2.26247 23.9799 2.32755 23.9799 2.39001 23.965H29.605C29.6672 23.9823 29.7328 23.9823 29.795 23.965C29.8539 23.9449 29.9047 23.9063 29.94 23.855C29.9786 23.8106 29.9999 23.7538 30 23.695C30.0011 23.6361 29.9836 23.5784 29.95 23.53L28.695 21C28.6174 20.8648 28.5052 20.7527 28.37 20.675C28.2274 20.5949 28.0683 20.5487 27.905 20.54H4.09001C3.9267 20.5487 3.76759 20.5949 3.62501 20.675C3.49119 20.7528 3.38068 20.865 3.30501 21L2.05001 23.53Z" fill="#B7CDE1"/>
</g>
</g>
<path d="M12.2499 9.05507L5.12991 11.1451C4.99554 11.1845 4.88225 11.2756 4.8148 11.3983C4.74734 11.521 4.73121 11.6655 4.76991 11.8001L6.85991 18.9151C6.8756 18.9839 6.9057 19.0487 6.94821 19.105C6.99073 19.1614 7.0447 19.2081 7.10658 19.2421C7.16846 19.2761 7.23684 19.2967 7.30722 19.3023C7.3776 19.308 7.44838 19.2987 7.51491 19.2751L14.6349 17.1901C14.7706 17.1506 14.8851 17.059 14.9535 16.9353C15.0219 16.8117 15.0386 16.666 14.9999 16.5301L12.9049 9.41507C12.8654 9.2807 12.7744 9.16741 12.6517 9.09996C12.5289 9.0325 12.3845 9.01636 12.2499 9.05507V9.05507Z" fill="#FE90A0"/>
<path d="M18.545 11.5C19.4875 11.5 20.4087 11.2205 21.1923 10.6969C21.9759 10.1733 22.5867 9.42915 22.9473 8.55846C23.308 7.68777 23.4023 6.72969 23.2185 5.80537C23.0346 4.88105 22.5808 4.03201 21.9144 3.36561C21.248 2.69921 20.399 2.24539 19.4746 2.06153C18.5503 1.87767 17.5922 1.97204 16.7215 2.33269C15.8509 2.69334 15.1067 3.30408 14.5831 4.08768C14.0595 4.87128 13.78 5.79255 13.78 6.73497C13.78 7.99873 14.2821 9.21073 15.1757 10.1043C16.0693 10.9979 17.2813 11.5 18.545 11.5Z" fill="#FEB452"/>
<g style="mix-blend-mode:multiply">
<path d="M21.765 12.0451L16.115 19.4151C16.0561 19.4962 16.0183 19.5907 16.005 19.6901C15.9907 19.7902 16.0045 19.8924 16.045 19.9851C16.0844 20.0759 16.1464 20.155 16.225 20.2151C16.3046 20.2776 16.3996 20.3173 16.5 20.3301L25.84 21.5001C25.9382 21.5076 26.0366 21.4886 26.125 21.4451C26.2142 21.4054 26.2916 21.3434 26.35 21.2651C26.4095 21.1848 26.4459 21.0897 26.455 20.9901C26.4649 20.8928 26.4494 20.7946 26.41 20.7051L22.74 12.1651C22.7001 12.0746 22.6361 11.9967 22.555 11.9401C22.4765 11.8813 22.3841 11.8439 22.2868 11.8316C22.1894 11.8193 22.0906 11.8326 22 11.8701C21.9076 11.9067 21.8266 11.9671 21.765 12.0451Z" fill="#42CACD"/>
</g>
</svg>
