<svg width="32" height="32" viewBox="0 0 32 32" fill="none" xmlns="http://www.w3.org/2000/svg">
<path d="M10.0942 25.6654C10.1252 25.3905 10.0948 25.1122 10.005 24.8506C9.91195 24.5881 9.75947 24.3507 9.55948 24.1568C9.10163 23.8455 8.55227 23.6975 8 23.7367V22.2154C8.55705 22.2547 9.11046 22.0995 9.56584 21.7762C9.75521 21.5921 9.90096 21.3679 9.99238 21.12C10.0838 20.8722 10.1186 20.6071 10.0942 20.3441V18.4345C10.0508 17.7839 10.2632 17.1421 10.6861 16.6459C10.9132 16.4121 11.1893 16.2317 11.4945 16.1176C11.8044 16.0177 12.1313 15.9809 12.4557 16.0093H14.6389V17.6579H13.4995C13.2542 17.6514 13.0089 17.6706 12.7675 17.7152C12.5919 17.7452 12.4285 17.8247 12.2965 17.9444C12.1687 18.0664 12.0801 18.2237 12.0419 18.3963C11.989 18.6516 11.9676 18.9124 11.9783 19.1729V20.8978C11.9997 21.1657 11.9627 21.4349 11.8701 21.6871C11.7846 21.9469 11.6384 22.1826 11.4436 22.3746C11.0468 22.7063 10.5533 22.9006 10.0369 22.9283V23.0747C10.5567 23.0943 11.0527 23.2973 11.4372 23.6476C11.6161 23.8314 11.7586 24.0474 11.8573 24.2841C11.9515 24.5383 11.9927 24.8091 11.9783 25.0798V26.8302C11.9708 27.0853 11.9986 27.3402 12.061 27.5877C12.0927 27.763 12.1797 27.9237 12.3093 28.046C12.4425 28.1663 12.6088 28.2439 12.7866 28.2688C13.0303 28.3123 13.2775 28.3336 13.525 28.3324H14.6326V29.9492H12.4557C12.1405 29.9678 11.8248 29.9245 11.5263 29.8219C11.2279 29.7287 10.951 29.5773 10.7116 29.3763C10.4877 29.1327 10.3184 28.844 10.2151 28.5297C10.1083 28.2169 10.0671 27.8853 10.0942 27.5558V25.6654Z" fill="white"/>
<path d="M21.8316 27.5236C21.8554 27.8525 21.8112 28.1827 21.7017 28.4937C21.5921 28.8048 21.4197 29.0899 21.1951 29.3313C20.9603 29.5429 20.6854 29.7053 20.3867 29.8087C20.0882 29.9114 19.7725 29.9546 19.4574 29.936H17.2805V28.3001H18.4135C18.661 28.3014 18.9082 28.28 19.1519 28.2365C19.3297 28.2116 19.496 28.134 19.6293 28.0137C19.7585 27.8902 19.8472 27.7304 19.8839 27.5554C19.93 27.3165 19.9471 27.0728 19.9348 26.8298V25.0984C19.9162 24.8252 19.9548 24.5511 20.0479 24.2936C20.141 24.0361 20.2868 23.8007 20.4758 23.6026C20.8706 23.2403 21.385 23.0364 21.9207 23.0297V22.8833C21.406 22.8565 20.9142 22.662 20.5204 22.3296C20.3265 22.1516 20.1725 21.9347 20.0685 21.693C19.9672 21.445 19.9216 21.1777 19.9348 20.9101V19.1915C19.9436 18.9381 19.9136 18.6848 19.8457 18.4404C19.809 18.2654 19.7203 18.1056 19.5911 17.9821C19.4583 17.8636 19.2952 17.7843 19.12 17.753C18.8826 17.7115 18.6418 17.6923 18.4008 17.6957H17.2805V16.0089H19.4574C19.7821 15.9851 20.108 16.0329 20.4122 16.1489C20.7159 16.263 20.9916 16.441 21.2206 16.6709C21.6397 17.1643 21.8518 17.8006 21.8125 18.4468V20.3563C21.7889 20.6195 21.8237 20.8847 21.9144 21.1329C22.0068 21.3745 22.1526 21.592 22.3408 21.7694C22.795 22.0835 23.3434 22.2319 23.8939 22.1895V23.6917C23.3417 23.6525 22.7923 23.8005 22.3345 24.1118C22.136 24.3044 21.9837 24.5394 21.8889 24.7993C21.7997 25.0632 21.7692 25.3434 21.7998 25.6204L21.8316 27.5236Z" fill="white"/>
<path d="M4.5 10H27.5V26.9688C27.5 27.2622 27.2622 27.5 26.9687 27.5H5.03125C4.73785 27.5 4.5 27.2622 4.5 26.9687V10Z" fill="#B7CDE1"/>
<path d="M2 3H14.5L17 10H4.5L2 3Z" fill="#B7CDE1"/>
<path d="M30 3H17.5L15 10H27.5L30 3Z" fill="#B7CDE1"/>
<g style="mix-blend-mode:multiply">
<path d="M10.0942 25.6654C10.1252 25.3905 10.0948 25.1122 10.005 24.8506C9.91195 24.5881 9.75947 24.3507 9.55948 24.1568C9.10163 23.8455 8.55227 23.6975 8 23.7367V22.2154C8.55705 22.2547 9.11046 22.0995 9.56584 21.7762C9.75521 21.5921 9.90096 21.3679 9.99238 21.12C10.0838 20.8722 10.1186 20.6071 10.0942 20.3441V18.4345C10.0508 17.7839 10.2632 17.1421 10.6861 16.6459C10.9132 16.4121 11.1893 16.2317 11.4945 16.1176C11.8044 16.0177 12.1313 15.9809 12.4557 16.0093H14.6389V17.6579H13.4995C13.2542 17.6514 13.0089 17.6706 12.7675 17.7152C12.5919 17.7452 12.4285 17.8247 12.2965 17.9444C12.1687 18.0664 12.0801 18.2237 12.0419 18.3963C11.989 18.6516 11.9676 18.9124 11.9783 19.1729V20.8978C11.9997 21.1657 11.9627 21.4349 11.8701 21.6871C11.7846 21.9469 11.6384 22.1826 11.4436 22.3746C11.0468 22.7063 10.5533 22.9006 10.0369 22.9283V23.0747C10.5567 23.0943 11.0527 23.2973 11.4372 23.6476C11.6161 23.8314 11.7586 24.0474 11.8573 24.2841C11.9515 24.5383 11.9927 24.8091 11.9783 25.0798V26.8302C11.9708 27.0853 11.9986 27.3402 12.061 27.5877C12.0927 27.763 12.1797 27.9237 12.3093 28.046C12.4425 28.1663 12.6088 28.2439 12.7866 28.2688C13.0303 28.3123 13.2775 28.3336 13.525 28.3324H14.6326V29.9492H12.4557C12.1405 29.9678 11.8248 29.9245 11.5263 29.8219C11.2279 29.7287 10.951 29.5773 10.7116 29.3763C10.4877 29.1327 10.3184 28.844 10.2151 28.5297C10.1083 28.2169 10.0671 27.8853 10.0942 27.5558V25.6654Z" fill="#42CACD"/>
</g>
<g style="mix-blend-mode:multiply">
<path d="M21.8316 27.5236C21.8554 27.8525 21.8112 28.1827 21.7017 28.4937C21.5921 28.8048 21.4197 29.0899 21.1951 29.3313C20.9603 29.5429 20.6854 29.7053 20.3867 29.8087C20.0882 29.9114 19.7725 29.9546 19.4574 29.936H17.2805V28.3001H18.4135C18.661 28.3014 18.9082 28.28 19.1519 28.2365C19.3297 28.2116 19.496 28.134 19.6293 28.0137C19.7585 27.8902 19.8472 27.7304 19.8839 27.5554C19.93 27.3165 19.9471 27.0728 19.9348 26.8298V25.0984C19.9162 24.8252 19.9548 24.5511 20.0479 24.2936C20.141 24.0361 20.2868 23.8007 20.4758 23.6026C20.8706 23.2403 21.385 23.0364 21.9207 23.0297V22.8833C21.406 22.8565 20.9142 22.662 20.5204 22.3296C20.3265 22.1516 20.1725 21.9347 20.0685 21.693C19.9672 21.445 19.9216 21.1777 19.9348 20.9101V19.1915C19.9436 18.9381 19.9136 18.6848 19.8457 18.4404C19.809 18.2654 19.7203 18.1056 19.5911 17.9821C19.4583 17.8636 19.2952 17.7843 19.12 17.753C18.8826 17.7115 18.6418 17.6923 18.4008 17.6957H17.2805V16.0089H19.4574C19.7821 15.9851 20.108 16.0329 20.4122 16.1489C20.7159 16.263 20.9916 16.441 21.2206 16.6709C21.6397 17.1643 21.8518 17.8006 21.8125 18.4468V20.3563C21.7889 20.6195 21.8237 20.8847 21.9144 21.1329C22.0068 21.3745 22.1526 21.592 22.3408 21.7694C22.795 22.0835 23.3434 22.2319 23.8939 22.1895V23.6917C23.3417 23.6525 22.7923 23.8005 22.3345 24.1118C22.136 24.3044 21.9837 24.5394 21.8889 24.7993C21.7997 25.0632 21.7692 25.3434 21.7998 25.6204L21.8316 27.5236Z" fill="#42CACD"/>
</g>
<g style="mix-blend-mode:multiply">
<path d="M2 3H14.5L17 10H4.5L2 3Z" fill="#B7CDE1"/>
</g>
<g style="mix-blend-mode:multiply">
<path d="M30 3H17.5L15 10H27.5L30 3Z" fill="#B7CDE1"/>
</g>
</svg>
