<?xml version="1.0" encoding="UTF-8"?><svg id="Layer_1" xmlns="http://www.w3.org/2000/svg" xmlns:xlink="http://www.w3.org/1999/xlink" viewBox="0 0 129.99 129.99"><defs><style>.cls-1,.cls-2{fill:none;}.cls-3{clip-path:url(#clippath);}.cls-4{fill:#eec8ab;}.cls-2{stroke:#a7a9ab;stroke-miterlimit:10;stroke-width:.28px;}</style><clipPath id="clippath"><circle class="cls-1" cx="64.99" cy="64.99" r="65.4"/></clipPath></defs><g class="cls-3"><path class="cls-4" d="m118.28-99.34L-38.01-9.32C-29.86,92.93-27.65,109.93-.82,191.3l156.29-90.02C128.64,19.9,126.43,2.91,118.28-99.34Z"/><path class="cls-2" d="m150.07,104.44C123.24,23.07,121.04,6.07,112.88-96.18"/><path class="cls-2" d="m144.68,107.61C117.85,26.23,115.64,9.24,107.49-93.01"/><path class="cls-2" d="m139.29,110.6C112.46,29.23,110.25,12.23,102.1-90.02"/><path class="cls-2" d="m133.89,113.77c-26.83-81.37-29.03-98.37-37.19-200.62"/><path class="cls-2" d="m128.5,116.9c-26.83-81.37-29.03-98.37-37.19-200.62"/><path class="cls-2" d="m123.11,119.97c-26.83-81.37-29.03-98.37-37.19-200.62"/><path class="cls-2" d="m117.72,123.03c-26.83-81.37-29.03-98.37-37.19-200.62"/><path class="cls-2" d="m112.32,126.2c-26.83-81.37-29.03-98.37-37.19-200.62"/><path class="cls-2" d="m106.93,129.36c-26.83-81.37-29.03-98.37-37.19-200.62"/><path class="cls-2" d="m106.93,129.36c-26.83-81.37-29.03-98.37-37.19-200.62"/><path class="cls-2" d="m101.54,132.38c-26.83-81.37-29.03-98.37-37.19-200.62"/><path class="cls-2" d="m96.15,135.48c-26.83-81.37-29.03-98.37-37.19-200.62"/><path class="cls-2" d="m90.75,138.61C63.92,57.24,61.72,40.24,53.56-62.01"/><path class="cls-2" d="m85.36,141.72C58.53,60.35,56.33,43.35,48.17-58.9"/><path class="cls-2" d="m79.97,144.89C53.14,63.51,50.93,46.52,42.78-55.73"/><path class="cls-2" d="m74.58,148.05C47.74,66.68,45.54,49.68,37.39-52.57"/><path class="cls-2" d="m74.58,147.85C47.74,66.47,45.54,49.48,37.39-52.77"/><path class="cls-2" d="m69.18,151.01C42.35,69.64,40.15,52.64,31.99-49.61"/><path class="cls-2" d="m63.79,154.14C36.96,72.77,34.76,55.77,26.6-46.48"/><path class="cls-2" d="m58.4,157.55C31.57,76.17,29.36,59.18,21.21-43.07"/><path class="cls-2" d="m58.4,157.17C31.57,75.8,29.36,58.8,21.21-43.45"/><path class="cls-2" d="m53,160.34C26.17,78.96,23.97,61.97,15.82-40.28"/><path class="cls-2" d="m47.61,163.5C20.78,82.13,18.58,65.13,10.42-37.12"/><path class="cls-2" d="m42.22,166.67C15.39,85.29,13.18,68.3,5.03-33.95"/><path class="cls-2" d="m42.22,166.67C15.39,85.29,13.18,68.3,5.03-33.95"/><path class="cls-2" d="m36.83,169.66C10,88.28,7.79,71.29-.36-30.96"/><path class="cls-2" d="m31.43,172.83C4.6,91.45,2.4,74.45-5.75-27.79"/><path class="cls-2" d="m25.86,175.86C-.97,94.48-3.17,77.49-11.33-24.76"/><path class="cls-2" d="m20.47,179.02C-6.36,97.65-8.57,80.65-16.72-21.6"/><line class="cls-2" x1="153.28" y1="94.91" x2="-3.01" y2="184.93"/><line class="cls-2" x1="151.25" y1="88.69" x2="-5.04" y2="178.71"/><line class="cls-2" x1="149.28" y1="82.77" x2="-7.01" y2="172.79"/><line class="cls-2" x1="147.59" y1="77" x2="-8.7" y2="167.03"/><line class="cls-2" x1="145.68" y1="71.02" x2="-10.61" y2="161.04"/><line class="cls-2" x1="144.01" y1="65.48" x2="-12.28" y2="155.5"/><line class="cls-2" x1="142.3" y1="59.68" x2="-13.99" y2="149.71"/><line class="cls-2" x1="140.74" y1="54.38" x2="-15.55" y2="144.41"/><line class="cls-2" x1="139.29" y1="49.24" x2="-17" y2="139.26"/><line class="cls-2" x1="137.63" y1="43.41" x2="-18.66" y2="133.44"/><line class="cls-2" x1="136.06" y1="37.7" x2="-20.23" y2="127.72"/><line class="cls-2" x1="134.81" y1="32.07" x2="-21.49" y2="122.1"/><line class="cls-2" x1="133.41" y1="26.62" x2="-22.88" y2="116.64"/><line class="cls-2" x1="132.33" y1="21.33" x2="-23.96" y2="111.35"/><line class="cls-2" x1="131.15" y1="16.03" x2="-25.14" y2="106.05"/><line class="cls-2" x1="130.06" y1="10.29" x2="-26.23" y2="100.32"/><line class="cls-2" x1="129.29" y1="4.13" x2="-27" y2="94.16"/><line class="cls-2" x1="127.89" y1="-2.05" x2="-28.4" y2="87.98"/><line class="cls-2" x1="127.12" y1="-8.61" x2="-29.17" y2="81.41"/><line class="cls-2" x1="126.32" y1="-14.66" x2="-29.97" y2="75.37"/><line class="cls-2" x1="125.51" y1="-20.99" x2="-30.78" y2="69.03"/><line class="cls-2" x1="124.47" y1="-27.79" x2="-31.82" y2="62.23"/><line class="cls-2" x1="123.87" y1="-34.61" x2="-32.42" y2="55.41"/><line class="cls-2" x1="123.38" y1="-40.5" x2="-32.91" y2="49.53"/><line class="cls-2" x1="122.64" y1="-46.39" x2="-33.65" y2="43.63"/><line class="cls-2" x1="122.18" y1="-52.28" x2="-34.11" y2="37.75"/><line class="cls-2" x1="121.76" y1="-58.21" x2="-34.53" y2="31.81"/><line class="cls-2" x1="121.1" y1="-64" x2="-35.19" y2="26.02"/><line class="cls-2" x1="120.69" y1="-69.76" x2="-35.6" y2="20.26"/><line class="cls-2" x1="120.16" y1="-75.36" x2="-36.13" y2="14.66"/></g></svg>