<svg viewBox="0 0 32 32" fill="none" xmlns="http://www.w3.org/2000/svg">
<path d="M8.245 2H7.755C7.33803 2 7 2.33803 7 2.755V6.245C7 6.66197 7.33803 7 7.755 7H8.245C8.66198 7 9 6.66197 9 6.245V2.755C9 2.33803 8.66198 2 8.245 2Z" fill="white"/>
<path d="M24.245 2H23.755C23.338 2 23 2.33803 23 2.755V6.245C23 6.66197 23.338 7 23.755 7H24.245C24.662 7 25 6.66197 25 6.245V2.755C25 2.33803 24.662 2 24.245 2Z" fill="white"/>
<path d="M3 3.5H29C29.2652 3.5 29.5196 3.60536 29.7071 3.79289C29.8946 3.98043 30 4.23478 30 4.5V12H2V4.5C2 4.23478 2.10536 3.98043 2.29289 3.79289C2.48043 3.60536 2.73478 3.5 3 3.5V3.5Z" fill="white"/>
<path d="M2 10.5H30V29C30 29.2652 29.8946 29.5196 29.7071 29.7071C29.5196 29.8946 29.2652 30 29 30H3C2.73478 30 2.48043 29.8946 2.29289 29.7071C2.10536 29.5196 2 29.2652 2 29V10.5Z" fill="#B7CDE1"/>
<g style="mix-blend-mode:multiply">
<path d="M3 3.5H29C29.2652 3.5 29.5196 3.60536 29.7071 3.79289C29.8946 3.98043 30 4.23478 30 4.5V12H2V4.5C2 4.23478 2.10536 3.98043 2.29289 3.79289C2.48043 3.60536 2.73478 3.5 3 3.5V3.5Z" fill="#F05656"/>
</g>
<g style="mix-blend-mode:multiply">
<path d="M8.245 2H7.755C7.33803 2 7 2.33803 7 2.755V6.245C7 6.66197 7.33803 7 7.755 7H8.245C8.66198 7 9 6.66197 9 6.245V2.755C9 2.33803 8.66198 2 8.245 2Z" fill="#B7CDE1"/>
</g>
<g style="mix-blend-mode:multiply">
<path d="M24.245 2H23.755C23.338 2 23 2.33803 23 2.755V6.245C23 6.66197 23.338 7 23.755 7H24.245C24.662 7 25 6.66197 25 6.245V2.755C25 2.33803 24.662 2 24.245 2Z" fill="#B7CDE1"/>
</g>
<g style="mix-blend-mode:multiply">
<path d="M13.75 14.5H12.25C11.8358 14.5 11.5 14.8358 11.5 15.25V16.75C11.5 17.1642 11.8358 17.5 12.25 17.5H13.75C14.1642 17.5 14.5 17.1642 14.5 16.75V15.25C14.5 14.8358 14.1642 14.5 13.75 14.5Z" fill="#B7CDE1"/>
</g>
<g style="mix-blend-mode:multiply">
<path d="M19.75 14.5H18.25C17.8358 14.5 17.5 14.8358 17.5 15.25V16.75C17.5 17.1642 17.8358 17.5 18.25 17.5H19.75C20.1642 17.5 20.5 17.1642 20.5 16.75V15.25C20.5 14.8358 20.1642 14.5 19.75 14.5Z" fill="#B7CDE1"/>
</g>
<g style="mix-blend-mode:multiply">
<path d="M25.75 14.5H24.25C23.8358 14.5 23.5 14.8358 23.5 15.25V16.75C23.5 17.1642 23.8358 17.5 24.25 17.5H25.75C26.1642 17.5 26.5 17.1642 26.5 16.75V15.25C26.5 14.8358 26.1642 14.5 25.75 14.5Z" fill="#B7CDE1"/>
</g>
<g style="mix-blend-mode:multiply">
<path d="M13.75 19.5H12.25C11.8358 19.5 11.5 19.8358 11.5 20.25V21.75C11.5 22.1642 11.8358 22.5 12.25 22.5H13.75C14.1642 22.5 14.5 22.1642 14.5 21.75V20.25C14.5 19.8358 14.1642 19.5 13.75 19.5Z" fill="#B7CDE1"/>
</g>
<g style="mix-blend-mode:multiply">
<path d="M19.75 19.5H18.25C17.8358 19.5 17.5 19.8358 17.5 20.25V21.75C17.5 22.1642 17.8358 22.5 18.25 22.5H19.75C20.1642 22.5 20.5 22.1642 20.5 21.75V20.25C20.5 19.8358 20.1642 19.5 19.75 19.5Z" fill="#B7CDE1"/>
</g>
<g style="mix-blend-mode:multiply">
<path d="M25.75 19.5H24.25C23.8358 19.5 23.5 19.8358 23.5 20.25V21.75C23.5 22.1642 23.8358 22.5 24.25 22.5H25.75C26.1642 22.5 26.5 22.1642 26.5 21.75V20.25C26.5 19.8358 26.1642 19.5 25.75 19.5Z" fill="#F05656"/>
</g>
<g style="mix-blend-mode:multiply">
<path d="M7.75 19.5H6.25C5.83579 19.5 5.5 19.8358 5.5 20.25V21.75C5.5 22.1642 5.83579 22.5 6.25 22.5H7.75C8.16421 22.5 8.5 22.1642 8.5 21.75V20.25C8.5 19.8358 8.16421 19.5 7.75 19.5Z" fill="#F05656"/>
</g>
<g style="mix-blend-mode:multiply">
<path d="M13.75 24.5H12.25C11.8358 24.5 11.5 24.8358 11.5 25.25V26.75C11.5 27.1642 11.8358 27.5 12.25 27.5H13.75C14.1642 27.5 14.5 27.1642 14.5 26.75V25.25C14.5 24.8358 14.1642 24.5 13.75 24.5Z" fill="#B7CDE1"/>
</g>
<g style="mix-blend-mode:multiply">
<path d="M19.75 24.5H18.25C17.8358 24.5 17.5 24.8358 17.5 25.25V26.75C17.5 27.1642 17.8358 27.5 18.25 27.5H19.75C20.1642 27.5 20.5 27.1642 20.5 26.75V25.25C20.5 24.8358 20.1642 24.5 19.75 24.5Z" fill="#B7CDE1"/>
</g>
<g style="mix-blend-mode:multiply">
<path d="M7.75 24.5H6.25C5.83579 24.5 5.5 24.8358 5.5 25.25V26.75C5.5 27.1642 5.83579 27.5 6.25 27.5H7.75C8.16421 27.5 8.5 27.1642 8.5 26.75V25.25C8.5 24.8358 8.16421 24.5 7.75 24.5Z" fill="#F05656"/>
</g>
</svg>
