<svg viewBox="0 0 32 32" fill="none" xmlns="http://www.w3.org/2000/svg">
<path fill-rule="evenodd" clip-rule="evenodd" d="M28.61 13.5H9.89C9.70651 13.4996 9.52473 13.5353 9.355 13.605C9.1867 13.6744 9.03379 13.7764 8.90507 13.9051C8.77635 14.0338 8.67437 14.1867 8.605 14.355C8.53528 14.5247 8.49961 14.7065 8.5 14.89V25.61C8.49961 25.7935 8.53528 25.9753 8.605 26.145C8.67437 26.3133 8.77635 26.4662 8.90507 26.5949C9.03379 26.7237 9.1867 26.8256 9.355 26.895C9.52473 26.9647 9.70651 27.0004 9.89 27H26.5L30 30V14.89C30.0004 14.7065 29.9647 14.5247 29.895 14.355C29.8256 14.1867 29.7237 14.0338 29.5949 13.9051C29.4662 13.7764 29.3133 13.6744 29.145 13.605C28.9753 13.5353 28.7935 13.4996 28.61 13.5Z" fill="white"/>
<path fill-rule="evenodd" clip-rule="evenodd" d="M22.61 2H3.89C3.70651 1.99961 3.52473 2.03528 3.355 2.105C3.1867 2.17437 3.03379 2.27635 2.90507 2.40507C2.77635 2.53379 2.67437 2.6867 2.605 2.855C2.53528 3.02473 2.49961 3.20651 2.5 3.39V19.39L6 16.39H22.61C22.7935 16.3904 22.9753 16.3547 23.145 16.285C23.3133 16.2156 23.4662 16.1137 23.5949 15.9849C23.7237 15.8562 23.8256 15.7033 23.895 15.535C23.9647 15.3653 24.0004 15.1835 24 15V3.39C24.0004 3.20651 23.9647 3.02473 23.895 2.855C23.8256 2.6867 23.7237 2.53379 23.5949 2.40507C23.4662 2.27635 23.3133 2.17437 23.145 2.105C22.9753 2.03528 22.7935 1.99961 22.61 2V2Z" fill="#B7CDE1"/>
<g style="mix-blend-mode:multiply">
<path fill-rule="evenodd" clip-rule="evenodd" d="M28.61 13.5H9.89C9.70651 13.4996 9.52473 13.5353 9.355 13.605C9.1867 13.6744 9.03379 13.7764 8.90507 13.9051C8.77635 14.0338 8.67437 14.1867 8.605 14.355C8.53528 14.5247 8.49961 14.7065 8.5 14.89V25.61C8.49961 25.7935 8.53528 25.9753 8.605 26.145C8.67437 26.3133 8.77635 26.4662 8.90507 26.5949C9.03379 26.7237 9.1867 26.8256 9.355 26.895C9.52473 26.9647 9.70651 27.0004 9.89 27H26.5L30 30V14.89C30.0004 14.7065 29.9647 14.5247 29.895 14.355C29.8256 14.1867 29.7237 14.0338 29.5949 13.9051C29.4662 13.7764 29.3133 13.6744 29.145 13.605C28.9753 13.5353 28.7935 13.4996 28.61 13.5Z" fill="#42CACD"/>
</g>
<path d="M15.08 6.52512C15.079 6.76194 15.0454 6.99749 14.98 7.22512C14.9119 7.47303 14.792 7.70369 14.6282 7.90191C14.4645 8.10013 14.2606 8.26141 14.03 8.37512C13.725 8.51038 13.3935 8.57531 13.06 8.56512C12.7848 8.56565 12.5131 8.50412 12.265 8.38512C12.0237 8.26836 11.8066 8.10722 11.625 7.91012C11.441 7.70807 11.2953 7.47427 11.195 7.22012C11.0913 6.96098 11.0386 6.68424 11.04 6.40512C11.0358 6.07113 11.104 5.74019 11.24 5.43512C11.3704 5.15015 11.5556 4.89362 11.785 4.68012C12.0185 4.46542 12.2897 4.29589 12.585 4.18012C12.9045 4.06 13.2437 4.00065 13.585 4.00512C14.1443 4.00082 14.7003 4.0904 15.23 4.27012C15.7116 4.4275 16.1511 4.69257 16.5149 5.04518C16.8788 5.39779 17.1576 5.82867 17.33 6.30512C17.5396 6.8624 17.6398 7.45489 17.625 8.05012C17.6353 8.63154 17.5246 9.20875 17.3 9.74512C17.0796 10.2283 16.7552 10.6569 16.35 11.0001C15.9291 11.3604 15.4391 11.6309 14.91 11.7951C14.3122 11.9858 13.6875 12.0787 13.06 12.0701H7.5V11.0701H13.06C13.308 11.0644 13.5553 11.041 13.8 11.0001C14.0703 10.9542 14.3362 10.8856 14.595 10.7951C14.8585 10.6954 15.1114 10.5698 15.35 10.4201C15.5941 10.2699 15.8134 10.0826 16 9.86512C16.1906 9.62877 16.3394 9.36159 16.44 9.07512C16.5547 8.74405 16.6106 8.39545 16.605 8.04512C16.6082 7.7086 16.5713 7.37289 16.495 7.04512C16.4293 6.7481 16.3144 6.46418 16.155 6.20512C15.9966 5.9519 15.7912 5.73128 15.55 5.55512C15.2865 5.36498 14.9897 5.22591 14.675 5.14512C14.8199 5.35061 14.9297 5.5787 15 5.82012C15.0592 6.05028 15.0861 6.28755 15.08 6.52512V6.52512ZM12.05 6.39012C12.0502 6.68939 12.1545 6.97928 12.345 7.21012C12.4357 7.30943 12.5443 7.39084 12.665 7.45012C12.7882 7.50942 12.9232 7.54018 13.06 7.54012C13.2103 7.54154 13.359 7.50907 13.495 7.44512C13.6166 7.38509 13.7239 7.29986 13.81 7.19512C13.8953 7.08361 13.9612 6.95853 14.005 6.82512C14.0489 6.68089 14.0708 6.53087 14.07 6.38012C14.07 6.26447 14.06 6.14903 14.04 6.03512C14.0202 5.9112 13.9849 5.79025 13.935 5.67512C13.8807 5.5497 13.8101 5.43202 13.725 5.32512C13.6313 5.20714 13.52 5.10427 13.395 5.02012C13.2078 5.03196 13.0237 5.07417 12.85 5.14512C12.6904 5.20552 12.5455 5.29927 12.425 5.42012C12.3044 5.53989 12.2092 5.68273 12.145 5.84012C12.0784 6.01567 12.0461 6.20239 12.05 6.39012V6.39012Z" fill="white"/>
<path d="M23.81 18.8997C23.8269 19.3033 23.7446 19.7048 23.5702 20.0692C23.3959 20.4336 23.1349 20.7496 22.81 20.9897C22.4845 21.2307 22.1235 21.4196 21.74 21.5497C21.3199 21.6964 20.8884 21.8084 20.45 21.8847C20.5058 22.1379 20.5793 22.3868 20.67 22.6297C20.7601 22.8616 20.8812 23.0802 21.03 23.2797C21.1728 23.4688 21.3554 23.6241 21.565 23.7347C21.7925 23.8556 22.0474 23.9159 22.305 23.9097C22.482 23.9094 22.6553 23.8591 22.805 23.7647C22.9598 23.6689 23.0955 23.5451 23.205 23.3997C23.3156 23.2433 23.4095 23.0757 23.485 22.8997C23.55 22.7379 23.6002 22.5705 23.635 22.3997L24.545 22.7547C24.475 23.1032 24.3554 23.44 24.19 23.7547C24.0506 24.0051 23.8716 24.2314 23.66 24.4247C23.2915 24.7497 22.8163 24.9277 22.325 24.9247C22.0063 24.9254 21.6904 24.8642 21.395 24.7447C21.0819 24.6195 20.7952 24.4362 20.55 24.2047C20.2723 23.9438 20.0407 23.6378 19.865 23.2997C19.6564 22.9004 19.5081 22.4724 19.425 22.0297L19.015 22.0847L18.61 22.1197C18.5355 22.5421 18.4044 22.9524 18.22 23.3397C18.0615 23.6741 17.8486 23.9799 17.59 24.2447C17.3485 24.4895 17.0592 24.6818 16.74 24.8097C16.4031 24.9445 16.0428 25.0108 15.68 25.0047C15.428 25.0049 15.1771 24.9695 14.935 24.8997C14.7086 24.834 14.4978 24.7234 14.315 24.5747C14.1335 24.4182 13.9914 24.2212 13.9 23.9997C13.7896 23.7494 13.735 23.4782 13.74 23.2047C13.7347 22.9628 13.786 22.7231 13.89 22.5047C13.9891 22.306 14.1349 22.1345 14.315 22.0047C14.511 21.8547 14.7284 21.735 14.96 21.6497C15.2256 21.5517 15.498 21.4731 15.775 21.4147C16.07 21.3547 16.385 21.3047 16.715 21.2697L17.715 21.1697V20.5797C17.7143 20.2728 17.6757 19.9671 17.6 19.6697C17.5301 19.3857 17.4242 19.1119 17.285 18.8547C17.2434 19.1312 17.1465 19.3965 17 19.6347C16.8712 19.845 16.7011 20.027 16.5 20.1697C16.3216 20.3151 16.1183 20.4269 15.9 20.4997C15.6861 20.5654 15.4637 20.5991 15.24 20.5997C14.9771 20.6055 14.7162 20.5544 14.475 20.4497C14.2612 20.3568 14.0701 20.2186 13.915 20.0447C13.7601 19.8752 13.6411 19.6763 13.565 19.4597C13.4852 19.235 13.4446 18.9982 13.445 18.7597C13.4392 18.484 13.4956 18.2106 13.61 17.9597C13.7154 17.7256 13.8706 17.5174 14.065 17.3497C14.2613 17.1754 14.4909 17.0427 14.74 16.9597C15.0111 16.8631 15.2972 16.8157 15.585 16.8197C15.997 16.8209 16.4024 16.924 16.765 17.1197C17.1499 17.3211 17.49 17.5983 17.765 17.9347C18.0789 18.2844 18.3278 18.6874 18.5 19.1247C18.6718 19.5921 18.7582 20.0867 18.755 20.5847V21.0847L19.32 21.0347V20.6597C19.3057 20.1321 19.3663 19.6052 19.5 19.0947C19.6244 18.6587 19.8204 18.2464 20.08 17.8747C20.3053 17.5534 20.5969 17.284 20.935 17.0847C21.2577 16.8957 21.6261 16.7989 22 16.8047C22.3113 16.7941 22.6195 16.8703 22.89 17.0247C23.1148 17.1604 23.3062 17.3449 23.45 17.5647C23.5812 17.7768 23.679 18.0078 23.74 18.2497C23.7858 18.4633 23.8092 18.6812 23.81 18.8997V18.8997ZM16.5 18.2597V18.1397C16.5066 18.0932 16.5066 18.0461 16.5 17.9997C16.3782 17.9343 16.2489 17.8839 16.115 17.8497C15.9708 17.8155 15.8231 17.7987 15.675 17.7997C15.5194 17.8004 15.3653 17.8291 15.22 17.8847C15.0889 17.9373 14.9686 18.0136 14.865 18.1097C14.7661 18.1996 14.6861 18.3084 14.63 18.4297C14.5747 18.5488 14.5457 18.6784 14.545 18.8097C14.5367 18.922 14.5537 19.0348 14.595 19.1397C14.6358 19.2426 14.697 19.3361 14.775 19.4147C14.9403 19.5597 15.1554 19.6349 15.375 19.6247C15.5356 19.6348 15.6963 19.606 15.8434 19.5407C15.9905 19.4754 16.1197 19.3756 16.22 19.2497C16.4198 18.9595 16.5182 18.6115 16.5 18.2597V18.2597ZM15.705 23.9997C15.9549 24.0056 16.2029 23.9543 16.43 23.8497C16.6296 23.7521 16.8094 23.6181 16.96 23.4547C17.1145 23.2868 17.2396 23.0941 17.33 22.8847C17.4305 22.668 17.5092 22.4419 17.565 22.2097C17.175 22.2447 16.81 22.2847 16.465 22.3297C16.1638 22.3646 15.8661 22.4248 15.575 22.5097C15.356 22.5651 15.1503 22.6637 14.97 22.7997C14.9005 22.855 14.8441 22.925 14.805 23.0047C14.7691 23.0867 14.7504 23.1752 14.75 23.2647C14.7485 23.3828 14.776 23.4996 14.83 23.6047C14.881 23.6954 14.953 23.7726 15.04 23.8297C15.1317 23.8901 15.2332 23.9341 15.34 23.9597C15.4599 23.9856 15.5823 23.999 15.705 23.9997V23.9997ZM20.32 20.4997V20.8797C20.6589 20.8251 20.9932 20.7449 21.32 20.6397C21.5985 20.5505 21.8615 20.4189 22.1 20.2497C22.3275 20.0933 22.5116 19.8817 22.635 19.6347C22.7594 19.3869 22.8196 19.1118 22.81 18.8347C22.8152 18.6747 22.7897 18.5151 22.735 18.3647C22.6936 18.2537 22.6301 18.1521 22.5485 18.0662C22.4669 17.9803 22.3687 17.9117 22.26 17.8647C22.1614 17.8251 22.0562 17.8048 21.95 17.8047C21.7232 17.8088 21.5046 17.8899 21.33 18.0347C21.1289 18.2072 20.9597 18.4137 20.83 18.6447C20.6668 18.912 20.539 19.1994 20.45 19.4997C20.3641 19.8261 20.3204 20.1622 20.32 20.4997V20.4997Z" fill="white"/>
</svg>
