<svg viewBox="0 0 65 65" fill="none" xmlns="http://www.w3.org/2000/svg">
<rect x="3.6875" y="9.25" width="26.703" height="3.60278" rx="1.80139" fill="white"/>
<rect x="25.0499" y="33.2832" width="30.2633" height="3.60278" rx="1.80139" fill="white"/>
<rect x="35.1377" y="40.0283" width="20.1756" height="3.60278" rx="1.80139" fill="white"/>
<path fill-rule="evenodd" clip-rule="evenodd" d="M54.4455 24.375H21.7263C21.4056 24.3741 21.0879 24.451 20.7912 24.6012C20.4971 24.7507 20.2298 24.9704 20.0048 25.2477C19.7799 25.525 19.6016 25.8544 19.4804 26.217C19.3585 26.5826 19.2962 26.9743 19.2969 27.3696V50.4643C19.2962 50.8596 19.3585 51.2512 19.4804 51.6168C19.6016 51.9794 19.7799 52.3088 20.0048 52.5861C20.2298 52.8635 20.4971 53.0832 20.7912 53.2326C21.0879 53.3828 21.4056 53.4597 21.7263 53.4588H50.7576L56.875 59.9219V27.3696C56.8757 26.9743 56.8133 26.5826 56.6914 26.217C56.5702 25.8544 56.392 25.525 56.167 25.2477C55.942 24.9704 55.6747 24.7507 55.3806 24.6012C55.0839 24.451 54.7662 24.3741 54.4455 24.375Z" fill="white"/>
<g style="mix-blend-mode:multiply">
<rect x="3.68755" y="9.21875" width="26.703" height="3.60278" rx="1.80139" fill="white"/>
</g>
<path fill-rule="evenodd" clip-rule="evenodd" d="M43.2737 4.06251H10.5545C10.2338 4.06169 9.91608 4.13462 9.61942 4.27714C9.32526 4.41893 9.058 4.62739 8.83302 4.8905C8.60804 5.15362 8.4298 5.46619 8.30856 5.81021C8.1867 6.15715 8.12434 6.52873 8.12504 6.9038V37.5781L14.2424 31.4458H43.2737C43.5944 31.4466 43.9121 31.3737 44.2088 31.2312C44.5029 31.0894 44.7702 30.8809 44.9952 30.6178C45.2201 30.3547 45.3984 30.0421 45.5196 29.6981C45.6415 29.3512 45.7038 28.9796 45.7031 28.6045V6.9038C45.7038 6.52873 45.6415 6.15715 45.5196 5.81021C45.3984 5.46619 45.2201 5.15362 44.9952 4.8905C44.7702 4.62739 44.5029 4.41893 44.2088 4.27714C43.9121 4.13462 43.5944 4.06169 43.2737 4.06251Z" fill="#B7CDE1"/>
<g style="mix-blend-mode:multiply">
<rect x="3.6875" y="9.21875" width="26.703" height="3.60278" rx="1.80139" fill="#B7CDE1"/>
</g>
<g style="mix-blend-mode:multiply">
<rect x="12" y="16" width="18" height="3" rx="1.5" fill="#B7CDE1"/>
</g>
<g style="mix-blend-mode:multiply">
<rect x="22.0499" y="35.2832" width="30.2633" height="3.60278" rx="1.80139" fill="#42CACD"/>
</g>
<g style="mix-blend-mode:multiply">
<rect x="32.1377" y="42.0283" width="20.1756" height="3.60278" rx="1.80139" fill="#42CACD"/>
</g>
<g style="mix-blend-mode:multiply">
<path fill-rule="evenodd" clip-rule="evenodd" d="M54.4455 24.375H21.7263C21.4056 24.3741 21.0879 24.451 20.7912 24.6012C20.4971 24.7507 20.2298 24.9704 20.0048 25.2477C19.7799 25.525 19.6016 25.8544 19.4804 26.217C19.3585 26.5826 19.2962 26.9743 19.2969 27.3696V50.4643C19.2962 50.8596 19.3585 51.2512 19.4804 51.6168C19.6016 51.9794 19.7799 52.3088 20.0048 52.5861C20.2298 52.8635 20.4971 53.0832 20.7912 53.2326C21.0879 53.3828 21.4056 53.4597 21.7263 53.4588H50.7576L56.875 59.9219V27.3696C56.8757 26.9743 56.8133 26.5826 56.6914 26.217C56.5702 25.8544 56.392 25.525 56.167 25.2477C55.942 24.9704 55.6747 24.7507 55.3806 24.6012C55.0839 24.451 54.7662 24.3741 54.4455 24.375Z" fill="#42CACD"/>
</g>
</svg>
