<svg width="32" height="32" viewBox="0 0 32 32" fill="none" xmlns="http://www.w3.org/2000/svg">
<path d="M16 28C22.6274 28 28 22.6274 28 16C28 9.37257 22.6274 4 16 4C9.37257 4 4 9.37257 4 16C4 22.6274 9.37257 28 16 28Z" fill="#FEB452"/>
<path d="M14.2292 9.16483C14.2016 8.39175 14.8209 7.75 15.5944 7.75H16.4058C17.1794 7.75 17.7986 8.39174 17.771 9.16483L17.4133 19.1827C17.387 19.9177 16.7835 20.5 16.0481 20.5H15.9522C15.2167 20.5 14.6133 19.9177 14.587 19.1827L14.2292 9.16483Z" fill="white"/>
<circle cx="16" cy="23.2321" r="1.82143" fill="white"/>
</svg>
