<svg width="768" height="276" viewBox="0 0 768 276" fill="none" xmlns="http://www.w3.org/2000/svg">
<g clip-path="url(#clip0_429_19567)">
<path d="M1.122 14V2.1H5.015C8.296 2.1 11.118 4.055 11.118 8.05C11.118 12.045 8.296 14 5.015 14H1.122ZM3.4 11.994H4.811C6.851 11.994 8.772 10.957 8.772 8.05C8.772 5.143 6.851 4.089 4.811 4.089H3.4V11.994ZM20.8327 9.427C20.8327 9.733 20.8157 10.107 20.7987 10.277H14.4407C14.6277 11.569 15.4607 12.334 16.6847 12.334C17.6877 12.334 18.4017 11.858 18.6227 11.025L20.6287 11.569C20.1527 13.184 18.6567 14.136 16.6507 14.136C13.8117 14.136 12.2987 11.943 12.2987 9.716C12.2987 7.489 13.6927 5.296 16.5317 5.296C19.4217 5.296 20.8327 7.438 20.8327 9.427ZM14.4917 8.713H18.5377C18.4357 7.693 17.7727 6.928 16.5317 6.928C15.4777 6.928 14.7297 7.557 14.4917 8.713ZM25.362 14.136C23.288 14.136 22.047 12.861 21.622 11.603L23.373 10.889C23.628 11.756 24.291 12.47 25.362 12.47C26.161 12.47 26.688 12.045 26.688 11.501C26.688 9.886 22.013 10.94 22.013 7.693C22.013 6.35 23.186 5.296 25.056 5.296C26.722 5.296 28.133 6.146 28.507 7.387L26.773 8.118C26.535 7.302 25.787 6.877 25.09 6.877C24.41 6.877 23.951 7.166 23.951 7.659C23.951 9.172 28.66 7.965 28.66 11.467C28.66 12.946 27.334 14.136 25.362 14.136ZM31.2769 4.123C30.5119 4.123 29.9509 3.545 29.9509 2.797C29.9509 2.066 30.5119 1.488 31.2769 1.488C32.0589 1.488 32.6369 2.066 32.6369 2.797C32.6369 3.545 32.0589 4.123 31.2769 4.123ZM30.2059 14V5.432H32.3479V14H30.2059ZM38.9787 12.198C40.9507 12.198 42.1407 13.031 42.1407 14.595C42.1407 16.499 40.2707 17.23 37.9757 17.23C35.4597 17.23 33.8107 16.431 33.8107 14.765C33.8107 14.17 34.1507 13.541 34.6437 13.133C34.2867 12.81 34.0827 12.402 34.0827 11.909C34.0827 11.093 34.5757 10.515 35.3237 10.192C34.8307 9.682 34.5587 9.019 34.5587 8.237C34.5587 6.469 35.9527 5.296 37.9587 5.296C38.5367 5.296 39.0637 5.398 39.5227 5.585L40.7807 4.276L42.0217 5.432L40.8827 6.622C41.1887 7.064 41.3757 7.625 41.3757 8.237C41.3757 10.005 39.9817 11.161 37.9587 11.161C37.4997 11.161 37.0577 11.093 36.6667 10.991C36.2927 11.178 36.1227 11.399 36.1227 11.654C36.1227 12.045 36.4797 12.198 36.9727 12.198H38.9787ZM37.9587 6.945C37.1597 6.945 36.5477 7.438 36.5477 8.237C36.5477 9.019 37.1597 9.512 37.9587 9.512C38.7407 9.512 39.3697 9.019 39.3697 8.237C39.3697 7.438 38.7407 6.945 37.9587 6.945ZM37.9757 15.513C39.4207 15.513 40.0667 15.207 40.0667 14.629C40.0667 14.017 39.5057 13.864 38.6217 13.864H37.0407C36.7687 13.864 36.4967 13.847 36.2417 13.796C35.9697 14.085 35.8847 14.34 35.8847 14.646C35.8847 15.224 36.4627 15.513 37.9757 15.513ZM43.4872 14V5.432H45.6292V6.724C46.1732 5.891 47.1422 5.296 48.3492 5.296C50.2192 5.296 51.4772 6.52 51.4772 8.39V14H49.3352V8.9C49.3352 7.897 48.7062 7.2 47.7032 7.2C46.3942 7.2 45.6292 8.322 45.6292 10.243V14H43.4872ZM60.6237 14.136C58.5497 14.136 57.3087 12.861 56.8837 11.603L58.6347 10.889C58.8897 11.756 59.5527 12.47 60.6237 12.47C61.4227 12.47 61.9497 12.045 61.9497 11.501C61.9497 9.886 57.2747 10.94 57.2747 7.693C57.2747 6.35 58.4477 5.296 60.3177 5.296C61.9837 5.296 63.3947 6.146 63.7687 7.387L62.0347 8.118C61.7967 7.302 61.0487 6.877 60.3517 6.877C59.6717 6.877 59.2127 7.166 59.2127 7.659C59.2127 9.172 63.9217 7.965 63.9217 11.467C63.9217 12.946 62.5957 14.136 60.6237 14.136ZM70.4345 13.915C70.0095 14.068 69.5505 14.136 69.0575 14.136C67.3235 14.136 66.0315 13.201 66.0315 11.195V7.234H64.5865V5.432H66.0315V2.916H68.1735V5.432H70.3325V7.234H68.1735V10.991C68.1735 11.807 68.6155 12.249 69.2785 12.249C69.6015 12.249 69.9755 12.198 70.2815 12.045L70.4345 13.915ZM77.5191 5.432H79.7121L75.1901 17.094H73.0141L74.3401 13.66L71.0081 5.432H73.3371L75.3941 10.94L77.5191 5.432ZM84.3075 14.085C82.4035 14.374 80.8905 13.626 80.8905 11.518V1.964H83.0325V11.246C83.0325 12.215 83.4745 12.266 84.1715 12.249L84.3075 14.085ZM93.863 9.427C93.863 9.733 93.846 10.107 93.829 10.277H87.471C87.658 11.569 88.491 12.334 89.715 12.334C90.718 12.334 91.432 11.858 91.653 11.025L93.659 11.569C93.183 13.184 91.687 14.136 89.681 14.136C86.842 14.136 85.329 11.943 85.329 9.716C85.329 7.489 86.723 5.296 89.562 5.296C92.452 5.296 93.863 7.438 93.863 9.427ZM87.522 8.713H91.568C91.466 7.693 90.803 6.928 89.562 6.928C88.508 6.928 87.76 7.557 87.522 8.713ZM98.3923 14.136C96.3183 14.136 95.0773 12.861 94.6523 11.603L96.4033 10.889C96.6583 11.756 97.3213 12.47 98.3923 12.47C99.1913 12.47 99.7183 12.045 99.7183 11.501C99.7183 9.886 95.0433 10.94 95.0433 7.693C95.0433 6.35 96.2163 5.296 98.0863 5.296C99.7523 5.296 101.163 6.146 101.537 7.387L99.8033 8.118C99.5653 7.302 98.8173 6.877 98.1203 6.877C97.4403 6.877 96.9813 7.166 96.9813 7.659C96.9813 9.172 101.69 7.965 101.69 11.467C101.69 12.946 100.364 14.136 98.3923 14.136Z" fill="#20014B"/>
<path d="M4.44 67.9657C2.34 67.9657 0.57 66.5407 0.375 64.6207L2.445 64.0057C2.58 65.1757 3.495 65.9557 4.53 65.9557C5.475 65.9557 6.09 65.5057 6.09 64.8457C6.09 62.8657 0.705 64.0357 0.705 60.1807C0.705 58.4557 2.355 57.2257 4.41 57.2257C6.435 57.2257 8.07 58.3057 8.43 59.9107L6.315 60.7957C6.105 59.8507 5.4 59.2357 4.41 59.2357C3.585 59.2357 3.075 59.5807 3.075 60.1657C3.075 61.8307 8.475 60.4957 8.475 64.7857C8.475 66.6907 6.855 67.9657 4.44 67.9657ZM11.9572 67.8457V59.3707H8.86723V57.3457H17.4022V59.3707H14.3272V67.8457H11.9572ZM21.1774 67.8457V63.5107L17.6224 57.3457H20.1424L22.3624 61.2907L24.5974 57.3457H27.1024L23.5474 63.5107V67.8457H21.1774ZM27.6784 67.8457V57.3457H30.0484V65.8057H34.7584V67.8457H27.6784ZM35.8669 67.8457V57.3457H43.0819V59.3707H38.2369V61.2907H42.0769V63.3307H38.2369V65.8057H43.2469V67.8457H35.8669ZM50.1045 67.8457V59.8657C49.3995 60.3907 48.6345 60.7657 47.7345 60.9457V58.8307C48.6795 58.6057 49.7145 58.0207 50.5095 57.3457H52.2945V67.8457H50.1045Z" fill="#595959"/>
<path d="M4.13 92.9577C2.24 92.9577 0.728 91.7397 0.406 89.9477L1.61 89.5557C1.806 90.9277 2.856 91.8237 4.158 91.8237C5.502 91.8237 6.37 91.1937 6.37 90.2137C6.37 87.5957 0.798 88.9677 0.798 85.4957C0.798 83.9697 2.17 82.9337 4.102 82.9337C5.894 82.9337 7.28 83.8997 7.532 85.3557L6.37 85.8037C6.174 84.7397 5.334 84.0677 4.102 84.0677C2.842 84.0677 2.086 84.6137 2.086 85.4957C2.086 87.7357 7.686 86.2797 7.686 90.1997C7.686 91.8657 6.272 92.9577 4.13 92.9577ZM9.75713 84.4597C9.28113 84.4597 8.93113 84.0957 8.93113 83.6337C8.93113 83.1577 9.28113 82.7937 9.75713 82.7937C10.2471 82.7937 10.6111 83.1577 10.6111 83.6337C10.6111 84.0957 10.2471 84.4597 9.75713 84.4597ZM9.16913 92.8457V85.7897H10.3591V92.8457H9.16913ZM12.2863 92.8457V85.7897H13.4763V87.1197C13.8263 86.2797 14.5263 85.6777 15.6043 85.6777C16.7523 85.6777 17.6483 86.2097 17.9003 87.1617C18.2783 86.3217 19.1183 85.6777 20.1823 85.6777C21.6943 85.6777 22.6463 86.6297 22.6463 88.1137V92.8457H21.4563V88.3517C21.4563 87.3857 20.9103 86.7277 19.9163 86.7277C18.7123 86.7277 18.0543 87.8057 18.0543 89.3037V92.8457H16.8643V88.3517C16.8643 87.3857 16.3183 86.7277 15.3383 86.7277C14.1343 86.7277 13.4763 87.8057 13.4763 89.3037V92.8457H12.2863ZM24.5773 95.3937V85.7897H25.7673V86.8117C26.1453 86.1677 27.0693 85.6777 28.0913 85.6777C30.2613 85.6777 31.4653 87.2457 31.4653 89.3177C31.4653 91.3897 30.2333 92.9577 28.0633 92.9577C27.1673 92.9577 26.2433 92.5097 25.7673 91.8657V95.3937H24.5773ZM27.9513 91.8937C29.3513 91.8937 30.2613 90.8717 30.2613 89.3177C30.2613 87.7637 29.3513 86.7417 27.9513 86.7417C26.5793 86.7417 25.6693 87.7637 25.6693 89.3177C25.6693 90.8717 26.5793 91.8937 27.9513 91.8937ZM35.1835 92.9437C33.9235 93.0697 32.9855 92.5937 32.9855 91.1237V82.9337H34.1755V91.0397C34.1755 91.8097 34.5395 91.9217 35.1275 91.8797L35.1835 92.9437ZM42.9516 88.9957C42.9516 89.1637 42.9376 89.4157 42.9236 89.5417H37.3516C37.4356 90.9697 38.3316 91.9077 39.6056 91.9077C40.6836 91.9077 41.4256 91.4037 41.6356 90.5217L42.7556 90.7877C42.4056 92.1597 41.2296 92.9577 39.6056 92.9577C37.4916 92.9577 36.1616 91.3197 36.1616 89.3177C36.1616 87.3157 37.4496 85.6777 39.5776 85.6777C41.6636 85.6777 42.9516 87.1757 42.9516 88.9957ZM37.4216 88.5477H41.6916C41.5796 87.4697 40.8236 86.6717 39.5776 86.6717C38.4716 86.6717 37.6596 87.3717 37.4216 88.5477ZM43.4858 94.3297L44.2978 91.3897H45.8938L44.3258 94.3297H43.4858ZM51.0324 92.8457V85.7897H52.2224V87.1197C52.5724 86.2797 53.2724 85.6777 54.3504 85.6777C55.4984 85.6777 56.3944 86.2097 56.6464 87.1617C57.0244 86.3217 57.8644 85.6777 58.9284 85.6777C60.4404 85.6777 61.3924 86.6297 61.3924 88.1137V92.8457H60.2024V88.3517C60.2024 87.3857 59.6564 86.7277 58.6624 86.7277C57.4584 86.7277 56.8004 87.8057 56.8004 89.3037V92.8457H55.6104V88.3517C55.6104 87.3857 55.0644 86.7277 54.0844 86.7277C52.8804 86.7277 52.2224 87.8057 52.2224 89.3037V92.8457H51.0324ZM63.9114 84.4597C63.4354 84.4597 63.0854 84.0957 63.0854 83.6337C63.0854 83.1577 63.4354 82.7937 63.9114 82.7937C64.4014 82.7937 64.7654 83.1577 64.7654 83.6337C64.7654 84.0957 64.4014 84.4597 63.9114 84.4597ZM63.3234 92.8457V85.7897H64.5134V92.8457H63.3234ZM66.4406 92.8457V85.7897H67.6306V87.1197C68.1206 86.2797 68.9746 85.6777 70.0526 85.6777C71.5226 85.6777 72.5726 86.6717 72.5726 88.1697V92.8457H71.3826V88.3937C71.3826 87.4417 70.7806 86.7557 69.7866 86.7557C68.4706 86.7557 67.6306 87.8897 67.6306 89.7517V92.8457H66.4406ZM75.095 84.4597C74.619 84.4597 74.269 84.0957 74.269 83.6337C74.269 83.1577 74.619 82.7937 75.095 82.7937C75.585 82.7937 75.949 83.1577 75.949 83.6337C75.949 84.0957 75.585 84.4597 75.095 84.4597ZM74.507 92.8457V85.7897H75.697V92.8457H74.507ZM77.6242 92.8457V85.7897H78.8142V87.1197C79.1642 86.2797 79.8642 85.6777 80.9422 85.6777C82.0902 85.6777 82.9862 86.2097 83.2382 87.1617C83.6162 86.3217 84.4562 85.6777 85.5202 85.6777C87.0322 85.6777 87.9842 86.6297 87.9842 88.1137V92.8457H86.7942V88.3517C86.7942 87.3857 86.2482 86.7277 85.2542 86.7277C84.0502 86.7277 83.3922 87.8057 83.3922 89.3037V92.8457H82.2022V88.3517C82.2022 87.3857 81.6562 86.7277 80.6762 86.7277C79.4722 86.7277 78.8142 87.8057 78.8142 89.3037V92.8457H77.6242ZM92.5472 85.6777C94.2552 85.6777 95.4452 86.6857 95.4452 88.3237V92.8457H94.2692V91.6417C93.8632 92.4537 92.9392 92.9577 91.9172 92.9577C90.5032 92.9577 89.5372 92.0897 89.5372 90.8717C89.5372 89.5137 90.6432 88.7717 92.8972 88.5477L94.2692 88.3937V88.2537C94.2692 87.2877 93.5832 86.6717 92.5472 86.6717C91.5812 86.6717 90.8952 87.2457 90.7972 88.1977L89.6912 87.9877C89.9012 86.5877 91.0632 85.6777 92.5472 85.6777ZM92.0992 91.9777C93.4712 91.9777 94.2692 91.0677 94.2692 89.6537V89.3177L92.8972 89.4717C91.4692 89.6257 90.7272 90.1157 90.7272 90.8577C90.7272 91.5157 91.2872 91.9777 92.0992 91.9777ZM99.5781 92.9437C98.3181 93.0697 97.3801 92.5937 97.3801 91.1237V82.9337H98.5701V91.0397C98.5701 91.8097 98.9341 91.9217 99.5221 91.8797L99.5781 92.9437Z" fill="#595959"/>
<g clip-path="url(#clip1_429_19567)">
<g style="mix-blend-mode:multiply">
<path d="M299.747 94.4619H255.176C254.721 94.4619 254.285 94.2565 253.964 93.8908C253.642 93.5251 253.462 93.0291 253.462 92.5119V57.4119C253.462 56.8947 253.642 56.3988 253.964 56.0331C254.285 55.6674 254.721 55.4619 255.176 55.4619H299.747C300.202 55.4619 300.638 55.6674 300.959 56.0331C301.281 56.3988 301.462 56.8947 301.462 57.4119V92.5119C301.462 93.0291 301.281 93.5251 300.959 93.8908C300.638 94.2565 300.202 94.4619 299.747 94.4619Z" fill="#DDDDDD"/>
</g>
<g style="mix-blend-mode:multiply">
<path d="M257.904 59.5012C258.144 59.5012 258.378 59.4301 258.577 59.297C258.776 59.1639 258.932 58.9747 259.023 58.7533C259.115 58.5319 259.139 58.2883 259.092 58.0533C259.045 57.8183 258.93 57.6024 258.761 57.433C258.591 57.2635 258.375 57.1482 258.14 57.1014C257.905 57.0547 257.662 57.0786 257.44 57.1703C257.219 57.262 257.03 57.4173 256.897 57.6166C256.763 57.8158 256.692 58.05 256.692 58.2897C256.692 58.611 256.82 58.9191 257.047 59.1464C257.274 59.3736 257.583 59.5012 257.904 59.5012Z" fill="#20014B"/>
</g>
<g style="mix-blend-mode:multiply">
<path d="M261.942 59.5012C262.182 59.5012 262.416 59.4301 262.615 59.297C262.815 59.1639 262.97 58.9747 263.062 58.7533C263.153 58.5319 263.177 58.2883 263.131 58.0533C263.084 57.8183 262.968 57.6024 262.799 57.433C262.63 57.2635 262.414 57.1482 262.179 57.1014C261.944 57.0547 261.7 57.0786 261.479 57.1703C261.257 57.262 261.068 57.4173 260.935 57.6166C260.802 57.8158 260.731 58.05 260.731 58.2897C260.731 58.611 260.858 58.9191 261.086 59.1464C261.313 59.3736 261.621 59.5012 261.942 59.5012Z" fill="#20014B"/>
</g>
<g style="mix-blend-mode:multiply">
<path d="M265.981 59.5012C266.22 59.5012 266.455 59.4301 266.654 59.297C266.853 59.1639 267.008 58.9747 267.1 58.7533C267.192 58.5319 267.216 58.2883 267.169 58.0533C267.122 57.8183 267.007 57.6024 266.838 57.433C266.668 57.2635 266.452 57.1482 266.217 57.1014C265.982 57.0547 265.739 57.0786 265.517 57.1703C265.296 57.262 265.107 57.4173 264.973 57.6166C264.84 57.8158 264.769 58.05 264.769 58.2897C264.769 58.611 264.897 58.9191 265.124 59.1464C265.351 59.3736 265.66 59.5012 265.981 59.5012Z" fill="#20014B"/>
</g>
<g style="mix-blend-mode:multiply">
<path d="M273.294 88.2996C273.339 87.915 273.295 87.5254 273.168 87.1606C273.04 86.7958 272.832 86.4656 272.558 86.1955C271.929 85.768 271.179 85.5636 270.423 85.6141V83.5008C271.187 83.5522 271.944 83.3337 272.568 82.8825C272.828 82.6269 273.029 82.315 273.154 81.9699C273.28 81.6249 273.328 81.2556 273.294 80.8892V78.2499C273.243 77.3509 273.532 76.466 274.103 75.7767C274.418 75.4564 274.796 75.2083 275.213 75.0491C275.63 74.8899 276.076 74.8234 276.52 74.8539H279.51V77.1425H277.956C277.621 77.1367 277.286 77.1645 276.956 77.2256C276.717 77.2668 276.493 77.3755 276.311 77.5393C276.135 77.7113 276.015 77.9333 275.966 78.1761C275.888 78.5303 275.858 78.8934 275.875 79.2558V81.6552C275.905 82.0276 275.855 82.4023 275.728 82.7529C275.601 83.1036 275.4 83.4219 275.139 83.6854C274.596 84.1462 273.92 84.4151 273.213 84.4514V84.6544C273.926 84.6811 274.606 84.9658 275.13 85.4572C275.384 85.7296 275.582 86.0516 275.71 86.4038C275.838 86.756 275.894 87.131 275.875 87.5059V89.8776C275.866 90.2316 275.903 90.5853 275.984 90.9296C276.031 91.1733 276.152 91.3959 276.329 91.5664C276.514 91.7318 276.741 91.8406 276.984 91.8802C277.316 91.9407 277.654 91.9686 277.992 91.9632H279.51V94.2611H276.52C276.088 94.2879 275.656 94.2275 275.247 94.0834C274.838 93.9392 274.462 93.7142 274.139 93.4213C273.835 93.0798 273.602 92.6782 273.457 92.2417C273.312 91.8051 273.256 91.3428 273.294 90.8835V88.2996Z" fill="#20014B"/>
</g>
<g style="mix-blend-mode:multiply">
<path d="M289.378 90.8822C289.413 91.3384 289.357 91.7972 289.211 92.2305C289.066 92.6637 288.835 93.0622 288.533 93.4015C288.21 93.6944 287.834 93.9194 287.425 94.0636C287.016 94.2077 286.584 94.2681 286.152 94.2413H283.144V91.9619H284.698C285.036 91.9672 285.374 91.9394 285.707 91.8788C285.95 91.8393 286.176 91.7305 286.361 91.5651C286.539 91.3946 286.659 91.1719 286.706 90.9283C286.775 90.5823 286.8 90.2287 286.779 89.8763V87.5046C286.756 87.1251 286.81 86.7449 286.939 86.3876C287.067 86.0304 287.266 85.7038 287.524 85.4282C288.065 84.9224 288.77 84.6365 289.505 84.6254V84.4223C288.798 84.3861 288.122 84.1172 287.579 83.6564C287.31 83.4018 287.099 83.0907 286.961 82.7448C286.823 82.3989 286.761 82.0266 286.779 81.6539V79.2545C286.79 78.8999 286.75 78.5455 286.661 78.2025C286.605 77.9602 286.482 77.7392 286.306 77.5657C286.124 77.4019 285.901 77.2932 285.661 77.2519C285.338 77.192 285.009 77.1642 284.68 77.1689H283.144V74.8803H286.152C286.596 74.8497 287.042 74.9163 287.459 75.0755C287.876 75.2347 288.254 75.4828 288.569 75.8031C289.14 76.4923 289.429 77.3772 289.378 78.2763V80.9156C289.344 81.2819 289.392 81.6513 289.518 81.9963C289.643 82.3413 289.844 82.6532 290.105 82.9089C290.726 83.3476 291.476 83.5561 292.231 83.4995V85.5851C291.475 85.5346 290.725 85.739 290.095 86.1665C289.822 86.4366 289.614 86.7668 289.486 87.1316C289.359 87.4963 289.315 87.886 289.359 88.2706L289.378 90.8822Z" fill="#20014B"/>
</g>
</g>
<g style="mix-blend-mode:multiply">
<path d="M388.627 55.4629H366.719C366.304 55.4629 365.906 55.6088 365.612 55.8684C365.319 56.1281 365.154 56.4803 365.154 56.8475V92.8475C365.154 93.2147 365.319 93.5669 365.612 93.8266C365.906 94.0862 366.304 94.2321 366.719 94.2321H388.627C389.042 94.2321 389.44 94.0862 389.734 93.8266C390.027 93.5669 390.192 93.2147 390.192 92.8475V56.8475C390.192 56.4803 390.027 56.1281 389.734 55.8684C389.44 55.6088 389.042 55.4629 388.627 55.4629Z" fill="#DDDDDD"/>
</g>
<g style="mix-blend-mode:multiply">
<path d="M403.913 78.953L400.212 73.482C400.168 73.4068 400.103 73.344 400.025 73.3002C399.947 73.2565 399.858 73.2334 399.767 73.2334C399.676 73.2334 399.586 73.2565 399.508 73.3002C399.43 73.344 399.365 73.4068 399.322 73.482C398.076 75.2945 396.839 77.1154 395.593 78.9363C395.53 79.0084 395.496 79.0988 395.496 79.1922C395.496 79.2856 395.53 79.376 395.593 79.4481C395.635 79.5096 395.693 79.5598 395.762 79.5937C395.83 79.6275 395.907 79.6439 395.985 79.6411H397.951C397.213 80.7169 396.207 81.6061 395.021 82.2312C393.835 82.8562 392.505 83.1982 391.146 83.2271C389.788 83.2561 388.443 82.9712 387.228 82.3973C386.013 81.8235 384.965 80.9781 384.176 79.9348C383.073 78.4496 380.466 79.8677 381.578 81.3697C382.693 82.9751 384.25 84.2645 386.083 85.1001C387.915 85.9357 389.953 86.286 391.98 86.1137C394.007 85.9413 395.947 85.2527 397.591 84.1216C399.235 82.9904 400.522 81.4591 401.315 79.6915H403.424C403.512 79.6916 403.599 79.6695 403.676 79.6276C403.752 79.5856 403.815 79.5252 403.859 79.4526C403.902 79.38 403.924 79.2978 403.923 79.2144C403.922 79.1311 403.897 79.0495 403.851 78.9782L403.913 78.953Z" fill="#20014B"/>
</g>
<g style="mix-blend-mode:multiply">
<path d="M400.429 67.7732C399.337 66.071 397.808 64.7063 396.009 63.8272C394.21 62.9481 392.209 62.5882 390.224 62.7864C388.238 62.9847 386.344 63.7336 384.747 64.9519C383.149 66.1703 381.909 67.8114 381.161 69.6974H378.565C378.479 69.6984 378.395 69.7222 378.321 69.7663C378.247 69.8105 378.186 69.8735 378.143 69.9492C378.1 70.025 378.077 70.1107 378.077 70.1981C378.076 70.2856 378.098 70.3716 378.14 70.4477L381.741 76.2026C381.784 76.2818 381.846 76.3479 381.922 76.3939C381.999 76.4399 382.086 76.4642 382.174 76.4642C382.263 76.4642 382.349 76.4399 382.426 76.3939C382.502 76.3479 382.564 76.2818 382.607 76.2026L386.234 70.4742C386.295 70.3969 386.329 70.3003 386.329 70.2005C386.329 70.1008 386.295 70.0041 386.234 69.9269C386.193 69.8622 386.136 69.8094 386.07 69.7738C386.003 69.7382 385.928 69.721 385.853 69.7239H384.433C385.14 68.5716 386.114 67.6147 387.269 66.9382C388.425 66.2616 389.727 65.8861 391.059 65.8451C392.391 65.8041 393.712 66.0987 394.906 66.703C396.099 67.3072 397.128 68.2023 397.902 69.3091C398.975 70.8625 401.511 69.3797 400.429 67.7909V67.7732Z" fill="#20014B"/>
</g>
<path d="M374.038 89.3839C374.038 88.4918 374.762 87.7686 375.654 87.7686H379.692C380.584 87.7686 381.308 88.4918 381.308 89.3839C381.308 90.2761 380.584 90.9993 379.692 90.9993H375.654C374.762 90.9993 374.038 90.2761 374.038 89.3839Z" fill="#20014B"/>
<g style="mix-blend-mode:multiply">
<path d="M500.82 93.7002L512.379 82.1415C512.547 81.9738 512.681 81.7743 512.773 81.5546C512.864 81.3348 512.911 81.0992 512.911 80.8612V57.2661C512.911 56.7879 512.721 56.3292 512.382 55.991C512.044 55.6529 511.586 55.4629 511.107 55.4629H478.649C478.171 55.4629 477.713 55.6529 477.374 55.991C477.036 56.3292 476.846 56.7879 476.846 57.2661V92.4289C476.846 92.9071 477.036 93.3658 477.374 93.704C477.713 94.0421 478.171 94.2321 478.649 94.2321H499.54C499.778 94.2323 500.013 94.1854 500.233 94.0941C500.453 94.0028 500.652 93.8689 500.82 93.7002Z" fill="#DDDDDD"/>
</g>
<g style="mix-blend-mode:multiply">
<path d="M501.189 93.3291V84.0515C501.189 83.6426 501.352 83.2505 501.641 82.9613C501.93 82.6722 502.322 82.5098 502.731 82.5098H512.009L501.189 93.3291Z" fill="#20014B"/>
</g>
<rect x="482.5" y="61.9229" width="24.2308" height="3.23077" rx="1.61538" fill="#20014B"/>
<rect x="482.5" y="68.3857" width="24.2308" height="3.23077" rx="1.61538" fill="#20014B"/>
<rect x="482.5" y="74.8467" width="16.9615" height="3.23077" rx="1.61538" fill="#20014B"/>
<rect x="590.154" y="92.6152" width="7.26923" height="1.61538" rx="0.807692" fill="#DDDDDD"/>
<rect x="588.539" y="89.3848" width="4.84615" height="1.61538" rx="0.807692" fill="#DDDDDD"/>
<rect x="600.654" y="55.46" width="14.5385" height="3.23077" rx="1.61538" fill="#20014B"/>
<path d="M607.923 94.2297C617.291 94.2297 624.885 86.6358 624.885 77.2682C624.885 67.9006 617.291 60.3066 607.923 60.3066C598.556 60.3066 590.962 67.9006 590.962 77.2682C590.962 86.6358 598.556 94.2297 607.923 94.2297Z" fill="#DDDDDD"/>
<path d="M607.923 79.3042C609.047 79.3042 609.958 78.3929 609.958 77.2688C609.958 76.1447 609.047 75.2334 607.923 75.2334C606.799 75.2334 605.888 76.1447 605.888 77.2688C605.888 78.3929 606.799 79.3042 607.923 79.3042Z" fill="#20014B"/>
<rect x="607.923" y="75.6543" width="8.95447" height="3.23077" rx="1.61538" fill="#20014B"/>
<rect x="606.308" y="78.0771" width="13.7308" height="3.23077" rx="1.61538" transform="rotate(-90 606.308 78.0771)" fill="#20014B"/>
<g style="mix-blend-mode:multiply">
<path d="M737.178 94.0857L731.95 88.9657C731.881 88.9038 731.826 88.8279 731.788 88.7432C731.75 88.6584 731.731 88.5666 731.731 88.4738C731.731 88.381 731.75 88.2892 731.788 88.2045C731.826 88.1197 731.881 88.0439 731.95 87.9819C732.017 87.9146 732.097 87.8612 732.184 87.8248C732.272 87.7883 732.365 87.7695 732.46 87.7695C732.555 87.7695 732.649 87.7883 732.736 87.8248C732.824 87.8612 732.903 87.9146 732.97 87.9819L738.212 93.0086C738.28 93.0705 738.334 93.1459 738.371 93.23C738.409 93.314 738.428 93.4049 738.428 93.4969C738.428 93.5888 738.409 93.6797 738.371 93.7638C738.334 93.8478 738.28 93.9232 738.212 93.9852C738.08 94.1228 737.903 94.2086 737.714 94.227C737.524 94.2455 737.334 94.1953 737.178 94.0857Z" fill="#20014B"/>
</g>
<g style="mix-blend-mode:multiply">
<path d="M723.612 68.3867C728.236 74.0093 732.954 79.5673 737.571 85.1972C737.917 85.6124 738.095 86.1428 738.068 86.6829C738.042 87.223 737.813 87.7333 737.428 88.1126L732.58 92.8879C732.2 93.2743 731.688 93.5031 731.146 93.5283C730.604 93.5536 730.073 93.3736 729.658 93.0243C724.028 88.3998 718.463 83.6892 712.833 79.0719" fill="#DDDDDD"/>
</g>
<path d="M712.488 79.8768C714.901 79.8669 717.256 79.1425 719.257 77.7951C721.258 76.4477 722.815 74.5377 723.731 72.3062C724.647 70.0747 724.882 67.6218 724.405 65.2571C723.928 62.8924 722.762 60.7219 721.052 59.0197C719.343 57.3175 717.168 56.1598 714.801 55.6928C712.435 55.2259 709.983 55.4705 707.755 56.3959C705.527 57.3214 703.624 58.886 702.285 60.8924C700.945 62.8988 700.231 65.257 700.231 67.6693C700.231 69.2767 700.548 70.8682 701.165 72.3526C701.781 73.8369 702.685 75.1849 703.824 76.3191C704.963 77.4534 706.315 78.3515 707.801 78.962C709.288 79.5725 710.881 79.8834 712.488 79.8768Z" fill="#20014B"/>
<path d="M4.44 155.62C2.34 155.62 0.57 154.195 0.375 152.275L2.445 151.66C2.58 152.83 3.495 153.61 4.53 153.61C5.475 153.61 6.09 153.16 6.09 152.5C6.09 150.52 0.705 151.69 0.705 147.835C0.705 146.11 2.355 144.88 4.41 144.88C6.435 144.88 8.07 145.96 8.43 147.565L6.315 148.45C6.105 147.505 5.4 146.89 4.41 146.89C3.585 146.89 3.075 147.235 3.075 147.82C3.075 149.485 8.475 148.15 8.475 152.44C8.475 154.345 6.855 155.62 4.44 155.62ZM11.9572 155.5V147.025H8.86723V145H17.4022V147.025H14.3272V155.5H11.9572ZM21.1774 155.5V151.165L17.6224 145H20.1424L22.3624 148.945L24.5974 145H27.1024L23.5474 151.165V155.5H21.1774ZM27.6784 155.5V145H30.0484V153.46H34.7584V155.5H27.6784ZM35.8669 155.5V145H43.0819V147.025H38.2369V148.945H42.0769V150.985H38.2369V153.46H43.2469V155.5H35.8669ZM50.1045 155.5V147.52C49.3995 148.045 48.6345 148.42 47.7345 148.6V146.485C48.6795 146.26 49.7145 145.675 50.5095 145H52.2945V155.5H50.1045Z" fill="#595959"/>
<path d="M1.022 180.5V170.7H3.934C6.678 170.7 8.848 172.45 8.848 175.6C8.848 178.75 6.678 180.5 3.934 180.5H1.022ZM2.282 179.352H3.892C5.782 179.352 7.532 178.274 7.532 175.6C7.532 172.926 5.782 171.834 3.892 171.834H2.282V179.352ZM16.7699 176.65C16.7699 176.818 16.7559 177.07 16.7419 177.196H11.1699C11.2539 178.624 12.1499 179.562 13.4239 179.562C14.5019 179.562 15.2439 179.058 15.4539 178.176L16.5739 178.442C16.2239 179.814 15.0479 180.612 13.4239 180.612C11.3099 180.612 9.97992 178.974 9.97992 176.972C9.97992 174.97 11.2679 173.332 13.3959 173.332C15.4819 173.332 16.7699 174.83 16.7699 176.65ZM11.2399 176.202H15.5099C15.3979 175.124 14.6419 174.326 13.3959 174.326C12.2899 174.326 11.4779 175.026 11.2399 176.202ZM21.9582 180.444C21.6082 180.57 21.2302 180.612 20.8522 180.612C19.6482 180.612 18.7662 179.94 18.7662 178.386V174.494H17.4502V173.444H18.7662V171.302H19.9562V173.444H21.8462V174.494H19.9562V178.428C19.9562 179.17 20.3762 179.534 20.9922 179.534C21.2722 179.534 21.5942 179.492 21.8742 179.352L21.9582 180.444ZM25.8558 173.332C27.5638 173.332 28.7538 174.34 28.7538 175.978V180.5H27.5778V179.296C27.1718 180.108 26.2478 180.612 25.2258 180.612C23.8118 180.612 22.8458 179.744 22.8458 178.526C22.8458 177.168 23.9518 176.426 26.2058 176.202L27.5778 176.048V175.908C27.5778 174.942 26.8918 174.326 25.8558 174.326C24.8898 174.326 24.2038 174.9 24.1058 175.852L22.9998 175.642C23.2098 174.242 24.3718 173.332 25.8558 173.332ZM25.4078 179.632C26.7798 179.632 27.5778 178.722 27.5778 177.308V176.972L26.2058 177.126C24.7778 177.28 24.0358 177.77 24.0358 178.512C24.0358 179.17 24.5958 179.632 25.4078 179.632ZM31.2767 172.114C30.8007 172.114 30.4507 171.75 30.4507 171.288C30.4507 170.812 30.8007 170.448 31.2767 170.448C31.7667 170.448 32.1307 170.812 32.1307 171.288C32.1307 171.75 31.7667 172.114 31.2767 172.114ZM30.6887 180.5V173.444H31.8787V180.5H30.6887ZM36.0038 180.598C34.7438 180.724 33.8058 180.248 33.8058 178.778V170.588H34.9958V178.694C34.9958 179.464 35.3598 179.576 35.9478 179.534L36.0038 180.598ZM43.7719 176.65C43.7719 176.818 43.7579 177.07 43.7439 177.196H38.1719C38.2559 178.624 39.1519 179.562 40.4259 179.562C41.5039 179.562 42.2459 179.058 42.4559 178.176L43.5759 178.442C43.2259 179.814 42.0499 180.612 40.4259 180.612C38.3119 180.612 36.9819 178.974 36.9819 176.972C36.9819 174.97 38.2699 173.332 40.3979 173.332C42.4839 173.332 43.7719 174.83 43.7719 176.65ZM38.2419 176.202H42.5119C42.3999 175.124 41.6439 174.326 40.3979 174.326C39.2919 174.326 38.4799 175.026 38.2419 176.202ZM48.2999 180.612C46.1019 180.612 44.8979 179.044 44.8979 176.972C44.8979 174.9 46.1019 173.332 48.2859 173.332C49.2239 173.332 50.1479 173.794 50.5959 174.452V170.588H51.7859V180.5H50.5959V179.478C50.2739 180.122 49.3359 180.612 48.2999 180.612ZM48.4119 179.548C49.7979 179.548 50.7079 178.526 50.7079 176.972C50.7079 175.418 49.7979 174.396 48.4119 174.396C47.0259 174.396 46.1159 175.418 46.1159 176.972C46.1159 178.526 47.0259 179.548 48.4119 179.548Z" fill="#595959"/>
<path d="M290.846 179.463H254.846C254.479 179.463 254.127 179.293 253.867 178.99C253.607 178.687 253.462 178.276 253.462 177.848V148.771C253.462 148.342 253.607 147.931 253.867 147.628C254.127 147.325 254.479 147.155 254.846 147.155H290.846C291.213 147.155 291.566 147.325 291.825 147.628C292.085 147.931 292.231 148.342 292.231 148.771V177.848C292.231 178.276 292.085 178.687 291.825 178.99C291.566 179.293 291.213 179.463 290.846 179.463Z" fill="#DDDDDD"/>
<path fill-rule="evenodd" clip-rule="evenodd" d="M292.231 154.02H253.462V148.759C253.464 148.335 253.61 147.929 253.867 147.628C254.127 147.325 254.479 147.155 254.846 147.155H290.846C291.213 147.155 291.566 147.325 291.825 147.628C292.085 147.931 292.231 148.342 292.231 148.771V154.02Z" fill="#20014B"/>
<circle cx="256.692" cy="150.385" r="0.807692" fill="#C4C4C4"/>
<circle cx="259.923" cy="150.385" r="0.807692" fill="#C4C4C4"/>
<circle cx="263.154" cy="150.385" r="0.807692" fill="#C4C4C4"/>
<rect x="257.949" y="158.82" width="8.07692" height="1.61538" rx="0.807692" fill="#BBBBBB"/>
<rect x="281.282" y="163.308" width="5.38461" height="1.79487" rx="0.897436" fill="#BBBBBB"/>
<rect x="257.949" y="163.308" width="21.5385" height="1.61538" rx="0.807692" fill="#BBBBBB"/>
<rect x="257.949" y="167.795" width="21.5385" height="1.61538" rx="0.807692" fill="#BBBBBB"/>
<rect x="267.82" y="158.82" width="18.8461" height="1.61538" rx="0.807692" fill="#BBBBBB"/>
<path d="M275.398 174.458C275.438 174.116 275.399 173.77 275.286 173.446C275.172 173.121 274.987 172.828 274.744 172.588C274.185 172.208 273.518 172.026 272.846 172.071V170.193C273.525 170.238 274.198 170.044 274.752 169.643C274.984 169.416 275.162 169.138 275.274 168.832C275.386 168.525 275.428 168.197 275.398 167.871V165.525C275.353 164.726 275.61 163.939 276.117 163.327C276.397 163.042 276.733 162.821 277.104 162.68C277.474 162.538 277.871 162.479 278.266 162.506H280.923V164.541H279.542C279.244 164.536 278.946 164.56 278.653 164.615C278.44 164.651 278.242 164.748 278.08 164.893C277.924 165.046 277.817 165.244 277.773 165.459C277.704 165.774 277.677 166.097 277.692 166.419V168.552C277.719 168.883 277.675 169.216 277.562 169.528C277.449 169.839 277.27 170.122 277.038 170.357C276.555 170.766 275.954 171.005 275.326 171.037V171.218C275.959 171.242 276.564 171.495 277.03 171.932C277.256 172.174 277.431 172.46 277.545 172.773C277.659 173.086 277.709 173.419 277.692 173.753V175.861C277.684 176.175 277.717 176.49 277.789 176.796C277.831 177.012 277.938 177.21 278.096 177.362C278.26 177.509 278.462 177.606 278.678 177.641C278.973 177.695 279.274 177.719 279.574 177.715H280.923V179.757H278.266C277.882 179.781 277.497 179.727 277.134 179.599C276.771 179.471 276.436 179.271 276.15 179.011C275.879 178.707 275.672 178.35 275.543 177.962C275.414 177.574 275.365 177.163 275.398 176.755V174.458Z" fill="#20014B"/>
<path d="M289.695 176.754C289.726 177.159 289.676 177.567 289.547 177.952C289.418 178.337 289.212 178.692 288.943 178.993C288.657 179.254 288.322 179.454 287.959 179.582C287.596 179.71 287.211 179.763 286.827 179.74H284.154V177.714H285.535C285.835 177.718 286.136 177.694 286.431 177.64C286.647 177.605 286.849 177.508 287.013 177.361C287.171 177.209 287.278 177.011 287.32 176.795C287.381 176.487 287.403 176.173 287.385 175.86V173.751C287.364 173.414 287.413 173.076 287.527 172.759C287.64 172.441 287.818 172.151 288.047 171.906C288.527 171.456 289.154 171.202 289.808 171.192V171.012C289.179 170.979 288.578 170.74 288.095 170.331C287.857 170.105 287.669 169.828 287.546 169.521C287.424 169.213 287.368 168.882 287.385 168.551V166.418C287.394 166.103 287.359 165.788 287.28 165.483C287.23 165.268 287.121 165.071 286.965 164.917C286.803 164.771 286.604 164.675 286.391 164.638C286.103 164.585 285.811 164.56 285.519 164.564H284.154V162.53H286.827C287.222 162.503 287.618 162.562 287.989 162.703C288.36 162.845 288.696 163.065 288.976 163.35C289.483 163.963 289.74 164.749 289.695 165.549V167.895C289.665 168.22 289.707 168.549 289.819 168.855C289.931 169.162 290.109 169.439 290.341 169.666C290.893 170.056 291.56 170.242 292.231 170.191V172.045C291.559 172 290.892 172.182 290.333 172.562C290.09 172.802 289.905 173.096 289.791 173.42C289.678 173.744 289.639 174.091 289.678 174.432L289.695 176.754Z" fill="#20014B"/>
<path d="M392.817 181.884C394.356 181.884 395.615 180.625 395.615 179.086V145.509C395.615 143.97 394.356 142.711 392.817 142.711H390.019H378.827H376.029C374.49 142.711 373.231 143.97 373.231 145.509V179.086C373.231 180.625 374.49 181.884 376.029 181.884H392.817Z" fill="#DDDDDD"/>
<path d="M395.615 179.086C395.615 180.625 394.356 181.884 392.817 181.884H376.029C374.49 181.884 373.231 180.625 373.231 179.086H395.615Z" fill="#20014B"/>
<path d="M390.019 142.711L388.06 144.67C387.501 145.229 386.801 145.509 386.032 145.509H382.744C381.975 145.509 381.275 145.229 380.785 144.67L378.827 142.711H390.019Z" fill="#20014B"/>
<g style="mix-blend-mode:multiply">
<path d="M404.723 164.971L401.947 160.868C401.914 160.812 401.866 160.765 401.807 160.732C401.748 160.699 401.681 160.682 401.613 160.682C401.545 160.682 401.478 160.699 401.419 160.732C401.36 160.765 401.312 160.812 401.279 160.868C400.345 162.227 399.417 163.593 398.483 164.959C398.436 165.013 398.41 165.081 398.41 165.151C398.41 165.221 398.436 165.289 398.483 165.343C398.514 165.389 398.558 165.426 398.61 165.452C398.661 165.477 398.719 165.489 398.777 165.487H400.252C399.698 166.294 398.944 166.961 398.054 167.43C397.164 167.899 396.167 168.155 395.148 168.177C394.129 168.199 393.12 167.985 392.209 167.555C391.298 167.124 390.512 166.49 389.921 165.708C389.093 164.594 387.138 165.657 387.972 166.784C388.808 167.988 389.976 168.955 391.35 169.582C392.724 170.208 394.253 170.471 395.773 170.342C397.294 170.213 398.748 169.696 399.981 168.848C401.214 167.999 402.18 166.851 402.774 165.525H404.356C404.422 165.525 404.488 165.509 404.545 165.477C404.602 165.446 404.65 165.401 404.682 165.346C404.715 165.292 404.731 165.23 404.73 165.167C404.729 165.105 404.711 165.044 404.676 164.99L404.723 164.971Z" fill="#20014B"/>
</g>
<g style="mix-blend-mode:multiply">
<path d="M402.11 156.586C401.291 155.309 400.144 154.285 398.795 153.626C397.446 152.967 395.945 152.697 394.456 152.845C392.967 152.994 391.546 153.556 390.348 154.47C389.15 155.383 388.22 156.614 387.659 158.029H385.712C385.647 158.029 385.584 158.047 385.529 158.08C385.473 158.113 385.427 158.161 385.395 158.218C385.363 158.274 385.346 158.339 385.346 158.404C385.346 158.47 385.362 158.534 385.394 158.591L388.094 162.908C388.126 162.967 388.173 163.017 388.23 163.051C388.287 163.086 388.352 163.104 388.419 163.104C388.485 163.104 388.55 163.086 388.607 163.051C388.665 163.017 388.711 162.967 388.743 162.908L391.463 158.611C391.51 158.553 391.535 158.481 391.535 158.406C391.535 158.331 391.51 158.259 391.463 158.201C391.433 158.152 391.391 158.113 391.34 158.086C391.29 158.059 391.234 158.046 391.178 158.049H390.113C390.643 157.184 391.374 156.467 392.24 155.959C393.107 155.452 394.083 155.17 395.082 155.139C396.081 155.109 397.072 155.33 397.967 155.783C398.863 156.236 399.634 156.907 400.214 157.737C401.019 158.903 402.922 157.79 402.11 156.599V156.586Z" fill="#20014B"/>
</g>
<path d="M513.192 151.192V179.461C513.192 181.016 511.92 182.288 510.365 182.288H482.096C480.541 182.288 479.269 181.016 479.269 179.461V145.538C479.269 143.983 480.541 142.711 482.096 142.711H504.711" fill="#DDDDDD"/>
<rect x="492.192" y="147.96" width="7.26923" height="1.61538" rx="0.807692" fill="#BBBBBB"/>
<rect x="483.308" y="153.615" width="7.26923" height="1.61538" rx="0.807692" fill="#BBBBBB"/>
<rect x="504.308" y="157.652" width="4.84615" height="1.61538" rx="0.807692" fill="#BBBBBB"/>
<rect x="483.308" y="157.652" width="19.3846" height="1.61538" rx="0.807692" fill="#BBBBBB"/>
<rect x="489.769" y="173.807" width="19.3846" height="1.61538" rx="0.807692" fill="#BBBBBB"/>
<rect x="483.308" y="161.692" width="19.3846" height="1.61538" rx="0.807692" fill="#BBBBBB"/>
<rect x="483.308" y="165.729" width="7.26923" height="1.61538" rx="0.807692" fill="#BBBBBB"/>
<rect x="492.192" y="165.729" width="16.9615" height="1.61538" rx="0.807692" fill="#BBBBBB"/>
<rect x="492.192" y="153.614" width="16.9615" height="1.61538" rx="0.807692" fill="#BBBBBB"/>
<rect x="483.308" y="169.769" width="16.1538" height="1.61538" rx="0.807692" fill="#BBBBBB"/>
<rect x="501.885" y="169.769" width="7.26923" height="1.61538" rx="0.807692" fill="#BBBBBB"/>
<rect x="483.308" y="173.807" width="4.84615" height="1.61538" rx="0.807692" fill="#BBBBBB"/>
<path d="M513.192 151.192L504.711 142.711V148.365C504.711 149.92 505.984 151.192 507.538 151.192H513.192Z" fill="#20014B"/>
<g clip-path="url(#clip2_429_19567)">
<path d="M591.308 165.268C591.308 174.476 598.785 181.883 607.923 181.883C617.061 181.883 624.538 174.407 624.538 165.268C624.538 160.214 622.254 155.714 618.723 152.668L620.385 151.007L621.285 151.907C621.423 152.045 621.631 152.114 621.769 152.114C621.908 152.114 622.115 152.045 622.254 151.907C622.531 151.63 622.531 151.214 622.254 150.937L619.485 148.168C619.208 147.891 618.792 147.891 618.515 148.168C618.238 148.445 618.238 148.86 618.515 149.137L619.415 150.037L617.754 151.699L617.685 151.768C615.677 150.314 613.323 149.276 610.692 148.86V145.883H612.077C612.423 145.883 612.769 145.745 613.046 145.468C613.323 145.191 613.461 144.845 613.461 144.499C613.461 143.737 612.838 143.114 612.077 143.114H603.769C603.423 143.114 603.077 143.253 602.8 143.53C602.523 143.807 602.385 144.153 602.385 144.499C602.385 145.26 603.008 145.883 603.769 145.883H605.154V148.86C602.592 149.276 600.238 150.314 598.161 151.768L598.092 151.699L596.431 150.037L597.331 149.137C597.608 148.86 597.608 148.445 597.331 148.168C597.054 147.891 596.638 147.891 596.361 148.168L593.731 150.799C593.454 151.076 593.454 151.491 593.731 151.768C593.869 151.907 594.077 151.976 594.215 151.976C594.354 151.976 594.561 151.907 594.7 151.768L595.461 151.007L597.123 152.668C593.592 155.714 591.308 160.214 591.308 165.268Z" fill="#666666"/>
<path d="M607.923 179.114C615.57 179.114 621.769 172.915 621.769 165.268C621.769 157.621 615.57 151.422 607.923 151.422C600.276 151.422 594.077 157.621 594.077 165.268C594.077 172.915 600.276 179.114 607.923 179.114Z" fill="#DDDDDD"/>
<path d="M610.692 145.885V148.862C609.792 148.723 608.892 148.654 607.923 148.654C606.954 148.654 606.054 148.723 605.154 148.862V145.885H610.692Z" fill="#20014B"/>
<path d="M607.923 177.038C607.508 177.038 607.231 176.762 607.231 176.346V173.577C607.231 173.162 607.508 172.885 607.923 172.885C608.339 172.885 608.616 173.162 608.616 173.577V175.654C614.016 175.308 618.308 170.808 618.308 165.269C618.308 159.731 614.016 155.231 608.616 154.885V156.962C608.616 157.377 608.339 157.654 607.923 157.654C607.508 157.654 607.231 157.377 607.231 156.962V154.192C607.231 153.777 607.508 153.5 607.923 153.5C614.431 153.5 619.692 158.762 619.692 165.269C619.692 171.777 614.431 177.038 607.923 177.038Z" fill="#BBBBBB"/>
<path d="M600.308 158.347C600.69 158.347 601 158.037 601 157.654C601 157.272 600.69 156.962 600.308 156.962C599.925 156.962 599.615 157.272 599.615 157.654C599.615 158.037 599.925 158.347 600.308 158.347Z" fill="#BBBBBB"/>
<path d="M597.538 165.961C597.921 165.961 598.231 165.651 598.231 165.268C598.231 164.886 597.921 164.576 597.538 164.576C597.156 164.576 596.846 164.886 596.846 165.268C596.846 165.651 597.156 165.961 597.538 165.961Z" fill="#BBBBBB"/>
<path d="M600.308 173.576C600.69 173.576 601 173.266 601 172.884C601 172.501 600.69 172.191 600.308 172.191C599.925 172.191 599.615 172.501 599.615 172.884C599.615 173.266 599.925 173.576 600.308 173.576Z" fill="#BBBBBB"/>
<path d="M607.923 165.96C607.716 165.96 607.577 165.891 607.439 165.752C607.162 165.476 607.162 165.06 607.439 164.783L612.977 159.245C613.254 158.968 613.669 158.968 613.946 159.245C614.223 159.522 614.223 159.937 613.946 160.214L608.408 165.752C608.269 165.891 608.131 165.96 607.923 165.96Z" fill="#666666"/>
<path d="M607.923 168.037C609.452 168.037 610.692 166.798 610.692 165.268C610.692 163.739 609.452 162.499 607.923 162.499C606.394 162.499 605.154 163.739 605.154 165.268C605.154 166.798 606.394 168.037 607.923 168.037Z" fill="#20014B"/>
</g>
<rect x="728.835" y="170.576" width="14.5385" height="1.61538" rx="0.807692" transform="rotate(45 728.835 170.576)" fill="#20014B"/>
<g style="mix-blend-mode:multiply">
<path d="M723.612 156.038C728.236 161.661 732.954 167.219 737.572 172.849C737.918 173.264 738.095 173.794 738.069 174.334C738.042 174.874 737.813 175.385 737.428 175.764L732.581 180.539C732.2 180.926 731.688 181.154 731.146 181.18C730.605 181.205 730.073 181.025 729.658 180.676C724.028 176.051 718.463 171.341 712.833 166.723" fill="#DDDDDD"/>
</g>
<path d="M712.489 167.528C714.901 167.518 717.256 166.794 719.257 165.446C721.258 164.099 722.815 162.189 723.731 159.958C724.647 157.726 724.882 155.273 724.405 152.908C723.929 150.544 722.762 148.373 721.053 146.671C719.343 144.969 717.168 143.811 714.802 143.344C712.435 142.877 709.983 143.122 707.755 144.047C705.528 144.973 703.624 146.537 702.285 148.544C700.946 150.55 700.231 152.908 700.231 155.321C700.231 156.928 700.548 158.52 701.165 160.004C701.782 161.488 702.685 162.836 703.824 163.97C704.963 165.105 706.315 166.003 707.802 166.613C709.289 167.224 710.881 167.535 712.489 167.528Z" fill="#666666"/>
<rect x="724.323" y="164.923" width="8.39364" height="3.23077" rx="1.61538" transform="rotate(45 724.323 164.923)" fill="#BBBBBB"/>
<rect x="701.039" y="163.501" width="27.6888" height="3.23077" rx="1.61538" transform="rotate(-45 701.039 163.501)" fill="#20014B"/>
<path d="M4.44 243.273C2.34 243.273 0.57 241.848 0.375 239.928L2.445 239.313C2.58 240.483 3.495 241.263 4.53 241.263C5.475 241.263 6.09 240.813 6.09 240.153C6.09 238.173 0.705 239.343 0.705 235.488C0.705 233.763 2.355 232.533 4.41 232.533C6.435 232.533 8.07 233.613 8.43 235.218L6.315 236.103C6.105 235.158 5.4 234.543 4.41 234.543C3.585 234.543 3.075 234.888 3.075 235.473C3.075 237.138 8.475 235.803 8.475 240.093C8.475 241.998 6.855 243.273 4.44 243.273ZM11.9572 243.153V234.678H8.86723V232.653H17.4022V234.678H14.3272V243.153H11.9572ZM21.1774 243.153V238.818L17.6224 232.653H20.1424L22.3624 236.598L24.5974 232.653H27.1024L23.5474 238.818V243.153H21.1774ZM27.6784 243.153V232.653H30.0484V241.113H34.7584V243.153H27.6784ZM35.8669 243.153V232.653H43.0819V234.678H38.2369V236.598H42.0769V238.638H38.2369V241.113H43.2469V243.153H35.8669ZM51.6945 243.273C49.4895 243.273 47.8845 242.028 47.6895 240.153L49.8345 239.793C49.9845 240.663 50.7195 241.233 51.7095 241.233C52.7145 241.233 53.4045 240.618 53.4045 239.703C53.4045 238.773 52.7445 238.173 51.7395 238.173C51.3945 238.173 50.8995 238.293 50.5395 238.533L49.6395 236.973L52.2945 234.678H47.9895V232.653H55.0845V234.543L52.5345 236.688C54.4545 236.658 55.7745 237.843 55.7745 239.778C55.7745 241.878 54.1395 243.273 51.6945 243.273Z" fill="#595959"/>
<path d="M7.728 268.153L6.762 265.661H2.408L1.442 268.153H0.126L4.004 258.353H5.166L9.058 268.153H7.728ZM2.842 264.527H6.328L4.592 260.033L2.842 264.527ZM17.0165 268.265C15.9805 268.265 15.0425 267.775 14.7205 267.131V268.153H13.5305V258.241H14.7205V262.105C15.1685 261.447 16.0925 260.985 17.0305 260.985C19.2145 260.985 20.4185 262.553 20.4185 264.625C20.4185 266.697 19.2145 268.265 17.0165 268.265ZM16.9045 267.201C18.2905 267.201 19.2005 266.179 19.2005 264.625C19.2005 263.071 18.2905 262.049 16.9045 262.049C15.5185 262.049 14.6225 263.071 14.6225 264.625C14.6225 266.179 15.5185 267.201 16.9045 267.201ZM24.5023 260.985C26.2103 260.985 27.4003 261.993 27.4003 263.631V268.153H26.2243V266.949C25.8183 267.761 24.8943 268.265 23.8723 268.265C22.4583 268.265 21.4923 267.397 21.4923 266.179C21.4923 264.821 22.5983 264.079 24.8523 263.855L26.2243 263.701V263.561C26.2243 262.595 25.5383 261.979 24.5023 261.979C23.5363 261.979 22.8503 262.553 22.7523 263.505L21.6463 263.295C21.8563 261.895 23.0183 260.985 24.5023 260.985ZM24.0543 267.285C25.4263 267.285 26.2243 266.375 26.2243 264.961V264.625L24.8523 264.779C23.4243 264.933 22.6823 265.423 22.6823 266.165C22.6823 266.823 23.2423 267.285 24.0543 267.285ZM31.5331 268.251C30.2731 268.377 29.3351 267.901 29.3351 266.431V258.241H30.5251V266.347C30.5251 267.117 30.8891 267.229 31.4771 267.187L31.5331 268.251ZM35.5492 260.985C37.2572 260.985 38.4472 261.993 38.4472 263.631V268.153H37.2712V266.949C36.8652 267.761 35.9412 268.265 34.9192 268.265C33.5052 268.265 32.5392 267.397 32.5392 266.179C32.5392 264.821 33.6452 264.079 35.8992 263.855L37.2712 263.701V263.561C37.2712 262.595 36.5852 261.979 35.5492 261.979C34.5832 261.979 33.8972 262.553 33.7992 263.505L32.6932 263.295C32.9032 261.895 34.0652 260.985 35.5492 260.985ZM35.1012 267.285C36.4732 267.285 37.2712 266.375 37.2712 264.961V264.625L35.8992 264.779C34.4712 264.933 33.7292 265.423 33.7292 266.165C33.7292 266.823 34.2892 267.285 35.1012 267.285ZM40.382 268.153V261.097H41.572V262.427C42.062 261.587 42.916 260.985 43.994 260.985C45.464 260.985 46.514 261.979 46.514 263.477V268.153H45.324V263.701C45.324 262.749 44.722 262.063 43.728 262.063C42.412 262.063 41.572 263.197 41.572 265.059V268.153H40.382ZM51.5424 268.265C49.4424 268.265 48.0424 266.809 48.0424 264.625C48.0424 262.441 49.4424 260.985 51.5424 260.985C53.1804 260.985 54.3844 261.881 54.6364 263.281L53.4604 263.519C53.3064 262.665 52.5644 262.049 51.5704 262.049C50.1844 262.049 49.2884 263.071 49.2884 264.625C49.2884 266.179 50.1844 267.201 51.5704 267.201C52.5644 267.201 53.2924 266.655 53.4884 265.717L54.6504 265.955C54.3424 267.411 53.1664 268.265 51.5424 268.265ZM62.516 264.303C62.516 264.471 62.502 264.723 62.488 264.849H56.916C57 266.277 57.896 267.215 59.17 267.215C60.248 267.215 60.99 266.711 61.2 265.829L62.32 266.095C61.97 267.467 60.794 268.265 59.17 268.265C57.056 268.265 55.726 266.627 55.726 264.625C55.726 262.623 57.014 260.985 59.142 260.985C61.228 260.985 62.516 262.483 62.516 264.303ZM56.986 263.855H61.256C61.144 262.777 60.388 261.979 59.142 261.979C58.036 261.979 57.224 262.679 56.986 263.855ZM70.911 268.265C69.875 268.265 68.937 267.775 68.615 267.131V268.153H67.425V258.241H68.615V262.105C69.063 261.447 69.987 260.985 70.925 260.985C73.109 260.985 74.313 262.553 74.313 264.625C74.313 266.697 73.109 268.265 70.911 268.265ZM70.799 267.201C72.185 267.201 73.095 266.179 73.095 264.625C73.095 263.071 72.185 262.049 70.799 262.049C69.413 262.049 68.517 263.071 68.517 264.625C68.517 266.179 69.413 267.201 70.799 267.201ZM82.2172 264.303C82.2172 264.471 82.2032 264.723 82.1892 264.849H76.6172C76.7012 266.277 77.5972 267.215 78.8712 267.215C79.9492 267.215 80.6912 266.711 80.9012 265.829L82.0212 266.095C81.6712 267.467 80.4952 268.265 78.8712 268.265C76.7572 268.265 75.4272 266.627 75.4272 264.625C75.4272 262.623 76.7152 260.985 78.8432 260.985C80.9292 260.985 82.2172 262.483 82.2172 264.303ZM76.6872 263.855H80.9572C80.8452 262.777 80.0892 261.979 78.8432 261.979C77.7372 261.979 76.9252 262.679 76.6872 263.855ZM87.4055 268.097C87.0555 268.223 86.6775 268.265 86.2995 268.265C85.0955 268.265 84.2135 267.593 84.2135 266.039V262.147H82.8975V261.097H84.2135V258.955H85.4035V261.097H87.2935V262.147H85.4035V266.081C85.4035 266.823 85.8235 267.187 86.4395 267.187C86.7195 267.187 87.0415 267.145 87.3215 267.005L87.4055 268.097ZM90.3621 268.153L88.2061 261.097H89.4241L90.9501 266.487L92.6021 261.097H93.7501L95.4021 266.487L96.9141 261.097H98.1601L95.9901 268.153H94.8281L93.1761 262.791L91.5241 268.153H90.3621ZM105.692 264.303C105.692 264.471 105.678 264.723 105.664 264.849H100.092C100.176 266.277 101.072 267.215 102.346 267.215C103.424 267.215 104.166 266.711 104.376 265.829L105.496 266.095C105.146 267.467 103.97 268.265 102.346 268.265C100.232 268.265 98.9018 266.627 98.9018 264.625C98.9018 262.623 100.19 260.985 102.318 260.985C104.404 260.985 105.692 262.483 105.692 264.303ZM100.162 263.855H104.432C104.32 262.777 103.564 261.979 102.318 261.979C101.212 261.979 100.4 262.679 100.162 263.855ZM113.608 264.303C113.608 264.471 113.594 264.723 113.58 264.849H108.008C108.092 266.277 108.988 267.215 110.262 267.215C111.34 267.215 112.082 266.711 112.292 265.829L113.412 266.095C113.062 267.467 111.886 268.265 110.262 268.265C108.148 268.265 106.818 266.627 106.818 264.625C106.818 262.623 108.106 260.985 110.234 260.985C112.32 260.985 113.608 262.483 113.608 264.303ZM108.078 263.855H112.348C112.236 262.777 111.48 261.979 110.234 261.979C109.128 261.979 108.316 262.679 108.078 263.855ZM115.14 268.153V261.097H116.33V262.427C116.82 261.587 117.674 260.985 118.752 260.985C120.222 260.985 121.272 261.979 121.272 263.477V268.153H120.082V263.701C120.082 262.749 119.48 262.063 118.486 262.063C117.17 262.063 116.33 263.197 116.33 265.059V268.153H115.14ZM128.949 268.265C127.241 268.265 126.317 267.201 126.009 266.207L127.031 265.759C127.297 266.585 127.857 267.257 128.949 267.257C129.817 267.257 130.377 266.753 130.377 266.179C130.377 264.373 126.317 265.535 126.317 262.861C126.317 261.741 127.283 260.985 128.795 260.985C130.041 260.985 131.119 261.685 131.413 262.721L130.419 263.155C130.223 262.427 129.523 261.965 128.767 261.965C127.969 261.965 127.465 262.287 127.465 262.847C127.465 264.359 131.553 263.253 131.539 266.165C131.539 267.397 130.503 268.265 128.949 268.265ZM136.706 268.097C136.356 268.223 135.978 268.265 135.6 268.265C134.396 268.265 133.514 267.593 133.514 266.039V262.147H132.198V261.097H133.514V258.955H134.704V261.097H136.594V262.147H134.704V266.081C134.704 266.823 135.124 267.187 135.74 267.187C136.02 267.187 136.342 267.145 136.622 267.005L136.706 268.097ZM142.743 261.097H143.961L140.265 270.701H139.047L140.069 268.055L137.311 261.097H138.599L140.671 266.501L142.743 261.097ZM147.307 268.251C146.047 268.377 145.109 267.901 145.109 266.431V258.241H146.299V266.347C146.299 267.117 146.663 267.229 147.251 267.187L147.307 268.251ZM155.075 264.303C155.075 264.471 155.061 264.723 155.047 264.849H149.475C149.559 266.277 150.455 267.215 151.729 267.215C152.807 267.215 153.549 266.711 153.759 265.829L154.879 266.095C154.529 267.467 153.353 268.265 151.729 268.265C149.615 268.265 148.285 266.627 148.285 264.625C148.285 262.623 149.573 260.985 151.701 260.985C153.787 260.985 155.075 262.483 155.075 264.303ZM149.545 263.855H153.815C153.703 262.777 152.947 261.979 151.701 261.979C150.595 261.979 149.783 262.679 149.545 263.855ZM161.65 268.153V259.949C160.978 260.565 160.25 260.873 159.326 261.041V259.907C160.306 259.697 161.16 259.193 161.846 258.353H162.854V268.153H161.65ZM170.846 260.985C172.554 260.985 173.744 261.993 173.744 263.631V268.153H172.568V266.949C172.162 267.761 171.238 268.265 170.216 268.265C168.802 268.265 167.836 267.397 167.836 266.179C167.836 264.821 168.942 264.079 171.196 263.855L172.568 263.701V263.561C172.568 262.595 171.882 261.979 170.846 261.979C169.88 261.979 169.194 262.553 169.096 263.505L167.99 263.295C168.2 261.895 169.362 260.985 170.846 260.985ZM170.398 267.285C171.77 267.285 172.568 266.375 172.568 264.961V264.625L171.196 264.779C169.768 264.933 169.026 265.423 169.026 266.165C169.026 266.823 169.586 267.285 170.398 267.285ZM175.679 268.153V261.097H176.869V262.427C177.359 261.587 178.213 260.985 179.291 260.985C180.761 260.985 181.811 261.979 181.811 263.477V268.153H180.621V263.701C180.621 262.749 180.019 262.063 179.025 262.063C177.709 262.063 176.869 263.197 176.869 265.059V268.153H175.679ZM186.741 268.265C184.543 268.265 183.339 266.697 183.339 264.625C183.339 262.553 184.543 260.985 186.727 260.985C187.665 260.985 188.589 261.447 189.037 262.105V258.241H190.227V268.153H189.037V267.131C188.715 267.775 187.777 268.265 186.741 268.265ZM186.853 267.201C188.239 267.201 189.149 266.179 189.149 264.625C189.149 263.071 188.239 262.049 186.853 262.049C185.467 262.049 184.557 263.071 184.557 264.625C184.557 266.179 185.467 267.201 186.853 267.201ZM194.984 268.153L194.97 267.047L198.652 263.869C199.8 262.875 200.29 262.063 200.29 261.181C200.29 260.089 199.562 259.375 198.414 259.375C197.042 259.375 196.272 260.341 196.412 261.797L195.18 261.713C195.026 259.655 196.37 258.241 198.414 258.241C200.346 258.241 201.606 259.403 201.606 261.181C201.606 262.371 200.948 263.463 199.436 264.737L196.776 267.005H201.606V268.153H194.984Z" fill="#595959"/>
<g style="mix-blend-mode:multiply">
<g style="mix-blend-mode:multiply">
<path d="M292.846 264.692H250.846C250.418 264.692 250.007 264.496 249.704 264.148C249.401 263.799 249.231 263.327 249.231 262.834V229.396C249.231 228.903 249.401 228.431 249.704 228.082C250.007 227.734 250.418 227.538 250.846 227.538H292.846C293.275 227.538 293.686 227.734 293.988 228.082C294.291 228.431 294.462 228.903 294.462 229.396V262.834C294.462 263.327 294.291 263.799 293.988 264.148C293.686 264.496 293.275 264.692 292.846 264.692Z" fill="#DDDDDD"/>
</g>
</g>
<g style="mix-blend-mode:multiply">
<g style="mix-blend-mode:multiply">
<path d="M252.058 231.576C252.297 231.576 252.532 231.505 252.731 231.372C252.93 231.239 253.085 231.05 253.177 230.828C253.269 230.607 253.293 230.364 253.246 230.128C253.199 229.893 253.084 229.678 252.914 229.508C252.745 229.339 252.529 229.223 252.294 229.177C252.059 229.13 251.815 229.154 251.594 229.246C251.373 229.337 251.183 229.493 251.05 229.692C250.917 229.891 250.846 230.125 250.846 230.365C250.846 230.686 250.974 230.994 251.201 231.222C251.428 231.449 251.736 231.576 252.058 231.576Z" fill="#DDDDDD"/>
</g>
</g>
<g style="mix-blend-mode:multiply">
<g style="mix-blend-mode:multiply">
<path d="M256.096 231.576C256.336 231.576 256.57 231.505 256.769 231.372C256.969 231.239 257.124 231.05 257.216 230.828C257.307 230.607 257.331 230.364 257.285 230.128C257.238 229.893 257.122 229.678 256.953 229.508C256.784 229.339 256.568 229.223 256.333 229.177C256.098 229.13 255.854 229.154 255.633 229.246C255.411 229.337 255.222 229.493 255.089 229.692C254.956 229.891 254.885 230.125 254.885 230.365C254.885 230.686 255.012 230.994 255.24 231.222C255.467 231.449 255.775 231.576 256.096 231.576Z" fill="#DDDDDD"/>
</g>
</g>
<g style="mix-blend-mode:multiply">
<g style="mix-blend-mode:multiply">
<path d="M260.135 231.576C260.374 231.576 260.608 231.505 260.808 231.372C261.007 231.239 261.162 231.05 261.254 230.828C261.346 230.607 261.37 230.364 261.323 230.128C261.276 229.893 261.161 229.678 260.991 229.508C260.822 229.339 260.606 229.223 260.371 229.177C260.136 229.13 259.892 229.154 259.671 229.246C259.45 229.337 259.26 229.493 259.127 229.692C258.994 229.891 258.923 230.125 258.923 230.365C258.923 230.686 259.051 230.994 259.278 231.222C259.505 231.449 259.813 231.576 260.135 231.576Z" fill="#DDDDDD"/>
</g>
</g>
<g style="mix-blend-mode:multiply">
<path d="M291.231 233.191H252.462C251.569 233.191 250.846 234.083 250.846 235.184V261.084C250.846 262.184 251.569 263.076 252.462 263.076H291.231C292.123 263.076 292.846 262.184 292.846 261.084V235.184C292.846 234.083 292.123 233.191 291.231 233.191Z" fill="#DDDDDD"/>
</g>
<g style="mix-blend-mode:multiply">
<g style="mix-blend-mode:multiply">
<path d="M272.783 267.581C272.822 267.244 272.784 266.903 272.67 266.584C272.557 266.265 272.372 265.976 272.129 265.739C271.57 265.365 270.902 265.186 270.231 265.231V263.381C270.91 263.426 271.583 263.235 272.137 262.84C272.369 262.616 272.547 262.343 272.659 262.041C272.771 261.739 272.813 261.416 272.783 261.095V258.785C272.737 257.998 272.995 257.224 273.502 256.621C273.782 256.34 274.118 256.123 274.489 255.984C274.859 255.845 275.255 255.786 275.65 255.813H278.308V257.816H276.927C276.629 257.811 276.331 257.835 276.038 257.889C275.825 257.925 275.626 258.02 275.465 258.163C275.308 258.314 275.201 258.508 275.158 258.721C275.089 259.031 275.062 259.348 275.077 259.666V261.766C275.104 262.092 275.059 262.42 274.946 262.726C274.833 263.033 274.655 263.312 274.423 263.543C273.94 263.946 273.339 264.181 272.71 264.213V264.391C273.344 264.414 273.949 264.663 274.415 265.093C274.641 265.332 274.816 265.614 274.93 265.922C275.044 266.23 275.094 266.558 275.077 266.886V268.962C275.069 269.272 275.102 269.582 275.174 269.883C275.216 270.096 275.323 270.291 275.481 270.44C275.645 270.585 275.846 270.68 276.062 270.715C276.358 270.768 276.658 270.792 276.959 270.788H278.308V272.799H275.65C275.267 272.822 274.882 272.769 274.519 272.643C274.156 272.517 273.821 272.32 273.534 272.064C273.263 271.765 273.057 271.413 272.928 271.031C272.798 270.649 272.749 270.245 272.783 269.843V267.581Z" fill="#20014B"/>
</g>
<g style="mix-blend-mode:multiply">
<path d="M287.079 269.843C287.111 270.242 287.061 270.644 286.931 271.023C286.802 271.402 286.597 271.751 286.328 272.048C286.042 272.304 285.707 272.501 285.344 272.627C284.98 272.753 284.596 272.806 284.212 272.783H281.539V270.788H282.92C283.22 270.792 283.52 270.768 283.816 270.715C284.032 270.68 284.234 270.585 284.398 270.44C284.556 270.291 284.663 270.096 284.705 269.883C284.766 269.58 284.788 269.271 284.769 268.962V266.887C284.749 266.554 284.797 266.222 284.911 265.909C285.025 265.596 285.202 265.31 285.432 265.069C285.912 264.627 286.539 264.376 287.192 264.367V264.189C286.564 264.157 285.963 263.922 285.48 263.519C285.241 263.296 285.054 263.023 284.931 262.721C284.808 262.418 284.753 262.092 284.769 261.766V259.666C284.779 259.355 284.743 259.045 284.664 258.745C284.615 258.533 284.505 258.34 284.349 258.188C284.188 258.044 283.989 257.949 283.776 257.913C283.488 257.861 283.196 257.836 282.904 257.84H281.539V255.837H284.212C284.607 255.811 285.003 255.869 285.374 256.008C285.744 256.148 286.081 256.365 286.36 256.645C286.868 257.248 287.125 258.023 287.079 258.81V261.12C287.049 261.44 287.092 261.764 287.204 262.066C287.316 262.368 287.494 262.641 287.725 262.864C288.278 263.248 288.945 263.431 289.615 263.381V265.207C288.944 265.162 288.277 265.341 287.717 265.715C287.475 265.952 287.289 266.241 287.176 266.56C287.063 266.879 287.024 267.22 287.063 267.557L287.079 269.843Z" fill="#20014B"/>
</g>
</g>
<g style="mix-blend-mode:multiply">
<path d="M386.769 227.54H364.154C363.726 227.54 363.315 227.71 363.012 228.013C362.709 228.316 362.539 228.727 362.539 229.155V271.155C362.539 271.584 362.709 271.995 363.012 272.298C363.315 272.601 363.726 272.771 364.154 272.771H386.769C387.198 272.771 387.609 272.601 387.912 272.298C388.215 271.995 388.385 271.584 388.385 271.155V229.155C388.385 228.727 388.215 228.316 387.912 228.013C387.609 227.71 387.198 227.54 386.769 227.54Z" fill="#DDDDDD"/>
</g>
<g style="mix-blend-mode:multiply">
<path d="M375.462 271.156C375.781 271.156 376.094 271.061 376.359 270.883C376.625 270.706 376.832 270.454 376.954 270.158C377.076 269.863 377.108 269.538 377.046 269.225C376.984 268.912 376.83 268.624 376.604 268.398C376.378 268.172 376.09 268.018 375.777 267.956C375.463 267.894 375.139 267.926 374.844 268.048C374.548 268.17 374.296 268.377 374.119 268.643C373.941 268.908 373.846 269.221 373.846 269.54C373.846 269.969 374.017 270.379 374.319 270.682C374.622 270.985 375.033 271.156 375.462 271.156Z" fill="#DDDDDD"/>
</g>
<g style="mix-blend-mode:multiply">
<path d="M385.962 229.154H364.962C364.516 229.154 364.154 229.516 364.154 229.962V265.5C364.154 265.947 364.516 266.308 364.962 266.308H385.962C386.408 266.308 386.769 265.947 386.769 265.5V229.962C386.769 229.516 386.408 229.154 385.962 229.154Z" fill="#DDDDDD"/>
</g>
<g style="mix-blend-mode:multiply">
<g style="mix-blend-mode:multiply">
<path d="M405.335 252.91L401.105 246.413C401.055 246.324 400.981 246.249 400.892 246.198C400.802 246.146 400.7 246.118 400.596 246.118C400.492 246.118 400.39 246.146 400.301 246.198C400.211 246.249 400.138 246.324 400.088 246.413C398.664 248.566 397.25 250.728 395.826 252.89C395.755 252.976 395.715 253.083 395.715 253.194C395.715 253.305 395.755 253.413 395.826 253.498C395.874 253.571 395.941 253.631 396.019 253.671C396.098 253.711 396.185 253.731 396.274 253.727H398.521C397.678 255.005 396.528 256.061 395.173 256.803C393.817 257.545 392.297 257.951 390.744 257.986C389.192 258.02 387.654 257.682 386.266 257C384.877 256.319 383.68 255.315 382.779 254.076C381.518 252.312 378.538 253.996 379.809 255.78C381.084 257.686 382.863 259.218 384.957 260.21C387.051 261.202 389.381 261.618 391.698 261.413C394.014 261.209 396.23 260.391 398.109 259.048C399.989 257.705 401.46 255.886 402.366 253.787H404.776C404.877 253.787 404.976 253.761 405.063 253.711C405.151 253.661 405.223 253.59 405.273 253.503C405.322 253.417 405.348 253.32 405.346 253.221C405.345 253.122 405.316 253.025 405.264 252.94L405.335 252.91Z" fill="#20014B"/>
</g>
<g style="mix-blend-mode:multiply">
<path d="M401.805 239.931C400.518 237.929 398.716 236.323 396.596 235.289C394.476 234.255 392.118 233.831 389.778 234.064C387.438 234.298 385.205 235.179 383.322 236.612C381.44 238.045 379.978 239.976 379.097 242.195H376.037C375.936 242.196 375.837 242.224 375.749 242.276C375.662 242.328 375.59 242.402 375.539 242.491C375.489 242.58 375.462 242.681 375.462 242.784C375.461 242.887 375.487 242.988 375.537 243.078L379.78 249.848C379.831 249.941 379.904 250.019 379.994 250.073C380.084 250.127 380.186 250.156 380.291 250.156C380.395 250.156 380.497 250.127 380.587 250.073C380.677 250.019 380.751 249.941 380.801 249.848L385.075 243.109C385.148 243.018 385.188 242.904 385.188 242.787C385.188 242.669 385.148 242.556 385.075 242.465C385.027 242.389 384.961 242.327 384.882 242.285C384.803 242.243 384.715 242.223 384.626 242.226H382.953C383.786 240.87 384.934 239.745 386.296 238.949C387.658 238.153 389.192 237.711 390.762 237.663C392.332 237.615 393.889 237.961 395.296 238.672C396.702 239.383 397.915 240.436 398.827 241.738C400.092 243.566 403.081 241.821 401.805 239.952V239.931Z" fill="#20014B"/>
</g>
</g>
<g style="mix-blend-mode:multiply">
<g style="mix-blend-mode:multiply">
<path d="M500.554 272.148L514.025 258.678C514.221 258.482 514.377 258.25 514.484 257.994C514.59 257.738 514.645 257.463 514.645 257.186V229.688C514.645 229.131 514.423 228.597 514.029 228.202C513.635 227.808 513.1 227.587 512.543 227.587H474.717C474.16 227.587 473.625 227.808 473.231 228.202C472.837 228.597 472.615 229.131 472.615 229.688V270.667C472.615 271.224 472.837 271.759 473.231 272.153C473.625 272.547 474.16 272.768 474.717 272.768H499.062C499.34 272.768 499.614 272.714 499.87 272.607C500.126 272.501 500.359 272.345 500.554 272.148Z" fill="#DDDDDD"/>
</g>
</g>
<g style="mix-blend-mode:multiply">
<g style="mix-blend-mode:multiply">
<path d="M500.985 271.717V260.905C500.985 260.429 501.174 259.972 501.511 259.635C501.848 259.298 502.305 259.108 502.782 259.108H513.594L500.985 271.717Z" fill="#20014B"/>
</g>
</g>
<g style="mix-blend-mode:multiply">
<rect x="483.115" y="238.039" width="34.7308" height="3.23077" rx="1.61538" fill="#DDDDDD"/>
</g>
<g style="mix-blend-mode:multiply">
<rect x="483.115" y="246.114" width="21" height="3.23077" rx="1.61538" fill="#DDDDDD"/>
</g>
<g style="mix-blend-mode:multiply">
<path d="M598.608 256.021C601.422 256.009 604.17 255.164 606.504 253.592C608.838 252.02 610.655 249.792 611.723 247.189C612.792 244.586 613.066 241.724 612.51 238.965C611.954 236.207 610.593 233.674 608.599 231.689C606.605 229.703 604.067 228.352 601.306 227.807C598.545 227.263 595.685 227.548 593.086 228.628C590.487 229.707 588.266 231.533 586.704 233.873C585.142 236.214 584.308 238.965 584.308 241.779C584.308 243.655 584.678 245.511 585.398 247.243C586.117 248.975 587.171 250.547 588.5 251.87C589.828 253.194 591.405 254.241 593.14 254.954C594.875 255.666 596.733 256.029 598.608 256.021Z" fill="#20014B"/>
</g>
<g style="mix-blend-mode:multiply">
<g style="mix-blend-mode:multiply">
<path d="M611.584 242.616C616.979 249.176 622.483 255.66 627.87 262.228C628.274 262.712 628.481 263.331 628.45 263.961C628.419 264.591 628.152 265.186 627.702 265.629L622.048 271.2C621.604 271.65 621.006 271.917 620.374 271.947C619.742 271.976 619.122 271.766 618.638 271.359C612.07 265.964 605.578 260.468 599.01 255.082" fill="#DDDDDD"/>
</g>
</g>
<g style="mix-blend-mode:multiply">
<path d="M603.484 240.774L588.681 255.518C588.524 255.674 588.312 255.761 588.09 255.761C587.869 255.761 587.657 255.674 587.5 255.518C587.346 255.361 587.26 255.151 587.26 254.931C587.26 254.712 587.346 254.502 587.5 254.345L602.386 239.517C602.543 239.361 602.756 239.273 602.977 239.273C603.198 239.273 603.41 239.361 603.567 239.517C603.697 239.705 603.76 239.932 603.744 240.16C603.729 240.388 603.637 240.604 603.484 240.774Z" fill="#DDDDDD"/>
</g>
<g style="mix-blend-mode:multiply">
<path d="M595.324 244.041L586.997 252.335C586.925 252.431 586.833 252.51 586.728 252.568C586.622 252.625 586.506 252.659 586.386 252.668C586.266 252.676 586.146 252.659 586.034 252.617C585.921 252.575 585.819 252.509 585.734 252.424C585.65 252.34 585.584 252.237 585.542 252.125C585.5 252.013 585.483 251.892 585.491 251.773C585.5 251.653 585.534 251.537 585.591 251.431C585.649 251.326 585.728 251.234 585.824 251.162L594.151 242.868C594.308 242.715 594.518 242.629 594.738 242.629C594.957 242.629 595.167 242.715 595.324 242.868C595.447 243.039 595.513 243.244 595.513 243.455C595.513 243.665 595.447 243.87 595.324 244.041Z" fill="#DDDDDD"/>
</g>
<g style="mix-blend-mode:multiply">
<g style="mix-blend-mode:multiply">
<path d="M628.104 272.6L622.006 266.627C621.925 266.555 621.861 266.466 621.816 266.367C621.772 266.268 621.75 266.161 621.75 266.053C621.75 265.945 621.772 265.838 621.816 265.739C621.861 265.64 621.925 265.552 622.006 265.479C622.084 265.401 622.176 265.338 622.278 265.296C622.38 265.253 622.49 265.231 622.601 265.231C622.711 265.231 622.821 265.253 622.923 265.296C623.025 265.338 623.117 265.401 623.195 265.479L629.311 271.343C629.39 271.416 629.453 271.504 629.497 271.602C629.54 271.7 629.562 271.806 629.562 271.913C629.562 272.02 629.54 272.126 629.497 272.224C629.453 272.322 629.39 272.41 629.311 272.483C629.157 272.643 628.951 272.743 628.729 272.765C628.508 272.786 628.286 272.728 628.104 272.6Z" fill="#DDDDDD"/>
</g>
</g>
<g style="mix-blend-mode:multiply">
<path d="M739.034 235.654L738.698 235.319C738.105 234.726 737.144 234.726 736.551 235.319L731.87 240C731.277 240.593 731.277 241.555 731.87 242.148L732.205 242.483C732.798 243.076 733.76 243.076 734.353 242.483L739.034 237.802C739.627 237.209 739.627 236.247 739.034 235.654Z" fill="#20014B"/>
</g>
<g style="mix-blend-mode:multiply">
<path d="M709.723 242.475L710.058 242.139C710.651 241.546 710.651 240.585 710.058 239.991L705.378 235.311C704.784 234.718 703.823 234.718 703.23 235.311L702.894 235.646C702.301 236.239 702.301 237.201 702.894 237.794L707.575 242.475C708.168 243.068 709.13 243.068 709.723 242.475Z" fill="#20014B"/>
</g>
<path d="M721.038 272.768C732.19 272.768 741.231 263.728 741.231 252.576C741.231 241.424 732.19 232.384 721.038 232.384C709.887 232.384 700.846 241.424 700.846 252.576C700.846 263.728 709.887 272.768 721.038 272.768Z" fill="#DDDDDD"/>
<g style="mix-blend-mode:multiply">
<path d="M721.039 254.998C722.377 254.998 723.462 253.914 723.462 252.575C723.462 251.237 722.377 250.152 721.039 250.152C719.7 250.152 718.615 251.237 718.615 252.575C718.615 253.914 719.7 254.998 721.039 254.998Z" fill="#20014B"/>
</g>
<g style="mix-blend-mode:multiply">
<path d="M721.038 232.384C717.045 232.384 713.141 233.568 709.82 235.787C706.5 238.006 703.912 241.159 702.383 244.849C700.855 248.538 700.455 252.598 701.234 256.515C702.013 260.432 703.936 264.03 706.76 266.854C709.584 269.678 713.182 271.601 717.099 272.38C721.016 273.16 725.076 272.76 728.766 271.231C732.455 269.703 735.609 267.115 737.828 263.794C740.047 260.474 741.231 256.57 741.231 252.576C741.231 249.924 740.709 247.299 739.694 244.849C738.679 242.399 737.192 240.173 735.317 238.298C733.442 236.423 731.216 234.936 728.766 233.921C726.316 232.906 723.69 232.384 721.038 232.384ZM721.038 269.696C717.653 269.696 714.343 268.692 711.527 266.81C708.712 264.929 706.518 262.256 705.222 259.127C703.926 255.999 703.587 252.557 704.248 249.236C704.908 245.915 706.539 242.865 708.933 240.471C711.327 238.077 714.378 236.446 717.699 235.785C721.02 235.125 724.462 235.464 727.59 236.76C730.718 238.055 733.392 240.25 735.273 243.065C737.154 245.88 738.158 249.19 738.158 252.576C738.158 257.116 736.354 261.471 733.144 264.681C729.933 267.892 725.579 269.696 721.038 269.696Z" fill="#DDDDDD"/>
</g>
<g style="mix-blend-mode:multiply">
<path d="M721.846 243.986C721.846 243.378 721.484 242.885 721.038 242.885C720.592 242.885 720.231 243.378 720.231 243.986V251.476C720.231 252.084 720.592 252.577 721.038 252.577C721.484 252.577 721.846 252.084 721.846 251.476V243.986Z" fill="#20014B"/>
</g>
<g style="mix-blend-mode:multiply">
<path d="M727.5 230.769C728.392 230.769 729.115 230.046 729.115 229.153C729.115 228.261 728.392 227.538 727.5 227.538H714.577C713.685 227.538 712.962 228.261 712.962 229.153C712.962 230.046 713.685 230.769 714.577 230.769H727.5Z" fill="#20014B"/>
</g>
<g style="mix-blend-mode:multiply">
<path d="M708.849 251.769H705.767C705.28 251.769 704.885 252.098 704.885 252.504V252.649C704.885 253.055 705.28 253.384 705.767 253.384H708.849C709.336 253.384 709.731 253.055 709.731 252.649V252.504C709.731 252.098 709.336 251.769 708.849 251.769Z" fill="#DDDDDD"/>
</g>
<g style="mix-blend-mode:multiply">
<path d="M736.31 251.769H733.228C732.741 251.769 732.346 252.098 732.346 252.504V252.649C732.346 253.055 732.741 253.384 733.228 253.384H736.31C736.797 253.384 737.192 253.055 737.192 252.649V252.504C737.192 252.098 736.797 251.769 736.31 251.769Z" fill="#DDDDDD"/>
</g>
<g style="mix-blend-mode:multiply">
<path d="M721.846 240.386V237.304C721.846 236.817 721.517 236.422 721.111 236.422H720.966C720.56 236.422 720.231 236.817 720.231 237.304V240.386C720.231 240.873 720.56 241.268 720.966 241.268H721.111C721.517 241.268 721.846 240.873 721.846 240.386Z" fill="#DDDDDD"/>
</g>
<g style="mix-blend-mode:multiply">
<path d="M721.846 267.849V264.767C721.846 264.28 721.517 263.885 721.111 263.885H720.966C720.56 263.885 720.231 264.28 720.231 264.767V267.849C720.231 268.336 720.56 268.731 720.966 268.731H721.111C721.517 268.731 721.846 268.336 721.846 267.849Z" fill="#DDDDDD"/>
</g>
<rect x="697.615" y="271.153" width="8.88461" height="1.61538" rx="0.807692" fill="#20014B"/>
<rect x="696" y="267.924" width="5.65385" height="1.61538" rx="0.807692" fill="#20014B"/>
</g>
<defs>
<clipPath id="clip0_429_19567">
<rect width="768" height="276" fill="white"/>
</clipPath>
<clipPath id="clip1_429_19567">
<rect width="51.6923" height="51.6923" fill="white" transform="translate(247 49)"/>
</clipPath>
<clipPath id="clip2_429_19567">
<rect width="38.7692" height="38.7692" fill="white" transform="translate(588.539 143.114)"/>
</clipPath>
</defs>
</svg>
