<svg viewBox="0 0 64 64" fill="none" xmlns="http://www.w3.org/2000/svg">
<path d="M9.00007 64H48.0801C48.6105 64 49.1192 63.7893 49.4943 63.4142C49.8694 63.0391 50.0801 62.5304 50.0801 62V14L36.0801 0H9.00007C8.46964 0 7.96093 0.210714 7.58586 0.585786C7.21079 0.960859 7.00007 1.46957 7.00007 2V62C7.00007 62.5304 7.21079 63.0391 7.58586 63.4142C7.96093 63.7893 8.46964 64 9.00007 64Z" fill="#B7CDE1"/>
<g style="mix-blend-mode:multiply">
<path d="M41.5751 25H15.478C15.0653 25.0583 14.6901 25.2411 14.4194 25.5159C14.1486 25.7907 14 26.1395 14 26.5C14 26.8605 14.1486 27.2093 14.4194 27.4841C14.6901 27.7589 15.0653 27.9417 15.478 28H41.5751C41.977 27.9304 42.3386 27.7429 42.5983 27.4694C42.8581 27.196 43 26.8534 43 26.5C43 26.1466 42.8581 25.804 42.5983 25.5306C42.3386 25.2571 41.977 25.0696 41.5751 25V25Z" fill="#B7CDE1"/>
</g>
<g style="mix-blend-mode:multiply">
<path d="M35.275 32H15.725C15.2675 32 14.8287 32.158 14.5052 32.4393C14.1817 32.7206 14 33.1022 14 33.5C14 33.8978 14.1817 34.2794 14.5052 34.5607C14.8287 34.842 15.2675 35 15.725 35H35.275C35.7325 35 36.1713 34.842 36.4948 34.5607C36.8183 34.2794 37 33.8978 37 33.5C37 33.1022 36.8183 32.7206 36.4948 32.4393C36.1713 32.158 35.7325 32 35.275 32Z" fill="#B7CDE1"/>
</g>
<g style="mix-blend-mode:multiply">
<path d="M36.0801 0L50.0801 14H38.0801C37.5496 14 37.0409 13.7893 36.6659 13.4142C36.2908 13.0391 36.0801 12.5304 36.0801 12V0Z" fill="#B7CDE1"/>
</g>
<g style="mix-blend-mode:multiply">
<path d="M38 60C39.3845 60 40.7378 59.5895 41.889 58.8203C43.0401 58.0511 43.9373 56.9579 44.4672 55.6788C44.997 54.3997 45.1356 52.9922 44.8655 51.6344C44.5954 50.2765 43.9287 49.0292 42.9497 48.0503C41.9708 47.0713 40.7235 46.4046 39.3656 46.1345C38.0078 45.8644 36.6003 46.003 35.3212 46.5328C34.0421 47.0627 32.9489 47.9599 32.1797 49.111C31.4105 50.2622 31 51.6155 31 53C31 54.8565 31.7375 56.637 33.0503 57.9498C34.363 59.2625 36.1435 60 38 60V60Z" fill="#36A168"/>
</g>
<path fill-rule="evenodd" clip-rule="evenodd" d="M36.4899 53.6601C36.5571 53.7285 36.6347 53.7859 36.7199 53.8301C36.8098 53.862 36.9044 53.8789 36.9999 53.8801C37.096 53.8848 37.192 53.8675 37.2804 53.8293C37.3688 53.7912 37.4473 53.7333 37.5099 53.6601L40.2399 50.8001C40.2917 50.749 40.3528 50.7082 40.4199 50.6801C40.4861 50.6698 40.5536 50.6698 40.6199 50.6801C40.6896 50.6706 40.7602 50.6706 40.8299 50.6801C40.8925 50.7109 40.9499 50.7514 40.9999 50.8001C41.0531 50.8522 41.0954 50.9145 41.1242 50.9832C41.1531 51.0518 41.168 51.1256 41.168 51.2001C41.168 51.2746 41.1531 51.3484 41.1242 51.417C41.0954 51.4857 41.0531 51.548 40.9999 51.6001L37.3799 55.4001C37.3299 55.4488 37.2725 55.4893 37.2099 55.5201C37.1447 55.5527 37.0728 55.5696 36.9999 55.5696C36.927 55.5696 36.8551 55.5527 36.7899 55.5201C36.7272 55.4893 36.6698 55.4488 36.6199 55.4001L34.9999 53.6601C34.9466 53.61 34.9041 53.5496 34.8748 53.4826C34.8456 53.4155 34.8303 53.3432 34.8299 53.2701C34.829 53.1953 34.8436 53.1211 34.8729 53.0522C34.9021 52.9834 34.9454 52.9214 34.9999 52.8701C35.0498 52.8214 35.1072 52.7809 35.1699 52.7501C35.2391 52.7358 35.3106 52.7358 35.3799 52.7501C35.4457 52.7351 35.5141 52.7351 35.5799 52.7501C35.647 52.7782 35.7081 52.819 35.7599 52.8701L36.4899 53.6601Z" fill="white"/>
<g style="mix-blend-mode:multiply">
<path d="M28 6H14V21H28V6Z" fill="#B7CDE1"/>
</g>
<mask id="mask0_928_6504" style="mask-type:alpha" maskUnits="userSpaceOnUse" x="14" y="6" width="14" height="15">
<g style="mix-blend-mode:multiply">
<g style="mix-blend-mode:multiply">
<path d="M28 6H14V21H28V6Z" fill="#B7CDE1"/>
</g>
</g>
</mask>
<g mask="url(#mask0_928_6504)">
<g style="mix-blend-mode:multiply">
<ellipse cx="21" cy="11" rx="3" ry="3" fill="#B7CDE1"/>
</g>
<g style="mix-blend-mode:multiply">
<path d="M20.791 14.0099C16.436 13.9395 15.7988 17.4466 16.0459 19.5646C16.0755 19.8188 16.2973 20 16.5532 20H25.4021C25.6568 20 25.8779 19.819 25.9152 19.5671C26.6136 14.8478 22.8302 13.8878 20.791 14.0099Z" fill="#B7CDE1"/>
</g>
</g>
</svg>
