<svg width="48" height="48" viewBox="0 0 48 48" fill="none" xmlns="http://www.w3.org/2000/svg">
<path d="M38.4643 44.5028C36.6419 44.5028 34.8604 43.9624 33.3451 42.9499C31.8298 41.9374 30.6488 40.4984 29.9514 38.8147C29.254 37.131 29.0715 35.2783 29.4271 33.4909C29.7826 31.7035 30.6602 30.0617 31.9488 28.773C33.2374 27.4844 34.8793 26.6068 36.6667 26.2513C38.4541 25.8957 40.3068 26.0782 41.9904 26.7756C43.6741 27.473 45.1132 28.654 46.1257 30.1693C47.1382 31.6846 47.6786 33.4661 47.6786 35.2885C47.6786 37.7323 46.7078 40.076 44.9798 41.804C43.2518 43.532 40.9081 44.5028 38.4643 44.5028V44.5028Z" fill="white"/>
<path d="M36.06 48H6.75C6.35218 48 5.97064 47.842 5.68934 47.5607C5.40804 47.2794 5.25 46.8978 5.25 46.5V10.5L15.75 0H36.06C36.4578 0 36.8394 0.158035 37.1207 0.43934C37.402 0.720644 37.56 1.10218 37.56 1.5V46.5C37.56 46.8978 37.402 47.2794 37.1207 47.5607C36.8394 47.842 36.4578 48 36.06 48Z" fill="#B7CDE1"/>
<g style="mix-blend-mode:multiply">
<path d="M15.75 0L5.25 10.5H14.25C14.6478 10.5 15.0294 10.342 15.3107 10.0607C15.592 9.77936 15.75 9.39782 15.75 9V0Z" fill="#B7CDE1"/>
</g>
<g style="mix-blend-mode:multiply">
<path d="M30.4313 18.75H10.8585C10.549 18.7937 10.2676 18.9309 10.0645 19.1369C9.86148 19.343 9.75 19.6046 9.75 19.875C9.75 20.1454 9.86148 20.407 10.0645 20.6131C10.2676 20.8191 10.549 20.9563 10.8585 21H30.4313C30.7328 20.9478 31.0039 20.8072 31.1987 20.6021C31.3935 20.397 31.5 20.1401 31.5 19.875C31.5 19.6099 31.3935 19.353 31.1987 19.1479C31.0039 18.9428 30.7328 18.8022 30.4313 18.75V18.75Z" fill="#B7CDE1"/>
</g>
<g style="mix-blend-mode:multiply">
<path d="M25.7063 24H11.0438C10.7006 24 10.3716 24.1185 10.1289 24.3295C9.88631 24.5405 9.75 24.8266 9.75 25.125C9.75 25.4234 9.88631 25.7095 10.1289 25.9205C10.3716 26.1315 10.7006 26.25 11.0438 26.25H25.7063C26.0494 26.25 26.3784 26.1315 26.6211 25.9205C26.8637 25.7095 27 25.4234 27 25.125C27 24.8266 26.8637 24.5405 26.6211 24.3295C26.3784 24.1185 26.0494 24 25.7063 24Z" fill="#B7CDE1"/>
</g>
<g style="mix-blend-mode:multiply">
<path d="M38.4643 44.5028C36.6419 44.5028 34.8604 43.9624 33.3451 42.9499C31.8298 41.9374 30.6488 40.4984 29.9514 38.8147C29.254 37.131 29.0715 35.2783 29.4271 33.4909C29.7826 31.7035 30.6602 30.0617 31.9488 28.773C33.2374 27.4844 34.8793 26.6068 36.6667 26.2513C38.4541 25.8957 40.3068 26.0782 41.9904 26.7756C43.6741 27.473 45.1132 28.654 46.1257 30.1693C47.1382 31.6846 47.6786 33.4661 47.6786 35.2885C47.6786 37.7323 46.7078 40.076 44.9798 41.804C43.2518 43.532 40.9081 44.5028 38.4643 44.5028V44.5028Z" fill="#36A168"/>
</g>
<path fill-rule="evenodd" clip-rule="evenodd" d="M35.5157 36.3024C35.7567 36.5375 36.08 36.6691 36.4167 36.6691C36.7533 36.6691 37.0767 36.5375 37.3176 36.3024L42.1807 31.4393C42.3591 31.2624 42.6001 31.1631 42.8513 31.1631C43.1025 31.1631 43.3436 31.2624 43.5219 31.4393C43.612 31.5262 43.6837 31.6304 43.7326 31.7456C43.7816 31.8608 43.8068 31.9847 43.8068 32.1099C43.8068 32.2351 43.7816 32.359 43.7326 32.4742C43.6837 32.5894 43.612 32.6936 43.5219 32.7805L37.0924 39.2202C36.9123 39.3978 36.6696 39.4974 36.4167 39.4974C36.1638 39.4974 35.921 39.3978 35.741 39.2202L32.864 36.3331C32.7626 36.2483 32.68 36.1434 32.6214 36.0249C32.5627 35.9064 32.5294 35.7771 32.5235 35.645C32.5176 35.513 32.5393 35.3811 32.5872 35.2579C32.635 35.1347 32.708 35.0228 32.8015 34.9293C32.8949 34.8359 33.0068 34.7629 33.13 34.715C33.2533 34.6672 33.3851 34.6455 33.5171 34.6514C33.6492 34.6573 33.7786 34.6906 33.897 34.7492C34.0155 34.8079 34.1205 34.8905 34.2052 34.9919L35.5157 36.3024Z" fill="white"/>
</svg>
