<svg width="32" height="32" viewBox="0 0 32 32" fill="none" xmlns="http://www.w3.org/2000/svg">
<path d="M29.5 12L16.77 16.24L22.075 19.425L25.26 24.73L29.5 12Z" fill="white"/>
<path d="M15.35 12.5H2.75C2.55109 12.5 2.36032 12.579 2.21967 12.7197C2.07902 12.8603 2 13.0511 2 13.25C2 13.4489 2.07902 13.6397 2.21967 13.7803C2.36032 13.921 2.55109 14 2.75 14H15.35C15.5489 14 15.7397 13.921 15.8803 13.7803C16.021 13.6397 16.1 13.4489 16.1 13.25C16.1 13.0511 16.021 12.8603 15.8803 12.7197C15.7397 12.579 15.5489 12.5 15.35 12.5Z" fill="white"/>
<path d="M10.84 16H2.76001C2.5611 16 2.37033 16.079 2.22968 16.2197C2.08903 16.3603 2.01001 16.5511 2.01001 16.75C2.01001 16.9489 2.08903 17.1397 2.22968 17.2803C2.37033 17.421 2.5611 17.5 2.76001 17.5H10.84C11.0389 17.5 11.2297 17.421 11.3703 17.2803C11.511 17.1397 11.59 16.9489 11.59 16.75C11.59 16.5511 11.511 16.3603 11.3703 16.2197C11.2297 16.079 11.0389 16 10.84 16Z" fill="white"/>
<path d="M24.04 32H4.5C4.23478 32 3.98043 31.8946 3.79289 31.7071C3.60536 31.5196 3.5 31.2652 3.5 31V7L10.5 0H24.04C24.3052 0 24.5596 0.105357 24.7471 0.292893C24.9346 0.48043 25.04 0.734784 25.04 1V31C25.04 31.2652 24.9346 31.5196 24.7471 31.7071C24.5596 31.8946 24.3052 32 24.04 32Z" fill="#B7CDE1"/>
<g style="mix-blend-mode:multiply">
<path d="M10.5 0L3.5 7H9.5C9.76522 7 10.0196 6.89464 10.2071 6.70711C10.3946 6.51957 10.5 6.26522 10.5 6V0Z" fill="#B7CDE1"/>
</g>
<g style="mix-blend-mode:multiply">
<path d="M29.5 12L16.77 16.24L22.075 19.425L25.26 24.73L29.5 12Z" fill="#857EF6"/>
</g>
<g style="mix-blend-mode:multiply">
<path d="M29.5001 12L20.1201 18.255L21.0151 20.485L23.2451 21.38L29.5001 12Z" fill="#857EF6"/>
</g>
<g style="mix-blend-mode:multiply">
<path d="M15.35 12.5H2.75C2.55109 12.5 2.36032 12.579 2.21967 12.7197C2.07902 12.8603 2 13.0511 2 13.25C2 13.4489 2.07902 13.6397 2.21967 13.7803C2.36032 13.921 2.55109 14 2.75 14H15.35C15.5489 14 15.7397 13.921 15.8803 13.7803C16.021 13.6397 16.1 13.4489 16.1 13.25C16.1 13.0511 16.021 12.8603 15.8803 12.7197C15.7397 12.579 15.5489 12.5 15.35 12.5Z" fill="#B7CDE1"/>
</g>
<g style="mix-blend-mode:multiply">
<path d="M10.84 16H2.76001C2.5611 16 2.37033 16.079 2.22968 16.2197C2.08903 16.3603 2.01001 16.5511 2.01001 16.75C2.01001 16.9489 2.08903 17.1397 2.22968 17.2803C2.37033 17.421 2.5611 17.5 2.76001 17.5H10.84C11.0389 17.5 11.2297 17.421 11.3703 17.2803C11.511 17.1397 11.59 16.9489 11.59 16.75C11.59 16.5511 11.511 16.3603 11.3703 16.2197C11.2297 16.079 11.0389 16 10.84 16Z" fill="#B7CDE1"/>
</g>
</svg>
