<svg viewBox="0 0 48 48" fill="none" xmlns="http://www.w3.org/2000/svg">
<path d="M38.4643 44.5028C36.6419 44.5028 34.8604 43.9624 33.3451 42.9499C31.8298 41.9374 30.6488 40.4984 29.9514 38.8147C29.254 37.131 29.0715 35.2783 29.4271 33.4909C29.7826 31.7035 30.6602 30.0617 31.9488 28.773C33.2374 27.4844 34.8793 26.6068 36.6667 26.2513C38.4541 25.8957 40.3068 26.0782 41.9904 26.7756C43.6741 27.473 45.1132 28.654 46.1257 30.1693C47.1382 31.6846 47.6786 33.4661 47.6786 35.2885C47.6786 37.7323 46.7078 40.076 44.9798 41.804C43.2518 43.532 40.9081 44.5028 38.4643 44.5028V44.5028Z" fill="white"/>
<path d="M36.06 48H6.75C6.35218 48 5.97064 47.842 5.68934 47.5607C5.40804 47.2794 5.25 46.8978 5.25 46.5V10.5L15.75 0H36.06C36.4578 0 36.8394 0.158035 37.1207 0.43934C37.402 0.720644 37.56 1.10218 37.56 1.5V46.5C37.56 46.8978 37.402 47.2794 37.1207 47.5607C36.8394 47.842 36.4578 48 36.06 48Z" fill="#B7CDE1"/>
<g style="mix-blend-mode:multiply">
<path d="M15.75 0L5.25 10.5H14.25C14.6478 10.5 15.0294 10.342 15.3107 10.0607C15.592 9.77936 15.75 9.39782 15.75 9V0Z" fill="#B7CDE1"/>
</g>
<g style="mix-blend-mode:multiply">
<path d="M30.4313 18.75H10.8585C10.549 18.7937 10.2676 18.9309 10.0645 19.1369C9.86148 19.343 9.75 19.6046 9.75 19.875C9.75 20.1454 9.86148 20.407 10.0645 20.6131C10.2676 20.8191 10.549 20.9563 10.8585 21H30.4313C30.7328 20.9478 31.0039 20.8072 31.1987 20.6021C31.3935 20.397 31.5 20.1401 31.5 19.875C31.5 19.6099 31.3935 19.353 31.1987 19.1479C31.0039 18.9428 30.7328 18.8022 30.4313 18.75V18.75Z" fill="#B7CDE1"/>
</g>
<g style="mix-blend-mode:multiply">
<path d="M25.7063 24H11.0438C10.7006 24 10.3716 24.1185 10.1289 24.3295C9.88631 24.5405 9.75 24.8266 9.75 25.125C9.75 25.4234 9.88631 25.7095 10.1289 25.9205C10.3716 26.1315 10.7006 26.25 11.0438 26.25H25.7063C26.0494 26.25 26.3784 26.1315 26.6211 25.9205C26.8637 25.7095 27 25.4234 27 25.125C27 24.8266 26.8637 24.5405 26.6211 24.3295C26.3784 24.1185 26.0494 24 25.7063 24Z" fill="#B7CDE1"/>
</g>
<g style="mix-blend-mode:multiply">
<path d="M38.4643 44.5028C36.6419 44.5028 34.8604 43.9624 33.3451 42.9499C31.8298 41.9374 30.6488 40.4984 29.9514 38.8147C29.254 37.131 29.0715 35.2783 29.4271 33.4909C29.7826 31.7035 30.6602 30.0617 31.9488 28.773C33.2374 27.4844 34.8793 26.6068 36.6667 26.2513C38.4541 25.8957 40.3068 26.0782 41.9904 26.7756C43.6741 27.473 45.1132 28.654 46.1257 30.1693C47.1382 31.6846 47.6786 33.4661 47.6786 35.2885C47.6786 37.7323 46.7078 40.076 44.9798 41.804C43.2518 43.532 40.9081 44.5028 38.4643 44.5028V44.5028Z" fill="#36A168"/>
</g>
<path fill-rule="evenodd" clip-rule="evenodd" d="M35.5156 36.302C35.7565 36.5372 36.0799 36.6688 36.4165 36.6688C36.7532 36.6688 37.0765 36.5372 37.3175 36.302L42.1806 31.4389C42.3589 31.262 42.6 31.1627 42.8512 31.1627C43.1024 31.1627 43.3434 31.262 43.5218 31.4389C43.6119 31.5258 43.6836 31.63 43.7325 31.7452C43.7815 31.8604 43.8067 31.9843 43.8067 32.1095C43.8067 32.2347 43.7815 32.3586 43.7325 32.4738C43.6836 32.589 43.6119 32.6932 43.5218 32.7801L37.0923 39.2199C36.9122 39.3975 36.6694 39.497 36.4165 39.497C36.1636 39.497 35.9209 39.3975 35.7408 39.2199L32.8639 36.3327C32.7625 36.248 32.6799 36.143 32.6212 36.0245C32.5626 35.9061 32.5293 35.7767 32.5234 35.6446C32.5175 35.5126 32.5392 35.3808 32.587 35.2575C32.6349 35.1343 32.7079 35.0224 32.8013 34.929C32.8948 34.8355 33.0067 34.7625 33.1299 34.7147C33.2531 34.6668 33.385 34.6451 33.517 34.651C33.6491 34.6569 33.7784 34.6902 33.8969 34.7489C34.0154 34.8075 34.1203 34.8901 34.2051 34.9916L35.5156 36.302Z" fill="white"/>
</svg>
