<svg viewBox="0 0 32 32" fill="none" xmlns="http://www.w3.org/2000/svg">
<path d="M1 4H31C31.2652 4 31.5196 4.12334 31.7071 4.3429C31.8946 4.56245 32 4.86023 32 5.17073V26.8293C32 27.1397 31.8946 27.4375 31.7071 27.6571C31.5196 27.8766 31.2652 28 31 28H1C0.734784 28 0.48043 27.8766 0.292893 27.6571C0.105357 27.4375 0 27.1397 0 26.8293V5.17073C0 4.86023 0.105357 4.56245 0.292893 4.3429C0.48043 4.12334 0.734784 4 1 4V4Z" fill="#B7CDE1"/>
<g style="mix-blend-mode:multiply">
<path d="M31.24 4.00002H0.809998C0.752548 4.00167 0.696866 4.02361 0.650259 4.06297C0.603651 4.10232 0.568295 4.15726 0.54883 4.22056C0.529364 4.28386 0.5267 4.35257 0.541185 4.41768C0.55567 4.48278 0.586629 4.54124 0.629998 4.58538C3.42 7.20782 14.06 17.5981 16 17.5981C17.94 17.5981 28.87 7.19026 31.43 4.58538C31.474 4.54058 31.5052 4.48106 31.5194 4.41486C31.5336 4.34865 31.5301 4.27894 31.5093 4.21514C31.4886 4.15133 31.4517 4.0965 31.4035 4.05803C31.3554 4.01956 31.2983 3.99931 31.24 4.00002Z" fill="#42CACD"/>
</g>
</svg>
