<?xml version="1.0" encoding="UTF-8"?><svg id="Layer_1" xmlns="http://www.w3.org/2000/svg" viewBox="0 0 129.99 160.62"><defs><style>.cls-1{fill:#e7bb9a;}.cls-2{fill:#eec8ab;}.cls-3{fill:#cc9d7b;}.cls-4{fill:#deb18d;}.cls-5{fill:#d5a17c;}.cls-6{fill:none;stroke:#bb8b66;stroke-miterlimit:10;stroke-width:.25px;}</style></defs><polygon class="cls-1" points="67.31 143.55 59.36 138.96 67.31 134.38 75.25 138.96 67.31 143.55"/><polygon class="cls-4" points="67.31 143.55 59.36 138.96 59.36 148.14 67.31 152.72 67.31 143.55"/><polygon class="cls-2" points="67.31 143.55 75.25 138.96 75.25 148.14 67.31 152.72 67.31 143.55"/><polygon class="cls-1" points="53.09 151.76 45.15 147.17 53.09 142.59 61.03 147.17 53.09 151.76"/><polygon class="cls-4" points="53.09 151.76 45.15 147.17 45.15 156.34 53.09 160.93 53.09 151.76"/><polygon class="cls-2" points="53.09 151.76 61.03 147.17 61.03 156.34 53.09 160.93 53.09 151.76"/><polygon class="cls-4" points="129.99 37.52 64.99 0 0 37.52 64.99 75.05 129.99 37.52"/><polygon class="cls-3" points="43.78 127.77 19.72 113.88 19.72 141.66 43.78 127.77"/><polygon class="cls-5" points="19.72 141.66 0 130.28 0 37.52 64.99 75.05 64.99 140.02 19.72 113.88 19.72 141.66"/><polygon class="cls-2" points="64.99 75.05 129.99 37.52 129.99 102.49 64.99 140.02 64.99 75.05"/><line class="cls-6" x1="0" y1="53.39" x2="64.99" y2="90.92"/><line class="cls-6" y1="73.18" x2="64.99" y2="110.71"/><line class="cls-6" x1="0" y1="92.77" x2="64.99" y2="130.29"/><line class="cls-6" x1="129.99" y1="53.39" x2="64.99" y2="90.92"/><line class="cls-6" x1="129.99" y1="73.18" x2="64.99" y2="110.71"/><line class="cls-6" x1="129.99" y1="92.77" x2="64.99" y2="130.29"/><line class="cls-6" x1="0" y1="116.77" x2="19.72" y2="128.16"/></svg>