<svg viewBox="0 0 221 151" fill="none" xmlns="http://www.w3.org/2000/svg">
<g clip-path="url(#clip0_859_12191)">
<path d="M360 135.654H48L32.5 122H-122" stroke="#FE90A0" stroke-width="0.692308"/>
<path d="M404 82.654H92L76.5 69H-78" stroke="#FE90A0" stroke-width="0.692308"/>
<circle cx="184.5" cy="135.5" r="5.15385" fill="#FE90A0" stroke="#FE90A0" stroke-width="0.692308"/>
<path d="M506 38.654H194L178.5 25H0" stroke="#FE90A0" stroke-width="0.692308"/>
<circle cx="32.5" cy="24.5" r="5.15385" fill="#FE90A0" stroke="#FE90A0" stroke-width="0.692308"/>
<g clip-path="url(#clip1_859_12191)">
<path d="M140.469 57.1875H64.5312C63.1333 57.1875 62 58.3208 62 59.7188V115.406C62 116.804 63.1333 117.938 64.5312 117.938H140.469C141.867 117.938 143 116.804 143 115.406V59.7188C143 58.3208 141.867 57.1875 140.469 57.1875Z" fill="#B7CDE1"/>
<path opacity="0.5" d="M136.672 68.5781H68.3281C67.6291 68.5781 67.0625 69.129 67.0625 69.8086V111.645C67.0625 112.324 67.6291 112.875 68.3281 112.875H136.672C137.371 112.875 137.938 112.324 137.938 111.645V69.8086C137.938 69.129 137.371 68.5781 136.672 68.5781Z" fill="white"/>
<g style="mix-blend-mode:multiply">
<path d="M68.9609 64.7812C70.0094 64.7812 70.8594 63.9313 70.8594 62.8828C70.8594 61.8343 70.0094 60.9844 68.9609 60.9844C67.9125 60.9844 67.0625 61.8343 67.0625 62.8828C67.0625 63.9313 67.9125 64.7812 68.9609 64.7812Z" fill="#B7CDE1"/>
</g>
<g style="mix-blend-mode:multiply">
<path d="M75.2891 64.7812C76.3375 64.7812 77.1875 63.9313 77.1875 62.8828C77.1875 61.8343 76.3375 60.9844 75.2891 60.9844C74.2406 60.9844 73.3906 61.8343 73.3906 62.8828C73.3906 63.9313 74.2406 64.7812 75.2891 64.7812Z" fill="#B7CDE1"/>
</g>
<g style="mix-blend-mode:multiply">
<path d="M81.6172 64.7812C82.6657 64.7812 83.5156 63.9313 83.5156 62.8828C83.5156 61.8343 82.6657 60.9844 81.6172 60.9844C80.5687 60.9844 79.7187 61.8343 79.7187 62.8828C79.7187 63.9313 80.5687 64.7812 81.6172 64.7812Z" fill="#B7CDE1"/>
</g>
<path d="M73.3906 82.5H101.234C101.57 82.5 101.892 82.6333 102.129 82.8707C102.367 83.108 102.5 83.43 102.5 83.7656V112.875H72.125V83.7656C72.125 83.43 72.2584 83.108 72.4957 82.8707C72.7331 82.6333 73.055 82.5 73.3906 82.5V82.5Z" fill="#42CACD"/>
<path d="M101.234 74.9062H73.3906C72.6917 74.9062 72.125 75.4729 72.125 76.1719V78.7031C72.125 79.4021 72.6917 79.9687 73.3906 79.9687H101.234C101.933 79.9687 102.5 79.4021 102.5 78.7031V76.1719C102.5 75.4729 101.933 74.9062 101.234 74.9062Z" fill="#FE90A0"/>
</g>
<path d="M156.742 40H131.394C129.994 40 128.859 41.1349 128.859 42.5348V88.1612C128.859 89.5611 129.994 90.696 131.394 90.696H156.742C158.142 90.696 159.277 89.5611 159.277 88.1612V42.5348C159.277 41.1349 158.142 40 156.742 40Z" fill="#B7CDE1"/>
<path opacity="0.5" d="M155.475 42.5349H132.662C131.962 42.5349 131.394 43.0852 131.394 43.7639V81.8627C131.394 82.5415 131.962 83.0917 132.662 83.0917H155.475C156.175 83.0917 156.742 82.5415 156.742 81.8627V43.7639C156.742 43.0852 156.175 42.5349 155.475 42.5349Z" fill="white"/>
<path d="M135.196 62.8132H142.801C143.137 62.8132 143.459 62.9468 143.697 63.1844C143.935 63.4221 144.068 63.7445 144.068 64.0806V83.0916H133.929V64.0806C133.929 63.7445 134.063 63.4221 134.3 63.1844C134.538 62.9468 134.86 62.8132 135.196 62.8132Z" fill="#42CACD"/>
<path d="M143.434 59.011H134.563C134.213 59.011 133.929 59.2947 133.929 59.6447V60.9121C133.929 61.2621 134.213 61.5458 134.563 61.5458H143.434C143.784 61.5458 144.068 61.2621 144.068 60.9121V59.6447C144.068 59.2947 143.784 59.011 143.434 59.011Z" fill="#FE90A0"/>
<g style="mix-blend-mode:multiply">
<path d="M145.336 85.6262H142.801C142.101 85.6262 141.533 86.1937 141.533 86.8936C141.533 87.5936 142.101 88.161 142.801 88.161H145.336C146.036 88.161 146.603 87.5936 146.603 86.8936C146.603 86.1937 146.036 85.6262 145.336 85.6262Z" fill="#B7CDE1"/>
</g>
</g>
<defs>
<clipPath id="clip0_859_12191">
<path d="M0 20C0 8.95431 8.95431 0 20 0H201C212.046 0 221 8.9543 221 20V151H0V20Z" fill="white"/>
</clipPath>
<clipPath id="clip1_859_12191">
<rect width="81" height="81" fill="white" transform="translate(62 42)"/>
</clipPath>
</defs>
</svg>
