<svg width="221" height="151" viewBox="0 0 221 151" fill="none" xmlns="http://www.w3.org/2000/svg">
<g clip-path="url(#clip0_859_12191)">
<path d="M0 20C0 8.95431 8.95431 0 20 0H201C212.046 0 221 8.9543 221 20V151H0V20Z" fill="#D7F3F4"/>
<path d="M360 129.654H48L32.5 116H-122" stroke="#41C9CD" stroke-width="0.692308"/>
<path d="M404 80.654H92L76.5 67H-78" stroke="#41C9CD" stroke-width="0.692308"/>
<circle cx="129.5" cy="130.5" r="4.5" fill="#41C9CD"/>
<path d="M506 34.654H194L178.5 21H0" stroke="#41C9CD" stroke-width="0.692308"/>
<circle cx="53.5" cy="20.5" r="4.5" fill="#41C9CD"/>
<g clip-path="url(#clip1_859_12191)">
<path d="M146.469 50.1875H70.5312C69.1333 50.1875 68 51.3208 68 52.7188V108.406C68 109.804 69.1333 110.938 70.5312 110.938H146.469C147.867 110.938 149 109.804 149 108.406V52.7188C149 51.3208 147.867 50.1875 146.469 50.1875Z" fill="#B7CDE1"/>
<path opacity="0.5" d="M142.672 61.5781H74.3281C73.6291 61.5781 73.0625 62.129 73.0625 62.8086V104.645C73.0625 105.324 73.6291 105.875 74.3281 105.875H142.672C143.371 105.875 143.938 105.324 143.938 104.645V62.8086C143.938 62.129 143.371 61.5781 142.672 61.5781Z" fill="white"/>
<g style="mix-blend-mode:multiply">
<path d="M74.9609 57.7812C76.0094 57.7812 76.8594 56.9313 76.8594 55.8828C76.8594 54.8343 76.0094 53.9844 74.9609 53.9844C73.9125 53.9844 73.0625 54.8343 73.0625 55.8828C73.0625 56.9313 73.9125 57.7812 74.9609 57.7812Z" fill="#B7CDE1"/>
</g>
<g style="mix-blend-mode:multiply">
<path d="M81.2891 57.7812C82.3375 57.7812 83.1875 56.9313 83.1875 55.8828C83.1875 54.8343 82.3375 53.9844 81.2891 53.9844C80.2406 53.9844 79.3906 54.8343 79.3906 55.8828C79.3906 56.9313 80.2406 57.7812 81.2891 57.7812Z" fill="#B7CDE1"/>
</g>
<g style="mix-blend-mode:multiply">
<path d="M87.6172 57.7812C88.6657 57.7812 89.5156 56.9313 89.5156 55.8828C89.5156 54.8343 88.6657 53.9844 87.6172 53.9844C86.5687 53.9844 85.7187 54.8343 85.7187 55.8828C85.7187 56.9313 86.5687 57.7812 87.6172 57.7812Z" fill="#B7CDE1"/>
</g>
<path d="M79.3906 75.5H107.234C107.57 75.5 107.892 75.6333 108.129 75.8707C108.367 76.108 108.5 76.43 108.5 76.7656V105.875H78.125V76.7656C78.125 76.43 78.2584 76.108 78.4957 75.8707C78.7331 75.6333 79.055 75.5 79.3906 75.5V75.5Z" fill="#42CACD"/>
<path d="M107.234 67.9062H79.3906C78.6917 67.9062 78.125 68.4729 78.125 69.1719V71.7031C78.125 72.4021 78.6917 72.9687 79.3906 72.9687H107.234C107.933 72.9687 108.5 72.4021 108.5 71.7031V69.1719C108.5 68.4729 107.933 67.9062 107.234 67.9062Z" fill="#FE90A0"/>
</g>
<path d="M162.742 33H137.394C135.994 33 134.859 34.1349 134.859 35.5348V81.1612C134.859 82.5611 135.994 83.696 137.394 83.696H162.742C164.142 83.696 165.277 82.5611 165.277 81.1612V35.5348C165.277 34.1349 164.142 33 162.742 33Z" fill="#B7CDE1"/>
<path opacity="0.5" d="M161.475 35.5349H138.662C137.962 35.5349 137.394 36.0852 137.394 36.7639V74.8627C137.394 75.5415 137.962 76.0917 138.662 76.0917H161.475C162.175 76.0917 162.742 75.5415 162.742 74.8627V36.7639C162.742 36.0852 162.175 35.5349 161.475 35.5349Z" fill="white"/>
<path d="M141.196 55.8132H148.801C149.137 55.8132 149.459 55.9468 149.697 56.1844C149.935 56.4221 150.068 56.7445 150.068 57.0806V76.0916H139.929V57.0806C139.929 56.7445 140.063 56.4221 140.3 56.1844C140.538 55.9468 140.86 55.8132 141.196 55.8132Z" fill="#42CACD"/>
<path d="M149.434 52.011H140.563C140.213 52.011 139.929 52.2947 139.929 52.6447V53.9121C139.929 54.2621 140.213 54.5458 140.563 54.5458H149.434C149.784 54.5458 150.068 54.2621 150.068 53.9121V52.6447C150.068 52.2947 149.784 52.011 149.434 52.011Z" fill="#FE90A0"/>
<g style="mix-blend-mode:multiply">
<path d="M151.336 78.6262H148.801C148.101 78.6262 147.533 79.1937 147.533 79.8936C147.533 80.5936 148.101 81.161 148.801 81.161H151.336C152.036 81.161 152.603 80.5936 152.603 79.8936C152.603 79.1937 152.036 78.6262 151.336 78.6262Z" fill="#B7CDE1"/>
</g>
</g>
<defs>
<clipPath id="clip0_859_12191">
<path d="M0 20C0 8.95431 8.95431 0 20 0H201C212.046 0 221 8.9543 221 20V151H0V20Z" fill="white"/>
</clipPath>
<clipPath id="clip1_859_12191">
<rect width="81" height="81" fill="white" transform="translate(68 35)"/>
</clipPath>
</defs>
</svg>
