<svg width="221" height="151" viewBox="0 0 221 151" fill="none" xmlns="http://www.w3.org/2000/svg">
<g clip-path="url(#clip0_859_12191)">
<path d="M360 129.654H48L32.5 116H-122" stroke="#FE90A0" stroke-width="0.692308"/>
<path d="M404 80.654H92L76.5 67H-78" stroke="#FE90A0" stroke-width="0.692308"/>
<circle cx="169.5" cy="130.5" r="4.15385" fill="#FE90A0" stroke="#FE90A0" stroke-width="0.692308"/>
<path d="M506 34.654H194L178.5 21H0" stroke="#FE90A0" stroke-width="0.692308"/>
<circle cx="31.5" cy="20.5" r="4.15385" fill="#FE90A0" stroke="#FE90A0" stroke-width="0.692308"/>
<g clip-path="url(#clip1_859_12191)">
<path d="M131.469 50.1875H55.5312C54.1333 50.1875 53 51.3208 53 52.7188V108.406C53 109.804 54.1333 110.938 55.5312 110.938H131.469C132.867 110.938 134 109.804 134 108.406V52.7188C134 51.3208 132.867 50.1875 131.469 50.1875Z" fill="#B7CDE1"/>
<path opacity="0.5" d="M127.672 61.5781H59.3281C58.6291 61.5781 58.0625 62.129 58.0625 62.8086V104.645C58.0625 105.324 58.6291 105.875 59.3281 105.875H127.672C128.371 105.875 128.938 105.324 128.938 104.645V62.8086C128.938 62.129 128.371 61.5781 127.672 61.5781Z" fill="white"/>
<g style="mix-blend-mode:multiply">
<path d="M59.9609 57.7812C61.0094 57.7812 61.8594 56.9313 61.8594 55.8828C61.8594 54.8343 61.0094 53.9844 59.9609 53.9844C58.9125 53.9844 58.0625 54.8343 58.0625 55.8828C58.0625 56.9313 58.9125 57.7812 59.9609 57.7812Z" fill="#B7CDE1"/>
</g>
<g style="mix-blend-mode:multiply">
<path d="M66.2891 57.7812C67.3375 57.7812 68.1875 56.9313 68.1875 55.8828C68.1875 54.8343 67.3375 53.9844 66.2891 53.9844C65.2406 53.9844 64.3906 54.8343 64.3906 55.8828C64.3906 56.9313 65.2406 57.7812 66.2891 57.7812Z" fill="#B7CDE1"/>
</g>
<g style="mix-blend-mode:multiply">
<path d="M72.6172 57.7812C73.6657 57.7812 74.5156 56.9313 74.5156 55.8828C74.5156 54.8343 73.6657 53.9844 72.6172 53.9844C71.5687 53.9844 70.7187 54.8343 70.7187 55.8828C70.7187 56.9313 71.5687 57.7812 72.6172 57.7812Z" fill="#B7CDE1"/>
</g>
<path d="M64.3906 75.5H92.2344C92.5701 75.5 92.892 75.6333 93.1293 75.8707C93.3667 76.108 93.5 76.43 93.5 76.7656V105.875H63.125V76.7656C63.125 76.43 63.2584 76.108 63.4957 75.8707C63.7331 75.6333 64.055 75.5 64.3906 75.5V75.5Z" fill="#42CACD"/>
<path d="M92.2344 67.9062H64.3906C63.6917 67.9062 63.125 68.4729 63.125 69.1719V71.7031C63.125 72.4021 63.6917 72.9687 64.3906 72.9687H92.2344C92.9334 72.9687 93.5 72.4021 93.5 71.7031V69.1719C93.5 68.4729 92.9334 67.9062 92.2344 67.9062Z" fill="#FE90A0"/>
</g>
<path d="M147.742 33H122.394C120.994 33 119.859 34.1349 119.859 35.5348V81.1612C119.859 82.5611 120.994 83.696 122.394 83.696H147.742C149.142 83.696 150.277 82.5611 150.277 81.1612V35.5348C150.277 34.1349 149.142 33 147.742 33Z" fill="#B7CDE1"/>
<path opacity="0.5" d="M146.475 35.5349H123.662C122.962 35.5349 122.394 36.0852 122.394 36.7639V74.8627C122.394 75.5415 122.962 76.0917 123.662 76.0917H146.475C147.175 76.0917 147.742 75.5415 147.742 74.8627V36.7639C147.742 36.0852 147.175 35.5349 146.475 35.5349Z" fill="white"/>
<path d="M126.196 55.8132H133.801C134.137 55.8132 134.459 55.9468 134.697 56.1844C134.935 56.4221 135.068 56.7445 135.068 57.0806V76.0916H124.929V57.0806C124.929 56.7445 125.063 56.4221 125.3 56.1844C125.538 55.9468 125.86 55.8132 126.196 55.8132Z" fill="#42CACD"/>
<path d="M134.434 52.011H125.563C125.213 52.011 124.929 52.2947 124.929 52.6447V53.9121C124.929 54.2621 125.213 54.5458 125.563 54.5458H134.434C134.784 54.5458 135.068 54.2621 135.068 53.9121V52.6447C135.068 52.2947 134.784 52.011 134.434 52.011Z" fill="#FE90A0"/>
<g style="mix-blend-mode:multiply">
<path d="M136.336 78.6262H133.801C133.101 78.6262 132.533 79.1937 132.533 79.8936C132.533 80.5936 133.101 81.161 133.801 81.161H136.336C137.036 81.161 137.603 80.5936 137.603 79.8936C137.603 79.1937 137.036 78.6262 136.336 78.6262Z" fill="#B7CDE1"/>
</g>
</g>
<defs>
<clipPath id="clip0_859_12191">
<path d="M0 20C0 8.95431 8.95431 0 20 0H201C212.046 0 221 8.9543 221 20V151H0V20Z" fill="white"/>
</clipPath>
<clipPath id="clip1_859_12191">
<rect width="81" height="81" fill="white" transform="translate(53 35)"/>
</clipPath>
</defs>
</svg>
