<svg viewBox="0 0 200 139" fill="none" xmlns="http://www.w3.org/2000/svg">
<g clip-path="url(#clip0_859_12191)">
<path d="M325.792 123.112H43.4389L29.4118 110.756H-110.407" stroke="#FE90A0" stroke-width="0.626523"/>
<path d="M365.611 75.1486H83.2579L69.2308 62.792H-70.5882" stroke="#FE90A0" stroke-width="0.626523"/>
<circle cx="166.968" cy="122.973" r="4.66411" fill="#FE90A0" stroke="#FE90A0" stroke-width="0.626523"/>
<path d="M457.919 35.3295H175.566L161.538 22.9729H-6.31809e-06" stroke="#FE90A0" stroke-width="0.626523"/>
<circle cx="29.4118" cy="22.5206" r="4.66411" fill="#FE90A0" stroke="#FE90A0" stroke-width="0.626523"/>
<g clip-path="url(#clip1_859_12191)">
<path d="M127.121 52.1018H58.3993C57.1342 52.1018 56.1086 53.1274 56.1086 54.3925V104.788C56.1086 106.054 57.1342 107.079 58.3993 107.079H127.121C128.386 107.079 129.412 106.054 129.412 104.788V54.3925C129.412 53.1274 128.386 52.1018 127.121 52.1018Z" fill="#B7CDE1"/>
<path opacity="0.5" d="M123.685 62.4102H61.8354C61.2028 62.4102 60.69 62.9087 60.69 63.5237V101.384C60.69 101.999 61.2028 102.498 61.8354 102.498H123.685C124.318 102.498 124.83 101.999 124.83 101.384V63.5237C124.83 62.9087 124.318 62.4102 123.685 62.4102Z" fill="white"/>
<g style="mix-blend-mode:multiply">
<path d="M62.4081 58.9742C63.3569 58.9742 64.1261 58.205 64.1261 57.2561C64.1261 56.3073 63.3569 55.5381 62.4081 55.5381C61.4592 55.5381 60.69 56.3073 60.69 57.2561C60.69 58.205 61.4592 58.9742 62.4081 58.9742Z" fill="#B7CDE1"/>
</g>
<g style="mix-blend-mode:multiply">
<path d="M68.1349 58.9742C69.0838 58.9742 69.853 58.205 69.853 57.2561C69.853 56.3073 69.0838 55.5381 68.1349 55.5381C67.1861 55.5381 66.4169 56.3073 66.4169 57.2561C66.4169 58.205 67.1861 58.9742 68.1349 58.9742Z" fill="#B7CDE1"/>
</g>
<g style="mix-blend-mode:multiply">
<path d="M73.8617 58.9742C74.8105 58.9742 75.5797 58.205 75.5797 57.2561C75.5797 56.3073 74.8105 55.5381 73.8617 55.5381C72.9128 55.5381 72.1436 56.3073 72.1436 57.2561C72.1436 58.205 72.9128 58.9742 73.8617 58.9742Z" fill="#B7CDE1"/>
</g>
<path d="M66.4168 75.0093H91.6148C91.9186 75.0093 92.2099 75.1299 92.4247 75.3447C92.6395 75.5595 92.7602 75.8509 92.7602 76.1546V102.498H65.2715V76.1546C65.2715 75.8509 65.3922 75.5595 65.607 75.3447C65.8218 75.1299 66.1131 75.0093 66.4168 75.0093V75.0093Z" fill="#42CACD"/>
<path d="M91.6148 68.137H66.4168C65.7843 68.137 65.2715 68.6498 65.2715 69.2823V71.573C65.2715 72.2056 65.7843 72.7184 66.4168 72.7184H91.6148C92.2474 72.7184 92.7602 72.2056 92.7602 71.573V69.2823C92.7602 68.6498 92.2474 68.137 91.6148 68.137Z" fill="#FE90A0"/>
</g>
<path d="M141.848 36.5476H118.909C117.642 36.5476 116.615 37.5746 116.615 38.8415V80.1324C116.615 81.3993 117.642 82.4264 118.909 82.4264H141.848C143.115 82.4264 144.142 81.3993 144.142 80.1324V38.8415C144.142 37.5746 143.115 36.5476 141.848 36.5476Z" fill="#B7CDE1"/>
<path opacity="0.5" d="M140.701 38.8416H120.056C119.422 38.8416 118.909 39.3395 118.909 39.9538V74.4323C118.909 75.0466 119.422 75.5446 120.056 75.5446H140.701C141.335 75.5446 141.848 75.0466 141.848 74.4323V39.9538C141.848 39.3395 141.335 38.8416 140.701 38.8416Z" fill="white"/>
<path d="M122.35 57.1931H129.231C129.536 57.1931 129.827 57.314 130.043 57.5291C130.258 57.7442 130.378 58.0359 130.378 58.3401V75.5446H121.203V58.3401C121.203 58.0359 121.324 57.7442 121.539 57.5291C121.754 57.314 122.045 57.1931 122.35 57.1931Z" fill="#42CACD"/>
<path d="M129.805 53.7522H121.776C121.459 53.7522 121.203 54.009 121.203 54.3257V55.4727C121.203 55.7894 121.459 56.0461 121.776 56.0461H129.805C130.122 56.0461 130.378 55.7894 130.378 55.4727V54.3257C130.378 54.009 130.122 53.7522 129.805 53.7522Z" fill="#FE90A0"/>
<g style="mix-blend-mode:multiply">
<path d="M131.525 77.8384H129.231C128.598 77.8384 128.085 78.3519 128.085 78.9853C128.085 79.6188 128.598 80.1323 129.231 80.1323H131.525C132.159 80.1323 132.672 79.6188 132.672 78.9853C132.672 78.3519 132.159 77.8384 131.525 77.8384Z" fill="#B7CDE1"/>
</g>
</g>
<defs>
<clipPath id="clip0_859_12191">
<path d="M0 18.2739C0 8.27776 8.10344 0.174316 18.0995 0.174316H181.9C191.897 0.174316 200 8.27776 200 18.2739V138.174H0V18.2739Z" fill="white"/>
</clipPath>
<clipPath id="clip1_859_12191">
<rect width="73.3032" height="73.3032" fill="white" transform="translate(56.1086 38.3577)"/>
</clipPath>
</defs>
</svg>
