<svg viewBox="0 0 32 32" fill="none" xmlns="http://www.w3.org/2000/svg">
<path d="M16.0942 21.6654C16.1252 21.3905 16.0948 21.1122 16.005 20.8506C15.912 20.5881 15.7595 20.3507 15.5595 20.1568C15.1016 19.8455 14.5523 19.6975 14 19.7367V18.2154C14.557 18.2547 15.1105 18.0995 15.5658 17.7762C15.7552 17.5921 15.901 17.3679 15.9924 17.12C16.0838 16.8722 16.1186 16.6071 16.0942 16.3441V14.4345C16.0508 13.7839 16.2632 13.1421 16.6861 12.6459C16.9132 12.4121 17.1893 12.2317 17.4945 12.1176C17.8044 12.0177 18.1313 11.9809 18.4557 12.0093H20.6389V13.6579H19.4995C19.2542 13.6514 19.0089 13.6706 18.7675 13.7152C18.5919 13.7452 18.4285 13.8247 18.2965 13.9444C18.1687 14.0664 18.0801 14.2237 18.0419 14.3963C17.989 14.6516 17.9676 14.9124 17.9783 15.1729V16.8978C17.9997 17.1657 17.9627 17.4349 17.8701 17.6871C17.7846 17.9469 17.6384 18.1826 17.4436 18.3746C17.0468 18.7063 16.5533 18.9006 16.0369 18.9283V19.0747C16.5567 19.0943 17.0527 19.2973 17.4372 19.6476C17.6161 19.8314 17.7586 20.0474 17.8573 20.2841C17.9515 20.5383 17.9927 20.8091 17.9783 21.0798V22.8302C17.9708 23.0853 17.9986 23.3402 18.061 23.5877C18.0927 23.763 18.1797 23.9237 18.3093 24.046C18.4425 24.1663 18.6088 24.2439 18.7866 24.2688C19.0303 24.3123 19.2775 24.3336 19.525 24.3324H20.6326V25.9492H18.4557C18.1405 25.9678 17.8248 25.9245 17.5263 25.8219C17.2279 25.7287 16.951 25.5773 16.7116 25.3763C16.4877 25.1327 16.3184 24.844 16.2151 24.5297C16.1083 24.2169 16.0671 23.8853 16.0942 23.5558V21.6654Z" fill="white"/>
<path d="M27.8316 23.5236C27.8554 23.8525 27.8112 24.1827 27.7017 24.4937C27.5922 24.8048 27.4197 25.0899 27.1951 25.3313C26.9603 25.5429 26.6854 25.7053 26.3867 25.8087C26.0882 25.9114 25.7725 25.9546 25.4574 25.936H23.2805V24.3001H24.4135C24.6611 24.3014 24.9082 24.28 25.1519 24.2365C25.3297 24.2116 25.496 24.134 25.6293 24.0137C25.7585 23.8902 25.8473 23.7304 25.8839 23.5554C25.9301 23.3165 25.9472 23.0728 25.9348 22.8298V21.0984C25.9163 20.8252 25.9548 20.5511 26.0479 20.2936C26.1411 20.0361 26.2868 19.8007 26.4759 19.6026C26.8706 19.2403 27.385 19.0364 27.9208 19.0297V18.8833C27.4061 18.8565 26.9143 18.662 26.5204 18.3296C26.3266 18.1516 26.1725 17.9347 26.0685 17.693C25.9672 17.445 25.9216 17.1777 25.9348 16.9101V15.1915C25.9436 14.9381 25.9136 14.6848 25.8457 14.4404C25.8091 14.2654 25.7203 14.1056 25.5911 13.9821C25.4583 13.8636 25.2953 13.7843 25.1201 13.753C24.8826 13.7115 24.6418 13.6923 24.4008 13.6957H23.2805V12.0089H25.4574C25.7821 11.9851 26.108 12.0329 26.4122 12.1489C26.7159 12.263 26.9916 12.441 27.2206 12.6709C27.6397 13.1643 27.8518 13.8006 27.8126 14.4468V16.3563C27.7889 16.6195 27.8237 16.8847 27.9144 17.1329C28.0068 17.3745 28.1526 17.592 28.3409 17.7694C28.795 18.0835 29.3434 18.2319 29.894 18.1895V19.6917C29.3417 19.6525 28.7923 19.8005 28.3345 20.1118C28.136 20.3044 27.9837 20.5394 27.8889 20.7993C27.7997 21.0632 27.7693 21.3434 27.7998 21.6204L27.8316 23.5236Z" fill="white"/>
<path d="M10 5.71875C10 3.66494 11.6649 2 13.7188 2H14.2812C16.3351 2 18 3.66494 18 5.71875V9.12212C18 9.69944 18.1344 10.2688 18.3926 10.7852L25.3091 24.6182C26.5454 27.0908 24.7474 30 21.9829 30H6.01706C3.25261 30 1.45461 27.0908 2.69091 24.6182L9.6074 10.7852C9.86558 10.2688 10 9.69944 10 9.12212V5.71875Z" fill="#B7CDE1"/>
<rect x="8.5" y="2" width="11" height="3" rx="1.0625" fill="#B7CDE1"/>
<g style="mix-blend-mode:multiply">
<rect x="8.5" y="2" width="11" height="3" rx="1.0625" fill="#B7CDE1"/>
</g>
<path d="M9.9277 14.2264C10.2768 13.4782 11.0277 13 11.8533 13H16.1467C16.9723 13 17.7232 13.4782 18.0723 14.2264L23.089 24.9764C23.7464 26.3852 22.718 28 21.1633 28H6.83667C5.28198 28 4.25357 26.3852 4.91103 24.9764L9.9277 14.2264Z" fill="#DBE6F0"/>
<g style="mix-blend-mode:multiply">
<path d="M16.0942 21.6654C16.1252 21.3905 16.0948 21.1122 16.005 20.8506C15.912 20.5881 15.7595 20.3507 15.5595 20.1568C15.1016 19.8455 14.5523 19.6975 14 19.7367V18.2154C14.557 18.2547 15.1105 18.0995 15.5658 17.7762C15.7552 17.5921 15.901 17.3679 15.9924 17.12C16.0838 16.8722 16.1186 16.6071 16.0942 16.3441V14.4345C16.0508 13.7839 16.2632 13.1421 16.6861 12.6459C16.9132 12.4121 17.1893 12.2317 17.4945 12.1176C17.8044 12.0177 18.1313 11.9809 18.4557 12.0093H20.6389V13.6579H19.4995C19.2542 13.6514 19.0089 13.6706 18.7675 13.7152C18.5919 13.7452 18.4285 13.8247 18.2965 13.9444C18.1687 14.0664 18.0801 14.2237 18.0419 14.3963C17.989 14.6516 17.9676 14.9124 17.9783 15.1729V16.8978C17.9997 17.1657 17.9627 17.4349 17.8701 17.6871C17.7846 17.9469 17.6384 18.1826 17.4436 18.3746C17.0468 18.7063 16.5533 18.9006 16.0369 18.9283V19.0747C16.5567 19.0943 17.0527 19.2973 17.4372 19.6476C17.6161 19.8314 17.7586 20.0474 17.8573 20.2841C17.9515 20.5383 17.9927 20.8091 17.9783 21.0798V22.8302C17.9708 23.0853 17.9986 23.3402 18.061 23.5877C18.0927 23.763 18.1797 23.9237 18.3093 24.046C18.4425 24.1663 18.6088 24.2439 18.7866 24.2688C19.0303 24.3123 19.2775 24.3336 19.525 24.3324H20.6326V25.9492H18.4557C18.1405 25.9678 17.8248 25.9245 17.5263 25.8219C17.2279 25.7287 16.951 25.5773 16.7116 25.3763C16.4877 25.1327 16.3184 24.844 16.2151 24.5297C16.1083 24.2169 16.0671 23.8853 16.0942 23.5558V21.6654Z" fill="#42CACD"/>
</g>
<g style="mix-blend-mode:multiply">
<path d="M27.8316 23.5236C27.8554 23.8525 27.8112 24.1827 27.7017 24.4937C27.5922 24.8048 27.4197 25.0899 27.1951 25.3313C26.9603 25.5429 26.6854 25.7053 26.3867 25.8087C26.0882 25.9114 25.7725 25.9546 25.4574 25.936H23.2805V24.3001H24.4135C24.6611 24.3014 24.9082 24.28 25.1519 24.2365C25.3297 24.2116 25.496 24.134 25.6293 24.0137C25.7585 23.8902 25.8473 23.7304 25.8839 23.5554C25.9301 23.3165 25.9472 23.0728 25.9348 22.8298V21.0984C25.9163 20.8252 25.9548 20.5511 26.0479 20.2936C26.1411 20.0361 26.2868 19.8007 26.4759 19.6026C26.8706 19.2403 27.385 19.0364 27.9208 19.0297V18.8833C27.4061 18.8565 26.9143 18.662 26.5204 18.3296C26.3266 18.1516 26.1725 17.9347 26.0685 17.693C25.9672 17.445 25.9216 17.1777 25.9348 16.9101V15.1915C25.9436 14.9381 25.9136 14.6848 25.8457 14.4404C25.8091 14.2654 25.7203 14.1056 25.5911 13.9821C25.4583 13.8636 25.2953 13.7843 25.1201 13.753C24.8826 13.7115 24.6418 13.6923 24.4008 13.6957H23.2805V12.0089H25.4574C25.7821 11.9851 26.108 12.0329 26.4122 12.1489C26.7159 12.263 26.9916 12.441 27.2206 12.6709C27.6397 13.1643 27.8518 13.8006 27.8126 14.4468V16.3563C27.7889 16.6195 27.8237 16.8847 27.9144 17.1329C28.0068 17.3745 28.1526 17.592 28.3409 17.7694C28.795 18.0835 29.3434 18.2319 29.894 18.1895V19.6917C29.3417 19.6525 28.7923 19.8005 28.3345 20.1118C28.136 20.3044 27.9837 20.5394 27.8889 20.7993C27.7997 21.0632 27.7693 21.3434 27.7998 21.6204L27.8316 23.5236Z" fill="#42CACD"/>
</g>
</svg>
