<svg viewBox="0 0 64 64" fill="none" xmlns="http://www.w3.org/2000/svg">
<path d="M46.36 43H43V4H48.57C49.158 4.00598 49.7386 4.13139 50.2767 4.36862C50.8147 4.60584 51.299 4.94993 51.7 5.38C52.5428 6.29121 53.0075 7.48881 53 8.73V40.64C53 41.82 53 43 50.78 43H46.36Z" fill="#B7CDE1"/>
<g style="mix-blend-mode:multiply">
<path d="M46.36 43H43V4H48.57C49.158 4.00598 49.7386 4.13139 50.2767 4.36862C50.8147 4.60584 51.299 4.94993 51.7 5.38C52.5428 6.29121 53.0075 7.48881 53 8.73V40.64C53 41.82 53 43 50.78 43H46.36Z" fill="#B7CDE1"/>
</g>
<path d="M11 24.9098C11.0029 24.6517 11.0573 24.3967 11.16 24.1598C11.2583 23.9228 11.4087 23.7109 11.6 23.5398C11.787 23.361 12.008 23.2215 12.25 23.1298C12.4887 23.0366 12.7438 22.9924 13 22.9998H28C28.2832 22.9989 28.5634 23.0582 28.822 23.1737C29.0806 23.2892 29.3117 23.4583 29.5 23.6698L34.5 29.3998C35.0605 29.7793 35.7367 29.9492 36.41 29.8798H58.41C59.53 29.8798 60 30.9298 60 31.9998V58.0998C59.9943 58.3544 59.94 58.6056 59.84 58.8398C59.7297 59.073 59.581 59.286 59.4 59.4698C59.2099 59.6421 58.9895 59.7777 58.75 59.8698C58.5126 59.9677 58.2565 60.012 58 59.9998H13C12.7438 60.0073 12.4887 59.963 12.25 59.8698C12.008 59.7781 11.787 59.6387 11.6 59.4598C11.4087 59.2888 11.2583 59.0769 11.16 58.8398C11.0573 58.603 11.0029 58.348 11 58.0898V24.9098Z" fill="#42CACD"/>
<path d="M43.2701 8.59001V47.59C43.2709 48.4811 42.9392 49.3404 42.3401 50C42.0622 50.3138 41.7215 50.5659 41.3401 50.74C40.9562 50.9112 40.5405 50.9998 40.1201 51H7.16012C6.73973 50.9998 6.32408 50.9112 5.94012 50.74C5.55875 50.5659 5.21809 50.3138 4.94012 50C4.32863 49.3354 3.9926 48.4631 4.00012 47.56V8.56001C4.06275 7.38601 4.52905 6.26971 5.32012 5.40001C6.06841 4.58017 7.10296 4.079 8.21012 4.00001H48.2101C46.8486 3.99821 45.5292 4.47219 44.4801 5.34001C43.69 6.23719 43.2591 7.39457 43.2701 8.59001Z" fill="#B7CDE1"/>
<g style="mix-blend-mode:multiply">
<path fill-rule="evenodd" clip-rule="evenodd" d="M50.49 39.1299C50.4847 41.5253 49.6486 43.8447 48.1244 45.6927C46.6001 47.5406 44.4821 48.8026 42.1314 49.2635C39.7807 49.7244 37.3429 49.3556 35.2337 48.22C33.1245 47.0845 31.4745 45.2525 30.565 43.0364C29.6555 40.8203 29.5429 38.3574 30.2464 36.0675C30.9498 33.7777 32.4257 31.8028 34.4225 30.4795C36.4192 29.1562 38.8132 28.5664 41.1961 28.8109C43.5791 29.0553 45.8035 30.1187 47.49 31.8199C48.4466 32.7809 49.2041 33.9213 49.7189 35.1757C50.2337 36.4302 50.4957 37.7739 50.49 39.1299Z" fill="#42CACD"/>
</g>
<g style="mix-blend-mode:multiply">
<path fill-rule="evenodd" clip-rule="evenodd" d="M46.39 47.3697C44.3093 48.9438 41.7087 49.6696 39.1136 49.4006C36.5185 49.1315 34.1222 47.8877 32.4086 45.9202C30.6951 43.9528 29.792 41.4084 29.8818 38.8009C29.9717 36.1934 31.0477 33.7171 32.8925 31.8723C34.7374 30.0274 37.2136 28.9514 39.8211 28.8616C42.4286 28.7718 44.973 29.6748 46.9405 31.3884C48.9079 33.1019 50.1518 35.4982 50.4208 38.0933C50.6899 40.6885 49.9641 43.289 48.39 45.3697L55.86 52.8197C55.9045 52.8644 55.9398 52.9174 55.9638 52.9758C55.9878 53.0341 56.0001 53.0966 56 53.1597C56.0003 53.2199 55.988 53.2794 55.9639 53.3346C55.9398 53.3897 55.9044 53.4391 55.86 53.4797L54.5 54.8597C54.4128 54.9481 54.2941 54.9985 54.17 54.9997C54.1083 55.0002 54.0472 54.9881 53.9904 54.964C53.9337 54.9399 53.8824 54.9044 53.84 54.8597L46.39 47.3697ZM47.39 39.1297C47.3908 40.5658 46.9668 41.9701 46.1714 43.1658C45.3761 44.3616 44.2448 45.2954 42.92 45.8497C41.59 46.3934 40.13 46.5359 38.72 46.2597C37.7164 46.0534 36.7679 45.6367 35.9371 45.0371C35.1063 44.4374 34.412 43.6685 33.9 42.781C33.388 41.8935 33.0699 40.9076 32.9668 39.8882C32.8636 38.8688 32.9777 37.8392 33.3015 36.8671C33.6253 35.895 34.1514 35.0026 34.8452 34.2487C35.5391 33.4948 36.3848 32.8965 37.3267 32.4933C38.2687 32.09 39.2853 31.891 40.3098 31.9094C41.3342 31.9277 42.3431 32.163 43.27 32.5997C44.5089 33.1847 45.557 34.1083 46.2931 35.2639C47.0292 36.4194 47.4234 37.7596 47.43 39.1297H47.39Z" fill="#42CACD"/>
</g>
<path fill-rule="evenodd" clip-rule="evenodd" d="M37.78 40.2098C37.8834 40.3122 38.0056 40.3937 38.14 40.4498C38.2756 40.5079 38.4225 40.5352 38.57 40.5298C38.7141 40.5337 38.8574 40.5064 38.99 40.4498C39.1243 40.3937 39.2465 40.3122 39.35 40.2098L43.58 35.9998C43.6567 35.922 43.7486 35.8607 43.85 35.8198C44.0026 35.7571 44.1702 35.7408 44.3321 35.7728C44.4939 35.8048 44.6427 35.8838 44.76 35.9998C44.9145 36.1553 45.0012 36.3656 45.0012 36.5848C45.0012 36.804 44.9145 37.0143 44.76 37.1698L39.15 42.7798C39.0711 42.8577 38.9799 42.9219 38.88 42.9698C38.7813 43.009 38.6761 43.0293 38.57 43.0298C38.4584 43.0301 38.3478 43.0081 38.2448 42.9652C38.1418 42.9223 38.0484 42.8592 37.97 42.7798L35.47 40.2798C35.3892 40.2034 35.3246 40.1116 35.28 40.0098C35.1996 39.804 35.1996 39.5756 35.28 39.3698C35.3323 39.2443 35.4147 39.1337 35.5199 39.0475C35.6251 38.9613 35.7498 38.9023 35.8831 38.8757C36.0165 38.849 36.1543 38.8555 36.2845 38.8946C36.4147 38.9337 36.5334 39.0041 36.63 39.0998L37.78 40.2098Z" fill="white"/>
<g style="mix-blend-mode:multiply">
<path d="M29.48 25.77H9.48005C9.12426 25.8283 8.80079 26.0111 8.56737 26.2859C8.33396 26.5607 8.20581 26.9095 8.20581 27.27C8.20581 27.6305 8.33396 27.9793 8.56737 28.2541C8.80079 28.5289 9.12426 28.7117 9.48005 28.77H29.48C29.6975 28.8056 29.9202 28.7935 30.1326 28.7346C30.3449 28.6756 30.5419 28.5711 30.7099 28.4284C30.8779 28.2857 31.0128 28.1082 31.1053 27.9082C31.1979 27.7082 31.2458 27.4904 31.2458 27.27C31.2458 27.0496 31.1979 26.8318 31.1053 26.6318C31.0128 26.4318 30.8779 26.2543 30.7099 26.1116C30.5419 25.9689 30.3449 25.8644 30.1326 25.8054C29.9202 25.7465 29.6975 25.7344 29.48 25.77Z" fill="#B7CDE1"/>
</g>
<g style="mix-blend-mode:multiply">
<path d="M24.4802 31.5698H9.4802C9.09191 31.5778 8.72076 31.7313 8.4402 31.9998C8.22551 32.2125 8.07905 32.4842 8.01953 32.7805C7.96001 33.0767 7.99013 33.3839 8.10603 33.663C8.22194 33.942 8.41838 34.1802 8.67026 34.347C8.92215 34.5139 9.21806 34.6019 9.5202 34.5998H24.5202C24.8189 34.5941 25.1094 34.5004 25.3552 34.3305C25.601 34.1606 25.7912 33.9221 25.9022 33.6446C26.0132 33.3672 26.0399 33.0632 25.9791 32.7707C25.9183 32.4782 25.7726 32.21 25.5602 31.9998C25.2696 31.7218 24.8824 31.5676 24.4802 31.5698Z" fill="#B7CDE1"/>
</g>
<g style="mix-blend-mode:multiply">
<path d="M18.38 20.8997V22.4797C18.38 22.9997 8 22.9997 8 22.4797V20.8997C8 17.2097 10.41 15.7197 13.19 15.7197C15.97 15.7197 18.38 17.2097 18.38 20.8997Z" fill="#B7CDE1"/>
</g>
<g style="mix-blend-mode:multiply">
<path d="M13.1999 15.72C13.6667 15.7184 14.1226 15.5789 14.5104 15.3192C14.8982 15.0595 15.2007 14.691 15.3799 14.26C15.514 13.9382 15.5747 13.5905 15.5577 13.2423C15.5408 12.8941 15.4465 12.554 15.2819 12.2467C15.1172 11.9394 14.8863 11.6726 14.6057 11.4656C14.3252 11.2586 14.0021 11.1167 13.6599 11.05C13.204 10.952 12.729 10.9974 12.2999 11.18C11.867 11.3566 11.4975 11.6598 11.2399 12.05C11.001 12.408 10.8644 12.8245 10.8451 13.2545C10.8259 13.6845 10.9245 14.1116 11.1305 14.4896C11.3365 14.8675 11.6419 15.182 12.0137 15.3988C12.3855 15.6157 12.8096 15.7268 13.2399 15.72H13.1999Z" fill="#B7CDE1"/>
</g>
</svg>
