<svg width="32" height="32" viewBox="0 0 32 32" fill="none" xmlns="http://www.w3.org/2000/svg">
<path d="M29 13.765C28.9987 13.6076 28.9356 13.457 28.8243 13.3457C28.713 13.2344 28.5624 13.1713 28.405 13.17H25.425C25.2672 13.17 25.1158 13.1073 25.0043 12.9957C24.8927 12.8841 24.83 12.7328 24.83 12.575V9.6C24.8307 9.52144 24.8158 9.44353 24.7861 9.37077C24.7565 9.298 24.7128 9.23182 24.6575 9.17604C24.6022 9.12025 24.5364 9.07598 24.4639 9.04576C24.3913 9.01555 24.3136 9 24.235 9H21.26C21.1022 9 20.9509 9.06269 20.8393 9.17427C20.7277 9.28586 20.665 9.4372 20.665 9.595V12.57C20.665 12.6481 20.6496 12.7255 20.6197 12.7977C20.5898 12.8699 20.546 12.9355 20.4907 12.9907C20.4355 13.046 20.3699 13.0898 20.2977 13.1197C20.2255 13.1496 20.1481 13.165 20.07 13.165H17.07C16.9157 13.1715 16.77 13.2377 16.6636 13.3497C16.5572 13.4616 16.4986 13.6106 16.5 13.765V16.74C16.5 16.8978 16.5627 17.0491 16.6743 17.1607C16.7858 17.2723 16.9372 17.335 17.095 17.335H20.095C20.2528 17.335 20.4041 17.3977 20.5157 17.5093C20.6273 17.6209 20.69 17.7722 20.69 17.93V20.93C20.6961 21.0792 20.7582 21.2206 20.8638 21.3262C20.9694 21.4318 21.1108 21.4939 21.26 21.5H24.235C24.3928 21.5 24.5441 21.4373 24.6557 21.3257C24.7673 21.2141 24.83 21.0628 24.83 20.905V17.905C24.83 17.7472 24.8927 17.5959 25.0043 17.4843C25.1158 17.3727 25.2672 17.31 25.425 17.31H28.4C28.5544 17.3114 28.7034 17.2528 28.8153 17.1464C28.9273 17.04 28.9935 16.8943 29 16.74V13.765Z" fill="white"/>
<path d="M2.25499 4.77507L12.755 16.6251C12.9648 16.903 13.0867 17.2373 13.105 17.5851V28.9701C13.105 29.2701 13.27 29.3401 13.485 29.1301L16.835 26.1001C17.055 25.8414 17.1787 25.5146 17.185 25.1751V17.5851C17.2046 17.2393 17.3363 16.9094 17.56 16.6451L29.71 4.82007C29.8075 4.71616 29.8833 4.59391 29.9331 4.46042C29.9829 4.32694 30.0057 4.18488 30.0001 4.04252C29.9945 3.90016 29.9607 3.76033 29.9006 3.63115C29.8405 3.50198 29.7553 3.38604 29.65 3.29007C29.446 3.10464 29.1806 3.00133 28.905 3.00007H3.10499C2.8982 2.99765 2.69503 3.05437 2.5194 3.16356C2.34377 3.27275 2.203 3.42986 2.11368 3.61638C2.02436 3.8029 1.99021 4.01107 2.01524 4.21635C2.04028 4.42164 2.12346 4.61549 2.25499 4.77507V4.77507Z" fill="#B7CDE1"/>
<g style="mix-blend-mode:multiply">
<path d="M29 13.765C28.9987 13.6076 28.9356 13.457 28.8243 13.3457C28.713 13.2344 28.5624 13.1713 28.405 13.17H25.425C25.2672 13.17 25.1158 13.1073 25.0043 12.9957C24.8927 12.8841 24.83 12.7328 24.83 12.575V9.6C24.8307 9.52144 24.8158 9.44353 24.7861 9.37077C24.7565 9.298 24.7128 9.23182 24.6575 9.17604C24.6022 9.12025 24.5364 9.07598 24.4639 9.04576C24.3913 9.01555 24.3136 9 24.235 9H21.26C21.1022 9 20.9509 9.06269 20.8393 9.17427C20.7277 9.28586 20.665 9.4372 20.665 9.595V12.57C20.665 12.6481 20.6496 12.7255 20.6197 12.7977C20.5898 12.8699 20.546 12.9355 20.4907 12.9907C20.4355 13.046 20.3699 13.0898 20.2977 13.1197C20.2255 13.1496 20.1481 13.165 20.07 13.165H17.07C16.9157 13.1715 16.77 13.2377 16.6636 13.3497C16.5572 13.4616 16.4986 13.6106 16.5 13.765V16.74C16.5 16.8978 16.5627 17.0491 16.6743 17.1607C16.7858 17.2723 16.9372 17.335 17.095 17.335H20.095C20.2528 17.335 20.4041 17.3977 20.5157 17.5093C20.6273 17.6209 20.69 17.7722 20.69 17.93V20.93C20.6961 21.0792 20.7582 21.2206 20.8638 21.3262C20.9694 21.4318 21.1108 21.4939 21.26 21.5H24.235C24.3928 21.5 24.5441 21.4373 24.6557 21.3257C24.7673 21.2141 24.83 21.0628 24.83 20.905V17.905C24.83 17.7472 24.8927 17.5959 25.0043 17.4843C25.1158 17.3727 25.2672 17.31 25.425 17.31H28.4C28.5544 17.3114 28.7034 17.2528 28.8153 17.1464C28.9273 17.04 28.9935 16.8943 29 16.74V13.765Z" fill="#36A168"/>
</g>
</svg>
