<?xml version="1.0" encoding="UTF-8"?><svg id="Layer_1" xmlns="http://www.w3.org/2000/svg" xmlns:xlink="http://www.w3.org/1999/xlink" viewBox="0 0 129.99 129.99"><defs><style>.cls-1,.cls-2,.cls-3,.cls-4{fill:none;}.cls-5{clip-path:url(#clippath);}.cls-6{fill:#58595b;}.cls-2{stroke-width:1.57px;}.cls-2,.cls-3{stroke-miterlimit:10;}.cls-2,.cls-3,.cls-4{stroke:#221f20;}.cls-3{stroke-width:.59px;}.cls-4{stroke-linejoin:round;stroke-width:2.94px;}.cls-7,.cls-8{opacity:.6;}.cls-7,.cls-9,.cls-10,.cls-11,.cls-12{fill:#69b9c5;}.cls-8,.cls-13,.cls-14,.cls-15{fill:#68b9c4;}.cls-9{opacity:.5;}.cls-10,.cls-13{opacity:.9;}.cls-14,.cls-11{opacity:.8;}.cls-12,.cls-15{opacity:.7;}</style><clipPath id="clippath"><circle class="cls-1" cx="64.99" cy="64.99" r="65.4"/></clipPath></defs><g class="cls-5"><polygon class="cls-7" points="8.96 35.08 24.42 42.86 24.42 57.78 8.96 49.84 8.96 35.08"/><polygon class="cls-12" points="8.96 -11.08 24.42 -2.65 24.42 12.49 8.96 4.21 8.96 -11.08"/><polygon class="cls-7" points="8.96 4.12 24.42 12.49 24.42 27.05 8.96 18.63 8.96 4.12"/><polygon class="cls-13" points="8.96 19.08 24.42 27.61 24.42 43.37 8.96 34.99 8.96 19.08"/><polygon class="cls-7" points="52.61 -15.36 68.06 -6.6 68.31 7.69 52.61 -.66 52.61 -15.36"/><polygon class="cls-12" points="52.61 -.89 68.81 8.15 68.08 21.67 52.61 13.31 52.61 -.89"/><polygon class="cls-11" points="52.61 13.22 69.05 22.2 68.81 36.4 52.61 27.7 52.61 13.22"/><polygon class="cls-7" points="52.88 27.89 68.81 36.4 69.05 51.56 52.61 42.66 52.88 27.89"/><polygon class="cls-13" points="52.61 42.67 69.05 51.56 69.27 67.29 52.6 58.23 52.61 42.67"/><polygon class="cls-13" points="24.42 -16.63 38.18 -8.95 38.18 5.21 24.42 -2.67 24.42 -16.63"/><polygon class="cls-7" points="24.42 -2.65 38.18 5.21 38.18 20.16 24.42 12.61 24.42 -2.65"/><polygon class="cls-11" points="24.42 12.49 38.18 20.16 38.18 34.81 24.42 27.61 24.42 12.49"/><polygon class="cls-13" points="24.42 27.61 38.18 34.81 38.18 50.58 24.42 43.37 24.42 27.61"/><polygon class="cls-13" points="38.18 -8.95 52.61 -.66 52.61 13.31 38.18 5.24 38.18 -8.95"/><polygon class="cls-13" points="38.18 5.21 52.61 13.31 52.61 27.7 38.18 19.64 38.18 5.21"/><polygon class="cls-7" points="38.18 19.69 52.61 27.7 52.61 42.66 38.18 34.51 38.18 19.69"/><polygon class="cls-12" points="38.18 34.81 52.61 42.87 52.6 58.23 38.18 50.58 38.18 34.81"/><polygon class="cls-11" points="-8.82 -20.85 8.96 -11.08 8.96 4.21 -9.16 -5.53 -8.82 -20.85"/><polygon class="cls-13" points="-9.68 -5.96 8.96 4.12 8.96 18.63 -9.12 9.19 -9.68 -5.96"/><polygon class="cls-12" points="-8.94 9.24 8.96 19.08 8.96 35.08 -9.06 25.55 -8.94 9.24"/><polygon class="cls-7" points="68.81 -6.08 83.17 1.98 83.17 16.28 68.81 8.15 68.81 -6.08"/><polygon class="cls-12" points="68.81 8.15 83.17 16.28 83.4 30.29 69.05 22.2 68.81 8.15"/><polygon class="cls-11" points="68.9 22.25 83.4 30.29 83.54 44.36 68.81 36.4 68.9 22.25"/><polygon class="cls-13" points="69.05 36.63 83.54 44.48 83.72 59.17 69.28 51.44 69.05 36.63"/><polygon class="cls-13" points="68.65 -20.74 83.15 -12.89 83.32 1.8 68.89 -5.93 68.65 -20.74"/><polygon class="cls-7" points="83.17 2.33 99.66 10.99 99.66 25.37 83.17 16.32 83.17 2.33"/><polygon class="cls-10" points="83.17 16.28 99.42 25.24 99.66 39.3 83.4 30.34 83.17 16.28"/><polygon class="cls-10" points="99.66 39.3 112.9 46.64 112.91 60.37 99.66 53.32 99.66 39.3"/><polygon class="cls-11" points="99.66 53.2 112.91 60.37 112.81 75.14 99.66 67.89 99.66 53.2"/><polygon class="cls-12" points="83.4 30.29 99.66 39.3 99.66 53.2 83.54 44.61 83.4 30.29"/><polygon class="cls-14" points="83.54 44.48 99.66 53.2 99.66 67.89 83.72 59.28 83.54 44.48"/><polygon class="cls-7" points="112.89 18.72 126.98 26.67 126.98 40.62 112.89 32.51 112.89 18.72"/><polygon class="cls-7" points="126.69 13.08 140.1 20.29 140.1 34.24 126.69 26.87 126.69 13.08"/><polygon class="cls-7" points="99.66 25.37 112.81 32.71 112.9 46.64 99.66 39.2 99.66 25.37"/><polygon class="cls-10" points="112.81 32.71 126.98 40.86 126.98 54.19 112.81 46.53 112.81 32.71"/><polygon class="cls-12" points="112.9 46.64 126.98 54.19 127.01 67.99 112.81 60.16 112.9 46.64"/><polygon class="cls-8" points="112.91 60.37 127.01 67.99 126.91 82.19 112.81 75.14 112.91 60.37"/><polygon class="cls-15" points="99.52 11.45 112.89 19.12 112.81 32.71 99.66 25.55 99.52 11.45"/><polygon class="cls-15" points="83.03 -12.12 99.66 -2.68 99.58 10.9 83.17 1.98 83.03 -12.12"/><polygon class="cls-10" points="99.48 -2.59 112.93 4.74 112.93 18.89 99.48 11.24 99.48 -2.59"/><polygon class="cls-11" points="126.98 26.85 139.72 34.28 139.72 47.91 126.98 40.62 126.98 26.85"/><polygon class="cls-11" points="112.91 5.77 127 13.18 127.01 26.81 112.91 19.55 112.91 5.77"/><polygon class="cls-10" points="126.98 40.62 139.72 47.91 139.72 61.44 126.98 54.63 126.98 40.62"/><polygon class="cls-12" points="126.98 54.19 139.63 61.23 139.72 75.04 126.98 67.81 126.98 54.19"/><polygon class="cls-8" points="127.01 67.99 139.79 74.99 139.72 89.19 126.91 82.19 127.01 67.99"/><polygon class="cls-13" points="-9.93 25.05 8.74 35.22 8.96 49.84 -9.53 39.93 -9.93 25.05"/><polygon class="cls-7" points="-8.91 40.26 8.96 49.81 8.96 65.8 -9.22 56.2 -8.91 40.26"/><polygon class="cls-12" points="-9.88 55.85 8.96 65.7 8.92 80.38 -9.93 70.14 -9.88 55.85"/><polygon class="cls-11" points="-8.98 70.93 8.92 80.38 8.83 97.49 -9.12 88.07 -8.98 70.93"/><polygon class="cls-13" points="-9.45 87.92 8.83 97.49 9.07 112.19 -9.12 102.92 -9.45 87.92"/><polygon class="cls-13" points="-9.68 101.85 9.07 112.19 9.17 130.97 -10.04 119.96 -9.68 101.85"/><polygon class="cls-13" points="38.5 127.58 52.62 135.1 52.61 154.74 37.97 146.73 38.5 127.58"/><polygon class="cls-12" points="-10.04 119.96 9.17 130.97 8.67 147.46 -9.88 137.15 -10.04 119.96"/><polygon class="cls-11" points="8.96 49.96 24.42 57.78 24.42 73.51 8.96 65.8 8.96 49.96"/><polygon class="cls-7" points="8.96 65.7 24.42 73.51 24.42 88.35 8.96 80.32 8.96 65.7"/><polygon class="cls-7" points="8.83 97.49 24.48 105.43 24.39 119.96 8.92 112.45 8.83 97.49"/><polygon class="cls-7" points="8.83 112.25 24.35 120.42 24.48 139.34 9.17 130.97 8.83 112.25"/><polygon class="cls-7" points="52.6 58.23 69.27 67.29 69.35 81.94 52.62 72.85 52.6 58.23"/><polygon class="cls-12" points="52.63 72.54 69.35 81.94 69.8 97.51 52.61 88.57 52.63 72.54"/><polygon class="cls-11" points="52.63 88.53 69.8 97.51 69.8 111.71 52.61 103.05 52.63 88.53"/><polygon class="cls-9" points="52.61 103.05 70.02 112.02 70.04 128.94 52.63 119.95 52.61 103.05"/><polygon class="cls-9" points="70.64 129.31 84.44 136.37 70.64 144.67 70.64 129.31"/><polygon class="cls-13" points="38.18 112.49 52.63 119.95 52.62 135.1 38.18 127.87 38.18 112.49"/><polygon class="cls-13" points="24.42 43.28 38.18 50.39 38.18 65.43 24.42 58.12 24.42 43.28"/><polygon class="cls-13" points="24.42 58.01 38.18 65.43 38.18 80.97 24.42 73.51 24.42 58.01"/><polygon class="cls-7" points="24.42 73.78 38.18 80.97 38.18 95.52 24.42 88.35 24.42 73.78"/><polygon class="cls-11" points="24.42 88.35 38.18 95.52 38.18 112.49 24.42 105.67 24.42 88.35"/><polygon class="cls-13" points="24.48 105.43 38.18 112.49 38.18 127.87 24.22 120.52 24.48 105.43"/><polygon class="cls-13" points="8.92 80.38 24.42 88.35 24.48 105.43 8.92 97.56 8.92 80.38"/><polygon class="cls-14" points="52.63 119.95 70.64 129.31 70.62 144.24 52.62 135.1 52.63 119.95"/><polygon class="cls-7" points="38.18 50.58 52.61 58.12 52.62 72.85 38.18 65.43 38.18 50.58"/><polygon class="cls-13" points="38.18 65.43 52.61 72.73 52.61 88.57 38.18 80.97 38.18 65.43"/><polygon class="cls-13" points="38.18 81.25 52.61 88.57 52.61 103.05 38.18 95.52 38.18 81.25"/><polygon class="cls-7" points="38.18 95.64 52.61 103.05 52.63 119.95 38.18 112.49 38.18 95.64"/><polygon class="cls-12" points="24.68 120.52 38.5 127.58 37.97 146.73 24.48 139.34 24.68 120.52"/><polygon class="cls-7" points="69.8 97.51 84.14 105.19 84.55 119.52 70.01 112.02 69.8 97.51"/><polygon class="cls-12" points="70.02 112.5 84.55 119.52 84.44 136.37 70.64 129.31 70.02 112.5"/><polygon class="cls-11" points="84.55 119.52 99.66 127.58 84.44 136.37 84.55 119.52"/><polygon class="cls-13" points="69.28 51.44 83.72 59.22 83.72 74.89 69.36 66.93 69.28 51.44"/><polygon class="cls-13" points="127.14 82.56 139.72 89.19 139.72 104.51 126.98 97.69 127.14 82.56"/><polygon class="cls-13" points="112.81 105.08 126.58 112.28 112.83 120.22 112.81 105.08"/><polygon class="cls-14" points="126.98 97.69 139.72 104.45 127 111.45 126.98 97.69"/><polygon class="cls-12" points="69.36 66.93 83.72 74.89 83.99 89.87 69.35 81.94 69.36 66.93"/><polygon class="cls-7" points="99.6 113.07 112.83 120.22 99.66 127.58 99.6 113.07"/><polygon class="cls-13" points="99.66 83.16 112.81 90.19 112.81 105.08 99.66 98.07 99.66 83.16"/><polygon class="cls-14" points="99.66 67.82 112.81 75.28 112.82 90.19 99.66 83.16 99.66 67.82"/><polygon class="cls-14" points="99.66 98.07 112.81 105.33 112.83 120.22 99.66 113.21 99.66 98.07"/><polygon class="cls-13" points="69.67 82.21 83.78 89.96 84.14 105.19 69.8 97.51 69.67 82.21"/><polygon class="cls-10" points="84.14 105.19 99.6 113.07 99.66 127.58 84.55 119.52 84.14 105.19"/><polygon class="cls-7" points="83.72 59.22 99.73 68.2 99.66 83.16 83.72 74.89 83.72 59.22"/><polygon class="cls-12" points="83.72 74.89 99.76 83.31 99.66 98.07 83.99 89.87 83.72 74.89"/><polygon class="cls-7" points="83.99 89.87 99.73 98.19 99.6 113.07 84.51 105.49 83.99 89.87"/><polygon class="cls-7" points="112.82 90.19 126.99 97.73 126.58 112.28 112.81 105.24 112.82 90.19"/><polygon class="cls-12" points="112.89 74.9 127.14 82.56 126.99 97.87 112.82 90.19 112.89 74.9"/><line class="cls-3" x1="201.34" y1="69.05" x2="-10.08" y2="-50.95"/><line class="cls-3" x1="189.67" y1="75.61" x2="-9.68" y2="-35.66"/><line class="cls-3" x1="177.66" y1="82.55" x2="-9.68" y2="-21.32"/><line class="cls-3" x1="166.17" y1="89.18" x2="-9.68" y2="-5.96"/><line class="cls-3" x1="139.72" y1="104.45" x2="-9.93" y2="25.05"/><line class="cls-3" x1="126.09" y1="112.16" x2="-9.53" y2="39.93"/><line class="cls-3" x1="99.66" y1="127.58" x2="-9.68" y2="70.57"/><line class="cls-3" x1="84.44" y1="136.37" x2="-9.93" y2="87.67"/><line class="cls-2" x1="70.47" y1="144.43" x2="-10.49" y2="102.16"/><line class="cls-3" x1="52.61" y1="154.74" x2="-10.32" y2="120.3"/><line class="cls-3" x1="8.96" y1="-54.85" x2="8.96" y2="179.95"/><line class="cls-3" x1="24.42" y1="-45.8" x2="24.42" y2="171.02"/><line class="cls-3" x1="38.18" y1="-37.75" x2="38.18" y2="163.08"/><line class="cls-3" x1="52.61" y1="-29.3" x2="52.61" y2="154.74"/><line class="cls-2" x1="68.12" y1="-20.23" x2="70.47" y2="144.43"/><line class="cls-2" x1="153.17" y1="96.69" x2="-9.29" y2="9.05"/><line class="cls-3" x1="112.81" y1="119.99" x2="-9.88" y2="55.85"/><line class="cls-3" x1="82.99" y1="-11.52" x2="84.44" y2="136.37"/><line class="cls-3" x1="99.66" y1="-1.77" x2="99.66" y2="127.58"/><line class="cls-3" x1="112.81" y1="5.92" x2="112.81" y2="119.99"/><line class="cls-3" x1="126.98" y1="14.23" x2="126.98" y2="112.16"/><polygon class="cls-6" points="-11.19 190.66 210.91 62.43 210.91 72.88 -11.19 201.11 -11.19 190.66"/><line class="cls-4" x1="-11.18" y1="-65.81" x2="210.91" y2="62.43"/></g></svg>