<svg viewBox="0 0 63 70" fill="none"
    xmlns="http://www.w3.org/2000/svg">
    <g clip-path="url(#clip0_75_708)">
        <path d="M26.6577 3.71938C28.1916 -1.65521 35.8084 -1.65521 37.3423 3.71938L40.0731 13.2884C40.8959 16.1715 43.858 17.8817 46.7662 17.1527L56.4187 14.7332C61.8401 13.3742 65.6486 19.9706 61.7609 23.9862L54.8393 31.1358C52.7539 33.2899 52.7539 36.7101 54.8393 38.8642L61.7609 46.0138C65.6486 50.0294 61.8401 56.6258 56.4187 55.2668L46.7662 52.8473C43.858 52.1183 40.8959 53.8285 40.0731 56.7116L37.3423 66.2806C35.8084 71.6552 28.1916 71.6552 26.6577 66.2806L23.9269 56.7116C23.1041 53.8285 20.142 52.1183 17.2338 52.8473L7.58132 55.2668C2.15987 56.6258 -1.64856 50.0294 2.23905 46.0138L9.16067 38.8642C11.2461 36.7101 11.2461 33.2899 9.16067 31.1358L2.23906 23.9862C-1.64856 19.9706 2.15986 13.3742 7.58132 14.7332L17.2338 17.1527C20.142 17.8817 23.1041 16.1715 23.9269 13.2884L26.6577 3.71938Z" fill="#B0D194"/>
    </g>
    <defs>
        <clipPath id="clip0_75_708">
            <rect width="63" height="70" fill="white"/>
        </clipPath>
    </defs>
</svg>
