<svg viewBox="0 0 1508 712" fill="none"
    xmlns="http://www.w3.org/2000/svg">
    <rect width="1508" height="712" fill="#F4F8FB"/>
    <path d="M42.112 70V47.6H49.44C55.616 47.6 60.928 51.28 60.928 58.8C60.928 66.32 55.616 70 49.44 70H42.112ZM46.4 66.224H49.056C52.896 66.224 56.512 64.272 56.512 58.8C56.512 53.328 52.896 51.344 49.056 51.344H46.4V66.224ZM79.2145 61.392C79.2145 61.968 79.1825 62.672 79.1505 62.992H67.1825C67.5345 65.424 69.1025 66.864 71.4065 66.864C73.2945 66.864 74.6385 65.968 75.0545 64.4L78.8305 65.424C77.9345 68.464 75.1185 70.256 71.3425 70.256C65.9985 70.256 63.1505 66.128 63.1505 61.936C63.1505 57.744 65.7745 53.616 71.1185 53.616C76.5585 53.616 79.2145 57.648 79.2145 61.392ZM67.2785 60.048H74.8945C74.7025 58.128 73.4545 56.688 71.1185 56.688C69.1345 56.688 67.7265 57.872 67.2785 60.048ZM87.7403 70.256C83.8363 70.256 81.5003 67.856 80.7003 65.488L83.9963 64.144C84.4763 65.776 85.7243 67.12 87.7403 67.12C89.2443 67.12 90.2363 66.32 90.2363 65.296C90.2363 62.256 81.4363 64.24 81.4363 58.128C81.4363 55.6 83.6443 53.616 87.1643 53.616C90.3003 53.616 92.9563 55.216 93.6603 57.552L90.3963 58.928C89.9483 57.392 88.5403 56.592 87.2283 56.592C85.9483 56.592 85.0843 57.136 85.0843 58.064C85.0843 60.912 93.9483 58.64 93.9483 65.232C93.9483 68.016 91.4523 70.256 87.7403 70.256ZM98.8743 51.408C97.4343 51.408 96.3783 50.32 96.3783 48.912C96.3783 47.536 97.4343 46.448 98.8743 46.448C100.346 46.448 101.434 47.536 101.434 48.912C101.434 50.32 100.346 51.408 98.8743 51.408ZM96.8583 70V53.872H100.89V70H96.8583ZM113.372 66.608C117.084 66.608 119.324 68.176 119.324 71.12C119.324 74.704 115.804 76.08 111.484 76.08C106.748 76.08 103.644 74.576 103.644 71.44C103.644 70.32 104.284 69.136 105.212 68.368C104.54 67.76 104.156 66.992 104.156 66.064C104.156 64.528 105.084 63.44 106.492 62.832C105.564 61.872 105.052 60.624 105.052 59.152C105.052 55.824 107.676 53.616 111.452 53.616C112.54 53.616 113.532 53.808 114.396 54.16L116.764 51.696L119.1 53.872L116.956 56.112C117.532 56.944 117.884 58 117.884 59.152C117.884 62.48 115.26 64.656 111.452 64.656C110.588 64.656 109.756 64.528 109.02 64.336C108.316 64.688 107.996 65.104 107.996 65.584C107.996 66.32 108.668 66.608 109.596 66.608H113.372ZM111.452 56.72C109.948 56.72 108.796 57.648 108.796 59.152C108.796 60.624 109.948 61.552 111.452 61.552C112.924 61.552 114.108 60.624 114.108 59.152C114.108 57.648 112.924 56.72 111.452 56.72ZM111.484 72.848C114.204 72.848 115.42 72.272 115.42 71.184C115.42 70.032 114.364 69.744 112.7 69.744H109.724C109.212 69.744 108.7 69.712 108.22 69.616C107.708 70.16 107.548 70.64 107.548 71.216C107.548 72.304 108.636 72.848 111.484 72.848ZM121.858 70V53.872H125.89V56.304C126.914 54.736 128.738 53.616 131.01 53.616C134.53 53.616 136.898 55.92 136.898 59.44V70H132.866V60.4C132.866 58.512 131.682 57.2 129.794 57.2C127.33 57.2 125.89 59.312 125.89 62.928V70H121.858ZM154.115 70.256C150.211 70.256 147.875 67.856 147.075 65.488L150.371 64.144C150.851 65.776 152.099 67.12 154.115 67.12C155.619 67.12 156.611 66.32 156.611 65.296C156.611 62.256 147.811 64.24 147.811 58.128C147.811 55.6 150.019 53.616 153.539 53.616C156.675 53.616 159.331 55.216 160.035 57.552L156.771 58.928C156.323 57.392 154.915 56.592 153.603 56.592C152.323 56.592 151.459 57.136 151.459 58.064C151.459 60.912 160.323 58.64 160.323 65.232C160.323 68.016 157.827 70.256 154.115 70.256ZM172.583 69.84C171.783 70.128 170.919 70.256 169.991 70.256C166.727 70.256 164.295 68.496 164.295 64.72V57.264H161.575V53.872H164.295V49.136H168.327V53.872H172.391V57.264H168.327V64.336C168.327 65.872 169.159 66.704 170.407 66.704C171.015 66.704 171.719 66.608 172.295 66.32L172.583 69.84ZM185.918 53.872H190.046L181.534 75.824H177.438L179.934 69.36L173.662 53.872H178.046L181.918 64.24L185.918 53.872ZM198.697 70.16C195.113 70.704 192.265 69.296 192.265 65.328V47.344H196.297V64.816C196.297 66.64 197.129 66.736 198.441 66.704L198.697 70.16ZM216.683 61.392C216.683 61.968 216.651 62.672 216.619 62.992H204.651C205.003 65.424 206.571 66.864 208.875 66.864C210.763 66.864 212.107 65.968 212.523 64.4L216.299 65.424C215.403 68.464 212.587 70.256 208.811 70.256C203.467 70.256 200.619 66.128 200.619 61.936C200.619 57.744 203.243 53.616 208.587 53.616C214.027 53.616 216.683 57.648 216.683 61.392ZM204.747 60.048H212.363C212.171 58.128 210.923 56.688 208.587 56.688C206.603 56.688 205.195 57.872 204.747 60.048ZM48.16 91.616C52.384 91.616 55.264 93.888 55.264 98.176V108H51.36V105.664C50.464 107.232 48.512 108.256 46.528 108.256C43.36 108.256 41.152 106.208 41.152 103.456C41.152 100.288 43.552 98.592 48.352 98.08L51.36 97.792V97.632C51.36 95.808 50.112 94.688 48.16 94.688C46.4 94.688 45.152 95.776 44.96 97.504L41.376 96.864C41.888 93.664 44.736 91.616 48.16 91.616ZM47.424 105.28C49.92 105.28 51.36 103.392 51.36 101.024V100.672L48.288 101.024C46.144 101.28 45.056 102.176 45.056 103.328C45.056 104.448 45.952 105.28 47.424 105.28ZM59.202 108V91.872H63.234V94.304C64.258 92.736 66.082 91.616 68.354 91.616C71.874 91.616 74.242 93.92 74.242 97.44V108H70.21V98.4C70.21 96.512 69.026 95.2 67.138 95.2C64.674 95.2 63.234 97.312 63.234 100.928V108H59.202ZM84.9555 108.256C80.1235 108.256 77.2755 104.864 77.2755 99.936C77.2755 95.008 80.1235 91.616 84.8915 91.616C86.9075 91.616 88.6355 92.448 89.5635 93.664V85.344H93.5955V108H89.5635V106.144C88.7635 107.424 86.9715 108.256 84.9555 108.256ZM85.5315 104.768C88.1235 104.768 89.8195 102.848 89.8195 99.936C89.8195 97.024 88.1235 95.104 85.5315 95.104C82.9715 95.104 81.2755 97.024 81.2755 99.936C81.2755 102.848 82.9715 104.768 85.5315 104.768ZM112.53 108.256C107.698 108.256 104.338 104.864 104.338 99.936C104.338 95.008 107.698 91.616 112.53 91.616C116.658 91.616 119.57 93.76 120.114 97.184L116.178 97.952C115.89 96.256 114.546 95.104 112.658 95.104C110.162 95.104 108.53 96.992 108.53 99.936C108.53 102.88 110.162 104.768 112.658 104.768C114.546 104.768 115.794 103.744 116.178 102.016L120.114 102.816C119.506 106.208 116.594 108.256 112.53 108.256ZM130.692 108.256C125.796 108.256 122.276 104.736 122.276 99.936C122.276 95.136 125.796 91.616 130.692 91.616C135.588 91.616 139.108 95.136 139.108 99.936C139.108 104.736 135.588 108.256 130.692 108.256ZM130.692 104.768C133.284 104.768 135.044 102.816 135.044 99.936C135.044 97.056 133.284 95.104 130.692 95.104C128.068 95.104 126.34 97.056 126.34 99.936C126.34 102.816 128.068 104.768 130.692 104.768ZM148.572 108.16C144.988 108.704 142.14 107.296 142.14 103.328V85.344H146.172V102.816C146.172 104.64 147.004 104.736 148.316 104.704L148.572 108.16ZM158.91 108.256C154.014 108.256 150.494 104.736 150.494 99.936C150.494 95.136 154.014 91.616 158.91 91.616C163.806 91.616 167.326 95.136 167.326 99.936C167.326 104.736 163.806 108.256 158.91 108.256ZM158.91 104.768C161.502 104.768 163.262 102.816 163.262 99.936C163.262 97.056 161.502 95.104 158.91 95.104C156.286 95.104 154.558 97.056 154.558 99.936C154.558 102.816 156.286 104.768 158.91 104.768ZM185.398 91.872V108H181.366V105.568C180.342 107.136 178.518 108.256 176.246 108.256C172.758 108.256 170.358 105.952 170.358 102.432V91.872H174.39V101.472C174.39 103.36 175.574 104.672 177.462 104.672C179.958 104.672 181.366 102.56 181.366 98.944V91.872H185.398ZM199.727 95.776C199.151 95.52 198.383 95.392 197.679 95.392C195.407 95.392 193.359 97.28 193.359 102.08V108H189.327V91.872H193.359V94.816C194.159 92.992 196.271 91.616 198.223 91.616C198.799 91.616 199.503 91.712 199.983 91.872L199.727 95.776ZM207.553 108.256C203.649 108.256 201.313 105.856 200.513 103.488L203.809 102.144C204.289 103.776 205.537 105.12 207.553 105.12C209.057 105.12 210.049 104.32 210.049 103.296C210.049 100.256 201.249 102.24 201.249 96.128C201.249 93.6 203.457 91.616 206.977 91.616C210.113 91.616 212.769 93.216 213.473 95.552L210.209 96.928C209.761 95.392 208.353 94.592 207.041 94.592C205.761 94.592 204.897 95.136 204.897 96.064C204.897 98.912 213.761 96.64 213.761 103.232C213.761 106.016 211.265 108.256 207.553 108.256Z" fill="#20014B"/>
    <path d="M459.971 119.256C453.891 119.256 448.707 115.352 448.707 107.8C448.707 100.248 453.987 96.344 459.971 96.344C465.571 96.344 469.475 99.352 470.115 103.992L465.091 105.048C464.579 102.36 462.531 100.664 459.939 100.664C456.547 100.664 453.795 103.128 453.795 107.8C453.795 112.472 456.515 114.904 459.939 114.904C462.563 114.904 464.451 113.4 464.963 111L470.051 112.152C468.995 116.6 465.251 119.256 459.971 119.256ZM480.812 119.256C475.82 119.256 472.3 115.736 472.3 110.936C472.3 106.136 475.82 102.616 480.812 102.616C485.74 102.616 489.324 106.136 489.324 110.936C489.324 115.736 485.74 119.256 480.812 119.256ZM480.812 115.256C483.084 115.256 484.62 113.496 484.62 110.936C484.62 108.376 483.084 106.616 480.812 106.616C478.508 106.616 476.972 108.376 476.972 110.936C476.972 113.496 478.508 115.256 480.812 115.256ZM499.267 119.128C495.331 119.768 492.131 118.264 492.131 113.944V96.344H496.835V113.272C496.835 115.16 497.667 115.16 498.947 115.16L499.267 119.128ZM509.562 119.256C504.57 119.256 501.05 115.736 501.05 110.936C501.05 106.136 504.57 102.616 509.562 102.616C514.49 102.616 518.074 106.136 518.074 110.936C518.074 115.736 514.49 119.256 509.562 119.256ZM509.562 115.256C511.834 115.256 513.37 113.496 513.37 110.936C513.37 108.376 511.834 106.616 509.562 106.616C507.258 106.616 505.722 108.376 505.722 110.936C505.722 113.496 507.258 115.256 509.562 115.256ZM536.433 102.872V119H531.761V116.856C530.769 118.264 529.009 119.256 526.833 119.256C523.281 119.256 520.881 116.952 520.881 113.4V102.872H525.585V112.152C525.585 113.912 526.673 115.096 528.337 115.096C530.577 115.096 531.761 113.272 531.761 109.944V102.872H536.433ZM550.98 107.384C550.436 107.128 549.668 107 548.932 107C546.82 107 544.804 108.6 544.804 113.176V119H540.1V102.872H544.804V105.656C545.54 103.928 547.62 102.616 549.54 102.616C550.084 102.616 550.82 102.712 551.268 102.872L550.98 107.384ZM569.836 115.48C573.772 115.48 576.012 117.176 576.012 120.088C576.012 123.832 572.236 125.08 567.98 125.08C563.148 125.08 559.916 123.672 559.916 120.44C559.916 119.448 560.492 118.232 561.42 117.432C560.812 116.824 560.46 116.088 560.46 115.256C560.46 113.688 561.388 112.536 562.828 111.896C561.9 110.968 561.356 109.688 561.356 108.184C561.356 104.824 564.044 102.616 567.948 102.616C569.036 102.616 569.996 102.776 570.86 103.096L573.164 100.504L575.884 102.872L573.708 105.304C574.252 106.104 574.54 107.096 574.54 108.184C574.54 111.544 571.884 113.72 567.948 113.72C567.212 113.72 566.54 113.656 565.9 113.496C565.26 113.816 564.908 114.232 564.908 114.648C564.908 115.224 565.452 115.48 566.316 115.48H569.836ZM567.948 106.168C566.604 106.168 565.676 106.968 565.676 108.184C565.676 109.368 566.604 110.168 567.948 110.168C569.228 110.168 570.188 109.368 570.188 108.184C570.188 106.968 569.228 106.168 567.948 106.168ZM567.98 121.368C570.508 121.368 571.468 120.984 571.468 120.12C571.468 119.224 570.54 119.064 569.004 119.064H566.252C565.772 119.064 565.324 119.032 564.876 118.968C564.556 119.384 564.46 119.704 564.46 120.12C564.46 120.984 565.26 121.368 567.98 121.368ZM585.423 119.128C581.487 119.768 578.287 118.264 578.287 113.944V96.344H582.991V113.272C582.991 115.16 583.823 115.16 585.103 115.16L585.423 119.128ZM594.31 102.616C598.694 102.616 601.67 104.888 601.67 109.432V119H597.126V116.952C596.198 118.36 594.374 119.256 592.582 119.256C589.446 119.256 587.238 117.144 587.238 114.456C587.238 111.256 589.574 109.528 594.214 109.048L597.126 108.76V108.664C597.126 107.064 596.038 106.104 594.31 106.104C592.774 106.104 591.654 107.032 591.494 108.6L587.398 107.832C587.91 104.664 590.854 102.616 594.31 102.616ZM593.734 115.896C595.846 115.896 597.094 114.2 597.126 112.312V112.28V112.184V112.056L594.118 112.408C592.518 112.568 591.718 113.368 591.718 114.296C591.718 115.192 592.422 115.896 593.734 115.896ZM611.079 119.256C607.143 119.256 604.711 116.856 603.879 114.424L607.655 112.952C608.039 114.456 609.287 115.704 611.079 115.704C612.327 115.704 613.159 115.096 613.159 114.2C613.159 111.672 604.615 113.368 604.615 107.256C604.615 104.728 606.823 102.616 610.375 102.616C613.671 102.616 616.391 104.216 617.127 106.552L613.351 108.12C612.935 106.648 611.623 105.976 610.535 105.976C609.479 105.976 608.743 106.424 608.743 107.128C608.743 109.688 617.415 107.576 617.415 114.104C617.415 116.888 614.855 119.256 611.079 119.256ZM625.829 119.256C621.893 119.256 619.461 116.856 618.629 114.424L622.405 112.952C622.789 114.456 624.037 115.704 625.829 115.704C627.077 115.704 627.909 115.096 627.909 114.2C627.909 111.672 619.365 113.368 619.365 107.256C619.365 104.728 621.573 102.616 625.125 102.616C628.421 102.616 631.141 104.216 631.877 106.552L628.101 108.12C627.685 106.648 626.373 105.976 625.285 105.976C624.229 105.976 623.493 106.424 623.493 107.128C623.493 109.688 632.165 107.576 632.165 114.104C632.165 116.888 629.605 119.256 625.829 119.256Z" fill="#53585C"/>
    <rect x="446.457" y="154.1" width="142.679" height="142.679" rx="6.71433" fill="#B7CDE1"/>
    <rect x="736.651" y="154.1" width="142.679" height="142.679" rx="6.71433" fill="#FEB452"/>
    <g style="mix-blend-mode:multiply">
        <rect x="543.814" y="154.1" width="142.679" height="142.679" rx="6.71433" fill="#42CACD"/>
    </g>
    <g style="mix-blend-mode:multiply">
        <rect x="834.008" y="154.1" width="142.679" height="142.679" rx="6.71433" fill="#FE90A0"/>
    </g>
    <path d="M447.103 392V380.297H451.701C453.841 380.297 455.379 381.367 455.379 383.306C455.379 384.41 454.677 385.246 453.958 385.613C455.062 386.031 455.948 386.968 455.948 388.522C455.948 390.713 454.309 392 451.868 392H447.103ZM449.377 384.861H451.534C452.688 384.861 453.256 384.359 453.256 383.49C453.256 382.604 452.688 382.119 451.501 382.119H449.377V384.861ZM449.377 390.027H451.634C453.106 390.027 453.791 389.475 453.791 388.422C453.791 387.352 453.106 386.784 451.634 386.784H449.377V390.027ZM465.213 392L464.26 389.409H459.729L458.776 392H456.436L460.933 380.297H463.057L467.554 392H465.213ZM460.448 387.486H463.558L462.003 383.273L460.448 387.486ZM472.37 392.134C470.063 392.134 468.14 390.579 467.856 388.456L469.879 387.837C470.063 389.241 471.15 390.194 472.454 390.194C473.674 390.194 474.477 389.609 474.477 388.723C474.477 386.199 468.274 387.62 468.274 383.373C468.274 381.5 470.029 380.163 472.337 380.163C474.56 380.163 476.316 381.35 476.684 383.122L474.644 383.958C474.41 382.821 473.557 382.102 472.337 382.102C471.216 382.102 470.531 382.587 470.531 383.373C470.531 385.496 476.784 383.925 476.784 388.673C476.784 390.746 475.012 392.134 472.37 392.134ZM478.403 392V380.297H486.227V382.253H480.676V384.828H485.124V386.8H480.676V390.027H486.411V392H478.403Z" fill="#091016"/>
    <path d="M447.714 448V431.565H458.232V433.467H449.85V438.491H456.706V440.417H449.85V448H447.714ZM463.658 435.979C466.523 435.979 468.518 437.67 468.518 440.417V448H466.546V445.981C465.865 447.343 464.316 448.188 462.602 448.188C460.231 448.188 458.611 446.732 458.611 444.69C458.611 442.412 460.465 441.168 464.245 440.792L466.546 440.534V440.299C466.546 438.679 465.396 437.646 463.658 437.646C462.038 437.646 460.888 438.609 460.724 440.205L458.869 439.853C459.221 437.505 461.17 435.979 463.658 435.979ZM462.907 446.544C465.208 446.544 466.546 445.018 466.546 442.647V442.083L464.245 442.342C461.851 442.6 460.606 443.422 460.606 444.666C460.606 445.77 461.545 446.544 462.907 446.544ZM476.788 448.188C473.101 448.188 471.082 445.558 471.082 442.083C471.082 438.609 473.101 435.979 476.764 435.979C478.337 435.979 479.887 436.754 480.638 437.857V431.377H482.634V448H480.638V446.286C480.098 447.366 478.525 448.188 476.788 448.188ZM476.975 446.403C479.3 446.403 480.826 444.69 480.826 442.083C480.826 439.477 479.3 437.763 476.975 437.763C474.651 437.763 473.125 439.477 473.125 442.083C473.125 444.69 474.651 446.403 476.975 446.403ZM496.57 441.543C496.57 441.825 496.547 442.248 496.523 442.459H487.179C487.32 444.854 488.822 446.427 490.959 446.427C492.766 446.427 494.011 445.582 494.363 444.103L496.241 444.549C495.654 446.85 493.682 448.188 490.959 448.188C487.413 448.188 485.183 445.441 485.183 442.083C485.183 438.726 487.343 435.979 490.912 435.979C494.41 435.979 496.57 438.491 496.57 441.543ZM487.296 440.792H494.457C494.269 438.984 493.001 437.646 490.912 437.646C489.057 437.646 487.695 438.82 487.296 440.792ZM504.164 448.188C500.477 448.188 498.458 445.558 498.458 442.083C498.458 438.609 500.477 435.979 504.14 435.979C505.713 435.979 507.263 436.754 508.014 437.857V431.377H510.01V448H508.014V446.286C507.474 447.366 505.901 448.188 504.164 448.188ZM504.351 446.403C506.676 446.403 508.202 444.69 508.202 442.083C508.202 439.477 506.676 437.763 504.351 437.763C502.027 437.763 500.501 439.477 500.501 442.083C500.501 444.69 502.027 446.403 504.351 446.403ZM518.997 448V431.565H521.58L527.121 444.901L532.661 431.565H535.244V448H533.131V435.603L528.013 448H526.228L521.087 435.603V448H518.997ZM539.539 433.937C538.74 433.937 538.153 433.326 538.153 432.551C538.153 431.753 538.74 431.143 539.539 431.143C540.36 431.143 540.971 431.753 540.971 432.551C540.971 433.326 540.36 433.937 539.539 433.937ZM538.552 448V436.167H540.548V448H538.552ZM543.78 448V436.167H545.776V438.397C546.597 436.989 548.03 435.979 549.837 435.979C552.303 435.979 554.063 437.646 554.063 440.158V448H552.068V440.534C552.068 438.937 551.058 437.787 549.391 437.787C547.184 437.787 545.776 439.689 545.776 442.811V448H543.78ZM563.388 445.699C565.76 445.699 567.403 446.685 567.403 448.869C567.403 451.24 565.196 452.461 561.956 452.461C558.599 452.461 556.509 451.263 556.509 449.08C556.509 448.047 557.073 447.202 557.777 446.662C557.19 446.263 556.838 445.676 556.838 444.83C556.838 443.797 557.519 443.023 558.434 442.6C557.801 441.919 557.448 441.027 557.448 439.97C557.448 437.576 559.374 435.979 561.933 435.979C562.708 435.979 563.435 436.143 564.093 436.449L565.948 434.852L567.098 436.167L565.525 437.505C566.088 438.163 566.417 439.008 566.417 439.97C566.417 442.412 564.515 443.962 561.933 443.962C561.088 443.962 560.36 443.797 559.726 443.516C559.045 443.821 558.763 444.22 558.763 444.713C558.763 445.441 559.444 445.699 560.219 445.699H563.388ZM561.933 437.599C560.571 437.599 559.397 438.491 559.397 439.97C559.397 441.473 560.571 442.342 561.933 442.342C563.294 442.342 564.468 441.473 564.468 439.97C564.468 438.491 563.294 437.599 561.933 437.599ZM561.956 450.77C564.21 450.77 565.454 450.137 565.454 449.01C565.454 447.742 564.515 447.319 563.107 447.319H560.594C560.172 447.319 559.773 447.296 559.397 447.249C558.669 447.742 558.458 448.376 558.458 449.057C558.458 450.137 559.655 450.77 561.956 450.77Z" fill="#53585C"/>
    <rect x="446" y="461.5" width="24" height="24" rx="1" fill="#B7CDE1"/>
    <path d="M494.237 473.022H490.974L490.199 476.543H493.204V478.14H489.847L488.767 483H487.077L488.157 478.14H484.353L483.273 483H481.583L482.663 478.14H479.704V476.543H483.015L483.79 473.022H480.737V471.425H484.142L485.222 466.565H486.889L485.809 471.425H489.636L490.716 466.565H492.406L491.326 471.425H494.237V473.022ZM488.509 476.543L489.283 473.022H485.48L484.705 476.543H488.509ZM502.401 483.188C500.664 483.188 499.091 482.366 498.551 481.286V483H496.555V466.377H498.551V472.857C499.302 471.754 500.851 470.979 502.425 470.979C506.087 470.979 508.106 473.609 508.106 477.083C508.106 480.558 506.087 483.188 502.401 483.188ZM502.213 481.403C504.538 481.403 506.064 479.69 506.064 477.083C506.064 474.477 504.538 472.763 502.213 472.763C499.889 472.763 498.386 474.477 498.386 477.083C498.386 479.69 499.889 481.403 502.213 481.403ZM511.689 483C512.229 478.281 515.351 472.998 518.99 468.467H509.763V466.565H521.197V468.467C517.464 473.28 514.271 478.539 513.872 483H511.689ZM528.753 483.188C525.231 483.188 522.883 480.746 522.883 477.083C522.883 473.421 525.231 470.979 528.753 470.979C531.5 470.979 533.519 472.482 533.942 474.83L531.969 475.229C531.711 473.797 530.467 472.763 528.8 472.763C526.475 472.763 524.973 474.477 524.973 477.083C524.973 479.69 526.475 481.403 528.8 481.403C530.467 481.403 531.688 480.488 532.016 478.915L533.965 479.314C533.448 481.756 531.476 483.188 528.753 483.188ZM541.474 483.188C537.788 483.188 535.769 480.558 535.769 477.083C535.769 473.609 537.788 470.979 541.451 470.979C543.024 470.979 544.573 471.754 545.324 472.857V466.377H547.32V483H545.324V481.286C544.784 482.366 543.211 483.188 541.474 483.188ZM541.662 481.403C543.986 481.403 545.512 479.69 545.512 477.083C545.512 474.477 543.986 472.763 541.662 472.763C539.337 472.763 537.811 474.477 537.811 477.083C537.811 479.69 539.337 481.403 541.662 481.403ZM561.256 476.543C561.256 476.825 561.233 477.248 561.21 477.459H551.865C552.006 479.854 553.509 481.427 555.645 481.427C557.453 481.427 558.697 480.582 559.05 479.103L560.928 479.549C560.341 481.85 558.369 483.188 555.645 483.188C552.1 483.188 549.87 480.441 549.87 477.083C549.87 473.726 552.03 470.979 555.598 470.979C559.096 470.979 561.256 473.491 561.256 476.543ZM551.983 475.792H559.143C558.956 473.984 557.688 472.646 555.598 472.646C553.743 472.646 552.382 473.82 551.983 475.792ZM566.62 483V469.242C565.493 470.275 564.272 470.791 562.722 471.073V469.171C564.366 468.819 565.798 467.974 566.948 466.565H568.639V483H566.62Z" fill="#B3B3B3"/>
    <path d="M702.12 392V380.297H706.835C709.209 380.297 710.73 381.701 710.73 383.875C710.73 386.031 709.209 387.436 706.835 387.436H704.394V392H702.12ZM704.394 385.48H706.634C707.771 385.48 708.457 384.878 708.457 383.875C708.457 382.855 707.771 382.253 706.634 382.253H704.394V385.48ZM721.724 392H719.066L716.307 387.202H714.451V392H712.178L712.161 380.297H716.675C718.966 380.297 720.454 381.651 720.454 383.758C720.454 385.078 719.768 386.199 718.615 386.767L721.724 392ZM714.451 382.253V385.246H716.324C717.494 385.246 718.163 384.694 718.163 383.758C718.163 382.821 717.494 382.253 716.324 382.253H714.451ZM723.035 392V380.297H725.309V392H723.035ZM727.509 392V380.297H730.067L733.644 388.773L737.222 380.297H739.78V392H737.64V384.527L734.497 392H732.792L729.649 384.527V392H727.509ZM749.782 392L748.829 389.409H744.298L743.345 392H741.004L745.502 380.297H747.625L752.122 392H749.782ZM745.017 387.486H748.127L746.572 383.273L745.017 387.486ZM762.803 392H760.145L757.386 387.202H755.531V392H753.257L753.24 380.297H757.754C760.045 380.297 761.533 381.651 761.533 383.758C761.533 385.078 760.847 386.199 759.694 386.767L762.803 392ZM755.531 382.253V385.246H757.403C758.573 385.246 759.242 384.694 759.242 383.758C759.242 382.821 758.573 382.253 757.403 382.253H755.531ZM765.995 392V387.151L761.983 380.297H764.424L767.132 385.011L769.857 380.297H772.298L768.269 387.151V392H765.995Z" fill="#091016"/>
    <path d="M702.714 448V431.565H713.232V433.467H704.85V438.491H711.706V440.417H704.85V448H702.714ZM719.467 448.164C717.354 448.376 715.781 447.577 715.781 445.112V431.377H717.776V444.971C717.776 446.263 718.387 446.45 719.373 446.38L719.467 448.164ZM726.202 435.979C729.066 435.979 731.062 437.67 731.062 440.417V448H729.09V445.981C728.409 447.343 726.859 448.188 725.145 448.188C722.774 448.188 721.154 446.732 721.154 444.69C721.154 442.412 723.009 441.168 726.789 440.792L729.09 440.534V440.299C729.09 438.679 727.939 437.646 726.202 437.646C724.582 437.646 723.431 438.609 723.267 440.205L721.412 439.853C721.764 437.505 723.713 435.979 726.202 435.979ZM725.45 446.544C727.751 446.544 729.09 445.018 729.09 442.647V442.083L726.789 442.342C724.394 442.6 723.15 443.422 723.15 444.666C723.15 445.77 724.089 446.544 725.45 446.544ZM738.274 448.188C735.41 448.188 733.86 446.403 733.344 444.737L735.058 443.985C735.504 445.37 736.443 446.497 738.274 446.497C739.73 446.497 740.669 445.652 740.669 444.69C740.669 441.661 733.86 443.61 733.86 439.125C733.86 437.247 735.48 435.979 738.016 435.979C740.106 435.979 741.913 437.153 742.406 438.89L740.74 439.618C740.411 438.397 739.237 437.623 737.969 437.623C736.631 437.623 735.786 438.163 735.786 439.102C735.786 441.637 742.641 439.783 742.618 444.666C742.618 446.732 740.88 448.188 738.274 448.188ZM745.151 448V431.377H747.147V438.491C748.016 436.801 749.448 435.979 751.185 435.979C753.862 435.979 755.623 437.646 755.623 440.205V448H753.627V440.581C753.627 438.843 752.547 437.787 750.739 437.787C748.556 437.787 747.147 439.759 747.147 442.929V448H745.151ZM768.564 448V433.467H763.328V431.565H775.913V433.467H770.7V448H768.564ZM786.869 436.167V448H784.874V445.77C784.052 447.178 782.62 448.188 780.812 448.188C778.347 448.188 776.586 446.521 776.586 444.009V436.167H778.581V443.633C778.581 445.23 779.591 446.38 781.258 446.38C783.465 446.38 784.874 444.478 784.874 441.356V436.167H786.869ZM797.039 438.116C796.593 437.928 796.03 437.834 795.513 437.834C793.635 437.834 792.109 439.642 792.109 443.492V448H790.113V436.167H792.109V438.562C792.79 437.059 794.339 435.979 795.795 435.979C796.288 435.979 796.758 436.05 797.157 436.19L797.039 438.116ZM807.154 448L802.693 442.177L801.12 443.61V448H799.101V431.377H801.12V440.98L806.591 436.167H809.244L804.172 440.839L809.643 448H807.154Z" fill="#53585C"/>
    <rect x="701" y="461.5" width="24" height="24" rx="1" fill="#3FC4CA"/>
    <path d="M749.237 473.022H745.974L745.199 476.543H748.204V478.14H744.847L743.767 483H742.077L743.157 478.14H739.353L738.273 483H736.583L737.663 478.14H734.704V476.543H738.015L738.79 473.022H735.737V471.425H739.142L740.222 466.565H741.889L740.809 471.425H744.636L745.716 466.565H747.406L746.326 471.425H749.237V473.022ZM743.509 476.543L744.283 473.022H740.48L739.705 476.543H743.509ZM759.091 483V478.985H750.428V477.06L758.763 466.565H761.228V477.06H763.599V478.985H761.228V483H759.091ZM752.729 477.06H759.091V469.007L752.729 477.06ZM764.602 483L764.579 481.145L770.754 475.816C772.679 474.149 773.501 472.787 773.501 471.308C773.501 469.477 772.28 468.279 770.355 468.279C768.054 468.279 766.762 469.899 766.997 472.341L764.931 472.2C764.673 468.749 766.927 466.377 770.355 466.377C773.595 466.377 775.708 468.326 775.708 471.308C775.708 473.303 774.604 475.135 772.069 477.271L767.608 481.075H775.708V483H764.602ZM783.845 483.188C780.323 483.188 777.975 480.746 777.975 477.083C777.975 473.421 780.323 470.979 783.845 470.979C786.591 470.979 788.611 472.482 789.033 474.83L787.061 475.229C786.803 473.797 785.558 472.763 783.891 472.763C781.567 472.763 780.065 474.477 780.065 477.083C780.065 479.69 781.567 481.403 783.891 481.403C785.558 481.403 786.779 480.488 787.108 478.915L789.057 479.314C788.54 481.756 786.568 483.188 783.845 483.188ZM795.841 470.979C798.705 470.979 800.701 472.67 800.701 475.417V483H798.728V480.981C798.048 482.343 796.498 483.188 794.784 483.188C792.413 483.188 790.793 481.732 790.793 479.69C790.793 477.412 792.648 476.168 796.428 475.792L798.728 475.534V475.299C798.728 473.679 797.578 472.646 795.841 472.646C794.221 472.646 793.07 473.609 792.906 475.205L791.051 474.853C791.403 472.505 793.352 470.979 795.841 470.979ZM795.089 481.544C797.39 481.544 798.728 480.018 798.728 477.647V477.083L796.428 477.342C794.033 477.6 792.788 478.422 792.788 479.666C792.788 480.77 793.728 481.544 795.089 481.544ZM809.134 483.188C805.612 483.188 803.265 480.746 803.265 477.083C803.265 473.421 805.612 470.979 809.134 470.979C811.881 470.979 813.9 472.482 814.323 474.83L812.351 475.229C812.092 473.797 810.848 472.763 809.181 472.763C806.857 472.763 805.354 474.477 805.354 477.083C805.354 479.69 806.857 481.403 809.181 481.403C810.848 481.403 812.069 480.488 812.398 478.915L814.346 479.314C813.83 481.756 811.858 483.188 809.134 483.188ZM821.855 483.188C818.169 483.188 816.15 480.558 816.15 477.083C816.15 473.609 818.169 470.979 821.832 470.979C823.405 470.979 824.954 471.754 825.706 472.857V466.377H827.701V483H825.706V481.286C825.166 482.366 823.593 483.188 821.855 483.188ZM822.043 481.403C824.367 481.403 825.894 479.69 825.894 477.083C825.894 474.477 824.367 472.763 822.043 472.763C819.719 472.763 818.193 474.477 818.193 477.083C818.193 479.69 819.719 481.403 822.043 481.403Z" fill="#B3B3B3"/>
    <path d="M709.945 536.188C705.813 536.188 701.963 533.441 701.963 527.783C701.963 522.124 705.837 519.377 709.945 519.377C713.537 519.377 716.19 521.397 716.871 524.566L714.758 525.036C714.242 522.664 712.481 521.279 709.922 521.279C706.588 521.279 704.17 523.58 704.17 527.783C704.17 531.985 706.588 534.263 709.922 534.263C712.481 534.263 714.148 532.948 714.735 530.67L716.871 531.117C716.05 534.216 713.49 536.188 709.945 536.188ZM726.306 526.116C725.86 525.928 725.297 525.834 724.78 525.834C722.902 525.834 721.376 527.642 721.376 531.492V536H719.38V524.167H721.376V526.562C722.057 525.059 723.606 523.979 725.062 523.979C725.555 523.979 726.025 524.05 726.424 524.19L726.306 526.116ZM732.369 523.979C735.234 523.979 737.229 525.67 737.229 528.417V536H735.257V533.981C734.576 535.343 733.027 536.188 731.313 536.188C728.942 536.188 727.322 534.732 727.322 532.69C727.322 530.412 729.176 529.168 732.956 528.792L735.257 528.534V528.299C735.257 526.679 734.107 525.646 732.369 525.646C730.749 525.646 729.599 526.609 729.435 528.205L727.58 527.853C727.932 525.505 729.881 523.979 732.369 523.979ZM731.618 534.544C733.919 534.544 735.257 533.018 735.257 530.647V530.083L732.956 530.342C730.562 530.6 729.317 531.422 729.317 532.666C729.317 533.77 730.256 534.544 731.618 534.544ZM745.663 536.188C742.141 536.188 739.793 533.746 739.793 530.083C739.793 526.421 742.141 523.979 745.663 523.979C748.41 523.979 750.429 525.482 750.852 527.83L748.879 528.229C748.621 526.797 747.377 525.763 745.71 525.763C743.385 525.763 741.883 527.477 741.883 530.083C741.883 532.69 743.385 534.403 745.71 534.403C747.377 534.403 748.598 533.488 748.926 531.915L750.875 532.314C750.358 534.756 748.386 536.188 745.663 536.188ZM761.413 536L756.952 530.177L755.379 531.61V536H753.36V519.377H755.379V528.98L760.849 524.167H763.502L758.431 528.839L763.901 536H761.413ZM775.988 529.543C775.988 529.825 775.965 530.248 775.941 530.459H766.597C766.738 532.854 768.24 534.427 770.377 534.427C772.185 534.427 773.429 533.582 773.781 532.103L775.66 532.549C775.073 534.85 773.1 536.188 770.377 536.188C766.832 536.188 764.601 533.441 764.601 530.083C764.601 526.726 766.761 523.979 770.33 523.979C773.828 523.979 775.988 526.491 775.988 529.543ZM766.714 528.792H773.875C773.687 526.984 772.42 525.646 770.33 525.646C768.475 525.646 767.114 526.82 766.714 528.792ZM783.582 536.188C779.896 536.188 777.877 533.558 777.877 530.083C777.877 526.609 779.896 523.979 783.558 523.979C785.131 523.979 786.681 524.754 787.432 525.857V519.377H789.428V536H787.432V534.286C786.892 535.366 785.319 536.188 783.582 536.188ZM783.77 534.403C786.094 534.403 787.62 532.69 787.62 530.083C787.62 527.477 786.094 525.763 783.77 525.763C781.445 525.763 779.919 527.477 779.919 530.083C779.919 532.69 781.445 534.403 783.77 534.403ZM802.571 536V529.121L796.795 519.565H799.214L803.651 527.078L808.112 519.565H810.53L804.731 529.121V536H802.571ZM815.367 536.188C811.845 536.188 809.357 533.629 809.357 530.083C809.357 526.538 811.845 523.979 815.367 523.979C818.865 523.979 821.401 526.538 821.401 530.083C821.401 533.629 818.865 536.188 815.367 536.188ZM815.367 534.403C817.739 534.403 819.335 532.619 819.335 530.083C819.335 527.548 817.739 525.763 815.367 525.763C812.996 525.763 811.399 527.548 811.399 530.083C811.399 532.619 812.996 534.403 815.367 534.403ZM827.641 536.164C825.528 536.376 823.955 535.577 823.955 533.112V519.377H825.951V532.971C825.951 534.263 826.561 534.45 827.547 534.38L827.641 536.164ZM838.015 536L833.554 530.177L831.981 531.61V536H829.962V519.377H831.981V528.98L837.452 524.167H840.105L835.033 528.839L840.504 536H838.015Z" fill="#53585C"/>
    <rect x="701" y="549.5" width="24" height="24" rx="1" fill="#FEB452"/>
    <path d="M749.237 561.022H745.974L745.199 564.543H748.204V566.14H744.847L743.767 571H742.077L743.157 566.14H739.353L738.273 571H736.583L737.663 566.14H734.704V564.543H738.015L738.79 561.022H735.737V559.425H739.142L740.222 554.565H741.889L740.809 559.425H744.636L745.716 554.565H747.406L746.326 559.425H749.237V561.022ZM743.509 564.543L744.283 561.022H740.48L739.705 564.543H743.509ZM752.729 571V560.928H750.71V559.167H752.729V558.063C752.729 555.457 754.208 554.072 756.227 554.072C756.767 554.072 757.331 554.119 757.824 554.26L757.73 556.044C757.307 555.88 756.885 555.81 756.485 555.81C755.429 555.81 754.725 556.631 754.725 557.899V559.167H757.753V560.928H754.725V571H752.729ZM770.079 564.543C770.079 564.825 770.056 565.248 770.033 565.459H760.688C760.829 567.854 762.332 569.427 764.468 569.427C766.276 569.427 767.52 568.582 767.873 567.103L769.751 567.549C769.164 569.85 767.192 571.188 764.468 571.188C760.923 571.188 758.693 568.441 758.693 565.083C758.693 561.726 760.853 558.979 764.421 558.979C767.919 558.979 770.079 561.491 770.079 564.543ZM760.806 563.792H767.966C767.779 561.984 766.511 560.646 764.421 560.646C762.566 560.646 761.205 561.82 760.806 563.792ZM778.495 571.188C776.757 571.188 775.184 570.366 774.644 569.286V571H772.649V554.377H774.644V560.857C775.396 559.754 776.945 558.979 778.518 558.979C782.181 558.979 784.2 561.609 784.2 565.083C784.2 568.558 782.181 571.188 778.495 571.188ZM778.307 569.403C780.631 569.403 782.157 567.69 782.157 565.083C782.157 562.477 780.631 560.763 778.307 560.763C775.983 560.763 774.48 562.477 774.48 565.083C774.48 567.69 775.983 569.403 778.307 569.403ZM794.286 571V566.985H785.622V565.06L793.957 554.565H796.422V565.06H798.794V566.985H796.422V571H794.286ZM787.923 565.06H794.286V557.007L787.923 565.06ZM806.082 571.188C802.913 571.188 800.589 569.403 800.166 566.657L802.162 566.304C802.467 568.112 803.969 569.263 806.036 569.263C808.219 569.263 809.628 567.783 809.628 565.553C809.628 563.276 808.172 561.867 805.801 561.867C804.228 561.867 802.983 562.595 802.162 563.839L800.612 563.51L801.903 554.565H810.661V556.467H803.476L802.772 561.397C803.617 560.599 804.956 560.036 806.153 560.036C809.557 560.036 811.835 562.243 811.835 565.553C811.835 568.957 809.581 571.188 806.082 571.188ZM813.049 571L813.026 569.145L819.201 563.816C821.126 562.149 821.948 560.787 821.948 559.308C821.948 557.477 820.727 556.279 818.801 556.279C816.501 556.279 815.209 557.899 815.444 560.341L813.378 560.2C813.12 556.749 815.374 554.377 818.801 554.377C822.041 554.377 824.155 556.326 824.155 559.308C824.155 561.303 823.051 563.135 820.515 565.271L816.055 569.075H824.155V571H813.049Z" fill="#B3B3B3"/>
    <path d="M974.949 392.134C972.642 392.134 970.719 390.579 970.435 388.456L972.458 387.837C972.642 389.241 973.728 390.194 975.032 390.194C976.253 390.194 977.055 389.609 977.055 388.723C977.055 386.199 970.853 387.62 970.853 383.373C970.853 381.5 972.608 380.163 974.915 380.163C977.139 380.163 978.895 381.35 979.262 383.122L977.223 383.958C976.989 382.821 976.136 382.102 974.915 382.102C973.795 382.102 973.11 382.587 973.11 383.373C973.11 385.496 979.363 383.925 979.363 388.673C979.363 390.746 977.59 392.134 974.949 392.134ZM980.981 392V380.297H988.806V382.253H983.255V384.828H987.702V386.8H983.255V390.027H988.99V392H980.981ZM995.571 392.134C992.478 392.134 989.753 390.111 989.753 386.148C989.753 382.186 992.529 380.163 995.571 380.163C998.38 380.163 1000.37 381.701 1000.77 384.058L998.514 384.527C998.213 383.039 997.076 382.119 995.571 382.119C993.599 382.119 992.06 383.523 992.06 386.148C992.06 388.773 993.582 390.161 995.571 390.161C997.093 390.161 998.146 389.325 998.447 387.954L1000.74 388.456C1000.17 390.746 998.263 392.134 995.571 392.134ZM1007.9 392.134C1004.47 392.134 1001.97 389.609 1001.97 386.148C1001.97 382.688 1004.47 380.163 1007.9 380.163C1011.31 380.163 1013.82 382.688 1013.82 386.148C1013.82 389.609 1011.31 392.134 1007.9 392.134ZM1007.9 390.161C1010.02 390.161 1011.53 388.472 1011.53 386.148C1011.53 383.824 1010.02 382.119 1007.9 382.119C1005.78 382.119 1004.26 383.824 1004.26 386.148C1004.26 388.472 1005.78 390.161 1007.9 390.161ZM1015.51 392V380.297H1017.82L1022.84 388.422V380.297H1024.96V392H1022.65L1017.65 383.891V392H1015.51ZM1027.19 392V380.297H1031.02C1034.24 380.297 1037.02 382.219 1037.02 386.148C1037.02 390.077 1034.24 392 1031.02 392H1027.19ZM1029.43 390.027H1030.82C1032.82 390.027 1034.71 389.007 1034.71 386.148C1034.71 383.289 1032.82 382.253 1030.82 382.253H1029.43V390.027ZM1046.02 392L1045.06 389.409H1040.53L1039.58 392H1037.24L1041.74 380.297H1043.86L1048.36 392H1046.02ZM1041.25 387.486H1044.36L1042.81 383.273L1041.25 387.486ZM1059.04 392H1056.38L1053.62 387.202H1051.76V392H1049.49L1049.47 380.297H1053.99C1056.28 380.297 1057.77 381.651 1057.77 383.758C1057.77 385.078 1057.08 386.199 1055.93 386.767L1059.04 392ZM1051.76 382.253V385.246H1053.64C1054.81 385.246 1055.48 384.694 1055.48 383.758C1055.48 382.821 1054.81 382.253 1053.64 382.253H1051.76ZM1062.23 392V387.151L1058.22 380.297H1060.66L1063.37 385.011L1066.09 380.297H1068.53L1064.5 387.151V392H1062.23Z" fill="#091016"/>
    <path d="M976.926 448.188C973.757 448.188 971.221 446.145 970.681 443.14L972.7 442.483C973.029 444.783 974.79 446.286 976.973 446.286C979.227 446.286 980.683 445.23 980.683 443.586C980.683 439.196 971.338 441.497 971.338 435.674C971.338 433.115 973.639 431.377 976.879 431.377C979.884 431.377 982.209 432.997 982.631 435.439L980.683 436.19C980.354 434.406 978.945 433.279 976.879 433.279C974.766 433.279 973.498 434.195 973.498 435.674C973.498 439.43 982.89 436.989 982.89 443.563C982.89 446.357 980.518 448.188 976.926 448.188ZM989.791 435.979C992.655 435.979 994.651 437.67 994.651 440.417V448H992.679V445.981C991.998 447.343 990.448 448.188 988.734 448.188C986.363 448.188 984.743 446.732 984.743 444.69C984.743 442.412 986.598 441.168 990.378 440.792L992.679 440.534V440.299C992.679 438.679 991.528 437.646 989.791 437.646C988.171 437.646 987.02 438.609 986.856 440.205L985.001 439.853C985.353 437.505 987.302 435.979 989.791 435.979ZM989.039 446.544C991.34 446.544 992.679 445.018 992.679 442.647V442.083L990.378 442.342C987.983 442.6 986.739 443.422 986.739 444.666C986.739 445.77 987.678 446.544 989.039 446.544ZM1001.58 448.164C999.469 448.376 997.895 447.577 997.895 445.112V431.377H999.891V444.971C999.891 446.263 1000.5 446.45 1001.49 446.38L1001.58 448.164ZM1003.9 448V436.167H1005.9V438.397C1006.49 436.989 1007.66 435.979 1009.47 435.979C1011.39 435.979 1012.89 436.871 1013.32 438.468C1013.95 437.059 1015.36 435.979 1017.14 435.979C1019.68 435.979 1021.28 437.576 1021.28 440.064V448H1019.28V440.463C1019.28 438.843 1018.37 437.74 1016.7 437.74C1014.68 437.74 1013.58 439.548 1013.58 442.06V448H1011.58V440.463C1011.58 438.843 1010.66 437.74 1009.02 437.74C1007 437.74 1005.9 439.548 1005.9 442.06V448H1003.9ZM1029.84 448.188C1026.32 448.188 1023.83 445.629 1023.83 442.083C1023.83 438.538 1026.32 435.979 1029.84 435.979C1033.34 435.979 1035.88 438.538 1035.88 442.083C1035.88 445.629 1033.34 448.188 1029.84 448.188ZM1029.84 446.403C1032.22 446.403 1033.81 444.619 1033.81 442.083C1033.81 439.548 1032.22 437.763 1029.84 437.763C1027.47 437.763 1025.88 439.548 1025.88 442.083C1025.88 444.619 1027.47 446.403 1029.84 446.403ZM1038.43 448V436.167H1040.43V438.397C1041.25 436.989 1042.68 435.979 1044.49 435.979C1046.95 435.979 1048.72 437.646 1048.72 440.158V448H1046.72V440.534C1046.72 438.937 1045.71 437.787 1044.04 437.787C1041.84 437.787 1040.43 439.689 1040.43 442.811V448H1038.43ZM1070.49 448H1067.98L1063.54 440.675H1059.85V448H1057.72V431.565H1063.63C1066.76 431.565 1068.8 433.373 1068.8 436.12C1068.8 438.139 1067.65 439.689 1065.75 440.346L1070.49 448ZM1059.85 433.467V438.75H1063.4C1065.42 438.75 1066.62 437.787 1066.62 436.12C1066.62 434.453 1065.42 433.467 1063.4 433.467H1059.85ZM1077.19 448.188C1073.67 448.188 1071.18 445.629 1071.18 442.083C1071.18 438.538 1073.67 435.979 1077.19 435.979C1080.69 435.979 1083.22 438.538 1083.22 442.083C1083.22 445.629 1080.69 448.188 1077.19 448.188ZM1077.19 446.403C1079.56 446.403 1081.16 444.619 1081.16 442.083C1081.16 439.548 1079.56 437.763 1077.19 437.763C1074.82 437.763 1073.22 439.548 1073.22 442.083C1073.22 444.619 1074.82 446.403 1077.19 446.403ZM1096.06 436.167V448H1094.07V445.77C1093.24 447.178 1091.81 448.188 1090 448.188C1087.54 448.188 1085.78 446.521 1085.78 444.009V436.167H1087.77V443.633C1087.77 445.23 1088.78 446.38 1090.45 446.38C1092.66 446.38 1094.07 444.478 1094.07 441.356V436.167H1096.06ZM1105.39 445.699C1107.76 445.699 1109.4 446.685 1109.4 448.869C1109.4 451.24 1107.19 452.461 1103.95 452.461C1100.6 452.461 1098.51 451.263 1098.51 449.08C1098.51 448.047 1099.07 447.202 1099.78 446.662C1099.19 446.263 1098.84 445.676 1098.84 444.83C1098.84 443.797 1099.52 443.023 1100.43 442.6C1099.8 441.919 1099.45 441.027 1099.45 439.97C1099.45 437.576 1101.37 435.979 1103.93 435.979C1104.71 435.979 1105.43 436.143 1106.09 436.449L1107.95 434.852L1109.1 436.167L1107.52 437.505C1108.09 438.163 1108.42 439.008 1108.42 439.97C1108.42 442.412 1106.51 443.962 1103.93 443.962C1103.09 443.962 1102.36 443.797 1101.72 443.516C1101.04 443.821 1100.76 444.22 1100.76 444.713C1100.76 445.441 1101.44 445.699 1102.22 445.699H1105.39ZM1103.93 437.599C1102.57 437.599 1101.4 438.491 1101.4 439.97C1101.4 441.473 1102.57 442.342 1103.93 442.342C1105.29 442.342 1106.47 441.473 1106.47 439.97C1106.47 438.491 1105.29 437.599 1103.93 437.599ZM1103.95 450.77C1106.21 450.77 1107.45 450.137 1107.45 449.01C1107.45 447.742 1106.51 447.319 1105.11 447.319H1102.59C1102.17 447.319 1101.77 447.296 1101.4 447.249C1100.67 447.742 1100.46 448.376 1100.46 449.057C1100.46 450.137 1101.65 450.77 1103.95 450.77ZM1122.35 441.543C1122.35 441.825 1122.32 442.248 1122.3 442.459H1112.96C1113.1 444.854 1114.6 446.427 1116.74 446.427C1118.54 446.427 1119.79 445.582 1120.14 444.103L1122.02 444.549C1121.43 446.85 1119.46 448.188 1116.74 448.188C1113.19 448.188 1110.96 445.441 1110.96 442.083C1110.96 438.726 1113.12 435.979 1116.69 435.979C1120.19 435.979 1122.35 438.491 1122.35 441.543ZM1113.07 440.792H1120.23C1120.05 438.984 1118.78 437.646 1116.69 437.646C1114.83 437.646 1113.47 438.82 1113.07 440.792Z" fill="#53585C"/>
    <rect x="970" y="461.5" width="24" height="24" rx="1" fill="#FE90A0"/>
    <path d="M1018.24 473.022H1014.97L1014.2 476.543H1017.2V478.14H1013.85L1012.77 483H1011.08L1012.16 478.14H1008.35L1007.27 483H1005.58L1006.66 478.14H1003.7V476.543H1007.01L1007.79 473.022H1004.74V471.425H1008.14L1009.22 466.565H1010.89L1009.81 471.425H1013.64L1014.72 466.565H1016.41L1015.33 471.425H1018.24V473.022ZM1012.51 476.543L1013.28 473.022H1009.48L1008.71 476.543H1012.51ZM1021.73 483V472.928H1019.71V471.167H1021.73V470.063C1021.73 467.457 1023.21 466.072 1025.23 466.072C1025.77 466.072 1026.33 466.119 1026.82 466.26L1026.73 468.044C1026.31 467.88 1025.88 467.81 1025.49 467.81C1024.43 467.81 1023.72 468.631 1023.72 469.899V471.167H1026.75V472.928H1023.72V483H1021.73ZM1039.08 476.543C1039.08 476.825 1039.06 477.248 1039.03 477.459H1029.69C1029.83 479.854 1031.33 481.427 1033.47 481.427C1035.28 481.427 1036.52 480.582 1036.87 479.103L1038.75 479.549C1038.16 481.85 1036.19 483.188 1033.47 483.188C1029.92 483.188 1027.69 480.441 1027.69 477.083C1027.69 473.726 1029.85 470.979 1033.42 470.979C1036.92 470.979 1039.08 473.491 1039.08 476.543ZM1029.81 475.792H1036.97C1036.78 473.984 1035.51 472.646 1033.42 472.646C1031.57 472.646 1030.2 473.82 1029.81 475.792ZM1046.79 477.577C1043.41 477.577 1040.99 475.229 1040.99 471.989C1040.99 468.702 1043.48 466.377 1046.95 466.377C1050.62 466.377 1053.06 469.336 1053.06 473.89C1053.06 479.924 1049.87 483.188 1045.45 483.188C1043.81 483.188 1042.21 482.671 1040.97 481.685L1042.05 480.018C1043.03 480.863 1044.23 481.263 1045.48 481.263C1048.65 481.263 1050.99 478.68 1051.06 475.111C1050.31 476.614 1048.62 477.577 1046.79 477.577ZM1046.93 468.279C1044.72 468.279 1043.17 469.876 1043.15 472.059C1043.15 474.219 1044.72 475.769 1046.93 475.769C1049.14 475.769 1050.71 474.219 1050.71 472.059C1050.71 469.876 1049.14 468.279 1046.93 468.279ZM1061.27 483.188C1057.14 483.188 1054.98 479.83 1054.98 474.783C1054.98 469.735 1057.14 466.377 1061.27 466.377C1065.35 466.377 1067.56 469.735 1067.56 474.783C1067.56 479.83 1065.35 483.188 1061.27 483.188ZM1061.27 481.263C1063.92 481.263 1065.35 478.727 1065.35 474.783C1065.35 470.838 1063.92 468.279 1061.27 468.279C1058.57 468.279 1057.16 470.838 1057.16 474.783C1057.16 478.727 1058.57 481.263 1061.27 481.263ZM1074.54 470.979C1077.4 470.979 1079.4 472.67 1079.4 475.417V483H1077.43V480.981C1076.75 482.343 1075.2 483.188 1073.48 483.188C1071.11 483.188 1069.49 481.732 1069.49 479.69C1069.49 477.412 1071.35 476.168 1075.13 475.792L1077.43 475.534V475.299C1077.43 473.679 1076.28 472.646 1074.54 472.646C1072.92 472.646 1071.77 473.609 1071.6 475.205L1069.75 474.853C1070.1 472.505 1072.05 470.979 1074.54 470.979ZM1073.79 481.544C1076.09 481.544 1077.43 480.018 1077.43 477.647V477.083L1075.13 477.342C1072.73 477.6 1071.49 478.422 1071.49 479.666C1071.49 480.77 1072.43 481.544 1073.79 481.544ZM1088.28 483.188C1084.15 483.188 1081.99 479.83 1081.99 474.783C1081.99 469.735 1084.15 466.377 1088.28 466.377C1092.36 466.377 1094.57 469.735 1094.57 474.783C1094.57 479.83 1092.36 483.188 1088.28 483.188ZM1088.28 481.263C1090.93 481.263 1092.36 478.727 1092.36 474.783C1092.36 470.838 1090.93 468.279 1088.28 468.279C1085.58 468.279 1084.17 470.838 1084.17 474.783C1084.17 478.727 1085.58 481.263 1088.28 481.263Z" fill="#B3B3B3"/>
    <path d="M982.96 536L981.34 531.821H974.038L972.418 536H970.211L976.715 519.565H978.663L985.19 536H982.96ZM974.766 529.919H980.612L977.701 522.383L974.766 529.919ZM986.182 536V534.474L993.484 525.928H986.605V524.167H996.02V525.693L988.812 534.239H996.067V536H986.182ZM1008.59 524.167V536H1006.6V533.77C1005.77 535.178 1004.34 536.188 1002.53 536.188C1000.07 536.188 998.308 534.521 998.308 532.009V524.167H1000.3V531.633C1000.3 533.23 1001.31 534.38 1002.98 534.38C1005.19 534.38 1006.6 532.478 1006.6 529.356V524.167H1008.59ZM1018.76 526.116C1018.32 525.928 1017.75 525.834 1017.24 525.834C1015.36 525.834 1013.83 527.642 1013.83 531.492V536H1011.84V524.167H1013.83V526.562C1014.51 525.059 1016.06 523.979 1017.52 523.979C1018.01 523.979 1018.48 524.05 1018.88 524.19L1018.76 526.116ZM1030.98 529.543C1030.98 529.825 1030.96 530.248 1030.93 530.459H1021.59C1021.73 532.854 1023.23 534.427 1025.37 534.427C1027.18 534.427 1028.42 533.582 1028.77 532.103L1030.65 532.549C1030.06 534.85 1028.09 536.188 1025.37 536.188C1021.82 536.188 1019.59 533.441 1019.59 530.083C1019.59 526.726 1021.75 523.979 1025.32 523.979C1028.82 523.979 1030.98 526.491 1030.98 529.543ZM1021.71 528.792H1028.87C1028.68 526.984 1027.41 525.646 1025.32 525.646C1023.47 525.646 1022.1 526.82 1021.71 528.792ZM1039.31 536V519.565H1045.27C1048.37 519.565 1050.29 521.115 1050.29 523.791C1050.29 525.317 1049.24 526.538 1048.13 527.008C1049.8 527.595 1051.02 528.91 1051.02 531.21C1051.02 534.169 1049 536 1045.62 536H1039.31ZM1041.44 526.327H1045.18C1047.12 526.327 1048.18 525.505 1048.18 523.862C1048.18 522.218 1047.12 521.397 1045.18 521.397H1041.44V526.327ZM1041.44 534.075H1045.27C1047.66 534.075 1048.88 533.065 1048.88 531.163C1048.88 529.238 1047.66 528.205 1045.27 528.205H1041.44V534.075ZM1057.3 536.164C1055.18 536.376 1053.61 535.577 1053.61 533.112V519.377H1055.61V532.971C1055.61 534.263 1056.22 534.45 1057.2 534.38L1057.3 536.164ZM1069.9 524.167V536H1067.91V533.77C1067.08 535.178 1065.65 536.188 1063.84 536.188C1061.38 536.188 1059.62 534.521 1059.62 532.009V524.167H1061.61V531.633C1061.61 533.23 1062.62 534.38 1064.29 534.38C1066.5 534.38 1067.91 532.478 1067.91 529.356V524.167H1069.9ZM1083.85 529.543C1083.85 529.825 1083.83 530.248 1083.8 530.459H1074.46C1074.6 532.854 1076.1 534.427 1078.24 534.427C1080.05 534.427 1081.29 533.582 1081.64 532.103L1083.52 532.549C1082.94 534.85 1080.96 536.188 1078.24 536.188C1074.69 536.188 1072.46 533.441 1072.46 530.083C1072.46 526.726 1074.62 523.979 1078.19 523.979C1081.69 523.979 1083.85 526.491 1083.85 529.543ZM1074.58 528.792H1081.74C1081.55 526.984 1080.28 525.646 1078.19 525.646C1076.34 525.646 1074.98 526.82 1074.58 528.792Z" fill="#53585C"/>
    <rect x="970" y="549.5" width="24" height="24" rx="1" fill="#1482FF"/>
    <path d="M1018.24 561.022H1014.97L1014.2 564.543H1017.2V566.14H1013.85L1012.77 571H1011.08L1012.16 566.14H1008.35L1007.27 571H1005.58L1006.66 566.14H1003.7V564.543H1007.01L1007.79 561.022H1004.74V559.425H1008.14L1009.22 554.565H1010.89L1009.81 559.425H1013.64L1014.72 554.565H1016.41L1015.33 559.425H1018.24V561.022ZM1012.51 564.543L1013.28 561.022H1009.48L1008.71 564.543H1012.51ZM1023.35 571V557.242C1022.22 558.275 1021 558.791 1019.45 559.073V557.171C1021.09 556.819 1022.53 555.974 1023.68 554.565H1025.37V571H1023.35ZM1036.23 571V566.985H1027.57V565.06L1035.9 554.565H1038.37V565.06H1040.74V566.985H1038.37V571H1036.23ZM1029.87 565.06H1036.23V557.007L1029.87 565.06ZM1048.24 571.188C1044.74 571.188 1042.34 569.263 1042.34 566.281C1042.34 564.356 1043.56 562.736 1045.44 562.149C1043.99 561.491 1043.02 560.153 1043.02 558.697C1043.02 556.138 1045.07 554.377 1048.24 554.377C1051.31 554.377 1053.35 556.138 1053.35 558.697C1053.35 560.153 1052.39 561.515 1050.94 562.149C1052.81 562.736 1054.03 564.356 1054.03 566.281C1054.03 569.263 1051.64 571.188 1048.24 571.188ZM1048.24 561.35C1050.04 561.35 1051.24 560.341 1051.26 558.768C1051.29 557.195 1050.07 556.185 1048.24 556.185C1046.31 556.185 1045.09 557.195 1045.11 558.768C1045.14 560.341 1046.36 561.35 1048.24 561.35ZM1048.21 569.333C1050.44 569.333 1051.87 568.112 1051.87 566.257C1051.87 564.403 1050.44 563.182 1048.21 563.182C1045.96 563.182 1044.5 564.403 1044.5 566.257C1044.5 568.112 1045.96 569.333 1048.21 569.333ZM1055.18 571L1055.15 569.145L1061.33 563.816C1063.25 562.149 1064.08 560.787 1064.08 559.308C1064.08 557.477 1062.86 556.279 1060.93 556.279C1058.63 556.279 1057.34 557.899 1057.57 560.341L1055.51 560.2C1055.25 556.749 1057.5 554.377 1060.93 554.377C1064.17 554.377 1066.28 556.326 1066.28 559.308C1066.28 561.303 1065.18 563.135 1062.64 565.271L1058.18 569.075H1066.28V571H1055.18ZM1070.4 571V560.928H1068.39V559.167H1070.4V558.063C1070.4 555.457 1071.88 554.072 1073.9 554.072C1074.44 554.072 1075.01 554.119 1075.5 554.26L1075.41 556.044C1074.98 555.88 1074.56 555.81 1074.16 555.81C1073.1 555.81 1072.4 556.631 1072.4 557.899V559.167H1075.43V560.928H1072.4V571H1070.4ZM1079 571V560.928H1076.98V559.167H1079V558.063C1079 555.457 1080.48 554.072 1082.5 554.072C1083.04 554.072 1083.6 554.119 1084.1 554.26L1084 556.044C1083.58 555.88 1083.16 555.81 1082.76 555.81C1081.7 555.81 1081 556.631 1081 557.899V559.167H1084.03V560.928H1081V571H1079Z" fill="#B3B3B3"/>
    <path d="M1242.8 392V382.253H1239.27V380.297H1248.6V382.253H1245.07V392H1242.8ZM1249.75 392V380.297H1257.58V382.253H1252.03V384.828H1256.47V386.8H1252.03V390.027H1257.76V392H1249.75ZM1269.01 392H1266.36L1263.6 387.202H1261.74V392H1259.47L1259.45 380.297H1263.97C1266.26 380.297 1267.74 381.651 1267.74 383.758C1267.74 385.078 1267.06 386.199 1265.9 386.767L1269.01 392ZM1261.74 382.253V385.246H1263.61C1264.78 385.246 1265.45 384.694 1265.45 383.758C1265.45 382.821 1264.78 382.253 1263.61 382.253H1261.74ZM1272.15 392V382.253H1268.62V380.297H1277.95V382.253H1274.43V392H1272.15ZM1279.11 392V380.297H1281.38V392H1279.11ZM1291.37 392L1290.42 389.409H1285.89L1284.94 392H1282.6L1287.09 380.297H1289.22L1293.71 392H1291.37ZM1286.61 387.486H1289.72L1288.16 383.273L1286.61 387.486ZM1304.4 392H1301.74L1298.98 387.202H1297.12V392H1294.85L1294.83 380.297H1299.35C1301.64 380.297 1303.12 381.651 1303.12 383.758C1303.12 385.078 1302.44 386.199 1301.29 386.767L1304.4 392ZM1297.12 382.253V385.246H1299C1300.17 385.246 1300.83 384.694 1300.83 383.758C1300.83 382.821 1300.17 382.253 1299 382.253H1297.12ZM1307.59 392V387.151L1303.57 380.297H1306.02L1308.72 385.011L1311.45 380.297H1313.89L1309.86 387.151V392H1307.59Z" fill="#091016"/>
    <path d="M1250.97 448L1245.03 439.595L1242.85 441.849V448H1240.71V431.565H1242.85V439.008L1250.03 431.565H1252.88L1246.54 438.092L1253.56 448H1250.97ZM1254.56 448V436.167H1256.56V438.397C1257.38 436.989 1258.81 435.979 1260.62 435.979C1263.08 435.979 1264.84 437.646 1264.84 440.158V448H1262.85V440.534C1262.85 438.937 1261.84 437.787 1260.17 437.787C1257.96 437.787 1256.56 439.689 1256.56 442.811V448H1254.56ZM1273.42 448.188C1269.9 448.188 1267.41 445.629 1267.41 442.083C1267.41 438.538 1269.9 435.979 1273.42 435.979C1276.92 435.979 1279.45 438.538 1279.45 442.083C1279.45 445.629 1276.92 448.188 1273.42 448.188ZM1273.42 446.403C1275.79 446.403 1277.39 444.619 1277.39 442.083C1277.39 439.548 1275.79 437.763 1273.42 437.763C1271.05 437.763 1269.45 439.548 1269.45 442.083C1269.45 444.619 1271.05 446.403 1273.42 446.403ZM1285.69 448.164C1283.58 448.376 1282.01 447.577 1282.01 445.112V431.377H1284V444.971C1284 446.263 1284.61 446.45 1285.6 446.38L1285.69 448.164ZM1291.7 448.164C1289.59 448.376 1288.01 447.577 1288.01 445.112V431.377H1290.01V444.971C1290.01 446.263 1290.62 446.45 1291.6 446.38L1291.7 448.164ZM1306.94 448.188C1302.85 448.188 1299.03 445.394 1299.03 439.783C1299.03 434.171 1302.88 431.377 1306.98 431.377C1310.65 431.377 1313.35 433.397 1314 436.566L1311.89 437.012C1311.42 434.688 1309.59 433.279 1306.98 433.279C1303.65 433.279 1301.23 435.603 1301.23 439.783C1301.23 443.962 1303.65 446.263 1306.96 446.263C1310.04 446.263 1311.99 444.267 1312.06 441.379H1306.33V439.524H1314.07V448H1312.13V445.464C1311.37 447.131 1309.26 448.188 1306.94 448.188ZM1324.03 438.116C1323.59 437.928 1323.02 437.834 1322.51 437.834C1320.63 437.834 1319.1 439.642 1319.1 443.492V448H1317.11V436.167H1319.1V438.562C1319.78 437.059 1321.33 435.979 1322.79 435.979C1323.28 435.979 1323.75 436.05 1324.15 436.19L1324.03 438.116ZM1336.25 441.543C1336.25 441.825 1336.23 442.248 1336.2 442.459H1326.86C1327 444.854 1328.5 446.427 1330.64 446.427C1332.45 446.427 1333.69 445.582 1334.04 444.103L1335.92 444.549C1335.34 446.85 1333.36 448.188 1330.64 448.188C1327.09 448.188 1324.86 445.441 1324.86 442.083C1324.86 438.726 1327.02 435.979 1330.59 435.979C1334.09 435.979 1336.25 438.491 1336.25 441.543ZM1326.98 440.792H1334.14C1333.95 438.984 1332.68 437.646 1330.59 437.646C1328.74 437.646 1327.38 438.82 1326.98 440.792ZM1349.53 441.543C1349.53 441.825 1349.5 442.248 1349.48 442.459H1340.14C1340.28 444.854 1341.78 446.427 1343.92 446.427C1345.72 446.427 1346.97 445.582 1347.32 444.103L1349.2 444.549C1348.61 446.85 1346.64 448.188 1343.92 448.188C1340.37 448.188 1338.14 445.441 1338.14 442.083C1338.14 438.726 1340.3 435.979 1343.87 435.979C1347.37 435.979 1349.53 438.491 1349.53 441.543ZM1340.25 440.792H1347.41C1347.23 438.984 1345.96 437.646 1343.87 437.646C1342.01 437.646 1340.65 438.82 1340.25 440.792ZM1352.1 448V436.167H1354.09V438.397C1354.91 436.989 1356.35 435.979 1358.15 435.979C1360.62 435.979 1362.38 437.646 1362.38 440.158V448H1360.38V440.534C1360.38 438.937 1359.37 437.787 1357.71 437.787C1355.5 437.787 1354.09 439.689 1354.09 442.811V448H1352.1Z" fill="#53585C"/>
    <rect x="1239" y="461.5" width="24" height="24" rx="1" fill="#36A168"/>
    <path d="M1287.24 473.022H1283.97L1283.2 476.543H1286.2V478.14H1282.85L1281.77 483H1280.08L1281.16 478.14H1277.35L1276.27 483H1274.58L1275.66 478.14H1272.7V476.543H1276.01L1276.79 473.022H1273.74V471.425H1277.14L1278.22 466.565H1279.89L1278.81 471.425H1282.64L1283.72 466.565H1285.41L1284.33 471.425H1287.24V473.022ZM1281.51 476.543L1282.28 473.022H1278.48L1277.71 476.543H1281.51ZM1294.39 483.188C1291.15 483.188 1288.83 481.31 1288.52 478.445L1290.54 478.14C1290.78 480.042 1292.3 481.263 1294.39 481.263C1296.67 481.263 1298.15 479.901 1298.15 477.835C1298.15 475.698 1296.79 474.454 1294.51 474.454C1293.9 474.454 1293.22 474.642 1292.7 474.97L1291.79 473.609L1296.97 468.467H1288.99V466.565H1299.49V468.42L1294.81 472.975C1298.05 472.67 1300.35 474.642 1300.35 477.882C1300.35 481.051 1298.01 483.188 1294.39 483.188ZM1308.58 471.989C1311.96 471.989 1314.38 474.337 1314.38 477.577C1314.38 480.863 1311.89 483.188 1308.41 483.188C1304.75 483.188 1302.31 480.23 1302.31 475.675C1302.31 469.641 1305.5 466.377 1309.92 466.377C1311.56 466.377 1313.16 466.894 1314.4 467.88L1313.32 469.547C1312.34 468.702 1311.14 468.279 1309.89 468.279C1306.72 468.279 1304.38 470.885 1304.31 474.454C1305.06 472.951 1306.75 471.989 1308.58 471.989ZM1308.44 481.263C1310.65 481.263 1312.19 479.69 1312.22 477.506C1312.22 475.346 1310.65 473.797 1308.44 473.797C1306.23 473.797 1304.66 475.346 1304.66 477.506C1304.66 479.69 1306.23 481.263 1308.44 481.263ZM1321.41 470.979C1324.28 470.979 1326.27 472.67 1326.27 475.417V483H1324.3V480.981C1323.62 482.343 1322.07 483.188 1320.36 483.188C1317.99 483.188 1316.37 481.732 1316.37 479.69C1316.37 477.412 1318.22 476.168 1322 475.792L1324.3 475.534V475.299C1324.3 473.679 1323.15 472.646 1321.41 472.646C1319.79 472.646 1318.64 473.609 1318.48 475.205L1316.62 474.853C1316.98 472.505 1318.92 470.979 1321.41 470.979ZM1320.66 481.544C1322.96 481.544 1324.3 480.018 1324.3 477.647V477.083L1322 477.342C1319.61 477.6 1318.36 478.422 1318.36 479.666C1318.36 480.77 1319.3 481.544 1320.66 481.544ZM1332.31 483V469.242C1331.19 470.275 1329.96 470.791 1328.41 471.073V469.171C1330.06 468.819 1331.49 467.974 1332.64 466.565H1334.33V483H1332.31ZM1343.27 471.989C1346.65 471.989 1349.07 474.337 1349.07 477.577C1349.07 480.863 1346.58 483.188 1343.1 483.188C1339.44 483.188 1337 480.23 1337 475.675C1337 469.641 1340.19 466.377 1344.61 466.377C1346.25 466.377 1347.85 466.894 1349.09 467.88L1348.01 469.547C1347.03 468.702 1345.83 468.279 1344.58 468.279C1341.41 468.279 1339.07 470.885 1339 474.454C1339.75 472.951 1341.44 471.989 1343.27 471.989ZM1343.13 481.263C1345.34 481.263 1346.88 479.69 1346.91 477.506C1346.91 475.346 1345.34 473.797 1343.13 473.797C1340.92 473.797 1339.35 475.346 1339.35 477.506C1339.35 479.69 1340.92 481.263 1343.13 481.263ZM1356.86 483.188C1353.36 483.188 1350.96 481.263 1350.96 478.281C1350.96 476.356 1352.18 474.736 1354.06 474.149C1352.61 473.491 1351.64 472.153 1351.64 470.697C1351.64 468.138 1353.69 466.377 1356.86 466.377C1359.93 466.377 1361.97 468.138 1361.97 470.697C1361.97 472.153 1361.01 473.515 1359.56 474.149C1361.43 474.736 1362.65 476.356 1362.65 478.281C1362.65 481.263 1360.26 483.188 1356.86 483.188ZM1356.86 473.35C1358.66 473.35 1359.86 472.341 1359.88 470.768C1359.91 469.195 1358.69 468.185 1356.86 468.185C1354.93 468.185 1353.71 469.195 1353.73 470.768C1353.76 472.341 1354.98 473.35 1356.86 473.35ZM1356.83 481.333C1359.06 481.333 1360.49 480.112 1360.49 478.257C1360.49 476.403 1359.06 475.182 1356.83 475.182C1354.58 475.182 1353.12 476.403 1353.12 478.257C1353.12 480.112 1354.58 481.333 1356.83 481.333Z" fill="#B3B3B3"/>
    <path d="M1240.71 536V519.565H1245.6C1250.2 519.565 1253.84 522.5 1253.84 527.783C1253.84 533.065 1250.2 536 1245.6 536H1240.71ZM1242.83 534.075H1245.53C1248.7 534.075 1251.63 532.267 1251.63 527.783C1251.63 523.298 1248.7 521.467 1245.53 521.467H1242.83V534.075ZM1260.83 523.979C1263.7 523.979 1265.69 525.67 1265.69 528.417V536H1263.72V533.981C1263.04 535.343 1261.49 536.188 1259.77 536.188C1257.4 536.188 1255.78 534.732 1255.78 532.69C1255.78 530.412 1257.64 529.168 1261.42 528.792L1263.72 528.534V528.299C1263.72 526.679 1262.57 525.646 1260.83 525.646C1259.21 525.646 1258.06 526.609 1257.9 528.205L1256.04 527.853C1256.39 525.505 1258.34 523.979 1260.83 523.979ZM1260.08 534.544C1262.38 534.544 1263.72 533.018 1263.72 530.647V530.083L1261.42 530.342C1259.02 530.6 1257.78 531.422 1257.78 532.666C1257.78 533.77 1258.72 534.544 1260.08 534.544ZM1274.95 525.975C1274.95 525.975 1274.62 525.881 1274.15 525.881C1272.29 525.881 1270.93 527.642 1270.93 531.492V536H1268.94V524.167H1270.93V526.562C1271.54 525.059 1272.95 523.979 1274.41 523.979C1274.81 523.979 1275.06 524.026 1275.06 524.026L1274.95 525.975ZM1284.06 535.906C1283.47 536.117 1282.83 536.188 1282.2 536.188C1280.18 536.188 1278.7 535.061 1278.7 532.455V525.928H1276.5V524.167H1278.7V520.575H1280.7V524.167H1283.87V525.928H1280.7V532.525C1280.7 533.77 1281.4 534.38 1282.44 534.38C1282.91 534.38 1283.45 534.31 1283.91 534.075L1284.06 535.906ZM1304.91 536H1302.4L1297.96 528.675H1294.28V536H1292.14V519.565H1298.06C1301.18 519.565 1303.22 521.373 1303.22 524.12C1303.22 526.139 1302.07 527.689 1300.17 528.346L1304.91 536ZM1294.28 521.467V526.75H1297.82C1299.84 526.75 1301.04 525.787 1301.04 524.12C1301.04 522.453 1299.84 521.467 1297.82 521.467H1294.28ZM1316.99 529.543C1316.99 529.825 1316.97 530.248 1316.94 530.459H1307.6C1307.74 532.854 1309.24 534.427 1311.38 534.427C1313.19 534.427 1314.43 533.582 1314.78 532.103L1316.66 532.549C1316.08 534.85 1314.1 536.188 1311.38 536.188C1307.84 536.188 1305.6 533.441 1305.6 530.083C1305.6 526.726 1307.76 523.979 1311.33 523.979C1314.83 523.979 1316.99 526.491 1316.99 529.543ZM1307.72 528.792H1314.88C1314.69 526.984 1313.42 525.646 1311.33 525.646C1309.48 525.646 1308.12 526.82 1307.72 528.792ZM1324.59 536.188C1320.9 536.188 1318.88 533.558 1318.88 530.083C1318.88 526.609 1320.9 523.979 1324.56 523.979C1326.13 523.979 1327.68 524.754 1328.44 525.857V519.377H1330.43V536H1328.44V534.286C1327.9 535.366 1326.32 536.188 1324.59 536.188ZM1324.77 534.403C1327.1 534.403 1328.62 532.69 1328.62 530.083C1328.62 527.477 1327.1 525.763 1324.77 525.763C1322.45 525.763 1320.92 527.477 1320.92 530.083C1320.92 532.69 1322.45 534.403 1324.77 534.403Z" fill="#53585C"/>
    <rect x="1239" y="549.5" width="24" height="24" rx="1" fill="#F05656"/>
    <path d="M1287.24 561.022H1283.97L1283.2 564.543H1286.2V566.14H1282.85L1281.77 571H1280.08L1281.16 566.14H1277.35L1276.27 571H1274.58L1275.66 566.14H1272.7V564.543H1276.01L1276.79 561.022H1273.74V559.425H1277.14L1278.22 554.565H1279.89L1278.81 559.425H1282.64L1283.72 554.565H1285.41L1284.33 559.425H1287.24V561.022ZM1281.51 564.543L1282.28 561.022H1278.48L1277.71 564.543H1281.51ZM1289.65 571V554.565H1300.17V556.467H1291.79V561.491H1298.64V563.417H1291.79V571H1289.65ZM1308.35 571.188C1304.22 571.188 1302.06 567.83 1302.06 562.783C1302.06 557.735 1304.22 554.377 1308.35 554.377C1312.44 554.377 1314.64 557.735 1314.64 562.783C1314.64 567.83 1312.44 571.188 1308.35 571.188ZM1308.35 569.263C1311 569.263 1312.44 566.727 1312.44 562.783C1312.44 558.838 1311 556.279 1308.35 556.279C1305.65 556.279 1304.24 558.838 1304.24 562.783C1304.24 566.727 1305.65 569.263 1308.35 569.263ZM1322.3 571.188C1319.13 571.188 1316.81 569.403 1316.38 566.657L1318.38 566.304C1318.69 568.112 1320.19 569.263 1322.25 569.263C1324.44 569.263 1325.85 567.783 1325.85 565.553C1325.85 563.276 1324.39 561.867 1322.02 561.867C1320.45 561.867 1319.2 562.595 1318.38 563.839L1316.83 563.51L1318.12 554.565H1326.88V556.467H1319.69L1318.99 561.397C1319.84 560.599 1321.17 560.036 1322.37 560.036C1325.78 560.036 1328.05 562.243 1328.05 565.553C1328.05 568.957 1325.8 571.188 1322.3 571.188ZM1336.25 559.989C1339.63 559.989 1342.05 562.337 1342.05 565.577C1342.05 568.863 1339.56 571.188 1336.09 571.188C1332.43 571.188 1329.98 568.23 1329.98 563.675C1329.98 557.641 1333.18 554.377 1337.59 554.377C1339.23 554.377 1340.83 554.894 1342.08 555.88L1341 557.547C1340.01 556.702 1338.81 556.279 1337.57 556.279C1334.4 556.279 1332.05 558.885 1331.98 562.454C1332.73 560.951 1334.42 559.989 1336.25 559.989ZM1336.11 569.263C1338.32 569.263 1339.87 567.69 1339.89 565.506C1339.89 563.346 1338.32 561.797 1336.11 561.797C1333.91 561.797 1332.33 563.346 1332.33 565.506C1332.33 567.69 1333.91 569.263 1336.11 569.263ZM1349.72 571.188C1346.55 571.188 1344.23 569.403 1343.81 566.657L1345.8 566.304C1346.11 568.112 1347.61 569.263 1349.68 569.263C1351.86 569.263 1353.27 567.783 1353.27 565.553C1353.27 563.276 1351.81 561.867 1349.44 561.867C1347.87 561.867 1346.62 562.595 1345.8 563.839L1344.25 563.51L1345.54 554.565H1354.3V556.467H1347.12L1346.41 561.397C1347.26 560.599 1348.6 560.036 1349.79 560.036C1353.2 560.036 1355.47 562.243 1355.47 565.553C1355.47 568.957 1353.22 571.188 1349.72 571.188ZM1363.68 559.989C1367.06 559.989 1369.47 562.337 1369.47 565.577C1369.47 568.863 1366.99 571.188 1363.51 571.188C1359.85 571.188 1357.41 568.23 1357.41 563.675C1357.41 557.641 1360.6 554.377 1365.01 554.377C1366.66 554.377 1368.25 554.894 1369.5 555.88L1368.42 557.547C1367.43 556.702 1366.23 556.279 1364.99 556.279C1361.82 556.279 1359.47 558.885 1359.4 562.454C1360.15 560.951 1361.84 559.989 1363.68 559.989ZM1363.53 569.263C1365.74 569.263 1367.29 567.69 1367.31 565.506C1367.31 563.346 1365.74 561.797 1363.53 561.797C1361.33 561.797 1359.75 563.346 1359.75 565.506C1359.75 567.69 1361.33 569.263 1363.53 569.263Z" fill="#B3B3B3"/>
</svg>
