<svg viewBox="0 0 1508 712" fill="none"
    xmlns="http://www.w3.org/2000/svg">
    <rect width="1508" height="712" fill="#22282D"/>
    <path d="M42.112 70V47.6H49.44C55.616 47.6 60.928 51.28 60.928 58.8C60.928 66.32 55.616 70 49.44 70H42.112ZM46.4 66.224H49.056C52.896 66.224 56.512 64.272 56.512 58.8C56.512 53.328 52.896 51.344 49.056 51.344H46.4V66.224ZM70.2225 53.616C74.4465 53.616 77.3265 55.888 77.3265 60.176V70H73.4225V67.664C72.5265 69.232 70.5745 70.256 68.5905 70.256C65.4225 70.256 63.2145 68.208 63.2145 65.456C63.2145 62.288 65.6145 60.592 70.4145 60.08L73.4225 59.792V59.632C73.4225 57.808 72.1745 56.688 70.2225 56.688C68.4625 56.688 67.2145 57.776 67.0225 59.504L63.4385 58.864C63.9505 55.664 66.7985 53.616 70.2225 53.616ZM69.4865 67.28C71.9825 67.28 73.4225 65.392 73.4225 63.024V62.672L70.3505 63.024C68.2065 63.28 67.1185 64.176 67.1185 65.328C67.1185 66.448 68.0145 67.28 69.4865 67.28ZM91.6645 57.776C91.0885 57.52 90.3205 57.392 89.6165 57.392C87.3445 57.392 85.2965 59.28 85.2965 64.08V70H81.2645V53.872H85.2965V56.816C86.0965 54.992 88.2085 53.616 90.1605 53.616C90.7365 53.616 91.4405 53.712 91.9205 53.872L91.6645 57.776ZM105.177 70L100.217 62.896L98.3285 64.752V70H94.2645V47.344H98.3285V59.6L104.409 53.872H109.529L102.969 60.24L110.041 70H105.177ZM129.458 69.84C128.658 70.128 127.794 70.256 126.866 70.256C123.602 70.256 121.17 68.496 121.17 64.72V57.264H118.45V53.872H121.17V49.136H125.202V53.872H129.266V57.264H125.202V64.336C125.202 65.872 126.034 66.704 127.282 66.704C127.89 66.704 128.594 66.608 129.17 66.32L129.458 69.84ZM133.046 70V47.344H137.078V56.368C138.134 54.608 139.958 53.616 142.198 53.616C145.814 53.616 148.214 55.92 148.214 59.44V70H144.182V60.432C144.182 58.448 142.966 57.2 140.982 57.2C138.486 57.2 137.078 59.344 137.078 62.992V70H133.046ZM167.308 61.392C167.308 61.968 167.276 62.672 167.244 62.992H155.276C155.628 65.424 157.196 66.864 159.5 66.864C161.388 66.864 162.732 65.968 163.148 64.4L166.924 65.424C166.028 68.464 163.212 70.256 159.436 70.256C154.092 70.256 151.244 66.128 151.244 61.936C151.244 57.744 153.868 53.616 159.212 53.616C164.652 53.616 167.308 57.648 167.308 61.392ZM155.372 60.048H162.988C162.796 58.128 161.548 56.688 159.212 56.688C157.228 56.688 155.82 57.872 155.372 60.048ZM170.358 70V53.872H174.39V56.336C175.286 54.736 176.79 53.616 179.03 53.616C181.59 53.616 183.318 54.704 184.054 56.656C184.918 55.024 186.838 53.616 189.398 53.616C192.886 53.616 195.158 55.888 195.158 59.056V70H191.126V60.176C191.126 58.256 190.07 57.04 188.182 57.04C186.006 57.04 184.758 58.928 184.758 61.776V70H180.726V60.176C180.726 58.256 179.702 57.04 177.846 57.04C175.638 57.04 174.39 58.96 174.39 61.808V70H170.358ZM214.277 61.392C214.277 61.968 214.245 62.672 214.213 62.992H202.245C202.597 65.424 204.165 66.864 206.469 66.864C208.357 66.864 209.701 65.968 210.117 64.4L213.893 65.424C212.997 68.464 210.181 70.256 206.405 70.256C201.061 70.256 198.213 66.128 198.213 61.936C198.213 57.744 200.837 53.616 206.181 53.616C211.621 53.616 214.277 57.648 214.277 61.392ZM202.341 60.048H209.957C209.765 58.128 208.517 56.688 206.181 56.688C204.197 56.688 202.789 57.872 202.341 60.048Z" fill="#B5B7B9"/>
    <path d="M461.456 212L459.524 207.016H450.816L448.884 212H446.252L454.008 192.4H456.332L464.116 212H461.456ZM451.684 204.748H458.656L455.184 195.76L451.684 204.748ZM472.162 212.224C467.766 212.224 465.358 209.088 465.358 204.944C465.358 200.8 467.766 197.664 472.134 197.664C474.01 197.664 475.858 198.588 476.754 199.904V192.176H479.134V212H476.754V209.956C476.11 211.244 474.234 212.224 472.162 212.224ZM472.386 210.096C475.158 210.096 476.978 208.052 476.978 204.944C476.978 201.836 475.158 199.792 472.386 199.792C469.614 199.792 467.794 201.836 467.794 204.944C467.794 208.052 469.614 210.096 472.386 210.096ZM488.979 212.224C484.583 212.224 482.175 209.088 482.175 204.944C482.175 200.8 484.583 197.664 488.951 197.664C490.827 197.664 492.675 198.588 493.571 199.904V192.176H495.951V212H493.571V209.956C492.927 211.244 491.051 212.224 488.979 212.224ZM489.203 210.096C491.975 210.096 493.795 208.052 493.795 204.944C493.795 201.836 491.975 199.792 489.203 199.792C486.431 199.792 484.611 201.836 484.611 204.944C484.611 208.052 486.431 210.096 489.203 210.096ZM511.821 197.664C515.237 197.664 517.617 199.68 517.617 202.956V212H515.265V209.592C514.453 211.216 512.605 212.224 510.561 212.224C507.733 212.224 505.801 210.488 505.801 208.052C505.801 205.336 508.013 203.852 512.521 203.404L515.265 203.096V202.816C515.265 200.884 513.893 199.652 511.821 199.652C509.889 199.652 508.517 200.8 508.321 202.704L506.109 202.284C506.529 199.484 508.853 197.664 511.821 197.664ZM510.925 210.264C513.669 210.264 515.265 208.444 515.265 205.616V204.944L512.521 205.252C509.665 205.56 508.181 206.54 508.181 208.024C508.181 209.34 509.301 210.264 510.925 210.264ZM531.377 212L527.065 197.888H529.501L532.553 208.668L535.857 197.888H538.153L541.457 208.668L544.481 197.888H546.973L542.633 212H540.309L537.005 201.276L533.701 212H531.377ZM549.623 212V192.176H552.003V200.66C553.039 198.644 554.747 197.664 556.819 197.664C560.011 197.664 562.111 199.652 562.111 202.704V212H559.731V203.152C559.731 201.08 558.443 199.82 556.287 199.82C553.683 199.82 552.003 202.172 552.003 205.952V212H549.623ZM567.151 195.228C566.199 195.228 565.499 194.5 565.499 193.576C565.499 192.624 566.199 191.896 567.151 191.896C568.131 191.896 568.859 192.624 568.859 193.576C568.859 194.5 568.131 195.228 567.151 195.228ZM565.975 212V197.888H568.355V212H565.975ZM579.713 211.888C579.013 212.14 578.257 212.224 577.501 212.224C575.093 212.224 573.329 210.88 573.329 207.772V199.988H570.697V197.888H573.329V193.604H575.709V197.888H579.489V199.988H575.709V207.856C575.709 209.34 576.549 210.068 577.781 210.068C578.341 210.068 578.985 209.984 579.545 209.704L579.713 211.888ZM594.903 204.3C594.903 204.636 594.875 205.14 594.847 205.392H583.703C583.871 208.248 585.663 210.124 588.211 210.124C590.367 210.124 591.851 209.116 592.271 207.352L594.511 207.884C593.811 210.628 591.459 212.224 588.211 212.224C583.983 212.224 581.323 208.948 581.323 204.944C581.323 200.94 583.899 197.664 588.155 197.664C592.327 197.664 594.903 200.66 594.903 204.3ZM583.843 203.404H592.383C592.159 201.248 590.647 199.652 588.155 199.652C585.943 199.652 584.319 201.052 583.843 203.404ZM611.693 212.224C609.621 212.224 607.745 211.244 607.101 209.956V212H604.721V192.176H607.101V199.904C607.997 198.588 609.845 197.664 611.721 197.664C616.089 197.664 618.497 200.8 618.497 204.944C618.497 209.088 616.089 212.224 611.693 212.224ZM611.469 210.096C614.241 210.096 616.061 208.052 616.061 204.944C616.061 201.836 614.241 199.792 611.469 199.792C608.697 199.792 606.905 201.836 606.905 204.944C606.905 208.052 608.697 210.096 611.469 210.096ZM626.665 197.664C630.081 197.664 632.461 199.68 632.461 202.956V212H630.109V209.592C629.297 211.216 627.449 212.224 625.405 212.224C622.577 212.224 620.645 210.488 620.645 208.052C620.645 205.336 622.857 203.852 627.365 203.404L630.109 203.096V202.816C630.109 200.884 628.737 199.652 626.665 199.652C624.733 199.652 623.361 200.8 623.165 202.704L620.953 202.284C621.373 199.484 623.697 197.664 626.665 197.664ZM625.769 210.264C628.513 210.264 630.109 208.444 630.109 205.616V204.944L627.365 205.252C624.509 205.56 623.025 206.54 623.025 208.024C623.025 209.34 624.145 210.264 625.769 210.264ZM641.062 212.224C637.646 212.224 635.798 210.096 635.182 208.108L637.226 207.212C637.758 208.864 638.878 210.208 641.062 210.208C642.798 210.208 643.918 209.2 643.918 208.052C643.918 204.44 635.798 206.764 635.798 201.416C635.798 199.176 637.73 197.664 640.754 197.664C643.246 197.664 645.402 199.064 645.99 201.136L644.002 202.004C643.61 200.548 642.21 199.624 640.698 199.624C639.102 199.624 638.094 200.268 638.094 201.388C638.094 204.412 646.27 202.2 646.242 208.024C646.242 210.488 644.17 212.224 641.062 212.224ZM661.923 204.3C661.923 204.636 661.895 205.14 661.867 205.392H650.723C650.891 208.248 652.683 210.124 655.231 210.124C657.387 210.124 658.871 209.116 659.291 207.352L661.531 207.884C660.831 210.628 658.479 212.224 655.231 212.224C651.003 212.224 648.343 208.948 648.343 204.944C648.343 200.94 650.919 197.664 655.175 197.664C659.347 197.664 661.923 200.66 661.923 204.3ZM650.863 203.404H659.403C659.179 201.248 657.667 199.652 655.175 199.652C652.963 199.652 651.339 201.052 650.863 203.404ZM679.245 211.888C678.545 212.14 677.789 212.224 677.033 212.224C674.625 212.224 672.861 210.88 672.861 207.772V199.988H670.229V197.888H672.861V193.604H675.241V197.888H679.021V199.988H675.241V207.856C675.241 209.34 676.081 210.068 677.313 210.068C677.873 210.068 678.517 209.984 679.077 209.704L679.245 211.888ZM688.022 212.224C683.822 212.224 680.854 209.172 680.854 204.944C680.854 200.716 683.822 197.664 688.022 197.664C692.194 197.664 695.218 200.716 695.218 204.944C695.218 209.172 692.194 212.224 688.022 212.224ZM688.022 210.096C690.85 210.096 692.754 207.968 692.754 204.944C692.754 201.92 690.85 199.792 688.022 199.792C685.194 199.792 683.29 201.92 683.29 204.944C683.29 207.968 685.194 210.096 688.022 210.096ZM710.282 197.664C713.698 197.664 716.078 199.68 716.078 202.956V212H713.726V209.592C712.914 211.216 711.066 212.224 709.022 212.224C706.194 212.224 704.262 210.488 704.262 208.052C704.262 205.336 706.474 203.852 710.982 203.404L713.726 203.096V202.816C713.726 200.884 712.354 199.652 710.282 199.652C708.35 199.652 706.978 200.8 706.782 202.704L704.57 202.284C704.99 199.484 707.314 197.664 710.282 197.664ZM709.386 210.264C712.13 210.264 713.726 208.444 713.726 205.616V204.944L710.982 205.252C708.126 205.56 706.642 206.54 706.642 208.024C706.642 209.34 707.762 210.264 709.386 210.264ZM724.344 212.196C721.824 212.448 719.948 211.496 719.948 208.556V192.176H722.328V208.388C722.328 209.928 723.056 210.152 724.232 210.068L724.344 212.196ZM731.508 212.196C728.988 212.448 727.112 211.496 727.112 208.556V192.176H729.492V208.388C729.492 209.928 730.22 210.152 731.396 210.068L731.508 212.196ZM748.534 211.888C747.834 212.14 747.078 212.224 746.322 212.224C743.914 212.224 742.15 210.88 742.15 207.772V199.988H739.518V197.888H742.15V193.604H744.53V197.888H748.31V199.988H744.53V207.856C744.53 209.34 745.37 210.068 746.602 210.068C747.162 210.068 747.806 209.984 748.366 209.704L748.534 211.888ZM751.557 212V192.176H753.937V200.66C754.973 198.644 756.681 197.664 758.753 197.664C761.945 197.664 764.045 199.652 764.045 202.704V212H761.665V203.152C761.665 201.08 760.377 199.82 758.221 199.82C755.617 199.82 753.937 202.172 753.937 205.952V212H751.557ZM780.677 204.3C780.677 204.636 780.649 205.14 780.621 205.392H769.477C769.645 208.248 771.437 210.124 773.985 210.124C776.141 210.124 777.625 209.116 778.045 207.352L780.285 207.884C779.585 210.628 777.233 212.224 773.985 212.224C769.757 212.224 767.097 208.948 767.097 204.944C767.097 200.94 769.673 197.664 773.929 197.664C778.101 197.664 780.677 200.66 780.677 204.3ZM769.617 203.404H778.157C777.933 201.248 776.421 199.652 773.929 199.652C771.717 199.652 770.093 201.052 769.617 203.404ZM795.227 212.224C791.811 212.224 789.963 210.096 789.347 208.108L791.391 207.212C791.923 208.864 793.043 210.208 795.227 210.208C796.963 210.208 798.083 209.2 798.083 208.052C798.083 204.44 789.963 206.764 789.963 201.416C789.963 199.176 791.895 197.664 794.919 197.664C797.411 197.664 799.567 199.064 800.155 201.136L798.167 202.004C797.775 200.548 796.375 199.624 794.863 199.624C793.267 199.624 792.258 200.268 792.258 201.388C792.258 204.412 800.435 202.2 800.407 208.024C800.407 210.488 798.335 212.224 795.227 212.224ZM803.428 212V192.176H805.808V200.66C806.844 198.644 808.552 197.664 810.624 197.664C813.816 197.664 815.916 199.652 815.916 202.704V212H813.536V203.152C813.536 201.08 812.248 199.82 810.092 199.82C807.488 199.82 805.808 202.172 805.808 205.952V212H803.428ZM825.044 197.664C828.46 197.664 830.84 199.68 830.84 202.956V212H828.488V209.592C827.676 211.216 825.828 212.224 823.784 212.224C820.956 212.224 819.024 210.488 819.024 208.052C819.024 205.336 821.236 203.852 825.744 203.404L828.488 203.096V202.816C828.488 200.884 827.116 199.652 825.044 199.652C823.112 199.652 821.74 200.8 821.544 202.704L819.332 202.284C819.752 199.484 822.076 197.664 825.044 197.664ZM824.148 210.264C826.892 210.264 828.488 208.444 828.488 205.616V204.944L825.744 205.252C822.888 205.56 821.404 206.54 821.404 208.024C821.404 209.34 822.524 210.264 824.148 210.264ZM834.709 217.096V197.888H837.089V199.932C837.845 198.644 839.693 197.664 841.737 197.664C846.077 197.664 848.485 200.8 848.485 204.944C848.485 209.088 846.021 212.224 841.681 212.224C839.889 212.224 838.041 211.328 837.089 210.04V217.096H834.709ZM841.457 210.096C844.257 210.096 846.077 208.052 846.077 204.944C846.077 201.836 844.257 199.792 841.457 199.792C838.713 199.792 836.893 201.836 836.893 204.944C836.893 208.052 838.713 210.096 841.457 210.096ZM864.294 204.3C864.294 204.636 864.266 205.14 864.238 205.392H853.094C853.262 208.248 855.054 210.124 857.602 210.124C859.758 210.124 861.242 209.116 861.662 207.352L863.902 207.884C863.202 210.628 860.85 212.224 857.602 212.224C853.374 212.224 850.714 208.948 850.714 204.944C850.714 200.94 853.29 197.664 857.546 197.664C861.718 197.664 864.294 200.66 864.294 204.3ZM853.234 203.404H861.774C861.55 201.248 860.038 199.652 857.546 199.652C855.334 199.652 853.71 201.052 853.234 203.404ZM871.953 212.224C868.537 212.224 866.689 210.096 866.073 208.108L868.117 207.212C868.649 208.864 869.769 210.208 871.953 210.208C873.689 210.208 874.809 209.2 874.809 208.052C874.809 204.44 866.689 206.764 866.689 201.416C866.689 199.176 868.621 197.664 871.645 197.664C874.137 197.664 876.293 199.064 876.881 201.136L874.893 202.004C874.501 200.548 873.101 199.624 871.589 199.624C869.993 199.624 868.985 200.268 868.985 201.388C868.985 204.412 877.161 202.2 877.133 208.024C877.133 210.488 875.061 212.224 871.953 212.224ZM894.413 211.888C893.713 212.14 892.957 212.224 892.201 212.224C889.793 212.224 888.029 210.88 888.029 207.772V199.988H885.397V197.888H888.029V193.604H890.409V197.888H894.189V199.988H890.409V207.856C890.409 209.34 891.249 210.068 892.481 210.068C893.041 210.068 893.685 209.984 894.245 209.704L894.413 211.888ZM897.436 212V192.176H899.816V200.66C900.852 198.644 902.56 197.664 904.632 197.664C907.824 197.664 909.924 199.652 909.924 202.704V212H907.544V203.152C907.544 201.08 906.256 199.82 904.1 199.82C901.496 199.82 899.816 202.172 899.816 205.952V212H897.436ZM919.051 197.664C922.467 197.664 924.847 199.68 924.847 202.956V212H922.495V209.592C921.683 211.216 919.835 212.224 917.791 212.224C914.963 212.224 913.031 210.488 913.031 208.052C913.031 205.336 915.243 203.852 919.751 203.404L922.495 203.096V202.816C922.495 200.884 921.123 199.652 919.051 199.652C917.119 199.652 915.747 200.8 915.551 202.704L913.339 202.284C913.759 199.484 916.083 197.664 919.051 197.664ZM918.155 210.264C920.899 210.264 922.495 208.444 922.495 205.616V204.944L919.751 205.252C916.895 205.56 915.411 206.54 915.411 208.024C915.411 209.34 916.531 210.264 918.155 210.264ZM936.139 211.888C935.439 212.14 934.683 212.224 933.927 212.224C931.519 212.224 929.755 210.88 929.755 207.772V199.988H927.123V197.888H929.755V193.604H932.135V197.888H935.915V199.988H932.135V207.856C932.135 209.34 932.975 210.068 934.207 210.068C934.767 210.068 935.411 209.984 935.971 209.704L936.139 211.888ZM447.932 246V226.176H450.312V234.66C451.348 232.644 453.056 231.664 455.128 231.664C458.32 231.664 460.42 233.652 460.42 236.704V246H458.04V237.152C458.04 235.08 456.752 233.82 454.596 233.82C451.992 233.82 450.312 236.172 450.312 239.952V246H447.932ZM469.548 231.664C472.964 231.664 475.344 233.68 475.344 236.956V246H472.992V243.592C472.18 245.216 470.332 246.224 468.288 246.224C465.46 246.224 463.528 244.488 463.528 242.052C463.528 239.336 465.74 237.852 470.248 237.404L472.992 237.096V236.816C472.992 234.884 471.62 233.652 469.548 233.652C467.616 233.652 466.244 234.8 466.048 236.704L463.836 236.284C464.256 233.484 466.58 231.664 469.548 231.664ZM468.652 244.264C471.396 244.264 472.992 242.444 472.992 239.616V238.944L470.248 239.252C467.392 239.56 465.908 240.54 465.908 242.024C465.908 243.34 467.028 244.264 468.652 244.264ZM482.332 246L477.18 231.888H479.616L483.536 243.228L487.484 231.888H489.948L484.768 246H482.332ZM504.559 238.3C504.559 238.636 504.531 239.14 504.503 239.392H493.359C493.527 242.248 495.319 244.124 497.867 244.124C500.023 244.124 501.507 243.116 501.927 241.352L504.167 241.884C503.467 244.628 501.115 246.224 497.867 246.224C493.639 246.224 490.979 242.948 490.979 238.944C490.979 234.94 493.555 231.664 497.811 231.664C501.983 231.664 504.559 234.66 504.559 238.3ZM493.499 237.404H502.039C501.815 235.248 500.303 233.652 497.811 233.652C495.599 233.652 493.975 235.052 493.499 237.404ZM521.881 245.888C521.181 246.14 520.425 246.224 519.669 246.224C517.261 246.224 515.497 244.88 515.497 241.772V233.988H512.865V231.888H515.497V227.604H517.877V231.888H521.657V233.988H517.877V241.856C517.877 243.34 518.717 244.068 519.949 244.068C520.509 244.068 521.153 243.984 521.713 243.704L521.881 245.888ZM524.905 246V226.176H527.285V234.66C528.321 232.644 530.029 231.664 532.101 231.664C535.293 231.664 537.393 233.652 537.393 236.704V246H535.013V237.152C535.013 235.08 533.725 233.82 531.569 233.82C528.965 233.82 527.285 236.172 527.285 239.952V246H524.905ZM554.024 238.3C554.024 238.636 553.996 239.14 553.968 239.392H542.824C542.992 242.248 544.784 244.124 547.332 244.124C549.488 244.124 550.972 243.116 551.392 241.352L553.632 241.884C552.932 244.628 550.58 246.224 547.332 246.224C543.104 246.224 540.444 242.948 540.444 238.944C540.444 234.94 543.02 231.664 547.276 231.664C551.448 231.664 554.024 234.66 554.024 238.3ZM542.964 237.404H551.504C551.28 235.248 549.768 233.652 547.276 233.652C545.064 233.652 543.44 235.052 542.964 237.404ZM563.842 246V231.888H566.222V234.548C566.922 232.868 568.322 231.664 570.478 231.664C572.774 231.664 574.566 232.728 575.07 234.632C575.826 232.952 577.506 231.664 579.634 231.664C582.658 231.664 584.562 233.568 584.562 236.536V246H582.182V237.012C582.182 235.08 581.09 233.764 579.102 233.764C576.694 233.764 575.378 235.92 575.378 238.916V246H572.998V237.012C572.998 235.08 571.906 233.764 569.946 233.764C567.538 233.764 566.222 235.92 566.222 238.916V246H563.842ZM600.551 231.888V246H598.171V243.34C597.191 245.02 595.483 246.224 593.327 246.224C590.387 246.224 588.287 244.236 588.287 241.24V231.888H590.667V240.792C590.667 242.696 591.871 244.068 593.859 244.068C596.491 244.068 598.171 241.8 598.171 238.076V231.888H600.551ZM608.816 246.196C606.296 246.448 604.42 245.496 604.42 242.556V226.176H606.8V242.388C606.8 243.928 607.528 244.152 608.704 244.068L608.816 246.196ZM619.088 245.888C618.388 246.14 617.632 246.224 616.876 246.224C614.468 246.224 612.704 244.88 612.704 241.772V233.988H610.072V231.888H612.704V227.604H615.084V231.888H618.864V233.988H615.084V241.856C615.084 243.34 615.924 244.068 617.156 244.068C617.716 244.068 618.36 243.984 618.92 243.704L619.088 245.888ZM623.042 229.228C622.09 229.228 621.39 228.5 621.39 227.576C621.39 226.624 622.09 225.896 623.042 225.896C624.022 225.896 624.75 226.624 624.75 227.576C624.75 228.5 624.022 229.228 623.042 229.228ZM621.866 246V231.888H624.246V246H621.866ZM628.1 251.096V231.888H630.48V233.932C631.236 232.644 633.084 231.664 635.128 231.664C639.468 231.664 641.876 234.8 641.876 238.944C641.876 243.088 639.412 246.224 635.072 246.224C633.28 246.224 631.432 245.328 630.48 244.04V251.096H628.1ZM634.848 244.096C637.648 244.096 639.468 242.052 639.468 238.944C639.468 235.836 637.648 233.792 634.848 233.792C632.104 233.792 630.284 235.836 630.284 238.944C630.284 242.052 632.104 244.096 634.848 244.096ZM649.312 246.196C646.792 246.448 644.916 245.496 644.916 242.556V226.176H647.296V242.388C647.296 243.928 648.024 244.152 649.2 244.068L649.312 246.196ZM661.376 231.888H663.812L656.42 251.096H653.984L656.028 245.804L650.512 231.888H653.088L657.232 242.696L661.376 231.888ZM685.63 238.3C685.63 238.636 685.602 239.14 685.574 239.392H674.43C674.598 242.248 676.39 244.124 678.938 244.124C681.094 244.124 682.578 243.116 682.998 241.352L685.238 241.884C684.538 244.628 682.186 246.224 678.938 246.224C674.71 246.224 672.05 242.948 672.05 238.944C672.05 234.94 674.626 231.664 678.882 231.664C683.054 231.664 685.63 234.66 685.63 238.3ZM674.57 237.404H683.11C682.886 235.248 681.374 233.652 678.882 233.652C676.67 233.652 675.046 235.052 674.57 237.404ZM689.711 246V233.988H687.303V231.888H689.711V230.572C689.711 227.464 691.475 225.812 693.883 225.812C694.527 225.812 695.199 225.868 695.787 226.036L695.675 228.164C695.171 227.968 694.667 227.884 694.191 227.884C692.931 227.884 692.091 228.864 692.091 230.376V231.888H695.703V233.988H692.091V246H689.711ZM699.965 246V233.988H697.557V231.888H699.965V230.572C699.965 227.464 701.729 225.812 704.137 225.812C704.781 225.812 705.453 225.868 706.041 226.036L705.929 228.164C705.425 227.968 704.921 227.884 704.445 227.884C703.185 227.884 702.345 228.864 702.345 230.376V231.888H705.957V233.988H702.345V246H699.965ZM720.657 238.3C720.657 238.636 720.629 239.14 720.601 239.392H709.457C709.625 242.248 711.417 244.124 713.965 244.124C716.121 244.124 717.605 243.116 718.025 241.352L720.265 241.884C719.565 244.628 717.213 246.224 713.965 246.224C709.737 246.224 707.077 242.948 707.077 238.944C707.077 234.94 709.653 231.664 713.909 231.664C718.081 231.664 720.657 234.66 720.657 238.3ZM709.597 237.404H718.137C717.913 235.248 716.401 233.652 713.909 233.652C711.697 233.652 710.073 235.052 709.597 237.404ZM729.909 246.224C725.709 246.224 722.909 243.312 722.909 238.944C722.909 234.576 725.709 231.664 729.909 231.664C733.185 231.664 735.593 233.456 736.097 236.256L733.745 236.732C733.437 235.024 731.953 233.792 729.965 233.792C727.193 233.792 725.401 235.836 725.401 238.944C725.401 242.052 727.193 244.096 729.965 244.096C731.953 244.096 733.409 243.004 733.801 241.128L736.125 241.604C735.509 244.516 733.157 246.224 729.909 246.224ZM746.401 245.888C745.701 246.14 744.945 246.224 744.189 246.224C741.781 246.224 740.017 244.88 740.017 241.772V233.988H737.385V231.888H740.017V227.604H742.397V231.888H746.177V233.988H742.397V241.856C742.397 243.34 743.237 244.068 744.469 244.068C745.029 244.068 745.673 243.984 746.233 243.704L746.401 245.888ZM750.886 246.224C749.878 246.224 749.178 245.524 749.178 244.544C749.178 243.592 749.878 242.864 750.886 242.864C751.838 242.864 752.594 243.592 752.594 244.544C752.594 245.524 751.838 246.224 750.886 246.224Z" fill="#B5B7B9"/>
    <path d="M589 342C589 330.402 598.402 321 610 321H616C627.598 321 637 330.402 637 342V364.043C637 367.303 637.759 370.518 639.217 373.434L681.804 458.609C688.786 472.571 678.632 489 663.021 489H562.979C547.368 489 537.214 472.571 544.196 458.609L586.783 373.434C588.241 370.518 589 367.303 589 364.043V342Z" fill="#B7CDE1"/>
    <rect x="580" y="321" width="66" height="18" rx="6" fill="#B7CDE1"/>
    <g style="mix-blend-mode:multiply">
        <rect x="580" y="321" width="66" height="18" rx="6" fill="#B7CDE1"/>
    </g>
    <path d="M588.768 393.925C590.74 389.7 594.98 387 599.642 387H626.358C631.02 387 635.26 389.7 637.232 393.925L668.032 459.925C671.745 467.881 665.937 477 657.158 477H568.842C560.063 477 554.255 467.881 557.968 459.925L588.768 393.925Z" fill="#DBE6F0"/>
    <g style="mix-blend-mode:multiply">
        <path d="M625.565 438.992C625.751 437.343 625.569 435.673 625.03 434.104C624.472 432.529 623.557 431.104 622.357 429.941C619.61 428.073 616.314 427.185 613 427.42V418.293C616.342 418.528 619.663 417.597 622.395 415.657C623.531 414.552 624.406 413.207 624.954 411.72C625.503 410.233 625.711 408.642 625.565 407.064V395.607C625.305 391.704 626.579 387.853 629.117 384.875C630.479 383.473 632.136 382.39 633.967 381.705C635.827 381.106 637.788 380.885 639.734 381.056H652.834V390.948H645.997C644.525 390.908 643.053 391.024 641.605 391.291C640.552 391.471 639.571 391.948 638.779 392.666C638.012 393.399 637.481 394.342 637.251 395.378C636.934 396.909 636.806 398.474 636.87 400.037V410.387C636.998 411.994 636.776 413.61 636.22 415.123C635.708 416.682 634.83 418.096 633.661 419.247C631.281 421.238 628.32 422.403 625.221 422.57V423.448C628.34 423.566 631.316 424.784 633.623 426.886C634.696 427.989 635.552 429.284 636.144 430.705C636.709 432.23 636.956 433.855 636.87 435.479V445.981C636.825 447.512 636.992 449.041 637.366 450.526C637.556 451.578 638.078 452.542 638.856 453.276C639.655 453.998 640.653 454.464 641.72 454.613C643.182 454.874 644.665 455.002 646.15 454.994H652.795V464.695H639.734C637.843 464.807 635.949 464.547 634.158 463.931C632.368 463.372 630.706 462.464 629.269 461.258C627.926 459.796 626.911 458.064 626.291 456.178C625.65 454.301 625.403 452.312 625.565 450.335V438.992Z" fill="#42CACD"/>
    </g>
    <g style="mix-blend-mode:multiply">
        <path d="M696.307 450.124C696.45 452.097 696.184 454.079 695.527 455.945C694.87 457.811 693.835 459.522 692.488 460.97C691.079 462.24 689.43 463.214 687.637 463.835C685.846 464.451 683.952 464.71 682.061 464.598H669V454.783H675.798C677.283 454.791 678.766 454.663 680.228 454.401C681.295 454.252 682.293 453.787 683.093 453.065C683.868 452.323 684.401 451.365 684.62 450.315C684.897 448.881 685 447.419 684.926 445.961V435.573C684.814 433.934 685.046 432.289 685.604 430.744C686.163 429.199 687.038 427.787 688.172 426.598C690.54 424.424 693.627 423.201 696.841 423.161V422.282C693.753 422.121 690.802 420.955 688.439 418.96C687.276 417.892 686.352 416.591 685.728 415.141C685.12 413.652 684.847 412.049 684.926 410.443V400.131C684.979 398.611 684.798 397.091 684.391 395.625C684.171 394.575 683.639 393.616 682.863 392.875C682.067 392.164 681.088 391.688 680.037 391.5C678.613 391.252 677.168 391.136 675.722 391.157H669V381.036H682.061C684.009 380.893 685.965 381.18 687.79 381.876C689.612 382.561 691.266 383.629 692.64 385.008C695.155 387.968 696.428 391.786 696.192 395.663V407.12C696.05 408.7 696.259 410.291 696.803 411.78C697.358 413.229 698.233 414.535 699.362 415.599C702.087 417.484 705.377 418.374 708.681 418.12V427.133C705.367 426.898 702.071 427.785 699.324 429.653C698.133 430.809 697.219 432.219 696.65 433.778C696.115 435.362 695.933 437.043 696.116 438.705L696.307 450.124Z" fill="#42CACD"/>
    </g>
    <path d="M451.692 545L454.651 526.338H457.13L464.435 541.188L466.781 526.338H469.154L466.195 545H463.715L456.41 530.204L454.064 545H451.692ZM476.231 545.213C472.712 545.213 470.179 542.707 470.179 539.295C470.179 534.736 473.405 531.35 477.804 531.35C481.296 531.35 483.856 533.829 483.856 537.242C483.856 541.827 480.576 545.213 476.231 545.213ZM476.471 543.187C479.43 543.187 481.51 540.788 481.51 537.482C481.51 535.109 479.883 533.376 477.564 533.376C474.551 533.376 472.525 535.776 472.525 539.081C472.525 541.454 474.151 543.187 476.471 543.187ZM492.498 544.893C491.805 545.133 491.085 545.213 490.365 545.213C488.072 545.213 486.58 543.934 487.059 540.974L488.232 533.563H485.726L486.046 531.563H488.552L489.192 527.484H491.458L490.818 531.563H494.418L494.098 533.563H490.499L489.299 541.054C489.086 542.467 489.779 543.16 490.952 543.16C491.485 543.16 492.098 543.08 492.685 542.814L492.498 544.893ZM507.811 545.213C504.292 545.213 501.76 542.707 501.76 539.295C501.76 534.736 504.986 531.35 509.384 531.35C512.877 531.35 515.436 533.829 515.436 537.242C515.436 541.827 512.157 545.213 507.811 545.213ZM508.051 543.187C511.011 543.187 513.09 540.788 513.09 537.482C513.09 535.109 511.464 533.376 509.144 533.376C506.132 533.376 504.106 535.776 504.106 539.081C504.106 541.454 505.732 543.187 508.051 543.187ZM516.343 549.852L519.249 531.563H521.515L521.195 533.51C522.101 532.283 524.021 531.35 525.967 531.35C529.566 531.35 531.406 533.803 531.406 537.082C531.406 541.534 528.633 545.213 524.128 545.213C522.048 545.213 520.422 544.28 519.729 542.761L518.609 549.852H516.343ZM524.261 543.187C527.087 543.187 529.086 540.788 529.086 537.402C529.086 534.976 527.7 533.376 525.381 533.376C522.395 533.376 520.182 535.776 520.182 539.161C520.182 541.588 521.755 543.187 524.261 543.187ZM540.064 544.893C539.371 545.133 538.651 545.213 537.931 545.213C535.639 545.213 534.146 543.934 534.626 540.974L535.799 533.563H533.293L533.613 531.563H536.119L536.758 527.484H539.025L538.385 531.563H541.984L541.664 533.563H538.065L536.865 541.054C536.652 542.467 537.345 543.16 538.518 543.16C539.051 543.16 539.664 543.08 540.251 542.814L540.064 544.893ZM546.601 529.031C545.721 529.031 545.028 528.338 545.028 527.458C545.028 526.551 545.721 525.858 546.601 525.858C547.534 525.858 548.254 526.551 548.254 527.458C548.254 528.338 547.534 529.031 546.601 529.031ZM542.709 545L544.841 531.563H547.107L544.975 545H542.709ZM548.645 545L550.777 531.563H553.044L552.617 534.096C553.55 532.496 555.07 531.35 557.096 531.35C559.309 531.35 560.855 532.363 561.042 534.176C562.001 532.576 563.787 531.35 565.84 531.35C568.72 531.35 570.239 533.163 569.813 535.989L568.373 545H566.107L567.467 536.442C567.76 534.603 566.907 533.35 565.014 533.35C562.748 533.35 561.148 535.402 560.695 538.255L559.629 545H557.362L558.722 536.442C559.015 534.603 558.162 533.35 556.296 533.35C554.003 533.35 552.43 535.402 551.977 538.255L550.911 545H548.645ZM575.943 529.031C575.063 529.031 574.37 528.338 574.37 527.458C574.37 526.551 575.063 525.858 575.943 525.858C576.876 525.858 577.595 526.551 577.595 527.458C577.595 528.338 576.876 529.031 575.943 529.031ZM572.05 545L574.183 531.563H576.449L574.316 545H572.05ZM582.785 545.213C579.506 545.213 577.853 543.187 577.586 541.028L579.533 540.494C579.692 542.227 580.919 543.294 583.052 543.294C584.758 543.294 585.904 542.361 585.904 541.001C585.904 538.068 579.106 539.588 579.106 535.216C579.106 532.976 581.105 531.35 584.118 531.35C586.491 531.35 588.677 532.683 588.89 534.923L586.837 535.482C586.704 533.989 585.291 533.216 583.851 533.216C582.358 533.216 581.345 533.936 581.345 534.976C581.345 537.482 588.17 536.096 588.17 540.761C588.17 543.374 585.984 545.213 582.785 545.213ZM603.444 538.682H592.78V539.108C592.78 541.588 594.38 543.214 596.673 543.214C598.699 543.214 600.058 542.334 600.645 540.574L602.831 541.081C602.058 543.56 599.525 545.213 596.406 545.213C592.94 545.213 590.487 542.681 590.487 539.241C590.487 534.976 593.313 531.35 597.872 531.35C601.418 531.35 603.711 533.749 603.711 536.735C603.711 537.349 603.604 538.095 603.444 538.682ZM597.579 533.243C595.393 533.243 593.767 534.656 593.1 536.815H601.391C601.498 534.763 599.952 533.243 597.579 533.243ZM610.95 545.213C607.297 545.213 605.458 542.761 605.458 539.481C605.458 535.029 608.39 531.35 612.922 531.35C615.029 531.35 616.495 532.39 617.161 533.643L618.334 526.125H620.601L617.615 545H615.349L615.668 543.054C614.869 544.28 612.922 545.213 610.95 545.213ZM611.483 543.187C614.495 543.187 616.708 540.788 616.708 537.402C616.708 534.976 615.322 533.376 612.816 533.376C610.017 533.376 607.804 535.776 607.804 539.161C607.804 541.588 609.19 543.187 611.483 543.187ZM629.046 545L630.859 533.563H628.566L628.886 531.563H631.179L631.366 530.31C631.819 527.351 633.765 525.778 636.058 525.778C636.671 525.778 637.311 525.831 637.844 525.991L637.391 528.018C636.964 527.831 636.485 527.751 636.058 527.751C634.832 527.751 633.898 528.684 633.659 530.124L633.445 531.563H636.884L636.564 533.563H633.125L631.312 545H629.046ZM642.83 545.213C639.311 545.213 636.778 542.707 636.778 539.295C636.778 534.736 640.004 531.35 644.403 531.35C647.895 531.35 650.455 533.829 650.455 537.242C650.455 541.827 647.175 545.213 642.83 545.213ZM643.07 543.187C646.029 543.187 648.108 540.788 648.108 537.482C648.108 535.109 646.482 533.376 644.163 533.376C641.15 533.376 639.124 535.776 639.124 539.081C639.124 541.454 640.75 543.187 643.07 543.187ZM661.785 533.776C661.279 533.563 660.719 533.456 660.106 533.456C658.213 533.456 655.893 535.509 655.2 539.881L654.4 545H652.134L654.267 531.563H656.533L656.08 534.416C656.96 532.736 658.933 531.35 660.719 531.35C661.279 531.35 661.839 531.43 662.265 531.59L661.785 533.776ZM674.449 545.213C670.797 545.213 668.957 542.761 668.957 539.481C668.957 535.029 671.89 531.35 676.422 531.35C678.528 531.35 679.995 532.39 680.661 533.643L681.834 526.125H684.1L681.114 545H678.848L679.168 543.054C678.368 544.28 676.422 545.213 674.449 545.213ZM674.983 543.187C677.995 543.187 680.208 540.788 680.208 537.402C680.208 534.976 678.822 533.376 676.316 533.376C673.516 533.376 671.304 535.776 671.304 539.161C671.304 541.588 672.69 543.187 674.983 543.187ZM691.741 531.35C695.153 531.35 697.393 533.643 696.859 536.842L695.58 545H693.34L693.714 542.681C692.727 544.227 690.914 545.213 688.835 545.213C686.409 545.213 684.649 543.667 684.649 541.614C684.649 538.815 686.862 537.269 691.661 536.842L694.673 536.549L694.727 536.256C695.02 534.416 693.5 533.243 691.474 533.243C689.581 533.243 688.115 534.336 687.795 536.122L685.742 535.722C686.355 533.083 688.861 531.35 691.741 531.35ZM689.475 543.347C692.114 543.347 693.794 541.721 694.3 538.948L694.407 538.308L691.474 538.602C688.355 538.922 686.942 539.775 686.942 541.374C686.942 542.574 687.902 543.347 689.475 543.347ZM708.909 533.776C708.402 533.563 707.843 533.456 707.229 533.456C705.336 533.456 703.017 535.509 702.324 539.881L701.524 545H699.258L701.391 531.563H703.657L703.204 534.416C704.083 532.736 706.056 531.35 707.843 531.35C708.402 531.35 708.962 531.43 709.389 531.59L708.909 533.776ZM723.114 531.563L716.502 536.869L721.434 545H718.715L714.662 538.335L712.53 540.041L711.757 545H709.464L712.45 526.125H714.742L713.036 536.949L719.888 531.563H723.114ZM730.058 545L732.19 531.563H734.456L734.03 534.096C734.963 532.496 736.483 531.35 738.509 531.35C740.722 531.35 742.268 532.363 742.454 534.176C743.414 532.576 745.2 531.35 747.253 531.35C750.133 531.35 751.652 533.163 751.226 535.989L749.786 545H747.52L748.88 536.442C749.173 534.603 748.32 533.35 746.427 533.35C744.161 533.35 742.561 535.402 742.108 538.255L741.041 545H738.775L740.135 536.442C740.428 534.603 739.575 533.35 737.709 533.35C735.416 533.35 733.843 535.402 733.39 538.255L732.324 545H730.058ZM759.702 545.213C756.183 545.213 753.65 542.707 753.65 539.295C753.65 534.736 756.876 531.35 761.275 531.35C764.767 531.35 767.326 533.829 767.326 537.242C767.326 541.827 764.047 545.213 759.702 545.213ZM759.942 543.187C762.901 543.187 764.98 540.788 764.98 537.482C764.98 535.109 763.354 533.376 761.035 533.376C758.022 533.376 755.996 535.776 755.996 539.081C755.996 541.454 757.622 543.187 759.942 543.187ZM774.685 545.213C771.032 545.213 769.193 542.761 769.193 539.481C769.193 535.029 772.125 531.35 776.658 531.35C778.764 531.35 780.23 532.39 780.897 533.643L782.07 526.125H784.336L781.35 545H779.084L779.404 543.054C778.604 544.28 776.658 545.213 774.685 545.213ZM775.218 543.187C778.231 543.187 780.443 540.788 780.443 537.402C780.443 534.976 779.057 533.376 776.551 533.376C773.752 533.376 771.539 535.776 771.539 539.161C771.539 541.588 772.925 543.187 775.218 543.187ZM798.161 538.682H787.497V539.108C787.497 541.588 789.097 543.214 791.39 543.214C793.416 543.214 794.775 542.334 795.362 540.574L797.548 541.081C796.775 543.56 794.242 545.213 791.123 545.213C787.657 545.213 785.204 542.681 785.204 539.241C785.204 534.976 788.03 531.35 792.589 531.35C796.135 531.35 798.428 533.749 798.428 536.735C798.428 537.349 798.321 538.095 798.161 538.682ZM792.296 533.243C790.11 533.243 788.484 534.656 787.817 536.815H796.108C796.215 534.763 794.669 533.243 792.296 533.243Z" fill="#CECFD0"/>
    <path d="M1035.06 438.992C1035.25 437.343 1035.07 435.673 1034.53 434.104C1033.97 432.529 1033.06 431.104 1031.86 429.941C1029.11 428.073 1025.81 427.185 1022.5 427.42V418.293C1025.84 418.528 1029.16 417.597 1031.9 415.657C1033.03 414.552 1033.91 413.207 1034.45 411.72C1035 410.233 1035.21 408.642 1035.06 407.064V395.607C1034.81 391.704 1036.08 387.853 1038.62 384.875C1039.98 383.473 1041.64 382.39 1043.47 381.705C1045.33 381.106 1047.29 380.885 1049.23 381.056H1062.33V390.948H1055.5C1054.03 390.908 1052.55 391.024 1051.11 391.291C1050.05 391.471 1049.07 391.948 1048.28 392.666C1047.51 393.399 1046.98 394.342 1046.75 395.378C1046.43 396.909 1046.31 398.474 1046.37 400.037V410.387C1046.5 411.994 1046.28 413.61 1045.72 415.123C1045.21 416.682 1044.33 418.096 1043.16 419.247C1040.78 421.238 1037.82 422.403 1034.72 422.57V423.448C1037.84 423.566 1040.82 424.784 1043.12 426.886C1044.2 427.989 1045.05 429.284 1045.64 430.705C1046.21 432.23 1046.46 433.855 1046.37 435.479V445.981C1046.32 447.512 1046.49 449.041 1046.87 450.526C1047.06 451.578 1047.58 452.542 1048.36 453.276C1049.16 453.998 1050.15 454.464 1051.22 454.613C1052.68 454.874 1054.16 455.002 1055.65 454.994H1062.3V464.695H1049.23C1047.34 464.807 1045.45 464.547 1043.66 463.931C1041.87 463.372 1040.21 462.464 1038.77 461.258C1037.43 459.796 1036.41 458.064 1035.79 456.178C1035.15 454.301 1034.9 452.312 1035.06 450.335V438.992Z" fill="white"/>
    <path d="M1105.49 450.141C1105.63 452.115 1105.37 454.096 1104.71 455.962C1104.05 457.829 1103.02 459.539 1101.67 460.988C1100.26 462.258 1098.61 463.232 1096.82 463.852C1095.03 464.468 1093.14 464.728 1091.24 464.616H1078.18V454.801H1084.98C1086.47 454.808 1087.95 454.68 1089.41 454.419C1090.48 454.27 1091.48 453.804 1092.28 453.082C1093.05 452.341 1093.58 451.382 1093.8 450.332C1094.08 448.899 1094.18 447.437 1094.11 445.979V435.591C1094 433.951 1094.23 432.307 1094.79 430.761C1095.35 429.216 1096.22 427.804 1097.36 426.616C1099.72 424.442 1102.81 423.218 1106.02 423.178V422.3C1102.94 422.139 1099.99 420.972 1097.62 418.977C1096.46 417.91 1095.54 416.608 1094.91 415.158C1094.3 413.67 1094.03 412.066 1094.11 410.461V400.149C1094.16 398.628 1093.98 397.109 1093.57 395.642C1093.35 394.593 1092.82 393.634 1092.05 392.893C1091.25 392.182 1090.27 391.706 1089.22 391.518C1087.8 391.269 1086.35 391.154 1084.9 391.174H1078.18V381.053H1091.24C1093.19 380.91 1095.15 381.197 1096.97 381.894C1098.8 382.578 1100.45 383.646 1101.82 385.025C1104.34 387.986 1105.61 391.804 1105.38 395.681V407.138C1105.23 408.717 1105.44 410.308 1105.99 411.797C1106.54 413.247 1107.42 414.552 1108.55 415.617C1111.27 417.501 1114.56 418.391 1117.86 418.137V427.15C1114.55 426.915 1111.25 427.803 1108.51 429.671C1107.32 430.827 1106.4 432.237 1105.83 433.796C1105.3 435.379 1105.12 437.061 1105.3 438.722L1105.49 450.141Z" fill="white"/>
    <path d="M998.5 342C998.5 330.402 1007.9 321 1019.5 321H1025.5C1037.1 321 1046.5 330.402 1046.5 342V364.043C1046.5 367.303 1047.26 370.518 1048.72 373.434L1091.3 458.609C1098.29 472.571 1088.13 489 1072.52 489H972.479C956.868 489 946.714 472.571 953.696 458.609L996.283 373.434C997.741 370.518 998.5 367.303 998.5 364.043V342Z" fill="#B7CDE1"/>
    <rect x="989.5" y="321" width="66" height="18" rx="6" fill="#B7CDE1"/>
    <g style="mix-blend-mode:multiply">
        <rect x="989.5" y="321" width="66" height="18" rx="6" fill="#B7CDE1"/>
    </g>
    <path d="M998.268 393.925C1000.24 389.7 1004.48 387 1009.14 387H1035.86C1040.52 387 1044.76 389.7 1046.73 393.925L1077.53 459.925C1081.24 467.881 1075.44 477 1066.66 477H978.342C969.563 477 963.755 467.881 967.468 459.925L998.268 393.925Z" fill="#DBE6F0"/>
    <g style="mix-blend-mode:multiply">
        <path d="M1035.06 438.992C1035.25 437.343 1035.07 435.673 1034.53 434.104C1033.97 432.529 1033.06 431.104 1031.86 429.941C1029.11 428.073 1025.81 427.185 1022.5 427.42V418.293C1025.84 418.528 1029.16 417.597 1031.9 415.657C1033.03 414.552 1033.91 413.207 1034.45 411.72C1035 410.233 1035.21 408.642 1035.06 407.064V395.607C1034.81 391.704 1036.08 387.853 1038.62 384.875C1039.98 383.473 1041.64 382.39 1043.47 381.705C1045.33 381.106 1047.29 380.885 1049.23 381.056H1062.33V390.948H1055.5C1054.03 390.908 1052.55 391.024 1051.11 391.291C1050.05 391.471 1049.07 391.948 1048.28 392.666C1047.51 393.399 1046.98 394.342 1046.75 395.378C1046.43 396.909 1046.31 398.474 1046.37 400.037V410.387C1046.5 411.994 1046.28 413.61 1045.72 415.123C1045.21 416.682 1044.33 418.096 1043.16 419.247C1040.78 421.238 1037.82 422.403 1034.72 422.57V423.448C1037.84 423.566 1040.82 424.784 1043.12 426.886C1044.2 427.989 1045.05 429.284 1045.64 430.705C1046.21 432.23 1046.46 433.855 1046.37 435.479V445.981C1046.32 447.512 1046.49 449.041 1046.87 450.526C1047.06 451.578 1047.58 452.542 1048.36 453.276C1049.16 453.998 1050.15 454.464 1051.22 454.613C1052.68 454.874 1054.16 455.002 1055.65 454.994H1062.3V464.695H1049.23C1047.34 464.807 1045.45 464.547 1043.66 463.931C1041.87 463.372 1040.21 462.464 1038.77 461.258C1037.43 459.796 1036.41 458.064 1035.79 456.178C1035.15 454.301 1034.9 452.312 1035.06 450.335V438.992Z" fill="#42CACD"/>
    </g>
    <g style="mix-blend-mode:multiply">
        <path d="M1105.49 450.141C1105.63 452.115 1105.37 454.096 1104.71 455.962C1104.05 457.829 1103.02 459.539 1101.67 460.988C1100.26 462.258 1098.61 463.232 1096.82 463.852C1095.03 464.468 1093.14 464.728 1091.24 464.616H1078.18V454.801H1084.98C1086.47 454.808 1087.95 454.68 1089.41 454.419C1090.48 454.27 1091.48 453.804 1092.28 453.082C1093.05 452.341 1093.58 451.382 1093.8 450.332C1094.08 448.899 1094.18 447.437 1094.11 445.979V435.591C1094 433.951 1094.23 432.307 1094.79 430.761C1095.35 429.216 1096.22 427.804 1097.36 426.616C1099.72 424.442 1102.81 423.218 1106.02 423.178V422.3C1102.94 422.139 1099.99 420.972 1097.62 418.977C1096.46 417.91 1095.54 416.608 1094.91 415.158C1094.3 413.67 1094.03 412.066 1094.11 410.461V400.149C1094.16 398.628 1093.98 397.109 1093.57 395.642C1093.35 394.593 1092.82 393.634 1092.05 392.893C1091.25 392.182 1090.27 391.706 1089.22 391.518C1087.8 391.269 1086.35 391.154 1084.9 391.174H1078.18V381.053H1091.24C1093.19 380.91 1095.15 381.197 1096.97 381.894C1098.8 382.578 1100.45 383.646 1101.82 385.025C1104.34 387.986 1105.61 391.804 1105.38 395.681V407.138C1105.23 408.717 1105.44 410.308 1105.99 411.797C1106.54 413.247 1107.42 414.552 1108.55 415.617C1111.27 417.501 1114.56 418.391 1117.86 418.137V427.15C1114.55 426.915 1111.25 427.803 1108.51 429.671C1107.32 430.827 1106.4 432.237 1105.83 433.796C1105.3 435.379 1105.12 437.061 1105.3 438.722L1105.49 450.141Z" fill="#42CACD"/>
    </g>
    <path d="M892.538 545.213C887.606 545.213 884.167 541.774 884.167 537.055C884.167 530.764 888.566 526.125 894.378 526.125C899.31 526.125 902.776 529.564 902.776 534.283C902.776 540.601 898.35 545.213 892.538 545.213ZM892.858 543.027C897.017 543.027 900.296 539.321 900.296 534.496C900.296 530.817 897.844 528.284 894.058 528.284C889.899 528.284 886.646 532.017 886.646 536.842C886.646 540.521 889.099 543.027 892.858 543.027ZM903.401 549.852L906.307 531.563H908.573L908.253 533.51C909.159 532.283 911.079 531.35 913.025 531.35C916.624 531.35 918.463 533.803 918.463 537.082C918.463 541.534 915.691 545.213 911.185 545.213C909.106 545.213 907.48 544.28 906.786 542.761L905.667 549.852H903.401ZM911.319 543.187C914.145 543.187 916.144 540.788 916.144 537.402C916.144 534.976 914.758 533.376 912.438 533.376C909.452 533.376 907.24 535.776 907.24 539.161C907.24 541.588 908.813 543.187 911.319 543.187ZM927.122 544.893C926.429 545.133 925.709 545.213 924.989 545.213C922.696 545.213 921.203 543.934 921.683 540.974L922.856 533.563H920.35L920.67 531.563H923.176L923.816 527.484H926.082L925.442 531.563H929.041L928.722 533.563H925.122L923.923 541.054C923.709 542.467 924.403 543.16 925.576 543.16C926.109 543.16 926.722 543.08 927.309 542.814L927.122 544.893ZM933.659 529.031C932.779 529.031 932.086 528.338 932.086 527.458C932.086 526.551 932.779 525.858 933.659 525.858C934.592 525.858 935.312 526.551 935.312 527.458C935.312 528.338 934.592 529.031 933.659 529.031ZM929.766 545L931.899 531.563H934.165L932.032 545H929.766ZM935.702 545L937.835 531.563H940.101L939.675 534.096C940.608 532.496 942.127 531.35 944.154 531.35C946.366 531.35 947.913 532.363 948.099 534.176C949.059 532.576 950.845 531.35 952.898 531.35C955.777 531.35 957.297 533.163 956.87 535.989L955.431 545H953.165L954.524 536.442C954.818 534.603 953.964 533.35 952.072 533.35C949.805 533.35 948.206 535.402 947.753 538.255L946.686 545H944.42L945.78 536.442C946.073 534.603 945.22 533.35 943.354 533.35C941.061 533.35 939.488 535.402 939.035 538.255L937.968 545H935.702ZM963 529.031C962.12 529.031 961.427 528.338 961.427 527.458C961.427 526.551 962.12 525.858 963 525.858C963.933 525.858 964.653 526.551 964.653 527.458C964.653 528.338 963.933 529.031 963 529.031ZM959.108 545L961.241 531.563H963.507L961.374 545H959.108ZM969.843 545.213C966.564 545.213 964.911 543.187 964.644 541.028L966.59 540.494C966.75 542.227 967.977 543.294 970.109 543.294C971.816 543.294 972.962 542.361 972.962 541.001C972.962 538.068 966.164 539.588 966.164 535.216C966.164 532.976 968.163 531.35 971.176 531.35C973.548 531.35 975.735 532.683 975.948 534.923L973.895 535.482C973.762 533.989 972.349 533.216 970.909 533.216C969.416 533.216 968.403 533.936 968.403 534.976C968.403 537.482 975.228 536.096 975.228 540.761C975.228 543.374 973.042 545.213 969.843 545.213ZM990.502 538.682H979.838V539.108C979.838 541.588 981.438 543.214 983.73 543.214C985.756 543.214 987.116 542.334 987.703 540.574L989.889 541.081C989.116 543.56 986.583 545.213 983.464 545.213C979.998 545.213 977.545 542.681 977.545 539.241C977.545 534.976 980.371 531.35 984.93 531.35C988.476 531.35 990.769 533.749 990.769 536.735C990.769 537.349 990.662 538.095 990.502 538.682ZM984.637 533.243C982.451 533.243 980.824 534.656 980.158 536.815H988.449C988.556 534.763 987.009 533.243 984.637 533.243ZM998.007 545.213C994.355 545.213 992.515 542.761 992.515 539.481C992.515 535.029 995.448 531.35 999.98 531.35C1002.09 531.35 1003.55 532.39 1004.22 533.643L1005.39 526.125H1007.66L1004.67 545H1002.41L1002.73 543.054C1001.93 544.28 999.98 545.213 998.007 545.213ZM998.541 543.187C1001.55 543.187 1003.77 540.788 1003.77 537.402C1003.77 534.976 1002.38 533.376 999.874 533.376C997.074 533.376 994.861 535.776 994.861 539.161C994.861 541.588 996.248 543.187 998.541 543.187ZM1016.1 545L1017.92 533.563H1015.62L1015.94 531.563H1018.24L1018.42 530.31C1018.88 527.351 1020.82 525.778 1023.12 525.778C1023.73 525.778 1024.37 525.831 1024.9 525.991L1024.45 528.018C1024.02 527.831 1023.54 527.751 1023.12 527.751C1021.89 527.751 1020.96 528.684 1020.72 530.124L1020.5 531.563H1023.94L1023.62 533.563H1020.18L1018.37 545H1016.1ZM1029.89 545.213C1026.37 545.213 1023.84 542.707 1023.84 539.295C1023.84 534.736 1027.06 531.35 1031.46 531.35C1034.95 531.35 1037.51 533.829 1037.51 537.242C1037.51 541.827 1034.23 545.213 1029.89 545.213ZM1030.13 543.187C1033.09 543.187 1035.17 540.788 1035.17 537.482C1035.17 535.109 1033.54 533.376 1031.22 533.376C1028.21 533.376 1026.18 535.776 1026.18 539.081C1026.18 541.454 1027.81 543.187 1030.13 543.187ZM1048.84 533.776C1048.34 533.563 1047.78 533.456 1047.16 533.456C1045.27 533.456 1042.95 535.509 1042.26 539.881L1041.46 545H1039.19L1041.32 531.563H1043.59L1043.14 534.416C1044.02 532.736 1045.99 531.35 1047.78 531.35C1048.34 531.35 1048.9 531.43 1049.32 531.59L1048.84 533.776ZM1061.51 545.213C1057.85 545.213 1056.02 542.761 1056.02 539.481C1056.02 535.029 1058.95 531.35 1063.48 531.35C1065.59 531.35 1067.05 532.39 1067.72 533.643L1068.89 526.125H1071.16L1068.17 545H1065.91L1066.23 543.054C1065.43 544.28 1063.48 545.213 1061.51 545.213ZM1062.04 543.187C1065.05 543.187 1067.27 540.788 1067.27 537.402C1067.27 534.976 1065.88 533.376 1063.37 533.376C1060.57 533.376 1058.36 535.776 1058.36 539.161C1058.36 541.588 1059.75 543.187 1062.04 543.187ZM1078.8 531.35C1082.21 531.35 1084.45 533.643 1083.92 536.842L1082.64 545H1080.4L1080.77 542.681C1079.78 544.227 1077.97 545.213 1075.89 545.213C1073.47 545.213 1071.71 543.667 1071.71 541.614C1071.71 538.815 1073.92 537.269 1078.72 536.842L1081.73 536.549L1081.78 536.256C1082.08 534.416 1080.56 533.243 1078.53 533.243C1076.64 533.243 1075.17 534.336 1074.85 536.122L1072.8 535.722C1073.41 533.083 1075.92 531.35 1078.8 531.35ZM1076.53 543.347C1079.17 543.347 1080.85 541.721 1081.36 538.948L1081.46 538.308L1078.53 538.602C1075.41 538.922 1074 539.775 1074 541.374C1074 542.574 1074.96 543.347 1076.53 543.347ZM1095.97 533.776C1095.46 533.563 1094.9 533.456 1094.29 533.456C1092.39 533.456 1090.07 535.509 1089.38 539.881L1088.58 545H1086.32L1088.45 531.563H1090.71L1090.26 534.416C1091.14 532.736 1093.11 531.35 1094.9 531.35C1095.46 531.35 1096.02 531.43 1096.45 531.59L1095.97 533.776ZM1110.17 531.563L1103.56 536.869L1108.49 545H1105.77L1101.72 538.335L1099.59 540.041L1098.81 545H1096.52L1099.51 526.125H1101.8L1100.09 536.949L1106.95 531.563H1110.17ZM1117.12 545L1119.25 531.563H1121.51L1121.09 534.096C1122.02 532.496 1123.54 531.35 1125.57 531.35C1127.78 531.35 1129.33 532.363 1129.51 534.176C1130.47 532.576 1132.26 531.35 1134.31 531.35C1137.19 531.35 1138.71 533.163 1138.28 535.989L1136.84 545H1134.58L1135.94 536.442C1136.23 534.603 1135.38 533.35 1133.48 533.35C1131.22 533.35 1129.62 535.402 1129.17 538.255L1128.1 545H1125.83L1127.19 536.442C1127.49 534.603 1126.63 533.35 1124.77 533.35C1122.47 533.35 1120.9 535.402 1120.45 538.255L1119.38 545H1117.12ZM1146.76 545.213C1143.24 545.213 1140.71 542.707 1140.71 539.295C1140.71 534.736 1143.93 531.35 1148.33 531.35C1151.82 531.35 1154.38 533.829 1154.38 537.242C1154.38 541.827 1151.1 545.213 1146.76 545.213ZM1147 543.187C1149.96 543.187 1152.04 540.788 1152.04 537.482C1152.04 535.109 1150.41 533.376 1148.09 533.376C1145.08 533.376 1143.05 535.776 1143.05 539.081C1143.05 541.454 1144.68 543.187 1147 543.187ZM1161.74 545.213C1158.09 545.213 1156.25 542.761 1156.25 539.481C1156.25 535.029 1159.18 531.35 1163.72 531.35C1165.82 531.35 1167.29 532.39 1167.95 533.643L1169.13 526.125H1171.39L1168.41 545H1166.14L1166.46 543.054C1165.66 544.28 1163.72 545.213 1161.74 545.213ZM1162.28 543.187C1165.29 543.187 1167.5 540.788 1167.5 537.402C1167.5 534.976 1166.11 533.376 1163.61 533.376C1160.81 533.376 1158.6 535.776 1158.6 539.161C1158.6 541.588 1159.98 543.187 1162.28 543.187ZM1185.22 538.682H1174.55V539.108C1174.55 541.588 1176.15 543.214 1178.45 543.214C1180.47 543.214 1181.83 542.334 1182.42 540.574L1184.61 541.081C1183.83 543.56 1181.3 545.213 1178.18 545.213C1174.71 545.213 1172.26 542.681 1172.26 539.241C1172.26 534.976 1175.09 531.35 1179.65 531.35C1183.19 531.35 1185.49 533.749 1185.49 536.735C1185.49 537.349 1185.38 538.095 1185.22 538.682ZM1179.35 533.243C1177.17 533.243 1175.54 534.656 1174.87 536.815H1183.17C1183.27 534.763 1181.73 533.243 1179.35 533.243Z" fill="#CECFD0"/>
</svg>
