<svg viewBox="0 0 64 64" fill="none" xmlns="http://www.w3.org/2000/svg">
<path d="M18 52H11.54C7.37 52 4 48.2211 4 43.5639V37.4361C4 32.7686 7.37 29 11.54 29H18V52Z" fill="white"/>
<path d="M46 29H52.46C56.63 29 60 32.7686 60 37.4361V43.5639C60 48.2211 56.63 52 52.46 52H46V29Z" fill="white"/>
<path fill-rule="evenodd" clip-rule="evenodd" d="M27.29 8.01003C22.5582 8.01003 18 13.0073 18 20.1604V52H14V20.1604C14 11.6744 19.5618 4 27.29 4H36.71C44.5041 4 50 11.6819 50 20.1604V52H46V20.1604C46 12.9998 41.4959 8.01003 36.71 8.01003H27.29Z" fill="#B7CDE1"/>
<g style="mix-blend-mode:multiply">
<path d="M18 52H11.54C7.37 52 4 48.2211 4 43.5639V37.4361C4 32.7686 7.37 29 11.54 29H18V52Z" fill="#B7CDE1"/>
</g>
<g style="mix-blend-mode:multiply">
<path d="M46 29H52.46C56.63 29 60 32.7686 60 37.4361V43.5639C60 48.2211 56.63 52 52.46 52H46V29Z" fill="#B7CDE1"/>
</g>
<path fill-rule="evenodd" clip-rule="evenodd" d="M45.7699 49.6699H48.7699V52.92C48.7883 53.6661 48.661 54.4087 48.3951 55.1062C48.1265 55.8109 47.7216 56.4558 47.2036 57.0039C46.6856 57.5521 46.0647 57.9928 45.3763 58.3008C44.6879 58.6089 43.9456 58.7783 43.1917 58.7993L43.1708 58.7999H32.8499V55.7999H43.1267C43.4801 55.7877 43.8279 55.7071 44.1508 55.5625C44.4794 55.4155 44.7759 55.2051 45.0231 54.9435C45.2704 54.6818 45.4636 54.374 45.5919 54.0376C45.7201 53.7012 45.7808 53.3428 45.7705 52.983L45.7699 52.9614V49.6699Z" fill="#1482FF"/>
<path d="M36.24 59.9998H27.76C27.0403 60.0105 26.3457 59.7355 25.8284 59.2351C25.311 58.7346 25.0132 58.0495 25 57.3298V56.6698C25.0132 55.9501 25.311 55.265 25.8284 54.7646C26.3457 54.2641 27.0403 53.9891 27.76 53.9998H36.24C36.9597 53.9891 37.6543 54.2641 38.1716 54.7646C38.689 55.265 38.9868 55.9501 39 56.6698V57.3298C38.9868 58.0495 38.689 58.7346 38.1716 59.2351C37.6543 59.7355 36.9597 60.0105 36.24 59.9998V59.9998Z" fill="#1482FF"/>
</svg>
