<svg width="30" height="30" viewBox="0 0 30 30" fill="none" xmlns="http://www.w3.org/2000/svg">
<g style="mix-blend-mode:multiply">
<path d="M28.7142 9.0707C28.6328 7.30134 27.8729 5.63135 26.5923 4.40771C25.3117 3.18406 23.6089 2.50084 21.8377 2.5C20.0664 2.50084 18.3636 3.18406 17.083 4.40771C15.8024 5.63135 15.0425 7.30134 14.9611 9.0707C14.7971 7.36615 14.004 5.78382 12.7365 4.63238C11.469 3.48095 9.81804 2.84301 8.10562 2.84301C6.39321 2.84301 4.7422 3.48095 3.4747 4.63238C2.2072 5.78382 1.41411 7.36615 1.25015 9.0707C1.19742 19.3855 14.9611 26.3254 14.9611 26.3254C14.9611 26.3254 28.7142 19.3855 28.7142 9.0707Z" fill="#F05656"/>
</g>
</svg>
