<svg viewBox="0 0 312 176" fill="none" xmlns="http://www.w3.org/2000/svg">
<g clip-path="url(#clip0_603_6638)">
<rect x="0.917969" y="0.097168" width="311.082" height="174.984" rx="6" fill="#20014B"/>
<path d="M13.5287 55.3777V52.7044H20.7147V55.3777H13.5287ZM22.4833 64.125V49.4535H25.6272V50.5229C26.226 49.7744 27.274 49.2825 28.6427 49.2825C31.6369 49.2825 33.5831 51.4639 33.5831 54.843C33.5831 58.2222 31.4658 60.4036 28.3861 60.4036C27.2098 60.4036 26.2046 60.0401 25.6272 59.3985V64.125H22.4833ZM27.9797 57.7303C29.4982 57.7303 30.5034 56.5754 30.5034 54.843C30.5034 53.1107 29.4982 51.9558 27.9797 51.9558C26.4613 51.9558 25.4347 53.1107 25.4347 54.843C25.4347 56.5754 26.4613 57.7303 27.9797 57.7303ZM40.6284 60.4036C37.2921 60.4036 34.9395 58.0511 34.9395 54.843C34.9395 51.635 37.2921 49.2825 40.6284 49.2825C43.922 49.2825 46.3173 51.635 46.3173 54.843C46.3173 58.0511 43.922 60.4036 40.6284 60.4036ZM40.6284 57.7303C42.1469 57.7303 43.1735 56.554 43.1735 54.843C43.1735 53.1321 42.1469 51.9558 40.6284 51.9558C39.0886 51.9558 38.062 53.1321 38.062 54.843C38.062 56.554 39.0886 57.7303 40.6284 57.7303ZM51.9387 60.4036C49.3082 60.4036 47.6828 58.7996 47.1267 57.1742L49.6503 56.1904C49.907 57.1956 50.7411 58.0297 51.9387 58.0297C52.7728 58.0297 53.3289 57.6233 53.3289 57.0245C53.3289 55.3349 47.6186 56.4684 47.6186 52.3836C47.6186 50.694 49.0943 49.2825 51.4682 49.2825C53.6711 49.2825 55.489 50.3518 55.9809 51.913L53.4572 52.961C53.1792 51.9772 52.3023 51.5281 51.5752 51.5281C50.8694 51.5281 50.3775 51.8275 50.3775 52.298C50.3775 54.009 56.1734 52.5974 56.1734 56.9603C56.1734 58.821 54.4624 60.4036 51.9387 60.4036ZM59.5084 48.0206C58.439 48.0206 57.6477 47.1865 57.6477 46.1386C57.6477 45.112 58.439 44.2779 59.5084 44.2779C60.5991 44.2779 61.4332 45.112 61.4332 46.1386C61.4332 47.1865 60.5991 48.0206 59.5084 48.0206ZM57.9471 60.2325V49.4535H61.091V60.2325H57.9471ZM70.2391 60.1256C69.7258 60.2967 69.127 60.4036 68.4854 60.4036C66.1542 60.4036 64.3791 59.1632 64.3791 56.554V52.0627H62.6681V49.4535H64.3791V46.3311H67.5229V49.4535H70.1321V52.0627H67.5229V56.1476C67.5229 57.1101 68.0362 57.6661 68.8062 57.6661C69.1911 57.6661 69.6616 57.602 70.0252 57.4095L70.2391 60.1256ZM73.5226 48.0206C72.4533 48.0206 71.662 47.1865 71.662 46.1386C71.662 45.112 72.4533 44.2779 73.5226 44.2779C74.6134 44.2779 75.4475 45.112 75.4475 46.1386C75.4475 47.1865 74.6134 48.0206 73.5226 48.0206ZM71.9614 60.2325V49.4535H75.1053V60.2325H71.9614ZM82.6921 60.4036C79.3557 60.4036 77.0032 58.0511 77.0032 54.843C77.0032 51.635 79.3557 49.2825 82.6921 49.2825C85.9857 49.2825 88.381 51.635 88.381 54.843C88.381 58.0511 85.9857 60.4036 82.6921 60.4036ZM82.6921 57.7303C84.2106 57.7303 85.2371 56.554 85.2371 54.843C85.2371 53.1321 84.2106 51.9558 82.6921 51.9558C81.1522 51.9558 80.1257 53.1321 80.1257 54.843C80.1257 56.554 81.1522 57.7303 82.6921 57.7303ZM90.2572 60.2325V49.4535H93.4011V50.8865C94.0427 49.9454 95.219 49.2825 96.6947 49.2825C99.0686 49.2825 100.651 50.8223 100.651 53.1963V60.2325H97.5288V54.0303C97.5288 52.8541 96.8016 52.0627 95.6681 52.0627C94.171 52.0627 93.4011 53.2818 93.4011 55.506V60.2325H90.2572ZM102.418 55.3777V52.7044H109.604V55.3777H102.418ZM17.1217 92.2319C14.6194 89.2805 13.3148 85.7303 13.3148 81.624C13.3148 77.5391 14.6194 73.9889 17.1217 71.0803L19.239 72.6629C17.2286 75.4004 16.2449 78.3732 16.2449 81.624C16.2449 84.939 17.2286 87.869 19.239 90.6279L17.1217 92.2319ZM19.9824 83.3777V80.7044H27.1684V83.3777H19.9824ZM29.0653 88.2325V73.2617H35.1606C37.8553 73.2617 39.9298 74.6091 39.9298 77.1114C39.9298 78.5229 39.053 79.5922 38.1975 80.0627C39.5449 80.5974 40.6998 81.8165 40.6998 83.7627C40.6998 86.6071 38.4755 88.2325 35.3103 88.2325H29.0653ZM32.4444 78.9292H34.8825C36.2299 78.9292 36.8287 78.3518 36.8287 77.4322C36.8287 76.4911 36.2299 75.9137 34.8184 75.9137H32.4444V78.9292ZM32.4444 85.3239H35.0322C36.7646 85.3239 37.5131 84.7251 37.5131 83.5702C37.5131 82.3939 36.7646 81.7523 35.0322 81.7523H32.4444V85.3239ZM44.1365 76.0206C43.0672 76.0206 42.2759 75.1865 42.2759 74.1386C42.2759 73.112 43.0672 72.2779 44.1365 72.2779C45.2273 72.2779 46.0614 73.112 46.0614 74.1386C46.0614 75.1865 45.2273 76.0206 44.1365 76.0206ZM42.5753 88.2325V77.4535H45.7192V88.2325H42.5753ZM47.5529 88.2325V85.8372L53.0066 80.0627H47.9379V77.4535H56.7921V79.8489L51.4026 85.6233H56.9632V88.2325H47.5529ZM64.0487 88.2325V73.2617H69.1602C73.2665 73.2617 76.9237 75.6143 76.9237 80.7471C76.9237 85.88 73.2665 88.2325 69.1602 88.2325H64.0487ZM67.3637 85.3239H68.7966C71.2134 85.3239 73.5231 84.2118 73.5231 80.7471C73.5231 77.2825 71.2134 76.1489 68.7966 76.1489H67.3637V85.3239ZM89.184 82.565C89.184 82.9928 89.1626 83.506 89.1413 83.7413H81.3992C81.6986 85.0673 82.5969 85.7944 83.9229 85.7944C84.9922 85.7944 85.7835 85.3025 86.0188 84.4043L88.9702 85.1956C88.3286 87.2274 86.4037 88.4036 83.8373 88.4036C80.116 88.4036 78.2981 85.5164 78.2981 82.843C78.2981 80.1697 79.9235 77.2825 83.6448 77.2825C87.5372 77.2825 89.184 80.1697 89.184 82.565ZM81.442 81.5171H85.8263C85.7193 80.4263 85.035 79.6136 83.6448 79.6136C82.5113 79.6136 81.7414 80.2552 81.442 81.5171ZM93.4145 88.2325L89.5007 77.4535H92.6445L94.826 84.5968L97.0075 77.4535H100.173L96.2589 88.2325H93.4145ZM100.434 83.3777V80.7044H107.62V83.3777H100.434ZM110.479 92.2319L108.362 90.6279C110.372 87.869 111.356 84.939 111.356 81.624C111.356 78.3732 110.372 75.4004 108.362 72.6629L110.479 71.0803C112.981 73.9889 114.307 77.5391 114.307 81.624C114.307 85.7303 112.981 89.2805 110.479 92.2319Z" fill="white"/>
<path d="M14.8627 34.3726L13.1021 28.3313H14.3104L15.4755 32.9744L16.6578 28.3313H17.9869L19.1779 32.9744L20.343 28.3313H21.5513L19.8079 34.3726H18.5652L17.331 29.9452L16.0882 34.3726H14.8627ZM22.2485 34.3726V28.3313H26.2876V29.341H23.4223V30.6701H25.718V31.6885H23.4223V33.3542H26.3825V34.3726H22.2485ZM28.325 28.9181C28.325 29.1339 28.2905 29.2547 27.928 29.8761L27.5828 30.4802H27.0477L27.462 29.5654C27.1772 29.4877 26.9787 29.2202 26.9787 28.9181C26.9787 28.547 27.2807 28.245 27.6605 28.245C28.0229 28.245 28.325 28.547 28.325 28.9181ZM34.1215 34.3726H32.7492L31.3252 31.8956H30.3672V34.3726H29.1935L29.1849 28.3313H31.5151C32.6975 28.3313 33.4656 29.0303 33.4656 30.1178C33.4656 30.7996 33.1117 31.3778 32.5162 31.6712L34.1215 34.3726ZM30.3672 29.341V30.8859H31.3339C31.938 30.8859 32.2832 30.6011 32.2832 30.1178C32.2832 29.6345 31.938 29.341 31.3339 29.341H30.3672ZM34.798 34.3726V28.3313H38.8371V29.341H35.9718V30.6701H38.2674V31.6885H35.9718V33.3542H38.932V34.3726H34.798ZM45.7009 28.3313H46.8747V34.3726H45.7009V31.7403H43.0514V34.3726H41.8777V28.3313H43.0514V30.7305H45.7009V28.3313ZM48.0133 34.3726V28.3313H49.1871V34.3726H48.0133ZM55.2592 34.3726H53.887L52.463 31.8956H51.505V34.3726H50.3313L50.3226 28.3313H52.6529C53.8352 28.3313 54.6033 29.0303 54.6033 30.1178C54.6033 30.7996 54.2495 31.3778 53.654 31.6712L55.2592 34.3726ZM51.505 29.341V30.8859H52.4716C53.0757 30.8859 53.421 30.6011 53.421 30.1178C53.421 29.6345 53.0757 29.341 52.4716 29.341H51.505ZM55.9358 34.3726V28.3313H57.1095V34.3726H55.9358ZM58.2451 34.3726V28.3313H59.4361L62.0252 32.5257V28.3313H63.1213V34.3726H61.9303L59.3498 30.1868V34.3726H58.2451ZM66.9639 34.4416C65.4277 34.4416 64.0037 33.4146 64.0037 31.3519C64.0037 29.2892 65.4622 28.2622 67.0416 28.2622C68.4915 28.2622 69.5185 29.0217 69.7515 30.2731L68.595 30.5148C68.4483 29.7553 67.8442 29.272 67.0329 29.272C65.9541 29.272 65.186 30.0315 65.186 31.3519C65.186 32.6724 65.9541 33.4232 67.0157 33.4232C67.9305 33.4232 68.5433 32.8795 68.6037 32.0941H66.8085V31.1448H69.6911V34.3726H68.6296V33.639C68.362 34.1309 67.6975 34.4416 66.9639 34.4416Z" fill="#42CACD"/>
<path d="M16.4662 157.972L16.0295 156.845H14.0612L13.6245 157.972H13.0296L14.7827 153.542H15.308L17.0675 157.972H16.4662ZM14.2574 156.333H15.8333L15.0486 154.301L14.2574 156.333ZM17.5627 159.124V154.782H18.1007V155.244C18.2716 154.953 18.6893 154.731 19.1513 154.731C20.1323 154.731 20.6766 155.44 20.6766 156.377C20.6766 157.314 20.1196 158.023 19.1387 158.023C18.7336 158.023 18.3159 157.82 18.1007 157.529V159.124H17.5627ZM19.088 157.542C19.7209 157.542 20.1323 157.08 20.1323 156.377C20.1323 155.675 19.7209 155.212 19.088 155.212C18.4678 155.212 18.0564 155.675 18.0564 156.377C18.0564 157.08 18.4678 157.542 19.088 157.542ZM21.3638 159.124V154.782H21.9018V155.244C22.0727 154.953 22.4904 154.731 22.9524 154.731C23.9334 154.731 24.4777 155.44 24.4777 156.377C24.4777 157.314 23.9207 158.023 22.9397 158.023C22.5347 158.023 22.117 157.82 21.9018 157.529V159.124H21.3638ZM22.8891 157.542C23.522 157.542 23.9334 157.08 23.9334 156.377C23.9334 155.675 23.522 155.212 22.8891 155.212C22.2689 155.212 21.8575 155.675 21.8575 156.377C21.8575 157.08 22.2689 157.542 22.8891 157.542ZM26.1586 158.016C25.589 158.073 25.1649 157.858 25.1649 157.193V153.491H25.7029V157.155C25.7029 157.504 25.8674 157.554 26.1333 157.535L26.1586 158.016ZM28.8855 154.782H29.4361L27.7652 159.124H27.2146L27.6766 157.928L26.4298 154.782H27.0121L27.9488 157.225L28.8855 154.782ZM33.1777 157.947C33.0195 158.004 32.8486 158.023 32.6777 158.023C32.1334 158.023 31.7347 157.719 31.7347 157.016V155.257H31.1398V154.782H31.7347V153.814H32.2726V154.782H33.1271V155.257H32.2726V157.035C32.2726 157.371 32.4625 157.535 32.741 157.535C32.8676 157.535 33.0131 157.516 33.1397 157.453L33.1777 157.947ZM35.1618 158.023C34.2124 158.023 33.5416 157.333 33.5416 156.377C33.5416 155.421 34.2124 154.731 35.1618 154.731C36.1048 154.731 36.7883 155.421 36.7883 156.377C36.7883 157.333 36.1048 158.023 35.1618 158.023ZM35.1618 157.542C35.801 157.542 36.2314 157.061 36.2314 156.377C36.2314 155.693 35.801 155.212 35.1618 155.212C34.5225 155.212 34.0922 155.693 34.0922 156.377C34.0922 157.061 34.5225 157.542 35.1618 157.542ZM41.7754 154.782V157.972H41.2375V157.371C41.016 157.75 40.6299 158.023 40.1426 158.023C39.478 158.023 39.0034 157.573 39.0034 156.896V154.782H39.5413V156.795C39.5413 157.225 39.8135 157.535 40.2628 157.535C40.8577 157.535 41.2375 157.023 41.2375 156.181V154.782H41.7754ZM43.7195 158.023C42.9474 158.023 42.5297 157.542 42.3904 157.092L42.8525 156.89C42.9727 157.263 43.2259 157.567 43.7195 157.567C44.1119 157.567 44.3651 157.339 44.3651 157.08C44.3651 156.263 42.5297 156.788 42.5297 155.58C42.5297 155.073 42.9664 154.731 43.6499 154.731C44.2132 154.731 44.7005 155.048 44.8334 155.516L44.3841 155.712C44.2955 155.383 43.979 155.175 43.6372 155.175C43.2765 155.175 43.0487 155.32 43.0487 155.573C43.0487 156.257 44.8967 155.757 44.8904 157.073C44.8904 157.63 44.422 158.023 43.7195 158.023ZM48.2898 154.731C49.062 154.731 49.5999 155.187 49.5999 155.928V157.972H49.0683V157.428C48.8848 157.795 48.467 158.023 48.005 158.023C47.3658 158.023 46.9291 157.63 46.9291 157.08C46.9291 156.466 47.4291 156.13 48.4481 156.029L49.0683 155.959V155.896C49.0683 155.459 48.7582 155.181 48.2898 155.181C47.8531 155.181 47.543 155.44 47.4987 155.871L46.9987 155.776C47.0937 155.143 47.619 154.731 48.2898 154.731ZM48.0873 157.58C48.7075 157.58 49.0683 157.168 49.0683 156.529V156.377L48.4481 156.447C47.8025 156.516 47.4671 156.738 47.4671 157.073C47.4671 157.371 47.7202 157.58 48.0873 157.58ZM52.1522 157.947C51.994 158.004 51.8231 158.023 51.6522 158.023C51.108 158.023 50.7092 157.719 50.7092 157.016V155.257H50.1143V154.782H50.7092V153.814H51.2472V154.782H52.1016V155.257H51.2472V157.035C51.2472 157.371 51.4371 157.535 51.7155 157.535C51.8421 157.535 51.9877 157.516 52.1143 157.453L52.1522 157.947Z" fill="white"/>
<path d="M55.3699 158.023C54.5914 158.023 54.1104 157.548 53.9459 157.067L54.6927 156.776C54.7686 157.073 55.0154 157.32 55.3699 157.32C55.6167 157.32 55.7813 157.2 55.7813 157.023C55.7813 156.523 54.0914 156.858 54.0914 155.649C54.0914 155.149 54.5281 154.731 55.2306 154.731C55.8825 154.731 56.4205 155.048 56.566 155.51L55.8192 155.82C55.7369 155.529 55.4775 155.396 55.2623 155.396C55.0534 155.396 54.9079 155.485 54.9079 155.624C54.9079 156.13 56.623 155.712 56.623 157.004C56.623 157.554 56.1167 158.023 55.3699 158.023ZM60.205 156.295C60.205 156.421 60.1986 156.573 60.1923 156.643H57.9012C57.9898 157.035 58.2556 157.25 58.648 157.25C58.9645 157.25 59.1986 157.105 59.2683 156.839L60.1417 157.073C59.9518 157.674 59.3822 158.023 58.6227 158.023C57.5215 158.023 56.9835 157.168 56.9835 156.377C56.9835 155.586 57.4645 154.731 58.5658 154.731C59.7176 154.731 60.205 155.586 60.205 156.295ZM57.9139 155.985H59.2113C59.1797 155.662 58.9771 155.421 58.5658 155.421C58.2303 155.421 58.0025 155.611 57.9139 155.985ZM62.6891 157.94C62.5372 157.991 62.36 158.023 62.1701 158.023C61.4802 158.023 60.9549 157.655 60.9549 156.883V155.554H60.4486V154.782H60.9549V153.858H61.8853V154.782H62.6574V155.554H61.8853V156.763C61.8853 157.048 62.0372 157.212 62.265 157.212C62.379 157.212 62.5182 157.193 62.6258 157.137L62.6891 157.94ZM66.2437 154.782V157.972H65.3197V157.548C65.1235 157.826 64.7754 158.023 64.345 158.023C63.6425 158.023 63.1678 157.567 63.1678 156.864V154.782H64.0982V156.618C64.0982 156.966 64.3134 157.2 64.6425 157.2C65.0855 157.2 65.3197 156.839 65.3197 156.181V154.782H66.2437ZM67.5196 158.023C67.2094 158.023 66.9689 157.788 66.9689 157.485C66.9689 157.174 67.2094 156.94 67.5196 156.94C67.8297 156.94 68.0702 157.174 68.0702 157.485C68.0702 157.788 67.8297 158.023 67.5196 158.023ZM70.0753 158.023C69.1133 158.023 68.4424 157.345 68.4424 156.377C68.4424 155.409 69.1133 154.731 70.0753 154.731C70.9297 154.731 71.5246 155.162 71.6259 155.864L70.7272 156.042C70.6765 155.725 70.4424 155.523 70.1133 155.523C69.6766 155.523 69.3981 155.858 69.3981 156.377C69.3981 156.896 69.6829 157.231 70.1133 157.231C70.4424 157.231 70.6512 157.042 70.7145 156.75L71.6195 156.934C71.5056 157.605 70.917 158.023 70.0753 158.023ZM73.7169 158.023C72.7295 158.023 72.0333 157.326 72.0333 156.377C72.0333 155.428 72.7295 154.731 73.7169 154.731C74.6915 154.731 75.4004 155.428 75.4004 156.377C75.4004 157.326 74.6915 158.023 73.7169 158.023ZM73.7169 157.231C74.1662 157.231 74.47 156.883 74.47 156.377C74.47 155.871 74.1662 155.523 73.7169 155.523C73.2612 155.523 72.9574 155.871 72.9574 156.377C72.9574 156.883 73.2612 157.231 73.7169 157.231ZM75.5647 157.978L77.552 153.542H78.5203L76.5267 157.978H75.5647ZM79.7171 158.023C78.7551 158.023 78.0842 157.345 78.0842 156.377C78.0842 155.409 78.7551 154.731 79.7171 154.731C80.5715 154.731 81.1664 155.162 81.2677 155.864L80.3689 156.042C80.3183 155.725 80.0841 155.523 79.755 155.523C79.3183 155.523 79.0399 155.858 79.0399 156.377C79.0399 156.896 79.3247 157.231 79.755 157.231C80.0841 157.231 80.293 157.042 80.3563 156.75L81.2613 156.934C81.1474 157.605 80.5588 158.023 79.7171 158.023ZM83.074 154.731C83.9411 154.731 84.5297 155.181 84.5297 156.08V157.972H83.6309V157.567C83.4474 157.845 83.0866 158.023 82.7322 158.023C82.112 158.023 81.6753 157.605 81.6753 157.073C81.6753 156.44 82.1373 156.099 83.055 156.004L83.6309 155.947V155.928C83.6309 155.611 83.4158 155.421 83.074 155.421C82.7702 155.421 82.5487 155.605 82.517 155.915L81.7069 155.763C81.8082 155.137 82.3905 154.731 83.074 154.731ZM82.9601 157.358C83.3778 157.358 83.6246 157.023 83.6309 156.649V156.643V156.624V156.599L83.036 156.668C82.7196 156.7 82.5613 156.858 82.5613 157.042C82.5613 157.219 82.7006 157.358 82.9601 157.358ZM87.4031 155.675C87.2955 155.624 87.1436 155.599 86.998 155.599C86.5803 155.599 86.1816 155.915 86.1816 156.82V157.972H85.2513V154.782H86.1816V155.333C86.3272 154.991 86.7386 154.731 87.1183 154.731C87.2259 154.731 87.3715 154.75 87.4601 154.782L87.4031 155.675ZM90.8547 156.295C90.8547 156.421 90.8484 156.573 90.8421 156.643H88.551C88.6396 157.035 88.9054 157.25 89.2978 157.25C89.6142 157.25 89.8484 157.105 89.918 156.839L90.7914 157.073C90.6016 157.674 90.0319 158.023 89.2725 158.023C88.1712 158.023 87.6333 157.168 87.6333 156.377C87.6333 155.586 88.1143 154.731 89.2155 154.731C90.3674 154.731 90.8547 155.586 90.8547 156.295ZM88.5636 155.985H89.8611C89.8294 155.662 89.6269 155.421 89.2155 155.421C88.8801 155.421 88.6522 155.611 88.5636 155.985ZM94.4827 156.295C94.4827 156.421 94.4764 156.573 94.4701 156.643H92.179C92.2676 157.035 92.5334 157.25 92.9258 157.25C93.2423 157.25 93.4764 157.105 93.5461 156.839L94.4195 157.073C94.2296 157.674 93.66 158.023 92.9005 158.023C91.7993 158.023 91.2613 157.168 91.2613 156.377C91.2613 155.586 91.7423 154.731 92.8435 154.731C93.9954 154.731 94.4827 155.586 94.4827 156.295ZM92.1917 155.985H93.4891C93.4574 155.662 93.2549 155.421 92.8435 155.421C92.5081 155.421 92.2803 155.611 92.1917 155.985ZM97.1994 155.675C97.0918 155.624 96.9399 155.599 96.7944 155.599C96.3766 155.599 95.9779 155.915 95.9779 156.82V157.972H95.0476V154.782H95.9779V155.333C96.1235 154.991 96.5349 154.731 96.9146 154.731C97.0222 154.731 97.1678 154.75 97.2564 154.782L97.1994 155.675ZM98.7517 158.023C97.9733 158.023 97.4923 157.548 97.3277 157.067L98.0745 156.776C98.1505 157.073 98.3973 157.32 98.7517 157.32C98.9986 157.32 99.1631 157.2 99.1631 157.023C99.1631 156.523 97.4733 156.858 97.4733 155.649C97.4733 155.149 97.91 154.731 98.6125 154.731C99.2644 154.731 99.8023 155.048 99.9479 155.51L99.2011 155.82C99.1188 155.529 98.8593 155.396 98.6441 155.396C98.4353 155.396 98.2897 155.485 98.2897 155.624C98.2897 156.13 100.005 155.712 100.005 157.004C100.005 157.554 99.4985 158.023 98.7517 158.023Z" fill="#42CACD"/>
<g clip-path="url(#clip1_603_6638)">
<path d="M270.309 22.1006H276.623C276.703 22.1048 276.779 22.1402 276.833 22.199C276.887 22.2579 276.917 22.3357 276.914 22.4158C276.915 22.4941 276.885 22.5696 276.831 22.6258C276.776 22.682 276.702 22.7143 276.623 22.7157H270.309V22.1006Z" fill="#42CACD"/>
<path d="M283.287 22.1006C283.369 22.1036 283.448 22.1378 283.506 22.1963C283.565 22.2548 283.599 22.3332 283.602 22.4158C283.598 22.4968 283.563 22.5732 283.505 22.6291C283.446 22.685 283.368 22.716 283.287 22.7157H280.509V22.1006H283.287Z" fill="#42CACD"/>
<path d="M287.735 22.1006H295.267C295.347 22.1048 295.422 22.1402 295.476 22.199C295.531 22.2579 295.56 22.3357 295.558 22.4158C295.559 22.4941 295.529 22.5696 295.474 22.6258C295.42 22.682 295.345 22.7143 295.267 22.7157H287.735V22.1006Z" fill="#42CACD"/>
<path d="M270.923 23.3307H276.64C276.72 23.3354 276.795 23.3709 276.85 23.4296C276.904 23.4884 276.934 23.5659 276.932 23.6459C276.933 23.7243 276.903 23.7998 276.848 23.8559C276.793 23.9121 276.719 23.9444 276.64 23.9458H270.923V23.3307Z" fill="#42CACD"/>
<path d="M283.287 23.3307C283.369 23.3337 283.448 23.3679 283.506 23.4264C283.565 23.4849 283.599 23.5633 283.602 23.6459C283.598 23.7269 283.563 23.8033 283.505 23.8592C283.446 23.9151 283.368 23.9461 283.287 23.9458H280.509V23.3307H283.287Z" fill="#42CACD"/>
<path d="M288.351 23.3307H295.284C295.364 23.3354 295.439 23.3709 295.494 23.4296C295.548 23.4883 295.578 23.5658 295.577 23.6459C295.577 23.7243 295.547 23.7998 295.492 23.856C295.438 23.9121 295.363 23.9444 295.284 23.9458H288.351V23.3307Z" fill="#42CACD"/>
<path d="M276.607 14.8735C276.686 14.8749 276.76 14.9072 276.815 14.9633C276.869 15.0195 276.9 15.095 276.899 15.1734C276.9 15.2534 276.871 15.3308 276.816 15.3895C276.762 15.4482 276.687 15.4837 276.607 15.4886H269.693V14.8735H276.607Z" fill="#42CACD"/>
<path d="M285.637 14.8735C285.716 14.8749 285.79 14.9072 285.845 14.9633C285.9 15.0195 285.93 15.095 285.929 15.1734C285.93 15.2534 285.901 15.3308 285.846 15.3895C285.792 15.4482 285.717 15.4837 285.637 15.4886H278.1V14.8735H285.637Z" fill="#42CACD"/>
<path d="M289.913 14.8735C289.993 14.8737 290.069 14.9053 290.125 14.9615C290.181 15.0177 290.213 15.0939 290.213 15.1734C290.213 15.2545 290.182 15.3325 290.126 15.3913C290.07 15.45 289.994 15.4849 289.913 15.4886H287.12V14.8735H289.913Z" fill="#42CACD"/>
<path d="M295.349 14.8735C295.429 14.8737 295.505 14.9053 295.561 14.9615C295.617 15.0177 295.649 15.0939 295.649 15.1734C295.649 15.2545 295.618 15.3325 295.562 15.3913C295.507 15.45 295.43 15.4849 295.349 15.4886H292.554V14.8735H295.349Z" fill="#42CACD"/>
<path d="M276.607 16.1036C276.686 16.105 276.76 16.1373 276.815 16.1934C276.869 16.2496 276.9 16.3251 276.899 16.4035C276.9 16.4835 276.871 16.5609 276.816 16.6196C276.762 16.6783 276.687 16.7138 276.607 16.7187H269.693V16.1036H276.607Z" fill="#42CACD"/>
<path d="M285.637 16.1036C285.716 16.105 285.79 16.1373 285.845 16.1934C285.9 16.2496 285.93 16.3251 285.929 16.4035C285.93 16.4835 285.901 16.5609 285.846 16.6196C285.792 16.6783 285.717 16.7138 285.637 16.7187H278.1V16.1036H285.637Z" fill="#42CACD"/>
<path d="M289.913 16.1036C289.993 16.1038 290.069 16.1354 290.125 16.1916C290.181 16.2478 290.213 16.324 290.213 16.4035C290.213 16.4846 290.182 16.5626 290.126 16.6214C290.07 16.6801 289.994 16.715 289.913 16.7187H287.12V16.1036H289.913Z" fill="#42CACD"/>
<path d="M295.349 16.1036C295.429 16.1038 295.505 16.1354 295.561 16.1916C295.617 16.2478 295.649 16.324 295.649 16.4035C295.649 16.4846 295.618 16.5626 295.562 16.6214C295.507 16.6801 295.43 16.715 295.349 16.7187H292.554V16.1036H295.349Z" fill="#42CACD"/>
<path d="M272.471 17.2826C272.554 17.2855 272.632 17.3197 272.691 17.3782C272.749 17.4367 272.783 17.5151 272.786 17.5978C272.782 17.6788 272.748 17.7552 272.689 17.8111C272.63 17.867 272.552 17.898 272.471 17.8977H269.693V17.2826H272.471Z" fill="#42CACD"/>
<path d="M272.449 20.9218C272.532 20.9247 272.61 20.9589 272.669 21.0174C272.727 21.0759 272.761 21.1544 272.764 21.237C272.761 21.3179 272.726 21.3944 272.667 21.4502C272.608 21.5061 272.53 21.5372 272.449 21.5368H269.693V20.9218H272.449Z" fill="#42CACD"/>
<path d="M283.287 17.2826C283.369 17.2856 283.448 17.3198 283.506 17.3783C283.565 17.4368 283.599 17.5152 283.602 17.5978C283.598 17.6788 283.563 17.7552 283.505 17.8111C283.446 17.867 283.368 17.898 283.287 17.8977H280.509V17.2826H283.287Z" fill="#42CACD"/>
<path d="M289.898 17.2826C289.98 17.2855 290.059 17.3197 290.117 17.3782C290.176 17.4367 290.21 17.5151 290.213 17.5978C290.209 17.6788 290.174 17.7552 290.116 17.8111C290.057 17.867 289.979 17.898 289.898 17.8977H287.12V17.2826H289.898Z" fill="#42CACD"/>
<path d="M295.334 17.2826C295.416 17.2855 295.495 17.3197 295.553 17.3782C295.612 17.4367 295.646 17.5152 295.649 17.5978C295.645 17.6788 295.61 17.7552 295.552 17.8111C295.493 17.867 295.415 17.898 295.334 17.8977H292.554V17.2826H295.334Z" fill="#42CACD"/>
<path d="M275.406 18.5127C275.484 18.5139 275.559 18.5462 275.614 18.6024C275.668 18.6586 275.698 18.7341 275.697 18.8125C275.7 18.8927 275.67 18.9706 275.616 19.0295C275.561 19.0884 275.486 19.1236 275.406 19.1278H269.693V18.5127H275.406Z" fill="#42CACD"/>
<path d="M283.287 18.5127C283.369 18.5157 283.448 18.5499 283.506 18.6084C283.565 18.6669 283.599 18.7453 283.602 18.8279C283.598 18.9089 283.563 18.9853 283.505 19.0412C283.446 19.0971 283.368 19.1281 283.287 19.1278H280.509V18.5127H283.287Z" fill="#42CACD"/>
<path d="M289.913 18.5127C289.993 18.5128 290.069 18.5445 290.125 18.6007C290.181 18.6569 290.213 18.7331 290.213 18.8125C290.213 18.8936 290.182 18.9717 290.126 19.0304C290.07 19.0892 289.994 19.1241 289.913 19.1278H287.12V18.5127H289.913Z" fill="#42CACD"/>
<path d="M295.349 18.5127C295.429 18.5128 295.505 18.5445 295.561 18.6007C295.617 18.6569 295.649 18.7331 295.649 18.8125C295.649 18.8936 295.618 18.9717 295.562 19.0304C295.507 19.0892 295.43 19.1241 295.349 19.1278H292.554V18.5127H295.349Z" fill="#42CACD"/>
<path d="M267.592 22.7157H261.287V22.1006H267.592C267.673 22.1045 267.75 22.1391 267.807 22.1976C267.864 22.2561 267.897 22.3341 267.899 22.4158C267.897 22.496 267.864 22.5723 267.806 22.6283C267.749 22.6843 267.672 22.7157 267.592 22.7157Z" fill="#42CACD"/>
<path d="M266.976 23.9458H261.287V23.3307H266.991C267.071 23.3356 267.146 23.3711 267.2 23.4298C267.254 23.4885 267.284 23.5659 267.282 23.6459C267.283 23.7243 267.253 23.7998 267.198 23.8559C267.144 23.9121 267.069 23.9444 266.991 23.9458" fill="#42CACD"/>
<path d="M267.617 14.8735C267.696 14.8749 267.77 14.9072 267.825 14.9633C267.88 15.0195 267.91 15.095 267.909 15.1734C267.91 15.2534 267.881 15.3308 267.826 15.3895C267.772 15.4482 267.697 15.4837 267.617 15.4886H261.902V14.8735H267.617Z" fill="#42CACD"/>
<path d="M267.599 16.1036C267.678 16.105 267.752 16.1373 267.807 16.1934C267.862 16.2496 267.892 16.3251 267.891 16.4035C267.893 16.4836 267.863 16.561 267.809 16.6198C267.754 16.6785 267.679 16.714 267.599 16.7187H261.287V16.1036H267.599Z" fill="#42CACD"/>
<path d="M263.48 17.2826C263.562 17.2855 263.641 17.3197 263.699 17.3782C263.758 17.4367 263.792 17.5152 263.794 17.5978C263.791 17.6788 263.756 17.7552 263.697 17.8111C263.639 17.867 263.561 17.898 263.48 17.8977H260.724V17.2826H263.48Z" fill="#42CACD"/>
<path d="M268.268 20.9218C268.35 20.9247 268.429 20.9588 268.487 21.0173C268.546 21.0758 268.58 21.1543 268.583 21.237C268.579 21.318 268.544 21.3944 268.486 21.4503C268.427 21.5062 268.349 21.5372 268.268 21.5368H265.49V20.9218H268.268Z" fill="#42CACD"/>
<path d="M266.991 18.5127C267.07 18.5138 267.145 18.5459 267.2 18.6021C267.254 18.6583 267.285 18.734 267.284 18.8125C267.285 18.8927 267.256 18.9703 267.201 19.029C267.147 19.0878 267.071 19.1231 266.991 19.1278H261.287V18.5127H266.991Z" fill="#42CACD"/>
<path d="M267.643 20.3067H261.902V19.6917H267.62C267.7 19.6964 267.775 19.7318 267.829 19.7906C267.884 19.8493 267.913 19.9268 267.912 20.0069C267.913 20.0853 267.882 20.1608 267.828 20.2169C267.773 20.2731 267.698 20.3054 267.62 20.3067" fill="#42CACD"/>
<path d="M275.383 20.3067H269.693V19.6917H275.406C275.486 19.6958 275.561 19.731 275.616 19.7899C275.67 19.8488 275.7 19.9267 275.697 20.0069C275.698 20.0853 275.668 20.1609 275.614 20.2171C275.559 20.2733 275.484 20.3055 275.406 20.3067" fill="#42CACD"/>
<path d="M283.287 19.6917C283.369 19.6947 283.448 19.7289 283.506 19.7874C283.565 19.8458 283.599 19.9242 283.602 20.0069C283.598 20.0879 283.563 20.1643 283.505 20.2202C283.446 20.2761 283.368 20.3071 283.287 20.3067H280.509V19.6917H283.287Z" fill="#42CACD"/>
<path d="M289.888 20.3067H287.12V19.6917H289.913C289.994 19.6954 290.07 19.7302 290.126 19.789C290.182 19.8477 290.213 19.9258 290.213 20.0069C290.213 20.0864 290.181 20.1625 290.125 20.2187C290.069 20.2749 289.993 20.3066 289.913 20.3067" fill="#42CACD"/>
<path d="M295.373 20.3067H292.554V19.6917H295.349C295.43 19.6954 295.507 19.7302 295.562 19.789C295.618 19.8477 295.649 19.9258 295.649 20.0069C295.649 20.0864 295.617 20.1625 295.561 20.2187C295.505 20.2749 295.429 20.3066 295.349 20.3067" fill="#42CACD"/>
<path d="M283.287 20.9218C283.369 20.9248 283.448 20.959 283.506 21.0175C283.565 21.0759 283.599 21.1543 283.602 21.237C283.598 21.318 283.563 21.3944 283.505 21.4503C283.446 21.5062 283.368 21.5372 283.287 21.5368H280.509V20.9218H283.287Z" fill="#42CACD"/>
<path d="M289.898 20.9218C289.98 20.9247 290.059 20.9588 290.117 21.0173C290.176 21.0758 290.21 21.1543 290.213 21.237C290.209 21.318 290.174 21.3944 290.116 21.4503C290.057 21.5062 289.979 21.5372 289.898 21.5368H287.12V20.9218H289.898Z" fill="#42CACD"/>
<path d="M295.334 20.9218C295.416 20.9247 295.495 20.9589 295.553 21.0174C295.612 21.0759 295.646 21.1544 295.649 21.237C295.645 21.3179 295.61 21.3944 295.552 21.4502C295.493 21.5061 295.415 21.5372 295.334 21.5368H292.554V20.9218H295.334Z" fill="#42CACD"/>
</g>
<g filter="url(#filter0_d_603_6638)">
<circle cx="268.961" cy="153.007" r="27.5093" fill="#4B02B0"/>
</g>
<line x1="254.181" y1="122.864" x2="254.181" y2="182.858" stroke="#20014B" stroke-width="0.292653"/>
<line x1="283.74" y1="122.864" x2="283.74" y2="182.858" stroke="#20014B" stroke-width="0.292653"/>
<line x1="238.817" y1="137.936" x2="298.811" y2="137.936" stroke="#20014B" stroke-width="0.292653"/>
<line x1="238.817" y1="167.494" x2="298.811" y2="167.494" stroke="#20014B" stroke-width="0.292653"/>
<circle cx="268.96" cy="152.715" r="14.9253" fill="#FFF4E6"/>
<path d="M277.155 152.861C277.155 155.073 276.276 157.195 274.712 158.759C273.148 160.323 271.026 161.202 268.814 161.202C266.602 161.202 264.481 160.323 262.917 158.759C261.352 157.195 260.474 155.073 260.474 152.861" stroke="#FEB452" stroke-width="1.46326" stroke-linecap="round"/>
<mask id="mask0_603_6638" style="mask-type:alpha" maskUnits="userSpaceOnUse" x="241" y="125" width="56" height="56">
<circle cx="268.961" cy="153.007" r="27.5093" fill="white"/>
</mask>
<g mask="url(#mask0_603_6638)">
</g>
<path fill-rule="evenodd" clip-rule="evenodd" d="M278.211 160.502L286.975 164.227L283.278 165.57L281.936 169.266L278.211 160.502Z" fill="#20014B"/>
<path d="M255.708 131.268L257.901 127.254L260.083 131.268L264.097 133.461L260.083 135.598L257.901 139.657L255.708 135.598L251.694 133.461L255.708 131.268Z" fill="#F5C270"/>
<path d="M283.344 141.345L284.328 139.545L285.306 141.345L287.105 142.328L285.306 143.286L284.328 145.106L283.344 143.286L281.545 142.328L283.344 141.345Z" fill="#F5C270"/>
<g filter="url(#filter1_d_603_6638)">
<circle cx="254.242" cy="88.2878" r="27.5093" fill="#4B02B0"/>
</g>
<mask id="mask1_603_6638" style="mask-type:alpha" maskUnits="userSpaceOnUse" x="226" y="60" width="56" height="56">
<circle cx="254.242" cy="88.2878" r="27.5093" fill="white"/>
</mask>
<g mask="url(#mask1_603_6638)">
<line x1="235.931" y1="58.1447" x2="235.931" y2="118.138" stroke="#20014B" stroke-width="0.292653"/>
<line x1="271.9" y1="58.1447" x2="271.9" y2="118.138" stroke="#20014B" stroke-width="0.292653"/>
<line x1="224.099" y1="71.4998" x2="284.092" y2="71.4998" stroke="#20014B" stroke-width="0.292653"/>
<line x1="224.099" y1="103.969" x2="284.092" y2="103.969" stroke="#20014B" stroke-width="0.292653"/>
<path d="M237.779 73.2511L238.762 71.4517L239.74 73.2511L241.54 74.2344L239.74 75.1924L238.762 77.0121L237.779 75.1924L235.979 74.2344L237.779 73.2511Z" fill="#F5C270"/>
<path d="M268.109 100.082L269.092 98.2825L270.071 100.082L271.87 101.065L270.071 102.023L269.092 103.843L268.109 102.023L266.31 101.065L268.109 100.082Z" fill="#F5C270"/>
</g>
<g filter="url(#filter2_d_603_6638)">
<circle cx="204.578" cy="133.4" r="27.5093" fill="#4B02B0"/>
</g>
<mask id="mask2_603_6638" style="mask-type:alpha" maskUnits="userSpaceOnUse" x="177" y="105" width="56" height="56">
<circle cx="204.578" cy="133.4" r="27.5093" fill="white"/>
</mask>
<g mask="url(#mask2_603_6638)">
<line x1="186.688" y1="103.256" x2="186.688" y2="163.25" stroke="#20014B" stroke-width="0.292653"/>
<line x1="222.128" y1="103.256" x2="222.128" y2="163.25" stroke="#20014B" stroke-width="0.292653"/>
<line x1="174.435" y1="131.577" x2="234.428" y2="131.577" stroke="#20014B" stroke-width="0.292653"/>
<line x1="174.24" y1="153.936" x2="234.234" y2="153.936" stroke="#20014B" stroke-width="0.292653"/>
</g>
<path d="M215.261 127.914C215.727 127.915 216.188 127.812 216.61 127.613C217.031 127.414 217.404 127.123 217.699 126.762C217.994 126.401 218.206 125.979 218.318 125.526C218.429 125.073 218.439 124.601 218.346 124.144C218.222 123.539 217.923 122.985 217.486 122.549C217.05 122.113 216.494 121.815 215.889 121.693C215.28 121.568 214.647 121.63 214.073 121.869C213.403 122.147 212.849 122.648 212.506 123.288C212.163 123.927 212.052 124.666 212.192 125.378C212.332 126.09 212.714 126.732 213.273 127.194C213.833 127.656 214.535 127.911 215.261 127.914Z" fill="#B5CBDF"/>
<path d="M215.261 127.914C215.727 127.915 216.188 127.812 216.61 127.613C217.031 127.414 217.404 127.123 217.699 126.762C217.994 126.401 218.206 125.979 218.318 125.526C218.429 125.073 218.439 124.601 218.346 124.144C218.222 123.539 217.923 122.985 217.486 122.549C217.05 122.113 216.494 121.815 215.889 121.693C215.28 121.568 214.647 121.63 214.073 121.869C213.403 122.147 212.849 122.648 212.506 123.288C212.163 123.927 212.052 124.666 212.192 125.378C212.332 126.09 212.714 126.732 213.273 127.194C213.833 127.656 214.535 127.911 215.261 127.914Z" fill="#B5CBDF"/>
<path d="M222.171 139.149C222.183 139.315 222.16 139.482 222.102 139.639C222.052 139.799 221.966 139.945 221.851 140.066C221.738 140.19 221.601 140.291 221.449 140.361C221.298 140.435 221.133 140.476 220.965 140.481H208.926C208.759 140.473 208.595 140.433 208.444 140.362C208.293 140.291 208.158 140.19 208.046 140.066C207.931 139.944 207.843 139.798 207.789 139.639C207.734 139.481 207.711 139.315 207.72 139.149V134.826C207.72 130.918 210.522 128.542 214.041 128.542H215.85C219.369 128.542 222.171 130.918 222.171 134.826V139.149Z" fill="#B5CBDF"/>
<path d="M194.137 119.148C194.603 119.149 195.064 119.046 195.486 118.847C195.907 118.648 196.28 118.357 196.575 117.996C196.87 117.635 197.082 117.213 197.194 116.76C197.305 116.307 197.315 115.835 197.222 115.378C197.098 114.773 196.799 114.219 196.362 113.783C195.926 113.347 195.37 113.05 194.765 112.928C194.156 112.803 193.523 112.864 192.949 113.103C192.279 113.381 191.725 113.882 191.382 114.522C191.039 115.161 190.928 115.9 191.068 116.612C191.208 117.324 191.59 117.966 192.149 118.428C192.709 118.89 193.411 119.145 194.137 119.148Z" fill="#B5CBDF"/>
<path d="M194.137 119.148C194.603 119.149 195.064 119.046 195.486 118.847C195.907 118.648 196.28 118.357 196.575 117.996C196.87 117.635 197.082 117.213 197.194 116.76C197.305 116.307 197.315 115.835 197.222 115.378C197.098 114.773 196.799 114.219 196.362 113.783C195.926 113.347 195.37 113.05 194.765 112.928C194.156 112.803 193.523 112.864 192.949 113.103C192.279 113.381 191.725 113.882 191.382 114.522C191.039 115.161 190.928 115.9 191.068 116.612C191.208 117.324 191.59 117.966 192.149 118.428C192.709 118.89 193.411 119.145 194.137 119.148Z" fill="#B5CBDF"/>
<path d="M201.048 130.383C201.06 130.549 201.037 130.716 200.979 130.873C200.929 131.033 200.843 131.179 200.728 131.3C200.615 131.425 200.478 131.525 200.325 131.596C200.175 131.67 200.01 131.71 199.842 131.715H187.803C187.636 131.708 187.472 131.667 187.321 131.596C187.17 131.525 187.035 131.424 186.923 131.3C186.808 131.178 186.72 131.032 186.666 130.873C186.611 130.716 186.588 130.549 186.597 130.383V126.06C186.597 122.152 189.399 119.777 192.918 119.777H194.727C198.246 119.777 201.048 122.152 201.048 126.06V130.383Z" fill="#B5CBDF"/>
<path d="M203.453 152.606C203.465 152.773 203.442 152.94 203.384 153.096C203.334 153.256 203.248 153.402 203.133 153.524C203.02 153.648 202.883 153.748 202.731 153.819C202.58 153.893 202.415 153.934 202.247 153.938H190.208C190.041 153.931 189.878 153.891 189.727 153.819C189.576 153.748 189.44 153.648 189.329 153.524C189.213 153.401 189.125 153.255 189.071 153.096C189.016 152.939 188.993 152.772 189.002 152.606V148.283C189.002 144.375 191.804 142 195.323 142H197.132C200.651 142 203.453 144.375 203.453 148.283V152.606Z" fill="#B5CBDF"/>
<g style="mix-blend-mode:multiply">
<path d="M196.649 141.512C197.116 141.513 197.577 141.41 197.998 141.21C198.42 141.011 198.792 140.721 199.088 140.36C199.383 139.999 199.594 139.576 199.706 139.123C199.818 138.671 199.828 138.199 199.734 137.742C199.611 137.137 199.312 136.582 198.875 136.146C198.438 135.711 197.883 135.413 197.278 135.291C196.668 135.166 196.036 135.227 195.462 135.467C194.791 135.745 194.237 136.246 193.894 136.885C193.551 137.525 193.441 138.263 193.58 138.976C193.72 139.688 194.102 140.329 194.662 140.792C195.221 141.254 195.924 141.508 196.649 141.512Z" fill="#B5CBDF"/>
</g>
<path d="M196.649 141.512C197.116 141.513 197.577 141.41 197.998 141.21C198.42 141.011 198.792 140.721 199.088 140.36C199.383 139.999 199.594 139.576 199.706 139.123C199.818 138.671 199.828 138.199 199.734 137.742C199.611 137.137 199.312 136.582 198.875 136.146C198.438 135.711 197.883 135.413 197.278 135.291C196.668 135.166 196.036 135.227 195.462 135.467C194.791 135.745 194.237 136.246 193.894 136.885C193.551 137.525 193.441 138.263 193.58 138.976C193.72 139.688 194.102 140.329 194.662 140.792C195.221 141.254 195.924 141.508 196.649 141.512Z" fill="#B5CBDF"/>
<g style="mix-blend-mode:multiply">
<path d="M203.561 152.746C203.573 152.913 203.549 153.08 203.492 153.236C203.442 153.396 203.356 153.542 203.24 153.664C203.127 153.788 202.991 153.888 202.838 153.959C202.687 154.033 202.522 154.074 202.354 154.078H190.316C190.149 154.071 189.985 154.031 189.834 153.96C189.683 153.888 189.548 153.788 189.436 153.664C189.321 153.541 189.233 153.396 189.178 153.236C189.124 153.079 189.1 152.913 189.109 152.746V148.423C189.109 144.515 191.912 142.14 195.43 142.14H197.24C200.758 142.14 203.561 144.515 203.561 148.423V152.746Z" fill="#B5CBDF"/>
</g>
<path d="M204.385 141.109C205.984 141.108 207.533 140.553 208.769 139.538C210.004 138.524 210.85 137.112 211.162 135.543C211.473 133.975 211.231 132.347 210.477 130.937C209.723 129.527 208.503 128.422 207.025 127.811C205.548 127.199 203.904 127.119 202.374 127.584C200.844 128.048 199.523 129.029 198.635 130.359C197.747 131.688 197.347 133.285 197.504 134.876C197.661 136.468 198.365 137.955 199.496 139.085C200.795 140.379 202.552 141.106 204.385 141.109Z" fill="#FFB036"/>
<g style="mix-blend-mode:multiply">
<path d="M205.265 129.907L202.645 132.527C202.002 133.171 202.065 134.276 202.787 134.998C203.508 135.72 204.614 135.783 205.257 135.14L207.877 132.519C208.521 131.876 208.458 130.77 207.736 130.049C207.014 129.327 205.909 129.264 205.265 129.907ZM207.224 131.866L204.604 134.487C204.431 134.64 204.203 134.719 203.972 134.705C203.741 134.692 203.524 134.588 203.369 134.415C203.197 134.26 203.092 134.044 203.079 133.813C203.066 133.581 203.144 133.354 203.298 133.18L205.918 130.56C206.092 130.406 206.319 130.328 206.55 130.341C206.782 130.355 206.998 130.459 207.153 130.632C207.326 130.786 207.43 131.003 207.443 131.234C207.457 131.465 207.378 131.693 207.224 131.866Z" fill="#FEB452"/>
</g>
<g style="mix-blend-mode:multiply">
<path d="M203.774 133.458L201.154 136.079C200.51 136.722 200.574 137.827 201.295 138.549C202.017 139.271 203.122 139.334 203.766 138.691L206.386 136.07C207.03 135.427 206.965 134.32 206.245 133.6C205.524 132.879 204.417 132.815 203.774 133.458ZM205.733 135.417L203.113 138.038C202.94 138.191 202.713 138.27 202.482 138.257C202.251 138.243 202.034 138.14 201.88 137.968C201.707 137.813 201.603 137.596 201.589 137.365C201.576 137.134 201.654 136.906 201.808 136.733L204.428 134.113C204.602 133.958 204.829 133.879 205.061 133.892C205.293 133.905 205.51 134.01 205.664 134.183C205.836 134.338 205.94 134.555 205.953 134.786C205.966 135.017 205.887 135.244 205.733 135.417Z" fill="#FEB452"/>
</g>
<g style="mix-blend-mode:multiply">
<path d="M205.265 129.907L202.645 132.527C202.002 133.171 202.065 134.276 202.787 134.998C203.508 135.72 204.614 135.783 205.257 135.14L207.877 132.519C208.521 131.876 208.458 130.77 207.736 130.049C207.014 129.327 205.909 129.264 205.265 129.907ZM207.224 131.866L204.604 134.487C204.431 134.64 204.203 134.719 203.972 134.705C203.741 134.692 203.524 134.588 203.369 134.415C203.197 134.26 203.092 134.044 203.079 133.813C203.066 133.581 203.144 133.354 203.298 133.18L205.918 130.56C206.092 130.406 206.319 130.328 206.55 130.341C206.782 130.355 206.998 130.459 207.153 130.632C207.326 130.786 207.43 131.003 207.443 131.234C207.457 131.465 207.378 131.693 207.224 131.866Z" fill="#FED39A"/>
</g>
<g style="mix-blend-mode:multiply">
<path d="M203.774 133.458L201.154 136.079C200.51 136.722 200.574 137.827 201.295 138.549C202.017 139.271 203.122 139.334 203.766 138.691L206.386 136.07C207.03 135.427 206.965 134.32 206.245 133.6C205.524 132.879 204.417 132.815 203.774 133.458ZM205.733 135.417L203.113 138.038C202.94 138.191 202.713 138.27 202.482 138.257C202.251 138.243 202.034 138.14 201.88 137.968C201.707 137.813 201.603 137.596 201.589 137.365C201.576 137.134 201.654 136.906 201.808 136.733L204.428 134.113C204.602 133.958 204.829 133.879 205.061 133.892C205.293 133.905 205.51 134.01 205.664 134.183C205.836 134.338 205.94 134.555 205.953 134.786C205.966 135.017 205.887 135.244 205.733 135.417Z" fill="#FED39A"/>
</g>
<path d="M254.375 87.0178H254.135C253.728 87.0178 253.398 87.3477 253.398 87.7546V102.844C253.398 103.251 253.728 103.581 254.135 103.581H254.375C254.782 103.581 255.112 103.251 255.112 102.844V87.7546C255.112 87.3477 254.782 87.0178 254.375 87.0178Z" fill="#B1CDE2"/>
<path d="M254.158 87.589C256.008 87.5888 257.801 86.9473 259.231 85.7737C260.661 84.6 261.639 82.9669 262 81.1526C262.361 79.3382 262.081 77.4549 261.209 75.8236C260.337 74.1922 258.926 72.9137 257.217 72.2059C255.508 71.4981 253.607 71.4048 251.836 71.9418C250.066 72.4789 248.537 73.6132 247.509 75.1514C246.482 76.6895 246.019 78.5364 246.201 80.3773C246.382 82.2183 247.196 83.9394 248.504 85.2474C249.247 85.9898 250.128 86.5787 251.099 86.9805C252.069 87.3823 253.108 87.5891 254.158 87.589Z" fill="#FFB036"/>
<g style="mix-blend-mode:multiply">
<g style="mix-blend-mode:multiply">
<path fill-rule="evenodd" clip-rule="evenodd" d="M250.286 75.4753H258.036V76.4405H254.764C255.187 76.8863 255.461 77.4535 255.546 78.0625H258.036V79.022H255.529C255.448 79.4907 255.254 79.9325 254.964 80.3088C254.673 80.6851 254.294 80.9845 253.861 81.1809L256.226 85.1788H255.129L252.908 81.3865H250.286V80.4099H252.765C253.285 80.4049 253.784 80.2005 254.158 79.8388C254.413 79.5919 254.595 79.2797 254.684 78.9364H250.286V77.9655H254.741C254.624 77.5284 254.368 77.1414 254.011 76.8631C253.655 76.5848 253.217 76.4305 252.765 76.4234H250.286V75.4753Z" fill="#FFB036"/>
</g>
</g>
<path d="M256.123 93.3002C254.352 95.0707 253.616 98.3147 255.495 100.194C257.374 102.073 260.635 101.376 262.388 99.5655C265.05 96.8983 266.82 88.9197 266.82 88.9197C266.82 88.9197 258.784 90.6331 256.123 93.3002Z" fill="#00A362"/>
<path d="M246.517 95.6133C248.23 97.3609 251.365 98.0406 253.193 96.2187C255.021 94.3968 254.29 91.2556 252.576 89.5536C249.961 87.0178 242.262 85.3044 242.262 85.3044C242.262 85.3044 243.975 93.0261 246.517 95.6133Z" fill="#00A362"/>
</g>
<defs>
<filter id="filter0_d_603_6638" x="235.598" y="119.645" width="67.8953" height="67.8954" filterUnits="userSpaceOnUse" color-interpolation-filters="sRGB">
<feFlood flood-opacity="0" result="BackgroundImageFix"/>
<feColorMatrix in="SourceAlpha" type="matrix" values="0 0 0 0 0 0 0 0 0 0 0 0 0 0 0 0 0 0 127 0" result="hardAlpha"/>
<feMorphology radius="0.585305" operator="dilate" in="SourceAlpha" result="effect1_dropShadow_603_6638"/>
<feOffset dx="0.585305" dy="0.585305"/>
<feGaussianBlur stdDeviation="2.92653"/>
<feComposite in2="hardAlpha" operator="out"/>
<feColorMatrix type="matrix" values="0 0 0 0 0 0 0 0 0 0 0 0 0 0 0 0 0 0 0.02 0"/>
<feBlend mode="normal" in2="BackgroundImageFix" result="effect1_dropShadow_603_6638"/>
<feBlend mode="normal" in="SourceGraphic" in2="effect1_dropShadow_603_6638" result="shape"/>
</filter>
<filter id="filter1_d_603_6638" x="220.879" y="54.9254" width="67.8953" height="67.8954" filterUnits="userSpaceOnUse" color-interpolation-filters="sRGB">
<feFlood flood-opacity="0" result="BackgroundImageFix"/>
<feColorMatrix in="SourceAlpha" type="matrix" values="0 0 0 0 0 0 0 0 0 0 0 0 0 0 0 0 0 0 127 0" result="hardAlpha"/>
<feMorphology radius="0.585305" operator="dilate" in="SourceAlpha" result="effect1_dropShadow_603_6638"/>
<feOffset dx="0.585305" dy="0.585305"/>
<feGaussianBlur stdDeviation="2.92653"/>
<feComposite in2="hardAlpha" operator="out"/>
<feColorMatrix type="matrix" values="0 0 0 0 0 0 0 0 0 0 0 0 0 0 0 0 0 0 0.02 0"/>
<feBlend mode="normal" in2="BackgroundImageFix" result="effect1_dropShadow_603_6638"/>
<feBlend mode="normal" in="SourceGraphic" in2="effect1_dropShadow_603_6638" result="shape"/>
</filter>
<filter id="filter2_d_603_6638" x="171.215" y="100.037" width="67.8953" height="67.8954" filterUnits="userSpaceOnUse" color-interpolation-filters="sRGB">
<feFlood flood-opacity="0" result="BackgroundImageFix"/>
<feColorMatrix in="SourceAlpha" type="matrix" values="0 0 0 0 0 0 0 0 0 0 0 0 0 0 0 0 0 0 127 0" result="hardAlpha"/>
<feMorphology radius="0.585305" operator="dilate" in="SourceAlpha" result="effect1_dropShadow_603_6638"/>
<feOffset dx="0.585305" dy="0.585305"/>
<feGaussianBlur stdDeviation="2.92653"/>
<feComposite in2="hardAlpha" operator="out"/>
<feColorMatrix type="matrix" values="0 0 0 0 0 0 0 0 0 0 0 0 0 0 0 0 0 0 0.02 0"/>
<feBlend mode="normal" in2="BackgroundImageFix" result="effect1_dropShadow_603_6638"/>
<feBlend mode="normal" in="SourceGraphic" in2="effect1_dropShadow_603_6638" result="shape"/>
</filter>
<clipPath id="clip0_603_6638">
<rect x="0.917969" y="0.097168" width="311.082" height="174.984" rx="6" fill="white"/>
</clipPath>
<clipPath id="clip1_603_6638">
<rect width="34.905" height="9.07223" fill="white" transform="translate(260.724 14.8735)"/>
</clipPath>
</defs>
</svg>
