<svg viewBox="0 0 312 176" fill="none" xmlns="http://www.w3.org/2000/svg">
<g clip-path="url(#clip0_544_6025)">
<rect y="0.0972137" width="311.082" height="174.984" rx="6" fill="#1482FF"/>
<path d="M19.1287 58.7011V56.4717H25.1212V58.7011H19.1287ZM26.596 65.9954V53.7609H29.2177V54.6526C29.717 54.0284 30.5909 53.6182 31.7323 53.6182C34.2292 53.6182 35.8521 55.4373 35.8521 58.2552C35.8521 61.0731 34.0865 62.8922 31.5183 62.8922C30.5374 62.8922 29.6992 62.589 29.2177 62.054V65.9954H26.596ZM31.1795 60.6629C32.4457 60.6629 33.284 59.6998 33.284 58.2552C33.284 56.8106 32.4457 55.8475 31.1795 55.8475C29.9132 55.8475 29.0572 56.8106 29.0572 58.2552C29.0572 59.6998 29.9132 60.6629 31.1795 60.6629ZM41.7272 62.8922C38.945 62.8922 36.9832 60.9304 36.9832 58.2552C36.9832 55.58 38.945 53.6182 41.7272 53.6182C44.4738 53.6182 46.4712 55.58 46.4712 58.2552C46.4712 60.9304 44.4738 62.8922 41.7272 62.8922ZM41.7272 60.6629C42.9935 60.6629 43.8495 59.682 43.8495 58.2552C43.8495 56.8284 42.9935 55.8475 41.7272 55.8475C40.4431 55.8475 39.5871 56.8284 39.5871 58.2552C39.5871 59.682 40.4431 60.6629 41.7272 60.6629ZM51.1589 62.8922C48.9653 62.8922 47.6098 61.5546 47.1461 60.1992L49.2506 59.3788C49.4646 60.217 50.1602 60.9126 51.1589 60.9126C51.8545 60.9126 52.3182 60.5737 52.3182 60.0743C52.3182 58.6654 47.5563 59.6106 47.5563 56.2042C47.5563 54.7953 48.7869 53.6182 50.7666 53.6182C52.6035 53.6182 54.1195 54.5099 54.5297 55.8119L52.4252 56.6858C52.1933 55.8654 51.4621 55.4908 50.8557 55.4908C50.2672 55.4908 49.857 55.7405 49.857 56.1329C49.857 57.5597 54.6902 56.3826 54.6902 60.0208C54.6902 61.5724 53.2634 62.8922 51.1589 62.8922ZM57.4712 52.566C56.5795 52.566 55.9196 51.8704 55.9196 50.9965C55.9196 50.1405 56.5795 49.4449 57.4712 49.4449C58.3808 49.4449 59.0764 50.1405 59.0764 50.9965C59.0764 51.8704 58.3808 52.566 57.4712 52.566ZM56.1693 62.7495V53.7609H58.791V62.7495H56.1693ZM66.4196 62.6603C65.9916 62.803 65.4922 62.8922 64.9572 62.8922C63.0132 62.8922 61.5329 61.8578 61.5329 59.682V55.9367H60.1062V53.7609H61.5329V51.157H64.1546V53.7609H66.3304V55.9367H64.1546V59.3431C64.1546 60.1457 64.5826 60.6094 65.2247 60.6094C65.5457 60.6094 65.9381 60.5559 66.2413 60.3953L66.4196 62.6603ZM69.1578 52.566C68.266 52.566 67.6062 51.8704 67.6062 50.9965C67.6062 50.1405 68.266 49.4449 69.1578 49.4449C70.0673 49.4449 70.7629 50.1405 70.7629 50.9965C70.7629 51.8704 70.0673 52.566 69.1578 52.566ZM67.8558 62.7495V53.7609H70.4775V62.7495H67.8558ZM76.8042 62.8922C74.022 62.8922 72.0602 60.9304 72.0602 58.2552C72.0602 55.58 74.022 53.6182 76.8042 53.6182C79.5507 53.6182 81.5482 55.58 81.5482 58.2552C81.5482 60.9304 79.5507 62.8922 76.8042 62.8922ZM76.8042 60.6629C78.0705 60.6629 78.9265 59.682 78.9265 58.2552C78.9265 56.8284 78.0705 55.8475 76.8042 55.8475C75.5201 55.8475 74.6641 56.8284 74.6641 58.2552C74.6641 59.682 75.5201 60.6629 76.8042 60.6629ZM83.1128 62.7495V53.7609H85.7344V54.9558C86.2695 54.1711 87.2504 53.6182 88.481 53.6182C90.4606 53.6182 91.7804 54.9023 91.7804 56.8819V62.7495H89.1765V57.5775C89.1765 56.5966 88.5701 55.9367 87.6249 55.9367C86.3765 55.9367 85.7344 56.9533 85.7344 58.8081V62.7495H83.1128ZM93.2537 58.7011V56.4717H99.2461V58.7011H93.2537ZM22.1249 87.0846C20.0383 84.6234 18.9504 81.6629 18.9504 78.2386C18.9504 74.8322 20.0383 71.8717 22.1249 69.4462L23.8906 70.7659C22.2141 73.0488 21.3937 75.5278 21.3937 78.2386C21.3937 81.003 22.2141 83.4463 23.8906 85.747L22.1249 87.0846ZM24.5105 79.7011V77.4717H30.5029V79.7011H24.5105ZM31.9777 86.9954V74.7609H34.5994V75.6526C35.0988 75.0284 35.9727 74.6182 37.1141 74.6182C39.6109 74.6182 41.2338 76.4373 41.2338 79.2552C41.2338 82.0731 39.4682 83.8922 36.9 83.8922C35.9191 83.8922 35.0809 83.589 34.5994 83.054V86.9954H31.9777ZM36.5612 81.6629C37.8274 81.6629 38.6657 80.6998 38.6657 79.2552C38.6657 77.8106 37.8274 76.8475 36.5612 76.8475C35.2949 76.8475 34.4389 77.8106 34.4389 79.2552C34.4389 80.6998 35.2949 81.6629 36.5612 81.6629ZM48.8746 77.2756C48.5714 77.1329 48.1434 77.0615 47.7332 77.0615C46.5561 77.0615 45.4325 77.9533 45.4325 80.5036V83.7495H42.8108V74.7609H45.4325V76.3125C45.8427 75.3494 47.0019 74.6182 48.072 74.6182C48.3752 74.6182 48.7854 74.6717 49.0351 74.7609L48.8746 77.2756ZM54.2672 83.8922C51.485 83.8922 49.5232 81.9304 49.5232 79.2552C49.5232 76.58 51.485 74.6182 54.2672 74.6182C57.0137 74.6182 59.0112 76.58 59.0112 79.2552C59.0112 81.9304 57.0137 83.8922 54.2672 83.8922ZM54.2672 81.6629C55.5334 81.6629 56.3895 80.682 56.3895 79.2552C56.3895 77.8284 55.5334 76.8475 54.2672 76.8475C52.9831 76.8475 52.127 77.8284 52.127 79.2552C52.127 80.682 52.9831 81.6629 54.2672 81.6629ZM64.3566 83.8922C61.7171 83.8922 60.1299 82.0731 60.1299 79.2552C60.1299 76.4373 61.7171 74.6182 64.321 74.6182C65.4089 74.6182 66.2471 75.0106 66.7465 75.6169V71.1226H69.3682V83.7495H66.7465V82.8578C66.2828 83.4998 65.3732 83.8922 64.3566 83.8922ZM64.7847 81.6629C66.0688 81.6629 66.907 80.6998 66.907 79.2552C66.907 77.8106 66.0688 76.8475 64.7847 76.8475C63.5363 76.8475 62.6802 77.8106 62.6802 79.2552C62.6802 80.6998 63.5363 81.6629 64.7847 81.6629ZM80.0764 74.7609V83.7495H77.4726V82.5546C76.9197 83.3393 75.9388 83.8922 74.7261 83.8922C72.7464 83.8922 71.4088 82.6081 71.4088 80.6285V74.7609H74.0305V79.9329C74.0305 80.9138 74.6369 81.5737 75.5643 81.5737C76.8127 81.5737 77.4726 80.5571 77.4726 78.7023V74.7609H80.0764ZM86.2755 83.8922C83.5646 83.8922 81.6741 81.9839 81.6741 79.2552C81.6741 76.5265 83.5646 74.6182 86.2755 74.6182C88.6831 74.6182 90.3596 75.831 90.6449 77.8106L88.1124 78.31C87.9698 77.4182 87.3099 76.8475 86.3825 76.8475C85.1519 76.8475 84.3672 77.7928 84.3672 79.2552C84.3672 80.7176 85.1697 81.6629 86.3825 81.6629C87.3099 81.6629 87.8984 81.1278 88.0768 80.3074L90.6271 80.8246C90.3061 82.7151 88.6475 83.8922 86.2755 83.8922ZM97.6475 83.6603C97.2195 83.803 96.7201 83.8922 96.1851 83.8922C94.2411 83.8922 92.7608 82.8578 92.7608 80.682V76.9367H91.3341V74.7609H92.7608V72.157H95.3825V74.7609H97.5583V76.9367H95.3825V80.3431C95.3825 81.1457 95.8106 81.6094 96.4526 81.6094C96.7736 81.6094 97.166 81.5559 97.4692 81.3953L97.6475 83.6603ZM98.5309 79.7011V77.4717H104.523V79.7011H98.5309ZM106.908 87.0846L105.142 85.747C106.819 83.4463 107.639 81.003 107.639 78.2386C107.639 75.5278 106.819 73.0488 105.142 70.7659L106.908 69.4462C108.994 71.8717 110.1 74.8322 110.1 78.2386C110.1 81.6629 108.994 84.6234 106.908 87.0846Z" fill="white"/>
<path d="M20.4417 37.019L18.7867 31.3401H19.9225L21.0177 35.7047L22.1292 31.3401H23.3785L24.4981 35.7047L25.5933 31.3401H26.7291L25.0903 37.019H23.9221L22.762 32.8572L21.5937 37.019H20.4417ZM27.3845 37.019V31.3401H31.1813V32.2893H28.4878V33.5386H30.6458V34.4959H28.4878V36.0617H31.2705V37.019H27.3845ZM33.0965 31.8917C33.0965 32.0946 33.064 32.2081 32.7233 32.7923L32.3988 33.3601H31.8958L32.2852 32.5002C32.0175 32.4272 31.8309 32.1757 31.8309 31.8917C31.8309 31.5429 32.1148 31.259 32.4718 31.259C32.8125 31.259 33.0965 31.5429 33.0965 31.8917ZM38.5453 37.019H37.2553L35.9167 34.6906H35.0162V37.019H33.9129L33.9048 31.3401H36.0952C37.2067 31.3401 37.9287 31.9972 37.9287 33.0194C37.9287 33.6603 37.5961 34.2039 37.0363 34.4797L38.5453 37.019ZM35.0162 32.2893V33.7414H35.9248C36.4927 33.7414 36.8172 33.4737 36.8172 33.0194C36.8172 32.5651 36.4927 32.2893 35.9248 32.2893H35.0162ZM39.1812 37.019V31.3401H42.978V32.2893H40.2845V33.5386H42.4425V34.4959H40.2845V36.0617H43.0672V37.019H39.1812ZM45.8362 37.019V31.3401H46.9395V36.0617H49.5761V37.019H45.8362ZM52.6399 37.0839C50.9768 37.0839 49.7599 35.8589 49.7599 34.1795C49.7599 32.5002 50.9768 31.2752 52.6399 31.2752C54.2949 31.2752 55.5118 32.5002 55.5118 34.1795C55.5118 35.8589 54.2949 37.0839 52.6399 37.0839ZM52.6399 36.1266C53.6702 36.1266 54.4004 35.3072 54.4004 34.1795C54.4004 33.0519 53.6702 32.2244 52.6399 32.2244C51.6096 32.2244 50.8713 33.0519 50.8713 34.1795C50.8713 35.3072 51.6096 36.1266 52.6399 36.1266ZM58.9621 37.0839C57.299 37.0839 56.0821 35.8589 56.0821 34.1795C56.0821 32.5002 57.299 31.2752 58.9621 31.2752C60.6171 31.2752 61.834 32.5002 61.834 34.1795C61.834 35.8589 60.6171 37.0839 58.9621 37.0839ZM58.9621 36.1266C59.9924 36.1266 60.7226 35.3072 60.7226 34.1795C60.7226 33.0519 59.9924 32.2244 58.9621 32.2244C57.9318 32.2244 57.1935 33.0519 57.1935 34.1795C57.1935 35.3072 57.9318 36.1266 58.9621 36.1266ZM66.1524 37.019L64.3838 34.4067L63.7591 35.0476V37.019H62.6558V31.3401H63.7591V33.5873L65.8765 31.3401H67.3287L65.1383 33.6116L67.5315 37.019H66.1524ZM68.1065 37.019V31.3401H69.2099V37.019H68.1065ZM70.2773 37.019V31.3401H71.3969L73.8307 35.2829V31.3401H74.861V37.019H73.7414L71.3157 33.0843V37.019H70.2773ZM78.4731 37.0839C77.0291 37.0839 75.6905 36.1185 75.6905 34.1795C75.6905 32.2406 77.0615 31.2752 78.5461 31.2752C79.9091 31.2752 80.8745 31.9891 81.0935 33.1654L80.0064 33.3926C79.8685 32.6787 79.3006 32.2244 78.538 32.2244C77.5239 32.2244 76.8019 32.9383 76.8019 34.1795C76.8019 35.4208 77.5239 36.1266 78.5218 36.1266C79.3818 36.1266 79.9578 35.6155 80.0145 34.8772H78.3271V33.9848H81.0367V37.019H80.0389V36.3294C79.7874 36.7918 79.1627 37.0839 78.4731 37.0839ZM83.9913 37.019V31.3401H87.8367V32.2893H85.0946V33.6035H87.3094V34.5608H85.0946V37.019H83.9913ZM91.001 37.0839C89.3379 37.0839 88.121 35.8589 88.121 34.1795C88.121 32.5002 89.3379 31.2752 91.001 31.2752C92.656 31.2752 93.8729 32.5002 93.8729 34.1795C93.8729 35.8589 92.656 37.0839 91.001 37.0839ZM91.001 36.1266C92.0313 36.1266 92.7615 35.3072 92.7615 34.1795C92.7615 33.0519 92.0313 32.2244 91.001 32.2244C89.9707 32.2244 89.2324 33.0519 89.2324 34.1795C89.2324 35.3072 89.9707 36.1266 91.001 36.1266ZM99.3352 37.019H98.0452L96.7066 34.6906H95.8061V37.019H94.7028L94.6947 31.3401H96.8851C97.9966 31.3401 98.7186 31.9972 98.7186 33.0194C98.7186 33.6603 98.386 34.2039 97.8262 34.4797L99.3352 37.019ZM95.8061 32.2893V33.7414H96.7148C97.2827 33.7414 97.6072 33.4737 97.6072 33.0194C97.6072 32.5651 97.2827 32.2893 96.7148 32.2893H95.8061ZM105.701 37.019L105.238 35.7615H103.04L102.577 37.019H101.441L103.624 31.3401H104.654L106.836 37.019H105.701ZM103.388 34.8285H104.897L104.143 32.7841L103.388 34.8285Z" fill="white"/>
<path d="M22.3216 153.407L21.8646 152.227H19.8044L19.3473 153.407H18.7247L20.5596 148.77H21.1094L22.9509 153.407H22.3216ZM20.0098 151.691H21.6592L20.8378 149.565L20.0098 151.691ZM23.4693 154.612V150.068H24.0324V150.552C24.2112 150.247 24.6484 150.015 25.132 150.015C26.1587 150.015 26.7284 150.757 26.7284 151.737C26.7284 152.718 26.1455 153.46 25.1187 153.46C24.6948 153.46 24.2576 153.248 24.0324 152.943V154.612H23.4693ZM25.0657 152.956C25.7282 152.956 26.1587 152.473 26.1587 151.737C26.1587 151.002 25.7282 150.518 25.0657 150.518C24.4166 150.518 23.986 151.002 23.986 151.737C23.986 152.473 24.4166 152.956 25.0657 152.956ZM27.4477 154.612V150.068H28.0108V150.552C28.1897 150.247 28.6269 150.015 29.1104 150.015C30.1372 150.015 30.7069 150.757 30.7069 151.737C30.7069 152.718 30.1239 153.46 29.0972 153.46C28.6732 153.46 28.236 153.248 28.0108 152.943V154.612H27.4477ZM29.0442 152.956C29.7066 152.956 30.1372 152.473 30.1372 151.737C30.1372 151.002 29.7066 150.518 29.0442 150.518C28.395 150.518 27.9644 151.002 27.9644 151.737C27.9644 152.473 28.395 152.956 29.0442 152.956ZM32.4662 153.453C31.87 153.513 31.4262 153.287 31.4262 152.592V148.717H31.9892V152.552C31.9892 152.916 32.1615 152.969 32.4397 152.95L32.4662 153.453ZM35.3203 150.068H35.8966L34.1478 154.612H33.5715L34.0551 153.36L32.7501 150.068H33.3595L34.3399 152.625L35.3203 150.068ZM39.8128 153.38C39.6472 153.44 39.4683 153.46 39.2895 153.46C38.7198 153.46 38.3025 153.142 38.3025 152.406V150.565H37.6798V150.068H38.3025V149.054H38.8655V150.068H39.7598V150.565H38.8655V152.426C38.8655 152.777 39.0643 152.95 39.3557 152.95C39.4882 152.95 39.6406 152.93 39.7731 152.863L39.8128 153.38ZM41.8895 153.46C40.8958 153.46 40.1937 152.738 40.1937 151.737C40.1937 150.737 40.8958 150.015 41.8895 150.015C42.8765 150.015 43.5919 150.737 43.5919 151.737C43.5919 152.738 42.8765 153.46 41.8895 153.46ZM41.8895 152.956C42.5585 152.956 43.009 152.453 43.009 151.737C43.009 151.022 42.5585 150.518 41.8895 150.518C41.2204 150.518 40.77 151.022 40.77 151.737C40.77 152.453 41.2204 152.956 41.8895 152.956ZM48.8117 150.068V153.407H48.2487V152.777C48.0168 153.175 47.6127 153.46 47.1027 153.46C46.4071 153.46 45.9103 152.989 45.9103 152.28V150.068H46.4734V152.175C46.4734 152.625 46.7582 152.95 47.2285 152.95C47.8512 152.95 48.2487 152.413 48.2487 151.532V150.068H48.8117ZM50.8465 153.46C50.0384 153.46 49.6011 152.956 49.4554 152.486L49.939 152.274C50.0648 152.665 50.3298 152.983 50.8465 152.983C51.2572 152.983 51.5222 152.744 51.5222 152.473C51.5222 151.618 49.6011 152.168 49.6011 150.903C49.6011 150.373 50.0582 150.015 50.7736 150.015C51.3632 150.015 51.8733 150.346 52.0124 150.836L51.5421 151.042C51.4493 150.697 51.1181 150.479 50.7604 150.479C50.3828 150.479 50.1443 150.631 50.1443 150.896C50.1443 151.611 52.0786 151.088 52.072 152.466C52.072 153.049 51.5818 153.46 50.8465 153.46ZM55.6301 150.015C56.4382 150.015 57.0013 150.492 57.0013 151.267V153.407H56.4448V152.837C56.2527 153.221 55.8155 153.46 55.332 153.46C54.6629 153.46 54.2058 153.049 54.2058 152.473C54.2058 151.83 54.7292 151.479 55.7957 151.373L56.4448 151.3V151.234C56.4448 150.777 56.1203 150.485 55.6301 150.485C55.173 150.485 54.8484 150.757 54.802 151.207L54.2787 151.108C54.3781 150.446 54.9279 150.015 55.6301 150.015ZM55.4181 152.996C56.0673 152.996 56.4448 152.565 56.4448 151.896V151.737L55.7957 151.81C55.12 151.883 54.7689 152.115 54.7689 152.466C54.7689 152.777 55.0339 152.996 55.4181 152.996ZM59.6727 153.38C59.5071 153.44 59.3282 153.46 59.1494 153.46C58.5797 153.46 58.1623 153.142 58.1623 152.406V150.565H57.5397V150.068H58.1623V149.054H58.7254V150.068H59.6197V150.565H58.7254V152.426C58.7254 152.777 58.9241 152.95 59.2156 152.95C59.3481 152.95 59.5004 152.93 59.6329 152.863L59.6727 153.38Z" fill="#F4F8FB"/>
<path d="M63.034 153.46C62.2192 153.46 61.7157 152.963 61.5435 152.459L62.3252 152.155C62.4047 152.466 62.663 152.724 63.034 152.724C63.2923 152.724 63.4646 152.598 63.4646 152.413C63.4646 151.89 61.6959 152.241 61.6959 150.976C61.6959 150.452 62.1529 150.015 62.8882 150.015C63.5705 150.015 64.1336 150.346 64.286 150.83L63.5043 151.154C63.4182 150.85 63.1466 150.711 62.9214 150.711C62.7028 150.711 62.5504 150.803 62.5504 150.949C62.5504 151.479 64.3456 151.042 64.3456 152.393C64.3456 152.969 63.8156 153.46 63.034 153.46ZM68.0947 151.651C68.0947 151.784 68.088 151.943 68.0814 152.016H65.6834C65.7762 152.426 66.0544 152.651 66.4651 152.651C66.7963 152.651 67.0414 152.499 67.1143 152.221L68.0284 152.466C67.8297 153.095 67.2335 153.46 66.4386 153.46C65.286 153.46 64.7229 152.565 64.7229 151.737C64.7229 150.909 65.2264 150.015 66.379 150.015C67.5846 150.015 68.0947 150.909 68.0947 151.651ZM65.6967 151.327H67.0546C67.0215 150.989 66.8096 150.737 66.379 150.737C66.0279 150.737 65.7894 150.936 65.6967 151.327ZM70.6947 153.373C70.5357 153.426 70.3502 153.46 70.1515 153.46C69.4294 153.46 68.8796 153.075 68.8796 152.267V150.876H68.3497V150.068H68.8796V149.101H69.8534V150.068H70.6616V150.876H69.8534V152.141C69.8534 152.439 70.0124 152.612 70.2509 152.612C70.3701 152.612 70.5158 152.592 70.6284 152.532L70.6947 153.373ZM74.4152 150.068V153.407H73.448V152.963C73.2427 153.254 72.8784 153.46 72.4279 153.46C71.6926 153.46 71.1958 152.983 71.1958 152.247V150.068H72.1696V151.989C72.1696 152.353 72.3948 152.598 72.7393 152.598C73.203 152.598 73.448 152.221 73.448 151.532V150.068H74.4152ZM75.7506 153.46C75.426 153.46 75.1742 153.215 75.1742 152.897C75.1742 152.572 75.426 152.327 75.7506 152.327C76.0751 152.327 76.3269 152.572 76.3269 152.897C76.3269 153.215 76.0751 153.46 75.7506 153.46ZM78.4255 153.46C77.4186 153.46 76.7165 152.751 76.7165 151.737C76.7165 150.724 77.4186 150.015 78.4255 150.015C79.3198 150.015 79.9425 150.465 80.0485 151.201L79.1078 151.386C79.0548 151.055 78.8097 150.843 78.4653 150.843C78.0082 150.843 77.7167 151.194 77.7167 151.737C77.7167 152.28 78.0148 152.632 78.4653 152.632C78.8097 152.632 79.0283 152.433 79.0946 152.128L80.0418 152.32C79.9226 153.022 79.3065 153.46 78.4255 153.46ZM82.237 153.46C81.2036 153.46 80.475 152.731 80.475 151.737C80.475 150.744 81.2036 150.015 82.237 150.015C83.2571 150.015 83.9991 150.744 83.9991 151.737C83.9991 152.731 83.2571 153.46 82.237 153.46ZM82.237 152.632C82.7073 152.632 83.0253 152.267 83.0253 151.737C83.0253 151.207 82.7073 150.843 82.237 150.843C81.7601 150.843 81.4421 151.207 81.4421 151.737C81.4421 152.267 81.7601 152.632 82.237 152.632ZM84.171 153.413L86.2511 148.77H87.2646L85.1779 153.413H84.171ZM88.5172 153.46C87.5103 153.46 86.8081 152.751 86.8081 151.737C86.8081 150.724 87.5103 150.015 88.5172 150.015C89.4115 150.015 90.0341 150.465 90.1401 151.201L89.1995 151.386C89.1465 151.055 88.9014 150.843 88.5569 150.843C88.0998 150.843 87.8084 151.194 87.8084 151.737C87.8084 152.28 88.1065 152.632 88.5569 152.632C88.9014 152.632 89.12 152.433 89.1862 152.128L90.1335 152.32C90.0143 153.022 89.3982 153.46 88.5172 153.46ZM92.0307 150.015C92.9382 150.015 93.5543 150.485 93.5543 151.426V153.407H92.6137V152.983C92.4216 153.274 92.044 153.46 91.673 153.46C91.0238 153.46 90.5668 153.022 90.5668 152.466C90.5668 151.804 91.0503 151.446 92.0109 151.346L92.6137 151.287V151.267C92.6137 150.936 92.3884 150.737 92.0307 150.737C91.7128 150.737 91.4809 150.929 91.4478 151.254L90.5999 151.095C90.7059 150.439 91.3153 150.015 92.0307 150.015ZM91.9115 152.764C92.3487 152.764 92.607 152.413 92.6137 152.022V152.016V151.996V151.969L91.991 152.042C91.6598 152.075 91.4942 152.241 91.4942 152.433C91.4942 152.618 91.6399 152.764 91.9115 152.764ZM96.5618 151.002C96.4492 150.949 96.2902 150.923 96.1379 150.923C95.7007 150.923 95.2833 151.254 95.2833 152.201V153.407H94.3096V150.068H95.2833V150.644C95.4357 150.287 95.8663 150.015 96.2637 150.015C96.3763 150.015 96.5287 150.035 96.6214 150.068L96.5618 151.002ZM100.174 151.651C100.174 151.784 100.168 151.943 100.161 152.016H97.7633C97.856 152.426 98.1342 152.651 98.5449 152.651C98.8761 152.651 99.1212 152.499 99.1941 152.221L100.108 152.466C99.9095 153.095 99.3133 153.46 98.5184 153.46C97.3658 153.46 96.8027 152.565 96.8027 151.737C96.8027 150.909 97.3062 150.015 98.4588 150.015C99.6644 150.015 100.174 150.909 100.174 151.651ZM97.7765 151.327H99.1345C99.1014 150.989 98.8894 150.737 98.4588 150.737C98.1077 150.737 97.8692 150.936 97.7765 151.327ZM103.972 151.651C103.972 151.784 103.965 151.943 103.959 152.016H101.561C101.653 152.426 101.932 152.651 102.342 152.651C102.673 152.651 102.919 152.499 102.991 152.221L103.906 152.466C103.707 153.095 103.111 153.46 102.316 153.46C101.163 153.46 100.6 152.565 100.6 151.737C100.6 150.909 101.103 150.015 102.256 150.015C103.462 150.015 103.972 150.909 103.972 151.651ZM101.574 151.327H102.932C102.899 150.989 102.687 150.737 102.256 150.737C101.905 150.737 101.667 150.936 101.574 151.327ZM106.815 151.002C106.703 150.949 106.544 150.923 106.391 150.923C105.954 150.923 105.537 151.254 105.537 152.201V153.407H104.563V150.068H105.537V150.644C105.689 150.287 106.12 150.015 106.517 150.015C106.63 150.015 106.782 150.035 106.875 150.068L106.815 151.002ZM108.44 153.46C107.625 153.46 107.122 152.963 106.95 152.459L107.731 152.155C107.811 152.466 108.069 152.724 108.44 152.724C108.698 152.724 108.871 152.598 108.871 152.413C108.871 151.89 107.102 152.241 107.102 150.976C107.102 150.452 107.559 150.015 108.294 150.015C108.977 150.015 109.54 150.346 109.692 150.83L108.91 151.154C108.824 150.85 108.553 150.711 108.327 150.711C108.109 150.711 107.956 150.803 107.956 150.949C107.956 151.479 109.752 151.042 109.752 152.393C109.752 152.969 109.222 153.46 108.44 153.46Z" fill="white"/>
<g clip-path="url(#clip1_544_6025)">
<path d="M268.573 25.6054H274.552C274.628 25.6094 274.699 25.6428 274.751 25.6986C274.802 25.7544 274.83 25.828 274.828 25.9039C274.829 25.978 274.8 26.0495 274.749 26.1027C274.697 26.1559 274.626 26.1865 274.552 26.1878H268.573V25.6054Z" fill="white"/>
<path d="M280.862 25.6054C280.94 25.6083 281.014 25.6406 281.069 25.696C281.125 25.7514 281.157 25.8256 281.16 25.9039C281.157 25.9806 281.124 26.0529 281.068 26.1059C281.012 26.1588 280.938 26.1881 280.862 26.1878H278.231V25.6054H280.862Z" fill="white"/>
<path d="M285.075 25.6054H292.206C292.282 25.6094 292.353 25.6428 292.405 25.6986C292.456 25.7544 292.484 25.828 292.482 25.9039C292.483 25.978 292.455 26.0495 292.403 26.1027C292.351 26.1559 292.281 26.1865 292.206 26.1878H285.075V25.6054Z" fill="white"/>
<path d="M269.155 26.7705H274.569C274.645 26.775 274.716 26.8086 274.767 26.8642C274.818 26.9198 274.846 26.9932 274.845 27.069C274.846 27.1432 274.817 27.2147 274.765 27.2679C274.714 27.3211 274.643 27.3516 274.569 27.3529H269.155V26.7705Z" fill="white"/>
<path d="M280.862 26.7705C280.94 26.7734 281.014 26.8058 281.069 26.8611C281.125 26.9165 281.157 26.9907 281.16 27.069C281.157 27.1457 281.124 27.2181 281.068 27.271C281.012 27.3239 280.938 27.3532 280.862 27.3529H278.231V26.7705H280.862Z" fill="white"/>
<path d="M285.657 26.7705H292.223C292.298 26.775 292.369 26.8085 292.421 26.8642C292.472 26.9198 292.5 26.9932 292.499 27.069C292.5 27.1432 292.471 27.2147 292.419 27.2679C292.368 27.3211 292.297 27.3516 292.223 27.3529H285.657V26.7705Z" fill="white"/>
<path d="M274.537 18.762C274.611 18.7633 274.682 18.7939 274.734 18.8471C274.785 18.9003 274.814 18.9718 274.813 19.046C274.815 19.1217 274.787 19.195 274.735 19.2506C274.684 19.3062 274.613 19.3398 274.537 19.3445H267.99V18.762H274.537Z" fill="white"/>
<path d="M283.088 18.762C283.162 18.7633 283.233 18.7939 283.284 18.8471C283.336 18.9003 283.365 18.9718 283.364 19.046C283.365 19.1217 283.337 19.195 283.286 19.2506C283.234 19.3062 283.163 19.3398 283.088 19.3445H275.95V18.762H283.088Z" fill="white"/>
<path d="M287.137 18.762C287.212 18.7622 287.284 18.7921 287.337 18.8453C287.391 18.8986 287.421 18.9707 287.421 19.046C287.421 19.1227 287.392 19.1967 287.339 19.2523C287.286 19.3079 287.214 19.341 287.137 19.3445H284.492V18.762H287.137Z" fill="white"/>
<path d="M292.284 18.762C292.359 18.7622 292.431 18.7921 292.484 18.8453C292.538 18.8986 292.568 18.9707 292.568 19.046C292.568 19.1227 292.539 19.1967 292.486 19.2523C292.433 19.3079 292.361 19.341 292.284 19.3445H289.637V18.762H292.284Z" fill="white"/>
<path d="M274.537 19.927C274.611 19.9282 274.682 19.9588 274.734 20.012C274.785 20.0652 274.814 20.1367 274.813 20.2109C274.815 20.2866 274.787 20.3599 274.735 20.4155C274.684 20.4712 274.613 20.5048 274.537 20.5094H267.99V19.927H274.537Z" fill="white"/>
<path d="M283.088 19.927C283.162 19.9282 283.233 19.9588 283.284 20.012C283.336 20.0652 283.365 20.1367 283.364 20.2109C283.365 20.2866 283.337 20.3599 283.286 20.4155C283.234 20.4712 283.163 20.5048 283.088 20.5094H275.95V19.927H283.088Z" fill="white"/>
<path d="M287.137 19.927C287.212 19.9271 287.284 19.957 287.337 20.0103C287.391 20.0635 287.421 20.1356 287.421 20.2109C287.421 20.2877 287.392 20.3616 287.339 20.4172C287.286 20.4729 287.214 20.5059 287.137 20.5094H284.492V19.927H287.137Z" fill="white"/>
<path d="M292.284 19.927C292.359 19.9271 292.431 19.957 292.484 20.0103C292.538 20.0635 292.568 20.1356 292.568 20.2109C292.568 20.2877 292.539 20.3616 292.486 20.4172C292.433 20.4729 292.361 20.5059 292.284 20.5094H289.637V19.927H292.284Z" fill="white"/>
<path d="M270.62 21.043C270.699 21.0458 270.773 21.0781 270.828 21.1335C270.884 21.1889 270.916 21.2632 270.919 21.3415C270.915 21.4182 270.882 21.4906 270.827 21.5435C270.771 21.5964 270.697 21.6258 270.62 21.6255H267.99V21.043H270.62Z" fill="white"/>
<path d="M270.6 24.4891C270.678 24.4919 270.752 24.5243 270.808 24.5797C270.863 24.6351 270.895 24.7094 270.898 24.7876C270.895 24.8643 270.862 24.9366 270.806 24.9896C270.751 25.0425 270.677 25.0719 270.6 25.0715H267.99V24.4891H270.6Z" fill="white"/>
<path d="M280.862 21.043C280.94 21.0459 281.014 21.0783 281.069 21.1337C281.125 21.189 281.157 21.2633 281.16 21.3415C281.157 21.4182 281.124 21.4906 281.068 21.5435C281.012 21.5964 280.938 21.6258 280.862 21.6255H278.231V21.043H280.862Z" fill="white"/>
<path d="M287.122 21.043C287.201 21.0458 287.275 21.0781 287.33 21.1335C287.386 21.1889 287.418 21.2632 287.421 21.3415C287.417 21.4182 287.384 21.4906 287.329 21.5435C287.273 21.5964 287.199 21.6258 287.122 21.6255H284.492V21.043H287.122Z" fill="white"/>
<path d="M292.269 21.043C292.348 21.0458 292.422 21.0782 292.477 21.1336C292.532 21.189 292.565 21.2633 292.567 21.3415C292.564 21.4182 292.531 21.4905 292.475 21.5435C292.42 21.5964 292.346 21.6258 292.269 21.6255H289.637V21.043H292.269Z" fill="white"/>
<path d="M273.399 22.2081C273.474 22.2093 273.544 22.2398 273.596 22.293C273.648 22.3463 273.677 22.4178 273.676 22.4921C273.678 22.568 273.65 22.6417 273.598 22.6975C273.547 22.7533 273.475 22.7867 273.399 22.7906H267.99V22.2081H273.399Z" fill="white"/>
<path d="M280.862 22.2081C280.94 22.211 281.014 22.2434 281.069 22.2988C281.125 22.3541 281.157 22.4284 281.16 22.5066C281.157 22.5833 281.124 22.6557 281.068 22.7086C281.012 22.7615 280.938 22.7909 280.862 22.7906H278.231V22.2081H280.862Z" fill="white"/>
<path d="M287.137 22.2081C287.212 22.2083 287.284 22.2382 287.337 22.2914C287.391 22.3447 287.421 22.4168 287.421 22.4921C287.421 22.5688 287.392 22.6428 287.339 22.6984C287.286 22.754 287.214 22.787 287.137 22.7906H284.492V22.2081H287.137Z" fill="white"/>
<path d="M292.284 22.2081C292.359 22.2083 292.431 22.2382 292.484 22.2914C292.538 22.3447 292.568 22.4168 292.568 22.4921C292.568 22.5688 292.539 22.6428 292.486 22.6984C292.433 22.754 292.361 22.787 292.284 22.7906H289.637V22.2081H292.284Z" fill="white"/>
<path d="M266 26.1878H260.03V25.6054H266C266.077 25.609 266.15 25.6419 266.204 25.6973C266.259 25.7527 266.29 25.8265 266.291 25.9039C266.289 25.9798 266.258 26.052 266.203 26.1051C266.149 26.1581 266.076 26.1878 266 26.1878Z" fill="white"/>
<path d="M265.418 27.3529H260.03V26.7705H265.431C265.507 26.7751 265.578 26.8087 265.629 26.8643C265.681 26.9199 265.709 26.9932 265.707 27.069C265.708 27.1432 265.68 27.2147 265.628 27.2679C265.576 27.3211 265.505 27.3516 265.431 27.3529" fill="white"/>
<path d="M266.024 18.762C266.099 18.7633 266.169 18.7939 266.221 18.8471C266.273 18.9003 266.301 18.9718 266.301 19.046C266.302 19.1217 266.274 19.195 266.222 19.2506C266.171 19.3062 266.1 19.3398 266.024 19.3445H260.613V18.762H266.024Z" fill="white"/>
<path d="M266.007 19.927C266.082 19.9282 266.152 19.9588 266.204 20.012C266.256 20.0651 266.285 20.1366 266.284 20.2109C266.285 20.2867 266.257 20.3601 266.206 20.4157C266.154 20.4713 266.083 20.5049 266.007 20.5094H260.03V19.927H266.007Z" fill="white"/>
<path d="M262.106 21.043C262.185 21.0458 262.259 21.0782 262.314 21.1336C262.369 21.189 262.402 21.2633 262.404 21.3415C262.401 21.4182 262.368 21.4905 262.312 21.5435C262.257 21.5964 262.183 21.6258 262.106 21.6255H259.497V21.043H262.106Z" fill="white"/>
<path d="M266.64 24.4891C266.719 24.4919 266.793 24.5242 266.848 24.5796C266.904 24.635 266.936 24.7093 266.939 24.7876C266.935 24.8643 266.902 24.9367 266.847 24.9896C266.791 25.0425 266.717 25.0719 266.64 25.0715H264.01V24.4891H266.64Z" fill="white"/>
<path d="M265.432 22.2081C265.506 22.2092 265.577 22.2396 265.629 22.2928C265.681 22.3461 265.71 22.4177 265.709 22.4921C265.71 22.568 265.682 22.6414 265.63 22.697C265.579 22.7527 265.508 22.7862 265.432 22.7906H260.03V22.2081H265.432Z" fill="white"/>
<path d="M266.049 23.9068H260.613V23.3244H266.027C266.103 23.3289 266.174 23.3624 266.225 23.4181C266.277 23.4737 266.305 23.5471 266.304 23.6229C266.304 23.6971 266.275 23.7686 266.224 23.8218C266.172 23.875 266.101 23.9055 266.027 23.9068" fill="white"/>
<path d="M273.378 23.9068H267.99V23.3244H273.399C273.475 23.3283 273.547 23.3617 273.598 23.4174C273.65 23.4732 273.678 23.5469 273.676 23.6229C273.677 23.6971 273.648 23.7687 273.596 23.8219C273.544 23.8751 273.474 23.9057 273.399 23.9068" fill="white"/>
<path d="M280.862 23.3244C280.94 23.3273 281.014 23.3596 281.069 23.415C281.125 23.4704 281.157 23.5446 281.16 23.6229C281.157 23.6996 281.124 23.7719 281.068 23.8249C281.012 23.8778 280.938 23.9071 280.862 23.9068H278.231V23.3244H280.862Z" fill="white"/>
<path d="M287.113 23.9068H284.492V23.3244H287.137C287.214 23.3279 287.286 23.3609 287.339 23.4165C287.392 23.4722 287.421 23.5461 287.421 23.6229C287.421 23.6981 287.391 23.7703 287.337 23.8235C287.284 23.8767 287.212 23.9067 287.137 23.9068" fill="white"/>
<path d="M292.306 23.9068H289.637V23.3244H292.284C292.361 23.3279 292.433 23.3609 292.486 23.4165C292.539 23.4722 292.568 23.5461 292.568 23.6229C292.568 23.6981 292.538 23.7703 292.484 23.8235C292.431 23.8767 292.359 23.9067 292.284 23.9068" fill="white"/>
<path d="M280.862 24.4891C280.94 24.492 281.014 24.5244 281.069 24.5797C281.125 24.6351 281.157 24.7094 281.16 24.7876C281.157 24.8643 281.124 24.9367 281.068 24.9896C281.012 25.0425 280.938 25.0719 280.862 25.0715H278.231V24.4891H280.862Z" fill="white"/>
<path d="M287.122 24.4891C287.201 24.4919 287.275 24.5242 287.33 24.5796C287.386 24.635 287.418 24.7093 287.421 24.7876C287.417 24.8643 287.384 24.9367 287.329 24.9896C287.273 25.0425 287.199 25.0719 287.122 25.0715H284.492V24.4891H287.122Z" fill="white"/>
<path d="M292.269 24.4891C292.348 24.4919 292.422 24.5243 292.477 24.5797C292.532 24.6351 292.565 24.7094 292.567 24.7876C292.564 24.8643 292.531 24.9366 292.475 24.9896C292.42 25.0425 292.346 25.0719 292.269 25.0715H289.637V24.4891H292.269Z" fill="white"/>
</g>
<g filter="url(#filter0_d_544_6025)">
<circle cx="202.742" cy="127.003" r="30.2861" fill="#005FCC"/>
</g>
<mask id="mask0_544_6025" style="mask-type:alpha" maskUnits="userSpaceOnUse" x="172" y="96" width="62" height="62">
<circle cx="202.742" cy="127.003" r="30.2861" fill="white"/>
</mask>
<g mask="url(#mask0_544_6025)">
<path d="M234.992 110.249H197.235C196.54 110.249 195.976 110.812 195.976 111.507V139.196C195.976 139.891 196.54 140.454 197.235 140.454H234.992C235.687 140.454 236.25 139.891 236.25 139.196V111.507C236.25 110.812 235.687 110.249 234.992 110.249Z" fill="#DBE6F0"/>
<path d="M233.104 115.912H199.122C198.775 115.912 198.493 116.186 198.493 116.524V137.325C198.493 137.663 198.775 137.937 199.122 137.937H233.104C233.451 137.937 233.733 137.663 233.733 137.325V116.524C233.733 116.186 233.451 115.912 233.104 115.912Z" fill="#F4F8FB"/>
<g style="mix-blend-mode:multiply">
<path d="M199.437 114.025C199.958 114.025 200.381 113.602 200.381 113.081C200.381 112.559 199.958 112.137 199.437 112.137C198.916 112.137 198.493 112.559 198.493 113.081C198.493 113.602 198.916 114.025 199.437 114.025Z" fill="#B7CDE1"/>
</g>
<g style="mix-blend-mode:multiply">
<path d="M202.584 114.025C203.105 114.025 203.527 113.602 203.527 113.081C203.527 112.559 203.105 112.137 202.584 112.137C202.062 112.137 201.64 112.559 201.64 113.081C201.64 113.602 202.062 114.025 202.584 114.025Z" fill="#B7CDE1"/>
</g>
<g style="mix-blend-mode:multiply">
<path d="M205.73 114.025C206.251 114.025 206.673 113.602 206.673 113.081C206.673 112.559 206.251 112.137 205.73 112.137C205.208 112.137 204.786 112.559 204.786 113.081C204.786 113.602 205.208 114.025 205.73 114.025Z" fill="#B7CDE1"/>
</g>
<g style="mix-blend-mode:multiply">
<path d="M202.406 122.814H216.287C216.455 122.814 216.615 122.881 216.734 122.999C216.852 123.118 216.918 123.278 216.918 123.445V137.957H201.775V123.445C201.775 123.278 201.842 123.118 201.96 122.999C202.079 122.881 202.239 122.814 202.406 122.814Z" fill="#42CACD" fill-opacity="0.6"/>
</g>
<path d="M232.652 118.948H203.118C202.376 118.948 201.775 119.236 201.775 119.592V120.881C201.775 121.237 202.376 121.525 203.118 121.525H232.652C233.394 121.525 233.995 121.237 233.995 120.881V119.592C233.995 119.236 233.394 118.948 232.652 118.948Z" fill="#FE90A0"/>
</g>
<g filter="url(#filter1_d_544_6025)">
<path d="M198.715 122.815H187.438C186.815 122.815 186.311 123.32 186.311 123.943V144.241C186.311 144.864 186.815 145.369 187.438 145.369H198.715C199.338 145.369 199.843 144.864 199.843 144.241V123.943C199.843 123.32 199.338 122.815 198.715 122.815Z" fill="#DBE6F0"/>
<path d="M198.151 123.943H188.002C187.691 123.943 187.438 124.188 187.438 124.49V141.439C187.438 141.741 187.691 141.986 188.002 141.986H198.151C198.463 141.986 198.715 141.741 198.715 141.439V124.49C198.715 124.188 198.463 123.943 198.151 123.943Z" fill="#F4F8FB"/>
<g style="mix-blend-mode:multiply">
<path d="M189.13 127.97H192.513C192.662 127.97 192.806 128 192.911 128.053C193.017 128.106 193.077 128.177 193.077 128.252V132.481H188.566V128.252C188.566 128.177 188.625 128.106 188.731 128.053C188.837 128 188.98 127.97 189.13 127.97Z" fill="#42CACD" fill-opacity="0.6"/>
</g>
<path d="M197.023 126.037H189.13C188.818 126.037 188.566 126.181 188.566 126.359V127.004C188.566 127.182 188.818 127.326 189.13 127.326H197.023C197.335 127.326 197.587 127.182 197.587 127.004V126.359C197.587 126.181 197.335 126.037 197.023 126.037Z" fill="#FE90A0"/>
<g style="mix-blend-mode:multiply">
<path d="M193.641 143.114H192.513C192.202 143.114 191.949 143.366 191.949 143.677C191.949 143.989 192.202 144.241 192.513 144.241H193.641C193.952 144.241 194.205 143.989 194.205 143.677C194.205 143.366 193.952 143.114 193.641 143.114Z" fill="#B7CDE1"/>
</g>
</g>
<g filter="url(#filter2_d_544_6025)">
<circle cx="259.735" cy="81.3495" r="30.2861" fill="#0060CC"/>
</g>
<mask id="mask1_544_6025" style="mask-type:alpha" maskUnits="userSpaceOnUse" x="229" y="51" width="62" height="61">
<circle cx="259.735" cy="81.3495" r="30.2861" fill="white"/>
</mask>
<g mask="url(#mask1_544_6025)">
<path d="M275.14 68.784H244.331C243.764 68.784 243.304 69.2468 243.304 69.8177V92.5591C243.304 93.13 243.764 93.5928 244.331 93.5928H275.14C275.708 93.5928 276.167 93.13 276.167 92.5591V69.8177C276.167 69.2468 275.708 68.784 275.14 68.784Z" fill="#DBE6F0"/>
<path d="M273.6 73.4051H245.871C245.588 73.4051 245.358 73.6286 245.358 73.9043V90.8782C245.358 91.1539 245.588 91.3774 245.871 91.3774H273.6C273.884 91.3774 274.114 91.1539 274.114 90.8782V73.9043C274.114 73.6286 273.884 73.4051 273.6 73.4051Z" fill="#F4F8FB"/>
<path d="M257.607 75.0896H247.842C247.572 75.0896 247.354 75.3082 247.354 75.5778C247.354 75.8475 247.572 76.0661 247.842 76.0661H257.607C257.877 76.0661 258.096 75.8475 258.096 75.5778C258.096 75.3082 257.877 75.0896 257.607 75.0896Z" fill="#00CCCE"/>
<path d="M252.725 77.0428H247.842C247.572 77.0428 247.354 77.2615 247.354 77.5311C247.354 77.8008 247.572 78.0194 247.842 78.0194H252.725C252.994 78.0194 253.213 77.8008 253.213 77.5311C253.213 77.2615 252.994 77.0428 252.725 77.0428Z" fill="#FF889E"/>
<path d="M249.307 78.996H247.842C247.572 78.996 247.354 79.2146 247.354 79.4842C247.354 79.7539 247.572 79.9725 247.842 79.9725H249.307C249.576 79.9725 249.795 79.7539 249.795 79.4842C249.795 79.2146 249.576 78.996 249.307 78.996Z" fill="#FF0006"/>
<path d="M259.072 78.996H251.259C250.99 78.996 250.771 79.2146 250.771 79.4842C250.771 79.7539 250.99 79.9725 251.259 79.9725H259.072C259.341 79.9725 259.56 79.7539 259.56 79.4842C259.56 79.2146 259.341 78.996 259.072 78.996Z" fill="#0081FF"/>
<path d="M256.631 82.9018H251.748C251.478 82.9018 251.26 83.1204 251.26 83.3901C251.26 83.6598 251.478 83.8784 251.748 83.8784H256.631C256.901 83.8784 257.119 83.6598 257.119 83.3901C257.119 83.1204 256.901 82.9018 256.631 82.9018Z" fill="#0081FF"/>
<path d="M255.654 80.9492H247.842C247.572 80.9492 247.354 81.1679 247.354 81.4375C247.354 81.7072 247.572 81.9258 247.842 81.9258H255.654C255.924 81.9258 256.143 81.7072 256.143 81.4375C256.143 81.1679 255.924 80.9492 255.654 80.9492Z" fill="#00CCCE"/>
<path d="M262.978 78.996H261.025C260.755 78.996 260.537 79.2146 260.537 79.4842C260.537 79.7539 260.755 79.9725 261.025 79.9725H262.978C263.248 79.9725 263.466 79.7539 263.466 79.4842C263.466 79.2146 263.248 78.996 262.978 78.996Z" fill="#FF889E"/>
<path d="M249.795 82.9018H247.842C247.572 82.9018 247.354 83.1204 247.354 83.3901C247.354 83.6598 247.572 83.8784 247.842 83.8784H249.795C250.065 83.8784 250.283 83.6598 250.283 83.3901C250.283 83.1204 250.065 82.9018 249.795 82.9018Z" fill="#FF889E"/>
<path d="M259.561 77.0428H254.678C254.408 77.0428 254.189 77.2615 254.189 77.5311C254.189 77.8008 254.408 78.0194 254.678 78.0194H259.561C259.83 78.0194 260.049 77.8008 260.049 77.5311C260.049 77.2615 259.83 77.0428 259.561 77.0428Z" fill="#FFB036"/>
<path d="M262.49 80.9492H257.607C257.338 80.9492 257.119 81.1679 257.119 81.4375C257.119 81.7072 257.338 81.9258 257.607 81.9258H262.49C262.76 81.9258 262.979 81.7072 262.979 81.4375C262.979 81.1679 262.76 80.9492 262.49 80.9492Z" fill="#FFB036"/>
<g style="mix-blend-mode:multiply">
<path d="M246.128 71.8648C246.554 71.8648 246.898 71.52 246.898 71.0946C246.898 70.6692 246.554 70.3243 246.128 70.3243C245.703 70.3243 245.358 70.6692 245.358 71.0946C245.358 71.52 245.703 71.8648 246.128 71.8648Z" fill="#B7CDE1"/>
</g>
<g style="mix-blend-mode:multiply">
<path d="M248.696 71.8648C249.121 71.8648 249.466 71.52 249.466 71.0946C249.466 70.6692 249.121 70.3243 248.696 70.3243C248.27 70.3243 247.925 70.6692 247.925 71.0946C247.925 71.52 248.27 71.8648 248.696 71.8648Z" fill="#B7CDE1"/>
</g>
<g style="mix-blend-mode:multiply">
<path d="M251.263 71.8648C251.688 71.8648 252.033 71.52 252.033 71.0946C252.033 70.6692 251.688 70.3243 251.263 70.3243C250.838 70.3243 250.493 70.6692 250.493 71.0946C250.493 71.52 250.838 71.8648 251.263 71.8648Z" fill="#B7CDE1"/>
</g>
<g style="mix-blend-mode:multiply">
<path d="M262.276 94.582C262.303 94.3557 262.278 94.1261 262.203 93.911C262.128 93.6958 262.004 93.5007 261.842 93.3405C261.475 93.0959 261.036 92.9812 260.596 93.0147V91.7779C261.042 91.8103 261.485 91.6832 261.847 91.4191C262.002 91.2708 262.12 91.088 262.191 90.8857C262.267 90.6855 262.296 90.4708 262.276 90.2578V88.7189C262.243 88.1946 262.412 87.6775 262.748 87.2743C262.93 87.0873 263.151 86.9423 263.395 86.8494C263.638 86.754 263.899 86.7137 264.16 86.7314H265.907V88.0674H265C264.804 88.0618 264.608 88.0776 264.415 88.1146C264.274 88.1397 264.144 88.2035 264.037 88.2987C263.933 88.3975 263.862 88.5261 263.834 88.6669C263.791 88.8749 263.773 89.0873 263.782 89.2995V90.7157C263.802 90.9334 263.773 91.1526 263.697 91.3578C263.622 91.5612 263.505 91.7463 263.353 91.9006C263.036 92.1703 262.64 92.3279 262.224 92.3491V92.4671C262.643 92.4845 263.042 92.6521 263.348 92.9392C263.495 93.1 263.611 93.2875 263.688 93.4915C263.759 93.6978 263.791 93.9155 263.782 94.1336V95.5215C263.776 95.7281 263.798 95.9346 263.848 96.1352C263.873 96.2761 263.942 96.4053 264.047 96.5034C264.154 96.6005 264.286 96.6644 264.429 96.6875C264.624 96.7221 264.821 96.738 265.019 96.7347H265.907V98.0612H264.16C263.911 98.0754 263.662 98.0385 263.428 97.9526C263.186 97.8772 262.961 97.7535 262.767 97.5892C262.589 97.391 262.454 97.1579 262.371 96.9046C262.285 96.6495 262.253 96.3796 262.276 96.1116V94.582Z" fill="#00CFCF"/>
</g>
<g style="mix-blend-mode:multiply">
<path d="M271.676 96.0879C271.695 96.3531 271.661 96.6195 271.577 96.8716C271.454 97.2409 271.211 97.5585 270.887 97.774C270.562 97.9895 270.176 98.0906 269.787 98.0612H268.031V96.7158H268.938C269.135 96.719 269.333 96.7032 269.528 96.6686C269.67 96.6455 269.803 96.5816 269.91 96.4845C270.014 96.3857 270.085 96.257 270.113 96.1162C270.155 95.9146 270.17 95.7081 270.156 95.5025V94.1146C270.143 93.8933 270.175 93.6717 270.25 93.4632C270.324 93.2562 270.44 93.0667 270.59 92.9061C270.902 92.6089 271.315 92.4403 271.746 92.4341V92.316C271.33 92.2872 270.935 92.1212 270.623 91.844C270.467 91.6938 270.344 91.5119 270.264 91.3105C270.181 91.1087 270.144 90.8911 270.156 90.6732V89.257C270.161 89.0501 270.137 88.8436 270.085 88.6433C270.052 88.502 269.98 88.3727 269.877 88.2703C269.771 88.1769 269.643 88.1133 269.504 88.0862C269.314 88.0539 269.121 88.0381 268.928 88.039H268.031V86.7314H269.787C270.047 86.716 270.308 86.7546 270.552 86.8447C270.796 86.9396 271.018 87.0843 271.204 87.2695C271.535 87.6757 271.703 88.1907 271.676 88.7141V90.2719C271.657 90.4861 271.685 90.7017 271.756 90.9045C271.827 91.1112 271.945 91.2986 272.101 91.4521C272.461 91.709 272.901 91.831 273.342 91.7968V93.0147C272.9 92.9857 272.462 93.1054 272.096 93.3546C271.935 93.5119 271.812 93.7041 271.737 93.9164C271.663 94.1299 271.637 94.3573 271.662 94.582L271.676 96.0879Z" fill="#00CFCF"/>
</g>
</g>
<g filter="url(#filter3_d_544_6025)">
<circle cx="271.075" cy="149.681" r="30.2861" fill="#0060CC"/>
</g>
<mask id="mask2_544_6025" style="mask-type:alpha" maskUnits="userSpaceOnUse" x="240" y="119" width="62" height="61">
<circle cx="271.075" cy="149.681" r="30.2861" fill="white"/>
</mask>
<g mask="url(#mask2_544_6025)">
<path d="M286.479 137.116H255.67C255.102 137.116 254.643 137.579 254.643 138.149V160.891C254.643 161.462 255.102 161.925 255.67 161.925H286.479C287.046 161.925 287.506 161.462 287.506 160.891V138.149C287.506 137.579 287.046 137.116 286.479 137.116Z" fill="#DBE6F0"/>
<path d="M284.939 141.737H257.21C256.927 141.737 256.697 141.961 256.697 142.236V159.21C256.697 159.486 256.927 159.709 257.21 159.709H284.939C285.223 159.709 285.452 159.486 285.452 159.21V142.236C285.452 141.961 285.223 141.737 284.939 141.737Z" fill="#F4F8FB"/>
<g style="mix-blend-mode:multiply">
<path d="M257.467 140.197C257.892 140.197 258.237 139.852 258.237 139.426C258.237 139.001 257.892 138.656 257.467 138.656C257.042 138.656 256.697 139.001 256.697 139.426C256.697 139.852 257.042 140.197 257.467 140.197Z" fill="#B7CDE1"/>
</g>
<g style="mix-blend-mode:multiply">
<path d="M260.034 140.197C260.46 140.197 260.805 139.852 260.805 139.426C260.805 139.001 260.46 138.656 260.034 138.656C259.609 138.656 259.264 139.001 259.264 139.426C259.264 139.852 259.609 140.197 260.034 140.197Z" fill="#B7CDE1"/>
</g>
<g style="mix-blend-mode:multiply">
<path d="M262.602 140.197C263.027 140.197 263.372 139.852 263.372 139.426C263.372 139.001 263.027 138.656 262.602 138.656C262.176 138.656 261.832 139.001 261.832 139.426C261.832 139.852 262.176 140.197 262.602 140.197Z" fill="#B7CDE1"/>
</g>
<g style="mix-blend-mode:multiply">
<path fill-rule="evenodd" clip-rule="evenodd" d="M282.304 161.306C281.282 162.076 280.005 162.43 278.732 162.296C277.459 162.162 276.285 161.55 275.446 160.583C274.607 159.617 274.166 158.368 274.212 157.089C274.259 155.81 274.789 154.596 275.695 153.692C276.602 152.789 277.818 152.263 279.097 152.222C280.376 152.18 281.624 152.625 282.587 153.468C283.551 154.31 284.159 155.487 284.288 156.76C284.418 158.034 284.059 159.309 283.285 160.328L286.951 163.987C286.994 164.03 287.018 164.089 287.018 164.15C287.018 164.211 286.994 164.268 286.951 164.31L286.282 164.982C286.239 165.025 286.18 165.05 286.119 165.05C286.059 165.049 286.001 165.025 285.959 164.982L282.304 161.306ZM282.798 157.263C282.8 157.968 282.593 158.658 282.202 159.245C281.811 159.832 281.255 160.289 280.604 160.559C279.952 160.826 279.236 160.897 278.545 160.762C277.887 160.627 277.28 160.309 276.795 159.844C276.31 159.378 275.966 158.785 275.805 158.133C275.643 157.48 275.67 156.795 275.882 156.157C276.094 155.519 276.482 154.955 277.002 154.528C277.521 154.102 278.151 153.832 278.818 153.749C279.485 153.667 280.162 153.775 280.77 154.061C281.379 154.347 281.893 154.8 282.255 155.367C282.616 155.933 282.809 156.591 282.812 157.263H282.798Z" fill="#42CACD"/>
</g>
<path d="M279.213 155.453C279.447 155.453 279.678 155.498 279.894 155.588C280.109 155.677 280.305 155.808 280.47 155.973C280.635 156.138 280.766 156.334 280.856 156.55C280.945 156.766 280.991 156.997 280.991 157.231" stroke="#B7CDE1" stroke-width="1.0667" stroke-linecap="round" stroke-linejoin="bevel"/>
</g>
<circle opacity="0.5" cx="279.282" cy="157.292" r="4.17754" fill="#42CACD"/>
</g>
<defs>
<filter id="filter0_d_544_6025" x="166.012" y="90.2734" width="74.7487" height="74.7486" filterUnits="userSpaceOnUse" color-interpolation-filters="sRGB">
<feFlood flood-opacity="0" result="BackgroundImageFix"/>
<feColorMatrix in="SourceAlpha" type="matrix" values="0 0 0 0 0 0 0 0 0 0 0 0 0 0 0 0 0 0 127 0" result="hardAlpha"/>
<feMorphology radius="0.644384" operator="dilate" in="SourceAlpha" result="effect1_dropShadow_544_6025"/>
<feOffset dx="0.644384" dy="0.644384"/>
<feGaussianBlur stdDeviation="3.22192"/>
<feComposite in2="hardAlpha" operator="out"/>
<feColorMatrix type="matrix" values="0 0 0 0 0 0 0 0 0 0 0 0 0 0 0 0 0 0 0.02 0"/>
<feBlend mode="normal" in2="BackgroundImageFix" result="effect1_dropShadow_544_6025"/>
<feBlend mode="normal" in="SourceGraphic" in2="effect1_dropShadow_544_6025" result="shape"/>
</filter>
<filter id="filter1_d_544_6025" x="185.239" y="121.743" width="16.3905" height="25.4117" filterUnits="userSpaceOnUse" color-interpolation-filters="sRGB">
<feFlood flood-opacity="0" result="BackgroundImageFix"/>
<feColorMatrix in="SourceAlpha" type="matrix" values="0 0 0 0 0 0 0 0 0 0 0 0 0 0 0 0 0 0 127 0" result="hardAlpha"/>
<feOffset dx="0.357282" dy="0.357282"/>
<feGaussianBlur stdDeviation="0.714565"/>
<feComposite in2="hardAlpha" operator="out"/>
<feColorMatrix type="matrix" values="0 0 0 0 0 0 0 0 0 0 0 0 0 0 0 0 0 0 0.1 0"/>
<feBlend mode="normal" in2="BackgroundImageFix" result="effect1_dropShadow_544_6025"/>
<feBlend mode="normal" in="SourceGraphic" in2="effect1_dropShadow_544_6025" result="shape"/>
</filter>
<filter id="filter2_d_544_6025" x="223.005" y="44.6196" width="74.7487" height="74.7486" filterUnits="userSpaceOnUse" color-interpolation-filters="sRGB">
<feFlood flood-opacity="0" result="BackgroundImageFix"/>
<feColorMatrix in="SourceAlpha" type="matrix" values="0 0 0 0 0 0 0 0 0 0 0 0 0 0 0 0 0 0 127 0" result="hardAlpha"/>
<feMorphology radius="0.644384" operator="dilate" in="SourceAlpha" result="effect1_dropShadow_544_6025"/>
<feOffset dx="0.644384" dy="0.644384"/>
<feGaussianBlur stdDeviation="3.22192"/>
<feComposite in2="hardAlpha" operator="out"/>
<feColorMatrix type="matrix" values="0 0 0 0 0 0 0 0 0 0 0 0 0 0 0 0 0 0 0.02 0"/>
<feBlend mode="normal" in2="BackgroundImageFix" result="effect1_dropShadow_544_6025"/>
<feBlend mode="normal" in="SourceGraphic" in2="effect1_dropShadow_544_6025" result="shape"/>
</filter>
<filter id="filter3_d_544_6025" x="234.345" y="112.952" width="74.7487" height="74.7486" filterUnits="userSpaceOnUse" color-interpolation-filters="sRGB">
<feFlood flood-opacity="0" result="BackgroundImageFix"/>
<feColorMatrix in="SourceAlpha" type="matrix" values="0 0 0 0 0 0 0 0 0 0 0 0 0 0 0 0 0 0 127 0" result="hardAlpha"/>
<feMorphology radius="0.644384" operator="dilate" in="SourceAlpha" result="effect1_dropShadow_544_6025"/>
<feOffset dx="0.644384" dy="0.644384"/>
<feGaussianBlur stdDeviation="3.22192"/>
<feComposite in2="hardAlpha" operator="out"/>
<feColorMatrix type="matrix" values="0 0 0 0 0 0 0 0 0 0 0 0 0 0 0 0 0 0 0.02 0"/>
<feBlend mode="normal" in2="BackgroundImageFix" result="effect1_dropShadow_544_6025"/>
<feBlend mode="normal" in="SourceGraphic" in2="effect1_dropShadow_544_6025" result="shape"/>
</filter>
<clipPath id="clip0_544_6025">
<rect y="0.0972137" width="311.082" height="174.984" rx="6" fill="white"/>
</clipPath>
<clipPath id="clip1_544_6025">
<rect width="33.0525" height="8.59073" fill="white" transform="translate(259.496 18.7621)"/>
</clipPath>
</defs>
</svg>
