<svg width="312" height="176" viewBox="0 0 312 176" fill="none" xmlns="http://www.w3.org/2000/svg">
<g clip-path="url(#clip0_544_6248)">
<rect x="0.917969" y="0.0972137" width="311.082" height="174.984" rx="6" fill="#20014B"/>
<path d="M13.5282 55.3778V52.7044H20.7142V55.3778H13.5282ZM22.4828 64.125V49.4536H25.6267V50.523C26.2255 49.7744 27.2735 49.2825 28.6422 49.2825C31.6364 49.2825 33.5826 51.464 33.5826 54.8431C33.5826 58.2222 31.4653 60.4037 28.3856 60.4037C27.2093 60.4037 26.2041 60.0401 25.6267 59.3985V64.125H22.4828ZM27.9793 57.7303C29.4977 57.7303 30.5029 56.5754 30.5029 54.8431C30.5029 53.1108 29.4977 51.9559 27.9793 51.9559C26.4608 51.9559 25.4342 53.1108 25.4342 54.8431C25.4342 56.5754 26.4608 57.7303 27.9793 57.7303ZM40.6279 60.4037C37.2916 60.4037 34.939 58.0511 34.939 54.8431C34.939 51.6351 37.2916 49.2825 40.6279 49.2825C43.9215 49.2825 46.3168 51.6351 46.3168 54.8431C46.3168 58.0511 43.9215 60.4037 40.6279 60.4037ZM40.6279 57.7303C42.1464 57.7303 43.173 56.5541 43.173 54.8431C43.173 53.1322 42.1464 51.9559 40.6279 51.9559C39.0881 51.9559 38.0615 53.1322 38.0615 54.8431C38.0615 56.5541 39.0881 57.7303 40.6279 57.7303ZM51.9383 60.4037C49.3077 60.4037 47.6823 58.7997 47.1262 57.1743L49.6499 56.1905C49.9065 57.1957 50.7406 58.0298 51.9383 58.0298C52.7723 58.0298 53.3284 57.6234 53.3284 57.0246C53.3284 55.335 47.6181 56.4685 47.6181 52.3836C47.6181 50.694 49.0938 49.2825 51.4677 49.2825C53.6706 49.2825 55.4885 50.3519 55.9804 51.9131L53.4567 52.9611C53.1787 51.9773 52.3018 51.5281 51.5747 51.5281C50.8689 51.5281 50.377 51.8276 50.377 52.2981C50.377 54.009 56.1729 52.5975 56.1729 56.9604C56.1729 58.8211 54.4619 60.4037 51.9383 60.4037ZM59.5079 48.0207C58.4385 48.0207 57.6472 47.1866 57.6472 46.1386C57.6472 45.1121 58.4385 44.278 59.5079 44.278C60.5986 44.278 61.4327 45.1121 61.4327 46.1386C61.4327 47.1866 60.5986 48.0207 59.5079 48.0207ZM57.9466 60.2326V49.4536H61.0905V60.2326H57.9466ZM70.2386 60.1257C69.7253 60.2968 69.1265 60.4037 68.4849 60.4037C66.1537 60.4037 64.3786 59.1633 64.3786 56.5541V52.0628H62.6676V49.4536H64.3786V46.3311H67.5225V49.4536H70.1317V52.0628H67.5225V56.1477C67.5225 57.1101 68.0357 57.6662 68.8057 57.6662C69.1906 57.6662 69.6611 57.602 70.0247 57.4095L70.2386 60.1257ZM73.5221 48.0207C72.4528 48.0207 71.6615 47.1866 71.6615 46.1386C71.6615 45.1121 72.4528 44.278 73.5221 44.278C74.6129 44.278 75.447 45.1121 75.447 46.1386C75.447 47.1866 74.6129 48.0207 73.5221 48.0207ZM71.9609 60.2326V49.4536H75.1048V60.2326H71.9609ZM82.6916 60.4037C79.3553 60.4037 77.0027 58.0511 77.0027 54.8431C77.0027 51.6351 79.3553 49.2825 82.6916 49.2825C85.9852 49.2825 88.3805 51.6351 88.3805 54.8431C88.3805 58.0511 85.9852 60.4037 82.6916 60.4037ZM82.6916 57.7303C84.2101 57.7303 85.2367 56.5541 85.2367 54.8431C85.2367 53.1322 84.2101 51.9559 82.6916 51.9559C81.1518 51.9559 80.1252 53.1322 80.1252 54.8431C80.1252 56.5541 81.1518 57.7303 82.6916 57.7303ZM90.2567 60.2326V49.4536H93.4006V50.8865C94.0422 49.9455 95.2185 49.2825 96.6942 49.2825C99.0681 49.2825 100.651 50.8224 100.651 53.1963V60.2326H97.5283V54.0304C97.5283 52.8541 96.8011 52.0628 95.6676 52.0628C94.1705 52.0628 93.4006 53.2819 93.4006 55.5061V60.2326H90.2567ZM102.418 55.3778V52.7044H109.604V55.3778H102.418ZM17.1212 92.232C14.619 89.2806 13.3144 85.7303 13.3144 81.6241C13.3144 77.5392 14.619 73.9889 17.1212 71.0803L19.2385 72.6629C17.2282 75.4005 16.2444 78.3732 16.2444 81.6241C16.2444 84.939 17.2282 87.869 19.2385 90.6279L17.1212 92.232ZM19.9819 83.3778V80.7044H27.1679V83.3778H19.9819ZM29.0648 88.2326V73.2618H35.1601C37.8548 73.2618 39.9293 74.6092 39.9293 77.1114C39.9293 78.523 39.0525 79.5923 38.197 80.0628C39.5444 80.5975 40.6993 81.8165 40.6993 83.7627C40.6993 86.6072 38.475 88.2326 35.3098 88.2326H29.0648ZM32.4439 78.9293H34.882C36.2294 78.9293 36.8282 78.3519 36.8282 77.4322C36.8282 76.4912 36.2294 75.9138 34.8179 75.9138H32.4439V78.9293ZM32.4439 85.324H35.0317C36.7641 85.324 37.5126 84.7252 37.5126 83.5703C37.5126 82.394 36.7641 81.7524 35.0317 81.7524H32.4439V85.324ZM44.1361 76.0207C43.0667 76.0207 42.2754 75.1866 42.2754 74.1386C42.2754 73.1121 43.0667 72.278 44.1361 72.278C45.2268 72.278 46.0609 73.1121 46.0609 74.1386C46.0609 75.1866 45.2268 76.0207 44.1361 76.0207ZM42.5748 88.2326V77.4536H45.7187V88.2326H42.5748ZM47.5524 88.2326V85.8373L53.0061 80.0628H47.9374V77.4536H56.7916V79.8489L51.4021 85.6234H56.9627V88.2326H47.5524ZM64.0483 88.2326V73.2618H69.1597C73.266 73.2618 76.9232 75.6143 76.9232 80.7472C76.9232 85.88 73.266 88.2326 69.1597 88.2326H64.0483ZM67.3632 85.324H68.7961C71.2129 85.324 73.5226 84.2119 73.5226 80.7472C73.5226 77.2825 71.2129 76.149 68.7961 76.149H67.3632V85.324ZM89.1835 82.5651C89.1835 82.9928 89.1622 83.5061 89.1408 83.7414H81.3987C81.6981 85.0673 82.5964 85.7945 83.9224 85.7945C84.9917 85.7945 85.783 85.3026 86.0183 84.4044L88.9697 85.1957C88.3281 87.2274 86.4032 88.4037 83.8368 88.4037C80.1155 88.4037 78.2976 85.5165 78.2976 82.8431C78.2976 80.1697 79.923 77.2825 83.6443 77.2825C87.5367 77.2825 89.1835 80.1697 89.1835 82.5651ZM81.4415 81.5171H85.8258C85.7189 80.4264 85.0345 79.6137 83.6443 79.6137C82.5108 79.6137 81.7409 80.2553 81.4415 81.5171ZM93.414 88.2326L89.5002 77.4536H92.644L94.8255 84.5968L97.007 77.4536H100.172L96.2584 88.2326H93.414ZM100.433 83.3778V80.7044H107.619V83.3778H100.433ZM110.479 92.232L108.361 90.6279C110.372 87.869 111.356 84.939 111.356 81.6241C111.356 78.3732 110.372 75.4005 108.361 72.6629L110.479 71.0803C112.981 73.9889 114.307 77.5392 114.307 81.6241C114.307 85.7303 112.981 89.2806 110.479 92.232Z" fill="white"/>
<path d="M14.8622 34.3726L13.1016 28.3313H14.3099L15.475 32.9745L16.6574 28.3313H17.9864L19.1774 32.9745L20.3425 28.3313H21.5508L19.8075 34.3726H18.5647L17.3305 29.9452L16.0877 34.3726H14.8622ZM22.248 34.3726V28.3313H26.2871V29.3411H23.4218V30.6701H25.7175V31.6885H23.4218V33.3542H26.382V34.3726H22.248ZM28.3245 28.9182C28.3245 29.1339 28.29 29.2548 27.9275 29.8761L27.5823 30.4803H27.0472L27.4615 29.5655C27.1767 29.4878 26.9782 29.2202 26.9782 28.9182C26.9782 28.5471 27.2802 28.245 27.66 28.245C28.0225 28.245 28.3245 28.5471 28.3245 28.9182ZM34.121 34.3726H32.7488L31.3247 31.8957H30.3668V34.3726H29.193L29.1844 28.3313H31.5146C32.697 28.3313 33.4651 29.0304 33.4651 30.1178C33.4651 30.7996 33.1112 31.3778 32.5157 31.6713L34.121 34.3726ZM30.3668 29.3411V30.8859H31.3334C31.9375 30.8859 32.2827 30.6011 32.2827 30.1178C32.2827 29.6345 31.9375 29.3411 31.3334 29.3411H30.3668ZM34.7975 34.3726V28.3313H38.8366V29.3411H35.9713V30.6701H38.267V31.6885H35.9713V33.3542H38.9315V34.3726H34.7975ZM45.7004 28.3313H46.8742V34.3726H45.7004V31.7403H43.0509V34.3726H41.8772V28.3313H43.0509V30.7306H45.7004V28.3313ZM48.0128 34.3726V28.3313H49.1866V34.3726H48.0128ZM55.2588 34.3726H53.8865L52.4625 31.8957H51.5045V34.3726H50.3308L50.3222 28.3313H52.6524C53.8347 28.3313 54.6028 29.0304 54.6028 30.1178C54.6028 30.7996 54.249 31.3778 53.6535 31.6713L55.2588 34.3726ZM51.5045 29.3411V30.8859H52.4711C53.0753 30.8859 53.4205 30.6011 53.4205 30.1178C53.4205 29.6345 53.0753 29.3411 52.4711 29.3411H51.5045ZM55.9353 34.3726V28.3313H57.109V34.3726H55.9353ZM58.2446 34.3726V28.3313H59.4356L62.0247 32.5257V28.3313H63.1208V34.3726H61.9298L59.3493 30.1868V34.3726H58.2446ZM66.9634 34.4416C65.4272 34.4416 64.0032 33.4146 64.0032 31.3519C64.0032 29.2893 65.4617 28.2623 67.0411 28.2623C68.491 28.2623 69.518 29.0217 69.751 30.2731L68.5946 30.5148C68.4478 29.7553 67.8437 29.272 67.0324 29.272C65.9536 29.272 65.1855 30.0315 65.1855 31.3519C65.1855 32.6724 65.9536 33.4232 67.0152 33.4232C67.93 33.4232 68.5428 32.8795 68.6032 32.0942H66.8081V31.1448H69.6906V34.3726H68.6291V33.639C68.3615 34.1309 67.697 34.4416 66.9634 34.4416Z" fill="#42CACD"/>
<path d="M16.4658 157.972L16.0291 156.845H14.0608L13.6241 157.972H13.0291L14.7823 153.542H15.3076L17.067 157.972H16.4658ZM14.2569 156.333H15.8329L15.0481 154.301L14.2569 156.333ZM17.5623 159.124V154.782H18.1002V155.244C18.2711 154.953 18.6888 154.732 19.1508 154.732C20.1318 154.732 20.6761 155.44 20.6761 156.377C20.6761 157.314 20.1192 158.023 19.1382 158.023C18.7331 158.023 18.3154 157.82 18.1002 157.529V159.124H17.5623ZM19.0875 157.542C19.7204 157.542 20.1318 157.08 20.1318 156.377C20.1318 155.675 19.7204 155.213 19.0875 155.213C18.4673 155.213 18.0559 155.675 18.0559 156.377C18.0559 157.08 18.4673 157.542 19.0875 157.542ZM21.3633 159.124V154.782H21.9013V155.244C22.0722 154.953 22.4899 154.732 22.9519 154.732C23.9329 154.732 24.4772 155.44 24.4772 156.377C24.4772 157.314 23.9202 158.023 22.9393 158.023C22.5342 158.023 22.1165 157.82 21.9013 157.529V159.124H21.3633ZM22.8886 157.542C23.5215 157.542 23.9329 157.08 23.9329 156.377C23.9329 155.675 23.5215 155.213 22.8886 155.213C22.2684 155.213 21.857 155.675 21.857 156.377C21.857 157.08 22.2684 157.542 22.8886 157.542ZM26.1581 158.016C25.5885 158.073 25.1644 157.858 25.1644 157.194V153.491H25.7024V157.156C25.7024 157.504 25.8669 157.554 26.1328 157.535L26.1581 158.016ZM28.885 154.782H29.4356L27.7647 159.124H27.2141L27.6761 157.928L26.4293 154.782H27.0116L27.9483 157.225L28.885 154.782ZM33.1772 157.947C33.019 158.004 32.8481 158.023 32.6772 158.023C32.1329 158.023 31.7342 157.719 31.7342 157.016V155.257H31.1393V154.782H31.7342V153.814H32.2722V154.782H33.1266V155.257H32.2722V157.035C32.2722 157.371 32.462 157.535 32.7405 157.535C32.8671 157.535 33.0126 157.516 33.1392 157.453L33.1772 157.947ZM35.1613 158.023C34.2119 158.023 33.5411 157.333 33.5411 156.377C33.5411 155.421 34.2119 154.732 35.1613 154.732C36.1043 154.732 36.7878 155.421 36.7878 156.377C36.7878 157.333 36.1043 158.023 35.1613 158.023ZM35.1613 157.542C35.8005 157.542 36.2309 157.061 36.2309 156.377C36.2309 155.694 35.8005 155.213 35.1613 155.213C34.5221 155.213 34.0917 155.694 34.0917 156.377C34.0917 157.061 34.5221 157.542 35.1613 157.542ZM41.775 154.782V157.972H41.237V157.371C41.0155 157.75 40.6294 158.023 40.1421 158.023C39.4775 158.023 39.0029 157.573 39.0029 156.896V154.782H39.5408V156.795C39.5408 157.225 39.813 157.535 40.2623 157.535C40.8573 157.535 41.237 157.023 41.237 156.181V154.782H41.775ZM43.719 158.023C42.9469 158.023 42.5292 157.542 42.39 157.092L42.852 156.89C42.9722 157.263 43.2254 157.567 43.719 157.567C44.1114 157.567 44.3646 157.339 44.3646 157.08C44.3646 156.263 42.5292 156.788 42.5292 155.58C42.5292 155.073 42.9659 154.732 43.6494 154.732C44.2127 154.732 44.7 155.048 44.8329 155.516L44.3836 155.713C44.295 155.383 43.9785 155.175 43.6368 155.175C43.276 155.175 43.0482 155.32 43.0482 155.573C43.0482 156.257 44.8962 155.757 44.8899 157.073C44.8899 157.63 44.4216 158.023 43.719 158.023ZM48.2893 154.732C49.0615 154.732 49.5994 155.187 49.5994 155.928V157.972H49.0678V157.428C48.8843 157.795 48.4666 158.023 48.0045 158.023C47.3653 158.023 46.9286 157.63 46.9286 157.08C46.9286 156.466 47.4286 156.13 48.4476 156.029L49.0678 155.959V155.896C49.0678 155.459 48.7577 155.181 48.2893 155.181C47.8526 155.181 47.5425 155.44 47.4982 155.871L46.9982 155.776C47.0932 155.143 47.6185 154.732 48.2893 154.732ZM48.0868 157.58C48.7071 157.58 49.0678 157.168 49.0678 156.529V156.377L48.4476 156.447C47.802 156.516 47.4666 156.738 47.4666 157.073C47.4666 157.371 47.7197 157.58 48.0868 157.58ZM52.1517 157.947C51.9935 158.004 51.8226 158.023 51.6518 158.023C51.1075 158.023 50.7087 157.719 50.7087 157.016V155.257H50.1138V154.782H50.7087V153.814H51.2467V154.782H52.1011V155.257H51.2467V157.035C51.2467 157.371 51.4366 157.535 51.715 157.535C51.8416 157.535 51.9872 157.516 52.1138 157.453L52.1517 157.947Z" fill="white"/>
<path d="M55.3694 158.023C54.5909 158.023 54.1099 157.548 53.9454 157.067L54.6922 156.776C54.7681 157.073 55.015 157.32 55.3694 157.32C55.6162 157.32 55.7808 157.2 55.7808 157.023C55.7808 156.523 54.0909 156.858 54.0909 155.649C54.0909 155.149 54.5276 154.732 55.2301 154.732C55.882 154.732 56.42 155.048 56.5656 155.51L55.8187 155.82C55.7365 155.529 55.477 155.396 55.2618 155.396C55.0529 155.396 54.9074 155.485 54.9074 155.624C54.9074 156.13 56.6225 155.713 56.6225 157.004C56.6225 157.554 56.1162 158.023 55.3694 158.023ZM60.2045 156.295C60.2045 156.421 60.1981 156.573 60.1918 156.643H57.9007C57.9893 157.035 58.2551 157.25 58.6475 157.25C58.964 157.25 59.1982 157.105 59.2678 156.839L60.1412 157.073C59.9513 157.675 59.3817 158.023 58.6222 158.023C57.521 158.023 56.983 157.168 56.983 156.377C56.983 155.586 57.464 154.732 58.5653 154.732C59.7171 154.732 60.2045 155.586 60.2045 156.295ZM57.9134 155.985H59.2108C59.1792 155.662 58.9766 155.421 58.5653 155.421C58.2298 155.421 58.002 155.611 57.9134 155.985ZM62.6886 157.94C62.5367 157.991 62.3595 158.023 62.1696 158.023C61.4798 158.023 60.9544 157.656 60.9544 156.883V155.554H60.4481V154.782H60.9544V153.858H61.8848V154.782H62.6569V155.554H61.8848V156.763C61.8848 157.048 62.0367 157.213 62.2645 157.213C62.3785 157.213 62.5177 157.194 62.6253 157.137L62.6886 157.94ZM66.2432 154.782V157.972H65.3192V157.548C65.123 157.826 64.7749 158.023 64.3445 158.023C63.642 158.023 63.1674 157.567 63.1674 156.864V154.782H64.0977V156.618C64.0977 156.966 64.3129 157.2 64.642 157.2C65.085 157.2 65.3192 156.839 65.3192 156.181V154.782H66.2432ZM67.5191 158.023C67.209 158.023 66.9685 157.788 66.9685 157.485C66.9685 157.175 67.209 156.94 67.5191 156.94C67.8292 156.94 68.0697 157.175 68.0697 157.485C68.0697 157.788 67.8292 158.023 67.5191 158.023ZM70.0748 158.023C69.1128 158.023 68.4419 157.345 68.4419 156.377C68.4419 155.409 69.1128 154.732 70.0748 154.732C70.9292 154.732 71.5241 155.162 71.6254 155.864L70.7267 156.042C70.676 155.725 70.4419 155.523 70.1128 155.523C69.6761 155.523 69.3976 155.858 69.3976 156.377C69.3976 156.896 69.6824 157.231 70.1128 157.231C70.4419 157.231 70.6507 157.042 70.714 156.75L71.6191 156.934C71.5051 157.605 70.9165 158.023 70.0748 158.023ZM73.7164 158.023C72.729 158.023 72.0329 157.326 72.0329 156.377C72.0329 155.428 72.729 154.732 73.7164 154.732C74.691 154.732 75.3999 155.428 75.3999 156.377C75.3999 157.326 74.691 158.023 73.7164 158.023ZM73.7164 157.231C74.1657 157.231 74.4695 156.883 74.4695 156.377C74.4695 155.871 74.1657 155.523 73.7164 155.523C73.2607 155.523 72.9569 155.871 72.9569 156.377C72.9569 156.883 73.2607 157.231 73.7164 157.231ZM75.5642 157.978L77.5515 153.542H78.5198L76.5262 157.978H75.5642ZM79.7166 158.023C78.7546 158.023 78.0837 157.345 78.0837 156.377C78.0837 155.409 78.7546 154.732 79.7166 154.732C80.571 154.732 81.1659 155.162 81.2672 155.864L80.3685 156.042C80.3178 155.725 80.0837 155.523 79.7545 155.523C79.3178 155.523 79.0394 155.858 79.0394 156.377C79.0394 156.896 79.3242 157.231 79.7545 157.231C80.0837 157.231 80.2925 157.042 80.3558 156.75L81.2608 156.934C81.1469 157.605 80.5583 158.023 79.7166 158.023ZM83.0735 154.732C83.9406 154.732 84.5292 155.181 84.5292 156.08V157.972H83.6304V157.567C83.4469 157.845 83.0862 158.023 82.7317 158.023C82.1115 158.023 81.6748 157.605 81.6748 157.073C81.6748 156.44 82.1368 156.099 83.0545 156.004L83.6304 155.947V155.928C83.6304 155.611 83.4153 155.421 83.0735 155.421C82.7697 155.421 82.5482 155.605 82.5166 155.915L81.7064 155.763C81.8077 155.137 82.39 154.732 83.0735 154.732ZM82.9596 157.358C83.3773 157.358 83.6241 157.023 83.6304 156.649V156.643V156.624V156.599L83.0355 156.668C82.7191 156.7 82.5609 156.858 82.5609 157.042C82.5609 157.219 82.7001 157.358 82.9596 157.358ZM87.4026 155.675C87.295 155.624 87.1431 155.599 86.9976 155.599C86.5798 155.599 86.1811 155.915 86.1811 156.82V157.972H85.2508V154.782H86.1811V155.333C86.3267 154.991 86.7381 154.732 87.1178 154.732C87.2254 154.732 87.371 154.751 87.4596 154.782L87.4026 155.675ZM90.8542 156.295C90.8542 156.421 90.8479 156.573 90.8416 156.643H88.5505C88.6391 157.035 88.9049 157.25 89.2973 157.25C89.6137 157.25 89.8479 157.105 89.9175 156.839L90.7909 157.073C90.6011 157.675 90.0315 158.023 89.272 158.023C88.1707 158.023 87.6328 157.168 87.6328 156.377C87.6328 155.586 88.1138 154.732 89.215 154.732C90.3669 154.732 90.8542 155.586 90.8542 156.295ZM88.5631 155.985H89.8606C89.8289 155.662 89.6264 155.421 89.215 155.421C88.8796 155.421 88.6517 155.611 88.5631 155.985ZM94.4823 156.295C94.4823 156.421 94.4759 156.573 94.4696 156.643H92.1785C92.2671 157.035 92.5329 157.25 92.9253 157.25C93.2418 157.25 93.4759 157.105 93.5456 156.839L94.419 157.073C94.2291 157.675 93.6595 158.023 92.9 158.023C91.7988 158.023 91.2608 157.168 91.2608 156.377C91.2608 155.586 91.7418 154.732 92.843 154.732C93.9949 154.732 94.4823 155.586 94.4823 156.295ZM92.1912 155.985H93.4886C93.457 155.662 93.2544 155.421 92.843 155.421C92.5076 155.421 92.2798 155.611 92.1912 155.985ZM97.1989 155.675C97.0913 155.624 96.9394 155.599 96.7939 155.599C96.3762 155.599 95.9774 155.915 95.9774 156.82V157.972H95.0471V154.782H95.9774V155.333C96.123 154.991 96.5344 154.732 96.9141 154.732C97.0217 154.732 97.1673 154.751 97.2559 154.782L97.1989 155.675ZM98.7512 158.023C97.9728 158.023 97.4918 157.548 97.3272 157.067L98.074 156.776C98.15 157.073 98.3968 157.32 98.7512 157.32C98.9981 157.32 99.1626 157.2 99.1626 157.023C99.1626 156.523 97.4728 156.858 97.4728 155.649C97.4728 155.149 97.9095 154.732 98.612 154.732C99.2639 154.732 99.8018 155.048 99.9474 155.51L99.2006 155.82C99.1183 155.529 98.8588 155.396 98.6436 155.396C98.4348 155.396 98.2892 155.485 98.2892 155.624C98.2892 156.13 100.004 155.713 100.004 157.004C100.004 157.554 99.4981 158.023 98.7512 158.023Z" fill="#42CACD"/>
<g clip-path="url(#clip1_544_6248)">
<path d="M270.309 22.1006H276.623C276.703 22.1048 276.779 22.1402 276.833 22.199C276.887 22.2579 276.917 22.3357 276.914 22.4158C276.915 22.4941 276.885 22.5696 276.831 22.6258C276.776 22.682 276.702 22.7143 276.623 22.7157H270.309V22.1006Z" fill="#42CACD"/>
<path d="M283.286 22.1006C283.369 22.1037 283.447 22.1378 283.506 22.1963C283.564 22.2548 283.599 22.3332 283.602 22.4158C283.598 22.4968 283.563 22.5732 283.504 22.6291C283.446 22.685 283.367 22.716 283.286 22.7157H280.508V22.1006H283.286Z" fill="#42CACD"/>
<path d="M287.735 22.1006H295.267C295.347 22.1048 295.422 22.1402 295.476 22.199C295.531 22.2579 295.56 22.3357 295.558 22.4158C295.559 22.4941 295.529 22.5696 295.474 22.6258C295.42 22.682 295.345 22.7143 295.267 22.7157H287.735V22.1006Z" fill="#42CACD"/>
<path d="M270.923 23.3308H276.641C276.721 23.3355 276.796 23.371 276.85 23.4297C276.904 23.4885 276.934 23.566 276.933 23.646C276.933 23.7243 276.903 23.7998 276.849 23.856C276.794 23.9122 276.719 23.9445 276.641 23.9458H270.923V23.3308Z" fill="#42CACD"/>
<path d="M283.286 23.3308C283.369 23.3338 283.447 23.368 283.506 23.4265C283.564 23.4849 283.599 23.5634 283.602 23.646C283.598 23.727 283.563 23.8034 283.504 23.8593C283.446 23.9152 283.367 23.9462 283.286 23.9458H280.508V23.3308H283.286Z" fill="#42CACD"/>
<path d="M288.35 23.3308H295.284C295.364 23.3355 295.439 23.371 295.493 23.4297C295.548 23.4884 295.577 23.5659 295.576 23.646C295.577 23.7244 295.546 23.7999 295.492 23.8561C295.437 23.9122 295.362 23.9445 295.284 23.9458H288.35V23.3308Z" fill="#42CACD"/>
<path d="M276.607 14.8736C276.686 14.8749 276.76 14.9072 276.815 14.9634C276.869 15.0196 276.9 15.0951 276.899 15.1734C276.9 15.2534 276.871 15.3308 276.816 15.3896C276.762 15.4483 276.687 15.4838 276.607 15.4886H269.693V14.8736H276.607Z" fill="#42CACD"/>
<path d="M285.637 14.8736C285.715 14.8749 285.79 14.9072 285.844 14.9634C285.899 15.0196 285.929 15.0951 285.928 15.1734C285.93 15.2534 285.9 15.3308 285.846 15.3896C285.792 15.4483 285.717 15.4838 285.637 15.4886H278.099V14.8736H285.637Z" fill="#42CACD"/>
<path d="M289.913 14.8736C289.993 14.8737 290.069 14.9054 290.125 14.9616C290.181 15.0178 290.213 15.0939 290.213 15.1734C290.213 15.2545 290.182 15.3326 290.126 15.3913C290.07 15.4501 289.994 15.4849 289.913 15.4886H287.12V14.8736H289.913Z" fill="#42CACD"/>
<path d="M295.349 14.8736C295.428 14.8737 295.504 14.9054 295.561 14.9616C295.617 15.0178 295.648 15.0939 295.649 15.1734C295.649 15.2545 295.618 15.3326 295.562 15.3913C295.506 15.4501 295.43 15.4849 295.349 15.4886H292.553V14.8736H295.349Z" fill="#42CACD"/>
<path d="M276.607 16.1037C276.686 16.1051 276.76 16.1373 276.815 16.1935C276.869 16.2497 276.9 16.3252 276.899 16.4036C276.9 16.4835 276.871 16.561 276.816 16.6197C276.762 16.6784 276.687 16.7139 276.607 16.7188H269.693V16.1037H276.607Z" fill="#42CACD"/>
<path d="M285.637 16.1037C285.715 16.1051 285.79 16.1373 285.844 16.1935C285.899 16.2497 285.929 16.3252 285.928 16.4036C285.93 16.4835 285.9 16.561 285.846 16.6197C285.792 16.6784 285.717 16.7139 285.637 16.7188H278.099V16.1037H285.637Z" fill="#42CACD"/>
<path d="M289.913 16.1037C289.993 16.1038 290.069 16.1355 290.125 16.1917C290.181 16.2479 290.213 16.3241 290.213 16.4036C290.213 16.4846 290.182 16.5627 290.126 16.6215C290.07 16.6802 289.994 16.7151 289.913 16.7188H287.12V16.1037H289.913Z" fill="#42CACD"/>
<path d="M295.349 16.1037C295.428 16.1038 295.504 16.1355 295.561 16.1917C295.617 16.2479 295.648 16.3241 295.649 16.4036C295.649 16.4846 295.618 16.5627 295.562 16.6215C295.506 16.6802 295.43 16.7151 295.349 16.7188H292.553V16.1037H295.349Z" fill="#42CACD"/>
<path d="M272.471 17.2826C272.554 17.2855 272.632 17.3197 272.691 17.3782C272.749 17.4367 272.783 17.5151 272.786 17.5978C272.782 17.6788 272.748 17.7552 272.689 17.8111C272.63 17.867 272.552 17.898 272.471 17.8977H269.693V17.2826H272.471Z" fill="#42CACD"/>
<path d="M272.449 20.9218C272.532 20.9247 272.61 20.9589 272.669 21.0174C272.727 21.0759 272.761 21.1544 272.764 21.237C272.761 21.3179 272.726 21.3944 272.667 21.4502C272.608 21.5061 272.53 21.5372 272.449 21.5368H269.693V20.9218H272.449Z" fill="#42CACD"/>
<path d="M283.286 17.2826C283.369 17.2856 283.447 17.3198 283.506 17.3783C283.564 17.4368 283.599 17.5152 283.602 17.5978C283.598 17.6788 283.563 17.7552 283.504 17.8111C283.446 17.867 283.367 17.898 283.286 17.8977H280.508V17.2826H283.286Z" fill="#42CACD"/>
<path d="M289.898 17.2826C289.98 17.2855 290.059 17.3197 290.117 17.3782C290.176 17.4367 290.21 17.5151 290.213 17.5978C290.209 17.6788 290.174 17.7552 290.116 17.8111C290.057 17.867 289.979 17.898 289.898 17.8977H287.12V17.2826H289.898Z" fill="#42CACD"/>
<path d="M295.333 17.2826C295.416 17.2855 295.494 17.3197 295.553 17.3782C295.611 17.4367 295.645 17.5152 295.648 17.5978C295.644 17.6788 295.61 17.7552 295.551 17.8111C295.492 17.867 295.414 17.898 295.333 17.8977H292.553V17.2826H295.333Z" fill="#42CACD"/>
<path d="M275.406 18.5127C275.484 18.5139 275.559 18.5462 275.614 18.6024C275.668 18.6586 275.698 18.7342 275.697 18.8126C275.7 18.8928 275.67 18.9706 275.616 19.0295C275.561 19.0884 275.486 19.1237 275.406 19.1278H269.693V18.5127H275.406Z" fill="#42CACD"/>
<path d="M283.286 18.5127C283.369 18.5158 283.447 18.5499 283.506 18.6084C283.564 18.6669 283.599 18.7453 283.602 18.8279C283.598 18.9089 283.563 18.9854 283.504 19.0412C283.446 19.0971 283.367 19.1281 283.286 19.1278H280.508V18.5127H283.286Z" fill="#42CACD"/>
<path d="M289.913 18.5127C289.993 18.5128 290.069 18.5445 290.125 18.6007C290.181 18.6569 290.213 18.7331 290.213 18.8126C290.213 18.8936 290.182 18.9717 290.126 19.0305C290.07 19.0892 289.994 19.1241 289.913 19.1278H287.12V18.5127H289.913Z" fill="#42CACD"/>
<path d="M295.349 18.5127C295.428 18.5128 295.504 18.5445 295.561 18.6007C295.617 18.6569 295.648 18.7331 295.649 18.8126C295.649 18.8936 295.618 18.9717 295.562 19.0305C295.506 19.0892 295.43 19.1241 295.349 19.1278H292.553V18.5127H295.349Z" fill="#42CACD"/>
<path d="M267.592 22.7157H261.288V22.1006H267.592C267.674 22.1045 267.751 22.1392 267.808 22.1977C267.865 22.2562 267.898 22.3341 267.9 22.4158C267.898 22.496 267.864 22.5723 267.807 22.6283C267.749 22.6843 267.672 22.7157 267.592 22.7157Z" fill="#42CACD"/>
<path d="M266.977 23.9458H261.288V23.3308H266.991C267.071 23.3356 267.146 23.3711 267.2 23.4299C267.255 23.4886 267.284 23.566 267.283 23.646C267.284 23.7243 267.254 23.7998 267.199 23.856C267.144 23.9122 267.07 23.9445 266.991 23.9458" fill="#42CACD"/>
<path d="M267.617 14.8736C267.696 14.8749 267.77 14.9072 267.825 14.9634C267.88 15.0196 267.91 15.0951 267.909 15.1734C267.91 15.2534 267.881 15.3308 267.826 15.3896C267.772 15.4483 267.697 15.4838 267.617 15.4886H261.902V14.8736H267.617Z" fill="#42CACD"/>
<path d="M267.6 16.1037C267.678 16.1051 267.753 16.1373 267.808 16.1935C267.862 16.2496 267.893 16.3252 267.892 16.4036C267.893 16.4836 267.864 16.5611 267.809 16.6199C267.755 16.6786 267.68 16.714 267.6 16.7188H261.288V16.1037H267.6Z" fill="#42CACD"/>
<path d="M263.48 17.2826C263.562 17.2855 263.641 17.3197 263.699 17.3782C263.758 17.4367 263.792 17.5152 263.794 17.5978C263.791 17.6788 263.756 17.7552 263.697 17.8111C263.639 17.867 263.561 17.898 263.48 17.8977H260.724V17.2826H263.48Z" fill="#42CACD"/>
<path d="M268.268 20.9218C268.35 20.9247 268.429 20.9588 268.487 21.0173C268.546 21.0758 268.58 21.1543 268.583 21.237C268.579 21.318 268.544 21.3944 268.486 21.4503C268.427 21.5062 268.349 21.5372 268.268 21.5368H265.49V20.9218H268.268Z" fill="#42CACD"/>
<path d="M266.992 18.5127C267.07 18.5138 267.145 18.546 267.2 18.6022C267.255 18.6584 267.285 18.734 267.284 18.8126C267.286 18.8927 267.256 18.9703 267.202 19.029C267.147 19.0878 267.072 19.1232 266.992 19.1278H261.288V18.5127H266.992Z" fill="#42CACD"/>
<path d="M267.643 20.3067H261.902V19.6916H267.62C267.7 19.6964 267.775 19.7318 267.829 19.7905C267.884 19.8493 267.913 19.9268 267.912 20.0068C267.913 20.0852 267.882 20.1608 267.828 20.2169C267.773 20.2731 267.698 20.3053 267.62 20.3067" fill="#42CACD"/>
<path d="M275.383 20.3067H269.693V19.6916H275.406C275.486 19.6957 275.561 19.731 275.616 19.7899C275.67 19.8488 275.7 19.9266 275.697 20.0068C275.698 20.0852 275.668 20.1608 275.614 20.217C275.559 20.2732 275.484 20.3055 275.406 20.3067" fill="#42CACD"/>
<path d="M283.286 19.6916C283.369 19.6947 283.447 19.7289 283.506 19.7873C283.564 19.8458 283.599 19.9242 283.602 20.0068C283.598 20.0878 283.563 20.1643 283.504 20.2201C283.446 20.276 283.367 20.307 283.286 20.3067H280.508V19.6916H283.286Z" fill="#42CACD"/>
<path d="M289.888 20.3067H287.12V19.6916H289.913C289.994 19.6953 290.07 19.7302 290.126 19.7889C290.182 19.8477 290.213 19.9258 290.213 20.0068C290.213 20.0863 290.181 20.1625 290.125 20.2187C290.069 20.2749 289.993 20.3066 289.913 20.3067" fill="#42CACD"/>
<path d="M295.372 20.3067H292.553V19.6916H295.349C295.43 19.6953 295.506 19.7302 295.562 19.7889C295.618 19.8477 295.649 19.9258 295.649 20.0068C295.648 20.0863 295.617 20.1625 295.561 20.2187C295.504 20.2749 295.428 20.3066 295.349 20.3067" fill="#42CACD"/>
<path d="M283.286 20.9218C283.369 20.9248 283.447 20.959 283.506 21.0175C283.564 21.0759 283.599 21.1543 283.602 21.237C283.598 21.318 283.563 21.3944 283.504 21.4503C283.446 21.5062 283.367 21.5372 283.286 21.5368H280.508V20.9218H283.286Z" fill="#42CACD"/>
<path d="M289.898 20.9218C289.98 20.9247 290.059 20.9588 290.117 21.0173C290.176 21.0758 290.21 21.1543 290.213 21.237C290.209 21.318 290.174 21.3944 290.116 21.4503C290.057 21.5062 289.979 21.5372 289.898 21.5368H287.12V20.9218H289.898Z" fill="#42CACD"/>
<path d="M295.333 20.9218C295.416 20.9247 295.494 20.9589 295.553 21.0174C295.611 21.0759 295.645 21.1544 295.648 21.237C295.644 21.3179 295.61 21.3944 295.551 21.4502C295.492 21.5061 295.414 21.5372 295.333 21.5368H292.553V20.9218H295.333Z" fill="#42CACD"/>
</g>
<g filter="url(#filter0_d_544_6248)">
<circle cx="268.961" cy="153.007" r="27.5093" fill="#4B02B0"/>
</g>
<line x1="254.182" y1="122.864" x2="254.182" y2="182.858" stroke="#20014B" stroke-width="0.292653"/>
<line x1="283.74" y1="122.864" x2="283.74" y2="182.858" stroke="#20014B" stroke-width="0.292653"/>
<line x1="238.818" y1="137.936" x2="298.812" y2="137.936" stroke="#20014B" stroke-width="0.292653"/>
<line x1="238.818" y1="167.494" x2="298.812" y2="167.494" stroke="#20014B" stroke-width="0.292653"/>
<circle cx="268.961" cy="152.715" r="14.9253" fill="#FFF4E6"/>
<path d="M277.156 152.861C277.156 155.073 276.277 157.195 274.713 158.759C273.149 160.323 271.027 161.202 268.815 161.202C266.603 161.202 264.482 160.323 262.918 158.759C261.353 157.195 260.475 155.073 260.475 152.861" stroke="#FEB452" stroke-width="1.46326" stroke-linecap="round"/>
<mask id="mask0_544_6248" style="mask-type:alpha" maskUnits="userSpaceOnUse" x="241" y="125" width="56" height="56">
<circle cx="268.961" cy="153.007" r="27.5093" fill="white"/>
</mask>
<g mask="url(#mask0_544_6248)">
</g>
<path fill-rule="evenodd" clip-rule="evenodd" d="M278.212 160.502L286.976 164.227L283.279 165.569L281.937 169.266L278.212 160.502Z" fill="#F5C270"/>
<path d="M255.708 131.267L257.902 127.254L260.084 131.267L264.097 133.461L260.084 135.598L257.902 139.657L255.708 135.598L251.695 133.461L255.708 131.267Z" fill="#F5C270"/>
<path d="M283.345 141.345L284.328 139.545L285.306 141.345L287.106 142.328L285.306 143.286L284.328 145.106L283.345 143.286L281.545 142.328L283.345 141.345Z" fill="#F5C270"/>
<g filter="url(#filter1_d_544_6248)">
<circle cx="254.242" cy="88.2879" r="27.5093" fill="#4B02B0"/>
</g>
<mask id="mask1_544_6248" style="mask-type:alpha" maskUnits="userSpaceOnUse" x="226" y="60" width="56" height="56">
<circle cx="254.242" cy="88.2879" r="27.5093" fill="white"/>
</mask>
<g mask="url(#mask1_544_6248)">
<line x1="235.931" y1="58.1447" x2="235.931" y2="118.138" stroke="#20014B" stroke-width="0.292653"/>
<line x1="271.9" y1="58.1447" x2="271.9" y2="118.138" stroke="#20014B" stroke-width="0.292653"/>
<line x1="224.099" y1="71.4998" x2="284.092" y2="71.4998" stroke="#20014B" stroke-width="0.292653"/>
<line x1="224.099" y1="103.969" x2="284.092" y2="103.969" stroke="#20014B" stroke-width="0.292653"/>
<path d="M237.778 73.2511L238.762 71.4517L239.74 73.2511L241.539 74.2344L239.74 75.1924L238.762 77.0121L237.778 75.1924L235.979 74.2344L237.778 73.2511Z" fill="#F5C270"/>
<path d="M268.109 100.082L269.092 98.2825L270.071 100.082L271.87 101.065L270.071 102.023L269.092 103.843L268.109 102.023L266.31 101.065L268.109 100.082Z" fill="#F5C270"/>
</g>
<g filter="url(#filter2_d_544_6248)">
<circle cx="204.578" cy="133.4" r="27.5093" fill="#4B02B0"/>
</g>
<mask id="mask2_544_6248" style="mask-type:alpha" maskUnits="userSpaceOnUse" x="177" y="105" width="56" height="56">
<circle cx="204.578" cy="133.4" r="27.5093" fill="white"/>
</mask>
<g mask="url(#mask2_544_6248)">
<line x1="186.688" y1="103.256" x2="186.688" y2="163.25" stroke="#20014B" stroke-width="0.292653"/>
<line x1="222.127" y1="103.256" x2="222.127" y2="163.25" stroke="#20014B" stroke-width="0.292653"/>
<line x1="174.435" y1="131.577" x2="234.428" y2="131.577" stroke="#20014B" stroke-width="0.292653"/>
<line x1="174.24" y1="153.936" x2="234.234" y2="153.936" stroke="#20014B" stroke-width="0.292653"/>
</g>
<path d="M215.26 127.914C215.727 127.915 216.188 127.812 216.609 127.613C217.031 127.414 217.403 127.123 217.698 126.762C217.994 126.401 218.205 125.979 218.317 125.526C218.429 125.073 218.439 124.601 218.345 124.144C218.222 123.539 217.923 122.985 217.486 122.549C217.049 122.113 216.493 121.815 215.889 121.693C215.279 121.568 214.647 121.63 214.073 121.869C213.402 122.147 212.848 122.648 212.505 123.288C212.162 123.927 212.051 124.666 212.191 125.378C212.331 126.09 212.713 126.732 213.273 127.194C213.832 127.656 214.534 127.911 215.26 127.914Z" fill="#B5CBDF"/>
<g style="mix-blend-mode:multiply">
<path d="M215.26 127.914C215.727 127.915 216.188 127.812 216.609 127.613C217.031 127.414 217.403 127.123 217.698 126.762C217.994 126.401 218.205 125.979 218.317 125.526C218.429 125.073 218.439 124.601 218.345 124.144C218.222 123.539 217.923 122.985 217.486 122.549C217.049 122.113 216.493 121.815 215.889 121.693C215.279 121.568 214.647 121.63 214.073 121.869C213.402 122.147 212.848 122.648 212.505 123.288C212.162 123.927 212.051 124.666 212.191 125.378C212.331 126.09 212.713 126.732 213.273 127.194C213.832 127.656 214.534 127.911 215.26 127.914Z" fill="#B5CBDF"/>
</g>
<path d="M222.172 139.149C222.184 139.315 222.16 139.482 222.102 139.639C222.053 139.799 221.967 139.945 221.851 140.066C221.738 140.19 221.601 140.291 221.449 140.361C221.298 140.435 221.133 140.476 220.965 140.481H208.926C208.76 140.474 208.596 140.433 208.445 140.362C208.294 140.291 208.159 140.19 208.047 140.066C207.932 139.944 207.844 139.798 207.789 139.639C207.735 139.481 207.711 139.315 207.72 139.149V134.826C207.72 130.918 210.522 128.543 214.041 128.543H215.851C219.369 128.543 222.172 130.918 222.172 134.826V139.149Z" fill="#B5CBDF"/>
<path d="M194.137 119.148C194.603 119.149 195.064 119.046 195.486 118.847C195.907 118.648 196.28 118.357 196.575 117.996C196.87 117.635 197.082 117.213 197.194 116.76C197.305 116.307 197.315 115.835 197.222 115.378C197.098 114.773 196.799 114.219 196.362 113.783C195.926 113.347 195.37 113.05 194.765 112.928C194.156 112.803 193.523 112.864 192.949 113.104C192.279 113.381 191.725 113.882 191.382 114.522C191.039 115.161 190.928 115.9 191.068 116.612C191.208 117.324 191.59 117.966 192.149 118.428C192.709 118.891 193.411 119.145 194.137 119.148Z" fill="#B5CBDF"/>
<g style="mix-blend-mode:multiply">
<path d="M194.137 119.148C194.603 119.149 195.064 119.046 195.486 118.847C195.907 118.648 196.28 118.357 196.575 117.996C196.87 117.635 197.082 117.213 197.194 116.76C197.305 116.307 197.315 115.835 197.222 115.378C197.098 114.773 196.799 114.219 196.362 113.783C195.926 113.347 195.37 113.05 194.765 112.928C194.156 112.803 193.523 112.864 192.949 113.104C192.279 113.381 191.725 113.882 191.382 114.522C191.039 115.161 190.928 115.9 191.068 116.612C191.208 117.324 191.59 117.966 192.149 118.428C192.709 118.891 193.411 119.145 194.137 119.148Z" fill="#B5CBDF"/>
</g>
<path d="M201.048 130.383C201.06 130.549 201.037 130.716 200.979 130.873C200.929 131.033 200.843 131.179 200.728 131.3C200.615 131.425 200.478 131.525 200.325 131.596C200.175 131.67 200.01 131.71 199.842 131.715H187.803C187.636 131.708 187.472 131.667 187.321 131.596C187.17 131.525 187.035 131.424 186.923 131.3C186.808 131.178 186.72 131.032 186.666 130.873C186.611 130.716 186.588 130.549 186.597 130.383V126.06C186.597 122.152 189.399 119.777 192.918 119.777H194.727C198.246 119.777 201.048 122.152 201.048 126.06V130.383Z" fill="#B5CBDF"/>
<g style="mix-blend-mode:multiply">
<path d="M196.65 141.512C197.116 141.513 197.577 141.41 197.999 141.211C198.421 141.011 198.793 140.721 199.088 140.36C199.384 139.999 199.595 139.576 199.707 139.124C199.819 138.671 199.828 138.199 199.735 137.742C199.611 137.137 199.313 136.582 198.876 136.146C198.439 135.711 197.883 135.413 197.278 135.291C196.669 135.166 196.036 135.227 195.462 135.467C194.792 135.745 194.238 136.246 193.895 136.885C193.552 137.525 193.441 138.263 193.581 138.976C193.721 139.688 194.103 140.329 194.662 140.792C195.222 141.254 195.924 141.508 196.65 141.512Z" fill="#B5CBDF"/>
</g>
<g style="mix-blend-mode:multiply">
<path d="M196.65 141.512C197.116 141.513 197.577 141.41 197.999 141.211C198.421 141.011 198.793 140.721 199.088 140.36C199.384 139.999 199.595 139.576 199.707 139.124C199.819 138.671 199.828 138.199 199.735 137.742C199.611 137.137 199.313 136.582 198.876 136.146C198.439 135.711 197.883 135.413 197.278 135.291C196.669 135.166 196.036 135.227 195.462 135.467C194.792 135.745 194.238 136.246 193.895 136.885C193.552 137.525 193.441 138.263 193.581 138.976C193.721 139.688 194.103 140.329 194.662 140.792C195.222 141.254 195.924 141.508 196.65 141.512Z" fill="#B5CBDF"/>
</g>
<g style="mix-blend-mode:multiply">
<path d="M203.561 152.746C203.573 152.913 203.55 153.08 203.492 153.236C203.442 153.396 203.356 153.543 203.241 153.664C203.128 153.788 202.991 153.888 202.839 153.959C202.688 154.033 202.523 154.074 202.355 154.078H190.316C190.149 154.071 189.986 154.031 189.835 153.96C189.684 153.888 189.548 153.788 189.436 153.664C189.321 153.541 189.233 153.396 189.179 153.236C189.124 153.079 189.101 152.913 189.11 152.746V148.423C189.11 144.515 191.912 142.14 195.431 142.14H197.24C200.759 142.14 203.561 144.515 203.561 148.423V152.746Z" fill="#B5CBDF"/>
</g>
<path d="M204.384 141.109C205.983 141.108 207.532 140.553 208.768 139.539C210.004 138.524 210.85 137.112 211.161 135.544C211.472 133.975 211.231 132.347 210.476 130.937C209.722 129.527 208.502 128.422 207.025 127.811C205.547 127.199 203.904 127.119 202.374 127.584C200.844 128.048 199.522 129.029 198.634 130.359C197.746 131.689 197.347 133.285 197.504 134.876C197.661 136.468 198.365 137.955 199.496 139.086C200.794 140.379 202.551 141.106 204.384 141.109Z" fill="#FFB036"/>
<g style="mix-blend-mode:multiply">
<path d="M205.265 129.907L202.644 132.528C202.001 133.171 202.064 134.276 202.786 134.998C203.508 135.72 204.613 135.783 205.257 135.14L207.877 132.519C208.52 131.876 208.457 130.771 207.735 130.049C207.014 129.327 205.908 129.264 205.265 129.907ZM207.224 131.866L204.604 134.487C204.43 134.64 204.203 134.719 203.971 134.706C203.74 134.692 203.524 134.588 203.369 134.415C203.196 134.261 203.092 134.044 203.079 133.813C203.065 133.581 203.144 133.354 203.297 133.181L205.918 130.56C206.091 130.407 206.319 130.328 206.55 130.341C206.781 130.355 206.998 130.459 207.152 130.632C207.325 130.786 207.429 131.003 207.443 131.234C207.456 131.466 207.378 131.693 207.224 131.866Z" fill="#FEB452"/>
</g>
<g style="mix-blend-mode:multiply">
<path d="M203.774 133.458L201.153 136.079C200.51 136.722 200.573 137.827 201.295 138.549C202.017 139.271 203.122 139.334 203.765 138.691L206.386 136.07C207.029 135.427 206.965 134.32 206.244 133.6C205.524 132.879 204.417 132.815 203.774 133.458ZM205.733 135.417L203.112 138.038C202.939 138.191 202.712 138.27 202.481 138.257C202.25 138.244 202.034 138.14 201.879 137.968C201.707 137.813 201.602 137.596 201.589 137.365C201.575 137.134 201.654 136.907 201.808 136.733L204.428 134.113C204.601 133.958 204.829 133.879 205.06 133.892C205.292 133.906 205.509 134.01 205.664 134.183C205.836 134.338 205.939 134.555 205.952 134.786C205.965 135.017 205.886 135.244 205.733 135.417Z" fill="#FEB452"/>
</g>
<g style="mix-blend-mode:multiply">
<path d="M205.265 129.907L202.644 132.528C202.001 133.171 202.064 134.276 202.786 134.998C203.508 135.72 204.613 135.783 205.257 135.14L207.877 132.519C208.52 131.876 208.457 130.771 207.735 130.049C207.014 129.327 205.908 129.264 205.265 129.907ZM207.224 131.866L204.604 134.487C204.43 134.64 204.203 134.719 203.971 134.706C203.74 134.692 203.524 134.588 203.369 134.415C203.196 134.261 203.092 134.044 203.079 133.813C203.065 133.581 203.144 133.354 203.297 133.181L205.918 130.56C206.091 130.407 206.319 130.328 206.55 130.341C206.781 130.355 206.998 130.459 207.152 130.632C207.325 130.786 207.429 131.003 207.443 131.234C207.456 131.466 207.378 131.693 207.224 131.866Z" fill="#FED39A"/>
</g>
<g style="mix-blend-mode:multiply">
<path d="M203.774 133.458L201.153 136.079C200.51 136.722 200.573 137.827 201.295 138.549C202.017 139.271 203.122 139.334 203.765 138.691L206.386 136.07C207.029 135.427 206.965 134.32 206.244 133.6C205.524 132.879 204.417 132.815 203.774 133.458ZM205.733 135.417L203.112 138.038C202.939 138.191 202.712 138.27 202.481 138.257C202.25 138.244 202.034 138.14 201.879 137.968C201.707 137.813 201.602 137.596 201.589 137.365C201.575 137.134 201.654 136.907 201.808 136.733L204.428 134.113C204.601 133.958 204.829 133.879 205.06 133.892C205.292 133.906 205.509 134.01 205.664 134.183C205.836 134.338 205.939 134.555 205.952 134.786C205.965 135.017 205.886 135.244 205.733 135.417Z" fill="#FED39A"/>
</g>
<path d="M254.376 87.0179H254.136C253.729 87.0179 253.399 87.3478 253.399 87.7547V102.844C253.399 103.251 253.729 103.581 254.136 103.581H254.376C254.782 103.581 255.112 103.251 255.112 102.844V87.7547C255.112 87.3478 254.782 87.0179 254.376 87.0179Z" fill="#B1CDE2"/>
<path d="M254.158 87.589C256.008 87.5889 257.801 86.9474 259.231 85.7737C260.661 84.6001 261.639 82.967 262 81.1526C262.361 79.3383 262.081 77.455 261.209 75.8236C260.337 74.1922 258.926 72.9137 257.217 72.2059C255.508 71.4981 253.607 71.4048 251.836 71.9419C250.066 72.479 248.537 73.6133 247.509 75.1514C246.482 76.6896 246.019 78.5365 246.201 80.3774C246.382 82.2183 247.196 83.9394 248.504 85.2474C249.247 85.9899 250.128 86.5788 251.099 86.9806C252.069 87.3824 253.108 87.5891 254.158 87.589Z" fill="#FFB036"/>
<g style="mix-blend-mode:multiply">
<g style="mix-blend-mode:multiply">
<path fill-rule="evenodd" clip-rule="evenodd" d="M250.286 75.4754H258.036V76.4407H254.764C255.187 76.8864 255.461 77.4536 255.546 78.0627H258.036V79.0221H255.529C255.448 79.4908 255.254 79.9326 254.964 80.3089C254.673 80.6852 254.294 80.9846 253.861 81.181L256.226 85.1789H255.129L252.908 81.3866H250.286V80.41H252.765C253.285 80.405 253.784 80.2006 254.158 79.8389C254.413 79.592 254.595 79.2798 254.684 78.9365H250.286V77.9656H254.741C254.624 77.5285 254.368 77.1415 254.011 76.8632C253.655 76.5849 253.217 76.4306 252.765 76.4235H250.286V75.4754Z" fill="#FFB036"/>
</g>
</g>
<g style="mix-blend-mode:multiply">
<path d="M256.123 93.3003C254.353 95.0708 253.616 98.3148 255.495 100.194C257.374 102.073 260.635 101.376 262.389 99.5656C265.05 96.8984 266.821 88.9198 266.821 88.9198C266.821 88.9198 258.785 90.6332 256.123 93.3003Z" fill="#00A362"/>
</g>
<g style="mix-blend-mode:multiply">
<path d="M246.517 95.6134C248.23 97.361 251.365 98.0407 253.193 96.2188C255.021 94.3969 254.29 91.2557 252.576 89.5537C249.961 87.0179 242.262 85.3045 242.262 85.3045C242.262 85.3045 243.975 93.0262 246.517 95.6134Z" fill="#00A362"/>
</g>
</g>
<defs>
<filter id="filter0_d_544_6248" x="235.599" y="119.645" width="67.8953" height="67.8954" filterUnits="userSpaceOnUse" color-interpolation-filters="sRGB">
<feFlood flood-opacity="0" result="BackgroundImageFix"/>
<feColorMatrix in="SourceAlpha" type="matrix" values="0 0 0 0 0 0 0 0 0 0 0 0 0 0 0 0 0 0 127 0" result="hardAlpha"/>
<feMorphology radius="0.585305" operator="dilate" in="SourceAlpha" result="effect1_dropShadow_544_6248"/>
<feOffset dx="0.585305" dy="0.585305"/>
<feGaussianBlur stdDeviation="2.92653"/>
<feComposite in2="hardAlpha" operator="out"/>
<feColorMatrix type="matrix" values="0 0 0 0 0 0 0 0 0 0 0 0 0 0 0 0 0 0 0.02 0"/>
<feBlend mode="normal" in2="BackgroundImageFix" result="effect1_dropShadow_544_6248"/>
<feBlend mode="normal" in="SourceGraphic" in2="effect1_dropShadow_544_6248" result="shape"/>
</filter>
<filter id="filter1_d_544_6248" x="220.879" y="54.9255" width="67.8953" height="67.8954" filterUnits="userSpaceOnUse" color-interpolation-filters="sRGB">
<feFlood flood-opacity="0" result="BackgroundImageFix"/>
<feColorMatrix in="SourceAlpha" type="matrix" values="0 0 0 0 0 0 0 0 0 0 0 0 0 0 0 0 0 0 127 0" result="hardAlpha"/>
<feMorphology radius="0.585305" operator="dilate" in="SourceAlpha" result="effect1_dropShadow_544_6248"/>
<feOffset dx="0.585305" dy="0.585305"/>
<feGaussianBlur stdDeviation="2.92653"/>
<feComposite in2="hardAlpha" operator="out"/>
<feColorMatrix type="matrix" values="0 0 0 0 0 0 0 0 0 0 0 0 0 0 0 0 0 0 0.02 0"/>
<feBlend mode="normal" in2="BackgroundImageFix" result="effect1_dropShadow_544_6248"/>
<feBlend mode="normal" in="SourceGraphic" in2="effect1_dropShadow_544_6248" result="shape"/>
</filter>
<filter id="filter2_d_544_6248" x="171.215" y="100.037" width="67.8953" height="67.8954" filterUnits="userSpaceOnUse" color-interpolation-filters="sRGB">
<feFlood flood-opacity="0" result="BackgroundImageFix"/>
<feColorMatrix in="SourceAlpha" type="matrix" values="0 0 0 0 0 0 0 0 0 0 0 0 0 0 0 0 0 0 127 0" result="hardAlpha"/>
<feMorphology radius="0.585305" operator="dilate" in="SourceAlpha" result="effect1_dropShadow_544_6248"/>
<feOffset dx="0.585305" dy="0.585305"/>
<feGaussianBlur stdDeviation="2.92653"/>
<feComposite in2="hardAlpha" operator="out"/>
<feColorMatrix type="matrix" values="0 0 0 0 0 0 0 0 0 0 0 0 0 0 0 0 0 0 0.02 0"/>
<feBlend mode="normal" in2="BackgroundImageFix" result="effect1_dropShadow_544_6248"/>
<feBlend mode="normal" in="SourceGraphic" in2="effect1_dropShadow_544_6248" result="shape"/>
</filter>
<clipPath id="clip0_544_6248">
<rect x="0.917969" y="0.0972137" width="311.082" height="174.984" rx="6" fill="white"/>
</clipPath>
<clipPath id="clip1_544_6248">
<rect width="34.905" height="9.07223" fill="white" transform="translate(260.724 14.8736)"/>
</clipPath>
</defs>
</svg>
