<svg viewBox="0 0 64 64" fill="none" xmlns="http://www.w3.org/2000/svg">
<path d="M4.00004 24.4787C4.00004 24.2497 4.06104 24.0247 4.18004 23.8287C4.29604 23.6287 4.46604 23.4667 4.67004 23.3587L31.4 4.14872C31.5846 4.04981 31.7907 3.99805 32 3.99805C32.2094 3.99805 32.4155 4.04981 32.6 4.14872L59.33 23.3587C59.5321 23.4692 59.7012 23.6314 59.82 23.8287C59.938 24.0247 60 24.2497 60 24.4787V30.7287C59.9968 31.0651 59.8643 31.3873 59.63 31.6287C59.3904 31.8657 59.067 31.9987 58.73 31.9987H5.27004C5.10289 32 4.93715 31.9681 4.78246 31.9048C4.62778 31.8414 4.48724 31.7479 4.36905 31.6297C4.25085 31.5115 4.15735 31.371 4.094 31.2163C4.03065 31.0616 3.99871 30.8959 4.00004 30.7287V24.4787Z" fill="#B7CDE1"/>
<path d="M28 32H9V60H28V32ZM36 32H28V44.2H32H36V32ZM55 32H36V60H55V32Z" fill="#B7CDE1"/>
</svg>
