<svg width="48" height="48" viewBox="0 0 48 48" fill="none" xmlns="http://www.w3.org/2000/svg">
<path d="M3.8475 44.9999H21.6525C21.8767 44.998 22.0911 44.908 22.2496 44.7495C22.4081 44.591 22.498 44.3766 22.5 44.1524V26.3474C22.498 26.1233 22.4081 25.9088 22.2496 25.7503C22.0911 25.5918 21.8767 25.5019 21.6525 25.4999H16.6425C17.0392 24.816 17.2488 24.0395 17.25 23.2489C17.2512 22.4582 17.0441 21.6811 16.6494 20.9959C16.2548 20.3108 15.6866 19.7417 15.002 19.346C14.3174 18.9503 13.5407 18.7419 12.75 18.7419C11.9593 18.7419 11.1826 18.9503 10.498 19.346C9.81345 19.7417 9.24523 20.3108 8.85058 20.9959C8.45594 21.6811 8.24879 22.4582 8.25001 23.2489C8.25122 24.0395 8.46075 24.816 8.8575 25.4999H3.8475C3.62334 25.5019 3.40891 25.5918 3.25039 25.7503C3.09188 25.9088 3.00196 26.1233 3 26.3474V44.1524C3.00196 44.3766 3.09188 44.591 3.25039 44.7495C3.40891 44.908 3.62334 44.998 3.8475 44.9999V44.9999Z" fill="white"/>
<path d="M45 44.1525V26.3475C44.9981 26.1233 44.9082 25.9089 44.7496 25.7504C44.5911 25.5919 44.3767 25.502 44.1525 25.5H26.3475C26.1234 25.502 25.9089 25.5919 25.7504 25.7504C25.5919 25.9089 25.502 26.1233 25.5 26.3475V31.3575C24.8161 30.9608 24.0397 30.7512 23.249 30.75C22.4583 30.7488 21.6812 30.9559 20.9961 31.3506C20.3109 31.7452 19.7418 32.3134 19.3461 32.998C18.9504 33.6826 18.7421 34.4593 18.7421 35.25C18.7421 36.0407 18.9504 36.8174 19.3461 37.502C19.7418 38.1866 20.3109 38.7548 20.9961 39.1494C21.6812 39.5441 22.4583 39.7512 23.249 39.75C24.0397 39.7488 24.8161 39.5392 25.5 39.1425V44.1525C25.502 44.3767 25.5919 44.5911 25.7504 44.7496C25.9089 44.9081 26.1234 44.998 26.3475 45H44.1525C44.3767 44.998 44.5911 44.9081 44.7496 44.7496C44.9082 44.5911 44.9981 44.3767 45 44.1525V44.1525Z" fill="white"/>
<path d="M44.1525 3H26.3475C26.1233 3.00196 25.9089 3.09188 25.7504 3.25039C25.5919 3.40891 25.502 3.62334 25.5 3.8475V21.6525C25.502 21.8767 25.5919 22.0911 25.7504 22.2496C25.9089 22.4081 26.1233 22.498 26.3475 22.5H31.3575C30.9608 23.184 30.7512 23.9604 30.75 24.7511C30.7488 25.5418 30.9559 26.3188 31.3506 27.004C31.7452 27.6891 32.3134 28.2582 32.998 28.6539C33.6826 29.0496 34.4593 29.258 35.25 29.258C36.0407 29.258 36.8174 29.0496 37.502 28.6539C38.1866 28.2582 38.7548 27.6891 39.1494 27.004C39.5441 26.3188 39.7512 25.5418 39.75 24.7511C39.7488 23.9604 39.5392 23.184 39.1425 22.5H44.1525C44.3767 22.498 44.5911 22.4081 44.7496 22.2496C44.9081 22.0911 44.998 21.8767 45 21.6525V3.8475C44.998 3.62334 44.9081 3.40891 44.7496 3.25039C44.5911 3.09188 44.3767 3.00196 44.1525 3Z" fill="white"/>
<path d="M3 3.8475V21.6525C3.00196 21.8767 3.09188 22.0911 3.25039 22.2496C3.40891 22.4081 3.62334 22.498 3.8475 22.5H21.6525C21.8767 22.498 22.0911 22.4081 22.2496 22.2496C22.4081 22.0911 22.498 21.8767 22.5 21.6525V16.6425C23.184 17.0392 23.9604 17.2488 24.7511 17.25C25.5418 17.2512 26.3188 17.0441 27.004 16.6494C27.6891 16.2548 28.2582 15.6866 28.6539 15.002C29.0496 14.3174 29.258 13.5407 29.258 12.75C29.258 11.9593 29.0496 11.1826 28.6539 10.498C28.2582 9.81345 27.6891 9.24523 27.004 8.85058C26.3188 8.45594 25.5418 8.24879 24.7511 8.25001C23.9604 8.25122 23.184 8.46075 22.5 8.8575V3.8475C22.498 3.62334 22.4081 3.40891 22.2496 3.25039C22.0911 3.09188 21.8767 3.00196 21.6525 3H3.8475C3.62334 3.00196 3.40891 3.09188 3.25039 3.25039C3.09188 3.40891 3.00196 3.62334 3 3.8475V3.8475Z" fill="white"/>
<g style="mix-blend-mode:multiply">
<path d="M3.8475 44.9999H21.6525C21.8767 44.998 22.0911 44.908 22.2496 44.7495C22.4081 44.591 22.498 44.3766 22.5 44.1524V26.3474C22.498 26.1233 22.4081 25.9088 22.2496 25.7503C22.0911 25.5918 21.8767 25.5019 21.6525 25.4999H16.6425C17.0392 24.816 17.2488 24.0395 17.25 23.2489C17.2512 22.4582 17.0441 21.6811 16.6494 20.9959C16.2548 20.3108 15.6866 19.7417 15.002 19.346C14.3174 18.9503 13.5407 18.7419 12.75 18.7419C11.9593 18.7419 11.1826 18.9503 10.498 19.346C9.81345 19.7417 9.24523 20.3108 8.85058 20.9959C8.45594 21.6811 8.24879 22.4582 8.25001 23.2489C8.25122 24.0395 8.46075 24.816 8.8575 25.4999H3.8475C3.62334 25.5019 3.40891 25.5918 3.25039 25.7503C3.09188 25.9088 3.00196 26.1233 3 26.3474V44.1524C3.00196 44.3766 3.09188 44.591 3.25039 44.7495C3.40891 44.908 3.62334 44.998 3.8475 44.9999V44.9999Z" fill="#42CACD"/>
</g>
<g style="mix-blend-mode:multiply">
<path d="M45 44.1525V26.3475C44.9981 26.1233 44.9082 25.9089 44.7496 25.7504C44.5911 25.5919 44.3767 25.502 44.1525 25.5H26.3475C26.1234 25.502 25.9089 25.5919 25.7504 25.7504C25.5919 25.9089 25.502 26.1233 25.5 26.3475V31.3575C24.8161 30.9608 24.0397 30.7512 23.249 30.75C22.4583 30.7488 21.6812 30.9559 20.9961 31.3506C20.3109 31.7452 19.7418 32.3134 19.3461 32.998C18.9504 33.6826 18.7421 34.4593 18.7421 35.25C18.7421 36.0407 18.9504 36.8174 19.3461 37.502C19.7418 38.1866 20.3109 38.7548 20.9961 39.1494C21.6812 39.5441 22.4583 39.7512 23.249 39.75C24.0397 39.7488 24.8161 39.5392 25.5 39.1425V44.1525C25.502 44.3767 25.5919 44.5911 25.7504 44.7496C25.9089 44.9081 26.1234 44.998 26.3475 45H44.1525C44.3767 44.998 44.5911 44.9081 44.7496 44.7496C44.9082 44.5911 44.9981 44.3767 45 44.1525V44.1525Z" fill="#B7CDE1"/>
</g>
<g style="mix-blend-mode:multiply">
<path d="M44.1525 3H26.3475C26.1233 3.00196 25.9089 3.09188 25.7504 3.25039C25.5919 3.40891 25.502 3.62334 25.5 3.8475V21.6525C25.502 21.8767 25.5919 22.0911 25.7504 22.2496C25.9089 22.4081 26.1233 22.498 26.3475 22.5H31.3575C30.9608 23.184 30.7512 23.9604 30.75 24.7511C30.7488 25.5418 30.9559 26.3188 31.3506 27.004C31.7452 27.6891 32.3134 28.2582 32.998 28.6539C33.6826 29.0496 34.4593 29.258 35.25 29.258C36.0407 29.258 36.8174 29.0496 37.502 28.6539C38.1866 28.2582 38.7548 27.6891 39.1494 27.004C39.5441 26.3188 39.7512 25.5418 39.75 24.7511C39.7488 23.9604 39.5392 23.184 39.1425 22.5H44.1525C44.3767 22.498 44.5911 22.4081 44.7496 22.2496C44.9081 22.0911 44.998 21.8767 45 21.6525V3.8475C44.998 3.62334 44.9081 3.40891 44.7496 3.25039C44.5911 3.09188 44.3767 3.00196 44.1525 3Z" fill="#42CACD"/>
</g>
<g style="mix-blend-mode:multiply">
<path d="M3 3.8475V21.6525C3.00196 21.8767 3.09188 22.0911 3.25039 22.2496C3.40891 22.4081 3.62334 22.498 3.8475 22.5H21.6525C21.8767 22.498 22.0911 22.4081 22.2496 22.2496C22.4081 22.0911 22.498 21.8767 22.5 21.6525V16.6425C23.184 17.0392 23.9604 17.2488 24.7511 17.25C25.5418 17.2512 26.3188 17.0441 27.004 16.6494C27.6891 16.2548 28.2582 15.6866 28.6539 15.002C29.0496 14.3174 29.258 13.5407 29.258 12.75C29.258 11.9593 29.0496 11.1826 28.6539 10.498C28.2582 9.81345 27.6891 9.24523 27.004 8.85058C26.3188 8.45594 25.5418 8.24879 24.7511 8.25001C23.9604 8.25122 23.184 8.46075 22.5 8.8575V3.8475C22.498 3.62334 22.4081 3.40891 22.2496 3.25039C22.0911 3.09188 21.8767 3.00196 21.6525 3H3.8475C3.62334 3.00196 3.40891 3.09188 3.25039 3.25039C3.09188 3.40891 3.00196 3.62334 3 3.8475V3.8475Z" fill="#B7CDE1"/>
</g>
</svg>
