<svg viewBox="0 0 64 64" fill="none" xmlns="http://www.w3.org/2000/svg">
<path d="M29.0071 35C30.9867 35.0044 32.9228 34.4192 34.5688 33.3189C36.2147 32.2186 37.496 30.6531 38.2495 28.8217C38.9997 26.9939 39.1928 24.985 38.8045 23.0476C38.4162 21.1103 37.4639 19.3311 36.0673 17.9339C34.6707 16.5367 32.8923 15.5839 30.9558 15.1955C29.0193 14.807 27.0112 15.0002 25.1842 15.7508C23.0442 16.6343 21.277 18.2334 20.1842 20.2752C19.0913 22.3169 18.7406 24.6748 19.1917 26.9465C19.6429 29.2181 20.868 31.2628 22.658 32.7315C24.4481 34.2002 26.6921 35.002 29.0071 35V35Z" fill="white"/>
<path d="M45.9188 56.5077C45.9365 56.9482 45.8772 57.3882 45.7448 57.7995C45.6123 58.2109 45.4096 58.5845 45.1497 58.8963C44.6024 59.5509 43.8747 59.9434 43.1032 60H14.371C13.5876 59.9567 12.8447 59.5698 12.2834 58.9128C12.0246 58.5958 11.8219 58.2193 11.6874 57.8061C11.5528 57.3928 11.4893 56.9512 11.5005 56.5077V54.5719C11.5005 44.2598 18.1617 38 26.6083 38H30.9209C39.3126 38 46.0287 44.2598 46.0287 54.5719L45.9188 56.5077Z" fill="white"/>
<g style="mix-blend-mode:multiply">
<path d="M29.0071 35C30.9867 35.0044 32.9228 34.4192 34.5688 33.3189C36.2147 32.2187 37.496 30.6531 38.2495 28.8217C38.9997 26.9939 39.1928 24.985 38.8045 23.0476C38.4162 21.1103 37.4639 19.3311 36.0673 17.9339C34.6707 16.5367 32.8923 15.5839 30.9558 15.1955C29.0193 14.807 27.0112 15.0002 25.1842 15.7508C23.0442 16.6343 21.277 18.2334 20.1842 20.2752C19.0913 22.317 18.7406 24.6748 19.1917 26.9465C19.6429 29.2181 20.868 31.2628 22.658 32.7315C24.4481 34.2002 26.6921 35.002 29.0071 35V35Z" fill="#B7CDE1"/>
</g>
<g style="mix-blend-mode:multiply">
<path d="M45.9188 56.5077C45.9365 56.9482 45.8772 57.3882 45.7448 57.7995C45.6123 58.2109 45.4096 58.5845 45.1497 58.8963C44.6024 59.5509 43.8747 59.9434 43.1032 60H14.371C13.5876 59.9567 12.8447 59.5698 12.2834 58.9128C12.0246 58.5958 11.8219 58.2193 11.6874 57.8061C11.5528 57.3928 11.4893 56.9512 11.5005 56.5077V54.5719C11.5005 44.2598 18.1617 38 26.6083 38H30.9209C39.3126 38 46.0287 44.2598 46.0287 54.5719L45.9188 56.5077Z" fill="#B7CDE1"/>
</g>
<path d="M58.239 53.6713L48.7224 43.2188C52.5914 38.2831 54.4508 32.0773 53.9302 25.8378C53.4096 19.5983 50.5472 13.7831 45.9132 9.55072C41.2792 5.31834 35.2139 2.97949 28.9256 3.00014C22.6373 3.02078 16.5876 5.39939 11.9817 9.66209C7.37591 13.9248 4.55207 19.7587 4.07279 26.0015C3.5935 32.2443 5.49397 38.4377 9.39556 43.3479C13.2972 48.2581 18.9135 51.5245 25.1256 52.4966C31.3377 53.4686 37.6896 52.0748 42.9158 48.5928L52.6436 59.2293C52.8887 59.4736 53.1798 59.6674 53.5002 59.7997C53.8206 59.9319 54.1641 60 54.5109 60C54.8578 60 55.2012 59.9319 55.5216 59.7997C55.8421 59.6674 56.1331 59.4736 56.3783 59.2293L58.239 57.3635C58.7266 56.8717 59 56.2084 59 55.5174C59 54.8263 58.7266 54.1631 58.239 53.6713ZM8.34009 27.8325C8.34009 23.7655 9.55137 19.7898 11.8208 16.4082C14.0901 13.0266 17.3157 10.391 21.0896 8.83458C24.8634 7.2782 29.016 6.87098 33.0223 7.66442C37.0286 8.45785 40.7087 10.4163 43.597 13.2921C46.4854 16.1679 48.4524 19.832 49.2493 23.8208C50.0462 27.8097 49.6372 31.9443 48.0741 35.7017C46.5109 39.4591 43.8637 42.6707 40.4673 44.9302C37.071 47.1897 33.0779 48.3957 28.9931 48.3957C23.5156 48.3957 18.2624 46.2292 14.3892 42.3729C10.516 38.5165 8.34009 33.2862 8.34009 27.8325Z" fill="white"/>
<g style="mix-blend-mode:multiply" opacity="0.3">
<path d="M29.2175 48.8557C40.8789 48.8557 50.3324 39.4434 50.3324 27.8327C50.3324 16.2219 40.8789 6.80957 29.2175 6.80957C17.556 6.80957 8.10254 16.2219 8.10254 27.8327C8.10254 39.4434 17.556 48.8557 29.2175 48.8557Z" fill="#B7CDE1"/>
</g>
<g style="mix-blend-mode:multiply">
<path d="M58.239 53.6713L48.7224 43.2188C52.5914 38.2831 54.4508 32.0773 53.9302 25.8378C53.4096 19.5983 50.5472 13.7831 45.9132 9.55072C41.2792 5.31834 35.2139 2.97949 28.9256 3.00014C22.6373 3.02078 16.5876 5.39939 11.9817 9.66209C7.37591 13.9248 4.55207 19.7587 4.07279 26.0015C3.5935 32.2443 5.49397 38.4377 9.39556 43.3479C13.2972 48.2581 18.9135 51.5245 25.1256 52.4966C31.3377 53.4686 37.6896 52.0748 42.9158 48.5928L52.6436 59.2293C52.8887 59.4736 53.1798 59.6674 53.5002 59.7997C53.8206 59.9319 54.1641 60 54.5109 60C54.8578 60 55.2012 59.9319 55.5216 59.7997C55.8421 59.6674 56.1331 59.4736 56.3783 59.2293L58.239 57.3635C58.7266 56.8717 59 56.2084 59 55.5174C59 54.8263 58.7266 54.1631 58.239 53.6713ZM8.34009 27.8325C8.34009 23.7655 9.55137 19.7898 11.8208 16.4082C14.0901 13.0266 17.3157 10.391 21.0896 8.83458C24.8634 7.2782 29.016 6.87098 33.0223 7.66442C37.0286 8.45785 40.7087 10.4163 43.597 13.2921C46.4854 16.1679 48.4524 19.832 49.2493 23.8208C50.0462 27.8097 49.6372 31.9443 48.0741 35.7017C46.5109 39.4591 43.8637 42.6707 40.4673 44.9302C37.071 47.1897 33.0779 48.3957 28.9931 48.3957C23.5156 48.3957 18.2624 46.2292 14.3892 42.3729C10.516 38.5165 8.34009 33.2862 8.34009 27.8325Z" fill="#42CACD"/>
</g>
</svg>
