<?xml version="1.0" encoding="UTF-8"?><svg id="Layer_1" xmlns="http://www.w3.org/2000/svg" viewBox="0 0 129.99 129.99"><defs><style>.cls-1{stroke-width:.44px;}.cls-1,.cls-2,.cls-3,.cls-4{fill:none;stroke:#221f20;}.cls-1,.cls-3{stroke-miterlimit:10;}.cls-5{fill:#414042;}.cls-6{fill:#58595b;}.cls-2{stroke-width:.82px;}.cls-2,.cls-4{stroke-linejoin:round;}.cls-3{stroke-width:.16px;}.cls-4{stroke-width:.92px;}.cls-7,.cls-8{opacity:.6;}.cls-7,.cls-9,.cls-10,.cls-11,.cls-12,.cls-13{fill:#69b9c5;}.cls-8,.cls-14,.cls-15,.cls-16{fill:#68b9c4;}.cls-17{fill:#3a8784;opacity:.55;}.cls-9{opacity:.5;}.cls-10,.cls-14{opacity:.9;}.cls-15,.cls-11{opacity:.8;}.cls-12,.cls-16{opacity:.7;}.cls-13{opacity:.75;}</style></defs><polygon class="cls-14" points="65.26 30.46 70.55 33.51 70.55 37.78 65.26 34.79 65.26 30.46"/><polygon class="cls-14" points="64.52 30.45 59.23 33.5 59.23 37.76 64.52 34.78 64.52 30.45"/><polygon class="cls-9" points="119.84 69.75 123.35 71.74 119.84 73.76 119.84 69.75"/><polygon class="cls-11" points="112.72 73.67 116.32 75.61 112.82 77.64 112.72 73.67"/><polygon class="cls-10" points="116.46 71.86 119.99 73.81 116.48 75.84 116.46 71.86"/><polygon class="cls-7" points="70.58 59.9 75.1 62.18 75.1 66.53 70.58 64.21 70.58 59.9"/><polygon class="cls-7" points="70.58 42.29 75.1 44.81 75.1 48.89 70.58 46.44 70.58 42.29"/><polygon class="cls-12" points="70.58 46.43 75.1 48.89 75.1 53.31 70.58 50.89 70.58 46.43"/><polygon class="cls-11" points="70.58 37.93 75.1 40.47 75.1 44.81 70.58 42.31 70.58 37.93"/><polygon class="cls-11" points="79.11 38.27 83.33 40.84 83.33 45.18 79.11 42.78 79.11 38.27"/><polygon class="cls-7" points="70.58 50.87 75.1 53.31 75.1 57.56 70.58 55.1 70.58 50.87"/><polygon class="cls-14" points="70.58 55.23 75.1 57.72 75.1 62.33 70.58 59.88 70.58 55.23"/><polygon class="cls-7" points="83.33 45.18 87.84 47.74 87.91 51.91 83.33 49.47 83.33 45.18"/><polygon class="cls-13" points="83.33 40.92 87.84 43.48 87.91 47.65 83.33 45.21 83.33 40.92"/><polygon class="cls-13" points="70.55 33.65 75.06 36.21 75.14 40.59 70.55 37.94 70.55 33.65"/><polygon class="cls-12" points="83.33 49.4 88.06 52.04 87.84 55.99 83.33 53.55 83.33 49.4"/><polygon class="cls-11" points="83.33 53.52 88.13 56.14 88.06 60.29 83.33 57.75 83.33 53.52"/><polygon class="cls-7" points="83.41 57.81 88.06 60.29 88.13 64.72 83.33 62.12 83.41 57.81"/><polygon class="cls-14" points="83.33 62.12 88.13 64.72 88.19 69.31 83.33 66.66 83.33 62.12"/><polygon class="cls-14" points="75.1 40.47 79.11 42.78 79.11 47.05 75.1 44.79 75.1 40.47"/><polygon class="cls-14" points="75.1 44.81 79.11 47.05 79.11 51.18 75.1 48.88 75.1 44.81"/><polygon class="cls-7" points="75.1 48.89 79.11 51.18 79.11 55.55 75.1 53.34 75.1 48.89"/><polygon class="cls-11" points="75.1 53.31 79.11 55.55 79.11 59.83 75.1 57.72 75.1 53.31"/><polygon class="cls-14" points="75.1 57.72 79.11 59.83 79.11 64.43 75.1 62.33 75.1 57.72"/><polygon class="cls-7" points="79.11 42.78 83.33 45.18 83.33 49.47 79.11 47.06 79.11 42.78"/><polygon class="cls-7" points="75.1 36.29 79.11 38.49 79.11 42.78 75.1 40.47 75.1 36.29"/><polygon class="cls-14" points="79.11 47.05 83.33 49.47 83.33 53.55 79.11 51.19 79.11 47.05"/><polygon class="cls-14" points="79.11 51.18 83.33 53.55 83.33 57.75 79.11 55.4 79.11 51.18"/><polygon class="cls-7" points="79.11 55.41 83.33 57.75 83.33 62.12 79.11 59.74 79.11 55.41"/><polygon class="cls-12" points="79.11 59.83 83.33 62.18 83.33 66.66 79.11 64.43 79.11 59.83"/><polygon class="cls-7" points="65.29 34.94 70.58 37.93 70.58 42.29 65.29 39.34 65.29 34.94"/><polygon class="cls-12" points="65.14 39.25 70.58 42.29 70.58 46.44 65.07 43.47 65.14 39.25"/><polygon class="cls-11" points="65.39 43.58 70.58 46.43 70.58 50.89 65.29 48.05 65.39 43.58"/><polygon class="cls-14" points="65.14 47.92 70.58 50.87 70.58 55.1 65.3 52.35 65.14 47.92"/><polygon class="cls-12" points="65.36 52.36 70.58 55.23 70.58 59.9 65.32 57.12 65.36 52.36"/><polygon class="cls-7" points="88.06 47.89 92.25 50.24 92.25 54.42 88.06 52.04 88.06 47.89"/><polygon class="cls-12" points="88.06 52.04 92.25 54.42 92.32 58.51 88.13 56.14 88.06 52.04"/><polygon class="cls-11" points="88.08 56.16 92.32 58.51 92.36 62.61 88.06 60.29 88.08 56.16"/><polygon class="cls-14" points="88.13 60.36 92.36 62.65 92.41 66.94 88.2 64.68 88.13 60.36"/><polygon class="cls-14" points="88.01 43.61 92.24 45.9 92.3 50.19 88.08 47.93 88.01 43.61"/><polygon class="cls-7" points="92.25 50.34 97.07 52.87 97.07 57.07 92.25 54.43 92.25 50.34"/><polygon class="cls-10" points="92.25 54.42 97 57.03 97.07 61.14 92.32 58.52 92.25 54.42"/><polygon class="cls-10" points="97.07 61.14 100.93 63.28 100.93 67.29 97.07 65.23 97.07 61.14"/><polygon class="cls-11" points="97.07 65.19 100.93 67.29 100.9 71.6 97.07 69.48 97.07 65.19"/><polygon class="cls-12" points="92.32 58.51 97.07 61.14 97.07 65.19 92.36 62.69 92.32 58.51"/><polygon class="cls-15" points="92.36 62.65 97.07 65.19 97.07 69.48 92.41 66.97 92.36 62.65"/><polygon class="cls-7" points="100.93 55.13 105.04 57.45 105.04 61.52 100.93 59.15 100.93 55.13"/><polygon class="cls-7" points="104.96 53.48 108.87 55.59 108.87 59.66 104.96 57.51 104.96 53.48"/><polygon class="cls-7" points="97.07 57.07 100.9 59.21 100.93 63.28 97.07 61.11 97.07 57.07"/><polygon class="cls-10" points="100.9 59.21 105.04 61.59 105.04 65.48 100.9 63.25 100.9 59.21"/><polygon class="cls-12" points="100.93 63.28 105.04 65.48 105.05 69.51 100.9 67.23 100.93 63.28"/><polygon class="cls-8" points="100.93 67.29 105.05 69.51 105.02 73.66 100.9 71.6 100.93 67.29"/><polygon class="cls-16" points="97.03 53.01 100.93 55.25 100.9 59.21 97.07 57.12 97.03 53.01"/><polygon class="cls-16" points="92.21 46.12 97.07 48.88 97.04 52.85 92.25 50.24 92.21 46.12"/><polygon class="cls-10" points="108.76 59.61 112.69 61.75 112.69 65.88 108.76 63.65 108.76 59.61"/><polygon class="cls-10" points="97.01 48.91 100.94 51.05 100.94 55.18 97.01 52.94 97.01 48.91"/><polygon class="cls-12" points="108.76 63.6 112.69 65.88 112.69 69.7 108.76 67.6 108.76 63.6"/><polygon class="cls-11" points="108.76 67.62 112.69 69.7 112.72 73.67 108.76 71.57 108.76 67.62"/><polygon class="cls-14" points="108.78 71.56 112.72 73.67 112.69 77.81 108.75 75.9 108.78 71.56"/><polygon class="cls-12" points="119.84 62.76 123.35 64.97 123.35 67.95 119.84 65.84 119.84 62.76"/><polygon class="cls-10" points="116.44 60.89 119.88 62.99 119.88 65.97 116.44 63.97 116.44 60.89"/><polygon class="cls-12" points="123.35 64.79 126.75 66.65 126.85 69.92 123.35 67.87 123.35 64.79"/><polygon class="cls-11" points="105.04 57.5 108.76 59.67 108.76 63.65 105.04 61.52 105.04 57.5"/><polygon class="cls-11" points="100.93 51.35 105.05 53.51 105.05 57.49 100.93 55.37 100.93 51.35"/><polygon class="cls-10" points="105.04 61.52 108.76 63.65 108.76 67.6 105.04 65.61 105.04 61.52"/><polygon class="cls-10" points="108.82 55.73 112.72 57.86 112.72 61.81 108.76 59.61 108.82 55.73"/><polygon class="cls-12" points="105.04 65.48 108.74 67.54 108.76 71.57 105.04 69.46 105.04 65.48"/><polygon class="cls-8" points="105.05 69.51 108.78 71.56 108.76 75.7 105.02 73.66 105.05 69.51"/><polygon class="cls-11" points="112.72 58.6 116.44 60.56 116.44 63.97 112.69 61.75 112.72 58.6"/><polygon class="cls-10" points="112.69 61.75 116.42 64.02 116.48 67.91 112.72 65.79 112.69 61.75"/><polygon class="cls-10" points="116.48 67.91 119.82 69.79 119.84 73.76 116.46 71.86 116.48 67.91"/><polygon class="cls-10" points="123.35 67.95 126.75 69.82 123.4 71.9 123.35 67.95"/><polygon class="cls-11" points="126.75 66.88 129.55 68.16 126.75 69.82 126.75 66.88"/><polygon class="cls-12" points="112.72 65.79 116.46 67.89 116.46 71.86 112.76 69.81 112.72 65.79"/><polygon class="cls-7" points="119.84 65.84 123.35 67.87 123.35 71.74 119.84 69.75 119.84 65.84"/><polygon class="cls-12" points="116.44 63.97 119.84 65.88 119.84 69.75 116.48 67.91 116.44 63.97"/><polygon class="cls-8" points="112.76 69.81 116.46 71.92 116.48 75.7 112.72 73.67 112.76 69.81"/><polygon class="cls-14" points="65.07 56.98 70.52 59.95 70.58 64.21 65.18 61.32 65.07 56.98"/><polygon class="cls-7" points="65.37 61.42 70.58 64.2 70.58 68.87 65.28 66.07 65.37 61.42"/><polygon class="cls-12" points="65.08 65.97 70.58 68.85 70.57 73.13 65.07 70.14 65.08 65.97"/><polygon class="cls-11" points="65.35 70.37 70.57 73.13 70.55 78.13 65.3 75.38 65.35 70.37"/><polygon class="cls-7" points="65.08 89.71 70.54 92.65 70.53 97.28 65.07 94.51 65.08 89.71"/><polygon class="cls-12" points="65.07 94.51 70.53 97.28 70.58 102.2 65.14 99.26 65.07 94.51"/><polygon class="cls-11" points="65.14 99.26 70.58 102.2 65.07 105.39 65.14 99.26"/><polygon class="cls-14" points="65.21 75.33 70.55 78.13 70.61 82.42 65.3 79.71 65.21 75.33"/><polygon class="cls-14" points="65.14 79.4 70.61 82.42 70.65 87.9 65.04 84.69 65.14 79.4"/><polygon class="cls-14" points="79.21 86.91 83.33 89.11 83.33 94.84 79.05 92.5 79.21 86.91"/><polygon class="cls-14" points="75.09 95.13 79.11 97.28 75.1 99.6 75.09 95.13"/><polygon class="cls-14" points="70.53 97.28 75 99.6 70.65 102.11 70.53 97.28"/><polygon class="cls-15" points="79.05 92.5 83.08 94.85 79.06 97.17 79.05 92.5"/><polygon class="cls-12" points="65.04 84.69 70.65 87.9 70.5 92.72 65.08 89.71 65.04 84.69"/><polygon class="cls-14" points="70.65 87.9 75.06 90.31 75.09 95.13 70.5 92.72 70.65 87.9"/><polygon class="cls-12" points="70.5 92.72 75.08 95.13 75.1 99.6 70.52 97.17 70.5 92.72"/><polygon class="cls-11" points="70.58 64.25 75.1 66.53 75.1 71.12 70.58 68.87 70.58 64.25"/><polygon class="cls-7" points="70.58 68.85 75.1 71.12 75.1 75.46 70.58 73.11 70.58 68.85"/><polygon class="cls-7" points="70.55 78.13 75.11 80.44 75.09 84.69 70.57 82.5 70.55 78.13"/><polygon class="cls-7" points="70.55 82.44 75.08 84.82 75.11 90.35 70.65 87.9 70.55 82.44"/><polygon class="cls-7" points="75.11 90.35 79.05 92.5 79.11 97.28 75.09 95.13 75.11 90.35"/><polygon class="cls-7" points="83.33 66.66 88.19 69.31 88.21 73.59 83.33 70.93 83.33 66.66"/><polygon class="cls-12" points="83.33 70.84 88.21 73.59 88.35 78.13 83.33 75.52 83.33 70.84"/><polygon class="cls-11" points="83.33 75.51 88.35 78.13 88.35 82.28 83.33 79.75 83.33 75.51"/><polygon class="cls-9" points="83.33 79.75 88.41 82.37 88.42 87.31 83.33 84.69 83.33 79.75"/><polygon class="cls-9" points="83.33 89.11 88.31 91.96 83.33 94.97 83.33 89.11"/><polygon class="cls-9" points="88.59 87.42 92.62 89.48 88.59 91.9 88.59 87.42"/><polygon class="cls-14" points="79.11 82.51 83.33 84.69 83.33 89.11 79.11 87 79.11 82.51"/><polygon class="cls-14" points="75.1 62.3 79.11 64.37 79.11 68.77 75.1 66.63 75.1 62.3"/><polygon class="cls-14" points="75.1 66.6 79.11 68.77 79.11 73.3 75.1 71.12 75.1 66.6"/><polygon class="cls-7" points="75.1 71.21 79.11 73.3 79.11 77.55 75.1 75.46 75.1 71.21"/><polygon class="cls-11" points="75.1 75.46 79.11 77.55 79.11 82.51 75.1 80.52 75.1 75.46"/><polygon class="cls-14" points="75.11 80.44 79.11 82.51 79.11 87 75.04 84.85 75.11 80.44"/><polygon class="cls-14" points="70.57 73.13 75.1 75.46 75.11 80.44 70.57 78.15 70.57 73.13"/><polygon class="cls-15" points="83.33 84.69 88.59 87.42 88.59 91.78 83.33 89.11 83.33 84.69"/><polygon class="cls-7" points="79.11 64.43 83.33 66.63 83.33 70.93 79.11 68.77 79.11 64.43"/><polygon class="cls-14" points="79.11 68.77 83.33 70.9 83.33 75.52 79.11 73.3 79.11 68.77"/><polygon class="cls-14" points="79.11 73.38 83.33 75.52 83.33 79.75 79.11 77.55 79.11 73.38"/><polygon class="cls-7" points="79.11 77.59 83.33 79.75 83.33 84.69 79.11 82.51 79.11 77.59"/><polygon class="cls-12" points="75.17 84.85 79.21 86.91 79.05 92.5 75.11 90.35 75.17 84.85"/><polygon class="cls-7" points="88.35 78.13 92.53 80.38 92.65 84.56 88.41 82.37 88.35 78.13"/><polygon class="cls-12" points="88.41 82.51 92.65 84.56 92.62 89.48 88.59 87.42 88.41 82.51"/><polygon class="cls-11" points="92.65 84.56 97.07 86.91 92.62 89.48 92.65 84.56"/><polygon class="cls-14" points="88.2 64.68 92.41 66.95 92.41 71.53 88.22 69.2 88.2 64.68"/><polygon class="cls-14" points="105.09 73.77 108.76 75.7 108.76 80.18 105.04 78.19 105.09 73.77"/><polygon class="cls-14" points="100.9 80.34 104.93 82.45 100.91 84.76 100.9 80.34"/><polygon class="cls-15" points="105.04 78.19 108.76 80.16 105.05 82.2 105.04 78.19"/><polygon class="cls-12" points="88.22 69.2 92.41 71.53 92.49 75.9 88.21 73.59 88.22 69.2"/><polygon class="cls-7" points="97.05 82.68 100.91 84.76 97.07 86.91 97.05 82.68"/><polygon class="cls-14" points="97.07 73.94 100.9 76 100.9 80.34 97.07 78.3 97.07 73.94"/><polygon class="cls-15" points="97.07 69.46 100.9 71.64 100.91 76 97.07 73.94 97.07 69.46"/><polygon class="cls-15" points="97.07 78.3 100.9 80.42 100.91 84.76 97.07 82.72 97.07 78.3"/><polygon class="cls-14" points="88.31 73.67 92.43 75.93 92.53 80.38 88.35 78.13 88.31 73.67"/><polygon class="cls-10" points="92.53 80.38 97.05 82.68 97.07 86.91 92.65 84.56 92.53 80.38"/><polygon class="cls-7" points="92.41 66.95 97.09 69.58 97.07 73.94 92.41 71.53 92.41 66.95"/><polygon class="cls-12" points="92.41 71.53 97.09 73.99 97.07 78.3 92.49 75.9 92.41 71.53"/><polygon class="cls-7" points="92.49 75.9 97.09 78.33 97.05 82.68 92.64 80.46 92.49 75.9"/><polygon class="cls-7" points="100.91 76 105.04 78.2 104.93 82.45 100.9 80.39 100.91 76"/><polygon class="cls-9" points="108.76 75.7 112.69 77.81 108.76 80.16 108.76 75.7"/><polygon class="cls-12" points="100.93 71.53 105.09 73.77 105.04 78.24 100.91 76 100.93 71.53"/><line class="cls-3" x1="126.75" y1="69.82" x2="65.02" y2="34.79"/><line class="cls-3" x1="123.35" y1="71.74" x2="65.14" y2="39.25"/><line class="cls-3" x1="119.84" y1="73.76" x2="65.14" y2="43.44"/><line class="cls-3" x1="116.48" y1="75.7" x2="65.14" y2="47.92"/><line class="cls-3" x1="108.76" y1="80.16" x2="65.07" y2="56.98"/><line class="cls-3" x1="104.78" y1="82.41" x2="65.18" y2="61.32"/><line class="cls-3" x1="97.07" y1="86.91" x2="65.14" y2="70.27"/><line class="cls-3" x1="92.62" y1="89.48" x2="65.07" y2="75.26"/><line class="cls-1" x1="88.54" y1="91.83" x2="64.91" y2="79.49"/><line class="cls-3" x1="83.33" y1="94.84" x2="64.95" y2="84.79"/><line class="cls-3" x1="79.11" y1="97.28" x2="65.25" y2="89.81"/><line class="cls-3" x1="75.1" y1="99.6" x2="65.07" y2="94.51"/><line class="cls-3" x1="70.58" y1="102.2" x2="65.14" y2="99.26"/><line class="cls-3" x1="70.58" y1="33.65" x2="70.58" y2="102.2"/><line class="cls-3" x1="75.1" y1="36.29" x2="75.1" y2="99.6"/><line class="cls-3" x1="79.11" y1="38.64" x2="79.11" y2="97.28"/><line class="cls-3" x1="83.33" y1="41.11" x2="83.33" y2="94.84"/><line class="cls-1" x1="87.86" y1="43.76" x2="88.54" y2="91.83"/><line class="cls-1" x1="112.69" y1="58.08" x2="112.69" y2="77.89"/><line class="cls-1" x1="112.69" y1="77.89" x2="65.25" y2="52.31"/><line class="cls-3" x1="100.9" y1="84.7" x2="65.08" y2="65.97"/><line class="cls-3" x1="92.2" y1="46.3" x2="92.62" y2="89.48"/><line class="cls-3" x1="97.07" y1="49.15" x2="97.07" y2="86.91"/><line class="cls-3" x1="100.9" y1="51.39" x2="100.9" y2="84.7"/><line class="cls-3" x1="105.04" y1="53.82" x2="105.04" y2="82.41"/><line class="cls-3" x1="108.76" y1="56.35" x2="108.76" y2="80.16"/><line class="cls-3" x1="116.48" y1="60.24" x2="116.48" y2="75.7"/><line class="cls-3" x1="119.84" y1="62.51" x2="119.84" y2="73.76"/><line class="cls-3" x1="123.35" y1="64.49" x2="123.35" y2="71.74"/><line class="cls-3" x1="126.75" y1="66.8" x2="126.75" y2="69.82"/><polygon class="cls-6" points="64.7 105.33 129.55 67.89 129.55 70.94 64.7 108.38 64.7 105.33"/><polygon class="cls-9" points="10 69.74 6.5 71.73 10 73.75 10 69.74"/><polygon class="cls-11" points="17.12 73.65 13.52 75.6 17.03 77.63 17.12 73.65"/><polygon class="cls-10" points="13.38 71.85 9.85 73.8 13.36 75.82 13.38 71.85"/><polygon class="cls-7" points="59.26 59.89 54.74 62.16 54.74 66.52 59.26 64.2 59.26 59.89"/><polygon class="cls-7" points="59.26 42.27 54.74 44.79 54.74 48.88 59.26 46.42 59.26 42.27"/><polygon class="cls-12" points="59.26 46.41 54.74 48.88 54.74 53.3 59.26 50.88 59.26 46.41"/><polygon class="cls-11" points="59.26 37.91 54.74 40.45 54.74 44.79 59.26 42.3 59.26 37.91"/><polygon class="cls-11" points="50.73 38.26 46.51 40.82 46.51 45.16 50.73 42.77 50.73 38.26"/><polygon class="cls-7" points="59.26 50.85 54.74 53.3 54.74 57.55 59.26 55.09 59.26 50.85"/><polygon class="cls-14" points="59.26 55.22 54.74 57.71 54.74 62.31 59.26 59.86 59.26 55.22"/><polygon class="cls-7" points="46.51 45.16 42 47.72 41.93 51.9 46.51 49.46 46.51 45.16"/><polygon class="cls-13" points="46.51 40.9 42 43.46 41.93 47.64 46.51 45.2 46.51 40.9"/><polygon class="cls-13" points="59.29 33.63 54.78 36.19 54.71 40.57 59.29 37.93 59.29 33.63"/><polygon class="cls-12" points="46.51 49.39 41.79 52.03 42 55.98 46.51 53.53 46.51 49.39"/><polygon class="cls-11" points="46.51 53.51 41.72 56.13 41.79 60.28 46.51 57.74 46.51 53.51"/><polygon class="cls-7" points="46.44 57.79 41.79 60.28 41.72 64.7 46.51 62.11 46.44 57.79"/><polygon class="cls-14" points="46.51 62.11 41.72 64.7 41.65 69.3 46.52 66.65 46.51 62.11"/><polygon class="cls-14" points="54.74 40.45 50.73 42.77 50.73 47.04 54.74 44.78 54.74 40.45"/><polygon class="cls-14" points="54.74 44.79 50.73 47.04 50.73 51.17 54.74 48.87 54.74 44.79"/><polygon class="cls-7" points="54.74 48.88 50.73 51.17 50.73 55.54 54.74 53.33 54.74 48.88"/><polygon class="cls-11" points="54.74 53.3 50.73 55.54 50.73 59.81 54.74 57.71 54.74 53.3"/><polygon class="cls-14" points="54.74 57.71 50.73 59.81 50.73 64.42 54.74 62.31 54.74 57.71"/><polygon class="cls-7" points="50.73 42.77 46.51 45.16 46.51 49.46 50.73 47.05 50.73 42.77"/><polygon class="cls-7" points="54.74 36.28 50.73 38.48 50.73 42.77 54.74 40.45 54.74 36.28"/><polygon class="cls-14" points="50.73 47.04 46.51 49.46 46.51 53.53 50.73 51.18 50.73 47.04"/><polygon class="cls-14" points="50.73 51.17 46.51 53.53 46.51 57.74 50.73 55.38 50.73 51.17"/><polygon class="cls-7" points="50.73 55.4 46.51 57.74 46.51 62.11 50.73 59.72 50.73 55.4"/><polygon class="cls-12" points="50.73 59.81 46.51 62.17 46.52 66.65 50.73 64.42 50.73 59.81"/><polygon class="cls-7" points="64.55 34.93 59.26 37.91 59.26 42.27 64.55 39.32 64.55 34.93"/><polygon class="cls-12" points="64.7 39.24 59.26 42.27 59.26 46.42 64.77 43.46 64.7 39.24"/><polygon class="cls-11" points="64.45 43.56 59.26 46.41 59.26 50.88 64.55 48.03 64.45 43.56"/><polygon class="cls-14" points="64.7 47.91 59.26 50.85 59.26 55.09 64.54 52.33 64.7 47.91"/><polygon class="cls-12" points="64.49 52.35 59.26 55.22 59.26 59.89 64.52 57.11 64.49 52.35"/><polygon class="cls-7" points="41.79 47.87 37.59 50.23 37.59 54.4 41.79 52.03 41.79 47.87"/><polygon class="cls-12" points="41.79 52.03 37.59 54.4 37.52 58.49 41.72 56.13 41.79 52.03"/><polygon class="cls-11" points="41.76 56.14 37.52 58.49 37.48 62.6 41.79 60.28 41.76 56.14"/><polygon class="cls-14" points="41.72 60.34 37.48 62.63 37.43 66.92 41.65 64.67 41.72 60.34"/><polygon class="cls-14" points="41.83 43.59 37.6 45.89 37.55 50.18 41.76 47.92 41.83 43.59"/><polygon class="cls-7" points="37.59 50.33 32.78 52.86 32.78 57.06 37.59 54.41 37.59 50.33"/><polygon class="cls-10" points="37.59 54.4 32.85 57.02 32.78 61.12 37.52 58.51 37.59 54.4"/><polygon class="cls-10" points="32.78 61.12 28.91 63.27 28.91 67.27 32.78 65.22 32.78 61.12"/><polygon class="cls-11" points="32.78 65.18 28.91 67.27 28.94 71.59 32.78 69.47 32.78 65.18"/><polygon class="cls-12" points="37.52 58.49 32.78 61.12 32.78 65.18 37.48 62.67 37.52 58.49"/><polygon class="cls-15" points="37.48 62.63 32.78 65.18 32.78 69.47 37.43 66.96 37.48 62.63"/><polygon class="cls-7" points="28.92 55.12 24.8 57.44 24.8 61.51 28.92 59.14 28.92 55.12"/><polygon class="cls-7" points="24.89 53.47 20.97 55.57 20.97 59.65 24.89 57.49 24.89 53.47"/><polygon class="cls-7" points="32.78 57.06 28.94 59.2 28.91 63.27 32.78 61.09 32.78 57.06"/><polygon class="cls-10" points="28.94 59.2 24.8 61.58 24.8 65.47 28.94 63.23 28.94 59.2"/><polygon class="cls-12" points="28.91 63.27 24.8 65.47 24.79 69.5 28.94 67.21 28.91 63.27"/><polygon class="cls-8" points="28.91 67.27 24.79 69.5 24.82 73.65 28.94 71.59 28.91 67.27"/><polygon class="cls-16" points="32.82 52.99 28.92 55.23 28.94 59.2 32.78 57.11 32.82 52.99"/><polygon class="cls-16" points="37.63 46.11 32.78 48.87 32.8 52.83 37.59 50.23 37.63 46.11"/><polygon class="cls-10" points="21.08 59.6 17.15 61.74 17.15 65.87 21.08 63.64 21.08 59.6"/><polygon class="cls-10" points="32.83 48.89 28.9 51.03 28.9 55.16 32.83 52.93 32.83 48.89"/><polygon class="cls-12" points="21.08 63.58 17.15 65.87 17.15 69.69 21.08 67.59 21.08 63.58"/><polygon class="cls-11" points="21.08 67.61 17.15 69.69 17.12 73.65 21.08 71.56 21.08 67.61"/><polygon class="cls-14" points="21.06 71.54 17.12 73.65 17.15 77.8 21.09 75.89 21.06 71.54"/><polygon class="cls-12" points="10 62.74 6.5 64.96 6.5 67.94 10 65.82 10 62.74"/><polygon class="cls-10" points="13.4 60.88 9.97 62.98 9.97 65.96 13.4 63.96 13.4 60.88"/><polygon class="cls-12" points="6.5 64.78 3.09 66.64 2.99 69.9 6.5 67.86 6.5 64.78"/><polygon class="cls-11" points="24.8 57.49 21.08 59.66 21.08 63.64 24.8 61.51 24.8 57.49"/><polygon class="cls-11" points="28.91 51.34 24.79 53.5 24.79 57.48 28.91 55.36 28.91 51.34"/><polygon class="cls-10" points="24.8 61.51 21.08 63.64 21.08 67.59 24.8 65.6 24.8 61.51"/><polygon class="cls-10" points="21.02 55.72 17.12 57.85 17.12 61.8 21.08 59.6 21.02 55.72"/><polygon class="cls-12" points="24.8 65.47 21.11 67.53 21.08 71.56 24.8 69.45 24.8 65.47"/><polygon class="cls-8" points="24.79 69.5 21.06 71.54 21.08 75.69 24.82 73.65 24.79 69.5"/><polygon class="cls-11" points="17.12 58.59 13.4 60.55 13.4 63.96 17.15 61.74 17.12 58.59"/><polygon class="cls-10" points="17.15 61.74 13.43 64.01 13.36 67.9 17.12 65.78 17.15 61.74"/><polygon class="cls-10" points="13.36 67.9 10.02 69.78 10 73.75 13.38 71.85 13.36 67.9"/><polygon class="cls-10" points="6.5 67.94 3.09 69.81 6.45 71.88 6.5 67.94"/><polygon class="cls-11" points="3.09 66.87 .29 68.14 3.09 69.81 3.09 66.87"/><polygon class="cls-12" points="17.12 65.78 13.38 67.88 13.38 71.85 17.08 69.8 17.12 65.78"/><polygon class="cls-7" points="10 65.82 6.5 67.86 6.5 71.73 10 69.74 10 65.82"/><polygon class="cls-12" points="13.4 63.96 10 65.86 10 69.74 13.36 67.9 13.4 63.96"/><polygon class="cls-8" points="17.08 69.8 13.38 71.91 13.36 75.69 17.12 73.65 17.08 69.8"/><polygon class="cls-14" points="64.77 56.96 59.32 59.93 59.26 64.2 64.66 61.31 64.77 56.96"/><polygon class="cls-7" points="64.48 61.4 59.26 64.19 59.26 68.86 64.57 66.06 64.48 61.4"/><polygon class="cls-12" points="64.76 65.96 59.26 68.83 59.27 73.12 64.77 70.13 64.76 65.96"/><polygon class="cls-11" points="64.5 70.36 59.27 73.12 59.3 78.11 64.54 75.36 64.5 70.36"/><polygon class="cls-7" points="64.76 89.69 59.3 92.64 59.31 97.27 64.77 94.5 64.76 89.69"/><polygon class="cls-12" points="64.77 94.5 59.31 97.27 59.26 102.19 64.7 99.25 64.77 94.5"/><polygon class="cls-11" points="64.7 99.25 59.26 102.19 64.77 105.37 64.7 99.25"/><polygon class="cls-14" points="64.63 75.32 59.3 78.11 59.23 82.41 64.54 79.7 64.63 75.32"/><polygon class="cls-14" points="64.7 79.39 59.23 82.41 59.2 87.89 64.81 84.67 64.7 79.39"/><polygon class="cls-14" points="50.63 86.9 46.51 89.1 46.51 94.83 50.79 92.49 50.63 86.9"/><polygon class="cls-14" points="54.75 95.12 50.73 97.26 54.74 99.58 54.75 95.12"/><polygon class="cls-14" points="59.31 97.27 54.84 99.59 59.19 102.1 59.31 97.27"/><polygon class="cls-15" points="50.79 92.49 46.77 94.84 50.78 97.16 50.79 92.49"/><polygon class="cls-12" points="64.81 84.67 59.2 87.89 59.34 92.7 64.76 89.69 64.81 84.67"/><polygon class="cls-14" points="59.2 87.89 54.78 90.29 54.75 95.12 59.34 92.7 59.2 87.89"/><polygon class="cls-12" points="59.34 92.7 54.77 95.12 54.74 99.58 59.33 97.16 59.34 92.7"/><polygon class="cls-11" points="59.26 64.24 54.74 66.52 54.74 71.11 59.26 68.86 59.26 64.24"/><polygon class="cls-7" points="59.26 68.83 54.74 71.11 54.74 75.44 59.26 73.1 59.26 68.83"/><polygon class="cls-7" points="59.3 78.11 54.73 80.43 54.75 84.67 59.27 82.48 59.3 78.11"/><polygon class="cls-7" points="59.3 82.42 54.77 84.81 54.73 90.33 59.2 87.89 59.3 82.42"/><polygon class="cls-7" points="54.73 90.33 50.79 92.49 50.73 97.26 54.75 95.12 54.73 90.33"/><polygon class="cls-7" points="46.52 66.65 41.65 69.3 41.63 73.57 46.51 70.92 46.52 66.65"/><polygon class="cls-12" points="46.51 70.83 41.63 73.57 41.49 78.12 46.51 75.51 46.51 70.83"/><polygon class="cls-11" points="46.51 75.5 41.49 78.12 41.49 82.27 46.51 79.74 46.51 75.5"/><polygon class="cls-9" points="46.51 79.74 41.43 82.35 41.42 87.29 46.51 84.67 46.51 79.74"/><polygon class="cls-9" points="46.51 89.1 41.53 91.95 46.51 94.96 46.51 89.1"/><polygon class="cls-9" points="41.25 87.4 37.22 89.46 41.25 91.89 41.25 87.4"/><polygon class="cls-14" points="50.73 82.49 46.51 84.67 46.51 89.1 50.73 86.98 50.73 82.49"/><polygon class="cls-14" points="54.74 62.29 50.73 64.36 50.73 68.75 54.74 66.62 54.74 62.29"/><polygon class="cls-14" points="54.74 66.59 50.73 68.75 50.73 73.29 54.74 71.11 54.74 66.59"/><polygon class="cls-7" points="54.74 71.19 50.73 73.29 50.73 77.54 54.74 75.44 54.74 71.19"/><polygon class="cls-11" points="54.74 75.44 50.73 77.54 50.73 82.49 54.74 80.5 54.74 75.44"/><polygon class="cls-14" points="54.73 80.43 50.73 82.49 50.73 86.98 54.8 84.84 54.73 80.43"/><polygon class="cls-14" points="59.27 73.12 54.74 75.44 54.73 80.43 59.27 78.13 59.27 73.12"/><polygon class="cls-15" points="46.51 84.67 41.25 87.4 41.25 91.76 46.51 89.1 46.51 84.67"/><polygon class="cls-7" points="50.73 64.42 46.51 66.62 46.51 70.92 50.73 68.75 50.73 64.42"/><polygon class="cls-14" points="50.73 68.75 46.51 70.89 46.51 75.51 50.73 73.29 50.73 68.75"/><polygon class="cls-14" points="50.73 73.37 46.51 75.51 46.51 79.74 50.73 77.54 50.73 73.37"/><polygon class="cls-7" points="50.73 77.57 46.51 79.74 46.51 84.67 50.73 82.49 50.73 77.57"/><polygon class="cls-12" points="54.67 84.84 50.63 86.9 50.79 92.49 54.73 90.33 54.67 84.84"/><polygon class="cls-7" points="41.49 78.12 37.31 80.36 37.19 84.54 41.43 82.36 41.49 78.12"/><polygon class="cls-12" points="41.43 82.5 37.19 84.54 37.22 89.46 41.25 87.4 41.43 82.5"/><polygon class="cls-11" points="37.19 84.54 32.78 86.9 37.22 89.46 37.19 84.54"/><polygon class="cls-14" points="41.65 64.67 37.43 66.94 37.43 71.51 41.62 69.19 41.65 64.67"/><polygon class="cls-14" points="24.75 73.75 21.08 75.69 21.08 80.16 24.8 78.17 24.75 73.75"/><polygon class="cls-14" points="28.94 80.33 24.92 82.43 28.93 84.75 28.94 80.33"/><polygon class="cls-15" points="24.8 78.17 21.08 80.15 24.8 82.19 24.8 78.17"/><polygon class="cls-12" points="41.62 69.19 37.43 71.51 37.35 75.89 41.63 73.57 41.62 69.19"/><polygon class="cls-7" points="32.79 82.66 28.93 84.75 32.78 86.9 32.79 82.66"/><polygon class="cls-14" points="32.78 73.93 28.94 75.98 28.94 80.33 32.78 78.28 32.78 73.93"/><polygon class="cls-15" points="32.78 69.45 28.94 71.63 28.93 75.98 32.78 73.93 32.78 69.45"/><polygon class="cls-15" points="32.78 78.28 28.94 80.4 28.93 84.75 32.78 82.7 32.78 78.28"/><polygon class="cls-14" points="41.53 73.65 37.41 75.91 37.31 80.36 41.49 78.12 41.53 73.65"/><polygon class="cls-10" points="37.31 80.36 32.79 82.66 32.78 86.9 37.19 84.54 37.31 80.36"/><polygon class="cls-7" points="37.43 66.94 32.76 69.56 32.78 73.93 37.43 71.51 37.43 66.94"/><polygon class="cls-12" points="37.43 71.51 32.75 73.97 32.78 78.28 37.35 75.89 37.43 71.51"/><polygon class="cls-7" points="37.35 75.89 32.76 78.32 32.79 82.66 37.2 80.45 37.35 75.89"/><polygon class="cls-7" points="28.93 75.98 24.8 78.18 24.92 82.43 28.94 80.38 28.93 75.98"/><polygon class="cls-9" points="21.08 75.69 17.15 77.8 21.08 80.15 21.08 75.69"/><polygon class="cls-12" points="28.92 71.52 24.75 73.75 24.8 78.22 28.93 75.98 28.92 71.52"/><polyline class="cls-17" points="64.74 30.97 64.74 30.97 64.89 105.7 .04 68.26 64.81 31.02 64.81 31.02"/><line class="cls-3" x1="3.09" y1="69.81" x2="64.82" y2="34.77"/><line class="cls-3" x1="6.5" y1="71.73" x2="64.7" y2="39.24"/><line class="cls-3" x1="10" y1="73.75" x2="64.7" y2="43.42"/><line class="cls-3" x1="13.36" y1="75.69" x2="64.7" y2="47.91"/><line class="cls-3" x1="21.08" y1="80.15" x2="64.77" y2="56.96"/><line class="cls-3" x1="25.06" y1="82.4" x2="64.66" y2="61.31"/><line class="cls-3" x1="32.78" y1="86.9" x2="64.7" y2="70.25"/><line class="cls-3" x1="37.22" y1="89.46" x2="64.77" y2="75.25"/><line class="cls-1" x1="41.3" y1="91.82" x2="64.94" y2="79.48"/><line class="cls-3" x1="46.51" y1="94.83" x2="64.89" y2="84.77"/><line class="cls-3" x1="50.73" y1="97.26" x2="64.59" y2="89.8"/><line class="cls-3" x1="54.74" y1="99.58" x2="64.77" y2="94.5"/><line class="cls-3" x1="59.26" y1="102.19" x2="64.7" y2="99.25"/><line class="cls-3" x1="59.26" y1="33.63" x2="59.26" y2="102.19"/><line class="cls-3" x1="54.74" y1="36.28" x2="54.74" y2="99.58"/><line class="cls-3" x1="50.73" y1="38.63" x2="50.73" y2="97.26"/><line class="cls-3" x1="46.51" y1="41.09" x2="46.51" y2="94.83"/><line class="cls-1" x1="41.99" y1="43.74" x2="41.3" y2="91.82"/><line class="cls-1" x1="17.15" y1="58.07" x2="17.15" y2="77.88"/><line class="cls-1" x1="17.15" y1="77.88" x2="64.59" y2="52.29"/><line class="cls-3" x1="28.94" y1="84.68" x2="64.76" y2="65.96"/><line class="cls-2" x1="64.7" y1="30.45" x2="129.55" y2="67.89"/><polyline class="cls-4" points="64.7 105.33 64.7 44.28 64.7 30.45"/><line class="cls-2" x1="64.7" y1="30.45" x2=".29" y2="68.14"/><line class="cls-3" x1="37.64" y1="46.28" x2="37.22" y2="89.46"/><line class="cls-3" x1="32.78" y1="49.13" x2="32.78" y2="86.9"/><line class="cls-3" x1="28.94" y1="51.38" x2="28.94" y2="84.68"/><line class="cls-3" x1="24.8" y1="53.8" x2="24.8" y2="82.4"/><line class="cls-3" x1="21.08" y1="56.34" x2="21.08" y2="80.15"/><line class="cls-3" x1="13.36" y1="60.23" x2="13.36" y2="75.69"/><line class="cls-3" x1="10" y1="62.5" x2="10" y2="73.75"/><line class="cls-3" x1="6.5" y1="64.48" x2="6.5" y2="71.73"/><line class="cls-3" x1="3.09" y1="66.78" x2="3.09" y2="69.81"/><polygon class="cls-5" points="64.7 105.33 -.14 67.89 -.14 70.94 64.7 108.38 64.7 105.33"/></svg>