<svg width="32" height="32" viewBox="0 0 32 32" fill="none" xmlns="http://www.w3.org/2000/svg">
<path d="M16.5 5.75V1.25C16.5 0.835786 16.1642 0.5 15.75 0.5C15.3358 0.5 15 0.835786 15 1.25V5.75C15 6.16421 15.3358 6.5 15.75 6.5C16.1642 6.5 16.5 6.16421 16.5 5.75Z" fill="white"/>
<path d="M25.765 9.5H16.235C13.895 9.5 12 11.625 12 14.25C12 16.875 13.895 19 16.235 19H25.765C28.105 19 30 16.875 30 14.25C30 11.625 28.105 9.5 25.765 9.5ZM25.765 16.625H16.235C15.6402 16.5889 15.0839 16.3188 14.6876 15.8738C14.2913 15.4288 14.0872 14.845 14.12 14.25C14.0872 13.655 14.2913 13.0712 14.6876 12.6262C15.0839 12.1812 15.6402 11.9111 16.235 11.875H25.765C26.3598 11.9111 26.9162 12.1812 27.3125 12.6262C27.7088 13.0712 27.9128 13.655 27.88 14.25C27.9128 14.845 27.7088 15.4288 27.3125 15.8738C26.9162 16.3188 26.3598 16.5889 25.765 16.625V16.625Z" fill="white"/>
<path d="M12.8736 6.56119L9.69167 3.37921C9.39878 3.08631 8.9239 3.08631 8.63101 3.37921C8.33812 3.6721 8.33812 4.14697 8.63101 4.43987L11.813 7.62185C12.1059 7.91474 12.5808 7.91474 12.8736 7.62185C13.1665 7.32895 13.1665 6.85408 12.8736 6.56119Z" fill="white"/>
<path d="M19.1914 7.62125L22.3733 4.43927C22.6662 4.14637 22.6662 3.6715 22.3733 3.37861C22.0804 3.08571 21.6056 3.08571 21.3127 3.37861L18.1307 6.56059C17.8378 6.85348 17.8378 7.32835 18.1307 7.62125C18.4236 7.91414 18.8985 7.91414 19.1914 7.62125Z" fill="white"/>
<path d="M15 26.25V30.75C15 31.1642 15.3358 31.5 15.75 31.5C16.1642 31.5 16.5 31.1642 16.5 30.75V26.25C16.5 25.8358 16.1642 25.5 15.75 25.5C15.3358 25.5 15 25.8358 15 26.25Z" fill="white"/>
<path d="M18.6296 25.4386L21.8115 28.6205C22.1044 28.9134 22.5793 28.9134 22.8722 28.6205C23.1651 28.3277 23.1651 27.8528 22.8722 27.5599L19.6902 24.3779C19.3973 24.085 18.9225 24.085 18.6296 24.3779C18.3367 24.6708 18.3367 25.1457 18.6296 25.4386Z" fill="white"/>
<path d="M12.309 24.377L9.12698 27.559C8.83409 27.8519 8.83409 28.3268 9.12698 28.6197C9.41987 28.9126 9.89475 28.9126 10.1876 28.6197L13.3696 25.4377C13.6625 25.1448 13.6625 24.6699 13.3696 24.377C13.0767 24.0842 12.6019 24.0842 12.309 24.377Z" fill="white"/>
<path d="M16.595 13.2451H7.06502C4.72502 13.2451 2.83002 15.3701 2.83002 17.9951C2.83002 20.6201 4.72502 22.7451 7.06502 22.7451H16.595C18.935 22.7451 20.83 20.6151 20.83 17.9951C20.83 15.3751 18.935 13.2451 16.595 13.2451ZM16.595 20.3701H7.06502C6.47112 20.334 5.91556 20.0646 5.5194 19.6207C5.12324 19.1768 4.91858 18.5943 4.95002 18.0001C4.91721 17.4051 5.12126 16.8213 5.51756 16.3763C5.91386 15.9313 6.47021 15.6612 7.06502 15.6251H16.595C17.1907 15.6599 17.7483 15.9295 18.1457 16.3746C18.5431 16.8198 18.7478 17.4043 18.715 18.0001C18.7451 18.5948 18.5393 19.1773 18.1423 19.621C17.7454 20.0648 17.1893 20.334 16.595 20.3701V20.3701Z" fill="white"/>
<g style="mix-blend-mode:multiply">
<path d="M16.5 5.75V1.25C16.5 0.835786 16.1642 0.5 15.75 0.5C15.3358 0.5 15 0.835786 15 1.25V5.75C15 6.16421 15.3358 6.5 15.75 6.5C16.1642 6.5 16.5 6.16421 16.5 5.75Z" fill="#B7CDE1"/>
</g>
<g style="mix-blend-mode:multiply">
<path d="M25.765 9.5H16.235C13.895 9.5 12 11.625 12 14.25C12 16.875 13.895 19 16.235 19H25.765C28.105 19 30 16.875 30 14.25C30 11.625 28.105 9.5 25.765 9.5ZM25.765 16.625H16.235C15.6402 16.5889 15.0839 16.3188 14.6876 15.8738C14.2913 15.4288 14.0872 14.845 14.12 14.25C14.0872 13.655 14.2913 13.0712 14.6876 12.6262C15.0839 12.1812 15.6402 11.9111 16.235 11.875H25.765C26.3598 11.9111 26.9162 12.1812 27.3125 12.6262C27.7088 13.0712 27.9128 13.655 27.88 14.25C27.9128 14.845 27.7088 15.4288 27.3125 15.8738C26.9162 16.3188 26.3598 16.5889 25.765 16.625V16.625Z" fill="#FEB452"/>
</g>
<g style="mix-blend-mode:multiply">
<path d="M12.8736 6.56119L9.69167 3.37921C9.39878 3.08631 8.9239 3.08631 8.63101 3.37921C8.33812 3.6721 8.33812 4.14697 8.63101 4.43987L11.813 7.62185C12.1059 7.91474 12.5808 7.91474 12.8736 7.62185C13.1665 7.32895 13.1665 6.85408 12.8736 6.56119Z" fill="#B7CDE1"/>
</g>
<g style="mix-blend-mode:multiply">
<path d="M19.1914 7.62125L22.3733 4.43927C22.6662 4.14637 22.6662 3.6715 22.3733 3.37861C22.0804 3.08571 21.6056 3.08571 21.3127 3.37861L18.1307 6.56059C17.8378 6.85348 17.8378 7.32835 18.1307 7.62125C18.4236 7.91414 18.8985 7.91414 19.1914 7.62125Z" fill="#B7CDE1"/>
</g>
<g style="mix-blend-mode:multiply">
<path d="M15 26.25V30.75C15 31.1642 15.3358 31.5 15.75 31.5C16.1642 31.5 16.5 31.1642 16.5 30.75V26.25C16.5 25.8358 16.1642 25.5 15.75 25.5C15.3358 25.5 15 25.8358 15 26.25Z" fill="#B7CDE1"/>
</g>
<g style="mix-blend-mode:multiply">
<path d="M18.6296 25.4386L21.8115 28.6205C22.1044 28.9134 22.5793 28.9134 22.8722 28.6205C23.1651 28.3277 23.1651 27.8528 22.8722 27.5599L19.6902 24.3779C19.3973 24.085 18.9225 24.085 18.6296 24.3779C18.3367 24.6708 18.3367 25.1457 18.6296 25.4386Z" fill="#B7CDE1"/>
</g>
<g style="mix-blend-mode:multiply">
<path d="M12.309 24.377L9.12698 27.559C8.83409 27.8519 8.83409 28.3268 9.12698 28.6197C9.41987 28.9126 9.89475 28.9126 10.1876 28.6197L13.3696 25.4377C13.6625 25.1448 13.6625 24.6699 13.3696 24.377C13.0767 24.0842 12.6019 24.0842 12.309 24.377Z" fill="#B7CDE1"/>
</g>
<g style="mix-blend-mode:multiply">
<path d="M16.595 13.2451H7.06502C4.72502 13.2451 2.83002 15.3701 2.83002 17.9951C2.83002 20.6201 4.72502 22.7451 7.06502 22.7451H16.595C18.935 22.7451 20.83 20.6151 20.83 17.9951C20.83 15.3751 18.935 13.2451 16.595 13.2451ZM16.595 20.3701H7.06502C6.47112 20.334 5.91556 20.0646 5.5194 19.6207C5.12324 19.1768 4.91858 18.5943 4.95002 18.0001C4.91721 17.4051 5.12126 16.8213 5.51756 16.3763C5.91386 15.9313 6.47021 15.6612 7.06502 15.6251H16.595C17.1907 15.6599 17.7483 15.9295 18.1457 16.3746C18.5431 16.8198 18.7478 17.4043 18.715 18.0001C18.7451 18.5948 18.5393 19.1773 18.1423 19.621C17.7454 20.0648 17.1893 20.334 16.595 20.3701V20.3701Z" fill="#FEB452"/>
</g>
</svg>
