<svg width="48" height="48" viewBox="0 0 48 48" fill="none" xmlns="http://www.w3.org/2000/svg">
<path d="M24.75 8.625V1.875C24.75 1.25368 24.2463 0.75 23.625 0.75C23.0037 0.75 22.5 1.25368 22.5 1.875V8.625C22.5 9.24632 23.0037 9.75 23.625 9.75C24.2463 9.75 24.75 9.24632 24.75 8.625Z" fill="white"/>
<path d="M38.6475 14.25H24.3525C20.8425 14.25 18 17.4375 18 21.375C18 25.3125 20.8425 28.5 24.3525 28.5H38.6475C42.1575 28.5 45 25.3125 45 21.375C45 17.4375 42.1575 14.25 38.6475 14.25ZM38.6475 24.9375H24.3525C23.4603 24.8834 22.6258 24.4783 22.0313 23.8107C21.4369 23.1432 21.1308 22.2675 21.18 21.375C21.1308 20.4825 21.4369 19.6068 22.0313 18.9393C22.6258 18.2717 23.4603 17.8666 24.3525 17.8125H38.6475C39.5397 17.8666 40.3742 18.2717 40.9687 18.9393C41.5631 19.6068 41.8692 20.4825 41.82 21.375C41.8692 22.2675 41.5631 23.1432 40.9687 23.8107C40.3742 24.4783 39.5397 24.8834 38.6475 24.9375V24.9375Z" fill="white"/>
<path d="M19.3104 9.8419L14.5374 5.06893C14.0981 4.62959 13.3858 4.62959 12.9464 5.06893C12.5071 5.50827 12.5071 6.22058 12.9464 6.65992L17.7194 11.4329C18.1588 11.8722 18.8711 11.8722 19.3104 11.4329C19.7497 10.9936 19.7497 10.2812 19.3104 9.8419Z" fill="white"/>
<path d="M28.787 11.4317L33.56 6.65878C33.9993 6.21944 33.9993 5.50713 33.56 5.06779C33.1206 4.62845 32.4083 4.62845 31.969 5.06779L27.196 9.84076C26.7567 10.2801 26.7567 10.9924 27.196 11.4317C27.6354 11.8711 28.3477 11.8711 28.787 11.4317Z" fill="white"/>
<path d="M22.5 39.375V46.125C22.5 46.7463 23.0037 47.25 23.625 47.25C24.2463 47.25 24.75 46.7463 24.75 46.125V39.375C24.75 38.7537 24.2463 38.25 23.625 38.25C23.0037 38.25 22.5 38.7537 22.5 39.375Z" fill="white"/>
<path d="M27.9442 38.1581L32.7172 42.9311C33.1565 43.3704 33.8689 43.3704 34.3082 42.9311C34.7475 42.4917 34.7475 41.7794 34.3082 41.3401L29.5352 36.5671C29.0959 36.1278 28.3836 36.1278 27.9442 36.5671C27.5049 37.0064 27.5049 37.7188 27.9442 38.1581Z" fill="white"/>
<path d="M18.4635 36.5653L13.6905 41.3383C13.2512 41.7776 13.2512 42.4899 13.6905 42.9293C14.1299 43.3686 14.8422 43.3686 15.2815 42.9293L20.0545 38.1563C20.4938 37.717 20.4938 37.0047 20.0545 36.5653C19.6151 36.126 18.9028 36.126 18.4635 36.5653Z" fill="white"/>
<path d="M24.8926 19.8682H10.5976C7.08762 19.8682 4.24512 23.0557 4.24512 26.9932C4.24512 30.9307 7.08762 34.1182 10.5976 34.1182H24.8926C28.4026 34.1182 31.2451 30.9232 31.2451 26.9932C31.2451 23.0632 28.4026 19.8682 24.8926 19.8682ZM24.8926 30.5557H10.5976C9.70677 30.5015 8.87344 30.0975 8.27919 29.4316C7.68495 28.7657 7.37796 27.8919 7.42512 27.0007C7.37591 26.1082 7.68197 25.2325 8.27643 24.5649C8.87089 23.8974 9.7054 23.4923 10.5976 23.4382H24.8926C25.7862 23.4904 26.6226 23.8947 27.2186 24.5624C27.8147 25.2302 28.1218 26.1069 28.0726 27.0007C28.1177 27.8926 27.809 28.7664 27.2136 29.432C26.6182 30.0977 25.7841 30.5015 24.8926 30.5557V30.5557Z" fill="white"/>
<g style="mix-blend-mode:multiply">
<path d="M24.75 8.625V1.875C24.75 1.25368 24.2463 0.75 23.625 0.75C23.0037 0.75 22.5 1.25368 22.5 1.875V8.625C22.5 9.24632 23.0037 9.75 23.625 9.75C24.2463 9.75 24.75 9.24632 24.75 8.625Z" fill="#B7CDE1"/>
</g>
<g style="mix-blend-mode:multiply">
<path d="M38.6475 14.25H24.3525C20.8425 14.25 18 17.4375 18 21.375C18 25.3125 20.8425 28.5 24.3525 28.5H38.6475C42.1575 28.5 45 25.3125 45 21.375C45 17.4375 42.1575 14.25 38.6475 14.25ZM38.6475 24.9375H24.3525C23.4603 24.8834 22.6258 24.4783 22.0313 23.8107C21.4369 23.1432 21.1308 22.2675 21.18 21.375C21.1308 20.4825 21.4369 19.6068 22.0313 18.9393C22.6258 18.2717 23.4603 17.8666 24.3525 17.8125H38.6475C39.5397 17.8666 40.3742 18.2717 40.9687 18.9393C41.5631 19.6068 41.8692 20.4825 41.82 21.375C41.8692 22.2675 41.5631 23.1432 40.9687 23.8107C40.3742 24.4783 39.5397 24.8834 38.6475 24.9375V24.9375Z" fill="#FEB452"/>
</g>
<g style="mix-blend-mode:multiply">
<path d="M19.3104 9.8419L14.5374 5.06893C14.0981 4.62959 13.3858 4.62959 12.9464 5.06893C12.5071 5.50827 12.5071 6.22058 12.9464 6.65992L17.7194 11.4329C18.1588 11.8722 18.8711 11.8722 19.3104 11.4329C19.7497 10.9936 19.7497 10.2812 19.3104 9.8419Z" fill="#B7CDE1"/>
</g>
<g style="mix-blend-mode:multiply">
<path d="M28.787 11.4317L33.56 6.65878C33.9993 6.21944 33.9993 5.50713 33.56 5.06779C33.1206 4.62845 32.4083 4.62845 31.969 5.06779L27.196 9.84076C26.7567 10.2801 26.7567 10.9924 27.196 11.4317C27.6354 11.8711 28.3477 11.8711 28.787 11.4317Z" fill="#B7CDE1"/>
</g>
<g style="mix-blend-mode:multiply">
<path d="M22.5 39.375V46.125C22.5 46.7463 23.0037 47.25 23.625 47.25C24.2463 47.25 24.75 46.7463 24.75 46.125V39.375C24.75 38.7537 24.2463 38.25 23.625 38.25C23.0037 38.25 22.5 38.7537 22.5 39.375Z" fill="#B7CDE1"/>
</g>
<g style="mix-blend-mode:multiply">
<path d="M27.9442 38.1581L32.7172 42.9311C33.1565 43.3704 33.8689 43.3704 34.3082 42.9311C34.7475 42.4917 34.7475 41.7794 34.3082 41.3401L29.5352 36.5671C29.0959 36.1278 28.3836 36.1278 27.9442 36.5671C27.5049 37.0064 27.5049 37.7188 27.9442 38.1581Z" fill="#B7CDE1"/>
</g>
<g style="mix-blend-mode:multiply">
<path d="M18.4635 36.5653L13.6905 41.3383C13.2512 41.7776 13.2512 42.4899 13.6905 42.9293C14.1299 43.3686 14.8422 43.3686 15.2815 42.9293L20.0545 38.1563C20.4938 37.717 20.4938 37.0047 20.0545 36.5653C19.6151 36.126 18.9028 36.126 18.4635 36.5653Z" fill="#B7CDE1"/>
</g>
<g style="mix-blend-mode:multiply">
<path d="M24.8926 19.8672H10.5976C7.08762 19.8672 4.24512 23.0547 4.24512 26.9922C4.24512 30.9297 7.08762 34.1172 10.5976 34.1172H24.8926C28.4026 34.1172 31.2451 30.9222 31.2451 26.9922C31.2451 23.0622 28.4026 19.8672 24.8926 19.8672ZM24.8926 30.5547H10.5976C9.70677 30.5005 8.87344 30.0965 8.27919 29.4306C7.68495 28.7647 7.37796 27.8909 7.42512 26.9997C7.37591 26.1072 7.68197 25.2315 8.27643 24.564C8.87089 23.8964 9.7054 23.4913 10.5976 23.4372H24.8926C25.7862 23.4894 26.6226 23.8937 27.2186 24.5614C27.8147 25.2292 28.1218 26.106 28.0726 26.9997C28.1177 27.8917 27.809 28.7654 27.2136 29.4311C26.6182 30.0967 25.7841 30.5005 24.8926 30.5547V30.5547Z" fill="#FEB452"/>
</g>
</svg>
