<?xml version="1.0" encoding="utf-8"?>
<!-- Generator: Adobe Illustrator 27.4.0, SVG Export Plug-In . SVG Version: 6.00 Build 0)  -->
<svg version="1.1" id="Layer_1" xmlns="http://www.w3.org/2000/svg" xmlns:xlink="http://www.w3.org/1999/xlink" x="0px" y="0px"
	 viewBox="0 0 478.3 478.3" style="enable-background:new 0 0 478.3 478.3;" xml:space="preserve">
<style type="text/css">
	.st0{fill:#333333;}
	.st1{fill:#EFEFEF;}
</style>
<path class="st0" d="M30,0h418.3c16.6,0,30,13.4,30,30v418.3c0,16.6-13.4,30-30,30H30c-16.6,0-30-13.4-30-30V30C0,13.4,13.4,0,30,0z
	"/>
<path class="st1" d="M419.3,81c0-11.9-9.7-21.7-21.7-21.7l0,0h-77.2H80.5C68.6,59.3,58.8,69,58.8,81v34c0,11.9,9.7,21.7,21.7,21.7
	h87.3c5.9,0,10.7,4.7,10.7,10.7v183.4c0,5.9-4.7,10.7-10.7,10.7H147c-5.9,0-10.7-4.7-10.7-10.7V225.6c0-11.9-9.7-21.7-21.7-21.7
	H80.7c-11.9,0-21.7,9.7-21.7,21.7v171.5c0,11.9,9.7,21.7,21.7,21.7h40h15.7h118.2c11.9,0,21.7-9.7,21.7-21.7v-13.6h0.2V147.4
	c0-5.9,4.7-10.7,10.7-10.7H310c5.9,0,10.7,4.7,10.7,10.7v249.9c0,11.9,9.7,21.7,21.7,21.7h55.3c11.9,0,21.7-9.7,21.7-21.7V119.4
	c0,0,0,0,0-0.1c0.3-1.2,0.3-2.6,0.3-3.9V81H419.3z"/>
</svg>
