<?xml version="1.0" encoding="UTF-8"?><svg id="Layer_1" xmlns="http://www.w3.org/2000/svg" viewBox="0 0 547.66 473.63"><defs><style>.cls-1{stroke-dasharray:0 0 1.37 1.37;stroke-width:.34px;}.cls-1,.cls-2{stroke:#808285;}.cls-1,.cls-2,.cls-3,.cls-4,.cls-5,.cls-6{fill:none;stroke-miterlimit:10;}.cls-2{stroke-dasharray:0 0 1.37 1.37;stroke-width:.34px;}.cls-7{fill:#ec008c;}.cls-8{fill:#fff;}.cls-9{fill:#414042;}.cls-10{fill:#231f20;font-family:Matter-Regular, Matter;font-size:11.57px;}.cls-3{stroke-width:.16px;}.cls-3,.cls-4{stroke:#231f20;}.cls-4{stroke-width:.4px;}.cls-5{stroke:#e463a5;stroke-width:.58px;}.cls-11{opacity:.5;}.cls-12{opacity:.7;}.cls-6{stroke:#ec008c;stroke-linecap:round;stroke-width:1.84px;}</style></defs><line class="cls-1" x1=".2" y1="43.89" x2="542.33" y2="43.89"/><line class="cls-1" x1=".19" y1="60.78" x2="542.33" y2="60.78"/><line class="cls-1" x1=".19" y1="74.44" x2="542.33" y2="74.44"/><line class="cls-1" x1=".19" y1="90.01" x2="542.33" y2="90.01"/><line class="cls-1" x1=".19" y1="143.83" x2="542.33" y2="143.83"/><line class="cls-1" x1=".19" y1="156.75" x2="542.33" y2="156.75"/><line class="cls-1" x1=".19" y1="260.34" x2="542.33" y2="260.34"/><line class="cls-1" y1="305.72" x2="542.14" y2="305.72"/><line class="cls-1" y1="321.02" x2="542.14" y2="321.02"/><line class="cls-1" x1=".19" y1="334.73" x2="542.32" y2="334.73"/><line class="cls-1" x1=".19" y1="351.4" x2="542.33" y2="351.4"/><line class="cls-1" x1=".19" y1="386.52" x2="542.33" y2="386.52"/><line class="cls-1" x1=".19" y1="415.07" x2="542.32" y2="415.07"/><line class="cls-2" x1="337.89" y1="0" x2="337.89" y2="473.63"/><line class="cls-2" x1="204.77" y1="0" x2="204.77" y2="473.63"/><line class="cls-1" x1="161.67" y1="0" x2="161.67" y2="473.63"/><line class="cls-2" x1="192.99" x2="192.99" y2="473.63"/><line class="cls-2" x1="349.08" x2="349.08" y2="473.63"/><line class="cls-1" x1="145.85" y1="0" x2="145.85" y2="473.63"/><line class="cls-1" x1="131.86" y1="0" x2="131.86" y2="473.63"/><line class="cls-1" x1="114.8" y1="0" x2="114.8" y2="473.63"/><line class="cls-2" x1="380.46" y1="0" x2="380.46" y2="473.63"/><line class="cls-2" x1="395.89" y1="-.12" x2="395.89" y2="473.63"/><line class="cls-2" x1="410.45" y1="0" x2="410.45" y2="473.63"/><line class="cls-2" x1="427.28" y1="0" x2="427.28" y2="473.63"/><line class="cls-5" x1="271.02" y1="43.89" x2="537.54" y2="44.14"/><line class="cls-5" x1="271.02" y1="351.4" x2="547.44" y2="351.4"/><line class="cls-5" x1="406.01" y1="386.52" x2="547.66" y2="386.52"/><line class="cls-5" x1="501.99" y1="32.74" x2="501.99" y2="394.49"/><text class="cls-10" transform="translate(510.42 206.68) scale(1.03 1)"><tspan x="0" y="0">x</tspan></text><text class="cls-10" transform="translate(510.42 372.3) scale(1.03 1)"><tspan x="0" y="0">0.1x</tspan></text><path class="cls-9" d="m421.6,390.51c-.92,0-1.83.02-2.75-.03-.61-.03-.82.16-.81.79.03,2.39.01,4.79.01,7.19,0,5.31,0,10.61,0,15.92q0,1.05-1.01,1.05c-1.08,0-2.16-.04-3.24.02-.68.04-.82-.21-.82-.84.02-7.7.01-15.4.01-23.11q0-1.01-.99-1.01c-1.61,0-3.23,0-4.92,0,0,1.35.05,2.61-.01,3.87-.07,1.38-.08,2.79-.39,4.11-.74,3.14-2.87,4.91-6.08,5.29-.81.1-1.63.14-2.51.22-.05,1.8-.22,3.58.58,5.26.72,1.51,2.63,2.4,4.29,1.88,1.07-.33,2.06-.91,3.19-1.43.69.98,1.51,2.11,2.27,3.29.08.12-.17.58-.38.74-2.51,1.96-5.33,2.66-8.47,1.95-3.35-.76-5.87-3.28-6.24-6.79-.32-3.05-.23-6.13-.33-9.2-.01-.45.24-.47.58-.48,1.6-.02,3.2.03,4.78-.11,2.3-.19,3.29-1.07,3.53-3.35.18-1.71.04-3.45.04-5.27-.26,0-.51,0-.76,0-4.48,0-8.97.02-13.45,0-.67,0-.81.21-.81.84.02,7.73.01,15.45.01,23.18q0,.92-.9.92c-1.15,0-2.3-.03-3.45.01-.57.02-.72-.16-.72-.71.02-3.87,0-7.75.03-11.62,0-.65-.17-.84-.82-.83-2.02.04-4.04.03-6.06,0-.53,0-.68.16-.67.69.04,1.97-.2,3.88-1.41,5.55-1.66,2.31-4.05,3.03-6.68,2.8-2.82-.24-4.99-1.69-5.97-4.45-1.32-3.71.61-7.78,5.14-8.83,1.01-.23,2.1-.12,3.16-.12.53,0,.76-.14.75-.71-.03-2.02-.02-4.04,0-6.06,0-.41-.07-.65-.57-.65-4.53.01-9.06,0-13.6.01-.09,0-.18.03-.31.05-.01.24-.04.47-.04.7,0,7.77,0,15.55-.01,23.32,0,.53.17.73.64.97,1.01.53,2.06,1.07,2.9,1.82,3.08,2.72,6.08,5.53,9.1,8.31.08.08.15.17.29.33-.95,1-1.89,2-2.89,3.06-.26-.22-.49-.41-.71-.61-2.91-2.63-5.81-5.27-8.72-7.89-1.09-.98-2.33-1.5-3.81-1.06-1.6.48-2.41,2.21-1.85,3.86.53,1.55,2.22,2.33,3.77,1.74.15-.06.3-.12.51-.2.4.52.79,1.04,1.18,1.56.38.5.76,1,1.16,1.53-1.24,1.14-2.71,1.46-4.26,1.44-3.15-.03-5.72-1.75-6.73-4.44-1.11-2.95-.35-6.27,1.97-8.31.59-.52,1.35-.82,2.02-1.25.17-.11.39-.31.39-.47.03-1.73.02-3.46.02-5.31-1.37,1.07-2.81,1.75-4.41,2.05-4.18.77-9.47-.55-12.05-4.46-1.14-1.73-1.57-3.65-1.51-5.68.02-.67-.22-1.06-.77-1.42-2.25-1.47-5.1-1.13-6.49.84-.59.83-.85,1.76-.85,2.78,0,3.62,0,7.23,0,10.85v.79h-5.04v-9.23c-1.14.87-2.3,1.3-3.58,1.44-4.33.44-8.59-1.78-9.65-6.78-.22-1.02-.28-2.09-.3-3.14-.05-2.11-.01-4.23-.01-6.34,0-.25,0-.5,0-.8h-5.36c0,.32.01.61,0,.91-.09,2.2,0,4.43-.32,6.59-.51,3.35-2.78,5.32-6.13,5.72-.83.1-1.67.15-2.56.23.02,1.59-.15,3.14.37,4.65.68,1.96,2.59,3.07,4.57,2.47,1.05-.32,2.02-.9,3.14-1.42.7.99,1.53,2.15,2.3,3.34.07.1-.15.5-.33.65-2.35,1.84-4.97,2.59-7.97,2.13-4.46-.69-6.72-4.19-6.98-8-.18-2.64-.1-5.3-.16-7.95-.01-.49.14-.65.64-.64,1.57,0,3.15.04,4.71-.1,2.33-.2,3.36-1.15,3.58-3.47.16-1.67.03-3.37.03-5.11-.24-.01-.47-.04-.7-.04-4.48,0-8.97,0-13.45-.04-.69,0-.92.14-.91.88.03,7.73.02,15.45.02,23.18v.87h-5.09v-8.74c-.48.26-.81.46-1.17.62-4.36,1.95-11.53.15-12.71-6.77-.22-1.28-.17-2.62-.19-3.93-.03-1.76-.04-3.52,0-5.28.02-.67-.22-.85-.85-.82-.95.04-1.91.01-2.91.01v-4.29h144.3c0-1.19,0-2.29,0-3.39,0-2.07.62-3.92,2.01-5.48,1.11-1.25,2.5-2.03,4.12-2.39,1.89-.41,3.77-.42,5.62.23,2.61.93,4.33,2.73,4.9,5.43.33,1.57.35,3.2.42,4.81.03.63.21.82.82.78.91-.05,1.83-.03,2.74-.04v4.37Zm-77.48,0c1.1,2.71,1.36,5.36-.23,7.89-1.63,2.58-4.23,3.3-7.07,3.42-.11,1.68.83,3.45,2.3,4.39,1.5.96,3.14,1.1,4.87.96,3.46-.27,5.76-2.68,5.77-6.13.01-3.26,0-6.53,0-9.79,0-.23-.02-.45-.04-.74h-5.6Zm-78.68,4.61s0,0,.01,0c0,1.17,0,2.34,0,3.52-.02,2.63,1.66,4.95,5.14,4.6,2.1-.21,3.68-1.56,3.78-3.65.14-2.88.09-5.76.13-8.64,0-.46-.3-.45-.61-.45-2.6,0-5.2,0-7.81,0-.48,0-.66.13-.65.64.03,1.34,0,2.67,0,4.01Zm53.2-4.56h-8.47c0,2.86-.08,5.67.03,8.48.06,1.54.82,2.84,2.33,3.5,3.03,1.31,5.99-.57,6.08-3.87.05-1.69.01-3.38.02-5.06,0-1,0-2,0-3.04Zm5.07,6.1c.27-.22.44-.39.63-.5.77-.44,1.5-1.02,2.32-1.26,3.04-.86,5.81-.12,8.22,1.84.78.64,1.5.71,2.38.51,1.63-.36,2.63-1.52,2.65-3.09.02-1.83-.96-3.14-2.64-3.48-.55-.11-1.11-.17-1.67-.17-3.68-.01-7.36,0-11.04,0h-.85v6.15Zm58.03,1.26c.08-.14.12-.18.12-.22,0-2.25,0-4.5.02-6.75,0-.41-.23-.44-.55-.44-2.13,0-4.26.01-6.4,0-.46,0-.6.15-.6.61.02,2.04.03,4.08,0,6.11-.01.59.21.71.73.7,1.87-.02,3.75,0,5.62,0,.37,0,.74,0,1.05,0Zm24.4-11.75c2.29,0,4.37.01,6.45-.03.14,0,.4-.36.4-.56,0-1.15-.02-2.3-.12-3.44-.13-1.52-1.3-2.69-2.69-2.79-2-.15-3.34.61-3.66,2.35-.27,1.41-.25,2.87-.37,4.46Zm-38.29,16.1c-.47.03-.94.02-1.4.09-1.13.18-1.94,1.21-1.89,2.36.06,1.35,1.01,2.28,2.4,2.38,1.12.08,2.05-.69,2.24-1.89.08-.48.11-.98.11-1.47,0-1.67.21-1.43-1.46-1.47Z"/><path class="cls-9" d="m141.91,395.29c4.18-2.5,7.94-1.97,11.15,1.5,2.49,2.69,2.88,6.98,1.16,10.27-1.59,3.04-5.01,4.61-8.6,4.53v-4.48c.72-.23,1.45-.36,2.09-.68,1.66-.83,2.29-2.28,2.18-4.07-.11-1.76-.95-3.03-2.65-3.61-1.75-.59-3.28-.14-4.58,1.14-.56.55-.83,1.18-.82,2.01.04,4.25.02,8.5.02,12.75,0,.23,0,.46,0,.72h-5.01v-4.81c-5.12,2.37-9.54,1.92-12.79-2.92-2.12-3.15-1.73-7.66.66-10.61,1.47-1.82,3.4-2.84,5.69-3.18,2.27-.35,4.37.16,6.42,1.63,0-.75,0-1.28,0-1.8,0-.77-.03-1.55,0-2.32.04-.67-.18-.89-.87-.89-4.98.03-9.96.01-14.93.01-.28,0-.55,0-.87,0v-4.33h83.8c-.03-1.6-1.82-3.42-3.41-3.55-.05,0-.09,0-.14,0q-1.75-.09-2.21-1.78c-.16-.59-.29-1.18-.44-1.76,3-.94,6.24.28,7.88,3.02.78,1.3,1.45,2.67,2.26,4.18.02-.29.07-.44.03-.55-.86-2.28-1.73-4.55-2.62-6.82-.14-.37-.36-.71-.56-1.06-.84-1.41-2.16-1.84-3.71-1.84-1.2,0-1.06.22-1.38-1.05-.21-.83-.45-1.66-.69-2.55,2.8-.16,5.48-.22,7.57,1.94,1.12,1.16,1.7,2.62,2.19,4.12.76,2.31,1.56,4.61,2.29,6.94.19.61.49.78,1.1.78,11.98-.01,23.95,0,35.93,0q.91,0,.91.93c0,.85-.05,1.69.01,2.54.05.74-.23.93-.93.89-1.1-.05-2.2-.01-3.42-.01v24.88h-5.1v-.75c0-3.97-.01-7.94.01-11.91,0-.69-.17-.95-.91-.92-1.38.06-2.77.04-4.16,0-.53-.01-.66.17-.69.69-.09,1.47-.05,2.99-.44,4.38-.87,3.1-3.07,4.92-6.21,5.54-4.13.81-8.2-.67-10.23-4.1-1.92-3.23-1.52-6.5.17-9.71.25-.47.57-.92.9-1.34.11-.14.44-.29.57-.23,1.33.64,2.63,1.32,4.03,2.03-.91,1.1-1.44,2.3-1.67,3.64-.3,1.78.54,3.84,1.92,4.6,2.43,1.34,5.58.36,5.97-2.89.04-.37.06-.75.06-1.12,0-1.81.02-3.62,0-5.42-.01-.58.14-.77.74-.76,3.01.03,6.01.01,9.02.01.91,0,.92,0,.92-.94,0-1.64-.01-3.29,0-4.93,0-.56-.15-.78-.76-.77-8.15.03-16.3.03-24.44.03-.99,0-1.97.02-2.96-.04-.64-.04-.84.16-.84.82.02,7.44.01,14.89.01,22.33q0,1.8-1.79,1.8c-1.03,0-2.06,0-3.16,0-.02-.2-.05-.38-.05-.55,0-7.77,0-15.55,0-23.32,0-.21.05-.44-.03-.63-.07-.18-.27-.42-.41-.42-2.11-.03-4.22-.02-6.39-.02v24.87h-5.04v-14.1c-.33-.02-.58-.04-.83-.04-3.12,0-6.25-.01-9.37,0-.56,0-1.13.07-1.66.22-1.22.34-1.84,1.34-1.68,2.57.17,1.28,1.02,2.11,2.3,2.13.64.01,1.29-.12,2.06-.2.43,1.28.9,2.66,1.4,4.15-2.18,1.08-4.36,1.07-6.55.11-1.71-.75-2.92-2.01-3.64-3.74-.71-1.69-.67-3.41-.16-5.21-.32-.02-.54-.04-.77-.04-2.58,0-5.17-.01-7.75,0-.51,0-1.04.07-1.53.2-1.28.35-1.88,1.32-1.72,2.67.14,1.2,1.04,2.03,2.3,2.05.62.01,1.24-.11,2-.19.43,1.29.9,2.69,1.38,4.13-1.19.66-2.42.86-3.7.8-3.33-.15-5.98-2.29-6.77-5.46-1.01-4.05,1.61-8.06,5.73-8.73.67-.11,1.35-.14,2.03-.14,8.64,0,17.28,0,25.92,0,.3,0,.6,0,.94,0v-6.07c-.3,0-.59,0-.88,0-11.76,0-23.53.01-35.29.01-4.86,0-9.72-.01-14.58-.02-.99,0-.99,0-1,1.02,0,.99,0,1.97,0,2.96,0,.25.03.5.05.82Zm-5.15,7.73c.03-2.53-1.65-4.6-4.22-4.74-2.52-.13-4.51,1.91-4.53,4.54-.02,2.65,1.84,4.6,4.29,4.61,2.57,0,4.42-1.8,4.46-4.42Z"/><path class="cls-6" d="m310.43,345.03c-12.77,3.3-25.66,5.44-39.15,5.44-86.15,0-156-68.72-156-153.49S185.13,43.48,271.28,43.48s156,68.72,156,153.49c0,51.31-23.95,95.57-63.26,123.44"/><g class="cls-12"><path class="cls-7" d="m385.41,146.33c3.87,8.24,6.79,16.93,8.66,25.85,1.88,8.92,2.75,18.05,2.6,27.16-.19,9.11-1.39,18.21-3.6,27.05-1.11,4.42-2.46,8.78-4.06,13.04-1.62,4.26-3.47,8.42-5.56,12.47,4.04-8.16,7.18-16.75,9.36-25.58,2.16-8.83,3.32-17.9,3.46-26.99.19-9.08-.63-18.19-2.47-27.1-1.85-8.9-4.67-17.6-8.4-25.91Z"/><path class="cls-7" d="m296.62,76.49c6.07,1.15,12.05,2.77,17.87,4.86,5.82,2.08,11.49,4.58,16.95,7.49,5.44,2.95,10.65,6.3,15.59,10.01,4.95,3.7,9.6,7.8,13.9,12.24-4.41-4.33-9.11-8.34-14.05-12.03-4.96-3.67-10.18-6.97-15.62-9.88-5.42-2.94-11.06-5.48-16.85-7.6-5.8-2.1-11.74-3.81-17.78-5.11Z"/><path class="cls-7" d="m185.52,107.57c5.71-5.41,11.97-10.26,18.63-14.45,6.66-4.2,13.72-7.78,21.05-10.66,7.35-2.85,14.96-5,22.71-6.42,1.94-.31,3.88-.68,5.83-.93,1.96-.22,3.91-.49,5.87-.66,1.97-.12,3.93-.26,5.89-.36l5.9-.09c-7.87.09-15.72.86-23.44,2.31-7.72,1.47-15.3,3.66-22.61,6.53-7.32,2.84-14.38,6.36-21.05,10.52-6.66,4.17-12.96,8.93-18.77,14.23Z"/><path class="cls-7" d="m157.05,247.12c-3.1-6.69-5.57-13.68-7.36-20.85-1.77-7.17-2.93-14.49-3.38-21.87-.4-7.37-.19-14.79.74-22.11.46-3.66,1.07-7.31,1.87-10.91.81-3.6,1.79-7.16,2.92-10.67-2.13,7.06-3.65,14.3-4.52,21.61-.88,7.32-1.05,14.71-.61,22.06.41,7.35,1.51,14.66,3.24,21.83,1.77,7.15,4.15,14.15,7.11,20.91Z"/><path class="cls-7" d="m267.86,320.15c-8.65-.17-17.28-1.24-25.71-3.22-8.43-1.96-16.66-4.8-24.51-8.45-7.84-3.69-15.29-8.19-22.19-13.41-6.92-5.21-13.27-11.16-18.91-17.72,5.76,6.46,12.16,12.32,19.07,17.51,6.92,5.17,14.37,9.62,22.2,13.26,7.81,3.68,16,6.55,24.41,8.56,8.41,1.99,17.01,3.15,25.65,3.48Z"/></g><path class="cls-7" d="m381.52,280.8c-1.46,1.97-2.98,3.9-4.58,5.76-1.59,1.87-3.26,3.67-4.96,5.44-1.72,1.75-3.48,3.46-5.31,5.1-1.82,1.65-3.7,3.22-5.64,4.73,1.84-1.62,3.65-3.28,5.43-4.96,1.78-1.68,3.53-3.39,5.23-5.16,1.72-1.74,3.38-3.54,5.02-5.36,1.63-1.82,3.24-3.68,4.81-5.56Z"/><path class="cls-7" d="m371.7,102.4c9.92,10.2,18.47,21.82,24.75,34.63,3.16,6.38,5.91,12.99,8.03,19.79,2.11,6.81,3.7,13.78,4.77,20.83,1.97,14.12,1.87,28.55-.62,42.59-2.39,14.06-7.17,27.68-13.88,40.23,3.27-6.32,6.14-12.86,8.38-19.61,2.29-6.74,4.06-13.65,5.24-20.66,2.44-14.02,2.49-28.42.49-42.49-1.04-7.03-2.61-13.98-4.69-20.78-2.1-6.8-4.81-13.39-7.95-19.77-1.54-3.21-3.32-6.29-5.08-9.38l-2.84-4.52c-.94-1.51-2.01-2.93-3.01-4.4-4.11-5.81-8.65-11.31-13.58-16.45Z"/><path class="cls-7" d="m222.17,69.17c4.65-1.76,9.39-3.27,14.2-4.54,4.81-1.25,9.7-2.21,14.62-2.94,9.84-1.47,19.84-1.82,29.78-1.22,9.93.68,19.79,2.4,29.36,5.13,4.78,1.38,9.49,3.01,14.09,4.89,4.6,1.89,9.1,4.03,13.47,6.39-8.81-4.6-18.09-8.29-27.64-11.02-9.56-2.68-19.4-4.35-29.31-4.99-9.9-.64-19.88-.34-29.71,1.09-9.83,1.4-19.52,3.84-28.86,7.22Z"/><path class="cls-7" d="m263.5,333.83c-7.08-.43-14.13-1.34-21.08-2.75-6.95-1.41-13.77-3.45-20.42-5.9-1.65-.65-3.34-1.21-4.95-1.94l-4.88-2.12-4.78-2.34c-1.61-.75-3.12-1.68-4.69-2.51-6.18-3.47-12.14-7.37-17.74-11.73-22.38-17.44-39.37-41.86-47.35-69.17-2.06-6.8-3.41-13.8-4.33-20.83-.51-3.52-.71-7.06-.97-10.6l-.13-5.32-.03-1.33.04-1.33.09-2.66c.08-1.77.08-3.55.21-5.32l.51-5.3.26-2.65.42-2.63.84-5.26c1.46-6.94,3.13-13.86,5.65-20.5l.9-2.51.45-1.25.52-1.22,2.1-4.89.52-1.22.59-1.19,1.19-2.38,1.19-2.38c.4-.79.79-1.59,1.25-2.35,1.8-3.06,3.48-6.19,5.52-9.1,1-1.47,1.92-2.98,2.97-4.41l3.19-4.26c1.03-1.45,2.2-2.78,3.35-4.13,1.16-1.34,2.27-2.73,3.46-4.04l3.67-3.85c.62-.63,1.21-1.3,1.85-1.91l1.94-1.82c1.3-1.2,2.58-2.43,3.9-3.62l4.09-3.4,2.05-1.69,2.14-1.58,4.28-3.15-4.28,3.16-2.14,1.58-2.05,1.7-4.08,3.41c-1.32,1.19-2.59,2.42-3.89,3.63l-1.94,1.82c-.64.61-1.23,1.28-1.85,1.91l-3.66,3.86c-1.19,1.31-2.3,2.7-3.45,4.04-1.14,1.36-2.31,2.69-3.33,4.14l-3.18,4.26c-1.05,1.43-1.97,2.95-2.96,4.41-2.03,2.91-3.7,6.04-5.49,9.1-.46.76-.85,1.55-1.24,2.35l-1.19,2.38-1.19,2.38-.59,1.19-.52,1.22-2.08,4.89-.52,1.22-.45,1.25-.89,2.5c-2.49,6.64-4.15,13.55-5.59,20.48l-.82,5.25-.41,2.62-.25,2.64-.49,5.29c-.13,1.77-.13,3.54-.2,5.31l-.08,2.66-.04,1.33.03,1.33.14,5.31c.27,3.53.47,7.07.99,10.57.94,7.01,2.3,13.99,4.37,20.76,7.88,27.24,24.78,51.65,47.09,69.12,5.58,4.37,11.52,8.27,17.69,11.75,1.56.84,3.07,1.77,4.68,2.52l4.77,2.35,4.87,2.13c1.61.73,3.3,1.29,4.95,1.95,6.64,2.46,13.45,4.52,20.4,5.94,6.95,1.43,13.99,2.35,21.07,2.8Z"/><path class="cls-7" d="m165.69,216.63c-.01.43-.06.91-.35,1.33-.27.43-.82.68-1.34.62-.52-.06-.95-.37-1.25-.71-.31-.34-.55-.76-.62-1.25-.21-1.01.77-2.09,1.87-2.05.53.01,1.07.27,1.35.71.28.43.34.91.35,1.34Zm-.08,0c0-.43-.3-.8-.63-.97-.34-.16-.66-.25-.98-.23-.65,0-1.27.45-1.43,1.2-.07.37.05.81.36,1.06.31.26.74.29,1.07.23.35-.05.65-.15.99-.32.33-.17.64-.54.62-.98Z"/><path class="cls-7" d="m180.56,171.44c-.01.43-.06.91-.35,1.33-.27.43-.82.68-1.34.62-.52-.06-.95-.37-1.25-.71-.31-.34-.55-.76-.62-1.25-.21-1.01.77-2.09,1.87-2.05.53.01,1.07.27,1.35.71.28.43.34.91.35,1.34Zm-.08,0c0-.43-.3-.8-.63-.97-.34-.16-.66-.25-.98-.23-.65,0-1.27.45-1.43,1.2-.07.37.05.81.36,1.06.31.26.74.29,1.07.23.35-.05.65-.15.99-.32.33-.17.64-.54.62-.98Z"/><path class="cls-7" d="m242.16,134.48c-.01.43-.06.91-.35,1.33-.27.43-.82.68-1.34.62-.52-.06-.95-.37-1.25-.71-.31-.34-.55-.76-.62-1.25-.21-1.01.77-2.09,1.87-2.05.53.01,1.07.27,1.35.71.28.43.34.91.35,1.34Zm-.08,0c0-.43-.3-.8-.63-.97-.34-.16-.66-.25-.98-.23-.65,0-1.27.45-1.43,1.2-.07.37.05.81.36,1.06.31.26.74.29,1.07.23.35-.05.65-.15.99-.32.33-.17.64-.54.62-.98Z"/><path class="cls-7" d="m270.98,112.77c-.01.43-.06.91-.35,1.33-.27.43-.82.68-1.34.62-.52-.06-.95-.37-1.25-.71-.31-.34-.55-.76-.62-1.25-.21-1.01.77-2.09,1.87-2.05.53.01,1.07.27,1.35.71.28.43.34.91.35,1.34Zm-.08,0c0-.43-.3-.8-.63-.97-.34-.16-.66-.25-.98-.23-.65,0-1.27.45-1.43,1.2-.07.37.05.81.36,1.06.31.26.74.29,1.07.23.35-.05.65-.15.99-.32.33-.17.64-.54.62-.98Z"/><path class="cls-7" d="m182.21,119.29c-.01.43-.06.91-.35,1.33-.27.43-.82.68-1.34.62-.52-.06-.95-.37-1.25-.71-.31-.34-.55-.76-.62-1.25-.21-1.01.77-2.09,1.87-2.05.53.01,1.07.27,1.35.71.28.43.34.91.35,1.34Zm-.08,0c0-.43-.3-.8-.63-.97-.34-.16-.66-.25-.98-.23-.65,0-1.27.45-1.43,1.2-.07.37.05.81.36,1.06.31.26.74.29,1.07.23.35-.05.65-.15.99-.32.33-.17.64-.54.62-.98Z"/><path class="cls-7" d="m321.78,133c-.01.43-.06.91-.35,1.33-.27.43-.82.68-1.34.62-.52-.06-.95-.37-1.25-.71-.31-.34-.55-.76-.62-1.25-.21-1.01.77-2.09,1.87-2.05.53.01,1.07.27,1.35.71.28.43.34.91.35,1.34Zm-.08,0c0-.43-.3-.8-.63-.97-.34-.16-.66-.25-.98-.23-.65,0-1.27.45-1.43,1.2-.07.37.05.81.36,1.06.31.26.74.29,1.07.23.35-.05.65-.15.99-.32.33-.17.64-.54.62-.98Z"/><path class="cls-7" d="m320.13,89.21c-.01.43-.06.91-.35,1.33-.27.43-.82.68-1.34.62-.52-.06-.95-.37-1.25-.71-.31-.34-.55-.76-.62-1.25-.21-1.01.77-2.09,1.87-2.05.53.01,1.07.27,1.35.71.28.43.34.91.35,1.34Zm-.08,0c0-.43-.3-.8-.63-.97-.34-.16-.66-.25-.98-.23-.65,0-1.27.45-1.43,1.2-.07.37.05.81.36,1.06.31.26.74.29,1.07.23.35-.05.65-.15.99-.32.33-.17.64-.54.62-.98Z"/><path class="cls-7" d="m234.19,96.64c-.01.43-.06.91-.35,1.33-.27.43-.82.68-1.34.62-.52-.06-.95-.37-1.25-.71-.31-.34-.55-.76-.62-1.25-.21-1.01.77-2.09,1.87-2.05.53.01,1.07.27,1.35.71.28.43.34.91.35,1.34Zm-.08,0c0-.43-.3-.8-.63-.97-.34-.16-.66-.25-.98-.23-.65,0-1.27.45-1.43,1.2-.07.37.05.81.36,1.06.31.26.74.29,1.07.23.35-.05.65-.15.99-.32.33-.17.64-.54.62-.98Z"/><path class="cls-7" d="m372.86,131.52c-.01.43-.06.91-.35,1.33-.27.43-.82.68-1.34.62-.52-.06-.95-.37-1.25-.71-.31-.34-.55-.76-.62-1.25-.21-1.01.77-2.09,1.87-2.05.53.01,1.07.27,1.35.71.28.43.34.91.35,1.34Zm-.08,0c0-.43-.3-.8-.63-.97-.34-.16-.66-.25-.98-.23-.65,0-1.27.45-1.43,1.2-.07.37.05.81.36,1.06.31.26.74.29,1.07.23.35-.05.65-.15.99-.32.33-.17.64-.54.62-.98Z"/><path class="cls-7" d="m209.11,230.57c-.01.43-.06.91-.35,1.33-.27.43-.82.68-1.34.62-.52-.06-.95-.37-1.25-.71-.31-.34-.55-.76-.62-1.25-.21-1.01.77-2.09,1.87-2.05.53.01,1.07.27,1.35.71.28.43.34.91.35,1.34Zm-.08,0c0-.43-.3-.8-.63-.97-.34-.16-.66-.25-.98-.23-.65,0-1.27.45-1.43,1.2-.07.37.05.81.36,1.06.31.26.74.29,1.07.23.35-.05.65-.15.99-.32.33-.17.64-.54.62-.98Z"/><path class="cls-7" d="m156.67,146.14c-.01.43-.06.91-.35,1.33-.27.43-.82.68-1.34.62-.52-.06-.95-.37-1.25-.71-.31-.34-.55-.76-.62-1.25-.21-1.01.77-2.09,1.87-2.05.53.01,1.07.27,1.35.71.28.43.34.91.35,1.34Zm-.08,0c0-.43-.3-.8-.63-.97-.34-.16-.66-.25-.98-.23-.65,0-1.27.45-1.43,1.2-.07.37.05.81.36,1.06.31.26.74.29,1.07.23.35-.05.65-.15.99-.32.33-.17.64-.54.62-.98Z"/><path class="cls-7" d="m164.03,264.57c-.01.43-.06.91-.35,1.33-.27.43-.82.68-1.34.62-.52-.06-.95-.37-1.25-.71-.31-.34-.55-.76-.62-1.25-.21-1.01.77-2.09,1.87-2.05.53.01,1.07.27,1.35.71.28.43.34.91.35,1.34Zm-.08,0c0-.43-.3-.8-.63-.97-.34-.16-.66-.25-.98-.23-.65,0-1.27.45-1.43,1.2-.07.37.05.81.36,1.06.31.26.74.29,1.07.23.35-.05.65-.15.99-.32.33-.17.64-.54.62-.98Z"/><g class="cls-11"><path class="cls-7" d="m242.12,300.76c-7.87-2.07-15.52-5.06-22.71-8.88-7.21-3.81-13.99-8.43-20.18-13.74-6.16-5.34-11.72-11.38-16.54-17.95l-3.47-5.03-3.18-5.22-2.84-5.41-2.53-5.56c3.29,7.45,7.4,14.52,12.23,21.06,4.84,6.54,10.42,12.52,16.58,17.81,6.14,5.33,12.87,9.96,20.04,13.81,7.17,3.83,14.76,6.89,22.59,9.12Z"/><path class="cls-7" d="m375.81,165.11c.89,2.56,1.65,5.16,2.29,7.8.65,2.63,1.16,5.3,1.59,7.98.4,2.68.71,5.38.88,8.09.18,2.71.23,5.42.16,8.13-.07-2.71-.23-5.41-.46-8.1-.24-2.69-.54-5.38-.97-8.05-.39-2.67-.91-5.33-1.49-7.97-.59-2.64-1.25-5.26-2-7.87Z"/><path class="cls-7" d="m253.83,90.91c6.39-1.02,12.88-1.59,19.36-1.41,6.48.14,12.96.7,19.32,1.98,12.74,2.43,25.04,7.13,36.17,13.8,11.16,6.65,20.94,15.5,28.99,25.66l2.99,3.83,2.69,4.06,1.34,2.03.67,1.02.59,1.06,2.35,4.26,1.16,2.13,1,2.22,1.99,4.43.49,1.11.41,1.15.81,2.29,1.63,4.58c-4.03-12.32-10.3-23.87-18.34-34-8.06-10.1-17.85-18.89-28.98-25.48-11.07-6.68-23.32-11.41-36.02-13.88-6.34-1.3-12.81-1.87-19.28-2.04-6.47-.25-12.96.25-19.36,1.21Z"/><path class="cls-7" d="m162.08,197.09l.17-6.66c.16-2.21.39-4.42.58-6.64.28-2.2.68-4.39,1.02-6.58.41-2.18.96-4.34,1.43-6.51,2.18-8.61,5.46-16.95,9.72-24.76,4.29-7.79,9.56-15.03,15.63-21.52,1.54-1.6,3.13-3.15,4.69-4.73l4.97-4.43,5.25-4.1,5.49-3.77c-7.39,4.92-14.19,10.71-20.22,17.21-6.02,6.51-11.23,13.76-15.48,21.54-4.28,7.76-7.59,16.05-9.81,24.63-2.21,8.58-3.36,17.44-3.45,26.32Z"/></g><path class="cls-4" d="m334.59,251.29c.66,6.89.63,17.58-1.09,24.32-12.47,48.63,1.09,66.71,16.4,76.17"/><path class="cls-3" d="m334.59,251.29c3.36,19.37-3.54,44.74-1.04,64.17,2.6,20.21,11.87,34.44,16.35,36.32"/><path class="cls-3" d="m334.59,251.29c3.03,19.35.65,45.74,2.74,62.93,2.8,23.01,10.42,36.66,12.57,37.56"/><path class="cls-3" d="m349.89,351.77c-8.21-16.7-13.16-79.49-15.31-100.49"/><path class="cls-4" d="m334.59,251.29c1.02,10.48,4.07,15.73,10.98,25.62,15.66,22.39,23.86,57.62,4.32,74.87"/><path class="cls-3" d="m334.59,251.29c1.14,11.75,6.35,21.98,11.14,31.71,12.34,25.08,16.62,44.61,4.17,68.78"/><path class="cls-3" d="m334.59,251.29c.48,23.8,26.75,62.05,15.31,100.49"/><path class="cls-3" d="m349.89,351.77c0-38.17-12.15-68.26-15.31-100.49"/><path class="cls-4" d="m256.21,290.21c18.71,26.94-6.7,43.63,93.68,61.57"/><path class="cls-4" d="m252.57,289.05c30.48,3.88,46.12,9.34,62.63,23.68,16.64,14.44,15.81,25.56,34.69,39.04"/><path class="cls-3" d="m252.57,289.05c63.86,6.26,83.9,60.72,97.32,62.72"/><path class="cls-3" d="m256.21,290.21c23.78,25.66,3.94,40.18,93.68,61.57"/><path class="cls-3" d="m256.21,290.21c27.55,22.56,10.57,34.18,93.68,61.57"/><path class="cls-3" d="m252.57,289.05c61.99,14.78,59.12,39.64,97.32,62.72"/><path class="cls-3" d="m256.21,290.21c31.17,20.15,23.6,34.73,93.68,61.57"/><path class="cls-3" d="m252.57,289.05c63.15,21.01,42.96,32.75,97.32,62.72"/><path class="cls-3" d="m252.57,289.05c45.48,13.68,42.12,38.5,97.32,62.72"/><path class="cls-3" d="m252.57,289.05c38.77,13.59,29.38,33.44,97.32,62.72"/><path class="cls-4" d="m264.07,225.43c58.44,33.23,64.64,59.88,64.64,87.72"/><path class="cls-4" d="m264.07,225.43c5.27,6.06,11.77,17.49,14.11,26.65,4.73,18.49.34,36.98,23.05,50.57"/><path class="cls-3" d="m264.07,225.43c23.18,23.5,14.04,33.04,26.2,57.96,6.9,14.14,29.26,27.69,44.32,52.75"/><path class="cls-3" d="m264.07,225.43c69.42,50.17,51.91,68.64,68.92,108.13"/><path class="cls-3" d="m264.07,225.43c41.8,35.3,48.79,50.33,67.52,106"/><path class="cls-3" d="m264.07,225.43c17.26,13.26,21.44,36.48,27.46,48.75,10.04,20.45,15.98,27.35,39.43,55.38"/><path class="cls-3" d="m264.07,225.43c37.17,29.42,48.69,73.46,66.89,104.13"/><path class="cls-3" d="m264.07,225.43c33.44,29.32,35.22,63.19,66.89,104.13"/><path class="cls-4" d="m287.38,186.87c23.6,40.29,43.58,38.55,47.21,64.41"/><path class="cls-4" d="m287.38,186.87c9.01,19.17-4.73,44.31,25.39,76.34"/><path class="cls-3" d="m287.38,186.87c21.81,59.18,41.23,51.14,41.32,114.66"/><path class="cls-4" d="m290.61,293.98c-21.32-24.69-29.31-37.67-94.12-52.62"/><path class="cls-4" d="m196.49,241.36c31.06,13.9,22.14,38.14,56.09,47.7"/><path class="cls-4" d="m334.59,251.29c0-43.73,23.17-60.95,20.85-77.57"/><path class="cls-4" d="m355.44,173.71c23.25,69.3,23.13,75.71,3.82,133.34"/><path class="cls-3" d="m355.44,173.71c8.95,36.88,20.31,77.57,3.82,133.34"/><path class="cls-3" d="m355.44,173.71c8.95,51.72,8.67,77.57,3.82,133.34"/><path class="cls-3" d="m355.44,178.91c-2.66,30.71-26.73,50.02-11.76,95.26"/><path class="cls-3" d="m355.44,173.71c4.93,56.93-4.53,96.53,3.82,133.34"/><path class="cls-3" d="m355.44,178.91c0,47.63-13.2,90.57,1.94,119.68"/><path class="cls-3" d="m355.44,173.71c-2.33,45.37-22.48,80.93-2.69,113.83"/><path class="cls-3" d="m287.38,186.87c28.53,57.33,47.89,51.87,41.32,114.66"/><path class="cls-3" d="m287.38,186.87c39.11,61.57,51.43,51.87,41.23,111.71"/><path class="cls-3" d="m287.38,186.87c14.57,53.51,37.4,60.3,41.23,111.71"/><path class="cls-3" d="m328.47,297.02c-8.61-47.41-29.94-53.29-38.62-101.73"/><path class="cls-3" d="m291.15,205.9c3.01,30.72,21.62,50.09,28.83,68.27"/><path class="cls-4" d="m287.38,186.87c-19.51-31.5-41.9-19.45-62.85-47.28"/><path class="cls-4" d="m224.53,139.6c23,26.41,18.32,66.3,39.54,85.83"/><path class="cls-3" d="m264.07,225.43c-26.79-22.95-42.97-17.24-67.58-41"/><path class="cls-4" d="m196.49,184.42c15.63,18.36,18.12,56.93,40.9,68.6"/><path class="cls-4" d="m340.3,216.41c9.81-31.98-13.02-36.51-16.82-65.53"/><path class="cls-4" d="m287.38,186.87c-18.44-33.48,3.77-64.12-7.98-84.83"/><path class="cls-4" d="m311.32,175.96c16.57-36.36-18.91-53.84-31.92-73.91"/><path class="cls-4" d="m279.99,162.16c-3.13-14.17-12.62-15.03-15.92-22.56"/><path class="cls-4" d="m264.07,139.6c3.19,13.78-3.21,21.67,6.38,29.25"/><path class="cls-4" d="m248,195.67c-8.91-34.76-38.59-33.51-53.41-50.6"/><path class="cls-4" d="m194.59,145.07c10.68,11.36,3.1,41.81,25.83,56.15"/><path class="cls-4" d="m312.33,218.73c-23.65-27.26,9.29-49.41,11.15-67.85"/><path class="cls-4" d="m336.42,181.54c-4.4-12.68,4.08-16.15,4.08-28.79"/><path class="cls-4" d="m350.4,192.89c5.2-22.52-9.9-23.82-9.9-40.14"/><path class="cls-3" d="m224.53,139.6c33.97,47.28,17.83,67.7,54.56,94.74"/><path class="cls-3" d="m224.53,139.6c37.79,49.22,17.71,68.92,79.69,113.97"/><path class="cls-3" d="m224.53,139.6c41.85,51.59,29.75,69,69.27,105.49"/><path class="cls-3" d="m224.53,139.6c54.87,59.12,36.47,69.84,70.83,106"/><path class="cls-3" d="m236.79,151.85c45.15,38.11,38.34,72.79,60.72,96.12"/><path class="cls-3" d="m239.25,153.97c50.45,27.54,41.84,79,60.08,95.71"/><path class="cls-3" d="m245.52,157.74c59.98,26.14,31.21,71.6,58.7,95.82"/><path class="cls-3" d="m196.49,241.36c40.9,15.63,25.15,26.31,98.19,57.23"/><path class="cls-3" d="m196.49,241.36c62.68,16.41,71.76,33.74,98.19,57.23"/><path class="cls-3" d="m196.49,241.36c63.46,20.76,75.79,42.49,98.19,57.23"/><path class="cls-3" d="m196.49,241.36c65.05,26.31,54.91,35.7,98.19,57.23"/><path class="cls-3" d="m196.49,241.36c44.98,20.45,24.24,33.64,83.5,52.62"/><path class="cls-3" d="m196.49,241.36c45.37,21.86,18.94,37.07,74.47,50.62"/><path class="cls-3" d="m340.5,152.75c3.43,27.63,12.41,32.06.42,61.53"/><path class="cls-3" d="m340.72,157.74c-4.08,28.79,5.28,25.17,2.19,50.34"/><path class="cls-3" d="m340.72,157.74c6.28,18.82,13.54,25.9,3.21,48.94"/><path class="cls-3" d="m340.72,157.74c0,23.8,7.04,30.41,3.21,48.94"/><path class="cls-3" d="m340.4,158.63c-5.24,18.64-2.57,22.59.32,31.77"/><path class="cls-3" d="m323.83,153.97c-20.4,55.8-4.55,62.44,10.43,91.63"/><path class="cls-3" d="m322.88,156.61c-25.05,42.37-16.1,53.96-2.24,69.92"/><path class="cls-3" d="m321.21,158.63c-23.7,54.47.65,63.45,5.9,74.78"/><path class="cls-3" d="m323.83,153.97c-12.04,52.71.37,68.8,6.7,84.78"/><path class="cls-3" d="m326.2,162.16c16.46,37.62,14.3,39.66,9.63,72.17"/><path class="cls-3" d="m327.11,164.25c11.96,36.96,8.05,57.26,7.16,81.34"/><path class="cls-3" d="m323.83,155.82c-2.29,47.09,3.27,74.81,10.43,89.77"/><path class="cls-3" d="m334.27,245.59c-5.48-32.09-4.28-65.21-9.44-87.85"/><path class="cls-3" d="m220.42,201.22c65.09,30.82,46.73,51.81,64.81,85.07"/><path class="cls-3" d="m196.49,184.42c32.48,39.13,18.74,55.61,55.32,74.98"/><path class="cls-3" d="m196.49,184.42c41.75,47.78,21.68,50.58,62.09,78.79"/><path class="cls-3" d="m196.49,184.42c59.47,48.19,62.09,49.91,88.75,101.86"/><path class="cls-3" d="m196.49,184.42c59.47,50.93,59.47,64.41,88.75,101.86"/><path class="cls-3" d="m204.79,191.63c28.6,36.52,36.07,56.96,66.16,80.04"/><path class="cls-3" d="m215.18,198.5c45.62,29.57,49.19,37.48,66.31,79.93"/><path class="cls-3" d="m207.51,194.03c38.86,39.12,51.07,69.18,77.73,92.25"/><path class="cls-3" d="m265.36,142.21c18.03,19.32,9.3,23.74,19.88,40.31"/><path class="cls-3" d="m265.36,142.21c.68,26.65,12.12,28.73,18.85,39.2"/><path class="cls-3" d="m265.36,142.21c9.94,13.47,8.47,22.9,18.03,37.44"/><path class="cls-3" d="m265.36,142.21c5.77,15.07,7.9,27,17.25,36.22"/><path class="cls-3" d="m198.39,148.82c13.66,31.6,24.78,49.69,62.43,73.1"/><path class="cls-3" d="m198.39,148.82c40.86,30.68,34.74,52.4,60.2,71.7"/><path class="cls-3" d="m198.39,148.82c31.21,36.55,32.48,53,57.57,69.6"/><path class="cls-3" d="m209.05,155.92c40.82,27.7,30.2,45.9,46.9,62.5"/><path class="cls-3" d="m198.39,148.82c13.44,35.85,8.12,40.97,40.22,60.36"/><path class="cls-3" d="m279.4,102.05c50.15,59.76,11.21,88.35,28.43,110.45"/><path class="cls-3" d="m283.39,107.4c34.12,49.21,6.46,93.82,26.31,107.99"/><path class="cls-3" d="m283.39,119.29c-3.4,64.22,14.13,82.91,21.66,91.12"/><path class="cls-3" d="m294.22,119.02c25.76,32.83,14.94,55.49,11.35,69.19"/><path class="cls-3" d="m283.39,107.4c8.23,42.39,7.43,90.85,21.66,103.01"/><path class="cls-3" d="m284.21,108.6c18.35,40.22,10.01,86.75,19.62,101.28"/><rect class="cls-8" x="197.19" y="147.09" width="155.87" height="12.9"/><rect class="cls-8" x="269.2" y="160" width="14.79" height="103.42"/><path class="cls-8" d="m245.68,176.18c-20.36,0-36.86,16.24-36.86,36.27s16.5,36.27,36.86,36.27,33.93-16.24,33.93-36.27-13.57-36.27-33.93-36.27Zm.31,59.63c-12.85,0-22.3-11.21-22.3-23.86s9.44-22.9,22.3-22.9,22.3,10.25,22.3,22.9-9.44,23.86-22.3,23.86Z"/><path class="cls-8" d="m303.25,233.41c.27,0,.55.01.83.01,12.17,0,22.04-9.71,22.04-21.68s-8.36-21.68-20.54-21.68c-8.93,0-18.13,6.27-21.59,14.33h-.29v-19.71c6.17-5.3,14.24-8.51,23.08-8.51,19.39,0,35.11,15.47,35.11,34.54s-17.67,35.51-37.06,35.51c-.53,0-1.05-.01-1.57-.04v-13.21"/><path class="cls-7" d="m349.22,156.16v-12.9h-155.87v12.9h72.01v25.72c-5.87-5.91-13.93-9.54-23.52-9.54-20.36,0-36.86,16.24-36.86,36.27s16.5,36.27,36.86,36.27c9.59,0,17.65-3.64,23.52-9.54v24.24h14.79v-59.03c3.46-8.07,12.65-14.33,21.59-14.33,12.17,0,20.54,9.71,20.54,21.68s-9.87,21.68-22.04,21.68c-.27,0-.54,0-.82-.01v12.77c.52.02,1.04.04,1.57.04,19.39,0,37.06-16.43,37.06-35.51s-15.72-34.54-35.11-34.54c-8.7,0-16.65,3.13-22.79,8.28v-24.46h69.07Zm-107.07,75.81c-12.85,0-22.3-11.21-22.3-23.86s9.44-22.9,22.3-22.9,22.3,10.25,22.3,22.9-9.44,23.86-22.3,23.86Z"/><path class="cls-7" d="m299.41,229.57s0,0,.01,0v-.43.43Z"/><circle class="cls-9" cx="314.16" cy="412.23" r="2.09"/></svg>