<?xml version="1.0" encoding="UTF-8"?><svg id="Layer_1" xmlns="http://www.w3.org/2000/svg" viewBox="0 0 129.99 129.99"><defs><style>.cls-1{fill:#eec8ab;}.cls-2{fill:#deb18d;}.cls-3{fill:#d5a17c;}.cls-4{fill:#949598;}.cls-5{fill:#6d6e71;}.cls-6{stroke:#221f20;}.cls-6,.cls-7,.cls-8{fill:none;stroke-miterlimit:10;stroke-width:.11px;}.cls-7{stroke:#a7a9ab;}.cls-8{stroke:#58595b;}.cls-9{fill:#69b9c5;opacity:.8;}</style></defs><path class="cls-9" d="m77.15,126.78h-24.31c8.77-26.6,9.49-32.16,12.16-65.58,2.67,33.42,3.39,38.98,12.16,65.58"/><path class="cls-6" d="m57.69,126.78c7.25-26.63,4.64-32.16,7.3-65.58"/><path class="cls-6" d="m72.29,126.78c-7.25-26.63-4.64-32.16-7.3-65.58"/><line class="cls-6" x1="64.99" y1="126.78" x2="64.99" y2="61.21"/><line class="cls-6" x1="53.9" y1="123.53" x2="76.08" y2="123.53"/><line class="cls-6" x1="55.01" y1="120.11" x2="74.98" y2="120.11"/><line class="cls-6" x1="56.08" y1="116.69" x2="73.9" y2="116.69"/><line class="cls-6" x1="57.03" y1="113.26" x2="72.86" y2="113.26"/><line class="cls-6" x1="58.11" y1="109.84" x2="71.87" y2="109.84"/><line class="cls-6" x1="59.31" y1="105.32" x2="70.68" y2="105.32"/><line class="cls-6" x1="60.36" y1="100.8" x2="69.62" y2="100.8"/><line class="cls-6" x1="61.25" y1="96.28" x2="68.73" y2="96.28"/><line class="cls-6" x1="62.39" y1="88.86" x2="67.6" y2="88.86"/><line class="cls-6" x1="63.24" y1="81.43" x2="66.75" y2="81.43"/><line class="cls-6" x1="63.94" y1="74.01" x2="66.05" y2="74.01"/><line class="cls-6" x1="64.95" y1="116.69" x2="67.93" y2="120.11"/><line class="cls-6" x1="67.93" y1="120.11" x2="67.76" y2="126.78"/><line class="cls-6" x1="65.02" y1="116.69" x2="62.04" y2="120.11"/><line class="cls-6" x1="62.04" y1="120.11" x2="62.21" y2="126.78"/><polygon class="cls-2" points="117.8 32.67 65.02 2.19 12.24 32.67 65.02 63.14 117.8 32.67"/><path class="cls-3" d="m12.16,32.79l51.09,29.43c-2.67,33.42-3.39,38.98-12.16,65.58L0,98.37c8.77-26.6,9.49-32.16,12.16-65.58Z"/><path class="cls-8" d="m1.76,99.4c8.77-26.6,9.49-32.16,12.16-65.58"/><path class="cls-4" d="m63.24,62.22c-2.67,33.42-3.39,38.98-12.16,65.58l1.75-1.01c8.77-26.6,9.49-32.16,12.16-65.58l-1.75,1.01Z"/><polygon class="cls-2" points="63.27 62.26 12.18 32.84 13.93 31.83 65.02 61.25 63.27 62.26"/><path class="cls-5" d="m66.74,62.22c2.67,33.42,3.39,38.98,12.16,65.58l-1.75-1.01c-8.77-26.6-9.49-32.16-12.16-65.58l1.75,1.01Z"/><polygon class="cls-2" points="66.74 62.22 117.83 32.79 116.08 31.78 64.99 61.21 66.74 62.22"/><path class="cls-8" d="m3.53,100.44c8.77-26.6,9.49-32.16,12.16-65.58"/><path class="cls-8" d="m5.29,101.42c8.77-26.6,9.49-32.16,12.16-65.58"/><path class="cls-8" d="m7.05,102.45c8.77-26.6,9.49-32.16,12.16-65.58"/><path class="cls-8" d="m8.81,103.47c8.77-26.6,9.49-32.16,12.16-65.58"/><path class="cls-8" d="m10.58,104.48c8.77-26.6,9.49-32.16,12.16-65.58"/><path class="cls-8" d="m12.34,105.48c8.77-26.6,9.49-32.16,12.16-65.58"/><path class="cls-8" d="m14.1,106.51c8.77-26.6,9.49-32.16,12.16-65.58"/><path class="cls-8" d="m15.87,107.55c8.77-26.6,9.49-32.16,12.16-65.58"/><path class="cls-8" d="m15.87,107.55c8.77-26.6,9.49-32.16,12.16-65.58"/><path class="cls-8" d="m17.63,108.54c8.77-26.6,9.49-32.16,12.16-65.58"/><path class="cls-8" d="m19.39,109.55c8.77-26.6,9.49-32.16,12.16-65.58"/><path class="cls-8" d="m21.15,110.57c8.77-26.6,9.49-32.16,12.16-65.58"/><path class="cls-8" d="m22.92,111.59c8.77-26.6,9.49-32.16,12.16-65.58"/><path class="cls-8" d="m24.68,112.62c8.77-26.6,9.49-32.16,12.16-65.58"/><path class="cls-8" d="m26.44,113.66c8.77-26.6,9.49-32.16,12.16-65.58"/><path class="cls-8" d="m26.44,113.59c8.77-26.6,9.49-32.16,12.16-65.58"/><path class="cls-8" d="m28.2,114.62c8.77-26.6,9.49-32.16,12.16-65.58"/><path class="cls-8" d="m29.97,115.65c8.77-26.6,9.49-32.16,12.16-65.58"/><path class="cls-8" d="m31.73,116.76c8.77-26.6,9.49-32.16,12.16-65.58"/><path class="cls-8" d="m31.73,116.64c8.77-26.6,9.49-32.16,12.16-65.58"/><path class="cls-8" d="m33.49,117.67c8.77-26.6,9.49-32.16,12.16-65.58"/><path class="cls-8" d="m35.26,118.71c8.77-26.6,9.49-32.16,12.16-65.58"/><path class="cls-8" d="m37.02,119.74c8.77-26.6,9.49-32.16,12.16-65.58"/><path class="cls-8" d="m37.02,119.74c8.77-26.6,9.49-32.16,12.16-65.58"/><path class="cls-8" d="m38.78,120.72c8.77-26.6,9.49-32.16,12.16-65.58"/><path class="cls-8" d="m40.54,121.76c8.77-26.6,9.49-32.16,12.16-65.58"/><path class="cls-8" d="m42.37,122.75c8.77-26.6,9.49-32.16,12.16-65.58"/><path class="cls-8" d="m44.13,123.78c8.77-26.6,9.49-32.16,12.16-65.58"/><path class="cls-8" d="m45.89,124.82c8.77-26.6,9.49-32.16,12.16-65.58"/><path class="cls-8" d="m47.65,125.85c8.77-26.6,9.49-32.16,12.16-65.58"/><path class="cls-8" d="m47.65,125.85c8.77-26.6,9.49-32.16,12.16-65.58"/><path class="cls-8" d="m49.42,126.88c8.77-26.6,9.49-32.16,12.16-65.58"/><line class="cls-8" x1=".71" y1="96.28" x2="51.8" y2="125.71"/><line class="cls-8" x1="1.38" y1="94.25" x2="52.47" y2="123.68"/><line class="cls-8" x1="2.02" y1="92.32" x2="53.11" y2="121.74"/><line class="cls-8" x1="2.58" y1="90.43" x2="53.66" y2="119.86"/><line class="cls-8" x1="3.2" y1="88.48" x2="54.29" y2="117.9"/><line class="cls-8" x1="3.75" y1="86.67" x2="54.83" y2="116.09"/><line class="cls-8" x1="4.3" y1="84.77" x2="55.39" y2="114.2"/><line class="cls-8" x1="4.81" y1="83.04" x2="55.9" y2="112.47"/><line class="cls-8" x1="5.29" y1="81.36" x2="56.38" y2="110.78"/><line class="cls-8" x1="5.83" y1="79.45" x2="56.92" y2="108.88"/><line class="cls-8" x1="6.34" y1="77.59" x2="57.43" y2="107.01"/><line class="cls-8" x1="6.75" y1="75.75" x2="57.84" y2="105.17"/><line class="cls-8" x1="7.21" y1="73.96" x2="58.3" y2="103.39"/><line class="cls-8" x1="7.56" y1="72.23" x2="58.65" y2="101.66"/><line class="cls-8" x1="7.95" y1="70.5" x2="59.04" y2="99.93"/><line class="cls-8" x1="8.31" y1="68.63" x2="59.39" y2="98.05"/><line class="cls-8" x1="8.56" y1="66.61" x2="59.65" y2="96.04"/><line class="cls-8" x1="9.01" y1="64.59" x2="60.1" y2="94.02"/><line class="cls-8" x1="9.27" y1="62.45" x2="60.35" y2="91.87"/><line class="cls-8" x1="12.03" y1="34.41" x2="63.12" y2="63.83"/><line class="cls-8" x1="9.79" y1="58.4" x2="60.88" y2="87.83"/><line class="cls-8" x1="10.13" y1="56.18" x2="61.22" y2="85.6"/><line class="cls-8" x1="10.33" y1="53.95" x2="61.42" y2="83.38"/><line class="cls-8" x1="10.49" y1="52.03" x2="61.58" y2="81.45"/><line class="cls-8" x1="10.73" y1="50.1" x2="61.82" y2="79.52"/><line class="cls-8" x1="10.88" y1="48.17" x2="61.97" y2="77.6"/><line class="cls-8" x1="11.02" y1="46.23" x2="62.11" y2="75.66"/><line class="cls-8" x1="11.23" y1="44.34" x2="62.32" y2="73.77"/><line class="cls-8" x1="11.37" y1="42.46" x2="62.46" y2="71.89"/><line class="cls-8" x1="11.54" y1="40.63" x2="62.63" y2="70.05"/><line class="cls-8" x1="11.69" y1="38.62" x2="62.78" y2="68.05"/><line class="cls-8" x1="11.88" y1="36.64" x2="62.97" y2="66.07"/><line class="cls-8" x1="9.53" y1="60.47" x2="60.62" y2="89.9"/><path class="cls-1" d="m117.83,32.79l-51.09,29.43c2.67,33.42,3.39,38.98,12.16,65.58l51.09-29.43c-8.77-26.6-9.49-32.16-12.16-65.58Z"/><path class="cls-7" d="m128.22,99.4c-8.77-26.6-9.49-32.16-12.16-65.58"/><path class="cls-7" d="m126.46,100.44c-8.77-26.6-9.49-32.16-12.16-65.58"/><path class="cls-7" d="m124.7,101.42c-8.77-26.6-9.49-32.16-12.16-65.58"/><path class="cls-7" d="m122.94,102.45c-8.77-26.6-9.49-32.16-12.16-65.58"/><path class="cls-7" d="m121.17,103.47c-8.77-26.6-9.49-32.16-12.16-65.58"/><path class="cls-7" d="m119.41,104.48c-8.77-26.6-9.49-32.16-12.16-65.58"/><path class="cls-7" d="m117.65,105.48c-8.77-26.6-9.49-32.16-12.16-65.58"/><path class="cls-7" d="m115.88,106.51c-8.77-26.6-9.49-32.16-12.16-65.58"/><path class="cls-7" d="m114.12,107.55c-8.77-26.6-9.49-32.16-12.16-65.58"/><path class="cls-7" d="m114.12,107.55c-8.77-26.6-9.49-32.16-12.16-65.58"/><path class="cls-7" d="m112.36,108.54c-8.77-26.6-9.49-32.16-12.16-65.58"/><path class="cls-7" d="m110.6,109.55c-8.77-26.6-9.49-32.16-12.16-65.58"/><path class="cls-7" d="m108.83,110.57c-8.77-26.6-9.49-32.16-12.16-65.58"/><path class="cls-7" d="m107.07,111.59c-8.77-26.6-9.49-32.16-12.16-65.58"/><path class="cls-7" d="m105.31,112.62c-8.77-26.6-9.49-32.16-12.16-65.58"/><path class="cls-7" d="m103.55,113.66c-8.77-26.6-9.49-32.16-12.16-65.58"/><path class="cls-7" d="m103.55,113.59c-8.77-26.6-9.49-32.16-12.16-65.58"/><path class="cls-7" d="m101.78,114.62c-8.77-26.6-9.49-32.16-12.16-65.58"/><path class="cls-7" d="m100.02,115.65c-8.77-26.6-9.49-32.16-12.16-65.58"/><path class="cls-7" d="m98.26,116.76c-8.77-26.6-9.49-32.16-12.16-65.58"/><path class="cls-7" d="m98.26,116.64c-8.77-26.6-9.49-32.16-12.16-65.58"/><path class="cls-7" d="m96.49,117.67c-8.77-26.6-9.49-32.16-12.16-65.58"/><path class="cls-7" d="m94.73,118.71c-8.77-26.6-9.49-32.16-12.16-65.58"/><path class="cls-7" d="m92.97,119.74c-8.77-26.6-9.49-32.16-12.16-65.58"/><path class="cls-7" d="m92.97,119.74c-8.77-26.6-9.49-32.16-12.16-65.58"/><path class="cls-7" d="m91.21,120.72c-8.77-26.6-9.49-32.16-12.16-65.58"/><path class="cls-7" d="m89.44,121.76c-8.77-26.6-9.49-32.16-12.16-65.58"/><path class="cls-7" d="m87.62,122.75c-8.77-26.6-9.49-32.16-12.16-65.58"/><path class="cls-7" d="m85.86,123.78c-8.77-26.6-9.49-32.16-12.16-65.58"/><path class="cls-7" d="m84.1,124.82c-8.77-26.6-9.49-32.16-12.16-65.58"/><path class="cls-7" d="m82.33,125.85c-8.77-26.6-9.49-32.16-12.16-65.58"/><path class="cls-7" d="m82.33,125.85c-8.77-26.6-9.49-32.16-12.16-65.58"/><path class="cls-7" d="m80.57,126.88c-8.77-26.6-9.49-32.16-12.16-65.58"/><line class="cls-7" x1="129.27" y1="96.28" x2="78.18" y2="125.71"/><line class="cls-7" x1="128.61" y1="94.25" x2="77.52" y2="123.68"/><line class="cls-7" x1="127.96" y1="92.32" x2="76.88" y2="121.74"/><line class="cls-7" x1="127.41" y1="90.43" x2="76.32" y2="119.86"/><line class="cls-7" x1="126.79" y1="88.48" x2="75.7" y2="117.9"/><line class="cls-7" x1="126.24" y1="86.67" x2="75.15" y2="116.09"/><line class="cls-7" x1="125.68" y1="84.77" x2="74.6" y2="114.2"/><line class="cls-7" x1="125.17" y1="83.04" x2="74.09" y2="112.47"/><line class="cls-7" x1="124.7" y1="81.36" x2="73.61" y2="110.78"/><line class="cls-7" x1="124.16" y1="79.45" x2="73.07" y2="108.88"/><line class="cls-7" x1="123.64" y1="77.59" x2="72.56" y2="107.01"/><line class="cls-7" x1="123.23" y1="75.75" x2="72.15" y2="105.17"/><line class="cls-7" x1="122.78" y1="73.96" x2="71.69" y2="103.39"/><line class="cls-7" x1="122.42" y1="72.23" x2="71.34" y2="101.66"/><line class="cls-7" x1="122.04" y1="70.5" x2="70.95" y2="99.93"/><line class="cls-7" x1="121.68" y1="68.63" x2="70.59" y2="98.05"/><line class="cls-7" x1="121.43" y1="66.61" x2="70.34" y2="96.04"/><line class="cls-7" x1="120.97" y1="64.59" x2="69.89" y2="94.02"/><line class="cls-7" x1="120.72" y1="62.45" x2="69.63" y2="91.87"/><line class="cls-7" x1="120.46" y1="60.47" x2="69.37" y2="89.9"/><line class="cls-7" x1="120.2" y1="58.4" x2="69.11" y2="87.83"/><line class="cls-7" x1="119.85" y1="56.18" x2="68.77" y2="85.6"/><line class="cls-7" x1="119.66" y1="53.95" x2="68.57" y2="83.38"/><line class="cls-7" x1="119.5" y1="52.03" x2="68.41" y2="81.45"/><line class="cls-7" x1="119.26" y1="50.1" x2="68.17" y2="79.52"/><line class="cls-7" x1="119.11" y1="48.17" x2="68.02" y2="77.6"/><line class="cls-7" x1="118.97" y1="46.23" x2="67.88" y2="75.66"/><line class="cls-7" x1="118.75" y1="44.34" x2="67.66" y2="73.77"/><line class="cls-7" x1="118.62" y1="42.46" x2="67.53" y2="71.89"/><line class="cls-7" x1="118.45" y1="40.63" x2="67.36" y2="70.05"/><line class="cls-7" x1="118.29" y1="38.62" x2="67.21" y2="68.05"/><line class="cls-7" x1="118.11" y1="36.64" x2="67.02" y2="66.07"/><line class="cls-7" x1="117.72" y1="34.41" x2="66.64" y2="63.83"/></svg>