<svg width="32" height="33" viewBox="0 0 32 33" fill="none" xmlns="http://www.w3.org/2000/svg">
<path fill-rule="evenodd" clip-rule="evenodd" d="M10.3399 19.6525C10.409 19.5091 10.4708 19.3622 10.5249 19.2125C10.5749 19.0775 10.6149 18.9475 10.6499 18.8225L8.41492 18.6525C8.24492 17.9875 8.07992 17.3175 7.91492 16.6525H10.7049C10.5179 15.7508 10.0713 14.9235 9.41992 14.2725C9.2622 14.116 9.09523 13.969 8.91992 13.8325C8.46478 13.5013 7.95792 13.2479 7.41992 13.0825C7.58492 12.2775 7.74992 11.4725 7.91992 10.6675H18.4599V12.8375H10.7599C11.753 13.8823 12.3961 15.2105 12.5999 16.6375H18.4599V18.8225H12.5649C12.417 19.4548 12.199 20.0686 11.9149 20.6525C11.8249 20.8275 11.7349 20.9975 11.6449 21.1525L10.3399 19.6525Z" fill="white"/>
<path fill-rule="evenodd" clip-rule="evenodd" d="M8.91493 18.6525L9.49993 20.0925C9.38241 20.7602 9.10439 21.3895 8.6898 21.926C8.27521 22.4625 7.73647 22.8903 7.11993 23.1725L10.4999 28.9375H8.89993L5.74493 23.5375H5.58493H2.05493V22.2275H5.58493C6.21737 22.2265 6.83178 22.0167 7.33269 21.6306C7.83361 21.2445 8.19297 20.7038 8.35493 20.0925H2.07993V18.7725H8.38993C8.25465 18.1284 7.90214 17.5505 7.39148 17.1354C6.88082 16.7203 6.24301 16.4933 5.58493 16.4925H2.05493V15.1775V15.1475H7.41493C7.4957 16.4524 8.02571 17.689 8.91493 18.6475V18.6525Z" fill="white"/>
<g style="mix-blend-mode:multiply">
<path fill-rule="evenodd" clip-rule="evenodd" d="M10.3399 19.6525C10.409 19.5091 10.4708 19.3622 10.5249 19.2125C10.5749 19.0775 10.6149 18.9475 10.6499 18.8225L8.41492 18.6525C8.24492 17.9875 8.07992 17.3175 7.91492 16.6525H10.7049C10.5179 15.7508 10.0713 14.9235 9.41992 14.2725C9.2622 14.116 9.09523 13.969 8.91992 13.8325C8.46478 13.5013 7.95792 13.2479 7.41992 13.0825C7.58492 12.2775 7.74992 11.4725 7.91992 10.6675H18.4599V12.8375H10.7599C11.753 13.8823 12.3961 15.2105 12.5999 16.6375H18.4599V18.8225H12.5649C12.417 19.4548 12.199 20.0686 11.9149 20.6525C11.8249 20.8275 11.7349 20.9975 11.6449 21.1525L10.3399 19.6525Z" fill="#36A168"/>
</g>
<path opacity="0.3" d="M15.5 21.6528C19.9183 21.6528 23.5 18.0711 23.5 13.6528C23.5 9.23455 19.9183 5.65283 15.5 5.65283C11.0817 5.65283 7.5 9.23455 7.5 13.6528C7.5 18.0711 11.0817 21.6528 15.5 21.6528Z" fill="#B7CDE1"/>
<g style="mix-blend-mode:multiply">
<path fill-rule="evenodd" clip-rule="evenodd" d="M8.91493 18.6525L9.49993 20.0925C9.38241 20.7602 9.10439 21.3895 8.6898 21.926C8.27521 22.4625 7.73647 22.8903 7.11993 23.1725L10.4999 28.9375H8.89993L5.74493 23.5375H5.58493H2.05493V22.2275H5.58493C6.21737 22.2265 6.83178 22.0167 7.33269 21.6306C7.83361 21.2445 8.19297 20.7038 8.35493 20.0925H2.07993V18.7725H8.38993C8.25465 18.1284 7.90214 17.5505 7.39148 17.1354C6.88082 16.7203 6.24301 16.4933 5.58493 16.4925H2.05493V15.1775V15.1475H7.41493C7.4957 16.4524 8.02571 17.689 8.91493 18.6475V18.6525Z" fill="#36A168"/>
</g>
<path d="M29.2052 25.8223L22.8902 19.5073C24.356 17.6291 25.0605 15.2675 24.8633 12.8932C24.666 10.5189 23.5815 8.30597 21.8258 6.69541C20.0701 5.08484 17.7721 4.19483 15.3896 4.20269C13.0071 4.21054 10.715 5.11569 8.96991 6.73779C7.22486 8.35989 6.15497 10.5799 5.97338 12.9555C5.79179 15.3311 6.51183 17.6879 7.99006 19.5564C9.4683 21.4249 11.5962 22.6679 13.9498 23.0378C16.3035 23.4076 18.7101 22.8773 20.6902 21.5523L27.0852 27.9373C27.178 28.0302 27.2883 28.104 27.4097 28.1543C27.5311 28.2046 27.6613 28.2305 27.7927 28.2305C27.9241 28.2305 28.0542 28.2046 28.1756 28.1543C28.297 28.104 28.4073 28.0302 28.5002 27.9373L29.2052 27.2273C29.3899 27.0401 29.4935 26.7877 29.4935 26.5248C29.4935 26.2618 29.3899 26.0094 29.2052 25.8223V25.8223ZM7.59017 13.6523C7.59017 12.1046 8.0491 10.5917 8.90892 9.30492C9.76874 8.0181 10.9908 7.01515 12.4207 6.42289C13.8505 5.83064 15.4239 5.67568 16.9418 5.97761C18.4597 6.27954 19.8539 7.0248 20.9483 8.11914C22.0426 9.21349 22.7879 10.6078 23.0898 12.1257C23.3917 13.6436 23.2368 15.2169 22.6445 16.6468C22.0523 18.0766 21.0493 19.2987 19.7625 20.1585C18.4757 21.0183 16.9628 21.4773 15.4152 21.4773C13.3399 21.4773 11.3495 20.6528 9.88206 19.1854C8.41459 17.7179 7.59017 15.7276 7.59017 13.6523V13.6523Z" fill="#B7CDE1"/>
</svg>
