<svg viewBox="0 0 472 280" fill="none"
    xmlns="http://www.w3.org/2000/svg">
    <rect rx="12" fill="white"/>
    <path d="M1.122 18V6.1H3.468L8.568 14.362V6.1H10.727V18H8.381L3.298 9.755V18H1.122ZM16.2051 9.296C18.4491 9.296 19.9791 10.503 19.9791 12.781V18H17.9051V16.759C17.4291 17.592 16.3921 18.136 15.3381 18.136C13.6551 18.136 12.4821 17.048 12.4821 15.586C12.4821 13.903 13.7571 13.002 16.3071 12.73L17.9051 12.577V12.492C17.9051 11.523 17.2421 10.928 16.2051 10.928C15.2701 10.928 14.6071 11.506 14.5051 12.424L12.6011 12.084C12.8731 10.384 14.3861 9.296 16.2051 9.296ZM15.8141 16.555C17.1401 16.555 17.9051 15.552 17.9051 14.294V14.107L16.2731 14.294C15.1341 14.43 14.5561 14.906 14.5561 15.518C14.5561 16.113 15.0321 16.555 15.8141 16.555ZM22.0712 18V9.432H24.2132V10.741C24.6892 9.891 25.4882 9.296 26.6782 9.296C28.0382 9.296 28.9562 9.874 29.3472 10.911C29.8062 10.044 30.8262 9.296 32.1862 9.296C34.0392 9.296 35.2462 10.503 35.2462 12.186V18H33.1042V12.781C33.1042 11.761 32.5432 11.115 31.5402 11.115C30.3842 11.115 29.7212 12.118 29.7212 13.631V18H27.5792V12.781C27.5792 11.761 27.0352 11.115 26.0492 11.115C24.8762 11.115 24.2132 12.135 24.2132 13.648V18H22.0712ZM38.399 8.123C37.634 8.123 37.073 7.545 37.073 6.797C37.073 6.066 37.634 5.488 38.399 5.488C39.181 5.488 39.759 6.066 39.759 6.797C39.759 7.545 39.181 8.123 38.399 8.123ZM37.328 18V9.432H39.47V18H37.328ZM41.5448 18V9.432H43.6868V10.724C44.2308 9.891 45.1998 9.296 46.4068 9.296C48.2768 9.296 49.5348 10.52 49.5348 12.39V18H47.3928V12.9C47.3928 11.897 46.7638 11.2 45.7608 11.2C44.4518 11.2 43.6868 12.322 43.6868 14.243V18H41.5448ZM56.1614 16.198C58.1334 16.198 59.3234 17.031 59.3234 18.595C59.3234 20.499 57.4534 21.23 55.1584 21.23C52.6424 21.23 50.9934 20.431 50.9934 18.765C50.9934 18.17 51.3334 17.541 51.8264 17.133C51.4694 16.81 51.2654 16.402 51.2654 15.909C51.2654 15.093 51.7584 14.515 52.5064 14.192C52.0134 13.682 51.7414 13.019 51.7414 12.237C51.7414 10.469 53.1354 9.296 55.1414 9.296C55.7194 9.296 56.2464 9.398 56.7054 9.585L57.9634 8.276L59.2044 9.432L58.0654 10.622C58.3714 11.064 58.5584 11.625 58.5584 12.237C58.5584 14.005 57.1644 15.161 55.1414 15.161C54.6824 15.161 54.2404 15.093 53.8494 14.991C53.4754 15.178 53.3054 15.399 53.3054 15.654C53.3054 16.045 53.6624 16.198 54.1554 16.198H56.1614ZM55.1414 10.945C54.3424 10.945 53.7304 11.438 53.7304 12.237C53.7304 13.019 54.3424 13.512 55.1414 13.512C55.9234 13.512 56.5524 13.019 56.5524 12.237C56.5524 11.438 55.9234 10.945 55.1414 10.945ZM55.1584 19.513C56.6034 19.513 57.2494 19.207 57.2494 18.629C57.2494 18.017 56.6884 17.864 55.8044 17.864H54.2234C53.9514 17.864 53.6794 17.847 53.4244 17.796C53.1524 18.085 53.0674 18.34 53.0674 18.646C53.0674 19.224 53.6454 19.513 55.1584 19.513ZM68.6468 18.136C66.0798 18.136 64.2948 16.334 64.2948 13.716C64.2948 11.098 66.0798 9.296 68.6468 9.296C70.8398 9.296 72.3868 10.435 72.6758 12.254L70.5848 12.662C70.4318 11.761 69.7178 11.149 68.7148 11.149C67.3888 11.149 66.5218 12.152 66.5218 13.716C66.5218 15.28 67.3888 16.283 68.7148 16.283C69.7178 16.283 70.3808 15.739 70.5848 14.821L72.6758 15.246C72.3528 17.048 70.8058 18.136 68.6468 18.136ZM78.2951 18.136C75.6941 18.136 73.8241 16.266 73.8241 13.716C73.8241 11.166 75.6941 9.296 78.2951 9.296C80.8961 9.296 82.7661 11.166 82.7661 13.716C82.7661 16.266 80.8961 18.136 78.2951 18.136ZM78.2951 16.283C79.6721 16.283 80.6071 15.246 80.6071 13.716C80.6071 12.186 79.6721 11.149 78.2951 11.149C76.9011 11.149 75.9831 12.186 75.9831 13.716C75.9831 15.246 76.9011 16.283 78.2951 16.283ZM84.3768 18V9.432H86.5188V10.724C87.0628 9.891 88.0318 9.296 89.2388 9.296C91.1088 9.296 92.3668 10.52 92.3668 12.39V18H90.2248V12.9C90.2248 11.897 89.5958 11.2 88.5928 11.2C87.2838 11.2 86.5188 12.322 86.5188 14.243V18H84.3768ZM96.2992 18L93.1712 9.432H95.3302L97.2852 15.518L99.2402 9.432H101.416L98.2882 18H96.2992ZM110.299 13.427C110.299 13.733 110.282 14.107 110.265 14.277H103.907C104.094 15.569 104.927 16.334 106.151 16.334C107.154 16.334 107.868 15.858 108.089 15.025L110.095 15.569C109.619 17.184 108.123 18.136 106.117 18.136C103.278 18.136 101.765 15.943 101.765 13.716C101.765 11.489 103.159 9.296 105.998 9.296C108.888 9.296 110.299 11.438 110.299 13.427ZM103.958 12.713H108.004C107.902 11.693 107.239 10.928 105.998 10.928C104.944 10.928 104.196 11.557 103.958 12.713ZM111.919 18V9.432H114.061V10.724C114.605 9.891 115.574 9.296 116.781 9.296C118.651 9.296 119.909 10.52 119.909 12.39V18H117.767V12.9C117.767 11.897 117.138 11.2 116.135 11.2C114.826 11.2 114.061 12.322 114.061 14.243V18H111.919ZM126.78 17.915C126.355 18.068 125.896 18.136 125.403 18.136C123.669 18.136 122.377 17.201 122.377 15.195V11.234H120.932V9.432H122.377V6.916H124.519V9.432H126.678V11.234H124.519V14.991C124.519 15.807 124.961 16.249 125.624 16.249C125.947 16.249 126.321 16.198 126.627 16.045L126.78 17.915ZM129.326 8.123C128.561 8.123 128 7.545 128 6.797C128 6.066 128.561 5.488 129.326 5.488C130.108 5.488 130.686 6.066 130.686 6.797C130.686 7.545 130.108 8.123 129.326 8.123ZM128.255 18V9.432H130.397V18H128.255ZM136.484 18.136C133.883 18.136 132.013 16.266 132.013 13.716C132.013 11.166 133.883 9.296 136.484 9.296C139.085 9.296 140.955 11.166 140.955 13.716C140.955 16.266 139.085 18.136 136.484 18.136ZM136.484 16.283C137.861 16.283 138.796 15.246 138.796 13.716C138.796 12.186 137.861 11.149 136.484 11.149C135.09 11.149 134.172 12.186 134.172 13.716C134.172 15.246 135.09 16.283 136.484 16.283ZM142.565 18V9.432H144.707V10.724C145.251 9.891 146.22 9.296 147.427 9.296C149.297 9.296 150.555 10.52 150.555 12.39V18H148.413V12.9C148.413 11.897 147.784 11.2 146.781 11.2C145.472 11.2 144.707 12.322 144.707 14.243V18H142.565Z" fill="#20014B"/>
    <path d="M3.696 51L0.288 39.8H1.792L4.464 49.32L7.168 39.8H8.688L11.376 49.32L14.048 39.8H15.552L12.16 51H10.624L7.936 41.976L5.216 51H3.696ZM16.9478 51V39.672H18.3078V44.52C18.8998 43.368 19.8758 42.808 21.0598 42.808C22.8838 42.808 24.0838 43.944 24.0838 45.688V51H22.7238V45.944C22.7238 44.76 21.9878 44.04 20.7558 44.04C19.2678 44.04 18.3078 45.384 18.3078 47.544V51H16.9478ZM33.5875 46.6C33.5875 46.792 33.5715 47.08 33.5555 47.224H27.1875C27.2835 48.856 28.3075 49.928 29.7635 49.928C30.9955 49.928 31.8435 49.352 32.0835 48.344L33.3635 48.648C32.9635 50.216 31.6195 51.128 29.7635 51.128C27.3475 51.128 25.8275 49.256 25.8275 46.968C25.8275 44.68 27.2995 42.808 29.7315 42.808C32.1155 42.808 33.5875 44.52 33.5875 46.6ZM27.2675 46.088H32.1475C32.0195 44.856 31.1555 43.944 29.7315 43.944C28.4675 43.944 27.5395 44.744 27.2675 46.088ZM35.3384 51V42.936H36.6984V44.456C37.2584 43.496 38.2344 42.808 39.4664 42.808C41.1464 42.808 42.3464 43.944 42.3464 45.656V51H40.9864V45.912C40.9864 44.824 40.2984 44.04 39.1624 44.04C37.6584 44.04 36.6984 45.336 36.6984 47.464V51H35.3384ZM48.4165 51V42.936H49.7765V44.456C50.3365 43.496 51.3125 42.808 52.5445 42.808C54.2245 42.808 55.4245 43.944 55.4245 45.656V51H54.0645V45.912C54.0645 44.824 53.3765 44.04 52.2405 44.04C50.7365 44.04 49.7765 45.336 49.7765 47.464V51H48.4165ZM60.6432 42.808C62.5953 42.808 63.9553 43.96 63.9553 45.832V51H62.6113V49.624C62.1473 50.552 61.0913 51.128 59.9233 51.128C58.3073 51.128 57.2033 50.136 57.2033 48.744C57.2033 47.192 58.4673 46.344 61.0433 46.088L62.6113 45.912V45.752C62.6113 44.648 61.8273 43.944 60.6432 43.944C59.5393 43.944 58.7553 44.6 58.6432 45.688L57.3793 45.448C57.6193 43.848 58.9473 42.808 60.6432 42.808ZM60.1313 50.008C61.6993 50.008 62.6113 48.968 62.6113 47.352V46.968L61.0433 47.144C59.4113 47.32 58.5633 47.88 58.5633 48.728C58.5633 49.48 59.2033 50.008 60.1313 50.008ZM66.1665 51V42.936H67.5265V44.456C67.9265 43.496 68.7265 42.808 69.9585 42.808C71.2705 42.808 72.2945 43.416 72.5825 44.504C73.0145 43.544 73.9745 42.808 75.1905 42.808C76.9185 42.808 78.0065 43.896 78.0065 45.592V51H76.6465V45.864C76.6465 44.76 76.0225 44.008 74.8865 44.008C73.5105 44.008 72.7585 45.24 72.7585 46.952V51H71.3985V45.864C71.3985 44.76 70.7745 44.008 69.6545 44.008C68.2785 44.008 67.5265 45.24 67.5265 46.952V51H66.1665ZM80.8854 41.416C80.3414 41.416 79.9414 41 79.9414 40.472C79.9414 39.928 80.3414 39.512 80.8854 39.512C81.4454 39.512 81.8614 39.928 81.8614 40.472C81.8614 41 81.4454 41.416 80.8854 41.416ZM80.2134 51V42.936H81.5734V51H80.2134ZM83.7759 51V42.936H85.1359V44.456C85.6959 43.496 86.6719 42.808 87.9039 42.808C89.5839 42.808 90.7839 43.944 90.7839 45.656V51H89.4239V45.912C89.4239 44.824 88.7359 44.04 87.5999 44.04C86.0959 44.04 85.1359 45.336 85.1359 47.464V51H83.7759ZM97.1386 49.432C98.7546 49.432 99.8746 50.104 99.8746 51.592C99.8746 53.208 98.3706 54.04 96.1626 54.04C93.8746 54.04 92.4506 53.224 92.4506 51.736C92.4506 51.032 92.8346 50.456 93.3146 50.088C92.9146 49.816 92.6746 49.416 92.6746 48.84C92.6746 48.136 93.1386 47.608 93.7626 47.32C93.3306 46.856 93.0906 46.248 93.0906 45.528C93.0906 43.896 94.4026 42.808 96.1466 42.808C96.6746 42.808 97.1706 42.92 97.6186 43.128L98.8826 42.04L99.6666 42.936L98.5946 43.848C98.9786 44.296 99.2026 44.872 99.2026 45.528C99.2026 47.192 97.9066 48.248 96.1466 48.248C95.5706 48.248 95.0746 48.136 94.6426 47.944C94.1786 48.152 93.9866 48.424 93.9866 48.76C93.9866 49.256 94.4506 49.432 94.9786 49.432H97.1386ZM96.1466 43.912C95.2186 43.912 94.4186 44.52 94.4186 45.528C94.4186 46.552 95.2186 47.144 96.1466 47.144C97.0746 47.144 97.8746 46.552 97.8746 45.528C97.8746 44.52 97.0746 43.912 96.1466 43.912ZM96.1626 52.888C97.6986 52.888 98.5466 52.456 98.5466 51.688C98.5466 50.824 97.9066 50.536 96.9466 50.536H95.2346C94.9466 50.536 94.6746 50.52 94.4186 50.488C93.9226 50.824 93.7786 51.256 93.7786 51.72C93.7786 52.456 94.5946 52.888 96.1626 52.888ZM105.932 41.416C105.388 41.416 104.988 41 104.988 40.472C104.988 39.928 105.388 39.512 105.932 39.512C106.492 39.512 106.908 39.928 106.908 40.472C106.908 41 106.492 41.416 105.932 41.416ZM105.26 51V42.936H106.62V51H105.26ZM112.359 51.128C109.959 51.128 108.359 49.464 108.359 46.968C108.359 44.472 109.959 42.808 112.359 42.808C114.231 42.808 115.607 43.832 115.895 45.432L114.551 45.704C114.375 44.728 113.527 44.024 112.391 44.024C110.807 44.024 109.783 45.192 109.783 46.968C109.783 48.744 110.807 49.912 112.391 49.912C113.527 49.912 114.359 49.288 114.583 48.216L115.911 48.488C115.559 50.152 114.215 51.128 112.359 51.128ZM121.236 51.128C118.836 51.128 117.14 49.384 117.14 46.968C117.14 44.552 118.836 42.808 121.236 42.808C123.62 42.808 125.348 44.552 125.348 46.968C125.348 49.384 123.62 51.128 121.236 51.128ZM121.236 49.912C122.852 49.912 123.94 48.696 123.94 46.968C123.94 45.24 122.852 44.024 121.236 44.024C119.62 44.024 118.532 45.24 118.532 46.968C118.532 48.696 119.62 49.912 121.236 49.912ZM127.088 51V42.936H128.448V44.456C129.008 43.496 129.984 42.808 131.216 42.808C132.896 42.808 134.096 43.944 134.096 45.656V51H132.736V45.912C132.736 44.824 132.048 44.04 130.912 44.04C129.408 44.04 128.448 45.336 128.448 47.464V51H127.088ZM139.011 51.128C137.059 51.128 136.003 49.912 135.651 48.776L136.819 48.264C137.123 49.208 137.763 49.976 139.011 49.976C140.003 49.976 140.643 49.4 140.643 48.744C140.643 46.68 136.003 48.008 136.003 44.952C136.003 43.672 137.107 42.808 138.835 42.808C140.259 42.808 141.491 43.608 141.827 44.792L140.691 45.288C140.467 44.456 139.667 43.928 138.803 43.928C137.891 43.928 137.315 44.296 137.315 44.936C137.315 46.664 141.987 45.4 141.971 48.728C141.971 50.136 140.787 51.128 139.011 51.128ZM142.729 52.696L143.657 49.336H145.481L143.689 52.696H142.729ZM155.338 51.128C154.154 51.128 153.082 50.568 152.714 49.832V51H151.354V39.672H152.714V44.088C153.226 43.336 154.282 42.808 155.354 42.808C157.85 42.808 159.226 44.6 159.226 46.968C159.226 49.336 157.85 51.128 155.338 51.128ZM155.21 49.912C156.794 49.912 157.834 48.744 157.834 46.968C157.834 45.192 156.794 44.024 155.21 44.024C153.626 44.024 152.602 45.192 152.602 46.968C152.602 48.744 153.626 49.912 155.21 49.912ZM168.259 46.6C168.259 46.792 168.243 47.08 168.227 47.224H161.859C161.955 48.856 162.979 49.928 164.435 49.928C165.667 49.928 166.515 49.352 166.755 48.344L168.035 48.648C167.635 50.216 166.291 51.128 164.435 51.128C162.019 51.128 160.499 49.256 160.499 46.968C160.499 44.68 161.971 42.808 164.403 42.808C166.787 42.808 168.259 44.52 168.259 46.6ZM161.939 46.088H166.819C166.691 44.856 165.827 43.944 164.403 43.944C163.139 43.944 162.211 44.744 161.939 46.088ZM176.574 51.128C174.622 51.128 173.566 49.912 173.214 48.776L174.382 48.264C174.686 49.208 175.326 49.976 176.574 49.976C177.566 49.976 178.206 49.4 178.206 48.744C178.206 46.68 173.566 48.008 173.566 44.952C173.566 43.672 174.67 42.808 176.398 42.808C177.822 42.808 179.054 43.608 179.39 44.792L178.254 45.288C178.03 44.456 177.23 43.928 176.366 43.928C175.454 43.928 174.878 44.296 174.878 44.936C174.878 46.664 179.55 45.4 179.534 48.728C179.534 50.136 178.35 51.128 176.574 51.128ZM188.268 42.936V51H186.908V49.48C186.348 50.44 185.372 51.128 184.14 51.128C182.46 51.128 181.26 49.992 181.26 48.28V42.936H182.62V48.024C182.62 49.112 183.308 49.896 184.444 49.896C185.948 49.896 186.908 48.6 186.908 46.472V42.936H188.268ZM195.199 44.264C194.895 44.136 194.511 44.072 194.159 44.072C192.879 44.072 191.839 45.304 191.839 47.928V51H190.479V42.936H191.839V44.568C192.303 43.544 193.359 42.808 194.351 42.808C194.687 42.808 195.007 42.856 195.279 42.952L195.199 44.264ZM203.525 46.6C203.525 46.792 203.509 47.08 203.493 47.224H197.125C197.221 48.856 198.245 49.928 199.701 49.928C200.933 49.928 201.781 49.352 202.021 48.344L203.301 48.648C202.901 50.216 201.557 51.128 199.701 51.128C197.285 51.128 195.765 49.256 195.765 46.968C195.765 44.68 197.237 42.808 199.669 42.808C202.053 42.808 203.525 44.52 203.525 46.6ZM197.205 46.088H202.085C201.957 44.856 201.093 43.944 199.669 43.944C198.405 43.944 197.477 44.744 197.205 46.088ZM213.423 50.936C213.023 51.08 212.591 51.128 212.159 51.128C210.783 51.128 209.775 50.36 209.775 48.584V44.136H208.271V42.936H209.775V40.488H211.135V42.936H213.295V44.136H211.135V48.632C211.135 49.48 211.615 49.896 212.319 49.896C212.639 49.896 213.007 49.848 213.327 49.688L213.423 50.936ZM218.439 51.128C216.039 51.128 214.343 49.384 214.343 46.968C214.343 44.552 216.039 42.808 218.439 42.808C220.823 42.808 222.551 44.552 222.551 46.968C222.551 49.384 220.823 51.128 218.439 51.128ZM218.439 49.912C220.055 49.912 221.143 48.696 221.143 46.968C221.143 45.24 220.055 44.024 218.439 44.024C216.823 44.024 215.735 45.24 215.735 46.968C215.735 48.696 216.823 49.912 218.439 49.912ZM235.159 42.936V51H233.799V49.48C233.239 50.44 232.263 51.128 231.031 51.128C229.351 51.128 228.151 49.992 228.151 48.28V42.936H229.511V48.024C229.511 49.112 230.199 49.896 231.335 49.896C232.839 49.896 233.799 48.6 233.799 46.472V42.936H235.159ZM240.074 51.128C238.122 51.128 237.066 49.912 236.714 48.776L237.882 48.264C238.186 49.208 238.826 49.976 240.074 49.976C241.066 49.976 241.706 49.4 241.706 48.744C241.706 46.68 237.066 48.008 237.066 44.952C237.066 43.672 238.17 42.808 239.898 42.808C241.322 42.808 242.554 43.608 242.89 44.792L241.754 45.288C241.53 44.456 240.73 43.928 239.866 43.928C238.954 43.928 238.378 44.296 238.378 44.936C238.378 46.664 243.05 45.4 243.034 48.728C243.034 50.136 241.85 51.128 240.074 51.128ZM251.994 46.6C251.994 46.792 251.978 47.08 251.962 47.224H245.594C245.69 48.856 246.714 49.928 248.17 49.928C249.402 49.928 250.25 49.352 250.49 48.344L251.77 48.648C251.37 50.216 250.026 51.128 248.17 51.128C245.754 51.128 244.234 49.256 244.234 46.968C244.234 44.68 245.706 42.808 248.138 42.808C250.522 42.808 251.994 44.52 251.994 46.6ZM245.674 46.088H250.554C250.426 44.856 249.562 43.944 248.138 43.944C246.874 43.944 245.946 44.744 245.674 46.088ZM261.892 50.936C261.492 51.08 261.06 51.128 260.628 51.128C259.252 51.128 258.244 50.36 258.244 48.584V44.136H256.74V42.936H258.244V40.488H259.604V42.936H261.764V44.136H259.604V48.632C259.604 49.48 260.084 49.896 260.788 49.896C261.108 49.896 261.476 49.848 261.796 49.688L261.892 50.936ZM264.151 41.416C263.607 41.416 263.207 41 263.207 40.472C263.207 39.928 263.607 39.512 264.151 39.512C264.711 39.512 265.127 39.928 265.127 40.472C265.127 41 264.711 41.416 264.151 41.416ZM263.479 51V42.936H264.839V51H263.479ZM271.33 50.936C270.93 51.08 270.498 51.128 270.066 51.128C268.69 51.128 267.682 50.36 267.682 48.584V44.136H266.178V42.936H267.682V40.488H269.042V42.936H271.202V44.136H269.042V48.632C269.042 49.48 269.522 49.896 270.226 49.896C270.546 49.896 270.914 49.848 271.234 49.688L271.33 50.936ZM275.569 51.112C274.129 51.256 273.057 50.712 273.057 49.032V39.672H274.417V48.936C274.417 49.816 274.833 49.944 275.505 49.896L275.569 51.112ZM284.447 46.6C284.447 46.792 284.431 47.08 284.415 47.224H278.047C278.143 48.856 279.167 49.928 280.623 49.928C281.855 49.928 282.703 49.352 282.943 48.344L284.223 48.648C283.823 50.216 282.479 51.128 280.623 51.128C278.207 51.128 276.687 49.256 276.687 46.968C276.687 44.68 278.159 42.808 280.591 42.808C282.975 42.808 284.447 44.52 284.447 46.6ZM278.127 46.088H283.007C282.879 44.856 282.015 43.944 280.591 43.944C279.327 43.944 278.399 44.744 278.127 46.088ZM293.593 51.128C291.193 51.128 289.593 49.464 289.593 46.968C289.593 44.472 291.193 42.808 293.593 42.808C295.465 42.808 296.841 43.832 297.129 45.432L295.785 45.704C295.609 44.728 294.761 44.024 293.625 44.024C292.041 44.024 291.017 45.192 291.017 46.968C291.017 48.744 292.041 49.912 293.625 49.912C294.761 49.912 295.593 49.288 295.817 48.216L297.145 48.488C296.793 50.152 295.449 51.128 293.593 51.128ZM301.768 42.808C303.72 42.808 305.08 43.96 305.08 45.832V51H303.736V49.624C303.272 50.552 302.216 51.128 301.048 51.128C299.432 51.128 298.328 50.136 298.328 48.744C298.328 47.192 299.592 46.344 302.168 46.088L303.736 45.912V45.752C303.736 44.648 302.952 43.944 301.768 43.944C300.664 43.944 299.88 44.6 299.768 45.688L298.504 45.448C298.744 43.848 300.072 42.808 301.768 42.808ZM301.256 50.008C302.824 50.008 303.736 48.968 303.736 47.352V46.968L302.168 47.144C300.536 47.32 299.688 47.88 299.688 48.728C299.688 49.48 300.328 50.008 301.256 50.008ZM309.996 51.128C308.044 51.128 306.988 49.912 306.636 48.776L307.804 48.264C308.108 49.208 308.748 49.976 309.996 49.976C310.988 49.976 311.628 49.4 311.628 48.744C311.628 46.68 306.988 48.008 306.988 44.952C306.988 43.672 308.092 42.808 309.82 42.808C311.244 42.808 312.476 43.608 312.812 44.792L311.676 45.288C311.452 44.456 310.652 43.928 309.788 43.928C308.876 43.928 308.299 44.296 308.299 44.936C308.299 46.664 312.972 45.4 312.956 48.728C312.956 50.136 311.772 51.128 309.996 51.128ZM321.916 46.6C321.916 46.792 321.9 47.08 321.884 47.224H315.516C315.612 48.856 316.636 49.928 318.092 49.928C319.324 49.928 320.172 49.352 320.412 48.344L321.692 48.648C321.292 50.216 319.948 51.128 318.092 51.128C315.676 51.128 314.156 49.256 314.156 46.968C314.156 44.68 315.628 42.808 318.06 42.808C320.444 42.808 321.916 44.52 321.916 46.6ZM315.596 46.088H320.476C320.348 44.856 319.484 43.944 318.06 43.944C316.796 43.944 315.868 44.744 315.596 46.088ZM330.534 42.808C332.486 42.808 333.846 43.96 333.846 45.832V51H332.502V49.624C332.038 50.552 330.982 51.128 329.814 51.128C328.198 51.128 327.094 50.136 327.094 48.744C327.094 47.192 328.358 46.344 330.934 46.088L332.502 45.912V45.752C332.502 44.648 331.718 43.944 330.534 43.944C329.43 43.944 328.646 44.6 328.534 45.688L327.27 45.448C327.51 43.848 328.838 42.808 330.534 42.808ZM330.022 50.008C331.59 50.008 332.502 48.968 332.502 47.352V46.968L330.934 47.144C329.302 47.32 328.454 47.88 328.454 48.728C328.454 49.48 329.094 50.008 330.022 50.008ZM336.057 51V42.936H337.417V44.456C337.977 43.496 338.953 42.808 340.185 42.808C341.865 42.808 343.065 43.944 343.065 45.656V51H341.705V45.912C341.705 44.824 341.017 44.04 339.881 44.04C338.377 44.04 337.417 45.336 337.417 47.464V51H336.057ZM348.7 51.128C346.188 51.128 344.812 49.336 344.812 46.968C344.812 44.6 346.188 42.808 348.684 42.808C349.756 42.808 350.812 43.336 351.324 44.088V39.672H352.684V51H351.324V49.832C350.956 50.568 349.884 51.128 348.7 51.128ZM348.828 49.912C350.412 49.912 351.452 48.744 351.452 46.968C351.452 45.192 350.412 44.024 348.828 44.024C347.244 44.024 346.204 45.192 346.204 46.968C346.204 48.744 347.244 49.912 348.828 49.912ZM362.281 51.128C359.881 51.128 358.281 49.464 358.281 46.968C358.281 44.472 359.881 42.808 362.281 42.808C364.153 42.808 365.529 43.832 365.817 45.432L364.473 45.704C364.297 44.728 363.449 44.024 362.313 44.024C360.729 44.024 359.705 45.192 359.705 46.968C359.705 48.744 360.729 49.912 362.313 49.912C363.449 49.912 364.281 49.288 364.505 48.216L365.833 48.488C365.481 50.152 364.137 51.128 362.281 51.128ZM367.526 51V39.672H368.886V44.52C369.478 43.368 370.454 42.808 371.638 42.808C373.462 42.808 374.662 43.944 374.662 45.688V51H373.302V45.944C373.302 44.76 372.566 44.04 371.334 44.04C369.846 44.04 368.886 45.384 368.886 47.544V51H367.526ZM380.502 51.128C378.102 51.128 376.406 49.384 376.406 46.968C376.406 44.552 378.102 42.808 380.502 42.808C382.886 42.808 384.614 44.552 384.614 46.968C384.614 49.384 382.886 51.128 380.502 51.128ZM380.502 49.912C382.118 49.912 383.206 48.696 383.206 46.968C383.206 45.24 382.118 44.024 380.502 44.024C378.886 44.024 377.798 45.24 377.798 46.968C377.798 48.696 378.886 49.912 380.502 49.912ZM389.986 51.128C387.586 51.128 385.89 49.384 385.89 46.968C385.89 44.552 387.586 42.808 389.986 42.808C392.37 42.808 394.098 44.552 394.098 46.968C394.098 49.384 392.37 51.128 389.986 51.128ZM389.986 49.912C391.602 49.912 392.69 48.696 392.69 46.968C392.69 45.24 391.602 44.024 389.986 44.024C388.37 44.024 387.282 45.24 387.282 46.968C387.282 48.696 388.37 49.912 389.986 49.912ZM398.464 51.128C396.512 51.128 395.456 49.912 395.104 48.776L396.272 48.264C396.576 49.208 397.216 49.976 398.464 49.976C399.456 49.976 400.096 49.4 400.096 48.744C400.096 46.68 395.456 48.008 395.456 44.952C395.456 43.672 396.56 42.808 398.288 42.808C399.712 42.808 400.944 43.608 401.28 44.792L400.144 45.288C399.92 44.456 399.12 43.928 398.256 43.928C397.344 43.928 396.768 44.296 396.768 44.936C396.768 46.664 401.44 45.4 401.424 48.728C401.424 50.136 400.24 51.128 398.464 51.128ZM410.384 46.6C410.384 46.792 410.368 47.08 410.352 47.224H403.984C404.08 48.856 405.104 49.928 406.56 49.928C407.792 49.928 408.64 49.352 408.88 48.344L410.16 48.648C409.76 50.216 408.416 51.128 406.56 51.128C404.144 51.128 402.624 49.256 402.624 46.968C402.624 44.68 404.096 42.808 406.528 42.808C408.912 42.808 410.384 44.52 410.384 46.6ZM404.064 46.088H408.944C408.816 44.856 407.952 43.944 406.528 43.944C405.264 43.944 404.336 44.744 404.064 46.088ZM415.995 51V42.936H417.355V44.456C417.915 43.496 418.891 42.808 420.123 42.808C421.803 42.808 423.003 43.944 423.003 45.656V51H421.643V45.912C421.643 44.824 420.955 44.04 419.819 44.04C418.315 44.04 417.355 45.336 417.355 47.464V51H415.995ZM428.221 42.808C430.173 42.808 431.533 43.96 431.533 45.832V51H430.189V49.624C429.725 50.552 428.669 51.128 427.501 51.128C425.885 51.128 424.781 50.136 424.781 48.744C424.781 47.192 426.045 46.344 428.621 46.088L430.189 45.912V45.752C430.189 44.648 429.405 43.944 428.221 43.944C427.117 43.944 426.333 44.6 426.221 45.688L424.957 45.448C425.197 43.848 426.525 42.808 428.221 42.808ZM427.709 50.008C429.277 50.008 430.189 48.968 430.189 47.352V46.968L428.621 47.144C426.989 47.32 426.141 47.88 426.141 48.728C426.141 49.48 426.781 50.008 427.709 50.008ZM433.745 51V42.936H435.105V44.456C435.505 43.496 436.305 42.808 437.537 42.808C438.849 42.808 439.873 43.416 440.161 44.504C440.593 43.544 441.553 42.808 442.769 42.808C444.497 42.808 445.585 43.896 445.585 45.592V51H444.225V45.864C444.225 44.76 443.601 44.008 442.465 44.008C441.089 44.008 440.337 45.24 440.337 46.952V51H438.977V45.864C438.977 44.76 438.353 44.008 437.233 44.008C435.857 44.008 435.105 45.24 435.105 46.952V51H433.745ZM455.088 46.6C455.088 46.792 455.072 47.08 455.056 47.224H448.688C448.784 48.856 449.808 49.928 451.264 49.928C452.496 49.928 453.344 49.352 453.584 48.344L454.864 48.648C454.464 50.216 453.12 51.128 451.264 51.128C448.848 51.128 447.328 49.256 447.328 46.968C447.328 44.68 448.799 42.808 451.232 42.808C453.616 42.808 455.088 44.52 455.088 46.6ZM448.768 46.088H453.648C453.52 44.856 452.656 43.944 451.232 43.944C449.968 43.944 449.039 44.744 448.768 46.088ZM459.464 51.128C457.512 51.128 456.456 49.912 456.104 48.776L457.272 48.264C457.576 49.208 458.216 49.976 459.464 49.976C460.456 49.976 461.096 49.4 461.096 48.744C461.096 46.68 456.456 48.008 456.456 44.952C456.456 43.672 457.56 42.808 459.288 42.808C460.712 42.808 461.944 43.608 462.28 44.792L461.144 45.288C460.92 44.456 460.12 43.928 459.256 43.928C458.344 43.928 457.768 44.296 457.768 44.936C457.768 46.664 462.44 45.4 462.424 48.728C462.424 50.136 461.24 51.128 459.464 51.128ZM5.392 69.936C4.992 70.08 4.56 70.128 4.128 70.128C2.752 70.128 1.744 69.36 1.744 67.584V63.136H0.24V61.936H1.744V59.488H3.104V61.936H5.264V63.136H3.104V67.632C3.104 68.48 3.584 68.896 4.288 68.896C4.608 68.896 4.976 68.848 5.296 68.688L5.392 69.936ZM7.11963 70V58.672H8.47963V63.52C9.07163 62.368 10.0476 61.808 11.2316 61.808C13.0556 61.808 14.2556 62.944 14.2556 64.688V70H12.8956V64.944C12.8956 63.76 12.1596 63.04 10.9276 63.04C9.43963 63.04 8.47963 64.384 8.47963 66.544V70H7.11963ZM19.4714 61.808C21.4234 61.808 22.7834 62.96 22.7834 64.832V70H21.4394V68.624C20.9754 69.552 19.9194 70.128 18.7514 70.128C17.1354 70.128 16.0314 69.136 16.0314 67.744C16.0314 66.192 17.2954 65.344 19.8714 65.088L21.4394 64.912V64.752C21.4394 63.648 20.6554 62.944 19.4714 62.944C18.3674 62.944 17.5834 63.6 17.4714 64.688L16.2074 64.448C16.4474 62.848 17.7754 61.808 19.4714 61.808ZM18.9594 69.008C20.5274 69.008 21.4394 67.968 21.4394 66.352V65.968L19.8714 66.144C18.2394 66.32 17.3914 66.88 17.3914 67.728C17.3914 68.48 18.0314 69.008 18.9594 69.008ZM29.2358 69.936C28.8358 70.08 28.4038 70.128 27.9718 70.128C26.5958 70.128 25.5878 69.36 25.5878 67.584V63.136H24.0838V61.936H25.5878V59.488H26.9478V61.936H29.1078V63.136H26.9478V67.632C26.9478 68.48 27.4278 68.896 28.1318 68.896C28.4518 68.896 28.8198 68.848 29.1398 68.688L29.2358 69.936ZM38.1061 70.128C35.5941 70.128 34.2181 68.336 34.2181 65.968C34.2181 63.6 35.5941 61.808 38.0901 61.808C39.1621 61.808 40.2181 62.336 40.7301 63.088V58.672H42.0901V70H40.7301V68.832C40.3621 69.568 39.2901 70.128 38.1061 70.128ZM38.2341 68.912C39.8181 68.912 40.8581 67.744 40.8581 65.968C40.8581 64.192 39.8181 63.024 38.2341 63.024C36.6501 63.024 35.6101 64.192 35.6101 65.968C35.6101 67.744 36.6501 68.912 38.2341 68.912ZM51.5875 65.6C51.5875 65.792 51.5715 66.08 51.5555 66.224H45.1875C45.2835 67.856 46.3075 68.928 47.7635 68.928C48.9955 68.928 49.8435 68.352 50.0835 67.344L51.3635 67.648C50.9635 69.216 49.6195 70.128 47.7635 70.128C45.3475 70.128 43.8275 68.256 43.8275 65.968C43.8275 63.68 45.2995 61.808 47.7315 61.808C50.1155 61.808 51.5875 63.52 51.5875 65.6ZM45.2675 65.088H50.1475C50.0195 63.856 49.1555 62.944 47.7315 62.944C46.4675 62.944 45.5395 63.744 45.2675 65.088ZM55.9643 70.128C54.0123 70.128 52.9563 68.912 52.6043 67.776L53.7723 67.264C54.0763 68.208 54.7163 68.976 55.9643 68.976C56.9563 68.976 57.5963 68.4 57.5963 67.744C57.5963 65.68 52.9563 67.008 52.9563 63.952C52.9563 62.672 54.0603 61.808 55.7883 61.808C57.2123 61.808 58.4443 62.608 58.7803 63.792L57.6443 64.288C57.4203 63.456 56.6203 62.928 55.7563 62.928C54.8443 62.928 54.2682 63.296 54.2682 63.936C54.2682 65.664 58.9403 64.4 58.9243 67.728C58.9243 69.136 57.7403 70.128 55.9643 70.128ZM64.1244 70.128C61.7244 70.128 60.1244 68.464 60.1244 65.968C60.1244 63.472 61.7244 61.808 64.1244 61.808C65.9964 61.808 67.3724 62.832 67.6604 64.432L66.3164 64.704C66.1404 63.728 65.2924 63.024 64.1564 63.024C62.5724 63.024 61.5484 64.192 61.5484 65.968C61.5484 67.744 62.5724 68.912 64.1564 68.912C65.2924 68.912 66.1244 68.288 66.3484 67.216L67.6764 67.488C67.3244 69.152 65.9804 70.128 64.1244 70.128ZM74.0896 63.264C73.7856 63.136 73.4016 63.072 73.0496 63.072C71.7696 63.072 70.7296 64.304 70.7296 66.928V70H69.3696V61.936H70.7296V63.568C71.1936 62.544 72.2496 61.808 73.2416 61.808C73.5776 61.808 73.8976 61.856 74.1696 61.952L74.0896 63.264ZM76.1666 60.416C75.6226 60.416 75.2226 60 75.2226 59.472C75.2226 58.928 75.6226 58.512 76.1666 58.512C76.7266 58.512 77.1426 58.928 77.1426 59.472C77.1426 60 76.7266 60.416 76.1666 60.416ZM75.4946 70V61.936H76.8546V70H75.4946ZM83.0411 70.128C81.8571 70.128 80.7851 69.568 80.4171 68.832V70H79.0571V58.672H80.4171V63.088C80.9291 62.336 81.9851 61.808 83.0571 61.808C85.5531 61.808 86.9291 63.6 86.9291 65.968C86.9291 68.336 85.5531 70.128 83.0411 70.128ZM82.9131 68.912C84.4971 68.912 85.5371 67.744 85.5371 65.968C85.5371 64.192 84.4971 63.024 82.9131 63.024C81.3291 63.024 80.3051 64.192 80.3051 65.968C80.3051 67.744 81.3291 68.912 82.9131 68.912ZM95.9625 65.6C95.9625 65.792 95.9465 66.08 95.9305 66.224H89.5625C89.6585 67.856 90.6825 68.928 92.1385 68.928C93.3705 68.928 94.2185 68.352 94.4585 67.344L95.7385 67.648C95.3385 69.216 93.9945 70.128 92.1385 70.128C89.7225 70.128 88.2025 68.256 88.2025 65.968C88.2025 63.68 89.6745 61.808 92.1065 61.808C94.4905 61.808 95.9625 63.52 95.9625 65.6ZM89.6425 65.088H94.5225C94.3945 63.856 93.5305 62.944 92.1065 62.944C90.8425 62.944 89.9145 63.744 89.6425 65.088ZM105.861 69.936C105.461 70.08 105.029 70.128 104.597 70.128C103.221 70.128 102.213 69.36 102.213 67.584V63.136H100.709V61.936H102.213V59.488H103.573V61.936H105.733V63.136H103.573V67.632C103.573 68.48 104.053 68.896 104.757 68.896C105.077 68.896 105.445 68.848 105.765 68.688L105.861 69.936ZM107.588 70V58.672H108.948V63.52C109.54 62.368 110.516 61.808 111.7 61.808C113.524 61.808 114.724 62.944 114.724 64.688V70H113.364V64.944C113.364 63.76 112.628 63.04 111.396 63.04C109.908 63.04 108.948 64.384 108.948 66.544V70H107.588ZM124.228 65.6C124.228 65.792 124.212 66.08 124.196 66.224H117.828C117.924 67.856 118.948 68.928 120.404 68.928C121.636 68.928 122.484 68.352 122.724 67.344L124.004 67.648C123.604 69.216 122.26 70.128 120.404 70.128C117.988 70.128 116.468 68.256 116.468 65.968C116.468 63.68 117.94 61.808 120.372 61.808C122.756 61.808 124.228 63.52 124.228 65.6ZM117.908 65.088H122.788C122.66 63.856 121.796 62.944 120.372 62.944C119.108 62.944 118.18 63.744 117.908 65.088ZM133.47 70.128C131.07 70.128 129.374 68.384 129.374 65.968C129.374 63.552 131.07 61.808 133.47 61.808C135.854 61.808 137.582 63.552 137.582 65.968C137.582 68.384 135.854 70.128 133.47 70.128ZM133.47 68.912C135.086 68.912 136.174 67.696 136.174 65.968C136.174 64.24 135.086 63.024 133.47 63.024C131.854 63.024 130.766 64.24 130.766 65.968C130.766 67.696 131.854 68.912 133.47 68.912ZM143.307 70.128C142.123 70.128 141.051 69.568 140.683 68.832V70H139.323V58.672H140.683V63.088C141.195 62.336 142.251 61.808 143.323 61.808C145.819 61.808 147.195 63.6 147.195 65.968C147.195 68.336 145.819 70.128 143.307 70.128ZM143.179 68.912C144.763 68.912 145.803 67.744 145.803 65.968C145.803 64.192 144.763 63.024 143.179 63.024C141.595 63.024 140.571 64.192 140.571 65.968C140.571 67.744 141.595 68.912 143.179 68.912ZM149.636 60.416C149.092 60.416 148.692 60 148.692 59.472C148.692 58.928 149.092 58.512 149.636 58.512C150.196 58.512 150.612 58.928 150.612 59.472C150.612 60 150.196 60.416 149.636 60.416ZM147.94 73.04C147.828 73.04 147.604 73.024 147.604 73.024L147.572 71.808C147.684 71.824 147.716 71.824 147.796 71.824C148.596 71.824 148.964 71.248 148.964 70.32V61.936H150.324V70.496C150.324 71.984 149.38 73.04 147.94 73.04ZM159.806 65.6C159.806 65.792 159.79 66.08 159.774 66.224H153.406C153.502 67.856 154.526 68.928 155.982 68.928C157.214 68.928 158.062 68.352 158.302 67.344L159.582 67.648C159.182 69.216 157.838 70.128 155.982 70.128C153.566 70.128 152.046 68.256 152.046 65.968C152.046 63.68 153.518 61.808 155.95 61.808C158.334 61.808 159.806 63.52 159.806 65.6ZM153.486 65.088H158.366C158.238 63.856 157.374 62.944 155.95 62.944C154.686 62.944 153.758 63.744 153.486 65.088ZM165.093 70.128C162.693 70.128 161.093 68.464 161.093 65.968C161.093 63.472 162.693 61.808 165.093 61.808C166.965 61.808 168.341 62.832 168.629 64.432L167.285 64.704C167.109 63.728 166.261 63.024 165.125 63.024C163.541 63.024 162.517 64.192 162.517 65.968C162.517 67.744 163.541 68.912 165.125 68.912C166.261 68.912 167.093 68.288 167.317 67.216L168.645 67.488C168.293 69.152 166.949 70.128 165.093 70.128ZM174.517 69.936C174.117 70.08 173.685 70.128 173.253 70.128C171.877 70.128 170.869 69.36 170.869 67.584V63.136H169.365V61.936H170.869V59.488H172.229V61.936H174.389V63.136H172.229V67.632C172.229 68.48 172.709 68.896 173.413 68.896C173.733 68.896 174.101 68.848 174.421 68.688L174.517 69.936ZM178.917 70.128C176.965 70.128 175.909 68.912 175.557 67.776L176.725 67.264C177.029 68.208 177.669 68.976 178.917 68.976C179.909 68.976 180.549 68.4 180.549 67.744C180.549 65.68 175.909 67.008 175.909 63.952C175.909 62.672 177.013 61.808 178.741 61.808C180.165 61.808 181.397 62.608 181.733 63.792L180.597 64.288C180.373 63.456 179.573 62.928 178.709 62.928C177.797 62.928 177.221 63.296 177.221 63.936C177.221 65.664 181.893 64.4 181.877 67.728C181.877 69.136 180.693 70.128 178.917 70.128ZM190.167 70.128C188.215 70.128 187.159 68.912 186.807 67.776L187.975 67.264C188.279 68.208 188.919 68.976 190.167 68.976C191.159 68.976 191.799 68.4 191.799 67.744C191.799 65.68 187.159 67.008 187.159 63.952C187.159 62.672 188.263 61.808 189.991 61.808C191.415 61.808 192.647 62.608 192.983 63.792L191.847 64.288C191.623 63.456 190.823 62.928 189.959 62.928C189.047 62.928 188.471 63.296 188.471 63.936C188.471 65.664 193.143 64.4 193.127 67.728C193.127 69.136 191.943 70.128 190.167 70.128ZM194.854 70V58.672H196.214V63.52C196.806 62.368 197.782 61.808 198.966 61.808C200.79 61.808 201.99 62.944 201.99 64.688V70H200.63V64.944C200.63 63.76 199.894 63.04 198.662 63.04C197.174 63.04 196.214 64.384 196.214 66.544V70H194.854ZM207.83 70.128C205.43 70.128 203.734 68.384 203.734 65.968C203.734 63.552 205.43 61.808 207.83 61.808C210.214 61.808 211.942 63.552 211.942 65.968C211.942 68.384 210.214 70.128 207.83 70.128ZM207.83 68.912C209.446 68.912 210.534 67.696 210.534 65.968C210.534 64.24 209.446 63.024 207.83 63.024C206.214 63.024 205.126 64.24 205.126 65.968C205.126 67.696 206.214 68.912 207.83 68.912ZM215.271 70L212.807 61.936H214.199L215.943 68.096L217.831 61.936H219.143L221.031 68.096L222.759 61.936H224.183L221.703 70H220.375L218.487 63.872L216.599 70H215.271ZM225.698 70V61.936H227.058V63.456C227.618 62.496 228.594 61.808 229.826 61.808C231.506 61.808 232.706 62.944 232.706 64.656V70H231.346V64.912C231.346 63.824 230.658 63.04 229.522 63.04C228.018 63.04 227.058 64.336 227.058 66.464V70H225.698ZM239.448 60.416C238.904 60.416 238.504 60 238.504 59.472C238.504 58.928 238.904 58.512 239.448 58.512C240.008 58.512 240.424 58.928 240.424 59.472C240.424 60 240.008 60.416 239.448 60.416ZM238.776 70V61.936H240.136V70H238.776ZM242.338 70V61.936H243.698V63.456C244.258 62.496 245.234 61.808 246.466 61.808C248.146 61.808 249.346 62.944 249.346 64.656V70H247.986V64.912C247.986 63.824 247.298 63.04 246.162 63.04C244.658 63.04 243.698 64.336 243.698 66.464V70H242.338ZM259.705 69.936C259.305 70.08 258.873 70.128 258.441 70.128C257.065 70.128 256.057 69.36 256.057 67.584V63.136H254.553V61.936H256.057V59.488H257.417V61.936H259.577V63.136H257.417V67.632C257.417 68.48 257.897 68.896 258.601 68.896C258.921 68.896 259.289 68.848 259.609 68.688L259.705 69.936ZM261.432 70V58.672H262.792V63.52C263.384 62.368 264.36 61.808 265.544 61.808C267.368 61.808 268.568 62.944 268.568 64.688V70H267.208V64.944C267.208 63.76 266.472 63.04 265.24 63.04C263.752 63.04 262.792 64.384 262.792 66.544V70H261.432ZM278.072 65.6C278.072 65.792 278.056 66.08 278.04 66.224H271.672C271.768 67.856 272.792 68.928 274.248 68.928C275.48 68.928 276.328 68.352 276.568 67.344L277.848 67.648C277.448 69.216 276.104 70.128 274.248 70.128C271.832 70.128 270.312 68.256 270.312 65.968C270.312 63.68 271.784 61.808 274.216 61.808C276.6 61.808 278.072 63.52 278.072 65.6ZM271.752 65.088H276.632C276.504 63.856 275.64 62.944 274.216 62.944C272.952 62.944 272.024 63.744 271.752 65.088ZM283.682 72.912V61.936H285.042V63.104C285.474 62.368 286.53 61.808 287.698 61.808C290.178 61.808 291.554 63.6 291.554 65.968C291.554 68.336 290.146 70.128 287.666 70.128C286.642 70.128 285.586 69.616 285.042 68.88V72.912H283.682ZM287.538 68.912C289.138 68.912 290.178 67.744 290.178 65.968C290.178 64.192 289.138 63.024 287.538 63.024C285.97 63.024 284.93 64.192 284.93 65.968C284.93 67.744 285.97 68.912 287.538 68.912ZM293.964 60.416C293.42 60.416 293.02 60 293.02 59.472C293.02 58.928 293.42 58.512 293.964 58.512C294.524 58.512 294.94 58.928 294.94 59.472C294.94 60 294.524 60.416 293.964 60.416ZM293.292 70V61.936H294.652V70H293.292ZM300.39 70.128C297.99 70.128 296.39 68.464 296.39 65.968C296.39 63.472 297.99 61.808 300.39 61.808C302.262 61.808 303.638 62.832 303.926 64.432L302.582 64.704C302.406 63.728 301.558 63.024 300.422 63.024C298.838 63.024 297.814 64.192 297.814 65.968C297.814 67.744 298.838 68.912 300.422 68.912C301.558 68.912 302.39 68.288 302.614 67.216L303.942 67.488C303.59 69.152 302.246 70.128 300.39 70.128ZM309.814 69.936C309.414 70.08 308.982 70.128 308.55 70.128C307.174 70.128 306.166 69.36 306.166 67.584V63.136H304.662V61.936H306.166V59.488H307.526V61.936H309.686V63.136H307.526V67.632C307.526 68.48 308.006 68.896 308.71 68.896C309.03 68.896 309.398 68.848 309.718 68.688L309.814 69.936ZM314.83 70.128C312.43 70.128 310.734 68.384 310.734 65.968C310.734 63.552 312.43 61.808 314.83 61.808C317.214 61.808 318.942 63.552 318.942 65.968C318.942 68.384 317.214 70.128 314.83 70.128ZM314.83 68.912C316.446 68.912 317.534 67.696 317.534 65.968C317.534 64.24 316.446 63.024 314.83 63.024C313.214 63.024 312.126 64.24 312.126 65.968C312.126 67.696 313.214 68.912 314.83 68.912ZM324.826 68.432C326.442 68.432 327.562 69.104 327.562 70.592C327.562 72.208 326.058 73.04 323.85 73.04C321.562 73.04 320.138 72.224 320.138 70.736C320.138 70.032 320.522 69.456 321.002 69.088C320.602 68.816 320.362 68.416 320.362 67.84C320.362 67.136 320.826 66.608 321.45 66.32C321.018 65.856 320.778 65.248 320.778 64.528C320.778 62.896 322.09 61.808 323.834 61.808C324.362 61.808 324.858 61.92 325.306 62.128L326.57 61.04L327.354 61.936L326.282 62.848C326.666 63.296 326.89 63.872 326.89 64.528C326.89 66.192 325.594 67.248 323.834 67.248C323.258 67.248 322.762 67.136 322.33 66.944C321.866 67.152 321.674 67.424 321.674 67.76C321.674 68.256 322.138 68.432 322.666 68.432H324.826ZM323.834 62.912C322.906 62.912 322.106 63.52 322.106 64.528C322.106 65.552 322.906 66.144 323.834 66.144C324.762 66.144 325.562 65.552 325.562 64.528C325.562 63.52 324.762 62.912 323.834 62.912ZM323.85 71.888C325.386 71.888 326.234 71.456 326.234 70.688C326.234 69.824 325.594 69.536 324.634 69.536H322.922C322.634 69.536 322.362 69.52 322.106 69.488C321.61 69.824 321.466 70.256 321.466 70.72C321.466 71.456 322.282 71.888 323.85 71.888ZM333.808 63.264C333.504 63.136 333.12 63.072 332.768 63.072C331.488 63.072 330.448 64.304 330.448 66.928V70H329.088V61.936H330.448V63.568C330.912 62.544 331.968 61.808 332.96 61.808C333.296 61.808 333.616 61.856 333.888 61.952L333.808 63.264ZM337.94 61.808C339.892 61.808 341.252 62.96 341.252 64.832V70H339.908V68.624C339.444 69.552 338.388 70.128 337.22 70.128C335.604 70.128 334.5 69.136 334.5 67.744C334.5 66.192 335.764 65.344 338.34 65.088L339.908 64.912V64.752C339.908 63.648 339.124 62.944 337.94 62.944C336.836 62.944 336.052 63.6 335.94 64.688L334.676 64.448C334.916 62.848 336.244 61.808 337.94 61.808ZM337.428 69.008C338.996 69.008 339.908 67.968 339.908 66.352V65.968L338.34 66.144C336.708 66.32 335.86 66.88 335.86 67.728C335.86 68.48 336.5 69.008 337.428 69.008ZM343.463 70V61.936H344.823V63.456C345.223 62.496 346.023 61.808 347.255 61.808C348.567 61.808 349.591 62.416 349.879 63.504C350.311 62.544 351.271 61.808 352.487 61.808C354.215 61.808 355.303 62.896 355.303 64.592V70H353.943V64.864C353.943 63.76 353.319 63.008 352.183 63.008C350.807 63.008 350.055 64.24 350.055 65.952V70H348.695V64.864C348.695 63.76 348.071 63.008 346.951 63.008C345.575 63.008 344.823 64.24 344.823 65.952V70H343.463ZM358.486 70.128C357.91 70.128 357.51 69.728 357.51 69.168C357.51 68.624 357.91 68.208 358.486 68.208C359.03 68.208 359.462 68.624 359.462 69.168C359.462 69.728 359.03 70.128 358.486 70.128Z" fill="#53585C"/>
    <g clip-path="url(#clip0_429_17987)">
        <path d="M32.6547 162.587C32.7057 162.136 32.6557 161.679 32.5083 161.249C32.3554 160.818 32.1049 160.428 31.7764 160.109C31.0244 159.598 30.122 159.355 29.2148 159.419V156.92C30.1298 156.985 31.0389 156.73 31.7869 156.199C32.0979 155.896 32.3373 155.528 32.4875 155.121C32.6376 154.714 32.6948 154.278 32.6547 153.846V150.71C32.5835 149.641 32.9324 148.587 33.627 147.772C34 147.388 34.4535 147.091 34.9548 146.904C35.4639 146.74 36.0008 146.679 36.5336 146.726H40.1198V149.434H38.2483C37.8453 149.424 37.4423 149.455 37.0459 149.528C36.7574 149.578 36.489 149.708 36.2722 149.905C36.0623 150.105 35.9167 150.364 35.854 150.647C35.767 151.066 35.7319 151.495 35.7495 151.923V154.756C35.7846 155.196 35.724 155.638 35.5717 156.052C35.4314 156.479 35.1912 156.866 34.8712 157.182C34.2195 157.727 33.4088 158.046 32.5606 158.091V158.332C33.4144 158.364 34.2292 158.697 34.8607 159.273C35.1545 159.575 35.3887 159.929 35.5508 160.318C35.7055 160.736 35.7731 161.181 35.7495 161.625V164.5C35.7372 164.919 35.7829 165.338 35.8854 165.745C35.9374 166.033 36.0803 166.296 36.2931 166.497C36.512 166.695 36.7852 166.823 37.0773 166.863C37.4776 166.935 37.8835 166.97 38.2901 166.968H40.1093V169.624H36.5336C36.016 169.654 35.4974 169.583 35.0071 169.414C34.517 169.261 34.0621 169.013 33.6688 168.683C33.3011 168.282 33.023 167.808 32.8533 167.292C32.6779 166.778 32.6103 166.234 32.6547 165.692V162.587Z" fill="white"/>
        <path d="M51.9343 165.639C51.9734 166.18 51.9008 166.722 51.7209 167.233C51.541 167.744 51.2577 168.212 50.8888 168.609C50.5031 168.956 50.0516 169.223 49.561 169.393C49.0707 169.562 48.5521 169.633 48.0345 169.602H44.4587V166.915H46.3198C46.7264 166.917 47.1324 166.882 47.5326 166.81C47.8247 166.77 48.0979 166.642 48.3168 166.444C48.529 166.242 48.6748 165.979 48.735 165.692C48.8108 165.299 48.8389 164.899 48.8186 164.5V161.656C48.7882 161.207 48.8514 160.757 49.0044 160.334C49.1574 159.911 49.3968 159.524 49.7073 159.199C50.3557 158.604 51.2007 158.269 52.0807 158.258V158.017C51.2353 157.973 50.4274 157.654 49.7805 157.108C49.4621 156.816 49.2091 156.459 49.0382 156.062C48.8719 155.655 48.797 155.216 48.8186 154.776V151.953C48.8331 151.537 48.7838 151.121 48.6723 150.72C48.6121 150.432 48.4663 150.17 48.254 149.967C48.036 149.772 47.7681 149.642 47.4803 149.59C47.0903 149.522 46.6948 149.491 46.2989 149.496H44.4587V146.726H48.0345C48.5678 146.686 49.1032 146.765 49.6028 146.956C50.1017 147.143 50.5545 147.435 50.9306 147.813C51.6191 148.623 51.9675 149.669 51.903 150.73V153.867C51.8642 154.299 51.9213 154.735 52.0703 155.142C52.2221 155.539 52.4616 155.896 52.7708 156.188C53.5168 156.704 54.4175 156.947 55.3219 156.878V159.345C54.4147 159.281 53.5124 159.524 52.7603 160.035C52.4343 160.352 52.1841 160.738 52.0284 161.165C51.8818 161.598 51.8319 162.058 51.8821 162.513L51.9343 165.639Z" fill="white"/>
        <path d="M22.6444 132.737C22.6444 131.383 23.7421 130.285 25.0961 130.285H33.3334C34.6874 130.285 35.7851 131.383 35.7851 132.737V142.847C35.7851 143.228 35.8737 143.603 36.0439 143.943L50.4369 172.729C51.2519 174.359 50.0666 176.277 48.2441 176.277H10.1854C8.36295 176.277 7.1776 174.359 7.99265 172.729L22.3856 143.943C22.5558 143.603 22.6444 143.228 22.6444 142.847V132.737Z" fill="#B7CDE1"/>
        <rect x="20.1807" y="130.285" width="18.0684" height="4.92774" rx="0.700467" fill="#B7CDE1"/>
        <g style="mix-blend-mode:multiply">
            <rect x="20.1807" y="130.285" width="18.0684" height="4.92774" rx="0.700467" fill="#B7CDE1"/>
        </g>
        <path d="M23.0884 149.162C23.3186 148.669 23.8136 148.354 24.3579 148.354H34.0716C34.6159 148.354 35.1109 148.669 35.3411 149.162L45.5316 170.999C45.965 171.928 45.287 172.992 44.2621 172.992H14.1674C13.1424 172.992 12.4645 171.928 12.8979 170.999L23.0884 149.162Z" fill="#DBE6F0"/>
        <g style="mix-blend-mode:multiply">
            <path d="M32.6547 162.587C32.7057 162.136 32.6557 161.679 32.5083 161.249C32.3554 160.818 32.1049 160.428 31.7764 160.109C31.0244 159.598 30.122 159.355 29.2148 159.419V156.92C30.1298 156.985 31.0389 156.73 31.7869 156.199C32.0979 155.896 32.3373 155.528 32.4875 155.121C32.6376 154.714 32.6948 154.278 32.6547 153.846V150.71C32.5835 149.641 32.9324 148.587 33.627 147.772C34 147.388 34.4535 147.091 34.9548 146.904C35.4639 146.74 36.0008 146.679 36.5336 146.726H40.1198V149.434H38.2483C37.8453 149.424 37.4423 149.455 37.0459 149.528C36.7574 149.578 36.489 149.708 36.2722 149.905C36.0623 150.105 35.9167 150.364 35.854 150.647C35.767 151.066 35.7319 151.495 35.7495 151.923V154.756C35.7846 155.196 35.724 155.638 35.5717 156.052C35.4314 156.479 35.1912 156.866 34.8712 157.182C34.2195 157.727 33.4088 158.046 32.5606 158.091V158.332C33.4144 158.364 34.2292 158.697 34.8607 159.273C35.1545 159.575 35.3887 159.929 35.5508 160.318C35.7055 160.736 35.7731 161.181 35.7495 161.625V164.5C35.7372 164.919 35.7829 165.338 35.8854 165.745C35.9374 166.033 36.0803 166.296 36.2931 166.497C36.512 166.695 36.7852 166.823 37.0773 166.863C37.4776 166.935 37.8835 166.97 38.2901 166.968H40.1093V169.624H36.5336C36.016 169.654 35.4974 169.583 35.0071 169.414C34.517 169.261 34.0621 169.013 33.6688 168.683C33.3011 168.282 33.023 167.808 32.8533 167.292C32.6779 166.778 32.6103 166.234 32.6547 165.692V162.587Z" fill="#42CACD"/>
        </g>
        <g style="mix-blend-mode:multiply">
            <path d="M51.9343 165.639C51.9734 166.18 51.9008 166.722 51.7209 167.233C51.541 167.744 51.2577 168.212 50.8888 168.609C50.5031 168.956 50.0516 169.223 49.561 169.393C49.0707 169.562 48.5521 169.633 48.0345 169.602H44.4587V166.915H46.3198C46.7264 166.917 47.1324 166.882 47.5326 166.81C47.8247 166.77 48.0979 166.642 48.3168 166.444C48.529 166.242 48.6748 165.979 48.735 165.692C48.8108 165.299 48.8389 164.899 48.8186 164.5V161.656C48.7882 161.207 48.8514 160.757 49.0044 160.334C49.1574 159.911 49.3968 159.524 49.7073 159.199C50.3557 158.604 51.2007 158.269 52.0807 158.258V158.017C51.2353 157.973 50.4274 157.654 49.7805 157.108C49.4621 156.816 49.2091 156.459 49.0382 156.062C48.8719 155.655 48.797 155.216 48.8186 154.776V151.953C48.8331 151.537 48.7838 151.121 48.6723 150.72C48.6121 150.432 48.4663 150.17 48.254 149.967C48.036 149.772 47.7681 149.642 47.4803 149.59C47.0903 149.522 46.6948 149.491 46.2989 149.496H44.4587V146.726H48.0345C48.5678 146.686 49.1032 146.765 49.6028 146.956C50.1017 147.143 50.5545 147.435 50.9306 147.813C51.6191 148.623 51.9675 149.669 51.903 150.73V153.867C51.8642 154.299 51.9213 154.735 52.0703 155.142C52.2221 155.539 52.4616 155.896 52.7708 156.188C53.5168 156.704 54.4175 156.947 55.3219 156.878V159.345C54.4147 159.281 53.5124 159.524 52.7603 160.035C52.4343 160.352 52.1841 160.738 52.0284 161.165C51.8818 161.598 51.8319 162.058 51.8821 162.513L51.9343 165.639Z" fill="#42CACD"/>
        </g>
    </g>
    <path d="M6.29983 201.023V192.623H11.6758V193.595H7.39183V196.163H10.8958V197.147H7.39183V201.023H6.29983ZM14.8624 201.107C13.7824 201.215 12.9784 200.807 12.9784 199.547V192.527H13.9984V199.475C13.9984 200.135 14.3104 200.231 14.8144 200.195L14.8624 201.107ZM18.3047 194.879C19.7687 194.879 20.7887 195.743 20.7887 197.147V201.023H19.7807V199.991C19.4327 200.687 18.6407 201.119 17.7647 201.119C16.5527 201.119 15.7247 200.375 15.7247 199.331C15.7247 198.167 16.6727 197.531 18.6047 197.339L19.7807 197.207V197.087C19.7807 196.259 19.1927 195.731 18.3047 195.731C17.4767 195.731 16.8887 196.223 16.8047 197.039L15.8567 196.859C16.0367 195.659 17.0327 194.879 18.3047 194.879ZM17.9207 200.279C19.0967 200.279 19.7807 199.499 19.7807 198.287V197.999L18.6047 198.131C17.3807 198.263 16.7447 198.683 16.7447 199.319C16.7447 199.883 17.2247 200.279 17.9207 200.279ZM24.4751 201.119C23.0111 201.119 22.2191 200.207 21.9551 199.355L22.8311 198.971C23.0591 199.679 23.5391 200.255 24.4751 200.255C25.2191 200.255 25.6991 199.823 25.6991 199.331C25.6991 197.783 22.2191 198.779 22.2191 196.487C22.2191 195.527 23.0471 194.879 24.3431 194.879C25.4111 194.879 26.3351 195.479 26.5871 196.367L25.7351 196.739C25.5671 196.115 24.9671 195.719 24.3191 195.719C23.6351 195.719 23.2031 195.995 23.2031 196.475C23.2031 197.771 26.7071 196.823 26.6951 199.319C26.6951 200.375 25.8071 201.119 24.4751 201.119ZM32.1061 201.023L29.8261 198.047L29.0221 198.779V201.023H27.9901V192.527H29.0221V197.435L31.8181 194.975H33.1741L30.5821 197.363L33.3781 201.023H32.1061ZM36.3091 201.023L33.7531 192.623H34.8811L36.8851 199.763L38.9131 192.623H40.0531L42.0691 199.763L44.0731 192.623H45.2011L42.6571 201.023H41.5051L39.4891 194.255L37.4491 201.023H36.3091ZM46.7168 193.835C46.3088 193.835 46.0088 193.523 46.0088 193.127C46.0088 192.719 46.3088 192.407 46.7168 192.407C47.1368 192.407 47.4488 192.719 47.4488 193.127C47.4488 193.523 47.1368 193.835 46.7168 193.835ZM46.2128 201.023V194.975H47.2328V201.023H46.2128ZM52.1006 200.975C51.8006 201.083 51.4766 201.119 51.1526 201.119C50.1206 201.119 49.3646 200.543 49.3646 199.211V195.875H48.2366V194.975H49.3646V193.139H50.3846V194.975H52.0046V195.875H50.3846V199.247C50.3846 199.883 50.7446 200.195 51.2726 200.195C51.5126 200.195 51.7886 200.159 52.0286 200.039L52.1006 200.975ZM53.3964 201.023V192.527H54.4164V196.163C54.8604 195.299 55.5924 194.879 56.4804 194.879C57.8484 194.879 58.7484 195.731 58.7484 197.039V201.023H57.7284V197.231C57.7284 196.343 57.1764 195.803 56.2524 195.803C55.1364 195.803 54.4164 196.811 54.4164 198.431V201.023H53.3964ZM14.878 215.023V206.623H17.926C19.51 206.623 20.494 207.415 20.494 208.783C20.494 209.563 19.954 210.187 19.39 210.427C20.242 210.727 20.866 211.399 20.866 212.575C20.866 214.087 19.834 215.023 18.106 215.023H14.878ZM15.97 210.079H17.878C18.874 210.079 19.414 209.659 19.414 208.819C19.414 207.979 18.874 207.559 17.878 207.559H15.97V210.079ZM15.97 214.039H17.926C19.15 214.039 19.774 213.523 19.774 212.551C19.774 211.567 19.15 211.039 17.926 211.039H15.97V214.039ZM25.7293 209.971C25.5013 209.875 25.2133 209.827 24.9493 209.827C23.9893 209.827 23.2093 210.751 23.2093 212.719V215.023H22.1893V208.975H23.2093V210.199C23.5573 209.431 24.3493 208.879 25.0933 208.879C25.3453 208.879 25.5853 208.915 25.7893 208.987L25.7293 209.971ZM28.8281 208.879C30.2921 208.879 31.3121 209.743 31.3121 211.147V215.023H30.3041V213.991C29.9561 214.687 29.1641 215.119 28.2881 215.119C27.0761 215.119 26.2481 214.375 26.2481 213.331C26.2481 212.167 27.1961 211.531 29.1281 211.339L30.3041 211.207V211.087C30.3041 210.259 29.7161 209.731 28.8281 209.731C28.0001 209.731 27.4121 210.223 27.3281 211.039L26.3801 210.859C26.5601 209.659 27.5561 208.879 28.8281 208.879ZM28.4441 214.279C29.6201 214.279 30.3041 213.499 30.3041 212.287V211.999L29.1281 212.131C27.9041 212.263 27.2681 212.683 27.2681 213.319C27.2681 213.883 27.7481 214.279 28.4441 214.279ZM35.6226 215.119C33.8226 215.119 32.6226 213.871 32.6226 211.999C32.6226 210.127 33.8226 208.879 35.6226 208.879C37.0266 208.879 38.0586 209.647 38.2746 210.847L37.2666 211.051C37.1346 210.319 36.4986 209.791 35.6466 209.791C34.4586 209.791 33.6906 210.667 33.6906 211.999C33.6906 213.331 34.4586 214.207 35.6466 214.207C36.4986 214.207 37.1226 213.739 37.2906 212.935L38.2866 213.139C38.0226 214.387 37.0146 215.119 35.6226 215.119ZM45.0285 211.723C45.0285 211.867 45.0165 212.083 45.0045 212.191H40.2285C40.3005 213.415 41.0685 214.219 42.1605 214.219C43.0845 214.219 43.7205 213.787 43.9005 213.031L44.8605 213.259C44.5605 214.435 43.5525 215.119 42.1605 215.119C40.3485 215.119 39.2085 213.715 39.2085 211.999C39.2085 210.283 40.3125 208.879 42.1365 208.879C43.9245 208.879 45.0285 210.163 45.0285 211.723ZM40.2885 211.339H43.9485C43.8525 210.415 43.2045 209.731 42.1365 209.731C41.1885 209.731 40.4925 210.331 40.2885 211.339ZM48.3111 215.119C46.8471 215.119 46.0551 214.207 45.7911 213.355L46.6671 212.971C46.8951 213.679 47.3751 214.255 48.3111 214.255C49.0551 214.255 49.5351 213.823 49.5351 213.331C49.5351 211.783 46.0551 212.779 46.0551 210.487C46.0551 209.527 46.8831 208.879 48.1791 208.879C49.2471 208.879 50.1711 209.479 50.4231 210.367L49.5711 210.739C49.4031 210.115 48.8031 209.719 48.1551 209.719C47.4711 209.719 47.0391 209.995 47.0391 210.475C47.0391 211.771 50.5431 210.823 50.5311 213.319C50.5311 214.375 49.6431 215.119 48.3111 215.119Z" fill="#53585C"/>
    <g clip-path="url(#clip1_429_17987)">
        <g style="mix-blend-mode:multiply">
            <path d="M167.194 149.175C171.503 149.175 174.996 145.682 174.996 141.373C174.996 137.063 171.503 133.57 167.194 133.57C162.885 133.57 159.392 137.063 159.392 141.373C159.392 145.682 162.885 149.175 167.194 149.175Z" fill="white"/>
            <ellipse cx="167.194" cy="146.3" rx="1.23194" ry="1.23194" fill="white"/>
            <rect x="165.962" y="135.213" width="2.46387" height="9.03419" rx="1.23194" fill="white"/>
        </g>
        <g style="mix-blend-mode:multiply">
            <path d="M129.921 170.079V184.789C129.921 185.369 130.392 185.84 130.972 185.84H137.276C137.857 185.84 138.327 185.369 138.327 184.789V170.079C138.327 169.499 137.857 169.028 137.276 169.028H130.972C130.392 169.028 129.921 169.499 129.921 170.079Z" fill="white"/>
            <path d="M153.037 153.267V184.788C153.037 185.369 153.507 185.839 154.087 185.839H160.392C160.972 185.839 161.442 185.369 161.442 184.788V153.267C161.442 152.687 160.972 152.217 160.392 152.217H154.087C153.507 152.217 153.037 152.687 153.037 153.267Z" fill="white"/>
            <path d="M141.479 161.674V184.789C141.479 185.369 141.95 185.84 142.53 185.84H148.834C149.414 185.84 149.885 185.369 149.885 184.789V161.674C149.885 161.093 149.414 160.623 148.834 160.623H142.53C141.95 160.623 141.479 161.093 141.479 161.674Z" fill="white"/>
            <path d="M164.594 144.862V184.789C164.594 185.369 165.065 185.84 165.645 185.84H171.949C172.53 185.84 173 185.369 173 184.789V144.862C173 144.282 172.53 143.812 171.949 143.812H165.645C165.065 143.812 164.594 144.282 164.594 144.862Z" fill="white"/>
        </g>
        <g style="mix-blend-mode:multiply">
            <path d="M167.194 149.175C171.503 149.175 174.996 145.682 174.996 141.373C174.996 137.063 171.503 133.57 167.194 133.57C162.885 133.57 159.392 137.063 159.392 141.373C159.392 145.682 162.885 149.175 167.194 149.175Z" fill="#F05656"/>
            <ellipse cx="167.194" cy="146.3" rx="1.23194" ry="1.23194" fill="white"/>
            <rect x="165.962" y="135.213" width="2.46387" height="9.03419" rx="1.23194" fill="white"/>
        </g>
        <g style="mix-blend-mode:multiply">
            <path d="M129.922 170.078V184.788C129.922 185.368 130.392 185.839 130.972 185.839H137.276C137.857 185.839 138.327 185.368 138.327 184.788V170.078C138.327 169.498 137.857 169.027 137.276 169.027H130.972C130.392 169.027 129.922 169.498 129.922 170.078Z" fill="#B7CDE1"/>
            <path d="M153.037 153.267V184.788C153.037 185.368 153.507 185.838 154.088 185.838H160.392C160.972 185.838 161.442 185.368 161.442 184.788V153.267C161.442 152.686 160.972 152.216 160.392 152.216H154.088C153.507 152.216 153.037 152.686 153.037 153.267Z" fill="#B7CDE1"/>
            <path d="M141.479 161.673V184.788C141.479 185.368 141.95 185.839 142.53 185.839H148.834C149.414 185.839 149.885 185.368 149.885 184.788V161.673C149.885 161.092 149.414 160.622 148.834 160.622H142.53C141.95 160.622 141.479 161.092 141.479 161.673Z" fill="#B7CDE1"/>
            <path d="M164.595 144.861V184.788C164.595 185.368 165.065 185.839 165.645 185.839H171.95C172.53 185.839 173 185.368 173 184.788V144.861C173 144.281 172.53 143.811 171.95 143.811H165.645C165.065 143.811 164.595 144.281 164.595 144.861Z" fill="#B7CDE1"/>
        </g>
    </g>
    <path d="M127.991 201.023V192.623H131.039C132.623 192.623 133.607 193.415 133.607 194.783C133.607 195.563 133.067 196.187 132.503 196.427C133.355 196.727 133.979 197.399 133.979 198.575C133.979 200.087 132.947 201.023 131.219 201.023H127.991ZM129.083 196.079H130.991C131.987 196.079 132.527 195.659 132.527 194.819C132.527 193.979 131.987 193.559 130.991 193.559H129.083V196.079ZM129.083 200.039H131.039C132.263 200.039 132.887 199.523 132.887 198.551C132.887 197.567 132.263 197.039 131.039 197.039H129.083V200.039ZM137.559 194.879C139.023 194.879 140.043 195.743 140.043 197.147V201.023H139.035V199.991C138.687 200.687 137.895 201.119 137.019 201.119C135.807 201.119 134.979 200.375 134.979 199.331C134.979 198.167 135.927 197.531 137.859 197.339L139.035 197.207V197.087C139.035 196.259 138.447 195.731 137.559 195.731C136.731 195.731 136.143 196.223 136.059 197.039L135.111 196.859C135.291 195.659 136.287 194.879 137.559 194.879ZM137.175 200.279C138.351 200.279 139.035 199.499 139.035 198.287V197.999L137.859 198.131C136.635 198.263 135.999 198.683 135.999 199.319C135.999 199.883 136.479 200.279 137.175 200.279ZM145.241 195.971C145.013 195.875 144.725 195.827 144.461 195.827C143.501 195.827 142.721 196.751 142.721 198.719V201.023H141.701V194.975H142.721V196.199C143.069 195.431 143.861 194.879 144.605 194.879C144.857 194.879 145.097 194.915 145.301 194.987L145.241 195.971ZM148.159 201.119C146.695 201.119 145.903 200.207 145.639 199.355L146.515 198.971C146.743 199.679 147.223 200.255 148.159 200.255C148.903 200.255 149.383 199.823 149.383 199.331C149.383 197.783 145.903 198.779 145.903 196.487C145.903 195.527 146.731 194.879 148.027 194.879C149.095 194.879 150.019 195.479 150.271 196.367L149.419 196.739C149.251 196.115 148.651 195.719 148.003 195.719C147.319 195.719 146.887 195.995 146.887 196.475C146.887 197.771 150.391 196.823 150.379 199.319C150.379 200.375 149.491 201.119 148.159 201.119ZM153.618 201.023L151.062 192.623H152.19L154.194 199.763L156.222 192.623H157.362L159.378 199.763L161.382 192.623H162.51L159.966 201.023H158.814L156.798 194.255L154.758 201.023H153.618ZM164.025 193.835C163.617 193.835 163.317 193.523 163.317 193.127C163.317 192.719 163.617 192.407 164.025 192.407C164.445 192.407 164.757 192.719 164.757 193.127C164.757 193.523 164.445 193.835 164.025 193.835ZM163.521 201.023V194.975H164.541V201.023H163.521ZM169.409 200.975C169.109 201.083 168.785 201.119 168.461 201.119C167.429 201.119 166.673 200.543 166.673 199.211V195.875H165.545V194.975H166.673V193.139H167.693V194.975H169.313V195.875H167.693V199.247C167.693 199.883 168.053 200.195 168.581 200.195C168.821 200.195 169.097 200.159 169.337 200.039L169.409 200.975ZM170.705 201.023V192.527H171.725V196.163C172.169 195.299 172.901 194.879 173.789 194.879C175.157 194.879 176.057 195.731 176.057 197.039V201.023H175.037V197.231C175.037 196.343 174.485 195.803 173.561 195.803C172.445 195.803 171.725 196.811 171.725 198.431V201.023H170.705ZM102.802 215.023V206.623H108.094V207.595H103.894V210.067H107.302V211.051H103.894V214.039H108.226V215.023H102.802ZM114.314 215.023H113.162L111.638 212.755L110.114 215.023H108.962L111.062 211.903L109.094 208.975H110.234L111.638 211.051L113.03 208.975H114.182L112.214 211.903L114.314 215.023ZM117.746 215.119C115.946 215.119 114.746 213.871 114.746 211.999C114.746 210.127 115.946 208.879 117.746 208.879C119.15 208.879 120.182 209.647 120.398 210.847L119.39 211.051C119.258 210.319 118.622 209.791 117.77 209.791C116.582 209.791 115.814 210.667 115.814 211.999C115.814 213.331 116.582 214.207 117.77 214.207C118.622 214.207 119.246 213.739 119.414 212.935L120.41 213.139C120.146 214.387 119.138 215.119 117.746 215.119ZM123.877 208.879C125.341 208.879 126.361 209.743 126.361 211.147V215.023H125.353V213.991C125.005 214.687 124.213 215.119 123.337 215.119C122.125 215.119 121.297 214.375 121.297 213.331C121.297 212.167 122.245 211.531 124.177 211.339L125.353 211.207V211.087C125.353 210.259 124.765 209.731 123.877 209.731C123.049 209.731 122.461 210.223 122.377 211.039L121.429 210.859C121.609 209.659 122.605 208.879 123.877 208.879ZM123.493 214.279C124.669 214.279 125.353 213.499 125.353 212.287V211.999L124.177 212.131C122.953 212.263 122.317 212.683 122.317 213.319C122.317 213.883 122.797 214.279 123.493 214.279ZM129.903 215.107C128.823 215.215 128.019 214.807 128.019 213.547V206.527H129.039V213.475C129.039 214.135 129.351 214.231 129.855 214.195L129.903 215.107ZM133.346 208.879C134.81 208.879 135.83 209.743 135.83 211.147V215.023H134.822V213.991C134.474 214.687 133.682 215.119 132.806 215.119C131.594 215.119 130.766 214.375 130.766 213.331C130.766 212.167 131.714 211.531 133.646 211.339L134.822 211.207V211.087C134.822 210.259 134.234 209.731 133.346 209.731C132.518 209.731 131.93 210.223 131.846 211.039L130.898 210.859C131.078 209.659 132.074 208.879 133.346 208.879ZM132.962 214.279C134.138 214.279 134.822 213.499 134.822 212.287V211.999L133.646 212.131C132.422 212.263 131.786 212.683 131.786 213.319C131.786 213.883 132.266 214.279 132.962 214.279ZM137.488 215.023V208.975H138.508V210.115C138.808 209.395 139.408 208.879 140.332 208.879C141.316 208.879 142.084 209.335 142.3 210.151C142.624 209.431 143.344 208.879 144.256 208.879C145.552 208.879 146.368 209.695 146.368 210.967V215.023H145.348V211.171C145.348 210.343 144.88 209.779 144.028 209.779C142.996 209.779 142.432 210.703 142.432 211.987V215.023H141.412V211.171C141.412 210.343 140.944 209.779 140.104 209.779C139.072 209.779 138.508 210.703 138.508 211.987V215.023H137.488ZM150.279 208.879C151.743 208.879 152.763 209.743 152.763 211.147V215.023H151.755V213.991C151.407 214.687 150.615 215.119 149.739 215.119C148.527 215.119 147.699 214.375 147.699 213.331C147.699 212.167 148.647 211.531 150.579 211.339L151.755 211.207V211.087C151.755 210.259 151.167 209.731 150.279 209.731C149.451 209.731 148.863 210.223 148.779 211.039L147.831 210.859C148.011 209.659 149.007 208.879 150.279 208.879ZM149.895 214.279C151.071 214.279 151.755 213.499 151.755 212.287V211.999L150.579 212.131C149.355 212.263 148.719 212.683 148.719 213.319C148.719 213.883 149.199 214.279 149.895 214.279ZM157.603 214.975C157.303 215.083 156.979 215.119 156.655 215.119C155.623 215.119 154.867 214.543 154.867 213.211V209.875H153.739V208.975H154.867V207.139H155.887V208.975H157.507V209.875H155.887V213.247C155.887 213.883 156.247 214.195 156.775 214.195C157.015 214.195 157.291 214.159 157.531 214.039L157.603 214.975ZM159.297 207.835C158.889 207.835 158.589 207.523 158.589 207.127C158.589 206.719 158.889 206.407 159.297 206.407C159.717 206.407 160.029 206.719 160.029 207.127C160.029 207.523 159.717 207.835 159.297 207.835ZM158.793 215.023V208.975H159.813V215.023H158.793ZM164.189 215.119C162.389 215.119 161.117 213.811 161.117 211.999C161.117 210.187 162.389 208.879 164.189 208.879C165.977 208.879 167.273 210.187 167.273 211.999C167.273 213.811 165.977 215.119 164.189 215.119ZM164.189 214.207C165.401 214.207 166.217 213.295 166.217 211.999C166.217 210.703 165.401 209.791 164.189 209.791C162.977 209.791 162.161 210.703 162.161 211.999C162.161 213.295 162.977 214.207 164.189 214.207ZM168.578 215.023V208.975H169.598V210.115C170.018 209.395 170.75 208.879 171.674 208.879C172.934 208.879 173.834 209.731 173.834 211.015V215.023H172.814V211.207C172.814 210.391 172.298 209.803 171.446 209.803C170.318 209.803 169.598 210.775 169.598 212.371V215.023H168.578ZM175.54 215.023V206.623H176.86L179.692 213.439L182.524 206.623H183.844V215.023H182.764V208.687L180.148 215.023H179.236L176.608 208.687V215.023H175.54ZM187.791 208.879C189.255 208.879 190.275 209.743 190.275 211.147V215.023H189.267V213.991C188.919 214.687 188.127 215.119 187.251 215.119C186.039 215.119 185.211 214.375 185.211 213.331C185.211 212.167 186.159 211.531 188.091 211.339L189.267 211.207V211.087C189.267 210.259 188.679 209.731 187.791 209.731C186.963 209.731 186.375 210.223 186.291 211.039L185.343 210.859C185.523 209.659 186.519 208.879 187.791 208.879ZM187.407 214.279C188.583 214.279 189.267 213.499 189.267 212.287V211.999L188.091 212.131C186.867 212.263 186.231 212.683 186.231 213.319C186.231 213.883 186.711 214.279 187.407 214.279ZM195.473 209.971C195.245 209.875 194.957 209.827 194.693 209.827C193.733 209.827 192.953 210.751 192.953 212.719V215.023H191.933V208.975H192.953V210.199C193.301 209.431 194.093 208.879 194.837 208.879C195.089 208.879 195.329 208.915 195.533 208.987L195.473 209.971ZM200.643 215.023L198.363 212.047L197.559 212.779V215.023H196.527V206.527H197.559V211.435L200.355 208.975H201.711L199.119 211.363L201.915 215.023H200.643Z" fill="#53585C"/>
    <rect x="265.789" y="134.392" width="11.4981" height="2.46387" rx="1.0507" fill="white"/>
    <path d="M276.019 148.035H276.95C280.586 148.106 284.046 149.609 286.572 152.216C289.097 154.823 290.483 158.321 290.426 161.944V174.635C290.426 175.117 290.238 175.581 289.901 175.927C289.564 176.273 289.104 176.475 288.621 176.489H264.311C263.825 176.475 263.364 176.272 263.027 175.924C262.692 175.578 262.505 175.116 262.506 174.635V161.944C262.448 158.315 263.839 154.811 266.373 152.203C268.907 149.595 272.377 148.096 276.019 148.035Z" fill="#B7CDE1"/>
    <path d="M276.414 146.972C278.064 146.972 279.677 146.482 281.049 145.566C282.421 144.649 283.491 143.346 284.122 141.821C284.754 140.297 284.919 138.619 284.597 137.001C284.275 135.382 283.48 133.896 282.314 132.729C281.147 131.562 279.66 130.767 278.042 130.445C276.423 130.124 274.746 130.289 273.221 130.92C271.697 131.552 270.394 132.621 269.477 133.993C268.56 135.365 268.071 136.978 268.071 138.628C268.071 140.841 268.95 142.963 270.514 144.528C272.079 146.093 274.201 146.972 276.414 146.972Z" fill="#B7CDE1"/>
    <g style="mix-blend-mode:multiply">
        <rect x="265.789" y="134.392" width="11.4981" height="2.46387" rx="1.0507" fill="#B7CDE1"/>
    </g>
    <g style="mix-blend-mode:multiply">
        <path d="M275.318 144.099C275.188 144.464 275.378 144.869 275.756 144.951C276.363 145.081 276.989 145.104 277.607 145.019C278.457 144.902 279.266 144.581 279.966 144.085C280.665 143.588 281.235 142.93 281.627 142.167C281.911 141.612 282.096 141.013 282.173 140.398C282.221 140.014 281.901 139.701 281.514 139.703L280.944 139.706C280.557 139.709 280.253 140.028 280.175 140.407C280.114 140.705 280.013 140.995 279.873 141.267C279.626 141.749 279.266 142.164 278.825 142.477C278.384 142.79 277.873 142.992 277.337 143.067C277.033 143.108 276.726 143.109 276.425 143.068C276.041 143.016 275.64 143.198 275.51 143.562L275.318 144.099Z" fill="#B7CDE1"/>
    </g>
    <path d="M294.945 172.992C297.625 172.992 300.245 172.197 302.474 170.708C304.702 169.219 306.439 167.103 307.465 164.627C308.49 162.151 308.759 159.426 308.236 156.797C307.713 154.169 306.422 151.754 304.527 149.859C302.632 147.964 300.217 146.673 297.589 146.15C294.96 145.627 292.235 145.896 289.759 146.921C287.283 147.947 285.167 149.684 283.677 151.912C282.188 154.141 281.394 156.761 281.394 159.441C281.394 163.035 282.821 166.482 285.363 169.023C287.904 171.565 291.351 172.992 294.945 172.992Z" fill="#FEB452"/>
    <g style="mix-blend-mode:multiply">
        <path fill-rule="evenodd" clip-rule="evenodd" d="M300.946 167.247C300.846 167.347 300.711 167.404 300.569 167.405H289.321C289.179 167.404 289.044 167.347 288.943 167.247C288.843 167.147 288.787 167.011 288.785 166.87V155.621C288.787 155.48 288.843 155.344 288.943 155.244C289.044 155.144 289.179 155.087 289.321 155.086H292.486C292.235 154.654 292.103 154.163 292.102 153.664C292.101 153.164 292.232 152.673 292.481 152.24C292.731 151.808 293.09 151.448 293.522 151.198C293.955 150.948 294.445 150.816 294.945 150.816C295.444 150.816 295.935 150.948 296.368 151.198C296.8 151.448 297.159 151.808 297.408 152.24C297.658 152.673 297.789 153.164 297.788 153.664C297.787 154.163 297.655 154.654 297.404 155.086H300.569C300.711 155.087 300.846 155.144 300.946 155.244C301.047 155.344 301.103 155.48 301.105 155.621V158.498C300.865 158.432 300.612 158.397 300.351 158.397C298.781 158.397 297.508 159.67 297.508 161.24C297.508 162.81 298.781 164.083 300.351 164.083C300.612 164.083 300.865 164.048 301.105 163.982V166.87C301.103 167.011 301.047 167.147 300.946 167.247Z" fill="#FEB452"/>
    </g>
    <path d="M254.577 201.023V192.623H257.769C259.401 192.623 260.457 193.583 260.457 195.059C260.457 196.535 259.401 197.495 257.769 197.495H255.669V201.023H254.577ZM255.669 196.511H257.733C258.729 196.511 259.329 195.971 259.329 195.059C259.329 194.147 258.729 193.595 257.733 193.595H255.669V196.511ZM266.821 197.723C266.821 197.867 266.809 198.083 266.797 198.191H262.021C262.093 199.415 262.861 200.219 263.953 200.219C264.877 200.219 265.513 199.787 265.693 199.031L266.653 199.259C266.353 200.435 265.345 201.119 263.953 201.119C262.141 201.119 261.001 199.715 261.001 197.999C261.001 196.283 262.105 194.879 263.929 194.879C265.717 194.879 266.821 196.163 266.821 197.723ZM262.081 197.339H265.741C265.645 196.415 264.997 195.731 263.929 195.731C262.981 195.731 262.285 196.331 262.081 197.339ZM271.675 195.971C271.447 195.875 271.159 195.827 270.895 195.827C269.935 195.827 269.155 196.751 269.155 198.719V201.023H268.135V194.975H269.155V196.199C269.503 195.431 270.295 194.879 271.039 194.879C271.291 194.879 271.531 194.915 271.735 194.987L271.675 195.971ZM274.592 201.119C273.128 201.119 272.336 200.207 272.072 199.355L272.948 198.971C273.176 199.679 273.656 200.255 274.592 200.255C275.336 200.255 275.816 199.823 275.816 199.331C275.816 197.783 272.336 198.779 272.336 196.487C272.336 195.527 273.164 194.879 274.46 194.879C275.528 194.879 276.452 195.479 276.704 196.367L275.852 196.739C275.684 196.115 275.084 195.719 274.436 195.719C273.752 195.719 273.32 195.995 273.32 196.475C273.32 197.771 276.824 196.823 276.812 199.319C276.812 200.375 275.924 201.119 274.592 201.119ZM280.784 201.119C278.984 201.119 277.712 199.811 277.712 197.999C277.712 196.187 278.984 194.879 280.784 194.879C282.572 194.879 283.868 196.187 283.868 197.999C283.868 199.811 282.572 201.119 280.784 201.119ZM280.784 200.207C281.996 200.207 282.812 199.295 282.812 197.999C282.812 196.703 281.996 195.791 280.784 195.791C279.572 195.791 278.756 196.703 278.756 197.999C278.756 199.295 279.572 200.207 280.784 200.207ZM285.174 201.023V194.975H286.194V196.115C286.614 195.395 287.346 194.879 288.27 194.879C289.53 194.879 290.43 195.731 290.43 197.015V201.023H289.41V197.207C289.41 196.391 288.894 195.803 288.042 195.803C286.914 195.803 286.194 196.775 286.194 198.371V201.023H285.174ZM294.032 201.023L291.476 192.623H292.604L294.608 199.763L296.636 192.623H297.776L299.792 199.763L301.796 192.623H302.924L300.38 201.023H299.228L297.212 194.255L295.172 201.023H294.032ZM304.439 193.835C304.031 193.835 303.731 193.523 303.731 193.127C303.731 192.719 304.031 192.407 304.439 192.407C304.859 192.407 305.171 192.719 305.171 193.127C305.171 193.523 304.859 193.835 304.439 193.835ZM303.935 201.023V194.975H304.955V201.023H303.935ZM309.823 200.975C309.523 201.083 309.199 201.119 308.875 201.119C307.843 201.119 307.087 200.543 307.087 199.211V195.875H305.959V194.975H307.087V193.139H308.107V194.975H309.727V195.875H308.107V199.247C308.107 199.883 308.467 200.195 308.995 200.195C309.235 200.195 309.511 200.159 309.751 200.039L309.823 200.975ZM311.119 201.023V192.527H312.139V196.163C312.583 195.299 313.315 194.879 314.203 194.879C315.571 194.879 316.471 195.731 316.471 197.039V201.023H315.451V197.231C315.451 196.343 314.899 195.803 313.975 195.803C312.859 195.803 312.139 196.811 312.139 198.431V201.023H311.119ZM253.698 215.023V206.623H256.89C258.522 206.623 259.578 207.583 259.578 209.059C259.578 210.535 258.522 211.495 256.89 211.495H254.79V215.023H253.698ZM254.79 210.511H256.854C257.85 210.511 258.45 209.971 258.45 209.059C258.45 208.147 257.85 207.595 256.854 207.595H254.79V210.511ZM265.844 208.975V215.023H264.824V213.883C264.404 214.603 263.672 215.119 262.748 215.119C261.488 215.119 260.588 214.267 260.588 212.983V208.975H261.608V212.791C261.608 213.607 262.124 214.195 262.976 214.195C264.104 214.195 264.824 213.223 264.824 211.627V208.975H265.844ZM267.07 215.023V214.243L270.802 209.875H267.286V208.975H272.098V209.755L268.414 214.123H272.122V215.023H267.07ZM272.953 215.023V214.243L276.685 209.875H273.169V208.975H277.981V209.755L274.297 214.123H278.005V215.023H272.953ZM281.151 215.107C280.071 215.215 279.267 214.807 279.267 213.547V206.527H280.287V213.475C280.287 214.135 280.599 214.231 281.103 214.195L281.151 215.107ZM287.81 211.723C287.81 211.867 287.798 212.083 287.786 212.191H283.01C283.082 213.415 283.85 214.219 284.942 214.219C285.866 214.219 286.502 213.787 286.682 213.031L287.642 213.259C287.342 214.435 286.334 215.119 284.942 215.119C283.13 215.119 281.99 213.715 281.99 211.999C281.99 210.283 283.094 208.879 284.918 208.879C286.706 208.879 287.81 210.163 287.81 211.723ZM283.07 211.339H286.73C286.634 210.415 285.986 209.731 284.918 209.731C283.97 209.731 283.274 210.331 283.07 211.339ZM289.171 215.023V206.623H292.363C293.995 206.623 295.051 207.583 295.051 209.059C295.051 210.535 293.995 211.495 292.363 211.495H290.263V215.023H289.171ZM290.263 210.511H292.327C293.323 210.511 293.923 209.971 293.923 209.059C293.923 208.147 293.323 207.595 292.327 207.595H290.263V210.511ZM296.682 207.835C296.274 207.835 295.974 207.523 295.974 207.127C295.974 206.719 296.274 206.407 296.682 206.407C297.102 206.407 297.414 206.719 297.414 207.127C297.414 207.523 297.102 207.835 296.682 207.835ZM296.178 215.023V208.975H297.198V215.023H296.178ZM304.321 211.723C304.321 211.867 304.309 212.083 304.297 212.191H299.521C299.593 213.415 300.361 214.219 301.453 214.219C302.377 214.219 303.013 213.787 303.193 213.031L304.153 213.259C303.853 214.435 302.845 215.119 301.453 215.119C299.641 215.119 298.501 213.715 298.501 211.999C298.501 210.283 299.605 208.879 301.429 208.879C303.217 208.879 304.321 210.163 304.321 211.723ZM299.581 211.339H303.241C303.145 210.415 302.497 209.731 301.429 209.731C300.481 209.731 299.785 210.331 299.581 211.339ZM308.287 215.119C306.487 215.119 305.287 213.871 305.287 211.999C305.287 210.127 306.487 208.879 308.287 208.879C309.691 208.879 310.723 209.647 310.939 210.847L309.931 211.051C309.799 210.319 309.163 209.791 308.311 209.791C307.123 209.791 306.355 210.667 306.355 211.999C306.355 213.331 307.123 214.207 308.311 214.207C309.163 214.207 309.787 213.739 309.955 212.935L310.951 213.139C310.687 214.387 309.679 215.119 308.287 215.119ZM317.693 211.723C317.693 211.867 317.681 212.083 317.669 212.191H312.893C312.965 213.415 313.733 214.219 314.825 214.219C315.749 214.219 316.385 213.787 316.565 213.031L317.525 213.259C317.225 214.435 316.217 215.119 314.825 215.119C313.013 215.119 311.873 213.715 311.873 211.999C311.873 210.283 312.977 208.879 314.801 208.879C316.589 208.879 317.693 210.163 317.693 211.723ZM312.953 211.339H316.613C316.517 210.415 315.869 209.731 314.801 209.731C313.853 209.731 313.157 210.331 312.953 211.339Z" fill="#53585C"/>
    <path d="M418.788 141.84C423.83 141.84 428.232 144.542 428.232 151.244V170.306C428.284 170.685 428.185 171.07 427.956 171.377C427.728 171.684 427.387 171.889 427.009 171.948H410.583C409.909 171.948 409.367 171.226 409.367 170.306V151.244C409.343 144.542 413.745 141.84 418.788 141.84Z" fill="white"/>
    <path d="M432.052 144.321C433.026 144.321 433.979 144.032 434.789 143.491C435.6 142.949 436.231 142.18 436.604 141.279C436.977 140.379 437.075 139.388 436.885 138.432C436.694 137.476 436.225 136.598 435.536 135.909C434.847 135.22 433.969 134.751 433.013 134.561C432.057 134.37 431.066 134.468 430.166 134.841C429.265 135.214 428.496 135.845 427.954 136.656C427.413 137.466 427.124 138.419 427.124 139.394C427.124 140.7 427.643 141.954 428.567 142.878C429.491 143.802 430.745 144.321 432.052 144.321Z" fill="#42CACD"/>
    <path d="M404.949 144.133C405.923 144.133 406.876 143.844 407.686 143.302C408.497 142.761 409.128 141.991 409.501 141.091C409.874 140.19 409.972 139.2 409.782 138.244C409.592 137.288 409.122 136.41 408.433 135.721C407.744 135.031 406.866 134.562 405.91 134.372C404.954 134.182 403.963 134.279 403.063 134.652C402.163 135.025 401.393 135.657 400.851 136.467C400.31 137.278 400.021 138.23 400.021 139.205C400.021 140.512 400.54 141.765 401.464 142.69C402.388 143.614 403.642 144.133 404.949 144.133Z" fill="#FEB452"/>
    <path d="M418.787 140.141C419.762 140.141 420.715 139.852 421.525 139.31C422.335 138.769 422.967 137.999 423.34 137.099C423.713 136.198 423.811 135.207 423.62 134.252C423.43 133.296 422.961 132.418 422.272 131.728C421.583 131.039 420.705 130.57 419.749 130.38C418.793 130.19 417.802 130.287 416.902 130.66C416.001 131.033 415.232 131.665 414.69 132.475C414.149 133.286 413.86 134.238 413.86 135.213C413.86 136.52 414.379 137.773 415.303 138.697C416.227 139.621 417.48 140.141 418.787 140.141Z" fill="#FE90A0"/>
    <path d="M404.949 146.145C409.991 146.145 414.393 148.847 414.393 155.548V174.635C414.445 175.015 414.346 175.399 414.117 175.707C413.889 176.014 413.548 176.219 413.17 176.278H396.744C396.079 176.278 395.528 175.555 395.528 174.635V155.548C395.504 148.847 399.906 146.145 404.949 146.145Z" fill="#B7CDE1"/>
    <path d="M432.027 146.145C437.069 146.145 441.472 148.847 441.472 155.548V174.635C441.523 175.015 441.424 175.399 441.195 175.707C440.967 176.014 440.626 176.219 440.248 176.278H423.822C423.157 176.278 422.607 175.555 422.607 174.635V155.548C422.582 148.847 426.984 146.145 432.027 146.145Z" fill="#B7CDE1"/>
    <g style="mix-blend-mode:multiply">
        <path d="M418.788 141.841C423.83 141.841 428.232 144.543 428.232 151.245V170.307C428.284 170.686 428.185 171.071 427.956 171.378C427.728 171.685 427.387 171.89 427.009 171.949H410.583C409.909 171.949 409.367 171.227 409.367 170.307V151.245C409.343 144.543 413.745 141.841 418.788 141.841Z" fill="#B7CDE1"/>
    </g>
    <path d="M387.466 201.023V192.623H390.658C392.29 192.623 393.346 193.583 393.346 195.059C393.346 196.535 392.29 197.495 390.658 197.495H388.558V201.023H387.466ZM388.558 196.511H390.622C391.618 196.511 392.218 195.971 392.218 195.059C392.218 194.147 391.618 193.595 390.622 193.595H388.558V196.511ZM399.71 197.723C399.71 197.867 399.698 198.083 399.686 198.191H394.91C394.982 199.415 395.75 200.219 396.842 200.219C397.766 200.219 398.402 199.787 398.582 199.031L399.542 199.259C399.242 200.435 398.234 201.119 396.842 201.119C395.03 201.119 393.89 199.715 393.89 197.999C393.89 196.283 394.994 194.879 396.818 194.879C398.606 194.879 399.71 196.163 399.71 197.723ZM394.97 197.339H398.63C398.534 196.415 397.886 195.731 396.818 195.731C395.87 195.731 395.174 196.331 394.97 197.339ZM403.747 201.119C401.947 201.119 400.675 199.811 400.675 197.999C400.675 196.187 401.947 194.879 403.747 194.879C405.535 194.879 406.831 196.187 406.831 197.999C406.831 199.811 405.535 201.119 403.747 201.119ZM403.747 200.207C404.959 200.207 405.775 199.295 405.775 197.999C405.775 196.703 404.959 195.791 403.747 195.791C402.535 195.791 401.719 196.703 401.719 197.999C401.719 199.295 402.535 200.207 403.747 200.207ZM408.137 203.207V194.975H409.157V195.851C409.481 195.299 410.273 194.879 411.149 194.879C413.009 194.879 414.041 196.223 414.041 197.999C414.041 199.775 412.985 201.119 411.125 201.119C410.357 201.119 409.565 200.735 409.157 200.183V203.207H408.137ZM411.029 200.207C412.229 200.207 413.009 199.331 413.009 197.999C413.009 196.667 412.229 195.791 411.029 195.791C409.853 195.791 409.073 196.667 409.073 197.999C409.073 199.331 409.853 200.207 411.029 200.207ZM417.228 201.107C416.148 201.215 415.344 200.807 415.344 199.547V192.527H416.364V199.475C416.364 200.135 416.676 200.231 417.18 200.195L417.228 201.107ZM423.886 197.723C423.886 197.867 423.874 198.083 423.862 198.191H419.086C419.158 199.415 419.926 200.219 421.018 200.219C421.942 200.219 422.578 199.787 422.758 199.031L423.718 199.259C423.418 200.435 422.41 201.119 421.018 201.119C419.206 201.119 418.066 199.715 418.066 197.999C418.066 196.283 419.17 194.879 420.994 194.879C422.782 194.879 423.886 196.163 423.886 197.723ZM419.146 197.339H422.806C422.71 196.415 422.062 195.731 420.994 195.731C420.046 195.731 419.35 196.331 419.146 197.339ZM427.143 201.023L424.587 192.623H425.715L427.719 199.763L429.747 192.623H430.887L432.903 199.763L434.907 192.623H436.035L433.491 201.023H432.339L430.323 194.255L428.283 201.023H427.143ZM437.551 193.835C437.143 193.835 436.843 193.523 436.843 193.127C436.843 192.719 437.143 192.407 437.551 192.407C437.971 192.407 438.283 192.719 438.283 193.127C438.283 193.523 437.971 193.835 437.551 193.835ZM437.047 201.023V194.975H438.067V201.023H437.047ZM442.935 200.975C442.635 201.083 442.311 201.119 441.987 201.119C440.955 201.119 440.199 200.543 440.199 199.211V195.875H439.071V194.975H440.199V193.139H441.219V194.975H442.839V195.875H441.219V199.247C441.219 199.883 441.579 200.195 442.107 200.195C442.347 200.195 442.623 200.159 442.863 200.039L442.935 200.975ZM444.23 201.023V192.527H445.25V196.163C445.694 195.299 446.426 194.879 447.314 194.879C448.682 194.879 449.582 195.731 449.582 197.039V201.023H448.562V197.231C448.562 196.343 448.01 195.803 447.086 195.803C445.97 195.803 445.25 196.811 445.25 198.431V201.023H444.23ZM380.445 215.119C378.333 215.119 376.365 213.715 376.365 210.823C376.365 207.931 378.345 206.527 380.445 206.527C382.281 206.527 383.637 207.559 383.985 209.179L382.905 209.419C382.641 208.207 381.741 207.499 380.433 207.499C378.729 207.499 377.493 208.675 377.493 210.823C377.493 212.971 378.729 214.135 380.433 214.135C381.741 214.135 382.593 213.463 382.893 212.299L383.985 212.527C383.565 214.111 382.257 215.119 380.445 215.119ZM387.991 215.119C386.191 215.119 384.919 213.811 384.919 211.999C384.919 210.187 386.191 208.879 387.991 208.879C389.779 208.879 391.075 210.187 391.075 211.999C391.075 213.811 389.779 215.119 387.991 215.119ZM387.991 214.207C389.203 214.207 390.019 213.295 390.019 211.999C390.019 210.703 389.203 209.791 387.991 209.791C386.779 209.791 385.963 210.703 385.963 211.999C385.963 213.295 386.779 214.207 387.991 214.207ZM394.265 215.107C393.185 215.215 392.381 214.807 392.381 213.547V206.527H393.401V213.475C393.401 214.135 393.713 214.231 394.217 214.195L394.265 215.107ZM398.175 215.119C396.375 215.119 395.103 213.811 395.103 211.999C395.103 210.187 396.375 208.879 398.175 208.879C399.963 208.879 401.259 210.187 401.259 211.999C401.259 213.811 399.963 215.119 398.175 215.119ZM398.175 214.207C399.387 214.207 400.203 213.295 400.203 211.999C400.203 210.703 399.387 209.791 398.175 209.791C396.963 209.791 396.147 210.703 396.147 211.999C396.147 213.295 396.963 214.207 398.175 214.207ZM407.82 208.975V215.023H406.8V213.883C406.38 214.603 405.648 215.119 404.724 215.119C403.464 215.119 402.564 214.267 402.564 212.983V208.975H403.584V212.791C403.584 213.607 404.1 214.195 404.952 214.195C406.08 214.195 406.8 213.223 406.8 211.627V208.975H407.82ZM413.018 209.971C412.79 209.875 412.502 209.827 412.238 209.827C411.278 209.827 410.498 210.751 410.498 212.719V215.023H409.478V208.975H410.498V210.199C410.846 209.431 411.638 208.879 412.382 208.879C412.634 208.879 412.874 208.915 413.078 208.987L413.018 209.971ZM419.263 211.723C419.263 211.867 419.251 212.083 419.239 212.191H414.463C414.535 213.415 415.303 214.219 416.395 214.219C417.319 214.219 417.955 213.787 418.135 213.031L419.095 213.259C418.795 214.435 417.787 215.119 416.395 215.119C414.583 215.119 413.443 213.715 413.443 211.999C413.443 210.283 414.547 208.879 416.371 208.879C418.159 208.879 419.263 210.163 419.263 211.723ZM414.523 211.339H418.183C418.087 210.415 417.439 209.731 416.371 209.731C415.423 209.731 414.727 210.331 414.523 211.339ZM423.144 215.119C421.26 215.119 420.228 213.775 420.228 211.999C420.228 210.223 421.26 208.879 423.132 208.879C423.936 208.879 424.728 209.275 425.112 209.839V206.527H426.132V215.023H425.112V214.147C424.836 214.699 424.032 215.119 423.144 215.119ZM423.24 214.207C424.428 214.207 425.208 213.331 425.208 211.999C425.208 210.667 424.428 209.791 423.24 209.791C422.052 209.791 421.272 210.667 421.272 211.999C421.272 213.331 422.052 214.207 423.24 214.207ZM433.279 206.623H434.371V215.023H433.279V211.087H428.923V215.023H427.831V206.623H428.923V210.103H433.279V206.623ZM441.552 211.723C441.552 211.867 441.54 212.083 441.528 212.191H436.752C436.824 213.415 437.592 214.219 438.684 214.219C439.608 214.219 440.244 213.787 440.424 213.031L441.384 213.259C441.084 214.435 440.076 215.119 438.684 215.119C436.872 215.119 435.732 213.715 435.732 211.999C435.732 210.283 436.836 208.879 438.66 208.879C440.448 208.879 441.552 210.163 441.552 211.723ZM436.812 211.339H440.472C440.376 210.415 439.728 209.731 438.66 209.731C437.712 209.731 437.016 210.331 436.812 211.339ZM445.063 208.879C446.527 208.879 447.547 209.743 447.547 211.147V215.023H446.539V213.991C446.191 214.687 445.399 215.119 444.523 215.119C443.311 215.119 442.483 214.375 442.483 213.331C442.483 212.167 443.431 211.531 445.363 211.339L446.539 211.207V211.087C446.539 210.259 445.951 209.731 445.063 209.731C444.235 209.731 443.647 210.223 443.563 211.039L442.615 210.859C442.795 209.659 443.791 208.879 445.063 208.879ZM444.679 214.279C445.855 214.279 446.539 213.499 446.539 212.287V211.999L445.363 212.131C444.139 212.263 443.503 212.683 443.503 213.319C443.503 213.883 443.983 214.279 444.679 214.279ZM451.773 215.119C449.889 215.119 448.857 213.775 448.857 211.999C448.857 210.223 449.889 208.879 451.761 208.879C452.565 208.879 453.357 209.275 453.741 209.839V206.527H454.761V215.023H453.741V214.147C453.465 214.699 452.661 215.119 451.773 215.119ZM451.869 214.207C453.057 214.207 453.837 213.331 453.837 211.999C453.837 210.667 453.057 209.791 451.869 209.791C450.681 209.791 449.901 210.667 449.901 211.999C449.901 213.331 450.681 214.207 451.869 214.207ZM458.44 215.119C456.976 215.119 456.184 214.207 455.92 213.355L456.796 212.971C457.024 213.679 457.504 214.255 458.44 214.255C459.184 214.255 459.664 213.823 459.664 213.331C459.664 211.783 456.184 212.779 456.184 210.487C456.184 209.527 457.012 208.879 458.308 208.879C459.376 208.879 460.3 209.479 460.552 210.367L459.7 210.739C459.532 210.115 458.932 209.719 458.284 209.719C457.6 209.719 457.168 209.995 457.168 210.475C457.168 211.771 460.672 210.823 460.66 213.319C460.66 214.375 459.772 215.119 458.44 215.119Z" fill="#53585C"/>
    <defs>
        <clipPath id="clip0_429_17987">
            <rect width="52.5626" height="52.5626" fill="white" transform="translate(6.21875 127)"/>
        </clipPath>
        <clipPath id="clip1_429_17987">
            <rect width="52.5626" height="52.5626" fill="white" transform="translate(125.719 127)"/>
        </clipPath>
    </defs>
</svg>
