<svg width="64" height="64" viewBox="0 0 64 64" fill="none" xmlns="http://www.w3.org/2000/svg">
<path d="M22 2C22 0.89543 21.1046 0 20 0C18.8954 0 18 0.89543 18 2V6C18 7.10457 18.8954 8 20 8C21.1046 8 22 7.10457 22 6V2Z" fill="white"/>
<path d="M46 2C46 0.89543 45.1046 0 44 0C42.8954 0 42 0.89543 42 2V6C42 7.10457 42.8954 8 44 8C45.1046 8 46 7.10457 46 6V2Z" fill="white"/>
<path d="M52 4H12C10.3431 4 9 5.34315 9 7V61C9 62.6569 10.3431 64 12 64H52C53.6569 64 55 62.6569 55 61V7C55 5.34315 53.6569 4 52 4Z" fill="#B7CDE1"/>
<g style="mix-blend-mode:multiply">
<path d="M22 2C22 0.89543 21.1046 0 20 0C18.8954 0 18 0.89543 18 2V6C18 7.10457 18.8954 8 20 8C21.1046 8 22 7.10457 22 6V2Z" fill="#42CACD"/>
</g>
<g style="mix-blend-mode:multiply">
<path d="M46 2C46 0.89543 45.1046 0 44 0C42.8954 0 42 0.89543 42 2V6C42 7.10457 42.8954 8 44 8C45.1046 8 46 7.10457 46 6V2Z" fill="#42CACD"/>
</g>
<g style="mix-blend-mode:multiply">
<path d="M43.5 38C44.3284 38 45 37.3284 45 36.5C45 35.6716 44.3284 35 43.5 35H20.5C19.6716 35 19 35.6716 19 36.5C19 37.3284 19.6716 38 20.5 38H43.5Z" fill="#B7CDE1"/>
</g>
<g style="mix-blend-mode:multiply">
<path d="M43.5 44C44.3284 44 45 43.3284 45 42.5C45 41.6716 44.3284 41 43.5 41H20.5C19.6716 41 19 41.6716 19 42.5C19 43.3284 19.6716 44 20.5 44H43.5Z" fill="#B7CDE1"/>
</g>
<g style="mix-blend-mode:multiply">
<path d="M35.5 50C36.3284 50 37 49.3284 37 48.5C37 47.6716 36.3284 47 35.5 47H20.5C19.6716 47 19 47.6716 19 48.5C19 49.3284 19.6716 50 20.5 50H35.5Z" fill="#B7CDE1"/>
</g>
<g style="mix-blend-mode:multiply">
<path d="M32 30C35.3137 30 38 27.3137 38 24C38 20.6863 35.3137 18 32 18C28.6863 18 26 20.6863 26 24C26 27.3137 28.6863 30 32 30Z" fill="#42CACD"/>
</g>
</svg>
