<svg width="51" height="51" viewBox="0 0 51 51" fill="none" xmlns="http://www.w3.org/2000/svg">
<rect width="50.5" height="50.5" fill="white"/>
<circle cx="25" cy="25" r="25" fill="#5900B3"/>
<path d="M22.8711 28.7578L22.7148 18.084L24.8926 18.2402L25.0098 31.6582L22.9102 31.8242L14.1699 21.3848L14.2969 31.9219L12.2559 32L12.0703 18.0352L14.1309 17.9375L22.8711 28.7578ZM38.9551 29.6953C38.89 30.151 38.7598 30.5579 38.5645 30.916C38.3757 31.2676 38.138 31.5736 37.8516 31.834C37.5651 32.0944 37.2428 32.3125 36.8848 32.4883C36.5332 32.6706 36.1621 32.8171 35.7715 32.9277C35.3874 33.0384 34.9967 33.1165 34.5996 33.1621C34.2025 33.2142 33.8216 33.2402 33.457 33.2402C32.9557 33.2402 32.4609 33.1849 31.9727 33.0742C31.4844 32.9701 31.0026 32.8203 30.5273 32.625C30.0586 32.4362 29.5931 32.2083 29.1309 31.9414C28.6751 31.6745 28.2227 31.3815 27.7734 31.0625L29.1992 29.3828C29.707 29.832 30.2083 30.1868 30.7031 30.4473C31.2044 30.7012 31.6536 30.8932 32.0508 31.0234C32.513 31.1797 32.9557 31.2839 33.3789 31.3359C33.8477 31.362 34.2839 31.3262 34.6875 31.2285C35.0911 31.1309 35.4427 30.9909 35.7422 30.8086C36.0482 30.6198 36.2923 30.3984 36.4746 30.1445C36.6569 29.8841 36.7643 29.6107 36.7969 29.3242C36.8164 29.0833 36.7741 28.8652 36.6699 28.6699C36.5658 28.4681 36.4128 28.2858 36.2109 28.123C36.0091 27.9538 35.7715 27.8073 35.498 27.6836C35.2246 27.5534 34.9316 27.4395 34.6191 27.3418C34.3132 27.2376 33.9941 27.1497 33.6621 27.0781C33.3366 27 33.0208 26.9349 32.7148 26.8828C32.3438 26.8177 31.9531 26.7331 31.543 26.6289C31.1328 26.5182 30.7292 26.375 30.332 26.1992C29.9349 26.0234 29.5605 25.8053 29.209 25.5449C28.8574 25.2845 28.5514 24.972 28.291 24.6074C28.0371 24.2363 27.8418 23.8066 27.7051 23.3184C27.5749 22.8301 27.5326 22.2702 27.5781 21.6387C27.6172 21.1178 27.7246 20.6491 27.9004 20.2324C28.0827 19.8092 28.3138 19.4316 28.5938 19.0996C28.8802 18.7676 29.2057 18.4844 29.5703 18.25C29.9414 18.0091 30.3353 17.8105 30.752 17.6543C31.1686 17.498 31.5983 17.3874 32.041 17.3223C32.4902 17.2507 32.9362 17.2181 33.3789 17.2246C33.9909 17.2572 34.6061 17.3516 35.2246 17.5078C35.485 17.5729 35.7585 17.6576 36.0449 17.7617C36.3379 17.8594 36.6309 17.9798 36.9238 18.123C37.2168 18.2598 37.5065 18.4258 37.793 18.6211C38.0794 18.8099 38.3529 19.028 38.6133 19.2754L37.5195 21.0039C37.3112 20.7695 37.0898 20.5645 36.8555 20.3887C36.6211 20.2129 36.3835 20.0599 36.1426 19.9297C35.9082 19.7995 35.6738 19.6888 35.4395 19.5977C35.2051 19.5065 34.9837 19.4316 34.7754 19.373C34.2741 19.2363 33.7826 19.1582 33.3008 19.1387C32.7083 19.1387 32.181 19.2298 31.7188 19.4121C31.2565 19.5879 30.8659 19.819 30.5469 20.1055C30.2344 20.3854 29.9935 20.7012 29.8242 21.0527C29.6615 21.3978 29.5801 21.7396 29.5801 22.0781C29.5801 22.4102 29.6777 22.7324 29.873 23.0449C30.0749 23.3574 30.3516 23.6406 30.7031 23.8945C31.0547 24.1484 31.4681 24.3665 31.9434 24.5488C32.4186 24.7246 32.9297 24.8483 33.4766 24.9199C33.9518 24.972 34.4238 25.0566 34.8926 25.1738C35.3678 25.291 35.8203 25.4408 36.25 25.623C36.6797 25.8053 37.0736 26.0267 37.4316 26.2871C37.7962 26.541 38.1022 26.8372 38.3496 27.1758C38.597 27.5078 38.776 27.8854 38.8867 28.3086C39.0039 28.7253 39.0267 29.1875 38.9551 29.6953Z" fill="white"/>
</svg>
