<?xml version="1.0" encoding="UTF-8"?><svg id="Layer_1" xmlns="http://www.w3.org/2000/svg" viewBox="0 0 159.08 169.24"><defs><style>.cls-1{fill:#f2f0f3;}.cls-2{fill:#eb2290;}.cls-3{fill:#414042;}</style></defs><rect class="cls-2" x="4.83" y="148.39" width="149.41" height="20.85"/><rect class="cls-1" width="159.08" height="151.39"/><path class="cls-3" d="m134.35,124.38c-.33,0-.67,0-1-.01-.22-.01-.3.06-.29.29.01.87,0,1.75,0,2.62,0,1.94,0,3.87,0,5.81q0,.38-.37.38c-.39,0-.79-.02-1.18,0-.25.01-.3-.08-.3-.31,0-2.81,0-5.62,0-8.43q0-.37-.36-.37c-.59,0-1.18,0-1.8,0,0,.49.02.95,0,1.41-.02.5-.03,1.02-.14,1.5-.27,1.14-1.05,1.79-2.22,1.93-.3.04-.59.05-.92.08-.02.66-.08,1.31.21,1.92.26.55.96.87,1.57.69.39-.12.75-.33,1.17-.52.25.36.55.77.83,1.2.03.04-.06.21-.14.27-.92.71-1.94.97-3.09.71-1.22-.28-2.14-1.2-2.28-2.48-.12-1.11-.08-2.24-.12-3.36,0-.16.09-.17.21-.17.58,0,1.17,0,1.75-.04.84-.07,1.2-.39,1.29-1.22.07-.62.01-1.26.01-1.92-.1,0-.19,0-.28,0-1.64,0-3.27,0-4.91,0-.25,0-.3.08-.29.31,0,2.82,0,5.64,0,8.46q0,.34-.33.34c-.42,0-.84-.01-1.26,0-.21,0-.26-.06-.26-.26,0-1.41,0-2.83,0-4.24,0-.24-.06-.31-.3-.3-.74.01-1.47.01-2.21,0-.19,0-.25.06-.24.25.01.72-.07,1.42-.51,2.03-.61.84-1.48,1.1-2.44,1.02-1.03-.09-1.82-.62-2.18-1.62-.48-1.35.22-2.84,1.87-3.22.37-.09.77-.05,1.15-.04.19,0,.28-.05.27-.26-.01-.74,0-1.47,0-2.21,0-.15-.03-.24-.21-.24-1.65,0-3.31,0-4.96,0-.03,0-.07,0-.11.02,0,.09-.01.17-.01.26,0,2.84,0,5.67,0,8.51,0,.19.06.27.23.35.37.19.75.39,1.06.66,1.12.99,2.22,2.02,3.32,3.03.03.03.06.06.11.12-.35.37-.69.73-1.06,1.12-.1-.08-.18-.15-.26-.22-1.06-.96-2.12-1.92-3.18-2.88-.4-.36-.85-.55-1.39-.39-.58.18-.88.81-.67,1.41.19.56.81.85,1.38.63.06-.02.11-.04.19-.07.14.19.29.38.43.57.14.18.28.37.42.56-.45.42-.99.53-1.56.53-1.15-.01-2.09-.64-2.46-1.62-.4-1.08-.13-2.29.72-3.03.21-.19.49-.3.74-.46.06-.04.14-.11.14-.17.01-.63,0-1.26,0-1.94-.5.39-1.02.64-1.61.75-1.53.28-3.46-.2-4.4-1.63-.42-.63-.57-1.33-.55-2.07,0-.25-.08-.39-.28-.52-.82-.54-1.86-.41-2.37.31-.21.3-.31.64-.31,1.01,0,1.32,0,2.64,0,3.96v.29c-.62,0-1.22,0-1.84,0,0-1.11,0-2.21,0-3.37-.42.32-.84.48-1.31.52-1.58.16-3.14-.65-3.52-2.47-.08-.37-.1-.76-.11-1.15-.02-.77,0-1.54,0-2.31,0-.09,0-.18,0-.29-.66,0-1.29,0-1.96,0,0,.12,0,.22,0,.33-.03.8,0,1.62-.12,2.41-.19,1.22-1.01,1.94-2.24,2.09-.3.04-.61.06-.93.08,0,.58-.06,1.15.14,1.7.25.72.95,1.12,1.67.9.38-.12.74-.33,1.15-.52.25.36.56.78.84,1.22.02.04-.06.18-.12.24-.86.67-1.81.95-2.91.78-1.63-.25-2.45-1.53-2.55-2.92-.07-.96-.04-1.94-.06-2.9,0-.18.05-.24.23-.24.57,0,1.15.01,1.72-.04.85-.07,1.23-.42,1.31-1.26.06-.61.01-1.23.01-1.87-.09,0-.17-.01-.25-.01-1.64,0-3.27,0-4.91-.01-.25,0-.33.05-.33.32.01,2.82,0,5.64,0,8.46v.32c-.63,0-1.22,0-1.86,0,0-1.05,0-2.1,0-3.19-.18.09-.3.17-.43.23-1.59.71-4.21.05-4.64-2.47-.08-.47-.06-.96-.07-1.43-.01-.64-.01-1.29,0-1.93,0-.25-.08-.31-.31-.3-.35.02-.7,0-1.06,0,0-.53,0-1.03,0-1.57,17.54,0,35.09,0,52.67,0,0-.43,0-.83,0-1.24,0-.76.23-1.43.73-2,.4-.46.91-.74,1.51-.87.69-.15,1.38-.15,2.05.09.95.34,1.58,1,1.79,1.98.12.57.13,1.17.15,1.76,0,.23.08.3.3.29.33-.02.67-.01,1-.02,0,.53,0,1.06,0,1.59Zm-28.28,0c.4.99.5,1.96-.08,2.88-.59.94-1.54,1.2-2.58,1.25-.04.61.3,1.26.84,1.6.55.35,1.15.4,1.78.35,1.26-.1,2.1-.98,2.11-2.24,0-1.19,0-2.38,0-3.57,0-.08,0-.16-.01-.27h-2.04Zm-28.72,1.68s0,0,0,0c0,.43,0,.86,0,1.28,0,.96.6,1.81,1.88,1.68.77-.08,1.34-.57,1.38-1.33.05-1.05.03-2.1.05-3.15,0-.17-.11-.17-.22-.17-.95,0-1.9,0-2.85,0-.18,0-.24.05-.24.23.01.49,0,.98,0,1.46Zm19.42-1.66h-3.09c0,1.04-.03,2.07.01,3.09.02.56.3,1.04.85,1.28,1.11.48,2.19-.21,2.22-1.41.02-.62,0-1.23,0-1.85,0-.37,0-.73,0-1.11Zm1.85,2.23c.1-.08.16-.14.23-.18.28-.16.55-.37.85-.46,1.11-.31,2.12-.04,3,.67.29.23.55.26.87.19.59-.13.96-.55.97-1.13,0-.67-.35-1.14-.96-1.27-.2-.04-.41-.06-.61-.06-1.34,0-2.69,0-4.03,0h-.31c0,.75,0,1.47,0,2.25Zm21.18.46c.03-.05.04-.07.04-.08,0-.82,0-1.64,0-2.46,0-.15-.08-.16-.2-.16-.78,0-1.56,0-2.33,0-.17,0-.22.05-.22.22,0,.74.01,1.49,0,2.23,0,.21.08.26.27.26.68,0,1.37,0,2.05,0,.13,0,.27,0,.38,0Zm8.91-4.29c.84,0,1.59,0,2.35,0,.05,0,.15-.13.15-.2,0-.42,0-.84-.04-1.25-.05-.55-.48-.98-.98-1.02-.73-.06-1.22.22-1.34.86-.1.51-.09,1.05-.14,1.63Zm-13.97,5.88c-.17.01-.34,0-.51.03-.41.07-.71.44-.69.86.02.49.37.83.87.87.41.03.75-.25.82-.69.03-.18.04-.36.04-.54,0-.61.08-.52-.53-.54Z"/><path class="cls-3" d="m32.68,126.13c1.53-.91,2.9-.72,4.07.55.91.98,1.05,2.55.42,3.75-.58,1.11-1.83,1.68-3.14,1.65v-1.63c.26-.08.53-.13.76-.25.61-.3.84-.83.8-1.48-.04-.64-.35-1.11-.97-1.32-.64-.22-1.2-.05-1.67.42-.2.2-.3.43-.3.73.01,1.55,0,3.1,0,4.65,0,.08,0,.17,0,.26-.61,0-1.2,0-1.83,0,0-.58,0-1.15,0-1.75-1.87.86-3.48.7-4.67-1.07-.77-1.15-.63-2.8.24-3.87.54-.66,1.24-1.03,2.08-1.16.83-.13,1.59.06,2.34.59,0-.27,0-.47,0-.66,0-.28-.01-.57,0-.85.01-.24-.07-.32-.32-.32-1.82,0-3.63,0-5.45,0-.1,0-.2,0-.32,0,0-.53,0-1.04,0-1.58h30.59c-.01-.58-.66-1.25-1.24-1.3-.02,0-.03,0-.05,0q-.64-.03-.81-.65c-.06-.21-.11-.43-.16-.64,1.09-.34,2.28.1,2.88,1.1.28.48.53.97.82,1.53,0-.11.03-.16.01-.2-.32-.83-.63-1.66-.95-2.49-.05-.13-.13-.26-.2-.39-.31-.51-.79-.67-1.35-.67-.44,0-.39.08-.5-.38-.08-.3-.16-.61-.25-.93,1.02-.06,2-.08,2.76.71.41.42.62.95.8,1.5.28.84.57,1.68.83,2.53.07.22.18.28.4.28,4.37,0,8.74,0,13.11,0q.33,0,.33.34c0,.31-.02.62,0,.93.02.27-.08.34-.34.33-.4-.02-.8,0-1.25,0v9.08h-1.86v-.27c0-1.45,0-2.9,0-4.35,0-.25-.06-.35-.33-.34-.5.02-1.01.01-1.52,0-.19,0-.24.06-.25.25-.03.54-.02,1.09-.16,1.6-.32,1.13-1.12,1.8-2.27,2.02-1.51.3-2.99-.25-3.74-1.5-.7-1.18-.55-2.37.06-3.54.09-.17.21-.34.33-.49.04-.05.16-.1.21-.08.48.23.96.48,1.47.74-.33.4-.53.84-.61,1.33-.11.65.2,1.4.7,1.68.89.49,2.04.13,2.18-1.05.02-.14.02-.27.02-.41,0-.66,0-1.32,0-1.98,0-.21.05-.28.27-.28,1.1.01,2.19,0,3.29,0,.33,0,.33,0,.34-.34,0-.6,0-1.2,0-1.8,0-.2-.05-.28-.28-.28-2.97,0-5.95.01-8.92.01-.36,0-.72,0-1.08-.01-.24-.01-.31.06-.31.3,0,2.72,0,5.43,0,8.15q0,.66-.65.66c-.38,0-.75,0-1.15,0,0-.07-.02-.14-.02-.2,0-2.84,0-5.67,0-8.51,0-.08.02-.16-.01-.23-.03-.06-.1-.15-.15-.16-.77-.01-1.54,0-2.33,0,0,3.04,0,6.05,0,9.08h-1.84c0-1.7,0-3.41,0-5.15-.12,0-.21-.01-.3-.01-1.14,0-2.28,0-3.42,0-.2,0-.41.03-.61.08-.44.12-.67.49-.61.94.06.47.37.77.84.78.23,0,.47-.04.75-.07.16.47.33.97.51,1.51-.8.4-1.59.39-2.39.04-.63-.27-1.07-.74-1.33-1.36-.26-.62-.24-1.25-.06-1.9-.12,0-.2-.01-.28-.01-.94,0-1.89,0-2.83,0-.19,0-.38.02-.56.07-.47.13-.69.48-.63.97.05.44.38.74.84.75.23,0,.45-.04.73-.07.16.47.33.98.5,1.51-.43.24-.88.31-1.35.29-1.21-.05-2.18-.84-2.47-1.99-.37-1.48.59-2.94,2.09-3.19.24-.04.49-.05.74-.05,3.15,0,6.31,0,9.46,0,.11,0,.22,0,.34,0,0-.74,0-1.46,0-2.22-.11,0-.22,0-.32,0-4.29,0-8.59,0-12.88,0-1.77,0-3.55,0-5.32,0-.36,0-.36,0-.36.37,0,.36,0,.72,0,1.08,0,.09.01.18.02.3Zm-1.88,2.82c0-.92-.6-1.68-1.54-1.73-.92-.05-1.65.7-1.65,1.66,0,.97.67,1.68,1.56,1.68.94,0,1.61-.66,1.63-1.61Z"/><circle class="cls-3" cx="95.25" cy="132.13" r=".78"/></svg>