<svg viewBox="0 0 32 33" fill="none" xmlns="http://www.w3.org/2000/svg">
<circle cx="25.8541" cy="21.8333" r="6.02083" fill="white"/>
<rect x="2.125" y="3.0625" width="23.375" height="29.75" rx="1.41667" fill="#B7CDE1"/>
<g style="mix-blend-mode:multiply">
<rect x="4.97559" y="6.63965" width="7.8411" height="1.43086" rx="0.715428" fill="#B7CDE1"/>
</g>
<g style="mix-blend-mode:multiply">
<rect x="4.97559" y="13.7939" width="12.1181" height="1.43086" rx="0.715428" fill="#B7CDE1"/>
</g>
<g style="mix-blend-mode:multiply">
<rect x="4.97559" y="10.2168" width="17.8207" height="1.43086" rx="0.715428" fill="#B7CDE1"/>
</g>
<g style="mix-blend-mode:multiply">
<circle cx="25.8541" cy="21.8333" r="6.02083" fill="#FEB452"/>
</g>
<g style="mix-blend-mode:multiply">
<path fill-rule="evenodd" clip-rule="evenodd" d="M24.0107 19H28.6667V19.5977H26.6825C26.9362 19.8835 27.1013 20.2461 27.1553 20.636H28.6523V21.2337H27.1481C27.0858 21.6 26.9238 21.9386 26.6825 22.2069C26.528 22.3797 26.3446 22.5201 26.1417 22.6207L27.5743 25.2222H26.8903L25.5579 22.7854H24V22.1916H25.4899C25.7566 22.1924 26.016 22.0983 26.2274 21.9243C26.4387 21.7502 26.59 21.5059 26.6575 21.2299H24.0107V20.6322H26.6825C26.6257 20.3408 26.4769 20.0793 26.2609 19.8916C26.045 19.7039 25.7753 19.6014 25.4971 19.6015H24V19H24.0107Z" fill="#B7CDE1"/>
</g>
<path fill-rule="evenodd" clip-rule="evenodd" d="M24.0107 19H28.6667V19.5977H26.6825C26.9362 19.8835 27.1013 20.2461 27.1553 20.636H28.6523V21.2337H27.1481C27.0858 21.6 26.9238 21.9386 26.6825 22.2069C26.528 22.3797 26.3446 22.5201 26.1417 22.6207L27.5743 25.2222H26.8903L25.5579 22.7854H24V22.1916H25.4899C25.7566 22.1924 26.016 22.0983 26.2274 21.9243C26.4387 21.7502 26.59 21.5059 26.6575 21.2299H24.0107V20.6322H26.6825C26.6257 20.3408 26.4769 20.0793 26.2609 19.8916C26.045 19.7039 25.7753 19.6014 25.4971 19.6015H24V19H24.0107Z" fill="white"/>
</svg>
