<svg width="32" height="32" viewBox="0 0 32 32" fill="none" xmlns="http://www.w3.org/2000/svg">
<circle cx="25.8541" cy="20.8958" r="6.02083" fill="white"/>
<rect x="2.125" y="2.125" width="23.375" height="29.75" rx="1.41667" fill="#B7CDE1"/>
<g style="mix-blend-mode:multiply">
<rect x="4.97559" y="5.70215" width="7.8411" height="1.43086" rx="0.715428" fill="#B7CDE1"/>
</g>
<g style="mix-blend-mode:multiply">
<rect x="4.97559" y="12.8564" width="12.1181" height="1.43086" rx="0.715428" fill="#B7CDE1"/>
</g>
<g style="mix-blend-mode:multiply">
<rect x="4.97559" y="9.2793" width="17.8207" height="1.43086" rx="0.715428" fill="#B7CDE1"/>
</g>
<g style="mix-blend-mode:multiply">
<circle cx="25.8541" cy="20.8958" r="6.02083" fill="#FEB452"/>
</g>
<g style="mix-blend-mode:multiply">
<path fill-rule="evenodd" clip-rule="evenodd" d="M22.0107 16.6665H26.6667V17.2642H24.6825C24.9362 17.55 25.1013 17.9126 25.1553 18.3025H26.6523V18.9002H25.1481C25.0858 19.2665 24.9238 19.6051 24.6825 19.8734C24.528 20.0462 24.3446 20.1866 24.1417 20.2872L25.5743 22.8887H24.8903L23.5579 20.4519H22V19.8581H23.4899C23.7566 19.8589 24.016 19.7648 24.2274 19.5908C24.4387 19.4167 24.59 19.1724 24.6575 18.8964H22.0107V18.2987H24.6825C24.6257 18.0073 24.4769 17.7458 24.2609 17.5581C24.045 17.3704 23.7753 17.2679 23.4971 17.268H22V16.6665H22.0107Z" fill="#B7CDE1"/>
</g>
<path fill-rule="evenodd" clip-rule="evenodd" d="M22.0107 16.6665H26.6667V17.2642H24.6825C24.9362 17.55 25.1013 17.9126 25.1553 18.3025H26.6523V18.9002H25.1481C25.0858 19.2665 24.9238 19.6051 24.6825 19.8734C24.528 20.0462 24.3446 20.1866 24.1417 20.2872L25.5743 22.8887H24.8903L23.5579 20.4519H22V19.8581H23.4899C23.7566 19.8589 24.016 19.7648 24.2274 19.5908C24.4387 19.4167 24.59 19.1724 24.6575 18.8964H22.0107V18.2987H24.6825C24.6257 18.0073 24.4769 17.7458 24.2609 17.5581C24.045 17.3704 23.7753 17.2679 23.4971 17.268H22V16.6665H22.0107Z" fill="white"/>
</svg>
