<svg viewBox="0 0 32 32" fill="none" xmlns="http://www.w3.org/2000/svg">
<path d="M16.175 9.03491C19.245 9.03491 21.925 10.6799 21.925 14.7599V26.3649C21.9566 26.596 21.8962 26.8302 21.7569 27.0172C21.6176 27.2042 21.4104 27.3291 21.18 27.3649H11.18C10.77 27.3649 10.44 26.9249 10.44 26.3649V14.7599C10.425 10.6799 13.105 9.03491 16.175 9.03491Z" fill="white"/>
<path d="M24.25 10.5449C24.8433 10.5449 25.4234 10.369 25.9167 10.0393C26.4101 9.70969 26.7946 9.24115 27.0216 8.69297C27.2487 8.1448 27.3081 7.5416 27.1924 6.95965C27.0766 6.37771 26.7909 5.84316 26.3713 5.4236C25.9518 5.00405 25.4172 4.71832 24.8353 4.60257C24.2533 4.48681 23.6501 4.54622 23.1019 4.77328C22.5538 5.00035 22.0852 5.38487 21.7556 5.87821C21.4259 6.37156 21.25 6.95158 21.25 7.54492C21.25 8.34057 21.5661 9.10364 22.1287 9.66624C22.6913 10.2289 23.4543 10.5449 24.25 10.5449V10.5449Z" fill="#42CACD"/>
<path d="M7.75 10.4299C8.34334 10.4299 8.92336 10.254 9.41671 9.92434C9.91006 9.5947 10.2946 9.12616 10.5216 8.57798C10.7487 8.0298 10.8081 7.4266 10.6924 6.84466C10.5766 6.26272 10.2909 5.72817 9.87132 5.30861C9.45176 4.88905 8.91721 4.60333 8.33527 4.48758C7.75333 4.37182 7.15013 4.43123 6.60195 4.65829C6.05377 4.88536 5.58524 5.26987 5.25559 5.76322C4.92595 6.25657 4.75 6.83659 4.75 7.42993C4.75 8.22558 5.06607 8.98864 5.62868 9.55125C6.19129 10.1139 6.95435 10.4299 7.75 10.4299V10.4299Z" fill="#FEB452"/>
<path d="M16.175 8C16.7684 8 17.3484 7.82405 17.8418 7.49441C18.3351 7.16477 18.7196 6.69623 18.9467 6.14805C19.1737 5.59987 19.2332 4.99667 19.1174 4.41473C19.0016 3.83279 18.7159 3.29824 18.2964 2.87868C17.8768 2.45912 17.3423 2.1734 16.7603 2.05765C16.1784 1.94189 15.5752 2.0013 15.027 2.22836C14.4788 2.45543 14.0103 2.83994 13.6806 3.33329C13.351 3.82664 13.175 4.40666 13.175 5C13.175 5.79565 13.4911 6.55871 14.0537 7.12132C14.6163 7.68393 15.3794 8 16.175 8Z" fill="#FE90A0"/>
<path d="M7.74996 11.655C10.82 11.655 13.5 13.3 13.5 17.38V29C13.5315 29.2311 13.4712 29.4653 13.3319 29.6523C13.1925 29.8393 12.9854 29.9642 12.755 30H2.75496C2.34996 30 2.01496 29.56 2.01496 29V17.38C1.99996 13.3 4.67996 11.655 7.74996 11.655Z" fill="#B7CDE1"/>
<path d="M24.2351 11.655C27.3051 11.655 29.9851 13.3 29.9851 17.38V29C30.0167 29.2311 29.9563 29.4653 29.817 29.6523C29.6777 29.8393 29.4705 29.9642 29.2401 30H19.2401C18.8351 30 18.5001 29.56 18.5001 29V17.38C18.4851 13.3 21.1651 11.655 24.2351 11.655Z" fill="#B7CDE1"/>
<g style="mix-blend-mode:multiply">
<path d="M16.175 9.03491C19.245 9.03491 21.925 10.6799 21.925 14.7599V26.3649C21.9566 26.596 21.8962 26.8302 21.7569 27.0172C21.6176 27.2042 21.4104 27.3291 21.18 27.3649H11.18C10.77 27.3649 10.44 26.9249 10.44 26.3649V14.7599C10.425 10.6799 13.105 9.03491 16.175 9.03491Z" fill="#B7CDE1"/>
</g>
</svg>
