<svg viewBox="0 0 64 64" fill="none" xmlns="http://www.w3.org/2000/svg">
<circle cx="31.694" cy="30.4408" r="8.02282" fill="white"/>
<path d="M31.1658 38.4875C20.7862 38.3227 18.7648 46.0572 19.0928 51.3468C19.1656 52.5198 20.1925 53.3528 21.3678 53.3528H41.9124C43.0821 53.3528 44.1091 52.5224 44.2305 51.359C45.3696 40.4413 36.1804 38.1925 31.1658 38.4875Z" fill="white"/>
<circle cx="51.3666" cy="21.3563" r="8.02282" fill="#B7CDE1"/>
<circle cx="12.6337" cy="21.3563" r="8.02282" fill="#B7CDE1"/>
<path d="M50.8384 29.402C40.4588 29.2373 38.4374 36.9717 38.7654 42.2614C38.8382 43.4344 39.8652 44.2673 41.0404 44.2673H61.585C62.7547 44.2673 63.7817 43.437 63.9031 42.2735C65.0422 31.3558 55.853 29.107 50.8384 29.402Z" fill="#B7CDE1"/>
<path d="M12.1055 29.402C1.72591 29.2373 -0.295479 36.9717 0.0325362 42.2614C0.105277 43.4344 1.13224 44.2673 2.30753 44.2673H22.8521C24.0218 44.2673 25.0488 43.437 25.1702 42.2735C26.3093 31.3558 17.1201 29.107 12.1055 29.402Z" fill="#B7CDE1"/>
<g style="mix-blend-mode:multiply">
<circle cx="31.694" cy="30.4408" r="8.02282" fill="#42CACD"/>
</g>
<g style="mix-blend-mode:multiply">
<path d="M31.1658 38.4875C20.7862 38.3227 18.7648 46.0572 19.0928 51.3468C19.1656 52.5198 20.1925 53.3528 21.3678 53.3528H41.9124C43.0821 53.3528 44.1091 52.5224 44.2305 51.359C45.3696 40.4413 36.1804 38.1925 31.1658 38.4875Z" fill="#42CACD"/>
</g>
</svg>
