<svg width="32" height="32" viewBox="0 0 32 32" fill="none" xmlns="http://www.w3.org/2000/svg">
<rect x="4" y="4.5" width="7" height="1.5" rx="0.75" fill="white"/>
<path d="M10.228 12.8062H10.7946C13.0083 12.8492 15.1146 13.7645 16.6523 15.3516C18.1901 16.9387 19.0339 19.0682 18.999 21.2739V29C18.9991 29.2937 18.8844 29.5758 18.6792 29.7866C18.4739 29.9974 18.1944 30.1202 17.8998 30.129H3.10023C2.80447 30.1204 2.52385 29.9968 2.31833 29.7847C2.11449 29.574 2.00073 29.2926 2.00103 29V21.2739C1.96618 19.0644 2.81309 16.9315 4.3557 15.3437C5.8983 13.756 8.01042 12.8433 10.228 12.8062Z" fill="#B7CDE1"/>
<path d="M10.4684 12.1588C11.473 12.1588 12.4551 11.8609 13.2904 11.3028C14.1257 10.7446 14.7767 9.95134 15.1612 9.0232C15.5456 8.09506 15.6462 7.07376 15.4502 6.08846C15.2542 5.10315 14.7705 4.19809 14.0601 3.48772C13.3497 2.77736 12.4447 2.29359 11.4594 2.0976C10.4741 1.90161 9.45277 2.0022 8.52463 2.38665C7.59649 2.7711 6.8032 3.42213 6.24507 4.25744C5.68694 5.09274 5.38904 6.07479 5.38904 7.0794C5.38904 8.42654 5.92419 9.7185 6.87676 10.6711C7.82933 11.6236 9.12129 12.1588 10.4684 12.1588V12.1588Z" fill="#B7CDE1"/>
<g style="mix-blend-mode:multiply">
<rect x="4" y="4.5" width="7" height="1.5" rx="0.75" fill="#B7CDE1"/>
</g>
<g style="mix-blend-mode:multiply">
<path d="M9.85972 10.2459C9.74841 10.558 9.91141 10.9073 10.2387 10.9594C10.554 11.0097 10.8761 11.0133 11.1946 10.9693C11.7121 10.8978 12.2046 10.7027 12.6306 10.4004C13.0566 10.0982 13.4035 9.69767 13.6419 9.23288C13.7886 8.94679 13.8915 8.64153 13.9482 8.32728C14.0071 8.00118 13.7312 7.73196 13.3999 7.73395V7.73395C13.0685 7.73595 12.81 8.01171 12.7163 8.32956C12.6802 8.4519 12.6327 8.57103 12.5741 8.6853C12.4237 8.97848 12.2049 9.2311 11.9362 9.42176C11.6675 9.61242 11.3568 9.73551 11.0304 9.78059C10.9032 9.79816 10.7751 9.80368 10.6477 9.79732C10.3167 9.78079 9.97104 9.93376 9.85972 10.2459V10.2459Z" fill="#B7CDE1"/>
</g>
<path d="M21.75 28C23.3817 28 24.9767 27.5161 26.3334 26.6096C27.6902 25.7031 28.7476 24.4146 29.372 22.9071C29.9964 21.3996 30.1598 19.7408 29.8415 18.1405C29.5231 16.5402 28.7374 15.0702 27.5836 13.9164C26.4298 12.7626 24.9598 11.9769 23.3595 11.6585C21.7592 11.3402 20.1004 11.5036 18.5929 12.128C17.0854 12.7524 15.7969 13.8098 14.8904 15.1665C13.9839 16.5233 13.5 18.1183 13.5 19.75C13.5 21.938 14.3692 24.0365 15.9164 25.5836C17.4635 27.1308 19.562 28 21.75 28V28Z" fill="#FEB452"/>
<g style="mix-blend-mode:multiply">
<path fill-rule="evenodd" clip-rule="evenodd" d="M25.174 24.5992H18.326C18.2397 24.5985 18.1573 24.5639 18.0963 24.5029C18.0353 24.442 18.0008 24.3595 18 24.2733V17.4252C18.0008 17.339 18.0353 17.2565 18.0963 17.1955C18.1573 17.1346 18.2397 17.1 18.326 17.0992H20.2529C20.1003 16.8362 20.0197 16.5375 20.0192 16.2334C20.0188 15.9293 20.0984 15.6304 20.2502 15.3669C20.402 15.1034 20.6206 14.8845 20.8838 14.7323C21.1471 14.5801 21.4459 14.5 21.75 14.5C22.0541 14.5 22.3529 14.5801 22.6162 14.7323C22.8794 14.8845 23.098 15.1034 23.2498 15.3669C23.4016 15.6304 23.4812 15.9293 23.4808 16.2334C23.4803 16.5375 23.3997 16.8362 23.2471 17.0992H25.174C25.2603 17.1 25.3427 17.1346 25.4037 17.1955C25.4647 17.2565 25.4992 17.339 25.5 17.4252V19.1769C25.3538 19.1368 25.1999 19.1154 25.0409 19.1154C24.0851 19.1154 23.3102 19.8903 23.3102 20.8462C23.3102 21.802 24.0851 22.5769 25.0409 22.5769C25.1999 22.5769 25.3538 22.5555 25.5 22.5154V24.2733C25.4992 24.3595 25.4647 24.442 25.4037 24.5029C25.3427 24.5639 25.2603 24.5985 25.174 24.5992Z" fill="#FEB452"/>
</g>
</svg>
