<svg width="64" height="64" viewBox="0 0 64 64" fill="none" xmlns="http://www.w3.org/2000/svg">
<rect x="19" y="5" width="14" height="3" rx="1.5" fill="white"/>
<path d="M31.4561 21.6123H32.5893C37.0165 21.6984 41.2292 23.529 44.3046 26.7032C47.3801 29.8774 49.0677 34.1365 48.9979 38.5478V61.3542C48.9982 61.9416 48.7688 62.5059 48.3583 62.9275C47.9479 63.349 47.3887 63.5947 46.7995 63.6123H17.2005C16.6089 63.595 16.0477 63.3478 15.6367 62.9236C15.229 62.5022 15.0015 61.9395 15.0021 61.3542V38.5478C14.9324 34.1288 16.6262 29.8629 19.7114 26.6874C22.7966 23.512 27.0208 21.6866 31.4561 21.6123V21.6123Z" fill="#B7CDE1"/>
<path d="M31.9369 20.3176C33.9461 20.3176 35.9102 19.7218 37.5808 18.6055C39.2514 17.4893 40.5535 15.9027 41.3224 14.0464C42.0913 12.1901 42.2924 10.1475 41.9005 8.17691C41.5085 6.2063 40.5409 4.39618 39.1202 2.97545C37.6995 1.55471 35.8894 0.587182 33.9187 0.195203C31.9481 -0.196776 29.9055 0.004402 28.0493 0.773297C26.193 1.54219 24.6064 2.84427 23.4901 4.51487C22.3739 6.18548 21.7781 8.14958 21.7781 10.1588C21.7781 12.8531 22.8484 15.437 24.7535 17.3421C26.6587 19.2473 29.2426 20.3176 31.9369 20.3176V20.3176Z" fill="#B7CDE1"/>
<g style="mix-blend-mode:multiply">
<rect x="19" y="5" width="14" height="3" rx="1.5" fill="#B7CDE1"/>
</g>
<g style="mix-blend-mode:multiply">
<path d="M30.6735 16.6213C30.4764 17.174 30.7646 17.7912 31.342 17.8958C32.0158 18.0178 32.7068 18.0329 33.3895 17.9386C34.4244 17.7957 35.4095 17.4054 36.2615 16.8009C37.1135 16.1963 37.8073 15.3953 38.284 14.4658C38.5984 13.8525 38.8123 13.1952 38.9197 12.519C39.0117 11.9394 38.5243 11.4636 37.9375 11.4671L37.6625 11.4687C37.0757 11.4723 36.6164 11.9585 36.4694 12.5266C36.3941 12.8179 36.2866 13.101 36.1484 13.3706C35.8477 13.957 35.4101 14.4622 34.8727 14.8435C34.3353 15.2248 33.7139 15.471 33.0611 15.5612C32.7609 15.6026 32.4582 15.6105 32.1584 15.5855C31.5736 15.5366 30.963 15.8095 30.7659 16.3622L30.6735 16.6213Z" fill="#B7CDE1"/>
</g>
</svg>
