<svg viewBox="0 0 48 48" fill="none" xmlns="http://www.w3.org/2000/svg">
<rect x="19.5" y="5.25" width="9" height="2.25" rx="1.125" fill="white"/>
<path d="M27.9901 28.9799C27.9322 27.7217 27.3918 26.5341 26.4812 25.664C25.5705 24.7938 24.3596 24.308 23.1001 24.3074C21.8405 24.308 20.6296 24.7938 19.719 25.664C18.8083 26.5341 18.2679 27.7217 18.2101 28.9799C18.0935 27.7677 17.5295 26.6425 16.6282 25.8237C15.7268 25.0049 14.5528 24.5513 13.3351 24.5513C12.1174 24.5513 10.9433 25.0049 10.042 25.8237C9.14063 26.6425 8.57666 27.7677 8.46007 28.9799C8.42257 36.3149 18.2101 41.2499 18.2101 41.2499C18.2101 41.2499 27.9901 36.3149 27.9901 28.9799Z" fill="white"/>
<path d="M27.9675 17.175H28.7175C31.6477 17.2322 34.4358 18.4483 36.4713 20.5568C38.5068 22.6654 39.6237 25.4947 39.5775 28.4251V43.575C39.5777 43.9652 39.4259 44.3401 39.1542 44.6201C38.8826 44.9002 38.5125 45.0633 38.1225 45.075H18.5325C18.141 45.0635 17.7696 44.8993 17.4975 44.6176C17.2277 44.3376 17.0771 43.9638 17.0775 43.575V28.4251C17.0314 25.4896 18.1525 22.6558 20.1944 20.5464C22.2363 18.437 25.0321 17.2244 27.9675 17.175V17.175Z" fill="white"/>
<path d="M28.3271 16.4251C29.6622 16.4251 30.9672 16.0292 32.0773 15.2875C33.1873 14.5458 34.0524 13.4916 34.5633 12.2582C35.0742 11.0248 35.2079 9.66756 34.9475 8.35819C34.687 7.04882 34.0441 5.84609 33.1001 4.90208C32.1561 3.95808 30.9534 3.3152 29.644 3.05475C28.3346 2.7943 26.9774 2.92797 25.744 3.43887C24.5106 3.94976 23.4564 4.81492 22.7147 5.92495C21.973 7.03498 21.5771 8.34003 21.5771 9.67505C21.5771 11.4653 22.2883 13.1822 23.5542 14.448C24.82 15.7139 26.5369 16.4251 28.3271 16.4251V16.4251Z" fill="white"/>
<g style="mix-blend-mode:multiply">
<path d="M27.9675 17.175H28.7175C31.6477 17.2322 34.4358 18.4483 36.4713 20.5568C38.5068 22.6654 39.6237 25.4947 39.5775 28.4251V43.575C39.5777 43.9652 39.4259 44.3401 39.1542 44.6201C38.8826 44.9002 38.5125 45.0633 38.1225 45.075H18.5325C18.141 45.0635 17.7696 44.8993 17.4975 44.6176C17.2277 44.3376 17.0771 43.9638 17.0775 43.575V28.4251C17.0314 25.4896 18.1525 22.6558 20.1944 20.5464C22.2363 18.437 25.0321 17.2244 27.9675 17.175V17.175Z" fill="#B7CDE1"/>
</g>
<g style="mix-blend-mode:multiply">
<path d="M28.3271 16.4251C29.6622 16.4251 30.9672 16.0292 32.0773 15.2875C33.1873 14.5458 34.0524 13.4916 34.5633 12.2582C35.0742 11.0248 35.2079 9.66756 34.9475 8.35819C34.687 7.04882 34.0441 5.84609 33.1001 4.90208C32.1561 3.95808 30.9534 3.3152 29.644 3.05475C28.3346 2.7943 26.9774 2.92797 25.744 3.43887C24.5106 3.94976 23.4564 4.81492 22.7147 5.92495C21.973 7.03498 21.5771 8.34003 21.5771 9.67505C21.5771 11.4653 22.2883 13.1822 23.5542 14.448C24.82 15.7139 26.5369 16.4251 28.3271 16.4251V16.4251Z" fill="#B7CDE1"/>
</g>
<g style="mix-blend-mode:multiply">
<path d="M27.9901 28.9799C27.9322 27.7217 27.3918 26.5341 26.4812 25.664C25.5705 24.7938 24.3596 24.308 23.1001 24.3074C21.8405 24.308 20.6296 24.7938 19.719 25.664C18.8083 26.5341 18.2679 27.7217 18.2101 28.9799C18.0935 27.7677 17.5295 26.6425 16.6282 25.8237C15.7268 25.0049 14.5528 24.5513 13.3351 24.5513C12.1174 24.5513 10.9433 25.0049 10.042 25.8237C9.14063 26.6425 8.57666 27.7677 8.46007 28.9799C8.42257 36.3149 18.2101 41.2499 18.2101 41.2499C18.2101 41.2499 27.9901 36.3149 27.9901 28.9799Z" fill="#F05656"/>
</g>
<g style="mix-blend-mode:multiply">
<path d="M26.6443 13.7234C26.4773 14.1916 26.7218 14.7155 27.2127 14.7937C27.6858 14.8691 28.1689 14.8746 28.6467 14.8086C29.4228 14.7014 30.1617 14.4087 30.8007 13.9553C31.4397 13.5019 31.96 12.9011 32.3175 12.2039C32.5376 11.7748 32.692 11.3169 32.7771 10.8455C32.8654 10.3564 32.4516 9.95256 31.9545 9.95555V9.95555C31.4575 9.95853 31.0697 10.3722 30.9291 10.849C30.875 11.0325 30.8037 11.2112 30.7158 11.3826C30.4903 11.8223 30.1621 12.2013 29.7591 12.4873C29.356 12.7732 28.8899 12.9579 28.4004 13.0255C28.2095 13.0519 28.0173 13.0601 27.8263 13.0506C27.3298 13.0258 26.8113 13.2553 26.6443 13.7234V13.7234Z" fill="#B7CDE1"/>
</g>
<g style="mix-blend-mode:multiply">
<rect x="19.5" y="5.25" width="9" height="2.25" rx="1.125" fill="#B7CDE1"/>
</g>
</svg>
