<svg viewBox="0 0 65 65" fill="none" xmlns="http://www.w3.org/2000/svg">
<path d="M58.8713 25.3951C59.4097 25.3951 59.9261 25.1812 60.3068 24.8005C60.6875 24.4198 60.9014 23.9034 60.9014 23.365C60.9014 22.8266 60.6875 22.3103 60.3068 21.9295C59.9261 21.5488 59.4097 21.335 58.8713 21.335H36.8758C36.3374 21.335 35.821 21.5488 35.4403 21.9295C35.0596 22.3103 34.8457 22.8266 34.8457 23.365C34.8457 23.9034 35.0596 24.4198 35.4403 24.8005C35.821 25.1812 36.3374 25.3951 36.8758 25.3951H58.8713Z" fill="white"/>
<path d="M58.8713 36.5606C59.4097 36.5606 59.9261 36.3467 60.3068 35.966C60.6875 35.5853 60.9014 35.0689 60.9014 34.5305C60.9014 33.9921 60.6875 33.4758 60.3068 33.0951C59.9261 32.7144 59.4097 32.5005 58.8713 32.5005H36.8758C36.3374 32.5005 35.821 32.7144 35.4403 33.0951C35.0596 33.4758 34.8457 33.9921 34.8457 34.5305C34.8457 35.0689 35.0596 35.5853 35.4403 35.966C35.821 36.3467 36.3374 36.5606 36.8758 36.5606H58.8713Z" fill="white"/>
<path d="M58.8713 47.7251C59.4097 47.7251 59.9261 47.5113 60.3068 47.1305C60.6875 46.7498 60.9014 46.2335 60.9014 45.6951C60.9014 45.1567 60.6875 44.6403 60.3068 44.2596C59.9261 43.8789 59.4097 43.665 58.8713 43.665H36.8758C36.3374 43.665 35.821 43.8789 35.4403 44.2596C35.0596 44.6403 34.8457 45.1567 34.8457 45.6951C34.8457 46.2335 35.0596 46.7498 35.4403 47.1305C35.821 47.5113 36.3374 47.7251 36.8758 47.7251H58.8713Z" fill="white"/>
<path d="M25.5177 24.2887C27.5252 24.2887 29.4876 23.6934 31.1568 22.5781C32.826 21.4628 34.127 19.8775 34.8952 18.0228C35.6635 16.1681 35.8645 14.1273 35.4728 12.1583C35.0812 10.1893 34.1145 8.38075 32.6949 6.96122C31.2754 5.54168 29.4668 4.57497 27.4979 4.18332C25.5289 3.79167 23.488 3.99268 21.6333 4.76093C19.7786 5.52917 18.1934 6.83015 17.0781 8.49935C15.9627 10.1685 15.3674 12.131 15.3674 14.1385C15.3674 16.8305 16.4368 19.4123 18.3404 21.3158C20.2439 23.2193 22.8256 24.2887 25.5177 24.2887Z" fill="#B7CDE1"/>
<path d="M24.7056 27.2329H26.0759C37.4746 27.2329 46.691 34.7745 46.691 44.0721V58.6682C46.6217 59.3246 46.2982 59.9278 45.7899 60.3489C45.2816 60.77 44.6286 60.9755 43.9708 60.9215H6.8108C6.14793 60.9839 5.4872 60.7823 4.97216 60.3604C4.45711 59.9385 4.12935 59.3303 4.06009 58.6682V44.0721C4.06009 34.7745 13.2968 27.2329 24.7056 27.2329Z" fill="#B7CDE1"/>
<g style="mix-blend-mode:multiply">
<path d="M58.8713 25.3951C59.4097 25.3951 59.926 25.1812 60.3068 24.8005C60.6875 24.4198 60.9013 23.9034 60.9013 23.365C60.9013 22.8266 60.6875 22.3103 60.3068 21.9295C59.926 21.5488 59.4097 21.335 58.8713 21.335H36.8758C36.3374 21.335 35.821 21.5488 35.4403 21.9295C35.0596 22.3103 34.8457 22.8266 34.8457 23.365C34.8457 23.9034 35.0596 24.4198 35.4403 24.8005C35.821 25.1812 36.3374 25.3951 36.8758 25.3951H58.8713Z" fill="#B7CDE1"/>
</g>
<path d="M54.2529 18.7974H52.6695C52.5065 18.7961 52.3449 18.8272 52.194 18.8889C52.0432 18.9507 51.9061 19.0418 51.7909 19.1571C51.6756 19.2723 51.5844 19.4094 51.5227 19.5603C51.4609 19.7111 51.4298 19.8727 51.4312 20.0357V26.6943C51.4312 27.0227 51.5616 27.3377 51.7939 27.5699C52.0261 27.8021 52.3411 27.9326 52.6695 27.9326H54.2529C54.5814 27.9326 54.8963 27.8021 55.1286 27.5699C55.3608 27.3377 55.4913 27.0227 55.4913 26.6943V20.0357C55.4913 19.7073 55.3608 19.3923 55.1286 19.1601C54.8963 18.9279 54.5814 18.7974 54.2529 18.7974V18.7974Z" fill="#FEB452"/>
<g style="mix-blend-mode:multiply">
<path d="M58.8713 36.5606C59.4097 36.5606 59.926 36.3467 60.3068 35.966C60.6875 35.5853 60.9013 35.0689 60.9013 34.5305C60.9013 33.9921 60.6875 33.4758 60.3068 33.0951C59.926 32.7144 59.4097 32.5005 58.8713 32.5005H36.8758C36.3374 32.5005 35.821 32.7144 35.4403 33.0951C35.0596 33.4758 34.8457 33.9921 34.8457 34.5305C34.8457 35.0689 35.0596 35.5853 35.4403 35.966C35.821 36.3467 36.3374 36.5606 36.8758 36.5606H58.8713Z" fill="#B7CDE1"/>
</g>
<path d="M46.1328 29.9634H44.5493C44.3863 29.9621 44.2247 29.9932 44.0738 30.0549C43.923 30.1167 43.7859 30.2078 43.6707 30.3231C43.5554 30.4384 43.4643 30.5754 43.4025 30.7263C43.3408 30.8771 43.3096 31.0388 43.311 31.2017V37.8603C43.311 38.1887 43.4415 38.5037 43.6737 38.7359C43.9059 38.9682 44.2209 39.0986 44.5493 39.0986H46.1328C46.4612 39.0986 46.7762 38.9682 47.0084 38.7359C47.2406 38.5037 47.3711 38.1887 47.3711 37.8603V31.2017C47.3711 30.8733 47.2406 30.5584 47.0084 30.3261C46.7762 30.0939 46.4612 29.9634 46.1328 29.9634V29.9634Z" fill="#42CACD"/>
<g style="mix-blend-mode:multiply">
<path d="M58.8713 47.7251C59.4097 47.7251 59.926 47.5113 60.3068 47.1305C60.6875 46.7498 60.9013 46.2335 60.9013 45.6951C60.9013 45.1567 60.6875 44.6403 60.3068 44.2596C59.926 43.8789 59.4097 43.665 58.8713 43.665H36.8758C36.3374 43.665 35.821 43.8789 35.4403 44.2596C35.0596 44.6403 34.8457 45.1567 34.8457 45.6951C34.8457 46.2335 35.0596 46.7498 35.4403 47.1305C35.821 47.5113 36.3374 47.7251 36.8758 47.7251H58.8713Z" fill="#B7CDE1"/>
</g>
<path d="M55.2679 41.128H53.6845C53.5215 41.1266 53.3599 41.1577 53.209 41.2195C53.0582 41.2812 52.9211 41.3724 52.8059 41.4877C52.6906 41.6029 52.5994 41.74 52.5377 41.8908C52.4759 42.0417 52.4448 42.2033 52.4462 42.3663V49.0248C52.4462 49.3533 52.5766 49.6682 52.8089 49.9005C53.0411 50.1327 53.3561 50.2632 53.6845 50.2632H55.2679C55.5964 50.2632 55.9113 50.1327 56.1436 49.9005C56.3758 49.6682 56.5063 49.3533 56.5063 49.0248V42.3663C56.5063 42.0379 56.3758 41.7229 56.1436 41.4907C55.9113 41.2584 55.5964 41.128 55.2679 41.128V41.128Z" fill="#FEB452"/>
</svg>
