<svg viewBox="0 0 64 64" fill="none" xmlns="http://www.w3.org/2000/svg">
<rect x="12.613" y="7.76416" width="13.3398" height="2.85852" rx="1.42926" fill="white"/>
<path d="M24.4817 23.5933H25.5615C29.78 23.6753 33.794 25.4195 36.7244 28.444C39.6548 31.4685 41.2628 35.5268 41.1963 39.7301V61.4609C41.1966 62.0206 40.978 62.5583 40.5869 62.96C40.1958 63.3617 39.663 63.5957 39.1016 63.6125H10.8984C10.3348 63.596 9.80004 63.3605 9.40839 62.9563C9.01994 62.5548 8.80316 62.0186 8.80373 61.4609V39.7301C8.73731 35.5195 10.3512 31.4548 13.291 28.4291C16.2307 25.4033 20.2557 23.664 24.4817 23.5933V23.5933Z" fill="#B7CDE1"/>
<path d="M24.9399 22.3594C26.8544 22.3594 28.7259 21.7917 30.3177 20.7281C31.9095 19.6645 33.1502 18.1527 33.8828 16.384C34.6155 14.6152 34.8071 12.669 34.4337 10.7913C34.0602 8.91361 33.1383 7.18885 31.7845 5.83512C30.4308 4.48139 28.706 3.55949 26.8284 3.186C24.9507 2.8125 23.0044 3.00419 21.2357 3.73683C19.467 4.46946 17.9552 5.71013 16.8916 7.30195C15.828 8.89377 15.2603 10.7652 15.2603 12.6797C15.2603 15.2469 16.2801 17.709 18.0954 19.5243C19.9107 21.3396 22.3727 22.3594 24.9399 22.3594V22.3594Z" fill="#B7CDE1"/>
<g style="mix-blend-mode:multiply">
<rect x="12.613" y="7.76416" width="13.3398" height="2.85852" rx="1.42926" fill="#B7CDE1"/>
</g>
<g style="mix-blend-mode:multiply">
<path d="M23.7361 18.8376C23.5482 19.3642 23.8229 19.9523 24.373 20.0519C25.015 20.1682 25.6735 20.1826 26.324 20.0928C27.31 19.9566 28.2487 19.5847 29.0606 19.0087C29.8724 18.4326 30.5334 17.6694 30.9876 16.7837C31.2873 16.1994 31.4911 15.5731 31.5934 14.9287C31.681 14.3765 31.2166 13.9231 30.6575 13.9264L30.3954 13.928C29.8363 13.9314 29.3987 14.3946 29.2586 14.936C29.1868 15.2135 29.0845 15.4833 28.9527 15.7402C28.6662 16.2989 28.2493 16.7803 27.7372 17.1436C27.2251 17.507 26.633 17.7415 26.0111 17.8274C25.7251 17.8669 25.4366 17.8745 25.1509 17.8506C24.5938 17.804 24.0119 18.0641 23.8241 18.5907L23.7361 18.8376Z" fill="#B7CDE1"/>
</g>
</svg>
