<svg viewBox="0 0 64 65" fill="none" xmlns="http://www.w3.org/2000/svg">
<path d="M25.65 25.3302C27.7603 25.3302 29.8232 24.7045 31.5779 23.532C33.3326 22.3596 34.7002 20.6932 35.5078 18.7435C36.3154 16.7938 36.5267 14.6484 36.115 12.5786C35.7033 10.5088 34.687 8.60764 33.1948 7.11541C31.7026 5.62318 29.8014 4.60696 27.7316 4.19526C25.6618 3.78356 23.5164 3.99486 21.5667 4.80244C19.6171 5.61003 17.9506 6.97763 16.7782 8.7323C15.6058 10.487 14.98 12.5499 14.98 14.6602C14.98 17.4901 16.1041 20.2041 18.1052 22.2051C20.1062 24.2061 22.8201 25.3302 25.65 25.3302Z" fill="#B7CDE1"/>
<path d="M24.79 28.4399H26.24C38.24 28.4399 48.03 36.4399 48.03 46.2199V61.6199C47.9542 62.3172 47.6081 62.957 47.0659 63.402C46.5237 63.847 45.8287 64.0616 45.13 63.9999H5.91C5.21124 64.0645 4.51502 63.8525 3.9709 63.4093C3.42679 62.9662 3.07819 62.3273 3 61.6299V46.2199C3 36.3999 12.75 28.4399 24.79 28.4399Z" fill="#B7CDE1"/>
<g style="mix-blend-mode:multiply">
<path d="M8.72998 17.2598H42.15" stroke="white" stroke-width="1.59375" stroke-linecap="round" stroke-linejoin="round"/>
</g>
<rect x="8.43994" y="14" width="34" height="3" rx="1.5" fill="#1482FF"/>
<path fill-rule="evenodd" clip-rule="evenodd" d="M18.4399 1.0625C18.4399 0.475697 17.9642 0 17.3774 0H7.50244C6.91564 0 6.43994 0.475698 6.43994 1.0625V10.9375C6.43994 11.5243 6.91564 12 7.50244 12H17.3774C17.9642 12 18.4399 11.5243 18.4399 10.9375V1.0625ZM18.4399 4.06245C18.4399 3.47565 17.9642 2.99995 17.3774 2.99995H10.5024C9.91559 2.99995 9.4399 3.47565 9.4399 4.06245V10.9375C9.4399 11.5243 9.91559 12 10.5024 12H17.3774C17.9642 12 18.4399 11.5243 18.4399 10.9375V4.06245Z" fill="#42CACD"/>
<path fill-rule="evenodd" clip-rule="evenodd" d="M32.4399 30.9375C32.4399 31.5243 32.9156 32 33.5024 32L43.3774 32C43.9642 32 44.4399 31.5243 44.4399 30.9375L44.4399 21.0625C44.4399 20.4757 43.9642 20 43.3774 20L33.5024 20C32.9156 20 32.4399 20.4757 32.4399 21.0625L32.4399 30.9375ZM32.44 27.9375C32.44 28.5243 32.9157 29 33.5025 29L40.3775 29C40.9643 29 41.44 28.5243 41.44 27.9375L41.44 21.0625C41.44 20.4757 40.9643 20 40.3775 20L33.5025 20C32.9157 20 32.44 20.4757 32.44 21.0625L32.44 27.9375Z" fill="#42CACD"/>
<path fill-rule="evenodd" clip-rule="evenodd" d="M7.50244 20C6.91564 20 6.43994 20.4757 6.43994 21.0625L6.43994 30.9375C6.43994 31.5243 6.91564 32 7.50244 32L17.3774 32C17.9642 32 18.4399 31.5243 18.4399 30.9375L18.4399 21.0625C18.4399 20.4757 17.9642 20 17.3774 20L7.50244 20ZM10.5024 20C9.91559 20 9.4399 20.4757 9.4399 21.0625L9.4399 27.9375C9.4399 28.5243 9.91559 29 10.5024 29L17.3774 29C17.9642 29 18.4399 28.5243 18.4399 27.9375L18.4399 21.0625C18.4399 20.4757 17.9642 20 17.3774 20L10.5024 20Z" fill="#42CACD"/>
<path fill-rule="evenodd" clip-rule="evenodd" d="M43.3774 12C43.9642 12 44.4399 11.5243 44.4399 10.9375L44.4399 1.0625C44.4399 0.475697 43.9642 -4.72594e-08 43.3774 -1.05557e-07L33.5024 -1.08661e-06C32.9156 -1.14491e-06 32.4399 0.475697 32.4399 1.0625L32.4399 10.9375C32.4399 11.5243 32.9156 12 33.5024 12L43.3774 12ZM40.3775 12C40.9643 12 41.44 11.5243 41.44 10.9375L41.44 4.06245C41.44 3.47565 40.9643 2.99995 40.3775 2.99995L33.5025 2.99995C32.9157 2.99995 32.44 3.47565 32.44 4.06245L32.44 10.9375C32.44 11.5243 32.9157 12 33.5025 12L40.3775 12Z" fill="#42CACD"/>
</svg>
