<svg width="32" height="32" viewBox="0 0 32 32" fill="none" xmlns="http://www.w3.org/2000/svg">
<path d="M17.6351 21C16.0851 22.55 15.4401 25.39 17.0851 27.035C18.7301 28.68 21.5851 28.07 23.1201 26.485C25.4501 24.15 27.0001 17.165 27.0001 17.165C27.0001 17.165 19.9651 18.665 17.6351 21Z" fill="white"/>
<path d="M9.225 23.025C10.725 24.555 13.47 25.15 15.07 23.555C16.67 21.96 16.03 19.21 14.53 17.72C12.24 15.5 5.5 14 5.5 14C5.5 14 7 20.76 9.225 23.025Z" fill="white"/>
<path d="M16.105 15.5H15.895C15.5388 15.5 15.25 15.7888 15.25 16.145V29.355C15.25 29.7112 15.5388 30 15.895 30H16.105C16.4612 30 16.75 29.7112 16.75 29.355V16.145C16.75 15.7888 16.4612 15.5 16.105 15.5Z" fill="#B7CDE1"/>
<path d="M15.9151 16C17.5345 15.9999 19.1039 15.4382 20.3557 14.4108C21.6075 13.3833 22.4643 11.9536 22.7801 10.3652C23.096 8.77679 22.8513 7.12803 22.0878 5.69983C21.3243 4.27162 20.0892 3.15234 18.5929 2.53268C17.0967 1.91302 15.4319 1.83134 13.8822 2.30154C12.3325 2.77174 10.9937 3.76474 10.0941 5.11134C9.1944 6.45794 8.78948 8.07482 8.94831 9.6865C9.10713 11.2982 9.81986 12.8049 10.9651 13.95C11.6151 14.6 12.3869 15.1156 13.2362 15.4673C14.0855 15.8191 14.9958 16.0001 15.9151 16V16Z" fill="#FEB452"/>
<path fill-rule="evenodd" clip-rule="evenodd" d="M12.5249 5.39502H19.3099V6.24002H16.4449C16.8158 6.63028 17.0553 7.12681 17.1299 7.66002H19.3099V8.50002H17.1149C17.0443 8.9103 16.8743 9.29705 16.6198 9.62651C16.3653 9.95596 16.0341 10.2181 15.6549 10.39L17.7249 13.89H16.7649L14.8199 10.57H12.5249V9.71502H14.6949C15.1506 9.71066 15.5872 9.53171 15.9149 9.21502C16.1379 8.99895 16.2971 8.72561 16.3749 8.42502H12.5249V7.57502H16.4249C16.3227 7.19242 16.0985 6.8536 15.7862 6.60997C15.474 6.36633 15.0909 6.23118 14.6949 6.22502H12.5249V5.39502Z" fill="white"/>
<g style="mix-blend-mode:multiply">
<path d="M17.6351 21C16.0851 22.55 15.4401 25.39 17.0851 27.035C18.7301 28.68 21.5851 28.07 23.1201 26.485C25.4501 24.15 27.0001 17.165 27.0001 17.165C27.0001 17.165 19.9651 18.665 17.6351 21Z" fill="#36A168"/>
</g>
<g style="mix-blend-mode:multiply">
<path d="M9.225 23.025C10.725 24.555 13.47 25.15 15.07 23.555C16.67 21.96 16.03 19.21 14.53 17.72C12.24 15.5 5.5 14 5.5 14C5.5 14 7 20.76 9.225 23.025Z" fill="#36A168"/>
</g>
</svg>
