<svg viewBox="0 0 472 404" fill="none"
    xmlns="http://www.w3.org/2000/svg">
    <g clip-path="url(#clip0_429_18025)">
        <rect width="472" height="404" rx="12" fill="white"/>
        <path d="M1.139 18V6.1H5.933C8.347 6.1 9.894 7.528 9.894 9.738C9.894 11.931 8.347 13.359 5.933 13.359H3.451V18H1.139ZM3.451 11.37H5.729C6.885 11.37 7.582 10.758 7.582 9.738C7.582 8.701 6.885 8.089 5.729 8.089H3.451V11.37ZM16.7886 11.506C16.4826 11.37 16.0746 11.302 15.7006 11.302C14.4936 11.302 13.4056 12.305 13.4056 14.855V18H11.2636V9.432H13.4056V10.996C13.8306 10.027 14.9526 9.296 15.9896 9.296C16.2956 9.296 16.6696 9.347 16.9246 9.432L16.7886 11.506ZM21.883 18.136C19.282 18.136 17.412 16.266 17.412 13.716C17.412 11.166 19.282 9.296 21.883 9.296C24.484 9.296 26.354 11.166 26.354 13.716C26.354 16.266 24.484 18.136 21.883 18.136ZM21.883 16.283C23.26 16.283 24.195 15.246 24.195 13.716C24.195 12.186 23.26 11.149 21.883 11.149C20.489 11.149 19.571 12.186 19.571 13.716C19.571 15.246 20.489 16.283 21.883 16.283ZM31.5857 18.136C29.0187 18.136 27.5057 16.334 27.5057 13.716C27.5057 11.098 29.0187 9.296 31.5517 9.296C32.6227 9.296 33.5407 9.738 34.0337 10.384V5.964H36.1757V18H34.0337V17.014C33.6087 17.694 32.6567 18.136 31.5857 18.136ZM31.8917 16.283C33.2687 16.283 34.1697 15.263 34.1697 13.716C34.1697 12.169 33.2687 11.149 31.8917 11.149C30.5317 11.149 29.6307 12.169 29.6307 13.716C29.6307 15.263 30.5317 16.283 31.8917 16.283ZM46.2477 9.432V18H44.1057V16.708C43.5617 17.541 42.5927 18.136 41.3857 18.136C39.5327 18.136 38.2577 16.912 38.2577 15.042V9.432H40.3997V14.532C40.3997 15.535 41.0287 16.232 42.0317 16.232C43.3577 16.232 44.1057 15.11 44.1057 13.189V9.432H46.2477ZM52.2279 18.136C49.6609 18.136 47.8759 16.334 47.8759 13.716C47.8759 11.098 49.6609 9.296 52.2279 9.296C54.4209 9.296 55.9679 10.435 56.2569 12.254L54.1659 12.662C54.0129 11.761 53.2989 11.149 52.2959 11.149C50.9699 11.149 50.1029 12.152 50.1029 13.716C50.1029 15.28 50.9699 16.283 52.2959 16.283C53.2989 16.283 53.9619 15.739 54.1659 14.821L56.2569 15.246C55.9339 17.048 54.3869 18.136 52.2279 18.136ZM62.7977 17.915C62.3727 18.068 61.9137 18.136 61.4207 18.136C59.6867 18.136 58.3947 17.201 58.3947 15.195V11.234H56.9497V9.432H58.3947V6.916H60.5367V9.432H62.6957V11.234H60.5367V14.991C60.5367 15.807 60.9787 16.249 61.6417 16.249C61.9647 16.249 62.3387 16.198 62.6447 16.045L62.7977 17.915ZM69.4273 8.123C68.6623 8.123 68.1013 7.545 68.1013 6.797C68.1013 6.066 68.6623 5.488 69.4273 5.488C70.2093 5.488 70.7873 6.066 70.7873 6.797C70.7873 7.545 70.2093 8.123 69.4273 8.123ZM68.3563 18V9.432H70.4983V18H68.3563ZM76.4661 18.136C73.8991 18.136 72.1141 16.334 72.1141 13.716C72.1141 11.098 73.8991 9.296 76.4661 9.296C78.6591 9.296 80.2061 10.435 80.4951 12.254L78.4041 12.662C78.2511 11.761 77.5371 11.149 76.5341 11.149C75.2081 11.149 74.3411 12.152 74.3411 13.716C74.3411 15.28 75.2081 16.283 76.5341 16.283C77.5371 16.283 78.2001 15.739 78.4041 14.821L80.4951 15.246C80.1721 17.048 78.6251 18.136 76.4661 18.136ZM86.1144 18.136C83.5134 18.136 81.6434 16.266 81.6434 13.716C81.6434 11.166 83.5134 9.296 86.1144 9.296C88.7154 9.296 90.5854 11.166 90.5854 13.716C90.5854 16.266 88.7154 18.136 86.1144 18.136ZM86.1144 16.283C87.4914 16.283 88.4264 15.246 88.4264 13.716C88.4264 12.186 87.4914 11.149 86.1144 11.149C84.7204 11.149 83.8024 12.186 83.8024 13.716C83.8024 15.246 84.7204 16.283 86.1144 16.283ZM92.1962 18V9.432H94.3382V10.724C94.8822 9.891 95.8512 9.296 97.0582 9.296C98.9282 9.296 100.186 10.52 100.186 12.39V18H98.0442V12.9C98.0442 11.897 97.4152 11.2 96.4122 11.2C95.1032 11.2 94.3382 12.322 94.3382 14.243V18H92.1962ZM105.249 18.136C103.175 18.136 101.934 16.861 101.509 15.603L103.26 14.889C103.515 15.756 104.178 16.47 105.249 16.47C106.048 16.47 106.575 16.045 106.575 15.501C106.575 13.886 101.9 14.94 101.9 11.693C101.9 10.35 103.073 9.296 104.943 9.296C106.609 9.296 108.02 10.146 108.394 11.387L106.66 12.118C106.422 11.302 105.674 10.877 104.977 10.877C104.297 10.877 103.838 11.166 103.838 11.659C103.838 13.172 108.547 11.965 108.547 15.467C108.547 16.946 107.221 18.136 105.249 18.136ZM113.514 14.005V12.169H129.766V14.005H113.514ZM136.332 8.123C135.567 8.123 135.006 7.545 135.006 6.797C135.006 6.066 135.567 5.488 136.332 5.488C137.114 5.488 137.692 6.066 137.692 6.797C137.692 7.545 137.114 8.123 136.332 8.123ZM135.261 18V9.432H137.403V18H135.261ZM144.56 17.915C144.135 18.068 143.676 18.136 143.183 18.136C141.449 18.136 140.157 17.201 140.157 15.195V11.234H138.712V9.432H140.157V6.916H142.299V9.432H144.458V11.234H142.299V14.991C142.299 15.807 142.741 16.249 143.404 16.249C143.727 16.249 144.101 16.198 144.407 16.045L144.56 17.915ZM153.944 13.427C153.944 13.733 153.927 14.107 153.91 14.277H147.552C147.739 15.569 148.572 16.334 149.796 16.334C150.799 16.334 151.513 15.858 151.734 15.025L153.74 15.569C153.264 17.184 151.768 18.136 149.762 18.136C146.923 18.136 145.41 15.943 145.41 13.716C145.41 11.489 146.804 9.296 149.643 9.296C152.533 9.296 153.944 11.438 153.944 13.427ZM147.603 12.713H151.649C151.547 11.693 150.884 10.928 149.643 10.928C148.589 10.928 147.841 11.557 147.603 12.713ZM161.089 11.506C160.783 11.37 160.375 11.302 160.001 11.302C158.794 11.302 157.706 12.305 157.706 14.855V18H155.564V9.432H157.706V10.996C158.131 10.027 159.253 9.296 160.29 9.296C160.596 9.296 160.97 9.347 161.225 9.432L161.089 11.506ZM165.536 9.296C167.78 9.296 169.31 10.503 169.31 12.781V18H167.236V16.759C166.76 17.592 165.723 18.136 164.669 18.136C162.986 18.136 161.813 17.048 161.813 15.586C161.813 13.903 163.088 13.002 165.638 12.73L167.236 12.577V12.492C167.236 11.523 166.573 10.928 165.536 10.928C164.601 10.928 163.938 11.506 163.836 12.424L161.932 12.084C162.204 10.384 163.717 9.296 165.536 9.296ZM165.145 16.555C166.471 16.555 167.236 15.552 167.236 14.294V14.107L165.604 14.294C164.465 14.43 163.887 14.906 163.887 15.518C163.887 16.113 164.363 16.555 165.145 16.555ZM176.336 17.915C175.911 18.068 175.452 18.136 174.959 18.136C173.225 18.136 171.933 17.201 171.933 15.195V11.234H170.488V9.432H171.933V6.916H174.075V9.432H176.234V11.234H174.075V14.991C174.075 15.807 174.517 16.249 175.18 16.249C175.503 16.249 175.877 16.198 176.183 16.045L176.336 17.915ZM178.881 8.123C178.116 8.123 177.555 7.545 177.555 6.797C177.555 6.066 178.116 5.488 178.881 5.488C179.663 5.488 180.241 6.066 180.241 6.797C180.241 7.545 179.663 8.123 178.881 8.123ZM177.81 18V9.432H179.952V18H177.81ZM186.039 18.136C183.438 18.136 181.568 16.266 181.568 13.716C181.568 11.166 183.438 9.296 186.039 9.296C188.64 9.296 190.51 11.166 190.51 13.716C190.51 16.266 188.64 18.136 186.039 18.136ZM186.039 16.283C187.416 16.283 188.351 15.246 188.351 13.716C188.351 12.186 187.416 11.149 186.039 11.149C184.645 11.149 183.727 12.186 183.727 13.716C183.727 15.246 184.645 16.283 186.039 16.283ZM192.121 18V9.432H194.263V10.724C194.807 9.891 195.776 9.296 196.983 9.296C198.853 9.296 200.111 10.52 200.111 12.39V18H197.969V12.9C197.969 11.897 197.34 11.2 196.337 11.2C195.028 11.2 194.263 12.322 194.263 14.243V18H192.121ZM205.174 18.136C203.1 18.136 201.859 16.861 201.434 15.603L203.185 14.889C203.44 15.756 204.103 16.47 205.174 16.47C205.973 16.47 206.5 16.045 206.5 15.501C206.5 13.886 201.825 14.94 201.825 11.693C201.825 10.35 202.998 9.296 204.868 9.296C206.534 9.296 207.945 10.146 208.319 11.387L206.585 12.118C206.347 11.302 205.599 10.877 204.902 10.877C204.222 10.877 203.763 11.166 203.763 11.659C203.763 13.172 208.472 11.965 208.472 15.467C208.472 16.946 207.146 18.136 205.174 18.136Z" fill="#20014B"/>
        <g clip-path="url(#clip1_429_18025)">
            <rect x="0.230713" y="97.6172" width="34.6133" height="36.1867" rx="1.57333" transform="rotate(-45 0.230713 97.6172)" fill="#CCE4FF"/>
            <path d="M34.0762 93.2871L27.1819 100.181" stroke="#6D67CE" stroke-width="3.14667" stroke-linecap="round"/>
            <path d="M23.4697 82.6807L4.90818 101.242" stroke="#6D67CE" stroke-width="3.14667" stroke-linecap="round"/>
            <path d="M34.0762 93.2871L23.4696 82.6805" stroke="#6D67CE" stroke-width="3.14667" stroke-linecap="round"/>
            <line x1="10.1075" y1="106.545" x2="4.9079" y2="101.345" stroke="#6D67CE" stroke-width="3.14667" stroke-linecap="round"/>
            <path d="M13.9164 110.509C13.983 111.021 13.5468 111.457 13.0348 111.39L8.98805 110.864C8.34069 110.78 8.07165 109.989 8.53326 109.528L12.0537 106.007C12.5153 105.546 13.3058 105.815 13.39 106.462L13.9164 110.509Z" fill="#6D67CE"/>
            <path d="M13.9238 100.712L20.8181 93.8176" stroke="#1482FF" stroke-width="3.14667" stroke-linecap="round"/>
            <path d="M24.5303 111.318L43.0918 92.7568" stroke="#1482FF" stroke-width="3.14667" stroke-linecap="round"/>
            <path d="M13.9238 100.712L24.5304 111.319" stroke="#1482FF" stroke-width="3.14667" stroke-linecap="round"/>
            <line x1="37.892" y1="87.4541" x2="43.0916" y2="92.6537" stroke="#1482FF" stroke-width="3.14667" stroke-linecap="round"/>
            <path d="M36.4303 85.836C36.3637 85.3241 36.7999 84.8878 37.3119 84.9544L41.3586 85.4808C42.006 85.565 42.275 86.3555 41.8134 86.8171L38.293 90.3376C37.8314 90.7992 37.0409 90.5301 36.9567 89.8828L36.4303 85.836Z" fill="#1482FF"/>
            <path d="M24.0005 103.75C25.562 103.75 27.0752 103.208 28.2822 102.218C29.4893 101.227 30.3156 99.8486 30.6202 98.3171C30.9249 96.7856 30.6892 95.1958 29.9532 93.8186C29.2173 92.4414 28.0266 91.3619 26.584 90.7642C25.1414 90.1664 23.5362 90.0873 22.0418 90.5403C20.5475 90.9933 19.2564 91.9504 18.3885 93.2485C17.5207 94.5467 17.1297 96.1056 17.2823 97.6596C17.4349 99.2137 18.1216 100.667 19.2254 101.771C20.492 103.038 22.2095 103.749 24.0005 103.75Z" fill="#FEA442"/>
            <g style="mix-blend-mode:multiply">
                <path fill-rule="evenodd" clip-rule="evenodd" d="M21.1653 93.3662H27.9153V94.1762H25.0378C25.4048 94.5646 25.6443 95.0558 25.7244 95.5841H27.8921V96.3941H25.7128C25.6234 96.8898 25.3884 97.3476 25.0378 97.7094C24.8172 97.9426 24.5558 98.1334 24.2664 98.2725L26.3416 101.798H25.3387L23.4101 98.4962H21.1499V97.6901H23.3098C23.6966 97.6908 24.0726 97.5632 24.379 97.3273C24.6855 97.0913 24.905 96.7604 25.0031 96.3864H21.146V95.5764H25.0031C24.9214 95.1816 24.7061 94.8272 24.3934 94.5728C24.0807 94.3184 23.6898 94.1797 23.2867 94.1801H21.1499V93.3662H21.1653Z" fill="#CB6A01"/>
            </g>
        </g>
        <g clip-path="url(#clip2_429_18025)">
            <rect x="84.7869" y="96.6885" width="34.6133" height="36.1867" rx="1.57333" transform="rotate(-45 84.7869 96.6885)" fill="#CCE4FF"/>
            <path d="M108 103.75C109.562 103.75 111.075 103.208 112.282 102.218C113.489 101.227 114.316 99.8486 114.62 98.3171C114.925 96.7856 114.689 95.1958 113.953 93.8186C113.217 92.4414 112.027 91.3619 110.584 90.7642C109.141 90.1664 107.536 90.0873 106.042 90.5403C104.547 90.9933 103.256 91.9504 102.389 93.2485C101.521 94.5467 101.13 96.1056 101.282 97.6596C101.435 99.2137 102.122 100.667 103.225 101.771C104.492 103.038 106.209 103.749 108 103.75Z" fill="#FEA442"/>
            <g style="mix-blend-mode:multiply">
                <path fill-rule="evenodd" clip-rule="evenodd" d="M105.165 93.3662H111.915V94.1762H109.038C109.405 94.5646 109.644 95.0558 109.724 95.5841H111.892V96.3941H109.713C109.623 96.8898 109.388 97.3476 109.038 97.7094C108.817 97.9426 108.556 98.1334 108.266 98.2725L110.342 101.798H109.339L107.41 98.4962H105.15V97.6901H107.31C107.697 97.6908 108.073 97.5632 108.379 97.3273C108.685 97.0913 108.905 96.7604 109.003 96.3864H105.146V95.5764H109.003C108.921 95.1816 108.706 94.8272 108.393 94.5728C108.081 94.3184 107.69 94.1797 107.287 94.1801H105.15V93.3662H105.165Z" fill="#CB6A01"/>
            </g>
            <g style="mix-blend-mode:multiply">
                <path fill-rule="evenodd" clip-rule="evenodd" d="M128.192 96.7347C128.238 96.2459 127.83 95.8346 127.341 95.877L121.028 96.4234C120.363 96.4809 120.068 97.2876 120.537 97.7612L121.843 99.0768C121.754 99.1406 121.668 99.2113 121.586 99.289L109.335 110.962C108.391 111.861 108.355 113.355 109.254 114.299C110.153 115.242 111.647 115.278 112.591 114.379L124.842 102.706C124.948 102.606 125.042 102.498 125.124 102.385L126.254 103.523C126.724 103.997 127.533 103.707 127.596 103.043L128.192 96.7347Z" fill="#1482FF"/>
            </g>
            <g style="mix-blend-mode:multiply">
                <path fill-rule="evenodd" clip-rule="evenodd" d="M91.9089 98.1266C91.8627 98.6155 92.2707 99.0267 92.7599 98.9844L99.0731 98.438C99.7377 98.3804 100.034 97.5737 99.5637 97.1002L98.2584 95.7845C98.3474 95.7207 98.4331 95.65 98.5146 95.5723L110.766 83.8993C111.71 83.0003 111.746 81.5064 110.847 80.5628C109.948 79.6191 108.454 79.583 107.51 80.4821L95.2587 92.1551C95.1534 92.2554 95.0594 92.3632 94.9767 92.4768L93.8469 91.338C93.3771 90.8644 92.5681 91.1538 92.5053 91.818L91.9089 98.1266Z" fill="#6D67CE"/>
            </g>
        </g>
        <g clip-path="url(#clip3_429_18025)">
            <rect x="168.231" y="97.6172" width="34.6133" height="36.1867" rx="1.57333" transform="rotate(-45 168.231 97.6172)" fill="#CCE4FF"/>
            <path d="M202.077 93.2881L195.182 100.182" stroke="#6D67CE" stroke-width="3.14667" stroke-linecap="round"/>
            <path d="M191.47 82.6816L172.909 101.243" stroke="#6D67CE" stroke-width="3.14667" stroke-linecap="round"/>
            <path d="M202.077 93.2881L191.47 82.6815" stroke="#6D67CE" stroke-width="3.14667" stroke-linecap="round"/>
            <line x1="188.715" y1="117.152" x2="172.908" y2="101.346" stroke="#6D67CE" stroke-width="3.14667" stroke-linecap="round"/>
            <path d="M193.599 122.191C193.665 122.703 193.229 123.14 192.717 123.073L188.67 122.547C188.023 122.462 187.754 121.672 188.216 121.21L191.736 117.69C192.198 117.228 192.988 117.497 193.072 118.145L193.599 122.191Z" fill="#6D67CE"/>
            <path d="M181.924 100.712L188.819 93.8176" stroke="#1482FF" stroke-width="3.14667" stroke-linecap="round"/>
            <path d="M192.531 111.319L211.092 92.7578" stroke="#1482FF" stroke-width="3.14667" stroke-linecap="round"/>
            <path d="M181.924 100.712L192.531 111.319" stroke="#1482FF" stroke-width="3.14667" stroke-linecap="round"/>
            <line x1="195.286" y1="76.8477" x2="211.092" y2="92.6538" stroke="#1482FF" stroke-width="3.14667" stroke-linecap="round"/>
            <path d="M192.75 74.1553C192.683 73.6434 193.119 73.2072 193.631 73.2738L197.678 73.8001C198.325 73.8843 198.594 74.6749 198.133 75.1365L194.612 78.6569C194.151 79.1185 193.36 78.8495 193.276 78.2021L192.75 74.1553Z" fill="#1482FF"/>
            <path d="M192.001 103.75C193.562 103.75 195.076 103.208 196.283 102.218C197.49 101.227 198.316 99.8486 198.621 98.3171C198.925 96.7856 198.69 95.1958 197.954 93.8186C197.218 92.4414 196.027 91.3619 194.584 90.7642C193.142 90.1664 191.537 90.0873 190.042 90.5403C188.548 90.9933 187.257 91.9504 186.389 93.2485C185.521 94.5467 185.13 96.1056 185.283 97.6596C185.435 99.2137 186.122 100.667 187.226 101.771C188.492 103.038 190.21 103.749 192.001 103.75Z" fill="#FEA442"/>
            <g style="mix-blend-mode:multiply">
                <path fill-rule="evenodd" clip-rule="evenodd" d="M189.166 93.3662H195.916V94.1762H193.038C193.405 94.5646 193.645 95.0558 193.725 95.5841H195.893V96.3941H193.713C193.624 96.8898 193.389 97.3476 193.038 97.7094C192.818 97.9426 192.556 98.1334 192.267 98.2725L194.342 101.798H193.339L191.411 98.4962H189.15V97.6901H191.31C191.697 97.6908 192.073 97.5632 192.38 97.3273C192.686 97.0913 192.905 96.7604 193.004 96.3864H189.146V95.5764H193.004C192.922 95.1816 192.707 94.8272 192.394 94.5728C192.081 94.3184 191.69 94.1797 191.287 94.1801H189.15V93.3662H189.166Z" fill="#CB6A01"/>
            </g>
        </g>
        <g clip-path="url(#clip4_429_18025)">
            <rect x="252.231" y="97.6172" width="34.6133" height="36.1867" rx="1.57333" transform="rotate(-45 252.231 97.6172)" fill="#CCE4FF"/>
            <g style="mix-blend-mode:multiply">
                <path fill-rule="evenodd" clip-rule="evenodd" d="M265.694 112.876L263.861 112.876L263.861 111.044L263.861 98.7411L263.598 98.7411C262.928 98.7411 262.565 97.9573 262.998 97.4461L264.078 96.1702C264.201 95.9422 264.37 95.7431 264.573 95.5858L265.407 94.6012C265.721 94.2301 266.293 94.2301 266.608 94.6012L269.017 97.4461C269.449 97.9573 269.086 98.7411 268.416 98.7411L267.526 98.7411L267.526 109.211L274.745 109.211L274.745 104.55C274.745 103.538 275.565 102.718 276.577 102.718C277.589 102.718 278.409 103.538 278.409 104.55L278.409 111.044L278.409 112.876L276.577 112.876L265.694 112.876Z" fill="#1482FF"/>
            </g>
            <g style="mix-blend-mode:multiply">
                <path fill-rule="evenodd" clip-rule="evenodd" d="M289.256 104.815C289.506 105.11 289.961 105.11 290.211 104.815L293.068 101.441C293.412 101.034 293.123 100.411 292.59 100.411L291.308 100.411L291.308 87.5469L291.308 85.6695L289.431 85.6695L276.97 85.6695L275.093 85.6695L275.093 87.5469L275.093 93.1428C275.093 94.1797 275.933 95.0202 276.97 95.0202C278.007 95.0202 278.847 94.1797 278.847 93.1428L278.847 89.4242L287.553 89.4242L287.553 100.411L286.877 100.411C286.344 100.411 286.055 101.034 286.399 101.441L289.256 104.815Z" fill="#6D67CE"/>
            </g>
            <path d="M276.001 103.75C277.562 103.75 279.076 103.208 280.283 102.218C281.49 101.227 282.316 99.8486 282.621 98.3171C282.925 96.7856 282.69 95.1958 281.954 93.8186C281.218 92.4414 280.027 91.3619 278.584 90.7642C277.142 90.1664 275.537 90.0873 274.042 90.5403C272.548 90.9933 271.257 91.9504 270.389 93.2485C269.521 94.5467 269.13 96.1056 269.283 97.6596C269.435 99.2137 270.122 100.667 271.226 101.771C272.492 103.038 274.21 103.749 276.001 103.75Z" fill="#FEA442"/>
            <g style="mix-blend-mode:multiply">
                <path fill-rule="evenodd" clip-rule="evenodd" d="M273.166 93.3662H279.916V94.1762H277.038C277.405 94.5646 277.645 95.0558 277.725 95.5841H279.893V96.3941H277.713C277.624 96.8898 277.389 97.3476 277.038 97.7094C276.818 97.9426 276.556 98.1334 276.267 98.2725L278.342 101.798H277.339L275.411 98.4962H273.15V97.6901H275.31C275.697 97.6908 276.073 97.5632 276.38 97.3273C276.686 97.0913 276.905 96.7604 277.004 96.3864H273.146V95.5764H277.004C276.922 95.1816 276.707 94.8272 276.394 94.5728C276.081 94.3184 275.69 94.1797 275.287 94.1801H273.15V93.3662H273.166Z" fill="#CB6A01"/>
            </g>
        </g>
        <g clip-path="url(#clip5_429_18025)">
            <rect x="336.23" y="97.6172" width="34.6133" height="36.1867" rx="1.57333" transform="rotate(-45 336.23 97.6172)" fill="#CCE4FF"/>
            <g style="mix-blend-mode:multiply">
                <path fill-rule="evenodd" clip-rule="evenodd" d="M362.863 116.776L361.567 118.072L360.271 116.775L343.683 100.18L342.388 98.8843L343.684 97.5889L352.382 88.8903L352.196 88.7045C351.723 88.2308 352.02 87.4196 352.688 87.3642L354.351 87.2263C354.601 87.1504 354.864 87.1291 355.121 87.1623L356.403 87.056C356.887 87.0158 357.292 87.4204 357.252 87.905L356.944 91.6201C356.888 92.2877 356.077 92.585 355.603 92.1113L354.974 91.4817L347.57 98.8849L361.567 112.888L362.631 111.824C363.347 111.109 364.507 111.109 365.223 111.824C365.938 112.54 365.938 113.7 365.223 114.416L362.863 116.776Z" fill="#1482FF"/>
            </g>
            <g style="mix-blend-mode:multiply">
                <path fill-rule="evenodd" clip-rule="evenodd" d="M365.838 110.714C365.806 111.099 366.128 111.421 366.514 111.389L370.919 111.023C371.45 110.979 371.687 110.334 371.31 109.957L370.403 109.05L379.499 99.9534L380.826 98.626L379.499 97.2985L362.919 80.7191L361.592 79.3916L360.264 80.7191L357.511 83.4724C356.778 84.2055 356.778 85.3942 357.511 86.1273C358.244 86.8605 359.433 86.8605 360.166 86.1273L361.592 84.7015L375.516 98.626L367.748 106.395L367.27 105.917C366.893 105.54 366.248 105.777 366.204 106.308L365.838 110.714Z" fill="#6D67CE"/>
            </g>
            <path d="M360 103.75C361.562 103.75 363.075 103.208 364.282 102.218C365.489 101.227 366.316 99.8486 366.62 98.3171C366.925 96.7856 366.689 95.1958 365.953 93.8186C365.217 92.4414 364.027 91.3619 362.584 90.7642C361.141 90.1664 359.536 90.0873 358.042 90.5403C356.547 90.9933 355.256 91.9504 354.389 93.2485C353.521 94.5467 353.13 96.1056 353.282 97.6596C353.435 99.2137 354.122 100.667 355.225 101.771C356.492 103.038 358.209 103.749 360 103.75Z" fill="#FEA442"/>
            <g style="mix-blend-mode:multiply">
                <path fill-rule="evenodd" clip-rule="evenodd" d="M357.165 93.3662H363.915V94.1762H361.038C361.405 94.5646 361.644 95.0558 361.724 95.5841H363.892V96.3941H361.713C361.623 96.8898 361.388 97.3476 361.038 97.7094C360.817 97.9426 360.556 98.1334 360.266 98.2725L362.342 101.798H361.339L359.41 98.4962H357.15V97.6901H359.31C359.697 97.6908 360.073 97.5632 360.379 97.3273C360.685 97.0913 360.905 96.7604 361.003 96.3864H357.146V95.5764H361.003C360.921 95.1816 360.706 94.8272 360.393 94.5728C360.081 94.3184 359.69 94.1797 359.287 94.1801H357.15V93.3662H357.165Z" fill="#CB6A01"/>
            </g>
        </g>
        <g clip-path="url(#clip6_429_18025)">
            <rect x="420.787" y="98.1729" width="34.6133" height="34.6133" rx="1.57333" transform="rotate(-45 420.787 98.1729)" fill="#CCE4FF"/>
            <g style="mix-blend-mode:multiply">
                <path fill-rule="evenodd" clip-rule="evenodd" d="M455.192 105.369C455.487 105.664 455.653 106.065 455.652 106.482C455.652 106.899 455.486 107.3 455.191 107.595L446.722 116.056C446.108 116.67 445.112 116.67 444.498 116.056L427.758 99.3158C427.144 98.7014 427.144 97.7052 427.758 97.0908L430.1 94.7492C430.16 94.6885 430.225 94.6338 430.292 94.585L429.696 93.9885C429.222 93.5148 429.519 92.7036 430.187 92.6483L433.902 92.34C434.387 92.2998 434.791 92.7045 434.751 93.189L434.443 96.9041C434.387 97.5717 433.576 97.869 433.103 97.3953L432.489 96.7816C432.44 96.849 432.385 96.9135 432.325 96.9743L431.096 98.2033L445.611 112.719L451.854 106.481L447.425 102.052C446.81 101.438 446.81 100.442 447.425 99.8273C448.039 99.2128 449.035 99.2128 449.65 99.8273L455.192 105.369Z" fill="#1482FF"/>
            </g>
            <path d="M441.886 94.8743L436.344 89.3323L444.813 80.871L461.553 97.6107L459.211 99.9523" stroke="#6D67CE" stroke-width="3.14667" stroke-linecap="round" stroke-linejoin="round"/>
            <path d="M456.521 103.473C456.036 103.513 455.631 103.109 455.672 102.624L455.98 98.9089C456.035 98.2413 456.846 97.944 457.32 98.4177L460.727 101.825C461.201 102.298 460.903 103.109 460.236 103.165L456.521 103.473Z" fill="#6D67CE"/>
            <path d="M444 103C445.388 103 446.734 102.519 447.806 101.638C448.879 100.757 449.614 99.5321 449.885 98.1707C450.155 96.8094 449.946 95.3963 449.292 94.1721C448.638 92.9479 447.579 91.9884 446.297 91.457C445.015 90.9257 443.588 90.8554 442.259 91.258C440.931 91.6607 439.783 92.5114 439.012 93.6653C438.241 94.8193 437.893 96.2049 438.029 97.5863C438.164 98.9677 438.775 100.259 439.756 101.241C440.882 102.367 442.408 102.999 444 103Z" fill="#FEA442"/>
            <g style="mix-blend-mode:multiply">
                <path fill-rule="evenodd" clip-rule="evenodd" d="M441.48 93.7705H447.48V94.4905H444.923C445.249 94.8358 445.462 95.2724 445.533 95.7419H447.46V96.4619H445.523C445.443 96.9026 445.234 97.3095 444.923 97.6311C444.727 97.8384 444.494 98.008 444.237 98.1316L446.082 101.265H445.19L443.476 98.3305H441.467V97.6139H443.387C443.73 97.6146 444.065 97.5011 444.337 97.2914C444.609 97.0817 444.805 96.7876 444.892 96.4551H441.463V95.7351H444.892C444.819 95.3842 444.628 95.0691 444.35 94.843C444.072 94.6169 443.724 94.4936 443.366 94.4939H441.467V93.7705H441.48Z" fill="#CB6A01"/>
            </g>
        </g>
        <g clip-path="url(#clip7_429_18025)">
            <rect x="0.787109" y="168.174" width="34.6133" height="34.6133" rx="1.57333" transform="rotate(-45 0.787109 168.174)" fill="#CCE4FF"/>
            <g style="mix-blend-mode:multiply">
                <path fill-rule="evenodd" clip-rule="evenodd" d="M17.3771 178.124C17.082 178.419 16.6816 178.584 16.2642 178.584C15.8468 178.584 15.4466 178.418 15.1516 178.123L6.69025 169.654C6.07629 169.04 6.07651 168.044 6.69074 167.43L23.4305 150.69C24.045 150.076 25.0411 150.076 25.6556 150.69L27.9971 153.031C28.0577 153.092 28.1122 153.156 28.1609 153.224L28.7566 152.628C29.2303 152.154 30.0415 152.451 30.0969 153.119L30.4051 156.834C30.4453 157.319 30.0406 157.723 29.5561 157.683L25.841 157.375C25.1734 157.319 24.8761 156.508 25.3498 156.035L25.9641 155.42C25.8969 155.372 25.8326 155.317 25.7721 155.256L24.543 154.027L10.0278 168.543L16.2651 174.785L20.6941 170.356C21.3085 169.742 22.3047 169.742 22.9191 170.356C23.5335 170.971 23.5335 171.967 22.9191 172.582L17.3771 178.124Z" fill="#1482FF"/>
            </g>
            <path d="M27.8722 164.817L33.4142 159.275L41.8755 167.744L25.1357 184.484L22.7942 182.142" stroke="#6D67CE" stroke-width="3.14667" stroke-linecap="round" stroke-linejoin="round"/>
            <path d="M19.2738 179.452C19.2336 178.968 19.6382 178.563 20.1228 178.603L23.8379 178.911C24.5055 178.967 24.8028 179.778 24.3291 180.252L20.9223 183.659C20.4486 184.132 19.6374 183.835 19.582 183.167L19.2738 179.452Z" fill="#6D67CE"/>
            <path d="M24.0007 173C25.3887 173 26.7337 172.519 27.8067 171.638C28.8796 170.757 29.6141 169.532 29.8849 168.171C30.1557 166.809 29.9462 165.396 29.292 164.172C28.6378 162.948 27.5794 161.988 26.2971 161.457C25.0148 160.926 23.588 160.855 22.2597 161.258C20.9313 161.661 19.7837 162.511 19.0123 163.665C18.2408 164.819 17.8933 166.205 18.029 167.586C18.1646 168.968 18.775 170.259 19.7561 171.241C20.882 172.367 22.4086 172.999 24.0007 173Z" fill="#FEA442"/>
            <g style="mix-blend-mode:multiply">
                <path fill-rule="evenodd" clip-rule="evenodd" d="M21.4805 163.771H27.4805V164.491H24.9228C25.2489 164.836 25.4619 165.272 25.5331 165.742H27.4599V166.462H25.5228C25.4433 166.903 25.2344 167.31 24.9228 167.631C24.7267 167.838 24.4943 168.008 24.2371 168.132L26.0817 171.265H25.1902L23.4759 168.331H21.4668V167.614H23.3868C23.7306 167.615 24.0648 167.501 24.3372 167.291C24.6096 167.082 24.8047 166.788 24.8919 166.455H21.4634V165.735H24.8919C24.8193 165.384 24.6279 165.069 24.3499 164.843C24.072 164.617 23.7245 164.494 23.3662 164.494H21.4668V163.771H21.4805Z" fill="#CB6A01"/>
            </g>
        </g>
        <g clip-path="url(#clip8_429_18025)">
            <rect width="48" height="48" transform="translate(84 143)" fill="white"/>
            <rect x="84" y="167" width="33.9411" height="33.9411" rx="1.41424" transform="rotate(-45 84 167)" fill="#CCE4FF"/>
            <g style="mix-blend-mode:multiply">
                <path fill-rule="evenodd" clip-rule="evenodd" d="M109.098 185.168L107.863 186.451L106.627 185.168L90.5085 168.435L89.2735 167.153L90.5088 165.872L98.9611 157.101L98.7354 156.867C98.2837 156.398 98.5672 155.596 99.2038 155.541L101.069 155.38C101.172 155.362 101.276 155.353 101.38 155.353L102.861 155.226C103.323 155.186 103.709 155.587 103.671 156.066L103.367 159.861C103.315 160.522 102.541 160.816 102.089 160.347L101.432 159.665L94.2153 167.154L107.863 181.322L108.92 180.225C109.603 179.517 110.709 179.517 111.392 180.225C112.074 180.933 112.074 182.081 111.392 182.789L109.098 185.168Z" fill="#1482FF"/>
            </g>
            <g style="mix-blend-mode:multiply">
                <path fill-rule="evenodd" clip-rule="evenodd" d="M112.013 179.094C111.983 179.476 112.29 179.794 112.657 179.763L116.976 179.391C117.482 179.347 117.708 178.709 117.348 178.336L116.426 177.378L125.264 168.207L126.53 166.894L125.264 165.58L109.154 148.863L107.888 147.55L106.622 148.863L103.947 151.64C103.248 152.365 103.248 153.541 103.947 154.267C104.646 154.992 105.779 154.992 106.479 154.267L107.888 152.804L121.467 166.894L113.894 174.751L113.388 174.227C113.029 173.854 112.413 174.088 112.371 174.613L112.013 179.094Z" fill="#6D67CE"/>
            </g>
            <path d="M108 173.751C109.562 173.751 111.075 173.209 112.282 172.219C113.489 171.228 114.316 169.85 114.62 168.318C114.925 166.787 114.689 165.197 113.953 163.82C113.217 162.442 112.027 161.363 110.584 160.765C109.141 160.167 107.536 160.088 106.042 160.541C104.547 160.994 103.256 161.951 102.389 163.249C101.521 164.548 101.13 166.107 101.282 167.661C101.435 169.215 102.122 170.668 103.225 171.772C104.492 173.039 106.209 173.75 108 173.751Z" fill="#FEA442"/>
            <g style="mix-blend-mode:multiply">
                <path fill-rule="evenodd" clip-rule="evenodd" d="M105.165 163.367H111.915V164.177H109.038C109.405 164.566 109.644 165.057 109.724 165.585H111.892V166.395H109.713C109.623 166.891 109.388 167.349 109.038 167.71C108.817 167.944 108.556 168.134 108.266 168.273L110.342 171.799H109.339L107.41 168.497H105.15V167.691H107.31C107.697 167.692 108.073 167.564 108.379 167.328C108.685 167.092 108.905 166.761 109.003 166.387H105.146V165.577H109.003C108.921 165.183 108.706 164.828 108.393 164.574C108.081 164.319 107.69 164.181 107.287 164.181H105.15V163.367H105.165Z" fill="#CB6A01"/>
            </g>
        </g>
        <g clip-path="url(#clip9_429_18025)">
            <rect width="48" height="48" transform="translate(168 143)" fill="white"/>
            <rect x="171.106" y="175" width="43.1335" height="21.5668" rx="2.69584" transform="rotate(-45 171.106 175)" fill="#CCE4FF"/>
            <path fill-rule="evenodd" clip-rule="evenodd" d="M197.266 156.952L202.967 151.25L203.653 151.935L201.235 154.353C201.877 154.372 202.498 154.586 203.015 154.967L204.85 153.133L205.535 153.818L203.684 155.668C204.034 156.161 204.227 156.749 204.235 157.354C204.249 157.741 204.185 158.126 204.046 158.488L208.787 159.732L207.952 160.567L203.487 159.378L201.574 161.291L200.888 160.606L202.715 158.779C203.046 158.453 203.259 158.026 203.32 157.565C203.381 157.105 203.288 156.637 203.054 156.235L199.802 159.488L199.148 158.834L202.416 155.566C202.083 155.36 201.698 155.254 201.306 155.259C200.748 155.265 200.214 155.488 199.817 155.881L197.99 157.708L197.305 157.023L197.266 156.952Z" fill="#0A5DFF"/>
            <g style="mix-blend-mode:multiply">
                <path d="M180.344 160.552C181.229 160.552 181.946 159.947 181.946 159.201C181.946 158.455 181.229 157.851 180.344 157.851H170.352C169.467 157.851 168.75 158.455 168.75 159.201C168.75 159.947 169.467 160.552 170.352 160.552H180.344Z" fill="#4652CE"/>
            </g>
            <g style="mix-blend-mode:multiply">
                <path d="M184.709 166.96C185.594 166.96 186.311 166.356 186.311 165.61C186.311 164.864 185.594 164.259 184.709 164.259H172.691C171.806 164.259 171.089 164.864 171.089 165.61C171.089 166.356 171.806 166.96 172.691 166.96H184.709Z" fill="#4652CE"/>
            </g>
            <g style="mix-blend-mode:multiply">
                <path d="M179.668 173.369C180.553 173.369 181.27 172.764 181.27 172.018C181.27 171.272 180.553 170.667 179.668 170.667H170.352C169.467 170.667 168.75 171.272 168.75 172.018C168.75 172.764 169.467 173.369 170.352 173.369H179.668Z" fill="#4652CE"/>
            </g>
        </g>
        <rect width="48" height="48" transform="translate(252 143)" fill="white"/>
        <g style="mix-blend-mode:multiply">
            <path d="M270.667 146.503L259.342 157.498C259.174 157.659 259.042 157.854 258.952 158.07C258.863 158.285 258.82 158.517 258.825 158.75V186.283C258.826 186.509 258.872 186.734 258.961 186.942C259.049 187.151 259.179 187.34 259.342 187.498C259.679 187.822 260.128 188.002 260.595 188H287.055C287.522 188.002 287.971 187.822 288.307 187.498C288.471 187.34 288.601 187.151 288.689 186.942C288.778 186.734 288.824 186.509 288.825 186.283V147.718C288.824 147.491 288.778 147.266 288.689 147.058C288.601 146.849 288.471 146.66 288.307 146.503C287.971 146.178 287.522 145.998 287.055 146H271.927C271.694 146 271.463 146.043 271.245 146.128C271.031 146.216 270.835 146.343 270.667 146.503Z" fill="#CCE4FF"/>
        </g>
        <g style="mix-blend-mode:multiply">
            <g style="mix-blend-mode:multiply">
                <path d="M290.362 182.465C290.257 182.623 290.137 182.6 290.107 182.405L288.052 171.073C288.043 171.031 288.044 170.987 288.054 170.945C288.064 170.903 288.084 170.864 288.111 170.831C288.139 170.798 288.173 170.771 288.212 170.753C288.252 170.735 288.294 170.727 288.337 170.728H293.025C293.122 170.732 293.215 170.768 293.29 170.83C293.364 170.893 293.416 170.978 293.437 171.073L295.47 182.405C295.47 182.6 295.395 182.668 295.23 182.563L292.057 180.538C291.978 180.486 291.881 180.469 291.788 180.488C291.696 180.508 291.615 180.564 291.562 180.643L290.362 182.465Z" fill="#3849CE"/>
            </g>
        </g>
        <g style="mix-blend-mode:multiply">
            <g style="mix-blend-mode:multiply">
                <path d="M287.242 182.465C287.347 182.623 287.467 182.6 287.497 182.405L289.552 171.073C289.562 171.031 289.561 170.987 289.551 170.945C289.541 170.903 289.521 170.864 289.494 170.831C289.466 170.798 289.432 170.771 289.392 170.753C289.353 170.735 289.31 170.727 289.267 170.728H284.557C284.46 170.732 284.367 170.768 284.293 170.83C284.218 170.893 284.166 170.978 284.145 171.073L282.112 182.405C282.112 182.6 282.187 182.668 282.352 182.563L285.525 180.538C285.605 180.486 285.701 180.469 285.794 180.488C285.887 180.508 285.968 180.564 286.02 180.643L287.242 182.465Z" fill="#3849CE"/>
            </g>
        </g>
        <path d="M288.751 173C290.486 173 292.167 172.398 293.508 171.297C294.849 170.197 295.767 168.665 296.106 166.963C296.444 165.262 296.182 163.495 295.365 161.965C294.547 160.435 293.224 159.235 291.621 158.571C290.018 157.907 288.235 157.819 286.574 158.323C284.914 158.826 283.479 159.889 282.515 161.332C281.551 162.774 281.116 164.506 281.286 166.233C281.455 167.96 282.218 169.574 283.445 170.801C284.852 172.208 286.761 172.999 288.751 173Z" fill="#FEA442"/>
        <g style="mix-blend-mode:multiply">
            <path fill-rule="evenodd" clip-rule="evenodd" d="M285.601 161.463H293.101V162.363H289.903C290.311 162.794 290.577 163.34 290.666 163.927H293.075V164.827H290.653C290.554 165.378 290.293 165.887 289.903 166.289C289.658 166.548 289.368 166.76 289.046 166.914L291.352 170.831H290.238L288.095 167.163H285.583V166.267H287.983C288.413 166.268 288.831 166.126 289.171 165.864C289.512 165.602 289.756 165.234 289.865 164.819H285.579V163.919H289.865C289.774 163.48 289.535 163.086 289.187 162.804C288.84 162.521 288.406 162.367 287.958 162.367H285.583V161.463H285.601Z" fill="#CB6A01"/>
        </g>
        <g style="mix-blend-mode:multiply">
            <g style="mix-blend-mode:multiply">
                <path d="M270.307 146.855V155.675C270.306 155.869 270.266 156.06 270.19 156.237C270.114 156.415 270.004 156.576 269.865 156.71C269.578 156.986 269.197 157.141 268.8 157.145H259.71L270.307 146.855Z" fill="#0D68FF"/>
            </g>
        </g>
        <g style="mix-blend-mode:multiply">
            <g style="mix-blend-mode:multiply">
                <path d="M275.025 164.75H256.125C255.827 164.75 255.54 164.869 255.33 165.08C255.119 165.29 255 165.577 255 165.875C255 166.173 255.119 166.46 255.33 166.67C255.54 166.881 255.827 167 256.125 167H275.025C275.323 167 275.61 166.881 275.82 166.67C276.031 166.46 276.15 166.173 276.15 165.875C276.15 165.577 276.031 165.29 275.82 165.08C275.61 164.869 275.323 164.75 275.025 164.75Z" fill="#0D68FF"/>
            </g>
        </g>
        <g style="mix-blend-mode:multiply">
            <g style="mix-blend-mode:multiply">
                <path d="M268.95 170H256.2C255.902 170 255.615 170.119 255.404 170.33C255.193 170.54 255.075 170.827 255.075 171.125C255.075 171.423 255.193 171.71 255.404 171.92C255.615 172.131 255.902 172.25 256.2 172.25H268.95C269.248 172.25 269.534 172.131 269.745 171.92C269.956 171.71 270.075 171.423 270.075 171.125C270.075 170.827 269.956 170.54 269.745 170.33C269.534 170.119 269.248 170 268.95 170Z" fill="#0D68FF"/>
            </g>
        </g>
        <rect width="48" height="48" transform="translate(336 143)" fill="white"/>
        <g style="mix-blend-mode:multiply">
            <path d="M354.667 146.503L343.342 157.498C343.174 157.659 343.042 157.854 342.952 158.07C342.863 158.285 342.82 158.517 342.825 158.75V186.283C342.826 186.509 342.872 186.734 342.961 186.942C343.049 187.151 343.179 187.34 343.342 187.498C343.679 187.822 344.128 188.002 344.595 188H371.055C371.522 188.002 371.971 187.822 372.307 187.498C372.471 187.34 372.601 187.151 372.689 186.942C372.778 186.734 372.824 186.509 372.825 186.283V147.718C372.824 147.491 372.778 147.266 372.689 147.058C372.601 146.849 372.471 146.66 372.307 146.503C371.971 146.178 371.522 145.998 371.055 146H355.927C355.694 146 355.463 146.043 355.245 146.128C355.031 146.216 354.835 146.343 354.667 146.503Z" fill="#CCE4FF"/>
        </g>
        <path d="M372.751 173C374.486 173 376.167 172.398 377.508 171.297C378.849 170.197 379.767 168.665 380.106 166.963C380.444 165.262 380.182 163.495 379.365 161.965C378.547 160.435 377.224 159.235 375.621 158.571C374.018 157.907 372.235 157.819 370.574 158.323C368.914 158.826 367.479 159.889 366.515 161.332C365.551 162.774 365.116 164.506 365.286 166.233C365.455 167.96 366.218 169.574 367.445 170.801C368.852 172.208 370.761 172.999 372.751 173Z" fill="#FEA442"/>
        <g style="mix-blend-mode:multiply">
            <path fill-rule="evenodd" clip-rule="evenodd" d="M369.601 161.463H377.101V162.363H373.903C374.311 162.794 374.577 163.34 374.666 163.927H377.075V164.827H374.653C374.554 165.378 374.293 165.887 373.903 166.289C373.658 166.548 373.368 166.76 373.046 166.914L375.352 170.831H374.238L372.095 167.163H369.583V166.267H371.983C372.413 166.268 372.831 166.126 373.171 165.864C373.512 165.602 373.756 165.234 373.865 164.819H369.579V163.919H373.865C373.774 163.48 373.535 163.086 373.187 162.804C372.84 162.521 372.406 162.367 371.958 162.367H369.583V161.463H369.601Z" fill="#CB6A01"/>
        </g>
        <g style="mix-blend-mode:multiply">
            <g style="mix-blend-mode:multiply">
                <path d="M354.307 146.855V155.675C354.306 155.869 354.266 156.06 354.19 156.237C354.114 156.415 354.004 156.576 353.865 156.71C353.578 156.986 353.197 157.141 352.8 157.145H343.71L354.307 146.855Z" fill="#0D68FF"/>
            </g>
        </g>
        <g style="mix-blend-mode:multiply">
            <g style="mix-blend-mode:multiply">
                <path d="M359.025 164.75H340.125C339.827 164.75 339.54 164.869 339.33 165.08C339.119 165.29 339 165.577 339 165.875C339 166.173 339.119 166.46 339.33 166.67C339.54 166.881 339.827 167 340.125 167H359.025C359.323 167 359.61 166.881 359.82 166.67C360.031 166.46 360.15 166.173 360.15 165.875C360.15 165.577 360.031 165.29 359.82 165.08C359.61 164.869 359.323 164.75 359.025 164.75Z" fill="#4652CE"/>
            </g>
        </g>
        <g style="mix-blend-mode:multiply">
            <g style="mix-blend-mode:multiply">
                <path d="M352.95 170H340.2C339.902 170 339.615 170.119 339.404 170.33C339.193 170.54 339.075 170.827 339.075 171.125C339.075 171.423 339.193 171.71 339.404 171.92C339.615 172.131 339.902 172.25 340.2 172.25H352.95C353.248 172.25 353.534 172.131 353.745 171.92C353.956 171.71 354.075 171.423 354.075 171.125C354.075 170.827 353.956 170.54 353.745 170.33C353.534 170.119 353.248 170 352.95 170Z" fill="#4652CE"/>
            </g>
        </g>
        <rect width="48" height="48" transform="translate(420 143)" fill="white"/>
        <path d="M429.291 157.497C429.139 156.582 429.844 155.75 430.771 155.75H459.919C460.943 155.75 461.666 156.753 461.342 157.724L456.342 172.724C456.138 173.337 455.565 173.75 454.919 173.75H433.271C432.537 173.75 431.912 173.22 431.791 172.497L429.291 157.497Z" fill="#CCE4FF"/>
        <g style="mix-blend-mode:multiply">
            <path d="M460.875 176.75H432.375L429 149.75H423.75" stroke="#3242B9" stroke-width="2.25" stroke-linecap="round" stroke-linejoin="round"/>
        </g>
        <circle cx="435" cy="182.75" r="3.75" fill="#0954E5"/>
        <circle cx="450.75" cy="182.75" r="3.75" fill="#0954E5"/>
        <path fill-rule="evenodd" clip-rule="evenodd" d="M437.779 158.238C437.898 158.109 438.101 158.109 438.22 158.238L440.132 160.308C440.31 160.501 440.174 160.812 439.912 160.812H439.109C439.119 160.873 439.125 160.936 439.125 160.999V167.187H439.912C440.174 167.187 440.31 167.498 440.132 167.691L438.22 169.761C438.101 169.89 437.898 169.89 437.779 169.761L435.867 167.691C435.689 167.498 435.825 167.187 436.087 167.187H436.875V160.999C436.875 160.936 436.88 160.873 436.89 160.812H436.087C435.825 160.812 435.689 160.501 435.867 160.308L437.779 158.238Z" fill="#0644CE"/>
        <path fill-rule="evenodd" clip-rule="evenodd" d="M444.493 158.238C444.611 158.109 444.814 158.109 444.933 158.238L446.846 160.308C447.023 160.501 446.887 160.812 446.625 160.812H445.822C445.833 160.873 445.838 160.936 445.838 160.999V167.187H446.625C446.887 167.187 447.023 167.498 446.846 167.691L444.933 169.761C444.814 169.89 444.611 169.89 444.493 169.761L442.58 167.691C442.402 167.498 442.539 167.187 442.8 167.187H443.588V160.999C443.588 160.936 443.593 160.873 443.603 160.812H442.8C442.539 160.812 442.402 160.501 442.58 160.308L444.493 158.238Z" fill="#0644CE"/>
        <path fill-rule="evenodd" clip-rule="evenodd" d="M451.243 158.238C451.361 158.109 451.564 158.109 451.683 158.238L453.596 160.308C453.773 160.501 453.637 160.812 453.375 160.812H452.572C452.583 160.873 452.588 160.936 452.588 160.999V167.187H453.375C453.637 167.187 453.773 167.498 453.596 167.691L451.683 169.761C451.564 169.89 451.361 169.89 451.243 169.761L449.33 167.691C449.152 167.498 449.289 167.187 449.55 167.187H450.338V160.999C450.338 160.936 450.343 160.873 450.353 160.812H449.55C449.289 160.812 449.152 160.501 449.33 160.308L451.243 158.238Z" fill="#0644CE"/>
        <rect width="48" height="48" transform="translate(0 213)" fill="white"/>
        <path d="M9.2911 227.497C9.13872 226.582 9.84378 225.75 10.7707 225.75H39.9189C40.9427 225.75 41.6657 226.753 41.3419 227.724L36.3419 242.724C36.1377 243.337 35.5645 243.75 34.9189 243.75H13.2707C12.5374 243.75 11.9116 243.22 11.7911 242.497L9.2911 227.497Z" fill="#CCE4FF"/>
        <g style="mix-blend-mode:multiply">
            <path d="M40.875 246.75H12.375L9 219.75H3.75" stroke="#0954E5" stroke-width="2.25" stroke-linecap="round" stroke-linejoin="round"/>
        </g>
        <circle cx="15" cy="252.75" r="3.75" fill="#0954E5"/>
        <circle cx="30.75" cy="252.75" r="3.75" fill="#0954E5"/>
        <circle cx="3.04909" cy="3.04909" r="3.04909" transform="matrix(-1 0 0 1 33.2705 228)" stroke="#3242B9" stroke-width="1.52455"/>
        <circle cx="1.52455" cy="1.52455" r="1.52455" transform="matrix(-1 0 0 1 28.188 237.655)" stroke="#3242B9" stroke-width="1.52455"/>
        <circle cx="2.03273" cy="2.03273" r="2.03273" transform="matrix(-1 0 0 1 20.5654 236.639)" stroke="#3242B9" stroke-width="1.52455"/>
        <circle cx="1.77864" cy="1.77864" r="1.77864" transform="matrix(-1 0 0 1 22.0898 229.525)" stroke="#3242B9" stroke-width="1.52455"/>
        <path d="M27.6802 232.827L20.5656 237.655" stroke="#3242B9" stroke-width="1.52455" stroke-linecap="round"/>
        <path d="M21.5817 232.827L25.3931 237.909" stroke="#3242B9" stroke-width="1.52455" stroke-linecap="round"/>
        <rect width="48" height="48" transform="translate(84 213)" fill="white"/>
        <g style="mix-blend-mode:multiply">
            <path d="M93.5997 227.1C93.4473 226.186 94.1524 225.354 95.0793 225.354H126.169C127.192 225.354 127.915 226.357 127.592 227.328L122.239 243.387C122.035 243.999 121.461 244.412 120.816 244.412H97.7558C97.0225 244.412 96.3967 243.882 96.2762 243.159L93.5997 227.1Z" fill="#CCE4FF"/>
        </g>
        <g style="mix-blend-mode:multiply">
            <path d="M127.059 247.588H96.8824L93.3088 219H87.75" stroke="#6D67CE" stroke-width="2.25" stroke-linecap="round" stroke-linejoin="round"/>
        </g>
        <g style="mix-blend-mode:multiply">
            <circle cx="99.662" cy="253.941" r="3.97059" fill="#6D67CE"/>
        </g>
        <g style="mix-blend-mode:multiply">
            <circle cx="116.338" cy="253.941" r="3.97059" fill="#6D67CE"/>
        </g>
        <g style="mix-blend-mode:multiply">
            <circle cx="109.5" cy="234.75" r="6.75" fill="#1482FF"/>
            <circle cx="109.5" cy="234.75" r="6.75" fill="#1482FF"/>
            <circle cx="109.5" cy="234.75" r="6.75" fill="#1482FF"/>
        </g>
        <path fill-rule="evenodd" clip-rule="evenodd" d="M111.643 236.25C111.712 235.778 111.75 235.276 111.75 234.75C111.75 234.224 111.712 233.722 111.643 233.25H107.357C107.288 233.722 107.25 234.224 107.25 234.75C107.25 235.276 107.288 235.778 107.357 236.25L111.643 236.25ZM113.157 236.25C113.218 235.768 113.25 235.266 113.25 234.75C113.25 234.234 113.218 233.732 113.157 233.25H115.5C115.914 233.25 116.25 232.914 116.25 232.5C116.25 232.086 115.914 231.75 115.5 231.75L112.86 231.75C112.247 229.527 110.972 228 109.5 228C108.028 228 106.753 229.527 106.14 231.75L103.5 231.75C103.086 231.75 102.75 232.086 102.75 232.5C102.75 232.914 103.086 233.25 103.5 233.25H105.843C105.782 233.732 105.75 234.234 105.75 234.75C105.75 235.266 105.782 235.768 105.843 236.25H103.5C103.086 236.25 102.75 236.586 102.75 237C102.75 237.414 103.086 237.75 103.5 237.75H106.14C106.753 239.973 108.028 241.5 109.5 241.5C110.972 241.5 112.247 239.973 112.86 237.75H115.5C115.914 237.75 116.25 237.414 116.25 237C116.25 236.586 115.914 236.25 115.5 236.25H113.157ZM111.293 237.75L107.707 237.75C107.838 238.14 107.991 238.491 108.16 238.795C108.721 239.805 109.257 240 109.5 240C109.743 240 110.279 239.805 110.84 238.795C111.009 238.491 111.162 238.14 111.293 237.75ZM108.16 230.705C107.991 231.009 107.838 231.36 107.707 231.75L111.293 231.75C111.162 231.36 111.009 231.009 110.84 230.705C110.279 229.695 109.743 229.5 109.5 229.5C109.257 229.5 108.721 229.695 108.16 230.705Z" fill="#CCE4FF"/>
        <rect width="48" height="48" transform="translate(168 213)" fill="white"/>
        <rect x="185.25" y="216" width="24" height="42" rx="1.5" fill="#CCE4FF"/>
        <rect x="195" y="252.75" width="5.25" height="2.25" rx="1.125" fill="#CCE4FF"/>
        <g style="mix-blend-mode:multiply">
            <rect x="195" y="252.75" width="5.25" height="2.25" rx="1.125" fill="#1482FF"/>
        </g>
        <g style="mix-blend-mode:multiply">
            <path d="M176.791 231.503C176.912 230.78 177.537 230.25 178.271 230.25H190.729C191.463 230.25 192.088 230.78 192.209 231.503L194.709 246.503C194.861 247.418 194.156 248.25 193.229 248.25H175.771C174.844 248.25 174.139 247.418 174.291 246.503L176.791 231.503Z" fill="#6D67CE"/>
        </g>
        <g style="mix-blend-mode:multiply">
            <path d="M187.5 230.25C187.5 229.255 187.144 228.302 186.511 227.598C185.879 226.895 185.02 226.5 184.125 226.5C183.23 226.5 182.371 226.895 181.739 227.598C181.106 228.302 180.75 229.255 180.75 230.25" stroke="#625DB9" stroke-width="2.25" stroke-linecap="round"/>
        </g>
        <path fill-rule="evenodd" clip-rule="evenodd" d="M185.42 242.096C185.601 241.735 185.751 241.287 185.854 240.776H183.146C183.249 241.287 183.399 241.735 183.58 242.096C183.787 242.51 183.994 242.744 184.169 242.87C184.258 242.877 184.349 242.88 184.44 242.88C184.578 242.88 184.714 242.872 184.848 242.858C185.019 242.729 185.22 242.497 185.42 242.096ZM182.989 242.583C182.163 242.23 181.493 241.584 181.107 240.776H182.383C182.509 241.475 182.719 242.094 182.989 242.583ZM180.86 240.087C180.899 240.049 180.946 240.026 180.997 240.026H182.283C182.261 239.774 182.25 239.514 182.25 239.25C182.25 239.003 182.26 238.762 182.279 238.526H180.997C180.932 238.526 180.873 238.489 180.829 238.428C180.777 238.674 180.75 238.929 180.75 239.19C180.75 239.499 180.788 239.8 180.86 240.087ZM181.03 237.776H182.373C182.512 236.978 182.759 236.281 183.08 235.758C182.154 236.126 181.412 236.857 181.03 237.776ZM184.487 235.5C184.499 235.5 184.512 235.5 184.524 235.501C184.716 235.515 185.068 235.7 185.42 236.403C185.607 236.777 185.762 237.244 185.864 237.776H183.136C183.238 237.244 183.393 236.777 183.58 236.403C183.938 235.686 184.298 235.508 184.487 235.5ZM185.961 235.827C186.812 236.212 187.491 236.911 187.85 237.776H186.627C186.494 237.012 186.262 236.341 185.961 235.827ZM188.068 238.511C188.045 238.521 188.022 238.526 187.997 238.526H186.721C186.74 238.762 186.75 239.003 186.75 239.25C186.75 239.514 186.739 239.774 186.717 240.026H187.997C188.01 240.026 188.022 240.027 188.034 240.03C188.097 239.76 188.13 239.479 188.13 239.19C188.13 238.958 188.109 238.731 188.068 238.511ZM187.773 240.776C187.412 241.532 186.803 242.145 186.05 242.511C186.301 242.033 186.497 241.441 186.617 240.776H187.773ZM186 239.25C186 239.517 185.987 239.777 185.964 240.026H183.036C183.013 239.777 183 239.517 183 239.25C183 239.001 183.011 238.759 183.032 238.526H185.968C185.989 238.759 186 239.001 186 239.25Z" fill="#CCE4FF"/>
        <rect width="48" height="48" transform="translate(252 213)" fill="white"/>
        <rect x="269.25" y="216" width="24" height="42" rx="1.5" fill="#CCE4FF"/>
        <rect x="279" y="252.75" width="5.25" height="2.25" rx="1.125" fill="#CCE4FF"/>
        <g style="mix-blend-mode:multiply">
            <rect x="279" y="252.75" width="5.25" height="2.25" rx="1.125" fill="#1482FF"/>
        </g>
        <g style="mix-blend-mode:multiply">
            <path d="M260.246 231.445C260.094 230.531 260.799 229.698 261.726 229.698H279.589C280.613 229.698 281.336 230.701 281.012 231.673L278.064 240.517C277.86 241.13 277.287 241.543 276.641 241.543H263.2C262.467 241.543 261.841 241.013 261.72 240.29L260.246 231.445Z" fill="#625DB9"/>
        </g>
        <g style="mix-blend-mode:multiply">
            <path d="M280.93 243.517H262.176L259.955 225.75H256.5" stroke="#6D67CE" stroke-width="2.25" stroke-linecap="round" stroke-linejoin="round"/>
        </g>
        <g style="mix-blend-mode:multiply">
            <circle cx="263.083" cy="247.333" r="2.08333" fill="#6D67CE"/>
        </g>
        <g style="mix-blend-mode:multiply">
            <circle cx="274.417" cy="247.333" r="2.08333" fill="#6D67CE"/>
        </g>
        <path fill-rule="evenodd" clip-rule="evenodd" d="M271.45 238.334C271.612 238.009 271.748 237.605 271.842 237.144H269.467C269.561 237.605 269.697 238.009 269.859 238.334C270.087 238.79 270.31 238.996 270.472 239.081C270.514 239.082 270.557 239.083 270.599 239.083C270.683 239.083 270.767 239.08 270.85 239.074C271.01 238.985 271.228 238.778 271.45 238.334ZM269.262 238.81C268.501 238.484 267.883 237.889 267.528 237.144H268.704C268.82 237.789 269.014 238.359 269.262 238.81ZM267.3 236.51C267.337 236.474 267.38 236.453 267.427 236.453H268.612C268.592 236.221 268.581 235.982 268.581 235.738C268.581 235.511 268.591 235.289 268.608 235.072H267.427C267.367 235.072 267.313 235.038 267.272 234.981C267.224 235.208 267.199 235.443 267.199 235.683C267.199 235.968 267.234 236.245 267.3 236.51ZM267.458 234.381H268.695C268.822 233.645 269.05 233.003 269.346 232.521C268.493 232.86 267.809 233.534 267.458 234.381ZM272.001 232.585C272.278 233.059 272.492 233.677 272.614 234.381H273.741C273.41 233.584 272.785 232.94 272.001 232.585ZM273.942 235.058C273.921 235.067 273.899 235.072 273.877 235.072H272.701C272.718 235.289 272.728 235.511 272.728 235.738C272.728 235.982 272.717 236.221 272.697 236.453H273.877C273.888 236.453 273.9 236.454 273.911 236.457C273.968 236.208 273.999 235.949 273.999 235.683C273.999 235.47 273.979 235.261 273.942 235.058ZM273.67 237.144C273.338 237.841 272.776 238.406 272.083 238.743C272.314 238.303 272.495 237.757 272.605 237.144H273.67ZM271.944 236.453H269.365C269.343 236.224 269.331 235.984 269.331 235.738C269.331 235.509 269.342 235.286 269.361 235.072H271.948C271.967 235.286 271.978 235.509 271.978 235.738C271.978 235.984 271.966 236.224 271.944 236.453ZM271.852 234.381H269.458C269.551 233.899 269.691 233.478 269.859 233.142C270.195 232.471 270.519 232.342 270.655 232.342C270.79 232.342 271.114 232.471 271.45 233.142C271.618 233.478 271.758 233.899 271.852 234.381Z" fill="#CCE4FF"/>
        <rect width="48" height="48" transform="translate(336 213)" fill="white"/>
        <path fill-rule="evenodd" clip-rule="evenodd" d="M353.092 229.5C353.496 227.182 354.087 225.114 354.814 223.404C356.27 219.977 358.054 218.426 359.625 218.426C361.196 218.426 362.98 219.977 364.436 223.404C365.163 225.114 365.754 227.182 366.158 229.5H353.092ZM340.437 231.75C339.989 233.424 339.75 235.184 339.75 237C339.75 238.816 339.989 240.576 340.437 242.25H350.591C350.368 240.458 350.25 238.571 350.25 236.625C350.25 234.949 350.338 233.316 350.505 231.75H340.437ZM341.184 244.5C344.081 251.76 351.057 256.95 359.279 257.237C356.458 257.031 354.239 254.315 352.769 250.857C351.991 249.027 351.367 246.873 350.935 244.5H341.184ZM359.747 257.248C359.831 257.249 359.915 257.25 360 257.25C368.534 257.25 375.835 251.971 378.816 244.5H368.315C367.883 246.873 367.259 249.027 366.481 250.857C364.973 254.406 362.674 257.174 359.747 257.248ZM379.526 242.384C379.998 240.67 380.25 238.864 380.25 237C380.25 235.136 379.998 233.33 379.526 231.616C379.333 231.701 379.111 231.75 378.875 231.75H368.745C368.912 233.316 369 234.949 369 236.625C369 238.571 368.882 240.458 368.659 242.25H378.875C379.111 242.25 379.333 242.298 379.526 242.384ZM378.816 229.5C376.125 222.755 369.912 217.796 362.449 216.896C364.113 218 365.474 220.022 366.481 222.393C367.34 224.414 368.011 226.83 368.444 229.5H378.816ZM356.602 217.034C355.028 218.163 353.736 220.117 352.769 222.393C351.91 224.414 351.239 226.83 350.806 229.5H341.184C343.76 223.043 349.564 218.223 356.602 217.034ZM354.814 249.846C354.167 248.322 353.626 246.515 353.231 244.5H366.019C365.624 246.515 365.083 248.322 364.436 249.846C362.98 253.273 361.196 254.823 359.625 254.823C358.054 254.823 356.27 253.273 354.814 249.846ZM352.5 236.625C352.5 238.593 352.628 240.482 352.863 242.25H366.387C366.622 240.482 366.75 238.593 366.75 236.625C366.75 234.933 366.655 233.299 366.48 231.75H352.77C352.595 233.299 352.5 234.933 352.5 236.625Z" fill="#CCE4FF"/>
        <g style="mix-blend-mode:multiply">
            <path d="M352.291 230.753C352.412 230.03 353.037 229.5 353.771 229.5H366.229C366.963 229.5 367.588 230.03 367.709 230.753L370.209 245.753C370.361 246.668 369.656 247.5 368.729 247.5H351.271C350.344 247.5 349.639 246.668 349.791 245.753L352.291 230.753Z" fill="#6D67CE"/>
        </g>
        <g style="mix-blend-mode:multiply">
            <path d="M363 229.5C363 228.505 362.644 227.552 362.011 226.848C361.379 226.145 360.52 225.75 359.625 225.75C358.73 225.75 357.871 226.145 357.239 226.848C356.606 227.552 356.25 228.505 356.25 229.5" stroke="#1074FF" stroke-width="2.25" stroke-linecap="round"/>
        </g>
        <path fill-rule="evenodd" clip-rule="evenodd" d="M360.92 241.346C361.101 240.985 361.251 240.537 361.354 240.026H358.646C358.749 240.537 358.899 240.985 359.08 241.346C359.287 241.76 359.494 241.994 359.669 242.12C359.758 242.127 359.849 242.13 359.94 242.13C360.078 242.13 360.214 242.122 360.348 242.108C360.519 241.979 360.72 241.747 360.92 241.346ZM358.489 241.833C357.663 241.48 356.993 240.834 356.607 240.026H357.883C358.009 240.725 358.219 241.344 358.489 241.833ZM356.36 239.337C356.399 239.299 356.446 239.276 356.497 239.276H357.783C357.761 239.024 357.75 238.764 357.75 238.5C357.75 238.253 357.76 238.012 357.779 237.776H356.497C356.432 237.776 356.373 237.739 356.329 237.678C356.277 237.924 356.25 238.179 356.25 238.44C356.25 238.749 356.288 239.05 356.36 239.337ZM356.53 237.026H357.873C358.012 236.228 358.259 235.531 358.58 235.008C357.654 235.376 356.912 236.107 356.53 237.026ZM359.987 234.75C359.999 234.75 360.012 234.75 360.024 234.751C360.216 234.765 360.568 234.95 360.92 235.653C361.107 236.027 361.262 236.494 361.364 237.026H358.636C358.738 236.494 358.893 236.027 359.08 235.653C359.438 234.936 359.798 234.758 359.987 234.75ZM361.461 235.077C362.312 235.462 362.991 236.161 363.35 237.026H362.127C361.994 236.262 361.762 235.591 361.461 235.077ZM363.568 237.761C363.545 237.771 363.522 237.776 363.497 237.776H362.221C362.24 238.012 362.25 238.253 362.25 238.5C362.25 238.764 362.239 239.024 362.217 239.276H363.497C363.51 239.276 363.522 239.277 363.534 239.28C363.597 239.01 363.63 238.729 363.63 238.44C363.63 238.208 363.609 237.981 363.568 237.761ZM363.273 240.026C362.912 240.782 362.303 241.395 361.55 241.761C361.801 241.283 361.997 240.691 362.117 240.026H363.273ZM361.5 238.5C361.5 238.767 361.487 239.027 361.464 239.276H358.536C358.513 239.027 358.5 238.767 358.5 238.5C358.5 238.251 358.511 238.009 358.532 237.776H361.468C361.489 238.009 361.5 238.251 361.5 238.5Z" fill="#CCE4FF"/>
        <g clip-path="url(#clip10_429_18025)">
            <rect width="48" height="48" transform="translate(420 213)" fill="white"/>
            <path d="M428.654 249.492C428.373 249.211 428.215 248.83 428.215 248.432L428.215 225.719C428.215 225.321 428.373 224.939 428.654 224.658L438.406 214.906C438.992 214.32 439.942 214.32 440.527 214.906L461.144 235.522C461.89 236.269 461.652 237.533 460.685 237.957L455.244 240.341C454.902 240.491 454.629 240.762 454.477 241.102L451.314 248.171C451.164 248.506 450.898 248.774 450.564 248.925L443.402 252.173C443.063 252.327 442.792 252.602 442.645 252.945L440.342 258.277C439.922 259.25 438.654 259.492 437.905 258.743L428.654 249.492Z" fill="#36A168" fill-opacity="0.25"/>
            <g style="mix-blend-mode:multiply">
                <path d="M428.215 238.164L428.215 225.097L440.193 237.075L428.215 249.053L428.215 238.164Z" fill="#36A168"/>
            </g>
            <g style="mix-blend-mode:multiply">
                <rect x="451.965" y="213.75" width="3.07988" height="18.9926" rx="1.53994" transform="rotate(45 451.965 213.75)" fill="#1275E5"/>
            </g>
            <g style="mix-blend-mode:multiply">
                <rect x="450.99" y="222.989" width="3.07988" height="11.8062" rx="1.53994" transform="rotate(45 450.99 222.989)" fill="#1275E5"/>
            </g>
        </g>
        <rect width="48" height="48" transform="translate(0 283)" fill="white"/>
        <g style="mix-blend-mode:multiply">
            <path fill-rule="evenodd" clip-rule="evenodd" d="M24.643 291.121V298.712H44.2831C44.4529 298.712 44.6157 298.644 44.7358 298.524C44.8558 298.404 44.9233 298.242 44.9233 298.072V291.121C44.9368 290.462 44.8204 289.807 44.5807 289.192C44.3409 288.578 43.9826 288.017 43.526 287.542C43.0694 287.066 42.5237 286.685 41.9198 286.421C41.316 286.156 40.666 286.013 40.0068 286H19.7266C20.3857 286.013 21.0358 286.156 21.6396 286.421C22.2435 286.685 22.7892 287.066 23.2458 287.542C23.7023 288.017 24.0607 288.578 24.3005 289.192C24.5402 289.807 24.6566 290.462 24.643 291.121Z" fill="#36A168"/>
        </g>
        <path fill-rule="evenodd" clip-rule="evenodd" d="M35.322 291.121V294.962H15.4781C15.3084 294.962 15.1455 294.894 15.0255 294.774C14.9054 294.654 14.838 294.492 14.838 294.322V291.121C14.8244 290.462 14.9408 289.807 15.1805 289.192C15.4203 288.578 15.7787 288.017 16.2352 287.542C16.6918 287.066 17.2376 286.685 17.8414 286.421C18.4452 286.156 19.0953 286.013 19.7544 286H40.2384C39.5793 286.013 38.9292 286.156 38.3254 286.421C37.7216 286.685 37.1758 287.066 36.7192 287.542C36.2627 288.017 35.9043 288.578 35.6645 289.192C35.4248 289.807 35.3084 290.462 35.322 291.121Z" fill="#CDE7D9"/>
        <path fill-rule="evenodd" clip-rule="evenodd" d="M14.0741 286H35.3209V327.235C35.3209 327.295 35.3044 327.353 35.2731 327.404C35.2419 327.454 35.1972 327.495 35.144 327.522C35.0908 327.548 35.0313 327.559 34.9721 327.554C34.9129 327.549 34.8564 327.527 34.8088 327.491L31.3327 324.841C31.2214 324.756 31.0853 324.711 30.9454 324.711C30.8056 324.711 30.6695 324.756 30.5581 324.841L26.9605 327.587C26.8491 327.672 26.713 327.718 26.5732 327.718C26.4333 327.718 26.2972 327.672 26.1859 327.587L22.5882 324.841C22.4762 324.755 22.3389 324.708 22.1977 324.708C22.0564 324.708 21.9191 324.755 21.8072 324.841L18.2095 327.587C18.0981 327.672 17.9621 327.718 17.8222 327.718C17.6823 327.718 17.5463 327.672 17.4349 327.587L13.8372 324.841C13.7258 324.756 13.5898 324.711 13.4499 324.711C13.31 324.711 13.174 324.756 13.0626 324.841L9.58656 327.491C9.53901 327.527 9.48246 327.549 9.42326 327.554C9.36406 327.559 9.30454 327.548 9.25137 327.522C9.1982 327.495 9.15349 327.454 9.12224 327.404C9.09099 327.353 9.07444 327.295 9.07444 327.235V290.916C9.08627 289.602 9.61947 288.345 10.5569 287.424C11.4943 286.502 12.7594 285.99 14.0741 286Z" fill="#CDE7D9"/>
        <path d="M12.7507 316.75C15.0062 316.75 17.1919 315.968 18.9355 314.537C20.679 313.106 21.8725 311.115 22.3126 308.902C22.7527 306.69 22.4122 304.394 21.3491 302.405C20.286 300.415 18.5661 298.856 16.4824 297.993C14.3987 297.129 12.0801 297.015 9.92154 297.669C7.763 298.324 5.89809 299.706 4.64452 301.581C3.39095 303.456 2.82627 305.708 3.04668 307.953C3.26709 310.198 4.25895 312.296 5.85329 313.892C7.68283 315.721 10.1637 316.749 12.7507 316.75Z" fill="#1275E5"/>
        <path d="M13.5031 300.873L9.73977 304.636C8.81571 305.56 8.90654 307.148 9.94314 308.184C10.9797 309.221 12.5672 309.312 13.4913 308.388L17.2546 304.624C18.1787 303.7 18.0879 302.113 17.0513 301.076C16.0147 300.04 14.4272 299.949 13.5031 300.873ZM16.3168 303.686L12.5534 307.45C12.3043 307.67 11.9779 307.784 11.6457 307.764C11.3134 307.745 11.0023 307.595 10.7803 307.347C10.5324 307.125 10.3824 306.814 10.3632 306.482C10.344 306.15 10.457 305.823 10.6776 305.574L14.441 301.811C14.6901 301.59 15.0165 301.477 15.3487 301.496C15.681 301.516 15.9921 301.665 16.2141 301.913C16.462 302.135 16.612 302.447 16.6312 302.779C16.6504 303.111 16.5374 303.437 16.3168 303.686Z" fill="white"/>
        <path d="M11.361 305.972L7.59768 309.736C6.67362 310.66 6.76445 312.247 7.80105 313.284C8.83765 314.321 10.4251 314.411 11.3492 313.487L15.1125 309.724C16.0366 308.8 15.9438 307.21 14.9092 306.176C13.8745 305.141 12.2851 305.048 11.361 305.972ZM14.1747 308.786L10.4113 312.549C10.1625 312.77 9.83676 312.883 9.50502 312.864C9.17327 312.845 8.86242 312.696 8.6402 312.449C8.39228 312.227 8.24232 311.916 8.22308 311.583C8.20384 311.251 8.31689 310.925 8.53753 310.676L12.3009 306.912C12.5499 306.691 12.8765 306.577 13.2092 306.596C13.5419 306.615 13.8536 306.765 14.0759 307.013C14.3226 307.236 14.4714 307.547 14.4899 307.879C14.5084 308.211 14.3951 308.537 14.1747 308.786Z" fill="white"/>
        <rect width="48" height="48" transform="translate(84 283)" fill="white"/>
        <path d="M124.976 301.4C124.592 300.26 123.538 299.5 122.292 299.5H101.208C99.9618 299.5 98.908 300.26 98.5243 301.4L94.5 311.85V326.1C94.5 327.145 95.3629 328 96.4166 328H98.3334C99.3871 328 100.25 327.145 100.25 326.1V325.15H123.25V326.1C123.25 327.145 124.113 328 125.167 328H127.083C128.137 328 129 327.145 129 326.1V311.85L124.976 301.4ZM101.208 319.45C99.5799 319.45 98.3334 318.215 98.3334 316.6C98.3334 314.985 99.5799 313.75 101.208 313.75C102.837 313.75 104.083 314.985 104.083 316.6C104.083 318.215 102.837 319.45 101.208 319.45ZM122.292 319.45C120.663 319.45 119.417 318.215 119.417 316.6C119.417 314.985 120.663 313.75 122.292 313.75C123.92 313.75 125.167 314.985 125.167 316.6C125.167 318.215 123.92 319.45 122.292 319.45ZM98.3334 309.95L101.208 302.35H122.292L125.167 309.95H98.3334Z" fill="#CDE7D9"/>
        <path d="M86.25 320.125C86.25 318.675 87.4253 317.5 88.875 317.5C90.3247 317.5 91.5 318.675 91.5 320.125V328H86.25V320.125Z" fill="#1275E5"/>
        <rect x="88.5" y="317.769" width="41.9104" height="3" rx="1.5" transform="rotate(-45.9783 88.5 317.769)" fill="#1275E5"/>
        <rect width="48" height="48" transform="translate(168 283)" fill="white"/>
        <g style="mix-blend-mode:multiply">
            <path fill-rule="evenodd" clip-rule="evenodd" d="M195.643 294.871V302.462H215.283C215.453 302.462 215.616 302.394 215.736 302.274C215.856 302.154 215.923 301.992 215.923 301.822V294.871C215.937 294.212 215.82 293.557 215.581 292.942C215.341 292.328 214.983 291.767 214.526 291.292C214.069 290.816 213.524 290.435 212.92 290.171C212.316 289.906 211.666 289.763 211.007 289.75H190.727C191.386 289.763 192.036 289.906 192.64 290.171C193.243 290.435 193.789 290.816 194.246 291.292C194.702 291.767 195.061 292.328 195.3 292.942C195.54 293.557 195.657 294.212 195.643 294.871Z" fill="#36A168"/>
        </g>
        <path fill-rule="evenodd" clip-rule="evenodd" d="M206.322 294.871V298.712H186.478C186.308 298.712 186.146 298.644 186.026 298.524C185.906 298.404 185.838 298.242 185.838 298.072V294.871C185.825 294.212 185.941 293.557 186.181 292.942C186.42 292.328 186.779 291.767 187.235 291.292C187.692 290.816 188.238 290.435 188.842 290.171C189.445 289.906 190.095 289.763 190.755 289.75H211.239C210.579 289.763 209.929 289.906 209.326 290.171C208.722 290.435 208.176 290.816 207.719 291.292C207.263 291.767 206.904 292.328 206.665 292.942C206.425 293.557 206.309 294.212 206.322 294.871Z" fill="#CDE7D9"/>
        <path fill-rule="evenodd" clip-rule="evenodd" d="M185.074 289.75H206.321V324.235C206.321 324.295 206.304 324.353 206.273 324.404C206.242 324.454 206.197 324.495 206.144 324.522C206.091 324.548 206.031 324.559 205.972 324.554C205.913 324.549 205.856 324.527 205.809 324.491L202.333 321.841C202.221 321.756 202.085 321.711 201.946 321.711C201.806 321.711 201.67 321.756 201.558 321.841L197.961 324.587C197.849 324.672 197.713 324.718 197.573 324.718C197.433 324.718 197.297 324.672 197.186 324.587L193.588 321.841C193.476 321.755 193.339 321.708 193.198 321.708C193.057 321.708 192.919 321.755 192.807 321.841L189.21 324.587C189.098 324.672 188.962 324.718 188.822 324.718C188.682 324.718 188.546 324.672 188.435 324.587L184.837 321.841C184.726 321.756 184.59 321.711 184.45 321.711C184.31 321.711 184.174 321.756 184.063 321.841L180.587 324.491C180.539 324.527 180.483 324.549 180.423 324.554C180.364 324.559 180.305 324.548 180.251 324.522C180.198 324.495 180.154 324.454 180.122 324.404C180.091 324.353 180.075 324.295 180.075 324.235V294.666C180.086 293.352 180.62 292.095 181.557 291.174C182.494 290.252 183.759 289.74 185.074 289.75Z" fill="#CDE7D9"/>
        <g style="mix-blend-mode:multiply">
            <rect x="170.25" y="302.177" width="2.95937" height="18.2494" rx="1.47968" transform="rotate(-90 170.25 302.177)" fill="#1275E5"/>
        </g>
        <g style="mix-blend-mode:multiply">
            <rect x="177.058" y="308.097" width="2.95937" height="11.3442" rx="1.47968" transform="rotate(-90 177.058 308.097)" fill="#1275E5"/>
        </g>
        <g clip-path="url(#clip11_429_18025)">
            <rect width="48" height="48" transform="translate(252 283)" fill="white"/>
            <rect x="252.37" y="307.895" width="33.9411" height="33.9411" rx="1.41421" transform="rotate(-45 252.37 307.895)" fill="#CCE4FF"/>
            <g style="mix-blend-mode:multiply">
                <path fill-rule="evenodd" clip-rule="evenodd" d="M269.286 305.38C268.79 304.884 267.986 304.884 267.491 305.38C266.995 305.875 266.995 306.679 267.491 307.175L268.821 308.506C268.291 309.414 268.073 310.454 268.167 311.471L266.198 311.999C265.521 312.181 265.119 312.877 265.3 313.554C265.482 314.231 266.178 314.633 266.855 314.452L269.044 313.865C269.208 314.099 269.395 314.322 269.604 314.532C270.033 314.961 270.522 315.296 271.044 315.536L270.387 317.985C270.206 318.662 270.608 319.358 271.285 319.539C271.962 319.721 272.659 319.319 272.84 318.642L273.556 315.971C274.276 315.909 274.986 315.69 275.63 315.314L277.665 317.349C278.16 317.845 278.964 317.845 279.46 317.349C279.956 316.853 279.956 316.049 279.46 315.553L277.425 313.519C277.801 312.875 278.02 312.165 278.083 311.443L280.753 310.728C281.43 310.546 281.832 309.85 281.651 309.173C281.469 308.496 280.773 308.094 280.096 308.275L277.647 308.931C277.408 308.41 277.073 307.921 276.643 307.492C276.434 307.283 276.211 307.096 275.978 306.932L276.564 304.744C276.745 304.067 276.343 303.37 275.666 303.189C274.989 303.008 274.293 303.409 274.111 304.087L273.584 306.055C272.566 305.961 271.525 306.18 270.617 306.71L269.286 305.38Z" fill="#575CCE"/>
            </g>
            <g style="mix-blend-mode:multiply">
                <circle cx="273.188" cy="311.075" r="3" transform="rotate(-45 273.188 311.075)" fill="#1482FF"/>
            </g>
            <g style="mix-blend-mode:multiply">
                <rect x="277.961" y="293.575" width="8.25" height="3" rx="1.5" transform="rotate(-45 277.961 293.575)" fill="#1074FF"/>
            </g>
            <g style="mix-blend-mode:multiply">
                <rect x="288.568" y="304.182" width="8.25" height="3" rx="1.5" transform="rotate(-45 288.568 304.182)" fill="#1074FF"/>
            </g>
        </g>
        <g clip-path="url(#clip12_429_18025)">
            <rect width="48" height="48" transform="translate(336 283)" fill="white"/>
            <rect x="339.77" y="311.834" width="41.1937" height="20.5969" rx="2.57461" transform="rotate(-45 339.77 311.834)" fill="#CCE4FF"/>
            <rect x="344.302" y="311.598" width="34.4869" height="14.892" rx="1.2759" transform="rotate(-45 344.302 311.598)" fill="#CCE4FF" stroke="#F4F8FB" stroke-width="1.56758"/>
            <g style="mix-blend-mode:multiply">
                <circle cx="361.616" cy="304.551" r="5.50443" transform="rotate(-45 361.616 304.551)" fill="#0D68FF"/>
            </g>
            <path fill-rule="evenodd" clip-rule="evenodd" d="M358.468 304.303L361.99 300.78L362.414 301.204L360.92 302.697C361.317 302.709 361.7 302.841 362.02 303.077L363.153 301.943L363.576 302.366L362.433 303.51C362.649 303.814 362.768 304.177 362.774 304.551C362.782 304.79 362.742 305.028 362.657 305.252L365.586 306.02L365.07 306.536L362.311 305.801L361.129 306.984L360.706 306.56L361.835 305.432C362.039 305.23 362.17 304.966 362.208 304.682C362.246 304.397 362.188 304.108 362.044 303.86L360.034 305.869L359.631 305.466L361.65 303.446C361.444 303.319 361.206 303.253 360.964 303.257C360.619 303.261 360.289 303.398 360.044 303.641L358.915 304.77L358.492 304.347L358.468 304.303Z" fill="#CCE4FF"/>
            <g style="mix-blend-mode:multiply">
                <path d="M346.404 313.765C347.001 313.167 347.077 312.274 346.573 311.771C346.07 311.267 345.177 311.343 344.579 311.94L337.832 318.688C337.234 319.285 337.158 320.178 337.662 320.682C338.166 321.186 339.059 321.11 339.656 320.512L346.404 313.765Z" fill="#4652CE"/>
            </g>
            <g style="mix-blend-mode:multiply">
                <path d="M353.679 315.145C354.277 314.547 354.353 313.654 353.849 313.151C353.345 312.647 352.452 312.723 351.855 313.32L343.739 321.436C343.142 322.033 343.066 322.926 343.57 323.43C344.073 323.934 344.966 323.858 345.564 323.26L353.679 315.145Z" fill="#4652CE"/>
            </g>
            <g style="mix-blend-mode:multiply">
                <path d="M354.603 322.876C355.201 322.279 355.277 321.386 354.773 320.882C354.269 320.378 353.376 320.454 352.779 321.052L346.488 327.343C345.89 327.94 345.814 328.833 346.318 329.337C346.822 329.841 347.715 329.765 348.312 329.167L354.603 322.876Z" fill="#4652CE"/>
            </g>
        </g>
        <rect width="48" height="48" transform="translate(420 283)" fill="white"/>
        <rect x="422.086" y="309.113" width="33.6753" height="27.4101" rx="1.5" transform="rotate(-45 422.086 309.113)" fill="#FFE9CC"/>
        <g style="mix-blend-mode:multiply">
            <g style="mix-blend-mode:multiply">
                <path d="M441.026 313.237C441.85 312.417 442.411 311.37 442.638 310.229C442.865 309.089 442.747 307.906 442.299 306.833C441.851 305.762 441.097 304.847 440.131 304.204C439.165 303.561 438.031 303.217 436.871 303.217C435.71 303.217 434.576 303.56 433.61 304.203C432.645 304.845 431.891 305.76 431.444 306.83C430.922 308.086 430.852 309.484 431.246 310.786C431.64 312.088 432.474 313.213 433.605 313.969C434.736 314.725 436.094 315.065 437.447 314.932C438.801 314.799 440.066 314.2 441.026 313.237Z" fill="#FEB452"/>
            </g>
        </g>
        <g style="mix-blend-mode:multiply">
            <g style="mix-blend-mode:multiply">
                <path d="M457.025 315.329C457.199 315.488 457.34 315.679 457.44 315.889C457.541 316.1 457.597 316.326 457.606 316.552C457.625 317.027 457.47 317.479 457.17 317.822L445.189 329.802C444.846 330.113 444.39 330.276 443.908 330.262C443.681 330.251 443.454 330.193 443.242 330.093C443.03 329.993 442.836 329.853 442.674 329.681L441.943 328.95C438.049 325.056 438.463 319.915 441.985 316.393L443.784 314.595C447.283 311.096 452.447 310.659 456.34 314.552L457.025 315.329Z" fill="#FEB452"/>
            </g>
        </g>
        <g style="mix-blend-mode:multiply">
            <rect x="456.35" y="283" width="3.13259" height="20.3618" rx="1.56629" transform="rotate(45 456.35 283)" fill="#6D67CE"/>
        </g>
        <g style="mix-blend-mode:multiply">
            <rect x="457.993" y="290.048" width="3.13259" height="16.4461" rx="1.56629" transform="rotate(45 457.993 290.048)" fill="#6D67CE"/>
        </g>
        <g clip-path="url(#clip13_429_18025)">
            <rect width="48" height="48" transform="translate(0 353)" fill="white"/>
            <path d="M0.662947 381.422C0.380528 381.134 0.225021 380.745 0.230278 380.338C0.235535 379.932 0.401129 379.541 0.691015 379.251L9.03835 370.904C9.19653 370.746 9.38616 370.623 9.59452 370.543C9.80287 370.463 10.0251 370.429 10.2463 370.442L16.2728 370.823C16.7151 370.853 17.2763 370.348 17.5979 370.027L29.9149 357.71C30.5197 357.105 31.3688 357.426 31.9587 358.016L46.5206 372.578C46.6613 372.72 46.7721 372.888 46.8469 373.074C46.9216 373.26 46.9587 373.459 46.9561 373.661C46.9535 373.863 46.9112 374.062 46.8317 374.249C46.7521 374.435 46.6369 374.605 46.4926 374.748L21.3401 399.9C21.0503 400.19 20.6596 400.356 20.2531 400.361C19.8466 400.366 19.4573 400.211 19.1698 399.929L0.662947 381.422Z" fill="#FFE9CC"/>
            <g style="mix-blend-mode:multiply">
                <path d="M16.8375 368.192L28.9929 356.037C29.0886 355.947 29.1549 355.83 29.1839 355.701C29.2128 355.571 29.2031 355.434 29.156 355.307C29.1089 355.18 29.0263 355.068 28.9184 354.984C28.8104 354.9 28.6818 354.849 28.548 354.836L26.1922 354.528C25.9812 354.496 25.7677 354.513 25.5683 354.578C25.3689 354.642 25.1889 354.752 25.0423 354.9L12.8103 367.132C12.7129 367.222 12.6451 367.339 12.6154 367.47C12.5858 367.6 12.5955 367.738 12.6434 367.867C12.6913 367.995 12.7752 368.108 12.8849 368.192C12.9945 368.276 13.125 368.326 13.2602 368.338L15.6925 368.569C15.9032 368.599 16.1159 368.581 16.3144 368.516C16.5129 368.45 16.6919 368.34 16.8375 368.192Z" fill="#FEB452"/>
            </g>
            <g style="mix-blend-mode:multiply">
                <path d="M33.1851 356.935L40.3212 356.838L26.6457 370.514" stroke="#6D67CE" stroke-width="2.6986" stroke-linecap="round" stroke-linejoin="round"/>
            </g>
            <g style="mix-blend-mode:multiply">
                <path d="M37.9032 374.538L30.7671 374.635L44.4258 360.943" stroke="#6D67CE" stroke-width="2.6986" stroke-linecap="round" stroke-linejoin="round"/>
            </g>
        </g>
        <g clip-path="url(#clip14_429_18025)">
            <rect width="48" height="48" transform="translate(84 353)" fill="white"/>
            <path d="M84.3546 380.81C84.0634 380.513 83.903 380.112 83.9084 379.693C83.9139 379.273 84.0846 378.87 84.3836 378.572L92.9918 369.963C93.1549 369.8 93.3504 369.673 93.5653 369.591C93.7802 369.509 94.0094 369.473 94.2375 369.486L100.452 369.88C100.908 369.91 101.487 369.39 101.819 369.058L114.521 356.357C115.144 355.733 116.02 356.064 116.628 356.672L131.645 371.689C131.79 371.836 131.905 372.01 131.982 372.201C132.059 372.393 132.097 372.599 132.094 372.806C132.092 373.014 132.048 373.22 131.966 373.413C131.884 373.605 131.765 373.78 131.616 373.927L105.678 399.866C105.379 400.165 104.976 400.336 104.557 400.341C104.138 400.346 103.736 400.186 103.44 399.895L84.3546 380.81Z" fill="#FFE9CC"/>
            <g style="mix-blend-mode:multiply">
                <path d="M94.4603 373.742L113.314 354.888C113.461 354.747 113.577 354.58 113.648 354.405C113.719 354.23 113.742 354.056 113.715 353.904C113.687 353.752 113.609 353.629 113.492 353.548C113.374 353.468 113.221 353.435 113.052 353.453L110.09 353.668C109.826 353.682 109.546 353.76 109.272 353.895C108.998 354.03 108.737 354.219 108.509 354.447L89.5361 373.42C89.387 373.561 89.2689 373.731 89.1967 373.907C89.1244 374.084 89.101 374.259 89.1295 374.413C89.158 374.566 89.237 374.69 89.3568 374.77C89.4766 374.849 89.6319 374.881 89.8035 374.86L92.8841 374.526C93.1481 374.511 93.4276 374.432 93.7009 374.296C93.9741 374.16 94.234 373.971 94.4603 373.742Z" fill="#FEB452"/>
            </g>
            <g style="mix-blend-mode:multiply">
                <path d="M106.686 367.1L114.046 367.001L99.9427 381.103" stroke="#6D67CE" stroke-width="2.78293" stroke-linecap="round" stroke-linejoin="round"/>
            </g>
            <g style="mix-blend-mode:multiply">
                <path d="M111.552 385.254L104.193 385.353L118.279 371.233" stroke="#6D67CE" stroke-width="2.78293" stroke-linecap="round" stroke-linejoin="round"/>
            </g>
        </g>
        <rect width="48" height="48" transform="translate(168 353)" fill="white"/>
        <path d="M173.92 364.882C173.923 364.506 174.078 364.146 174.349 363.882C174.621 363.617 174.988 363.469 175.37 363.469L186.381 363.469C186.59 363.469 186.796 363.513 186.987 363.597C187.177 363.682 187.346 363.806 187.483 363.961L191.207 368.187C191.479 368.498 192.182 368.536 192.606 368.536L208.854 368.536C209.652 368.536 210 369.308 210 370.086L210 389.295C209.999 389.482 209.961 389.666 209.888 389.838C209.815 390.01 209.708 390.166 209.573 390.297C209.438 390.428 209.279 390.532 209.103 390.603C208.928 390.673 208.74 390.709 208.55 390.708L175.37 390.708C174.988 390.708 174.621 390.56 174.349 390.295C174.078 390.031 173.923 389.671 173.92 389.295L173.92 364.882Z" fill="#FFE9CC"/>
        <g style="mix-blend-mode:multiply">
            <path d="M193.314 366.825L209.349 366.825C209.472 366.829 209.592 366.795 209.697 366.729C209.801 366.663 209.885 366.566 209.938 366.451C209.991 366.336 210.01 366.208 209.995 366.081C209.979 365.955 209.928 365.836 209.848 365.739L208.497 363.982C208.379 363.822 208.227 363.693 208.053 363.604C207.879 363.515 207.687 363.469 207.493 363.469L191.357 363.469C191.234 363.464 191.112 363.497 191.006 363.564C190.9 363.63 190.816 363.728 190.762 363.844C190.709 363.96 190.69 364.09 190.707 364.218C190.724 364.345 190.777 364.465 190.859 364.561L192.311 366.318C192.43 366.477 192.582 366.605 192.756 366.693C192.93 366.781 193.121 366.826 193.314 366.825Z" fill="#FEB452"/>
        </g>
        <g style="mix-blend-mode:multiply">
            <path d="M196.972 370.397L201.742 375.041L183.702 375.041" stroke="#6D67CE" stroke-width="2.51723" stroke-linecap="round" stroke-linejoin="round"/>
        </g>
        <g style="mix-blend-mode:multiply">
            <path d="M188.473 385.12L183.702 380.477L201.742 380.455" stroke="#6D67CE" stroke-width="2.51723" stroke-linecap="round" stroke-linejoin="round"/>
        </g>
        <g clip-path="url(#clip15_429_18025)">
            <rect width="48" height="48" transform="translate(252 353)" fill="white"/>
            <g style="mix-blend-mode:multiply">
                <path d="M260.007 393.451L271.25 398.596L276.871 393.451L288.816 398.596" stroke="#6D67CE" stroke-width="4.11557" stroke-linecap="round" stroke-linejoin="round"/>
            </g>
            <path d="M285.606 354.779C286.41 353.976 287.713 353.976 288.517 354.779L297.247 363.51C298.051 364.313 298.051 365.616 297.247 366.42L272.511 391.156L260.87 379.516L285.606 354.779Z" fill="#FFE9CC"/>
            <g style="mix-blend-mode:multiply">
                <path d="M260.87 379.516L258.562 391.632C258.281 393.108 259.625 394.378 261.083 394.013L272.511 391.156L260.87 379.516Z" fill="#FEB452"/>
            </g>
            <g style="mix-blend-mode:multiply">
                <rect x="286.682" y="356.613" width="4.11557" height="31.8956" rx="2.05778" transform="rotate(45 286.682 356.613)" fill="#FEB452"/>
            </g>
            <g style="mix-blend-mode:multiply">
                <rect x="297.314" y="357.154" width="4.11557" height="36.5702" rx="2.05778" transform="rotate(45 297.314 357.154)" fill="#FEB452"/>
            </g>
        </g>
        <g clip-path="url(#clip16_429_18025)">
            <rect width="48" height="48" transform="translate(336 353)" fill="white"/>
            <g style="mix-blend-mode:multiply">
                <g style="mix-blend-mode:multiply">
                    <g style="mix-blend-mode:multiply">
                        <path d="M359.447 377.278C361.049 377.282 362.616 376.808 363.948 375.918C365.28 375.028 366.317 373.761 366.927 372.278C367.534 370.799 367.69 369.173 367.376 367.606C367.062 366.038 366.291 364.598 365.161 363.467C364.031 362.336 362.591 361.565 361.024 361.251C359.457 360.937 357.832 361.093 356.353 361.7C354.622 362.415 353.191 363.71 352.307 365.362C351.423 367.014 351.139 368.922 351.504 370.761C351.869 372.599 352.86 374.254 354.309 375.443C355.758 376.631 357.574 377.28 359.447 377.278Z" fill="#FEB452"/>
                    </g>
                </g>
                <g style="mix-blend-mode:multiply">
                    <g style="mix-blend-mode:multiply">
                        <path d="M372.997 394.903C373.011 395.227 372.963 395.551 372.855 395.854C372.748 396.156 372.583 396.431 372.372 396.661C371.927 397.142 371.336 397.431 370.709 397.473H347.364C346.728 397.441 346.124 397.156 345.668 396.673C345.458 396.44 345.293 396.163 345.184 395.859C345.074 395.555 345.023 395.23 345.032 394.903V393.479C345.032 385.892 350.444 381.287 357.307 381.287H360.811C367.629 381.287 373.086 385.892 373.086 393.479L372.997 394.903Z" fill="#FEB452"/>
                    </g>
                </g>
            </g>
            <g style="mix-blend-mode:multiply" opacity="0.3">
                <path d="M359.322 391.641C368.857 391.641 376.587 383.911 376.587 374.376C376.587 364.841 368.857 357.111 359.322 357.111C349.787 357.111 342.057 364.841 342.057 374.376C342.057 383.911 349.787 391.641 359.322 391.641Z" fill="#FFE9CC"/>
            </g>
            <g style="mix-blend-mode:multiply">
                <path d="M383.051 395.595L375.27 387.011C378.434 382.958 379.954 377.861 379.528 372.737C379.103 367.613 376.762 362.838 372.973 359.362C369.184 355.886 364.225 353.966 359.083 353.983C353.941 353.999 348.995 355.953 345.229 359.454C341.463 362.954 339.154 367.745 338.762 372.872C338.37 377.999 339.924 383.085 343.114 387.117C346.304 391.15 350.897 393.832 355.976 394.63C361.055 395.429 366.249 394.284 370.522 391.424L378.476 400.159C378.677 400.36 378.915 400.519 379.177 400.628C379.439 400.736 379.719 400.792 380.003 400.792C380.287 400.792 380.568 400.736 380.83 400.628C381.091 400.519 381.33 400.36 381.53 400.159L383.051 398.627C383.45 398.223 383.674 397.679 383.674 397.111C383.674 396.544 383.45 395.999 383.051 395.595ZM342.251 374.376C342.251 371.036 343.242 367.771 345.097 364.994C346.953 362.217 349.59 360.052 352.676 358.774C355.762 357.496 359.157 357.161 362.433 357.813C365.709 358.465 368.718 360.073 371.079 362.435C373.441 364.796 375.049 367.805 375.701 371.081C376.353 374.357 376.018 377.752 374.74 380.838C373.462 383.924 371.297 386.561 368.52 388.417C365.743 390.272 362.478 391.263 359.138 391.263C354.66 391.263 350.364 389.483 347.197 386.316C344.03 383.15 342.251 378.854 342.251 374.376Z" fill="#6D67CE"/>
            </g>
        </g>
        <g clip-path="url(#clip17_429_18025)">
            <rect width="48" height="48" transform="translate(420 353)" fill="white"/>
            <g style="mix-blend-mode:multiply">
                <path d="M427.044 394.515L434.988 398.586L438.96 394.515L447.4 398.586" stroke="#6D67CE" stroke-width="3.49914" stroke-linecap="round" stroke-linejoin="round"/>
            </g>
            <path d="M458.13 353.9C458.82 353.546 459.65 353.689 460.199 354.238L463.636 357.676C464.179 358.218 464.326 359.037 463.984 359.724C462.611 362.48 458.897 369.542 455.051 373.407C450.144 378.34 440.07 383.05 440.07 383.05L434.812 377.793C434.812 377.793 439.628 367.808 444.553 362.908C448.403 359.077 455.384 355.307 458.13 353.9Z" fill="#FFE9CC"/>
            <g style="mix-blend-mode:multiply">
                <path fill-rule="evenodd" clip-rule="evenodd" d="M426.758 389.92L427.486 382.11L436.866 378.199L439.723 381.057L436.17 390.793L428.884 391.921C428.425 391.992 427.988 391.89 427.63 391.668L431.414 387.569C431.656 387.699 431.934 387.773 432.229 387.773C433.18 387.773 433.951 387.002 433.951 386.051C433.951 385.099 433.18 384.328 432.229 384.328C431.277 384.328 430.506 385.099 430.506 386.051C430.506 386.395 430.607 386.715 430.781 386.984L427.021 391.057C426.821 390.732 426.719 390.339 426.758 389.92Z" fill="#FEB452"/>
            </g>
        </g>
    </g>
    <defs>
        <clipPath id="clip0_429_18025">
            <rect width="472" height="404" rx="12" fill="white"/>
        </clipPath>
        <clipPath id="clip1_429_18025">
            <rect width="48" height="48" fill="white" transform="translate(0 73)"/>
        </clipPath>
        <clipPath id="clip2_429_18025">
            <rect width="48" height="48" fill="white" transform="translate(84 73)"/>
        </clipPath>
        <clipPath id="clip3_429_18025">
            <rect width="48" height="48" fill="white" transform="translate(168 73)"/>
        </clipPath>
        <clipPath id="clip4_429_18025">
            <rect width="48" height="48" fill="white" transform="translate(252 73)"/>
        </clipPath>
        <clipPath id="clip5_429_18025">
            <rect width="48" height="48" fill="white" transform="translate(336 73)"/>
        </clipPath>
        <clipPath id="clip6_429_18025">
            <rect width="48" height="48" fill="white" transform="translate(420 73)"/>
        </clipPath>
        <clipPath id="clip7_429_18025">
            <rect width="48" height="48" fill="white" transform="translate(0 143)"/>
        </clipPath>
        <clipPath id="clip8_429_18025">
            <rect width="48" height="48" fill="white" transform="translate(84 143)"/>
        </clipPath>
        <clipPath id="clip9_429_18025">
            <rect width="48" height="48" fill="white" transform="translate(168 143)"/>
        </clipPath>
        <clipPath id="clip10_429_18025">
            <rect width="48" height="48" fill="white" transform="translate(420 213)"/>
        </clipPath>
        <clipPath id="clip11_429_18025">
            <rect width="48" height="48" fill="white" transform="translate(252 283)"/>
        </clipPath>
        <clipPath id="clip12_429_18025">
            <rect width="48" height="48" fill="white" transform="translate(336 283)"/>
        </clipPath>
        <clipPath id="clip13_429_18025">
            <rect width="48" height="48" fill="white" transform="translate(0 353)"/>
        </clipPath>
        <clipPath id="clip14_429_18025">
            <rect width="48" height="48" fill="white" transform="translate(84 353)"/>
        </clipPath>
        <clipPath id="clip15_429_18025">
            <rect width="48" height="48" fill="white" transform="translate(252 353)"/>
        </clipPath>
        <clipPath id="clip16_429_18025">
            <rect width="48" height="48" fill="white" transform="translate(336 353)"/>
        </clipPath>
        <clipPath id="clip17_429_18025">
            <rect width="48" height="48" fill="white" transform="translate(420 353)"/>
        </clipPath>
    </defs>
</svg>
