<svg viewBox="0 0 472 404" fill="none"
    xmlns="http://www.w3.org/2000/svg">
    <g clip-path="url(#clip0_429_18363)">
        <rect width="472" height="404" rx="12" fill="white"/>
        <path d="M5.032 18.136C2.686 18.136 0.731 16.555 0.442 14.396L2.499 13.767C2.686 15.195 3.791 16.164 5.117 16.164C6.358 16.164 7.174 15.569 7.174 14.668C7.174 12.101 0.867 13.546 0.867 9.228C0.867 7.324 2.652 5.964 4.998 5.964C7.259 5.964 9.044 7.171 9.418 8.973L7.344 9.823C7.106 8.667 6.239 7.936 4.998 7.936C3.859 7.936 3.162 8.429 3.162 9.228C3.162 11.387 9.52 9.789 9.52 14.617C9.52 16.725 7.718 18.136 5.032 18.136ZM11.0809 21.094V9.432H13.2229V10.418C13.6989 9.755 14.6339 9.296 15.7729 9.296C18.2379 9.296 19.7509 11.098 19.7509 13.716C19.7509 16.334 18.1359 18.136 15.6199 18.136C14.6339 18.136 13.7159 17.762 13.2229 17.15V21.094H11.0809ZM15.3649 16.283C16.7249 16.283 17.6259 15.263 17.6259 13.716C17.6259 12.169 16.7249 11.149 15.3649 11.149C13.9879 11.149 13.0869 12.169 13.0869 13.716C13.0869 15.263 13.9879 16.283 15.3649 16.283ZM29.4489 13.427C29.4489 13.733 29.4319 14.107 29.4149 14.277H23.0569C23.2439 15.569 24.0769 16.334 25.3009 16.334C26.3039 16.334 27.0179 15.858 27.2389 15.025L29.2449 15.569C28.7689 17.184 27.2729 18.136 25.2669 18.136C22.4279 18.136 20.9149 15.943 20.9149 13.716C20.9149 11.489 22.3089 9.296 25.1479 9.296C28.0379 9.296 29.4489 11.438 29.4489 13.427ZM23.1079 12.713H27.1539C27.0519 11.693 26.3889 10.928 25.1479 10.928C24.0939 10.928 23.3459 11.557 23.1079 12.713ZM34.9622 18.136C32.3952 18.136 30.6102 16.334 30.6102 13.716C30.6102 11.098 32.3952 9.296 34.9622 9.296C37.1552 9.296 38.7022 10.435 38.9912 12.254L36.9002 12.662C36.7472 11.761 36.0332 11.149 35.0302 11.149C33.7042 11.149 32.8372 12.152 32.8372 13.716C32.8372 15.28 33.7042 16.283 35.0302 16.283C36.0332 16.283 36.6962 15.739 36.9002 14.821L38.9912 15.246C38.6682 17.048 37.1212 18.136 34.9622 18.136ZM41.6695 8.123C40.9045 8.123 40.3435 7.545 40.3435 6.797C40.3435 6.066 40.9045 5.488 41.6695 5.488C42.4515 5.488 43.0295 6.066 43.0295 6.797C43.0295 7.545 42.4515 8.123 41.6695 8.123ZM40.5985 18V9.432H42.7405V18H40.5985ZM48.1133 9.296C50.3573 9.296 51.8873 10.503 51.8873 12.781V18H49.8133V16.759C49.3373 17.592 48.3003 18.136 47.2463 18.136C45.5633 18.136 44.3903 17.048 44.3903 15.586C44.3903 13.903 45.6653 13.002 48.2153 12.73L49.8133 12.577V12.492C49.8133 11.523 49.1503 10.928 48.1133 10.928C47.1783 10.928 46.5153 11.506 46.4133 12.424L44.5093 12.084C44.7813 10.384 46.2943 9.296 48.1133 9.296ZM47.7223 16.555C49.0483 16.555 49.8133 15.552 49.8133 14.294V14.107L48.1813 14.294C47.0423 14.43 46.4643 14.906 46.4643 15.518C46.4643 16.113 46.9403 16.555 47.7223 16.555ZM57.3964 18.085C55.4924 18.374 53.9794 17.626 53.9794 15.518V5.964H56.1214V15.246C56.1214 16.215 56.5634 16.266 57.2604 16.249L57.3964 18.085ZM64.0318 8.123C63.2668 8.123 62.7058 7.545 62.7058 6.797C62.7058 6.066 63.2668 5.488 64.0318 5.488C64.8138 5.488 65.3918 6.066 65.3918 6.797C65.3918 7.545 64.8138 8.123 64.0318 8.123ZM62.9608 18V9.432H65.1028V18H62.9608ZM71.0706 18.136C68.5036 18.136 66.7186 16.334 66.7186 13.716C66.7186 11.098 68.5036 9.296 71.0706 9.296C73.2636 9.296 74.8106 10.435 75.0996 12.254L73.0086 12.662C72.8556 11.761 72.1416 11.149 71.1386 11.149C69.8126 11.149 68.9456 12.152 68.9456 13.716C68.9456 15.28 69.8126 16.283 71.1386 16.283C72.1416 16.283 72.8046 15.739 73.0086 14.821L75.0996 15.246C74.7766 17.048 73.2296 18.136 71.0706 18.136ZM80.7189 18.136C78.1179 18.136 76.2479 16.266 76.2479 13.716C76.2479 11.166 78.1179 9.296 80.7189 9.296C83.3199 9.296 85.1899 11.166 85.1899 13.716C85.1899 16.266 83.3199 18.136 80.7189 18.136ZM80.7189 16.283C82.0959 16.283 83.0309 15.246 83.0309 13.716C83.0309 12.186 82.0959 11.149 80.7189 11.149C79.3249 11.149 78.4069 12.186 78.4069 13.716C78.4069 15.246 79.3249 16.283 80.7189 16.283ZM86.8007 18V9.432H88.9427V10.724C89.4867 9.891 90.4557 9.296 91.6627 9.296C93.5327 9.296 94.7907 10.52 94.7907 12.39V18H92.6487V12.9C92.6487 11.897 92.0197 11.2 91.0167 11.2C89.7077 11.2 88.9427 12.322 88.9427 14.243V18H86.8007ZM99.8532 18.136C97.7792 18.136 96.5382 16.861 96.1132 15.603L97.8642 14.889C98.1192 15.756 98.7822 16.47 99.8532 16.47C100.652 16.47 101.179 16.045 101.179 15.501C101.179 13.886 96.5042 14.94 96.5042 11.693C96.5042 10.35 97.6772 9.296 99.5472 9.296C101.213 9.296 102.624 10.146 102.998 11.387L101.264 12.118C101.026 11.302 100.278 10.877 99.5812 10.877C98.9012 10.877 98.4422 11.166 98.4422 11.659C98.4422 13.172 103.151 11.965 103.151 15.467C103.151 16.946 101.825 18.136 99.8532 18.136ZM109.529 18V11.234H108.152V9.432H109.529V8.769C109.529 6.763 110.821 5.675 112.555 5.675C112.997 5.675 113.439 5.743 113.847 5.862L113.694 7.63C113.405 7.511 113.116 7.46 112.844 7.46C112.13 7.46 111.671 7.97 111.671 8.769V9.432H113.711V11.234H111.671V18H109.529ZM118.77 18.136C116.169 18.136 114.299 16.266 114.299 13.716C114.299 11.166 116.169 9.296 118.77 9.296C121.371 9.296 123.241 11.166 123.241 13.716C123.241 16.266 121.371 18.136 118.77 18.136ZM118.77 16.283C120.147 16.283 121.082 15.246 121.082 13.716C121.082 12.186 120.147 11.149 118.77 11.149C117.376 11.149 116.458 12.186 116.458 13.716C116.458 15.246 117.376 16.283 118.77 16.283ZM130.376 11.506C130.07 11.37 129.662 11.302 129.288 11.302C128.081 11.302 126.993 12.305 126.993 14.855V18H124.851V9.432H126.993V10.996C127.418 10.027 128.54 9.296 129.577 9.296C129.883 9.296 130.257 9.347 130.512 9.432L130.376 11.506ZM135.842 21.094V9.432H137.984V10.418C138.46 9.755 139.395 9.296 140.534 9.296C142.999 9.296 144.512 11.098 144.512 13.716C144.512 16.334 142.897 18.136 140.381 18.136C139.395 18.136 138.477 17.762 137.984 17.15V21.094H135.842ZM140.126 16.283C141.486 16.283 142.387 15.263 142.387 13.716C142.387 12.169 141.486 11.149 140.126 11.149C138.749 11.149 137.848 12.169 137.848 13.716C137.848 15.263 138.749 16.283 140.126 16.283ZM151.66 11.506C151.354 11.37 150.946 11.302 150.572 11.302C149.365 11.302 148.277 12.305 148.277 14.855V18H146.135V9.432H148.277V10.996C148.702 10.027 149.824 9.296 150.861 9.296C151.167 9.296 151.541 9.347 151.796 9.432L151.66 11.506ZM156.754 18.136C154.153 18.136 152.283 16.266 152.283 13.716C152.283 11.166 154.153 9.296 156.754 9.296C159.355 9.296 161.225 11.166 161.225 13.716C161.225 16.266 159.355 18.136 156.754 18.136ZM156.754 16.283C158.131 16.283 159.066 15.246 159.066 13.716C159.066 12.186 158.131 11.149 156.754 11.149C155.36 11.149 154.442 12.186 154.442 13.716C154.442 15.246 155.36 16.283 156.754 16.283ZM166.457 18.136C163.89 18.136 162.377 16.334 162.377 13.716C162.377 11.098 163.89 9.296 166.423 9.296C167.494 9.296 168.412 9.738 168.905 10.384V5.964H171.047V18H168.905V17.014C168.48 17.694 167.528 18.136 166.457 18.136ZM166.763 16.283C168.14 16.283 169.041 15.263 169.041 13.716C169.041 12.169 168.14 11.149 166.763 11.149C165.403 11.149 164.502 12.169 164.502 13.716C164.502 15.263 165.403 16.283 166.763 16.283ZM181.119 9.432V18H178.977V16.708C178.433 17.541 177.464 18.136 176.257 18.136C174.404 18.136 173.129 16.912 173.129 15.042V9.432H175.271V14.532C175.271 15.535 175.9 16.232 176.903 16.232C178.229 16.232 178.977 15.11 178.977 13.189V9.432H181.119ZM187.099 18.136C184.532 18.136 182.747 16.334 182.747 13.716C182.747 11.098 184.532 9.296 187.099 9.296C189.292 9.296 190.839 10.435 191.128 12.254L189.037 12.662C188.884 11.761 188.17 11.149 187.167 11.149C185.841 11.149 184.974 12.152 184.974 13.716C184.974 15.28 185.841 16.283 187.167 16.283C188.17 16.283 188.833 15.739 189.037 14.821L191.128 15.246C190.805 17.048 189.258 18.136 187.099 18.136ZM197.669 17.915C197.244 18.068 196.785 18.136 196.292 18.136C194.558 18.136 193.266 17.201 193.266 15.195V11.234H191.821V9.432H193.266V6.916H195.408V9.432H197.567V11.234H195.408V14.991C195.408 15.807 195.85 16.249 196.513 16.249C196.836 16.249 197.21 16.198 197.516 16.045L197.669 17.915ZM202.451 18.136C200.377 18.136 199.136 16.861 198.711 15.603L200.462 14.889C200.717 15.756 201.38 16.47 202.451 16.47C203.25 16.47 203.777 16.045 203.777 15.501C203.777 13.886 199.102 14.94 199.102 11.693C199.102 10.35 200.275 9.296 202.145 9.296C203.811 9.296 205.222 10.146 205.596 11.387L203.862 12.118C203.624 11.302 202.876 10.877 202.179 10.877C201.499 10.877 201.04 11.166 201.04 11.659C201.04 13.172 205.749 11.965 205.749 15.467C205.749 16.946 204.423 18.136 202.451 18.136Z" fill="#20014B"/>
        <g clip-path="url(#clip1_429_18363)">
            <path d="M2.70563 107.203C2.41397 106.913 2.25 106.519 2.25 106.107L2.25 87.8943C2.25 87.482 2.41469 87.0867 2.70748 86.7963L15.8416 73.7698C16.4463 73.1701 17.4221 73.1721 18.0243 73.7743L39.6734 95.4235C40.4433 96.1933 40.1978 97.4966 39.2006 97.9335L33.457 100.45C33.105 100.605 32.823 100.885 32.666 101.235L29.3442 108.66C29.19 109.004 28.9151 109.28 28.5713 109.436L21.0498 112.848C20.6996 113.007 20.4212 113.29 20.2687 113.643L17.8357 119.278C17.4033 120.28 16.0981 120.531 15.3249 119.762L2.70563 107.203Z" fill="#36A168" fill-opacity="0.25"/>
            <g style="mix-blend-mode:multiply">
                <path d="M2.20211 97.6533L2.20211 87.9991L11.2021 96.9991L2.20212 105.903L2.20211 97.6533Z" fill="#36A168"/>
            </g>
            <g style="mix-blend-mode:multiply">
                <rect x="32.8906" y="74.2051" width="3.17544" height="20.64" rx="1.58772" transform="rotate(45 32.8906 74.2051)" fill="#1275E5"/>
            </g>
            <g style="mix-blend-mode:multiply">
                <rect x="32.5378" y="83.8301" width="3.17544" height="13.8602" rx="1.58772" transform="rotate(45 32.5378 83.8301)" fill="#1275E5"/>
            </g>
        </g>
        <path d="M1.78031 145H3.60031V139.12H7.10031C9.82031 139.12 11.5803 137.52 11.5803 135.06C11.5803 132.6 9.82031 131 7.10031 131H1.78031V145ZM3.60031 137.48V132.62H7.04031C8.70031 132.62 9.70031 133.54 9.70031 135.06C9.70031 136.58 8.70031 137.48 7.04031 137.48H3.60031ZM16.7298 134.76C14.6098 134.76 12.9498 136.06 12.6498 138.06L14.2298 138.36C14.3698 137 15.3498 136.18 16.7298 136.18C18.2098 136.18 19.1898 137.06 19.1898 138.44V138.64L17.2298 138.86C14.0098 139.18 12.4298 140.24 12.4298 142.18C12.4298 143.92 13.8098 145.16 15.8298 145.16C17.2898 145.16 18.6098 144.44 19.1898 143.28V145H20.8698V138.54C20.8698 136.2 19.1698 134.76 16.7298 134.76ZM16.0898 143.76C14.9298 143.76 14.1298 143.1 14.1298 142.16C14.1298 141.1 15.1898 140.4 17.2298 140.18L19.1898 139.96V140.44C19.1898 142.46 18.0498 143.76 16.0898 143.76ZM29.9419 134.92L26.9819 142.64L24.0219 134.92H22.1819L26.1219 144.86L24.6619 148.64H26.4019L31.6819 134.92H29.9419ZM33.3214 145H35.0214V139.94C35.0214 137.8 35.9614 136.26 37.6814 136.26C39.0814 136.26 39.8614 137.2 39.8614 138.58V145H41.5614V139.94C41.5614 137.8 42.5014 136.26 44.2214 136.26C45.6414 136.26 46.4214 137.2 46.4214 138.58V145H48.1214V138.24C48.1214 136.12 46.7614 134.76 44.6014 134.76C43.0814 134.76 41.8814 135.68 41.3414 136.88C40.9814 135.52 39.7014 134.76 38.0614 134.76C36.5214 134.76 35.5214 135.62 35.0214 136.82V134.92H33.3214V145ZM60 139.5C60 136.9 58.16 134.76 55.18 134.76C52.14 134.76 50.3 137.1 50.3 139.96C50.3 142.82 52.2 145.16 55.22 145.16C57.54 145.16 59.22 144.02 59.72 142.06L58.12 141.68C57.82 142.94 56.76 143.66 55.22 143.66C53.4 143.66 52.12 142.32 52 140.28H59.96C59.98 140.1 60 139.74 60 139.5ZM52.1 138.86C52.44 137.18 53.6 136.18 55.18 136.18C56.96 136.18 58.04 137.32 58.2 138.86H52.1ZM62.1886 145H63.8886V140.58C63.8886 137.92 65.0886 136.3 66.9686 136.3C68.3886 136.3 69.2486 137.28 69.2486 138.64V145H70.9486V138.32C70.9486 136.18 69.4486 134.76 67.3486 134.76C65.8086 134.76 64.5886 135.62 63.8886 136.82V134.92H62.1886V145ZM78.7009 144.92L78.5809 143.36C78.1809 143.56 77.7209 143.62 77.3209 143.62C76.4409 143.62 75.8409 143.1 75.8409 142.04V136.42H78.5409V134.92H75.8409V131.86H74.1409V134.92H72.2609V136.42H74.1409V141.98C74.1409 144.2 75.4009 145.16 77.1209 145.16C77.6609 145.16 78.2009 145.1 78.7009 144.92ZM84.2014 145.16C86.4214 145.16 87.9014 143.92 87.9014 142.16C87.9214 138 82.0814 139.58 82.0814 137.42C82.0814 136.62 82.8014 136.16 83.9414 136.16C85.0214 136.16 86.0214 136.82 86.3014 137.86L87.7214 137.24C87.3014 135.76 85.7614 134.76 83.9814 134.76C81.8214 134.76 80.4414 135.84 80.4414 137.44C80.4414 141.26 86.2414 139.6 86.2414 142.18C86.2414 143 85.4414 143.72 84.2014 143.72C82.6414 143.72 81.8414 142.76 81.4614 141.58L80.0014 142.22C80.4414 143.64 81.7614 145.16 84.2014 145.16Z" fill="black"/>
        <rect width="48" height="48" transform="translate(1.5 197)" fill="white"/>
        <rect x="18.75" y="200" width="24" height="42" rx="1.5" fill="#CDE7D9"/>
        <rect x="28.5" y="236.75" width="5.25" height="2.25" rx="1.125" fill="#36A168"/>
        <g style="mix-blend-mode:multiply">
            <path fill-rule="evenodd" clip-rule="evenodd" d="M11.5359 207.503H24C24.8284 207.503 25.5 208.175 25.5 209.003V232.703C25.5 232.74 25.4891 232.776 25.4686 232.807C25.448 232.839 25.4187 232.864 25.3837 232.881C25.3488 232.897 25.3097 232.904 25.2707 232.901C25.2318 232.898 25.1947 232.884 25.1634 232.862L22.8788 231.212C22.8056 231.16 22.7162 231.131 22.6243 231.131C22.5324 231.131 22.443 231.16 22.3698 231.212L20.0052 232.922C19.932 232.974 19.8426 233.003 19.7507 233.003C19.6588 233.003 19.5694 232.974 19.4962 232.922L17.1316 231.212C17.0581 231.159 16.9678 231.13 16.875 231.13C16.7822 231.13 16.6919 231.159 16.6184 231.212L14.2538 232.922C14.1806 232.974 14.0912 233.003 13.9993 233.003C13.9074 233.003 13.818 232.974 13.7448 232.922L11.3802 231.212C11.307 231.16 11.2176 231.131 11.1257 231.131C11.0338 231.131 10.9444 231.16 10.8712 231.212L8.58658 232.862C8.55533 232.884 8.51817 232.898 8.47926 232.901C8.44035 232.904 8.40123 232.897 8.36629 232.881C8.33134 232.864 8.30195 232.839 8.28142 232.807C8.26088 232.776 8.25 232.74 8.25 232.703V210.563C8.25336 210.21 8.25382 209.593 8.25326 209.004C8.25247 208.175 8.92217 207.501 9.75109 207.5C10.4179 207.5 11.1402 207.5 11.5359 207.503Z" fill="#1275E5"/>
        </g>
        <rect x="4.5" y="215.75" width="13.5" height="2.25" rx="1.125" fill="#CCE4FF"/>
        <rect x="4.5" y="220.25" width="9.75" height="2.25" rx="1.125" fill="#CCE4FF"/>
        <path d="M15.0065 269.12C12.3665 269.12 9.9065 267.365 9.9065 263.75C9.9065 260.135 12.3815 258.38 15.0065 258.38C17.3015 258.38 18.9965 259.67 19.4315 261.695L18.0815 261.995C17.7515 260.48 16.6265 259.595 14.9915 259.595C12.8615 259.595 11.3165 261.065 11.3165 263.75C11.3165 266.435 12.8615 267.89 14.9915 267.89C16.6265 267.89 17.6915 267.05 18.0665 265.595L19.4315 265.88C18.9065 267.86 17.2715 269.12 15.0065 269.12ZM25.7895 269.12C22.7895 269.12 20.6145 266.87 20.6145 263.75C20.6145 260.63 22.7895 258.38 25.7895 258.38C28.7745 258.38 30.9495 260.63 30.9495 263.75C30.9495 266.87 28.7745 269.12 25.7895 269.12ZM25.7745 267.89C27.9795 267.89 29.5545 266.15 29.5545 263.75C29.5545 261.35 27.9795 259.595 25.7745 259.595C23.5995 259.595 22.0095 261.35 22.0095 263.75C22.0095 266.15 23.5995 267.89 25.7745 267.89ZM36.6418 269.12C34.2568 269.12 32.6668 267.71 32.6668 265.37V258.5H34.0018V265.445C34.0018 266.975 35.0518 267.89 36.6418 267.89C38.2468 267.89 39.3118 266.975 39.3118 265.445V258.5H40.6318V265.37C40.6318 267.71 39.0418 269.12 36.6418 269.12Z" fill="#53585C"/>
        <g style="mix-blend-mode:multiply">
            <path fill-rule="evenodd" clip-rule="evenodd" d="M123.143 205.872V213.463H142.783C142.953 213.463 143.116 213.395 143.236 213.275C143.356 213.155 143.423 212.993 143.423 212.823V205.872C143.437 205.213 143.32 204.557 143.081 203.943C142.841 203.329 142.483 202.768 142.026 202.293C141.569 201.817 141.024 201.436 140.42 201.172C139.816 200.907 139.166 200.764 138.507 200.751H118.227C118.886 200.764 119.536 200.907 120.14 201.172C120.743 201.436 121.289 201.817 121.746 202.293C122.202 202.768 122.561 203.329 122.8 203.943C123.04 204.557 123.157 205.213 123.143 205.872Z" fill="#36A168"/>
        </g>
        <path fill-rule="evenodd" clip-rule="evenodd" d="M133.822 205.872V209.713H113.978C113.808 209.713 113.646 209.645 113.525 209.525C113.405 209.405 113.338 209.243 113.338 209.073V205.872C113.324 205.213 113.441 204.557 113.681 203.943C113.92 203.329 114.279 202.768 114.735 202.293C115.192 201.817 115.738 201.436 116.341 201.172C116.945 200.907 117.595 200.764 118.254 200.751H138.738C138.079 200.764 137.429 200.907 136.825 201.172C136.222 201.436 135.676 201.817 135.219 202.293C134.763 202.768 134.404 203.329 134.165 203.943C133.925 204.557 133.808 205.213 133.822 205.872Z" fill="#CDE7D9"/>
        <path fill-rule="evenodd" clip-rule="evenodd" d="M112.574 200.751H133.821V241.236C133.821 241.296 133.804 241.354 133.773 241.404C133.742 241.455 133.697 241.496 133.644 241.523C133.591 241.549 133.531 241.56 133.472 241.555C133.413 241.55 133.356 241.528 133.309 241.492L129.833 238.842C129.721 238.757 129.585 238.712 129.445 238.712C129.305 238.712 129.169 238.757 129.058 238.842L125.46 241.588C125.349 241.673 125.213 241.719 125.073 241.719C124.933 241.719 124.797 241.673 124.686 241.588L121.088 238.842C120.976 238.756 120.839 238.709 120.698 238.709C120.556 238.709 120.419 238.756 120.307 238.842L116.709 241.588C116.598 241.673 116.462 241.719 116.322 241.719C116.182 241.719 116.046 241.673 115.935 241.588L112.337 238.842C112.226 238.757 112.09 238.712 111.95 238.712C111.81 238.712 111.674 238.757 111.562 238.842L108.086 241.492C108.039 241.528 107.982 241.55 107.923 241.555C107.864 241.56 107.804 241.549 107.751 241.523C107.698 241.496 107.653 241.455 107.622 241.404C107.591 241.354 107.574 241.296 107.574 241.236V205.667C107.586 204.353 108.119 203.096 109.057 202.175C109.994 201.253 111.259 200.741 112.574 200.751Z" fill="#CDE7D9"/>
        <g style="mix-blend-mode:multiply">
            <path d="M118.75 211.25L102.25 211.25C101.422 211.25 100.75 211.922 100.75 212.75L100.75 226.25C100.75 227.078 101.422 227.75 102.25 227.75L118.75 227.75L118.75 211.25Z" fill="#1275E5"/>
        </g>
        <rect x="118.75" y="230.75" width="22.5" height="1.5" rx="0.750001" transform="rotate(-90 118.75 230.75)" fill="#1275E5"/>
        <path d="M111.505 214.25H103.75V215.465H106.195C107.335 215.465 108.055 216.02 108.25 216.935H103.75V218H108.25C108.055 218.915 107.32 219.455 106.195 219.455H103.75V220.67H106.345L108.52 224.75H110.095L107.755 220.475C108.805 220.1 109.51 219.185 109.675 218H111.505V216.935H109.675C109.585 216.29 109.33 215.75 108.88 215.315H111.505V214.25Z" fill="#CCE4FF"/>
        <path d="M108.141 269V258.5H111.951C113.931 258.5 115.161 259.49 115.161 261.2C115.161 262.175 114.486 262.955 113.781 263.255C114.846 263.63 115.626 264.47 115.626 265.94C115.626 267.83 114.336 269 112.176 269H108.141ZM109.506 262.82H111.891C113.136 262.82 113.811 262.295 113.811 261.245C113.811 260.195 113.136 259.67 111.891 259.67H109.506V262.82ZM109.506 267.77H111.951C113.481 267.77 114.261 267.125 114.261 265.91C114.261 264.68 113.481 264.02 111.951 264.02H109.506V267.77ZM122.035 269.12C119.035 269.12 116.86 266.87 116.86 263.75C116.86 260.63 119.035 258.38 122.035 258.38C125.02 258.38 127.195 260.63 127.195 263.75C127.195 266.87 125.02 269.12 122.035 269.12ZM122.02 267.89C124.225 267.89 125.8 266.15 125.8 263.75C125.8 261.35 124.225 259.595 122.02 259.595C119.845 259.595 118.255 261.35 118.255 263.75C118.255 266.15 119.845 267.89 122.02 267.89ZM132.887 269.12C130.502 269.12 128.912 267.71 128.912 265.37V258.5H130.247V265.445C130.247 266.975 131.297 267.89 132.887 267.89C134.492 267.89 135.557 266.975 135.557 265.445V258.5H136.877V265.37C136.877 267.71 135.287 269.12 132.887 269.12Z" fill="#53585C"/>
        <rect width="48" height="48" transform="translate(1.5 298)" fill="white"/>
        <path fill-rule="evenodd" clip-rule="evenodd" d="M26.143 306.871V314.462H45.7831C45.9528 314.462 46.1156 314.395 46.2357 314.275C46.3558 314.155 46.4232 313.992 46.4232 313.822V306.871C46.4368 306.212 46.3204 305.557 46.0807 304.943C45.8409 304.329 45.4825 303.768 45.0259 303.292C44.5694 302.817 44.0236 302.436 43.4197 302.171C42.8159 301.906 42.1659 301.763 41.5068 301.75H21.2266C21.8857 301.763 22.5358 301.906 23.1396 302.171C23.7434 302.436 24.2892 302.817 24.7457 303.292C25.2023 303.768 25.5607 304.329 25.8004 304.943C26.0401 305.557 26.1565 306.212 26.143 306.871Z" fill="#36A168"/>
        <path fill-rule="evenodd" clip-rule="evenodd" d="M36.822 306.871V310.712H16.9781C16.8084 310.712 16.6456 310.645 16.5255 310.525C16.4054 310.405 16.338 310.242 16.338 310.072V306.871C16.3244 306.212 16.4408 305.557 16.6805 304.943C16.9203 304.329 17.2786 303.768 17.7352 303.292C18.1918 302.817 18.7375 302.436 19.3414 302.171C19.9453 301.906 20.5953 301.763 21.2544 301.75H41.7384C41.0793 301.763 40.4293 301.906 39.8254 302.171C39.2215 302.436 38.6758 302.817 38.2192 303.292C37.7626 303.768 37.4043 304.329 37.1645 304.943C36.9248 305.557 36.8084 306.212 36.822 306.871Z" fill="#D7ECE1"/>
        <path fill-rule="evenodd" clip-rule="evenodd" d="M15.5738 301.75H36.8207V342.235C36.8207 342.295 36.8041 342.353 36.7728 342.404C36.7416 342.454 36.6969 342.495 36.6438 342.522C36.5906 342.548 36.531 342.56 36.4719 342.554C36.4126 342.549 36.3561 342.527 36.3085 342.492L32.8325 339.841C32.7211 339.757 32.5851 339.711 32.4452 339.711C32.3053 339.711 32.1693 339.757 32.0579 339.841L28.4602 342.588C28.3488 342.672 28.2128 342.718 28.0729 342.718C27.933 342.718 27.797 342.672 27.6856 342.588L24.0879 339.841C23.976 339.755 23.8387 339.708 23.6974 339.708C23.5562 339.708 23.4189 339.755 23.307 339.841L19.7092 342.588C19.5978 342.672 19.4619 342.718 19.3219 342.718C19.182 342.718 19.0461 342.672 18.9347 342.588L15.3369 339.841C15.2256 339.757 15.0896 339.711 14.9496 339.711C14.8098 339.711 14.6738 339.757 14.5623 339.841L11.0863 342.492C11.0388 342.527 10.9822 342.549 10.923 342.554C10.8638 342.56 10.8043 342.548 10.7511 342.522C10.698 342.495 10.6533 342.454 10.622 342.404C10.5907 342.353 10.5742 342.295 10.5742 342.235V306.667C10.586 305.352 11.1192 304.096 12.0567 303.174C12.9941 302.252 14.2591 301.74 15.5738 301.75Z" fill="#D7ECE1"/>
        <path d="M6.636 323.393C6.67026 323.093 6.63833 322.789 6.54267 322.505C6.447 322.22 6.29012 321.962 6.084 321.75C5.61698 321.426 5.0594 321.275 4.5 321.319V319.682C5.06729 319.725 5.63078 319.557 6.09 319.208C6.28713 319.011 6.43716 318.77 6.528 318.502C6.6238 318.237 6.66073 317.953 6.636 317.671V315.635C6.59323 314.941 6.80802 314.257 7.236 313.724C7.46745 313.476 7.74798 313.284 8.058 313.162C8.36692 313.035 8.69889 312.982 9.03 313.005H11.25V314.773H10.098C9.84856 314.766 9.59908 314.787 9.354 314.835C9.17539 314.869 9.0092 314.953 8.874 315.079C8.74167 315.21 8.65153 315.38 8.616 315.566C8.56108 315.841 8.53892 316.123 8.55 316.403V318.277C8.57458 318.565 8.5377 318.855 8.442 319.127C8.34687 319.396 8.19753 319.641 8.004 319.845C7.60178 320.202 7.09771 320.41 6.57 320.438V320.594C7.1026 320.617 7.60947 320.839 7.998 321.219C8.18537 321.432 8.332 321.68 8.43 321.95C8.52048 322.223 8.56118 322.511 8.55 322.799V324.636C8.54229 324.909 8.57055 325.182 8.634 325.448C8.66513 325.634 8.75356 325.805 8.886 325.935C9.02192 326.063 9.19076 326.148 9.372 326.178C9.61949 326.224 9.87065 326.245 10.122 326.241H11.25V327.996H9.03C8.71383 328.015 8.3973 327.966 8.1 327.852C7.79178 327.753 7.50608 327.589 7.26 327.371C7.03333 327.109 6.86167 326.801 6.756 326.466C6.64737 326.128 6.60653 325.771 6.636 325.416V323.393Z" fill="white"/>
        <g style="mix-blend-mode:multiply">
            <path d="M6.636 323.393C6.67026 323.093 6.63833 322.789 6.54267 322.505C6.447 322.22 6.29012 321.962 6.084 321.75C5.61698 321.426 5.0594 321.275 4.5 321.319V319.682C5.06729 319.725 5.63078 319.557 6.09 319.208C6.28713 319.011 6.43716 318.77 6.528 318.502C6.6238 318.237 6.66073 317.953 6.636 317.671V315.635C6.59323 314.941 6.80802 314.257 7.236 313.724C7.46745 313.476 7.74798 313.284 8.058 313.162C8.36692 313.035 8.69889 312.982 9.03 313.005H11.25V314.773H10.098C9.84856 314.766 9.59908 314.787 9.354 314.835C9.17539 314.869 9.0092 314.953 8.874 315.079C8.74167 315.21 8.65153 315.38 8.616 315.566C8.56108 315.841 8.53892 316.123 8.55 316.403V318.277C8.57458 318.565 8.5377 318.855 8.442 319.127C8.34687 319.396 8.19753 319.641 8.004 319.845C7.60178 320.202 7.09771 320.41 6.57 320.438V320.594C7.1026 320.617 7.60947 320.839 7.998 321.219C8.18537 321.432 8.332 321.68 8.43 321.95C8.52048 322.223 8.56118 322.511 8.55 322.799V324.636C8.54229 324.909 8.57055 325.182 8.634 325.448C8.66513 325.634 8.75356 325.805 8.886 325.935C9.02192 326.063 9.19076 326.148 9.372 326.178C9.61949 326.224 9.87065 326.245 10.122 326.241H11.25V327.996H9.03C8.71383 328.015 8.3973 327.966 8.1 327.852C7.79178 327.753 7.50608 327.589 7.26 327.371C7.03333 327.109 6.86167 326.801 6.756 326.466C6.64737 326.128 6.60653 325.771 6.636 325.416V323.393Z" fill="#1482FF"/>
        </g>
        <g style="mix-blend-mode:multiply">
            <path d="M27.882 325.383C27.9066 325.734 27.8637 326.086 27.756 326.42C27.5996 326.908 27.291 327.328 26.879 327.613C26.467 327.899 25.9753 328.032 25.482 327.993H23.25V326.213H24.402C24.6533 326.218 24.9045 326.197 25.152 326.151C25.3332 326.12 25.5021 326.036 25.638 325.907C25.7703 325.777 25.8605 325.607 25.896 325.42C25.9497 325.154 25.9679 324.88 25.95 324.608V322.772C25.9334 322.479 25.9742 322.186 26.07 321.91C26.1642 321.637 26.3112 321.386 26.502 321.173C26.899 320.78 27.424 320.557 27.972 320.549V320.393C27.4428 320.355 26.9406 320.135 26.544 319.768C26.3454 319.569 26.1899 319.329 26.088 319.062C25.9828 318.795 25.9356 318.507 25.95 318.219V316.346C25.9564 316.072 25.9261 315.799 25.86 315.534C25.8182 315.347 25.7267 315.176 25.596 315.04C25.4616 314.917 25.298 314.833 25.122 314.797C24.8802 314.754 24.6353 314.733 24.39 314.734H23.25V313.004H25.482C25.8125 312.984 26.1434 313.035 26.454 313.154C26.7645 313.28 27.0465 313.471 27.282 313.716C27.7031 314.254 27.917 314.935 27.882 315.627V317.688C27.8588 317.972 27.8935 318.257 27.984 318.525C28.0743 318.799 28.2242 319.047 28.422 319.25C28.8804 319.59 29.4389 319.751 30 319.706V321.317C29.4386 321.279 28.881 321.437 28.416 321.767C28.2113 321.975 28.0552 322.229 27.96 322.51C27.8655 322.792 27.8327 323.093 27.864 323.391L27.882 325.383Z" fill="#1482FF"/>
        </g>
        <path d="M19.6822 313L23.25 320.126L15.75 327.25L19.6822 313Z" fill="#36A168"/>
        <path d="M16.6863 313L20.25 320.126L12.75 327.25L16.6863 313Z" fill="#F05656"/>
        <path d="M19.32 370.12C16.935 370.12 15.345 368.71 15.345 366.37V359.5H16.68V366.445C16.68 367.975 17.73 368.89 19.32 368.89C20.925 368.89 21.99 367.975 21.99 366.445V359.5H23.31V366.37C23.31 368.71 21.72 370.12 19.32 370.12ZM25.4817 370V359.5H29.4717C31.5117 359.5 32.8317 360.7 32.8317 362.545C32.8317 364.39 31.5117 365.59 29.4717 365.59H26.8467V370H25.4817ZM26.8467 364.36H29.4267C30.6717 364.36 31.4217 363.685 31.4217 362.545C31.4217 361.405 30.6717 360.715 29.4267 360.715H26.8467V364.36ZM34.3001 370V359.5H35.6651V370H34.3001Z" fill="#53585C"/>
        <g clip-path="url(#clip2_429_18363)">
            <rect x="248" y="98.4004" width="33.6589" height="28.3038" rx="1.61736" transform="rotate(-45 248 98.4004)" fill="#FFE9CC"/>
            <g style="mix-blend-mode:multiply">
                <g style="mix-blend-mode:multiply">
                    <path d="M267.558 102.658C268.409 101.811 268.989 100.729 269.223 99.5515C269.457 98.3737 269.335 97.1528 268.872 96.0443C268.41 94.9386 267.632 93.9942 266.634 93.3299C265.637 92.6655 264.465 92.3109 263.267 92.3107C262.069 92.3104 260.898 92.6645 259.901 93.3284C258.903 93.9924 258.125 94.9364 257.663 96.0419C257.125 97.3386 257.052 98.7822 257.459 100.127C257.866 101.471 258.727 102.633 259.895 103.413C261.063 104.194 262.465 104.546 263.862 104.408C265.26 104.27 266.566 103.651 267.558 102.658Z" fill="#FEB452"/>
                </g>
            </g>
            <g style="mix-blend-mode:multiply">
                <g style="mix-blend-mode:multiply">
                    <path d="M284.079 104.819C284.258 104.983 284.404 105.18 284.507 105.397C284.611 105.615 284.669 105.847 284.679 106.081C284.698 106.572 284.538 107.038 284.228 107.392L271.857 119.764C271.502 120.084 271.032 120.253 270.534 120.239C270.299 120.227 270.065 120.167 269.846 120.064C269.627 119.961 269.427 119.816 269.259 119.638L268.504 118.883C264.484 114.863 264.911 109.554 268.548 105.917L270.405 104.06C274.018 100.447 279.351 99.996 283.371 104.016L284.079 104.819Z" fill="#FEB452"/>
                </g>
            </g>
            <g style="mix-blend-mode:multiply">
                <rect x="281.412" y="73" width="3.17544" height="19.6751" rx="1.58772" transform="rotate(45 281.412 73)" fill="#6D67CE"/>
            </g>
            <g style="mix-blend-mode:multiply">
                <rect x="281.436" y="82.998" width="3.17544" height="12.3672" rx="1.58772" transform="rotate(45 281.436 82.998)" fill="#6D67CE"/>
            </g>
        </g>
        <path d="M249.513 144V130H253.673C257.593 130 260.693 132.5 260.693 137C260.693 141.5 257.593 144 253.673 144H249.513ZM251.313 142.36H253.613C256.313 142.36 258.813 140.82 258.813 137C258.813 133.18 256.313 131.62 253.613 131.62H251.313V142.36ZM266.65 133.76C269.09 133.76 270.79 135.2 270.79 137.54V144H269.11V142.28C268.53 143.44 267.21 144.16 265.75 144.16C263.73 144.16 262.35 142.92 262.35 141.18C262.35 139.24 263.93 138.18 267.15 137.86L269.11 137.64V137.44C269.11 136.06 268.13 135.18 266.65 135.18C265.27 135.18 264.29 136 264.15 137.36L262.57 137.06C262.87 135.06 264.53 133.76 266.65 133.76ZM266.01 142.76C267.97 142.76 269.11 141.46 269.11 139.44V138.96L267.15 139.18C265.11 139.4 264.05 140.1 264.05 141.16C264.05 142.1 264.85 142.76 266.01 142.76ZM278.855 143.92C278.355 144.1 277.815 144.16 277.275 144.16C275.555 144.16 274.295 143.2 274.295 140.98V135.42H272.415V133.92H274.295V130.86H275.995V133.92H278.695V135.42H275.995V141.04C275.995 142.1 276.595 142.62 277.475 142.62C277.875 142.62 278.335 142.56 278.735 142.36L278.855 143.92ZM284.423 133.76C286.863 133.76 288.563 135.2 288.563 137.54V144H286.883V142.28C286.303 143.44 284.983 144.16 283.523 144.16C281.503 144.16 280.123 142.92 280.123 141.18C280.123 139.24 281.703 138.18 284.923 137.86L286.883 137.64V137.44C286.883 136.06 285.903 135.18 284.423 135.18C283.043 135.18 282.063 136 281.923 137.36L280.343 137.06C280.643 135.06 282.303 133.76 284.423 133.76ZM283.783 142.76C285.743 142.76 286.883 141.46 286.883 139.44V138.96L284.923 139.18C282.883 139.4 281.823 140.1 281.823 141.16C281.823 142.1 282.623 142.76 283.783 142.76Z" fill="black"/>
        <g clip-path="url(#clip3_429_18363)">
            <rect width="48" height="48" transform="translate(254 196.5)" fill="white"/>
            <g style="mix-blend-mode:multiply">
                <g style="mix-blend-mode:multiply">
                    <g style="mix-blend-mode:multiply">
                        <path d="M275.755 222.75C277.24 222.753 278.692 222.314 279.927 221.489C281.161 220.664 282.122 219.49 282.687 218.116C283.25 216.745 283.395 215.239 283.103 213.786C282.812 212.333 282.098 210.998 281.05 209.95C280.003 208.903 278.669 208.188 277.217 207.897C275.764 207.605 274.258 207.75 272.888 208.313C271.283 208.976 269.958 210.175 269.138 211.706C268.318 213.238 268.055 215.006 268.394 216.71C268.732 218.414 269.651 219.947 270.994 221.049C272.336 222.15 274.019 222.751 275.755 222.75Z" fill="#FEB452"/>
                    </g>
                </g>
                <g style="mix-blend-mode:multiply">
                    <g style="mix-blend-mode:multiply">
                        <path d="M288.439 238.881C288.452 239.211 288.408 239.541 288.309 239.85C288.209 240.158 288.057 240.438 287.862 240.672C287.452 241.163 286.906 241.458 286.327 241.5H264.778C264.191 241.467 263.634 241.177 263.213 240.685C263.019 240.447 262.866 240.165 262.766 239.855C262.665 239.545 262.617 239.213 262.625 238.881V237.429C262.625 229.695 267.621 225 273.956 225H277.191C283.484 225 288.522 229.695 288.522 237.429L288.439 238.881Z" fill="#FEB452"/>
                    </g>
                </g>
            </g>
            <g style="mix-blend-mode:multiply" opacity="0.3">
                <path d="M275.913 233.141C284.659 233.141 291.749 226.082 291.749 217.374C291.749 208.666 284.659 201.606 275.913 201.606C267.167 201.606 260.077 208.666 260.077 217.374C260.077 226.082 267.167 233.141 275.913 233.141Z" fill="#FFE9CC"/>
            </g>
            <g style="mix-blend-mode:multiply">
                <path d="M297.679 236.753L290.542 228.914C293.444 225.212 294.838 220.558 294.448 215.878C294.057 211.199 291.91 206.837 288.435 203.663C284.959 200.489 280.41 198.735 275.694 198.75C270.978 198.766 266.441 200.55 262.986 203.747C259.532 206.944 257.414 211.319 257.055 216.001C256.695 220.683 258.12 225.328 261.047 229.011C263.973 232.694 268.185 235.143 272.844 235.872C277.503 236.601 282.267 235.556 286.187 232.945L293.483 240.922C293.667 241.105 293.885 241.251 294.125 241.35C294.365 241.449 294.623 241.5 294.883 241.5C295.143 241.5 295.401 241.449 295.641 241.35C295.882 241.251 296.1 241.105 296.284 240.922L297.679 239.523C298.045 239.154 298.25 238.656 298.25 238.138C298.25 237.62 298.045 237.122 297.679 236.753ZM260.255 217.374C260.255 214.324 261.164 211.342 262.866 208.806C264.568 206.27 266.987 204.293 269.817 203.126C272.648 201.959 275.762 201.653 278.767 202.248C281.771 202.843 284.531 204.312 286.698 206.469C288.864 208.626 290.339 211.374 290.937 214.366C291.535 217.357 291.228 220.458 290.056 223.276C288.883 226.094 286.898 228.503 284.351 230.198C281.803 231.892 278.808 232.797 275.745 232.797C271.637 232.797 267.697 231.172 264.792 228.28C261.887 225.387 260.255 221.465 260.255 217.374Z" fill="#6D67CE"/>
            </g>
        </g>
        <path d="M271.522 268.5L267.727 263.13L266.332 264.57V268.5H264.967V258H266.332V262.755L270.922 258H272.737L268.687 262.17L273.172 268.5H271.522ZM277.055 268.5V264.105L273.365 258H274.91L277.745 262.8L280.595 258H282.14L278.435 264.105V268.5H277.055ZM287.135 268.62C284.495 268.62 282.035 266.865 282.035 263.25C282.035 259.635 284.51 257.88 287.135 257.88C289.43 257.88 291.125 259.17 291.56 261.195L290.21 261.495C289.88 259.98 288.755 259.095 287.12 259.095C284.99 259.095 283.445 260.565 283.445 263.25C283.445 265.935 284.99 267.39 287.12 267.39C288.755 267.39 289.82 266.55 290.195 265.095L291.56 265.38C291.035 267.36 289.4 268.62 287.135 268.62Z" fill="#53585C"/>
        <rect width="48" height="48" transform="translate(362 196.5)" fill="white"/>
        <g style="mix-blend-mode:multiply">
            <path fill-rule="evenodd" clip-rule="evenodd" d="M384.225 204.636V208.5H404.101C404.273 208.5 404.438 208.432 404.559 208.312C404.681 208.192 404.749 208.028 404.749 207.858V204.636C404.763 203.975 404.645 203.318 404.402 202.702C404.16 202.086 403.797 201.524 403.335 201.047C402.873 200.57 402.321 200.188 401.709 199.922C401.098 199.657 400.441 199.513 399.774 199.5H379.25C379.917 199.513 380.575 199.657 381.186 199.922C381.797 200.188 382.349 200.57 382.811 201.047C383.273 201.524 383.636 202.086 383.879 202.702C384.121 203.318 384.239 203.975 384.225 204.636Z" fill="#FEB452"/>
        </g>
        <path fill-rule="evenodd" clip-rule="evenodd" d="M395.072 204.622V208.463H375.229C375.059 208.463 374.896 208.395 374.776 208.275C374.656 208.155 374.588 207.993 374.588 207.823V204.622C374.575 203.963 374.691 203.307 374.931 202.693C375.171 202.079 375.529 201.518 375.986 201.043C376.442 200.567 376.988 200.186 377.592 199.922C378.196 199.657 378.846 199.514 379.505 199.501H399.989C399.33 199.514 398.68 199.657 398.076 199.922C397.472 200.186 396.926 200.567 396.47 201.043C396.013 201.518 395.655 202.079 395.415 202.693C395.175 203.307 395.059 203.963 395.072 204.622Z" fill="#FFE9CC"/>
        <path d="M368.75 204.75C368.75 201.851 371.101 199.5 374 199.5H395V235.5C395 238.399 392.649 240.75 389.75 240.75H370.25C369.422 240.75 368.75 240.078 368.75 239.25V204.75Z" fill="#FFE9CC"/>
        <g style="mix-blend-mode:multiply">
            <path fill-rule="evenodd" clip-rule="evenodd" d="M385.281 235.591L385.281 232.5L365.641 232.5C365.471 232.5 365.309 232.567 365.189 232.687C365.069 232.808 365.001 232.97 365.001 233.14L365.001 235.591C364.987 236.25 365.104 236.905 365.344 237.52C365.583 238.134 365.942 238.695 366.398 239.17C366.855 239.646 367.401 240.027 368.004 240.291C368.608 240.556 369.258 240.699 369.917 240.712L390.198 240.712C389.539 240.699 388.889 240.556 388.285 240.291C387.681 240.027 387.135 239.646 386.679 239.17C386.222 238.695 385.864 238.134 385.624 237.52C385.384 236.905 385.268 236.25 385.281 235.591Z" fill="#FEB452"/>
        </g>
        <path d="M392.793 228.75C394.528 228.75 396.209 228.148 397.551 227.047C398.892 225.947 399.81 224.415 400.148 222.713C400.487 221.012 400.225 219.245 399.407 217.715C398.589 216.185 397.266 214.985 395.664 214.321C394.061 213.657 392.277 213.569 390.617 214.073C388.956 214.576 387.522 215.639 386.557 217.082C385.593 218.524 385.159 220.256 385.328 221.983C385.498 223.71 386.261 225.324 387.487 226.551C388.895 227.958 390.803 228.749 392.793 228.75Z" fill="#FEA442"/>
        <g style="mix-blend-mode:multiply">
            <path d="M396.44 217.25H389.793V218.291H391.889C392.866 218.291 393.483 218.767 393.65 219.551H389.793V220.464H393.65C393.483 221.249 392.853 221.711 391.889 221.711H389.793V222.753H392.017L393.882 226.25H395.232L393.226 222.586C394.126 222.264 394.73 221.48 394.872 220.464H396.44V219.551H394.872C394.794 218.999 394.576 218.536 394.19 218.163H396.44V217.25Z" fill="#FEA442"/>
        </g>
        <g style="mix-blend-mode:multiply">
            <path d="M406.399 233.335L402.017 228.522C403.799 226.249 404.655 223.391 404.415 220.517C404.175 217.644 402.857 214.966 400.723 213.017C398.589 211.068 395.796 209.991 392.9 210C390.004 210.01 387.218 211.105 385.097 213.068C382.976 215.031 381.675 217.718 381.454 220.593C381.234 223.468 382.109 226.32 383.906 228.581C385.702 230.843 388.289 232.347 391.15 232.794C394.011 233.242 396.936 232.6 399.343 230.997L403.823 235.895C403.935 236.008 404.069 236.097 404.217 236.158C404.365 236.219 404.523 236.25 404.683 236.25C404.842 236.25 405 236.219 405.148 236.158C405.296 236.097 405.43 236.008 405.542 235.895L406.399 235.036C406.624 234.809 406.75 234.504 406.75 234.186C406.75 233.867 406.624 233.562 406.399 233.335ZM383.42 221.436C383.42 219.563 383.977 217.732 385.023 216.175C386.068 214.618 387.553 213.404 389.291 212.687C391.029 211.97 392.941 211.783 394.786 212.148C396.631 212.513 398.326 213.415 399.656 214.74C400.987 216.064 401.892 217.752 402.259 219.589C402.626 221.426 402.438 223.33 401.718 225.06C400.998 226.79 399.779 228.269 398.215 229.31C396.651 230.351 394.812 230.906 392.931 230.906C390.408 230.906 387.989 229.908 386.205 228.132C384.422 226.356 383.42 223.948 383.42 221.436Z" fill="#6D67CE"/>
        </g>
        <g style="mix-blend-mode:multiply" opacity="0.3">
            <path d="M393.035 231.117C398.405 231.117 402.759 226.783 402.759 221.436C402.759 216.089 398.405 211.754 393.035 211.754C387.664 211.754 383.311 216.089 383.311 221.436C383.311 226.783 387.664 231.117 393.035 231.117Z" fill="#FFE9CC"/>
        </g>
        <path d="M361.416 268.5V258H362.781V268.5H361.416ZM364.901 268.5V260.94H366.176V262.365C366.701 261.465 367.616 260.82 368.771 260.82C370.346 260.82 371.471 261.885 371.471 263.49V268.5H370.196V263.73C370.196 262.71 369.551 261.975 368.486 261.975C367.076 261.975 366.176 263.19 366.176 265.185V268.5H364.901ZM376.079 268.62C374.249 268.62 373.259 267.48 372.929 266.415L374.024 265.935C374.309 266.82 374.909 267.54 376.079 267.54C377.009 267.54 377.609 267 377.609 266.385C377.609 264.45 373.259 265.695 373.259 262.83C373.259 261.63 374.294 260.82 375.914 260.82C377.249 260.82 378.404 261.57 378.719 262.68L377.654 263.145C377.444 262.365 376.694 261.87 375.884 261.87C375.029 261.87 374.489 262.215 374.489 262.815C374.489 264.435 378.869 263.25 378.854 266.37C378.854 267.69 377.744 268.62 376.079 268.62ZM381.103 259.515C380.593 259.515 380.218 259.125 380.218 258.63C380.218 258.12 380.593 257.73 381.103 257.73C381.628 257.73 382.018 258.12 382.018 258.63C382.018 259.125 381.628 259.515 381.103 259.515ZM380.473 268.5V260.94H381.748V268.5H380.473ZM387.697 267.03C389.212 267.03 390.262 267.66 390.262 269.055C390.262 270.57 388.852 271.35 386.782 271.35C384.637 271.35 383.302 270.585 383.302 269.19C383.302 268.53 383.662 267.99 384.112 267.645C383.737 267.39 383.512 267.015 383.512 266.475C383.512 265.815 383.947 265.32 384.532 265.05C384.127 264.615 383.902 264.045 383.902 263.37C383.902 261.84 385.132 260.82 386.767 260.82C387.262 260.82 387.727 260.925 388.147 261.12L389.332 260.1L390.067 260.94L389.062 261.795C389.422 262.215 389.632 262.755 389.632 263.37C389.632 264.93 388.417 265.92 386.767 265.92C386.227 265.92 385.762 265.815 385.357 265.635C384.922 265.83 384.742 266.085 384.742 266.4C384.742 266.865 385.177 267.03 385.672 267.03H387.697ZM386.767 261.855C385.897 261.855 385.147 262.425 385.147 263.37C385.147 264.33 385.897 264.885 386.767 264.885C387.637 264.885 388.387 264.33 388.387 263.37C388.387 262.425 387.637 261.855 386.767 261.855ZM386.782 270.27C388.222 270.27 389.017 269.865 389.017 269.145C389.017 268.335 388.417 268.065 387.517 268.065H385.912C385.642 268.065 385.387 268.05 385.147 268.02C384.682 268.335 384.547 268.74 384.547 269.175C384.547 269.865 385.312 270.27 386.782 270.27ZM391.693 268.5V257.88H392.968V262.425C393.523 261.345 394.438 260.82 395.548 260.82C397.258 260.82 398.383 261.885 398.383 263.52V268.5H397.108V263.76C397.108 262.65 396.418 261.975 395.263 261.975C393.868 261.975 392.968 263.235 392.968 265.26V268.5H391.693ZM404.195 268.44C403.82 268.575 403.415 268.62 403.01 268.62C401.72 268.62 400.775 267.9 400.775 266.235V262.065H399.365V260.94H400.775V258.645H402.05V260.94H404.075V262.065H402.05V266.28C402.05 267.075 402.5 267.465 403.16 267.465C403.46 267.465 403.805 267.42 404.105 267.27L404.195 268.44ZM408.32 268.62C406.49 268.62 405.5 267.48 405.17 266.415L406.265 265.935C406.55 266.82 407.15 267.54 408.32 267.54C409.25 267.54 409.85 267 409.85 266.385C409.85 264.45 405.5 265.695 405.5 262.83C405.5 261.63 406.535 260.82 408.155 260.82C409.49 260.82 410.645 261.57 410.96 262.68L409.895 263.145C409.685 262.365 408.935 261.87 408.125 261.87C407.27 261.87 406.73 262.215 406.73 262.815C406.73 264.435 411.11 263.25 411.095 266.37C411.095 267.69 409.985 268.62 408.32 268.62Z" fill="#53585C"/>
        <g style="mix-blend-mode:multiply">
            <path d="M262.511 337.147L269.571 340.766L273.102 337.147L280.603 340.766" stroke="#6D67CE" stroke-width="3.10996" stroke-linecap="round" stroke-linejoin="round"/>
        </g>
        <path d="M290.14 301.049C290.753 300.735 291.491 300.863 291.979 301.35L295.034 304.405C295.516 304.888 295.647 305.616 295.343 306.226C294.123 308.676 290.822 314.952 287.404 318.387C283.043 322.772 274.088 326.958 274.088 326.958L269.416 322.285C269.416 322.285 273.696 313.411 278.073 309.056C281.495 305.651 287.699 302.3 290.14 301.049Z" fill="#FFE9CC"/>
        <g style="mix-blend-mode:multiply">
            <path fill-rule="evenodd" clip-rule="evenodd" d="M262.257 333.066L262.905 326.124L271.241 322.648L273.78 325.188L270.622 333.842L264.147 334.844C263.739 334.907 263.35 334.816 263.032 334.619L266.395 330.976C266.611 331.092 266.857 331.158 267.119 331.158C267.965 331.158 268.65 330.472 268.65 329.627C268.65 328.781 267.965 328.096 267.119 328.096C266.274 328.096 265.588 328.781 265.588 329.627C265.588 329.933 265.678 330.218 265.833 330.457L262.491 334.077C262.313 333.787 262.223 333.438 262.257 333.066Z" fill="#FEB452"/>
        </g>
        <g style="mix-blend-mode:multiply">
            <rect x="292.301" y="304.25" width="3.17544" height="13.7863" rx="1.58772" transform="rotate(45 292.301 304.25)" fill="#FEB452"/>
        </g>
        <path d="M267.308 365.375C267.308 365.555 267.293 365.825 267.278 365.96H261.308C261.398 367.49 262.358 368.495 263.723 368.495C264.878 368.495 265.673 367.955 265.898 367.01L267.098 367.295C266.723 368.765 265.463 369.62 263.723 369.62C261.458 369.62 260.033 367.865 260.033 365.72C260.033 363.575 261.413 361.82 263.693 361.82C265.928 361.82 267.308 363.425 267.308 365.375ZM261.383 364.895H265.958C265.838 363.74 265.028 362.885 263.693 362.885C262.508 362.885 261.638 363.635 261.383 364.895ZM272.34 369.62C270.315 369.62 268.695 368.315 268.35 366.395L269.64 365.975C269.85 367.445 270.975 368.405 272.37 368.405C273.81 368.405 274.74 367.73 274.74 366.68C274.74 363.875 268.77 365.345 268.77 361.625C268.77 359.99 270.24 358.88 272.31 358.88C274.23 358.88 275.715 359.915 275.985 361.475L274.74 361.955C274.53 360.815 273.63 360.095 272.31 360.095C270.96 360.095 270.15 360.68 270.15 361.625C270.15 364.025 276.15 362.465 276.15 366.665C276.15 368.45 274.635 369.62 272.34 369.62ZM278.369 360.515C277.859 360.515 277.484 360.125 277.484 359.63C277.484 359.12 277.859 358.73 278.369 358.73C278.894 358.73 279.284 359.12 279.284 359.63C279.284 360.125 278.894 360.515 278.369 360.515ZM277.739 369.5V361.94H279.014V369.5H277.739ZM284.963 368.03C286.478 368.03 287.528 368.66 287.528 370.055C287.528 371.57 286.118 372.35 284.048 372.35C281.903 372.35 280.568 371.585 280.568 370.19C280.568 369.53 280.928 368.99 281.378 368.645C281.003 368.39 280.778 368.015 280.778 367.475C280.778 366.815 281.213 366.32 281.798 366.05C281.393 365.615 281.168 365.045 281.168 364.37C281.168 362.84 282.398 361.82 284.033 361.82C284.528 361.82 284.993 361.925 285.413 362.12L286.598 361.1L287.333 361.94L286.328 362.795C286.688 363.215 286.898 363.755 286.898 364.37C286.898 365.93 285.683 366.92 284.033 366.92C283.493 366.92 283.028 366.815 282.623 366.635C282.188 366.83 282.008 367.085 282.008 367.4C282.008 367.865 282.443 368.03 282.938 368.03H284.963ZM284.033 362.855C283.163 362.855 282.413 363.425 282.413 364.37C282.413 365.33 283.163 365.885 284.033 365.885C284.903 365.885 285.653 365.33 285.653 364.37C285.653 363.425 284.903 362.855 284.033 362.855ZM284.048 371.27C285.488 371.27 286.283 370.865 286.283 370.145C286.283 369.335 285.683 369.065 284.783 369.065H283.178C282.908 369.065 282.653 369.05 282.413 369.02C281.948 369.335 281.813 369.74 281.813 370.175C281.813 370.865 282.578 371.27 284.048 371.27ZM288.959 369.5V361.94H290.234V363.365C290.759 362.465 291.674 361.82 292.829 361.82C294.404 361.82 295.529 362.885 295.529 364.49V369.5H294.254V364.73C294.254 363.71 293.609 362.975 292.544 362.975C291.134 362.975 290.234 364.19 290.234 366.185V369.5H288.959ZM254.109 387.62C251.499 387.62 249.054 385.835 249.054 382.25C249.054 378.665 251.514 376.88 254.139 376.88C256.479 376.88 258.204 378.17 258.624 380.195L257.274 380.48C256.974 378.995 255.804 378.095 254.139 378.095C252.009 378.095 250.464 379.58 250.464 382.25C250.464 384.92 252.009 386.39 254.124 386.39C256.089 386.39 257.334 385.115 257.379 383.27H253.719V382.085H258.669V387.5H257.424V385.88C256.944 386.945 255.594 387.62 254.109 387.62ZM263.427 379.82C265.257 379.82 266.532 380.9 266.532 382.655V387.5H265.272V386.21C264.837 387.08 263.847 387.62 262.752 387.62C261.237 387.62 260.202 386.69 260.202 385.385C260.202 383.93 261.387 383.135 263.802 382.895L265.272 382.73V382.58C265.272 381.545 264.537 380.885 263.427 380.885C262.392 380.885 261.657 381.5 261.552 382.52L260.367 382.295C260.592 380.795 261.837 379.82 263.427 379.82ZM262.947 386.57C264.417 386.57 265.272 385.595 265.272 384.08V383.72L263.802 383.885C262.272 384.05 261.477 384.575 261.477 385.37C261.477 386.075 262.077 386.57 262.947 386.57ZM272.581 387.44C272.206 387.575 271.801 387.62 271.396 387.62C270.106 387.62 269.161 386.9 269.161 385.235V381.065H267.751V379.94H269.161V377.645H270.436V379.94H272.461V381.065H270.436V385.28C270.436 386.075 270.886 386.465 271.546 386.465C271.846 386.465 272.191 386.42 272.491 386.27L272.581 387.44ZM280.719 383.375C280.719 383.555 280.704 383.825 280.689 383.96H274.719C274.809 385.49 275.769 386.495 277.134 386.495C278.289 386.495 279.084 385.955 279.309 385.01L280.509 385.295C280.134 386.765 278.874 387.62 277.134 387.62C274.869 387.62 273.444 385.865 273.444 383.72C273.444 381.575 274.824 379.82 277.104 379.82C279.339 379.82 280.719 381.425 280.719 383.375ZM274.794 382.895H279.369C279.249 381.74 278.439 380.885 277.104 380.885C275.919 380.885 275.049 381.635 274.794 382.895ZM283.85 387.5L281.54 379.94H282.845L284.48 385.715L286.25 379.94H287.48L289.25 385.715L290.87 379.94H292.205L289.88 387.5H288.635L286.865 381.755L285.095 387.5H283.85ZM296.152 379.82C297.982 379.82 299.257 380.9 299.257 382.655V387.5H297.997V386.21C297.562 387.08 296.572 387.62 295.477 387.62C293.962 387.62 292.927 386.69 292.927 385.385C292.927 383.93 294.112 383.135 296.527 382.895L297.997 382.73V382.58C297.997 381.545 297.262 380.885 296.152 380.885C295.117 380.885 294.382 381.5 294.277 382.52L293.092 382.295C293.317 380.795 294.562 379.82 296.152 379.82ZM295.672 386.57C297.142 386.57 297.997 385.595 297.997 384.08V383.72L296.527 383.885C294.997 384.05 294.202 384.575 294.202 385.37C294.202 386.075 294.802 386.57 295.672 386.57ZM306.061 379.94H307.366L303.406 390.23H302.101L303.196 387.395L300.241 379.94H301.621L303.841 385.73L306.061 379.94Z" fill="#53585C"/>
        <path d="M364.5 307.384C364.504 306.949 364.683 306.534 365 306.228C365.316 305.922 365.743 305.75 366.188 305.75L379.006 305.75C379.249 305.75 379.489 305.801 379.71 305.899C379.932 305.997 380.129 306.14 380.289 306.319L384.623 311.206C384.94 311.566 385.758 311.609 386.252 311.609L405.166 311.609C406.095 311.609 406.5 312.502 406.5 313.402L406.5 338.616C406.499 338.831 406.455 339.045 406.369 339.243C406.284 339.442 406.159 339.623 406.003 339.774C405.846 339.926 405.66 340.046 405.456 340.128C405.251 340.209 405.033 340.251 404.812 340.25L366.188 340.25C365.743 340.25 365.316 340.078 365 339.772C364.683 339.466 364.504 339.051 364.5 338.616L364.5 307.384Z" fill="#FFE9CC"/>
        <g style="mix-blend-mode:multiply">
            <path d="M387.047 309.5L405.742 309.5C405.884 309.504 406.025 309.467 406.147 309.393C406.269 309.319 406.366 309.211 406.428 309.082C406.489 308.954 406.512 308.81 406.494 308.669C406.475 308.528 406.416 308.395 406.323 308.287L404.748 306.324C404.61 306.145 404.433 306 404.23 305.901C404.027 305.801 403.804 305.75 403.578 305.751L384.765 305.751C384.621 305.745 384.479 305.782 384.355 305.856C384.232 305.93 384.133 306.039 384.071 306.169C384.01 306.299 383.987 306.444 384.007 306.587C384.027 306.729 384.088 306.863 384.184 306.971L385.876 308.934C386.015 309.111 386.193 309.255 386.396 309.353C386.598 309.451 386.821 309.501 387.047 309.5Z" fill="#FEB452"/>
        </g>
        <g style="mix-blend-mode:multiply">
            <path d="M389.697 317L395.25 323L374.25 323" stroke="#6D67CE" stroke-width="2.51723" stroke-linecap="round" stroke-linejoin="round"/>
        </g>
        <g style="mix-blend-mode:multiply">
            <path d="M379.803 333.5L374.25 328.275L395.25 328.25" stroke="#6D67CE" stroke-width="2.51723" stroke-linecap="round" stroke-linejoin="round"/>
        </g>
        <path d="M383.936 369.5L382.901 366.83H378.236L377.201 369.5H375.791L379.946 359H381.191L385.361 369.5H383.936ZM378.701 365.615H382.436L380.576 360.8L378.701 365.615ZM393.78 369.5L392.745 366.83H388.08L387.045 369.5H385.635L389.79 359H391.035L395.205 369.5H393.78ZM388.545 365.615H392.28L390.42 360.8L388.545 365.615ZM361.609 387.62C358.999 387.62 356.554 385.835 356.554 382.25C356.554 378.665 359.014 376.88 361.639 376.88C363.979 376.88 365.704 378.17 366.124 380.195L364.774 380.48C364.474 378.995 363.304 378.095 361.639 378.095C359.509 378.095 357.964 379.58 357.964 382.25C357.964 384.92 359.509 386.39 361.624 386.39C363.589 386.39 364.834 385.115 364.879 383.27H361.219V382.085H366.169V387.5H364.924V385.88C364.444 386.945 363.094 387.62 361.609 387.62ZM370.927 379.82C372.757 379.82 374.032 380.9 374.032 382.655V387.5H372.772V386.21C372.337 387.08 371.347 387.62 370.252 387.62C368.737 387.62 367.702 386.69 367.702 385.385C367.702 383.93 368.887 383.135 371.302 382.895L372.772 382.73V382.58C372.772 381.545 372.037 380.885 370.927 380.885C369.892 380.885 369.157 381.5 369.052 382.52L367.867 382.295C368.092 380.795 369.337 379.82 370.927 379.82ZM370.447 386.57C371.917 386.57 372.772 385.595 372.772 384.08V383.72L371.302 383.885C369.772 384.05 368.977 384.575 368.977 385.37C368.977 386.075 369.577 386.57 370.447 386.57ZM380.081 387.44C379.706 387.575 379.301 387.62 378.896 387.62C377.606 387.62 376.661 386.9 376.661 385.235V381.065H375.251V379.94H376.661V377.645H377.936V379.94H379.961V381.065H377.936V385.28C377.936 386.075 378.386 386.465 379.046 386.465C379.346 386.465 379.691 386.42 379.991 386.27L380.081 387.44ZM388.219 383.375C388.219 383.555 388.204 383.825 388.189 383.96H382.219C382.309 385.49 383.269 386.495 384.634 386.495C385.789 386.495 386.584 385.955 386.809 385.01L388.009 385.295C387.634 386.765 386.374 387.62 384.634 387.62C382.369 387.62 380.944 385.865 380.944 383.72C380.944 381.575 382.324 379.82 384.604 379.82C386.839 379.82 388.219 381.425 388.219 383.375ZM382.294 382.895H386.869C386.749 381.74 385.939 380.885 384.604 380.885C383.419 380.885 382.549 381.635 382.294 382.895ZM391.35 387.5L389.04 379.94H390.345L391.98 385.715L393.75 379.94H394.98L396.75 385.715L398.37 379.94H399.705L397.38 387.5H396.135L394.365 381.755L392.595 387.5H391.35ZM403.652 379.82C405.482 379.82 406.757 380.9 406.757 382.655V387.5H405.497V386.21C405.062 387.08 404.072 387.62 402.977 387.62C401.462 387.62 400.427 386.69 400.427 385.385C400.427 383.93 401.612 383.135 404.027 382.895L405.497 382.73V382.58C405.497 381.545 404.762 380.885 403.652 380.885C402.617 380.885 401.882 381.5 401.777 382.52L400.592 382.295C400.817 380.795 402.062 379.82 403.652 379.82ZM403.172 386.57C404.642 386.57 405.497 385.595 405.497 384.08V383.72L404.027 383.885C402.497 384.05 401.702 384.575 401.702 385.37C401.702 386.075 402.302 386.57 403.172 386.57ZM413.561 379.94H414.866L410.906 390.23H409.601L410.696 387.395L407.741 379.94H409.121L411.341 385.73L413.561 379.94Z" fill="#53585C"/>
    </g>
    <defs>
        <clipPath id="clip0_429_18363">
            <rect width="472" height="404" rx="12" fill="white"/>
        </clipPath>
        <clipPath id="clip1_429_18363">
            <rect width="48" height="48" fill="white" transform="translate(0 73)"/>
        </clipPath>
        <clipPath id="clip2_429_18363">
            <rect width="48" height="48" fill="white" transform="translate(248 73)"/>
        </clipPath>
        <clipPath id="clip3_429_18363">
            <rect width="48" height="48" fill="white" transform="translate(254 196.5)"/>
        </clipPath>
    </defs>
</svg>
