<svg viewBox="0 0 574 140" fill="none" xmlns="http://www.w3.org/2000/svg">
<g clip-path="url(#clip0_890_31)">
<path d="M32.4644 63.3599L30.9655 52.4511C30.6879 50.3971 30.2161 48.6206 29.5499 47.1217C28.8837 45.595 27.8567 44.4014 26.4688 43.541C25.1087 42.6805 23.1656 42.2502 20.6397 42.2502L6.19186 42.2086V36.7542L21.639 36.7126C25.2752 36.7126 27.8705 35.8243 29.425 34.0478C30.9794 32.2436 31.7566 29.8009 31.7566 26.7198V25.4708C31.7566 22.4174 30.9655 20.058 29.3833 18.3926C27.8012 16.6994 25.1642 15.8527 21.4724 15.8527H5.98368V10.1486H22.3884C28.1065 10.1486 32.2562 11.4115 34.8377 13.9375C37.4469 16.4357 38.7515 19.8915 38.7515 24.3049V25.7206C38.7515 29.1903 37.9327 32.0354 36.295 34.256C34.6573 36.4489 31.937 37.7812 28.1342 38.2531V39.0859L25.1781 38.0449C28.2592 38.267 30.6324 38.9471 32.2979 40.0851C33.9911 41.1954 35.2263 42.7221 36.0035 44.6651C36.7807 46.6082 37.3775 48.9398 37.7939 51.66L39.5843 63.3599H32.4644ZM1.44531 63.3599V10.1486H8.23204V38.5862L8.27368 41.2093V63.3599H1.44531Z" fill="#2F2F2F"/>
<path d="M64.5661 64.2759C58.3761 64.2759 53.7129 62.7631 50.5763 59.7375C47.4396 56.7119 45.8713 52.3817 45.8713 46.747V39.5022C45.8713 33.7842 47.3286 29.3846 50.2432 26.3035C53.1577 23.1946 57.4185 21.6402 63.0255 21.6402C66.8006 21.6402 69.9511 22.348 72.477 23.7637C75.0029 25.1515 76.9043 27.1362 78.1812 29.7177C79.458 32.2991 80.0965 35.3802 80.0965 38.9609V40.4599C80.0965 41.3481 80.0548 42.2363 79.9716 43.1246C79.916 44.0128 79.8328 44.8872 79.7217 45.7477H73.5179C73.5734 44.4153 73.6012 43.1523 73.6012 41.9588C73.6289 40.7652 73.6428 39.6688 73.6428 38.6695C73.6428 36.1991 73.2403 34.1172 72.4354 32.424C71.6582 30.7031 70.4785 29.3985 68.8963 28.5102C67.3418 27.5942 65.3849 27.1362 63.0255 27.1362C59.5281 27.1362 56.905 28.1494 55.1563 30.1757C53.4075 32.202 52.5332 35.1026 52.5332 38.8777V42.7499L52.5748 43.5826V47.4548C52.5748 49.148 52.8246 50.6747 53.3243 52.0348C53.8239 53.3949 54.6011 54.5746 55.6559 55.5739C56.7384 56.5454 58.0986 57.2948 59.7363 57.8222C61.4017 58.3219 63.3725 58.5717 65.6486 58.5717C68.2856 58.5717 70.7422 58.2247 73.0183 57.5308C75.2944 56.8368 77.4317 55.8931 79.4303 54.6995L78.8057 60.5286C77.0015 61.6667 74.9058 62.5827 72.5186 63.2766C70.1315 63.9428 67.4806 64.2759 64.5661 64.2759ZM49.4104 45.7477V40.668H78.3061V45.7477H49.4104Z" fill="#2F2F2F"/>
<path d="M101.912 64.2759C98.6366 64.2759 95.7776 63.9289 93.3349 63.235C90.8922 62.5133 88.8659 61.7361 87.256 60.9033L86.6314 54.6579C88.6577 55.7127 90.8783 56.6287 93.2932 57.4059C95.7359 58.1831 98.4978 58.5717 101.579 58.5717C104.715 58.5717 107.075 58.0721 108.657 57.0728C110.239 56.0735 111.03 54.5885 111.03 52.6177V52.1597C111.03 50.8828 110.725 49.828 110.114 48.9953C109.531 48.1626 108.463 47.427 106.908 46.7886C105.354 46.1502 103.147 45.5117 100.288 44.8733C96.874 44.1239 94.1815 43.2495 92.2107 42.2502C90.2399 41.2232 88.8243 39.9602 87.9638 38.4613C87.1311 36.9624 86.7147 35.1304 86.7147 32.9653V32.5906C86.7147 29.0376 87.9499 26.3451 90.4203 24.5131C92.8908 22.6811 96.6103 21.7651 101.579 21.7651C104.771 21.7651 107.533 22.126 109.865 22.8477C112.224 23.5694 114.153 24.3743 115.652 25.2626L116.277 30.9668C114.472 29.912 112.404 29.0376 110.073 28.3437C107.741 27.6497 105.118 27.3028 102.203 27.3028C100.094 27.3028 98.3868 27.5248 97.0822 27.9689C95.7776 28.3853 94.8338 28.996 94.2509 29.8009C93.668 30.5782 93.3765 31.5219 93.3765 32.6322V32.9653C93.3765 34.1866 93.668 35.2275 94.2509 36.088C94.8338 36.9208 95.8747 37.6563 97.3736 38.2948C98.9003 38.9054 101.01 39.5022 103.702 40.0851C107.172 40.7791 109.92 41.6118 111.946 42.5833C114 43.5548 115.472 44.79 116.36 46.289C117.248 47.7601 117.692 49.6615 117.692 51.9931V52.701C117.692 56.5315 116.36 59.4183 113.695 61.3613C111.03 63.3044 107.103 64.2759 101.912 64.2759Z" fill="#2F2F2F"/>
<path d="M142.96 64.2759C136.77 64.2759 132.106 62.7631 128.97 59.7375C125.833 56.7119 124.265 52.3817 124.265 46.747V39.5022C124.265 33.7842 125.722 29.3846 128.637 26.3035C131.551 23.1946 135.812 21.6402 141.419 21.6402C145.194 21.6402 148.345 22.348 150.871 23.7637C153.396 25.1515 155.298 27.1362 156.575 29.7177C157.852 32.2991 158.49 35.3802 158.49 38.9609V40.4599C158.49 41.3481 158.448 42.2363 158.365 43.1246C158.31 44.0128 158.226 44.8872 158.115 45.7477H151.911C151.967 44.4153 151.995 43.1523 151.995 41.9588C152.022 40.7652 152.036 39.6688 152.036 38.6695C152.036 36.1991 151.634 34.1172 150.829 32.424C150.052 30.7031 148.872 29.3985 147.29 28.5102C145.735 27.5942 143.778 27.1362 141.419 27.1362C137.922 27.1362 135.299 28.1494 133.55 30.1757C131.801 32.202 130.927 35.1026 130.927 38.8777V42.7499L130.968 43.5826V47.4548C130.968 49.148 131.218 50.6747 131.718 52.0348C132.217 53.3949 132.995 54.5746 134.049 55.5739C135.132 56.5454 136.492 57.2948 138.13 57.8222C139.795 58.3219 141.766 58.5717 144.042 58.5717C146.679 58.5717 149.136 58.2247 151.412 57.5308C153.688 56.8368 155.825 55.8931 157.824 54.6995L157.199 60.5286C155.395 61.6667 153.299 62.5827 150.912 63.2766C148.525 63.9428 145.874 64.2759 142.96 64.2759ZM127.804 45.7477V40.668H156.7V45.7477H127.804Z" fill="#2F2F2F"/>
<path d="M173.856 38.5029L172.315 33.2984L173.981 33.2151C174.869 29.7732 176.396 27.0668 178.561 25.096C180.726 23.0975 183.599 22.0982 187.179 22.0982C188.068 22.0982 188.859 22.1676 189.553 22.3064C190.274 22.4452 190.913 22.6117 191.468 22.806L191.884 29.3429C191.19 29.1209 190.413 28.9405 189.553 28.8017C188.72 28.6629 187.79 28.5935 186.763 28.5935C183.71 28.5935 181.045 29.4401 178.769 31.1333C176.52 32.8265 174.883 35.2831 173.856 38.5029ZM167.444 63.3599V22.7228H174.022L173.689 34.714L174.189 35.2137V63.3599H167.444Z" fill="#2F2F2F"/>
<path d="M214.324 58.7382L225.566 22.7228H232.561L219.362 63.3599H208.287L195.088 22.7228H202.083L213.325 58.7382H214.324Z" fill="#2F2F2F"/>
<path d="M255.671 64.2759C249.481 64.2759 244.817 62.7631 241.681 59.7375C238.544 56.7119 236.976 52.3817 236.976 46.747V39.5022C236.976 33.7842 238.433 29.3846 241.348 26.3035C244.262 23.1946 248.523 21.6402 254.13 21.6402C257.905 21.6402 261.056 22.348 263.582 23.7637C266.107 25.1515 268.009 27.1362 269.286 29.7177C270.563 32.2991 271.201 35.3802 271.201 38.9609V40.4599C271.201 41.3481 271.159 42.2363 271.076 43.1246C271.021 44.0128 270.937 44.8872 270.826 45.7477H264.622C264.678 44.4153 264.706 43.1523 264.706 41.9588C264.734 40.7652 264.747 39.6688 264.747 38.6695C264.747 36.1991 264.345 34.1172 263.54 32.424C262.763 30.7031 261.583 29.3985 260.001 28.5102C258.446 27.5942 256.489 27.1362 254.13 27.1362C250.633 27.1362 248.01 28.1494 246.261 30.1757C244.512 32.202 243.638 35.1026 243.638 38.8777V42.7499L243.679 43.5826V47.4548C243.679 49.148 243.929 50.6747 244.429 52.0348C244.928 53.3949 245.706 54.5746 246.76 55.5739C247.843 56.5454 249.203 57.2948 250.841 57.8222C252.506 58.3219 254.477 58.5717 256.753 58.5717C259.39 58.5717 261.847 58.2247 264.123 57.5308C266.399 56.8368 268.536 55.8931 270.535 54.6995L269.91 60.5286C268.106 61.6667 266.01 62.5827 263.623 63.2766C261.236 63.9428 258.585 64.2759 255.671 64.2759ZM240.515 45.7477V40.668H269.411V45.7477H240.515Z" fill="#2F2F2F"/>
<path d="M303.216 63.3599V57.6557H319.954C323.562 57.6557 326.116 56.8924 327.615 55.3657C329.142 53.8113 329.905 51.6739 329.905 48.9537V47.4548C329.905 44.679 329.128 42.5278 327.573 41.0011C326.047 39.4745 323.368 38.7111 319.538 38.7111H303.258V33.2568H319.454C322.869 33.2568 325.297 32.5212 326.741 31.05C328.212 29.5511 328.947 27.4832 328.947 24.8462V24.0968C328.947 21.4875 328.24 19.4612 326.824 18.0178C325.436 16.5467 322.966 15.8111 319.413 15.8111H303.091V10.1486H320.037C325.7 10.1486 329.752 11.2727 332.195 13.5211C334.638 15.7695 335.859 18.9338 335.859 23.0142V23.8469C335.859 27.0946 335.082 29.6483 333.527 31.508C331.973 33.3678 329.558 34.4781 326.283 34.8389L326.241 35.0888C329.988 35.6439 332.709 36.9485 334.402 39.0026C336.095 41.0566 336.942 43.9157 336.942 47.5797V49.2868C336.942 53.7002 335.665 57.1561 333.111 59.6542C330.557 62.1247 326.394 63.3599 320.62 63.3599H303.216ZM298.511 63.3599V10.1486H305.34V63.3599H298.511Z" fill="#2F2F2F"/>
<path d="M370.458 63.3599L370.749 53.492L370.499 52.4511V39.5022L370.541 37.1289C370.541 33.8258 369.694 31.3831 368.001 29.8009C366.336 28.2188 363.685 27.4277 360.049 27.4277C357.134 27.4277 354.455 27.844 352.013 28.6768C349.598 29.5095 347.447 30.481 345.559 31.5913L346.184 25.8455C347.238 25.2071 348.487 24.5825 349.931 23.9718C351.402 23.3334 353.067 22.806 354.927 22.3897C356.815 21.9733 358.883 21.7651 361.131 21.7651C364.046 21.7651 366.516 22.126 368.542 22.8477C370.596 23.5416 372.248 24.5548 373.497 25.8871C374.774 27.2195 375.704 28.8294 376.287 30.7169C376.87 32.6045 377.161 34.714 377.161 37.0457V63.3599H370.458ZM356.468 64.2342C352.443 64.2342 349.348 63.2627 347.183 61.3197C345.046 59.3489 343.977 56.5454 343.977 52.9091V51.7017C343.977 47.9544 345.129 45.1648 347.433 43.3328C349.764 41.473 353.456 40.1823 358.508 39.4606L371.374 37.6286L371.748 42.5417L359.341 44.332C356.232 44.7762 354.011 45.5395 352.679 46.622C351.346 47.6768 350.68 49.2451 350.68 51.327V51.9931C350.68 54.1305 351.333 55.7682 352.637 56.9062C353.97 58.0443 355.954 58.6133 358.591 58.6133C360.923 58.6133 362.921 58.2108 364.587 57.4059C366.252 56.6009 367.599 55.5184 368.626 54.1582C369.653 52.7981 370.347 51.2853 370.707 49.6199L371.748 54.1999H370.458C370.069 55.9764 369.333 57.6279 368.251 59.1546C367.196 60.6813 365.711 61.9165 363.796 62.8602C361.881 63.7762 359.438 64.2342 356.468 64.2342Z" fill="#2F2F2F"/>
<path d="M414.687 63.3599V38.0866C414.687 35.8937 414.382 34.0062 413.771 32.424C413.188 30.8418 412.217 29.6205 410.857 28.76C409.524 27.8718 407.692 27.4277 405.361 27.4277C403.223 27.4277 401.364 27.8301 399.781 28.6351C398.227 29.4401 396.964 30.5365 395.992 31.9244C395.021 33.2845 394.341 34.8389 393.952 36.5877L392.745 31.7995H394.202C394.646 29.9675 395.423 28.302 396.534 26.8031C397.644 25.2765 399.129 24.069 400.989 23.1808C402.876 22.2648 405.18 21.8068 407.9 21.8068C411.12 21.8068 413.716 22.4174 415.686 23.6388C417.685 24.8601 419.142 26.6227 420.058 28.9266C420.974 31.2027 421.432 34.0062 421.432 37.3371V63.3599H414.687ZM387.499 63.3599V22.7228H394.244L393.952 32.4657L394.244 32.8404V63.3599H387.499Z" fill="#2F2F2F"/>
<path d="M458.297 63.3599L442.226 44.4153H437.937V39.1691H442.226L457.631 22.7228H465.625L447.18 42.3335V40.7097L466.375 63.3599H458.297ZM431.9 63.3599V8.19165H438.603V63.3599H431.9Z" fill="#2F2F2F"/>
<path d="M13.0619 139.013H-0.0119629V85.8019H13.0619V139.013Z" fill="#BA644F"/>
<path d="M48.4892 139.013V114.947C48.4892 113.448 48.2949 112.158 47.9063 111.075C47.5177 109.965 46.8654 109.118 45.9494 108.535C45.0334 107.952 43.7843 107.661 42.2021 107.661C40.8975 107.661 39.7456 107.897 38.7463 108.369C37.747 108.813 36.9004 109.437 36.2065 110.242C35.5403 111.02 35.0407 111.908 34.7076 112.907L32.7507 106.953H34.9158C35.3599 105.093 36.0816 103.428 37.0809 101.957C38.1079 100.486 39.5096 99.3198 41.2861 98.4594C43.0626 97.5711 45.311 97.127 48.0312 97.127C51.0846 97.127 53.5828 97.7238 55.5258 98.9174C57.4688 100.083 58.8983 101.832 59.8143 104.164C60.7581 106.495 61.23 109.41 61.23 112.907V139.013H48.4892ZM22.175 139.013V98.0846H34.8325L34.4161 108.327L34.9158 109.535V139.013H22.175Z" fill="#BA644F"/>
<path d="M95.6555 139.013V114.947C95.6555 113.448 95.4612 112.158 95.0725 111.075C94.6839 109.965 94.0316 109.118 93.1156 108.535C92.1996 107.952 90.9505 107.661 89.3684 107.661C88.0638 107.661 86.9118 107.897 85.9125 108.369C84.9133 108.813 84.0667 109.437 83.3727 110.242C82.7065 111.02 82.2069 111.908 81.8738 112.907L79.9169 106.953H82.082C82.5261 105.093 83.2478 103.428 84.2471 101.957C85.2741 100.486 86.6759 99.3198 88.4524 98.4594C90.2289 97.5711 92.4772 97.127 95.1975 97.127C98.2508 97.127 100.749 97.7238 102.692 98.9174C104.635 100.083 106.065 101.832 106.981 104.164C107.924 106.495 108.396 109.41 108.396 112.907V139.013H95.6555ZM69.3413 139.013V98.0846H81.9987L81.5824 108.327L82.082 109.535V139.013H69.3413Z" fill="#BA644F"/>
<path d="M135.036 140.179C128.429 140.179 123.433 138.541 120.047 135.266C116.688 131.963 115.009 127.327 115.009 121.359V115.988C115.009 109.937 116.702 105.246 120.088 101.915C123.475 98.5565 128.457 96.8772 135.036 96.8772C141.614 96.8772 146.583 98.5565 149.942 101.915C153.328 105.246 155.021 109.937 155.021 115.988V121.359C155.021 127.327 153.342 131.963 149.983 135.266C146.624 138.541 141.642 140.179 135.036 140.179ZM135.036 130.145C137.395 130.145 139.185 129.437 140.407 128.021C141.656 126.578 142.28 124.538 142.28 121.901V115.447C142.28 112.671 141.656 110.562 140.407 109.118C139.185 107.675 137.395 106.953 135.036 106.953C132.676 106.953 130.872 107.675 129.623 109.118C128.402 110.562 127.791 112.671 127.791 115.447V121.901C127.791 124.538 128.402 126.578 129.623 128.021C130.872 129.437 132.676 130.145 135.036 130.145Z" fill="#BA644F"/>
<path d="M179.064 130.686L186.517 98.0846H199.591L188.724 139.013H168.322L157.372 98.0846H170.529L178.065 130.686H179.064Z" fill="#BA644F"/>
<path d="M226.718 139.013L227.093 128.771L226.802 128.146V115.364L226.718 113.698C226.718 111.422 226.052 109.743 224.72 108.66C223.387 107.578 221.153 107.036 218.016 107.036C215.268 107.036 212.659 107.383 210.189 108.077C207.718 108.771 205.387 109.562 203.194 110.451L204.276 100.583C205.581 99.9721 207.038 99.4031 208.648 98.8757C210.286 98.3206 212.09 97.8764 214.061 97.5434C216.032 97.2103 218.141 97.0437 220.39 97.0437C223.97 97.0437 226.968 97.4601 229.383 98.2928C231.798 99.1255 233.727 100.305 235.171 101.832C236.614 103.359 237.655 105.191 238.293 107.328C238.932 109.437 239.251 111.769 239.251 114.323V139.013H226.718ZM213.686 139.971C209.606 139.971 206.511 138.944 204.401 136.89C202.292 134.836 201.237 131.907 201.237 128.104V126.98C201.237 122.955 202.472 119.985 204.943 118.07C207.441 116.127 211.396 114.809 216.809 114.115L227.801 112.657L228.55 120.318L218.807 121.734C216.837 121.984 215.449 122.442 214.644 123.108C213.839 123.774 213.436 124.76 213.436 126.064V126.356C213.436 127.605 213.839 128.604 214.644 129.354C215.449 130.075 216.74 130.436 218.516 130.436C220.07 130.436 221.403 130.2 222.513 129.728C223.651 129.256 224.581 128.646 225.303 127.896C226.024 127.119 226.566 126.259 226.927 125.315L228.717 130.478H226.635C226.191 132.254 225.497 133.864 224.553 135.308C223.637 136.751 222.305 137.889 220.556 138.722C218.807 139.554 216.517 139.971 213.686 139.971Z" fill="#BA644F"/>
<path d="M263.066 139.929C259.429 139.929 256.529 139.388 254.364 138.305C252.226 137.195 250.686 135.544 249.742 133.351C248.798 131.158 248.326 128.451 248.326 125.232V102.373H260.984V123.191C260.984 125.19 261.428 126.661 262.316 127.605C263.232 128.521 264.925 128.979 267.396 128.979C268.756 128.979 270.102 128.826 271.435 128.521C272.767 128.216 273.974 127.827 275.057 127.355L273.974 137.889C272.559 138.5 270.921 138.985 269.061 139.346C267.229 139.735 265.231 139.929 263.066 139.929ZM242.83 108.244V98.2512H274.682L273.558 108.244H242.83ZM248.493 99.1672L248.451 88.5915L261.067 87.3841L260.609 99.1672H248.493Z" fill="#BA644F"/>
<path d="M280.492 139.013V98.0846H293.233V139.013H280.492ZM286.863 94.2124C284.476 94.2124 282.741 93.6712 281.658 92.5886C280.576 91.4783 280.034 89.9933 280.034 88.1335V87.8421C280.034 85.9823 280.576 84.5112 281.658 83.4286C282.741 82.3461 284.476 81.8048 286.863 81.8048C289.194 81.8048 290.902 82.3461 291.984 83.4286C293.094 84.5112 293.65 85.9823 293.65 87.8421V88.1335C293.65 90.021 293.094 91.5061 291.984 92.5886C290.902 93.6712 289.194 94.2124 286.863 94.2124Z" fill="#BA644F"/>
<path d="M320.285 140.179C313.679 140.179 308.682 138.541 305.296 135.266C301.937 131.963 300.258 127.327 300.258 121.359V115.988C300.258 109.937 301.951 105.246 305.338 101.915C308.724 98.5565 313.707 96.8772 320.285 96.8772C326.864 96.8772 331.832 98.5565 335.191 101.915C338.577 105.246 340.271 109.937 340.271 115.988V121.359C340.271 127.327 338.591 131.963 335.233 135.266C331.874 138.541 326.891 140.179 320.285 140.179ZM320.285 130.145C322.644 130.145 324.435 129.437 325.656 128.021C326.905 126.578 327.53 124.538 327.53 121.901V115.447C327.53 112.671 326.905 110.562 325.656 109.118C324.435 107.675 322.644 106.953 320.285 106.953C317.926 106.953 316.121 107.675 314.872 109.118C313.651 110.562 313.04 112.671 313.04 115.447V121.901C313.04 124.538 313.651 126.578 314.872 128.021C316.121 129.437 317.926 130.145 320.285 130.145Z" fill="#BA644F"/>
<path d="M373.611 139.013V114.947C373.611 113.448 373.417 112.158 373.028 111.075C372.639 109.965 371.987 109.118 371.071 108.535C370.155 107.952 368.906 107.661 367.324 107.661C366.019 107.661 364.867 107.897 363.868 108.369C362.869 108.813 362.022 109.437 361.328 110.242C360.662 111.02 360.162 111.908 359.829 112.907L357.872 106.953H360.037C360.482 105.093 361.203 103.428 362.203 101.957C363.23 100.486 364.631 99.3198 366.408 98.4594C368.184 97.5711 370.433 97.127 373.153 97.127C376.206 97.127 378.704 97.7238 380.647 98.9174C382.59 100.083 384.02 101.832 384.936 104.164C385.88 106.495 386.352 109.41 386.352 112.907V139.013H373.611ZM347.297 139.013V98.0846H359.954L359.538 108.327L360.037 109.535V139.013H347.297Z" fill="#BA644F"/>
<path d="M425.074 139.013H412.042V85.8019H425.074V139.013ZM456.801 139.013H443.727V85.8019H456.801V139.013ZM419.536 106.37H448.64V117.237H419.536V106.37Z" fill="#BA644F"/>
<path d="M478.229 98.0846V122.15C478.229 123.649 478.423 124.954 478.812 126.064C479.2 127.147 479.853 127.993 480.769 128.604C481.685 129.187 482.934 129.478 484.516 129.478C485.848 129.478 487 129.243 487.972 128.771C488.971 128.299 489.804 127.66 490.47 126.855C491.164 126.05 491.677 125.162 492.011 124.191L493.967 130.145H491.802C491.358 131.977 490.623 133.642 489.596 135.141C488.596 136.64 487.208 137.82 485.432 138.68C483.683 139.541 481.435 139.971 478.687 139.971C475.661 139.971 473.163 139.388 471.192 138.222C469.249 137.029 467.806 135.266 466.862 132.934C465.946 130.603 465.488 127.688 465.488 124.191V98.0846H478.229ZM504.543 98.0846V139.013H491.886L492.302 128.771L491.802 127.605V98.0846H504.543Z" fill="#BA644F"/>
<path d="M538.053 139.971C535.61 139.971 533.556 139.568 531.89 138.763C530.225 137.958 528.893 136.82 527.893 135.349C526.894 133.85 526.186 132.115 525.77 130.145H522.481L525.52 121.568C525.575 123.261 525.909 124.69 526.519 125.856C527.13 127.022 528.004 127.924 529.142 128.562C530.28 129.173 531.613 129.478 533.139 129.478C535.471 129.478 537.234 128.798 538.427 127.438C539.621 126.05 540.218 123.982 540.218 121.234V115.447C540.218 112.727 539.621 110.687 538.427 109.326C537.261 107.966 535.513 107.286 533.181 107.286C531.877 107.286 530.683 107.536 529.6 108.036C528.546 108.535 527.643 109.202 526.894 110.034C526.172 110.839 525.645 111.769 525.312 112.824L522.439 106.953H525.936C526.353 105.121 527.033 103.47 527.977 101.998C528.92 100.5 530.239 99.3198 531.932 98.4594C533.653 97.5711 535.832 97.127 538.469 97.127C543.243 97.127 546.852 98.6953 549.294 101.832C551.765 104.941 553 109.618 553 115.863V120.86C553 127.161 551.765 131.921 549.294 135.141C546.824 138.361 543.077 139.971 538.053 139.971ZM513.029 139.013V84.0115H525.687V96.2526L525.478 109.368L525.52 110.492V126.189L525.312 128.646L525.687 139.013H513.029Z" fill="#BA644F"/>
</g>
<defs>
<clipPath id="clip0_890_31">
<rect width="574" height="140" fill="white"/>
</clipPath>
</defs>
</svg>
