<svg viewBox="0 0 559 156" fill="none" xmlns="http://www.w3.org/2000/svg">
<path d="M11.3548 66.6666H4.8098V12.3046H26.9088C38.7668 12.3046 45.6968 19.0036 45.6968 29.4756C45.6968 37.7916 41.2308 44.1826 33.0688 46.0306L44.4648 66.6666H36.9188L25.9848 46.8776H11.3548V66.6666ZM11.3548 18.3106V40.9486H26.9088C34.6088 40.9486 38.7668 36.8676 38.7668 29.6296C38.7668 22.3146 34.6088 18.3106 26.9088 18.3106H11.3548Z" fill="#2F2F2F"/>
<path d="M53.3481 47.1086C53.3481 34.9426 60.9711 26.9346 72.3671 26.9346C83.6091 26.9346 91.0781 34.6346 91.0781 46.1846V48.9566H59.8161C60.0471 57.5806 65.6681 62.0466 72.5981 62.0466C77.8341 62.0466 82.2231 59.5056 84.1481 54.4236H90.6161C88.3831 62.2006 81.6841 67.3596 72.4441 67.3596C60.9711 67.3596 53.3481 59.2746 53.3481 47.1086ZM72.3671 32.0936C65.8221 32.0936 60.6631 36.0976 59.8931 44.2596H84.6101C84.1481 36.1746 78.9121 32.0936 72.3671 32.0936Z" fill="#2F2F2F"/>
<path d="M98.1356 55.1936H104.527C104.681 59.8136 108.685 62.5086 114.691 62.5086C120.62 62.5086 124.393 60.1216 124.393 56.0406C124.393 52.5756 122.545 50.7276 118.002 50.1116L109.917 48.8026C102.525 47.5706 99.1366 44.0286 99.1366 38.1766C99.1366 31.3236 105.682 26.9346 114.229 26.9346C123.392 26.9346 130.014 31.3236 130.091 39.1006H123.854C123.7 34.4036 119.773 31.8626 114.306 31.8626C108.916 31.8626 105.374 34.1726 105.374 38.0226C105.374 41.3336 107.53 42.9506 112.381 43.6436L120.312 44.9526C127.396 46.1076 130.784 49.4956 130.784 55.5016C130.784 63.2016 123.777 67.4366 114.845 67.4366C104.604 67.4366 98.2896 62.6626 98.1356 55.1936Z" fill="#2F2F2F"/>
<path d="M138.695 47.1086C138.695 34.9426 146.318 26.9346 157.714 26.9346C168.956 26.9346 176.425 34.6346 176.425 46.1846V48.9566H145.163C145.394 57.5806 151.015 62.0466 157.945 62.0466C163.181 62.0466 167.57 59.5056 169.495 54.4236H175.963C173.73 62.2006 167.031 67.3596 157.791 67.3596C146.318 67.3596 138.695 59.2746 138.695 47.1086ZM157.714 32.0936C151.169 32.0936 146.01 36.0976 145.24 44.2596H169.957C169.495 36.1746 164.259 32.0936 157.714 32.0936Z" fill="#2F2F2F"/>
<path d="M192.26 66.6666H185.946V27.7046H191.49L192.337 33.2486C193.954 30.1686 197.65 27.7046 202.193 27.7046H207.121V33.5566H201.962C195.263 33.5566 192.26 37.9456 192.26 45.1836V66.6666Z" fill="#2F2F2F"/>
<path d="M210.575 27.7046H217.351L230.21 59.5826L243.146 27.7046H249.922L233.598 66.6666H226.745L210.575 27.7046Z" fill="#2F2F2F"/>
<path d="M253.292 47.1086C253.292 34.9426 260.915 26.9346 272.311 26.9346C283.553 26.9346 291.022 34.6346 291.022 46.1846V48.9566H259.76C259.991 57.5806 265.612 62.0466 272.542 62.0466C277.778 62.0466 282.167 59.5056 284.092 54.4236H290.56C288.327 62.2006 281.628 67.3596 272.388 67.3596C260.915 67.3596 253.292 59.2746 253.292 47.1086ZM272.311 32.0936C265.766 32.0936 260.607 36.0976 259.837 44.2596H284.554C284.092 36.1746 278.856 32.0936 272.311 32.0936Z" fill="#2F2F2F"/>
<path d="M340.298 66.6666H316.043V12.3046H338.373C349.538 12.3046 355.929 17.9256 355.929 26.3956C355.929 31.1696 353.773 35.9436 348.306 38.4846C354.312 40.3326 357.854 45.3376 357.854 51.8056C357.854 60.8146 351.232 66.6666 340.298 66.6666ZM338.142 18.2336H322.665V36.0976H339.066C345.303 36.0976 349.23 32.7866 349.23 27.1656C349.23 21.6986 345.457 18.2336 338.142 18.2336ZM340.067 41.7186H322.665V60.7376H339.451C347.074 60.7376 350.924 57.1186 350.924 51.3436C350.924 45.4146 346.997 41.7186 340.067 41.7186Z" fill="#2F2F2F"/>
<path d="M378.651 67.4366C369.95 67.4366 364.56 62.8936 364.56 55.5016C364.56 49.2646 368.41 44.2596 379.498 44.2596H391.818V42.1036C391.818 35.0966 387.737 32.1706 381.962 32.1706C376.033 32.1706 372.337 35.0196 372.029 39.6396H365.946C366.408 31.4006 373.107 26.9346 382.193 26.9346C391.895 26.9346 398.209 32.2476 398.209 42.0266V58.7356C398.209 61.1996 398.825 61.7386 401.058 61.7386H402.444V66.6666H398.594C395.514 66.6666 392.665 65.4346 392.28 61.3536C389.97 64.9726 384.888 67.4366 378.651 67.4366ZM379.729 62.2006C386.12 62.2006 391.818 58.6586 391.818 50.7276V48.9566H380.114C373.415 48.9566 371.105 51.7286 371.105 55.4246C371.105 59.9676 374.724 62.2006 379.729 62.2006Z" fill="#2F2F2F"/>
<path d="M416.416 45.5686V66.6666H410.102V27.7046H415.646L416.339 33.7106C418.572 29.3986 423.115 26.9346 429.121 26.9346C438.823 26.9346 444.521 33.4026 444.521 43.3356V66.6666H438.207V44.6446C438.207 36.5596 433.972 32.7096 427.658 32.7096C420.343 32.7096 416.416 37.9456 416.416 45.5686Z" fill="#2F2F2F"/>
<path d="M461.46 66.6666H455.069V9.99463H461.383V46.8006L480.248 27.7046H488.256L471.393 44.7216L488.333 66.6666H480.402L466.927 49.1876L461.46 54.6546V66.6666Z" fill="#2F2F2F"/>
<path d="M4.03979 89.8933H15.0508V145.333H4.03979V89.8933Z" fill="#BA644F"/>
<path d="M35.4071 124.158V145.333H24.6271V105.293H34.6371L35.2531 110.067C37.3321 106.756 41.3361 104.523 47.3421 104.523C57.5831 104.523 63.4351 111.299 63.4351 121.54V145.333H52.5781V123.773C52.5781 117.151 49.4211 113.763 44.1851 113.763C38.4871 113.763 35.4071 117.69 35.4071 124.158Z" fill="#BA644F"/>
<path d="M82.7049 124.158V145.333H71.9249V105.293H81.9349L82.5509 110.067C84.6299 106.756 88.6339 104.523 94.6399 104.523C104.881 104.523 110.733 111.299 110.733 121.54V145.333H99.8759V123.773C99.8759 117.151 96.7189 113.763 91.4829 113.763C85.7849 113.763 82.7049 117.69 82.7049 124.158Z" fill="#BA644F"/>
<path d="M117.914 125.313C117.914 112.916 126.615 104.446 138.858 104.446C151.101 104.446 159.802 112.916 159.802 125.313C159.802 137.787 151.101 146.103 138.858 146.103C126.615 146.103 117.914 137.787 117.914 125.313ZM128.925 125.236C128.925 132.32 132.852 136.94 138.858 136.94C144.864 136.94 148.791 132.32 148.791 125.236C148.791 118.075 144.864 113.609 138.858 113.609C132.852 113.609 128.925 118.075 128.925 125.236Z" fill="#BA644F"/>
<path d="M161.09 105.293H172.255L182.804 134.399L193.045 105.293H204.595L188.733 145.333H176.49L161.09 105.293Z" fill="#BA644F"/>
<path d="M220.81 146.103C211.955 146.103 206.257 141.483 206.257 133.783C206.257 126.622 211.031 121.771 221.272 121.771H231.975V120C231.975 115.534 229.126 113.07 224.66 113.07C220.194 113.07 217.191 115.457 217.037 118.999H207.258C207.258 109.99 214.65 104.523 225.122 104.523C233.823 104.523 242.832 108.45 242.832 120.231V135.169C242.832 137.171 243.833 137.479 245.142 137.479H246.759V145.333H240.907C237.365 145.333 234.439 144.101 233.592 140.636C231.359 144.024 226.739 146.103 220.81 146.103ZM223.582 137.633C228.895 137.633 231.975 135.015 231.975 130.241V128.778H223.197C218.577 128.778 217.345 130.934 217.345 133.09C217.345 136.401 220.04 137.633 223.582 137.633Z" fill="#BA644F"/>
<path d="M274.346 145.333H266.184C258.253 145.333 254.403 140.713 254.403 133.475V114.841H248.243V105.293H251.246C253.71 105.293 254.403 104.061 254.403 101.366V94.3593H265.183V105.293H274.346V114.841H265.183V131.088C265.183 134.553 266.107 135.862 269.649 135.862H274.346V145.333Z" fill="#BA644F"/>
<path d="M292.199 99.1333H281.265V88.7383H292.199V99.1333ZM292.199 145.333H281.419V105.293H292.199V145.333Z" fill="#BA644F"/>
<path d="M299.886 125.313C299.886 112.916 308.587 104.446 320.83 104.446C333.073 104.446 341.774 112.916 341.774 125.313C341.774 137.787 333.073 146.103 320.83 146.103C308.587 146.103 299.886 137.787 299.886 125.313ZM310.897 125.236C310.897 132.32 314.824 136.94 320.83 136.94C326.836 136.94 330.763 132.32 330.763 125.236C330.763 118.075 326.836 113.609 320.83 113.609C314.824 113.609 310.897 118.075 310.897 125.236Z" fill="#BA644F"/>
<path d="M360.176 124.158V145.333H349.396V105.293H359.406L360.022 110.067C362.101 106.756 366.105 104.523 372.111 104.523C382.352 104.523 388.204 111.299 388.204 121.54V145.333H377.347V123.773C377.347 117.151 374.19 113.763 368.954 113.763C363.256 113.763 360.176 117.69 360.176 124.158Z" fill="#BA644F"/>
<path d="M446.478 145.333V122.079H422.685V145.333H411.674V89.8933H422.685V112.069H446.478V89.8933H457.489V145.333H446.478Z" fill="#BA644F"/>
<path d="M493.643 145.333L493.104 140.944C491.025 143.947 487.56 146.103 482.786 146.103C472.545 146.103 466.616 139.327 466.616 129.086V105.293H476.857V127.7C476.857 133.937 480.091 136.94 485.173 136.786C490.486 136.709 493.258 133.167 493.258 127.238V105.293H503.499V145.333H493.643Z" fill="#BA644F"/>
<path d="M555 125.313C555 138.634 547.069 146.103 536.058 146.103C529.975 146.103 525.124 143.408 523.122 139.943L522.506 145.333H512.419V87.5063H523.276V110.452C525.355 106.91 530.129 104.523 536.058 104.523C547.531 104.523 555 112.531 555 125.313ZM533.671 114.148C527.819 114.071 523.43 118.383 523.43 125.313C523.43 132.32 527.819 136.478 533.671 136.478C539.6 136.478 543.912 132.243 543.912 125.313C543.912 118.383 539.6 114.148 533.671 114.148Z" fill="#BA644F"/>
</svg>
