<svg viewBox="0 0 64 64" fill="none" xmlns="http://www.w3.org/2000/svg">
<path d="M4.55005 29.6902L17.34 31.2902L31.73 16.9002L22.14 15.3002C21.7742 15.1768 21.3829 15.1488 21.0032 15.2188C20.6235 15.2888 20.2679 15.4544 19.97 15.7002L4.55005 29.6902Z" fill="white"/>
<path d="M34.3699 59.45L32.7699 46.66L47.1599 32.27L48.7599 41.87C48.8766 42.2308 48.9002 42.6153 48.8285 42.9877C48.7568 43.3601 48.5922 43.7083 48.3499 44L34.3699 59.45Z" fill="white"/>
<path d="M11.69 41.7602C13.0824 40.3691 14.9703 39.5882 16.9385 39.5891C18.9067 39.59 20.7939 40.3728 22.185 41.7652C23.576 43.1576 24.357 45.0455 24.3561 47.0137C24.3551 48.9819 23.5724 50.8691 22.18 52.2602C14.84 59.6002 5.38997 60.6502 4.33997 59.6002C3.28997 58.5502 4.33997 49.1102 11.69 41.7602Z" fill="#F7993B"/>
<g style="mix-blend-mode:multiply">
<path d="M14.49 41.7301C14.989 41.2318 15.5813 40.8366 16.2331 40.5671C16.8848 40.2977 17.5833 40.1592 18.2886 40.1597C18.9938 40.1601 19.6921 40.2995 20.3435 40.5698C20.9949 40.8401 21.5866 41.2361 22.085 41.7351C22.5834 42.2342 22.9786 42.8265 23.248 43.4782C23.5175 44.13 23.656 44.8284 23.6555 45.5337C23.655 46.2389 23.5157 46.9372 23.2453 47.5886C22.975 48.24 22.579 48.8318 22.08 49.3301C16.77 54.6402 9.93001 55.4001 9.17001 54.6401C8.41001 53.8801 9.17001 47.0501 14.49 41.7301Z" fill="#F05656"/>
</g>
<path d="M41.56 8.10022C52.75 3.31022 60 4.11022 60 4.11022C60 4.11022 60.8 11.3002 56 22.4902C53.6 28.0902 44.81 36.8802 44.81 36.8802L31.17 50.4802L13.58 32.8902L27.17 19.3002C27.17 19.3002 36 10.5002 41.56 8.10022Z" fill="#B7CDE1"/>
<path d="M15.1821 34.49L29.5718 48.8796L28.405 50.0463C28.285 50.1664 28.1222 50.2338 27.9525 50.2338C27.7827 50.2338 27.62 50.1664 27.4999 50.0463L13.9871 36.5335C13.8793 36.4113 13.8221 36.2525 13.8274 36.0895C13.8327 35.9266 13.8999 35.7718 14.0154 35.6567L15.1821 34.49Z" fill="#F7993B"/>
<g style="mix-blend-mode:multiply">
<path d="M4.55005 29.6902L17.34 31.2902L31.73 16.9002L22.14 15.3002C21.7742 15.1768 21.3829 15.1488 21.0032 15.2188C20.6235 15.2888 20.2679 15.4544 19.97 15.7002L4.55005 29.6902Z" fill="#42CACD"/>
</g>
<g style="mix-blend-mode:multiply">
<path d="M34.3699 59.4503L32.7699 46.6603L47.1599 32.2703L48.7599 41.8703C48.8766 42.2311 48.9002 42.6155 48.8285 42.9879C48.7568 43.3603 48.5922 43.7085 48.3499 44.0003L34.3699 59.4503Z" fill="#42CACD"/>
</g>
<g style="mix-blend-mode:multiply">
<path d="M47.08 21.3702C49.5487 21.3702 51.55 19.3689 51.55 16.9002C51.55 14.4315 49.5487 12.4302 47.08 12.4302C44.6113 12.4302 42.61 14.4315 42.61 16.9002C42.61 19.3689 44.6113 21.3702 47.08 21.3702Z" fill="#B7CDE1"/>
</g>
<g style="mix-blend-mode:multiply">
<path d="M47.02 19.8302C48.5664 19.8302 49.82 18.5766 49.82 17.0302C49.82 15.4838 48.5664 14.2302 47.02 14.2302C45.4736 14.2302 44.22 15.4838 44.22 17.0302C44.22 18.5766 45.4736 19.8302 47.02 19.8302Z" fill="#42CACD"/>
</g>
<path d="M40 28.8904C40.73 27.7904 40.17 25.8904 39.2 24.8904C38.23 23.8904 36.34 23.4104 35.25 24.1304L18.38 45.6804L40 28.8904Z" fill="#42CACD"/>
</svg>
