<svg width="51" height="51" viewBox="0 0 51 51" fill="none" xmlns="http://www.w3.org/2000/svg">
<rect width="50.5" height="50.5" fill="white"/>
<g clip-path="url(#clip0_1290_3794)">
<path d="M25 50C29.9445 50 34.778 48.5338 38.8893 45.7868C43.0005 43.0397 46.2048 39.1353 48.097 34.5671C49.9892 29.9989 50.4843 24.9723 49.5196 20.1228C48.555 15.2732 46.174 10.8187 42.6777 7.32234C39.1814 3.82603 34.7268 1.44501 29.8773 0.480379C25.0277 -0.484251 20.0011 0.0108321 15.4329 1.90302C10.8648 3.79521 6.9603 6.99953 4.21326 11.1108C1.46622 15.222 0 20.0555 0 25C0 31.6304 2.63392 37.9893 7.32233 42.6777C12.0107 47.3661 18.3696 50 25 50Z" fill="#20014B"/>
<path d="M33.0001 33.5714H16.4287V32H32.9916C33.2029 32.0075 33.4035 32.0947 33.553 32.2443C33.7025 32.3938 33.7898 32.5944 33.7973 32.8057C33.7877 33.0126 33.6985 33.2079 33.5484 33.3505C33.3982 33.4932 33.1987 33.5724 32.9916 33.5714" fill="#42CACD"/>
<path d="M31.4287 36.7143H16.4287V35.1428H31.413C31.6202 35.152 31.8157 35.2411 31.9587 35.3913C32.1017 35.5415 32.1811 35.7412 32.1801 35.9485C32.1794 36.1516 32.0983 36.3462 31.9545 36.4896C31.8108 36.6331 31.6161 36.7139 31.413 36.7143" fill="#42CACD"/>
<path d="M33.01 13.2856C33.2132 13.2864 33.4079 13.3675 33.5516 13.5112C33.6953 13.6549 33.7764 13.8496 33.7771 14.0528C33.7777 14.2599 33.6982 14.4593 33.5552 14.6091C33.4123 14.759 33.2169 14.8479 33.01 14.8571H18V13.2856H33.01Z" fill="#42CACD"/>
<path d="M33.0116 16.4285C33.2147 16.4288 33.4094 16.5096 33.5531 16.6531C33.6968 16.7965 33.778 16.9911 33.7787 17.1942C33.7793 17.4015 33.6998 17.601 33.5569 17.7511C33.414 17.9012 33.2186 17.9903 33.0116 17.9999H16.4287V16.4285H33.0116Z" fill="#42CACD"/>
<path d="M21.8986 19.5713C22.1098 19.5791 22.3103 19.6665 22.4597 19.8159C22.6091 19.9654 22.6965 20.1658 22.7043 20.377C22.6947 20.5839 22.6056 20.7791 22.4554 20.9218C22.3052 21.0645 22.1057 21.1437 21.8986 21.1427H14.8572V19.5713H21.8986Z" fill="#42CACD"/>
<path d="M34.3842 28.8572C34.5953 28.8646 34.7957 28.9517 34.9452 29.1009C35.0947 29.2501 35.1821 29.4504 35.1899 29.6615C35.1804 29.8685 35.0912 30.0639 34.9411 30.2068C34.791 30.3497 34.5915 30.4292 34.3842 30.4286H27.2856V28.8572H34.3842Z" fill="#42CACD"/>
<path d="M31.4144 22.7141C31.6173 22.7149 31.8116 22.7958 31.955 22.9392C32.0985 23.0827 32.1794 23.277 32.1801 23.4798C32.1818 23.6872 32.1029 23.8871 31.9601 24.0374C31.8172 24.1877 31.6216 24.2767 31.4144 24.2855H16.4287V22.7141H31.4144Z" fill="#42CACD"/>
<path d="M33 27.2855H18V25.7141H33.0214C33.2285 25.7233 33.4239 25.8124 33.5667 25.9627C33.7094 26.1129 33.7885 26.3126 33.7871 26.5198C33.7864 26.7227 33.7055 26.917 33.562 27.0604C33.4186 27.2039 33.2243 27.2848 33.0214 27.2855" fill="#42CACD"/>
</g>
<defs>
<clipPath id="clip0_1290_3794">
<rect width="50" height="50" fill="white"/>
</clipPath>
</defs>
</svg>
