<svg width="32" height="32" viewBox="0 0 32 32" fill="none" xmlns="http://www.w3.org/2000/svg">
<path d="M24.685 16.5C24.8474 16.5084 25.0038 16.564 25.135 16.66L27.805 18.84C27.8298 18.8586 27.85 18.8828 27.8639 18.9105C27.8778 18.9383 27.885 18.9689 27.885 19C27.885 19.031 27.8778 19.0617 27.8639 19.0894C27.85 19.1172 27.8298 19.1414 27.805 19.16L25.135 21.34C25.0038 21.436 24.8474 21.4916 24.685 21.5H12.255C12.1874 21.5 12.1225 21.4731 12.0747 21.4253C12.0269 21.3775 12 21.3126 12 21.245V16.745C12 16.6774 12.0269 16.6125 12.0747 16.5647C12.1225 16.5169 12.1874 16.49 12.255 16.49L24.685 16.5Z" fill="white"/>
<path d="M24.685 2.5C24.8474 2.50838 25.0038 2.56399 25.135 2.66L27.805 4.84C27.8298 4.85863 27.85 4.88279 27.8639 4.91056C27.8778 4.93833 27.885 4.96895 27.885 5C27.885 5.03105 27.8778 5.06167 27.8639 5.08944C27.85 5.11721 27.8298 5.14137 27.805 5.16L25.135 7.34C25.0038 7.43601 24.8474 7.49162 24.685 7.5H12.255C12.1874 7.5 12.1225 7.47313 12.0747 7.42531C12.0269 7.37749 12 7.31263 12 7.245V2.745C12.0026 2.67912 12.0306 2.6168 12.0781 2.57112C12.1257 2.52544 12.1891 2.49995 12.255 2.5H24.685Z" fill="white"/>
<path d="M5.815 14.5C5.65262 14.4916 5.49622 14.436 5.365 14.34L2.695 12.16C2.67016 12.1414 2.65 12.1172 2.63611 12.0894C2.62223 12.0617 2.615 12.031 2.615 12C2.615 11.969 2.62223 11.9383 2.63611 11.9106C2.65 11.8828 2.67016 11.8586 2.695 11.84L5.365 9.66C5.49622 9.56399 5.65262 9.50838 5.815 9.5H18.245C18.2785 9.5 18.3116 9.5066 18.3426 9.51941C18.3735 9.53223 18.4016 9.55101 18.4253 9.57469C18.449 9.59837 18.4678 9.62648 18.4806 9.65742C18.4934 9.68835 18.5 9.72151 18.5 9.755V14.255C18.5 14.3226 18.4731 14.3875 18.4253 14.4353C18.3775 14.4831 18.3126 14.51 18.245 14.51L5.815 14.5Z" fill="white"/>
<path d="M17 2C17 1.44772 16.5523 1 16 1C15.4477 1 15 1.44772 15 2V27.855C15 28.4073 15.4477 28.855 16 28.855C16.5523 28.855 17 28.4073 17 27.855V2Z" fill="#B7CDE1"/>
<g style="mix-blend-mode:multiply">
<path d="M24.685 16.5C24.8474 16.5084 25.0038 16.564 25.135 16.66L27.805 18.84C27.8298 18.8586 27.85 18.8828 27.8639 18.9105C27.8778 18.9383 27.885 18.9689 27.885 19C27.885 19.031 27.8778 19.0617 27.8639 19.0894C27.85 19.1172 27.8298 19.1414 27.805 19.16L25.135 21.34C25.0038 21.436 24.8474 21.4916 24.685 21.5H12.255C12.1874 21.5 12.1225 21.4731 12.0747 21.4253C12.0269 21.3775 12 21.3126 12 21.245V16.745C12 16.6774 12.0269 16.6125 12.0747 16.5647C12.1225 16.5169 12.1874 16.49 12.255 16.49L24.685 16.5Z" fill="#42CACD"/>
</g>
<g style="mix-blend-mode:multiply">
<path d="M24.685 2.5C24.8474 2.50838 25.0038 2.56399 25.135 2.66L27.805 4.84C27.8298 4.85863 27.85 4.88279 27.8639 4.91056C27.8778 4.93833 27.885 4.96895 27.885 5C27.885 5.03105 27.8778 5.06167 27.8639 5.08944C27.85 5.11721 27.8298 5.14137 27.805 5.16L25.135 7.34C25.0038 7.43601 24.8474 7.49162 24.685 7.5H12.255C12.1874 7.5 12.1225 7.47313 12.0747 7.42531C12.0269 7.37749 12 7.31263 12 7.245V2.745C12.0026 2.67912 12.0306 2.6168 12.0781 2.57112C12.1257 2.52544 12.1891 2.49995 12.255 2.5H24.685Z" fill="#B7CDE1"/>
</g>
<g style="mix-blend-mode:multiply">
<path d="M5.815 14.5C5.65262 14.4916 5.49622 14.436 5.365 14.34L2.695 12.16C2.67016 12.1414 2.65 12.1172 2.63611 12.0894C2.62223 12.0617 2.615 12.031 2.615 12C2.615 11.969 2.62223 11.9383 2.63611 11.9106C2.65 11.8828 2.67016 11.8586 2.695 11.84L5.365 9.66C5.49622 9.56399 5.65262 9.50838 5.815 9.5H18.245C18.2785 9.5 18.3116 9.5066 18.3426 9.51941C18.3735 9.53223 18.4016 9.55101 18.4253 9.57469C18.449 9.59837 18.4678 9.62648 18.4806 9.65742C18.4934 9.68835 18.5 9.72151 18.5 9.755V14.255C18.5 14.3226 18.4731 14.3875 18.4253 14.4353C18.3775 14.4831 18.3126 14.51 18.245 14.51L5.815 14.5Z" fill="#B7CDE1"/>
</g>
<path d="M18.85 26.675C17.5636 26.2343 16.2094 26.0244 14.85 26.055C15.015 25.3798 15.3218 24.7475 15.75 24.2C15.2344 24.4546 14.7565 24.7793 14.33 25.165C14.0676 25.4308 13.8438 25.7321 13.665 26.06C13.32 26.06 13.05 26.06 12.665 26.06C12.3939 25.3289 11.9555 24.6714 11.385 24.14C10.8416 23.6642 10.2319 23.2701 9.575 22.97C9.575 22.97 11.075 24.75 10.76 26.3C10.3484 26.3676 9.94913 26.4956 9.575 26.68C8.8 27.1 7.925 28.145 7.72 31.005H23.18C22.8068 30.0173 22.2277 29.1204 21.4811 28.3738C20.7346 27.6273 19.8377 27.0482 18.85 26.675Z" fill="#36A168"/>
</svg>
