<?xml version="1.0" encoding="UTF-8"?><svg id="Layer_1" xmlns="http://www.w3.org/2000/svg" xmlns:xlink="http://www.w3.org/1999/xlink" viewBox="0 0 129.99 129.99"><defs><style>.cls-1,.cls-2,.cls-3,.cls-4,.cls-5,.cls-6,.cls-7,.cls-8,.cls-9,.cls-10{fill:none;}.cls-11{clip-path:url(#clippath);}.cls-12{fill:#a7a9ab;}.cls-13{fill:#414042;}.cls-14{fill:#58595b;}.cls-2{stroke-linecap:round;}.cls-2,.cls-3,.cls-4,.cls-5,.cls-6,.cls-7,.cls-10{stroke-width:2.52px;}.cls-2,.cls-4,.cls-5,.cls-6,.cls-7,.cls-10{stroke:#d1d3d4;}.cls-2,.cls-10{stroke-linejoin:round;}.cls-3{stroke:#e6e7e8;}.cls-3,.cls-4,.cls-5,.cls-6,.cls-7,.cls-8,.cls-9{stroke-miterlimit:10;}.cls-4{filter:url(#drop-shadow-2);}.cls-5{filter:url(#drop-shadow-4);}.cls-6{filter:url(#drop-shadow-3);}.cls-7{filter:url(#drop-shadow-1);}.cls-15{clip-path:url(#clippath-1);}.cls-16{clip-path:url(#clippath-2);}.cls-8{stroke:#949598;}.cls-8,.cls-9{stroke-width:.19px;}.cls-9{stroke:#6d6e71;}</style><clipPath id="clippath"><circle class="cls-1" cx="64.99" cy="64.99" r="65.4"/></clipPath><clipPath id="clippath-1"><polyline class="cls-1" points="63.99 189.16 63.99 55.39 -5.15 15.47 -5.19 149.31"/></clipPath><filter id="drop-shadow-1" filterUnits="userSpaceOnUse"><feOffset dx="0" dy="0"/><feGaussianBlur result="blur" stdDeviation="3.57"/><feFlood flood-color="#221f20" flood-opacity=".2"/><feComposite in2="blur" operator="in"/><feComposite in="SourceGraphic"/></filter><filter id="drop-shadow-2" filterUnits="userSpaceOnUse"><feOffset dx="0" dy="0"/><feGaussianBlur result="blur-2" stdDeviation="3.57"/><feFlood flood-color="#221f20" flood-opacity=".2"/><feComposite in2="blur-2" operator="in"/><feComposite in="SourceGraphic"/></filter><clipPath id="clippath-2"><polyline class="cls-1" points="63.99 189.16 63.99 55.39 133.13 15.47 133.17 149.31"/></clipPath><filter id="drop-shadow-3" filterUnits="userSpaceOnUse"><feOffset dx="0" dy="0"/><feGaussianBlur result="blur-3" stdDeviation="3.57"/><feFlood flood-color="#221f20" flood-opacity=".2"/><feComposite in2="blur-3" operator="in"/><feComposite in="SourceGraphic"/></filter><filter id="drop-shadow-4" filterUnits="userSpaceOnUse"><feOffset dx="0" dy="0"/><feGaussianBlur result="blur-4" stdDeviation="3.57"/><feFlood flood-color="#221f20" flood-opacity=".2"/><feComposite in2="blur-4" operator="in"/><feComposite in="SourceGraphic"/></filter></defs><g class="cls-11"><polyline class="cls-12" points="63.99 -26.21 17.04 1.33 -6.08 14.52 -5.15 15.47 63.99 55.39 134.07 14.83 133.87 14.5 111.45 1.56 63.99 -26.21"/><polyline class="cls-13" points="63.99 189.16 63.99 55.39 -5.15 15.47 -5.19 149.31"/><line class="cls-9" x1="63.99" y1="55.39" x2="-5.11" y2="15.49"/><line class="cls-9" x1="63.99" y1="59.62" x2="-5.11" y2="19.72"/><line class="cls-9" x1="63.99" y1="63.65" x2="-5.11" y2="23.75"/><line class="cls-9" x1="63.99" y1="67.56" x2="-5.11" y2="27.66"/><line class="cls-9" x1="63.99" y1="71.37" x2="-5.11" y2="31.47"/><line class="cls-9" x1="63.99" y1="75.4" x2="-5.11" y2="35.5"/><line class="cls-9" x1="63.99" y1="79.31" x2="-5.11" y2="39.41"/><line class="cls-9" x1="63.99" y1="83.24" x2="-5.11" y2="43.35"/><line class="cls-9" x1="63.99" y1="87.27" x2="-5.11" y2="47.38"/><line class="cls-9" x1="63.99" y1="91.18" x2="-5.11" y2="51.28"/><line class="cls-9" x1="63.99" y1="95.29" x2="-5.11" y2="55.39"/><line class="cls-9" x1="63.99" y1="99.19" x2="-5.11" y2="59.29"/><line class="cls-9" x1="63.99" y1="103.01" x2="-5.11" y2="63.11"/><line class="cls-9" x1="63.99" y1="107.04" x2="-5.11" y2="67.14"/><line class="cls-9" x1="63.99" y1="110.94" x2="-5.11" y2="71.04"/><line class="cls-9" x1="63.99" y1="114.88" x2="-5.11" y2="74.98"/><line class="cls-9" x1="63.99" y1="118.91" x2="-5.11" y2="79.01"/><line class="cls-9" x1="63.99" y1="122.81" x2="-5.11" y2="82.91"/><line class="cls-9" x1="63.99" y1="126.72" x2="-5.11" y2="86.83"/><line class="cls-9" x1="63.99" y1="130.63" x2="-5.11" y2="90.73"/><line class="cls-9" x1="63.99" y1="134.44" x2="-5.11" y2="94.55"/><line class="cls-9" x1="63.99" y1="138.47" x2="-5.11" y2="98.58"/><line class="cls-9" x1="63.99" y1="142.38" x2="-5.11" y2="102.48"/><line class="cls-9" x1="63.99" y1="146.32" x2="-5.11" y2="106.42"/><line class="cls-9" x1="63.99" y1="150.35" x2="-5.11" y2="110.45"/><line class="cls-9" x1="63.99" y1="154.25" x2="-5.11" y2="114.35"/><line class="cls-9" x1="63.99" y1="158.27" x2="-5.11" y2="118.37"/><line class="cls-9" x1="63.99" y1="162.17" x2="-5.11" y2="122.27"/><line class="cls-9" x1="63.99" y1="165.98" x2="-5.11" y2="126.09"/><line class="cls-9" x1="63.99" y1="189.16" x2="63.99" y2="55.39"/><line class="cls-9" x1="60.62" y1="187.31" x2="60.62" y2="53.76"/><line class="cls-9" x1="56.95" y1="185.14" x2="56.95" y2="51.59"/><line class="cls-9" x1="53.28" y1="182.97" x2="53.28" y2="49.42"/><line class="cls-9" x1="49.61" y1="180.8" x2="49.61" y2="47.25"/><line class="cls-9" x1="45.95" y1="178.63" x2="45.95" y2="45.08"/><line class="cls-9" x1="42.28" y1="176.46" x2="42.28" y2="42.91"/><line class="cls-9" x1="38.61" y1="174.29" x2="38.61" y2="40.74"/><line class="cls-9" x1="34.94" y1="172.12" x2="34.94" y2="38.57"/><line class="cls-9" x1="31.27" y1="170.29" x2="31.27" y2="36.41"/><line class="cls-9" x1="27.6" y1="168.11" x2="27.6" y2="34.23"/><line class="cls-9" x1="23.94" y1="166.06" x2="23.94" y2="32.41"/><line class="cls-9" x1="20.27" y1="164.05" x2="20.27" y2="30.28"/><line class="cls-9" x1="16.6" y1="161.87" x2="16.6" y2="28.11"/><line class="cls-9" x1="12.93" y1="159.7" x2="12.93" y2="25.94"/><line class="cls-9" x1="9.26" y1="157.53" x2="9.26" y2="23.76"/><line class="cls-9" x1="5.59" y1="155.35" x2="5.59" y2="21.59"/><line class="cls-9" x1="1.93" y1="153.18" x2="1.93" y2="19.42"/><g class="cls-15"><line class="cls-7" x1="-5.19" y1="149.31" x2="63.99" y2="55.39"/><line class="cls-4" x1="64.01" y1="189.15" x2="-5.13" y2="15.46"/></g><polyline class="cls-10" points="63.99 55.39 -5.15 15.47 -5.19 149.31"/><polyline class="cls-14" points="63.99 189.16 63.99 55.39 133.13 15.47 133.17 149.31"/><line class="cls-8" x1="63.99" y1="55.39" x2="133.1" y2="15.49"/><line class="cls-8" x1="63.99" y1="59.62" x2="133.1" y2="19.72"/><line class="cls-8" x1="63.99" y1="63.65" x2="133.1" y2="23.75"/><line class="cls-8" x1="63.99" y1="67.56" x2="133.1" y2="27.66"/><line class="cls-8" x1="63.99" y1="71.37" x2="133.1" y2="31.47"/><line class="cls-8" x1="63.99" y1="75.4" x2="133.1" y2="35.5"/><line class="cls-8" x1="63.99" y1="79.31" x2="133.1" y2="39.41"/><line class="cls-8" x1="63.99" y1="83.24" x2="133.1" y2="43.35"/><line class="cls-8" x1="63.99" y1="87.27" x2="133.1" y2="47.38"/><line class="cls-8" x1="63.99" y1="91.18" x2="133.1" y2="51.28"/><line class="cls-8" x1="63.99" y1="95.29" x2="133.1" y2="55.39"/><line class="cls-8" x1="63.99" y1="99.19" x2="133.1" y2="59.29"/><line class="cls-8" x1="63.99" y1="103.01" x2="133.1" y2="63.11"/><line class="cls-8" x1="63.99" y1="107.04" x2="133.1" y2="67.14"/><line class="cls-8" x1="63.99" y1="110.94" x2="133.1" y2="71.04"/><line class="cls-8" x1="63.99" y1="114.88" x2="133.1" y2="74.98"/><line class="cls-8" x1="63.99" y1="118.91" x2="133.1" y2="79.01"/><line class="cls-8" x1="63.99" y1="122.81" x2="133.1" y2="82.91"/><line class="cls-8" x1="63.99" y1="126.72" x2="133.1" y2="86.83"/><line class="cls-8" x1="63.99" y1="130.63" x2="133.1" y2="90.73"/><line class="cls-8" x1="63.99" y1="134.44" x2="133.1" y2="94.55"/><line class="cls-8" x1="63.99" y1="138.47" x2="133.1" y2="98.58"/><line class="cls-8" x1="63.99" y1="142.38" x2="133.1" y2="102.48"/><line class="cls-8" x1="63.99" y1="146.32" x2="133.1" y2="106.42"/><line class="cls-8" x1="63.99" y1="150.35" x2="133.1" y2="110.45"/><line class="cls-8" x1="63.99" y1="154.25" x2="133.1" y2="114.35"/><line class="cls-8" x1="63.99" y1="158.27" x2="133.1" y2="118.37"/><line class="cls-8" x1="63.99" y1="162.17" x2="133.1" y2="122.27"/><line class="cls-8" x1="63.99" y1="165.98" x2="133.1" y2="126.09"/><line class="cls-8" x1="63.99" y1="189.16" x2="63.99" y2="55.39"/><line class="cls-8" x1="67.36" y1="187.31" x2="67.36" y2="53.76"/><line class="cls-8" x1="71.03" y1="185.14" x2="71.03" y2="51.59"/><line class="cls-8" x1="74.7" y1="182.97" x2="74.7" y2="49.42"/><line class="cls-8" x1="78.37" y1="180.8" x2="78.37" y2="47.25"/><line class="cls-8" x1="82.04" y1="178.63" x2="82.04" y2="45.08"/><line class="cls-8" x1="85.7" y1="176.46" x2="85.7" y2="42.91"/><line class="cls-8" x1="89.37" y1="174.29" x2="89.37" y2="40.74"/><line class="cls-8" x1="93.04" y1="172.12" x2="93.04" y2="38.57"/><line class="cls-8" x1="96.71" y1="170.29" x2="96.71" y2="36.41"/><line class="cls-8" x1="100.38" y1="168.11" x2="100.38" y2="34.23"/><line class="cls-8" x1="104.05" y1="166.06" x2="104.05" y2="32.41"/><line class="cls-8" x1="107.71" y1="164.05" x2="107.71" y2="30.28"/><line class="cls-8" x1="111.38" y1="161.87" x2="111.38" y2="28.11"/><line class="cls-8" x1="115.05" y1="159.7" x2="115.05" y2="25.94"/><line class="cls-8" x1="118.72" y1="157.53" x2="118.72" y2="23.76"/><line class="cls-8" x1="122.39" y1="155.35" x2="122.39" y2="21.59"/><line class="cls-8" x1="126.06" y1="153.18" x2="126.06" y2="19.42"/><line class="cls-8" x1="129.72" y1="151.01" x2="129.72" y2="17.24"/><g class="cls-16"><line class="cls-6" x1="133.17" y1="149.31" x2="63.99" y2="55.39"/><line class="cls-5" x1="63.97" y1="189.15" x2="133.12" y2="15.46"/></g><line class="cls-3" x1="63.99" y1="189.16" x2="63.99" y2="55.39"/><polyline class="cls-2" points="63.99 55.39 133.13 15.47 133.17 149.31"/></g></svg>