<svg width="32" height="32" viewBox="0 0 32 32" fill="none" xmlns="http://www.w3.org/2000/svg">
<path d="M23.71 26.8151C23.7102 26.9686 23.6798 27.1207 23.6206 27.2623C23.5613 27.404 23.4745 27.5324 23.365 27.6401C23.1428 27.8604 22.8429 27.9843 22.53 27.9851H9.5C9.18541 27.9857 8.88339 27.8616 8.66 27.6401C8.55055 27.5324 8.46366 27.404 8.40442 27.2623C8.34518 27.1207 8.31478 26.9686 8.315 26.8151V18.5001C8.29291 17.6062 8.4501 16.717 8.77728 15.8848C9.10447 15.0527 9.59502 14.2945 10.22 13.6551C10.846 13.0135 11.594 12.5035 12.42 12.1551C13.2515 11.7986 14.1453 11.61 15.05 11.6001H17C17.9016 11.6079 18.7927 11.7945 19.6218 12.1489C20.4508 12.5034 21.2014 13.0187 21.83 13.6651C22.4464 14.309 22.929 15.0686 23.25 15.9001C23.5757 16.7273 23.7321 17.6114 23.71 18.5001V26.8151Z" fill="white"/>
<path d="M14.21 26.8152C14.2102 26.9688 14.1798 27.1208 14.1206 27.2625C14.0613 27.4041 13.9745 27.5325 13.865 27.6402C13.641 27.8608 13.3394 27.9847 13.025 27.9852H1.185C0.870619 27.9847 0.568998 27.8608 0.345001 27.6402C0.235545 27.5325 0.148658 27.4041 0.0894202 27.2625C0.0301825 27.1208 -0.000216438 26.9688 1.15997e-06 26.8152V19.5002C-0.000193499 18.2829 0.362061 17.0931 1.0406 16.0824C1.71913 15.0717 2.68322 14.2859 3.81 13.8252C4.56332 13.5148 5.37022 13.3551 6.185 13.3552H7.965C8.7848 13.348 9.59799 13.5023 10.3581 13.8094C11.1182 14.1166 11.8104 14.5705 12.395 15.1452C12.974 15.7151 13.433 16.3951 13.745 17.1452C14.0571 17.8909 14.2152 18.6919 14.21 19.5002V26.8152Z" fill="#B7CDE1"/>
<path d="M32 26.8151C32.0002 26.9686 31.9698 27.1207 31.9106 27.2623C31.8513 27.404 31.7645 27.5324 31.655 27.6401C31.431 27.8607 31.1294 27.9845 30.815 27.9851H19C18.845 27.9852 18.6914 27.9548 18.5482 27.8956C18.4049 27.8365 18.2747 27.7496 18.165 27.6401C18.054 27.5333 17.9657 27.4052 17.9055 27.2634C17.8454 27.1216 17.8146 26.9691 17.815 26.8151V19.5251C17.8094 18.714 17.9658 17.9099 18.275 17.1601C18.7491 16.033 19.5452 15.0708 20.5636 14.394C21.5819 13.7172 22.7773 13.3558 24 13.3551H25.775C26.5929 13.3507 27.4036 13.5088 28.16 13.8201C29.2991 14.2751 30.2747 15.0628 30.9597 16.0805C31.6447 17.0981 32.0072 18.2984 32 19.5251V26.8151Z" fill="#B7CDE1"/>
<path d="M6.81 12.77C7.4537 12.7696 8.0831 12.5801 8.62 12.225C9.15091 11.8722 9.56535 11.3699 9.81097 10.7817C10.0566 10.1935 10.1224 9.54562 10 8.92001C9.86446 8.29522 9.549 7.72376 9.09254 7.27611C8.63608 6.82847 8.05858 6.52421 7.43126 6.40088C6.80394 6.27754 6.15423 6.34051 5.56228 6.58203C4.97032 6.82354 4.462 7.23304 4.1 7.76001C3.68347 8.37834 3.49554 9.12254 3.56855 9.86449C3.64156 10.6064 3.97094 11.2997 4.5 11.825C5.11509 12.4326 5.94545 12.7723 6.81 12.77V12.77Z" fill="#B7CDE1"/>
<path d="M16 11.0001C16.7108 11.0039 17.4068 10.7968 18 10.4051C18.5799 10.0212 19.0323 9.4733 19.2994 8.83123C19.5666 8.18915 19.6364 7.48205 19.5 6.80012C19.3547 6.11342 19.0063 5.48627 18.5 5.00012C17.9986 4.50937 17.3649 4.17559 16.6766 4.0397C15.9883 3.90381 15.2753 3.97173 14.625 4.23512C13.9784 4.50193 13.4239 4.95209 13.03 5.53012C12.5711 6.21183 12.3667 7.03327 12.4527 7.85053C12.5386 8.66779 12.9094 9.42876 13.5 10.0001C14.1706 10.6474 15.068 11.0064 16 11.0001V11.0001Z" fill="#42CACD"/>
<path d="M25.165 12.7701C25.8071 12.7696 26.4349 12.5801 26.97 12.2251C27.5057 11.8746 27.9238 11.3712 28.17 10.7801C28.4178 10.193 28.4823 9.54461 28.355 8.92014C28.2263 8.29389 27.9149 7.71982 27.4602 7.27042C27.0054 6.82102 26.4277 6.51644 25.8 6.39514C25.17 6.2682 24.5165 6.33001 23.9215 6.57282C23.3265 6.81564 22.8163 7.22866 22.455 7.76014C22.0353 8.37771 21.8459 9.12311 21.92 9.86612C21.994 10.6091 22.3267 11.3025 22.86 11.8251C23.4739 12.4315 24.3022 12.7711 25.165 12.7701Z" fill="#B7CDE1"/>
<g style="mix-blend-mode:multiply">
<path d="M23.71 26.8151C23.7102 26.9686 23.6798 27.1207 23.6206 27.2623C23.5613 27.404 23.4745 27.5324 23.365 27.6401C23.1428 27.8604 22.8429 27.9843 22.53 27.9851H9.5C9.18541 27.9857 8.88339 27.8616 8.66 27.6401C8.55055 27.5324 8.46366 27.404 8.40442 27.2623C8.34518 27.1207 8.31478 26.9686 8.315 26.8151V18.5001C8.29291 17.6062 8.4501 16.717 8.77728 15.8848C9.10447 15.0527 9.59502 14.2945 10.22 13.6551C10.846 13.0135 11.594 12.5035 12.42 12.1551C13.2515 11.7986 14.1453 11.61 15.05 11.6001H17C17.9016 11.6079 18.7927 11.7945 19.6218 12.1489C20.4508 12.5034 21.2014 13.0187 21.83 13.6651C22.4464 14.309 22.929 15.0686 23.25 15.9001C23.5757 16.7273 23.7321 17.6114 23.71 18.5001V26.8151Z" fill="#42CACD"/>
</g>
</svg>
