<svg width="48" height="48" viewBox="0 0 48 48" fill="none" xmlns="http://www.w3.org/2000/svg">
<path d="M24 45C35.598 45 45 35.598 45 24C45 12.402 35.598 3 24 3C12.402 3 3 12.402 3 24C3 35.598 12.402 45 24 45Z" fill="#A0E5E6"/>
<path d="M39.8175 9.56187L41.6775 10.1544L45.405 6.57688L43.5375 5.98438L39.8175 9.56187Z" fill="white"/>
<path d="M38.58 8.37L37.9575 6.5775L41.6775 3L42.3 4.7925L38.58 8.37Z" fill="white"/>
<path d="M24 3C19.8466 3 15.7865 4.23163 12.333 6.53914C8.8796 8.84665 6.18798 12.1264 4.59854 15.9636C3.0091 19.8009 2.59323 24.0233 3.40352 28.0969C4.21381 32.1705 6.21386 35.9123 9.15077 38.8492C12.0877 41.7861 15.8295 43.7862 19.9031 44.5965C23.9767 45.4068 28.1991 44.9909 32.0364 43.4015C35.8736 41.812 39.1534 39.1204 41.4609 35.667C43.7684 32.2135 45 28.1534 45 24C45 18.4305 42.7875 13.089 38.8492 9.15076C34.911 5.21249 29.5696 3 24 3ZM24 41.25C20.5883 41.25 17.2532 40.2383 14.4164 38.3429C11.5797 36.4474 9.3687 33.7533 8.06309 30.6013C6.75748 27.4493 6.41587 23.9809 7.08146 20.6347C7.74706 17.2885 9.38996 14.2149 11.8024 11.8024C14.2149 9.38995 17.2885 7.74705 20.6347 7.08145C23.9809 6.41586 27.4493 6.75747 30.6013 8.06308C33.7533 9.36869 36.4474 11.5797 38.3429 14.4164C40.2383 17.2532 41.25 20.5883 41.25 24C41.25 28.575 39.4326 32.9626 36.1976 36.1976C32.9626 39.4326 28.575 41.25 24 41.25Z" fill="#42CACD"/>
<path d="M24 27.75C26.0711 27.75 27.75 26.0711 27.75 24C27.75 21.9289 26.0711 20.25 24 20.25C21.9289 20.25 20.25 21.9289 20.25 24C20.25 26.0711 21.9289 27.75 24 27.75Z" fill="#42CACD"/>
<path d="M24 10.875C21.4041 10.875 18.8665 11.6448 16.7081 13.087C14.5498 14.5292 12.8675 16.579 11.8741 18.9773C10.8807 21.3756 10.6208 24.0146 11.1272 26.5606C11.6336 29.1066 12.8837 31.4452 14.7192 33.2808C16.5548 35.1163 18.8934 36.3664 21.4394 36.8728C23.9854 37.3792 26.6244 37.1193 29.0227 36.1259C31.421 35.1325 33.4709 33.4503 34.913 31.2919C36.3552 29.1335 37.125 26.5959 37.125 24C37.123 20.5196 35.7396 17.1824 33.2786 14.7214C30.8176 12.2604 27.4804 10.877 24 10.875ZM24 33.375C22.1458 33.375 20.3332 32.8252 18.7915 31.795C17.2498 30.7649 16.0482 29.3007 15.3386 27.5877C14.6291 25.8746 14.4434 23.9896 14.8051 22.171C15.1669 20.3525 16.0598 18.682 17.3709 17.3709C18.682 16.0598 20.3525 15.1669 22.171 14.8051C23.9896 14.4434 25.8746 14.6291 27.5877 15.3386C29.3007 16.0482 30.7649 17.2498 31.795 18.7915C32.8252 20.3332 33.375 22.1458 33.375 24C33.375 26.4864 32.3873 28.871 30.6291 30.6291C28.871 32.3873 26.4864 33.375 24 33.375Z" fill="#42CACD"/>
<g style="mix-blend-mode:multiply">
<path d="M39.8175 9.56188L41.6775 10.1544L45.405 6.57688L43.5375 5.98438L39.8175 9.56188Z" fill="#F05656"/>
</g>
<g style="mix-blend-mode:multiply">
<path d="M38.58 8.37L37.9575 6.5775L41.6775 3L42.3 4.7925L38.58 8.37Z" fill="#F05656"/>
</g>
<g style="mix-blend-mode:multiply">
<path d="M23.5049 24.0446C23.6733 24.2034 23.896 24.2918 24.1274 24.2918C24.3589 24.2918 24.5815 24.2034 24.7499 24.0446L43.3649 6.14962C43.4445 6.07206 43.5078 5.97934 43.551 5.87693C43.5942 5.77453 43.6165 5.66451 43.6165 5.55337C43.6165 5.44223 43.5942 5.33221 43.551 5.22981C43.5078 5.1274 43.4445 5.03468 43.3649 4.95712C43.1965 4.79837 42.9739 4.70996 42.7424 4.70996C42.511 4.70996 42.2883 4.79837 42.1199 4.95712L23.5049 22.8521C23.4253 22.9297 23.3621 23.0224 23.3189 23.1248C23.2757 23.2272 23.2534 23.3372 23.2534 23.4484C23.2534 23.5595 23.2757 23.6695 23.3189 23.7719C23.3621 23.8743 23.4253 23.9671 23.5049 24.0446Z" fill="#20014B"/>
</g>
</svg>
