<svg viewBox="0 0 64 64" fill="none" xmlns="http://www.w3.org/2000/svg">
<path d="M14.3401 54C15.1312 54 15.9046 53.7654 16.5624 53.3259C17.2202 52.8864 17.7329 52.2616 18.0356 51.5307C18.3384 50.7998 18.4176 49.9956 18.2632 49.2196C18.1089 48.4437 17.7279 47.731 17.1685 47.1716C16.6091 46.6122 15.8964 46.2312 15.1204 46.0769C14.3445 45.9225 13.5403 46.0017 12.8094 46.3045C12.0784 46.6072 11.4537 47.1199 11.0142 47.7777C10.5747 48.4355 10.3401 49.2089 10.3401 50C10.3401 51.0609 10.7615 52.0783 11.5117 52.8284C12.2618 53.5786 13.2792 54 14.3401 54Z" fill="white"/>
<path d="M7 60C7.59334 60 8.17336 59.8241 8.66671 59.4944C9.16006 59.1648 9.54458 58.6962 9.77164 58.148C9.9987 57.5999 10.0581 56.9967 9.94236 56.4147C9.8266 55.8328 9.54088 55.2982 9.12132 54.8787C8.70176 54.4591 8.16721 54.1734 7.58527 54.0576C7.00333 53.9419 6.40013 54.0013 5.85195 54.2284C5.30377 54.4554 4.83524 54.8399 4.50559 55.3333C4.17595 55.8266 4 56.4067 4 57C4 57.7957 4.31607 58.5587 4.87868 59.1213C5.44129 59.6839 6.20435 60 7 60V60Z" fill="white"/>
<path d="M50.77 7.80018L52.89 3.93018L55 7.80018L58.89 9.93018L55 12.0502L52.89 15.9302L50.77 12.0502L46.89 9.93018L50.77 7.80018Z" fill="white"/>
<path d="M45.18 45.2801L48 40.1001L50.83 45.2801L56 48.0901L50.82 50.9201L48 56.1001L45.19 50.9201L40 48.0901L45.18 45.2801Z" fill="white"/>
<path d="M9.74003 9.58L11.15 7L12.57 9.58L15.16 11L12.57 12.41L11.15 15L9.74003 12.41L7.16003 11L9.74003 9.58Z" fill="white"/>
<g style="mix-blend-mode:multiply">
<path d="M50.77 7.80018L52.89 3.93018L55 7.80018L58.89 9.93018L55 12.0502L52.89 15.9302L50.77 12.0502L46.89 9.93018L50.77 7.80018Z" fill="#42CACD"/>
</g>
<g style="mix-blend-mode:multiply">
<path d="M45.18 45.2801L48 40.1001L50.83 45.2801L56 48.0901L50.82 50.9201L48 56.1001L45.19 50.9201L40 48.0901L45.18 45.2801Z" fill="#FEB452"/>
</g>
<g style="mix-blend-mode:multiply">
<path d="M9.74003 9.58024L11.15 7.00024L12.57 9.58024L15.16 11.0002L12.57 12.4102L11.15 15.0002L9.74003 12.4102L7.16003 11.0002L9.74003 9.58024Z" fill="#42CACD"/>
</g>
<path d="M60.13 27.4702C60.1195 25.3793 59.2814 23.3776 57.7991 21.9028C56.3169 20.4281 54.311 19.6002 52.22 19.6002C51.5456 19.6094 50.8744 19.6967 50.22 19.8602C49.9613 18.6547 49.4274 17.5253 48.66 16.5602C47.8949 15.5911 46.9115 14.8167 45.79 14.3002C44.6727 13.777 43.4482 13.5234 42.215 13.5598C40.9818 13.5963 39.7744 13.9218 38.69 14.5102C38.218 13.4939 37.5355 12.5894 36.6876 11.8567C35.8396 11.1241 34.8457 10.5799 33.7717 10.2604C32.6976 9.94078 31.5679 9.85307 30.4574 10.003C29.3468 10.153 28.2809 10.5372 27.33 11.1302C26.0356 11.9081 24.9938 13.0437 24.33 14.4002C22.8754 13.7304 21.2706 13.4536 19.6756 13.5975C18.0807 13.7413 16.5513 14.3009 15.24 15.2202C13.7369 16.3182 12.6062 17.8502 12 19.6102C10.1453 19.5715 8.337 20.1927 6.8975 21.363C5.45801 22.5332 4.4808 24.1766 4.14002 26.0002C3.78464 27.8194 4.08956 29.7057 5.00002 31.3202C5.9109 32.9303 7.35855 34.1691 9.09002 34.8202C9.02936 35.2106 8.99927 35.6051 9.00002 36.0002C9.00881 37.6042 9.50501 39.1676 10.4228 40.483C11.3406 41.7984 12.6366 42.8038 14.139 43.3657C15.6413 43.9276 17.279 44.0194 18.8347 43.6291C20.3905 43.2388 21.7908 42.3847 22.85 41.1802C23.7668 42.6368 25.0125 43.8579 26.487 44.7454C27.9616 45.6329 29.6238 46.162 31.34 46.2902C33.0482 46.4176 34.7621 46.1365 36.34 45.4702C37.9308 44.8092 39.3425 43.7812 40.46 42.4702C41.6461 43.2993 43.0368 43.7871 44.4809 43.8805C45.925 43.974 47.367 43.6695 48.65 43.0002C49.9283 42.3306 50.9996 41.3248 51.7485 40.0913C52.4974 38.8578 52.8956 37.4433 52.9 36.0002V35.3702C54.8716 35.1995 56.7068 34.2931 58.0408 32.8313C59.3748 31.3694 60.1099 29.4592 60.1 27.4802L60.13 27.4702ZM35.41 24.9402L35.01 24.8402C35.11 24.8402 36.13 25.4802 35.29 24.7102L35.41 24.9402Z" fill="#B7CDE1"/>
<g style="mix-blend-mode:multiply">
<path d="M43.86 32.0002C44.6511 32.0002 45.4245 31.7657 46.0823 31.3261C46.7401 30.8866 47.2528 30.2619 47.5555 29.531C47.8583 28.8001 47.9375 27.9958 47.7831 27.2199C47.6288 26.444 47.2478 25.7312 46.6884 25.1718C46.129 24.6124 45.4163 24.2314 44.6403 24.0771C43.8644 23.9228 43.0602 24.002 42.3293 24.3047C41.5983 24.6075 40.9736 25.1202 40.5341 25.778C40.0946 26.4358 39.86 27.2091 39.86 28.0002C39.86 29.0611 40.2814 30.0785 41.0316 30.8287C41.7817 31.5788 42.7991 32.0002 43.86 32.0002Z" fill="#B7CDE1"/>
</g>
<g style="mix-blend-mode:multiply">
<path d="M31.9401 32C32.7312 32 33.5045 31.7654 34.1623 31.3259C34.8201 30.8864 35.3328 30.2616 35.6356 29.5307C35.9383 28.7998 36.0175 27.9956 35.8632 27.2196C35.7089 26.4437 35.3279 25.731 34.7685 25.1716C34.2091 24.6122 33.4963 24.2312 32.7204 24.0769C31.9445 23.9225 31.1402 24.0017 30.4093 24.3045C29.6784 24.6072 29.0537 25.1199 28.6142 25.7777C28.1747 26.4355 27.9401 27.2089 27.9401 28C27.9401 29.0609 28.3615 30.0783 29.1116 30.8284C29.8618 31.5786 30.8792 32 31.9401 32Z" fill="#B7CDE1"/>
</g>
<g style="mix-blend-mode:multiply">
<path d="M20.48 32.0002C21.2711 32.0002 22.0445 31.7657 22.7023 31.3261C23.3601 30.8866 23.8727 30.2619 24.1755 29.531C24.4783 28.8001 24.5575 27.9958 24.4031 27.2199C24.2488 26.444 23.8678 25.7312 23.3084 25.1718C22.749 24.6124 22.0363 24.2314 21.2603 24.0771C20.4844 23.9228 19.6802 24.002 18.9492 24.3047C18.2183 24.6075 17.5936 25.1202 17.1541 25.778C16.7146 26.4358 16.48 27.2091 16.48 28.0002C16.48 29.0611 16.9014 30.0785 17.6516 30.8287C18.4017 31.5788 19.4191 32.0002 20.48 32.0002Z" fill="#B7CDE1"/>
</g>
<g style="mix-blend-mode:multiply">
<path d="M14.3401 54.0002C15.1312 54.0002 15.9046 53.7656 16.5624 53.3261C17.2202 52.8866 17.7329 52.2619 18.0356 51.531C18.3384 50.8001 18.4176 49.9958 18.2632 49.2199C18.1089 48.444 17.7279 47.7312 17.1685 47.1718C16.6091 46.6124 15.8964 46.2314 15.1204 46.0771C14.3445 45.9228 13.5403 46.002 12.8094 46.3047C12.0784 46.6075 11.4537 47.1202 11.0142 47.778C10.5747 48.4358 10.3401 49.2091 10.3401 50.0002C10.3401 51.0611 10.7615 52.0785 11.5117 52.8287C12.2618 53.5788 13.2792 54.0002 14.3401 54.0002Z" fill="#B7CDE1"/>
</g>
<g style="mix-blend-mode:multiply">
<path d="M7 60.0002C7.59334 60.0002 8.17336 59.8243 8.66671 59.4946C9.16006 59.165 9.54458 58.6965 9.77164 58.1483C9.9987 57.6001 10.0581 56.9969 9.94236 56.415C9.8266 55.833 9.54088 55.2985 9.12132 54.8789C8.70176 54.4594 8.16721 54.1736 7.58527 54.0579C7.00333 53.9421 6.40013 54.0015 5.85195 54.2286C5.30377 54.4557 4.83524 54.8402 4.50559 55.3335C4.17595 55.8269 4 56.4069 4 57.0002C4 57.7959 4.31607 58.559 4.87868 59.1216C5.44129 59.6842 6.20435 60.0002 7 60.0002V60.0002Z" fill="#B7CDE1"/>
</g>
</svg>
