<svg viewBox="0 0 420 129" fill="none" xmlns="http://www.w3.org/2000/svg">
<g clip-path="url(#clip0_295_129886)">
<path d="M190.694 4.42951C190.503 4.59045 190.253 4.70749 189.959 4.72212C189.665 4.72212 189.385 4.57582 189.223 4.34173C188.929 3.82966 189.047 3.2298 189.415 2.82014C189.812 2.39585 190.621 2.45438 190.974 2.96645C191.165 3.20054 191.239 3.52241 191.15 3.80039C191.062 4.07838 190.9 4.29783 190.694 4.44414V4.42951ZM190.665 4.40025C191.077 4.04911 190.856 3.49315 190.65 3.21517C190.4 2.92256 189.944 2.76162 189.547 2.99571C189.106 3.20054 189.121 3.88818 189.474 4.1369C189.621 4.2832 189.782 4.40025 189.988 4.4734C190.194 4.56119 190.459 4.54656 190.665 4.40025Z" fill="#939598"/>
<path d="M230.688 9.57941C230.497 9.74035 230.247 9.85739 229.953 9.87203C229.659 9.87203 229.379 9.72572 229.217 9.49163C228.923 8.97956 229.041 8.3797 229.409 7.97004C229.806 7.54576 230.615 7.60428 230.968 8.11635C231.159 8.35044 231.233 8.67232 231.144 8.9503C231.056 9.22828 230.894 9.44774 230.688 9.59404V9.57941ZM230.659 9.55015C231.071 9.19902 230.85 8.64305 230.644 8.36507C230.394 8.07246 229.938 7.91152 229.541 8.14561C229.1 8.35044 229.114 9.03808 229.467 9.2868C229.615 9.43311 229.776 9.55015 229.982 9.6233C230.188 9.71109 230.453 9.69646 230.659 9.55015Z" fill="#939598"/>
<path d="M307.44 28.3067C307.249 28.4676 306.999 28.5847 306.705 28.5993C306.41 28.5993 306.131 28.453 305.969 28.2189C305.675 27.7069 305.793 27.107 306.16 26.6973C306.557 26.2731 307.366 26.3316 307.719 26.8436C307.911 27.0777 307.984 27.3996 307.896 27.6776C307.808 27.9556 307.646 28.175 307.44 28.3213V28.3067ZM307.411 28.2774C307.822 27.9263 307.602 27.3703 307.396 27.0924C307.146 26.7998 306.69 26.6388 306.293 26.8729C305.851 27.0777 305.866 27.7654 306.219 28.0141C306.366 28.1604 306.528 28.2774 306.734 28.3506C306.94 28.4384 307.205 28.4238 307.396 28.2774H307.411Z" fill="#939598"/>
<path d="M239.631 41.5328C239.44 41.6937 239.19 41.8108 238.896 41.8254C238.602 41.8254 238.322 41.6791 238.16 41.445C237.866 40.9329 237.984 40.3331 238.352 39.9234C238.749 39.4991 239.558 39.5576 239.911 40.0697C240.102 40.3038 240.176 40.6257 240.087 40.9037C239.999 41.1816 239.837 41.4011 239.631 41.5474V41.5328ZM239.602 41.5035C240.014 41.1524 239.793 40.5964 239.587 40.3184C239.337 40.0258 238.881 39.8649 238.484 40.099C238.043 40.3038 238.057 40.9914 238.41 41.2402C238.558 41.3865 238.719 41.5035 238.925 41.5767C239.131 41.6645 239.396 41.6498 239.587 41.5035H239.602Z" fill="#939598"/>
<path d="M271.447 29.243C271.256 29.4039 271.006 29.521 270.712 29.5356C270.417 29.5356 270.138 29.3893 269.976 29.1552C269.682 28.6431 269.8 28.0433 270.167 27.6336C270.564 27.2093 271.373 27.2679 271.726 27.7799C271.918 28.014 271.991 28.3359 271.903 28.6139C271.815 28.8919 271.653 29.1113 271.447 29.2576V29.243ZM271.418 29.2137C271.829 28.8626 271.609 28.3066 271.403 28.0286C271.153 27.736 270.697 27.5751 270.3 27.8092C269.858 28.014 269.873 28.7017 270.226 28.9504C270.373 29.0967 270.535 29.2137 270.741 29.2869C270.947 29.3747 271.212 29.36 271.403 29.2137H271.418Z" fill="#939598"/>
<path d="M167.851 28.3067C167.66 28.4676 167.41 28.5847 167.116 28.5993C166.822 28.5993 166.542 28.453 166.38 28.2189C166.086 27.7069 166.204 27.107 166.572 26.6973C166.969 26.2731 167.778 26.3316 168.131 26.8436C168.322 27.0777 168.396 27.3996 168.307 27.6776C168.219 27.9556 168.057 28.175 167.851 28.3213V28.3067ZM167.822 28.2774C168.234 27.9263 168.013 27.3703 167.807 27.0924C167.557 26.7998 167.101 26.6388 166.704 26.8729C166.263 27.0777 166.277 27.7654 166.63 28.0141C166.777 28.1604 166.939 28.2774 167.145 28.3506C167.351 28.4384 167.616 28.4238 167.822 28.2774Z" fill="#939598"/>
<path d="M136.286 19.7038C136.094 19.8647 135.844 19.9818 135.55 19.9964C135.256 19.9964 134.977 19.8501 134.815 19.616C134.521 19.1039 134.638 18.5041 135.006 18.0944C135.403 17.6701 136.212 17.7287 136.565 18.2407C136.756 18.4748 136.83 18.7967 136.742 19.0747C136.653 19.3527 136.492 19.5721 136.286 19.7184V19.7038ZM136.256 19.6745C136.668 19.3234 136.447 18.7674 136.242 18.4895C135.991 18.1968 135.535 18.0359 135.138 18.27C134.697 18.4748 134.712 19.1625 135.065 19.4112C135.212 19.5575 135.374 19.6745 135.58 19.7477C135.786 19.8355 136.05 19.8208 136.242 19.6745H136.256Z" fill="#939598"/>
<path d="M133.564 49.6381C133.373 49.7991 133.123 49.9161 132.829 49.9307C132.535 49.9307 132.255 49.7844 132.094 49.5503C131.799 49.0383 131.917 48.4384 132.285 48.0288C132.682 47.6045 133.491 47.663 133.844 48.1751C134.035 48.4092 134.109 48.731 134.02 49.009C133.932 49.287 133.77 49.5064 133.564 49.6528V49.6381ZM133.535 49.6089C133.947 49.2577 133.726 48.7018 133.52 48.4238C133.27 48.1312 132.814 47.9702 132.417 48.2043C131.976 48.4092 131.991 49.0968 132.344 49.3455C132.491 49.4918 132.653 49.6089 132.858 49.682C133.064 49.7698 133.329 49.7552 133.535 49.6089Z" fill="#939598"/>
<path d="M324.664 50.9841C324.473 51.145 324.223 51.2621 323.929 51.2767C323.635 51.2767 323.355 51.1304 323.193 50.8963C322.899 50.3842 323.017 49.7844 323.385 49.3747C323.782 48.9504 324.591 49.0089 324.944 49.521C325.135 49.7551 325.209 50.077 325.12 50.355C325.032 50.6329 324.87 50.8524 324.664 50.9987V50.9841ZM324.635 50.9548C325.047 50.6037 324.826 50.0477 324.62 49.7697C324.37 49.4771 323.914 49.3162 323.517 49.5503C323.076 49.7551 323.09 50.4427 323.444 50.6915C323.591 50.8378 323.752 50.9548 323.958 51.028C324.164 51.1158 324.429 51.1011 324.635 50.9548Z" fill="#939598"/>
<path d="M363.673 49.9307C363.481 50.0917 363.231 50.2087 362.937 50.2233C362.643 50.2233 362.364 50.077 362.202 49.8429C361.908 49.3309 362.025 48.731 362.393 48.3214C362.79 47.8971 363.599 47.9556 363.952 48.4677C364.143 48.7018 364.217 49.0236 364.129 49.3016C364.04 49.5796 363.879 49.7991 363.673 49.9454V49.9307ZM363.643 49.9015C364.055 49.5503 363.834 48.9944 363.629 48.7164C363.378 48.4238 362.922 48.2628 362.525 48.4969C362.084 48.7018 362.099 49.3894 362.452 49.6381C362.599 49.7844 362.761 49.9015 362.967 49.9746C363.173 50.0624 363.437 50.0478 363.629 49.9015H363.643Z" fill="#939598"/>
<path d="M406.476 57.1143C406.285 57.2753 406.035 57.3923 405.741 57.4069C405.446 57.4069 405.167 57.2606 405.005 57.0265C404.711 56.5145 404.829 55.9146 405.196 55.505C405.593 55.0807 406.402 55.1392 406.755 55.6513C406.947 55.8854 407.02 56.2072 406.932 56.4852C406.844 56.7632 406.682 56.9826 406.476 57.129V57.1143ZM406.447 57.0851C406.858 56.7339 406.638 56.178 406.432 55.9C406.182 55.6074 405.726 55.4464 405.329 55.6805C404.887 55.8854 404.902 56.573 405.255 56.8217C405.402 56.968 405.564 57.0851 405.77 57.1582C405.976 57.246 406.241 57.2314 406.447 57.0851Z" fill="#939598"/>
<path d="M412.036 94.7004C411.845 94.8613 411.595 94.9784 411.301 94.993C411.006 94.993 410.727 94.8467 410.565 94.6126C410.271 94.1005 410.389 93.5007 410.756 93.091C411.153 92.6667 411.962 92.7253 412.315 93.2373C412.507 93.4714 412.58 93.7933 412.492 94.0713C412.404 94.3493 412.242 94.5687 412.036 94.715V94.7004ZM412.007 94.6711C412.418 94.32 412.198 93.764 411.992 93.486C411.742 93.1934 411.286 93.0325 410.889 93.2666C410.447 93.4714 410.462 94.159 410.815 94.4078C410.962 94.5541 411.124 94.6711 411.33 94.7443C411.536 94.8321 411.801 94.8174 411.992 94.6711H412.007Z" fill="#939598"/>
<path d="M59.1221 65.41C58.9308 65.5709 58.6808 65.688 58.3866 65.7026C58.0924 65.7026 57.8129 65.5563 57.6511 65.3222C57.357 64.8101 57.4746 64.2103 57.8424 63.8006C58.2395 63.3763 59.0485 63.4348 59.4015 63.9469C59.5927 64.181 59.6663 64.5029 59.578 64.7809C59.4898 65.0588 59.328 65.2783 59.1221 65.4246V65.41ZM59.0926 65.3807C59.5045 65.0296 59.2839 64.4736 59.0779 64.1956C58.8279 63.903 58.3719 63.7421 57.9747 63.9762C57.5335 64.181 57.5482 64.8686 57.9012 65.1174C58.0483 65.2637 58.2101 65.3807 58.416 65.4539C58.6219 65.5417 58.8867 65.527 59.0926 65.3807Z" fill="#939598"/>
<path d="M90.2464 33.8956C90.0552 34.0565 89.8051 34.1736 89.5109 34.1882C89.2168 34.1882 88.9373 34.0419 88.7755 33.8078C88.4813 33.2957 88.599 32.6959 88.9667 32.2862C89.3639 31.8619 90.1729 31.9204 90.5259 32.4325C90.7171 32.6666 90.7906 32.9885 90.7024 33.2665C90.6141 33.5444 90.4523 33.7639 90.2464 33.9102V33.8956ZM90.217 33.8663C90.6288 33.5152 90.4082 32.9592 90.2023 32.6812C89.9522 32.3886 89.4962 32.2277 89.0991 32.4618C88.6578 32.6666 88.6725 33.3542 89.0255 33.603C89.1726 33.7493 89.3344 33.8663 89.5404 33.9395C89.7463 34.0273 90.0111 34.0126 90.2023 33.8663H90.217Z" fill="#939598"/>
<path d="M5.75766 107.414C5.56644 107.575 5.31639 107.692 5.02221 107.707C4.72802 107.707 4.44855 107.561 4.28675 107.327C3.99257 106.815 4.11025 106.215 4.47797 105.805C4.87512 105.381 5.68411 105.439 6.03713 105.951C6.22835 106.186 6.30189 106.507 6.21364 106.785C6.12538 107.063 5.96358 107.283 5.75766 107.429V107.414ZM5.72824 107.385C6.14009 107.034 5.91946 106.478 5.71353 106.2C5.46348 105.908 5.0075 105.747 4.61035 105.981C4.16908 106.186 4.18379 106.873 4.53681 107.122C4.6839 107.268 4.8457 107.385 5.05162 107.458C5.25755 107.546 5.52231 107.532 5.71353 107.385H5.72824Z" fill="#939598"/>
<path d="M12.9945 70.3843C12.8033 70.5453 12.5532 70.6623 12.2591 70.677C11.9649 70.677 11.6854 70.5307 11.5236 70.2966C11.2294 69.7845 11.3471 69.1846 11.7148 68.775C12.112 68.3507 12.921 68.4092 13.274 68.9213C13.4652 69.1554 13.5387 69.4772 13.4505 69.7552C13.3622 70.0332 13.2004 70.2527 12.9945 70.399V70.3843ZM12.9651 70.3551C13.3769 70.0039 13.1563 69.448 12.9504 69.17C12.7003 68.8774 12.2443 68.7165 11.8472 68.9505C11.4059 69.1554 11.4206 69.843 11.7737 70.0917C11.9207 70.238 12.0825 70.3551 12.2885 70.4282C12.4944 70.516 12.7592 70.5014 12.9504 70.3551H12.9651Z" fill="#939598"/>
<path d="M26.8798 43.2884C26.6886 43.4493 26.4386 43.5664 26.1444 43.581C25.8502 43.581 25.5707 43.4347 25.4089 43.2006C25.1147 42.6885 25.2324 42.0887 25.6001 41.679C25.9973 41.2547 26.8063 41.3133 27.1593 41.8253C27.3505 42.0594 27.4241 42.3813 27.3358 42.6593C27.2476 42.9373 27.0858 43.1567 26.8798 43.303V43.2884ZM26.8504 43.2591C27.2623 42.908 27.0416 42.352 26.8357 42.0741C26.5857 41.7814 26.1297 41.6205 25.7325 41.8546C25.2913 42.0594 25.306 42.7471 25.659 42.9958C25.8061 43.1421 25.9679 43.2591 26.1738 43.3323C26.3797 43.4201 26.6445 43.4054 26.8357 43.2591H26.8504Z" fill="#939598"/>
<path d="M96.3506 60.4355C96.1594 60.5964 95.9093 60.7135 95.6152 60.7281C95.321 60.7281 95.0415 60.5818 94.8797 60.3477C94.5855 59.8356 94.7032 59.2358 95.0709 58.8261C95.4681 58.4018 96.2771 58.4604 96.6301 58.9724C96.8213 59.2065 96.8948 59.5284 96.8066 59.8064C96.7183 60.0844 96.5565 60.3038 96.3506 60.4501V60.4355ZM96.3212 60.4062C96.733 60.0551 96.5124 59.4991 96.3065 59.2211C96.0564 58.9285 95.6005 58.7676 95.2033 59.0017C94.762 59.2065 94.7767 59.8942 95.1298 60.1429C95.2769 60.2892 95.4387 60.4062 95.6446 60.4794C95.8505 60.5672 96.1153 60.5525 96.3065 60.4062H96.3212Z" fill="#939598"/>
<mask id="mask0_295_129886" style="mask-type:luminance" maskUnits="userSpaceOnUse" x="-30" y="-15" width="480" height="148">
<path d="M450 -15L-30 -15L-30 132.93L450 132.93V-15Z" fill="white"/>
</mask>
<g mask="url(#mask0_295_129886)">
<path d="M237.675 115.651C238.116 120.494 238.102 128 236.94 132.725C228.526 166.873 237.675 179.573 248.016 186.215" stroke="#EC008C" stroke-width="0.41" stroke-miterlimit="10"/>
<path d="M237.675 115.651C239.94 129.258 235.277 147.078 236.969 160.714C238.719 174.906 244.985 184.898 248.001 186.215" stroke="#EC008C" stroke-width="0.27" stroke-miterlimit="10"/>
<path d="M237.675 115.651C239.72 129.243 238.116 147.78 239.528 159.851C241.426 176.017 246.559 185.601 248.016 186.23" stroke="#EC008C" stroke-width="0.27" stroke-miterlimit="10"/>
<path d="M248.016 186.23C242.47 174.496 239.131 130.399 237.69 115.666" stroke="#EC008C" stroke-width="0.27" stroke-miterlimit="10"/>
<path d="M237.675 115.651C238.366 123.011 240.426 126.698 245.088 133.647C255.65 149.36 259.989 171.935 248.001 186.23" stroke="#EC008C" stroke-width="0.41" stroke-miterlimit="10"/>
<path d="M237.675 115.651C238.44 123.903 241.955 131.087 245.191 137.919C253.517 155.535 256.414 169.243 248.001 186.215" stroke="#EC008C" stroke-width="0.27" stroke-miterlimit="10"/>
<path d="M237.675 115.651C237.999 132.36 255.723 159.221 248.001 186.215" stroke="#EC008C" stroke-width="0.27" stroke-miterlimit="10"/>
<path d="M248.016 186.23C248.016 159.426 239.823 138.3 237.69 115.666" stroke="#EC008C" stroke-width="0.27" stroke-miterlimit="10"/>
<path d="M190.091 97.4949C229.541 120.831 233.718 139.543 233.718 159.104" stroke="#EC008C" stroke-width="0.41" stroke-miterlimit="10"/>
<path d="M190.091 97.4949C193.651 101.752 198.034 109.77 199.623 116.207C202.815 129.199 199.858 142.177 215.185 151.716" stroke="#EC008C" stroke-width="0.41" stroke-miterlimit="10"/>
<path d="M190.091 97.4949C205.742 113.998 199.564 120.699 207.772 138.197C212.434 148.131 227.526 157.641 237.675 175.242" stroke="#EC008C" stroke-width="0.27" stroke-miterlimit="10"/>
<path d="M190.091 97.4949C236.94 132.725 225.128 145.703 236.601 173.442" stroke="#EC008C" stroke-width="0.27" stroke-miterlimit="10"/>
<path d="M190.091 97.4949C218.303 122.279 223.01 132.842 235.66 171.936" stroke="#EC008C" stroke-width="0.27" stroke-miterlimit="10"/>
<path d="M190.091 97.4949C201.741 106.815 204.565 123.113 208.625 131.731C215.406 146.098 219.406 150.941 235.233 170.619" stroke="#EC008C" stroke-width="0.27" stroke-miterlimit="10"/>
<path d="M190.091 97.4949C215.17 118.153 222.951 149.082 235.233 170.619" stroke="#EC008C" stroke-width="0.27" stroke-miterlimit="10"/>
<path d="M190.091 97.4949C212.67 118.08 213.861 141.87 235.233 170.619" stroke="#EC008C" stroke-width="0.27" stroke-miterlimit="10"/>
<path d="M205.815 70.4136C221.745 98.7092 235.219 97.4949 237.675 115.651" stroke="#EC008C" stroke-width="0.41" stroke-miterlimit="10"/>
<path d="M205.815 70.4136C211.89 83.8738 202.623 101.533 222.951 124.02" stroke="#EC008C" stroke-width="0.41" stroke-miterlimit="10"/>
<path d="M205.815 70.4136C220.539 111.979 233.645 106.332 233.704 150.941" stroke="#EC008C" stroke-width="0.27" stroke-miterlimit="10"/>
<path d="M207.992 145.63C193.607 128.292 191.386 122.894 148.656 107.839" stroke="#EC008C" stroke-width="0.41" stroke-miterlimit="10"/>
<path d="M148.656 107.839C168.778 131.979 161.056 132.316 182.325 142.177" stroke="#EC008C" stroke-width="0.41" stroke-miterlimit="10"/>
<path d="M237.675 115.651C237.675 84.9418 253.311 72.8422 251.752 61.167" stroke="#EC008C" stroke-width="0.41" stroke-miterlimit="10"/>
<path d="M251.752 61.1816C267.961 111.833 267.52 114.949 254.326 154.818" stroke="#EC008C" stroke-width="0.41" stroke-miterlimit="10"/>
<path d="M251.752 61.1816C257.797 87.0779 265.46 115.666 254.326 154.818" stroke="#EC008C" stroke-width="0.27" stroke-miterlimit="10"/>
<path d="M251.752 61.1816C257.797 97.4949 257.606 115.666 254.326 154.818" stroke="#EC008C" stroke-width="0.27" stroke-miterlimit="10"/>
<path d="M251.752 64.8247C249.957 86.3903 233.704 99.9528 243.823 131.731" stroke="#EC008C" stroke-width="0.27" stroke-miterlimit="10"/>
<path d="M251.752 61.1816C255.076 101.167 248.692 128.98 254.326 154.818" stroke="#EC008C" stroke-width="0.27" stroke-miterlimit="10"/>
<path d="M251.752 64.8247C251.752 98.2703 242.838 122.63 249.957 142.323" stroke="#EC008C" stroke-width="0.27" stroke-miterlimit="10"/>
<path d="M251.457 66.6681C248.28 98.2702 237.69 115.651 247.207 137.012" stroke="#EC008C" stroke-width="0.27" stroke-miterlimit="10"/>
<path d="M205.815 70.4136C225.069 110.677 238.146 106.844 233.704 150.941" stroke="#EC008C" stroke-width="0.27" stroke-miterlimit="10"/>
<path d="M205.815 70.4136C232.218 113.647 240.529 106.844 233.645 148.863" stroke="#EC008C" stroke-width="0.27" stroke-miterlimit="10"/>
<path d="M205.815 70.4136C215.656 107.985 231.056 112.755 233.645 148.863" stroke="#EC008C" stroke-width="0.27" stroke-miterlimit="10"/>
<path d="M233.557 147.766C227.746 114.466 213.346 110.341 207.492 76.3243" stroke="#EC008C" stroke-width="0.27" stroke-miterlimit="10"/>
<path d="M208.36 83.7714C210.39 105.337 222.951 118.943 227.82 131.716" stroke="#EC008C" stroke-width="0.27" stroke-miterlimit="10"/>
<path d="M205.815 70.4136C192.651 48.2921 177.53 56.7486 163.394 37.2167" stroke="#EC008C" stroke-width="0.41" stroke-miterlimit="10"/>
<path d="M163.394 37.2167C178.912 55.7683 175.765 83.7713 190.077 97.4949" stroke="#EC008C" stroke-width="0.41" stroke-miterlimit="10"/>
<path d="M190.091 97.4949C172.014 81.3865 161.1 85.3807 144.479 68.7018" stroke="#EC008C" stroke-width="0.41" stroke-miterlimit="10"/>
<path d="M144.479 68.7018C155.025 81.5914 156.702 108.687 172.087 116.88" stroke="#EC008C" stroke-width="0.41" stroke-miterlimit="10"/>
<path d="M241.529 91.1598C248.148 68.7018 232.748 65.5123 230.173 45.1465" stroke="#EC008C" stroke-width="0.41" stroke-miterlimit="10"/>
<path d="M205.815 70.4136C193.371 46.9021 208.36 25.3805 200.432 10.8376" stroke="#EC008C" stroke-width="0.41" stroke-miterlimit="10"/>
<path d="M221.981 62.7471C233.159 37.2167 209.213 24.9416 200.432 10.8376" stroke="#EC008C" stroke-width="0.41" stroke-miterlimit="10"/>
<path d="M200.829 53.0616C198.726 43.1128 192.312 42.513 190.091 37.2167" stroke="#EC008C" stroke-width="0.41" stroke-miterlimit="10"/>
<path d="M190.091 37.2167C192.239 46.9021 187.929 52.4325 194.401 57.7581" stroke="#EC008C" stroke-width="0.41" stroke-miterlimit="10"/>
<path d="M179.236 76.5877C173.22 52.1692 153.201 53.0617 143.199 41.0499" stroke="#EC008C" stroke-width="0.41" stroke-miterlimit="10"/>
<path d="M143.199 41.0646C150.406 49.0383 145.288 70.4282 160.629 80.4941" stroke="#EC008C" stroke-width="0.41" stroke-miterlimit="10"/>
<path d="M222.657 92.7838C206.698 73.6469 228.923 58.0799 230.188 45.1318" stroke="#EC008C" stroke-width="0.41" stroke-miterlimit="10"/>
<path d="M238.925 66.6681C235.954 57.7581 241.676 55.3294 241.676 46.4486" stroke="#EC008C" stroke-width="0.41" stroke-miterlimit="10"/>
<path d="M248.354 74.6418C251.855 58.8261 241.676 57.9044 241.676 46.4486" stroke="#EC008C" stroke-width="0.41" stroke-miterlimit="10"/>
<path d="M163.394 37.2167C186.326 70.4136 175.426 84.7662 200.211 103.742" stroke="#EC008C" stroke-width="0.27" stroke-miterlimit="10"/>
<path d="M163.394 37.2167C188.9 71.7888 175.353 85.6148 217.171 117.246" stroke="#EC008C" stroke-width="0.27" stroke-miterlimit="10"/>
<path d="M163.394 37.2167C191.636 73.4567 183.472 85.6733 210.154 111.306" stroke="#EC008C" stroke-width="0.27" stroke-miterlimit="10"/>
<path d="M163.394 37.2167C200.432 78.7384 188.003 86.2585 211.199 111.657" stroke="#EC008C" stroke-width="0.27" stroke-miterlimit="10"/>
<path d="M171.676 45.8195C202.153 72.5789 197.549 96.9389 212.655 113.325" stroke="#EC008C" stroke-width="0.27" stroke-miterlimit="10"/>
<path d="M173.338 47.3118C207.389 66.6535 201.579 102.791 213.891 114.525" stroke="#EC008C" stroke-width="0.27" stroke-miterlimit="10"/>
<path d="M177.559 49.96C218.039 68.3214 198.623 100.245 217.171 117.261" stroke="#EC008C" stroke-width="0.27" stroke-miterlimit="10"/>
<path d="M148.656 107.839C176.015 119.924 161.438 127.151 210.743 148.863" stroke="#EC008C" stroke-width="0.27" stroke-miterlimit="10"/>
<path d="M148.656 107.839C192.886 122.996 192.901 132.374 210.743 148.863" stroke="#EC008C" stroke-width="0.27" stroke-miterlimit="10"/>
<path d="M148.656 107.839C191.062 123.347 195.622 138.519 210.743 148.863" stroke="#EC008C" stroke-width="0.27" stroke-miterlimit="10"/>
<path d="M148.656 107.839C192.298 127.18 181.531 133.75 210.743 148.863" stroke="#EC008C" stroke-width="0.27" stroke-miterlimit="10"/>
<path d="M148.656 107.839C174.735 125 160.835 132.301 200.829 145.63" stroke="#EC008C" stroke-width="0.27" stroke-miterlimit="10"/>
<path d="M148.656 107.839C168.984 124.035 159.761 134.613 194.725 144.225" stroke="#EC008C" stroke-width="0.27" stroke-miterlimit="10"/>
<path d="M241.676 46.4486C243.985 65.8488 250.045 68.9651 241.955 89.6675" stroke="#EC008C" stroke-width="0.27" stroke-miterlimit="10"/>
<path d="M241.823 49.96C239.072 70.1795 245.383 67.6338 243.309 85.3076" stroke="#EC008C" stroke-width="0.27" stroke-miterlimit="10"/>
<path d="M241.823 49.96C246.059 63.1714 250.957 68.1458 243.985 84.3273" stroke="#EC008C" stroke-width="0.27" stroke-miterlimit="10"/>
<path d="M241.823 49.96C241.823 66.6681 246.574 71.3207 243.985 84.3273" stroke="#EC008C" stroke-width="0.27" stroke-miterlimit="10"/>
<path d="M241.602 50.5891C238.072 63.6835 239.867 66.4487 241.823 72.9008" stroke="#EC008C" stroke-width="0.27" stroke-miterlimit="10"/>
<path d="M230.424 47.3118C216.656 86.4926 227.349 91.1598 237.469 111.657" stroke="#EC008C" stroke-width="0.27" stroke-miterlimit="10"/>
<path d="M229.776 49.1699C212.861 78.9286 218.906 87.0632 228.261 98.2703" stroke="#EC008C" stroke-width="0.27" stroke-miterlimit="10"/>
<path d="M228.644 50.5891C212.655 88.8482 229.085 95.1394 232.63 103.098" stroke="#EC008C" stroke-width="0.27" stroke-miterlimit="10"/>
<path d="M230.424 47.3118C222.289 84.3273 230.674 95.6221 234.954 106.844" stroke="#EC008C" stroke-width="0.27" stroke-miterlimit="10"/>
<path d="M232.012 53.0616C243.117 79.4846 241.661 80.9184 238.513 103.742" stroke="#EC008C" stroke-width="0.27" stroke-miterlimit="10"/>
<path d="M232.63 54.5247C240.705 80.4794 238.058 94.7296 237.454 111.643" stroke="#EC008C" stroke-width="0.27" stroke-miterlimit="10"/>
<path d="M230.424 48.6139C228.879 81.6791 232.63 101.152 237.469 111.657" stroke="#EC008C" stroke-width="0.27" stroke-miterlimit="10"/>
<path d="M237.469 111.657C233.777 89.1261 234.586 65.8635 231.1 49.96" stroke="#EC008C" stroke-width="0.27" stroke-miterlimit="10"/>
<path d="M160.629 80.494C204.565 102.147 192.165 116.88 204.374 140.231" stroke="#EC008C" stroke-width="0.27" stroke-miterlimit="10"/>
<path d="M144.479 68.7018C166.395 96.1781 157.128 107.751 181.81 121.357" stroke="#EC008C" stroke-width="0.27" stroke-miterlimit="10"/>
<path d="M144.479 68.7018C172.661 102.264 159.114 104.225 186.385 124.035" stroke="#EC008C" stroke-width="0.27" stroke-miterlimit="10"/>
<path d="M144.479 68.7018C184.62 102.542 186.385 103.757 204.374 140.231" stroke="#EC008C" stroke-width="0.27" stroke-miterlimit="10"/>
<path d="M144.479 68.7018C184.62 104.474 184.62 113.94 204.374 140.231" stroke="#EC008C" stroke-width="0.27" stroke-miterlimit="10"/>
<path d="M150.083 73.7639C169.381 99.4114 171.705 110.794 191.665 127.912" stroke="#EC008C" stroke-width="0.27" stroke-miterlimit="10"/>
<path d="M157.099 78.5774C187.885 99.3383 190.297 104.898 201.859 134.715" stroke="#EC008C" stroke-width="0.27" stroke-miterlimit="10"/>
<path d="M151.907 75.4465C178.133 102.923 186.37 124.035 204.359 140.231" stroke="#EC008C" stroke-width="0.27" stroke-miterlimit="10"/>
<path d="M190.959 39.0455C203.124 52.6081 197.24 55.7245 204.374 67.3558" stroke="#EC008C" stroke-width="0.27" stroke-miterlimit="10"/>
<path d="M190.974 39.6454C191.43 58.358 199.137 59.2212 203.682 66.5804" stroke="#EC008C" stroke-width="0.27" stroke-miterlimit="10"/>
<path d="M191.136 39.0455C197.843 48.5115 196.681 55.1246 203.138 65.3368" stroke="#EC008C" stroke-width="0.27" stroke-miterlimit="10"/>
<path d="M190.194 37.3922C194.092 47.9702 196.284 58.0214 202.594 64.4881" stroke="#EC008C" stroke-width="0.27" stroke-miterlimit="10"/>
<path d="M145.758 43.698C154.981 65.8927 162.482 78.592 187.885 95.0369" stroke="#EC008C" stroke-width="0.27" stroke-miterlimit="10"/>
<path d="M145.758 43.698C173.338 65.2489 169.204 80.494 186.385 94.042" stroke="#EC008C" stroke-width="0.27" stroke-miterlimit="10"/>
<path d="M145.758 43.698C166.822 69.3601 167.675 80.9183 184.62 92.5789" stroke="#EC008C" stroke-width="0.27" stroke-miterlimit="10"/>
<path d="M152.951 48.6725C180.501 68.1312 173.338 80.9038 184.605 92.5644" stroke="#EC008C" stroke-width="0.27" stroke-miterlimit="10"/>
<path d="M145.758 43.698C154.834 68.8773 151.245 72.4764 172.896 86.0976" stroke="#EC008C" stroke-width="0.27" stroke-miterlimit="10"/>
<path d="M200.432 10.8523C234.277 52.8276 207.992 72.9008 219.612 88.4239" stroke="#EC008C" stroke-width="0.27" stroke-miterlimit="10"/>
<path d="M203.124 14.6123C226.143 49.1698 207.477 80.494 220.877 90.4575" stroke="#EC008C" stroke-width="0.27" stroke-miterlimit="10"/>
<path d="M202.859 23.5663C200.564 68.6725 212.67 81.1817 217.744 86.9462" stroke="#EC008C" stroke-width="0.27" stroke-miterlimit="10"/>
<path d="M210.434 22.7616C227.82 45.8195 220.51 61.7376 218.097 71.3499" stroke="#EC008C" stroke-width="0.27" stroke-miterlimit="10"/>
<path d="M203.124 14.6123C208.669 44.3856 208.139 78.4165 217.744 86.9461" stroke="#EC008C" stroke-width="0.27" stroke-miterlimit="10"/>
<path d="M203.682 15.4463C216.068 43.698 210.434 76.3682 216.921 86.5658" stroke="#EC008C" stroke-width="0.27" stroke-miterlimit="10"/>
<path d="M100.69 152.082C105.103 150.516 111.677 147.415 115.355 144.371C141.831 122.367 156.702 125.834 166.777 132.901" stroke="#EC008C" stroke-width="0.41" stroke-miterlimit="10"/>
<path d="M102.911 90.6623C124.666 94.876 127.902 73.7932 166.763 132.886" stroke="#EC008C" stroke-width="0.41" stroke-miterlimit="10"/>
<path d="M101.19 88.6726C112.03 107.078 119.723 115.505 133.123 121.957C146.626 128.453 153.23 124.708 166.763 132.901" stroke="#EC008C" stroke-width="0.41" stroke-miterlimit="10"/>
<path d="M101.19 88.6726C122.739 127.766 161.806 124.883 166.763 132.901" stroke="#EC008C" stroke-width="0.27" stroke-miterlimit="10"/>
<path d="M102.911 90.6624C125.283 98.4897 128.725 81.5914 166.763 132.886" stroke="#EC008C" stroke-width="0.27" stroke-miterlimit="10"/>
<path d="M102.911 90.6624C124.43 101.796 126.872 87.5753 166.763 132.886" stroke="#EC008C" stroke-width="0.27" stroke-miterlimit="10"/>
<path d="M101.19 88.6726C127.46 124.108 141.963 115.096 166.763 132.901" stroke="#EC008C" stroke-width="0.27" stroke-miterlimit="10"/>
<path d="M102.911 90.6624C123.945 104.81 130.829 95.7538 166.763 132.886" stroke="#EC008C" stroke-width="0.27" stroke-miterlimit="10"/>
<path d="M101.19 88.6726C131.623 123.04 133.256 106.741 166.763 132.901" stroke="#EC008C" stroke-width="0.27" stroke-miterlimit="10"/>
<path d="M101.19 88.6726C122.209 113.852 136.55 104.532 166.763 132.901" stroke="#EC008C" stroke-width="0.27" stroke-miterlimit="10"/>
<path d="M101.19 88.6726C120.297 109.58 129.917 97.846 166.763 132.901" stroke="#EC008C" stroke-width="0.27" stroke-miterlimit="10"/>
<path d="M65.2263 114.379C101.867 142.221 119.988 138.49 137.124 130.472" stroke="#EC008C" stroke-width="0.41" stroke-miterlimit="10"/>
<path d="M65.2263 114.379C70.4186 116.003 79.244 116.866 85.5395 115.725C98.2334 113.413 108.383 105.278 123.048 115.9" stroke="#EC008C" stroke-width="0.41" stroke-miterlimit="10"/>
<path d="M65.2263 114.379C86.1131 122.44 89.4521 113.837 108.162 114.437C118.782 114.774 133.314 125.191 152.907 127.605" stroke="#EC008C" stroke-width="0.27" stroke-miterlimit="10"/>
<path d="M65.2263 114.379C115.34 144.357 121.856 127.824 150.877 127.312" stroke="#EC008C" stroke-width="0.27" stroke-miterlimit="10"/>
<path d="M65.2263 114.379C98.5276 130.97 109.721 131.101 149.171 127.034" stroke="#EC008C" stroke-width="0.27" stroke-miterlimit="10"/>
<path d="M65.2263 114.379C78.1702 121.606 93.6147 117.583 102.837 117.905C118.208 118.431 124.107 120.246 147.847 127.18" stroke="#EC008C" stroke-width="0.27" stroke-miterlimit="10"/>
<path d="M65.2263 114.379C93.6294 129.697 123.93 124.371 147.847 127.18" stroke="#EC008C" stroke-width="0.27" stroke-miterlimit="10"/>
<path d="M65.2263 114.379C92.541 127.341 113.869 118.709 147.847 127.18" stroke="#EC008C" stroke-width="0.27" stroke-miterlimit="10"/>
<path d="M114.766 111.599C93.6589 105.074 83.4655 103.698 56.2979 66.5072" stroke="#EC008C" stroke-width="0.41" stroke-miterlimit="10"/>
<path d="M56.2979 66.5072C73.4634 82.3814 85.9072 69.682 101.19 88.658" stroke="#EC008C" stroke-width="0.41" stroke-miterlimit="10"/>
<path d="M47.9579 140.421C23.1732 137.012 24.3793 119.207 1.44792 113.808" stroke="#EC008C" stroke-width="0.41" stroke-miterlimit="10"/>
<path d="M1.44792 113.823C24.0704 120.933 47.3254 106.434 65.2263 114.379" stroke="#EC008C" stroke-width="0.41" stroke-miterlimit="10"/>
<path d="M65.2263 114.379C43.6776 103.845 42.7068 91.8328 21.261 82.9374" stroke="#EC008C" stroke-width="0.41" stroke-miterlimit="10"/>
<path d="M21.261 82.9374C36.8967 87.6484 61.3137 78.1239 74.8166 89.3456" stroke="#EC008C" stroke-width="0.41" stroke-miterlimit="10"/>
<path d="M42.4567 112.681C18.5987 117.012 11.1412 97.6412 -3.47961 93.0764" stroke="#EC008C" stroke-width="0.41" stroke-miterlimit="10"/>
<path d="M-3.47961 93.0764C6.4784 96.6463 23.0996 83.0105 38.2352 93.4275" stroke="#EC008C" stroke-width="0.41" stroke-miterlimit="10"/>
<path d="M1.44792 113.823C39.9562 121.943 48.0462 105.717 74.8607 121.431" stroke="#EC008C" stroke-width="0.27" stroke-miterlimit="10"/>
<path d="M1.44792 113.823C42.2067 123.83 48.7669 105.278 93.6736 131.979" stroke="#EC008C" stroke-width="0.27" stroke-miterlimit="10"/>
<path d="M1.44792 113.823C44.7955 125.732 52.15 112.974 85.5689 127.751" stroke="#EC008C" stroke-width="0.27" stroke-miterlimit="10"/>
<path d="M1.44792 113.823C53.0325 131.906 54.5328 117.027 86.3044 128.6" stroke="#EC008C" stroke-width="0.27" stroke-miterlimit="10"/>
<path d="M12.3914 118.139C48.3551 136.061 67.8151 121.694 88.3636 129.302" stroke="#EC008C" stroke-width="0.27" stroke-miterlimit="10"/>
<path d="M14.3772 119.104C45.3103 143.464 74.596 123.113 89.9228 129.975" stroke="#EC008C" stroke-width="0.27" stroke-miterlimit="10"/>
<path d="M18.4369 122.03C51.1498 152.901 71.154 121.357 93.6736 131.979" stroke="#EC008C" stroke-width="0.27" stroke-miterlimit="10"/>
<path d="M56.2979 66.5072C77.2583 88.1898 79.4646 75.0222 118.723 112.872" stroke="#EC008C" stroke-width="0.27" stroke-miterlimit="10"/>
<path d="M56.2979 66.5072C83.7744 101.913 96.9537 102.733 118.723 112.872" stroke="#EC008C" stroke-width="0.27" stroke-miterlimit="10"/>
<path d="M56.2979 66.5072C86.6574 101.153 103.455 102.777 118.723 112.872" stroke="#EC008C" stroke-width="0.27" stroke-miterlimit="10"/>
<path d="M56.2979 66.5072C90.5258 100.567 93.4824 91.3646 118.723 112.872" stroke="#EC008C" stroke-width="0.27" stroke-miterlimit="10"/>
<path d="M56.2979 66.5072C81.3474 89.4041 83.7156 72.3302 111.825 104.796" stroke="#EC008C" stroke-width="0.27" stroke-miterlimit="10"/>
<path d="M56.2979 66.5072C82.3182 89.2578 84.3628 67.941 108.088 99.5871" stroke="#EC008C" stroke-width="0.27" stroke-miterlimit="10"/>
<path d="M38.2352 93.413C75.2432 126.2 83.0684 108.395 108.544 110.384" stroke="#EC008C" stroke-width="0.27" stroke-miterlimit="10"/>
<path d="M21.261 82.9374C54.3416 92.4473 60.6812 78.8993 82.7301 96.7341" stroke="#EC008C" stroke-width="0.27" stroke-miterlimit="10"/>
<path d="M21.261 82.9374C62.2404 95.8855 58.4013 82.2351 86.9516 99.9674" stroke="#EC008C" stroke-width="0.27" stroke-miterlimit="10"/>
<path d="M21.261 82.9374C67.4032 107.122 69.183 108.307 108.544 110.384" stroke="#EC008C" stroke-width="0.27" stroke-miterlimit="10"/>
<path d="M21.261 82.9374C69.0801 106.332 77.376 102.44 108.544 110.384" stroke="#EC008C" stroke-width="0.27" stroke-miterlimit="10"/>
<path d="M27.9977 86.1708C58.4013 93.9543 73.0515 92.8423 95.5858 105.454" stroke="#EC008C" stroke-width="0.27" stroke-miterlimit="10"/>
<path d="M35.1022 90.8525C65.9471 111.526 71.8013 111.54 102.676 110.253" stroke="#EC008C" stroke-width="0.27" stroke-miterlimit="10"/>
<path d="M30.2335 87.2241C65.0792 100.831 86.9663 99.9674 108.544 110.384" stroke="#EC008C" stroke-width="0.27" stroke-miterlimit="10"/>
<path d="M-0.125946 94.4224C23.0996 94.0567 37.3233 95.9586 62.1521 113.311" stroke="#EC008C" stroke-width="0.27" stroke-miterlimit="10"/>
<path d="M-0.125946 94.4224C30.0717 111.745 41.7507 101.547 60.6812 112.286" stroke="#EC008C" stroke-width="0.27" stroke-miterlimit="10"/>
<path d="M-0.125946 94.4224C31.0131 103.874 41.4859 99.9235 58.6661 111.204" stroke="#EC008C" stroke-width="0.27" stroke-miterlimit="10"/>
<path d="M7.19916 99.2067C35.5582 117.349 43.81 105.308 58.6661 111.218" stroke="#EC008C" stroke-width="0.27" stroke-miterlimit="10"/>
<path d="M-0.125946 94.4224C25.659 92.696 27.3358 87.8094 48.1638 102.762" stroke="#EC008C" stroke-width="0.27" stroke-miterlimit="10"/>
<path d="M303.675 94.8906C300.218 101.562 275.036 86.3756 254.517 154.73" stroke="#EC008C" stroke-width="0.41" stroke-miterlimit="10"/>
<path d="M304.763 92.4473C299.585 113.34 294.599 123.757 283.597 133.998C272.521 144.313 265.152 142.762 254.517 154.73" stroke="#EC008C" stroke-width="0.41" stroke-miterlimit="10"/>
<path d="M304.763 92.4473C295.158 136.383 256.988 145.542 254.517 154.73" stroke="#EC008C" stroke-width="0.27" stroke-miterlimit="10"/>
<path d="M303.675 94.8906C284.479 109.199 276.433 94.0859 254.517 154.73" stroke="#EC008C" stroke-width="0.27" stroke-miterlimit="10"/>
<path d="M303.675 94.8906C286.23 112.096 279.89 99.2359 254.517 154.73" stroke="#EC008C" stroke-width="0.27" stroke-miterlimit="10"/>
<path d="M304.763 92.4473C289.613 134.335 273.212 130.136 254.517 154.73" stroke="#EC008C" stroke-width="0.27" stroke-miterlimit="10"/>
<path d="M303.675 94.8906C287.539 114.832 278.419 108.263 254.517 154.73" stroke="#EC008C" stroke-width="0.27" stroke-miterlimit="10"/>
<path d="M304.763 92.4473C285.347 134.583 279.199 119.485 254.517 154.73" stroke="#EC008C" stroke-width="0.27" stroke-miterlimit="10"/>
<path d="M304.763 92.4473C291.746 122.923 275.418 118.402 254.517 154.73" stroke="#EC008C" stroke-width="0.27" stroke-miterlimit="10"/>
<path d="M304.763 92.4473C292.378 118.256 279.875 109.975 254.517 154.73" stroke="#EC008C" stroke-width="0.27" stroke-miterlimit="10"/>
<path d="M346.39 106.068C319.193 143.859 300.821 145.82 282.185 143.362" stroke="#EC008C" stroke-width="0.41" stroke-miterlimit="10"/>
<path d="M346.39 106.068C341.889 109.199 333.681 112.725 327.356 113.545C314.574 115.213 302.571 110.516 291.54 125.147" stroke="#EC008C" stroke-width="0.41" stroke-miterlimit="10"/>
<path d="M346.39 106.068C328.695 120.143 323.076 112.945 305.366 119.207C295.305 122.762 284.347 137.158 266.284 145.425" stroke="#EC008C" stroke-width="0.27" stroke-miterlimit="10"/>
<path d="M346.39 106.068C306.911 150.019 296.026 136.178 268.152 144.547" stroke="#EC008C" stroke-width="0.27" stroke-miterlimit="10"/>
<path d="M346.39 106.068C319.207 132.082 308.558 135.622 269.697 143.757" stroke="#EC008C" stroke-width="0.27" stroke-miterlimit="10"/>
<path d="M346.39 106.068C336.049 116.924 320.149 117.787 311.426 120.904C296.879 126.098 291.76 129.624 271.006 143.494" stroke="#EC008C" stroke-width="0.27" stroke-miterlimit="10"/>
<path d="M346.39 106.068C323.546 129.36 293.069 133.515 270.991 143.494" stroke="#EC008C" stroke-width="0.27" stroke-miterlimit="10"/>
<path d="M346.39 106.068C323.929 126.785 301.086 125.03 270.991 143.494" stroke="#EC008C" stroke-width="0.27" stroke-miterlimit="10"/>
<path d="M370.218 125.717C341.241 138.607 340.712 152.682 323.09 152.93" stroke="#EC008C" stroke-width="0.27" stroke-miterlimit="10"/>
<path d="M370.218 125.717C356.612 130.297 340.947 118.519 316.957 136.676" stroke="#EC008C" stroke-width="0.41" stroke-miterlimit="10"/>
<path d="M370.218 125.717C328.739 135.695 332.475 149.931 289.951 144.401" stroke="#EC008C" stroke-width="0.27" stroke-miterlimit="10"/>
<path d="M298.232 118.519C316.574 105.849 325.944 101.416 341.447 57.5825" stroke="#EC008C" stroke-width="0.41" stroke-miterlimit="10"/>
<path d="M341.447 57.5825C329.504 77.9922 314.03 69.6382 304.763 92.4473" stroke="#EC008C" stroke-width="0.41" stroke-miterlimit="10"/>
<path d="M370.218 125.717C329.415 140.538 331.431 154.51 289.951 144.401" stroke="#EC008C" stroke-width="0.27" stroke-miterlimit="10"/>
<path d="M370.218 125.717C325.679 147.546 331.136 156.968 291.922 144.591" stroke="#EC008C" stroke-width="0.41" stroke-miterlimit="10"/>
<path d="M370.218 125.717C333.151 131.16 326.679 146.464 291.922 144.591" stroke="#EC008C" stroke-width="0.27" stroke-miterlimit="10"/>
<path d="M292.996 144.62C325.473 142.806 331.21 128.453 364.379 126.683" stroke="#EC008C" stroke-width="0.27" stroke-miterlimit="10"/>
<path d="M357.171 126.668C336.343 126.054 321.796 137.305 309.014 140.728" stroke="#EC008C" stroke-width="0.27" stroke-miterlimit="10"/>
<path d="M370.218 125.717C392.958 114.905 386.795 98.241 407.197 86.0975" stroke="#EC008C" stroke-width="0.41" stroke-miterlimit="10"/>
<path d="M407.197 86.0975C387.56 99.7918 361.246 93.0178 346.375 106.083" stroke="#EC008C" stroke-width="0.41" stroke-miterlimit="10"/>
<path d="M346.39 106.068C364.026 89.4334 361.569 77.6557 379.573 62.6008" stroke="#EC008C" stroke-width="0.41" stroke-miterlimit="10"/>
<path d="M379.558 62.6008C365.938 71.8766 339.903 70.2088 330.151 85.0442" stroke="#EC008C" stroke-width="0.41" stroke-miterlimit="10"/>
<path d="M370.218 125.717C394.194 115.827 412.83 133.998 427.686 127.634" stroke="#EC008C" stroke-width="0.41" stroke-miterlimit="10"/>
<path d="M375.499 143.347C398.445 158.095 413.154 134.92 427.686 127.634" stroke="#EC008C" stroke-width="0.41" stroke-miterlimit="10"/>
<path d="M387.398 122.733C397.15 121.811 398.533 115.271 403.858 113.632" stroke="#EC008C" stroke-width="0.41" stroke-miterlimit="10"/>
<path d="M403.858 113.632C394.356 114.642 389.619 109.492 383.736 115.49" stroke="#EC008C" stroke-width="0.41" stroke-miterlimit="10"/>
<path d="M367.674 97.4948C391.708 94.3492 393.385 73.5591 406.079 64.7515" stroke="#EC008C" stroke-width="0.41" stroke-miterlimit="10"/>
<path d="M406.079 64.7515C397.562 71.1889 377.823 63.2299 366.291 77.802" stroke="#EC008C" stroke-width="0.41" stroke-miterlimit="10"/>
<path d="M407.197 86.0975C372.66 105.6 360.363 92.5496 339.138 115.754" stroke="#EC008C" stroke-width="0.27" stroke-miterlimit="10"/>
<path d="M407.197 86.0975C371.042 108.087 359.554 92.3594 324.135 131.57" stroke="#EC008C" stroke-width="0.27" stroke-miterlimit="10"/>
<path d="M407.197 86.0975C369.1 110.706 358.48 100.743 330.695 125.059" stroke="#EC008C" stroke-width="0.27" stroke-miterlimit="10"/>
<path d="M407.197 86.0975C362.967 119.119 357.348 105.351 330.224 126.098" stroke="#EC008C" stroke-width="0.27" stroke-miterlimit="10"/>
<path d="M397.959 93.5592C368.615 121.65 345.978 113.852 328.459 127.385" stroke="#EC008C" stroke-width="0.27" stroke-miterlimit="10"/>
<path d="M396.342 95.0808C373.631 127.81 339.903 117.261 327.165 128.497" stroke="#EC008C" stroke-width="0.27" stroke-miterlimit="10"/>
<path d="M393.282 99.1189C370.704 138.607 342.698 114.54 324.15 131.57" stroke="#EC008C" stroke-width="0.27" stroke-miterlimit="10"/>
<path d="M341.447 57.5825C327.518 84.7077 321.693 72.7837 294.805 120.948" stroke="#EC008C" stroke-width="0.27" stroke-miterlimit="10"/>
<path d="M341.447 57.5825C325.15 99.8065 312.779 104.605 294.805 120.948" stroke="#EC008C" stroke-width="0.27" stroke-miterlimit="10"/>
<path d="M341.447 57.5825C322.179 99.9674 306.572 106.639 294.805 120.948" stroke="#EC008C" stroke-width="0.27" stroke-miterlimit="10"/>
<path d="M341.447 57.5825C318.31 100.582 312.882 92.696 294.805 120.948" stroke="#EC008C" stroke-width="0.27" stroke-miterlimit="10"/>
<path d="M341.447 57.5825C323.944 87.1218 316.869 71.5109 299.129 111.116" stroke="#EC008C" stroke-width="0.27" stroke-miterlimit="10"/>
<path d="M341.447 57.5825C322.973 87.2681 315.015 67.5167 301.248 105" stroke="#EC008C" stroke-width="0.27" stroke-miterlimit="10"/>
<path d="M366.291 77.802C340.138 120.436 327.636 105.79 303.836 115.461" stroke="#EC008C" stroke-width="0.27" stroke-miterlimit="10"/>
<path d="M379.558 62.6008C350.611 81.7816 340.741 70.7501 324.664 94.5395" stroke="#EC008C" stroke-width="0.27" stroke-miterlimit="10"/>
<path d="M379.558 62.6008C344.021 87.4729 343.845 73.2519 321.546 98.914" stroke="#EC008C" stroke-width="0.27" stroke-miterlimit="10"/>
<path d="M379.558 62.6008C342.256 99.7773 340.874 101.46 303.836 115.447" stroke="#EC008C" stroke-width="0.27" stroke-miterlimit="10"/>
<path d="M379.558 62.6008C340.418 99.5432 331.386 98.3581 303.836 115.447" stroke="#EC008C" stroke-width="0.27" stroke-miterlimit="10"/>
<path d="M374.043 67.7507C347.169 84.4589 332.843 87.8532 314.839 106.785" stroke="#EC008C" stroke-width="0.27" stroke-miterlimit="10"/>
<path d="M368.556 74.3784C344.889 103.552 339.3 105.351 309.411 113.53" stroke="#EC008C" stroke-width="0.27" stroke-miterlimit="10"/>
<path d="M372.204 69.4333C342.712 93.0618 321.561 98.9141 303.851 115.447" stroke="#EC008C" stroke-width="0.27" stroke-miterlimit="10"/>
<path d="M401.99 114.305C387.531 125.161 385.31 118.695 373.322 124.605" stroke="#EC008C" stroke-width="0.27" stroke-miterlimit="10"/>
<path d="M401.99 114.305C384.089 112.433 381.721 120.216 374.146 123.976" stroke="#EC008C" stroke-width="0.27" stroke-miterlimit="10"/>
<path d="M401.99 114.305C392.135 120.041 385.942 118.183 375.396 123.567" stroke="#EC008C" stroke-width="0.27" stroke-miterlimit="10"/>
<path d="M401.99 114.305C391.414 116.997 383.236 117.422 376.278 123.128" stroke="#EC008C" stroke-width="0.27" stroke-miterlimit="10"/>
<path d="M403.24 67.0631C380.926 73.7932 367.865 79.9527 349.008 104.108" stroke="#EC008C" stroke-width="0.27" stroke-miterlimit="10"/>
<path d="M403.24 67.0631C379.235 92.8276 365.217 86.6389 350.14 102.674" stroke="#EC008C" stroke-width="0.27" stroke-miterlimit="10"/>
<path d="M403.24 67.0631C376.117 85.5855 364.996 85.0149 351.758 101.035" stroke="#EC008C" stroke-width="0.27" stroke-miterlimit="10"/>
<path d="M397.592 73.8663C375.587 99.865 364.29 90.8525 351.773 101.035" stroke="#EC008C" stroke-width="0.27" stroke-miterlimit="10"/>
<path d="M403.24 67.0631C378.102 73.2665 375.116 69.1114 359.407 89.7552" stroke="#EC008C" stroke-width="0.27" stroke-miterlimit="10"/>
<path d="M427.701 127.634C383.442 157.305 367.6 127.649 351.332 137.7" stroke="#EC008C" stroke-width="0.27" stroke-miterlimit="10"/>
<path d="M415.816 128.892C373.101 120.86 359.113 131.423 352.964 135.944" stroke="#EC008C" stroke-width="0.27" stroke-miterlimit="10"/>
<path d="M263.798 110.677C261.739 86.9462 271.8 83.0984 277.581 75.4465" stroke="#EC008C" stroke-width="0.41" stroke-miterlimit="10"/>
<path d="M279.64 106.098C285.362 90.7648 279.934 84.3127 277.581 75.4465" stroke="#EC008C" stroke-width="0.41" stroke-miterlimit="10"/>
<path d="M277.581 75.4465C262.004 94.4956 268.137 117.817 258.371 142.982" stroke="#EC008C" stroke-width="0.27" stroke-miterlimit="10"/>
<path d="M277.581 75.4465C282.788 92.4473 277.654 106.888 273.065 113.545" stroke="#EC008C" stroke-width="0.27" stroke-miterlimit="10"/>
<path d="M277.581 75.4465C279.64 98.2703 272.668 110.677 262.857 131.716" stroke="#EC008C" stroke-width="0.27" stroke-miterlimit="10"/>
<path d="M277.581 75.4465C271.727 81.8694 267.358 116.69 262.004 133.676" stroke="#EC008C" stroke-width="0.27" stroke-miterlimit="10"/>
<path d="M277.581 75.4465C274.815 88.4093 272.477 108 263.842 129.331" stroke="#EC008C" stroke-width="0.27" stroke-miterlimit="10"/>
<path d="M277.581 75.4465C283.729 65.3513 277.581 45.8195 270.712 36.7924" stroke="#EC008C" stroke-width="0.41" stroke-miterlimit="10"/>
<path d="M251.752 61.1816C248.251 46.4632 270.712 43.7273 270.712 36.807" stroke="#EC008C" stroke-width="0.41" stroke-miterlimit="10"/>
<path d="M270.712 36.7924C278.772 56.5583 257.797 76.5877 263.563 106.639" stroke="#EC008C" stroke-width="0.27" stroke-miterlimit="10"/>
<path d="M270.712 36.7924C282.185 61.3426 262.46 72.8861 263.431 105.41" stroke="#EC008C" stroke-width="0.27" stroke-miterlimit="10"/>
<path d="M270.712 36.7924C283.17 59.2211 271.006 74.4223 265.872 90.7647" stroke="#EC008C" stroke-width="0.27" stroke-miterlimit="10"/>
<path d="M270.712 36.7924C289.466 68.6871 269.638 80.8013 269.344 84.7077" stroke="#EC008C" stroke-width="0.27" stroke-miterlimit="10"/>
<path d="M270.712 36.7924C270.712 47.7214 247.736 47.0484 253.899 67.8532" stroke="#EC008C" stroke-width="0.27" stroke-miterlimit="10"/>
<path d="M270.712 36.7924C268.432 52.3301 251.384 50.9987 254.179 68.9505" stroke="#EC008C" stroke-width="0.27" stroke-miterlimit="10"/>
<path d="M270.712 36.7924C269.8 52.5203 254.34 57.2899 255.12 71.7157" stroke="#EC008C" stroke-width="0.27" stroke-miterlimit="10"/>
<path d="M270.712 36.7924C271.668 53.0616 252.546 63.4347 257.047 77.9776" stroke="#EC008C" stroke-width="0.27" stroke-miterlimit="10"/>
<path d="M270.712 36.7924C275.713 56.1194 259.606 71.0427 260.356 89.6528" stroke="#EC008C" stroke-width="0.27" stroke-miterlimit="10"/>
<path d="M270.712 36.7924C272.094 61.3426 256.606 64.81 258.371 82.4984" stroke="#EC008C" stroke-width="0.27" stroke-miterlimit="10"/>
<path d="M144.479 68.7018C135.374 59.821 128.166 61.8108 122.091 59.821" stroke="#EC008C" stroke-width="0.41" stroke-miterlimit="10"/>
<path d="M137.83 96.661C121.003 83.6104 122.091 69.8577 122.091 59.821" stroke="#EC008C" stroke-width="0.41" stroke-miterlimit="10"/>
<path d="M172.087 116.88C141.537 102.864 125.372 84.6785 122.091 59.821" stroke="#EC008C" stroke-width="0.27" stroke-miterlimit="10"/>
<path d="M122.091 59.8064C135.462 86.1708 139.566 99.5871 172.087 116.866" stroke="#EC008C" stroke-width="0.27" stroke-miterlimit="10"/>
<path d="M122.091 59.8064C160.173 68.1312 143.199 102.177 172.087 116.866" stroke="#EC008C" stroke-width="0.27" stroke-miterlimit="10"/>
<path d="M122.091 59.8064C151.818 69.843 138.83 99.9675 172.087 116.866" stroke="#EC008C" stroke-width="0.27" stroke-miterlimit="10"/>
<path d="M122.091 59.8064C141.272 70.4136 133.726 96.3537 172.087 116.866" stroke="#EC008C" stroke-width="0.27" stroke-miterlimit="10"/>
<path d="M277.581 75.4465C285.597 59.66 299.144 62.0594 302.365 53.5298" stroke="#EC008C" stroke-width="0.41" stroke-miterlimit="10"/>
<path d="M304.763 92.4473C313.118 75.4465 307.264 62.0594 302.365 53.5298" stroke="#EC008C" stroke-width="0.41" stroke-miterlimit="10"/>
<path d="M302.365 53.5298C308.043 74.3784 292.996 93.0617 279.64 106.098" stroke="#EC008C" stroke-width="0.27" stroke-miterlimit="10"/>
<path d="M302.365 53.5298C299.836 81.2841 290.701 83.6104 279.64 106.098" stroke="#EC008C" stroke-width="0.27" stroke-miterlimit="10"/>
<path d="M302.365 53.5298C311.97 72.3594 300.336 94.5248 280.405 104.561" stroke="#EC008C" stroke-width="0.27" stroke-miterlimit="10"/>
<path d="M302.365 53.5298C298.232 73.7201 289.951 77.9776 279.64 106.098" stroke="#EC008C" stroke-width="0.27" stroke-miterlimit="10"/>
<path d="M302.365 53.5298C294.82 75.0075 282.17 83.0983 282.082 95.8123" stroke="#EC008C" stroke-width="0.27" stroke-miterlimit="10"/>
<path d="M302.365 53.5298C293.569 72.9885 280.405 77.7874 281.582 88.0434" stroke="#EC008C" stroke-width="0.27" stroke-miterlimit="10"/>
<path d="M302.365 53.5298C294.158 67.1363 280.214 71.9936 279.772 82.0156" stroke="#EC008C" stroke-width="0.27" stroke-miterlimit="10"/>
<path d="M302.365 53.5298C313.691 73.8225 302.233 96.617 293.569 98.2702" stroke="#EC008C" stroke-width="0.27" stroke-miterlimit="10"/>
</g>
<g clip-path="url(#clip1_295_129886)">
<path d="M268.944 115.153H172.13V128.663H268.944V115.153Z" fill="#EB2290"/>
<path d="M272.08 19H169V117.097H272.08V19Z" fill="#FCFCFC"/>
<path d="M259.462 98.7122C259.228 98.7122 258.986 98.7122 258.752 98.7051C258.596 98.698 258.539 98.7477 258.546 98.911C258.553 99.5289 258.546 100.154 258.546 100.772C258.546 102.149 258.546 103.52 258.546 104.897C258.546 105.077 258.458 105.167 258.283 105.167C258.006 105.167 257.722 105.153 257.445 105.167C257.268 105.174 257.232 105.11 257.232 104.947C257.232 102.952 257.232 100.956 257.232 98.9608C257.232 98.7856 257.147 98.698 256.976 98.698C256.558 98.698 256.139 98.698 255.698 98.698C255.698 99.046 255.712 99.3726 255.698 99.6993C255.684 100.054 255.677 100.424 255.599 100.764C255.407 101.574 254.853 102.036 254.022 102.135C253.809 102.163 253.603 102.17 253.369 102.192C253.355 102.66 253.312 103.122 253.518 103.555C253.703 103.946 254.2 104.173 254.633 104.045C254.91 103.96 255.166 103.811 255.464 103.676C255.641 103.932 255.854 104.223 256.053 104.528C256.075 104.556 256.011 104.677 255.954 104.72C255.301 105.224 254.576 105.409 253.76 105.224C252.893 105.025 252.24 104.372 252.141 103.463C252.055 102.675 252.084 101.872 252.055 101.077C252.055 100.963 252.119 100.956 252.204 100.956C252.616 100.956 253.035 100.956 253.447 100.928C254.044 100.878 254.299 100.651 254.363 100.061C254.413 99.6212 254.37 99.1667 254.37 98.698C254.299 98.698 254.235 98.698 254.172 98.698C253.007 98.698 251.849 98.698 250.685 98.698C250.507 98.698 250.472 98.7548 250.479 98.9181C250.479 100.921 250.479 102.923 250.479 104.926C250.479 105.087 250.401 105.167 250.245 105.167C249.946 105.167 249.648 105.16 249.35 105.167C249.201 105.167 249.165 105.125 249.165 104.983C249.165 103.981 249.165 102.973 249.165 101.972C249.165 101.801 249.123 101.752 248.952 101.759C248.427 101.766 247.908 101.766 247.383 101.759C247.248 101.759 247.205 101.801 247.212 101.936C247.219 102.447 247.163 102.945 246.85 103.378C246.417 103.974 245.799 104.159 245.117 104.102C244.386 104.038 243.825 103.662 243.569 102.952C243.229 101.993 243.726 100.935 244.897 100.665C245.16 100.601 245.444 100.63 245.714 100.637C245.849 100.637 245.913 100.601 245.906 100.452C245.899 99.9265 245.906 99.4081 245.906 98.8826C245.906 98.7761 245.884 98.7122 245.757 98.7122C244.585 98.7122 243.406 98.7122 242.234 98.7122C242.213 98.7122 242.185 98.7122 242.156 98.7264C242.156 98.7903 242.149 98.8471 242.149 98.911C242.149 100.928 242.149 102.937 242.149 104.954C242.149 105.089 242.192 105.146 242.313 105.203C242.575 105.338 242.845 105.48 243.065 105.671C243.861 106.374 244.642 107.106 245.423 107.823C245.444 107.844 245.465 107.866 245.501 107.908C245.252 108.171 245.011 108.427 244.748 108.704C244.677 108.647 244.62 108.597 244.564 108.547C243.811 107.866 243.058 107.184 242.305 106.502C242.021 106.247 241.702 106.112 241.318 106.225C240.906 106.353 240.693 106.8 240.843 107.227C240.978 107.624 241.418 107.83 241.823 107.674C241.865 107.66 241.901 107.645 241.957 107.624C242.057 107.759 242.163 107.894 242.263 108.029C242.362 108.157 242.462 108.292 242.561 108.427C242.242 108.725 241.858 108.803 241.453 108.803C240.637 108.796 239.969 108.349 239.706 107.653C239.422 106.886 239.614 106.026 240.218 105.501C240.367 105.366 240.566 105.288 240.743 105.174C240.786 105.146 240.843 105.096 240.843 105.054C240.85 104.606 240.843 104.159 240.843 103.676C240.488 103.953 240.118 104.13 239.699 104.209C238.613 104.407 237.242 104.067 236.575 103.051C236.277 102.604 236.17 102.107 236.184 101.581C236.184 101.404 236.127 101.304 235.985 101.212C235.403 100.828 234.665 100.921 234.302 101.432C234.153 101.645 234.082 101.886 234.082 102.149C234.082 103.087 234.082 104.024 234.082 104.961V105.167C233.642 105.167 233.216 105.167 232.776 105.167C232.776 104.379 232.776 103.598 232.776 102.774C232.477 103.001 232.179 103.115 231.845 103.143C230.723 103.257 229.616 102.682 229.346 101.389C229.289 101.127 229.275 100.85 229.268 100.573C229.253 100.026 229.268 99.4791 229.268 98.9324C229.268 98.8684 229.268 98.8045 229.268 98.7264C228.799 98.7264 228.352 98.7264 227.876 98.7264C227.876 98.8116 227.876 98.8826 227.876 98.9608C227.855 99.5289 227.876 100.111 227.791 100.672C227.656 101.538 227.073 102.05 226.2 102.156C225.987 102.185 225.767 102.199 225.54 102.213C225.54 102.625 225.497 103.03 225.639 103.42C225.816 103.932 226.314 104.216 226.825 104.059C227.095 103.974 227.35 103.825 227.641 103.69C227.819 103.946 228.039 104.244 228.238 104.556C228.252 104.585 228.195 104.684 228.153 104.727C227.542 105.203 226.867 105.402 226.086 105.281C224.929 105.103 224.347 104.194 224.276 103.207C224.226 102.526 224.247 101.83 224.233 101.148C224.233 101.02 224.268 100.977 224.396 100.977C224.801 100.977 225.213 100.985 225.618 100.949C226.221 100.899 226.491 100.651 226.548 100.054C226.591 99.6212 226.555 99.1809 226.555 98.7264C226.491 98.7264 226.434 98.7193 226.377 98.7193C225.213 98.7193 224.055 98.7193 222.891 98.7122C222.713 98.7122 222.656 98.7477 222.656 98.9394C222.664 100.942 222.656 102.945 222.656 104.947V105.174C222.209 105.174 221.79 105.174 221.336 105.174C221.336 104.429 221.336 103.683 221.336 102.909C221.208 102.973 221.123 103.03 221.03 103.072C219.901 103.577 218.041 103.108 217.735 101.318C217.679 100.985 217.693 100.637 217.686 100.303C217.679 99.8484 217.679 99.3868 217.686 98.9324C217.686 98.7548 217.629 98.7122 217.465 98.7193C217.217 98.7335 216.968 98.7193 216.713 98.7193C216.713 98.343 216.713 97.9879 216.713 97.6044C229.168 97.6044 241.631 97.6044 254.115 97.6044C254.115 97.2991 254.115 97.015 254.115 96.7239C254.115 96.1842 254.278 95.7084 254.633 95.3036C254.917 94.977 255.279 94.7782 255.705 94.6858C256.195 94.5793 256.685 94.5793 257.161 94.7498C257.836 94.9912 258.283 95.4599 258.432 96.1558C258.517 96.5606 258.525 96.9866 258.539 97.4056C258.539 97.5689 258.596 97.6186 258.752 97.6115C258.986 97.5973 259.228 97.6044 259.462 97.5973C259.462 97.9737 259.462 98.3501 259.462 98.7264V98.7122ZM239.38 98.7122C239.664 99.4152 239.735 100.104 239.323 100.757C238.904 101.425 238.229 101.609 237.491 101.645C237.462 102.078 237.704 102.54 238.087 102.781C238.478 103.03 238.904 103.065 239.351 103.03C240.246 102.959 240.843 102.334 240.85 101.439C240.85 100.594 240.85 99.749 240.85 98.9039C240.85 98.8471 240.85 98.7903 240.843 98.7122H239.394H239.38ZM218.985 99.9052C218.985 100.211 218.985 100.516 218.985 100.814C218.985 101.496 219.411 102.099 220.32 102.007C220.867 101.95 221.272 101.602 221.3 101.063C221.336 100.317 221.321 99.5715 221.336 98.8258C221.336 98.7051 221.258 98.7051 221.179 98.7051C220.505 98.7051 219.83 98.7051 219.156 98.7051C219.028 98.7051 218.985 98.7406 218.985 98.8684C218.992 99.2164 218.985 99.5644 218.985 99.9052ZM232.776 98.7264H230.581C230.581 99.4649 230.56 100.196 230.588 100.921C230.603 101.318 230.802 101.659 231.192 101.83C231.98 102.17 232.747 101.681 232.769 100.828C232.783 100.388 232.769 99.9549 232.769 99.5146C232.769 99.2519 232.769 98.9963 232.769 98.7264H232.776ZM234.089 100.31C234.16 100.253 234.203 100.211 234.253 100.182C234.452 100.069 234.643 99.9194 234.856 99.8555C235.645 99.6354 236.362 99.8271 236.987 100.331C237.193 100.495 237.377 100.516 237.604 100.466C238.023 100.374 238.286 100.076 238.293 99.6638C238.293 99.188 238.045 98.8542 237.612 98.7619C237.47 98.7335 237.32 98.7193 237.178 98.7193C236.227 98.7193 235.268 98.7193 234.317 98.7193H234.096C234.096 99.2519 234.096 99.7632 234.096 100.317L234.089 100.31ZM249.13 100.637C249.151 100.601 249.158 100.587 249.158 100.58C249.158 99.9975 249.158 99.4152 249.158 98.8329C249.158 98.7264 249.101 98.7193 249.016 98.7193C248.462 98.7193 247.908 98.7193 247.361 98.7193C247.241 98.7193 247.205 98.7548 247.205 98.8755C247.205 99.401 247.212 99.9336 247.205 100.459C247.205 100.608 247.262 100.644 247.397 100.644C247.88 100.644 248.37 100.644 248.853 100.644C248.945 100.644 249.044 100.644 249.123 100.644L249.13 100.637ZM255.457 97.5902C256.053 97.5902 256.586 97.5902 257.126 97.5902C257.161 97.5902 257.232 97.4979 257.232 97.4482C257.232 97.15 257.232 96.8517 257.204 96.5606C257.168 96.17 256.863 95.8646 256.508 95.8362C255.989 95.7936 255.641 95.9925 255.556 96.4469C255.485 96.8091 255.492 97.1926 255.457 97.6044V97.5902ZM245.536 101.766C245.416 101.773 245.295 101.766 245.174 101.787C244.883 101.837 244.67 102.099 244.684 102.398C244.699 102.746 244.947 102.987 245.302 103.016C245.593 103.037 245.835 102.838 245.884 102.526C245.906 102.398 245.913 102.27 245.913 102.142C245.913 101.709 245.97 101.773 245.536 101.759V101.766Z" fill="#414042"/>
<path d="M187.264 99.9548C188.351 99.3086 189.324 99.4435 190.154 100.345C190.801 101.041 190.9 102.156 190.453 103.008C190.041 103.797 189.153 104.201 188.223 104.18V103.023C188.407 102.966 188.599 102.93 188.763 102.845C189.196 102.632 189.359 102.256 189.331 101.794C189.302 101.34 189.082 101.006 188.642 100.857C188.187 100.7 187.79 100.821 187.456 101.155C187.314 101.297 187.243 101.46 187.243 101.673C187.25 102.774 187.243 103.875 187.243 104.975C187.243 105.032 187.243 105.096 187.243 105.16C186.81 105.16 186.391 105.16 185.943 105.16C185.943 104.748 185.943 104.343 185.943 103.917C184.615 104.528 183.472 104.414 182.627 103.157C182.08 102.341 182.18 101.169 182.798 100.409C183.181 99.9406 183.678 99.6779 184.275 99.5856C184.864 99.4933 185.404 99.6282 185.936 100.005C185.936 99.8128 185.936 99.6708 185.936 99.5359C185.936 99.337 185.929 99.1311 185.936 98.9323C185.943 98.7618 185.887 98.705 185.709 98.705C184.417 98.705 183.131 98.705 181.839 98.705C181.768 98.705 181.697 98.705 181.612 98.705C181.612 98.3287 181.612 97.9665 181.612 97.583H203.334C203.327 97.1712 202.865 96.6954 202.454 96.6599C202.439 96.6599 202.432 96.6599 202.418 96.6599C202.115 96.6457 201.923 96.4918 201.843 96.1983C201.8 96.0492 201.765 95.893 201.729 95.7438C202.503 95.5024 203.348 95.8148 203.774 96.525C203.973 96.8658 204.151 97.2138 204.357 97.6114C204.357 97.5333 204.378 97.4978 204.364 97.4694C204.137 96.88 203.916 96.2906 203.689 95.7012C203.654 95.6089 203.597 95.5166 203.547 95.4243C203.327 95.0621 202.986 94.9485 202.589 94.9485C202.276 94.9485 202.312 95.0053 202.233 94.6786C202.177 94.4656 202.12 94.2455 202.056 94.0182C202.78 93.9756 203.476 93.9614 204.016 94.5224C204.307 94.8207 204.456 95.197 204.584 95.5876C204.783 96.1841 204.989 96.7806 205.173 97.3842C205.223 97.5404 205.301 97.583 205.457 97.583C208.561 97.583 211.664 97.583 214.767 97.583C214.923 97.583 215.001 97.6635 215.001 97.8245C215.001 98.0446 214.987 98.2647 215.001 98.4849C215.016 98.6766 214.945 98.7263 214.76 98.7192C214.476 98.705 214.192 98.7192 213.872 98.7192V105.167H212.551V104.975C212.551 103.946 212.551 102.916 212.551 101.886C212.551 101.709 212.509 101.638 212.317 101.645C211.962 101.659 211.6 101.652 211.238 101.645C211.103 101.645 211.067 101.688 211.06 101.822C211.039 102.206 211.046 102.596 210.947 102.959C210.719 103.761 210.151 104.237 209.335 104.393C208.262 104.606 207.211 104.216 206.679 103.328C206.182 102.49 206.288 101.645 206.721 100.814C206.785 100.693 206.871 100.573 206.956 100.466C206.984 100.431 207.069 100.395 207.105 100.409C207.446 100.573 207.787 100.75 208.149 100.935C207.914 101.219 207.772 101.531 207.716 101.879C207.637 102.341 207.858 102.873 208.213 103.072C208.845 103.42 209.661 103.165 209.761 102.327C209.775 102.227 209.775 102.135 209.775 102.035C209.775 101.567 209.775 101.098 209.775 100.629C209.775 100.48 209.81 100.431 209.967 100.431C210.748 100.438 211.522 100.431 212.303 100.431C212.537 100.431 212.537 100.431 212.544 100.189C212.544 99.7631 212.544 99.337 212.544 98.911C212.544 98.7689 212.509 98.7121 212.346 98.7121C210.236 98.7121 208.12 98.7192 206.011 98.7192C205.756 98.7192 205.5 98.7192 205.244 98.7121C205.074 98.705 205.024 98.7547 205.024 98.9252C205.024 100.857 205.024 102.781 205.024 104.713C205.024 105.025 204.87 105.181 204.563 105.181C204.293 105.181 204.03 105.181 203.746 105.181C203.746 105.132 203.732 105.082 203.732 105.039C203.732 103.023 203.732 101.013 203.732 98.9962C203.732 98.9394 203.746 98.8826 203.725 98.8328C203.703 98.7902 203.654 98.7263 203.618 98.7192C203.071 98.7121 202.525 98.7192 201.964 98.7192C201.964 100.878 201.964 103.015 201.964 105.167H200.657C200.657 103.96 200.657 102.746 200.657 101.51C200.572 101.51 200.508 101.503 200.444 101.503C199.634 101.503 198.825 101.503 198.015 101.503C197.873 101.503 197.724 101.524 197.582 101.56C197.27 101.645 197.106 101.908 197.149 102.227C197.192 102.561 197.412 102.774 197.746 102.781C197.909 102.781 198.079 102.753 198.278 102.731C198.392 103.065 198.512 103.42 198.64 103.804C198.072 104.088 197.511 104.081 196.943 103.832C196.496 103.64 196.183 103.307 195.999 102.866C195.814 102.426 195.828 101.979 195.956 101.517C195.871 101.517 195.814 101.51 195.757 101.51C195.09 101.51 194.415 101.51 193.748 101.51C193.613 101.51 193.478 101.524 193.35 101.56C193.016 101.652 192.86 101.901 192.903 102.249C192.938 102.561 193.172 102.774 193.499 102.781C193.662 102.781 193.819 102.753 194.017 102.731C194.131 103.065 194.252 103.427 194.372 103.804C194.067 103.974 193.748 104.024 193.414 104.01C192.555 103.974 191.866 103.413 191.66 102.596C191.397 101.545 192.079 100.509 193.144 100.331C193.314 100.303 193.492 100.296 193.669 100.296C195.906 100.296 198.15 100.296 200.387 100.296C200.465 100.296 200.543 100.296 200.629 100.296C200.629 99.7702 200.629 99.2589 200.629 98.7192C200.55 98.7192 200.472 98.7192 200.401 98.7192C197.355 98.7192 194.301 98.7192 191.255 98.7192C189.998 98.7192 188.734 98.7192 187.477 98.7192C187.222 98.7192 187.222 98.7192 187.222 98.982C187.222 99.2376 187.222 99.4933 187.222 99.7489C187.222 99.8128 187.229 99.8767 187.236 99.9619L187.264 99.9548ZM185.929 101.957C185.929 101.304 185.503 100.764 184.836 100.729C184.182 100.693 183.664 101.226 183.664 101.908C183.664 102.596 184.14 103.101 184.772 103.101C185.439 103.101 185.915 102.632 185.929 101.957Z" fill="#414042"/>
<path d="M230.72 105.122C230.999 105.122 231.225 104.896 231.225 104.617C231.225 104.338 230.999 104.112 230.72 104.112C230.441 104.112 230.214 104.338 230.214 104.617C230.214 104.896 230.441 105.122 230.72 105.122Z" fill="#414042"/>
</g>
</g>
<defs>
<clipPath id="clip0_295_129886">
<rect width="420" height="129" fill="white"/>
</clipPath>
<clipPath id="clip1_295_129886">
<rect width="103.08" height="109.663" fill="white" transform="translate(169 19)"/>
</clipPath>
</defs>
</svg>
