<svg viewBox="0 0 400 400" fill="none" xmlns="http://www.w3.org/2000/svg">
<g clip-path="url(#clip0_1465_11461)">
<rect width="400" height="400" fill="#C7EFF0"/>
<path d="M548.86 76.1627H94.5439L71.9737 56.2805H-153" stroke="#41C9CD" stroke-width="1.0081"/>
<path d="M-153 203.882H301.316L323.886 184H548.86" stroke="#41C9CD" stroke-width="1.0081"/>
<path d="M469 317.926H105.057L82.4871 337.808L-333 338.882" stroke="#41C9CD" stroke-width="1.0081"/>
<g filter="url(#filter0_d_1465_11461)">
<rect x="169.93" y="34" width="83" height="83" rx="16.0645" fill="#F3FCFC"/>
<rect x="170.599" y="34.6694" width="81.6613" height="81.6613" rx="15.3952" stroke="#41C9CD" stroke-width="1.33871"/>
<path d="M196.841 75.8699H191.318V90.5957H196.841V75.8699Z" fill="white"/>
<path d="M208.805 75.8699H203.283V90.5957H208.805V75.8699Z" fill="white"/>
<path d="M221.69 75.8699H216.168V90.5957H221.69V75.8699Z" fill="white"/>
<path d="M233.655 75.8699H228.133V90.5957H233.655V75.8699Z" fill="white"/>
<path d="M236.416 90.5955H188.557C187.541 90.5955 186.717 91.4196 186.717 92.4362V96.1176C186.717 97.1342 187.541 97.9584 188.557 97.9584H236.416C237.433 97.9584 238.257 97.1342 238.257 96.1176V92.4362C238.257 91.4196 237.433 90.5955 236.416 90.5955Z" fill="#B7CDE1"/>
<path d="M236.416 75.8696H188.557C188.069 75.8696 187.601 75.6757 187.256 75.3305C186.91 74.9853 186.717 74.5171 186.717 74.0289V71.2678C186.716 70.9742 186.787 70.6848 186.921 70.4239C187.056 70.1629 187.25 69.9379 187.49 69.7676L211.419 52.6764C211.731 52.4545 212.104 52.3352 212.487 52.3352C212.869 52.3352 213.243 52.4545 213.554 52.6764L237.484 69.7676C237.723 69.9379 237.918 70.1629 238.052 70.4239C238.187 70.6848 238.257 70.9742 238.257 71.2678V74.0289C238.257 74.5171 238.063 74.9853 237.718 75.3305C237.373 75.6757 236.904 75.8696 236.416 75.8696Z" fill="#B7CDE1"/>
<path d="M196.841 73.1089H191.318V93.3569H196.841V73.1089Z" fill="#B7CDE1"/>
<path d="M208.805 73.1089H203.283V93.3569H208.805V73.1089Z" fill="#B7CDE1"/>
<path d="M221.69 73.1089H216.168V93.3569H221.69V73.1089Z" fill="#B7CDE1"/>
<path d="M233.655 73.1089H228.133V93.3569H233.655V73.1089Z" fill="#B7CDE1"/>
<path d="M231.005 54.8073L232.071 52.8608L233.132 54.8073L235.089 55.8787L233.132 56.9449L232.071 58.8965L231.005 56.9449L229.053 55.8787L231.005 54.8073Z" fill="#42CACD"/>
<path d="M188.402 77.1759L189.82 74.5706L191.243 77.1759L193.844 78.5892L191.238 80.0127L189.82 82.618L188.407 80.0127L185.796 78.5892L188.402 77.1759Z" fill="#FEB452"/>
<g opacity="0.8" style="mix-blend-mode:multiply">
<path fill-rule="evenodd" clip-rule="evenodd" d="M235.843 87.533C235.846 89.116 235.38 90.6642 234.503 91.982C233.626 93.2997 232.378 94.3274 230.917 94.9353C229.456 95.543 227.847 95.7035 226.294 95.3963C224.742 95.0892 223.315 94.3281 222.196 93.2097C221.076 92.0912 220.313 90.6654 220.004 89.1131C219.695 87.5607 219.853 85.9514 220.458 84.4889C221.064 83.0266 222.09 81.7767 223.406 80.8978C224.722 80.0187 226.269 79.5501 227.852 79.5513C228.9 79.5493 229.939 79.7541 230.909 80.1538C231.878 80.5537 232.759 81.1407 233.502 81.8814C234.999 83.3789 235.841 85.4096 235.843 87.5274V87.533Z" fill="#42CACD"/>
</g>
<g opacity="0.8" style="mix-blend-mode:multiply">
<path fill-rule="evenodd" clip-rule="evenodd" d="M235.843 87.533C235.846 89.116 235.38 90.6642 234.503 91.982C233.626 93.2997 232.378 94.3274 230.917 94.9353C229.456 95.543 227.847 95.7035 226.294 95.3963C224.742 95.0892 223.315 94.3281 222.196 93.2097C221.076 92.0912 220.313 90.6654 220.004 89.1131C219.695 87.5607 219.853 85.9514 220.458 84.4889C221.064 83.0266 222.09 81.7767 223.406 80.8978C224.722 80.0187 226.269 79.5501 227.852 79.5513C228.9 79.5493 229.939 79.7541 230.909 80.1538C231.878 80.5537 232.759 81.1407 233.502 81.8814C234.999 83.3789 235.841 85.4096 235.843 87.5274V87.533Z" fill="#42CACD"/>
</g>
<path fill-rule="evenodd" clip-rule="evenodd" d="M229.078 85.3884C228.816 85.2798 228.534 85.2239 228.25 85.2244C227.901 85.2249 227.617 84.9423 227.617 84.5933C227.616 84.2442 227.899 83.9609 228.248 83.9605C228.699 83.9597 229.145 84.0481 229.562 84.2205C229.978 84.3927 230.357 84.6456 230.675 84.9645C230.994 85.2832 231.247 85.6619 231.42 86.0787C231.592 86.4954 231.681 86.942 231.681 87.3931C231.681 87.7421 231.398 88.0249 231.049 88.0249C230.7 88.0249 230.417 87.7421 230.417 87.3931C230.417 87.1079 230.361 86.8254 230.252 86.562C230.143 86.2987 229.983 86.0594 229.782 85.8581C229.58 85.6568 229.341 85.4971 229.078 85.3884Z" fill="#42CACD"/>
<path fill-rule="evenodd" clip-rule="evenodd" d="M232.645 93.8909C231.029 95.1069 229.012 95.6655 227 95.4538C224.988 95.2423 223.131 94.2762 221.805 92.7508C220.478 91.2255 219.782 89.2545 219.855 87.2361C219.928 85.2176 220.766 83.302 222.199 81.8763C223.632 80.4507 225.554 79.6213 227.576 79.5555C229.598 79.4897 231.57 80.1927 233.093 81.5221C234.617 82.8515 235.578 84.7086 235.782 86.718C235.987 88.7275 235.42 90.7396 234.196 92.3479L239.991 98.1215C240.059 98.1903 240.097 98.2831 240.098 98.3797C240.097 98.4746 240.058 98.5654 239.991 98.6321L238.934 99.6926C238.865 99.7604 238.772 99.7988 238.676 99.7993C238.58 99.7985 238.489 99.7601 238.423 99.6926L232.645 93.8909ZM233.426 87.5112C233.43 88.6237 233.102 89.7122 232.484 90.6383C231.867 91.5645 230.987 92.2865 229.958 92.7126C228.928 93.1339 227.797 93.2451 226.704 93.0324C225.663 92.8202 224.703 92.3179 223.937 91.5835C223.17 90.8492 222.628 89.9129 222.372 88.8834C222.117 87.8538 222.159 86.773 222.494 85.7664C222.829 84.7598 223.443 83.8685 224.264 83.1959C225.086 82.5234 226.081 82.0971 227.136 81.9665C228.19 81.8359 229.26 82.0063 230.221 82.4579C231.183 82.9096 231.996 83.624 232.567 84.5184C233.139 85.4129 233.444 86.4505 233.448 87.5112H233.426Z" fill="#42CACD"/>
</g>
<circle cx="332.482" cy="75.4999" r="6.55263" fill="#41C9CD"/>
<circle cx="224.553" cy="204.553" r="6.55263" fill="#41C9CD"/>
<circle cx="362.553" cy="318.553" r="6.55263" fill="#41C9CD"/>
<circle cx="49.4824" cy="55.5526" r="6.55263" fill="#41C9CD"/>
<g filter="url(#filter1_d_1465_11461)">
<rect x="43" y="162" width="84" height="84" rx="16.2581" fill="#F3FCFC"/>
<rect x="43.6774" y="162.677" width="82.6452" height="82.6452" rx="15.5806" stroke="#41C9CD" stroke-width="1.35484"/>
<path fill-rule="evenodd" clip-rule="evenodd" d="M66.5182 219.431L67.322 210.81L77.6748 206.493L80.8289 209.647L76.9067 220.394L68.8647 221.639C68.3583 221.718 67.8755 221.605 67.4804 221.36L71.657 216.835C71.9249 216.979 72.2312 217.061 72.5566 217.061C73.6067 217.061 74.458 216.21 74.458 215.16C74.458 214.11 73.6067 213.258 72.5566 213.258C71.5065 213.258 70.6552 214.11 70.6552 215.16C70.6552 215.54 70.7666 215.893 70.9584 216.19L66.8084 220.686C66.5877 220.327 66.4751 219.893 66.5182 219.431Z" fill="white"/>
<path d="M101.146 179.671C101.908 179.281 102.825 179.439 103.43 180.045L107.225 183.839C107.824 184.438 107.986 185.342 107.608 186.1C106.093 189.143 101.993 196.937 97.7486 201.204C92.3321 206.649 81.2115 211.848 81.2115 211.848L75.4086 206.045C75.4086 206.045 80.7241 195.023 86.1598 189.615C90.4098 185.386 98.1157 181.224 101.146 179.671Z" fill="#FFE9CB"/>
<path fill-rule="evenodd" clip-rule="evenodd" d="M66.5182 219.431L67.322 210.81L77.6748 206.493L80.8289 209.647L76.9067 220.394L68.8647 221.639C68.3583 221.718 67.8755 221.605 67.4804 221.36L71.657 216.835C71.9249 216.979 72.2312 217.061 72.5566 217.061C73.6067 217.061 74.458 216.21 74.458 215.16C74.458 214.11 73.6067 213.258 72.5566 213.258C71.5065 213.258 70.6552 214.11 70.6552 215.16C70.6552 215.54 70.7666 215.893 70.9584 216.19L66.8084 220.686C66.5877 220.327 66.4751 219.893 66.5182 219.431Z" fill="#FEB452"/>
<path d="M66.3667 224.451C66.7655 223.418 67.9066 222.882 68.9564 223.234L74.1275 224.969C74.8063 225.197 75.5465 225.156 76.1956 224.854L79.5289 223.302C80.277 222.954 81.1408 222.954 81.8887 223.303L87.4426 225.892C88.4523 226.363 88.9247 227.535 88.5234 228.575C88.092 229.692 86.8206 230.229 85.7185 229.761L81.235 227.853C80.5769 227.573 79.8366 227.556 79.1663 227.806L75.6525 229.113C75.0635 229.332 74.4177 229.347 73.8196 229.154L67.6621 227.167C66.5304 226.801 65.9383 225.56 66.3667 224.451Z" fill="#6D67CE"/>
<rect x="103.83" y="183.646" width="3.94369" height="17.1217" rx="1.97185" transform="rotate(45 103.83 183.646)" fill="#FEB452"/>
</g>
<g filter="url(#filter2_d_1465_11461)">
<rect x="209" y="277" width="83" height="83" rx="16.0645" fill="#F3FCFC"/>
<rect x="209.669" y="277.669" width="81.6613" height="81.6613" rx="15.3952" stroke="#41C9CD" stroke-width="1.33871"/>
<path d="M273.397 332.907L268.478 327.504C270.478 324.953 271.439 321.745 271.17 318.52C270.901 315.294 269.421 312.289 267.026 310.101C264.631 307.913 261.495 306.704 258.245 306.715C254.994 306.725 251.867 307.955 249.486 310.158C247.106 312.362 245.646 315.377 245.398 318.604C245.15 321.831 246.133 325.033 248.149 327.571C250.166 330.109 253.069 331.798 256.281 332.3C259.492 332.803 262.775 332.082 265.477 330.282L270.505 335.78C270.632 335.907 270.782 336.007 270.948 336.075C271.113 336.143 271.291 336.179 271.47 336.179C271.65 336.179 271.827 336.143 271.993 336.075C272.158 336.007 272.309 335.907 272.436 335.78L273.397 334.816C273.649 334.562 273.791 334.219 273.791 333.862C273.791 333.504 273.649 333.161 273.397 332.907ZM247.604 319.551C247.604 317.449 248.23 315.393 249.403 313.645C250.576 311.897 252.244 310.535 254.194 309.731C256.145 308.926 258.292 308.716 260.362 309.126C262.433 309.536 264.336 310.548 265.829 312.035C267.322 313.521 268.339 315.415 268.75 317.477C269.162 319.539 268.951 321.676 268.143 323.619C267.335 325.561 265.967 327.221 264.211 328.389C262.455 329.557 260.391 330.18 258.28 330.18C255.448 330.18 252.733 329.06 250.731 327.067C248.729 325.074 247.604 322.37 247.604 319.551Z" fill="white"/>
<path fill-rule="evenodd" clip-rule="evenodd" d="M249.693 335.439V331.969H227.648C227.458 331.969 227.275 332.045 227.14 332.18C227.006 332.315 226.93 332.497 226.93 332.688V335.439C226.915 336.179 227.045 336.914 227.314 337.604C227.584 338.293 227.986 338.923 228.498 339.456C229.011 339.99 229.623 340.418 230.301 340.715C230.979 341.012 231.708 341.172 232.448 341.187H255.212C254.472 341.172 253.742 341.012 253.064 340.715C252.387 340.418 251.774 339.99 251.262 339.456C250.749 338.923 250.347 338.293 250.078 337.604C249.809 336.914 249.678 336.179 249.693 335.439Z" fill="white"/>
<path fill-rule="evenodd" clip-rule="evenodd" d="M248.508 300.694V305.031H270.817C271.01 305.031 271.195 304.955 271.332 304.82C271.468 304.685 271.545 304.501 271.545 304.31V300.694C271.56 299.952 271.428 299.215 271.155 298.523C270.883 297.832 270.476 297.2 269.957 296.665C269.439 296.13 268.819 295.701 268.133 295.403C267.447 295.105 266.709 294.944 265.96 294.929H242.924C243.672 294.944 244.411 295.105 245.097 295.403C245.782 295.701 246.402 296.13 246.921 296.665C247.44 297.2 247.847 297.832 248.119 298.523C248.391 299.215 248.524 299.952 248.508 300.694Z" fill="white"/>
<path fill-rule="evenodd" clip-rule="evenodd" d="M248.508 300.694V305.031H270.817C271.01 305.031 271.195 304.955 271.332 304.82C271.468 304.685 271.545 304.501 271.545 304.31V300.694C271.56 299.952 271.428 299.215 271.155 298.523C270.883 297.832 270.476 297.2 269.957 296.665C269.439 296.13 268.819 295.701 268.133 295.403C267.447 295.105 266.709 294.944 265.96 294.929H242.924C243.672 294.944 244.411 295.105 245.097 295.403C245.782 295.701 246.402 296.13 246.921 296.665C247.44 297.2 247.847 297.832 248.119 298.523C248.391 299.215 248.524 299.952 248.508 300.694Z" fill="#FEB452"/>
<path fill-rule="evenodd" clip-rule="evenodd" d="M260.683 300.677V304.988H238.409C238.219 304.988 238.036 304.913 237.901 304.778C237.766 304.643 237.691 304.461 237.691 304.27V300.677C237.675 299.937 237.806 299.202 238.075 298.513C238.344 297.823 238.746 297.194 239.259 296.66C239.771 296.126 240.384 295.698 241.062 295.401C241.74 295.104 242.469 294.944 243.209 294.929H266.201C265.461 294.944 264.732 295.104 264.054 295.401C263.376 295.698 262.763 296.126 262.251 296.66C261.739 297.194 261.336 297.823 261.067 298.513C260.798 299.202 260.667 299.937 260.683 300.677Z" fill="#FFE9CB"/>
<path d="M231.138 300.822C231.138 297.567 233.776 294.929 237.031 294.929H260.602V335.337C260.602 338.591 257.964 341.23 254.709 341.23H232.822C231.892 341.23 231.138 340.476 231.138 339.546V300.822Z" fill="#FFE9CB"/>
<path fill-rule="evenodd" clip-rule="evenodd" d="M249.693 335.439V331.969H227.648C227.458 331.969 227.275 332.045 227.14 332.18C227.006 332.315 226.93 332.497 226.93 332.688V335.439C226.915 336.179 227.045 336.914 227.314 337.604C227.584 338.293 227.986 338.923 228.498 339.456C229.011 339.99 229.623 340.418 230.301 340.715C230.979 341.012 231.708 341.172 232.448 341.187H255.212C254.472 341.172 253.742 341.012 253.064 340.715C252.387 340.418 251.774 339.99 251.262 339.456C250.749 338.923 250.347 338.293 250.078 337.604C249.809 336.914 249.678 336.179 249.693 335.439Z" fill="#FEB452"/>
<path d="M258.125 327.76C260.072 327.76 261.959 327.085 263.465 325.849C264.97 324.614 266 322.895 266.38 320.984C266.76 319.074 266.466 317.092 265.549 315.374C264.631 313.657 263.146 312.31 261.347 311.565C259.547 310.819 257.546 310.721 255.682 311.286C253.818 311.851 252.208 313.044 251.126 314.663C250.043 316.282 249.556 318.226 249.746 320.165C249.936 322.103 250.793 323.915 252.169 325.292C253.749 326.872 255.891 327.759 258.125 327.76Z" fill="#FEB452"/>
<path d="M273.397 332.907L268.478 327.504C270.478 324.953 271.439 321.745 271.17 318.52C270.901 315.294 269.421 312.289 267.026 310.101C264.631 307.913 261.495 306.704 258.245 306.715C254.994 306.725 251.867 307.955 249.486 310.158C247.106 312.362 245.646 315.377 245.398 318.604C245.15 321.831 246.133 325.033 248.149 327.571C250.166 330.109 253.069 331.798 256.281 332.3C259.492 332.803 262.775 332.082 265.477 330.282L270.505 335.78C270.632 335.907 270.782 336.007 270.948 336.075C271.113 336.143 271.291 336.179 271.47 336.179C271.65 336.179 271.827 336.143 271.993 336.075C272.158 336.007 272.309 335.907 272.436 335.78L273.397 334.816C273.649 334.562 273.791 334.219 273.791 333.862C273.791 333.504 273.649 333.161 273.397 332.907ZM247.604 319.551C247.604 317.449 248.23 315.393 249.403 313.645C250.576 311.897 252.244 310.535 254.194 309.731C256.145 308.926 258.292 308.716 260.362 309.126C262.433 309.536 264.336 310.548 265.829 312.035C267.322 313.521 268.339 315.415 268.75 317.477C269.162 319.539 268.951 321.676 268.143 323.619C267.335 325.561 265.967 327.221 264.211 328.389C262.455 329.557 260.391 330.18 258.28 330.18C255.448 330.18 252.733 329.06 250.731 327.067C248.729 325.074 247.604 322.37 247.604 319.551Z" fill="#6D67CE"/>
<g style="mix-blend-mode:multiply" opacity="0.3">
<path d="M258.396 330.418C264.424 330.418 269.31 325.552 269.31 319.551C269.31 313.549 264.424 308.684 258.396 308.684C252.368 308.684 247.481 313.549 247.481 319.551C247.481 325.552 252.368 330.418 258.396 330.418Z" fill="#FFE1BA"/>
</g>
<path d="M262.218 314.852H254.757V316.021H257.109C258.206 316.021 258.899 316.555 259.086 317.436H254.757V318.46H259.086C258.899 319.34 258.191 319.86 257.109 319.86H254.757V321.029H257.253L259.346 324.954H260.861L258.61 320.841C259.62 320.481 260.298 319.6 260.457 318.46H262.218V317.436H260.457C260.371 316.815 260.125 316.295 259.692 315.877H262.218V314.852Z" fill="white"/>
</g>
</g>
<defs>
<filter id="filter0_d_1465_11461" x="164.105" y="34" width="94.6491" height="94.6491" filterUnits="userSpaceOnUse" color-interpolation-filters="sRGB">
<feFlood flood-opacity="0" result="BackgroundImageFix"/>
<feColorMatrix in="SourceAlpha" type="matrix" values="0 0 0 0 0 0 0 0 0 0 0 0 0 0 0 0 0 0 127 0" result="hardAlpha"/>
<feOffset dy="5.82456"/>
<feGaussianBlur stdDeviation="2.91228"/>
<feComposite in2="hardAlpha" operator="out"/>
<feColorMatrix type="matrix" values="0 0 0 0 0.258824 0 0 0 0 0.792157 0 0 0 0 0.803922 0 0 0 0.2 0"/>
<feBlend mode="normal" in2="BackgroundImageFix" result="effect1_dropShadow_1465_11461"/>
<feBlend mode="normal" in="SourceGraphic" in2="effect1_dropShadow_1465_11461" result="shape"/>
</filter>
<filter id="filter1_d_1465_11461" x="37.1053" y="162" width="95.7895" height="95.7895" filterUnits="userSpaceOnUse" color-interpolation-filters="sRGB">
<feFlood flood-opacity="0" result="BackgroundImageFix"/>
<feColorMatrix in="SourceAlpha" type="matrix" values="0 0 0 0 0 0 0 0 0 0 0 0 0 0 0 0 0 0 127 0" result="hardAlpha"/>
<feOffset dy="5.89474"/>
<feGaussianBlur stdDeviation="2.94737"/>
<feComposite in2="hardAlpha" operator="out"/>
<feColorMatrix type="matrix" values="0 0 0 0 0.258824 0 0 0 0 0.792157 0 0 0 0 0.803922 0 0 0 0.2 0"/>
<feBlend mode="normal" in2="BackgroundImageFix" result="effect1_dropShadow_1465_11461"/>
<feBlend mode="normal" in="SourceGraphic" in2="effect1_dropShadow_1465_11461" result="shape"/>
</filter>
<filter id="filter2_d_1465_11461" x="203.175" y="277" width="94.6491" height="94.6491" filterUnits="userSpaceOnUse" color-interpolation-filters="sRGB">
<feFlood flood-opacity="0" result="BackgroundImageFix"/>
<feColorMatrix in="SourceAlpha" type="matrix" values="0 0 0 0 0 0 0 0 0 0 0 0 0 0 0 0 0 0 127 0" result="hardAlpha"/>
<feOffset dy="5.82456"/>
<feGaussianBlur stdDeviation="2.91228"/>
<feComposite in2="hardAlpha" operator="out"/>
<feColorMatrix type="matrix" values="0 0 0 0 0.258824 0 0 0 0 0.792157 0 0 0 0 0.803922 0 0 0 0.2 0"/>
<feBlend mode="normal" in2="BackgroundImageFix" result="effect1_dropShadow_1465_11461"/>
<feBlend mode="normal" in="SourceGraphic" in2="effect1_dropShadow_1465_11461" result="shape"/>
</filter>
<clipPath id="clip0_1465_11461">
<rect width="400" height="400" fill="white"/>
</clipPath>
</defs>
</svg>
