<svg viewBox="0 0 420 131" fill="none" xmlns="http://www.w3.org/2000/svg">
<g clip-path="url(#clip0_978_31665)">
<rect width="420" height="131" fill="#E6F2FF"/>
<g opacity="0.5">
<path d="M80.7795 7.96588L80.7795 1.12671L88.6891 1.12671C88.0496 2.23999 87.2262 3.36401 86.1589 4.43129C84.4184 6.17175 82.5215 7.27123 80.7795 7.96588V7.96588Z" fill="#D3E9FF"/>
<path d="M242.115 7.96588L242.115 1.12671L250.024 1.12671C249.385 2.23999 248.561 3.36401 247.494 4.43129C245.753 6.17175 243.856 7.27123 242.115 7.96588V7.96588Z" fill="#D3E9FF"/>
<path d="M96.9704 -15.2334L80.7941 -15.2334L80.7941 0.834057L96.9704 0.834058L96.9704 -15.2334Z" fill="#99C3EC"/>
<path d="M258.306 -15.2334L242.13 -15.2334L242.13 0.834057L258.306 0.834058L258.306 -15.2334Z" fill="#99C3EC"/>
<path d="M96.9709 7.99365L96.9709 1.15448L89.0614 1.15448C89.7009 2.26776 90.5243 3.39177 91.5916 4.45905C93.3321 6.19951 95.229 7.299 96.9709 7.99365Z" fill="#D3E9FF"/>
<path d="M258.307 7.99365L258.307 1.15448L250.397 1.15448C251.036 2.26776 251.86 3.39177 252.927 4.45905C254.668 6.19951 256.565 7.299 258.307 7.99365Z" fill="#D3E9FF"/>
<path d="M64.5594 -15.298C64.5594 -6.48375 57.2909 0.770995 48.4582 0.770995C39.6256 0.770994 32.357 -6.48222 32.357 -15.298L64.5594 -15.298Z" fill="#B6D9FC"/>
<path d="M225.896 -15.298C225.896 -6.48375 218.627 0.770995 209.795 0.770995C200.962 0.770994 193.693 -6.48222 193.693 -15.298L225.896 -15.298Z" fill="#B6D9FC"/>
<path d="M144.936 -15.298C144.936 -6.48375 137.667 0.770995 128.835 0.770995C120.002 0.770994 112.734 -6.48222 112.734 -15.298L144.936 -15.298Z" fill="#B6D9FC"/>
<path d="M306.271 -15.298C306.271 -6.48375 299.002 0.770995 290.169 0.770995C281.337 0.770994 274.068 -6.48222 274.068 -15.298L306.271 -15.298Z" fill="#B6D9FC"/>
<path d="M387.422 -15.298C387.422 -6.48375 380.153 0.770995 371.321 0.770995C362.488 0.770994 355.219 -6.48222 355.219 -15.298L387.422 -15.298Z" fill="#B6D9FC"/>
<path d="M64.7136 -15.3409L64.7136 0.726561C65.8024 0.721961 71.4654 0.583958 76.0519 -4.00105C80.6369 -8.58606 80.7749 -14.2506 80.7795 -15.3394C80.7335 -15.3394 80.6876 -15.3394 80.6415 -15.3409L64.7136 -15.3409Z" fill="#CDE6FF"/>
<path d="M226.049 -15.3409L226.049 0.726561C227.137 0.721961 232.8 0.583958 237.387 -4.00105C241.972 -8.58606 242.11 -14.2506 242.115 -15.3394C242.068 -15.3394 242.023 -15.3394 241.977 -15.3409L226.049 -15.3409Z" fill="#CDE6FF"/>
<path d="M145.09 -15.3409L145.09 0.726561C146.178 0.721961 151.841 0.583958 156.428 -4.00105C161.013 -8.58606 161.151 -14.2506 161.156 -15.3394C161.11 -15.3394 161.064 -15.3394 161.018 -15.3409L145.09 -15.3409Z" fill="#CDE6FF"/>
<path d="M306.425 -15.3409L306.425 0.726561C307.513 0.721961 313.176 0.583958 317.763 -4.00105C322.348 -8.58606 322.486 -14.2506 322.49 -15.3394C322.444 -15.3394 322.398 -15.3394 322.352 -15.3409L306.425 -15.3409Z" fill="#CDE6FF"/>
<path d="M387.576 -15.3409L387.576 0.726561C388.665 0.721961 394.328 0.583958 398.914 -4.00105C403.499 -8.58606 403.637 -14.2506 403.642 -15.3394C403.596 -15.3394 403.55 -15.3394 403.504 -15.3409L387.576 -15.3409Z" fill="#CDE6FF"/>
<path d="M32.2983 -15.2984L16.2324 -15.2984C16.237 -14.2096 16.375 -8.5466 20.96 -3.96006C25.545 0.624955 31.2081 0.762978 32.2968 0.767578C32.2968 0.721575 32.2968 0.675567 32.2983 0.629564L32.2983 -15.2984Z" fill="#CDE6FF"/>
<path d="M193.633 -15.2984L177.567 -15.2984C177.571 -14.2096 177.709 -8.5466 182.294 -3.96006C186.879 0.624955 192.542 0.762978 193.631 0.767578C193.631 0.721575 193.631 0.675567 193.633 0.629564L193.633 -15.2984Z" fill="#CDE6FF"/>
<path d="M112.673 -15.2984L96.6072 -15.2984C96.6118 -14.2096 96.7498 -8.5466 101.335 -3.96006C105.92 0.624955 111.583 0.762978 112.672 0.767578C112.672 0.721575 112.672 0.675567 112.673 0.629564L112.673 -15.2984Z" fill="#CDE6FF"/>
<path d="M274.009 -15.2984L257.943 -15.2984C257.948 -14.2096 258.086 -8.5466 262.671 -3.96006C267.256 0.624955 272.919 0.762978 274.008 0.767578C274.008 0.721575 274.008 0.675567 274.009 0.629564L274.009 -15.2984Z" fill="#CDE6FF"/>
<path d="M355.16 -15.2984L339.094 -15.2984C339.099 -14.2096 339.237 -8.5466 343.822 -3.96006C348.407 0.624955 354.07 0.762978 355.158 0.767578C355.158 0.721575 355.158 0.675567 355.16 0.629564L355.16 -15.2984Z" fill="#CDE6FF"/>
<path d="M20.9597 4.50359C25.5447 9.0886 31.2093 9.2266 32.298 9.2312C32.298 9.1852 32.298 9.13921 32.2996 9.09321L32.2996 1.19747L18.4295 1.19746C19.069 2.31075 19.8924 3.43477 20.9597 4.50205L20.9597 4.50359Z" fill="#D3E9FF"/>
<path d="M182.295 4.50359C186.88 9.0886 192.544 9.2266 193.633 9.2312C193.633 9.1852 193.633 9.13921 193.635 9.09321L193.635 1.19747L179.764 1.19746C180.404 2.31075 181.227 3.43477 182.295 4.50205L182.295 4.50359Z" fill="#D3E9FF"/>
<path d="M101.335 4.50359C105.92 9.0886 111.585 9.2266 112.673 9.2312C112.673 9.1852 112.673 9.13921 112.675 9.09321L112.675 1.19747L98.8049 1.19746C99.4443 2.31075 100.268 3.43477 101.335 4.50205L101.335 4.50359Z" fill="#D3E9FF"/>
<path d="M262.671 4.50359C267.256 9.0886 272.921 9.2266 274.01 9.2312C274.01 9.1852 274.01 9.13921 274.011 9.09321L274.011 1.19747L260.141 1.19746C260.781 2.31075 261.604 3.43477 262.671 4.50205L262.671 4.50359Z" fill="#D3E9FF"/>
<path d="M343.822 4.50359C348.407 9.0886 354.072 9.2266 355.16 9.2312C355.16 9.1852 355.16 9.13921 355.162 9.09321L355.162 1.19747L341.292 1.19746C341.931 2.31075 342.755 3.43477 343.822 4.50205L343.822 4.50359Z" fill="#D3E9FF"/>
<path d="M76.0512 4.50359C71.4662 9.0886 65.8017 9.2266 64.7129 9.2312C64.7129 9.1852 64.7129 9.13921 64.7114 9.0932L64.7114 1.19746L78.5814 1.19747C77.942 2.31075 77.1185 3.43477 76.0512 4.50205L76.0512 4.50359Z" fill="#D3E9FF"/>
<path d="M237.386 4.50359C232.801 9.0886 227.137 9.2266 226.048 9.2312C226.048 9.1852 226.048 9.13921 226.046 9.0932L226.046 1.19746L239.917 1.19747C239.277 2.31075 238.454 3.43477 237.386 4.50205L237.386 4.50359Z" fill="#D3E9FF"/>
<path d="M156.428 4.50359C151.843 9.0886 146.178 9.2266 145.089 9.2312C145.089 9.1852 145.09 9.13921 145.088 9.0932L145.088 1.19746L158.958 1.19747C158.319 2.31075 157.495 3.43477 156.428 4.50205L156.428 4.50359Z" fill="#D3E9FF"/>
<path d="M317.763 4.50359C313.178 9.0886 307.513 9.2266 306.425 9.2312C306.425 9.1852 306.425 9.13921 306.423 9.0932L306.423 1.19746L320.293 1.19747C319.654 2.31075 318.83 3.43477 317.763 4.50205L317.763 4.50359Z" fill="#D3E9FF"/>
<path d="M398.914 4.50359C394.329 9.0886 388.664 9.2266 387.575 9.2312C387.575 9.1852 387.575 9.13921 387.574 9.0932L387.574 1.19746L401.444 1.19747C400.804 2.31075 399.981 3.43477 398.914 4.50205L398.914 4.50359Z" fill="#D3E9FF"/>
<path d="M16.1764 -15.2334L0 -15.2334L-1.40466e-06 0.834057L16.1764 0.834058L16.1764 -15.2334Z" fill="#99C3EC"/>
<path d="M338.846 -15.2334L322.67 -15.2334L322.67 0.834057L338.846 0.834058L338.846 -15.2334Z" fill="#99C3EC"/>
<path d="M419.998 -15.2334L403.821 -15.2334L403.821 0.834057L419.998 0.834058L419.998 -15.2334Z" fill="#99C3EC"/>
<path d="M177.512 -15.2334L161.336 -15.2334L161.336 0.834057L177.512 0.834058L177.512 -15.2334Z" fill="#99C3EC"/>
<path d="M16.1781 7.99365L16.1781 1.15448L8.26856 1.15448C8.90801 2.26776 9.73147 3.39177 10.7988 4.45905C12.5392 6.19951 14.4361 7.299 16.1781 7.99365Z" fill="#D3E9FF"/>
<path d="M338.849 7.99365L338.849 1.15448L330.94 1.15448C331.579 2.26776 332.403 3.39177 333.47 4.45905C335.21 6.19951 337.107 7.299 338.849 7.99365Z" fill="#D3E9FF"/>
<path d="M420 7.99365L420 1.15448L412.09 1.15448C412.73 2.26776 413.553 3.39177 414.621 4.45905C416.361 6.19951 418.258 7.299 420 7.99365Z" fill="#D3E9FF"/>
<path d="M177.513 7.99365L177.513 1.15448L169.604 1.15448C170.243 2.26776 171.066 3.39177 172.134 4.45905C173.874 6.19951 175.771 7.299 177.513 7.99365Z" fill="#D3E9FF"/>
<path d="M62.6913 1.20836L34.8607 1.20836C37.6485 6.02185 42.8607 9.28808 48.7752 9.28808C54.6898 9.28809 59.9019 6.02185 62.6897 1.20836L62.6913 1.20836Z" fill="#CDE6FF"/>
<path d="M224.027 1.20836L196.197 1.20836C198.985 6.02185 204.197 9.28808 210.111 9.28808C216.026 9.28809 221.238 6.02185 224.026 1.20836L224.027 1.20836Z" fill="#CDE6FF"/>
<path d="M143.068 1.20836L115.237 1.20836C118.025 6.02185 123.237 9.28808 129.152 9.28808C135.066 9.28809 140.279 6.02185 143.066 1.20836L143.068 1.20836Z" fill="#CDE6FF"/>
<path d="M304.403 1.20836L276.573 1.20836C279.361 6.02185 284.573 9.28808 290.487 9.28808C296.402 9.28809 301.614 6.02185 304.402 1.20836L304.403 1.20836Z" fill="#CDE6FF"/>
<path d="M385.555 1.20836L357.724 1.20836C360.512 6.02185 365.724 9.28808 371.639 9.28808C377.553 9.28809 382.765 6.02185 385.553 1.20836L385.555 1.20836Z" fill="#CDE6FF"/>
<path d="M59.4668 10.0378L38.086 10.0378C40.9351 12.5925 44.6875 14.1536 48.7772 14.1536C52.8669 14.1536 56.6192 12.591 59.4684 10.0378L59.4668 10.0378Z" fill="#D5EAFE"/>
<path d="M220.803 10.0378L199.422 10.0378C202.271 12.5925 206.023 14.1536 210.113 14.1536C214.203 14.1536 217.955 12.591 220.804 10.0378L220.803 10.0378Z" fill="#D5EAFE"/>
<path d="M139.843 10.0378L118.462 10.0378C121.311 12.5925 125.064 14.1536 129.153 14.1536C133.243 14.1536 136.995 12.591 139.844 10.0378L139.843 10.0378Z" fill="#D5EAFE"/>
<path d="M301.179 10.0378L279.798 10.0378C282.647 12.5925 286.4 14.1536 290.489 14.1536C294.579 14.1536 298.332 12.591 301.181 10.0378L301.179 10.0378Z" fill="#D5EAFE"/>
<path d="M382.33 10.0378L360.949 10.0378C363.798 12.5925 367.55 14.1536 371.64 14.1536C375.73 14.1536 379.482 12.591 382.331 10.0378L382.33 10.0378Z" fill="#D5EAFE"/>
<path d="M48.7681 17.2114C51.654 17.2114 54.3713 16.4324 56.722 15.0769L40.8125 15.0769C43.1633 16.4324 45.8806 17.2114 48.7665 17.2114L48.7681 17.2114Z" fill="#D5EAFE"/>
<path d="M210.104 17.2114C212.99 17.2114 215.708 16.4324 218.058 15.0769L202.149 15.0769C204.5 16.4324 207.217 17.2114 210.103 17.2114L210.104 17.2114Z" fill="#D5EAFE"/>
<path d="M129.145 17.2114C132.031 17.2114 134.748 16.4324 137.099 15.0769L121.189 15.0769C123.54 16.4324 126.257 17.2114 129.143 17.2114L129.145 17.2114Z" fill="#D5EAFE"/>
<path d="M290.48 17.2114C293.366 17.2114 296.083 16.4324 298.434 15.0769L282.524 15.0769C284.875 16.4324 287.592 17.2114 290.478 17.2114L290.48 17.2114Z" fill="#D5EAFE"/>
<path d="M371.63 17.2114C374.516 17.2114 377.234 16.4324 379.584 15.0769L363.675 15.0769C366.026 16.4324 368.743 17.2114 371.629 17.2114L371.63 17.2114Z" fill="#D5EAFE"/>
</g>
<path d="M80.7795 26.3171L80.7795 33.1563L88.6891 33.1563C88.0496 32.043 87.2262 30.919 86.1589 29.8517C84.4184 28.1113 82.5215 27.0118 80.7795 26.3171V26.3171Z" fill="#D3E9FF"/>
<path d="M242.115 26.3171L242.115 33.1563L250.024 33.1563C249.385 32.043 248.561 30.919 247.494 29.8517C245.753 28.1113 243.856 27.0118 242.115 26.3171V26.3171Z" fill="#D3E9FF"/>
<path d="M80.7795 105.178L80.7795 98.3389L88.6891 98.3389C88.0496 99.4522 87.2262 100.576 86.1589 101.643C84.4184 103.384 82.5215 104.483 80.7795 105.178V105.178Z" fill="#D3E9FF"/>
<path d="M242.115 105.178L242.115 98.3389L250.024 98.3389C249.385 99.4522 248.561 100.576 247.494 101.643C245.753 103.384 243.856 104.483 242.115 105.178V105.178Z" fill="#D3E9FF"/>
<path d="M96.9704 60.4241L80.7941 60.4241L80.7941 71.1965L96.9704 71.1965L96.9704 60.4241Z" fill="#CDE6FF"/>
<path d="M258.306 60.4241L242.13 60.4241L242.13 71.1965L258.306 71.1965L258.306 60.4241Z" fill="#CDE6FF"/>
<path d="M96.9704 33.6104L80.7941 33.6104L80.7941 49.6778L96.9704 49.6778L96.9704 33.6104Z" fill="#99C3EC"/>
<path d="M258.306 33.6104L242.13 33.6104L242.13 49.6778L258.306 49.6778L258.306 33.6104Z" fill="#99C3EC"/>
<path d="M96.9704 81.9783L80.7941 81.9783L80.7941 98.0457L96.9704 98.0457L96.9704 81.9783Z" fill="#99C3EC"/>
<path d="M258.306 81.9783L242.13 81.9783L242.13 98.0457L258.306 98.0457L258.306 81.9783Z" fill="#99C3EC"/>
<path d="M96.9704 49.6367L80.7941 49.6367L80.7941 60.4092L96.9704 60.4092L96.9704 49.6367Z" fill="#B6D9FC"/>
<path d="M258.306 49.6367L242.13 49.6367L242.13 60.4092L258.306 60.4092L258.306 49.6367Z" fill="#B6D9FC"/>
<path d="M96.9704 71.2192L80.7941 71.2192L80.7941 81.9917L96.9704 81.9917L96.9704 71.2192Z" fill="#B6D9FC"/>
<path d="M258.306 71.2192L242.13 71.2192L242.13 81.9917L258.306 81.9917L258.306 71.2192Z" fill="#B6D9FC"/>
<path d="M96.9709 105.206L96.9709 98.3664L89.0614 98.3664C89.7009 99.4797 90.5243 100.604 91.5916 101.671C93.3321 103.411 95.229 104.511 96.9709 105.206Z" fill="#D3E9FF"/>
<path d="M258.307 105.206L258.307 98.3664L250.397 98.3664C251.036 99.4797 251.86 100.604 252.927 101.671C254.668 103.411 256.565 104.511 258.307 105.206Z" fill="#D3E9FF"/>
<path d="M96.9709 26.3449L96.9709 33.1841L89.0614 33.1841C89.7009 32.0708 90.5243 30.9468 91.5916 29.8795C93.3321 28.139 95.229 27.0396 96.9709 26.3449Z" fill="#D3E9FF"/>
<path d="M258.307 26.3449L258.307 33.1841L250.397 33.1841C251.036 32.0708 251.86 30.9468 252.927 29.8795C254.668 28.139 256.565 27.0396 258.307 26.3449Z" fill="#D3E9FF"/>
<path d="M86.805 46.407L88.8122 44.3997L90.8211 46.407L92.2042 45.0238L88.8122 41.6318L85.4203 45.0238L86.805 46.407Z" fill="#E7F1FE"/>
<path d="M92.0548 47.6415L94.0637 49.6488L92.0548 51.6576L93.4396 53.0408L96.8315 49.6488L93.4396 46.2568L92.0548 47.6415Z" fill="#E7F1FE"/>
<path d="M85.5712 51.6576L83.5639 49.6488L85.5712 47.6415L84.188 46.2568L80.796 49.6488L84.188 53.0408L85.5712 51.6576Z" fill="#E7F1FE"/>
<path d="M90.8211 52.8901L88.8122 54.8989L86.805 52.8901L85.4203 54.2748L88.8122 57.6667L92.2042 54.2748L90.8211 52.8901Z" fill="#E7F1FE"/>
<path d="M248.141 46.407L250.149 44.3997L252.157 46.407L253.541 45.0238L250.149 41.6318L246.757 45.0238L248.141 46.407Z" fill="#E7F1FE"/>
<path d="M253.39 47.6418L255.399 49.649L253.39 51.6578L254.775 53.041L258.167 49.649L254.775 46.257L253.39 47.6418Z" fill="#E7F1FE"/>
<path d="M246.907 51.6578L244.9 49.649L246.907 47.6418L245.524 46.257L242.132 49.649L245.524 53.041L246.907 51.6578Z" fill="#E7F1FE"/>
<path d="M252.157 52.8903L250.149 54.8991L248.141 52.8903L246.757 54.275L250.149 57.667L253.541 54.275L252.157 52.8903Z" fill="#E7F1FE"/>
<path d="M86.805 78.74L88.8122 76.7312L90.8211 78.74L92.2042 77.3553L88.8122 73.9633L85.4203 77.3553L86.805 78.74Z" fill="#E7F1FE"/>
<path d="M92.0548 79.9727L94.0637 81.9815L92.0548 83.9888L93.4396 85.3735L96.8315 81.9815L93.4396 78.5895L92.0548 79.9727Z" fill="#E7F1FE"/>
<path d="M85.5712 83.9888L83.5639 81.9815L85.5712 79.9727L84.188 78.5895L80.796 81.9815L84.188 85.3735L85.5712 83.9888Z" fill="#E7F1FE"/>
<path d="M90.8211 85.2234L88.8122 87.2307L86.805 85.2234L85.4203 86.6065L88.8122 89.9985L92.2042 86.6065L90.8211 85.2234Z" fill="#E7F1FE"/>
<path d="M248.141 78.7393L250.149 76.7304L252.157 78.7393L253.541 77.3545L250.149 73.9626L246.757 77.3545L248.141 78.7393Z" fill="#E7F1FE"/>
<path d="M253.39 79.9722L255.399 81.981L253.39 83.9883L254.775 85.373L258.167 81.981L254.775 78.5891L253.39 79.9722Z" fill="#E7F1FE"/>
<path d="M246.907 83.9883L244.9 81.981L246.907 79.9722L245.524 78.5891L242.132 81.981L245.524 85.373L246.907 83.9883Z" fill="#E7F1FE"/>
<path d="M252.157 85.2229L250.149 87.2302L248.141 85.2229L246.757 86.6061L250.149 89.998L253.541 86.6061L252.157 85.2229Z" fill="#E7F1FE"/>
<path d="M48.4223 49.7744C39.5494 49.7744 32.3564 56.9674 32.3564 65.8403C32.3564 74.7133 39.5494 81.9062 48.4223 81.9062C57.2953 81.9062 64.4883 74.7133 64.4883 65.8403C64.4883 56.9674 57.2953 49.7744 48.4223 49.7744Z" fill="#99C3EC"/>
<path d="M209.757 49.7744C200.884 49.7744 193.691 56.9674 193.691 65.8403C193.691 74.7133 200.884 81.9062 209.757 81.9062C218.63 81.9062 225.823 74.7133 225.823 65.8403C225.823 56.9674 218.63 49.7744 209.757 49.7744Z" fill="#99C3EC"/>
<path d="M128.797 49.7744C119.924 49.7744 112.731 56.9674 112.731 65.8403C112.731 74.7133 119.924 81.9062 128.797 81.9062C137.67 81.9062 144.863 74.7133 144.863 65.8403C144.863 56.9674 137.67 49.7744 128.797 49.7744Z" fill="#99C3EC"/>
<path d="M290.133 49.7744C281.26 49.7744 274.067 56.9674 274.067 65.8403C274.067 74.7133 281.26 81.9062 290.133 81.9062C299.006 81.9062 306.199 74.7133 306.199 65.8403C306.199 56.9674 299.006 49.7744 290.133 49.7744Z" fill="#99C3EC"/>
<path d="M371.284 49.7744C362.411 49.7744 355.218 56.9674 355.218 65.8403C355.218 74.7133 362.411 81.9062 371.284 81.9062C380.157 81.9062 387.35 74.7133 387.35 65.8403C387.35 56.9674 380.157 49.7744 371.284 49.7744Z" fill="#99C3EC"/>
<path d="M64.7136 49.6547C73.5263 49.6547 80.7795 56.9064 80.7795 65.7207C80.7795 74.5349 73.5279 81.7866 64.7136 81.7866L64.7136 49.6563L64.7136 49.6547Z" fill="#B6D9FC"/>
<path d="M226.049 49.6547C234.861 49.6547 242.115 56.9064 242.115 65.7207C242.115 74.5349 234.863 81.7866 226.049 81.7866L226.049 49.6563L226.049 49.6547Z" fill="#B6D9FC"/>
<path d="M145.09 49.6547C153.902 49.6547 161.156 56.9064 161.156 65.7207C161.156 74.5349 153.904 81.7866 145.09 81.7866L145.09 49.6563L145.09 49.6547Z" fill="#B6D9FC"/>
<path d="M306.425 49.6547C315.237 49.6547 322.49 56.9064 322.49 65.7207C322.49 74.5349 315.239 81.7866 306.425 81.7866L306.425 49.6563L306.425 49.6547Z" fill="#B6D9FC"/>
<path d="M387.576 49.6547C396.389 49.6547 403.642 56.9064 403.642 65.7207C403.642 74.5349 396.39 81.7866 387.576 81.7866L387.576 49.6563L387.576 49.6547Z" fill="#B6D9FC"/>
<path d="M32.2983 81.7607C23.4856 81.7607 16.2324 74.5489 16.2324 65.7838C16.2324 57.0186 23.4841 49.8068 32.2983 49.8068L32.2983 81.7607Z" fill="#B6D9FC"/>
<path d="M193.633 81.7607C184.82 81.7607 177.567 74.5489 177.567 65.7838C177.567 57.0186 184.818 49.8068 193.633 49.8068L193.633 81.7607Z" fill="#B6D9FC"/>
<path d="M112.673 81.7607C103.86 81.7607 96.6072 74.5489 96.6072 65.7838C96.6072 57.0186 103.859 49.8068 112.673 49.8068L112.673 81.7607Z" fill="#B6D9FC"/>
<path d="M274.009 81.7607C265.197 81.7607 257.943 74.5489 257.943 65.7838C257.943 57.0186 265.195 49.8068 274.009 49.8068L274.009 81.7607Z" fill="#B6D9FC"/>
<path d="M355.16 81.7607C346.347 81.7607 339.094 74.5489 339.094 65.7838C339.094 57.0186 346.346 49.8068 355.16 49.8068L355.16 81.7607Z" fill="#B6D9FC"/>
<path d="M64.5594 81.9137C64.5594 90.7279 57.2909 97.9827 48.4582 97.9827C39.6256 97.9827 32.357 90.7294 32.357 81.9137L64.5594 81.9137Z" fill="#B6D9FC"/>
<path d="M225.896 81.9137C225.896 90.7279 218.627 97.9827 209.795 97.9827C200.962 97.9827 193.693 90.7294 193.693 81.9137L225.896 81.9137Z" fill="#B6D9FC"/>
<path d="M144.936 81.9137C144.936 90.7279 137.667 97.9827 128.835 97.9827C120.002 97.9827 112.734 90.7294 112.734 81.9137L144.936 81.9137Z" fill="#B6D9FC"/>
<path d="M306.271 81.9137C306.271 90.7279 299.002 97.9827 290.169 97.9827C281.337 97.9827 274.068 90.7294 274.068 81.9137L306.271 81.9137Z" fill="#B6D9FC"/>
<path d="M387.422 81.9137C387.422 90.7279 380.153 97.9827 371.321 97.9827C362.488 97.9827 355.219 90.7294 355.219 81.9137L387.422 81.9137Z" fill="#B6D9FC"/>
<path d="M32.357 49.5706C32.357 40.7578 39.6256 33.5046 48.4582 33.5046C57.2909 33.5046 64.5594 40.7563 64.5594 49.5706L32.357 49.5706Z" fill="#B6D9FC"/>
<path d="M193.693 49.5706C193.693 40.7578 200.962 33.5046 209.795 33.5046C218.627 33.5046 225.896 40.7563 225.896 49.5706L193.693 49.5706Z" fill="#B6D9FC"/>
<path d="M112.734 49.5706C112.734 40.7578 120.002 33.5046 128.835 33.5046C137.667 33.5046 144.936 40.7563 144.936 49.5706L112.734 49.5706Z" fill="#B6D9FC"/>
<path d="M274.068 49.5706C274.068 40.7578 281.337 33.5046 290.169 33.5046C299.002 33.5046 306.271 40.7563 306.271 49.5706L274.068 49.5706Z" fill="#B6D9FC"/>
<path d="M355.219 49.5706C355.219 40.7578 362.488 33.5046 371.321 33.5046C380.153 33.5046 387.422 40.7563 387.422 49.5706L355.219 49.5706Z" fill="#B6D9FC"/>
<path d="M32.2983 49.5706L32.2983 33.5031C31.2096 33.5077 25.5466 33.6457 20.96 38.2307C16.375 42.8157 16.237 48.4803 16.2324 49.569C16.2784 49.569 16.3244 49.569 16.3704 49.5706L32.2983 49.5706V49.5706Z" fill="#CDE6FF"/>
<path d="M193.633 49.5706L193.633 33.5031C192.544 33.5077 186.881 33.6457 182.294 38.2307C177.709 42.8157 177.571 48.4803 177.567 49.569C177.613 49.569 177.659 49.569 177.705 49.5706L193.633 49.5706V49.5706Z" fill="#CDE6FF"/>
<path d="M112.673 49.5706L112.673 33.5031C111.584 33.5077 105.921 33.6457 101.335 38.2307C96.7498 42.8157 96.6118 48.4803 96.6072 49.569C96.6532 49.569 96.6992 49.569 96.7452 49.5706L112.673 49.5706V49.5706Z" fill="#CDE6FF"/>
<path d="M274.009 49.5706L274.009 33.5031C272.921 33.5077 267.257 33.6457 262.671 38.2307C258.086 42.8157 257.948 48.4803 257.943 49.569C257.989 49.569 258.035 49.569 258.081 49.5706L274.009 49.5706V49.5706Z" fill="#CDE6FF"/>
<path d="M355.16 49.5706L355.16 33.5031C354.071 33.5077 348.408 33.6457 343.822 38.2307C339.237 42.8157 339.099 48.4803 339.094 49.569C339.14 49.569 339.186 49.569 339.232 49.5706L355.16 49.5706V49.5706Z" fill="#CDE6FF"/>
<path d="M64.7136 49.5706L80.7795 49.5706C80.7749 48.4818 80.6369 42.8188 76.0519 38.2323C71.4669 33.6472 65.8039 33.5092 64.7151 33.5046C64.7151 33.5506 64.7151 33.5966 64.7136 33.6426L64.7136 49.5706Z" fill="#CDE6FF"/>
<path d="M226.049 49.5706L242.115 49.5706C242.11 48.4818 241.972 42.8188 237.387 38.2323C232.802 33.6472 227.139 33.5092 226.05 33.5046C226.05 33.5506 226.05 33.5966 226.049 33.6426L226.049 49.5706Z" fill="#CDE6FF"/>
<path d="M145.09 49.5706L161.156 49.5706C161.151 48.4818 161.013 42.8188 156.428 38.2323C151.843 33.6472 146.18 33.5092 145.091 33.5046C145.091 33.5506 145.091 33.5966 145.09 33.6426L145.09 49.5706Z" fill="#CDE6FF"/>
<path d="M306.425 49.5706L322.49 49.5706C322.486 48.4818 322.348 42.8188 317.763 38.2323C313.178 33.6472 307.515 33.5092 306.426 33.5046C306.426 33.5506 306.426 33.5966 306.425 33.6426L306.425 49.5706Z" fill="#CDE6FF"/>
<path d="M387.576 49.5706L403.642 49.5706C403.637 48.4818 403.499 42.8188 398.914 38.2323C394.329 33.6472 388.666 33.5092 387.577 33.5046C387.577 33.5506 387.577 33.5966 387.576 33.6426L387.576 49.5706Z" fill="#CDE6FF"/>
<path d="M64.7136 81.871L64.7136 97.9385C65.8024 97.9339 71.4654 97.7959 76.0519 93.2109C80.6369 88.6259 80.7749 82.9613 80.7795 81.8725C80.7335 81.8725 80.6876 81.8725 80.6415 81.871L64.7136 81.871Z" fill="#CDE6FF"/>
<path d="M226.049 81.871L226.049 97.9385C227.137 97.9339 232.8 97.7959 237.387 93.2109C241.972 88.6259 242.11 82.9613 242.115 81.8725C242.068 81.8725 242.023 81.8725 241.977 81.871L226.049 81.871Z" fill="#CDE6FF"/>
<path d="M145.09 81.871L145.09 97.9385C146.178 97.9339 151.841 97.7959 156.428 93.2109C161.013 88.6259 161.151 82.9613 161.156 81.8725C161.11 81.8725 161.064 81.8725 161.018 81.871L145.09 81.871Z" fill="#CDE6FF"/>
<path d="M306.425 81.871L306.425 97.9385C307.513 97.9339 313.176 97.7959 317.763 93.2109C322.348 88.6259 322.486 82.9613 322.49 81.8725C322.444 81.8725 322.398 81.8725 322.352 81.871L306.425 81.871Z" fill="#CDE6FF"/>
<path d="M387.576 81.871L387.576 97.9385C388.665 97.9339 394.328 97.7959 398.914 93.2109C403.499 88.6259 403.637 82.9613 403.642 81.8725C403.596 81.8725 403.55 81.8725 403.504 81.871L387.576 81.871Z" fill="#CDE6FF"/>
<path d="M32.2983 81.9133L16.2324 81.9133C16.237 83.0021 16.375 88.6651 20.96 93.2516C25.545 97.8366 31.2081 97.9746 32.2968 97.9792C32.2968 97.9332 32.2968 97.8872 32.2983 97.8412L32.2983 81.9133Z" fill="#CDE6FF"/>
<path d="M193.633 81.9133L177.567 81.9133C177.571 83.0021 177.709 88.6651 182.294 93.2516C186.879 97.8366 192.542 97.9746 193.631 97.9792C193.631 97.9332 193.631 97.8872 193.633 97.8412L193.633 81.9133Z" fill="#CDE6FF"/>
<path d="M112.673 81.9133L96.6072 81.9133C96.6118 83.0021 96.7498 88.6651 101.335 93.2516C105.92 97.8366 111.583 97.9746 112.672 97.9792C112.672 97.9332 112.672 97.8872 112.673 97.8412L112.673 81.9133Z" fill="#CDE6FF"/>
<path d="M274.009 81.9133L257.943 81.9133C257.948 83.0021 258.086 88.6651 262.671 93.2516C267.256 97.8366 272.919 97.9746 274.008 97.9792C274.008 97.9332 274.008 97.8872 274.009 97.8412L274.009 81.9133Z" fill="#CDE6FF"/>
<path d="M355.16 81.9133L339.094 81.9133C339.099 83.0021 339.237 88.6651 343.822 93.2516C348.407 97.8366 354.07 97.9746 355.158 97.9792C355.158 97.9332 355.158 97.8872 355.16 97.8412L355.16 81.9133Z" fill="#CDE6FF"/>
<path d="M47.4745 69.6802L44.3877 69.6802L44.3877 66.5933L42.2592 66.5933L42.2592 71.8086L47.4745 71.8086L47.4745 69.6802Z" fill="#3F85CB"/>
<path d="M44.3877 64.6963L44.3877 61.6095L47.4745 61.6095L47.4745 59.481L42.2592 59.481L42.2592 64.6963L44.3877 64.6963Z" fill="#3F85CB"/>
<path d="M52.4582 66.5933L52.4582 69.6802L49.3714 69.6802L49.3714 71.8086L54.5867 71.8086L54.5867 66.5933L52.4582 66.5933Z" fill="#3F85CB"/>
<path d="M49.3712 61.6095L52.458 61.6095L52.458 64.6963L54.5864 64.6963L54.5864 59.481L49.3712 59.481L49.3712 61.6095Z" fill="#3F85CB"/>
<path d="M208.809 69.6802L205.722 69.6802L205.722 66.5933L203.594 66.5933L203.594 71.8086L208.809 71.8086L208.809 69.6802Z" fill="#3F85CB"/>
<path d="M205.722 64.6963L205.722 61.6095L208.809 61.6095L208.809 59.481L203.594 59.481L203.594 64.6963L205.722 64.6963Z" fill="#3F85CB"/>
<path d="M213.794 66.5933L213.794 69.6802L210.707 69.6802L210.707 71.8086L215.922 71.8086L215.922 66.5933L213.794 66.5933Z" fill="#3F85CB"/>
<path d="M210.707 61.6095L213.794 61.6095L213.794 64.6963L215.922 64.6963L215.922 59.481L210.707 59.481L210.707 61.6095Z" fill="#3F85CB"/>
<path d="M127.851 69.6802L124.764 69.6802L124.764 66.5933L122.636 66.5933L122.636 71.8086L127.851 71.8086L127.851 69.6802Z" fill="#3F85CB"/>
<path d="M124.764 64.6963L124.764 61.6095L127.851 61.6095L127.851 59.481L122.636 59.481L122.636 64.6963L124.764 64.6963Z" fill="#3F85CB"/>
<path d="M132.834 66.5933L132.834 69.6802L129.747 69.6802L129.747 71.8086L134.963 71.8086L134.963 66.5933L132.834 66.5933Z" fill="#3F85CB"/>
<path d="M129.747 61.6095L132.834 61.6095L132.834 64.6963L134.962 64.6963L134.962 59.481L129.747 59.481L129.747 61.6095Z" fill="#3F85CB"/>
<path d="M289.186 69.6802L286.099 69.6802L286.099 66.5933L283.97 66.5933L283.97 71.8086L289.186 71.8086L289.186 69.6802Z" fill="#3F85CB"/>
<path d="M286.099 64.6963L286.099 61.6095L289.186 61.6095L289.186 59.481L283.97 59.481L283.97 64.6963L286.099 64.6963Z" fill="#3F85CB"/>
<path d="M294.169 66.5933L294.169 69.6802L291.082 69.6802L291.082 71.8086L296.298 71.8086L296.298 66.5933L294.169 66.5933Z" fill="#3F85CB"/>
<path d="M291.082 61.6095L294.169 61.6095L294.169 64.6963L296.298 64.6963L296.298 59.481L291.082 59.481L291.082 61.6095Z" fill="#3F85CB"/>
<path d="M370.337 69.6802L367.25 69.6802L367.25 66.5933L365.121 66.5933L365.121 71.8086L370.337 71.8086L370.337 69.6802Z" fill="#3F85CB"/>
<path d="M367.25 64.6963L367.25 61.6095L370.337 61.6095L370.337 59.481L365.121 59.481L365.121 64.6963L367.25 64.6963Z" fill="#3F85CB"/>
<path d="M375.32 66.5933L375.32 69.6802L372.233 69.6802L372.233 71.8086L377.448 71.8086L377.448 66.5933L375.32 66.5933Z" fill="#3F85CB"/>
<path d="M372.233 61.6095L375.32 61.6095L375.32 64.6963L377.449 64.6963L377.449 59.481L372.233 59.481L372.233 61.6095Z" fill="#3F85CB"/>
<path d="M76.0512 29.9102C71.4662 25.3252 65.8017 25.1872 64.7129 25.1826C64.7129 25.2286 64.7129 25.2746 64.7114 25.3206L64.7114 33.2163L78.5814 33.2163C77.942 32.103 77.1185 30.979 76.0512 29.9117L76.0512 29.9102Z" fill="#D3E9FF"/>
<path d="M237.386 29.9102C232.801 25.3252 227.137 25.1872 226.048 25.1826C226.048 25.2286 226.048 25.2746 226.046 25.3206L226.046 33.2163L239.917 33.2163C239.277 32.103 238.454 30.979 237.386 29.9117L237.386 29.9102Z" fill="#D3E9FF"/>
<path d="M156.428 29.9102C151.843 25.3252 146.178 25.1872 145.089 25.1826C145.089 25.2286 145.09 25.2746 145.088 25.3206L145.088 33.2163L158.958 33.2163C158.319 32.103 157.495 30.979 156.428 29.9117L156.428 29.9102Z" fill="#D3E9FF"/>
<path d="M317.763 29.9102C313.178 25.3252 307.513 25.1872 306.425 25.1826C306.425 25.2286 306.425 25.2746 306.423 25.3206L306.423 33.2163L320.293 33.2163C319.654 32.103 318.83 30.979 317.763 29.9117L317.763 29.9102Z" fill="#D3E9FF"/>
<path d="M398.914 29.9102C394.329 25.3252 388.664 25.1872 387.575 25.1826C387.575 25.2286 387.575 25.2746 387.574 25.3206L387.574 33.2163L401.444 33.2163C400.804 32.103 399.981 30.979 398.914 29.9117L398.914 29.9102Z" fill="#D3E9FF"/>
<path d="M20.9597 101.716C25.5447 106.301 31.2093 106.439 32.298 106.443C32.298 106.397 32.298 106.351 32.2996 106.305L32.2996 98.4094L18.4295 98.4094C19.069 99.5227 19.8924 100.647 20.9597 101.714L20.9597 101.716Z" fill="#D3E9FF"/>
<path d="M182.295 101.716C186.88 106.301 192.544 106.439 193.633 106.443C193.633 106.397 193.633 106.351 193.635 106.305L193.635 98.4094L179.764 98.4094C180.404 99.5227 181.227 100.647 182.295 101.714L182.295 101.716Z" fill="#D3E9FF"/>
<path d="M101.335 101.716C105.92 106.301 111.585 106.439 112.673 106.443C112.673 106.397 112.673 106.351 112.675 106.305L112.675 98.4094L98.8049 98.4094C99.4443 99.5227 100.268 100.647 101.335 101.714L101.335 101.716Z" fill="#D3E9FF"/>
<path d="M262.671 101.716C267.256 106.301 272.921 106.439 274.01 106.443C274.01 106.397 274.01 106.351 274.011 106.305L274.011 98.4094L260.141 98.4094C260.781 99.5227 261.604 100.647 262.671 101.714L262.671 101.716Z" fill="#D3E9FF"/>
<path d="M343.822 101.716C348.407 106.301 354.072 106.439 355.16 106.443C355.16 106.397 355.16 106.351 355.162 106.305L355.162 98.4094L341.292 98.4094C341.931 99.5227 342.755 100.647 343.822 101.714L343.822 101.716Z" fill="#D3E9FF"/>
<path d="M76.0512 101.716C71.4662 106.301 65.8017 106.439 64.7129 106.443C64.7129 106.397 64.7129 106.351 64.7114 106.305L64.7114 98.4094L78.5814 98.4094C77.942 99.5227 77.1185 100.647 76.0512 101.714L76.0512 101.716Z" fill="#D3E9FF"/>
<path d="M237.386 101.716C232.801 106.301 227.137 106.439 226.048 106.443C226.048 106.397 226.048 106.351 226.046 106.305L226.046 98.4094L239.917 98.4094C239.277 99.5227 238.454 100.647 237.386 101.714L237.386 101.716Z" fill="#D3E9FF"/>
<path d="M156.428 101.716C151.843 106.301 146.178 106.439 145.089 106.443C145.089 106.397 145.09 106.351 145.088 106.305L145.088 98.4094L158.958 98.4094C158.319 99.5227 157.495 100.647 156.428 101.714L156.428 101.716Z" fill="#D3E9FF"/>
<path d="M317.763 101.716C313.178 106.301 307.513 106.439 306.425 106.443C306.425 106.397 306.425 106.351 306.423 106.305L306.423 98.4094L320.293 98.4094C319.654 99.5227 318.83 100.647 317.763 101.714L317.763 101.716Z" fill="#D3E9FF"/>
<path d="M398.914 101.716C394.329 106.301 388.664 106.439 387.575 106.443C387.575 106.397 387.575 106.351 387.574 106.305L387.574 98.4094L401.444 98.4094C400.804 99.5227 399.981 100.647 398.914 101.714L398.914 101.716Z" fill="#D3E9FF"/>
<path d="M20.9597 29.9102C25.5447 25.3252 31.2093 25.1872 32.298 25.1826C32.298 25.2286 32.298 25.2746 32.2996 25.3206L32.2996 33.2163L18.4295 33.2163C19.069 32.103 19.8924 30.979 20.9597 29.9117L20.9597 29.9102Z" fill="#D3E9FF"/>
<path d="M182.295 29.9102C186.88 25.3252 192.544 25.1872 193.633 25.1826C193.633 25.2286 193.633 25.2746 193.635 25.3206L193.635 33.2163L179.764 33.2163C180.404 32.103 181.227 30.979 182.295 29.9117L182.295 29.9102Z" fill="#D3E9FF"/>
<path d="M101.335 29.9102C105.92 25.3252 111.585 25.1872 112.673 25.1826C112.673 25.2286 112.673 25.2746 112.675 25.3206L112.675 33.2163L98.8049 33.2163C99.4443 32.103 100.268 30.979 101.335 29.9117L101.335 29.9102Z" fill="#D3E9FF"/>
<path d="M262.671 29.9102C267.256 25.3252 272.921 25.1872 274.01 25.1826C274.01 25.2286 274.01 25.2746 274.011 25.3206L274.011 33.2163L260.141 33.2163C260.781 32.103 261.604 30.979 262.671 29.9117L262.671 29.9102Z" fill="#D3E9FF"/>
<path d="M343.822 29.9102C348.407 25.3252 354.072 25.1872 355.16 25.1826C355.16 25.2286 355.16 25.2746 355.162 25.3206L355.162 33.2163L341.292 33.2163C341.931 32.103 342.755 30.979 343.822 29.9117L343.822 29.9102Z" fill="#D3E9FF"/>
<path d="M16.1764 60.4241L0 60.4241L-9.41759e-07 71.1965L16.1764 71.1965L16.1764 60.4241Z" fill="#CDE6FF"/>
<path d="M338.846 60.4241L322.67 60.4241L322.67 71.1965L338.846 71.1965L338.846 60.4241Z" fill="#CDE6FF"/>
<path d="M419.998 60.4241L403.821 60.4241L403.821 71.1965L419.998 71.1965L419.998 60.4241Z" fill="#CDE6FF"/>
<path d="M177.512 60.4241L161.336 60.4241L161.336 71.1965L177.512 71.1965L177.512 60.4241Z" fill="#CDE6FF"/>
<path d="M16.1764 33.6104L0 33.6104L-1.40466e-06 49.6778L16.1764 49.6778L16.1764 33.6104Z" fill="#99C3EC"/>
<path d="M338.846 33.6104L322.67 33.6104L322.67 49.6778L338.846 49.6778L338.846 33.6104Z" fill="#99C3EC"/>
<path d="M419.998 33.6104L403.821 33.6104L403.821 49.6778L419.998 49.6778L419.998 33.6104Z" fill="#99C3EC"/>
<path d="M177.512 33.6104L161.336 33.6104L161.336 49.6778L177.512 49.6778L177.512 33.6104Z" fill="#99C3EC"/>
<path d="M16.1764 81.9783L0 81.9783L-1.40466e-06 98.0457L16.1764 98.0457L16.1764 81.9783Z" fill="#99C3EC"/>
<path d="M338.846 81.9783L322.67 81.9783L322.67 98.0457L338.846 98.0457L338.846 81.9783Z" fill="#99C3EC"/>
<path d="M419.998 81.9783L403.821 81.9783L403.821 98.0457L419.998 98.0457L419.998 81.9783Z" fill="#99C3EC"/>
<path d="M177.512 81.9783L161.336 81.9783L161.336 98.0457L177.512 98.0457L177.512 81.9783Z" fill="#99C3EC"/>
<path d="M16.1764 49.6367L0 49.6367L-9.41759e-07 60.4092L16.1764 60.4092L16.1764 49.6367Z" fill="#B6D9FC"/>
<path d="M338.846 49.6367L322.67 49.6367L322.67 60.4092L338.846 60.4092L338.846 49.6367Z" fill="#B6D9FC"/>
<path d="M419.998 49.6367L403.821 49.6367L403.821 60.4092L419.998 60.4092L419.998 49.6367Z" fill="#B6D9FC"/>
<path d="M177.512 49.6367L161.336 49.6367L161.336 60.4092L177.512 60.4092L177.512 49.6367Z" fill="#B6D9FC"/>
<path d="M16.1764 71.2192L0 71.2192L-9.41759e-07 81.9917L16.1764 81.9917L16.1764 71.2192Z" fill="#B6D9FC"/>
<path d="M338.846 71.2192L322.67 71.2192L322.67 81.9917L338.846 81.9917L338.846 71.2192Z" fill="#B6D9FC"/>
<path d="M419.998 71.2192L403.821 71.2192L403.821 81.9917L419.998 81.9917L419.998 71.2192Z" fill="#B6D9FC"/>
<path d="M177.512 71.2192L161.336 71.2192L161.336 81.9917L177.512 81.9917L177.512 71.2192Z" fill="#B6D9FC"/>
<path d="M16.1781 105.206L16.1781 98.3664L8.26856 98.3664C8.90801 99.4797 9.73147 100.604 10.7988 101.671C12.5392 103.411 14.4361 104.511 16.1781 105.206Z" fill="#D3E9FF"/>
<path d="M338.849 105.206L338.849 98.3664L330.94 98.3664C331.579 99.4797 332.403 100.604 333.47 101.671C335.21 103.411 337.107 104.511 338.849 105.206Z" fill="#D3E9FF"/>
<path d="M420 105.206L420 98.3664L412.09 98.3664C412.73 99.4797 413.553 100.604 414.621 101.671C416.361 103.411 418.258 104.511 420 105.206Z" fill="#D3E9FF"/>
<path d="M177.513 105.206L177.513 98.3664L169.604 98.3664C170.243 99.4797 171.066 100.604 172.134 101.671C173.874 103.411 175.771 104.511 177.513 105.206Z" fill="#D3E9FF"/>
<path d="M16.1781 26.3449L16.1781 33.1841L8.26856 33.1841C8.90801 32.0708 9.73147 30.9468 10.7988 29.8795C12.5392 28.139 14.4361 27.0396 16.1781 26.3449Z" fill="#D3E9FF"/>
<path d="M338.849 26.3449L338.849 33.1841L330.94 33.1841C331.579 32.0708 332.403 30.9468 333.47 29.8795C335.21 28.139 337.107 27.0396 338.849 26.3449Z" fill="#D3E9FF"/>
<path d="M420 26.3449L420 33.1841L412.09 33.1841C412.73 32.0708 413.553 30.9468 414.621 29.8795C416.361 28.139 418.258 27.0396 420 26.3449Z" fill="#D3E9FF"/>
<path d="M177.513 26.3449L177.513 33.1841L169.604 33.1841C170.243 32.0708 171.066 30.9468 172.134 29.8795C173.874 28.139 175.771 27.0396 177.513 26.3449Z" fill="#D3E9FF"/>
<path d="M6.01009 46.407L8.0189 44.3997L10.0262 46.407L11.4109 45.0238L8.0189 41.6318L4.62692 45.0238L6.01009 46.407Z" fill="#E7F1FE"/>
<path d="M11.2612 47.6415L13.2685 49.6488L11.2612 51.6576L12.6444 53.0408L16.0364 49.6488L12.6444 46.2568L11.2612 47.6415Z" fill="#E7F1FE"/>
<path d="M4.77844 51.6576L2.76963 49.6488L4.77844 47.6415L3.39375 46.2568L0.00174857 49.6488L3.39375 53.0408L4.77844 51.6576Z" fill="#E7F1FE"/>
<path d="M10.0262 52.8901L8.0189 54.8989L6.01009 52.8901L4.62692 54.2748L8.0189 57.6667L11.4109 54.2748L10.0262 52.8901Z" fill="#E7F1FE"/>
<path d="M328.682 46.407L330.691 44.3997L332.698 46.407L334.083 45.0238L330.691 41.6318L327.299 45.0238L328.682 46.407Z" fill="#E7F1FE"/>
<path d="M333.932 47.6415L335.94 49.6488L333.932 51.6576L335.316 53.0408L338.708 49.6488L335.316 46.2568L333.932 47.6415Z" fill="#E7F1FE"/>
<path d="M327.449 51.6576L325.441 49.6488L327.449 47.6415L326.065 46.2568L322.673 49.6488L326.065 53.0408L327.449 51.6576Z" fill="#E7F1FE"/>
<path d="M332.698 52.8901L330.691 54.8989L328.682 52.8901L327.299 54.2748L330.691 57.6667L334.083 54.2748L332.698 52.8901Z" fill="#E7F1FE"/>
<path d="M409.833 46.407L411.842 44.3997L413.849 46.407L415.234 45.0238L411.842 41.6318L408.45 45.0238L409.833 46.407Z" fill="#E7F1FE"/>
<path d="M415.083 47.6415L417.09 49.6488L415.083 51.6576L416.466 53.0408L419.858 49.6488L416.466 46.2568L415.083 47.6415Z" fill="#E7F1FE"/>
<path d="M408.6 51.6576L406.591 49.6488L408.6 47.6415L407.215 46.2568L403.823 49.6488L407.215 53.0408L408.6 51.6576Z" fill="#E7F1FE"/>
<path d="M413.849 52.8901L411.842 54.8989L409.833 52.8901L408.45 54.2748L411.842 57.6667L415.234 54.2748L413.849 52.8901Z" fill="#E7F1FE"/>
<path d="M167.346 46.407L169.355 44.3997L171.362 46.407L172.747 45.0238L169.355 41.6318L165.963 45.0238L167.346 46.407Z" fill="#E7F1FE"/>
<path d="M172.597 47.6415L174.604 49.6488L172.597 51.6576L173.98 53.0408L177.372 49.6488L173.98 46.2568L172.597 47.6415Z" fill="#E7F1FE"/>
<path d="M166.113 51.6576L164.104 49.6488L166.113 47.6415L164.728 46.2568L161.336 49.6488L164.728 53.0408L166.113 51.6576Z" fill="#E7F1FE"/>
<path d="M171.362 52.8901L169.355 54.8989L167.346 52.8901L165.963 54.2748L169.355 57.6667L172.747 54.2748L171.362 52.8901Z" fill="#E7F1FE"/>
<path d="M6.01009 78.74L8.0189 76.7312L10.0262 78.74L11.4109 77.3553L8.0189 73.9633L4.62692 77.3553L6.01009 78.74Z" fill="#E7F1FE"/>
<path d="M11.2612 79.9727L13.2685 81.9815L11.2612 83.9888L12.6444 85.3735L16.0364 81.9815L12.6444 78.5895L11.2612 79.9727Z" fill="#E7F1FE"/>
<path d="M4.77844 83.9888L2.76963 81.9815L4.77844 79.9727L3.39375 78.5895L0.00174857 81.9815L3.39375 85.3735L4.77844 83.9888Z" fill="#E7F1FE"/>
<path d="M10.0262 85.2234L8.0189 87.2307L6.01009 85.2234L4.62692 86.6065L8.0189 89.9985L11.4109 86.6065L10.0262 85.2234Z" fill="#E7F1FE"/>
<path d="M328.682 78.74L330.691 76.7312L332.698 78.74L334.083 77.3553L330.691 73.9633L327.299 77.3553L328.682 78.74Z" fill="#E7F1FE"/>
<path d="M333.932 79.9727L335.94 81.9815L333.932 83.9888L335.316 85.3735L338.708 81.9815L335.316 78.5895L333.932 79.9727Z" fill="#E7F1FE"/>
<path d="M327.449 83.9888L325.441 81.9815L327.449 79.9727L326.065 78.5895L322.673 81.9815L326.065 85.3735L327.449 83.9888Z" fill="#E7F1FE"/>
<path d="M332.698 85.2234L330.691 87.2307L328.682 85.2234L327.299 86.6065L330.691 89.9985L334.083 86.6065L332.698 85.2234Z" fill="#E7F1FE"/>
<path d="M409.833 78.74L411.842 76.7312L413.849 78.74L415.234 77.3553L411.842 73.9633L408.45 77.3553L409.833 78.74Z" fill="#E7F1FE"/>
<path d="M415.083 79.9727L417.09 81.9815L415.083 83.9888L416.466 85.3735L419.858 81.9815L416.466 78.5895L415.083 79.9727Z" fill="#E7F1FE"/>
<path d="M408.6 83.9888L406.591 81.9815L408.6 79.9727L407.215 78.5895L403.823 81.9815L407.215 85.3735L408.6 83.9888Z" fill="#E7F1FE"/>
<path d="M413.849 85.2234L411.842 87.2307L409.833 85.2234L408.45 86.6065L411.842 89.9985L415.234 86.6065L413.849 85.2234Z" fill="#E7F1FE"/>
<path d="M167.346 78.74L169.355 76.7312L171.362 78.74L172.747 77.3553L169.355 73.9633L165.963 77.3553L167.346 78.74Z" fill="#E7F1FE"/>
<path d="M172.597 79.9727L174.604 81.9815L172.597 83.9888L173.98 85.3735L177.372 81.9815L173.98 78.5895L172.597 79.9727Z" fill="#E7F1FE"/>
<path d="M166.113 83.9888L164.104 81.9815L166.113 79.9727L164.728 78.5895L161.336 81.9815L164.728 85.3735L166.113 83.9888Z" fill="#E7F1FE"/>
<path d="M171.362 85.2234L169.355 87.2307L167.346 85.2234L165.963 86.6065L169.355 89.9985L172.747 86.6065L171.362 85.2234Z" fill="#E7F1FE"/>
<path d="M34.8607 33.2146L62.6913 33.2146C59.9035 28.4011 54.6913 25.1349 48.7768 25.1349C42.8623 25.1349 37.6501 28.4011 34.8623 33.2146L34.8607 33.2146Z" fill="#CDE6FF"/>
<path d="M196.197 33.2146L224.027 33.2146C221.24 28.4011 216.027 25.1349 210.113 25.1349C204.198 25.1349 198.986 28.4011 196.198 33.2146L196.197 33.2146Z" fill="#CDE6FF"/>
<path d="M115.237 33.2146L143.068 33.2146C140.28 28.4011 135.068 25.1349 129.153 25.1349C123.239 25.1349 118.027 28.4011 115.239 33.2146L115.237 33.2146Z" fill="#CDE6FF"/>
<path d="M276.573 33.2146L304.403 33.2146C301.616 28.4011 296.403 25.1349 290.489 25.1349C284.574 25.1349 279.362 28.4011 276.574 33.2146L276.573 33.2146Z" fill="#CDE6FF"/>
<path d="M357.724 33.2146L385.555 33.2146C382.767 28.4011 377.555 25.1349 371.64 25.1349C365.726 25.1349 360.513 28.4011 357.726 33.2146L357.724 33.2146Z" fill="#CDE6FF"/>
<path d="M38.0863 24.385L59.4672 24.385C56.618 21.8303 52.8657 20.2692 48.776 20.2692C44.6863 20.2692 40.9339 21.8318 38.0848 24.385L38.0863 24.385Z" fill="#D5EAFE"/>
<path d="M199.421 24.385L220.802 24.385C217.953 21.8303 214.201 20.2692 210.111 20.2692C206.021 20.2692 202.269 21.8318 199.42 24.385L199.421 24.385Z" fill="#D5EAFE"/>
<path d="M118.462 24.385L139.843 24.385C136.993 21.8303 133.241 20.2692 129.151 20.2692C125.062 20.2692 121.309 21.8318 118.46 24.385L118.462 24.385Z" fill="#D5EAFE"/>
<path d="M279.798 24.385L301.179 24.385C298.33 21.8303 294.577 20.2692 290.488 20.2692C286.398 20.2692 282.646 21.8318 279.796 24.385L279.798 24.385Z" fill="#D5EAFE"/>
<path d="M360.949 24.385L382.33 24.385C379.48 21.8303 375.728 20.2692 371.638 20.2692C367.549 20.2692 363.796 21.8318 360.947 24.385L360.949 24.385Z" fill="#D5EAFE"/>
<path d="M48.7867 17.2119C45.9007 17.2119 43.1834 17.9909 40.8327 19.3464L56.7422 19.3464C54.3914 17.9909 51.6741 17.2119 48.7882 17.2119L48.7867 17.2119Z" fill="#D5EAFE"/>
<path d="M210.122 17.2119C207.236 17.2119 204.519 17.9909 202.168 19.3464L218.078 19.3464C215.727 17.9909 213.01 17.2119 210.124 17.2119L210.122 17.2119Z" fill="#D5EAFE"/>
<path d="M129.163 17.2119C126.277 17.2119 123.56 17.9909 121.209 19.3464L137.119 19.3464C134.768 17.9909 132.051 17.2119 129.165 17.2119L129.163 17.2119Z" fill="#D5EAFE"/>
<path d="M290.499 17.2119C287.613 17.2119 284.896 17.9909 282.545 19.3464L298.454 19.3464C296.104 17.9909 293.386 17.2119 290.5 17.2119L290.499 17.2119Z" fill="#D5EAFE"/>
<path d="M371.649 17.2119C368.764 17.2119 366.046 17.9909 363.695 19.3464L379.605 19.3464C377.254 17.9909 374.537 17.2119 371.651 17.2119L371.649 17.2119Z" fill="#D5EAFE"/>
<path d="M62.6913 98.4203L34.8607 98.4203C37.6485 103.234 42.8607 106.5 48.7752 106.5C54.6898 106.5 59.9019 103.234 62.6897 98.4203L62.6913 98.4203Z" fill="#CDE6FF"/>
<path d="M224.027 98.4203L196.197 98.4203C198.985 103.234 204.197 106.5 210.111 106.5C216.026 106.5 221.238 103.234 224.026 98.4203L224.027 98.4203Z" fill="#CDE6FF"/>
<path d="M143.068 98.4203L115.237 98.4203C118.025 103.234 123.237 106.5 129.152 106.5C135.066 106.5 140.279 103.234 143.066 98.4203L143.068 98.4203Z" fill="#CDE6FF"/>
<path d="M304.403 98.4203L276.573 98.4203C279.361 103.234 284.573 106.5 290.487 106.5C296.402 106.5 301.614 103.234 304.402 98.4203L304.403 98.4203Z" fill="#CDE6FF"/>
<path d="M385.555 98.4203L357.724 98.4203C360.512 103.234 365.724 106.5 371.639 106.5C377.553 106.5 382.765 103.234 385.553 98.4203L385.555 98.4203Z" fill="#CDE6FF"/>
<path d="M59.4668 107.25L38.086 107.25C40.9351 109.805 44.6875 111.366 48.7772 111.366C52.8669 111.366 56.6192 109.803 59.4684 107.25L59.4668 107.25Z" fill="#D5EAFE"/>
<path d="M220.803 107.25L199.422 107.25C202.271 109.805 206.023 111.366 210.113 111.366C214.203 111.366 217.955 109.803 220.804 107.25L220.803 107.25Z" fill="#D5EAFE"/>
<path d="M139.843 107.25L118.462 107.25C121.311 109.805 125.064 111.366 129.153 111.366C133.243 111.366 136.995 109.803 139.844 107.25L139.843 107.25Z" fill="#D5EAFE"/>
<path d="M301.179 107.25L279.798 107.25C282.647 109.805 286.4 111.366 290.489 111.366C294.579 111.366 298.332 109.803 301.181 107.25L301.179 107.25Z" fill="#D5EAFE"/>
<path d="M382.33 107.25L360.949 107.25C363.798 109.805 367.55 111.366 371.64 111.366C375.73 111.366 379.482 109.803 382.331 107.25L382.33 107.25Z" fill="#D5EAFE"/>
<path d="M48.7681 114.423C51.654 114.423 54.3713 113.644 56.722 112.288L40.8125 112.288C43.1633 113.644 45.8806 114.423 48.7665 114.423L48.7681 114.423Z" fill="#D5EAFE"/>
<path d="M210.104 114.423C212.99 114.423 215.708 113.644 218.058 112.288L202.149 112.288C204.5 113.644 207.217 114.423 210.103 114.423L210.104 114.423Z" fill="#D5EAFE"/>
<path d="M129.145 114.423C132.031 114.423 134.748 113.644 137.099 112.288L121.189 112.288C123.54 113.644 126.257 114.423 129.143 114.423L129.145 114.423Z" fill="#D5EAFE"/>
<path d="M290.48 114.423C293.366 114.423 296.083 113.644 298.434 112.288L282.524 112.288C284.875 113.644 287.592 114.423 290.478 114.423L290.48 114.423Z" fill="#D5EAFE"/>
<path d="M371.63 114.423C374.516 114.423 377.234 113.644 379.584 112.288L363.675 112.288C366.026 113.644 368.743 114.423 371.629 114.423L371.63 114.423Z" fill="#D5EAFE"/>
<g opacity="0.5">
<path d="M80.7795 123.528L80.7795 130.367L88.6891 130.367C88.0496 129.254 87.2262 128.13 86.1589 127.063C84.4184 125.322 82.5215 124.223 80.7795 123.528V123.528Z" fill="#D3E9FF"/>
<path d="M242.115 123.528L242.115 130.367L250.024 130.367C249.385 129.254 248.561 128.13 247.494 127.063C245.753 125.322 243.856 124.223 242.115 123.528V123.528Z" fill="#D3E9FF"/>
<path d="M96.9704 130.822L80.7941 130.822L80.7941 146.889L96.9704 146.889L96.9704 130.822Z" fill="#99C3EC"/>
<path d="M258.306 130.822L242.13 130.822L242.13 146.889L258.306 146.889L258.306 130.822Z" fill="#99C3EC"/>
<path d="M96.9709 123.556L96.9709 130.396L89.0614 130.396C89.7009 129.282 90.5243 128.158 91.5916 127.091C93.3321 125.35 95.229 124.251 96.9709 123.556Z" fill="#D3E9FF"/>
<path d="M258.307 123.556L258.307 130.396L250.397 130.396C251.036 129.282 251.86 128.158 252.927 127.091C254.668 125.35 256.565 124.251 258.307 123.556Z" fill="#D3E9FF"/>
<path d="M32.357 146.782C32.357 137.969 39.6256 130.716 48.4582 130.716C57.2909 130.716 64.5594 137.967 64.5594 146.782L32.357 146.782Z" fill="#B6D9FC"/>
<path d="M193.693 146.782C193.693 137.969 200.962 130.716 209.795 130.716C218.627 130.716 225.896 137.967 225.896 146.782L193.693 146.782Z" fill="#B6D9FC"/>
<path d="M112.734 146.782C112.734 137.969 120.002 130.716 128.835 130.716C137.667 130.716 144.936 137.967 144.936 146.782L112.734 146.782Z" fill="#B6D9FC"/>
<path d="M274.068 146.782C274.068 137.969 281.337 130.716 290.169 130.716C299.002 130.716 306.271 137.967 306.271 146.782L274.068 146.782Z" fill="#B6D9FC"/>
<path d="M355.219 146.782C355.219 137.969 362.488 130.716 371.321 130.716C380.153 130.716 387.422 137.967 387.422 146.782L355.219 146.782Z" fill="#B6D9FC"/>
<path d="M32.2983 146.782L32.2983 130.714C31.2096 130.719 25.5466 130.857 20.96 135.442C16.375 140.027 16.237 145.691 16.2324 146.78C16.2784 146.78 16.3244 146.78 16.3704 146.782L32.2983 146.782V146.782Z" fill="#CDE6FF"/>
<path d="M193.633 146.782L193.633 130.714C192.544 130.719 186.881 130.857 182.294 135.442C177.709 140.027 177.571 145.691 177.567 146.78C177.613 146.78 177.659 146.78 177.705 146.782L193.633 146.782V146.782Z" fill="#CDE6FF"/>
<path d="M112.673 146.782L112.673 130.714C111.584 130.719 105.921 130.857 101.335 135.442C96.7498 140.027 96.6118 145.691 96.6072 146.78C96.6532 146.78 96.6992 146.78 96.7452 146.782L112.673 146.782V146.782Z" fill="#CDE6FF"/>
<path d="M274.009 146.782L274.009 130.714C272.921 130.719 267.257 130.857 262.671 135.442C258.086 140.027 257.948 145.691 257.943 146.78C257.989 146.78 258.035 146.78 258.081 146.782L274.009 146.782V146.782Z" fill="#CDE6FF"/>
<path d="M355.16 146.782L355.16 130.714C354.071 130.719 348.408 130.857 343.822 135.442C339.237 140.027 339.099 145.691 339.094 146.78C339.14 146.78 339.186 146.78 339.232 146.782L355.16 146.782V146.782Z" fill="#CDE6FF"/>
<path d="M64.7136 146.782L80.7795 146.782C80.7749 145.693 80.6369 140.03 76.0519 135.443C71.4669 130.858 65.8039 130.72 64.7151 130.716C64.7151 130.762 64.7151 130.808 64.7136 130.854L64.7136 146.782Z" fill="#CDE6FF"/>
<path d="M226.049 146.782L242.115 146.782C242.11 145.693 241.972 140.03 237.387 135.443C232.802 130.858 227.139 130.72 226.05 130.716C226.05 130.762 226.05 130.808 226.049 130.854L226.049 146.782Z" fill="#CDE6FF"/>
<path d="M145.09 146.782L161.156 146.782C161.151 145.693 161.013 140.03 156.428 135.443C151.843 130.858 146.18 130.72 145.091 130.716C145.091 130.762 145.091 130.808 145.09 130.854L145.09 146.782Z" fill="#CDE6FF"/>
<path d="M306.425 146.782L322.49 146.782C322.486 145.693 322.348 140.03 317.763 135.443C313.178 130.858 307.515 130.72 306.426 130.716C306.426 130.762 306.426 130.808 306.425 130.854L306.425 146.782Z" fill="#CDE6FF"/>
<path d="M387.576 146.782L403.642 146.782C403.637 145.693 403.499 140.03 398.914 135.443C394.329 130.858 388.666 130.72 387.577 130.716C387.577 130.762 387.577 130.808 387.576 130.854L387.576 146.782Z" fill="#CDE6FF"/>
<path d="M76.0512 127.121C71.4662 122.536 65.8017 122.398 64.7129 122.393C64.7129 122.439 64.7129 122.485 64.7114 122.531L64.7114 130.427L78.5814 130.427C77.942 129.314 77.1185 128.19 76.0512 127.122L76.0512 127.121Z" fill="#D3E9FF"/>
<path d="M237.386 127.121C232.801 122.536 227.137 122.398 226.048 122.393C226.048 122.439 226.048 122.485 226.046 122.531L226.046 130.427L239.917 130.427C239.277 129.314 238.454 128.19 237.386 127.122L237.386 127.121Z" fill="#D3E9FF"/>
<path d="M156.428 127.121C151.843 122.536 146.178 122.398 145.089 122.393C145.089 122.439 145.09 122.485 145.088 122.531L145.088 130.427L158.958 130.427C158.319 129.314 157.495 128.19 156.428 127.122L156.428 127.121Z" fill="#D3E9FF"/>
<path d="M317.763 127.121C313.178 122.536 307.513 122.398 306.425 122.393C306.425 122.439 306.425 122.485 306.423 122.531L306.423 130.427L320.293 130.427C319.654 129.314 318.83 128.19 317.763 127.122L317.763 127.121Z" fill="#D3E9FF"/>
<path d="M398.914 127.121C394.329 122.536 388.664 122.398 387.575 122.393C387.575 122.439 387.575 122.485 387.574 122.531L387.574 130.427L401.444 130.427C400.804 129.314 399.981 128.19 398.914 127.122L398.914 127.121Z" fill="#D3E9FF"/>
<path d="M20.9597 127.121C25.5447 122.536 31.2093 122.398 32.298 122.393C32.298 122.439 32.298 122.485 32.2996 122.531L32.2996 130.427L18.4295 130.427C19.069 129.314 19.8924 128.19 20.9597 127.122L20.9597 127.121Z" fill="#D3E9FF"/>
<path d="M182.295 127.121C186.88 122.536 192.544 122.398 193.633 122.393C193.633 122.439 193.633 122.485 193.635 122.531L193.635 130.427L179.764 130.427C180.404 129.314 181.227 128.19 182.295 127.122L182.295 127.121Z" fill="#D3E9FF"/>
<path d="M101.335 127.121C105.92 122.536 111.585 122.398 112.673 122.393C112.673 122.439 112.673 122.485 112.675 122.531L112.675 130.427L98.8049 130.427C99.4443 129.314 100.268 128.19 101.335 127.122L101.335 127.121Z" fill="#D3E9FF"/>
<path d="M262.671 127.121C267.256 122.536 272.921 122.398 274.01 122.393C274.01 122.439 274.01 122.485 274.011 122.531L274.011 130.427L260.141 130.427C260.781 129.314 261.604 128.19 262.671 127.122L262.671 127.121Z" fill="#D3E9FF"/>
<path d="M343.822 127.121C348.407 122.536 354.072 122.398 355.16 122.393C355.16 122.439 355.16 122.485 355.162 122.531L355.162 130.427L341.292 130.427C341.931 129.314 342.755 128.19 343.822 127.122L343.822 127.121Z" fill="#D3E9FF"/>
<path d="M16.1764 130.822L0 130.822L-1.40466e-06 146.889L16.1764 146.889L16.1764 130.822Z" fill="#99C3EC"/>
<path d="M338.846 130.822L322.67 130.822L322.67 146.889L338.846 146.889L338.846 130.822Z" fill="#99C3EC"/>
<path d="M419.998 130.822L403.821 130.822L403.821 146.889L419.998 146.889L419.998 130.822Z" fill="#99C3EC"/>
<path d="M177.512 130.822L161.336 130.822L161.336 146.889L177.512 146.889L177.512 130.822Z" fill="#99C3EC"/>
<path d="M16.1781 123.556L16.1781 130.396L8.26856 130.396C8.90801 129.282 9.73147 128.158 10.7988 127.091C12.5392 125.35 14.4361 124.251 16.1781 123.556Z" fill="#D3E9FF"/>
<path d="M338.849 123.556L338.849 130.396L330.94 130.396C331.579 129.282 332.403 128.158 333.47 127.091C335.21 125.35 337.107 124.251 338.849 123.556Z" fill="#D3E9FF"/>
<path d="M420 123.556L420 130.396L412.09 130.396C412.73 129.282 413.553 128.158 414.621 127.091C416.361 125.35 418.258 124.251 420 123.556Z" fill="#D3E9FF"/>
<path d="M177.513 123.556L177.513 130.396L169.604 130.396C170.243 129.282 171.066 128.158 172.134 127.091C173.874 125.35 175.771 124.251 177.513 123.556Z" fill="#D3E9FF"/>
<path d="M34.8607 130.426L62.6913 130.426C59.9035 125.612 54.6913 122.346 48.7768 122.346C42.8623 122.346 37.6501 125.612 34.8623 130.426L34.8607 130.426Z" fill="#CDE6FF"/>
<path d="M196.197 130.426L224.027 130.426C221.24 125.612 216.027 122.346 210.113 122.346C204.198 122.346 198.986 125.612 196.198 130.426L196.197 130.426Z" fill="#CDE6FF"/>
<path d="M115.237 130.426L143.068 130.426C140.28 125.612 135.068 122.346 129.153 122.346C123.239 122.346 118.027 125.612 115.239 130.426L115.237 130.426Z" fill="#CDE6FF"/>
<path d="M276.573 130.426L304.403 130.426C301.616 125.612 296.403 122.346 290.489 122.346C284.574 122.346 279.362 125.612 276.574 130.426L276.573 130.426Z" fill="#CDE6FF"/>
<path d="M357.724 130.426L385.555 130.426C382.767 125.612 377.555 122.346 371.64 122.346C365.726 122.346 360.513 125.612 357.726 130.426L357.724 130.426Z" fill="#CDE6FF"/>
<path d="M38.0863 121.596L59.4672 121.596C56.618 119.041 52.8657 117.48 48.776 117.48C44.6863 117.48 40.9339 119.043 38.0848 121.596L38.0863 121.596Z" fill="#D5EAFE"/>
<path d="M199.421 121.596L220.802 121.596C217.953 119.041 214.201 117.48 210.111 117.48C206.021 117.48 202.269 119.043 199.42 121.596L199.421 121.596Z" fill="#D5EAFE"/>
<path d="M118.462 121.596L139.843 121.596C136.993 119.041 133.241 117.48 129.151 117.48C125.062 117.48 121.309 119.043 118.46 121.596L118.462 121.596Z" fill="#D5EAFE"/>
<path d="M279.798 121.596L301.179 121.596C298.33 119.041 294.577 117.48 290.488 117.48C286.398 117.48 282.646 119.043 279.796 121.596L279.798 121.596Z" fill="#D5EAFE"/>
<path d="M360.949 121.596L382.33 121.596C379.48 119.041 375.728 117.48 371.638 117.48C367.549 117.48 363.796 119.043 360.947 121.596L360.949 121.596Z" fill="#D5EAFE"/>
<path d="M48.7867 114.423C45.9007 114.423 43.1834 115.202 40.8327 116.557L56.7422 116.557C54.3914 115.202 51.6741 114.423 48.7882 114.423L48.7867 114.423Z" fill="#D5EAFE"/>
<path d="M210.122 114.423C207.236 114.423 204.519 115.202 202.168 116.557L218.078 116.557C215.727 115.202 213.01 114.423 210.124 114.423L210.122 114.423Z" fill="#D5EAFE"/>
<path d="M129.163 114.423C126.277 114.423 123.56 115.202 121.209 116.557L137.119 116.557C134.768 115.202 132.051 114.423 129.165 114.423L129.163 114.423Z" fill="#D5EAFE"/>
<path d="M290.499 114.423C287.613 114.423 284.896 115.202 282.545 116.557L298.454 116.557C296.104 115.202 293.386 114.423 290.5 114.423L290.499 114.423Z" fill="#D5EAFE"/>
<path d="M371.649 114.423C368.764 114.423 366.046 115.202 363.695 116.557L379.605 116.557C377.254 115.202 374.537 114.423 371.651 114.423L371.649 114.423Z" fill="#D5EAFE"/>
</g>
</g>
<defs>
<clipPath id="clip0_978_31665">
<rect width="420" height="131" fill="white"/>
</clipPath>
</defs>
</svg>
