<svg viewBox="0 0 420 129" fill="none" xmlns="http://www.w3.org/2000/svg">
<g clip-path="url(#clip0_294_129728)">
<rect width="420" height="129" fill="#F2FDFD"/>
<path d="M271.759 100.438C269.143 103.053 268.055 107.846 270.831 110.622C273.607 113.398 278.425 112.368 281.015 109.694C284.947 105.753 287.562 93.9661 287.562 93.9661C287.562 93.9661 275.691 96.4973 271.759 100.438Z" fill="white"/>
<path d="M257.567 103.855C260.098 106.437 264.731 107.441 267.431 104.749C270.131 102.058 269.051 97.4169 266.519 94.9025C262.655 91.1562 251.281 88.625 251.281 88.625C251.281 88.625 253.813 100.032 257.567 103.855Z" fill="white"/>
<path d="M269.177 91.1562H268.823C268.222 91.1562 267.734 91.6436 267.734 92.2447V114.537C267.734 115.138 268.222 115.625 268.823 115.625H269.177C269.778 115.625 270.266 115.138 270.266 114.537V92.2447C270.266 91.6436 269.778 91.1562 269.177 91.1562Z" fill="#B7CDE1"/>
<path d="M268.857 92C271.589 91.9998 274.238 91.052 276.35 89.3182C278.463 87.5843 279.908 85.1716 280.441 82.4912C280.974 79.8108 280.561 77.0286 279.273 74.6185C277.985 72.2084 275.9 70.3196 273.376 69.2739C270.851 68.2282 268.041 68.0904 265.426 68.8838C262.811 69.6773 260.552 71.353 259.034 73.6254C257.515 75.8978 256.832 78.6263 257.1 81.346C257.368 84.0657 258.571 86.6083 260.503 88.5406C261.6 89.6375 262.903 90.5075 264.336 91.1011C265.769 91.6947 267.305 92.0001 268.857 92Z" fill="#FEB452"/>
<path fill-rule="evenodd" clip-rule="evenodd" d="M263.136 74.104H274.586V75.5299H269.751C270.377 76.1885 270.781 77.0264 270.907 77.9262H274.586V79.3437H270.882C270.762 80.036 270.476 80.6887 270.046 81.2446C269.617 81.8006 269.058 82.2429 268.418 82.5331L271.911 88.4393H270.291L267.009 82.8368H263.136V81.394H266.798C267.567 81.3867 268.304 81.0847 268.857 80.5503C269.233 80.1856 269.501 79.7244 269.633 79.2171H263.136V77.7828H269.717C269.545 77.1371 269.166 76.5654 268.639 76.1542C268.113 75.7431 267.466 75.515 266.798 75.5046H263.136V74.104Z" fill="white"/>
<g style="mix-blend-mode:multiply">
<path d="M271.759 100.438C269.143 103.053 268.055 107.846 270.831 110.622C273.607 113.398 278.425 112.368 281.015 109.694C284.947 105.753 287.562 93.9661 287.562 93.9661C287.562 93.9661 275.691 96.4973 271.759 100.438Z" fill="#36A168"/>
</g>
<g style="mix-blend-mode:multiply">
<path d="M257.567 103.855C260.098 106.437 264.731 107.441 267.431 104.749C270.131 102.058 269.051 97.4169 266.519 94.9025C262.655 91.1562 251.281 88.625 251.281 88.625C251.281 88.625 253.813 100.032 257.567 103.855Z" fill="#36A168"/>
</g>
<path d="M408.969 87.7812C413.163 87.7812 416.562 84.3814 416.562 80.1875C416.562 75.9936 413.163 72.5938 408.969 72.5938C404.775 72.5938 401.375 75.9936 401.375 80.1875C401.375 84.3814 404.775 87.7812 408.969 87.7812Z" fill="white"/>
<path d="M374.375 113.094H421.625V97.7881H420.781C411.559 97.7881 408.125 92.8438 406.437 83.4444C404.75 74.045 397.865 70.9062 390.406 70.9062C382.947 70.9062 376.906 75.9688 376.906 83.4444V84.2881C376.957 82.9944 377.518 81.7735 378.467 80.8926C379.416 80.0118 380.675 79.5428 381.969 79.5884C383.251 79.5851 384.486 80.0684 385.426 80.9407C386.366 81.813 386.939 83.0093 387.031 84.2881C387.031 86.0938 387.031 91.1562 376.062 91.1562H374.375V113.094Z" fill="#B7CDE1"/>
<g style="mix-blend-mode:multiply">
<path d="M421.625 108.875H374.375V113.094H421.625V108.875Z" fill="#42CACD"/>
</g>
<g style="mix-blend-mode:multiply">
<path d="M376.906 91.1563C382.5 91.1563 392.094 91.1563 392.094 82.7188C392.094 73.4376 376.906 70.0626 376.906 83.4445V84.2882C376.957 82.9945 377.518 81.7735 378.467 80.8927C379.416 80.0118 380.675 79.5429 381.969 79.5885C383.251 79.5852 384.486 80.0685 385.426 80.9408C386.366 81.8131 386.939 83.0094 387.031 84.2882C387.031 86.0938 387.031 91.1563 376.062 91.1563" fill="#42CACD"/>
</g>
<g style="mix-blend-mode:multiply">
<path d="M408.969 87.7812C413.163 87.7812 416.562 84.3814 416.562 80.1875C416.562 75.9936 413.163 72.5938 408.969 72.5938C404.775 72.5938 401.375 75.9936 401.375 80.1875C401.375 84.3814 404.775 87.7812 408.969 87.7812Z" fill="#FEB452"/>
</g>
<rect x="7.9375" y="70.9062" width="10.125" height="2.53125" rx="1.26562" fill="white"/>
<path d="M17.4887 97.6023C17.4236 96.1868 16.8157 94.8508 15.7912 93.8719C14.7667 92.893 13.4045 92.3464 11.9875 92.3457C10.5705 92.3464 9.20825 92.893 8.18377 93.8719C7.15928 94.8508 6.55134 96.1868 6.48624 97.6023C6.35507 96.2386 5.7206 94.9728 4.7066 94.0516C3.6926 93.1305 2.3718 92.6201 1.00187 92.6201C-0.368068 92.6201 -1.68887 93.1305 -2.70287 94.0516C-3.71687 94.9728 -4.35135 96.2386 -4.48251 97.6023C-4.5247 105.854 6.48624 111.406 6.48624 111.406C6.48624 111.406 17.4887 105.854 17.4887 97.6023Z" fill="white"/>
<path d="M17.4634 84.3218H18.3072C21.6036 84.3861 24.7403 85.7541 27.0302 88.1263C29.3201 90.4984 30.5767 93.6814 30.5247 96.978V114.022C30.5249 114.461 30.3541 114.882 30.0485 115.197C29.7429 115.513 29.3265 115.696 28.8878 115.709H6.84905C6.40862 115.696 5.99072 115.512 5.68468 115.195C5.38114 114.88 5.21173 114.459 5.21218 114.022V96.978C5.16028 93.6756 6.42146 90.4877 8.71863 88.1145C11.0158 85.7414 14.1611 84.3773 17.4634 84.3218Z" fill="white"/>
<path d="M17.8684 83.478C19.3703 83.478 20.8385 83.0327 22.0873 82.1983C23.3361 81.3638 24.3094 80.1779 24.8841 78.7903C25.4589 77.4027 25.6093 75.8759 25.3163 74.4028C25.0233 72.9298 24.3 71.5767 23.238 70.5147C22.176 69.4527 20.8229 68.7294 19.3499 68.4364C17.8768 68.1434 16.35 68.2938 14.9624 68.8686C13.5748 69.4433 12.3889 70.4166 11.5545 71.6654C10.72 72.9142 10.2747 74.3824 10.2747 75.8843C10.2747 77.8983 11.0747 79.8298 12.4988 81.2539C13.9229 82.678 15.8544 83.478 17.8684 83.478Z" fill="white"/>
<g style="mix-blend-mode:multiply">
<path d="M17.4634 84.3218H18.3072C21.6036 84.3861 24.7403 85.7541 27.0302 88.1263C29.3201 90.4984 30.5767 93.6814 30.5247 96.978V114.022C30.5249 114.461 30.3541 114.882 30.0485 115.197C29.7429 115.513 29.3265 115.696 28.8878 115.709H6.84905C6.40862 115.696 5.99072 115.512 5.68468 115.195C5.38114 114.88 5.21173 114.459 5.21218 114.022V96.978C5.16028 93.6756 6.42146 90.4877 8.71863 88.1145C11.0158 85.7414 14.1611 84.3773 17.4634 84.3218Z" fill="#B7CDE1"/>
</g>
<g style="mix-blend-mode:multiply">
<path d="M17.8684 83.478C19.3703 83.478 20.8385 83.0327 22.0873 82.1983C23.3361 81.3638 24.3094 80.1779 24.8841 78.7903C25.4589 77.4027 25.6093 75.8759 25.3163 74.4028C25.0233 72.9298 24.3 71.5767 23.238 70.5147C22.176 69.4527 20.8229 68.7294 19.3499 68.4364C17.8768 68.1434 16.35 68.2938 14.9624 68.8686C13.5748 69.4433 12.3889 70.4166 11.5545 71.6654C10.72 72.9142 10.2747 74.3824 10.2747 75.8843C10.2747 77.8983 11.0747 79.8298 12.4988 81.2539C13.9229 82.678 15.8544 83.478 17.8684 83.478Z" fill="#B7CDE1"/>
</g>
<g style="mix-blend-mode:multiply">
<path d="M17.4887 97.6025C17.4236 96.187 16.8157 94.851 15.7912 93.8721C14.7667 92.8932 13.4045 92.3466 11.9875 92.3459C10.5705 92.3466 9.20825 92.8932 8.18377 93.8721C7.15928 94.851 6.55134 96.187 6.48624 97.6025C6.35507 96.2389 5.7206 94.973 4.7066 94.0519C3.6926 93.1307 2.3718 92.6204 1.00187 92.6204C-0.368068 92.6204 -1.68887 93.1307 -2.70287 94.0519C-3.71687 94.973 -4.35135 96.2389 -4.48251 97.6025C-4.5247 105.854 6.48624 111.406 6.48624 111.406C6.48624 111.406 17.4887 105.854 17.4887 97.6025Z" fill="#F05656"/>
</g>
<g style="mix-blend-mode:multiply">
<path d="M15.9429 80.5277C15.7725 81.0053 16.0217 81.539 16.5211 81.6273C17.0828 81.7267 17.6584 81.7382 18.2272 81.6597C19.1004 81.5391 19.9316 81.2098 20.6505 80.6997C21.3694 80.1896 21.9547 79.5138 22.3569 78.7294C22.6189 78.2185 22.7982 77.6713 22.8899 77.1083C22.9714 76.6078 22.55 76.1964 22.0428 76.1994L21.8543 76.2006C21.3472 76.2036 20.9505 76.6241 20.8204 77.1143C20.7571 77.3526 20.6683 77.5844 20.555 77.8054C20.3013 78.3001 19.9321 78.7264 19.4787 79.0482C19.0252 79.3699 18.5009 79.5776 17.9501 79.6537C17.7041 79.6877 17.456 79.6949 17.2102 79.6759C16.7046 79.6368 16.1766 79.8724 16.0062 80.3501L15.9429 80.5277Z" fill="#B7CDE1"/>
</g>
<g style="mix-blend-mode:multiply">
<rect x="7.9375" y="70.9062" width="10.125" height="2.53125" rx="1.26562" fill="#B7CDE1"/>
</g>
<path d="M202.662 17.3125H181.4C181.064 17.3125 180.742 17.4458 180.505 17.6832C180.268 17.9205 180.134 18.2425 180.134 18.5781C180.134 18.9138 180.268 19.2357 180.505 19.4731C180.742 19.7104 181.064 19.8438 181.4 19.8438H202.662C202.998 19.8438 203.32 19.7104 203.557 19.4731C203.795 19.2357 203.928 18.9138 203.928 18.5781C203.928 18.2425 203.795 17.9205 203.557 17.6832C203.32 17.4458 202.998 17.3125 202.662 17.3125Z" fill="white"/>
<path d="M195.052 23.2188H181.417C181.081 23.2188 180.759 23.3521 180.522 23.5894C180.285 23.8268 180.151 24.1487 180.151 24.4844C180.151 24.82 180.285 25.142 180.522 25.3793C180.759 25.6167 181.081 25.75 181.417 25.75H195.052C195.388 25.75 195.709 25.6167 195.947 25.3793C196.184 25.142 196.317 24.82 196.317 24.4844C196.317 24.1487 196.184 23.8268 195.947 23.5894C195.709 23.3521 195.388 23.2188 195.052 23.2188Z" fill="white"/>
<path d="M197.17 -4.02592L184.193 8.95096C184.004 9.14087 183.853 9.364 183.746 9.60908C183.645 9.85846 183.593 10.1249 183.594 10.3938V40.9375L189.669 38.9125L197.769 42.9625L207.894 38.9125L217.006 42.9625L224.094 40.9375V-2.59998C224.095 -2.86622 224.043 -3.13005 223.942 -3.37624C223.84 -3.62242 223.691 -3.8461 223.503 -4.03436C223.315 -4.22262 223.091 -4.37174 222.845 -4.47311C222.599 -4.57448 222.335 -4.6261 222.069 -4.62498H198.612C198.344 -4.62524 198.077 -4.57368 197.828 -4.47311C197.583 -4.36591 197.36 -4.2143 197.17 -4.02592Z" fill="#B7CDE1"/>
<g style="mix-blend-mode:multiply">
<path d="M196.756 -3.61255V6.80776C196.762 7.03649 196.721 7.264 196.636 7.47648C196.552 7.68895 196.424 7.88195 196.263 8.04373C196.101 8.20552 195.908 8.33272 195.695 8.41759C195.483 8.50246 195.255 8.54324 195.027 8.53745H184.606L196.756 -3.61255Z" fill="#42CACD"/>
</g>
<g style="mix-blend-mode:multiply">
<path d="M202.662 17.3125H181.4C181.064 17.3125 180.742 17.4458 180.505 17.6832C180.268 17.9205 180.134 18.2425 180.134 18.5781C180.134 18.9138 180.268 19.2357 180.505 19.4731C180.742 19.7104 181.064 19.8438 181.4 19.8438H202.662C202.998 19.8438 203.32 19.7104 203.557 19.4731C203.795 19.2357 203.928 18.9138 203.928 18.5781C203.928 18.2425 203.795 17.9205 203.557 17.6832C203.32 17.4458 202.998 17.3125 202.662 17.3125Z" fill="#42CACD"/>
</g>
<g style="mix-blend-mode:multiply">
<path d="M195.052 23.2188H181.417C181.081 23.2188 180.759 23.3521 180.522 23.5894C180.285 23.8268 180.151 24.1487 180.151 24.4844C180.151 24.82 180.285 25.142 180.522 25.3793C180.759 25.6167 181.081 25.75 181.417 25.75H195.052C195.388 25.75 195.709 25.6167 195.947 25.3793C196.184 25.142 196.317 24.82 196.317 24.4844C196.317 24.1487 196.184 23.8268 195.947 23.5894C195.709 23.3521 195.388 23.2188 195.052 23.2188Z" fill="#42CACD"/>
</g>
<path d="M50.839 17.0511L61.6306 18.4011L73.7722 6.2595L65.6806 4.9095C65.3719 4.8054 65.0417 4.78176 64.7214 4.84082C64.401 4.89987 64.101 5.03967 63.8497 5.247L50.839 17.0511Z" fill="white"/>
<path d="M75.9997 42.1609L74.6497 31.3693L86.7912 19.2278L88.1412 27.3278C88.2397 27.6322 88.2596 27.9566 88.1991 28.2708C88.1386 28.585 87.9997 28.8788 87.7953 29.125L75.9997 42.1609Z" fill="white"/>
<path d="M56.8634 27.2352C58.0382 26.0615 59.6312 25.4025 61.2919 25.4033C62.9525 25.4041 64.5449 26.0646 65.7186 27.2394C66.8923 28.4142 67.5512 30.0072 67.5504 31.6678C67.5496 33.3285 66.8892 34.9208 65.7143 36.0946C59.5212 42.2877 51.5478 43.1736 50.6618 42.2877C49.7759 41.4017 50.6618 33.4367 56.8634 27.2352Z" fill="#F7993B"/>
<g style="mix-blend-mode:multiply">
<path d="M59.2259 27.2099C59.647 26.7894 60.1467 26.4559 60.6966 26.2286C61.2465 26.0012 61.8359 25.8844 62.4309 25.8848C63.026 25.8852 63.6151 26.0028 64.1648 26.2308C64.7144 26.4589 65.2137 26.793 65.6342 27.2141C66.0547 27.6351 66.3881 28.1349 66.6155 28.6848C66.8428 29.2347 66.9597 29.824 66.9593 30.4191C66.9589 31.0142 66.8413 31.6033 66.6132 32.1529C66.3851 32.7025 66.051 33.2019 65.63 33.6224C61.1497 38.1027 55.3784 38.7439 54.7372 38.1027C54.0959 37.4614 54.7372 31.6986 59.2259 27.2099Z" fill="#F05656"/>
</g>
<path d="M82.0662 -1.16534C91.5078 -5.2069 97.625 -4.5319 97.625 -4.5319C97.625 -4.5319 98.3 1.53466 94.25 10.9762C92.225 15.7012 84.8084 23.1178 84.8084 23.1178L73.2997 34.5928L58.4581 19.7512L69.9247 8.28466C69.9247 8.28466 77.375 0.859664 82.0662 -1.16534Z" fill="#B7CDE1"/>
<path d="M59.8099 21.1011L71.9512 33.2423L70.9667 34.2267C70.8655 34.328 70.7281 34.3849 70.5849 34.3849C70.4417 34.3849 70.3043 34.328 70.2031 34.2267L58.8016 22.8253C58.7106 22.7222 58.6624 22.5882 58.6669 22.4507C58.6713 22.3132 58.728 22.1826 58.8255 22.0855L59.8099 21.1011Z" fill="#F7993B"/>
<g style="mix-blend-mode:multiply">
<path d="M50.839 17.0511L61.6306 18.4011L73.7722 6.2595L65.6806 4.9095C65.3719 4.8054 65.0417 4.78176 64.7214 4.84082C64.401 4.89987 64.101 5.03967 63.8497 5.247L50.839 17.0511Z" fill="#42CACD"/>
</g>
<g style="mix-blend-mode:multiply">
<path d="M75.9997 42.1612L74.6497 31.3696L86.7912 19.228L88.1412 27.328C88.2397 27.6325 88.2596 27.9569 88.1991 28.2711C88.1386 28.5853 87.9997 28.8791 87.7953 29.1252L75.9997 42.1612Z" fill="#42CACD"/>
</g>
<g style="mix-blend-mode:multiply">
<path d="M86.7237 10.0312C88.8067 10.0312 90.4953 8.34258 90.4953 6.2596C90.4953 4.17662 88.8067 2.48804 86.7237 2.48804C84.6407 2.48804 82.9522 4.17662 82.9522 6.2596C82.9522 8.34258 84.6407 10.0312 86.7237 10.0312Z" fill="#B7CDE1"/>
</g>
<g style="mix-blend-mode:multiply">
<path d="M86.6731 8.73184C87.9779 8.73184 89.0356 7.67411 89.0356 6.36934C89.0356 5.06456 87.9779 4.00684 86.6731 4.00684C85.3683 4.00684 84.3106 5.06456 84.3106 6.36934C84.3106 7.67411 85.3683 8.73184 86.6731 8.73184Z" fill="#42CACD"/>
</g>
<path d="M80.75 16.3761C81.3659 15.448 80.8934 13.8449 80.075 13.0011C79.2565 12.1574 77.6618 11.7524 76.7422 12.3599L62.5081 30.5427L80.75 16.3761Z" fill="#42CACD"/>
<g clip-path="url(#clip1_294_129728)">
<path d="M337.442 -2.09378L335.046 36.2462C335.033 36.4962 334.924 36.7314 334.741 36.9028C334.559 37.0741 334.317 37.1684 334.067 37.1659H328.06C327.811 37.1644 327.571 37.0687 327.39 36.8982C327.208 36.7276 327.098 36.4947 327.081 36.2462L324.685 -2.09378V-1.6044C324.685 -3.29615 325.357 -4.91861 326.553 -6.11486C327.749 -7.31111 329.372 -7.98315 331.063 -7.98315C332.755 -7.98315 334.378 -7.31111 335.574 -6.11486C336.77 -4.91861 337.442 -3.29615 337.442 -1.6044" fill="white"/>
<path d="M342.547 26.5938C340.461 26.5938 338.422 25.9752 336.687 24.8163C334.953 23.6574 333.601 22.0102 332.803 20.083C332.005 18.1558 331.796 16.0352 332.203 13.9893C332.61 11.9434 333.614 10.0641 335.089 8.58911C336.564 7.11411 338.443 6.10961 340.489 5.70266C342.535 5.29571 344.656 5.50457 346.583 6.30284C348.51 7.10111 350.157 8.45293 351.316 10.1874C352.475 11.9218 353.094 13.9609 353.094 16.0469C353.087 18.842 351.974 21.5208 349.997 23.4973C348.021 25.4737 345.342 26.5871 342.547 26.5938Z" fill="white"/>
<g style="mix-blend-mode:multiply">
<path d="M344.445 40.9375H317.682C317.481 40.9375 317.319 41.0999 317.319 41.3003V45.6372C317.319 45.8376 317.481 46 317.682 46H344.445C344.646 46 344.808 45.8376 344.808 45.6372V41.3003C344.808 41.0999 344.646 40.9375 344.445 40.9375Z" fill="white"/>
</g>
<path d="M348.917 32.5337H313.21C312.767 32.5337 312.408 32.8926 312.408 33.3353V42.5321C312.408 42.9748 312.767 43.3337 313.21 43.3337H348.917C349.36 43.3337 349.719 42.9748 349.719 42.5321V33.3353C349.719 32.8926 349.36 32.5337 348.917 32.5337Z" fill="#B7CDE1"/>
<g style="mix-blend-mode:multiply">
<path d="M344.445 40.9375H317.682C317.481 40.9375 317.319 41.0999 317.319 41.3003V45.6372C317.319 45.8376 317.481 46 317.682 46H344.445C344.646 46 344.808 45.8376 344.808 45.6372V41.3003C344.808 41.0999 344.646 40.9375 344.445 40.9375Z" fill="#42CACD"/>
</g>
<g style="mix-blend-mode:multiply">
<path d="M337.442 -2.09378L335.046 36.2462C335.033 36.4962 334.924 36.7314 334.741 36.9028C334.559 37.0741 334.317 37.1684 334.067 37.1659H328.06C327.811 37.1644 327.571 37.0687 327.39 36.8982C327.208 36.7276 327.098 36.4947 327.081 36.2462L324.685 -2.09378V-1.6044C324.685 -3.29615 325.357 -4.91861 326.553 -6.11486C327.749 -7.31111 329.372 -7.98315 331.063 -7.98315C332.755 -7.98315 334.378 -7.31111 335.574 -6.11486C336.77 -4.91861 337.442 -3.29615 337.442 -1.6044" fill="#B7CDE1"/>
</g>
<g style="mix-blend-mode:multiply">
<path d="M342.547 26.5938C340.461 26.5938 338.422 25.9752 336.687 24.8163C334.953 23.6574 333.601 22.0102 332.803 20.083C332.005 18.1558 331.796 16.0352 332.203 13.9893C332.61 11.9434 333.614 10.0641 335.089 8.58911C336.564 7.11411 338.443 6.10961 340.489 5.70266C342.535 5.29571 344.656 5.50457 346.583 6.30284C348.51 7.10111 350.157 8.45293 351.316 10.1874C352.475 11.9218 353.094 13.9609 353.094 16.0469C353.087 18.842 351.974 21.5208 349.997 23.4973C348.021 25.4737 345.342 26.5871 342.547 26.5938Z" fill="#42CACD"/>
</g>
<path fill-rule="evenodd" clip-rule="evenodd" d="M340.328 17.1352C340.425 17.2332 340.541 17.3109 340.668 17.364C340.796 17.417 340.932 17.4444 341.07 17.4444C341.208 17.4444 341.345 17.417 341.472 17.364C341.6 17.3109 341.716 17.2332 341.813 17.1352L345.854 13.0937C345.928 13.0199 346.016 12.9614 346.112 12.9215C346.208 12.8816 346.311 12.8611 346.415 12.8611C346.52 12.8611 346.623 12.8816 346.719 12.9215C346.815 12.9614 346.903 13.0199 346.977 13.0937C347.05 13.1673 347.109 13.2548 347.149 13.3511C347.189 13.4473 347.209 13.5505 347.209 13.6547C347.209 13.759 347.189 13.8622 347.149 13.9584C347.109 14.0547 347.05 14.1422 346.977 14.2158L341.627 19.5568C341.555 19.6313 341.468 19.6905 341.373 19.731C341.277 19.7714 341.174 19.7922 341.07 19.7922C340.966 19.7922 340.864 19.7714 340.768 19.731C340.672 19.6905 340.586 19.6313 340.513 19.5568L338.117 17.169C338.043 17.0953 337.985 17.0078 337.945 16.9116C337.905 16.8153 337.885 16.7121 337.885 16.6079C337.885 16.5037 337.905 16.4005 337.945 16.3042C337.985 16.2079 338.043 16.1204 338.117 16.0468C338.191 15.9731 338.278 15.9146 338.375 15.8747C338.471 15.8347 338.574 15.8142 338.678 15.8142C338.783 15.8142 338.886 15.8347 338.982 15.8747C339.078 15.9146 339.166 15.9731 339.239 16.0468L340.328 17.1352Z" fill="white"/>
</g>
<path d="M134 97.0625C141.922 97.0625 148.344 90.6406 148.344 82.7188C148.344 74.7969 141.922 68.375 134 68.375C126.078 68.375 119.656 74.7969 119.656 82.7188C119.656 90.6406 126.078 97.0625 134 97.0625Z" fill="white"/>
<path d="M137.577 114.857C137.324 115.245 137.046 115.186 136.97 114.731L133.106 92.8945C133.08 92.791 133.08 92.683 133.104 92.5792C133.128 92.4755 133.176 92.3787 133.244 92.2968C133.312 92.2148 133.398 92.1499 133.496 92.1071C133.593 92.0644 133.7 92.0451 133.806 92.0508H142.505C142.741 92.0581 142.967 92.1458 143.147 92.2991C143.326 92.4525 143.448 92.6626 143.492 92.8945L147.357 114.731C147.432 115.186 147.179 115.355 146.791 115.102L140.936 111.322C140.843 111.261 140.739 111.218 140.629 111.197C140.52 111.176 140.407 111.177 140.298 111.2C140.189 111.223 140.086 111.267 139.994 111.33C139.902 111.393 139.823 111.473 139.763 111.567L137.577 114.857Z" fill="#B7CDE1"/>
<path d="M130.33 114.925C130.633 115.279 130.954 115.186 131.03 114.731L134.894 92.8945C134.92 92.791 134.92 92.683 134.896 92.5792C134.872 92.4755 134.824 92.3787 134.756 92.2968C134.688 92.2148 134.602 92.1499 134.504 92.1071C134.407 92.0644 134.3 92.0451 134.194 92.0508H125.495C125.259 92.0581 125.033 92.1458 124.853 92.2991C124.674 92.4525 124.552 92.6626 124.508 92.8945L120.643 114.731C120.568 115.186 120.804 115.33 121.175 115.051L126.06 111.406C126.244 111.269 126.471 111.205 126.699 111.227C126.927 111.249 127.138 111.355 127.292 111.525L130.33 114.925Z" fill="#B7CDE1"/>
<g style="mix-blend-mode:multiply">
<path d="M134 97.0625C141.922 97.0625 148.344 90.6406 148.344 82.7188C148.344 74.7969 141.922 68.375 134 68.375C126.078 68.375 119.656 74.7969 119.656 82.7188C119.656 90.6406 126.078 97.0625 134 97.0625Z" fill="#FEB452"/>
</g>
<g style="mix-blend-mode:multiply">
<path d="M133.629 75.4541C133.831 75.0322 134.169 75.0322 134.371 75.4541L136.236 79.2172C136.364 79.4365 136.539 79.6254 136.747 79.771C136.955 79.9167 137.192 80.0156 137.443 80.061L141.602 80.6685C142.058 80.736 142.168 81.0566 141.83 81.3772L138.826 84.3135C138.651 84.5024 138.52 84.7269 138.439 84.9715C138.359 85.2162 138.333 85.4752 138.362 85.731L139.063 89.9075C139.138 90.3716 138.868 90.5657 138.463 90.3547L134.743 88.3972C134.507 88.2889 134.251 88.2328 133.992 88.2328C133.732 88.2328 133.476 88.2889 133.241 88.3972L129.528 90.3547C129.123 90.5657 128.853 90.3547 128.929 89.9075L129.638 85.7647C129.667 85.509 129.641 85.2499 129.561 85.0053C129.48 84.7607 129.349 84.5362 129.174 84.3472L126.17 81.411C125.833 81.0904 125.942 80.7697 126.398 80.7022L130.558 80.0947C130.808 80.0493 131.045 79.9504 131.253 79.8048C131.461 79.6592 131.636 79.4702 131.764 79.251L133.629 75.4541Z" fill="#FEB452"/>
</g>
</g>
<defs>
<clipPath id="clip0_294_129728">
<rect width="420" height="129" fill="white"/>
</clipPath>
<clipPath id="clip1_294_129728">
<rect width="54" height="54" fill="white" transform="translate(305 -8)"/>
</clipPath>
</defs>
</svg>
