<svg viewBox="0 0 400 400" fill="none" xmlns="http://www.w3.org/2000/svg">
<g clip-path="url(#clip0_1465_11239)">
<rect width="400" height="400" fill="#F2FDFD"/>
<path d="M53.8391 92.0511L64.6306 93.4011L76.7722 81.2595L68.6806 79.9095C68.3719 79.8054 68.0418 79.7818 67.7214 79.8408C67.401 79.8999 67.101 80.0397 66.8497 80.247L53.8391 92.0511Z" fill="white"/>
<path d="M78.9997 117.161L77.6497 106.369L89.7912 94.2278L91.1412 102.328C91.2397 102.632 91.2596 102.957 91.1991 103.271C91.1386 103.585 90.9997 103.879 90.7953 104.125L78.9997 117.161Z" fill="white"/>
<path d="M59.8634 102.235C61.0382 101.061 62.6312 100.403 64.2918 100.403C65.9525 100.404 67.5448 101.065 68.7185 102.239C69.8922 103.414 70.5512 105.007 70.5504 106.668C70.5496 108.329 69.8891 109.921 68.7143 111.095C62.5212 117.288 54.5478 118.174 53.6618 117.288C52.7759 116.402 53.6618 108.437 59.8634 102.235Z" fill="#F7993B"/>
<path d="M62.2259 102.21C62.647 101.789 63.1467 101.456 63.6966 101.229C64.2465 101.001 64.8359 100.884 65.4309 100.885C66.026 100.885 66.6151 101.003 67.1648 101.231C67.7144 101.459 68.2137 101.793 68.6342 102.214C69.0547 102.635 69.3881 103.135 69.6155 103.685C69.8428 104.235 69.9597 104.824 69.9593 105.419C69.9589 106.014 69.8413 106.603 69.6132 107.153C69.3851 107.703 69.051 108.202 68.63 108.622C64.1497 113.103 58.3784 113.744 57.7372 113.103C57.0959 112.461 57.7372 106.699 62.2259 102.21Z" fill="#F05656"/>
<path d="M85.0662 73.8347C94.5078 69.7931 100.625 70.4681 100.625 70.4681C100.625 70.4681 101.3 76.5347 97.2499 85.9762C95.2249 90.7012 87.8084 98.1178 87.8084 98.1178L76.2996 109.593L61.4581 94.7512L72.9246 83.2847C72.9246 83.2847 80.3749 75.8597 85.0662 73.8347Z" fill="#B7CDE1"/>
<path d="M62.8099 96.1011L74.9512 108.242L73.9668 109.227C73.8655 109.328 73.7281 109.385 73.5849 109.385C73.4417 109.385 73.3044 109.328 73.2031 109.227L61.8016 97.8253C61.7106 97.7222 61.6624 97.5882 61.6669 97.4507C61.6713 97.3132 61.7281 97.1826 61.8255 97.0855L62.8099 96.1011Z" fill="#F7993B"/>
<path d="M53.8391 92.0511L64.6306 93.4011L76.7722 81.2595L68.6806 79.9095C68.3719 79.8054 68.0418 79.7818 67.7214 79.8408C67.401 79.8999 67.101 80.0397 66.8497 80.247L53.8391 92.0511Z" fill="#42CACD"/>
<path d="M78.9997 117.161L77.6497 106.37L89.7912 94.228L91.1412 102.328C91.2397 102.632 91.2596 102.957 91.1991 103.271C91.1386 103.585 90.9997 103.879 90.7953 104.125L78.9997 117.161Z" fill="#42CACD"/>
<path d="M89.7237 85.0312C91.8067 85.0312 93.4953 83.3426 93.4953 81.2596C93.4953 79.1766 91.8067 77.488 89.7237 77.488C87.6407 77.488 85.9521 79.1766 85.9521 81.2596C85.9521 83.3426 87.6407 85.0312 89.7237 85.0312Z" fill="#B7CDE1"/>
<path d="M89.6731 83.7318C90.9779 83.7318 92.0356 82.6741 92.0356 81.3693C92.0356 80.0646 90.9779 79.0068 89.6731 79.0068C88.3683 79.0068 87.3106 80.0646 87.3106 81.3693C87.3106 82.6741 88.3683 83.7318 89.6731 83.7318Z" fill="#42CACD"/>
<path d="M83.75 91.3761C84.3659 90.448 83.8934 88.8449 83.075 88.0011C82.2566 87.1574 80.6619 86.7524 79.7422 87.3599L65.5081 105.543L83.75 91.3761Z" fill="#42CACD"/>
<rect x="194.938" y="72.9062" width="10.125" height="2.53125" rx="1.26562" fill="white"/>
<path d="M204.489 99.6023C204.424 98.1868 203.816 96.8508 202.791 95.8719C201.767 94.893 200.405 94.3464 198.988 94.3457C197.571 94.3464 196.208 94.893 195.184 95.8719C194.159 96.8508 193.551 98.1868 193.486 99.6023C193.355 98.2386 192.721 96.9728 191.707 96.0516C190.693 95.1305 189.372 94.6201 188.002 94.6201C186.632 94.6201 185.311 95.1305 184.297 96.0516C183.283 96.9728 182.649 98.2386 182.518 99.6023C182.475 107.854 193.486 113.406 193.486 113.406C193.486 113.406 204.489 107.854 204.489 99.6023Z" fill="white"/>
<path d="M204.463 86.3218H205.307C208.604 86.3861 211.74 87.7541 214.03 90.1263C216.32 92.4984 217.577 95.6814 217.525 98.978V116.022C217.525 116.461 217.354 116.882 217.048 117.197C216.743 117.513 216.327 117.696 215.888 117.709H193.849C193.409 117.696 192.991 117.512 192.685 117.195C192.381 116.88 192.212 116.459 192.212 116.022V98.978C192.16 95.6756 193.421 92.4877 195.719 90.1145C198.016 87.7414 201.161 86.3773 204.463 86.3218V86.3218Z" fill="white"/>
<path d="M204.868 85.478C206.37 85.478 207.838 85.0327 209.087 84.1983C210.336 83.3638 211.309 82.1779 211.884 80.7903C212.459 79.4027 212.609 77.8759 212.316 76.4028C212.023 74.9298 211.3 73.5767 210.238 72.5147C209.176 71.4527 207.823 70.7294 206.35 70.4364C204.877 70.1434 203.35 70.2938 201.962 70.8686C200.575 71.4433 199.389 72.4166 198.554 73.6654C197.72 74.9142 197.275 76.3824 197.275 77.8843C197.275 79.8983 198.075 81.8298 199.499 83.2539C200.923 84.678 202.854 85.478 204.868 85.478V85.478Z" fill="white"/>
<path d="M204.463 86.3218H205.307C208.604 86.3861 211.74 87.7541 214.03 90.1263C216.32 92.4984 217.577 95.6814 217.525 98.978V116.022C217.525 116.461 217.354 116.882 217.048 117.197C216.743 117.513 216.327 117.696 215.888 117.709H193.849C193.409 117.696 192.991 117.512 192.685 117.195C192.381 116.88 192.212 116.459 192.212 116.022V98.978C192.16 95.6756 193.421 92.4877 195.719 90.1145C198.016 87.7414 201.161 86.3773 204.463 86.3218V86.3218Z" fill="#B7CDE1"/>
<path d="M204.868 85.478C206.37 85.478 207.838 85.0327 209.087 84.1983C210.336 83.3638 211.309 82.1779 211.884 80.7903C212.459 79.4027 212.609 77.8759 212.316 76.4028C212.023 74.9298 211.3 73.5767 210.238 72.5147C209.176 71.4527 207.823 70.7294 206.35 70.4364C204.877 70.1434 203.35 70.2938 201.962 70.8686C200.575 71.4433 199.389 72.4166 198.554 73.6654C197.72 74.9142 197.275 76.3824 197.275 77.8843C197.275 79.8983 198.075 81.8298 199.499 83.2539C200.923 84.678 202.854 85.478 204.868 85.478V85.478Z" fill="#B7CDE1"/>
<path d="M204.489 99.6025C204.424 98.187 203.816 96.851 202.791 95.8721C201.767 94.8932 200.405 94.3466 198.988 94.3459C197.571 94.3466 196.208 94.8932 195.184 95.8721C194.159 96.851 193.551 98.187 193.486 99.6025C193.355 98.2389 192.721 96.973 191.707 96.0519C190.693 95.1307 189.372 94.6204 188.002 94.6204C186.632 94.6204 185.311 95.1307 184.297 96.0519C183.283 96.973 182.649 98.2389 182.518 99.6025C182.475 107.854 193.486 113.406 193.486 113.406C193.486 113.406 204.489 107.854 204.489 99.6025Z" fill="#F05656"/>
<path d="M202.943 82.5277C202.773 83.0053 203.022 83.539 203.521 83.6273C204.083 83.7267 204.658 83.7382 205.227 83.6597C206.1 83.5391 206.932 83.2098 207.65 82.6997C208.369 82.1896 208.955 81.5138 209.357 80.7294C209.619 80.2185 209.798 79.6713 209.89 79.1083C209.971 78.6078 209.55 78.1964 209.043 78.1994L208.854 78.2006C208.347 78.2036 207.95 78.6241 207.82 79.1143C207.757 79.3526 207.668 79.5844 207.555 79.8054C207.301 80.3001 206.932 80.7264 206.479 81.0482C206.025 81.3699 205.501 81.5776 204.95 81.6537C204.704 81.6877 204.456 81.6949 204.21 81.6759C203.705 81.6368 203.177 81.8724 203.006 82.3501L202.943 82.5277Z" fill="#B7CDE1"/>
<rect x="194.938" y="72.9062" width="10.125" height="2.53125" rx="1.26562" fill="#B7CDE1"/>
<path d="M322.663 92.3125H301.4C301.064 92.3125 300.742 92.4458 300.505 92.6832C300.268 92.9205 300.134 93.2425 300.134 93.5781C300.134 93.9138 300.268 94.2357 300.505 94.4731C300.742 94.7104 301.064 94.8438 301.4 94.8438H322.663C322.998 94.8438 323.32 94.7104 323.557 94.4731C323.795 94.2357 323.928 93.9138 323.928 93.5781C323.928 93.2425 323.795 92.9205 323.557 92.6832C323.32 92.4458 322.998 92.3125 322.663 92.3125V92.3125Z" fill="white"/>
<path d="M315.052 98.2188H301.417C301.081 98.2188 300.759 98.3521 300.522 98.5894C300.285 98.8268 300.151 99.1487 300.151 99.4844C300.151 99.82 300.285 100.142 300.522 100.379C300.759 100.617 301.081 100.75 301.417 100.75H315.052C315.388 100.75 315.709 100.617 315.947 100.379C316.184 100.142 316.317 99.82 316.317 99.4844C316.317 99.1487 316.184 98.8268 315.947 98.5894C315.709 98.3521 315.388 98.2188 315.052 98.2188Z" fill="white"/>
<path d="M317.17 70.9741L304.193 83.951C304.004 84.1409 303.853 84.364 303.746 84.6091C303.645 84.8585 303.593 85.1249 303.594 85.3938V115.938L309.669 113.913L317.769 117.963L327.894 113.913L337.006 117.963L344.094 115.938V72.4C344.095 72.1338 344.043 71.87 343.942 71.6238C343.841 71.3776 343.691 71.1539 343.503 70.9656C343.315 70.7774 343.091 70.6283 342.845 70.5269C342.599 70.4255 342.335 70.3739 342.069 70.375H318.613C318.344 70.3748 318.077 70.4263 317.828 70.5269C317.583 70.6341 317.36 70.7857 317.17 70.9741Z" fill="#B7CDE1"/>
<path d="M316.756 71.3875V81.8078C316.762 82.0365 316.721 82.264 316.636 82.4765C316.551 82.689 316.424 82.8819 316.262 83.0437C316.101 83.2055 315.908 83.3327 315.695 83.4176C315.483 83.5025 315.255 83.5432 315.027 83.5375H304.606L316.756 71.3875Z" fill="#42CACD"/>
<path d="M322.663 92.3125H301.4C301.064 92.3125 300.742 92.4458 300.505 92.6832C300.268 92.9205 300.134 93.2425 300.134 93.5781C300.134 93.9138 300.268 94.2357 300.505 94.4731C300.742 94.7104 301.064 94.8438 301.4 94.8438H322.663C322.998 94.8438 323.32 94.7104 323.557 94.4731C323.795 94.2357 323.928 93.9138 323.928 93.5781C323.928 93.2425 323.795 92.9205 323.557 92.6832C323.32 92.4458 322.998 92.3125 322.663 92.3125V92.3125Z" fill="#42CACD"/>
<path d="M315.052 98.2188H301.417C301.081 98.2188 300.759 98.3521 300.522 98.5894C300.285 98.8268 300.151 99.1487 300.151 99.4844C300.151 99.82 300.285 100.142 300.522 100.379C300.759 100.617 301.081 100.75 301.417 100.75H315.052C315.388 100.75 315.709 100.617 315.947 100.379C316.184 100.142 316.317 99.82 316.317 99.4844C316.317 99.1487 316.184 98.8268 315.947 98.5894C315.709 98.3521 315.388 98.2188 315.052 98.2188Z" fill="#42CACD"/>
<path d="M82.4422 176.906L80.0459 215.246C80.0329 215.496 79.9238 215.731 79.7414 215.903C79.559 216.074 79.3175 216.168 79.0672 216.166H73.0597C72.8106 216.164 72.5713 216.069 72.3898 215.898C72.2083 215.728 72.098 215.495 72.0809 215.246L69.6847 176.906V177.396C69.6847 175.704 70.3567 174.081 71.553 172.885C72.7492 171.689 74.3717 171.017 76.0634 171.017C77.7552 171.017 79.3777 171.689 80.5739 172.885C81.7701 174.081 82.4422 175.704 82.4422 177.396" fill="white"/>
<path d="M87.5469 205.594C85.4609 205.594 83.4218 204.975 81.6873 203.816C79.9529 202.657 78.6011 201.01 77.8028 199.083C77.0046 197.156 76.7957 195.035 77.2027 192.989C77.6096 190.943 78.6141 189.064 80.0891 187.589C81.5641 186.114 83.4434 185.11 85.4893 184.703C87.5352 184.296 89.6558 184.505 91.583 185.303C93.5102 186.101 95.1574 187.453 96.3163 189.187C97.4752 190.922 98.0938 192.961 98.0938 195.047C98.0871 197.842 96.9737 200.521 94.9973 202.497C93.0208 204.474 90.342 205.587 87.5469 205.594V205.594Z" fill="white"/>
<path d="M89.4454 219.938H62.6816C62.4812 219.938 62.3188 220.1 62.3188 220.3V224.637C62.3188 224.838 62.4812 225 62.6816 225H89.4454C89.6457 225 89.8082 224.838 89.8082 224.637V220.3C89.8082 220.1 89.6457 219.938 89.4454 219.938Z" fill="white"/>
<path d="M93.9172 211.534H58.2097C57.767 211.534 57.4081 211.893 57.4081 212.335V221.532C57.4081 221.975 57.767 222.334 58.2097 222.334H93.9172C94.3599 222.334 94.7188 221.975 94.7188 221.532V212.335C94.7188 211.893 94.3599 211.534 93.9172 211.534Z" fill="#B7CDE1"/>
<path d="M89.4454 219.938H62.6816C62.4812 219.938 62.3188 220.1 62.3188 220.3V224.637C62.3188 224.838 62.4812 225 62.6816 225H89.4454C89.6457 225 89.8082 224.838 89.8082 224.637V220.3C89.8082 220.1 89.6457 219.938 89.4454 219.938Z" fill="#42CACD"/>
<path d="M82.4422 176.906L80.0459 215.246C80.0329 215.496 79.9238 215.731 79.7414 215.903C79.559 216.074 79.3175 216.168 79.0672 216.166H73.0597C72.8106 216.164 72.5713 216.069 72.3898 215.898C72.2083 215.728 72.098 215.495 72.0809 215.246L69.6847 176.906V177.396C69.6847 175.704 70.3567 174.081 71.553 172.885C72.7492 171.689 74.3717 171.017 76.0634 171.017C77.7552 171.017 79.3777 171.689 80.5739 172.885C81.7701 174.081 82.4422 175.704 82.4422 177.396" fill="#B7CDE1"/>
<path d="M87.5469 205.594C85.4609 205.594 83.4218 204.975 81.6873 203.816C79.9529 202.657 78.6011 201.01 77.8028 199.083C77.0046 197.156 76.7957 195.035 77.2027 192.989C77.6096 190.943 78.6141 189.064 80.0891 187.589C81.5641 186.114 83.4434 185.11 85.4893 184.703C87.5352 184.296 89.6558 184.505 91.583 185.303C93.5102 186.101 95.1574 187.453 96.3163 189.187C97.4752 190.922 98.0938 192.961 98.0938 195.047C98.0871 197.842 96.9737 200.521 94.9973 202.497C93.0208 204.474 90.342 205.587 87.5469 205.594V205.594Z" fill="#42CACD"/>
<path fill-rule="evenodd" clip-rule="evenodd" d="M85.3278 196.135C85.4251 196.233 85.5408 196.311 85.6682 196.364C85.7956 196.417 85.9323 196.444 86.0703 196.444C86.2084 196.444 86.345 196.417 86.4725 196.364C86.5999 196.311 86.7156 196.233 86.8128 196.135L90.8544 192.094C90.9281 192.02 91.0155 191.961 91.1118 191.922C91.2081 191.882 91.3113 191.861 91.4155 191.861C91.5197 191.861 91.6229 191.882 91.7192 191.922C91.8155 191.961 91.9029 192.02 91.9766 192.094V192.094C92.0503 192.167 92.1088 192.255 92.1487 192.351C92.1886 192.447 92.2092 192.551 92.2092 192.655C92.2092 192.759 92.1886 192.862 92.1487 192.958C92.1088 193.055 92.0503 193.142 91.9766 193.216L86.6272 198.557C86.5549 198.631 86.4683 198.691 86.3726 198.731C86.277 198.771 86.1742 198.792 86.0703 198.792C85.9665 198.792 85.8637 198.771 85.768 198.731C85.6724 198.691 85.5858 198.631 85.5135 198.557L83.1172 196.169C83.0435 196.095 82.985 196.008 82.9451 195.912C82.9052 195.815 82.8846 195.712 82.8846 195.608C82.8846 195.504 82.9052 195.4 82.9451 195.304C82.985 195.208 83.0435 195.12 83.1172 195.047V195.047C83.1909 194.973 83.2783 194.915 83.3746 194.875C83.4709 194.835 83.5741 194.814 83.6783 194.814C83.7825 194.814 83.8857 194.835 83.982 194.875C84.0783 194.915 84.1657 194.973 84.2394 195.047L85.3278 196.135Z" fill="white"/>
<path d="M200 203.062C207.922 203.062 214.344 196.641 214.344 188.719C214.344 180.797 207.922 174.375 200 174.375C192.078 174.375 185.656 180.797 185.656 188.719C185.656 196.641 192.078 203.062 200 203.062Z" fill="white"/>
<path d="M203.577 220.857C203.324 221.245 203.046 221.186 202.97 220.731L199.106 198.894C199.08 198.791 199.08 198.683 199.104 198.579C199.128 198.475 199.176 198.378 199.244 198.297C199.312 198.215 199.398 198.15 199.496 198.107C199.593 198.064 199.7 198.045 199.806 198.051H208.505C208.741 198.058 208.967 198.146 209.147 198.299C209.326 198.452 209.448 198.662 209.492 198.894L213.357 220.731C213.432 221.186 213.179 221.355 212.791 221.102L206.936 217.322C206.843 217.26 206.739 217.218 206.629 217.197C206.52 217.176 206.407 217.177 206.298 217.2C206.189 217.223 206.086 217.267 205.994 217.33C205.902 217.393 205.823 217.473 205.763 217.566L203.577 220.857Z" fill="#B7CDE1"/>
<path d="M196.33 220.925C196.633 221.279 196.954 221.186 197.03 220.731L200.894 198.894C200.92 198.791 200.92 198.683 200.896 198.579C200.872 198.475 200.824 198.378 200.756 198.297C200.688 198.215 200.602 198.15 200.504 198.107C200.407 198.064 200.3 198.045 200.194 198.051H191.495C191.259 198.058 191.033 198.146 190.853 198.299C190.674 198.452 190.552 198.662 190.508 198.894L186.643 220.731C186.568 221.186 186.804 221.33 187.175 221.051L192.06 217.406C192.244 217.269 192.471 217.205 192.699 217.227C192.927 217.249 193.138 217.355 193.292 217.524L196.33 220.925Z" fill="#B7CDE1"/>
<path d="M200 203.062C207.922 203.062 214.344 196.641 214.344 188.719C214.344 180.797 207.922 174.375 200 174.375C192.078 174.375 185.656 180.797 185.656 188.719C185.656 196.641 192.078 203.062 200 203.062Z" fill="#FEB452"/>
<path d="M199.629 181.454C199.831 181.032 200.169 181.032 200.371 181.454L202.236 185.217C202.364 185.436 202.539 185.625 202.747 185.771C202.955 185.917 203.192 186.016 203.443 186.061L207.602 186.668C208.058 186.736 208.168 187.057 207.83 187.377L204.826 190.313C204.651 190.502 204.52 190.727 204.439 190.972C204.359 191.216 204.333 191.475 204.362 191.731L205.063 195.908C205.138 196.372 204.868 196.566 204.463 196.355L200.743 194.397C200.507 194.289 200.251 194.233 199.992 194.233C199.732 194.233 199.476 194.289 199.241 194.397L195.528 196.355C195.123 196.566 194.853 196.355 194.929 195.908L195.638 191.765C195.667 191.509 195.641 191.25 195.561 191.005C195.48 190.761 195.349 190.536 195.174 190.347L192.17 187.411C191.833 187.09 191.942 186.77 192.398 186.702L196.558 186.095C196.808 186.049 197.045 185.95 197.253 185.805C197.461 185.659 197.636 185.47 197.764 185.251L199.629 181.454Z" fill="#FEB452"/>
<path d="M325.759 206.438C323.143 209.053 322.055 213.846 324.831 216.622C327.607 219.398 332.425 218.368 335.015 215.694C338.947 211.753 341.562 199.966 341.562 199.966C341.562 199.966 329.691 202.497 325.759 206.438Z" fill="white"/>
<path d="M311.567 209.855C314.098 212.437 318.731 213.441 321.431 210.749C324.131 208.058 323.051 203.417 320.519 200.902C316.655 197.156 305.281 194.625 305.281 194.625C305.281 194.625 307.813 206.032 311.567 209.855Z" fill="white"/>
<path d="M323.177 197.156H322.823C322.222 197.156 321.734 197.644 321.734 198.245V220.537C321.734 221.138 322.222 221.625 322.823 221.625H323.177C323.778 221.625 324.266 221.138 324.266 220.537V198.245C324.266 197.644 323.778 197.156 323.177 197.156Z" fill="#B7CDE1"/>
<path d="M322.857 198C325.589 198 328.238 197.052 330.35 195.318C332.463 193.584 333.908 191.172 334.441 188.491C334.974 185.811 334.561 183.029 333.273 180.618C331.985 178.208 329.9 176.32 327.376 175.274C324.851 174.228 322.041 174.09 319.426 174.884C316.811 175.677 314.552 177.353 313.034 179.625C311.515 181.898 310.832 184.626 311.1 187.346C311.368 190.066 312.571 192.608 314.503 194.541C315.6 195.637 316.903 196.508 318.336 197.101C319.769 197.695 321.305 198 322.857 198V198Z" fill="#FEB452"/>
<path fill-rule="evenodd" clip-rule="evenodd" d="M317.136 180.104H328.586V181.53H323.751C324.377 182.189 324.781 183.026 324.907 183.926H328.586V185.344H324.882C324.762 186.036 324.476 186.689 324.046 187.245C323.617 187.801 323.058 188.243 322.418 188.533L325.911 194.439H324.291L321.009 188.837H317.136V187.394H320.798C321.567 187.387 322.304 187.085 322.857 186.55C323.233 186.186 323.501 185.724 323.633 185.217H317.136V183.783H323.717C323.545 183.137 323.166 182.565 322.64 182.154C322.113 181.743 321.466 181.515 320.798 181.505H317.136V180.104Z" fill="white"/>
<path d="M325.759 206.437C323.143 209.053 322.055 213.846 324.831 216.621C327.607 219.397 332.425 218.368 335.015 215.693C338.947 211.753 341.562 199.966 341.562 199.966C341.562 199.966 329.691 202.497 325.759 206.437Z" fill="#36A168"/>
<path d="M311.567 209.855C314.098 212.437 318.731 213.441 321.431 210.749C324.131 208.058 323.051 203.417 320.519 200.902C316.655 197.156 305.281 194.625 305.281 194.625C305.281 194.625 307.813 206.032 311.567 209.855Z" fill="#36A168"/>
<path d="M87.9688 297.781C92.1627 297.781 95.5625 294.381 95.5625 290.188C95.5625 285.994 92.1627 282.594 87.9688 282.594C83.7748 282.594 80.375 285.994 80.375 290.188C80.375 294.381 83.7748 297.781 87.9688 297.781Z" fill="white"/>
<path d="M53.375 323.094H100.625V307.788H99.7812C90.5591 307.788 87.125 302.844 85.4375 293.444C83.75 284.045 76.865 280.906 69.4062 280.906C61.9475 280.906 55.9062 285.969 55.9062 293.444V294.288C55.9568 292.994 56.5179 291.773 57.4668 290.893C58.4156 290.012 59.6749 289.543 60.9688 289.588C62.2508 289.585 63.4864 290.068 64.4261 290.941C65.3657 291.813 65.9394 293.009 66.0312 294.288C66.0312 296.094 66.0312 301.156 55.0625 301.156H53.375V323.094Z" fill="#B7CDE1"/>
<path d="M100.625 318.875H53.375V323.094H100.625V318.875Z" fill="#42CACD"/>
<path d="M55.9062 301.156C61.5003 301.156 71.0938 301.156 71.0938 292.719C71.0938 283.438 55.9062 280.063 55.9062 293.444V294.288C55.9568 292.995 56.5179 291.774 57.4668 290.893C58.4156 290.012 59.6749 289.543 60.9688 289.589C62.2508 289.585 63.4864 290.069 64.4261 290.941C65.3657 291.813 65.9394 293.009 66.0312 294.288C66.0312 296.094 66.0312 301.156 55.0625 301.156" fill="#42CACD"/>
<path d="M87.9688 297.781C92.1627 297.781 95.5625 294.381 95.5625 290.188C95.5625 285.994 92.1627 282.594 87.9688 282.594C83.7748 282.594 80.375 285.994 80.375 290.188C80.375 294.381 83.7748 297.781 87.9688 297.781Z" fill="#FEB452"/>
<path d="M216.619 303.094H190.256C189.528 303.094 188.938 303.702 188.938 304.453C188.938 305.204 189.528 305.812 190.256 305.812H216.619C217.347 305.812 217.938 305.204 217.938 304.453C217.938 303.702 217.347 303.094 216.619 303.094Z" fill="white"/>
<path d="M220.253 313.969H199.309C198.586 313.969 198 314.577 198 315.328C198 316.079 198.586 316.688 199.309 316.688H220.253C220.976 316.688 221.562 316.079 221.562 315.328C221.562 314.577 220.976 313.969 220.253 313.969Z" fill="white"/>
<path d="M221.94 308.531H207.591C206.799 308.531 206.156 309.14 206.156 309.891C206.156 310.641 206.799 311.25 207.591 311.25H221.94C222.733 311.25 223.375 310.641 223.375 309.891C223.375 309.14 222.733 308.531 221.94 308.531Z" fill="white"/>
<path d="M187.125 285.459C187.125 281.685 190.185 278.625 193.959 278.625H194.791C198.565 278.625 201.625 281.685 201.625 285.459V291.512C201.625 292.573 201.872 293.619 202.346 294.568L214.805 319.485C217.077 324.029 213.773 329.375 208.692 329.375H180.058C174.977 329.375 171.673 324.029 173.945 319.485L186.404 294.568C186.878 293.619 187.125 292.573 187.125 291.512V285.459Z" fill="#B7CDE1"/>
<rect x="184.406" y="278.625" width="19.9375" height="5.4375" rx="1.95257" fill="#B7CDE1"/>
<rect x="184.406" y="278.625" width="19.9375" height="5.4375" rx="1.95257" fill="#B7CDE1"/>
<path d="M186.98 300.816C187.621 299.441 189.001 298.562 190.518 298.562H198.232C199.749 298.562 201.129 299.441 201.77 300.816L210.813 320.193C212.021 322.782 210.131 325.75 207.274 325.75H181.476C178.619 325.75 176.729 322.782 177.937 320.193L186.98 300.816Z" fill="#DBE6F0"/>
<path d="M216.619 303.094H190.256C189.528 303.094 188.938 303.702 188.938 304.453C188.938 305.204 189.528 305.812 190.256 305.812H216.619C217.347 305.812 217.938 305.204 217.938 304.453C217.938 303.702 217.347 303.094 216.619 303.094Z" fill="#42CACD"/>
<path d="M203.06 308.531H190.221C189.512 308.531 188.938 309.14 188.938 309.891C188.938 310.641 189.512 311.25 190.221 311.25H203.06C203.769 311.25 204.344 310.641 204.344 309.891C204.344 309.14 203.769 308.531 203.06 308.531Z" fill="#FE90A0"/>
<path d="M194.738 313.969H190.388C189.587 313.969 188.938 314.577 188.938 315.328C188.938 316.079 189.587 316.688 190.388 316.688H194.738C195.538 316.688 196.188 316.079 196.188 315.328C196.188 314.577 195.538 313.969 194.738 313.969Z" fill="#F05656"/>
<path d="M220.253 313.969H199.309C198.586 313.969 198 314.577 198 315.328C198 316.079 198.586 316.688 199.309 316.688H220.253C220.976 316.688 221.562 316.079 221.562 315.328C221.562 314.577 220.976 313.969 220.253 313.969Z" fill="#1482FF"/>
<path d="M211.191 319.406H190.247C189.524 319.406 188.938 320.015 188.938 320.766C188.938 321.516 189.524 322.125 190.247 322.125H211.191C211.914 322.125 212.5 321.516 212.5 320.766C212.5 320.015 211.914 319.406 211.191 319.406Z" fill="#FEB452"/>
<path d="M221.94 308.531H207.591C206.799 308.531 206.156 309.14 206.156 309.891C206.156 310.641 206.799 311.25 207.591 311.25H221.94C222.733 311.25 223.375 310.641 223.375 309.891C223.375 309.14 222.733 308.531 221.94 308.531Z" fill="#FEB452"/>
<path d="M305.594 307.625H300.156V322.125H305.594V307.625Z" fill="white"/>
<path d="M317.375 307.625H311.938V322.125H317.375V307.625Z" fill="white"/>
<path d="M330.062 307.625H324.625V322.125H330.062V307.625Z" fill="white"/>
<path d="M341.844 307.625H336.406V322.125H341.844V307.625Z" fill="white"/>
<path d="M344.562 322.125H297.438C296.436 322.125 295.625 322.936 295.625 323.937V327.562C295.625 328.563 296.436 329.375 297.438 329.375H344.562C345.564 329.375 346.375 328.563 346.375 327.562V323.937C346.375 322.936 345.564 322.125 344.562 322.125Z" fill="#B7CDE1"/>
<path d="M344.562 307.625H297.438C296.957 307.625 296.496 307.434 296.156 307.094C295.816 306.754 295.625 306.293 295.625 305.812V303.093C295.625 302.804 295.694 302.519 295.826 302.262C295.959 302.005 296.151 301.784 296.386 301.616L319.949 284.787C320.256 284.569 320.623 284.451 321 284.451C321.377 284.451 321.744 284.569 322.051 284.787L345.614 301.616C345.849 301.784 346.041 302.005 346.174 302.262C346.306 302.519 346.375 302.804 346.375 303.093V305.812C346.375 306.293 346.184 306.754 345.844 307.094C345.504 307.434 345.043 307.625 344.562 307.625Z" fill="#B7CDE1"/>
<path d="M305.594 304.906H300.156V324.844H305.594V304.906Z" fill="#B7CDE1"/>
<path d="M317.375 304.906H311.938V324.844H317.375V304.906Z" fill="#B7CDE1"/>
<path d="M330.062 304.906H324.625V324.844H330.062V304.906Z" fill="#B7CDE1"/>
<path d="M341.844 304.906H336.406V324.844H341.844V304.906Z" fill="#B7CDE1"/>
<path d="M339.234 286.885L340.284 284.969L341.329 286.885L343.256 287.94L341.329 288.99L340.284 290.912L339.234 288.99L337.312 287.94L339.234 286.885Z" fill="#42CACD"/>
<path d="M297.284 308.911L298.681 306.346L300.082 308.911L302.643 310.303L300.077 311.704L298.681 314.27L297.289 311.704L294.719 310.303L297.284 308.911Z" fill="#FEB452"/>
<g opacity="0.8" style="mix-blend-mode:multiply">
<path fill-rule="evenodd" clip-rule="evenodd" d="M343.998 319.109C344.001 320.668 343.542 322.193 342.679 323.49C341.815 324.788 340.586 325.8 339.147 326.398C337.709 326.997 336.125 327.155 334.596 326.852C333.067 326.55 331.663 325.8 330.56 324.699C329.458 323.598 328.706 322.194 328.402 320.665C328.097 319.137 328.253 317.552 328.849 316.112C329.446 314.672 330.456 313.441 331.752 312.576C333.048 311.71 334.571 311.249 336.129 311.25C337.162 311.248 338.185 311.45 339.14 311.843C340.094 312.237 340.962 312.815 341.693 313.544C343.167 315.019 343.996 317.019 343.998 319.104V319.109Z" fill="#42CACD"/>
</g>
<g opacity="0.8" style="mix-blend-mode:multiply">
<path fill-rule="evenodd" clip-rule="evenodd" d="M343.998 319.109C344.001 320.668 343.542 322.193 342.679 323.49C341.815 324.788 340.586 325.8 339.147 326.398C337.709 326.997 336.125 327.155 334.596 326.852C333.067 326.55 331.663 325.8 330.56 324.699C329.458 323.598 328.706 322.194 328.402 320.665C328.097 319.137 328.253 317.552 328.849 316.112C329.446 314.672 330.456 313.441 331.752 312.576C333.048 311.71 334.571 311.249 336.129 311.25C337.162 311.248 338.185 311.45 339.14 311.843C340.094 312.237 340.962 312.815 341.693 313.544C343.167 315.019 343.996 317.019 343.998 319.104V319.109Z" fill="#42CACD"/>
</g>
<path fill-rule="evenodd" clip-rule="evenodd" d="M337.337 316.998C337.079 316.891 336.801 316.836 336.521 316.836C336.178 316.837 335.899 316.558 335.898 316.215C335.898 315.871 336.176 315.592 336.52 315.592C336.963 315.591 337.403 315.678 337.813 315.848C338.223 316.017 338.596 316.266 338.91 316.58C339.224 316.894 339.473 317.267 339.643 317.677C339.812 318.088 339.9 318.527 339.9 318.972C339.9 319.315 339.621 319.594 339.277 319.594C338.934 319.594 338.655 319.315 338.655 318.972C338.655 318.691 338.6 318.413 338.493 318.153C338.385 317.894 338.228 317.658 338.03 317.46C337.831 317.262 337.596 317.105 337.337 316.998Z" fill="#42CACD"/>
<path fill-rule="evenodd" clip-rule="evenodd" d="M340.849 325.37C339.258 326.567 337.272 327.117 335.29 326.909C333.309 326.7 331.481 325.749 330.175 324.247C328.869 322.745 328.183 320.804 328.255 318.817C328.327 316.829 329.152 314.943 330.563 313.539C331.975 312.136 333.867 311.319 335.858 311.254C337.849 311.189 339.791 311.882 341.291 313.191C342.791 314.5 343.737 316.328 343.938 318.307C344.14 320.285 343.582 322.267 342.376 323.85L348.082 329.536C348.149 329.603 348.187 329.695 348.187 329.79C348.187 329.883 348.149 329.973 348.082 330.038L347.042 331.083C346.974 331.149 346.883 331.187 346.787 331.187C346.694 331.187 346.604 331.149 346.538 331.083L340.849 325.37ZM341.618 319.088C341.622 320.183 341.299 321.255 340.691 322.167C340.083 323.079 339.217 323.79 338.204 324.209C337.189 324.624 336.075 324.734 334.999 324.524C333.974 324.315 333.029 323.821 332.274 323.098C331.52 322.375 330.985 321.453 330.734 320.439C330.482 319.425 330.524 318.361 330.854 317.37C331.184 316.379 331.788 315.501 332.597 314.839C333.406 314.177 334.386 313.757 335.424 313.628C336.463 313.5 337.516 313.667 338.463 314.112C339.409 314.557 340.21 315.26 340.773 316.141C341.335 317.022 341.636 318.043 341.64 319.088H341.618Z" fill="#42CACD"/>
</g>
<defs>
<clipPath id="clip0_1465_11239">
<rect width="400" height="400" fill="white"/>
</clipPath>
</defs>
</svg>
