<svg width="420" height="131" viewBox="0 0 420 131" fill="none" xmlns="http://www.w3.org/2000/svg">
<g clip-path="url(#clip0_597_6549)">
<path d="M0 30C0 13.4315 13.4315 0 30 0H390C406.569 0 420 13.4315 420 30V131H0V30Z" fill="#E6F2FF"/>
<g opacity="0.5">
<path d="M80.7795 7.96576L80.7795 1.12659L88.6891 1.12659C88.0496 2.23987 87.2262 3.36389 86.1589 4.43117C84.4184 6.17163 82.5215 7.27111 80.7795 7.96576V7.96576Z" fill="#D3E9FF"/>
<path d="M242.115 7.96576L242.115 1.12659L250.024 1.12659C249.385 2.23987 248.561 3.36389 247.494 4.43117C245.753 6.17163 243.856 7.27111 242.115 7.96576V7.96576Z" fill="#D3E9FF"/>
<path d="M96.9704 -15.2334L80.7941 -15.2334L80.7941 0.834057L96.9704 0.834058L96.9704 -15.2334Z" fill="#99C3EC"/>
<path d="M258.306 -15.2334L242.13 -15.2334L242.13 0.834057L258.306 0.834058L258.306 -15.2334Z" fill="#99C3EC"/>
<path d="M96.9709 7.99365L96.9709 1.15448L89.0614 1.15448C89.7009 2.26776 90.5243 3.39177 91.5916 4.45905C93.3321 6.19951 95.229 7.299 96.9709 7.99365Z" fill="#D3E9FF"/>
<path d="M258.307 7.99365L258.307 1.15448L250.397 1.15448C251.036 2.26776 251.86 3.39177 252.927 4.45905C254.668 6.19951 256.565 7.299 258.307 7.99365Z" fill="#D3E9FF"/>
<path d="M64.5594 -15.2981C64.5594 -6.48381 57.2909 0.770934 48.4582 0.770934C39.6256 0.770933 32.357 -6.48228 32.357 -15.2981L64.5594 -15.2981Z" fill="#B6D9FC"/>
<path d="M225.896 -15.2981C225.896 -6.48381 218.627 0.770934 209.795 0.770934C200.962 0.770933 193.693 -6.48228 193.693 -15.2981L225.896 -15.2981Z" fill="#B6D9FC"/>
<path d="M144.936 -15.2981C144.936 -6.48381 137.667 0.770934 128.835 0.770934C120.002 0.770933 112.734 -6.48228 112.734 -15.2981L144.936 -15.2981Z" fill="#B6D9FC"/>
<path d="M306.271 -15.2981C306.271 -6.48381 299.002 0.770934 290.169 0.770934C281.337 0.770933 274.068 -6.48228 274.068 -15.2981L306.271 -15.2981Z" fill="#B6D9FC"/>
<path d="M387.422 -15.2981C387.422 -6.48381 380.153 0.770934 371.321 0.770934C362.488 0.770933 355.219 -6.48228 355.219 -15.2981L387.422 -15.2981Z" fill="#B6D9FC"/>
<path d="M64.7136 -15.341L64.7136 0.7265C65.8024 0.7219 71.4654 0.583897 76.0519 -4.00111C80.6369 -8.58612 80.7749 -14.2507 80.7795 -15.3394C80.7335 -15.3394 80.6876 -15.3394 80.6415 -15.341L64.7136 -15.341Z" fill="#CDE6FF"/>
<path d="M226.049 -15.341L226.049 0.7265C227.137 0.7219 232.8 0.583897 237.387 -4.00111C241.972 -8.58612 242.11 -14.2507 242.115 -15.3394C242.068 -15.3394 242.023 -15.3394 241.977 -15.341L226.049 -15.341Z" fill="#CDE6FF"/>
<path d="M145.09 -15.341L145.09 0.7265C146.178 0.7219 151.841 0.583897 156.428 -4.00111C161.013 -8.58612 161.151 -14.2507 161.156 -15.3394C161.11 -15.3394 161.064 -15.3394 161.018 -15.341L145.09 -15.341Z" fill="#CDE6FF"/>
<path d="M306.425 -15.341L306.425 0.7265C307.513 0.7219 313.176 0.583897 317.763 -4.00111C322.348 -8.58612 322.486 -14.2507 322.49 -15.3394C322.444 -15.3394 322.398 -15.3394 322.352 -15.341L306.425 -15.341Z" fill="#CDE6FF"/>
<path d="M387.576 -15.341L387.576 0.7265C388.665 0.7219 394.328 0.583897 398.914 -4.00111C403.499 -8.58612 403.637 -14.2507 403.642 -15.3394C403.596 -15.3394 403.55 -15.3394 403.504 -15.341L387.576 -15.341Z" fill="#CDE6FF"/>
<path d="M32.2983 -15.2984L16.2324 -15.2984C16.237 -14.2096 16.375 -8.5466 20.96 -3.96006C25.545 0.624955 31.2081 0.762978 32.2968 0.767578C32.2968 0.721575 32.2968 0.675567 32.2983 0.629564L32.2983 -15.2984Z" fill="#CDE6FF"/>
<path d="M193.633 -15.2984L177.567 -15.2984C177.571 -14.2096 177.709 -8.5466 182.294 -3.96006C186.879 0.624955 192.542 0.762978 193.631 0.767578C193.631 0.721575 193.631 0.675567 193.633 0.629564L193.633 -15.2984Z" fill="#CDE6FF"/>
<path d="M112.673 -15.2984L96.6072 -15.2984C96.6118 -14.2096 96.7498 -8.5466 101.335 -3.96006C105.92 0.624955 111.583 0.762978 112.672 0.767578C112.672 0.721575 112.672 0.675567 112.673 0.629564L112.673 -15.2984Z" fill="#CDE6FF"/>
<path d="M274.009 -15.2984L257.943 -15.2984C257.948 -14.2096 258.086 -8.5466 262.671 -3.96006C267.256 0.624955 272.919 0.762978 274.008 0.767578C274.008 0.721575 274.008 0.675567 274.009 0.629564L274.009 -15.2984Z" fill="#CDE6FF"/>
<path d="M355.16 -15.2984L339.094 -15.2984C339.099 -14.2096 339.237 -8.5466 343.822 -3.96006C348.407 0.624955 354.07 0.762978 355.158 0.767578C355.158 0.721575 355.159 0.675567 355.16 0.629564L355.16 -15.2984Z" fill="#CDE6FF"/>
<path d="M20.9597 4.50353C25.5447 9.08854 31.2093 9.22654 32.298 9.23114C32.298 9.18514 32.298 9.13915 32.2996 9.09314L32.2996 1.1974L18.4295 1.1974C19.069 2.31069 19.8924 3.43471 20.9597 4.50199L20.9597 4.50353Z" fill="#D3E9FF"/>
<path d="M182.295 4.50353C186.88 9.08854 192.544 9.22654 193.633 9.23114C193.633 9.18514 193.633 9.13915 193.635 9.09314L193.635 1.1974L179.764 1.1974C180.404 2.31069 181.227 3.43471 182.295 4.50199L182.295 4.50353Z" fill="#D3E9FF"/>
<path d="M101.335 4.50353C105.92 9.08854 111.585 9.22654 112.673 9.23114C112.673 9.18514 112.673 9.13915 112.675 9.09314L112.675 1.1974L98.8049 1.1974C99.4443 2.31069 100.268 3.43471 101.335 4.50199L101.335 4.50353Z" fill="#D3E9FF"/>
<path d="M262.671 4.50353C267.256 9.08854 272.921 9.22654 274.01 9.23114C274.01 9.18514 274.01 9.13915 274.011 9.09314L274.011 1.1974L260.141 1.1974C260.781 2.31069 261.604 3.43471 262.671 4.50199L262.671 4.50353Z" fill="#D3E9FF"/>
<path d="M343.822 4.50353C348.407 9.08854 354.072 9.22654 355.16 9.23114C355.16 9.18514 355.16 9.13915 355.162 9.09314L355.162 1.1974L341.292 1.1974C341.931 2.31069 342.755 3.43471 343.822 4.50199L343.822 4.50353Z" fill="#D3E9FF"/>
<path d="M76.0512 4.50353C71.4662 9.08854 65.8017 9.22654 64.7129 9.23114C64.7129 9.18514 64.7129 9.13915 64.7114 9.09314L64.7114 1.1974L78.5814 1.1974C77.942 2.31069 77.1185 3.43471 76.0512 4.50199L76.0512 4.50353Z" fill="#D3E9FF"/>
<path d="M237.386 4.50353C232.801 9.08854 227.137 9.22654 226.048 9.23114C226.048 9.18514 226.048 9.13915 226.046 9.09314L226.046 1.1974L239.917 1.1974C239.277 2.31069 238.454 3.43471 237.386 4.50199L237.386 4.50353Z" fill="#D3E9FF"/>
<path d="M156.428 4.50353C151.843 9.08854 146.178 9.22654 145.089 9.23114C145.089 9.18514 145.09 9.13915 145.088 9.09314L145.088 1.1974L158.958 1.1974C158.319 2.31069 157.495 3.43471 156.428 4.50199L156.428 4.50353Z" fill="#D3E9FF"/>
<path d="M317.763 4.50353C313.178 9.08854 307.513 9.22654 306.425 9.23114C306.425 9.18514 306.425 9.13915 306.423 9.09314L306.423 1.1974L320.293 1.1974C319.654 2.31069 318.83 3.43471 317.763 4.50199L317.763 4.50353Z" fill="#D3E9FF"/>
<path d="M398.914 4.50353C394.329 9.08854 388.664 9.22654 387.575 9.23114C387.575 9.18514 387.575 9.13915 387.574 9.09314L387.574 1.1974L401.444 1.1974C400.804 2.31069 399.981 3.43471 398.914 4.50199L398.914 4.50353Z" fill="#D3E9FF"/>
<path d="M16.1764 -15.2334L0 -15.2334L-1.40466e-06 0.834057L16.1764 0.834058L16.1764 -15.2334Z" fill="#99C3EC"/>
<path d="M338.846 -15.2334L322.67 -15.2334L322.67 0.834057L338.846 0.834058L338.846 -15.2334Z" fill="#99C3EC"/>
<path d="M419.998 -15.2334L403.821 -15.2334L403.821 0.834057L419.998 0.834058L419.998 -15.2334Z" fill="#99C3EC"/>
<path d="M177.512 -15.2334L161.336 -15.2334L161.336 0.834057L177.512 0.834058L177.512 -15.2334Z" fill="#99C3EC"/>
<path d="M16.1781 7.99365L16.1781 1.15448L8.26856 1.15448C8.90801 2.26776 9.73147 3.39177 10.7988 4.45905C12.5392 6.19951 14.4361 7.299 16.1781 7.99365Z" fill="#D3E9FF"/>
<path d="M338.849 7.99365L338.849 1.15448L330.94 1.15448C331.579 2.26776 332.403 3.39177 333.47 4.45905C335.21 6.19951 337.107 7.299 338.849 7.99365Z" fill="#D3E9FF"/>
<path d="M420 7.99365L420 1.15448L412.09 1.15448C412.73 2.26776 413.553 3.39177 414.621 4.45905C416.361 6.19951 418.258 7.299 420 7.99365Z" fill="#D3E9FF"/>
<path d="M177.513 7.99365L177.513 1.15448L169.604 1.15448C170.243 2.26776 171.066 3.39177 172.134 4.45905C173.874 6.19951 175.771 7.299 177.513 7.99365Z" fill="#D3E9FF"/>
<path d="M62.6913 1.2083L34.8607 1.20829C37.6485 6.02179 42.8607 9.28802 48.7752 9.28802C54.6898 9.28802 59.9019 6.02179 62.6897 1.2083L62.6913 1.2083Z" fill="#CDE6FF"/>
<path d="M224.027 1.2083L196.197 1.20829C198.985 6.02179 204.197 9.28802 210.111 9.28802C216.026 9.28802 221.238 6.02179 224.026 1.2083L224.027 1.2083Z" fill="#CDE6FF"/>
<path d="M143.068 1.2083L115.237 1.20829C118.025 6.02179 123.237 9.28802 129.152 9.28802C135.066 9.28802 140.279 6.02179 143.066 1.2083L143.068 1.2083Z" fill="#CDE6FF"/>
<path d="M304.403 1.2083L276.573 1.20829C279.361 6.02179 284.573 9.28802 290.487 9.28802C296.402 9.28802 301.614 6.02179 304.402 1.2083L304.403 1.2083Z" fill="#CDE6FF"/>
<path d="M385.555 1.2083L357.724 1.20829C360.512 6.02179 365.724 9.28802 371.639 9.28802C377.553 9.28802 382.765 6.02179 385.553 1.2083L385.555 1.2083Z" fill="#CDE6FF"/>
<path d="M59.4668 10.0378L38.086 10.0378C40.9351 12.5926 44.6875 14.1536 48.7772 14.1536C52.8669 14.1536 56.6192 12.591 59.4684 10.0378L59.4668 10.0378Z" fill="#D5EAFE"/>
<path d="M220.803 10.0378L199.422 10.0378C202.271 12.5926 206.023 14.1536 210.113 14.1536C214.203 14.1536 217.955 12.591 220.804 10.0378L220.803 10.0378Z" fill="#D5EAFE"/>
<path d="M139.843 10.0378L118.462 10.0378C121.311 12.5926 125.064 14.1536 129.153 14.1536C133.243 14.1536 136.995 12.591 139.844 10.0378L139.843 10.0378Z" fill="#D5EAFE"/>
<path d="M301.179 10.0378L279.798 10.0378C282.647 12.5926 286.4 14.1536 290.489 14.1536C294.579 14.1536 298.332 12.591 301.181 10.0378L301.179 10.0378Z" fill="#D5EAFE"/>
<path d="M382.33 10.0378L360.949 10.0378C363.798 12.5926 367.55 14.1536 371.64 14.1536C375.73 14.1536 379.482 12.591 382.331 10.0378L382.33 10.0378Z" fill="#D5EAFE"/>
<path d="M48.7681 17.2115C51.654 17.2115 54.3713 16.4325 56.722 15.077L40.8125 15.077C43.1633 16.4325 45.8806 17.2115 48.7665 17.2115L48.7681 17.2115Z" fill="#D5EAFE"/>
<path d="M210.104 17.2115C212.99 17.2115 215.708 16.4325 218.058 15.077L202.149 15.077C204.5 16.4325 207.217 17.2115 210.103 17.2115L210.104 17.2115Z" fill="#D5EAFE"/>
<path d="M129.145 17.2115C132.031 17.2115 134.748 16.4325 137.099 15.077L121.189 15.077C123.54 16.4325 126.257 17.2115 129.143 17.2115L129.145 17.2115Z" fill="#D5EAFE"/>
<path d="M290.48 17.2115C293.366 17.2115 296.083 16.4325 298.434 15.077L282.524 15.077C284.875 16.4325 287.592 17.2115 290.478 17.2115L290.48 17.2115Z" fill="#D5EAFE"/>
<path d="M371.63 17.2115C374.516 17.2115 377.234 16.4325 379.584 15.077L363.675 15.077C366.026 16.4325 368.743 17.2115 371.629 17.2115L371.63 17.2115Z" fill="#D5EAFE"/>
</g>
<path d="M80.7795 26.3172L80.7795 33.1564L88.6891 33.1564C88.0496 32.0431 87.2262 30.9191 86.1589 29.8518C84.4184 28.1113 82.5215 27.0119 80.7795 26.3172Z" fill="#D3E9FF"/>
<path d="M242.115 26.3172L242.115 33.1564L250.024 33.1564C249.385 32.0431 248.561 30.9191 247.494 29.8518C245.753 28.1113 243.856 27.0119 242.115 26.3172Z" fill="#D3E9FF"/>
<path d="M80.7795 105.178L80.7795 98.3389L88.6891 98.3389C88.0496 99.4522 87.2262 100.576 86.1589 101.643C84.4184 103.384 82.5215 104.483 80.7795 105.178Z" fill="#D3E9FF"/>
<path d="M242.115 105.178L242.115 98.3389L250.024 98.3389C249.385 99.4522 248.561 100.576 247.494 101.643C245.753 103.384 243.856 104.483 242.115 105.178Z" fill="#D3E9FF"/>
<path d="M96.9704 60.4241L80.7941 60.4241L80.7941 71.1965L96.9704 71.1965L96.9704 60.4241Z" fill="#CDE6FF"/>
<path d="M258.306 60.4241L242.13 60.4241L242.13 71.1965L258.306 71.1965L258.306 60.4241Z" fill="#CDE6FF"/>
<path d="M96.9704 33.6103L80.7941 33.6103L80.7941 49.6778L96.9704 49.6778L96.9704 33.6103Z" fill="#99C3EC"/>
<path d="M258.306 33.6103L242.13 33.6103L242.13 49.6778L258.306 49.6778L258.306 33.6103Z" fill="#99C3EC"/>
<path d="M96.9704 81.9783L80.7941 81.9783L80.7941 98.0457L96.9704 98.0457L96.9704 81.9783Z" fill="#99C3EC"/>
<path d="M258.306 81.9783L242.13 81.9783L242.13 98.0457L258.306 98.0457L258.306 81.9783Z" fill="#99C3EC"/>
<path d="M96.9704 49.6368L80.7941 49.6368L80.7941 60.4093L96.9704 60.4093L96.9704 49.6368Z" fill="#B6D9FC"/>
<path d="M258.306 49.6368L242.13 49.6368L242.13 60.4093L258.306 60.4093L258.306 49.6368Z" fill="#B6D9FC"/>
<path d="M96.9704 71.2193L80.7941 71.2193L80.7941 81.9918L96.9704 81.9918L96.9704 71.2193Z" fill="#B6D9FC"/>
<path d="M258.306 71.2193L242.13 71.2193L242.13 81.9918L258.306 81.9918L258.306 71.2193Z" fill="#B6D9FC"/>
<path d="M96.9709 105.206L96.9709 98.3665L89.0614 98.3665C89.7009 99.4798 90.5243 100.604 91.5916 101.671C93.3321 103.412 95.229 104.511 96.9709 105.206Z" fill="#D3E9FF"/>
<path d="M258.307 105.206L258.307 98.3665L250.397 98.3665C251.036 99.4798 251.86 100.604 252.927 101.671C254.668 103.412 256.565 104.511 258.307 105.206Z" fill="#D3E9FF"/>
<path d="M96.9709 26.3448L96.9709 33.184L89.0614 33.184C89.7009 32.0707 90.5243 30.9467 91.5916 29.8794C93.3321 28.1389 95.229 27.0394 96.9709 26.3448Z" fill="#D3E9FF"/>
<path d="M258.307 26.3448L258.307 33.184L250.397 33.184C251.036 32.0707 251.86 30.9467 252.927 29.8794C254.668 28.1389 256.565 27.0394 258.307 26.3448Z" fill="#D3E9FF"/>
<path d="M86.805 46.407L88.8122 44.3998L90.8211 46.407L92.2042 45.0239L88.8122 41.6319L85.4203 45.0239L86.805 46.407Z" fill="#E7F1FE"/>
<path d="M92.0548 47.6414L94.0637 49.6487L92.0548 51.6575L93.4396 53.0407L96.8315 49.6487L93.4396 46.2567L92.0548 47.6414Z" fill="#E7F1FE"/>
<path d="M85.5712 51.6575L83.5639 49.6487L85.5712 47.6414L84.188 46.2567L80.796 49.6487L84.188 53.0407L85.5712 51.6575Z" fill="#E7F1FE"/>
<path d="M90.8211 52.8902L88.8122 54.899L86.805 52.8902L85.4203 54.2749L88.8122 57.6669L92.2042 54.2749L90.8211 52.8902Z" fill="#E7F1FE"/>
<path d="M248.141 46.4071L250.149 44.3998L252.157 46.4071L253.541 45.0239L250.149 41.632L246.757 45.0239L248.141 46.4071Z" fill="#E7F1FE"/>
<path d="M253.39 47.6418L255.399 49.6491L253.39 51.6579L254.775 53.0411L258.167 49.6491L254.775 46.2571L253.39 47.6418Z" fill="#E7F1FE"/>
<path d="M246.907 51.6579L244.9 49.6491L246.907 47.6418L245.524 46.2571L242.132 49.6491L245.524 53.0411L246.907 51.6579Z" fill="#E7F1FE"/>
<path d="M252.157 52.8905L250.149 54.8994L248.141 52.8905L246.757 54.2752L250.149 57.6672L253.541 54.2753L252.157 52.8905Z" fill="#E7F1FE"/>
<path d="M86.805 78.7399L88.8122 76.7311L90.8211 78.7399L92.2042 77.3552L88.8122 73.9632L85.4203 77.3552L86.805 78.7399Z" fill="#E7F1FE"/>
<path d="M92.0548 79.9728L94.0637 81.9817L92.0548 83.9889L93.4396 85.3737L96.8315 81.9817L93.4396 78.5897L92.0548 79.9728Z" fill="#E7F1FE"/>
<path d="M85.5712 83.9889L83.5639 81.9817L85.5712 79.9728L84.188 78.5897L80.796 81.9817L84.188 85.3737L85.5712 83.9889Z" fill="#E7F1FE"/>
<path d="M90.8211 85.2234L88.8122 87.2307L86.805 85.2234L85.4203 86.6065L88.8122 89.9985L92.2042 86.6065L90.8211 85.2234Z" fill="#E7F1FE"/>
<path d="M248.141 78.7392L250.149 76.7304L252.157 78.7392L253.541 77.3545L250.149 73.9625L246.757 77.3545L248.141 78.7392Z" fill="#E7F1FE"/>
<path d="M253.39 79.9721L255.399 81.9809L253.39 83.9882L254.775 85.3729L258.167 81.9809L254.775 78.5889L253.39 79.9721Z" fill="#E7F1FE"/>
<path d="M246.907 83.9882L244.9 81.9809L246.907 79.9721L245.524 78.5889L242.132 81.9809L245.524 85.3729L246.907 83.9882Z" fill="#E7F1FE"/>
<path d="M252.157 85.2226L250.149 87.2299L248.141 85.2226L246.757 86.6058L250.149 89.9978L253.541 86.6058L252.157 85.2226Z" fill="#E7F1FE"/>
<path d="M48.4223 49.7743C39.5494 49.7743 32.3564 56.9673 32.3564 65.8403C32.3564 74.7132 39.5494 81.9062 48.4223 81.9062C57.2953 81.9062 64.4883 74.7132 64.4883 65.8403C64.4883 56.9673 57.2953 49.7743 48.4223 49.7743Z" fill="#99C3EC"/>
<path d="M209.757 49.7743C200.884 49.7743 193.691 56.9673 193.691 65.8403C193.691 74.7132 200.884 81.9062 209.757 81.9062C218.63 81.9062 225.823 74.7132 225.823 65.8403C225.823 56.9673 218.63 49.7743 209.757 49.7743Z" fill="#99C3EC"/>
<path d="M128.797 49.7743C119.924 49.7743 112.731 56.9673 112.731 65.8403C112.731 74.7132 119.924 81.9062 128.797 81.9062C137.67 81.9062 144.863 74.7132 144.863 65.8403C144.863 56.9673 137.67 49.7743 128.797 49.7743Z" fill="#99C3EC"/>
<path d="M290.133 49.7743C281.26 49.7743 274.067 56.9673 274.067 65.8403C274.067 74.7132 281.26 81.9062 290.133 81.9062C299.006 81.9062 306.199 74.7132 306.199 65.8403C306.199 56.9673 299.006 49.7743 290.133 49.7743Z" fill="#99C3EC"/>
<path d="M371.284 49.7743C362.411 49.7743 355.218 56.9673 355.218 65.8403C355.218 74.7132 362.411 81.9062 371.284 81.9062C380.157 81.9062 387.35 74.7132 387.35 65.8403C387.35 56.9673 380.157 49.7743 371.284 49.7743Z" fill="#99C3EC"/>
<path d="M64.7136 49.6547C73.5263 49.6547 80.7795 56.9064 80.7795 65.7207C80.7795 74.5349 73.5279 81.7866 64.7136 81.7866L64.7136 49.6563L64.7136 49.6547Z" fill="#B6D9FC"/>
<path d="M226.049 49.6547C234.861 49.6547 242.115 56.9064 242.115 65.7207C242.115 74.5349 234.863 81.7866 226.049 81.7866L226.049 49.6563L226.049 49.6547Z" fill="#B6D9FC"/>
<path d="M145.09 49.6547C153.902 49.6547 161.156 56.9064 161.156 65.7207C161.156 74.5349 153.904 81.7866 145.09 81.7866L145.09 49.6563L145.09 49.6547Z" fill="#B6D9FC"/>
<path d="M306.425 49.6547C315.237 49.6547 322.49 56.9064 322.49 65.7207C322.49 74.5349 315.239 81.7866 306.425 81.7866L306.425 49.6563L306.425 49.6547Z" fill="#B6D9FC"/>
<path d="M387.576 49.6547C396.389 49.6547 403.642 56.9064 403.642 65.7207C403.642 74.5349 396.39 81.7866 387.576 81.7866L387.576 49.6563L387.576 49.6547Z" fill="#B6D9FC"/>
<path d="M32.2983 81.7607C23.4856 81.7607 16.2324 74.5489 16.2324 65.7838C16.2324 57.0186 23.4841 49.8068 32.2983 49.8068L32.2983 81.7607Z" fill="#B6D9FC"/>
<path d="M193.633 81.7607C184.82 81.7607 177.567 74.5489 177.567 65.7838C177.567 57.0186 184.818 49.8068 193.633 49.8068L193.633 81.7607Z" fill="#B6D9FC"/>
<path d="M112.673 81.7607C103.86 81.7607 96.6072 74.5489 96.6072 65.7838C96.6072 57.0186 103.859 49.8068 112.673 49.8068L112.673 81.7607Z" fill="#B6D9FC"/>
<path d="M274.009 81.7607C265.197 81.7607 257.943 74.5489 257.943 65.7838C257.943 57.0186 265.195 49.8068 274.009 49.8068L274.009 81.7607Z" fill="#B6D9FC"/>
<path d="M355.16 81.7607C346.347 81.7607 339.094 74.5489 339.094 65.7838C339.094 57.0186 346.346 49.8068 355.16 49.8068L355.16 81.7607Z" fill="#B6D9FC"/>
<path d="M64.5594 81.9136C64.5594 90.7279 57.2909 97.9826 48.4582 97.9826C39.6256 97.9826 32.357 90.7294 32.357 81.9136L64.5594 81.9136Z" fill="#B6D9FC"/>
<path d="M225.896 81.9136C225.896 90.7279 218.627 97.9826 209.795 97.9826C200.962 97.9826 193.693 90.7294 193.693 81.9136L225.896 81.9136Z" fill="#B6D9FC"/>
<path d="M144.936 81.9136C144.936 90.7279 137.667 97.9826 128.835 97.9826C120.002 97.9826 112.734 90.7294 112.734 81.9136L144.936 81.9136Z" fill="#B6D9FC"/>
<path d="M306.271 81.9136C306.271 90.7279 299.002 97.9826 290.169 97.9826C281.337 97.9826 274.068 90.7294 274.068 81.9136L306.271 81.9136Z" fill="#B6D9FC"/>
<path d="M387.422 81.9136C387.422 90.7279 380.153 97.9826 371.321 97.9826C362.488 97.9826 355.219 90.7294 355.219 81.9136L387.422 81.9136Z" fill="#B6D9FC"/>
<path d="M32.357 49.5704C32.357 40.7577 39.6256 33.5045 48.4582 33.5045C57.2909 33.5045 64.5594 40.7562 64.5594 49.5704L32.357 49.5704Z" fill="#B6D9FC"/>
<path d="M193.693 49.5704C193.693 40.7577 200.962 33.5045 209.795 33.5045C218.627 33.5045 225.896 40.7562 225.896 49.5704L193.693 49.5704Z" fill="#B6D9FC"/>
<path d="M112.734 49.5704C112.734 40.7577 120.002 33.5045 128.835 33.5045C137.667 33.5045 144.936 40.7562 144.936 49.5704L112.734 49.5704Z" fill="#B6D9FC"/>
<path d="M274.068 49.5704C274.068 40.7577 281.337 33.5045 290.169 33.5045C299.002 33.5045 306.271 40.7562 306.271 49.5704L274.068 49.5704Z" fill="#B6D9FC"/>
<path d="M355.219 49.5704C355.219 40.7577 362.488 33.5045 371.321 33.5045C380.153 33.5045 387.422 40.7562 387.422 49.5704L355.219 49.5704Z" fill="#B6D9FC"/>
<path d="M32.2983 49.5704L32.2983 33.503C31.2096 33.5076 25.5466 33.6456 20.96 38.2306C16.375 42.8156 16.237 48.4802 16.2324 49.5689C16.2784 49.5689 16.3244 49.5689 16.3704 49.5704L32.2983 49.5704Z" fill="#CDE6FF"/>
<path d="M193.633 49.5704L193.633 33.503C192.544 33.5076 186.881 33.6456 182.294 38.2306C177.709 42.8156 177.571 48.4802 177.567 49.5689C177.613 49.5689 177.659 49.5689 177.705 49.5704L193.633 49.5704Z" fill="#CDE6FF"/>
<path d="M112.673 49.5704L112.673 33.503C111.584 33.5076 105.921 33.6456 101.335 38.2306C96.7498 42.8156 96.6118 48.4802 96.6072 49.5689C96.6532 49.5689 96.6992 49.5689 96.7452 49.5704L112.673 49.5704Z" fill="#CDE6FF"/>
<path d="M274.009 49.5704L274.009 33.503C272.921 33.5076 267.257 33.6456 262.671 38.2306C258.086 42.8156 257.948 48.4802 257.943 49.5689C257.989 49.5689 258.035 49.5689 258.081 49.5704L274.009 49.5704Z" fill="#CDE6FF"/>
<path d="M355.16 49.5704L355.16 33.503C354.071 33.5076 348.408 33.6456 343.822 38.2306C339.237 42.8156 339.099 48.4802 339.094 49.5689C339.14 49.5689 339.186 49.5689 339.232 49.5704L355.16 49.5704Z" fill="#CDE6FF"/>
<path d="M64.7136 49.5704L80.7795 49.5704C80.7749 48.4817 80.6369 42.8187 76.0519 38.2321C71.4669 33.6471 65.8039 33.5091 64.7151 33.5045C64.7151 33.5505 64.7151 33.5965 64.7136 33.6425L64.7136 49.5704Z" fill="#CDE6FF"/>
<path d="M226.049 49.5704L242.115 49.5704C242.11 48.4817 241.972 42.8187 237.387 38.2321C232.802 33.6471 227.139 33.5091 226.05 33.5045C226.05 33.5505 226.05 33.5965 226.049 33.6425L226.049 49.5704Z" fill="#CDE6FF"/>
<path d="M145.09 49.5704L161.156 49.5704C161.151 48.4817 161.013 42.8187 156.428 38.2321C151.843 33.6471 146.18 33.5091 145.091 33.5045C145.091 33.5505 145.091 33.5965 145.09 33.6425L145.09 49.5704Z" fill="#CDE6FF"/>
<path d="M306.425 49.5704L322.49 49.5704C322.486 48.4817 322.348 42.8187 317.763 38.2321C313.178 33.6471 307.515 33.5091 306.426 33.5045C306.426 33.5505 306.426 33.5965 306.425 33.6425L306.425 49.5704Z" fill="#CDE6FF"/>
<path d="M387.576 49.5704L403.642 49.5704C403.637 48.4817 403.499 42.8187 398.914 38.2321C394.329 33.6471 388.666 33.5091 387.577 33.5045C387.577 33.5505 387.577 33.5965 387.576 33.6425L387.576 49.5704Z" fill="#CDE6FF"/>
<path d="M64.7136 81.871L64.7136 97.9385C65.8024 97.9339 71.4654 97.7959 76.0519 93.2109C80.6369 88.6259 80.7749 82.9613 80.7795 81.8725C80.7335 81.8725 80.6876 81.8725 80.6415 81.871L64.7136 81.871Z" fill="#CDE6FF"/>
<path d="M226.049 81.871L226.049 97.9385C227.137 97.9339 232.8 97.7959 237.387 93.2109C241.972 88.6259 242.11 82.9613 242.115 81.8725C242.068 81.8725 242.023 81.8725 241.977 81.871L226.049 81.871Z" fill="#CDE6FF"/>
<path d="M145.09 81.871L145.09 97.9385C146.178 97.9339 151.841 97.7959 156.428 93.2109C161.013 88.6259 161.151 82.9613 161.156 81.8725C161.11 81.8725 161.064 81.8725 161.018 81.871L145.09 81.871Z" fill="#CDE6FF"/>
<path d="M306.425 81.871L306.425 97.9385C307.513 97.9339 313.176 97.7959 317.763 93.2109C322.348 88.6259 322.486 82.9613 322.49 81.8725C322.444 81.8725 322.398 81.8725 322.352 81.871L306.425 81.871Z" fill="#CDE6FF"/>
<path d="M387.576 81.871L387.576 97.9385C388.665 97.9339 394.328 97.7959 398.914 93.2109C403.499 88.6259 403.637 82.9613 403.642 81.8725C403.596 81.8725 403.55 81.8725 403.504 81.871L387.576 81.871Z" fill="#CDE6FF"/>
<path d="M32.2983 81.9133L16.2324 81.9133C16.237 83.0021 16.375 88.6651 20.96 93.2516C25.545 97.8366 31.2081 97.9746 32.2968 97.9792C32.2968 97.9332 32.2968 97.8872 32.2983 97.8412L32.2983 81.9133Z" fill="#CDE6FF"/>
<path d="M193.633 81.9133L177.567 81.9133C177.571 83.0021 177.709 88.6651 182.294 93.2516C186.879 97.8366 192.542 97.9746 193.631 97.9792C193.631 97.9332 193.631 97.8872 193.633 97.8412L193.633 81.9133Z" fill="#CDE6FF"/>
<path d="M112.673 81.9133L96.6072 81.9133C96.6118 83.0021 96.7498 88.6651 101.335 93.2516C105.92 97.8366 111.583 97.9746 112.672 97.9792C112.672 97.9332 112.672 97.8872 112.673 97.8412L112.673 81.9133Z" fill="#CDE6FF"/>
<path d="M274.009 81.9133L257.943 81.9133C257.948 83.0021 258.086 88.6651 262.671 93.2516C267.256 97.8366 272.919 97.9746 274.008 97.9792C274.008 97.9332 274.008 97.8872 274.009 97.8412L274.009 81.9133Z" fill="#CDE6FF"/>
<path d="M355.16 81.9133L339.094 81.9133C339.099 83.0021 339.237 88.6651 343.822 93.2516C348.407 97.8366 354.07 97.9746 355.158 97.9792C355.158 97.9332 355.159 97.8872 355.16 97.8412L355.16 81.9133Z" fill="#CDE6FF"/>
<path d="M47.4745 69.6803L44.3877 69.6803L44.3877 66.5935L42.2592 66.5935L42.2592 71.8087L47.4745 71.8087L47.4745 69.6803Z" fill="#3F85CB"/>
<path d="M44.3877 64.6964L44.3877 61.6096L47.4745 61.6096L47.4745 59.4812L42.2592 59.4812L42.2592 64.6964L44.3877 64.6964Z" fill="#3F85CB"/>
<path d="M52.4582 66.5934L52.4582 69.6802L49.3714 69.6802L49.3714 71.8087L54.5867 71.8087L54.5867 66.5934L52.4582 66.5934Z" fill="#3F85CB"/>
<path d="M49.3712 61.6096L52.458 61.6096L52.458 64.6964L54.5864 64.6964L54.5864 59.4812L49.3712 59.4812L49.3712 61.6096Z" fill="#3F85CB"/>
<path d="M208.809 69.6803L205.722 69.6803L205.722 66.5935L203.594 66.5935L203.594 71.8087L208.809 71.8087L208.809 69.6803Z" fill="#3F85CB"/>
<path d="M205.722 64.6964L205.722 61.6096L208.809 61.6096L208.809 59.4812L203.594 59.4812L203.594 64.6964L205.722 64.6964Z" fill="#3F85CB"/>
<path d="M213.794 66.5934L213.794 69.6802L210.707 69.6802L210.707 71.8087L215.922 71.8087L215.922 66.5934L213.794 66.5934Z" fill="#3F85CB"/>
<path d="M210.707 61.6096L213.794 61.6096L213.794 64.6964L215.922 64.6964L215.922 59.4812L210.707 59.4812L210.707 61.6096Z" fill="#3F85CB"/>
<path d="M127.851 69.6803L124.764 69.6803L124.764 66.5935L122.636 66.5935L122.636 71.8087L127.851 71.8087L127.851 69.6803Z" fill="#3F85CB"/>
<path d="M124.764 64.6964L124.764 61.6096L127.851 61.6096L127.851 59.4812L122.636 59.4812L122.636 64.6964L124.764 64.6964Z" fill="#3F85CB"/>
<path d="M132.834 66.5934L132.834 69.6802L129.747 69.6802L129.747 71.8087L134.963 71.8087L134.963 66.5934L132.834 66.5934Z" fill="#3F85CB"/>
<path d="M129.747 61.6096L132.834 61.6096L132.834 64.6964L134.962 64.6964L134.962 59.4812L129.747 59.4812L129.747 61.6096Z" fill="#3F85CB"/>
<path d="M289.186 69.6803L286.099 69.6803L286.099 66.5935L283.97 66.5935L283.97 71.8087L289.186 71.8087L289.186 69.6803Z" fill="#3F85CB"/>
<path d="M286.099 64.6964L286.099 61.6096L289.186 61.6096L289.186 59.4812L283.97 59.4812L283.97 64.6964L286.099 64.6964Z" fill="#3F85CB"/>
<path d="M294.169 66.5934L294.169 69.6802L291.082 69.6802L291.082 71.8087L296.298 71.8087L296.298 66.5934L294.169 66.5934Z" fill="#3F85CB"/>
<path d="M291.082 61.6096L294.169 61.6096L294.169 64.6964L296.298 64.6964L296.298 59.4812L291.082 59.4812L291.082 61.6096Z" fill="#3F85CB"/>
<path d="M370.337 69.6803L367.25 69.6803L367.25 66.5935L365.121 66.5935L365.121 71.8087L370.337 71.8087L370.337 69.6803Z" fill="#3F85CB"/>
<path d="M367.25 64.6964L367.25 61.6096L370.337 61.6096L370.337 59.4812L365.121 59.4812L365.121 64.6964L367.25 64.6964Z" fill="#3F85CB"/>
<path d="M375.32 66.5934L375.32 69.6802L372.233 69.6802L372.233 71.8087L377.448 71.8087L377.448 66.5934L375.32 66.5934Z" fill="#3F85CB"/>
<path d="M372.233 61.6096L375.32 61.6096L375.32 64.6964L377.449 64.6964L377.449 59.4812L372.233 59.4812L372.233 61.6096Z" fill="#3F85CB"/>
<path d="M76.0512 29.9101C71.4662 25.3251 65.8017 25.1871 64.7129 25.1825C64.7129 25.2285 64.7129 25.2745 64.7114 25.3205L64.7114 33.2162L78.5814 33.2162C77.942 32.103 77.1185 30.9789 76.0512 29.9117L76.0512 29.9101Z" fill="#D3E9FF"/>
<path d="M237.386 29.9101C232.801 25.3251 227.137 25.1871 226.048 25.1825C226.048 25.2285 226.048 25.2745 226.046 25.3205L226.046 33.2162L239.917 33.2162C239.277 32.103 238.454 30.9789 237.386 29.9117L237.386 29.9101Z" fill="#D3E9FF"/>
<path d="M156.428 29.9101C151.843 25.3251 146.178 25.1871 145.089 25.1825C145.089 25.2285 145.09 25.2745 145.088 25.3205L145.088 33.2162L158.958 33.2162C158.319 32.103 157.495 30.9789 156.428 29.9117L156.428 29.9101Z" fill="#D3E9FF"/>
<path d="M317.763 29.9101C313.178 25.3251 307.513 25.1871 306.425 25.1825C306.425 25.2285 306.425 25.2745 306.423 25.3205L306.423 33.2162L320.293 33.2162C319.654 32.103 318.83 30.9789 317.763 29.9117L317.763 29.9101Z" fill="#D3E9FF"/>
<path d="M398.914 29.9101C394.329 25.3251 388.664 25.1871 387.575 25.1825C387.575 25.2285 387.575 25.2745 387.574 25.3205L387.574 33.2162L401.444 33.2162C400.804 32.103 399.981 30.9789 398.914 29.9117L398.914 29.9101Z" fill="#D3E9FF"/>
<path d="M20.9597 101.716C25.5447 106.301 31.2093 106.439 32.298 106.443C32.298 106.397 32.298 106.351 32.2996 106.305L32.2996 98.4094L18.4295 98.4094C19.069 99.5227 19.8924 100.647 20.9597 101.714L20.9597 101.716Z" fill="#D3E9FF"/>
<path d="M182.295 101.716C186.88 106.301 192.544 106.439 193.633 106.443C193.633 106.397 193.633 106.351 193.635 106.305L193.635 98.4094L179.764 98.4094C180.404 99.5227 181.227 100.647 182.295 101.714L182.295 101.716Z" fill="#D3E9FF"/>
<path d="M101.335 101.716C105.92 106.301 111.585 106.439 112.673 106.443C112.673 106.397 112.673 106.351 112.675 106.305L112.675 98.4094L98.8049 98.4094C99.4443 99.5227 100.268 100.647 101.335 101.714L101.335 101.716Z" fill="#D3E9FF"/>
<path d="M262.671 101.716C267.256 106.301 272.921 106.439 274.01 106.443C274.01 106.397 274.01 106.351 274.011 106.305L274.011 98.4094L260.141 98.4094C260.781 99.5227 261.604 100.647 262.671 101.714L262.671 101.716Z" fill="#D3E9FF"/>
<path d="M343.822 101.716C348.407 106.301 354.072 106.439 355.16 106.443C355.16 106.397 355.16 106.351 355.162 106.305L355.162 98.4094L341.292 98.4094C341.931 99.5227 342.755 100.647 343.822 101.714L343.822 101.716Z" fill="#D3E9FF"/>
<path d="M76.0512 101.716C71.4662 106.301 65.8017 106.439 64.7129 106.443C64.7129 106.397 64.7129 106.351 64.7114 106.305L64.7114 98.4094L78.5814 98.4094C77.942 99.5227 77.1185 100.647 76.0512 101.714L76.0512 101.716Z" fill="#D3E9FF"/>
<path d="M237.386 101.716C232.801 106.301 227.137 106.439 226.048 106.443C226.048 106.397 226.048 106.351 226.046 106.305L226.046 98.4094L239.917 98.4094C239.277 99.5227 238.454 100.647 237.386 101.714L237.386 101.716Z" fill="#D3E9FF"/>
<path d="M156.428 101.716C151.843 106.301 146.178 106.439 145.089 106.443C145.089 106.397 145.09 106.351 145.088 106.305L145.088 98.4094L158.958 98.4094C158.319 99.5227 157.495 100.647 156.428 101.714L156.428 101.716Z" fill="#D3E9FF"/>
<path d="M317.763 101.716C313.178 106.301 307.513 106.439 306.425 106.443C306.425 106.397 306.425 106.351 306.423 106.305L306.423 98.4094L320.293 98.4094C319.654 99.5227 318.83 100.647 317.763 101.714L317.763 101.716Z" fill="#D3E9FF"/>
<path d="M398.914 101.716C394.329 106.301 388.664 106.439 387.575 106.443C387.575 106.397 387.575 106.351 387.574 106.305L387.574 98.4094L401.444 98.4094C400.804 99.5227 399.981 100.647 398.914 101.714L398.914 101.716Z" fill="#D3E9FF"/>
<path d="M20.9597 29.9101C25.5447 25.3251 31.2093 25.1871 32.298 25.1825C32.298 25.2285 32.298 25.2745 32.2996 25.3205L32.2996 33.2162L18.4295 33.2162C19.069 32.103 19.8924 30.9789 20.9597 29.9117L20.9597 29.9101Z" fill="#D3E9FF"/>
<path d="M182.295 29.9101C186.88 25.3251 192.544 25.1871 193.633 25.1825C193.633 25.2285 193.633 25.2745 193.635 25.3205L193.635 33.2162L179.764 33.2162C180.404 32.103 181.227 30.9789 182.295 29.9117L182.295 29.9101Z" fill="#D3E9FF"/>
<path d="M101.335 29.9101C105.92 25.3251 111.585 25.1871 112.673 25.1825C112.673 25.2285 112.673 25.2745 112.675 25.3205L112.675 33.2162L98.8049 33.2162C99.4443 32.103 100.268 30.9789 101.335 29.9117L101.335 29.9101Z" fill="#D3E9FF"/>
<path d="M262.671 29.9101C267.256 25.3251 272.921 25.1871 274.01 25.1825C274.01 25.2285 274.01 25.2745 274.011 25.3205L274.011 33.2162L260.141 33.2162C260.781 32.103 261.604 30.9789 262.671 29.9117L262.671 29.9101Z" fill="#D3E9FF"/>
<path d="M343.822 29.9101C348.407 25.3251 354.072 25.1871 355.16 25.1825C355.16 25.2285 355.16 25.2745 355.162 25.3205L355.162 33.2162L341.292 33.2162C341.931 32.103 342.755 30.9789 343.822 29.9117L343.822 29.9101Z" fill="#D3E9FF"/>
<path d="M16.1764 60.4241L0 60.4241L-9.41759e-07 71.1965L16.1764 71.1965L16.1764 60.4241Z" fill="#CDE6FF"/>
<path d="M338.846 60.4241L322.67 60.4241L322.67 71.1965L338.846 71.1965L338.846 60.4241Z" fill="#CDE6FF"/>
<path d="M419.998 60.4241L403.821 60.4241L403.821 71.1965L419.998 71.1965L419.998 60.4241Z" fill="#CDE6FF"/>
<path d="M177.512 60.4241L161.336 60.4241L161.336 71.1965L177.512 71.1965L177.512 60.4241Z" fill="#CDE6FF"/>
<path d="M16.1764 33.6103L0 33.6103L-1.40466e-06 49.6778L16.1764 49.6778L16.1764 33.6103Z" fill="#99C3EC"/>
<path d="M338.846 33.6103L322.67 33.6103L322.67 49.6778L338.846 49.6778L338.846 33.6103Z" fill="#99C3EC"/>
<path d="M419.998 33.6103L403.821 33.6103L403.821 49.6778L419.998 49.6778L419.998 33.6103Z" fill="#99C3EC"/>
<path d="M177.512 33.6103L161.336 33.6103L161.336 49.6778L177.512 49.6778L177.512 33.6103Z" fill="#99C3EC"/>
<path d="M16.1764 81.9783L0 81.9783L-1.40466e-06 98.0457L16.1764 98.0457L16.1764 81.9783Z" fill="#99C3EC"/>
<path d="M338.846 81.9783L322.67 81.9783L322.67 98.0457L338.846 98.0457L338.846 81.9783Z" fill="#99C3EC"/>
<path d="M419.998 81.9783L403.821 81.9783L403.821 98.0457L419.998 98.0457L419.998 81.9783Z" fill="#99C3EC"/>
<path d="M177.512 81.9783L161.336 81.9783L161.336 98.0457L177.512 98.0457L177.512 81.9783Z" fill="#99C3EC"/>
<path d="M16.1764 49.6368L0 49.6368L-9.41759e-07 60.4093L16.1764 60.4093L16.1764 49.6368Z" fill="#B6D9FC"/>
<path d="M338.846 49.6368L322.67 49.6368L322.67 60.4093L338.846 60.4093L338.846 49.6368Z" fill="#B6D9FC"/>
<path d="M419.998 49.6368L403.821 49.6368L403.821 60.4093L419.998 60.4093L419.998 49.6368Z" fill="#B6D9FC"/>
<path d="M177.512 49.6368L161.336 49.6368L161.336 60.4093L177.512 60.4093L177.512 49.6368Z" fill="#B6D9FC"/>
<path d="M16.1764 71.2193L0 71.2193L-9.41759e-07 81.9918L16.1764 81.9918L16.1764 71.2193Z" fill="#B6D9FC"/>
<path d="M338.846 71.2193L322.67 71.2193L322.67 81.9918L338.846 81.9918L338.846 71.2193Z" fill="#B6D9FC"/>
<path d="M419.998 71.2193L403.821 71.2193L403.821 81.9918L419.998 81.9918L419.998 71.2193Z" fill="#B6D9FC"/>
<path d="M177.512 71.2193L161.336 71.2193L161.336 81.9918L177.512 81.9918L177.512 71.2193Z" fill="#B6D9FC"/>
<path d="M16.1781 105.206L16.1781 98.3665L8.26856 98.3665C8.90801 99.4798 9.73147 100.604 10.7988 101.671C12.5392 103.412 14.4361 104.511 16.1781 105.206Z" fill="#D3E9FF"/>
<path d="M338.849 105.206L338.849 98.3665L330.94 98.3665C331.579 99.4798 332.403 100.604 333.47 101.671C335.21 103.412 337.107 104.511 338.849 105.206Z" fill="#D3E9FF"/>
<path d="M420 105.206L420 98.3665L412.09 98.3665C412.73 99.4798 413.553 100.604 414.621 101.671C416.361 103.412 418.258 104.511 420 105.206Z" fill="#D3E9FF"/>
<path d="M177.513 105.206L177.513 98.3665L169.604 98.3665C170.243 99.4798 171.066 100.604 172.134 101.671C173.874 103.412 175.771 104.511 177.513 105.206Z" fill="#D3E9FF"/>
<path d="M16.1781 26.3448L16.1781 33.184L8.26856 33.184C8.90801 32.0707 9.73147 30.9467 10.7988 29.8794C12.5392 28.1389 14.4361 27.0394 16.1781 26.3448Z" fill="#D3E9FF"/>
<path d="M338.849 26.3448L338.849 33.184L330.94 33.184C331.579 32.0707 332.403 30.9467 333.47 29.8794C335.21 28.1389 337.107 27.0394 338.849 26.3448Z" fill="#D3E9FF"/>
<path d="M420 26.3448L420 33.184L412.09 33.184C412.73 32.0707 413.553 30.9467 414.621 29.8794C416.361 28.1389 418.258 27.0394 420 26.3448Z" fill="#D3E9FF"/>
<path d="M177.513 26.3448L177.513 33.184L169.604 33.184C170.243 32.0707 171.066 30.9467 172.134 29.8794C173.874 28.1389 175.771 27.0394 177.513 26.3448Z" fill="#D3E9FF"/>
<path d="M6.01009 46.407L8.0189 44.3998L10.0262 46.407L11.4109 45.0239L8.0189 41.6319L4.62692 45.0239L6.01009 46.407Z" fill="#E7F1FE"/>
<path d="M11.2612 47.6414L13.2685 49.6487L11.2612 51.6575L12.6444 53.0407L16.0364 49.6487L12.6444 46.2567L11.2612 47.6414Z" fill="#E7F1FE"/>
<path d="M4.77844 51.6575L2.76963 49.6487L4.77844 47.6414L3.39375 46.2567L0.00174838 49.6487L3.39375 53.0407L4.77844 51.6575Z" fill="#E7F1FE"/>
<path d="M10.0262 52.8902L8.0189 54.899L6.01009 52.8902L4.62692 54.2749L8.0189 57.6669L11.4109 54.2749L10.0262 52.8902Z" fill="#E7F1FE"/>
<path d="M328.682 46.407L330.691 44.3998L332.698 46.407L334.083 45.0239L330.691 41.6319L327.299 45.0239L328.682 46.407Z" fill="#E7F1FE"/>
<path d="M333.932 47.6414L335.94 49.6487L333.932 51.6575L335.316 53.0407L338.708 49.6487L335.316 46.2567L333.932 47.6414Z" fill="#E7F1FE"/>
<path d="M327.449 51.6575L325.441 49.6487L327.449 47.6414L326.065 46.2567L322.673 49.6487L326.065 53.0407L327.449 51.6575Z" fill="#E7F1FE"/>
<path d="M332.698 52.8902L330.691 54.899L328.682 52.8902L327.299 54.2749L330.691 57.6669L334.083 54.2749L332.698 52.8902Z" fill="#E7F1FE"/>
<path d="M409.833 46.407L411.842 44.3998L413.849 46.407L415.234 45.0239L411.842 41.6319L408.45 45.0239L409.833 46.407Z" fill="#E7F1FE"/>
<path d="M415.083 47.6414L417.09 49.6487L415.083 51.6575L416.466 53.0407L419.858 49.6487L416.466 46.2567L415.083 47.6414Z" fill="#E7F1FE"/>
<path d="M408.6 51.6575L406.591 49.6487L408.6 47.6414L407.215 46.2567L403.823 49.6487L407.215 53.0407L408.6 51.6575Z" fill="#E7F1FE"/>
<path d="M413.849 52.8902L411.842 54.899L409.833 52.8902L408.45 54.2749L411.842 57.6669L415.234 54.2749L413.849 52.8902Z" fill="#E7F1FE"/>
<path d="M167.346 46.407L169.355 44.3998L171.362 46.407L172.747 45.0239L169.355 41.6319L165.963 45.0239L167.346 46.407Z" fill="#E7F1FE"/>
<path d="M172.597 47.6414L174.604 49.6487L172.597 51.6575L173.98 53.0407L177.372 49.6487L173.98 46.2567L172.597 47.6414Z" fill="#E7F1FE"/>
<path d="M166.113 51.6575L164.104 49.6487L166.113 47.6414L164.728 46.2567L161.336 49.6487L164.728 53.0407L166.113 51.6575Z" fill="#E7F1FE"/>
<path d="M171.362 52.8902L169.355 54.899L167.346 52.8902L165.963 54.2749L169.355 57.6669L172.747 54.2749L171.362 52.8902Z" fill="#E7F1FE"/>
<path d="M6.01009 78.7399L8.0189 76.7311L10.0262 78.7399L11.4109 77.3552L8.0189 73.9632L4.62692 77.3552L6.01009 78.7399Z" fill="#E7F1FE"/>
<path d="M11.2612 79.9728L13.2685 81.9817L11.2612 83.9889L12.6444 85.3737L16.0364 81.9817L12.6444 78.5897L11.2612 79.9728Z" fill="#E7F1FE"/>
<path d="M4.77844 83.9889L2.76963 81.9817L4.77844 79.9728L3.39375 78.5897L0.00174838 81.9817L3.39375 85.3737L4.77844 83.9889Z" fill="#E7F1FE"/>
<path d="M10.0262 85.2234L8.0189 87.2307L6.01009 85.2234L4.62692 86.6065L8.0189 89.9985L11.4109 86.6065L10.0262 85.2234Z" fill="#E7F1FE"/>
<path d="M328.682 78.7399L330.691 76.7311L332.698 78.7399L334.083 77.3552L330.691 73.9632L327.299 77.3552L328.682 78.7399Z" fill="#E7F1FE"/>
<path d="M333.932 79.9728L335.94 81.9817L333.932 83.9889L335.316 85.3737L338.708 81.9817L335.316 78.5897L333.932 79.9728Z" fill="#E7F1FE"/>
<path d="M327.449 83.9889L325.441 81.9817L327.449 79.9728L326.065 78.5897L322.673 81.9817L326.065 85.3737L327.449 83.9889Z" fill="#E7F1FE"/>
<path d="M332.698 85.2234L330.691 87.2307L328.682 85.2234L327.299 86.6065L330.691 89.9985L334.083 86.6065L332.698 85.2234Z" fill="#E7F1FE"/>
<path d="M409.833 78.7399L411.842 76.7311L413.849 78.7399L415.234 77.3552L411.842 73.9632L408.45 77.3552L409.833 78.7399Z" fill="#E7F1FE"/>
<path d="M415.083 79.9728L417.09 81.9817L415.083 83.9889L416.466 85.3737L419.858 81.9817L416.466 78.5897L415.083 79.9728Z" fill="#E7F1FE"/>
<path d="M408.6 83.9889L406.591 81.9817L408.6 79.9728L407.215 78.5897L403.823 81.9817L407.215 85.3737L408.6 83.9889Z" fill="#E7F1FE"/>
<path d="M413.849 85.2234L411.842 87.2307L409.833 85.2234L408.45 86.6065L411.842 89.9985L415.234 86.6065L413.849 85.2234Z" fill="#E7F1FE"/>
<path d="M167.346 78.7399L169.355 76.7311L171.362 78.7399L172.747 77.3552L169.355 73.9632L165.963 77.3552L167.346 78.7399Z" fill="#E7F1FE"/>
<path d="M172.597 79.9728L174.604 81.9817L172.597 83.9889L173.98 85.3737L177.372 81.9817L173.98 78.5897L172.597 79.9728Z" fill="#E7F1FE"/>
<path d="M166.113 83.9889L164.104 81.9817L166.113 79.9728L164.728 78.5897L161.336 81.9817L164.728 85.3737L166.113 83.9889Z" fill="#E7F1FE"/>
<path d="M171.362 85.2234L169.355 87.2307L167.346 85.2234L165.963 86.6065L169.355 89.9985L172.747 86.6065L171.362 85.2234Z" fill="#E7F1FE"/>
<path d="M34.8607 33.2147L62.6913 33.2147C59.9035 28.4012 54.6913 25.135 48.7768 25.135C42.8623 25.135 37.6501 28.4012 34.8623 33.2147L34.8607 33.2147Z" fill="#CDE6FF"/>
<path d="M196.197 33.2147L224.027 33.2147C221.24 28.4012 216.027 25.135 210.113 25.135C204.198 25.135 198.986 28.4012 196.198 33.2147L196.197 33.2147Z" fill="#CDE6FF"/>
<path d="M115.237 33.2147L143.068 33.2147C140.28 28.4012 135.068 25.135 129.153 25.135C123.239 25.135 118.027 28.4012 115.239 33.2147L115.237 33.2147Z" fill="#CDE6FF"/>
<path d="M276.573 33.2147L304.403 33.2147C301.616 28.4012 296.403 25.135 290.489 25.135C284.574 25.135 279.362 28.4012 276.574 33.2147L276.573 33.2147Z" fill="#CDE6FF"/>
<path d="M357.724 33.2147L385.555 33.2147C382.767 28.4012 377.555 25.135 371.64 25.135C365.726 25.135 360.514 28.4012 357.726 33.2147L357.724 33.2147Z" fill="#CDE6FF"/>
<path d="M38.0863 24.3851L59.4672 24.3851C56.618 21.8303 52.8657 20.2693 48.776 20.2693C44.6863 20.2693 40.9339 21.8319 38.0848 24.3851L38.0863 24.3851Z" fill="#D5EAFE"/>
<path d="M199.421 24.3851L220.802 24.3851C217.953 21.8303 214.201 20.2693 210.111 20.2693C206.021 20.2693 202.269 21.8319 199.42 24.3851L199.421 24.3851Z" fill="#D5EAFE"/>
<path d="M118.462 24.3851L139.843 24.3851C136.993 21.8303 133.241 20.2693 129.151 20.2693C125.062 20.2693 121.309 21.8319 118.46 24.3851L118.462 24.3851Z" fill="#D5EAFE"/>
<path d="M279.798 24.3851L301.179 24.3851C298.33 21.8303 294.577 20.2693 290.488 20.2693C286.398 20.2693 282.646 21.8319 279.796 24.3851L279.798 24.3851Z" fill="#D5EAFE"/>
<path d="M360.949 24.3851L382.33 24.3851C379.48 21.8303 375.728 20.2693 371.638 20.2693C367.549 20.2693 363.796 21.8319 360.947 24.3851L360.949 24.3851Z" fill="#D5EAFE"/>
<path d="M48.7867 17.2118C45.9007 17.2118 43.1834 17.9908 40.8327 19.3464L56.7422 19.3464C54.3914 17.9908 51.6741 17.2118 48.7882 17.2118L48.7867 17.2118Z" fill="#D5EAFE"/>
<path d="M210.122 17.2118C207.236 17.2118 204.519 17.9908 202.168 19.3464L218.078 19.3464C215.727 17.9908 213.01 17.2118 210.124 17.2118L210.122 17.2118Z" fill="#D5EAFE"/>
<path d="M129.163 17.2118C126.277 17.2118 123.56 17.9908 121.209 19.3464L137.119 19.3464C134.768 17.9908 132.051 17.2118 129.165 17.2118L129.163 17.2118Z" fill="#D5EAFE"/>
<path d="M290.499 17.2118C287.613 17.2118 284.896 17.9908 282.545 19.3464L298.454 19.3464C296.104 17.9908 293.386 17.2118 290.5 17.2118L290.499 17.2118Z" fill="#D5EAFE"/>
<path d="M371.65 17.2118C368.764 17.2118 366.046 17.9908 363.696 19.3464L379.605 19.3464C377.254 17.9908 374.537 17.2118 371.651 17.2118L371.65 17.2118Z" fill="#D5EAFE"/>
<path d="M62.6913 98.4203L34.8607 98.4203C37.6485 103.234 42.8607 106.5 48.7752 106.5C54.6898 106.5 59.9019 103.234 62.6897 98.4203L62.6913 98.4203Z" fill="#CDE6FF"/>
<path d="M224.027 98.4203L196.197 98.4203C198.985 103.234 204.197 106.5 210.111 106.5C216.026 106.5 221.238 103.234 224.026 98.4203L224.027 98.4203Z" fill="#CDE6FF"/>
<path d="M143.068 98.4203L115.237 98.4203C118.025 103.234 123.237 106.5 129.152 106.5C135.066 106.5 140.279 103.234 143.066 98.4203L143.068 98.4203Z" fill="#CDE6FF"/>
<path d="M304.403 98.4203L276.573 98.4203C279.361 103.234 284.573 106.5 290.487 106.5C296.402 106.5 301.614 103.234 304.402 98.4203L304.403 98.4203Z" fill="#CDE6FF"/>
<path d="M385.555 98.4203L357.724 98.4203C360.512 103.234 365.724 106.5 371.639 106.5C377.553 106.5 382.765 103.234 385.553 98.4203L385.555 98.4203Z" fill="#CDE6FF"/>
<path d="M59.4668 107.25L38.086 107.25C40.9351 109.805 44.6875 111.366 48.7772 111.366C52.8669 111.366 56.6192 109.803 59.4684 107.25L59.4668 107.25Z" fill="#D5EAFE"/>
<path d="M220.803 107.25L199.422 107.25C202.271 109.805 206.023 111.366 210.113 111.366C214.203 111.366 217.955 109.803 220.804 107.25L220.803 107.25Z" fill="#D5EAFE"/>
<path d="M139.843 107.25L118.462 107.25C121.311 109.805 125.064 111.366 129.153 111.366C133.243 111.366 136.995 109.803 139.844 107.25L139.843 107.25Z" fill="#D5EAFE"/>
<path d="M301.179 107.25L279.798 107.25C282.647 109.805 286.4 111.366 290.489 111.366C294.579 111.366 298.332 109.803 301.181 107.25L301.179 107.25Z" fill="#D5EAFE"/>
<path d="M382.33 107.25L360.949 107.25C363.798 109.805 367.55 111.366 371.64 111.366C375.73 111.366 379.482 109.803 382.331 107.25L382.33 107.25Z" fill="#D5EAFE"/>
<path d="M48.7681 114.423C51.654 114.423 54.3713 113.644 56.722 112.288L40.8125 112.288C43.1633 113.644 45.8806 114.423 48.7665 114.423L48.7681 114.423Z" fill="#D5EAFE"/>
<path d="M210.104 114.423C212.99 114.423 215.708 113.644 218.058 112.288L202.149 112.288C204.5 113.644 207.217 114.423 210.103 114.423L210.104 114.423Z" fill="#D5EAFE"/>
<path d="M129.145 114.423C132.031 114.423 134.748 113.644 137.099 112.288L121.189 112.288C123.54 113.644 126.257 114.423 129.143 114.423L129.145 114.423Z" fill="#D5EAFE"/>
<path d="M290.48 114.423C293.366 114.423 296.083 113.644 298.434 112.288L282.524 112.288C284.875 113.644 287.592 114.423 290.478 114.423L290.48 114.423Z" fill="#D5EAFE"/>
<path d="M371.63 114.423C374.516 114.423 377.234 113.644 379.584 112.288L363.675 112.288C366.026 113.644 368.743 114.423 371.629 114.423L371.63 114.423Z" fill="#D5EAFE"/>
<g opacity="0.5">
<path d="M80.7795 123.528L80.7795 130.367L88.6891 130.367C88.0496 129.254 87.2262 128.13 86.1589 127.063C84.4184 125.322 82.5215 124.223 80.7795 123.528V123.528Z" fill="#D3E9FF"/>
<path d="M242.115 123.528L242.115 130.367L250.024 130.367C249.385 129.254 248.561 128.13 247.494 127.063C245.753 125.322 243.856 124.223 242.115 123.528V123.528Z" fill="#D3E9FF"/>
<path d="M96.9704 130.822L80.7941 130.822L80.7941 146.889L96.9704 146.889L96.9704 130.822Z" fill="#99C3EC"/>
<path d="M258.306 130.822L242.13 130.822L242.13 146.889L258.306 146.889L258.306 130.822Z" fill="#99C3EC"/>
<path d="M96.9709 123.556L96.9709 130.396L89.0614 130.396C89.7009 129.282 90.5243 128.158 91.5916 127.091C93.3321 125.35 95.229 124.251 96.9709 123.556Z" fill="#D3E9FF"/>
<path d="M258.307 123.556L258.307 130.396L250.397 130.396C251.036 129.282 251.86 128.158 252.927 127.091C254.668 125.35 256.565 124.251 258.307 123.556Z" fill="#D3E9FF"/>
<path d="M32.357 146.782C32.357 137.969 39.6256 130.716 48.4582 130.716C57.2909 130.716 64.5594 137.967 64.5594 146.782L32.357 146.782Z" fill="#B6D9FC"/>
<path d="M193.693 146.782C193.693 137.969 200.962 130.716 209.795 130.716C218.627 130.716 225.896 137.967 225.896 146.782L193.693 146.782Z" fill="#B6D9FC"/>
<path d="M112.734 146.782C112.734 137.969 120.002 130.716 128.835 130.716C137.667 130.716 144.936 137.967 144.936 146.782L112.734 146.782Z" fill="#B6D9FC"/>
<path d="M274.068 146.782C274.068 137.969 281.337 130.716 290.169 130.716C299.002 130.716 306.271 137.967 306.271 146.782L274.068 146.782Z" fill="#B6D9FC"/>
<path d="M355.219 146.782C355.219 137.969 362.488 130.716 371.321 130.716C380.153 130.716 387.422 137.967 387.422 146.782L355.219 146.782Z" fill="#B6D9FC"/>
<path d="M32.2983 146.782L32.2983 130.714C31.2096 130.719 25.5466 130.857 20.96 135.442C16.375 140.027 16.237 145.691 16.2324 146.78C16.2784 146.78 16.3244 146.78 16.3704 146.782L32.2983 146.782V146.782Z" fill="#CDE6FF"/>
<path d="M193.633 146.782L193.633 130.714C192.544 130.719 186.881 130.857 182.294 135.442C177.709 140.027 177.571 145.691 177.567 146.78C177.613 146.78 177.659 146.78 177.705 146.782L193.633 146.782V146.782Z" fill="#CDE6FF"/>
<path d="M112.673 146.782L112.673 130.714C111.584 130.719 105.921 130.857 101.335 135.442C96.7498 140.027 96.6118 145.691 96.6072 146.78C96.6532 146.78 96.6992 146.78 96.7452 146.782L112.673 146.782V146.782Z" fill="#CDE6FF"/>
<path d="M274.009 146.782L274.009 130.714C272.921 130.719 267.257 130.857 262.671 135.442C258.086 140.027 257.948 145.691 257.943 146.78C257.989 146.78 258.035 146.78 258.081 146.782L274.009 146.782V146.782Z" fill="#CDE6FF"/>
<path d="M355.16 146.782L355.16 130.714C354.071 130.719 348.408 130.857 343.822 135.442C339.237 140.027 339.099 145.691 339.094 146.78C339.14 146.78 339.186 146.78 339.232 146.782L355.16 146.782V146.782Z" fill="#CDE6FF"/>
<path d="M64.7136 146.782L80.7795 146.782C80.7749 145.693 80.6369 140.03 76.0519 135.443C71.4669 130.858 65.8039 130.72 64.7151 130.716C64.7151 130.762 64.7151 130.808 64.7136 130.854L64.7136 146.782Z" fill="#CDE6FF"/>
<path d="M226.049 146.782L242.115 146.782C242.11 145.693 241.972 140.03 237.387 135.443C232.802 130.858 227.139 130.72 226.05 130.716C226.05 130.762 226.05 130.808 226.049 130.854L226.049 146.782Z" fill="#CDE6FF"/>
<path d="M145.09 146.782L161.156 146.782C161.151 145.693 161.013 140.03 156.428 135.443C151.843 130.858 146.18 130.72 145.091 130.716C145.091 130.762 145.091 130.808 145.09 130.854L145.09 146.782Z" fill="#CDE6FF"/>
<path d="M306.425 146.782L322.49 146.782C322.486 145.693 322.348 140.03 317.763 135.443C313.178 130.858 307.515 130.72 306.426 130.716C306.426 130.762 306.426 130.808 306.425 130.854L306.425 146.782Z" fill="#CDE6FF"/>
<path d="M387.576 146.782L403.642 146.782C403.637 145.693 403.499 140.03 398.914 135.443C394.329 130.858 388.666 130.72 387.577 130.716C387.577 130.762 387.577 130.808 387.576 130.854L387.576 146.782Z" fill="#CDE6FF"/>
<path d="M76.0512 127.121C71.4662 122.536 65.8017 122.398 64.7129 122.393C64.7129 122.439 64.7129 122.485 64.7114 122.531L64.7114 130.427L78.5814 130.427C77.942 129.314 77.1185 128.19 76.0512 127.123L76.0512 127.121Z" fill="#D3E9FF"/>
<path d="M237.386 127.121C232.801 122.536 227.137 122.398 226.048 122.393C226.048 122.439 226.048 122.485 226.046 122.531L226.046 130.427L239.917 130.427C239.277 129.314 238.454 128.19 237.386 127.123L237.386 127.121Z" fill="#D3E9FF"/>
<path d="M156.428 127.121C151.843 122.536 146.178 122.398 145.089 122.393C145.089 122.439 145.09 122.485 145.088 122.531L145.088 130.427L158.958 130.427C158.319 129.314 157.495 128.19 156.428 127.123L156.428 127.121Z" fill="#D3E9FF"/>
<path d="M317.763 127.121C313.178 122.536 307.513 122.398 306.425 122.393C306.425 122.439 306.425 122.485 306.423 122.531L306.423 130.427L320.293 130.427C319.654 129.314 318.83 128.19 317.763 127.123L317.763 127.121Z" fill="#D3E9FF"/>
<path d="M398.914 127.121C394.329 122.536 388.664 122.398 387.575 122.393C387.575 122.439 387.575 122.485 387.574 122.531L387.574 130.427L401.444 130.427C400.804 129.314 399.981 128.19 398.914 127.123L398.914 127.121Z" fill="#D3E9FF"/>
<path d="M20.9597 127.121C25.5447 122.536 31.2093 122.398 32.298 122.393C32.298 122.439 32.298 122.485 32.2996 122.531L32.2996 130.427L18.4295 130.427C19.069 129.314 19.8924 128.19 20.9597 127.123L20.9597 127.121Z" fill="#D3E9FF"/>
<path d="M182.295 127.121C186.88 122.536 192.544 122.398 193.633 122.393C193.633 122.439 193.633 122.485 193.635 122.531L193.635 130.427L179.764 130.427C180.404 129.314 181.227 128.19 182.295 127.123L182.295 127.121Z" fill="#D3E9FF"/>
<path d="M101.335 127.121C105.92 122.536 111.585 122.398 112.673 122.393C112.673 122.439 112.673 122.485 112.675 122.531L112.675 130.427L98.8049 130.427C99.4443 129.314 100.268 128.19 101.335 127.123L101.335 127.121Z" fill="#D3E9FF"/>
<path d="M262.671 127.121C267.256 122.536 272.921 122.398 274.01 122.393C274.01 122.439 274.01 122.485 274.011 122.531L274.011 130.427L260.141 130.427C260.781 129.314 261.604 128.19 262.671 127.123L262.671 127.121Z" fill="#D3E9FF"/>
<path d="M343.822 127.121C348.407 122.536 354.072 122.398 355.16 122.393C355.16 122.439 355.16 122.485 355.162 122.531L355.162 130.427L341.292 130.427C341.931 129.314 342.755 128.19 343.822 127.123L343.822 127.121Z" fill="#D3E9FF"/>
<path d="M16.1764 130.822L0 130.822L-1.40466e-06 146.889L16.1764 146.889L16.1764 130.822Z" fill="#99C3EC"/>
<path d="M338.846 130.822L322.67 130.822L322.67 146.889L338.846 146.889L338.846 130.822Z" fill="#99C3EC"/>
<path d="M419.998 130.822L403.821 130.822L403.821 146.889L419.998 146.889L419.998 130.822Z" fill="#99C3EC"/>
<path d="M177.512 130.822L161.336 130.822L161.336 146.889L177.512 146.889L177.512 130.822Z" fill="#99C3EC"/>
<path d="M16.1781 123.556L16.1781 130.396L8.26856 130.396C8.90801 129.282 9.73147 128.158 10.7988 127.091C12.5392 125.35 14.4361 124.251 16.1781 123.556Z" fill="#D3E9FF"/>
<path d="M338.849 123.556L338.849 130.396L330.94 130.396C331.579 129.282 332.403 128.158 333.47 127.091C335.21 125.35 337.107 124.251 338.849 123.556Z" fill="#D3E9FF"/>
<path d="M420 123.556L420 130.396L412.09 130.396C412.73 129.282 413.553 128.158 414.621 127.091C416.361 125.35 418.258 124.251 420 123.556Z" fill="#D3E9FF"/>
<path d="M177.513 123.556L177.513 130.396L169.604 130.396C170.243 129.282 171.066 128.158 172.134 127.091C173.874 125.35 175.771 124.251 177.513 123.556Z" fill="#D3E9FF"/>
<path d="M34.8607 130.426L62.6913 130.426C59.9035 125.612 54.6913 122.346 48.7768 122.346C42.8623 122.346 37.6501 125.612 34.8623 130.426L34.8607 130.426Z" fill="#CDE6FF"/>
<path d="M196.197 130.426L224.027 130.426C221.24 125.612 216.027 122.346 210.113 122.346C204.198 122.346 198.986 125.612 196.198 130.426L196.197 130.426Z" fill="#CDE6FF"/>
<path d="M115.237 130.426L143.068 130.426C140.28 125.612 135.068 122.346 129.153 122.346C123.239 122.346 118.027 125.612 115.239 130.426L115.237 130.426Z" fill="#CDE6FF"/>
<path d="M276.573 130.426L304.403 130.426C301.616 125.612 296.403 122.346 290.489 122.346C284.574 122.346 279.362 125.612 276.574 130.426L276.573 130.426Z" fill="#CDE6FF"/>
<path d="M357.724 130.426L385.555 130.426C382.767 125.612 377.555 122.346 371.64 122.346C365.726 122.346 360.514 125.612 357.726 130.426L357.724 130.426Z" fill="#CDE6FF"/>
<path d="M38.0863 121.596L59.4672 121.596C56.618 119.041 52.8657 117.48 48.776 117.48C44.6863 117.48 40.9339 119.043 38.0848 121.596L38.0863 121.596Z" fill="#D5EAFE"/>
<path d="M199.421 121.596L220.802 121.596C217.953 119.041 214.201 117.48 210.111 117.48C206.021 117.48 202.269 119.043 199.42 121.596L199.421 121.596Z" fill="#D5EAFE"/>
<path d="M118.462 121.596L139.843 121.596C136.993 119.041 133.241 117.48 129.151 117.48C125.062 117.48 121.309 119.043 118.46 121.596L118.462 121.596Z" fill="#D5EAFE"/>
<path d="M279.798 121.596L301.179 121.596C298.33 119.041 294.577 117.48 290.488 117.48C286.398 117.48 282.646 119.043 279.796 121.596L279.798 121.596Z" fill="#D5EAFE"/>
<path d="M360.949 121.596L382.33 121.596C379.48 119.041 375.728 117.48 371.638 117.48C367.549 117.48 363.796 119.043 360.947 121.596L360.949 121.596Z" fill="#D5EAFE"/>
<path d="M48.7867 114.423C45.9007 114.423 43.1834 115.202 40.8327 116.557L56.7422 116.557C54.3914 115.202 51.6741 114.423 48.7882 114.423L48.7867 114.423Z" fill="#D5EAFE"/>
<path d="M210.122 114.423C207.236 114.423 204.519 115.202 202.168 116.557L218.078 116.557C215.727 115.202 213.01 114.423 210.124 114.423L210.122 114.423Z" fill="#D5EAFE"/>
<path d="M129.163 114.423C126.277 114.423 123.56 115.202 121.209 116.557L137.119 116.557C134.768 115.202 132.051 114.423 129.165 114.423L129.163 114.423Z" fill="#D5EAFE"/>
<path d="M290.499 114.423C287.613 114.423 284.896 115.202 282.545 116.557L298.454 116.557C296.104 115.202 293.386 114.423 290.5 114.423L290.499 114.423Z" fill="#D5EAFE"/>
<path d="M371.65 114.423C368.764 114.423 366.046 115.202 363.696 116.557L379.605 116.557C377.254 115.202 374.537 114.423 371.651 114.423L371.65 114.423Z" fill="#D5EAFE"/>
</g>
</g>
<defs>
<clipPath id="clip0_597_6549">
<path d="M0 30C0 13.4315 13.4315 0 30 0H390C406.569 0 420 13.4315 420 30V131H0V30Z" fill="white"/>
</clipPath>
</defs>
</svg>
