<svg viewBox="0 0 420 131" fill="none" xmlns="http://www.w3.org/2000/svg">
<g clip-path="url(#clip0_1045_12305)">
<rect width="420" height="131" fill="white"/>
<rect x="-0.170573" y="-0.170573" width="120.595" height="22.1745" fill="#34C4C6"/>
<rect x="-0.170573" y="-0.170573" width="120.595" height="22.1745" stroke="#45F3F7" stroke-width="0.341146"/>
<path d="M12.2158 14.4167H10.8309L9.39375 11.917H8.42694V14.4167H7.24238L7.23367 8.31975H9.58537C10.7786 8.31975 11.5538 9.02526 11.5538 10.1227C11.5538 10.8108 11.1967 11.3944 10.5957 11.6905L12.2158 14.4167ZM8.42694 9.33882V10.8979H9.40246C10.0122 10.8979 10.3606 10.6105 10.3606 10.1227C10.3606 9.63496 10.0122 9.33882 9.40246 9.33882H8.42694ZM16.7116 12.0738C16.7116 12.2305 16.7029 12.4222 16.6942 12.5093H13.4366C13.5324 13.1712 13.9592 13.5632 14.5863 13.5632C15.1002 13.5632 15.4661 13.3193 15.5793 12.8925L16.6071 13.1712C16.3632 13.9987 15.5967 14.4864 14.5689 14.4864C13.1144 14.4864 12.3392 13.3628 12.3392 12.2218C12.3392 11.0808 13.0534 9.95723 14.508 9.95723C15.9887 9.95723 16.7116 11.0547 16.7116 12.0738ZM13.4628 11.7079H15.5357C15.4835 11.1853 15.1438 10.7934 14.508 10.7934C13.9679 10.7934 13.5847 11.1157 13.4628 11.7079ZM21.7487 16.002H20.6512V13.9812C20.3986 14.2948 19.9283 14.4864 19.4231 14.4864C18.134 14.4864 17.3066 13.5632 17.3066 12.2218C17.3066 10.8805 18.0818 9.95723 19.3447 9.95723C19.937 9.95723 20.4073 10.1924 20.6512 10.5321V10.0269H21.7487V16.002ZM19.5538 13.537C20.2593 13.537 20.7209 13.0144 20.7209 12.2218C20.7209 11.4292 20.2593 10.9066 19.5538 10.9066C18.857 10.9066 18.3953 11.4292 18.3953 12.2218C18.3953 13.0144 18.857 13.537 19.5538 13.537ZM26.9091 10.0269V14.4167H25.8116V13.7548C25.5329 14.1816 25.0364 14.4864 24.418 14.4864C23.4686 14.4864 22.8154 13.8593 22.8154 12.9012V10.0269H23.9128V12.6399C23.9128 13.1538 24.2351 13.5109 24.749 13.5109C25.4284 13.5109 25.8116 12.936 25.8116 11.9518V10.0269H26.9091ZM32.1157 12.0738C32.1157 12.2305 32.107 12.4222 32.0983 12.5093H28.8407C28.9365 13.1712 29.3633 13.5632 29.9905 13.5632C30.5043 13.5632 30.8702 13.3193 30.9834 12.8925L32.0112 13.1712C31.7673 13.9987 31.0008 14.4864 29.973 14.4864C28.5185 14.4864 27.7433 13.3628 27.7433 12.2218C27.7433 11.0808 28.4575 9.95723 29.9121 9.95723C31.3928 9.95723 32.1157 11.0547 32.1157 12.0738ZM28.8669 11.7079H30.9398C30.8876 11.1853 30.5479 10.7934 29.9121 10.7934C29.372 10.7934 28.9888 11.1157 28.8669 11.7079ZM34.4363 14.4864C33.3737 14.4864 32.7378 13.8332 32.5201 13.1886L33.4172 12.8228C33.5479 13.267 33.8876 13.6328 34.4363 13.6328C34.8457 13.6328 35.1157 13.4151 35.1157 13.1364C35.1157 12.3089 32.7204 12.8489 32.7204 11.1853C32.7204 10.4972 33.3214 9.95723 34.2795 9.95723C35.1331 9.95723 35.856 10.3927 36.0476 11.0286L35.1592 11.4031C35.0373 10.985 34.654 10.7673 34.2969 10.7673C33.9485 10.7673 33.7134 10.9153 33.7134 11.1679C33.7134 11.9431 36.126 11.3247 36.126 13.119C36.126 13.8767 35.4467 14.4864 34.4363 14.4864ZM39.4629 14.3732C39.2451 14.4516 39.0099 14.4864 38.7573 14.4864C37.8689 14.4864 37.207 14.0074 37.207 12.9796V10.9502H36.4666V10.0269H37.207V8.73783H38.3044V10.0269H39.4106V10.9502H38.3044V12.8751C38.3044 13.2932 38.5309 13.5196 38.8706 13.5196C39.0361 13.5196 39.2277 13.4935 39.3845 13.4151L39.4629 14.3732ZM42.3544 14.4167V8.31975H43.5389V14.4167H42.3544ZM44.685 14.4167V8.31975H46.6796C48.3606 8.31975 49.8065 9.3214 49.8065 11.3682C49.8065 13.4151 48.3606 14.4167 46.6796 14.4167H44.685ZM45.8521 13.389H46.575C47.6202 13.389 48.6045 12.8577 48.6045 11.3682C48.6045 9.87884 47.6202 9.33882 46.575 9.33882H45.8521V13.389Z" fill="white"/>
<rect x="120.083" y="-0.170573" width="120.595" height="22.1745" fill="#34C4C6"/>
<rect x="120.083" y="-0.170573" width="120.595" height="22.1745" stroke="#45F3F7" stroke-width="0.341146"/>
<path d="M129.491 14.4864C128.289 14.4864 127.287 13.6764 127.139 12.5702L128.193 12.248C128.289 12.9796 128.855 13.4761 129.534 13.4761C130.17 13.4761 130.588 13.1712 130.588 12.7096C130.588 11.3944 127.357 12.1347 127.357 9.92239C127.357 8.94687 128.271 8.25007 129.473 8.25007C130.632 8.25007 131.546 8.86848 131.738 9.79174L130.675 10.2272C130.553 9.63496 130.109 9.26043 129.473 9.26043C128.89 9.26043 128.533 9.51302 128.533 9.92239C128.533 11.0286 131.79 10.2098 131.79 12.6835C131.79 13.7635 130.867 14.4864 129.491 14.4864ZM135.169 14.3732C134.951 14.4516 134.716 14.4864 134.463 14.4864C133.575 14.4864 132.913 14.0074 132.913 12.9796V10.9502H132.172V10.0269H132.913V8.73783H134.01V10.0269H135.116V10.9502H134.01V12.8751C134.01 13.2932 134.237 13.5196 134.576 13.5196C134.742 13.5196 134.934 13.4935 135.09 13.4151L135.169 14.3732ZM137.554 9.95723C138.704 9.95723 139.488 10.5756 139.488 11.7428V14.4167H138.425V13.7809C138.182 14.2077 137.65 14.4864 137.11 14.4864C136.248 14.4864 135.647 13.929 135.647 13.1799C135.647 12.3176 136.3 11.856 137.607 11.7166L138.425 11.6383V11.5947C138.425 11.0982 138.086 10.7934 137.554 10.7934C137.075 10.7934 136.736 11.0895 136.683 11.5599L135.708 11.3857C135.847 10.5147 136.622 9.95723 137.554 9.95723ZM137.354 13.6764C138.033 13.6764 138.425 13.1625 138.425 12.518V12.4222L137.589 12.518C137.006 12.5876 136.71 12.8315 136.71 13.1451C136.71 13.4499 136.953 13.6764 137.354 13.6764ZM143.088 14.3732C142.87 14.4516 142.635 14.4864 142.382 14.4864C141.494 14.4864 140.832 14.0074 140.832 12.9796V10.9502H140.091V10.0269H140.832V8.73783H141.929V10.0269H143.035V10.9502H141.929V12.8751C141.929 13.2932 142.156 13.5196 142.495 13.5196C142.661 13.5196 142.853 13.4935 143.009 13.4151L143.088 14.3732ZM147.894 10.0269V14.4167H146.797V13.7548C146.518 14.1816 146.022 14.4864 145.403 14.4864C144.454 14.4864 143.801 13.8593 143.801 12.9012V10.0269H144.898V12.6399C144.898 13.1538 145.22 13.5109 145.734 13.5109C146.414 13.5109 146.797 12.936 146.797 11.9518V10.0269H147.894ZM150.497 14.4864C149.434 14.4864 148.798 13.8332 148.58 13.1886L149.478 12.8228C149.608 13.267 149.948 13.6328 150.497 13.6328C150.906 13.6328 151.176 13.4151 151.176 13.1364C151.176 12.3089 148.781 12.8489 148.781 11.1853C148.781 10.4972 149.382 9.95723 150.34 9.95723C151.193 9.95723 151.916 10.3927 152.108 11.0286L151.22 11.4031C151.098 10.985 150.714 10.7673 150.357 10.7673C150.009 10.7673 149.774 10.9153 149.774 11.1679C149.774 11.9431 152.186 11.3247 152.186 13.119C152.186 13.8767 151.507 14.4864 150.497 14.4864Z" fill="white"/>
<rect x="240.337" y="-0.170573" width="120.595" height="22.1745" fill="#34C4C6"/>
<rect x="240.337" y="-0.170573" width="120.595" height="22.1745" stroke="#45F3F7" stroke-width="0.341146"/>
<path d="M249.144 14.4167V9.33882H247.306V8.31975H252.166V9.33882H250.328V14.4167H249.144ZM253.427 9.35624C253.035 9.35624 252.747 9.0601 252.747 8.67686C252.747 8.30233 253.035 8.00619 253.427 8.00619C253.827 8.00619 254.124 8.30233 254.124 8.67686C254.124 9.0601 253.827 9.35624 253.427 9.35624ZM252.878 14.4167V10.0269H253.975V14.4167H252.878ZM255.038 14.4167V10.0269H256.136V10.6976C256.38 10.2621 256.789 9.95723 257.399 9.95723C258.096 9.95723 258.566 10.2534 258.766 10.7847C259.002 10.3405 259.524 9.95723 260.221 9.95723C261.17 9.95723 261.789 10.5756 261.789 11.4379V14.4167H260.691V11.7428C260.691 11.2202 260.404 10.8892 259.89 10.8892C259.298 10.8892 258.958 11.4031 258.958 12.1783V14.4167H257.861V11.7428C257.861 11.2202 257.582 10.8892 257.077 10.8892C256.476 10.8892 256.136 11.4118 256.136 12.187V14.4167H255.038ZM266.993 12.0738C266.993 12.2305 266.984 12.4222 266.975 12.5093H263.718C263.813 13.1712 264.24 13.5632 264.867 13.5632C265.381 13.5632 265.747 13.3193 265.86 12.8925L266.888 13.1712C266.644 13.9987 265.878 14.4864 264.85 14.4864C263.395 14.4864 262.62 13.3628 262.62 12.2218C262.62 11.0808 263.334 9.95723 264.789 9.95723C266.27 9.95723 266.993 11.0547 266.993 12.0738ZM263.744 11.7079H265.817C265.765 11.1853 265.425 10.7934 264.789 10.7934C264.249 10.7934 263.866 11.1157 263.744 11.7079ZM269.313 14.4864C268.251 14.4864 267.615 13.8332 267.397 13.1886L268.294 12.8228C268.425 13.267 268.765 13.6328 269.313 13.6328C269.723 13.6328 269.993 13.4151 269.993 13.1364C269.993 12.3089 267.597 12.8489 267.597 11.1853C267.597 10.4972 268.198 9.95723 269.156 9.95723C270.01 9.95723 270.733 10.3927 270.925 11.0286L270.036 11.4031C269.914 10.985 269.531 10.7673 269.174 10.7673C268.825 10.7673 268.59 10.9153 268.59 11.1679C268.59 11.9431 271.003 11.3247 271.003 13.119C271.003 13.8767 270.324 14.4864 269.313 14.4864ZM274.34 14.3732C274.122 14.4516 273.887 14.4864 273.634 14.4864C272.746 14.4864 272.084 14.0074 272.084 12.9796V10.9502H271.344V10.0269H272.084V8.73783H273.181V10.0269H274.288V10.9502H273.181V12.8751C273.181 13.2932 273.408 13.5196 273.748 13.5196C273.913 13.5196 274.105 13.4935 274.261 13.4151L274.34 14.3732ZM276.726 9.95723C277.875 9.95723 278.659 10.5756 278.659 11.7428V14.4167H277.597V13.7809C277.353 14.2077 276.821 14.4864 276.281 14.4864C275.419 14.4864 274.818 13.929 274.818 13.1799C274.818 12.3176 275.471 11.856 276.778 11.7166L277.597 11.6383V11.5947C277.597 11.0982 277.257 10.7934 276.726 10.7934C276.246 10.7934 275.907 11.0895 275.855 11.5599L274.879 11.3857C275.018 10.5147 275.794 9.95723 276.726 9.95723ZM276.525 13.6764C277.205 13.6764 277.597 13.1625 277.597 12.518V12.4222L276.76 12.518C276.177 12.5876 275.881 12.8315 275.881 13.1451C275.881 13.4499 276.125 13.6764 276.525 13.6764ZM279.731 14.4167V10.0269H280.828V10.6976C281.072 10.2621 281.482 9.95723 282.091 9.95723C282.788 9.95723 283.259 10.2534 283.459 10.7847C283.694 10.3405 284.217 9.95723 284.913 9.95723C285.863 9.95723 286.481 10.5756 286.481 11.4379V14.4167H285.384V11.7428C285.384 11.2202 285.096 10.8892 284.582 10.8892C283.99 10.8892 283.651 11.4031 283.651 12.1783V14.4167H282.553V11.7428C282.553 11.2202 282.274 10.8892 281.769 10.8892C281.168 10.8892 280.828 11.4118 280.828 12.187V14.4167H279.731ZM287.548 16.002V10.0269H288.645V10.5321C288.889 10.1924 289.368 9.95723 289.952 9.95723C291.215 9.95723 291.99 10.8805 291.99 12.2218C291.99 13.5632 291.163 14.4864 289.873 14.4864C289.368 14.4864 288.898 14.2948 288.645 13.9812V16.002H287.548ZM289.743 13.537C290.44 13.537 290.901 13.0144 290.901 12.2218C290.901 11.4292 290.44 10.9066 289.743 10.9066C289.037 10.9066 288.576 11.4292 288.576 12.2218C288.576 13.0144 289.037 13.537 289.743 13.537Z" fill="white"/>
<rect x="360.591" y="-0.170573" width="120.595" height="22.1745" fill="#34C4C6"/>
<rect x="360.591" y="-0.170573" width="120.595" height="22.1745" stroke="#45F3F7" stroke-width="0.341146"/>
<path d="M372.978 14.4167H371.593L370.155 11.917H369.189V14.4167H368.004L367.995 8.31975H370.347C371.54 8.31975 372.316 9.02526 372.316 10.1227C372.316 10.8108 371.958 11.3944 371.357 11.6905L372.978 14.4167ZM369.189 9.33882V10.8979H370.164C370.774 10.8979 371.122 10.6105 371.122 10.1227C371.122 9.63496 370.774 9.33882 370.164 9.33882H369.189ZM377.473 12.0738C377.473 12.2305 377.465 12.4222 377.456 12.5093H374.198C374.294 13.1712 374.721 13.5632 375.348 13.5632C375.862 13.5632 376.228 13.3193 376.341 12.8925L377.369 13.1712C377.125 13.9987 376.358 14.4864 375.331 14.4864C373.876 14.4864 373.101 13.3628 373.101 12.2218C373.101 11.0808 373.815 9.95723 375.27 9.95723C376.75 9.95723 377.473 11.0547 377.473 12.0738ZM374.224 11.7079H376.297C376.245 11.1853 375.906 10.7934 375.27 10.7934C374.73 10.7934 374.346 11.1157 374.224 11.7079ZM379.976 9.95723C381.126 9.95723 381.91 10.5756 381.91 11.7428V14.4167H380.847V13.7809C380.603 14.2077 380.072 14.4864 379.532 14.4864C378.67 14.4864 378.069 13.929 378.069 13.1799C378.069 12.3176 378.722 11.856 380.028 11.7166L380.847 11.6383V11.5947C380.847 11.0982 380.508 10.7934 379.976 10.7934C379.497 10.7934 379.157 11.0895 379.105 11.5599L378.13 11.3857C378.269 10.5147 379.044 9.95723 379.976 9.95723ZM379.776 13.6764C380.455 13.6764 380.847 13.1625 380.847 12.518V12.4222L380.011 12.518C379.427 12.5876 379.131 12.8315 379.131 13.1451C379.131 13.4499 379.375 13.6764 379.776 13.6764ZM384.515 14.4864C383.452 14.4864 382.816 13.8332 382.598 13.1886L383.496 12.8228C383.626 13.267 383.966 13.6328 384.515 13.6328C384.924 13.6328 385.194 13.4151 385.194 13.1364C385.194 12.3089 382.799 12.8489 382.799 11.1853C382.799 10.4972 383.4 9.95723 384.358 9.95723C385.211 9.95723 385.934 10.3927 386.126 11.0286L385.238 11.4031C385.116 10.985 384.732 10.7673 384.375 10.7673C384.027 10.7673 383.792 10.9153 383.792 11.1679C383.792 11.9431 386.204 11.3247 386.204 13.119C386.204 13.8767 385.525 14.4864 384.515 14.4864ZM389.035 14.4864C387.702 14.4864 386.744 13.5283 386.744 12.2218C386.744 10.9153 387.702 9.95723 389.035 9.95723C390.368 9.95723 391.326 10.9153 391.326 12.2218C391.326 13.5283 390.368 14.4864 389.035 14.4864ZM389.035 13.537C389.741 13.537 390.22 13.0057 390.22 12.2218C390.22 11.4379 389.741 10.9066 389.035 10.9066C388.321 10.9066 387.85 11.4379 387.85 12.2218C387.85 13.0057 388.321 13.537 389.035 13.537ZM392.151 14.4167V10.0269H393.248V10.6889C393.527 10.2621 394.024 9.95723 394.642 9.95723C395.6 9.95723 396.245 10.5843 396.245 11.5424V14.4167H395.147V11.8037C395.147 11.2899 394.825 10.9327 394.311 10.9327C393.64 10.9327 393.248 11.5076 393.248 12.4918V14.4167H392.151ZM399.781 14.4167V10.9502H399.076V10.0269H399.781V9.68722C399.781 8.65944 400.443 8.102 401.332 8.102C401.558 8.102 401.785 8.13684 401.994 8.19781L401.915 9.10365C401.767 9.04268 401.619 9.01655 401.48 9.01655C401.114 9.01655 400.879 9.27785 400.879 9.68722V10.0269H401.924V10.9502H400.879V14.4167H399.781ZM404.516 14.4864C403.183 14.4864 402.225 13.5283 402.225 12.2218C402.225 10.9153 403.183 9.95723 404.516 9.95723C405.848 9.95723 406.806 10.9153 406.806 12.2218C406.806 13.5283 405.848 14.4864 404.516 14.4864ZM404.516 13.537C405.221 13.537 405.7 13.0057 405.7 12.2218C405.7 11.4379 405.221 10.9066 404.516 10.9066C403.801 10.9066 403.331 11.4379 403.331 12.2218C403.331 13.0057 403.801 13.537 404.516 13.537ZM410.462 11.0895C410.306 11.0198 410.097 10.985 409.905 10.985C409.287 10.985 408.729 11.4989 408.729 12.8054V14.4167H407.632V10.0269H408.729V10.8282C408.947 10.3318 409.522 9.95723 410.053 9.95723C410.21 9.95723 410.401 9.98336 410.532 10.0269L410.462 11.0895ZM415.118 14.4864C413.803 14.4864 413.027 13.5632 413.027 12.2218C413.027 10.8805 413.803 9.95723 415.1 9.95723C415.649 9.95723 416.119 10.1837 416.372 10.5147V8.25007H417.469V14.4167H416.372V13.9116C416.154 14.26 415.667 14.4864 415.118 14.4864ZM415.275 13.537C415.98 13.537 416.442 13.0144 416.442 12.2218C416.442 11.4292 415.98 10.9066 415.275 10.9066C414.578 10.9066 414.116 11.4292 414.116 12.2218C414.116 13.0144 414.578 13.537 415.275 13.537ZM421.367 11.0895C421.21 11.0198 421.001 10.985 420.809 10.985C420.191 10.985 419.634 11.4989 419.634 12.8054V14.4167H418.536V10.0269H419.634V10.8282C419.851 10.3318 420.426 9.95723 420.958 9.95723C421.114 9.95723 421.306 9.98336 421.437 10.0269L421.367 11.0895ZM423.977 14.4864C422.644 14.4864 421.686 13.5283 421.686 12.2218C421.686 10.9153 422.644 9.95723 423.977 9.95723C425.31 9.95723 426.268 10.9153 426.268 12.2218C426.268 13.5283 425.31 14.4864 423.977 14.4864ZM423.977 13.537C424.683 13.537 425.162 13.0057 425.162 12.2218C425.162 11.4379 424.683 10.9066 423.977 10.9066C423.263 10.9066 422.793 11.4379 422.793 12.2218C422.793 13.0057 423.263 13.537 423.977 13.537ZM427.093 16.002V10.0269H428.191V10.5321C428.434 10.1924 428.913 9.95723 429.497 9.95723C430.76 9.95723 431.535 10.8805 431.535 12.2218C431.535 13.5632 430.708 14.4864 429.419 14.4864C428.913 14.4864 428.443 14.2948 428.191 13.9812V16.002H427.093ZM429.288 13.537C429.985 13.537 430.446 13.0144 430.446 12.2218C430.446 11.4292 429.985 10.9066 429.288 10.9066C428.582 10.9066 428.121 11.4292 428.121 12.2218C428.121 13.0144 428.582 13.537 429.288 13.537ZM436.515 14.4864C435.182 14.4864 434.224 13.5283 434.224 12.2218C434.224 10.9153 435.182 9.95723 436.515 9.95723C437.847 9.95723 438.805 10.9153 438.805 12.2218C438.805 13.5283 437.847 14.4864 436.515 14.4864ZM436.515 13.537C437.22 13.537 437.699 13.0057 437.699 12.2218C437.699 11.4379 437.22 10.9066 436.515 10.9066C435.8 10.9066 435.33 11.4379 435.33 12.2218C435.33 13.0057 435.8 13.537 436.515 13.537ZM439.912 14.4167V10.9502H439.206V10.0269H439.912V9.68722C439.912 8.65944 440.574 8.102 441.462 8.102C441.689 8.102 441.915 8.13684 442.124 8.19781L442.046 9.10365C441.898 9.04268 441.75 9.01655 441.61 9.01655C441.245 9.01655 441.009 9.27785 441.009 9.68722V10.0269H442.055V10.9502H441.009V14.4167H439.912ZM443.229 14.4167V10.9502H442.524V10.0269H443.229V9.68722C443.229 8.65944 443.891 8.102 444.78 8.102C445.006 8.102 445.232 8.13684 445.442 8.19781L445.363 9.10365C445.215 9.04268 445.067 9.01655 444.928 9.01655C444.562 9.01655 444.327 9.27785 444.327 9.68722V10.0269H445.372V10.9502H444.327V14.4167H443.229Z" fill="white"/>
<rect x="-0.170573" y="21.6629" width="120.595" height="22.1745" fill="white"/>
<rect x="-0.170573" y="21.6629" width="120.595" height="22.1745" stroke="#50F4F7" stroke-width="0.341146"/>
<path d="M7.91588 34.7502V30.8482C7.59626 31.1412 7.25 31.2877 6.81052 31.3676V30.8282C7.27664 30.7283 7.68283 30.4886 8.00911 30.0891H8.48854V34.7502H7.91588ZM9.17226 34.7502L9.16561 34.2242L10.9169 32.7127C11.4629 32.2399 11.6959 31.8537 11.6959 31.4342C11.6959 30.9148 11.3497 30.5752 10.8037 30.5752C10.1511 30.5752 9.78487 31.0346 9.85146 31.7271L9.26549 31.6872C9.19224 30.7084 9.83149 30.0358 10.8037 30.0358C11.7226 30.0358 12.3219 30.5885 12.3219 31.4342C12.3219 32.0002 12.0089 32.5195 11.2898 33.1255L10.0246 34.2042H12.3219V34.7502H9.17226ZM14.4387 34.8035C13.5198 34.8035 12.8606 34.2708 12.774 33.4584L13.3467 33.3719C13.4132 33.9112 13.8461 34.2575 14.4387 34.2575C15.0846 34.2575 15.5041 33.8713 15.5041 33.2853C15.5041 32.6794 15.1179 32.3264 14.472 32.3264C14.2989 32.3264 14.1058 32.3797 13.9593 32.4729L13.6996 32.0867L15.1712 30.6284H12.9072V30.0891H15.8837V30.6151L14.5586 31.9069C15.4775 31.8204 16.13 32.3797 16.13 33.2986C16.13 34.1976 15.4642 34.8035 14.4387 34.8035ZM19.0086 34.7502V33.6116H16.5515V33.0656L18.9153 30.0891H19.6145V33.0656H20.287V33.6116H19.6145V34.7502H19.0086ZM17.204 33.0656H19.0086V30.7816L17.204 33.0656ZM22.3542 34.8035C21.4553 34.8035 20.7961 34.2974 20.6762 33.5184L21.2422 33.4185C21.3288 33.9312 21.7549 34.2575 22.3409 34.2575C22.9602 34.2575 23.3597 33.838 23.3597 33.2054C23.3597 32.5595 22.9469 32.16 22.2743 32.16C21.8282 32.16 21.4753 32.3664 21.2422 32.7193L20.8027 32.6261L21.169 30.0891H23.6527V30.6284H21.6151L21.4153 32.0268C21.6551 31.8004 22.0346 31.6406 22.3742 31.6406C23.3397 31.6406 23.9856 32.2665 23.9856 33.2054C23.9856 34.1709 23.3464 34.8035 22.3542 34.8035ZM26.3113 31.6273C27.2702 31.6273 27.9561 32.2931 27.9561 33.2121C27.9561 34.1443 27.2502 34.8035 26.2647 34.8035C25.2259 34.8035 24.5334 33.9645 24.5334 32.6727C24.5334 30.9614 25.439 30.0358 26.6909 30.0358C27.157 30.0358 27.6098 30.1823 27.9627 30.462L27.6564 30.9348C27.3767 30.695 27.0371 30.5752 26.6842 30.5752C25.7853 30.5752 25.1194 31.3143 25.0994 32.3264C25.3125 31.9003 25.7919 31.6273 26.3113 31.6273ZM26.2714 34.2575C26.8973 34.2575 27.3368 33.8114 27.3434 33.1921C27.3434 32.5795 26.8973 32.14 26.2714 32.14C25.6455 32.14 25.1993 32.5795 25.1993 33.1921C25.1993 33.8114 25.6455 34.2575 26.2714 34.2575ZM28.843 34.7502C28.9961 33.4118 29.8818 31.9136 30.9139 30.6284H28.297V30.0891H31.5398V30.6284C30.481 31.9935 29.5754 33.4851 29.4622 34.7502H28.843ZM33.3963 34.8035C32.4042 34.8035 31.725 34.2575 31.725 33.4118C31.725 32.8658 32.0712 32.4063 32.604 32.2399C32.1911 32.0534 31.9181 31.6739 31.9181 31.261C31.9181 30.5352 32.4974 30.0358 33.3963 30.0358C34.2687 30.0358 34.848 30.5352 34.848 31.261C34.848 31.6739 34.575 32.0601 34.1621 32.2399C34.6948 32.4063 35.0411 32.8658 35.0411 33.4118C35.0411 34.2575 34.3619 34.8035 33.3963 34.8035ZM33.3963 32.0135C33.9091 32.0135 34.2487 31.7271 34.2553 31.281C34.262 30.8349 33.9157 30.5485 33.3963 30.5485C32.8503 30.5485 32.5041 30.8349 32.5107 31.281C32.5174 31.7271 32.8636 32.0135 33.3963 32.0135ZM33.3897 34.2775C34.0223 34.2775 34.4285 33.9312 34.4285 33.4052C34.4285 32.8791 34.0223 32.5329 33.3897 32.5329C32.7504 32.5329 32.3376 32.8791 32.3376 33.4052C32.3376 33.9312 32.7504 34.2775 33.3897 34.2775ZM37.0832 33.2121C36.1244 33.2121 35.4385 32.5462 35.4385 31.6273C35.4385 30.695 36.1443 30.0358 37.1299 30.0358C38.1686 30.0358 38.8611 30.8748 38.8611 32.1666C38.8611 33.8779 37.9555 34.8035 36.7037 34.8035C36.2376 34.8035 35.7848 34.657 35.4319 34.3774L35.7382 33.9046C36.0178 34.1443 36.3574 34.2575 36.7103 34.2575C37.6093 34.2575 38.2752 33.525 38.2951 32.5129C38.0821 32.9391 37.6026 33.2121 37.0832 33.2121ZM37.1232 30.5752C36.4973 30.5752 36.0578 31.028 36.0511 31.6472C36.0511 32.2599 36.4973 32.6993 37.1232 32.6993C37.7491 32.6993 38.1953 32.2599 38.1953 31.6472C38.1953 31.028 37.7491 30.5752 37.1232 30.5752ZM41.1897 34.8035C40.0178 34.8035 39.4052 33.8513 39.4052 32.4197C39.4052 30.988 40.0178 30.0358 41.1897 30.0358C42.3484 30.0358 42.9743 30.988 42.9743 32.4197C42.9743 33.8513 42.3484 34.8035 41.1897 34.8035ZM41.1897 34.2575C41.9422 34.2575 42.3484 33.5383 42.3484 32.4197C42.3484 31.301 41.9422 30.5752 41.1897 30.5752C40.424 30.5752 40.0245 31.301 40.0245 32.4197C40.0245 33.5383 40.424 34.2575 41.1897 34.2575ZM45.2995 34.8035C44.1275 34.8035 43.5149 33.8513 43.5149 32.4197C43.5149 30.988 44.1275 30.0358 45.2995 30.0358C46.4581 30.0358 47.084 30.988 47.084 32.4197C47.084 33.8513 46.4581 34.8035 45.2995 34.8035ZM45.2995 34.2575C46.0519 34.2575 46.4581 33.5383 46.4581 32.4197C46.4581 31.301 46.0519 30.5752 45.2995 30.5752C44.5337 30.5752 44.1342 31.301 44.1342 32.4197C44.1342 33.5383 44.5337 34.2575 45.2995 34.2575ZM48.597 34.7502V30.8482C48.2774 31.1412 47.9311 31.2877 47.4916 31.3676V30.8282C47.9577 30.7283 48.3639 30.4886 48.6902 30.0891H49.1696V34.7502H48.597Z" fill="#56CFD2"/>
<rect x="120.083" y="21.6629" width="120.595" height="22.1745" fill="white"/>
<rect x="120.083" y="21.6629" width="120.595" height="22.1745" stroke="#50F4F7" stroke-width="0.341146"/>
<rect x="126.913" y="27.7502" width="25.2448" height="10" rx="1.6736" fill="#D0E6FF"/>
<rect x="240.337" y="21.6629" width="120.595" height="22.1745" fill="white"/>
<rect x="240.337" y="21.6629" width="120.595" height="22.1745" stroke="#50F4F7" stroke-width="0.341146"/>
<rect x="247.225" y="28.5508" width="84.6042" height="7" rx="1.06879" fill="#DBE6F0"/>
<rect x="360.591" y="21.6629" width="120.595" height="22.1745" fill="white"/>
<rect x="360.591" y="21.6629" width="120.595" height="22.1745" stroke="#50F4F7" stroke-width="0.341146"/>
<path d="M367.751 33.0789V32.5795H374.09V33.0789H367.751Z" fill="#56CFD2"/>
<rect x="-0.170573" y="43.4959" width="120.595" height="22.1745" fill="white"/>
<rect x="-0.170573" y="43.4959" width="120.595" height="22.1745" stroke="#50F4F7" stroke-width="0.341146"/>
<path d="M9.72845 56.5833V55.4446H7.27135V54.8986L9.63523 51.9221H10.3344V54.8986H11.0069V55.4446H10.3344V56.5833H9.72845ZM7.92391 54.8986H9.72845V52.6146L7.92391 54.8986ZM12.9184 55.0451C11.9595 55.0451 11.2737 54.3792 11.2737 53.4603C11.2737 52.528 11.9795 51.8688 12.965 51.8688C14.0038 51.8688 14.6963 52.7078 14.6963 53.9996C14.6963 55.7109 13.7907 56.6365 12.5388 56.6365C12.0727 56.6365 11.6199 56.49 11.267 56.2104L11.5733 55.7376C11.853 55.9773 12.1926 56.0905 12.5455 56.0905C13.4444 56.0905 14.1103 55.358 14.1303 54.3459C13.9172 54.7721 13.4378 55.0451 12.9184 55.0451ZM12.9583 52.4082C12.3324 52.4082 11.8929 52.861 11.8863 53.4803C11.8863 54.0929 12.3324 54.5323 12.9583 54.5323C13.5843 54.5323 14.0304 54.0929 14.0304 53.4803C14.0304 52.861 13.5843 52.4082 12.9583 52.4082ZM16.8917 56.6365C15.8995 56.6365 15.2203 56.0905 15.2203 55.2448C15.2203 54.6988 15.5666 54.2394 16.0993 54.0729C15.6865 53.8864 15.4134 53.5069 15.4134 53.094C15.4134 52.3682 15.9928 51.8688 16.8917 51.8688C17.764 51.8688 18.3433 52.3682 18.3433 53.094C18.3433 53.5069 18.0703 53.8931 17.6575 54.0729C18.1902 54.2394 18.5364 54.6988 18.5364 55.2448C18.5364 56.0905 17.8572 56.6365 16.8917 56.6365ZM16.8917 53.8465C17.4044 53.8465 17.744 53.5602 17.7507 53.114C17.7573 52.6679 17.4111 52.3815 16.8917 52.3815C16.3457 52.3815 15.9994 52.6679 16.0061 53.114C16.0127 53.5602 16.359 53.8465 16.8917 53.8465ZM16.885 56.1105C17.5176 56.1105 17.9238 55.7642 17.9238 55.2382C17.9238 54.7121 17.5176 54.3659 16.885 54.3659C16.2458 54.3659 15.833 54.7121 15.833 55.2382C15.833 55.7642 16.2458 56.1105 16.885 56.1105ZM20.8485 56.6365C19.6765 56.6365 19.0639 55.6843 19.0639 54.2527C19.0639 52.821 19.6765 51.8688 20.8485 51.8688C22.0071 51.8688 22.633 52.821 22.633 54.2527C22.633 55.6843 22.0071 56.6365 20.8485 56.6365ZM20.8485 56.0905C21.6009 56.0905 22.0071 55.3714 22.0071 54.2527C22.0071 53.134 21.6009 52.4082 20.8485 52.4082C20.0827 52.4082 19.6832 53.134 19.6832 54.2527C19.6832 55.3714 20.0827 56.0905 20.8485 56.0905ZM24.8184 55.0451C23.8595 55.0451 23.1737 54.3792 23.1737 53.4603C23.1737 52.528 23.8795 51.8688 24.865 51.8688C25.9038 51.8688 26.5963 52.7078 26.5963 53.9996C26.5963 55.7109 25.6907 56.6365 24.4388 56.6365C23.9727 56.6365 23.5199 56.49 23.167 56.2104L23.4733 55.7376C23.753 55.9773 24.0926 56.0905 24.4455 56.0905C25.3444 56.0905 26.0103 55.358 26.0303 54.3459C25.8172 54.7721 25.3378 55.0451 24.8184 55.0451ZM24.8583 52.4082C24.2324 52.4082 23.7929 52.861 23.7863 53.4803C23.7863 54.0929 24.2324 54.5323 24.8583 54.5323C25.4843 54.5323 25.9304 54.0929 25.9304 53.4803C25.9304 52.861 25.4843 52.4082 24.8583 52.4082ZM28.7917 56.6365C27.7995 56.6365 27.1203 56.0905 27.1203 55.2448C27.1203 54.6988 27.4666 54.2394 27.9993 54.0729C27.5865 53.8864 27.3135 53.5069 27.3135 53.094C27.3135 52.3682 27.8928 51.8688 28.7917 51.8688C29.664 51.8688 30.2433 52.3682 30.2433 53.094C30.2433 53.5069 29.9703 53.8931 29.5575 54.0729C30.0902 54.2394 30.4364 54.6988 30.4364 55.2448C30.4364 56.0905 29.7572 56.6365 28.7917 56.6365ZM28.7917 53.8465C29.3044 53.8465 29.644 53.5602 29.6507 53.114C29.6573 52.6679 29.3111 52.3815 28.7917 52.3815C28.2457 52.3815 27.8994 52.6679 27.9061 53.114C27.9127 53.5602 28.259 53.8465 28.7917 53.8465ZM28.785 56.1105C29.4176 56.1105 29.8238 55.7642 29.8238 55.2382C29.8238 54.7121 29.4176 54.3659 28.785 54.3659C28.1458 54.3659 27.733 54.7121 27.733 55.2382C27.733 55.7642 28.1458 56.1105 28.785 56.1105ZM33.2878 56.5833V55.4446H30.8308V54.8986L33.1946 51.9221H33.8938V54.8986H34.5663V55.4446H33.8938V56.5833H33.2878ZM31.4833 54.8986H33.2878V52.6146L31.4833 54.8986ZM34.8508 56.5833L34.8442 56.0572L36.5955 54.5457C37.1415 54.0729 37.3745 53.6867 37.3745 53.2672C37.3745 52.7478 37.0283 52.4082 36.4823 52.4082C35.8297 52.4082 35.4635 52.8676 35.53 53.5602L34.9441 53.5202C34.8708 52.5414 35.5101 51.8688 36.4823 51.8688C37.4012 51.8688 38.0005 52.4215 38.0005 53.2672C38.0005 53.8332 37.6875 54.3526 36.9683 54.9585L35.7032 56.0372H38.0005V56.5833H34.8508ZM40.6294 56.5833V55.4446H38.1723V54.8986L40.5362 51.9221H41.2354V54.8986H41.9079V55.4446H41.2354V56.5833H40.6294ZM38.8249 54.8986H40.6294V52.6146L38.8249 54.8986ZM44.1673 56.6365C42.9953 56.6365 42.3827 55.6843 42.3827 54.2527C42.3827 52.821 42.9953 51.8688 44.1673 51.8688C45.3259 51.8688 45.9518 52.821 45.9518 54.2527C45.9518 55.6843 45.3259 56.6365 44.1673 56.6365ZM44.1673 56.0905C44.9197 56.0905 45.3259 55.3714 45.3259 54.2527C45.3259 53.134 44.9197 52.4082 44.1673 52.4082C43.4015 52.4082 43.002 53.134 43.002 54.2527C43.002 55.3714 43.4015 56.0905 44.1673 56.0905ZM48.1372 55.0451C47.1783 55.0451 46.4925 54.3792 46.4925 53.4603C46.4925 52.528 47.1983 51.8688 48.1838 51.8688C49.2226 51.8688 49.9151 52.7078 49.9151 53.9996C49.9151 55.7109 49.0095 56.6365 47.7576 56.6365C47.2915 56.6365 46.8387 56.49 46.4858 56.2104L46.7921 55.7376C47.0718 55.9773 47.4114 56.0905 47.7643 56.0905C48.6632 56.0905 49.3291 55.358 49.3491 54.3459C49.136 54.7721 48.6566 55.0451 48.1372 55.0451ZM48.1771 52.4082C47.5512 52.4082 47.1117 52.861 47.1051 53.4803C47.1051 54.0929 47.5512 54.5323 48.1771 54.5323C48.8031 54.5323 49.2492 54.0929 49.2492 53.4803C49.2492 52.861 48.8031 52.4082 48.1771 52.4082Z" fill="#56CFD2"/>
<rect x="120.083" y="43.4959" width="120.595" height="22.1745" fill="white"/>
<rect x="120.083" y="43.4959" width="120.595" height="22.1745" stroke="#50F4F7" stroke-width="0.341146"/>
<rect x="126.913" y="49.5833" width="39.5729" height="10" rx="1.6736" fill="#D7ECE1"/>
<rect x="240.337" y="43.4959" width="120.595" height="22.1745" fill="white"/>
<rect x="240.337" y="43.4959" width="120.595" height="22.1745" stroke="#50F4F7" stroke-width="0.341146"/>
<rect x="247.225" y="50.3838" width="92.1094" height="7" rx="1.06879" fill="#DBE6F0"/>
<rect x="360.591" y="43.4959" width="120.595" height="22.1745" fill="white"/>
<rect x="360.591" y="43.4959" width="120.595" height="22.1745" stroke="#50F4F7" stroke-width="0.341146"/>
<path d="M367.751 54.9119V54.4125H374.09V54.9119H367.751Z" fill="#56CFD2"/>
<rect x="-0.170573" y="65.3294" width="120.595" height="22.1745" fill="white"/>
<rect x="-0.170573" y="65.3294" width="120.595" height="22.1745" stroke="#50F4F7" stroke-width="0.341146"/>
<path d="M8.91427 78.47C7.92211 78.47 7.24291 77.924 7.24291 77.0783C7.24291 76.5323 7.58917 76.0729 8.12187 75.9064C7.70903 75.7199 7.43602 75.3404 7.43602 74.9275C7.43602 74.2017 8.01533 73.7023 8.91427 73.7023C9.78657 73.7023 10.3659 74.2017 10.3659 74.9275C10.3659 75.3404 10.0929 75.7266 9.68003 75.9064C10.2127 76.0729 10.559 76.5323 10.559 77.0783C10.559 77.924 9.8798 78.47 8.91427 78.47ZM8.91427 75.68C9.427 75.68 9.7666 75.3937 9.77326 74.9475C9.77991 74.5014 9.43366 74.215 8.91427 74.215C8.36825 74.215 8.02199 74.5014 8.02865 74.9475C8.03531 75.3937 8.38157 75.68 8.91427 75.68ZM8.90761 77.944C9.5402 77.944 9.94638 77.5977 9.94638 77.0717C9.94638 76.5456 9.5402 76.1994 8.90761 76.1994C8.26837 76.1994 7.85552 76.5456 7.85552 77.0717C7.85552 77.5977 8.26837 77.944 8.90761 77.944ZM11.9743 78.4167V74.5147C11.6547 74.8077 11.3084 74.9542 10.8689 75.0341V74.4947C11.3351 74.3948 11.7412 74.1551 12.0675 73.7556H12.547V78.4167H11.9743ZM14.9487 76.8786C13.9898 76.8786 13.3039 76.2127 13.3039 75.2938C13.3039 74.3615 14.0098 73.7023 14.9953 73.7023C16.034 73.7023 16.7265 74.5413 16.7265 75.8331C16.7265 77.5444 15.821 78.47 14.5691 78.47C14.103 78.47 13.6502 78.3235 13.2973 78.0439L13.6036 77.5711C13.8832 77.8108 14.2228 77.924 14.5758 77.924C15.4747 77.924 16.1406 77.1915 16.1606 76.1794C15.9475 76.6056 15.468 76.8786 14.9487 76.8786ZM14.9886 74.2417C14.3627 74.2417 13.9232 74.6945 13.9165 75.3137C13.9165 75.9264 14.3627 76.3658 14.9886 76.3658C15.6145 76.3658 16.0607 75.9264 16.0607 75.3137C16.0607 74.6945 15.6145 74.2417 14.9886 74.2417ZM18.922 78.47C17.9298 78.47 17.2506 77.924 17.2506 77.0783C17.2506 76.5323 17.5969 76.0729 18.1296 75.9064C17.7167 75.7199 17.4437 75.3404 17.4437 74.9275C17.4437 74.2017 18.023 73.7023 18.922 73.7023C19.7943 73.7023 20.3736 74.2017 20.3736 74.9275C20.3736 75.3404 20.1006 75.7266 19.6877 75.9064C20.2204 76.0729 20.5667 76.5323 20.5667 77.0783C20.5667 77.924 19.8875 78.47 18.922 78.47ZM18.922 75.68C19.4347 75.68 19.7743 75.3937 19.781 74.9475C19.7876 74.5014 19.4414 74.215 18.922 74.215C18.376 74.215 18.0297 74.5014 18.0364 74.9475C18.043 75.3937 18.3893 75.68 18.922 75.68ZM18.9153 77.944C19.5479 77.944 19.9541 77.5977 19.9541 77.0717C19.9541 76.5456 19.5479 76.1994 18.9153 76.1994C18.2761 76.1994 17.8632 76.5456 17.8632 77.0717C17.8632 77.5977 18.2761 77.944 18.9153 77.944ZM22.7456 78.47C21.7534 78.47 21.0742 77.924 21.0742 77.0783C21.0742 76.5323 21.4205 76.0729 21.9532 75.9064C21.5403 75.7199 21.2673 75.3404 21.2673 74.9275C21.2673 74.2017 21.8466 73.7023 22.7456 73.7023C23.6179 73.7023 24.1972 74.2017 24.1972 74.9275C24.1972 75.3404 23.9242 75.7266 23.5113 75.9064C24.044 76.0729 24.3903 76.5323 24.3903 77.0783C24.3903 77.924 23.7111 78.47 22.7456 78.47ZM22.7456 75.68C23.2583 75.68 23.5979 75.3937 23.6046 74.9475C23.6112 74.5014 23.265 74.215 22.7456 74.215C22.1996 74.215 21.8533 74.5014 21.86 74.9475C21.8666 75.3937 22.2129 75.68 22.7456 75.68ZM22.7389 77.944C23.3715 77.944 23.7777 77.5977 23.7777 77.0717C23.7777 76.5456 23.3715 76.1994 22.7389 76.1994C22.0997 76.1994 21.6868 76.5456 21.6868 77.0717C21.6868 77.5977 22.0997 77.944 22.7389 77.944ZM26.4325 76.8786C25.4736 76.8786 24.7878 76.2127 24.7878 75.2938C24.7878 74.3615 25.4936 73.7023 26.4791 73.7023C27.5179 73.7023 28.2104 74.5413 28.2104 75.8331C28.2104 77.5444 27.3048 78.47 26.0529 78.47C25.5868 78.47 25.134 78.3235 24.7811 78.0439L25.0874 77.5711C25.3671 77.8108 25.7067 77.924 26.0596 77.924C26.9585 77.924 27.6244 77.1915 27.6444 76.1794C27.4313 76.6056 26.9519 76.8786 26.4325 76.8786ZM26.4724 74.2417C25.8465 74.2417 25.407 74.6945 25.4004 75.3137C25.4004 75.9264 25.8465 76.3658 26.4724 76.3658C27.0984 76.3658 27.5445 75.9264 27.5445 75.3137C27.5445 74.6945 27.0984 74.2417 26.4724 74.2417ZM31.0783 78.4167V77.2781H28.6212V76.7321L30.9851 73.7556H31.6843V76.7321H32.3568V77.2781H31.6843V78.4167H31.0783ZM29.2738 76.7321H31.0783V74.4481L29.2738 76.7321ZM34.483 78.47C33.4909 78.47 32.8117 77.924 32.8117 77.0783C32.8117 76.5323 33.1579 76.0729 33.6906 75.9064C33.2778 75.7199 33.0048 75.3404 33.0048 74.9275C33.0048 74.2017 33.5841 73.7023 34.483 73.7023C35.3553 73.7023 35.9346 74.2017 35.9346 74.9275C35.9346 75.3404 35.6616 75.7266 35.2488 75.9064C35.7815 76.0729 36.1277 76.5323 36.1277 77.0783C36.1277 77.924 35.4485 78.47 34.483 78.47ZM34.483 75.68C34.9957 75.68 35.3353 75.3937 35.342 74.9475C35.3487 74.5014 35.0024 74.215 34.483 74.215C33.937 74.215 33.5907 74.5014 33.5974 74.9475C33.6041 75.3937 33.9503 75.68 34.483 75.68ZM34.4764 77.944C35.1089 77.944 35.5151 77.5977 35.5151 77.0717C35.5151 76.5456 35.1089 76.1994 34.4764 76.1994C33.8371 76.1994 33.4243 76.5456 33.4243 77.0717C33.4243 77.5977 33.8371 77.944 34.4764 77.944ZM38.4398 78.47C37.2678 78.47 36.6552 77.5178 36.6552 76.0862C36.6552 74.6545 37.2678 73.7023 38.4398 73.7023C39.5984 73.7023 40.2244 74.6545 40.2244 76.0862C40.2244 77.5178 39.5984 78.47 38.4398 78.47ZM38.4398 77.924C39.1922 77.924 39.5984 77.2048 39.5984 76.0862C39.5984 74.9675 39.1922 74.2417 38.4398 74.2417C37.674 74.2417 37.2745 74.9675 37.2745 76.0862C37.2745 77.2048 37.674 77.924 38.4398 77.924ZM40.6917 78.4167L40.6851 77.8907L42.4363 76.3792C42.9823 75.9064 43.2154 75.5202 43.2154 75.1007C43.2154 74.5813 42.8691 74.2417 42.3231 74.2417C41.6706 74.2417 41.3043 74.7011 41.3709 75.3937L40.7849 75.3537C40.7117 74.3749 41.3509 73.7023 42.3231 73.7023C43.242 73.7023 43.8413 74.255 43.8413 75.1007C43.8413 75.6667 43.5284 76.1861 42.8092 76.792L41.544 77.8707H43.8413V78.4167H40.6917ZM46.2756 78.47C45.1036 78.47 44.491 77.5178 44.491 76.0862C44.491 74.6545 45.1036 73.7023 46.2756 73.7023C47.4342 73.7023 48.0602 74.6545 48.0602 76.0862C48.0602 77.5178 47.4342 78.47 46.2756 78.47ZM46.2756 77.924C47.028 77.924 47.4342 77.2048 47.4342 76.0862C47.4342 74.9675 47.028 74.2417 46.2756 74.2417C45.5098 74.2417 45.1103 74.9675 45.1103 76.0862C45.1103 77.2048 45.5098 77.924 46.2756 77.924Z" fill="#56CFD2"/>
<rect x="120.083" y="65.3294" width="120.595" height="22.1745" fill="white"/>
<rect x="120.083" y="65.3294" width="120.595" height="22.1745" stroke="#50F4F7" stroke-width="0.341146"/>
<rect x="126.913" y="71.4167" width="52.7185" height="10" rx="1.6736" fill="#FFE9CB"/>
<rect x="240.337" y="65.3294" width="120.595" height="22.1745" fill="white"/>
<rect x="240.337" y="65.3294" width="120.595" height="22.1745" stroke="#50F4F7" stroke-width="0.341146"/>
<rect x="247.225" y="72.2173" width="77.7812" height="7" rx="1.06879" fill="#DBE6F0"/>
<rect x="360.591" y="65.3294" width="120.595" height="22.1745" fill="white"/>
<rect x="360.591" y="65.3294" width="120.595" height="22.1745" stroke="#50F4F7" stroke-width="0.341146"/>
<path d="M371.566 78.4167H370.853L369.595 76.3392H368.549V78.4167H367.943V73.7556H369.621C370.507 73.7556 371.086 74.2683 371.086 75.0474C371.086 75.6201 370.76 76.0595 370.221 76.246L371.566 78.4167ZM368.549 74.295V75.7932H369.555C370.127 75.7932 370.467 75.5202 370.467 75.0474C370.467 74.5746 370.127 74.295 369.555 74.295H368.549ZM374.991 76.5856C374.991 76.6655 374.985 76.7853 374.978 76.8453H372.328C372.368 77.5245 372.794 77.9706 373.4 77.9706C373.913 77.9706 374.266 77.7309 374.365 77.3114L374.898 77.4379C374.732 78.0905 374.172 78.47 373.4 78.47C372.394 78.47 371.762 77.6909 371.762 76.7387C371.762 75.7865 372.374 75.0074 373.387 75.0074C374.379 75.0074 374.991 75.7199 374.991 76.5856ZM372.361 76.3725H374.392C374.339 75.8598 373.979 75.4802 373.387 75.4802C372.861 75.4802 372.474 75.8132 372.361 76.3725ZM378.803 79.6286H378.237V77.9506C378.017 78.2569 377.571 78.47 377.152 78.47C376.113 78.47 375.527 77.7242 375.527 76.7387C375.527 75.7532 376.1 75.0074 377.132 75.0074C377.618 75.0074 378.064 75.2405 378.237 75.5468V75.0607H378.803V79.6286ZM377.198 77.9639C377.851 77.9639 378.284 77.4779 378.284 76.7387C378.284 75.9996 377.851 75.5135 377.198 75.5135C376.532 75.5135 376.106 75.9996 376.106 76.7387C376.106 77.4779 376.532 77.9639 377.198 77.9639ZM382.636 75.0607V78.4167H382.07V77.7842C381.837 78.1837 381.43 78.47 380.918 78.47C380.219 78.47 379.719 77.9972 379.719 77.2848V75.0607H380.285V77.1782C380.285 77.631 380.571 77.9573 381.044 77.9573C381.67 77.9573 382.07 77.4179 382.07 76.5323V75.0607H382.636ZM386.592 76.5856C386.592 76.6655 386.586 76.7853 386.579 76.8453H383.929C383.969 77.5245 384.395 77.9706 385.001 77.9706C385.513 77.9706 385.866 77.7309 385.966 77.3114L386.499 77.4379C386.333 78.0905 385.773 78.47 385.001 78.47C383.995 78.47 383.363 77.6909 383.363 76.7387C383.363 75.7865 383.975 75.0074 384.987 75.0074C385.98 75.0074 386.592 75.7199 386.592 76.5856ZM383.962 76.3725H385.993C385.94 75.8598 385.58 75.4802 384.987 75.4802C384.461 75.4802 384.075 75.8132 383.962 76.3725ZM388.414 78.47C387.601 78.47 387.162 77.9639 387.015 77.4912L387.501 77.2781C387.628 77.671 387.894 77.9906 388.414 77.9906C388.827 77.9906 389.093 77.7509 389.093 77.4779C389.093 76.6189 387.162 77.1716 387.162 75.8997C387.162 75.367 387.621 75.0074 388.34 75.0074C388.933 75.0074 389.446 75.3404 389.586 75.8331L389.113 76.0396C389.02 75.6933 388.687 75.4736 388.327 75.4736C387.948 75.4736 387.708 75.6267 387.708 75.8931C387.708 76.6122 389.652 76.0862 389.646 77.4712C389.646 78.0572 389.153 78.47 388.414 78.47ZM392.103 78.3901C391.937 78.45 391.757 78.47 391.577 78.47C391.004 78.47 390.585 78.1504 390.585 77.4113V75.5601H389.959V75.0607H390.585V74.0419H391.151V75.0607H392.05V75.5601H391.151V77.4312C391.151 77.7842 391.351 77.9573 391.644 77.9573C391.777 77.9573 391.93 77.9373 392.063 77.8707L392.103 78.3901ZM397.406 76.5856C397.406 76.6655 397.4 76.7853 397.393 76.8453H394.743C394.783 77.5245 395.209 77.9706 395.815 77.9706C396.328 77.9706 396.68 77.7309 396.78 77.3114L397.313 77.4379C397.147 78.0905 396.587 78.47 395.815 78.47C394.809 78.47 394.177 77.6909 394.177 76.7387C394.177 75.7865 394.789 75.0074 395.801 75.0074C396.794 75.0074 397.406 75.7199 397.406 76.5856ZM394.776 76.3725H396.807C396.754 75.8598 396.394 75.4802 395.801 75.4802C395.275 75.4802 394.889 75.8132 394.776 76.3725ZM400.616 78.4167H399.976L399.131 77.1582L398.285 78.4167H397.646L398.811 76.6855L397.719 75.0607H398.352L399.131 76.2127L399.903 75.0607H400.542L399.45 76.6855L400.616 78.4167ZM401.204 79.6286V75.0607H401.77V75.5468C401.95 75.2405 402.389 75.0074 402.876 75.0074C403.908 75.0074 404.48 75.7532 404.48 76.7387C404.48 77.7242 403.894 78.47 402.862 78.47C402.436 78.47 401.997 78.2569 401.77 77.9506V79.6286H401.204ZM402.809 77.9639C403.475 77.9639 403.908 77.4779 403.908 76.7387C403.908 75.9996 403.475 75.5135 402.809 75.5135C402.156 75.5135 401.724 75.9996 401.724 76.7387C401.724 77.4779 402.156 77.9639 402.809 77.9639ZM405.483 74.4281C405.257 74.4281 405.09 74.255 405.09 74.0353C405.09 73.8089 405.257 73.6357 405.483 73.6357C405.716 73.6357 405.889 73.8089 405.889 74.0353C405.889 74.255 405.716 74.4281 405.483 74.4281ZM405.203 78.4167V75.0607H405.769V78.4167H405.203ZM408.65 75.6134C408.524 75.5601 408.364 75.5335 408.218 75.5335C407.685 75.5335 407.252 76.0462 407.252 77.1383V78.4167H406.686V75.0607H407.252V75.7399C407.445 75.3137 407.885 75.0074 408.297 75.0074C408.437 75.0074 408.57 75.0274 408.684 75.0674L408.65 75.6134ZM412.115 76.5856C412.115 76.6655 412.109 76.7853 412.102 76.8453H409.452C409.492 77.5245 409.918 77.9706 410.524 77.9706C411.037 77.9706 411.39 77.7309 411.489 77.3114L412.022 77.4379C411.856 78.0905 411.296 78.47 410.524 78.47C409.518 78.47 408.886 77.6909 408.886 76.7387C408.886 75.7865 409.499 75.0074 410.511 75.0074C411.503 75.0074 412.115 75.7199 412.115 76.5856ZM409.485 76.3725H411.516C411.463 75.8598 411.103 75.4802 410.511 75.4802C409.985 75.4802 409.598 75.8132 409.485 76.3725ZM414.269 78.47C413.224 78.47 412.651 77.7242 412.651 76.7387C412.651 75.7532 413.224 75.0074 414.262 75.0074C414.709 75.0074 415.148 75.2272 415.361 75.5401V73.7023H415.927V78.4167H415.361V77.9307C415.208 78.237 414.762 78.47 414.269 78.47ZM414.322 77.9639C414.982 77.9639 415.414 77.4779 415.414 76.7387C415.414 75.9996 414.982 75.5135 414.322 75.5135C413.663 75.5135 413.23 75.9996 413.23 76.7387C413.23 77.4779 413.663 77.9639 414.322 77.9639Z" fill="#56CFD2"/>
<rect x="-0.170573" y="87.1629" width="120.595" height="22.1745" fill="white"/>
<rect x="-0.170573" y="87.1629" width="120.595" height="22.1745" stroke="#50F4F7" stroke-width="0.341146"/>
<path d="M8.63744 100.304C7.7385 100.304 7.07928 99.7974 6.95942 99.0184L7.52542 98.9185C7.61198 99.4312 8.03815 99.7575 8.62412 99.7575C9.24339 99.7575 9.64292 99.338 9.64292 98.7054C9.64292 98.0595 9.23007 97.66 8.55753 97.66C8.11139 97.66 7.75848 97.8664 7.52542 98.2193L7.08594 98.1261L7.45217 95.5891H9.9359V96.1284H7.89831L7.69855 97.5268C7.93826 97.3004 8.31781 97.1406 8.65741 97.1406C9.62294 97.1406 10.2688 97.7665 10.2688 98.7054C10.2688 99.6709 9.6296 100.304 8.63744 100.304ZM12.468 100.304C11.4759 100.304 10.7967 99.7575 10.7967 98.9118C10.7967 98.3658 11.1429 97.9063 11.6756 97.7399C11.2628 97.5534 10.9898 97.1739 10.9898 96.761C10.9898 96.0352 11.5691 95.5358 12.468 95.5358C13.3403 95.5358 13.9196 96.0352 13.9196 96.761C13.9196 97.1739 13.6466 97.5601 13.2338 97.7399C13.7665 97.9063 14.1127 98.3658 14.1127 98.9118C14.1127 99.7575 13.4335 100.304 12.468 100.304ZM12.468 97.5135C12.9807 97.5135 13.3203 97.2271 13.327 96.781C13.3337 96.3349 12.9874 96.0485 12.468 96.0485C11.922 96.0485 11.5757 96.3349 11.5824 96.781C11.5891 97.2271 11.9353 97.5135 12.468 97.5135ZM12.4614 99.7775C13.0939 99.7775 13.5001 99.4312 13.5001 98.9052C13.5001 98.3791 13.0939 98.0329 12.4614 98.0329C11.8221 98.0329 11.4093 98.3791 11.4093 98.9052C11.4093 99.4312 11.8221 99.7775 12.4614 99.7775ZM16.1549 98.7121C15.196 98.7121 14.5102 98.0462 14.5102 97.1273C14.5102 96.195 15.216 95.5358 16.2015 95.5358C17.2403 95.5358 17.9328 96.3748 17.9328 97.6666C17.9328 99.3779 17.0272 100.304 15.7754 100.304C15.3092 100.304 14.8564 100.157 14.5035 99.8774L14.8098 99.4046C15.0895 99.6443 15.4291 99.7575 15.782 99.7575C16.681 99.7575 17.3468 99.025 17.3668 98.0129C17.1537 98.4391 16.6743 98.7121 16.1549 98.7121ZM16.1949 96.0752C15.5689 96.0752 15.1295 96.528 15.1228 97.1472C15.1228 97.7599 15.5689 98.1993 16.1949 98.1993C16.8208 98.1993 17.2669 97.7599 17.2669 97.1472C17.2669 96.528 16.8208 96.0752 16.1949 96.0752ZM19.905 100.304C18.986 100.304 18.3268 99.7708 18.2403 98.9584L18.8129 98.8719C18.8795 99.4112 19.3123 99.7575 19.905 99.7575C20.5509 99.7575 20.9704 99.3713 20.9704 98.7853C20.9704 98.1794 20.5842 97.8264 19.9382 97.8264C19.7651 97.8264 19.572 97.8797 19.4255 97.9729L19.1658 97.5867L20.6374 96.1284H18.3734V95.5891H21.3499V96.1151L20.0248 97.4069C20.9437 97.3204 21.5963 97.8797 21.5963 98.7986C21.5963 99.6976 20.9304 100.304 19.905 100.304ZM23.6851 98.7121C22.7262 98.7121 22.0403 98.0462 22.0403 97.1273C22.0403 96.195 22.7462 95.5358 23.7317 95.5358C24.7705 95.5358 25.463 96.3748 25.463 97.6666C25.463 99.3779 24.5574 100.304 23.3055 100.304C22.8394 100.304 22.3866 100.157 22.0337 99.8774L22.34 99.4046C22.6197 99.6443 22.9593 99.7575 23.3122 99.7575C24.2111 99.7575 24.877 99.025 24.897 98.0129C24.6839 98.4391 24.2045 98.7121 23.6851 98.7121ZM23.725 96.0752C23.0991 96.0752 22.6596 96.528 22.653 97.1472C22.653 97.7599 23.0991 98.1993 23.725 98.1993C24.351 98.1993 24.7971 97.7599 24.7971 97.1472C24.7971 96.528 24.351 96.0752 23.725 96.0752ZM27.6584 100.304C26.6662 100.304 25.987 99.7575 25.987 98.9118C25.987 98.3658 26.3333 97.9063 26.866 97.7399C26.4532 97.5534 26.1801 97.1739 26.1801 96.761C26.1801 96.0352 26.7595 95.5358 27.6584 95.5358C28.5307 95.5358 29.11 96.0352 29.11 96.761C29.11 97.1739 28.837 97.5601 28.4242 97.7399C28.9569 97.9063 29.3031 98.3658 29.3031 98.9118C29.3031 99.7575 28.6239 100.304 27.6584 100.304ZM27.6584 97.5135C28.1711 97.5135 28.5107 97.2271 28.5174 96.781C28.524 96.3349 28.1778 96.0485 27.6584 96.0485C27.1124 96.0485 26.7661 96.3349 26.7728 96.781C26.7794 97.2271 27.1257 97.5135 27.6584 97.5135ZM27.6517 99.7775C28.2843 99.7775 28.6905 99.4312 28.6905 98.9052C28.6905 98.3791 28.2843 98.0329 27.6517 98.0329C27.0125 98.0329 26.5996 98.3791 26.5996 98.9052C26.5996 99.4312 27.0125 99.7775 27.6517 99.7775ZM29.6273 100.25L29.6207 99.7242L31.3719 98.2127C31.9179 97.7399 32.151 97.3537 32.151 96.9342C32.151 96.4148 31.8047 96.0752 31.2587 96.0752C30.6062 96.0752 30.2399 96.5346 30.3065 97.2271L29.7205 97.1872C29.6473 96.2084 30.2865 95.5358 31.2587 95.5358C32.1776 95.5358 32.7769 96.0885 32.7769 96.9342C32.7769 97.5002 32.464 98.0195 31.7448 98.6255L30.4796 99.7042H32.7769V100.25H29.6273ZM35.0258 98.7121C34.067 98.7121 33.3811 98.0462 33.3811 97.1273C33.3811 96.195 34.0869 95.5358 35.0725 95.5358C36.1112 95.5358 36.8037 96.3748 36.8037 97.6666C36.8037 99.3779 35.8981 100.304 34.6463 100.304C34.1802 100.304 33.7274 100.157 33.3745 99.8774L33.6808 99.4046C33.9604 99.6443 34.3 99.7575 34.6529 99.7575C35.5519 99.7575 36.2178 99.025 36.2377 98.0129C36.0247 98.4391 35.5452 98.7121 35.0258 98.7121ZM35.0658 96.0752C34.4399 96.0752 34.0004 96.528 33.9937 97.1472C33.9937 97.7599 34.4399 98.1993 35.0658 98.1993C35.6917 98.1993 36.1379 97.7599 36.1379 97.1472C36.1379 96.528 35.6917 96.0752 35.0658 96.0752ZM38.9992 100.304C38.007 100.304 37.3278 99.7575 37.3278 98.9118C37.3278 98.3658 37.6741 97.9063 38.2068 97.7399C37.7939 97.5534 37.5209 97.1739 37.5209 96.761C37.5209 96.0352 38.1002 95.5358 38.9992 95.5358C39.8715 95.5358 40.4508 96.0352 40.4508 96.761C40.4508 97.1739 40.1778 97.5601 39.7649 97.7399C40.2976 97.9063 40.6439 98.3658 40.6439 98.9118C40.6439 99.7575 39.9647 100.304 38.9992 100.304ZM38.9992 97.5135C39.5119 97.5135 39.8515 97.2271 39.8581 96.781C39.8648 96.3349 39.5186 96.0485 38.9992 96.0485C38.4531 96.0485 38.1069 96.3349 38.1135 96.781C38.1202 97.2271 38.4665 97.5135 38.9992 97.5135ZM38.9925 99.7775C39.6251 99.7775 40.0313 99.4312 40.0313 98.9052C40.0313 98.3791 39.6251 98.0329 38.9925 98.0329C38.3533 98.0329 37.9404 98.3791 37.9404 98.9052C37.9404 99.4312 38.3533 99.7775 38.9925 99.7775ZM43.4953 100.25V99.1116H41.0382V98.5656L43.4021 95.5891H44.1013V98.5656H44.7738V99.1116H44.1013V100.25H43.4953ZM41.6908 98.5656H43.4953V96.2816L41.6908 98.5656ZM45.0583 100.25L45.0516 99.7242L46.8029 98.2127C47.3489 97.7399 47.582 97.3537 47.582 96.9342C47.582 96.4148 47.2357 96.0752 46.6897 96.0752C46.0372 96.0752 45.6709 96.5346 45.7375 97.2271L45.1515 97.1872C45.0783 96.2084 45.7175 95.5358 46.6897 95.5358C47.6086 95.5358 48.2079 96.0885 48.2079 96.9342C48.2079 97.5002 47.895 98.0195 47.1758 98.6255L45.9106 99.7042H48.2079V100.25H45.0583Z" fill="#56CFD2"/>
<rect x="120.083" y="87.1627" width="120.595" height="22.1745" fill="white"/>
<rect x="120.083" y="87.1627" width="120.595" height="22.1745" stroke="#50F4F7" stroke-width="0.341146"/>
<rect x="126.913" y="93.25" width="39.5729" height="10" rx="1.6736" fill="#D7ECE1"/>
<rect x="240.337" y="87.1627" width="120.595" height="22.1745" fill="white"/>
<rect x="240.337" y="87.1627" width="120.595" height="22.1745" stroke="#50F4F7" stroke-width="0.341146"/>
<rect x="247.225" y="94.0508" width="94.8385" height="7" rx="1.06879" fill="#DBE6F0"/>
<rect x="360.591" y="87.1627" width="120.595" height="22.1745" fill="white"/>
<rect x="360.591" y="87.1627" width="120.595" height="22.1745" stroke="#50F4F7" stroke-width="0.341146"/>
<path d="M367.751 98.5786V98.0792H374.09V98.5786H367.751Z" fill="#56CFD2"/>
<rect x="-0.170573" y="108.996" width="120.595" height="22.1745" fill="white"/>
<rect x="-0.170573" y="108.996" width="120.595" height="22.1745" stroke="#50F4F7" stroke-width="0.341146"/>
<path d="M8.68378 122.137C7.76487 122.137 7.10564 121.604 7.01908 120.791L7.59174 120.705C7.65832 121.244 8.09115 121.591 8.68378 121.591C9.32968 121.591 9.74919 121.204 9.74919 120.618C9.74919 120.012 9.36298 119.659 8.71707 119.659C8.54394 119.659 8.35084 119.713 8.20435 119.806L7.94465 119.42L9.41625 117.961H7.15226V117.422H10.1287V117.948L8.80364 119.24C9.72255 119.153 10.3751 119.713 10.3751 120.632C10.3751 121.531 9.70923 122.137 8.68378 122.137ZM12.5811 122.137C11.5889 122.137 10.9097 121.591 10.9097 120.745C10.9097 120.199 11.256 119.739 11.7887 119.573C11.3759 119.386 11.1028 119.007 11.1028 118.594C11.1028 117.868 11.6822 117.369 12.5811 117.369C13.4534 117.369 14.0327 117.868 14.0327 118.594C14.0327 119.007 13.7597 119.393 13.3469 119.573C13.8796 119.739 14.2258 120.199 14.2258 120.745C14.2258 121.591 13.5466 122.137 12.5811 122.137ZM12.5811 119.346C13.0938 119.346 13.4334 119.06 13.4401 118.614C13.4467 118.168 13.1005 117.882 12.5811 117.882C12.0351 117.882 11.6888 118.168 11.6955 118.614C11.7021 119.06 12.0484 119.346 12.5811 119.346ZM12.5744 121.61C13.207 121.61 13.6132 121.264 13.6132 120.738C13.6132 120.212 13.207 119.866 12.5744 119.866C11.9352 119.866 11.5224 120.212 11.5224 120.738C11.5224 121.264 11.9352 121.61 12.5744 121.61ZM16.5379 122.137C15.3659 122.137 14.7533 121.184 14.7533 119.753C14.7533 118.321 15.3659 117.369 16.5379 117.369C17.6965 117.369 18.3224 118.321 18.3224 119.753C18.3224 121.184 17.6965 122.137 16.5379 122.137ZM16.5379 121.591C17.2903 121.591 17.6965 120.871 17.6965 119.753C17.6965 118.634 17.2903 117.908 16.5379 117.908C15.7721 117.908 15.3726 118.634 15.3726 119.753C15.3726 120.871 15.7721 121.591 16.5379 121.591ZM21.187 122.083V120.945H18.7299V120.399L21.0938 117.422H21.7929V120.399H22.4655V120.945H21.7929V122.083H21.187ZM19.3824 120.399H21.187V118.115L19.3824 120.399ZM24.5916 122.137C23.5995 122.137 22.9203 121.591 22.9203 120.745C22.9203 120.199 23.2665 119.739 23.7993 119.573C23.3864 119.386 23.1134 119.007 23.1134 118.594C23.1134 117.868 23.6927 117.369 24.5916 117.369C25.464 117.369 26.0433 117.868 26.0433 118.594C26.0433 119.007 25.7703 119.393 25.3574 119.573C25.8901 119.739 26.2364 120.199 26.2364 120.745C26.2364 121.591 25.5572 122.137 24.5916 122.137ZM24.5916 119.346C25.1044 119.346 25.444 119.06 25.4506 118.614C25.4573 118.168 25.111 117.882 24.5916 117.882C24.0456 117.882 23.6994 118.168 23.706 118.614C23.7127 119.06 24.0589 119.346 24.5916 119.346ZM24.585 121.61C25.2176 121.61 25.6238 121.264 25.6238 120.738C25.6238 120.212 25.2176 119.866 24.585 119.866C23.9457 119.866 23.5329 120.212 23.5329 120.738C23.5329 121.264 23.9457 121.61 24.585 121.61ZM28.5484 122.137C27.3765 122.137 26.7639 121.184 26.7639 119.753C26.7639 118.321 27.3765 117.369 28.5484 117.369C29.7071 117.369 30.333 118.321 30.333 119.753C30.333 121.184 29.7071 122.137 28.5484 122.137ZM28.5484 121.591C29.3009 121.591 29.7071 120.871 29.7071 119.753C29.7071 118.634 29.3009 117.908 28.5484 117.908C27.7827 117.908 27.3831 118.634 27.3831 119.753C27.3831 120.871 27.7827 121.591 28.5484 121.591ZM32.3017 122.137C31.3828 122.137 30.7236 121.604 30.637 120.791L31.2097 120.705C31.2762 121.244 31.7091 121.591 32.3017 121.591C32.9476 121.591 33.3671 121.204 33.3671 120.618C33.3671 120.012 32.9809 119.659 32.335 119.659C32.1619 119.659 31.9688 119.713 31.8223 119.806L31.5626 119.42L33.0342 117.961H30.7702V117.422H33.7467V117.948L32.4216 119.24C33.3405 119.153 33.993 119.713 33.993 120.632C33.993 121.531 33.3272 122.137 32.3017 122.137ZM36.199 122.137C35.2069 122.137 34.5277 121.591 34.5277 120.745C34.5277 120.199 34.8739 119.739 35.4066 119.573C34.9938 119.386 34.7208 119.007 34.7208 118.594C34.7208 117.868 35.3001 117.369 36.199 117.369C37.0713 117.369 37.6506 117.868 37.6506 118.594C37.6506 119.007 37.3776 119.393 36.9648 119.573C37.4975 119.739 37.8437 120.199 37.8437 120.745C37.8437 121.591 37.1646 122.137 36.199 122.137ZM36.199 119.346C36.7118 119.346 37.0514 119.06 37.058 118.614C37.0647 118.168 36.7184 117.882 36.199 117.882C35.653 117.882 35.3067 118.168 35.3134 118.614C35.3201 119.06 35.6663 119.346 36.199 119.346ZM36.1924 121.61C36.825 121.61 37.2311 121.264 37.2311 120.738C37.2311 120.212 36.825 119.866 36.1924 119.866C35.5531 119.866 35.1403 120.212 35.1403 120.738C35.1403 121.264 35.5531 121.61 36.1924 121.61ZM39.8859 120.545C38.9271 120.545 38.2412 119.879 38.2412 118.96C38.2412 118.028 38.947 117.369 39.9325 117.369C40.9713 117.369 41.6638 118.208 41.6638 119.5C41.6638 121.211 40.7582 122.137 39.5064 122.137C39.0403 122.137 38.5875 121.99 38.2345 121.71L38.5408 121.238C38.8205 121.477 39.1601 121.591 39.513 121.591C40.412 121.591 41.0778 120.858 41.0978 119.846C40.8847 120.272 40.4053 120.545 39.8859 120.545ZM39.9259 117.908C39.2999 117.908 38.8605 118.361 38.8538 118.98C38.8538 119.593 39.2999 120.032 39.9259 120.032C40.5518 120.032 40.9979 119.593 40.9979 118.98C40.9979 118.361 40.5518 117.908 39.9259 117.908ZM42.0176 122.083L42.0109 121.557L43.7622 120.046C44.3082 119.573 44.5413 119.187 44.5413 118.767C44.5413 118.248 44.195 117.908 43.649 117.908C42.9964 117.908 42.6302 118.368 42.6968 119.06L42.1108 119.02C42.0375 118.041 42.6768 117.369 43.649 117.369C44.5679 117.369 45.1672 117.922 45.1672 118.767C45.1672 119.333 44.8542 119.853 44.1351 120.459L42.8699 121.537H45.1672V122.083H42.0176ZM47.4161 120.545C46.4572 120.545 45.7714 119.879 45.7714 118.96C45.7714 118.028 46.4772 117.369 47.4627 117.369C48.5015 117.369 49.194 118.208 49.194 119.5C49.194 121.211 48.2884 122.137 47.0365 122.137C46.5704 122.137 46.1176 121.99 45.7647 121.71L46.071 121.238C46.3507 121.477 46.6903 121.591 47.0432 121.591C47.9421 121.591 48.608 120.858 48.628 119.846C48.4149 120.272 47.9355 120.545 47.4161 120.545ZM47.456 117.908C46.8301 117.908 46.3906 118.361 46.384 118.98C46.384 119.593 46.8301 120.032 47.456 120.032C48.082 120.032 48.5281 119.593 48.5281 118.98C48.5281 118.361 48.082 117.908 47.456 117.908Z" fill="#56CFD2"/>
<rect x="120.083" y="108.996" width="120.595" height="22.1745" fill="white"/>
<rect x="120.083" y="108.996" width="120.595" height="22.1745" stroke="#50F4F7" stroke-width="0.341146"/>
<rect x="126.913" y="115.083" width="43.6667" height="10" rx="1.6736" fill="#FCDDDD"/>
<rect x="240.337" y="108.996" width="120.595" height="22.1745" fill="white"/>
<rect x="240.337" y="108.996" width="120.595" height="22.1745" stroke="#50F4F7" stroke-width="0.341146"/>
<rect x="247.225" y="115.884" width="96.8854" height="7" rx="1.06879" fill="#DBE6F0"/>
<rect x="360.591" y="108.996" width="120.595" height="22.1745" fill="white"/>
<rect x="360.591" y="108.996" width="120.595" height="22.1745" stroke="#50F4F7" stroke-width="0.341146"/>
<path d="M371.566 122.083H370.853L369.595 120.006H368.549V122.083H367.943V117.422H369.621C370.507 117.422 371.086 117.935 371.086 118.714C371.086 119.287 370.76 119.726 370.221 119.912L371.566 122.083ZM368.549 117.961V119.46H369.555C370.127 119.46 370.467 119.187 370.467 118.714C370.467 118.241 370.127 117.961 369.555 117.961H368.549ZM374.991 120.252C374.991 120.332 374.985 120.452 374.978 120.512H372.328C372.368 121.191 372.794 121.637 373.4 121.637C373.913 121.637 374.266 121.397 374.365 120.978L374.898 121.104C374.732 121.757 374.172 122.137 373.4 122.137C372.394 122.137 371.762 121.357 371.762 120.405C371.762 119.453 372.374 118.674 373.387 118.674C374.379 118.674 374.991 119.386 374.991 120.252ZM372.361 120.039H374.392C374.339 119.526 373.979 119.147 373.387 119.147C372.861 119.147 372.474 119.48 372.361 120.039ZM378.803 123.295H378.237V121.617C378.017 121.923 377.571 122.137 377.152 122.137C376.113 122.137 375.527 121.391 375.527 120.405C375.527 119.42 376.1 118.674 377.132 118.674C377.618 118.674 378.064 118.907 378.237 119.213V118.727H378.803V123.295ZM377.198 121.63C377.851 121.63 378.284 121.144 378.284 120.405C378.284 119.666 377.851 119.18 377.198 119.18C376.532 119.18 376.106 119.666 376.106 120.405C376.106 121.144 376.532 121.63 377.198 121.63ZM382.636 118.727V122.083H382.07V121.451C381.837 121.85 381.43 122.137 380.918 122.137C380.219 122.137 379.719 121.664 379.719 120.951V118.727H380.285V120.845C380.285 121.298 380.571 121.624 381.044 121.624C381.67 121.624 382.07 121.084 382.07 120.199V118.727H382.636ZM386.592 120.252C386.592 120.332 386.586 120.452 386.579 120.512H383.929C383.969 121.191 384.395 121.637 385.001 121.637C385.513 121.637 385.866 121.397 385.966 120.978L386.499 121.104C386.333 121.757 385.773 122.137 385.001 122.137C383.995 122.137 383.363 121.357 383.363 120.405C383.363 119.453 383.975 118.674 384.987 118.674C385.98 118.674 386.592 119.386 386.592 120.252ZM383.962 120.039H385.993C385.94 119.526 385.58 119.147 384.987 119.147C384.461 119.147 384.075 119.48 383.962 120.039ZM388.414 122.137C387.601 122.137 387.162 121.63 387.015 121.158L387.501 120.945C387.628 121.337 387.894 121.657 388.414 121.657C388.827 121.657 389.093 121.417 389.093 121.144C389.093 120.285 387.162 120.838 387.162 119.566C387.162 119.034 387.621 118.674 388.34 118.674C388.933 118.674 389.446 119.007 389.586 119.5L389.113 119.706C389.02 119.36 388.687 119.14 388.327 119.14C387.948 119.14 387.708 119.293 387.708 119.56C387.708 120.279 389.652 119.753 389.646 121.138C389.646 121.724 389.153 122.137 388.414 122.137ZM392.103 122.057C391.937 122.117 391.757 122.137 391.577 122.137C391.004 122.137 390.585 121.817 390.585 121.078V119.227H389.959V118.727H390.585V117.708H391.151V118.727H392.05V119.227H391.151V121.098C391.151 121.451 391.351 121.624 391.644 121.624C391.777 121.624 391.93 121.604 392.063 121.537L392.103 122.057ZM397.406 120.252C397.406 120.332 397.4 120.452 397.393 120.512H394.743C394.783 121.191 395.209 121.637 395.815 121.637C396.328 121.637 396.68 121.397 396.78 120.978L397.313 121.104C397.147 121.757 396.587 122.137 395.815 122.137C394.809 122.137 394.177 121.357 394.177 120.405C394.177 119.453 394.789 118.674 395.801 118.674C396.794 118.674 397.406 119.386 397.406 120.252ZM394.776 120.039H396.807C396.754 119.526 396.394 119.147 395.801 119.147C395.275 119.147 394.889 119.48 394.776 120.039ZM400.616 122.083H399.976L399.131 120.825L398.285 122.083H397.646L398.811 120.352L397.719 118.727H398.352L399.131 119.879L399.903 118.727H400.542L399.45 120.352L400.616 122.083ZM401.204 123.295V118.727H401.77V119.213C401.95 118.907 402.389 118.674 402.876 118.674C403.908 118.674 404.48 119.42 404.48 120.405C404.48 121.391 403.894 122.137 402.862 122.137C402.436 122.137 401.997 121.923 401.77 121.617V123.295H401.204ZM402.809 121.63C403.475 121.63 403.908 121.144 403.908 120.405C403.908 119.666 403.475 119.18 402.809 119.18C402.156 119.18 401.724 119.666 401.724 120.405C401.724 121.144 402.156 121.63 402.809 121.63ZM405.483 118.095C405.257 118.095 405.09 117.922 405.09 117.702C405.09 117.475 405.257 117.302 405.483 117.302C405.716 117.302 405.889 117.475 405.889 117.702C405.889 117.922 405.716 118.095 405.483 118.095ZM405.203 122.083V118.727H405.769V122.083H405.203ZM408.65 119.28C408.524 119.227 408.364 119.2 408.218 119.2C407.685 119.2 407.252 119.713 407.252 120.805V122.083H406.686V118.727H407.252V119.406C407.445 118.98 407.885 118.674 408.297 118.674C408.437 118.674 408.57 118.694 408.684 118.734L408.65 119.28ZM412.115 120.252C412.115 120.332 412.109 120.452 412.102 120.512H409.452C409.492 121.191 409.918 121.637 410.524 121.637C411.037 121.637 411.39 121.397 411.489 120.978L412.022 121.104C411.856 121.757 411.296 122.137 410.524 122.137C409.518 122.137 408.886 121.357 408.886 120.405C408.886 119.453 409.499 118.674 410.511 118.674C411.503 118.674 412.115 119.386 412.115 120.252ZM409.485 120.039H411.516C411.463 119.526 411.103 119.147 410.511 119.147C409.985 119.147 409.598 119.48 409.485 120.039ZM414.269 122.137C413.224 122.137 412.651 121.391 412.651 120.405C412.651 119.42 413.224 118.674 414.262 118.674C414.709 118.674 415.148 118.894 415.361 119.207V117.369H415.927V122.083H415.361V121.597C415.208 121.903 414.762 122.137 414.269 122.137ZM414.322 121.63C414.982 121.63 415.414 121.144 415.414 120.405C415.414 119.666 414.982 119.18 414.322 119.18C413.663 119.18 413.23 119.666 413.23 120.405C413.23 121.144 413.663 121.63 414.322 121.63Z" fill="#56CFD2"/>
<rect x="298" y="70" width="27" height="12" rx="1.06879" fill="#DBE6F0"/>
<rect x="299" y="48" width="41" height="12" rx="1.06879" fill="#DBE6F0"/>
<line x1="298" y1="65.5" x2="355" y2="65.5" stroke="#50F4F7"/>
<line x1="298" y1="65.5" x2="355" y2="65.5" stroke="#50F4F7"/>
<line x1="305" y1="87.5" x2="346" y2="87.5" stroke="#50F4F7"/>
<line x1="305" y1="43.5" x2="346" y2="43.5" stroke="#50F4F7"/>
<path d="M365.858 100.814L353.136 86.8279C358.308 80.2239 360.794 71.9204 360.098 63.5718C359.402 55.2231 355.575 47.4422 349.38 41.7792C343.185 36.1162 335.077 32.9867 326.67 33.0143C318.263 33.042 310.176 36.2246 304.018 41.9282C297.861 47.6318 294.086 55.4377 293.445 63.7907C292.804 72.1437 295.345 80.4307 300.561 87.0007C305.777 93.5706 313.285 97.9413 321.59 99.2418C329.895 100.542 338.386 98.6775 345.373 94.0185L358.378 108.25C358.706 108.577 359.095 108.837 359.523 109.014C359.951 109.191 360.411 109.282 360.874 109.282C361.338 109.282 361.797 109.191 362.226 109.014C362.654 108.837 363.043 108.577 363.371 108.25L365.858 105.754C366.51 105.096 366.876 104.208 366.876 103.284C366.876 102.359 366.51 101.472 365.858 100.814ZM299.15 66.2407C299.15 60.7989 300.769 55.4794 303.803 50.9547C306.837 46.43 311.149 42.9035 316.194 40.821C321.239 38.7385 326.791 38.1936 332.147 39.2553C337.503 40.3169 342.422 42.9374 346.284 46.7853C350.145 50.6332 352.775 55.5358 353.84 60.873C354.906 66.2102 354.359 71.7424 352.269 76.7699C350.179 81.7975 346.64 86.0946 342.1 89.1179C337.559 92.1412 332.221 93.7548 326.76 93.7548C319.437 93.7548 312.415 90.856 307.237 85.6961C302.059 80.5362 299.15 73.5379 299.15 66.2407Z" fill="white"/>
<g style="mix-blend-mode:multiply" opacity="0.3">
<path d="M327.06 94.37C342.65 94.37 355.288 81.776 355.288 66.2405C355.288 50.7051 342.65 38.1111 327.06 38.1111C311.47 38.1111 298.832 50.7051 298.832 66.2405C298.832 81.776 311.47 94.37 327.06 94.37Z" fill="#56CFD2"/>
</g>
<g style="mix-blend-mode:multiply">
<path d="M374.966 109.929L353.136 86.8279C358.308 80.2239 360.794 71.9204 360.098 63.5718C359.402 55.2231 355.575 47.4422 349.38 41.7792C343.185 36.1162 335.077 32.9867 326.67 33.0143C318.263 33.042 310.176 36.2246 304.018 41.9282C297.861 47.6318 294.086 55.4377 293.445 63.7907C292.804 72.1437 295.345 80.4307 300.561 87.0007C305.777 93.5706 313.285 97.9413 321.59 99.2418C329.895 100.542 338.386 98.6775 345.373 94.0185L367.485 117.366C367.813 117.693 368.202 117.952 368.631 118.129C369.059 118.306 369.518 118.397 369.982 118.397C370.446 118.397 370.905 118.306 371.333 118.129C371.761 117.952 372.151 117.693 372.478 117.366L374.966 114.869C375.618 114.211 375.983 113.324 375.983 112.399C375.983 111.475 375.618 110.587 374.966 109.929ZM299.15 66.2407C299.15 60.7989 300.769 55.4794 303.803 50.9547C306.837 46.43 311.149 42.9035 316.194 40.821C321.239 38.7385 326.791 38.1936 332.147 39.2553C337.503 40.3169 342.422 42.9374 346.284 46.7853C350.145 50.6332 352.775 55.5358 353.84 60.873C354.906 66.2102 354.359 71.7424 352.269 76.7699C350.179 81.7975 346.64 86.0946 342.1 89.1179C337.559 92.1412 332.221 93.7548 326.76 93.7548C319.437 93.7548 312.415 90.856 307.237 85.6961C302.059 80.5362 299.15 73.5379 299.15 66.2407Z" fill="#BE9B74"/>
</g>
</g>
<defs>
<clipPath id="clip0_1045_12305">
<rect width="420" height="131" fill="white"/>
</clipPath>
</defs>
</svg>
