<svg viewBox="0 0 420 131" fill="none" xmlns="http://www.w3.org/2000/svg">
<g clip-path="url(#clip0_616_19529)">
<path d="M0 30C0 13.4315 13.4315 0 30 0H390C406.569 0 420 13.4315 420 30V131H0V30Z" fill="#8763B5"/>
<circle cx="210.5" cy="65.5" r="155.5" fill="#764FA6"/>
<mask id="mask0_616_19529" style="mask-type:alpha" maskUnits="userSpaceOnUse" x="116" y="-28" width="189" height="188">
<g style="mix-blend-mode:multiply">
<circle cx="210.278" cy="66" r="94" fill="#84878A"/>
</g>
</mask>
<g mask="url(#mask0_616_19529)">
<g filter="url(#filter0_d_616_19529)">
<circle cx="210.278" cy="66" r="94" fill="#583C7C"/>
</g>
<rect x="204.897" y="-2.88495" width="213.72" height="67.5245" rx="33.7622" fill="#332348"/>
<rect width="21.0469" height="1.98088" rx="0.990442" transform="matrix(-1 0 0 1 292.453 28.9093)" fill="url(#paint0_linear_616_19529)"/>
<rect width="14.609" height="1.98088" rx="0.990442" transform="matrix(-1 0 0 1 282.301 22.2238)" fill="url(#paint1_linear_616_19529)"/>
<rect width="14.609" height="1.98088" rx="0.990442" transform="matrix(-1 0 0 1 282.301 35.5947)" fill="url(#paint2_linear_616_19529)"/>
<path d="M244.347 30.6081C237.885 30.8541 231.775 30.7872 225.246 31.0358C225.656 30.6398 225.678 30.6087 226.034 30.2732C227.012 29.3483 227.99 28.4224 228.978 27.5084C229.089 27.4055 229.266 27.3265 229.416 27.3203C234.575 27.1147 239.735 26.9173 244.894 26.7293C245.133 26.7208 245.243 26.6399 245.344 26.4328C247.89 21.2014 254.449 19.3663 259.283 22.5281C264.071 25.659 265.151 32.0997 261.648 36.6218C258.441 40.7606 252.374 41.5511 248.225 38.3801C247.183 37.5841 246.326 36.6297 245.675 35.496C245.556 35.2898 245.432 35.2542 245.223 35.263C243.847 35.3223 242.469 35.3753 241.091 35.4156C240.965 35.4195 240.795 35.3569 240.715 35.2647C240.22 34.6844 239.745 34.0873 239.264 33.4947C239.24 33.465 239.224 33.4281 239.177 33.3444C241.025 33.2727 242.829 33.2032 244.635 33.1332C244.616 32.8771 244.616 32.873 244.336 32.8837C242.503 32.9526 240.67 33.0229 238.837 33.0931C238.064 33.1226 237.291 33.1589 236.517 33.1771C236.38 33.1804 236.224 33.1366 236.107 33.0648C235.456 32.6688 234.812 32.2607 234.171 31.8491C234.016 31.7495 233.884 31.7318 233.704 31.8022C232.362 32.324 231.018 32.8402 229.668 33.3414C229.16 33.5301 228.658 33.5543 228.146 33.2696C227.202 32.7463 226.235 32.2649 225.278 31.7646C225.215 31.7314 225.267 31.7578 225.118 31.6722C225.417 31.6607 225.511 31.5882 225.716 31.5801C231.819 31.3472 237.921 31.1156 244.023 30.8778C244.165 30.8721 244.434 30.9815 244.347 30.609L244.347 30.6081ZM247.993 36.023C250.943 39.3203 256.045 39.6411 259.296 36.8C262.68 33.8445 263.123 28.7126 260.068 25.2649C257.154 21.975 251.998 21.6688 248.757 24.515C245.26 27.5859 245.06 32.7749 247.993 36.023Z" fill="url(#paint3_linear_616_19529)"/>
<path d="M247.993 36.023C245.06 32.7758 245.26 27.5859 248.757 24.515C251.998 21.6684 257.154 21.975 260.068 25.2649C263.123 28.7126 262.68 33.8445 259.296 36.8C256.045 39.6411 250.943 39.3203 247.993 36.023ZM259.743 25.2966C256.548 21.9759 251.552 22.0759 248.516 25.111C245.4 28.2272 245.437 33.1499 248.561 36.2472C251.584 39.2448 256.551 39.2256 259.563 36.1861C262.616 33.1051 262.581 28.3565 259.743 25.2966Z" fill="white"/>
<path d="M259.743 25.2961C262.58 28.356 262.616 33.1047 259.563 36.1856C256.55 39.2251 251.584 39.2453 248.56 36.2468C245.437 33.1499 245.4 28.2268 248.516 25.1105C251.551 22.0755 256.547 21.9749 259.743 25.2961Z" fill="url(#paint4_linear_616_19529)"/>
<path d="M244.364 29.6727C237.903 29.9187 231.616 30.1509 225.087 30.3995C225.497 30.0035 225.695 29.6733 226.051 29.3377C227.029 28.4128 228.007 27.487 228.995 26.573C229.106 26.4701 229.283 26.391 229.433 26.3849C234.592 26.1793 239.752 25.9819 244.911 25.7939C245.15 25.7854 245.26 25.7045 245.361 25.4974C247.908 20.2659 254.467 18.4309 259.3 21.5927C264.088 24.7235 265.169 31.1643 261.665 35.6864C258.458 39.8251 252.391 40.6157 248.242 37.4447C247.2 36.6487 246.343 35.6943 245.692 34.5606C245.573 34.3544 245.449 34.3187 245.24 34.3275C243.864 34.3869 242.486 34.4398 241.109 34.4802C240.982 34.4841 240.812 34.4215 240.732 34.3292C240.237 33.749 239.762 33.1518 239.281 32.5593C239.257 32.5296 239.242 32.4927 239.194 32.409C241.042 32.3373 242.847 32.2677 244.652 32.1978C244.633 31.9417 244.633 31.9376 244.353 31.9483C242.52 32.0172 240.687 32.0875 238.854 32.1577C238.081 32.1872 237.308 32.2235 236.534 32.2417C236.397 32.2449 236.241 32.2012 236.124 32.1294C235.473 31.7334 234.83 31.3253 234.188 30.9137C234.033 30.8141 233.901 30.7964 233.721 30.8667C232.379 31.3885 231.035 31.9048 229.685 32.4059C229.177 32.5947 228.675 32.6189 228.163 32.3342C227.219 31.8108 226.253 31.3295 225.295 30.8292C225.232 30.796 225.267 30.7304 225.119 30.6447C225.418 30.6332 225.528 30.6527 225.733 30.6447C231.836 30.4118 237.938 30.1802 244.04 29.9424C244.182 29.9366 244.451 30.0461 244.364 29.6736L244.364 29.6727ZM248.01 35.0876C250.96 38.3849 256.062 38.7057 259.313 35.8646C262.697 32.9091 263.14 27.7772 260.086 24.3295C257.171 21.0396 252.015 20.7334 248.774 23.5795C245.277 26.6505 245.077 31.8395 248.01 35.0876Z" fill="url(#paint5_linear_616_19529)"/>
<path d="M248.01 35.0876C245.077 31.8404 245.277 26.6505 248.774 23.5795C252.015 20.7329 257.171 21.0396 260.086 24.3295C263.14 27.7772 262.697 32.9091 259.313 35.8646C256.062 38.7057 250.96 38.3849 248.01 35.0876ZM259.76 24.3611C256.565 21.0404 251.569 21.1405 248.534 24.1756C245.417 27.2918 245.454 32.2145 248.578 35.3118C251.601 38.3094 256.568 38.2901 259.58 35.2507C262.633 32.1697 262.598 27.4211 259.76 24.3611Z" fill="#E09840"/>
<path d="M259.76 24.3607C262.598 27.4206 262.633 32.1692 259.58 35.2502C256.567 38.2897 251.601 38.3098 248.577 35.3113C245.454 32.2145 245.417 27.2913 248.533 24.1751C251.568 21.14 256.564 21.0395 259.76 24.3607ZM260.091 31.2401C261.024 30.4159 261.114 28.9729 260.29 28.0442C259.466 27.1155 258.017 27.0262 257.09 27.8467C256.163 28.6685 256.074 30.1228 256.893 31.0477C257.72 31.9801 259.155 32.0659 260.091 31.2401Z" fill="url(#paint6_linear_616_19529)"/>
<path d="M225.086 30.3995V31.6722L226.741 32.5313V31.5767L225.086 30.3995Z" fill="#F7A13B"/>
<path d="M233.677 30.8767L232.309 31.4181V32.0863L233.868 31.5772L234.918 32.309L235.077 31.4817L234.664 31.2271C234.307 30.8708 233.784 30.8131 233.677 30.8767Z" fill="#E89A3E"/>
<path d="M239.182 32.4359V33.3586L239.723 33.5813L240.009 33.454L239.182 32.4359Z" fill="#E2973E"/>
<rect x="225.094" y="30.394" width="1.16778" height="0.270239" transform="rotate(-1.85041 225.094 30.394)" fill="#F7A13B"/>
<mask id="mask1_616_19529" style="mask-type:alpha" maskUnits="userSpaceOnUse" x="116" y="-28" width="189" height="188">
<g style="mix-blend-mode:multiply">
<circle cx="210.278" cy="66" r="94" fill="#84878A"/>
</g>
</mask>
<g mask="url(#mask1_616_19529)">
<rect x="59.9941" y="68.3549" width="144.903" height="67.5245" rx="33.7622" fill="#332348"/>
</g>
<path d="M306.306 49.6229L271.025 52.7667L272.946 80.1883L306.306 82.7208V49.6229Z" fill="#42CACD"/>
<mask id="mask2_616_19529" style="mask-type:alpha" maskUnits="userSpaceOnUse" x="116" y="-32" width="200" height="200">
<g style="mix-blend-mode:multiply">
<circle cx="215.861" cy="67.8611" r="99.8611" fill="#84878A"/>
</g>
</mask>
<g mask="url(#mask2_616_19529)">
<path d="M115.753 49.6228L151.034 52.7667L149.113 80.1882L115.753 82.7208V49.6228Z" fill="#FEB452"/>
</g>
<g clip-path="url(#clip1_616_19529)">
<path d="M164.271 80.1331V72.2408H160.781C160.781 72.2408 162.541 79.7067 164.271 80.1331Z" fill="#747474"/>
<path d="M151.962 52.7426H184.887C186.926 52.7426 188.896 52.0371 190.471 50.7424L195.21 46.866C195.574 46.5714 196.024 46.4086 196.497 46.4086H209.295L233.68 70.7833C233.68 70.7833 236.581 73.9929 234.021 76.7529C234.021 76.7529 232.323 78.5206 229.818 77.2724C229.818 77.2724 231.826 80.8929 229.104 82.7846C227.832 83.6684 226.009 82.1256 224.675 81.3348C224.225 81.0712 218.959 75.3962 218.47 74.9C218.47 74.9 222.806 84.5057 218.346 84.1568C218.346 84.1568 212.909 82.2961 212.11 81.6992C212.11 81.6992 215.484 89.1806 211.924 89.1341C211.924 89.1341 207.426 88.6612 204.711 86.5059L187.493 72.2331L152.295 72.3339L151.962 52.7426Z" fill="#B77D49"/>
<path d="M234.464 71.9074L219.192 56.929C218.796 56.5414 218.269 56.3243 217.718 56.3243L211.568 56.2003C210.792 56.2003 209.884 55.9755 209.28 56.4561C207.814 57.6268 206.278 58.1152 205.401 58.5339C205.083 58.6889 201.857 59.2936 201.508 59.2626C197.762 58.9603 197.056 58.154 196.924 57.6811C196.598 56.5492 196.94 55.332 197.769 54.4947L203.974 48.2227C204.409 47.5637 205.215 46.9823 205.844 46.6024C206.348 46.2845 206.937 46.1295 207.534 46.1295H222.674C223.38 46.1295 224.07 46.3543 224.637 46.7729L230.081 50.7811C231.858 52.0836 233.998 52.7891 236.209 52.7891H264.588C265.759 52.7891 266.706 53.7582 266.682 54.9288L266.171 72.5896" fill="#DD9D63"/>
<path d="M257.507 80.1873V72.4036L261.005 72.4501C261.005 72.4501 259.236 79.7609 257.507 80.1873Z" fill="#747474"/>
<path d="M258.864 52.7581C258.864 52.7581 263.906 71.326 257.515 80.1796H269.816L269.924 52.7504C269.924 52.7504 259.361 52.7504 258.872 52.7504L258.864 52.7581Z" fill="white"/>
<path d="M206.774 87.5834C206.774 87.5834 204.866 86.436 206.007 84.5831C206.007 84.5831 207.317 82.6217 207.86 82.5674L210.699 85.2421C210.699 85.2421 208.845 88.2424 206.767 87.5912L206.774 87.5834Z" fill="#CECABE"/>
<path d="M201.554 50.6105C201.554 50.6105 204.455 50.3469 204.339 52.3471C204.339 52.3471 203.362 55.487 200.864 56.3476L197.583 54.6807L201.554 50.6105Z" fill="#EAAE78"/>
<path d="M209.016 56.6188C209.016 56.6188 211.063 54.2542 209.714 50.7733L211.281 51.8819C212.103 52.4556 212.25 56.1537 209.954 56.2079C209.954 56.2079 209.978 56.1614 209.016 56.6188Z" fill="#CB8B51"/>
<path d="M209.365 75.5047L209.225 76.5823C209.093 77.5824 208.357 78.4042 207.372 78.6368C205.425 79.102 202.431 80.1408 202.578 82.079L202.361 84.5909L202.578 84.8631C202.951 85.1267 205.021 87.9246 210.955 89.1883C210.955 89.1883 218.812 89.8318 213.119 82.645C213.057 82.5674 213.134 82.5519 213.165 82.645C213.887 85.0948 230.747 91.6278 218.909 76.0798C218.971 75.886 224.094 83.8234 228.639 83.0791C228.639 83.0791 231.858 81.8619 229.911 77.4584C229.88 77.3964 229.942 77.3266 230.004 77.3576C230.694 77.66 233.192 78.505 234.681 75.7993C234.681 75.7993 235.844 73.7526 234.332 71.6826L234.316 71.6671L224.303 61.9529C224.303 61.9529 223.97 61.8521 223.962 61.8443C223.706 61.7823 221.332 60.6194 220.107 62.9375L220.161 63.6662C220.146 63.705 220.534 64.6818 220.394 66.3797C220.394 66.3797 220.029 67.6511 219.021 67.5193C219.021 67.5193 214.508 65.9851 215.035 70.0243C215.035 70.0243 216.69 73.8306 213.835 73.4612C213.835 73.4612 209.634 72.1519 209.365 75.5047Z" fill="#AB703B"/>
<path d="M203.978 88.6052L203.457 88.1051C202.6 87.2757 202.6 85.9279 203.457 85.0985L205.755 82.8664C206.612 82.037 207.996 82.037 208.853 82.8664L209.373 83.3665C210.23 84.1959 210.23 85.5437 209.373 86.3731L207.075 88.6052C206.219 89.4346 204.835 89.4346 203.978 88.6052Z" fill="#DD9D63"/>
<path d="M221.947 59.6648C220.828 58.8568 220.046 58.0072 219.236 57.0403L221.947 59.6648C223.942 61.106 227.005 62.4153 233.202 64.0232L237.129 63.2595L260.588 63.6959C260.751 65.2234 260.97 67.7329 260.37 72.5337L234.62 71.9336L221.947 59.6648Z" fill="url(#paint7_linear_616_19529)"/>
<path d="M187.049 67.6784L192.504 76.298L186.176 72.4246H160.808V67.6784H187.049Z" fill="#AB703B"/>
<path d="M186.826 76.3963L186.19 75.7605C185.143 74.7062 185.143 72.9928 186.19 71.9384L192.674 65.3873C193.721 64.333 195.412 64.333 196.459 65.3873L197.095 66.0231C198.142 67.0774 198.142 68.7908 197.095 69.8452L190.611 76.3963C189.564 77.4506 187.873 77.4506 186.826 76.3963Z" fill="#DD9D63"/>
<path d="M191.549 81.9937L190.913 81.358C189.866 80.3036 189.866 78.5903 190.913 77.5359L197.397 70.9848C198.444 69.9304 200.135 69.9304 201.182 70.9848L201.818 71.6205C202.865 72.6749 202.865 74.3883 201.818 75.4426L195.334 81.9937C194.287 83.0481 192.596 83.0481 191.549 81.9937Z" fill="#DD9D63"/>
<path d="M193.085 70.3491C193.085 70.3491 191.177 69.2017 192.317 67.3488C192.317 67.3488 193.628 65.3873 194.171 65.3331L197.009 68.0078C197.009 68.0078 195.156 71.0081 193.077 70.3569L193.085 70.3491Z" fill="#EAAE78"/>
<path d="M197.948 75.9698C197.948 75.9698 196.04 74.8224 197.18 72.9695C197.18 72.9695 198.491 71.0081 199.034 70.9538L201.872 73.6285C201.872 73.6285 200.019 76.6288 197.94 75.9776L197.948 75.9698Z" fill="#EAAE78"/>
<path d="M197.226 86.4515L196.59 85.8158C195.543 84.7614 195.543 83.0481 196.59 81.9937L201.43 77.1094C202.477 76.0551 204.168 76.0551 205.215 77.1094L205.851 77.7452C206.898 78.7995 206.898 80.5129 205.851 81.5673L201.011 86.4515C199.964 87.5059 198.274 87.5059 197.226 86.4515Z" fill="#DD9D63"/>
<path d="M202.09 82.079C202.09 82.079 200.182 80.9316 201.322 79.0786C201.322 79.0786 202.633 77.1172 203.175 77.0629L206.014 79.7376C206.014 79.7376 204.16 82.7379 202.082 82.0867L202.09 82.079Z" fill="#EAAE78"/>
<path d="M162.914 52.7115C162.914 52.7115 157.872 71.2794 164.263 80.1331H151.97L151.861 52.7038C151.861 52.7038 162.425 52.7038 162.914 52.7038V52.7115Z" fill="white"/>
</g>
<path d="M271.904 52.7851H266.971L269.302 80.1714H273.097L274.453 75.2266C276.491 65.4458 273.603 56.1903 271.904 52.7851Z" fill="white"/>
<path d="M150.092 52.7851H155.025L152.694 80.1714H148.899L147.543 75.2266C145.505 65.4458 148.393 56.1903 150.092 52.7851Z" fill="white"/>
<path d="M260.533 63.6961C261.319 73.0794 258.824 78.5531 257.478 80.117H273.135C275.23 76.5382 275.208 67.6786 274.936 63.6961H260.533Z" fill="#EFEFEF"/>
<path d="M161.19 63.4233C160.404 72.8067 162.954 78.6076 164.3 80.1715L148.861 80.2261C146.766 76.6473 146.569 67.1876 147.115 63.5324L161.19 63.4233Z" fill="#EFEFEF"/>
<circle cx="264.679" cy="75.1524" r="1.96396" fill="#D9D9D9"/>
<circle cx="156.989" cy="75.1524" r="1.96396" fill="#D9D9D9"/>
<path d="M206.699 86.2888C206.699 86.2888 205.473 85.5516 206.206 84.3611C206.206 84.3611 207.048 83.1009 207.397 83.066L209.22 84.7845C209.22 84.7845 208.029 86.7121 206.694 86.2937L206.699 86.2888Z" fill="#EAAE78"/>
<rect width="21.0469" height="1.98088" rx="0.990442" transform="matrix(1 8.74228e-08 8.74228e-08 -1 130.265 103.024)" fill="url(#paint8_linear_616_19529)"/>
<rect width="14.609" height="1.98088" rx="0.990442" transform="matrix(1 8.74228e-08 8.74228e-08 -1 140.417 109.71)" fill="url(#paint9_linear_616_19529)"/>
<rect width="14.609" height="1.98088" rx="0.990442" transform="matrix(1 8.74228e-08 8.74228e-08 -1 140.417 96.3386)" fill="url(#paint10_linear_616_19529)"/>
</g>
<g style="mix-blend-mode:multiply">
<path d="M174.54 109.181C173.494 109.181 172.472 108.871 171.602 108.29C170.732 107.708 170.054 106.883 169.654 105.916C169.254 104.95 169.149 103.887 169.353 102.861C169.557 101.835 170.061 100.892 170.801 100.153C171.54 99.4132 172.482 98.9096 173.508 98.7055C174.534 98.5014 175.598 98.6062 176.564 99.0064C177.53 99.4067 178.356 100.085 178.937 100.954C179.518 101.824 179.829 102.846 179.829 103.892C179.829 105.295 179.271 106.64 178.28 107.632C177.288 108.624 175.943 109.181 174.54 109.181V109.181Z" fill="white"/>
</g>
<path d="M174.54 109.181C173.494 109.181 172.472 108.871 171.602 108.289C170.732 107.708 170.054 106.882 169.654 105.916C169.254 104.95 169.149 103.886 169.353 102.861C169.557 101.835 170.061 100.892 170.801 100.153C171.54 99.4131 172.482 98.9094 173.508 98.7054C174.534 98.5013 175.598 98.6061 176.564 99.0063C177.53 99.4066 178.356 100.084 178.937 100.954C179.518 101.824 179.829 102.846 179.829 103.892C179.829 105.295 179.271 106.64 178.28 107.632C177.288 108.624 175.943 109.181 174.54 109.181V109.181Z" fill="white"/>
<path d="M178.704 91.0653C178.852 91.0599 179.001 91.0852 179.139 91.1396C179.278 91.1939 179.404 91.2762 179.509 91.3812C179.615 91.4862 179.697 91.6118 179.752 91.7502C179.807 91.8885 179.833 92.0367 179.829 92.1855C179.381 101.926 174.29 110.296 166.896 114.782C166.736 114.879 166.553 114.93 166.367 114.93C166.18 114.93 165.998 114.879 165.838 114.782C158.444 110.277 153.338 101.907 152.905 92.1855C152.901 92.0367 152.927 91.8885 152.981 91.7502C153.036 91.6118 153.119 91.4862 153.225 91.3812C153.33 91.2762 153.456 91.1939 153.595 91.1396C153.733 91.0852 153.882 91.0599 154.03 91.0653H154.458C156.46 91.0693 158.454 90.8156 160.391 90.3105C162.284 89.8193 164.11 89.0992 165.828 88.1662C165.993 88.074 166.178 88.0256 166.367 88.0256C166.556 88.0256 166.741 88.074 166.905 88.1662C168.613 89.095 170.425 89.8149 172.304 90.3105C174.241 90.8173 176.235 91.0726 178.237 91.0701L178.704 91.0653Z" fill="#B7CDE1"/>
<g filter="url(#filter1_d_616_19529)">
<g filter="url(#filter2_d_616_19529)">
<path d="M175.625 93.0918C175.738 93.0877 175.85 93.1068 175.955 93.1479C176.06 93.1891 176.155 93.2513 176.235 93.3307C176.315 93.4102 176.377 93.5052 176.419 93.6098C176.46 93.7145 176.48 93.8266 176.476 93.9391C176.138 101.307 172.287 107.639 166.694 111.032C166.573 111.105 166.435 111.144 166.294 111.144C166.153 111.144 166.014 111.105 165.894 111.032C160.3 107.624 156.438 101.293 156.111 93.9391C156.107 93.8266 156.127 93.7145 156.168 93.6098C156.21 93.5052 156.273 93.4102 156.352 93.3307C156.432 93.2513 156.528 93.1891 156.632 93.1479C156.737 93.1068 156.849 93.0877 156.962 93.0918H157.286C158.8 93.0948 160.308 92.9029 161.773 92.5208C163.205 92.1492 164.586 91.6046 165.886 90.8988C166.011 90.8291 166.151 90.7924 166.294 90.7924C166.436 90.7924 166.577 90.8291 166.701 90.8988C167.992 91.6013 169.364 92.1459 170.785 92.5208C172.25 92.9041 173.758 93.0973 175.273 93.0954L175.625 93.0918Z" fill="#F5F9FB"/>
</g>
</g>
<g style="mix-blend-mode:multiply">
<path d="M174.54 109.181C173.494 109.181 172.472 108.871 171.602 108.29C170.732 107.708 170.054 106.883 169.654 105.916C169.254 104.95 169.149 103.887 169.353 102.861C169.557 101.835 170.061 100.892 170.801 100.153C171.54 99.4132 172.482 98.9096 173.508 98.7055C174.534 98.5014 175.598 98.6062 176.564 99.0064C177.53 99.4067 178.356 100.085 178.937 100.954C179.518 101.824 179.829 102.846 179.829 103.892C179.829 105.295 179.271 106.64 178.28 107.632C177.288 108.624 175.943 109.181 174.54 109.181V109.181Z" fill="#36A168"/>
</g>
<path fill-rule="evenodd" clip-rule="evenodd" d="M173.425 104.296C173.474 104.346 173.532 104.385 173.597 104.412C173.661 104.438 173.73 104.452 173.8 104.452C173.869 104.452 173.938 104.438 174.003 104.412C174.067 104.385 174.126 104.346 174.175 104.296L176.199 102.272C176.275 102.207 176.373 102.173 176.473 102.177C176.574 102.181 176.669 102.223 176.74 102.294C176.81 102.365 176.852 102.46 176.856 102.56C176.86 102.66 176.826 102.758 176.761 102.835L174.059 105.513C174.023 105.549 173.979 105.578 173.931 105.598C173.884 105.618 173.832 105.628 173.78 105.628C173.729 105.628 173.677 105.618 173.63 105.598C173.582 105.578 173.538 105.549 173.502 105.513L172.3 104.316C172.235 104.239 172.201 104.141 172.205 104.041C172.209 103.941 172.251 103.846 172.321 103.775C172.392 103.704 172.487 103.662 172.588 103.658C172.688 103.654 172.786 103.688 172.862 103.753L173.425 104.296Z" fill="white"/>
<path d="M29.8563 31.8562L32.5 27L35.1532 31.8562L40 34.4906L35.1438 37.1438L32.5 42L29.8656 37.1438L25 34.4906L29.8563 31.8562Z" fill="#F7993B"/>
<path d="M360.856 95.8562L363.5 91L366.153 95.8562L371 98.4906L366.144 101.144L363.5 106L360.866 101.144L356 98.4906L360.856 95.8562Z" fill="#FE90A0"/>
</g>
<defs>
<filter id="filter0_d_616_19529" x="111.278" y="-38" width="208" height="208" filterUnits="userSpaceOnUse" color-interpolation-filters="sRGB">
<feFlood flood-opacity="0" result="BackgroundImageFix"/>
<feColorMatrix in="SourceAlpha" type="matrix" values="0 0 0 0 0 0 0 0 0 0 0 0 0 0 0 0 0 0 127 0" result="hardAlpha"/>
<feOffset dx="5"/>
<feGaussianBlur stdDeviation="5"/>
<feComposite in2="hardAlpha" operator="out"/>
<feColorMatrix type="matrix" values="0 0 0 0 0 0 0 0 0 0 0 0 0 0 0 0 0 0 0.25 0"/>
<feBlend mode="normal" in2="BackgroundImageFix" result="effect1_dropShadow_616_19529"/>
<feBlend mode="normal" in="SourceGraphic" in2="effect1_dropShadow_616_19529" result="shape"/>
</filter>
<filter id="filter1_d_616_19529" x="155.378" y="90.6459" width="21.8317" height="21.8163" filterUnits="userSpaceOnUse" color-interpolation-filters="sRGB">
<feFlood flood-opacity="0" result="BackgroundImageFix"/>
<feColorMatrix in="SourceAlpha" type="matrix" values="0 0 0 0 0 0 0 0 0 0 0 0 0 0 0 0 0 0 127 0" result="hardAlpha"/>
<feOffset dy="0.586084"/>
<feGaussianBlur stdDeviation="0.366302"/>
<feComposite in2="hardAlpha" operator="out"/>
<feColorMatrix type="matrix" values="0 0 0 0 1 0 0 0 0 1 0 0 0 0 1 0 0 0 0.25 0"/>
<feBlend mode="normal" in2="BackgroundImageFix" result="effect1_dropShadow_616_19529"/>
<feBlend mode="normal" in="SourceGraphic" in2="effect1_dropShadow_616_19529" result="shape"/>
</filter>
<filter id="filter2_d_616_19529" x="154.938" y="89.6203" width="22.7108" height="22.6955" filterUnits="userSpaceOnUse" color-interpolation-filters="sRGB">
<feFlood flood-opacity="0" result="BackgroundImageFix"/>
<feColorMatrix in="SourceAlpha" type="matrix" values="0 0 0 0 0 0 0 0 0 0 0 0 0 0 0 0 0 0 127 0" result="hardAlpha"/>
<feOffset/>
<feGaussianBlur stdDeviation="0.586084"/>
<feComposite in2="hardAlpha" operator="out"/>
<feColorMatrix type="matrix" values="0 0 0 0 1 0 0 0 0 1 0 0 0 0 1 0 0 0 1 0"/>
<feBlend mode="normal" in2="BackgroundImageFix" result="effect1_dropShadow_616_19529"/>
<feBlend mode="normal" in="SourceGraphic" in2="effect1_dropShadow_616_19529" result="shape"/>
</filter>
<linearGradient id="paint0_linear_616_19529" x1="21.0469" y1="0.990436" x2="3.25023e-08" y2="0.990436" gradientUnits="userSpaceOnUse">
<stop stop-color="#FFBA67"/>
<stop offset="1" stop-color="#D9D9D9" stop-opacity="0"/>
</linearGradient>
<linearGradient id="paint1_linear_616_19529" x1="14.609" y1="0.990436" x2="2.25604e-08" y2="0.990436" gradientUnits="userSpaceOnUse">
<stop stop-color="#FFBA67"/>
<stop offset="1" stop-color="#D9D9D9" stop-opacity="0"/>
</linearGradient>
<linearGradient id="paint2_linear_616_19529" x1="14.609" y1="0.990436" x2="2.25604e-08" y2="0.990436" gradientUnits="userSpaceOnUse">
<stop stop-color="#FFBA67"/>
<stop offset="1" stop-color="#D9D9D9" stop-opacity="0"/>
</linearGradient>
<linearGradient id="paint3_linear_616_19529" x1="258.11" y1="20.7091" x2="234.353" y2="41.9842" gradientUnits="userSpaceOnUse">
<stop stop-color="#A27847"/>
<stop offset="1" stop-color="#FEA43A"/>
</linearGradient>
<linearGradient id="paint4_linear_616_19529" x1="258.11" y1="20.7091" x2="234.353" y2="41.9842" gradientUnits="userSpaceOnUse">
<stop stop-color="#A27847"/>
<stop offset="1" stop-color="#FEA43A"/>
</linearGradient>
<linearGradient id="paint5_linear_616_19529" x1="258.127" y1="19.7736" x2="234.407" y2="41.0162" gradientUnits="userSpaceOnUse">
<stop stop-color="#FCC481"/>
<stop offset="1" stop-color="#FEA43A"/>
</linearGradient>
<linearGradient id="paint6_linear_616_19529" x1="258.127" y1="19.7736" x2="234.407" y2="41.0162" gradientUnits="userSpaceOnUse">
<stop stop-color="#FCC481"/>
<stop offset="1" stop-color="#FEA43A"/>
</linearGradient>
<linearGradient id="paint7_linear_616_19529" x1="240.021" y1="71.77" x2="240.021" y2="58.295" gradientUnits="userSpaceOnUse">
<stop stop-color="#CB8B51"/>
<stop offset="1" stop-color="#CB8B51" stop-opacity="0"/>
</linearGradient>
<linearGradient id="paint8_linear_616_19529" x1="21.0469" y1="0.990436" x2="3.25023e-08" y2="0.990436" gradientUnits="userSpaceOnUse">
<stop stop-color="#FFBA67"/>
<stop offset="1" stop-color="#D9D9D9" stop-opacity="0"/>
</linearGradient>
<linearGradient id="paint9_linear_616_19529" x1="14.609" y1="0.990436" x2="2.25604e-08" y2="0.990436" gradientUnits="userSpaceOnUse">
<stop stop-color="#FFBA67"/>
<stop offset="1" stop-color="#D9D9D9" stop-opacity="0"/>
</linearGradient>
<linearGradient id="paint10_linear_616_19529" x1="14.609" y1="0.990436" x2="2.25604e-08" y2="0.990436" gradientUnits="userSpaceOnUse">
<stop stop-color="#FFBA67"/>
<stop offset="1" stop-color="#D9D9D9" stop-opacity="0"/>
</linearGradient>
<clipPath id="clip0_616_19529">
<path d="M0 30C0 13.4315 13.4315 0 30 0H390C406.569 0 420 13.4315 420 30V131H0V30Z" fill="white"/>
</clipPath>
<clipPath id="clip1_616_19529">
<rect width="118.056" height="44.5163" fill="white" transform="translate(151.861 46.1295)"/>
</clipPath>
</defs>
</svg>
