<svg viewBox="0 0 420 129" fill="none" xmlns="http://www.w3.org/2000/svg">
<g clip-path="url(#clip0_295_129826)">
<g opacity="0.8">
<path d="M149.134 15L158.348 23.3645C149.196 32.226 145.294 50.1455 152.468 64.3694C163.658 86.554 153.172 103.407 140.48 109.608L133.13 99.784C141.805 95.6018 154.114 82.91 143.782 61.1188C139.062 51.1704 133.855 34.7829 149.134 15.0104V15Z" fill="#010101"/>
<path d="M131.857 65.7773C125.666 51.7191 123.461 30.7146 129.186 26.729L119.972 18.3645C112.001 29.1928 115.997 47.2366 121.525 56.7606C101.628 35.6215 75.4478 57.8683 88.3362 76.4089L99.972 91.0262C114.165 104.981 142.633 90.2498 131.867 65.7773H131.857ZM120.976 80.8811C114.548 88.552 101.794 88.5002 95.738 82.9204C91.5143 79.028 92.1147 66.005 100.51 61.4708C106.96 57.9821 114.02 55.9945 122.353 60.4252C126.732 66.9678 125.221 75.8292 120.976 80.8811Z" fill="#010101"/>
</g>
<g filter="url(#filter0_d_295_129826)">
<path d="M350.867 78.2656C344.641 78.2656 342 83.5539 342 88.3814V100.29C342 123.797 378.593 128.043 378.593 104.637V62.481C379.135 39.9559 342.422 40.7872 342.422 61.8L350.204 61.83C350.204 50.3922 369.465 48.98 369.414 62.481V104.637C369.414 114.773 351.038 114.983 351.038 100.29V92.1673C351.038 88.3914 354.05 86.5686 357.595 86.5686H396.638V115.454C396.638 128.183 416.993 130.467 416.993 113.451L408.949 113.4C409.15 118.338 405.736 117.697 405.736 115.454V52.7458C405.736 37.1415 384.879 37.0013 384.959 52.826H393.234C393.234 49.3305 396.638 47.9483 396.638 52.7458V78.2757H350.867V78.2656Z" fill="url(#paint0_linear_295_129826)"/>
</g>
<path d="M401.899 71.6766C401.507 71.7943 401.115 71.7943 400.723 71.6766C401.115 71.6766 401.507 71.6766 401.899 71.6766Z" fill="#FBFAF9"/>
<path d="M380.681 54.8378C380.812 55.0731 380.733 55.3346 380.746 55.5699C380.589 55.3346 380.694 55.0731 380.681 54.8378Z" fill="#FBFAF9"/>
<path d="M265 25.1875H325.349" stroke="#414042" stroke-width="0.905014" stroke-miterlimit="10"/>
<path d="M291.278 102.131L276.767 91.4261V27.8541L291.278 38.5724V102.131Z" fill="#414042" stroke="#414042" stroke-width="0.553064" stroke-miterlimit="10"/>
<path d="M290.618 101.717L316.495 120.837" stroke="#414042" stroke-width="0.553064" stroke-miterlimit="10"/>
<path d="M315.511 104.397L301 93.6785V27.8541L315.511 38.5724V104.397Z" fill="#414042" stroke="#414042" stroke-width="0.553064" stroke-miterlimit="10"/>
<path d="M315.511 104.733L309.828 111.775L295.77 101.523L301 93.6786" fill="#414042"/>
<path d="M315.511 104.733L309.828 111.775L295.77 101.523L301 93.6786" stroke="#414042" stroke-width="0.553064" stroke-miterlimit="10"/>
<path d="M302.359 15.3753L315.653 25.1875" stroke="#414042" stroke-width="0.854736" stroke-miterlimit="10"/>
<path d="M302.398 15.3235H276.767L265.583 7H291.019L302.359 15.3753" fill="#414042"/>
<path d="M302.398 15.3235H276.767L265.583 7H291.019L302.359 15.3753" stroke="#414042" stroke-width="0.854736" stroke-miterlimit="10"/>
<path d="M344.998 26L419 26L419 23.5653C419 20.2576 416.287 17.5711 412.985 17.5711L410.71 17.5711C408.486 17.5711 406.683 15.7744 406.683 13.5581L406.683 -22.0047C405.79 -45.7635 375.95 -46.9053 363.65 -40.0883C362.134 -39.2488 360.281 -40.3066 360.281 -42.036L360.281 -71L357.231 -71C353.524 -71 350.474 -67.9777 350.474 -64.2669L350.474 17.5711L339 17.5711L339 20.0057C339 23.3135 341.713 26 345.015 26L344.998 26ZM398.848 -20.0402L398.848 -13.3071C398.848 -4.97888 388.469 -1.1506 383.027 -7.46391L363.751 -29.8124C371.923 -37.3346 398.848 -37.5025 398.848 -20.0402ZM375.95 -4.64307L395.967 17.5711L360.247 17.5711L360.247 1.35121C360.247 -6.87624 370.424 -10.7549 375.95 -4.64307Z" fill="url(#paint1_linear_295_129826)"/>
<g opacity="0.7">
<path d="M244.672 49.291L231.333 44.5393V111.636C231.333 117.761 225.752 119.951 221.844 119.078C221.844 119.078 206.015 115.5 195.352 109.847C192.561 108.372 190.772 107.013 190.787 100.758L190.829 77.2716C191.645 77.8012 197.07 81.1789 200.59 78.9891C202.179 78.0016 203.281 76.327 203.281 74.2661C203.281 62.8448 203.281 52.5686 202.895 47.4304C202.823 46.4715 202.737 44.2102 200.304 42.922C197.871 41.6339 182.628 34.3919 177.92 32.8605L177.576 33.8051C180.224 34.9501 184.704 36.6962 187.18 38.0129C189.656 39.3296 189.413 41.2761 189.484 42.235C189.871 47.3732 189.871 57.6494 189.871 69.0707C189.871 71.1316 189.67 71.9761 188.053 72.9207C185.434 74.4378 178.521 69.9724 177.705 69.4571H177.591L177.548 96.7221C177.548 102.977 179.322 104.336 182.113 105.81C192.776 111.464 218.195 120.481 231.92 123C239.091 124.316 244.701 121.282 244.701 113.997" fill="#B7B7B8"/>
<path d="M209.765 61.7999C209.965 67.9399 209.865 70.2156 209.865 81.6225Z" fill="#B7B7B8"/>
<path d="M242.526 72.7632C242.497 71.8043 242.068 69.5429 239.635 68.2548C237.159 66.9381 219.44 59.1092 214.774 57.2916C210.323 55.5168 207.718 58.0644 207.718 61.8L207.818 81.6225C207.847 82.7103 207.475 86.4744 211.955 88.7215C216.749 91.2691 227.698 95.4482 230.174 96.765C230.99 97.2945 236.414 99.4986 239.935 97.3089C241.524 96.3213 242.626 94.6468 242.626 92.5858C242.626 81.1645 242.726 78.8889 242.526 72.7632ZM228.714 87.7339C228.714 89.8378 226.997 91.5696 224.879 91.5696C222.775 91.5696 221.043 89.8521 221.043 87.7339V68.4266C221.043 66.3227 222.76 64.5909 224.879 64.5909C226.983 64.5909 228.714 66.3083 228.714 68.4266V87.7339Z" fill="#B7B7B8"/>
</g>
<path d="M242.125 47.4306L228.786 42.6789V109.775C228.786 115.901 223.204 118.091 219.297 117.217C219.297 117.217 203.467 113.639 192.805 107.986C190.014 106.512 188.225 105.152 188.239 98.8977L188.282 75.4112C189.098 75.9407 194.522 79.3184 198.043 77.1287C199.632 76.1411 200.734 74.4666 200.734 72.4056C200.734 60.9843 200.734 50.7081 200.347 45.57C200.276 44.611 200.19 42.3497 197.757 41.0616C195.324 39.7735 180.081 32.5314 175.372 31L175.029 31.9446C177.676 33.0896 182.156 34.8357 184.632 36.1524C187.108 37.4692 186.865 39.4157 186.936 40.3746C187.323 45.5127 187.323 55.789 187.323 67.2102C187.323 69.2712 187.123 70.1156 185.505 71.0602C182.886 72.5773 175.973 68.1119 175.157 67.5966H175.043L175 94.8616C175 101.116 176.775 102.476 179.566 103.95C190.228 109.603 215.647 118.62 229.373 121.139C236.543 122.456 242.153 119.422 242.153 112.137" fill="#A03333"/>
<path d="M239.992 70.9169C239.964 69.958 239.534 67.6966 237.101 66.4085C234.625 65.0918 216.906 57.2629 212.241 55.4453C207.79 53.6705 205.185 56.2181 205.185 59.9536L205.285 79.7762C205.314 80.864 204.941 84.6281 209.421 86.8751C214.216 89.4227 225.165 93.6019 227.641 94.9187C228.457 95.4482 233.881 97.6523 237.402 95.4625C238.99 94.475 240.092 92.8004 240.092 90.7395C240.092 79.3182 240.193 77.0426 239.992 70.9169ZM226.181 85.8876C226.181 87.9915 224.463 89.7233 222.345 89.7233C220.241 89.7233 218.509 88.0058 218.509 85.8876V66.5803C218.509 64.4763 220.227 62.7445 222.345 62.7445C224.449 62.7445 226.181 64.462 226.181 66.5803V85.8876Z" fill="#A03333"/>
<path d="M198.417 -2.8269C199.865 -2.81442 201.163 -3.28866 202.324 -4.13729C203.846 -5.248 204.47 -6.87038 204.857 -8.63004C205.131 -9.90299 205.156 -11.1884 205.156 -12.4738C205.156 -26.963 205.156 -41.4521 205.156 -55.9412C205.156 -58.5495 204.445 -60.8957 202.823 -62.9175C202.336 -63.529 201.762 -64.1155 201.076 -64.5274C200.926 -64.6147 200.838 -64.6647 201.013 -64.8643C201.225 -65.089 201.388 -65.376 201.512 -65.663C201.687 -66.0624 201.849 -65.9626 202.136 -65.7754C204.258 -64.2903 206.379 -62.8301 208.514 -61.3575C211.134 -59.5354 213.768 -57.7508 216.351 -55.8913C218.248 -54.531 219.359 -52.6465 219.808 -50.3627C219.908 -49.876 219.983 -49.3893 220.007 -48.8901C220.057 -48.7029 220.032 -48.5157 220.032 -48.3285C220.032 -33.0032 220.032 -17.6779 220.032 -2.35267C220.032 -2.15299 219.995 -1.94083 220.07 -1.75363C220.007 -0.76772 220.007 0.218188 219.708 1.17914C218.572 4.91062 216.089 7.30675 212.445 8.5797C210.972 9.09138 209.425 9.21617 207.914 9.01649C205.681 8.72946 203.671 7.81842 201.862 6.42068C200.876 5.65941 199.828 4.98549 198.792 4.27414C197.144 3.15095 195.522 1.99033 193.875 0.854659C192.439 -0.131251 191.004 -1.11716 189.569 -2.11555C187.947 -3.23874 186.324 -4.34944 184.714 -5.49759C183.891 -6.09662 183.042 -6.64574 182.268 -7.29469C180.821 -8.5302 179.747 -10.0527 179.198 -11.8998C178.762 -13.3474 178.487 -14.8076 178.35 -16.3176C178.287 -16.9416 178.275 -17.5781 178.225 -18.2021C178.15 -18.4267 178.25 -18.6763 178.162 -18.901C178.262 -19.2879 178.162 -19.6747 178.162 -20.0616C178.162 -32.1671 178.162 -44.2725 178.162 -56.3655C178.162 -58.6993 177.451 -60.8084 176.053 -62.6679C175.542 -63.3543 174.943 -64.0157 174.169 -64.4525C173.957 -64.5773 173.982 -64.752 174.044 -64.9267C174.044 -64.9517 174.094 -64.9642 174.107 -64.9891C174.331 -65.3261 174.543 -65.663 174.768 -66C175.13 -65.7629 175.479 -65.5258 175.841 -65.2762C178.1 -63.7037 180.371 -62.1437 182.63 -60.5713C184.927 -58.9738 187.26 -57.4139 189.519 -55.7665C191.354 -54.4187 192.427 -52.5342 192.851 -50.2878C193.014 -49.4767 193.038 -48.653 193.038 -47.8293C193.038 -35.8237 193.038 -23.8056 193.038 -11.7999C193.038 -11.6127 193.051 -11.4255 193.063 -11.2383C193.126 -10.9763 193.039 -10.7017 193.126 -10.4396C193.151 -8.36797 193.313 -6.32127 194.274 -4.44929C194.898 -3.23874 195.921 -2.66466 197.294 -2.80194C197.669 -2.73954 198.043 -2.73954 198.417 -2.80194V-2.8269Z" fill="#010101"/>
<path d="M226.747 -56.7149C226.809 -57.8256 226.497 -58.8614 226.173 -59.8972C225.599 -61.6569 224.475 -63.0421 223.128 -64.2777C222.94 -64.4399 222.566 -64.4898 222.566 -64.7269C222.566 -64.9391 222.816 -65.1512 222.953 -65.3634C223.244 -65.821 223.61 -65.8959 224.051 -65.588C228.606 -62.4306 233.161 -59.2982 237.692 -56.1283C240.175 -54.3936 241.461 -51.9725 241.623 -48.9524C241.66 -48.241 241.66 -47.5172 241.66 -46.8058C241.66 -22.1456 241.66 2.51461 241.673 27.1748C241.673 30.4071 243.008 33.0778 245.591 35.0621C245.804 35.2243 245.866 35.3491 245.691 35.5738C245.529 35.7859 245.379 36.0106 245.267 36.2477C245.105 36.5971 244.93 36.5722 244.643 36.36C241.273 34.0138 237.916 31.6551 234.522 29.3338C233.224 28.4353 231.901 27.5742 230.628 26.6507C228.606 25.1905 227.358 23.2561 226.922 20.7851C226.859 20.4232 226.859 20.0613 226.797 19.6994C226.734 19.4997 226.772 19.3 226.772 19.1004C226.772 -5.9717 226.772 -31.0438 226.772 -56.1283C226.772 -56.328 226.809 -56.5277 226.734 -56.7273L226.747 -56.7149Z" fill="#010101"/>
<path d="M226.747 -56.82C226.884 -56.6203 226.809 -56.3957 226.809 -56.1835C226.809 -31.1364 226.809 -6.08931 226.809 18.9578C226.809 19.1699 226.809 19.3946 226.809 19.6067C226.672 19.4819 226.734 19.3072 226.734 19.1575C226.734 -6.02692 226.734 -31.2238 226.734 -56.4081C226.734 -56.5454 226.734 -56.6827 226.734 -56.8325L226.747 -56.82Z" fill="#FBFAF9"/>
<path d="M20.6122 -21.9372L34.2871 -3.43347C35.5941 -1.8493 37.7834 0.714764 40.8385 2.96853C50.8373 10.3341 65.6885 -1.50633 58.173 -12.1219L53.0593 -19.0628H68.2372V13.0125L78.1379 21.0313V-42.4824H103.952L94.6882 -53H68.2372V-29.1885H38.7146L46.2464 -17.838C48.0599 -17.9033 50.2492 -17.9196 51.1314 -17.201C53.7128 -15.0779 52.0137 -9.36185 47.1776 -7.23874C46.0667 -6.74879 39.5152 -3.10683 32.5716 -9.55783C27.997 -13.8041 16.2827 -30.0377 16.2827 -30.0377C15.7436 -30.789 14.6162 -32.0792 12.7537 -32.8304C5.66308 -35.6721 3.29408 -29.8417 3 -29.6131L12.9008 -21.5943C13.9627 -23.8154 17.508 -25.8405 20.6122 -21.9535V-21.9372Z" fill="url(#paint2_linear_295_129826)"/>
<path d="M73.3138 33H-5L2.68621 43.3352H13.0924C22.108 46.0892 28.8468 52.6493 30.9097 56.4709V56.5637C18.5018 60.509 8.46233 66.9608 8.46233 76.2285C8.99716 83.067 12.6645 88.312 15.5068 93.2785C29.8401 115.403 57.8038 101.138 46.7711 77.0485L41.8507 66.9608V66.837C45.9613 66.1872 50.408 65.8468 55.0533 65.8468L55.3131 65.8778V107.667L66.7125 123V43.3507H81L73.3138 33.0155V33ZM16.5764 87.8478C14.3149 77.8221 22.9638 70.999 37.3276 67.9046L37.3582 67.951C47.0462 89.2403 21.6955 93.6343 16.5764 87.8478ZM55.3131 52.3399H55.1908C49.2008 52.3244 41.9883 53.3146 34.9133 55.2331L27.1812 43.3352H55.2978V52.3399H55.3131Z" fill="#BA141A"/>
</g>
<defs>
<filter id="filter0_d_295_129826" x="341.993" y="40.9929" width="78.6904" height="88.3048" filterUnits="userSpaceOnUse" color-interpolation-filters="sRGB">
<feFlood flood-opacity="0" result="BackgroundImageFix"/>
<feColorMatrix in="SourceAlpha" type="matrix" values="0 0 0 0 0 0 0 0 0 0 0 0 0 0 0 0 0 0 127 0" result="hardAlpha"/>
<feOffset dx="1.84174" dy="1.84174"/>
<feGaussianBlur stdDeviation="0.924396"/>
<feColorMatrix type="matrix" values="0 0 0 0 0.137255 0 0 0 0 0.121569 0 0 0 0 0.12549 0 0 0 0.2 0"/>
<feBlend mode="normal" in2="BackgroundImageFix" result="effect1_dropShadow_295_129826"/>
<feBlend mode="normal" in="SourceGraphic" in2="effect1_dropShadow_295_129826" result="shape"/>
</filter>
<linearGradient id="paint0_linear_295_129826" x1="342" y1="83.3035" x2="416.993" y2="83.3035" gradientUnits="userSpaceOnUse">
<stop stop-color="#DD1A21"/>
<stop offset="0.16" stop-color="#E93E3A"/>
<stop offset="0.52" stop-color="#ED683C"/>
<stop offset="0.74" stop-color="#EC3562"/>
<stop offset="1" stop-color="#EC008C"/>
</linearGradient>
<linearGradient id="paint1_linear_295_129826" x1="423.28" y1="18.6121" x2="332.015" y2="-34.2681" gradientUnits="userSpaceOnUse">
<stop stop-color="#446F9E"/>
<stop offset="0.26" stop-color="#4B4C94"/>
<stop offset="0.69" stop-color="#852B79"/>
<stop offset="1" stop-color="#C41D74"/>
</linearGradient>
<linearGradient id="paint2_linear_295_129826" x1="53.4677" y1="21.0477" x2="53.4677" y2="-52.9837" gradientUnits="userSpaceOnUse">
<stop stop-color="#FDE2E0"/>
<stop offset="0.05" stop-color="#F9BCC0"/>
<stop offset="0.1" stop-color="#F69AA3"/>
<stop offset="0.14" stop-color="#F3828F"/>
<stop offset="0.19" stop-color="#F27483"/>
<stop offset="0.22" stop-color="#F26F7F"/>
<stop offset="0.59" stop-color="#D7085F"/>
<stop offset="1" stop-color="#BA0052"/>
</linearGradient>
<clipPath id="clip0_295_129826">
<rect width="420" height="129" fill="white"/>
</clipPath>
</defs>
</svg>
