<svg width="420" height="129" viewBox="0 0 420 129" fill="none" xmlns="http://www.w3.org/2000/svg">
<g clip-path="url(#clip0_295_129867)">
<path d="M113.645 111.412H120.159C120.678 111.412 121.291 111.506 121.386 110.751C121.433 110.138 120.961 109.761 120.442 109.667C119.687 109.525 118.884 109.384 118.129 109.431C115.816 109.478 113.551 109.29 111.285 108.771C108.265 108.111 107.368 106.791 108.218 103.867C110.2 97.2184 112.937 90.8526 115.486 84.3925C121.386 69.4919 128.607 55.11 135.168 40.4923C136.914 36.6257 139.982 34.5981 144.23 34.268C146.259 34.1266 148.289 33.938 150.318 33.7494C151.026 33.7022 151.64 33.3721 151.593 32.5705C151.545 31.7217 150.79 31.8632 150.224 31.8632C147.675 31.8632 145.126 31.9575 142.578 31.9104C135.923 31.8161 129.221 31.8632 122.566 31.4388C117.61 31.2031 112.796 31.7689 107.887 31.4388C107.368 31.3917 106.424 31.5803 106.377 32.4291C106.282 33.1835 107.179 33.1835 107.698 33.325C110.153 33.7965 112.607 34.1266 115.061 34.5981C118.554 35.3054 120.3 38.3704 118.979 41.6712C117.28 45.8679 115.486 50.0174 113.645 54.1198C110.766 60.627 107.51 66.9928 104.725 73.5943C101.232 81.7991 98.4004 90.2396 94.5774 98.3029C93.2086 101.179 92.0759 104.386 89.1496 106.036C86.2233 107.734 82.9667 108.865 79.5684 109.478C78.0109 109.761 76.4062 109.573 74.8958 110.138C74.3767 110.327 73.9047 110.61 74.0463 111.27C74.1879 111.836 74.707 111.836 75.179 111.883H76.359C81.8811 111.789 87.3561 111.883 92.8783 111.553C99.7692 111.176 106.707 111.034 113.645 111.412Z" fill="black"/>
<path d="M143.805 56.0531C143.616 52.7052 142.908 52.2808 139.982 53.5539C139.368 53.7897 138.802 54.0726 138.188 54.3556C136.017 55.2986 133.893 56.2417 131.722 57.2319C131.109 57.5149 130.589 57.9392 130.495 58.6465C130.448 59.1181 130.684 59.4953 131.109 59.4953C133.374 59.3539 132.194 60.6742 131.864 61.4286C128.607 69.0675 125.303 76.7064 122.047 84.3454C121.008 86.7502 120.395 89.3908 117.28 90.051C116.76 90.1453 116.43 90.7111 116.619 91.3241C116.808 91.9843 117.327 91.7485 117.752 91.7014C119.97 91.607 122.188 91.8428 124.407 91.9843C126.436 92.1257 128.466 92.1257 130.495 91.9371C132.336 91.7957 132.761 90.8526 131.722 89.3437C131.109 88.4477 131.25 87.6461 131.533 86.7502C132.808 82.695 134.318 78.6869 135.828 74.726C137.244 71.0008 138.472 67.1814 140.359 63.6449C141.303 61.853 142.436 60.2969 144.749 60.1555C146.259 60.0612 146.873 60.627 146.637 62.0888C146.401 63.7863 146.023 65.4367 145.41 67.0399C142.719 74.2073 140.123 81.4218 137.339 88.542C136.206 91.5127 136.631 93.9176 138.896 96.0395C140.973 97.9728 143.427 99.3403 145.929 100.708C146.684 101.132 147.486 101.179 148.1 100.425C148.855 99.4817 147.911 99.0102 147.392 98.4915C145.74 96.8883 145.126 95.0021 145.834 92.7859C146.212 91.5127 146.495 90.2396 146.873 89.0136C149.563 80.243 153.103 71.7553 156.124 63.1262C157.587 59.0238 154.283 54.4499 149.893 54.2612C147.675 54.1198 145.787 55.2043 143.805 56.0531ZM329.529 56.8076C329.765 55.7702 330.001 55.11 330.095 54.4027C330.284 52.7995 329.199 51.8564 327.83 52.658C324.148 54.8271 320.136 55.9116 316.077 56.9019C315.417 57.0905 314.709 57.4205 314.85 58.175C315.039 59.1181 315.794 58.788 316.455 58.6937C318.437 58.3636 318.532 58.5051 318.107 60.5327C316.219 69.8691 313.01 78.7812 309.47 87.599C309.139 88.4477 308.62 89.0136 307.771 89.3908C306.874 89.7209 305.93 90.3339 306.166 91.3241C306.355 92.1729 307.487 91.9843 308.243 91.9843C312.349 92.1729 316.502 91.6542 320.608 91.9843C321.128 92.0314 321.741 92.0314 321.836 91.3241C321.93 90.7111 322.308 89.9567 321.6 89.4851C319.476 88.0234 319.853 85.9957 320.42 84.0153C322.213 77.2251 324.762 70.7179 327.641 64.305C328.868 61.6172 331.039 60.7685 333.588 60.4855C335.193 60.3441 336.514 61.1929 337.128 62.7961C337.741 64.3993 337.364 65.7196 336.042 66.8042C335.476 67.2285 334.815 67.6058 334.39 68.1716C333.965 68.6903 333.21 69.1618 333.588 70.0106C334.013 70.9065 334.862 70.7651 335.665 70.6708C336.042 70.6236 336.467 70.5765 336.797 70.435C341.187 69.0204 345.623 63.4091 345.954 58.8352C346.095 56.7604 344.727 54.1669 342.98 53.7426C340.29 53.0352 337.6 52.658 334.957 54.0726C333.305 55.1572 331.558 55.8645 329.529 56.8076ZM276.762 48.4142C277.092 48.4142 277.658 48.4142 278.177 48.367C288.561 47.4711 298.614 45.0663 308.62 42.3785C313.623 41.011 317.588 38.229 320.372 33.7965C322.544 30.3071 323.157 26.7234 320.844 23.2812C318.296 19.5089 314.331 18 309.753 18.0943C309.423 18.0943 309.045 18.0943 308.998 18.5187C308.903 18.9431 308.951 19.3203 309.375 19.5561C309.8 19.7918 310.225 19.9333 310.603 20.1219C313.718 21.5837 314.567 24.2243 312.962 27.2421C310.838 31.203 307.676 34.0323 303.995 36.4371C298.284 40.2094 291.771 42.1427 285.21 43.746C282.142 44.5004 279.027 44.9248 275.912 45.3492C274.166 45.5849 273.505 46.9996 273.458 48.2256C273.411 48.98 274.968 48.3199 275.77 48.4613C276.054 48.4613 276.337 48.4142 276.762 48.4142ZM185.481 112.025C183.168 109.525 181.233 107.451 179.345 105.282C178.543 104.386 177.929 104.15 177.032 105.187C175.003 107.498 172.312 108.677 169.386 109.243C167.876 109.525 166.271 109.62 164.714 109.714C164.006 109.761 163.298 109.761 163.203 110.563C163.109 111.506 163.958 111.695 164.666 111.789C165.327 111.883 165.988 111.836 166.601 111.742C168.489 111.553 170.377 111.223 172.265 111.459C176.466 112.166 180.714 111.647 185.481 112.025Z" fill="black"/>
<path d="M244.431 87.8819C243.959 88.9193 243.298 89.5794 242.165 89.8624C241.41 90.051 240.372 90.1924 240.466 91.1355C240.561 92.1257 241.646 92.0314 242.354 92.0314C245.847 92.0314 249.292 91.9843 252.785 91.89C253.635 91.89 254.484 91.6071 254.72 90.7583C255.145 89.1079 255.947 89.5323 256.938 90.1453C258.071 90.8054 259.251 91.4184 260.478 91.8428C264.065 93.1631 268.502 92.0786 270.72 89.2022C275.582 82.8836 278.933 75.8105 280.962 68.1245C281.576 65.8139 282.142 63.4091 282.095 60.9571C282.048 56.0059 279.405 53.4596 274.496 53.5068C271.523 53.554 268.927 54.497 266.378 56.5718C267.7 52.9881 268.927 49.8288 270.059 46.6223C271.381 43.0387 272.655 39.5021 273.93 35.9184C274.071 35.4469 274.449 34.9754 273.882 34.4567C273.505 34.1266 273.127 34.2681 272.797 34.4567C269.068 36.4843 265.198 37.946 261.045 38.8891C260.431 39.0306 260.053 39.5021 259.959 40.1623C259.817 41.011 260.478 41.1053 261.045 41.2468C261.753 41.3883 261.753 41.8598 261.564 42.4728C261.233 43.6988 260.997 44.0289 260.148 43.9817C256.891 43.6988 253.021 41.8598 249.906 40.9167C241.693 38.4647 233.434 36.107 225.269 33.5136C217.67 31.1559 210.637 27.4308 203.133 24.8373C196.525 22.5739 189.823 20.5935 182.885 20.1691C175.994 19.7447 169.056 21.0178 163.062 24.743C157.539 28.1852 154.802 36.2485 159.522 42.6614C165.044 50.1589 172.454 53.3653 181.705 51.4792C185.905 50.6304 189.728 48.65 192.749 45.4435C193.316 44.8305 193.929 43.8874 193.032 43.2273C192.183 42.5671 191.144 43.133 190.72 43.9346C189.776 45.6321 188.171 46.1036 186.519 46.528C185.433 46.811 184.348 46.9996 183.215 47.141C180.383 47.5183 180.1 47.2353 181.138 44.5476C182.413 41.1997 183.829 37.8517 185.197 34.551C185.433 33.9851 185.669 33.4193 185.056 32.9477C184.537 32.5234 183.97 32.5705 183.404 32.8534C182.46 33.325 181.516 33.7494 180.572 34.1737C177.882 35.3526 175.097 36.3428 172.218 37.0501C170.566 37.4274 170.283 38.3704 171.416 39.1249C173.492 40.4923 172.832 42.0013 172.124 43.746C171.699 44.7833 171.227 44.7833 170.377 44.2175C168.065 42.7086 165.894 37.946 166.413 35.2583C166.932 32.5234 170.141 29.2697 173.162 28.7982C175.805 28.3738 178.401 28.0438 181.138 28.2324C189.115 28.7982 196.619 30.7315 203.699 34.4567C205.445 35.3997 205.917 36.1542 205.162 37.9932C202.802 43.746 200.49 49.5459 198.46 55.3929C194.59 66.6155 190.389 77.6967 185.481 88.4949C185.103 89.2965 184.726 90.051 184.159 91.1827C180.666 85.8543 177.41 80.8088 174.106 75.7634C173.681 75.1032 173.776 74.5374 174.342 74.0187C176.749 71.8025 179.015 69.3976 181.563 67.3229C185.056 64.4465 188.218 61.0042 192.702 59.4482C193.363 59.2124 194.071 58.7409 193.788 57.8449C193.599 57.2319 193.032 56.9019 192.372 56.9962C189.634 57.2319 186.849 57.0433 184.112 57.0433C183.357 57.0433 182.602 57.562 183.215 58.2693C184.726 60.014 183.262 60.8156 182.318 61.7587C181.327 62.7018 180.289 63.6449 179.298 64.5408C176.655 66.9456 174.106 69.4448 170.897 71.8968C171.132 71.1895 171.132 70.9537 171.274 70.7179C173.445 66.144 175.05 61.3815 176.655 56.6189C177.032 55.4401 176.985 54.9686 175.569 55.0629C173.728 55.2043 171.84 55.0629 170.141 54.3556C168.914 53.8369 168.395 53.9783 167.876 55.3458C164.006 64.9652 160.088 74.4902 156.124 84.0625C154.991 86.7974 154.047 89.8624 150.318 90.3339C150.129 90.3339 149.941 90.5225 149.799 90.6168C149.469 90.8997 148.997 91.1827 149.138 91.7014C149.327 92.2672 149.846 92.1257 150.318 92.1257C153.858 92.1729 157.398 92.1729 160.938 92.2201C162.023 92.2201 163.156 92.5501 164.242 92.1257C165.516 91.6542 165.61 90.9941 164.572 90.1924C164.006 89.7681 163.25 89.5323 163.722 88.5421C164.666 86.5616 165.563 84.6283 166.601 82.4592C176.702 95.7094 185.622 109.667 200.631 118.438C197.233 119.569 194.354 120.418 191.616 121.455C181.941 125.228 171.935 126.312 161.74 124.285C155.085 122.964 149.327 120.135 146.495 113.298C146.07 112.26 145.504 112.638 145.126 113.345C144.182 114.948 144.985 116.41 145.693 117.777C147.864 121.691 151.404 124.143 155.321 125.841C162.07 128.764 169.292 129 176.513 128.434C181.044 128.104 185.386 126.689 189.728 125.369C197.705 122.964 205.681 120.512 213.091 116.646C222.814 111.553 232.867 107.262 243.581 104.763C248.16 103.678 252.691 102.264 257.505 103.867C261.281 105.093 262.697 107.922 260.997 111.459C259.157 115.373 256.089 118.013 252.313 119.946C246.555 122.823 240.23 122.823 234.047 123.247C228.242 123.624 222.531 122.398 217.009 120.748C214.035 119.852 211.723 120.937 208.985 122.257C213.941 124.803 218.85 126.548 224.089 127.161C229.988 127.868 235.888 127.585 241.741 126.689C248.82 125.605 255.994 124.709 262.13 120.654C266.85 117.542 271.287 114.005 272.608 107.969C272.938 106.366 272.514 105.046 271.475 104.008C269.871 102.358 267.983 100.991 265.717 100.331C260.95 98.9159 255.994 98.3972 251.086 99.1988C242.968 100.566 235.133 102.924 227.676 106.366C221.162 109.337 214.885 112.732 208.277 115.467C207.617 115.75 206.956 116.363 206.248 115.844C204.313 114.382 202.425 112.826 200.537 111.317C203.51 110.94 206.295 110.94 209.127 110.893C209.693 110.893 210.637 111.317 210.684 110.28C210.732 109.384 209.929 109.148 209.174 109.007C208.796 108.912 208.372 108.912 207.994 108.912C204.265 108.818 200.631 108.299 197.139 106.791C194.684 105.706 194.165 104.763 195.251 102.264C196.053 100.331 196.997 98.4444 197.658 96.4639C203.935 77.4609 212.1 59.2124 219.086 40.4923C219.416 39.6436 219.652 39.2192 220.738 39.455C233.387 41.907 245.752 45.8679 258.638 47.424C259.676 47.5654 259.77 47.8955 259.44 48.8386C255.003 62.1831 249.953 75.1032 244.431 87.8819ZM262.885 65.7196C263.971 62.5603 266 60.2969 269.163 59.1653C271.239 58.4108 273.552 60.2498 273.127 62.4189C271.806 69.9163 268.549 76.7065 265.528 83.5909C264.773 85.2885 263.31 86.3258 261.611 87.0331C259.77 87.7876 256.797 85.9014 256.844 83.5909C257.222 82.2706 257.552 80.4788 258.26 78.8755C260.148 74.6317 261.375 70.1049 262.885 65.7196ZM293.989 80.6202C295.971 80.3845 298.001 79.9601 299.889 79.2528C303.287 78.0268 306.449 76.3292 308.431 73.0285C311.074 68.6432 312.018 64.1164 311.027 58.9766C310.461 56.1946 308.951 54.7799 306.638 54.0726C300.738 52.2808 295.452 53.6011 291.157 58.0807C286.909 62.466 284.927 68.1716 282.85 73.7358C281.765 76.6593 281.009 79.7243 280.962 81.9877C280.915 86.2315 282.001 88.7778 284.172 90.1924C291.11 94.5777 299.747 92.8331 304.514 87.599C306.119 85.8543 306.827 83.4966 307.723 81.3275C308.007 80.6674 308.809 79.8658 307.629 79.3471C306.685 78.9227 306.449 79.8658 306.071 80.4316C303.853 83.6381 301.116 86.1372 297.057 86.8917C293.8 87.4575 292.148 86.1844 292.101 82.9308C292.054 81.469 292.431 80.8088 293.989 80.6202ZM292.478 76.0935C293.706 70.5293 296.349 65.531 299.228 60.6742C299.983 59.401 301.116 58.5051 302.626 58.9295C303.381 59.1653 303.712 59.6839 303.9 60.2969C304.278 61.6644 304.136 63.1262 303.712 64.4936C302.012 69.7749 299.464 74.5845 293.942 77.4138C293.517 77.6495 292.95 78.0268 292.478 77.6495C291.818 77.2252 292.384 76.6121 292.478 76.0935Z" fill="black"/>
<path d="M246.791 67.1814C246.602 57.8921 239.806 51.9036 232.301 52.4223C227.723 52.1865 223.9 54.0255 220.171 56.3832C212.667 61.0986 210.212 72.5098 211.534 79.0642C212.431 83.4966 214.46 87.5047 218.661 89.9095C225.788 93.9647 232.254 91.9371 238.956 86.6088C244.95 81.7991 246.932 74.726 246.791 67.1814ZM239.003 62.466C238.295 71.1423 236.219 79.3471 230.932 86.5145C229.516 88.4006 228.053 89.3437 226.26 89.3437C222.767 89.3908 218.755 84.8641 219.227 81.3275C219.982 75.8105 220.879 70.3407 223.569 65.3424C225.033 62.6546 226.449 60.0612 228.62 57.9393C231.121 55.5344 232.726 55.11 235.463 56.2889C237.823 57.2791 239.239 59.4953 239.003 62.466ZM327.027 87.6933C327.311 87.6933 327.641 87.7876 327.924 87.9291C328.207 88.0705 328.443 88.3063 328.585 88.5892C328.726 88.8721 328.821 89.2022 328.821 89.4851C328.821 89.8152 328.726 90.0981 328.585 90.3811C328.443 90.664 328.207 90.8997 327.924 91.0412C327.641 91.1827 327.358 91.277 327.027 91.277C326.697 91.277 326.414 91.1827 326.131 91.0412C325.847 90.8997 325.611 90.664 325.47 90.3811C325.328 90.0981 325.234 89.8152 325.234 89.4851C325.234 89.1551 325.328 88.8721 325.47 88.5892C325.611 88.3063 325.847 88.0705 326.131 87.9291C326.414 87.7876 326.744 87.6933 327.027 87.6933ZM327.027 87.9762C326.791 87.9762 326.508 88.0234 326.272 88.1648C326.036 88.3063 325.847 88.4949 325.706 88.7307C325.564 88.9664 325.517 89.2022 325.517 89.4851C325.517 89.7681 325.564 90.0038 325.706 90.2396C325.847 90.4754 326.036 90.664 326.272 90.8054C326.508 90.9469 326.744 90.9941 327.027 90.9941C327.311 90.9941 327.547 90.9469 327.783 90.8054C328.019 90.664 328.207 90.4754 328.349 90.2396C328.491 90.0038 328.538 89.7681 328.538 89.4851C328.538 89.2022 328.491 88.9664 328.349 88.7307C328.207 88.4949 328.019 88.3063 327.783 88.1648C327.547 88.0705 327.311 87.9762 327.027 87.9762ZM326.225 90.4754V88.5421H326.886C327.122 88.5421 327.263 88.5421 327.358 88.5892C327.452 88.6364 327.547 88.6835 327.594 88.7778C327.641 88.8721 327.688 88.9664 327.688 89.0608C327.688 89.2022 327.641 89.3437 327.547 89.438C327.452 89.5323 327.311 89.5794 327.122 89.6266C327.169 89.6737 327.263 89.6738 327.263 89.7209C327.358 89.8152 327.452 89.9095 327.547 90.0981L327.783 90.4754H327.405L327.216 90.1924C327.075 89.9567 326.98 89.8152 326.886 89.7209C326.839 89.6738 326.744 89.6738 326.65 89.6738H326.461V90.4754H326.225ZM326.555 89.3908H326.933C327.122 89.3908 327.216 89.3437 327.311 89.2965C327.358 89.2494 327.405 89.1551 327.405 89.0608C327.405 89.0136 327.405 88.9664 327.358 88.9193C327.311 88.8721 327.263 88.825 327.216 88.825C327.169 88.825 327.075 88.7778 326.886 88.7778H326.508V89.3908H326.555Z" fill="black"/>
<path d="M432.5 119L338 119L372.5 39L432.5 39L432.5 119Z" fill="#E7DACB"/>
<path d="M-8 39H86.5L52 119H-8V39Z" fill="#E7DACB"/>
</g>
<defs>
<clipPath id="clip0_295_129867">
<rect width="420" height="129" fill="white"/>
</clipPath>
</defs>
</svg>
