<svg viewBox="0 0 420 131" fill="none" xmlns="http://www.w3.org/2000/svg">
<g clip-path="url(#clip0_867_15971)">
<rect width="420" height="131" fill="#8763B5"/>
<circle cx="210.5" cy="65.5" r="155.5" fill="#764FA6"/>
<mask id="mask0_867_15971" style="mask-type:alpha" maskUnits="userSpaceOnUse" x="116" y="-28" width="189" height="188">
<g style="mix-blend-mode:multiply">
<circle cx="210.278" cy="66" r="94" fill="#84878A"/>
</g>
</mask>
<g mask="url(#mask0_867_15971)">
<g filter="url(#filter0_d_867_15971)">
<circle cx="210.278" cy="66" r="94" fill="#583C7C"/>
</g>
<rect x="204.897" y="-2.88501" width="213.72" height="67.5245" rx="33.7622" fill="#332348"/>
<rect width="21.0469" height="1.98088" rx="0.990442" transform="matrix(-1 0 0 1 292.453 28.9092)" fill="url(#paint0_linear_867_15971)"/>
<rect width="14.609" height="1.98088" rx="0.990442" transform="matrix(-1 0 0 1 282.301 22.2236)" fill="url(#paint1_linear_867_15971)"/>
<rect width="14.609" height="1.98088" rx="0.990442" transform="matrix(-1 0 0 1 282.301 35.5945)" fill="url(#paint2_linear_867_15971)"/>
<path d="M244.347 30.6081C237.885 30.8541 231.775 30.7872 225.246 31.0358C225.656 30.6398 225.678 30.6087 226.034 30.2732C227.012 29.3483 227.99 28.4224 228.978 27.5084C229.089 27.4055 229.266 27.3265 229.416 27.3203C234.575 27.1147 239.735 26.9173 244.894 26.7293C245.133 26.7208 245.243 26.6399 245.344 26.4328C247.89 21.2014 254.449 19.3663 259.283 22.5281C264.071 25.659 265.151 32.0997 261.648 36.6218C258.441 40.7606 252.374 41.5511 248.225 38.3801C247.183 37.5841 246.326 36.6297 245.675 35.496C245.556 35.2898 245.432 35.2542 245.223 35.263C243.847 35.3223 242.469 35.3753 241.091 35.4156C240.965 35.4195 240.795 35.3569 240.715 35.2647C240.22 34.6844 239.745 34.0873 239.264 33.4947C239.24 33.465 239.224 33.4281 239.177 33.3444C241.025 33.2727 242.829 33.2032 244.635 33.1332C244.616 32.8771 244.616 32.873 244.336 32.8837C242.503 32.9526 240.67 33.0229 238.837 33.0931C238.064 33.1226 237.291 33.1589 236.517 33.1771C236.38 33.1804 236.224 33.1366 236.107 33.0648C235.456 32.6688 234.812 32.2607 234.171 31.8491C234.016 31.7495 233.884 31.7318 233.704 31.8022C232.362 32.324 231.018 32.8402 229.668 33.3414C229.16 33.5301 228.658 33.5543 228.146 33.2696C227.202 32.7463 226.235 32.2649 225.278 31.7646C225.215 31.7314 225.267 31.7578 225.118 31.6722C225.417 31.6607 225.511 31.5882 225.716 31.5801C231.819 31.3472 237.921 31.1156 244.023 30.8778C244.165 30.8721 244.434 30.9815 244.347 30.609L244.347 30.6081ZM247.993 36.023C250.943 39.3203 256.045 39.6411 259.296 36.8C262.68 33.8445 263.123 28.7126 260.068 25.2649C257.154 21.975 251.998 21.6688 248.757 24.515C245.26 27.5859 245.06 32.7749 247.993 36.023Z" fill="url(#paint3_linear_867_15971)"/>
<path d="M247.993 36.023C245.06 32.7758 245.26 27.5859 248.757 24.515C251.998 21.6684 257.154 21.975 260.068 25.2649C263.123 28.7126 262.68 33.8445 259.296 36.8C256.045 39.6411 250.943 39.3203 247.993 36.023ZM259.743 25.2966C256.548 21.9759 251.552 22.0759 248.516 25.111C245.4 28.2272 245.437 33.1499 248.561 36.2472C251.584 39.2448 256.551 39.2256 259.563 36.1861C262.616 33.1051 262.581 28.3565 259.743 25.2966Z" fill="white"/>
<path d="M259.743 25.2961C262.58 28.356 262.616 33.1047 259.563 36.1856C256.55 39.2251 251.584 39.2453 248.56 36.2468C245.437 33.1499 245.4 28.2268 248.516 25.1105C251.551 22.0755 256.547 21.9749 259.743 25.2961Z" fill="url(#paint4_linear_867_15971)"/>
<path d="M244.364 29.6728C237.903 29.9188 231.616 30.151 225.087 30.3996C225.497 30.0036 225.695 29.6734 226.051 29.3379C227.029 28.413 228.007 27.4871 228.995 26.5731C229.106 26.4702 229.283 26.3912 229.433 26.385C234.592 26.1794 239.752 25.982 244.911 25.794C245.15 25.7855 245.26 25.7046 245.361 25.4975C247.908 20.2661 254.467 18.431 259.3 21.5928C264.088 24.7237 265.169 31.1644 261.665 35.6865C258.458 39.8253 252.391 40.6158 248.242 37.4448C247.2 36.6488 246.343 35.6944 245.692 34.5607C245.573 34.3545 245.449 34.3189 245.24 34.3277C243.864 34.387 242.486 34.44 241.109 34.4803C240.982 34.4842 240.812 34.4216 240.732 34.3294C240.237 33.7491 239.762 33.152 239.281 32.5594C239.257 32.5297 239.242 32.4928 239.194 32.4091C241.042 32.3374 242.847 32.2679 244.652 32.1979C244.633 31.9418 244.633 31.9377 244.353 31.9484C242.52 32.0173 240.687 32.0876 238.854 32.1578C238.081 32.1873 237.308 32.2236 236.534 32.2418C236.397 32.2451 236.241 32.2013 236.124 32.1295C235.473 31.7335 234.83 31.3254 234.188 30.9138C234.033 30.8142 233.901 30.7965 233.721 30.8669C232.379 31.3887 231.035 31.9049 229.685 32.4061C229.177 32.5948 228.675 32.619 228.163 32.3343C227.219 31.811 226.253 31.3296 225.295 30.8293C225.232 30.7961 225.267 30.7305 225.119 30.6448C225.418 30.6333 225.528 30.6529 225.733 30.6448C231.836 30.4119 237.938 30.1803 244.04 29.9425C244.182 29.9368 244.451 30.0462 244.364 29.6737L244.364 29.6728ZM248.01 35.0877C250.96 38.385 256.062 38.7058 259.313 35.8647C262.697 32.9092 263.14 27.7773 260.086 24.3296C257.171 21.0397 252.015 20.7335 248.774 23.5797C245.277 26.6506 245.077 31.8396 248.01 35.0877Z" fill="url(#paint5_linear_867_15971)"/>
<path d="M248.01 35.0877C245.077 31.8405 245.277 26.6506 248.774 23.5797C252.015 20.7331 257.171 21.0397 260.086 24.3296C263.14 27.7773 262.697 32.9092 259.313 35.8647C256.062 38.7058 250.96 38.385 248.01 35.0877ZM259.76 24.3613C256.565 21.0406 251.569 21.1406 248.534 24.1757C245.417 27.2919 245.454 32.2146 248.578 35.3119C251.601 38.3095 256.568 38.2903 259.58 35.2508C262.633 32.1698 262.598 27.4212 259.76 24.3613Z" fill="#E09840"/>
<path d="M259.76 24.3608C262.598 27.4207 262.633 32.1694 259.58 35.2503C256.567 38.2898 251.601 38.31 248.577 35.3114C245.454 32.2146 245.417 27.2915 248.533 24.1752C251.568 21.1402 256.564 21.0396 259.76 24.3608ZM260.091 31.2402C261.024 30.416 261.114 28.973 260.29 28.0443C259.466 27.1157 258.017 27.0263 257.09 27.8468C256.163 28.6686 256.074 30.1229 256.893 31.0478C257.72 31.9802 259.155 32.066 260.091 31.2402Z" fill="url(#paint6_linear_867_15971)"/>
<path d="M225.086 30.3997V31.6724L226.741 32.5314V31.5769L225.086 30.3997Z" fill="#F7A13B"/>
<path d="M233.677 30.8767L232.309 31.4181V32.0863L233.868 31.5772L234.918 32.309L235.077 31.4817L234.664 31.2271C234.307 30.8708 233.784 30.8131 233.677 30.8767Z" fill="#E89A3E"/>
<path d="M239.182 32.436V33.3587L239.723 33.5815L240.009 33.4542L239.182 32.436Z" fill="#E2973E"/>
<rect x="225.094" y="30.394" width="1.16778" height="0.270239" transform="rotate(-1.85041 225.094 30.394)" fill="#F7A13B"/>
<mask id="mask1_867_15971" style="mask-type:alpha" maskUnits="userSpaceOnUse" x="116" y="-28" width="189" height="188">
<g style="mix-blend-mode:multiply">
<circle cx="210.278" cy="66" r="94" fill="#84878A"/>
</g>
</mask>
<g mask="url(#mask1_867_15971)">
<rect x="59.9941" y="68.355" width="144.903" height="67.5245" rx="33.7622" fill="#332348"/>
</g>
<path d="M306.306 49.6228L271.025 52.7667L272.946 80.1882L306.306 82.7208V49.6228Z" fill="#42CACD"/>
<mask id="mask2_867_15971" style="mask-type:alpha" maskUnits="userSpaceOnUse" x="116" y="-32" width="200" height="200">
<g style="mix-blend-mode:multiply">
<circle cx="215.861" cy="67.8611" r="99.8611" fill="#84878A"/>
</g>
</mask>
<g mask="url(#mask2_867_15971)">
<path d="M115.753 49.6228L151.034 52.7667L149.113 80.1882L115.753 82.7208V49.6228Z" fill="#FEB452"/>
</g>
<g clip-path="url(#clip1_867_15971)">
<path d="M164.271 80.133V72.2407H160.781C160.781 72.2407 162.541 79.7066 164.271 80.133Z" fill="#747474"/>
<path d="M151.962 52.7425H184.887C186.926 52.7425 188.896 52.0369 190.471 50.7422L195.21 46.8659C195.574 46.5713 196.024 46.4084 196.497 46.4084H209.295L233.68 70.7831C233.68 70.7831 236.581 73.9928 234.021 76.7527C234.021 76.7527 232.323 78.5204 229.818 77.2722C229.818 77.2722 231.826 80.8927 229.104 82.7844C227.832 83.6682 226.009 82.1254 224.675 81.3346C224.225 81.071 218.959 75.396 218.47 74.8998C218.47 74.8998 222.806 84.5055 218.346 84.1566C218.346 84.1566 212.909 82.296 212.11 81.699C212.11 81.699 215.484 89.1804 211.924 89.1339C211.924 89.1339 207.426 88.661 204.711 86.5057L187.493 72.2329L152.295 72.3337L151.962 52.7425Z" fill="#B77D49"/>
<path d="M234.464 71.9073L219.192 56.929C218.796 56.5413 218.269 56.3243 217.718 56.3243L211.568 56.2002C210.792 56.2002 209.884 55.9754 209.28 56.4561C207.814 57.6267 206.278 58.1152 205.401 58.5338C205.083 58.6889 201.857 59.2936 201.508 59.2626C197.762 58.9602 197.056 58.1539 196.924 57.681C196.598 56.5491 196.94 55.3319 197.769 54.4946L203.974 48.2226C204.409 47.5637 205.215 46.9822 205.844 46.6023C206.348 46.2844 206.937 46.1294 207.534 46.1294H222.674C223.38 46.1294 224.07 46.3542 224.637 46.7729L230.081 50.781C231.858 52.0835 233.998 52.789 236.209 52.789H264.588C265.759 52.789 266.706 53.7581 266.682 54.9288L266.171 72.5896" fill="#DD9D63"/>
<path d="M257.507 80.1871V72.4033L261.005 72.4498C261.005 72.4498 259.236 79.7607 257.507 80.1871Z" fill="#747474"/>
<path d="M258.864 52.758C258.864 52.758 263.906 71.3259 257.515 80.1795H269.816L269.924 52.7502C269.924 52.7502 259.361 52.7502 258.872 52.7502L258.864 52.758Z" fill="white"/>
<path d="M206.774 87.5834C206.774 87.5834 204.866 86.436 206.007 84.5831C206.007 84.5831 207.317 82.6217 207.86 82.5674L210.699 85.2421C210.699 85.2421 208.845 88.2424 206.767 87.5912L206.774 87.5834Z" fill="#CECABE"/>
<path d="M201.554 50.6103C201.554 50.6103 204.455 50.3468 204.339 52.347C204.339 52.347 203.362 55.4868 200.864 56.3474L197.583 54.6805L201.554 50.6103Z" fill="#EAAE78"/>
<path d="M209.016 56.6188C209.016 56.6188 211.063 54.2542 209.714 50.7732L211.281 51.8818C212.103 52.4555 212.25 56.1536 209.954 56.2079C209.954 56.2079 209.978 56.1614 209.016 56.6188Z" fill="#CB8B51"/>
<path d="M209.365 75.5046L209.225 76.5822C209.093 77.5823 208.357 78.4041 207.372 78.6367C205.425 79.1018 202.431 80.1407 202.578 82.0789L202.361 84.5908L202.578 84.863C202.951 85.1266 205.021 87.9245 210.955 89.1882C210.955 89.1882 218.812 89.8317 213.119 82.6449C213.057 82.5673 213.134 82.5518 213.165 82.6449C213.887 85.0947 230.747 91.6277 218.909 76.0797C218.971 75.8859 224.094 83.8233 228.639 83.079C228.639 83.079 231.858 81.8618 229.911 77.4583C229.88 77.3962 229.942 77.3265 230.004 77.3575C230.694 77.6598 233.192 78.5049 234.681 75.7992C234.681 75.7992 235.844 73.7524 234.332 71.6825L234.316 71.6669L224.303 61.9527C224.303 61.9527 223.97 61.852 223.962 61.8442C223.706 61.7822 221.332 60.6193 220.107 62.9373L220.161 63.6661C220.146 63.7049 220.534 64.6817 220.394 66.3796C220.394 66.3796 220.029 67.651 219.021 67.5192C219.021 67.5192 214.508 65.985 215.035 70.0242C215.035 70.0242 216.69 73.8305 213.835 73.4611C213.835 73.4611 209.634 72.1518 209.365 75.5046Z" fill="#AB703B"/>
<path d="M203.978 88.605L203.457 88.1049C202.6 87.2755 202.6 85.9277 203.457 85.0983L205.755 82.8662C206.612 82.0368 207.996 82.0368 208.853 82.8662L209.373 83.3663C210.23 84.1957 210.23 85.5435 209.373 86.3729L207.075 88.605C206.219 89.4344 204.835 89.4344 203.978 88.605Z" fill="#DD9D63"/>
<path d="M221.947 59.6646C220.828 58.8565 220.046 58.007 219.236 57.04L221.947 59.6646C223.942 61.1058 227.005 62.4151 233.202 64.023L237.129 63.2592L260.588 63.6957C260.751 65.2232 260.97 67.7327 260.37 72.5335L234.62 71.9334L221.947 59.6646Z" fill="url(#paint7_linear_867_15971)"/>
<path d="M187.049 67.6782L192.504 76.2978L186.176 72.4244H160.808V67.6782H187.049Z" fill="#AB703B"/>
<path d="M186.826 76.3961L186.19 75.7604C185.143 74.706 185.143 72.9927 186.19 71.9383L192.674 65.3872C193.721 64.3328 195.412 64.3328 196.459 65.3872L197.095 66.0229C198.142 67.0773 198.142 68.7907 197.095 69.8451L190.611 76.3961C189.564 77.4505 187.873 77.4505 186.826 76.3961Z" fill="#DD9D63"/>
<path d="M191.549 81.9935L190.913 81.3578C189.866 80.3034 189.866 78.5901 190.913 77.5357L197.397 70.9846C198.444 69.9303 200.135 69.9303 201.182 70.9846L201.818 71.6204C202.865 72.6747 202.865 74.3881 201.818 75.4425L195.334 81.9935C194.287 83.0479 192.596 83.0479 191.549 81.9935Z" fill="#DD9D63"/>
<path d="M193.085 70.349C193.085 70.349 191.177 69.2016 192.317 67.3487C192.317 67.3487 193.628 65.3873 194.171 65.333L197.009 68.0077C197.009 68.0077 195.156 71.008 193.077 70.3568L193.085 70.349Z" fill="#EAAE78"/>
<path d="M197.948 75.9696C197.948 75.9696 196.04 74.8222 197.18 72.9693C197.18 72.9693 198.491 71.0079 199.034 70.9536L201.872 73.6283C201.872 73.6283 200.019 76.6286 197.94 75.9774L197.948 75.9696Z" fill="#EAAE78"/>
<path d="M197.226 86.4515L196.59 85.8157C195.543 84.7614 195.543 83.048 196.59 81.9936L201.43 77.1094C202.477 76.055 204.168 76.055 205.215 77.1094L205.851 77.7451C206.898 78.7995 206.898 80.5128 205.851 81.5672L201.011 86.4515C199.964 87.5058 198.274 87.5058 197.226 86.4515Z" fill="#DD9D63"/>
<path d="M202.09 82.0788C202.09 82.0788 200.182 80.9314 201.322 79.0785C201.322 79.0785 202.633 77.117 203.175 77.0627L206.014 79.7374C206.014 79.7374 204.16 82.7378 202.082 82.0865L202.09 82.0788Z" fill="#EAAE78"/>
<path d="M162.914 52.7114C162.914 52.7114 157.872 71.2792 164.263 80.1329H151.97L151.861 52.7036C151.861 52.7036 162.425 52.7036 162.914 52.7036V52.7114Z" fill="white"/>
</g>
<path d="M271.904 52.7852H266.971L269.302 80.1714H273.097L274.453 75.2267C276.491 65.4459 273.603 56.1903 271.904 52.7852Z" fill="white"/>
<path d="M150.092 52.7852H155.025L152.694 80.1714H148.899L147.543 75.2267C145.505 65.4459 148.393 56.1903 150.092 52.7852Z" fill="white"/>
<path d="M260.533 63.696C261.319 73.0794 258.824 78.553 257.478 80.1169H273.135C275.23 76.5381 275.208 67.6785 274.936 63.696H260.533Z" fill="#EFEFEF"/>
<path d="M161.19 63.4233C160.404 72.8067 162.954 78.6076 164.3 80.1715L148.861 80.2261C146.766 76.6473 146.569 67.1876 147.115 63.5324L161.19 63.4233Z" fill="#EFEFEF"/>
<circle cx="264.679" cy="75.1524" r="1.96396" fill="#D9D9D9"/>
<circle cx="156.989" cy="75.1524" r="1.96396" fill="#D9D9D9"/>
<path d="M206.699 86.2886C206.699 86.2886 205.473 85.5514 206.206 84.361C206.206 84.361 207.048 83.1008 207.397 83.0659L209.22 84.7844C209.22 84.7844 208.029 86.712 206.694 86.2936L206.699 86.2886Z" fill="#EAAE78"/>
<rect width="21.0469" height="1.98088" rx="0.990442" transform="matrix(1 8.74228e-08 8.74228e-08 -1 130.265 103.024)" fill="url(#paint8_linear_867_15971)"/>
<rect width="14.609" height="1.98088" rx="0.990442" transform="matrix(1 8.74228e-08 8.74228e-08 -1 140.417 109.71)" fill="url(#paint9_linear_867_15971)"/>
<rect width="14.609" height="1.98088" rx="0.990442" transform="matrix(1 8.74228e-08 8.74228e-08 -1 140.417 96.3386)" fill="url(#paint10_linear_867_15971)"/>
</g>
<g style="mix-blend-mode:multiply">
<path d="M174.54 109.181C173.494 109.181 172.472 108.871 171.602 108.29C170.732 107.709 170.054 106.883 169.654 105.916C169.254 104.95 169.149 103.887 169.353 102.861C169.557 101.835 170.061 100.893 170.8 100.153C171.54 99.4134 172.482 98.9097 173.508 98.7056C174.534 98.5016 175.597 98.6063 176.564 99.0066C177.53 99.4068 178.356 100.085 178.937 100.954C179.518 101.824 179.828 102.847 179.828 103.892C179.828 105.295 179.271 106.64 178.279 107.632C177.288 108.624 175.943 109.181 174.54 109.181V109.181Z" fill="white"/>
</g>
<path d="M174.54 109.181C173.494 109.181 172.472 108.871 171.602 108.289C170.732 107.708 170.055 106.882 169.654 105.916C169.254 104.95 169.149 103.886 169.353 102.861C169.557 101.835 170.061 100.892 170.801 100.153C171.54 99.4131 172.483 98.9094 173.508 98.7054C174.534 98.5013 175.598 98.6061 176.564 99.0063C177.53 99.4066 178.356 100.084 178.937 100.954C179.519 101.824 179.829 102.846 179.829 103.892C179.829 105.295 179.272 106.64 178.28 107.632C177.288 108.624 175.943 109.181 174.54 109.181V109.181Z" fill="white"/>
<path d="M178.704 91.0654C178.852 91.06 179.001 91.0853 179.139 91.1396C179.278 91.194 179.404 91.2762 179.509 91.3813C179.615 91.4863 179.697 91.6119 179.752 91.7502C179.807 91.8886 179.833 92.0368 179.829 92.1856C179.381 101.926 174.29 110.296 166.896 114.782C166.736 114.879 166.553 114.93 166.367 114.93C166.18 114.93 165.998 114.879 165.838 114.782C158.444 110.277 153.338 101.907 152.905 92.1856C152.901 92.0368 152.927 91.8886 152.981 91.7502C153.036 91.6119 153.119 91.4863 153.225 91.3813C153.33 91.2762 153.456 91.194 153.595 91.1396C153.733 91.0853 153.882 91.06 154.03 91.0654H154.458C156.46 91.0694 158.454 90.8157 160.391 90.3105C162.284 89.8194 164.11 89.0993 165.828 88.1663C165.993 88.0741 166.178 88.0256 166.367 88.0256C166.556 88.0256 166.741 88.0741 166.905 88.1663C168.613 89.095 170.425 89.8149 172.304 90.3105C174.241 90.8173 176.235 91.0726 178.237 91.0702L178.704 91.0654Z" fill="#B7CDE1"/>
<g filter="url(#filter1_d_867_15971)">
<g filter="url(#filter2_d_867_15971)">
<path d="M175.626 93.0918C175.738 93.0878 175.85 93.1069 175.955 93.148C176.06 93.1891 176.155 93.2513 176.235 93.3308C176.315 93.4102 176.377 93.5052 176.419 93.6099C176.461 93.7145 176.48 93.8266 176.477 93.9392C176.138 101.307 172.287 107.639 166.694 111.032C166.573 111.105 166.435 111.144 166.294 111.144C166.153 111.144 166.014 111.105 165.894 111.032C160.3 107.624 156.438 101.293 156.111 93.9392C156.107 93.8266 156.127 93.7145 156.169 93.6099C156.21 93.5052 156.273 93.4102 156.353 93.3308C156.432 93.2513 156.528 93.1891 156.632 93.148C156.737 93.1069 156.849 93.0878 156.962 93.0918H157.286C158.8 93.0949 160.308 92.903 161.773 92.5209C163.205 92.1493 164.586 91.6046 165.886 90.8989C166.011 90.8291 166.151 90.7925 166.294 90.7925C166.436 90.7925 166.577 90.8291 166.701 90.8989C167.992 91.6014 169.364 92.146 170.785 92.5209C172.25 92.9042 173.758 93.0973 175.273 93.0955L175.626 93.0918Z" fill="#F5F9FB"/>
</g>
</g>
<g style="mix-blend-mode:multiply">
<path d="M174.54 109.181C173.494 109.181 172.472 108.871 171.602 108.29C170.732 107.709 170.055 106.883 169.654 105.916C169.254 104.95 169.149 103.887 169.353 102.861C169.557 101.835 170.061 100.893 170.801 100.153C171.54 99.4134 172.483 98.9097 173.508 98.7056C174.534 98.5016 175.598 98.6063 176.564 99.0066C177.53 99.4068 178.356 100.085 178.937 100.954C179.519 101.824 179.829 102.847 179.829 103.892C179.829 105.295 179.272 106.64 178.28 107.632C177.288 108.624 175.943 109.181 174.54 109.181V109.181Z" fill="#36A168"/>
</g>
<path fill-rule="evenodd" clip-rule="evenodd" d="M173.425 104.296C173.474 104.346 173.532 104.385 173.597 104.412C173.661 104.439 173.73 104.452 173.8 104.452C173.869 104.452 173.938 104.439 174.003 104.412C174.067 104.385 174.126 104.346 174.175 104.296L176.199 102.272C176.275 102.207 176.373 102.174 176.473 102.178C176.574 102.182 176.669 102.223 176.74 102.294C176.81 102.365 176.852 102.46 176.856 102.56C176.86 102.66 176.826 102.758 176.761 102.835L174.059 105.513C174.023 105.549 173.979 105.578 173.931 105.598C173.884 105.618 173.832 105.628 173.78 105.628C173.729 105.628 173.677 105.618 173.63 105.598C173.582 105.578 173.538 105.549 173.502 105.513L172.3 104.316C172.235 104.239 172.201 104.141 172.205 104.041C172.209 103.941 172.251 103.846 172.321 103.775C172.392 103.704 172.487 103.662 172.588 103.658C172.688 103.654 172.786 103.688 172.862 103.753L173.425 104.296Z" fill="white"/>
<path d="M29.8563 31.8562L32.5 27L35.1532 31.8562L40 34.4906L35.1438 37.1438L32.5 42L29.8656 37.1438L25 34.4906L29.8563 31.8562Z" fill="#F7993B"/>
<path d="M360.856 95.8562L363.5 91L366.153 95.8562L371 98.4906L366.144 101.144L363.5 106L360.866 101.144L356 98.4906L360.856 95.8562Z" fill="#FE90A0"/>
<g filter="url(#filter3_d_867_15971)">
<path d="M299 0H387V21.3514C387 24.6651 384.314 27.3514 381 27.3514H305C301.686 27.3514 299 24.6651 299 21.3514V0Z" fill="#BE9B74"/>
<path d="M316.376 10.9346H315.618V14.4272C315.618 15.029 315.504 15.6089 315.278 16.167C315.051 16.7251 314.671 17.183 314.139 17.5405C313.607 17.8981 312.888 18.0769 311.981 18.0769C310.69 18.0769 309.779 17.7237 309.247 17.0173C308.715 16.3022 308.449 15.4868 308.449 14.5711V10.9346H307.69V9.44334H311.196V10.9346H310.202V14.5188C310.202 15.1031 310.342 15.5871 310.621 15.9708C310.908 16.3458 311.392 16.5333 312.073 16.5333C312.744 16.5333 313.228 16.3414 313.525 15.9577C313.83 15.574 313.982 15.0638 313.982 14.4272V10.9346H312.988V9.44334H316.376V10.9346ZM324.366 12.2165C324.366 13.1845 324.047 13.9084 323.411 14.388C322.783 14.8589 322.05 15.0944 321.213 15.0944H319.905V16.4548H321.213V17.946H317.236V16.4548H318.152V10.9346H317.236V9.44334H321.135C322.19 9.44334 322.992 9.69188 323.541 10.189C324.091 10.686 324.366 11.3619 324.366 12.2165ZM322.482 12.2427C322.482 11.8241 322.364 11.5014 322.129 11.2747C321.902 11.048 321.496 10.9346 320.912 10.9346H319.905V13.6162H320.886C321.488 13.6162 321.902 13.4898 322.129 13.2369C322.364 12.984 322.482 12.6526 322.482 12.2427ZM332.314 17.0435C332.035 17.3487 331.586 17.5972 330.967 17.7891C330.357 17.9809 329.746 18.0769 329.136 18.0769C327.924 18.0769 326.908 17.6888 326.088 16.9126C325.268 16.1278 324.858 15.1031 324.858 13.8386C324.858 13.1758 324.998 12.4956 325.277 11.7979C325.556 11.1003 326.014 10.5116 326.65 10.032C327.287 9.55235 328.142 9.31253 329.214 9.31253C329.938 9.31253 330.562 9.42154 331.085 9.63956C331.608 9.84886 332.005 10.08 332.275 10.3329L332.484 12.3081L331.059 12.4389L330.875 11.3139C330.649 11.1657 330.374 11.0523 330.051 10.9738C329.729 10.8953 329.423 10.8561 329.136 10.8561C328.403 10.8561 327.819 11.1003 327.383 11.5886C326.956 12.077 326.742 12.7877 326.742 13.7209C326.742 14.7063 326.977 15.4214 327.448 15.8662C327.919 16.3109 328.521 16.5333 329.253 16.5333C329.942 16.5333 330.483 16.4156 330.875 16.1801L331.059 14.9112L332.484 15.042L332.314 17.0435ZM341.962 13.6816C341.962 14.8851 341.574 15.9185 340.798 16.7818C340.031 17.6452 338.958 18.0769 337.58 18.0769C336.194 18.0769 335.13 17.6452 334.388 16.7818C333.647 15.9185 333.277 14.8938 333.277 13.7078C333.277 12.4694 333.669 11.4273 334.454 10.5814C335.239 9.73549 336.298 9.31253 337.633 9.31253C338.993 9.31253 340.053 9.74421 340.811 10.6076C341.579 11.4622 341.962 12.4869 341.962 13.6816ZM340.066 13.7339C340.066 12.827 339.856 12.1206 339.438 11.6148C339.019 11.109 338.413 10.8561 337.619 10.8561C336.774 10.8561 336.154 11.1264 335.762 11.6671C335.37 12.1991 335.173 12.8662 335.173 13.6685C335.173 14.4447 335.365 15.1162 335.749 15.683C336.133 16.2499 336.774 16.5333 337.672 16.5333C338.5 16.5333 339.106 16.276 339.49 15.7615C339.874 15.2383 340.066 14.5624 340.066 13.7339ZM353.502 10.9346H352.456V16.4548H353.371V17.946H349.957V16.4548H350.703V13.2107H350.65L348.414 17.2527H347.681L345.274 13.0537H345.222V16.4548H346.033V17.946H342.671V16.4548H343.587V10.9346H342.54V9.44334H345.052L348.074 14.715H348.126L350.964 9.44334H353.502V10.9346ZM358.007 17.946H354.423V16.4548H355.339V10.9346H354.423V9.44334H358.007V10.9346H357.091V16.4548H358.007V17.946ZM368.1 10.9346H367.184V17.946L366.203 17.9591L361.638 12.5566H361.586V16.4548H362.763V17.946H359.035V16.4548H359.951V10.9346H358.891V9.44334H361.206L365.497 14.4926H365.549V10.9346H364.32V9.44334H368.1V10.9346ZM376.917 14.7281H376.498V17.946H375.138L374.968 17.0565C374.706 17.3618 374.371 17.6103 373.961 17.8022C373.56 17.9853 373.084 18.0769 372.535 18.0769C371.34 18.0769 370.39 17.6626 369.683 16.8342C368.986 16.0057 368.637 14.981 368.637 13.7601C368.637 12.5392 369.007 11.4927 369.749 10.6206C370.49 9.74857 371.58 9.31253 373.019 9.31253C373.708 9.31253 374.331 9.41282 374.889 9.6134C375.456 9.81397 375.879 10.0538 376.158 10.3329L376.394 12.1773L374.981 12.3081L374.746 11.3139C374.519 11.1657 374.231 11.0523 373.882 10.9738C373.542 10.8953 373.228 10.8561 372.94 10.8561C372.243 10.8561 371.663 11.0916 371.201 11.5625C370.747 12.0334 370.52 12.7572 370.52 13.7339C370.52 14.6758 370.734 15.3778 371.161 15.84C371.597 16.3022 372.16 16.5333 372.849 16.5333C373.424 16.5333 373.882 16.3807 374.222 16.0755C374.562 15.7702 374.732 15.3385 374.732 14.7804V14.7281H373.071V13.2499H376.917V14.7281Z" fill="#FAF8F5"/>
</g>
</g>
<defs>
<filter id="filter0_d_867_15971" x="111.278" y="-38" width="208" height="208" filterUnits="userSpaceOnUse" color-interpolation-filters="sRGB">
<feFlood flood-opacity="0" result="BackgroundImageFix"/>
<feColorMatrix in="SourceAlpha" type="matrix" values="0 0 0 0 0 0 0 0 0 0 0 0 0 0 0 0 0 0 127 0" result="hardAlpha"/>
<feOffset dx="5"/>
<feGaussianBlur stdDeviation="5"/>
<feComposite in2="hardAlpha" operator="out"/>
<feColorMatrix type="matrix" values="0 0 0 0 0 0 0 0 0 0 0 0 0 0 0 0 0 0 0.25 0"/>
<feBlend mode="normal" in2="BackgroundImageFix" result="effect1_dropShadow_867_15971"/>
<feBlend mode="normal" in="SourceGraphic" in2="effect1_dropShadow_867_15971" result="shape"/>
</filter>
<filter id="filter1_d_867_15971" x="155.378" y="90.646" width="21.8317" height="21.8163" filterUnits="userSpaceOnUse" color-interpolation-filters="sRGB">
<feFlood flood-opacity="0" result="BackgroundImageFix"/>
<feColorMatrix in="SourceAlpha" type="matrix" values="0 0 0 0 0 0 0 0 0 0 0 0 0 0 0 0 0 0 127 0" result="hardAlpha"/>
<feOffset dy="0.586084"/>
<feGaussianBlur stdDeviation="0.366302"/>
<feComposite in2="hardAlpha" operator="out"/>
<feColorMatrix type="matrix" values="0 0 0 0 1 0 0 0 0 1 0 0 0 0 1 0 0 0 0.25 0"/>
<feBlend mode="normal" in2="BackgroundImageFix" result="effect1_dropShadow_867_15971"/>
<feBlend mode="normal" in="SourceGraphic" in2="effect1_dropShadow_867_15971" result="shape"/>
</filter>
<filter id="filter2_d_867_15971" x="154.938" y="89.6203" width="22.7108" height="22.6954" filterUnits="userSpaceOnUse" color-interpolation-filters="sRGB">
<feFlood flood-opacity="0" result="BackgroundImageFix"/>
<feColorMatrix in="SourceAlpha" type="matrix" values="0 0 0 0 0 0 0 0 0 0 0 0 0 0 0 0 0 0 127 0" result="hardAlpha"/>
<feOffset/>
<feGaussianBlur stdDeviation="0.586084"/>
<feComposite in2="hardAlpha" operator="out"/>
<feColorMatrix type="matrix" values="0 0 0 0 1 0 0 0 0 1 0 0 0 0 1 0 0 0 1 0"/>
<feBlend mode="normal" in2="BackgroundImageFix" result="effect1_dropShadow_867_15971"/>
<feBlend mode="normal" in="SourceGraphic" in2="effect1_dropShadow_867_15971" result="shape"/>
</filter>
<filter id="filter3_d_867_15971" x="295" y="-2" width="96" height="35.3513" filterUnits="userSpaceOnUse" color-interpolation-filters="sRGB">
<feFlood flood-opacity="0" result="BackgroundImageFix"/>
<feColorMatrix in="SourceAlpha" type="matrix" values="0 0 0 0 0 0 0 0 0 0 0 0 0 0 0 0 0 0 127 0" result="hardAlpha"/>
<feOffset dy="2"/>
<feGaussianBlur stdDeviation="2"/>
<feComposite in2="hardAlpha" operator="out"/>
<feColorMatrix type="matrix" values="0 0 0 0 0 0 0 0 0 0 0 0 0 0 0 0 0 0 0.15 0"/>
<feBlend mode="normal" in2="BackgroundImageFix" result="effect1_dropShadow_867_15971"/>
<feBlend mode="normal" in="SourceGraphic" in2="effect1_dropShadow_867_15971" result="shape"/>
</filter>
<linearGradient id="paint0_linear_867_15971" x1="21.0469" y1="0.990436" x2="3.25023e-08" y2="0.990436" gradientUnits="userSpaceOnUse">
<stop stop-color="#FFBA67"/>
<stop offset="1" stop-color="#D9D9D9" stop-opacity="0"/>
</linearGradient>
<linearGradient id="paint1_linear_867_15971" x1="14.609" y1="0.990436" x2="2.25604e-08" y2="0.990436" gradientUnits="userSpaceOnUse">
<stop stop-color="#FFBA67"/>
<stop offset="1" stop-color="#D9D9D9" stop-opacity="0"/>
</linearGradient>
<linearGradient id="paint2_linear_867_15971" x1="14.609" y1="0.990436" x2="2.25604e-08" y2="0.990436" gradientUnits="userSpaceOnUse">
<stop stop-color="#FFBA67"/>
<stop offset="1" stop-color="#D9D9D9" stop-opacity="0"/>
</linearGradient>
<linearGradient id="paint3_linear_867_15971" x1="258.11" y1="20.7091" x2="234.353" y2="41.9842" gradientUnits="userSpaceOnUse">
<stop stop-color="#A27847"/>
<stop offset="1" stop-color="#FEA43A"/>
</linearGradient>
<linearGradient id="paint4_linear_867_15971" x1="258.11" y1="20.7091" x2="234.353" y2="41.9842" gradientUnits="userSpaceOnUse">
<stop stop-color="#A27847"/>
<stop offset="1" stop-color="#FEA43A"/>
</linearGradient>
<linearGradient id="paint5_linear_867_15971" x1="258.127" y1="19.7738" x2="234.407" y2="41.0164" gradientUnits="userSpaceOnUse">
<stop stop-color="#FCC481"/>
<stop offset="1" stop-color="#FEA43A"/>
</linearGradient>
<linearGradient id="paint6_linear_867_15971" x1="258.127" y1="19.7738" x2="234.407" y2="41.0164" gradientUnits="userSpaceOnUse">
<stop stop-color="#FCC481"/>
<stop offset="1" stop-color="#FEA43A"/>
</linearGradient>
<linearGradient id="paint7_linear_867_15971" x1="240.021" y1="71.7697" x2="240.021" y2="58.2948" gradientUnits="userSpaceOnUse">
<stop stop-color="#CB8B51"/>
<stop offset="1" stop-color="#CB8B51" stop-opacity="0"/>
</linearGradient>
<linearGradient id="paint8_linear_867_15971" x1="21.0469" y1="0.990436" x2="3.25023e-08" y2="0.990436" gradientUnits="userSpaceOnUse">
<stop stop-color="#FFBA67"/>
<stop offset="1" stop-color="#D9D9D9" stop-opacity="0"/>
</linearGradient>
<linearGradient id="paint9_linear_867_15971" x1="14.609" y1="0.990436" x2="2.25604e-08" y2="0.990436" gradientUnits="userSpaceOnUse">
<stop stop-color="#FFBA67"/>
<stop offset="1" stop-color="#D9D9D9" stop-opacity="0"/>
</linearGradient>
<linearGradient id="paint10_linear_867_15971" x1="14.609" y1="0.990436" x2="2.25604e-08" y2="0.990436" gradientUnits="userSpaceOnUse">
<stop stop-color="#FFBA67"/>
<stop offset="1" stop-color="#D9D9D9" stop-opacity="0"/>
</linearGradient>
<clipPath id="clip0_867_15971">
<rect width="420" height="131" fill="white"/>
</clipPath>
<clipPath id="clip1_867_15971">
<rect width="118.056" height="44.5163" fill="white" transform="translate(151.861 46.1294)"/>
</clipPath>
</defs>
</svg>
