<svg viewBox="0 0 420 131" fill="none" xmlns="http://www.w3.org/2000/svg">
<g clip-path="url(#clip0_614_19227)">
<rect width="420" height="131" fill="#C7EFF0"/>
<path d="M-55 102.654L41 102.654L56.5 89H421.5" stroke="#41C9CD" stroke-width="0.692308"/>
<path d="M427 38.654H115L99.5 25H-55" stroke="#41C9CD" stroke-width="0.692308"/>
<circle cx="18.5" cy="102.5" r="4.5" fill="#41C9CD"/>
<circle cx="259.5" cy="88.5" r="4.5" fill="#41C9CD"/>
<g filter="url(#filter0_d_614_19227)">
<rect x="74" y="61" width="57" height="57" rx="11.0323" fill="#F3FCFC"/>
<rect x="74.4597" y="61.4597" width="56.0806" height="56.0806" rx="10.5726" stroke="#41C9CD" stroke-width="0.919355"/>
<path fill-rule="evenodd" clip-rule="evenodd" d="M89.9588 99.9712L90.5042 94.121L97.5293 91.1919L99.6696 93.3322L97.0081 100.625L91.5511 101.47C91.2073 101.523 90.8796 101.446 90.6115 101.28L93.4457 98.2098C93.6274 98.3076 93.8353 98.3631 94.0562 98.3631C94.7688 98.3631 95.3464 97.7854 95.3464 97.0729C95.3464 96.3603 94.7688 95.7827 94.0562 95.7827C93.3437 95.7827 92.766 96.3603 92.766 97.0729C92.766 97.3306 92.8416 97.5706 92.9717 97.7721L90.1557 100.823C90.0059 100.579 89.9296 100.285 89.9588 99.9712Z" fill="white"/>
<path d="M113.456 72.9913C113.973 72.7264 114.595 72.8338 115.006 73.2446L117.581 75.8194C117.987 76.2259 118.097 76.8393 117.841 77.3539C116.813 79.4183 114.031 84.7072 111.151 87.6027C107.475 91.2974 99.9292 94.8252 99.9292 94.8252L95.9915 90.8876C95.9915 90.8876 99.5984 83.4087 103.287 79.7388C106.171 76.8694 111.4 74.045 113.456 72.9913Z" fill="#FFE9CB"/>
<g style="mix-blend-mode:multiply">
<path fill-rule="evenodd" clip-rule="evenodd" d="M89.9588 99.9712L90.5042 94.121L97.5293 91.1919L99.6696 93.3322L97.0081 100.625L91.5511 101.47C91.2073 101.523 90.8796 101.446 90.6115 101.28L93.4457 98.2097C93.6275 98.3075 93.8354 98.363 94.0562 98.363C94.7688 98.363 95.3464 97.7854 95.3464 97.0728C95.3464 96.3603 94.7688 95.7826 94.0562 95.7826C93.3437 95.7826 92.766 96.3603 92.766 97.0728C92.766 97.3305 92.8416 97.5706 92.9717 97.7721L90.1557 100.823C90.0059 100.579 89.9296 100.285 89.9588 99.9712Z" fill="#FEB452"/>
</g>
<path d="M89.856 103.377C90.1267 102.676 90.901 102.313 91.6133 102.552L95.1223 103.729C95.5829 103.884 96.0852 103.856 96.5256 103.651L98.7875 102.598C99.2952 102.362 99.8813 102.362 100.389 102.598L104.158 104.355C104.843 104.675 105.163 105.471 104.891 106.176C104.598 106.934 103.735 107.299 102.988 106.98L99.9452 105.686C99.4987 105.496 98.9963 105.485 98.5415 105.654L96.1571 106.541C95.7574 106.69 95.3192 106.7 94.9134 106.569L90.735 105.22C89.9671 104.972 89.5653 104.13 89.856 103.377Z" fill="#6D67CE"/>
<g style="mix-blend-mode:multiply">
<rect x="115.278" y="75.6885" width="2.67608" height="11.6183" rx="1.33804" transform="rotate(45 115.278 75.6885)" fill="#FEB452"/>
</g>
</g>
<g filter="url(#filter1_d_614_19227)">
<rect x="297" y="61" width="57" height="57" rx="11.0323" fill="#F3FCFC"/>
<rect x="297.46" y="61.4597" width="56.0806" height="56.0806" rx="10.5726" stroke="#41C9CD" stroke-width="0.919355"/>
<path d="M341.225 99.394L337.846 95.6834C339.22 93.9314 339.88 91.7284 339.695 89.5134C339.51 87.2984 338.494 85.2341 336.849 83.7317C335.204 82.2292 333.051 81.399 330.819 81.4063C328.586 81.4136 326.439 82.258 324.804 83.7712C323.169 85.2844 322.166 87.3554 321.996 89.5715C321.826 91.7876 322.501 93.9862 323.886 95.7293C325.271 97.4723 327.265 98.6319 329.47 98.977C331.675 99.322 333.93 98.8272 335.785 97.5912L339.238 101.367C339.325 101.454 339.429 101.523 339.542 101.57C339.656 101.616 339.778 101.641 339.901 101.641C340.024 101.641 340.146 101.616 340.26 101.57C340.374 101.523 340.477 101.454 340.564 101.367L341.225 100.705C341.398 100.53 341.495 100.295 341.495 100.049C341.495 99.804 341.398 99.5686 341.225 99.394ZM323.511 90.2215C323.511 88.7777 323.941 87.3664 324.747 86.166C325.552 84.9656 326.697 84.0299 328.037 83.4774C329.377 82.925 330.851 82.7804 332.273 83.062C333.695 83.3437 335.002 84.039 336.027 85.0598C337.052 86.0807 337.751 87.3814 338.033 88.7974C338.316 90.2134 338.171 91.6811 337.616 93.015C337.061 94.3488 336.122 95.4889 334.916 96.291C333.71 97.0931 332.293 97.5212 330.843 97.5212C328.898 97.5212 327.033 96.7522 325.658 95.3832C324.284 94.0142 323.511 92.1575 323.511 90.2215Z" fill="white"/>
<path fill-rule="evenodd" clip-rule="evenodd" d="M324.946 101.133V98.75H309.807C309.676 98.75 309.55 98.802 309.458 98.8945C309.365 98.9871 309.313 99.1126 309.313 99.2434V101.133C309.303 101.641 309.393 102.146 309.577 102.619C309.762 103.093 310.038 103.525 310.39 103.892C310.742 104.258 311.163 104.552 311.628 104.756C312.094 104.96 312.595 105.07 313.103 105.08H328.736C328.228 105.07 327.727 104.96 327.261 104.756C326.796 104.552 326.375 104.258 326.023 103.892C325.671 103.525 325.395 103.093 325.21 102.619C325.025 102.146 324.936 101.641 324.946 101.133Z" fill="white"/>
<path fill-rule="evenodd" clip-rule="evenodd" d="M324.132 77.2719V80.25H339.453C339.585 80.25 339.712 80.1979 339.806 80.1051C339.9 80.0122 339.952 79.8864 339.952 79.7551V77.2719C339.963 76.7623 339.872 76.2556 339.685 75.7808C339.498 75.306 339.219 74.8724 338.862 74.5047C338.506 74.1371 338.08 73.8425 337.609 73.6379C337.138 73.4334 336.631 73.3228 336.117 73.3125H320.297C320.811 73.3228 321.318 73.4334 321.789 73.6379C322.26 73.8425 322.686 74.1371 323.042 74.5047C323.398 74.8724 323.678 75.306 323.865 75.7808C324.052 76.2556 324.143 76.7623 324.132 77.2719Z" fill="white"/>
<g style="mix-blend-mode:multiply">
<path fill-rule="evenodd" clip-rule="evenodd" d="M324.132 77.2719V80.25H339.453C339.585 80.25 339.712 80.1979 339.806 80.1051C339.9 80.0122 339.952 79.8864 339.952 79.7551V77.2719C339.963 76.7623 339.872 76.2556 339.685 75.7808C339.498 75.306 339.219 74.8724 338.862 74.5047C338.506 74.1371 338.08 73.8425 337.609 73.6379C337.138 73.4334 336.631 73.3228 336.117 73.3125H320.297C320.811 73.3228 321.318 73.4334 321.789 73.6379C322.26 73.8425 322.686 74.1371 323.042 74.5047C323.398 74.8724 323.678 75.306 323.865 75.7808C324.052 76.2556 324.143 76.7623 324.132 77.2719Z" fill="#FEB452"/>
</g>
<path fill-rule="evenodd" clip-rule="evenodd" d="M332.493 77.2604V80.2211H317.197C317.066 80.2211 316.94 80.1691 316.848 80.0766C316.755 79.9841 316.703 79.8586 316.703 79.7277V77.2604C316.693 76.7523 316.782 76.2472 316.967 75.7738C317.152 75.3004 317.428 74.868 317.78 74.5015C318.132 74.1349 318.553 73.8412 319.018 73.6372C319.484 73.4333 319.985 73.323 320.493 73.3127H336.283C335.775 73.323 335.274 73.4333 334.808 73.6372C334.343 73.8412 333.922 74.1349 333.57 74.5015C333.218 74.868 332.942 75.3004 332.757 75.7738C332.572 76.2472 332.483 76.7523 332.493 77.2604Z" fill="#FFE9CB"/>
<path d="M312.203 77.3594C312.203 75.1243 314.015 73.3125 316.25 73.3125H332.438V101.062C332.438 103.298 330.626 105.109 328.391 105.109H313.359C312.721 105.109 312.203 104.592 312.203 103.953V77.3594Z" fill="#FFE9CB"/>
<path fill-rule="evenodd" clip-rule="evenodd" d="M324.946 101.133V98.75H309.807C309.676 98.75 309.55 98.802 309.458 98.8945C309.365 98.9871 309.313 99.1126 309.313 99.2434V101.133C309.303 101.641 309.393 102.146 309.577 102.619C309.762 103.093 310.038 103.525 310.39 103.892C310.742 104.258 311.163 104.552 311.628 104.756C312.094 104.96 312.595 105.07 313.103 105.08H328.736C328.228 105.07 327.727 104.96 327.261 104.756C326.796 104.552 326.375 104.258 326.023 103.892C325.671 103.525 325.395 103.093 325.21 102.619C325.025 102.146 324.936 101.641 324.946 101.133Z" fill="#FEB452"/>
<path d="M330.736 95.8594C332.074 95.8593 333.37 95.3955 334.404 94.547C335.437 93.6986 336.145 92.5179 336.406 91.2062C336.667 89.8945 336.465 88.5329 335.835 87.3533C335.204 86.1738 334.185 85.2492 332.949 84.7372C331.713 84.2253 330.339 84.1575 329.059 84.5455C327.779 84.9335 326.673 85.7532 325.93 86.865C325.186 87.9769 324.852 89.3121 324.982 90.6431C325.113 91.9741 325.701 93.2186 326.646 94.1647C327.731 95.2492 329.202 95.8587 330.736 95.8594Z" fill="#FEB452"/>
<g style="mix-blend-mode:multiply">
<path d="M341.225 99.394L337.846 95.6834C339.22 93.9314 339.88 91.7284 339.695 89.5134C339.51 87.2984 338.494 85.2341 336.849 83.7317C335.204 82.2292 333.051 81.399 330.819 81.4063C328.586 81.4136 326.439 82.258 324.804 83.7712C323.169 85.2844 322.166 87.3554 321.996 89.5715C321.826 91.7876 322.501 93.9862 323.886 95.7293C325.271 97.4723 327.265 98.6319 329.47 98.977C331.675 99.322 333.93 98.8272 335.785 97.5912L339.238 101.367C339.325 101.454 339.429 101.523 339.542 101.57C339.656 101.616 339.778 101.641 339.901 101.641C340.024 101.641 340.146 101.616 340.26 101.57C340.374 101.523 340.477 101.454 340.564 101.367L341.225 100.705C341.398 100.53 341.495 100.295 341.495 100.049C341.495 99.804 341.398 99.5686 341.225 99.394ZM323.511 90.2215C323.511 88.7777 323.941 87.3664 324.747 86.166C325.552 84.9656 326.697 84.0299 328.037 83.4774C329.377 82.925 330.851 82.7804 332.273 83.062C333.695 83.3437 335.002 84.039 336.027 85.0598C337.052 86.0807 337.751 87.3814 338.033 88.7974C338.316 90.2134 338.171 91.6811 337.616 93.015C337.061 94.3488 336.122 95.4889 334.916 96.291C333.71 97.0931 332.293 97.5212 330.843 97.5212C328.898 97.5212 327.033 96.7522 325.658 95.3832C324.284 94.0142 323.511 92.1575 323.511 90.2215Z" fill="#6D67CE"/>
</g>
<g style="mix-blend-mode:multiply" opacity="0.3">
<path d="M330.922 97.6845C335.062 97.6845 338.418 94.3432 338.418 90.2215C338.418 86.0998 335.062 82.7585 330.922 82.7585C326.783 82.7585 323.427 86.0998 323.427 90.2215C323.427 94.3432 326.783 97.6845 330.922 97.6845Z" fill="#FFE1BA"/>
</g>
<path d="M333.547 86.9949H328.423V87.7977H330.039C330.792 87.7977 331.268 88.1643 331.397 88.7689H328.423V89.4725H331.397C331.268 90.0771 330.782 90.4339 330.039 90.4339H328.423V91.2366H330.138L331.575 93.9324H332.616L331.07 91.1078C331.763 90.86 332.229 90.2555 332.338 89.4725H333.547V88.7689H332.338C332.279 88.3427 332.11 87.986 331.813 87.6985H333.547V86.9949Z" fill="white"/>
</g>
<g filter="url(#filter2_d_614_19227)">
<rect x="186" y="10" width="57" height="57" rx="11.0323" fill="#F3FCFC"/>
<rect x="186.46" y="10.4597" width="56.0806" height="56.0806" rx="10.5726" stroke="#41C9CD" stroke-width="0.919355"/>
<path d="M204.481 38.7542H200.688V48.8671H204.481V38.7542Z" fill="white"/>
<path d="M212.698 38.7542H208.905V48.8671H212.698V38.7542Z" fill="white"/>
<path d="M221.546 38.7542H217.754V48.8671H221.546V38.7542Z" fill="white"/>
<path d="M229.763 38.7542H225.971V48.8671H229.763V38.7542Z" fill="white"/>
<path d="M231.659 48.8667H198.792C198.094 48.8667 197.528 49.4327 197.528 50.1308V52.659C197.528 53.3572 198.094 53.9232 198.792 53.9232H231.659C232.357 53.9232 232.923 53.3572 232.923 52.659V50.1308C232.923 49.4327 232.357 48.8667 231.659 48.8667Z" fill="#B7CDE1"/>
<path d="M231.659 38.754H198.792C198.457 38.754 198.136 38.6208 197.898 38.3837C197.661 38.1466 197.528 37.8251 197.528 37.4899V35.5937C197.528 35.3921 197.576 35.1933 197.669 35.0141C197.761 34.8349 197.895 34.6804 198.059 34.5634L214.493 22.8261C214.707 22.6737 214.963 22.5918 215.226 22.5918C215.489 22.5918 215.745 22.6737 215.959 22.8261L232.392 34.5634C232.557 34.6804 232.691 34.8349 232.783 35.0141C232.875 35.1933 232.923 35.3921 232.923 35.5937V37.4899C232.923 37.8251 232.79 38.1466 232.553 38.3837C232.316 38.6208 231.995 38.754 231.659 38.754Z" fill="#B7CDE1"/>
<g style="mix-blend-mode:multiply">
<path d="M204.481 36.8579H200.688V50.7632H204.481V36.8579Z" fill="#B7CDE1"/>
</g>
<g style="mix-blend-mode:multiply">
<path d="M212.698 36.8579H208.905V50.7632H212.698V36.8579Z" fill="#B7CDE1"/>
</g>
<g style="mix-blend-mode:multiply">
<path d="M221.546 36.8579H217.754V50.7632H221.546V36.8579Z" fill="#B7CDE1"/>
</g>
<g style="mix-blend-mode:multiply">
<path d="M229.763 36.8579H225.971V50.7632H229.763V36.8579Z" fill="#B7CDE1"/>
</g>
<path d="M227.943 24.2894L228.675 22.9526L229.404 24.2894L230.748 25.0251L229.404 25.7574L228.675 27.0976L227.943 25.7574L226.603 25.0251L227.943 24.2894Z" fill="#42CACD"/>
<path d="M198.685 39.651L199.659 37.8618L200.637 39.651L202.423 40.6216L200.633 41.5992L199.659 43.3884L198.689 41.5992L196.896 40.6216L198.685 39.651Z" fill="#FEB452"/>
<g style="mix-blend-mode:multiply" opacity="0.8">
<path fill-rule="evenodd" clip-rule="evenodd" d="M231.265 46.7637C231.268 47.8508 230.948 48.914 230.345 49.819C229.743 50.7239 228.886 51.4297 227.883 51.8471C226.879 52.2645 225.774 52.3747 224.708 52.1638C223.642 51.9528 222.662 51.4302 221.893 50.6621C221.124 49.894 220.601 48.9148 220.388 47.8488C220.176 46.7827 220.284 45.6775 220.7 44.6731C221.116 43.6689 221.821 42.8105 222.724 42.2069C223.628 41.6032 224.691 41.2814 225.778 41.2822C226.498 41.2808 227.211 41.4215 227.877 41.696C228.543 41.9706 229.148 42.3738 229.658 42.8824C230.686 43.9108 231.264 45.3054 231.265 46.7598V46.7637Z" fill="#42CACD"/>
</g>
<g style="mix-blend-mode:multiply" opacity="0.8">
<path fill-rule="evenodd" clip-rule="evenodd" d="M231.265 46.7637C231.268 47.8508 230.948 48.914 230.345 49.819C229.743 50.7239 228.886 51.4297 227.883 51.8471C226.879 52.2645 225.774 52.3747 224.708 52.1638C223.642 51.9528 222.662 51.4302 221.893 50.6621C221.124 49.894 220.601 48.9148 220.388 47.8488C220.176 46.7827 220.284 45.6775 220.7 44.6731C221.116 43.6689 221.821 42.8105 222.724 42.2069C223.628 41.6032 224.691 41.2814 225.778 41.2822C226.498 41.2808 227.211 41.4215 227.877 41.696C228.543 41.9706 229.148 42.3738 229.658 42.8824C230.686 43.9108 231.264 45.3054 231.265 46.7598V46.7637Z" fill="#42CACD"/>
</g>
<path fill-rule="evenodd" clip-rule="evenodd" d="M226.62 45.2909C226.44 45.2163 226.246 45.178 226.051 45.1783C225.811 45.1787 225.617 44.9846 225.616 44.7449C225.616 44.5052 225.81 44.3106 226.05 44.3103C226.359 44.3098 226.666 44.3705 226.952 44.4889C227.238 44.6072 227.498 44.7808 227.717 44.9998C227.936 45.2187 228.109 45.4787 228.228 45.765C228.346 46.0511 228.407 46.3579 228.407 46.6676C228.407 46.9073 228.213 47.1016 227.973 47.1016C227.734 47.1016 227.539 46.9073 227.539 46.6676C227.539 46.4718 227.501 46.2778 227.426 46.0969C227.351 45.9161 227.241 45.7518 227.103 45.6135C226.965 45.4753 226.801 45.3656 226.62 45.2909Z" fill="#42CACD"/>
<path fill-rule="evenodd" clip-rule="evenodd" d="M229.069 51.1299C227.96 51.965 226.574 52.3486 225.192 52.2033C223.811 52.058 222.536 51.3946 221.625 50.347C220.714 49.2995 220.235 47.9459 220.286 46.5597C220.336 45.1736 220.911 43.858 221.896 42.879C222.88 41.8999 224.2 41.3303 225.589 41.2851C226.977 41.24 228.331 41.7227 229.377 42.6357C230.423 43.5487 231.083 44.824 231.224 46.2039C231.364 47.584 230.975 48.9658 230.135 50.0703L234.114 54.0353C234.161 54.0826 234.187 54.1462 234.187 54.2126C234.187 54.2778 234.161 54.3402 234.114 54.3859L233.388 55.1142C233.341 55.1608 233.277 55.1872 233.211 55.1875C233.146 55.187 233.083 55.1606 233.037 55.1142L229.069 51.1299ZM229.606 46.7487C229.608 47.5127 229.383 48.2602 228.959 48.8962C228.535 49.5323 227.931 50.0281 227.224 50.3207C226.517 50.61 225.74 50.6864 224.989 50.5404C224.274 50.3946 223.616 50.0497 223.089 49.5453C222.563 49.0411 222.19 48.398 222.015 47.691C221.839 46.984 221.868 46.2417 222.098 45.5504C222.328 44.8591 222.75 44.247 223.314 43.7852C223.878 43.3233 224.562 43.0306 225.286 42.9408C226.01 42.8512 226.745 42.9682 227.405 43.2783C228.065 43.5886 228.624 44.0792 229.016 44.6934C229.408 45.3077 229.618 46.0203 229.621 46.7487H229.606Z" fill="#42CACD"/>
</g>
<circle cx="373.5" cy="38.5" r="4.5" fill="#41C9CD"/>
<circle cx="73.5" cy="24.5" r="4.5" fill="#41C9CD"/>
</g>
<defs>
<filter id="filter0_d_614_19227" x="70" y="61" width="65" height="65" filterUnits="userSpaceOnUse" color-interpolation-filters="sRGB">
<feFlood flood-opacity="0" result="BackgroundImageFix"/>
<feColorMatrix in="SourceAlpha" type="matrix" values="0 0 0 0 0 0 0 0 0 0 0 0 0 0 0 0 0 0 127 0" result="hardAlpha"/>
<feOffset dy="4"/>
<feGaussianBlur stdDeviation="2"/>
<feComposite in2="hardAlpha" operator="out"/>
<feColorMatrix type="matrix" values="0 0 0 0 0.258824 0 0 0 0 0.792157 0 0 0 0 0.803922 0 0 0 0.2 0"/>
<feBlend mode="normal" in2="BackgroundImageFix" result="effect1_dropShadow_614_19227"/>
<feBlend mode="normal" in="SourceGraphic" in2="effect1_dropShadow_614_19227" result="shape"/>
</filter>
<filter id="filter1_d_614_19227" x="293" y="61" width="65" height="65" filterUnits="userSpaceOnUse" color-interpolation-filters="sRGB">
<feFlood flood-opacity="0" result="BackgroundImageFix"/>
<feColorMatrix in="SourceAlpha" type="matrix" values="0 0 0 0 0 0 0 0 0 0 0 0 0 0 0 0 0 0 127 0" result="hardAlpha"/>
<feOffset dy="4"/>
<feGaussianBlur stdDeviation="2"/>
<feComposite in2="hardAlpha" operator="out"/>
<feColorMatrix type="matrix" values="0 0 0 0 0.258824 0 0 0 0 0.792157 0 0 0 0 0.803922 0 0 0 0.2 0"/>
<feBlend mode="normal" in2="BackgroundImageFix" result="effect1_dropShadow_614_19227"/>
<feBlend mode="normal" in="SourceGraphic" in2="effect1_dropShadow_614_19227" result="shape"/>
</filter>
<filter id="filter2_d_614_19227" x="182" y="10" width="65" height="65" filterUnits="userSpaceOnUse" color-interpolation-filters="sRGB">
<feFlood flood-opacity="0" result="BackgroundImageFix"/>
<feColorMatrix in="SourceAlpha" type="matrix" values="0 0 0 0 0 0 0 0 0 0 0 0 0 0 0 0 0 0 127 0" result="hardAlpha"/>
<feOffset dy="4"/>
<feGaussianBlur stdDeviation="2"/>
<feComposite in2="hardAlpha" operator="out"/>
<feColorMatrix type="matrix" values="0 0 0 0 0.258824 0 0 0 0 0.792157 0 0 0 0 0.803922 0 0 0 0.2 0"/>
<feBlend mode="normal" in2="BackgroundImageFix" result="effect1_dropShadow_614_19227"/>
<feBlend mode="normal" in="SourceGraphic" in2="effect1_dropShadow_614_19227" result="shape"/>
</filter>
<clipPath id="clip0_614_19227">
<rect width="420" height="131" fill="white"/>
</clipPath>
</defs>
</svg>
