<svg width="64" height="64" viewBox="0 0 64 64" fill="none" xmlns="http://www.w3.org/2000/svg">
<g clip-path="url(#clip0_437_2778)">
<path d="M42.38 7C42.9873 7 43.5698 7.24127 43.9992 7.67073C44.4287 8.10018 44.67 8.68265 44.67 9.29V52.79H40.09V9.29C40.09 8.68265 40.3312 8.10018 40.7607 7.67073C41.1902 7.24127 41.7726 7 42.38 7V7Z" fill="#B7CDE1"/>
<g style="mix-blend-mode:multiply">
<path d="M43.52 11.6901C43.5067 11.9332 43.5696 12.1744 43.7 12.3801C43.827 12.5865 44.016 12.7475 44.24 12.8401C44.6984 12.9887 45.0977 13.2794 45.38 13.6701C45.6578 14.0581 45.8081 14.5229 45.81 15.0001V19.5801C45.8099 19.735 45.8409 19.8883 45.901 20.031C45.9612 20.1738 46.0493 20.303 46.1602 20.4111C46.2712 20.5192 46.4026 20.604 46.5468 20.6605C46.691 20.717 46.8451 20.7441 47 20.7401C47.1505 20.7401 47.2996 20.7103 47.4385 20.6524C47.5775 20.5944 47.7036 20.5096 47.8096 20.4026C47.9156 20.2957 47.9994 20.1689 48.0561 20.0294C48.1128 19.8899 48.1413 19.7406 48.14 19.5901V15.0001C48.1403 14.0388 47.8396 13.1016 47.28 12.3201C46.7092 11.545 45.9129 10.9652 45 10.6601C44.8318 10.625 44.6582 10.625 44.49 10.6601C44.3241 10.693 44.1672 10.7612 44.03 10.8601C43.8923 10.9556 43.7792 11.0824 43.7 11.2301C43.6052 11.3674 43.5436 11.5249 43.52 11.6901V11.6901Z" fill="#1482FF"/>
</g>
<g style="mix-blend-mode:multiply">
<path d="M42.38 7C42.9873 7 43.5698 7.24127 43.9992 7.67073C44.4287 8.10018 44.67 8.68265 44.67 9.29V13.87H40.09V9.29C40.09 8.68265 40.3312 8.10018 40.7607 7.67073C41.1902 7.24127 41.7726 7 42.38 7V7Z" fill="#B7CDE1"/>
</g>
<path d="M41.86 56.29L40.09 52.79H44.67L42.89 56.35C42.8383 56.4448 42.7624 56.5242 42.67 56.58C42.5792 56.639 42.4732 56.6704 42.365 56.6704C42.2567 56.6704 42.1508 56.639 42.06 56.58C41.9633 56.5079 41.893 56.406 41.86 56.29V56.29Z" fill="#B7CDE1"/>
<g style="mix-blend-mode:multiply">
<path d="M41.86 56.29L40.09 52.79H44.67L42.89 56.35C42.8383 56.4448 42.7624 56.5242 42.67 56.58C42.5792 56.639 42.4732 56.6704 42.365 56.6704C42.2567 56.6704 42.1508 56.639 42.06 56.58C41.9633 56.5079 41.893 56.406 41.86 56.29V56.29Z" fill="#B7CDE1"/>
</g>
<path d="M30.93 7H33.22C33.3708 6.99973 33.5202 7.02967 33.6594 7.08807C33.7985 7.14646 33.9245 7.23212 34.03 7.34C34.246 7.55437 34.3683 7.84565 34.37 8.15V52.79H29.79V8.15C29.7886 7.99946 29.8172 7.85014 29.8738 7.71067C29.9305 7.5712 30.0143 7.44435 30.1203 7.33743C30.2263 7.23051 30.3524 7.14564 30.4914 7.08773C30.6303 7.02981 30.7794 7 30.93 7V7Z" fill="#B7CDE1"/>
<g style="mix-blend-mode:multiply">
<path d="M30.93 7H33.22C33.3708 6.99973 33.5202 7.02967 33.6594 7.08807C33.7985 7.14646 33.9245 7.23212 34.03 7.34C34.246 7.55437 34.3683 7.84565 34.37 8.15V10.44H29.79V8.15C29.7886 7.99946 29.8172 7.85014 29.8738 7.71067C29.9305 7.5712 30.0143 7.44435 30.1203 7.33743C30.2263 7.23051 30.3524 7.14564 30.4914 7.08773C30.6303 7.02981 30.7794 7 30.93 7V7Z" fill="#FE90A0"/>
</g>
<g style="mix-blend-mode:multiply">
<path d="M33.21 10.4399H30.89V52.7899H33.21V10.4399Z" fill="#B7CDE1"/>
</g>
<path d="M3.99996 36.6801C4.05886 36.1572 4.00079 35.6278 3.82996 35.1301C3.65381 34.6373 3.37031 34.1898 2.99996 33.8201C2.14366 33.2323 1.11708 32.944 0.0799561 33.0001V30.1901C1.12013 30.2608 2.15251 29.9674 2.99996 29.3601C3.36102 29.0157 3.63876 28.5936 3.81205 28.1257C3.98534 27.6578 4.04961 27.1565 3.99996 26.6601V23.0001C3.92077 21.7474 4.33334 20.5133 5.14996 19.5601C5.58713 19.1491 6.1062 18.8351 6.67317 18.6386C7.24013 18.4421 7.84221 18.3677 8.43996 18.4201H12.58V21.5301H10.46C10.0007 21.5299 9.54223 21.57 9.08996 21.6501C8.76066 21.7067 8.45299 21.8519 8.19996 22.0701C7.96226 22.3044 7.7988 22.6035 7.72996 22.9301C7.62032 23.3986 7.56993 23.879 7.57996 24.3601V27.5801C7.61859 28.0863 7.54944 28.5949 7.37707 29.0723C7.20469 29.5498 6.93301 29.9853 6.57996 30.3501C5.81903 30.9522 4.88911 31.3018 3.91996 31.3501V31.6201C4.91168 31.6772 5.85087 32.0847 6.56996 32.7701C6.92269 33.1384 7.19811 33.5736 7.37996 34.0501C7.552 34.534 7.62677 35.0472 7.59996 35.5601V38.7901C7.57995 39.2715 7.63048 39.7533 7.74996 40.2201C7.82099 40.5459 7.98413 40.8444 8.21996 41.0801C8.478 41.3025 8.79329 41.448 9.12996 41.5001C9.5883 41.5851 10.0538 41.6253 10.52 41.6201H12.64V44.7201H8.47996C7.28636 44.798 6.1095 44.4069 5.19996 43.6301C4.78492 43.1667 4.46885 42.6235 4.27111 42.0337C4.07336 41.4439 3.99811 40.82 4.04996 40.2001L3.99996 36.6801Z" fill="#FEB452"/>
<path d="M60.1299 40.1999C60.183 40.8087 60.108 41.4219 59.9099 41.9999C59.7533 42.5933 59.4451 43.1357 59.0156 43.5739C58.586 44.0122 58.05 44.3313 57.4599 44.4999C56.8954 44.6979 56.2973 44.7829 55.6999 44.7499H51.5399V41.6599H53.6799C54.1458 41.6685 54.6113 41.6316 55.0699 41.5499C55.4053 41.4934 55.7194 41.3484 55.9799 41.1299C56.2151 40.8922 56.3811 40.5949 56.4599 40.2699C56.5614 39.8002 56.6084 39.3204 56.5999 38.8399V35.6199C56.5573 35.1059 56.6244 34.5886 56.7968 34.1024C56.9692 33.6163 57.243 33.1723 57.5999 32.7999C58.3224 32.1212 59.2603 31.7177 60.2499 31.6599V31.3799C59.2766 31.3371 58.3419 30.987 57.5799 30.3799C57.2282 30.0205 56.9571 29.5902 56.7846 29.1177C56.6122 28.6453 56.5424 28.1415 56.5799 27.6399V24.3899C56.5932 23.923 56.5496 23.4563 56.4499 22.9999C56.3714 22.671 56.1961 22.3732 55.9465 22.145C55.6969 21.9168 55.3846 21.7687 55.0499 21.7199C54.6078 21.6399 54.1593 21.5997 53.7099 21.5999H51.5399V18.4499H55.6899C56.2957 18.4077 56.9036 18.4936 57.4739 18.7021C58.0443 18.9105 58.5643 19.2369 58.9999 19.6599C59.8184 20.6121 60.2313 21.847 60.1499 23.0999V26.7099C60.1024 27.208 60.1673 27.7104 60.3399 28.1799C60.5177 28.6437 60.7941 29.0634 61.1499 29.4099C62.0207 30.0327 63.0824 30.33 64.1499 30.2499V33.0899C63.0897 33.0101 62.0333 33.2883 61.1499 33.8799C60.7722 34.246 60.4851 34.6951 60.3115 35.1916C60.1379 35.6881 60.0826 36.2183 60.1499 36.7399L60.1299 40.1999Z" fill="#FEB452"/>
<path d="M31.5599 56.35L29.7899 52.79H34.3699L32.5899 56.35C32.5425 56.4472 32.47 56.5301 32.3799 56.59C32.288 56.6409 32.185 56.6684 32.0799 56.67C31.9716 56.6696 31.865 56.6421 31.7699 56.59C31.6799 56.5301 31.6074 56.4472 31.5599 56.35V56.35Z" fill="#B7CDE1"/>
<g style="mix-blend-mode:multiply">
<path d="M31.5599 56.35L29.7899 52.79H34.3699L32.5899 56.35C32.5425 56.4472 32.47 56.5301 32.3799 56.59C32.288 56.6409 32.185 56.6684 32.0799 56.67C31.9716 56.6696 31.865 56.6421 31.7699 56.59C31.6799 56.5301 31.6074 56.4472 31.5599 56.35V56.35Z" fill="#B7CDE1"/>
</g>
<path d="M21 55C21.7911 55 22.5645 54.7654 23.2223 54.3259C23.8801 53.8864 24.3928 53.2616 24.6955 52.5307C24.9983 51.7998 25.0775 50.9956 24.9231 50.2196C24.7688 49.4437 24.3878 48.731 23.8284 48.1716C23.269 47.6122 22.5563 47.2312 21.7804 47.0769C21.0044 46.9225 20.2002 47.0017 19.4693 47.3045C18.7384 47.6072 18.1136 48.1199 17.6741 48.7777C17.2346 49.4355 17 50.2089 17 51C17 52.0609 17.4214 53.0783 18.1716 53.8284C18.9217 54.5786 19.9391 55 21 55V55Z" fill="#1482FF"/>
<rect x="20" y="18" width="2" height="31" fill="#1482FF"/>
<rect x="17" y="11" width="8" height="7" fill="#1482FF"/>
</g>
<defs>
<clipPath id="clip0_437_2778">
<rect width="64" height="64" fill="white"/>
</clipPath>
</defs>
</svg>
