<svg viewBox="0 0 64 64" fill="none" xmlns="http://www.w3.org/2000/svg">
<path d="M9.93615 6.57822L6.64524 9.86916L11.5816 16.451L14.0498 17.2738L32.9725 36.1967L36.2635 32.9057L17.3407 13.9828L16.518 11.5146L9.93615 6.57822Z" fill="white"/>
<path d="M58.0635 14.8278L51.6545 21.237C49.8362 23.0552 46.8909 23.0552 45.0726 21.237L43.4272 19.5915C41.609 17.7732 41.609 14.8278 43.4272 13.0096L49.8362 6.6005C45.41 5.16894 40.3584 6.20559 36.8454 9.71867C33.3323 13.2317 32.2957 18.2833 33.7272 22.7096L8.04987 48.3872C5.77914 50.6579 5.77914 54.3438 8.04987 56.6145C10.3206 58.8853 14.0064 58.8853 16.2772 56.6145L41.9545 30.937C46.3808 32.3686 51.4323 31.3319 54.9454 27.8188C58.4584 24.3058 59.4951 19.2542 58.0635 14.8278ZM10.5181 54.1463C9.61306 53.2413 9.61306 51.7604 10.5181 50.8554C11.4231 49.9504 12.904 49.9504 13.809 50.8554C14.714 51.7604 14.714 53.2413 13.809 54.1463C12.904 55.0513 11.4231 55.0513 10.5181 54.1463Z" fill="#B7CDE1"/>
<path d="M28.9143 37.5859L37.6558 28.8444L60.3837 51.5724C62.3148 53.5036 62.3148 56.6345 60.3837 58.5657L58.6354 60.314C56.7042 62.2451 53.5733 62.2451 51.6422 60.314L28.9143 37.5859Z" fill="#F05656"/>
<g style="mix-blend-mode:multiply">
<rect width="2.47248" height="25.961" rx="1.23624" transform="matrix(0.707104 -0.70711 0.707104 0.70711 34.1589 39.332)" fill="#F05656"/>
</g>
<g style="mix-blend-mode:multiply">
<rect width="2.47248" height="25.961" rx="1.23624" transform="matrix(0.707104 -0.70711 0.707104 0.70711 37.6558 35.8359)" fill="#F05656"/>
</g>
<g style="mix-blend-mode:multiply">
<path d="M9.93615 6.57822L6.64524 9.86916L11.5816 16.451L14.0498 17.2738L31.3271 34.5512L34.618 31.2603L17.3407 13.9828L16.518 11.5146L9.93615 6.57822Z" fill="#B7CDE1"/>
</g>
</svg>
