<svg viewBox="0 0 32 32" fill="none" xmlns="http://www.w3.org/2000/svg">
<path d="M25.61 10.5H20.78V30H23.465C24.0064 30.0026 24.5335 29.8269 24.965 29.5C25.1536 29.3618 25.3079 29.1823 25.4163 28.9751C25.5246 28.768 25.5841 28.5387 25.59 28.305V12.185C25.6022 11.9513 25.667 11.7234 25.7795 11.5182C25.8921 11.313 26.0495 11.1359 26.24 11C26.6714 10.6728 27.1986 10.4971 27.74 10.5H25.61Z" fill="white"/>
<path d="M29.9049 12.7149V22.9099L27.7599 20.7649L25.6099 22.9099V10.5649H27.7599C28.3292 10.5663 28.8748 10.7934 29.2769 11.1964C29.679 11.5995 29.9049 12.1456 29.9049 12.7149V12.7149Z" fill="white"/>
<path d="M13 7C13 6.80109 12.921 6.61032 12.7803 6.46967C12.6397 6.32902 12.4489 6.25 12.25 6.25H0.75C0.551088 6.25 0.360322 6.32902 0.21967 6.46967C0.0790176 6.61032 0 6.80109 0 7H0C0 7.19891 0.0790176 7.38968 0.21967 7.53033C0.360322 7.67098 0.551088 7.75 0.75 7.75H12.25C12.4489 7.75 12.6397 7.67098 12.7803 7.53033C12.921 7.38968 13 7.19891 13 7V7Z" fill="white"/>
<path d="M10.5 10.55V10.43C10.5 10.247 10.4273 10.0715 10.2979 9.94209C10.1685 9.81269 9.993 9.73999 9.81 9.73999H0.69C0.507001 9.73999 0.331496 9.81269 0.202096 9.94209C0.0726962 10.0715 0 10.247 0 10.43V10.55C0 10.733 0.0726962 10.9085 0.202096 11.0379C0.331496 11.1673 0.507001 11.24 0.69 11.24H9.81C9.993 11.24 10.1685 11.1673 10.2979 11.0379C10.4273 10.9085 10.5 10.733 10.5 10.55V10.55Z" fill="white"/>
<path d="M13 14C13 13.8011 12.921 13.6103 12.7803 13.4697C12.6397 13.329 12.4489 13.25 12.25 13.25H0.75C0.551088 13.25 0.360322 13.329 0.21967 13.4697C0.0790176 13.6103 0 13.8011 0 14H0C0 14.1989 0.0790176 14.3897 0.21967 14.5303C0.360322 14.671 0.551088 14.75 0.75 14.75H12.25C12.4489 14.75 12.6397 14.671 12.7803 14.5303C12.921 14.3897 13 14.1989 13 14V14Z" fill="white"/>
<path d="M9.5 17.575V17.405C9.5 17.2286 9.42994 17.0595 9.30523 16.9348C9.18051 16.8101 9.01137 16.74 8.835 16.74H0.665C0.488631 16.74 0.319486 16.8101 0.194774 16.9348C0.0700623 17.0595 0 17.2286 0 17.405L0 17.575C0.00130834 17.751 0.0717907 17.9193 0.19622 18.0438C0.320649 18.1682 0.489035 18.2387 0.665 18.24H8.835C9.01096 18.2387 9.17935 18.1682 9.30378 18.0438C9.42821 17.9193 9.49869 17.751 9.5 17.575Z" fill="white"/>
<g style="mix-blend-mode:multiply">
<path d="M29.9049 12.7149V22.9099L27.7599 20.7649L25.6099 22.9099V10.5649H27.7599C28.3292 10.5663 28.8748 10.7934 29.2769 11.1964C29.679 11.5995 29.9049 12.1456 29.9049 12.7149V12.7149Z" fill="#42CACD"/>
</g>
<path d="M25.61 10.5H20.78V30H23.465C24.0064 30.0026 24.5335 29.8269 24.965 29.5C25.1536 29.3618 25.3079 29.1823 25.4163 28.9751C25.5246 28.768 25.5841 28.5387 25.59 28.305V12.185C25.6022 11.9513 25.667 11.7234 25.7795 11.5182C25.8921 11.313 26.0495 11.1359 26.24 11C26.6714 10.6728 27.1986 10.4971 27.74 10.5H25.61Z" fill="#42CACD"/>
<g style="mix-blend-mode:multiply">
<path d="M25.61 10.5H20.78V30H23.465C24.0064 30.0026 24.5335 29.8269 24.965 29.5C25.1536 29.3618 25.3079 29.1823 25.4163 28.9751C25.5246 28.768 25.5841 28.5387 25.59 28.305V12.185C25.6022 11.9513 25.667 11.7234 25.7795 11.5182C25.8921 11.313 26.0495 11.1359 26.24 11C26.6714 10.6728 27.1986 10.4971 27.74 10.5H25.61Z" fill="#42CACD"/>
</g>
<path d="M20.8433 27.906V4.56933C20.844 4.15981 20.6748 3.76626 20.3719 3.47269C20.225 3.32524 20.0479 3.20735 19.8514 3.12611C19.6549 3.04488 19.4429 3.00198 19.2283 3H3.61502C3.40056 3.00278 3.18888 3.04605 2.99247 3.12724C2.79606 3.20842 2.61891 3.32589 2.47148 3.47269C2.16852 3.76626 1.99933 4.15981 2.00002 4.56933V28.4259C1.99802 28.8371 2.16731 29.2326 2.47148 29.5273C2.61891 29.6741 2.79606 29.7916 2.99247 29.8728C3.18888 29.954 3.40056 29.9972 3.61502 30H23C22.7189 29.9971 22.4412 29.9418 22.1829 29.8371C21.9246 29.7324 21.6909 29.5806 21.4953 29.3902C21.2879 29.1958 21.1235 28.9645 21.0115 28.7097C20.8996 28.4549 20.8424 28.1817 20.8433 27.906Z" fill="#B7CDE1"/>
<g style="mix-blend-mode:multiply">
<path d="M13 7C13 6.80109 12.921 6.61032 12.7803 6.46967C12.6397 6.32902 12.4489 6.25 12.25 6.25H0.75C0.551088 6.25 0.360322 6.32902 0.21967 6.46967C0.0790176 6.61032 0 6.80109 0 7H0C0 7.19891 0.0790176 7.38968 0.21967 7.53033C0.360322 7.67098 0.551088 7.75 0.75 7.75H12.25C12.4489 7.75 12.6397 7.67098 12.7803 7.53033C12.921 7.38968 13 7.19891 13 7V7Z" fill="#B7CDE1"/>
</g>
<g style="mix-blend-mode:multiply">
<path d="M10.5 10.55V10.43C10.5 10.247 10.4273 10.0715 10.2979 9.94209C10.1685 9.81269 9.993 9.73999 9.81 9.73999H0.69C0.507001 9.73999 0.331496 9.81269 0.202096 9.94209C0.0726962 10.0715 0 10.247 0 10.43V10.55C0 10.733 0.0726962 10.9085 0.202096 11.0379C0.331496 11.1673 0.507001 11.24 0.69 11.24H9.81C9.993 11.24 10.1685 11.1673 10.2979 11.0379C10.4273 10.9085 10.5 10.733 10.5 10.55V10.55Z" fill="#B7CDE1"/>
</g>
<g style="mix-blend-mode:multiply">
<path d="M13 14C13 13.8011 12.921 13.6103 12.7803 13.4697C12.6397 13.329 12.4489 13.25 12.25 13.25H0.75C0.551088 13.25 0.360322 13.329 0.21967 13.4697C0.0790176 13.6103 0 13.8011 0 14H0C0 14.1989 0.0790176 14.3897 0.21967 14.5303C0.360322 14.671 0.551088 14.75 0.75 14.75H12.25C12.4489 14.75 12.6397 14.671 12.7803 14.5303C12.921 14.3897 13 14.1989 13 14V14Z" fill="#B7CDE1"/>
</g>
<g style="mix-blend-mode:multiply">
<path d="M9.5 17.575V17.405C9.5 17.2286 9.42994 17.0595 9.30523 16.9348C9.18051 16.8101 9.01137 16.74 8.835 16.74H0.665C0.488631 16.74 0.319486 16.8101 0.194774 16.9348C0.0700623 17.0595 0 17.2286 0 17.405L0 17.575C0.00130834 17.751 0.0717907 17.9193 0.19622 18.0438C0.320649 18.1682 0.489035 18.2387 0.665 18.24H8.835C9.01096 18.2387 9.17935 18.1682 9.30378 18.0438C9.42821 17.9193 9.49869 17.751 9.5 17.575Z" fill="#B7CDE1"/>
</g>
</svg>
