<svg viewBox="0 0 200 138" fill="none"
    xmlns="http://www.w3.org/2000/svg">
    <g clip-path="url(#clip0_309_152011)">
        <path d="M39.6193 13.0938H13.2557C12.5277 13.0938 11.9375 13.7024 11.9375 14.4531C11.9375 15.2039 12.5277 15.8125 13.2557 15.8125H39.6193C40.3473 15.8125 40.9375 15.2039 40.9375 14.4531C40.9375 13.7024 40.3473 13.0938 39.6193 13.0938Z" fill="white"/>
        <path d="M43.2535 23.9688H22.309C21.5861 23.9688 21 24.5774 21 25.3281C21 26.0789 21.5861 26.6875 22.309 26.6875H43.2535C43.9764 26.6875 44.5625 26.0789 44.5625 25.3281C44.5625 24.5774 43.9764 23.9688 43.2535 23.9688Z" fill="white"/>
        <path d="M44.9401 18.5312H30.5911C29.7987 18.5312 29.1562 19.1399 29.1562 19.8906C29.1562 20.6414 29.7987 21.25 30.5911 21.25H44.9401C45.7326 21.25 46.375 20.6414 46.375 19.8906C46.375 19.1399 45.7326 18.5312 44.9401 18.5312Z" fill="white"/>
        <path d="M10.125 -4.54099C10.125 -8.31531 13.1847 -11.375 16.959 -11.375H17.791C21.5653 -11.375 24.625 -8.31531 24.625 -4.54099V1.51171C24.625 2.57266 24.872 3.61903 25.3465 4.56797L37.8049 29.4847C40.0768 34.0287 36.7726 39.375 31.6923 39.375H3.05766C-2.02262 39.375 -5.32684 34.0287 -3.05487 29.4847L9.40351 4.56797C9.87798 3.61903 10.125 2.57266 10.125 1.51171V-4.54099Z" fill="#B7CDE1"/>
        <path d="M9.97952 10.8162C10.6211 9.44132 12.001 8.5625 13.5183 8.5625H21.2317C22.749 8.5625 24.1289 9.44131 24.7705 10.8162L33.8132 30.1934C35.0214 32.7825 33.1315 35.75 30.2744 35.75H4.4756C1.61852 35.75 -0.271399 32.7825 0.93682 30.1934L9.97952 10.8162Z" fill="#DBE6F0"/>
        <path d="M39.6193 13.0938H13.2557C12.5277 13.0938 11.9375 13.7024 11.9375 14.4531C11.9375 15.2039 12.5277 15.8125 13.2557 15.8125H39.6193C40.3473 15.8125 40.9375 15.2039 40.9375 14.4531C40.9375 13.7024 40.3473 13.0938 39.6193 13.0938Z" fill="#42CACD"/>
        <path d="M26.0599 18.5312H13.2214C12.5123 18.5312 11.9375 19.1399 11.9375 19.8906C11.9375 20.6414 12.5123 21.25 13.2214 21.25H26.0599C26.7689 21.25 27.3438 20.6414 27.3438 19.8906C27.3438 19.1399 26.7689 18.5312 26.0599 18.5312Z" fill="#FE90A0"/>
        <path d="M17.7375 23.9688H13.3875C12.5867 23.9688 11.9375 24.5774 11.9375 25.3281C11.9375 26.0789 12.5867 26.6875 13.3875 26.6875H17.7375C18.5383 26.6875 19.1875 26.0789 19.1875 25.3281C19.1875 24.5774 18.5383 23.9688 17.7375 23.9688Z" fill="#F05656"/>
        <path d="M43.2535 23.9688H22.309C21.5861 23.9688 21 24.5774 21 25.3281C21 26.0789 21.5861 26.6875 22.309 26.6875H43.2535C43.9764 26.6875 44.5625 26.0789 44.5625 25.3281C44.5625 24.5774 43.9764 23.9688 43.2535 23.9688Z" fill="#1482FF"/>
        <path d="M34.191 29.4063H13.2465C12.5236 29.4063 11.9375 30.0149 11.9375 30.7657C11.9375 31.5164 12.5236 32.125 13.2465 32.125H34.191C34.9139 32.125 35.5 31.5164 35.5 30.7657C35.5 30.0149 34.9139 29.4063 34.191 29.4063Z" fill="#FEB452"/>
        <path d="M44.9401 18.5312H30.5911C29.7987 18.5312 29.1562 19.1399 29.1562 19.8906C29.1562 20.6414 29.7987 21.25 30.5911 21.25H44.9401C45.7326 21.25 46.375 20.6414 46.375 19.8906C46.375 19.1399 45.7326 18.5312 44.9401 18.5312Z" fill="#FEB452"/>
        <path d="M188.156 98.0938C192.04 98.0938 195.188 94.9458 195.188 91.0625C195.188 87.1792 192.04 84.0312 188.156 84.0312C184.273 84.0312 181.125 87.1792 181.125 91.0625C181.125 94.9458 184.273 98.0938 188.156 98.0938Z" fill="white"/>
        <path d="M156.125 121.531H199.875V107.359H199.094C190.555 107.359 187.375 102.781 185.813 94.0781C184.25 85.375 177.875 82.4688 170.969 82.4688C164.063 82.4688 158.469 87.1563 158.469 94.0781V94.8594C158.516 93.6615 159.035 92.531 159.914 91.7154C160.792 90.8998 161.958 90.4656 163.156 90.5078C164.343 90.5048 165.487 90.9522 166.357 91.7599C167.228 92.5676 167.759 93.6753 167.844 94.8594C167.844 96.5313 167.844 101.219 157.688 101.219H156.125V121.531Z" fill="#B7CDE1"/>
        <g style="mix-blend-mode:multiply">
            <path d="M199.875 117.625H156.125V121.531H199.875V117.625Z" fill="#42CACD"/>
        </g>
        <g style="mix-blend-mode:multiply">
            <path d="M158.469 101.219C163.648 101.219 172.531 101.219 172.531 93.4063C172.531 84.8125 158.469 81.6875 158.469 94.0782V94.8594C158.516 93.6615 159.035 92.531 159.914 91.7154C160.792 90.8998 161.958 90.4656 163.156 90.5078C164.343 90.5048 165.487 90.9523 166.357 91.7599C167.228 92.5676 167.759 93.6753 167.844 94.8594C167.844 96.5313 167.844 101.219 157.688 101.219" fill="#42CACD"/>
        </g>
        <g style="mix-blend-mode:multiply">
            <path d="M188.156 98.0938C192.04 98.0938 195.188 94.9458 195.188 91.0625C195.188 87.1792 192.04 84.0312 188.156 84.0312C184.273 84.0312 181.125 87.1792 181.125 91.0625C181.125 94.9458 184.273 98.0938 188.156 98.0938Z" fill="#FEB452"/>
        </g>
        <path d="M133.839 14.0511L144.631 15.4011L156.772 3.25953L148.681 1.90953C148.372 1.80543 148.042 1.78179 147.721 1.84085C147.401 1.8999 147.101 2.0397 146.85 2.24703L133.839 14.0511Z" fill="white"/>
        <path d="M159 39.161L157.65 28.3694L169.791 16.2278L171.141 24.3278C171.24 24.6323 171.26 24.9567 171.199 25.2709C171.139 25.5851 171 25.8789 170.795 26.125L159 39.161Z" fill="white"/>
        <path d="M139.863 24.2352C141.038 23.0615 142.631 22.4025 144.292 22.4033C145.953 22.4041 147.545 23.0646 148.719 24.2394C149.892 25.4142 150.551 27.0072 150.55 28.6678C150.55 30.3285 149.889 31.9208 148.714 33.0946C142.521 39.2877 134.548 40.1736 133.662 39.2877C132.776 38.4017 133.662 30.4367 139.863 24.2352Z" fill="#F7993B"/>
        <g style="mix-blend-mode:multiply">
            <path d="M142.226 24.2099C142.647 23.7894 143.147 23.4559 143.697 23.2286C144.247 23.0012 144.836 22.8844 145.431 22.8848C146.026 22.8852 146.615 23.0028 147.165 23.2308C147.714 23.4589 148.214 23.793 148.634 24.2141C149.055 24.6351 149.388 25.1349 149.615 25.6848C149.843 26.2347 149.96 26.824 149.959 27.4191C149.959 28.0142 149.841 28.6033 149.613 29.1529C149.385 29.7025 149.051 30.2019 148.63 30.6224C144.15 35.1027 138.378 35.7439 137.737 35.1027C137.096 34.4614 137.737 28.6986 142.226 24.2099Z" fill="#F05656"/>
        </g>
        <path d="M165.066 -4.16543C174.508 -8.20699 180.625 -7.53199 180.625 -7.53199C180.625 -7.53199 181.3 -1.46543 177.25 7.97614C175.225 12.7011 167.808 20.1177 167.808 20.1177L156.3 31.5927L141.458 16.7511L152.925 5.28457C152.925 5.28457 160.375 -2.14043 165.066 -4.16543Z" fill="#B7CDE1"/>
        <path d="M142.81 18.101L154.951 30.2423L153.967 31.2267C153.865 31.328 153.728 31.3848 153.585 31.3848C153.442 31.3848 153.304 31.328 153.203 31.2267L141.802 19.8253C141.711 19.7221 141.662 19.5881 141.667 19.4506C141.671 19.3131 141.728 19.1825 141.825 19.0854L142.81 18.101Z" fill="#F7993B"/>
        <g style="mix-blend-mode:multiply">
            <path d="M133.839 14.0511L144.631 15.4011L156.772 3.25956L148.681 1.90956C148.372 1.80546 148.042 1.78182 147.721 1.84088C147.401 1.89993 147.101 2.03974 146.85 2.24706L133.839 14.0511Z" fill="#42CACD"/>
        </g>
        <g style="mix-blend-mode:multiply">
            <path d="M159 39.1611L157.65 28.3696L169.791 16.228L171.141 24.328C171.24 24.6324 171.26 24.9568 171.199 25.271C171.139 25.5852 171 25.879 170.795 26.1252L159 39.1611Z" fill="#42CACD"/>
        </g>
        <g style="mix-blend-mode:multiply">
            <path d="M169.724 7.03113C171.807 7.03113 173.495 5.34255 173.495 3.25957C173.495 1.17659 171.807 -0.511993 169.724 -0.511993C167.641 -0.511993 165.952 1.17659 165.952 3.25957C165.952 5.34255 167.641 7.03113 169.724 7.03113Z" fill="#B7CDE1"/>
        </g>
        <g style="mix-blend-mode:multiply">
            <path d="M169.673 5.73175C170.978 5.73175 172.036 4.67402 172.036 3.36925C172.036 2.06447 170.978 1.00674 169.673 1.00674C168.368 1.00674 167.311 2.06447 167.311 3.36925C167.311 4.67402 168.368 5.73175 169.673 5.73175Z" fill="#42CACD"/>
        </g>
        <path d="M163.75 13.3761C164.366 12.448 163.893 10.8449 163.075 10.0011C162.257 9.15737 160.662 8.75237 159.742 9.35987L145.508 27.5427L163.75 13.3761Z" fill="#42CACD"/>
        <path d="M96 84.0625C103.922 84.0625 110.344 77.6406 110.344 69.7188C110.344 61.7969 103.922 55.375 96 55.375C88.0782 55.375 81.6562 61.7969 81.6562 69.7188C81.6562 77.6406 88.0782 84.0625 96 84.0625Z" fill="white"/>
        <path d="M99.5775 101.857C99.3244 102.245 99.0459 102.186 98.97 101.731L95.1056 79.8944C95.0805 79.7909 95.0799 79.6829 95.1039 79.5791C95.1279 79.4753 95.1758 79.3786 95.2439 79.2966C95.3119 79.2147 95.3982 79.1497 95.4958 79.107C95.5933 79.0643 95.6996 79.045 95.8059 79.0506H104.505C104.741 79.058 104.967 79.1456 105.147 79.299C105.326 79.4524 105.448 79.6624 105.492 79.8944L109.357 101.731C109.433 102.186 109.179 102.355 108.791 102.102L102.936 98.3219C102.843 98.2605 102.739 98.2181 102.629 98.1972C102.52 98.1763 102.407 98.1772 102.298 98.1999C102.189 98.2227 102.086 98.2668 101.994 98.3297C101.902 98.3927 101.823 98.4731 101.763 98.5666L99.5775 101.857Z" fill="#B7CDE1"/>
        <path d="M92.3297 101.925C92.6334 102.279 92.9541 102.186 93.03 101.731L96.8944 79.8944C96.9195 79.7909 96.9201 79.6829 96.8961 79.5791C96.8721 79.4753 96.8242 79.3786 96.7561 79.2966C96.6881 79.2147 96.6018 79.1497 96.5042 79.107C96.4067 79.0643 96.3004 79.045 96.1941 79.0506H87.495C87.259 79.058 87.0326 79.1456 86.8531 79.299C86.6736 79.4524 86.5518 79.6624 86.5078 79.8944L82.6434 101.731C82.5675 102.186 82.8037 102.33 83.175 102.051L88.0603 98.4063C88.2435 98.2692 88.4713 98.2053 88.6991 98.2271C88.9269 98.249 89.1383 98.355 89.2922 98.5244L92.3297 101.925Z" fill="#B7CDE1"/>
        <g style="mix-blend-mode:multiply">
            <path d="M96 84.0625C103.922 84.0625 110.344 77.6406 110.344 69.7188C110.344 61.7969 103.922 55.375 96 55.375C88.0782 55.375 81.6562 61.7969 81.6562 69.7188C81.6562 77.6406 88.0782 84.0625 96 84.0625Z" fill="#FEB452"/>
        </g>
        <g style="mix-blend-mode:multiply">
            <path d="M95.6288 62.4541C95.8313 62.0322 96.1688 62.0322 96.3713 62.4541L98.2359 66.2172C98.3644 66.4365 98.5387 66.6254 98.747 66.771C98.9552 66.9167 99.1925 67.0156 99.4425 67.061L103.602 67.6685C104.058 67.736 104.168 68.0566 103.83 68.3772L100.826 71.3135C100.651 71.5024 100.52 71.7269 100.439 71.9715C100.359 72.2162 100.333 72.4752 100.362 72.731L101.063 76.9075C101.138 77.3716 100.868 77.5657 100.463 77.3547L96.7425 75.3972C96.507 75.2889 96.2508 75.2328 95.9916 75.2328C95.7323 75.2328 95.4762 75.2889 95.2406 75.3972L91.5281 77.3547C91.1231 77.5657 90.8531 77.3547 90.9291 76.9075L91.6378 72.7647C91.667 72.509 91.6407 72.2499 91.5606 72.0053C91.4805 71.7607 91.3485 71.5362 91.1738 71.3472L88.17 68.411C87.8325 68.0904 87.9422 67.7697 88.3978 67.7022L92.5575 67.0947C92.8075 67.0493 93.0448 66.9504 93.2531 66.8048C93.4613 66.6592 93.6356 66.4702 93.7641 66.251L95.6288 62.4541Z" fill="#FEB452"/>
        </g>
        <rect x="14.9375" y="92.9062" width="10.125" height="2.53125" rx="1.26562" fill="white"/>
        <path d="M24.4887 119.602C24.4236 118.187 23.8157 116.851 22.7912 115.872C21.7667 114.893 20.4045 114.346 18.9875 114.346C17.5705 114.346 16.2082 114.893 15.1838 115.872C14.1593 116.851 13.5513 118.187 13.4862 119.602C13.3551 118.239 12.7206 116.973 11.7066 116.052C10.6926 115.13 9.37179 114.62 8.00186 114.62C6.63193 114.62 5.31113 115.13 4.29712 116.052C3.28312 116.973 2.64865 118.239 2.51749 119.602C2.4753 127.854 13.4862 133.406 13.4862 133.406C13.4862 133.406 24.4887 127.854 24.4887 119.602Z" fill="white"/>
        <path d="M24.4634 106.322H25.3072C28.6036 106.386 31.7403 107.754 34.0302 110.126C36.3201 112.498 37.5767 115.681 37.5247 118.978V136.022C37.5249 136.461 37.3541 136.882 37.0485 137.197C36.7429 137.513 36.3265 137.696 35.8878 137.709H13.8491C13.4086 137.696 12.9907 137.512 12.6847 137.195C12.3811 136.88 12.2117 136.459 12.2122 136.022V118.978C12.1603 115.676 13.4215 112.488 15.7186 110.115C18.0158 107.741 21.1611 106.377 24.4634 106.322V106.322Z" fill="white"/>
        <path d="M24.8684 105.478C26.3703 105.478 27.8385 105.033 29.0873 104.198C30.3361 103.364 31.3094 102.178 31.8841 100.79C32.4589 99.4027 32.6093 97.8759 32.3163 96.4028C32.0233 94.9298 31.3 93.5767 30.238 92.5147C29.176 91.4527 27.8229 90.7294 26.3499 90.4364C24.8768 90.1434 23.35 90.2938 21.9624 90.8686C20.5748 91.4433 19.3889 92.4166 18.5545 93.6654C17.72 94.9142 17.2747 96.3824 17.2747 97.8843C17.2747 99.8983 18.0747 101.83 19.4988 103.254C20.9229 104.678 22.8544 105.478 24.8684 105.478V105.478Z" fill="white"/>
        <g style="mix-blend-mode:multiply">
            <path d="M24.4634 106.322H25.3072C28.6036 106.386 31.7403 107.754 34.0302 110.126C36.3201 112.498 37.5767 115.681 37.5247 118.978V136.022C37.5249 136.461 37.3541 136.882 37.0485 137.197C36.7429 137.513 36.3265 137.696 35.8878 137.709H13.8491C13.4086 137.696 12.9907 137.512 12.6847 137.195C12.3811 136.88 12.2117 136.459 12.2122 136.022V118.978C12.1603 115.676 13.4215 112.488 15.7186 110.115C18.0158 107.741 21.1611 106.377 24.4634 106.322V106.322Z" fill="#B7CDE1"/>
        </g>
        <g style="mix-blend-mode:multiply">
            <path d="M24.8684 105.478C26.3703 105.478 27.8385 105.033 29.0873 104.198C30.3361 103.364 31.3094 102.178 31.8841 100.79C32.4589 99.4027 32.6093 97.8759 32.3163 96.4028C32.0233 94.9298 31.3 93.5767 30.238 92.5147C29.176 91.4527 27.8229 90.7294 26.3499 90.4364C24.8768 90.1434 23.35 90.2938 21.9624 90.8686C20.5748 91.4433 19.3889 92.4166 18.5545 93.6654C17.72 94.9142 17.2747 96.3824 17.2747 97.8843C17.2747 99.8983 18.0747 101.83 19.4988 103.254C20.9229 104.678 22.8544 105.478 24.8684 105.478V105.478Z" fill="#B7CDE1"/>
        </g>
        <g style="mix-blend-mode:multiply">
            <path d="M24.4887 119.602C24.4236 118.187 23.8157 116.851 22.7912 115.872C21.7667 114.893 20.4045 114.346 18.9875 114.346C17.5705 114.346 16.2082 114.893 15.1838 115.872C14.1593 116.851 13.5513 118.187 13.4862 119.602C13.3551 118.239 12.7206 116.973 11.7066 116.052C10.6926 115.131 9.37179 114.62 8.00186 114.62C6.63193 114.62 5.31113 115.131 4.29712 116.052C3.28312 116.973 2.64865 118.239 2.51749 119.602C2.4753 127.854 13.4862 133.406 13.4862 133.406C13.4862 133.406 24.4887 127.854 24.4887 119.602Z" fill="#F05656"/>
        </g>
        <g style="mix-blend-mode:multiply">
            <path d="M22.9429 102.528C22.7725 103.005 23.0217 103.539 23.5211 103.627C24.0828 103.727 24.6584 103.738 25.2272 103.66C26.1004 103.539 26.9316 103.21 27.6505 102.7C28.3694 102.19 28.9547 101.514 29.3569 100.729C29.6189 100.218 29.7982 99.6713 29.8899 99.1083C29.9714 98.6078 29.55 98.1964 29.0428 98.1994L28.8543 98.2006C28.3472 98.2036 27.9505 98.6241 27.8204 99.1143C27.7571 99.3526 27.6683 99.5844 27.555 99.8054C27.3013 100.3 26.9321 100.726 26.4787 101.048C26.0252 101.37 25.5009 101.578 24.9501 101.654C24.7041 101.688 24.456 101.695 24.2102 101.676C23.7045 101.637 23.1766 101.872 23.0062 102.35L22.9429 102.528Z" fill="#B7CDE1"/>
        </g>
        <g style="mix-blend-mode:multiply">
            <rect x="14.9375" y="92.9062" width="10.125" height="2.53125" rx="1.26562" fill="#B7CDE1"/>
        </g>
    </g>
    <defs>
        <clipPath id="clip0_309_152011">
            <rect width="200" height="138" fill="white"/>
        </clipPath>
    </defs>
</svg>
