<svg viewBox="0 0 200 138" fill="none" xmlns="http://www.w3.org/2000/svg">
<g clip-path="url(#clip0_309_152011)">
<path d="M39.6193 13.0938H13.2557C12.5277 13.0938 11.9375 13.7024 11.9375 14.4531C11.9375 15.2039 12.5277 15.8125 13.2557 15.8125H39.6193C40.3473 15.8125 40.9375 15.2039 40.9375 14.4531C40.9375 13.7024 40.3473 13.0938 39.6193 13.0938Z" fill="white"/>
<path d="M43.2535 23.9688H22.309C21.5861 23.9688 21 24.5774 21 25.3281C21 26.0789 21.5861 26.6875 22.309 26.6875H43.2535C43.9764 26.6875 44.5625 26.0789 44.5625 25.3281C44.5625 24.5774 43.9764 23.9688 43.2535 23.9688Z" fill="white"/>
<path d="M44.9401 18.5312H30.5911C29.7987 18.5312 29.1562 19.1399 29.1562 19.8906C29.1562 20.6414 29.7987 21.25 30.5911 21.25H44.9401C45.7326 21.25 46.375 20.6414 46.375 19.8906C46.375 19.1399 45.7326 18.5312 44.9401 18.5312Z" fill="white"/>
<path d="M10.125 -4.54099C10.125 -8.31531 13.1847 -11.375 16.959 -11.375H17.791C21.5653 -11.375 24.625 -8.31531 24.625 -4.54099V1.51171C24.625 2.57266 24.872 3.61903 25.3465 4.56797L37.8049 29.4847C40.0768 34.0287 36.7726 39.375 31.6923 39.375H3.05766C-2.02262 39.375 -5.32684 34.0287 -3.05487 29.4847L9.40351 4.56797C9.87798 3.61903 10.125 2.57266 10.125 1.51171V-4.54099Z" fill="#B7CDE1"/>
<path d="M9.97952 10.8162C10.6211 9.44132 12.001 8.5625 13.5183 8.5625H21.2317C22.749 8.5625 24.1289 9.44131 24.7705 10.8162L33.8132 30.1934C35.0214 32.7825 33.1315 35.75 30.2744 35.75H4.4756C1.61852 35.75 -0.271399 32.7825 0.93682 30.1934L9.97952 10.8162Z" fill="#DBE6F0"/>
<path d="M39.6193 13.0938H13.2557C12.5277 13.0938 11.9375 13.7024 11.9375 14.4531C11.9375 15.2039 12.5277 15.8125 13.2557 15.8125H39.6193C40.3473 15.8125 40.9375 15.2039 40.9375 14.4531C40.9375 13.7024 40.3473 13.0938 39.6193 13.0938Z" fill="#42CACD"/>
<path d="M26.0599 18.5312H13.2214C12.5123 18.5312 11.9375 19.1399 11.9375 19.8906C11.9375 20.6414 12.5123 21.25 13.2214 21.25H26.0599C26.7689 21.25 27.3438 20.6414 27.3438 19.8906C27.3438 19.1399 26.7689 18.5312 26.0599 18.5312Z" fill="#FE90A0"/>
<path d="M17.7375 23.9688H13.3875C12.5867 23.9688 11.9375 24.5774 11.9375 25.3281C11.9375 26.0789 12.5867 26.6875 13.3875 26.6875H17.7375C18.5383 26.6875 19.1875 26.0789 19.1875 25.3281C19.1875 24.5774 18.5383 23.9688 17.7375 23.9688Z" fill="#F05656"/>
<path d="M43.2535 23.9688H22.309C21.5861 23.9688 21 24.5774 21 25.3281C21 26.0789 21.5861 26.6875 22.309 26.6875H43.2535C43.9764 26.6875 44.5625 26.0789 44.5625 25.3281C44.5625 24.5774 43.9764 23.9688 43.2535 23.9688Z" fill="#1482FF"/>
<path d="M34.191 29.4062H13.2465C12.5236 29.4062 11.9375 30.0149 11.9375 30.7656C11.9375 31.5164 12.5236 32.125 13.2465 32.125H34.191C34.9139 32.125 35.5 31.5164 35.5 30.7656C35.5 30.0149 34.9139 29.4062 34.191 29.4062Z" fill="#FEB452"/>
<path d="M44.9401 18.5312H30.5911C29.7987 18.5312 29.1562 19.1399 29.1562 19.8906C29.1562 20.6414 29.7987 21.25 30.5911 21.25H44.9401C45.7326 21.25 46.375 20.6414 46.375 19.8906C46.375 19.1399 45.7326 18.5312 44.9401 18.5312Z" fill="#FEB452"/>
<path d="M188.156 98.0938C192.04 98.0938 195.188 94.9458 195.188 91.0625C195.188 87.1792 192.04 84.0312 188.156 84.0312C184.273 84.0312 181.125 87.1792 181.125 91.0625C181.125 94.9458 184.273 98.0938 188.156 98.0938Z" fill="white"/>
<path d="M156.125 121.531H199.875V107.359H199.094C190.555 107.359 187.375 102.781 185.813 94.0781C184.25 85.375 177.875 82.4688 170.969 82.4688C164.063 82.4688 158.469 87.1563 158.469 94.0781V94.8594C158.516 93.6615 159.035 92.531 159.914 91.7154C160.792 90.8998 161.958 90.4656 163.156 90.5078C164.343 90.5048 165.487 90.9522 166.357 91.7599C167.228 92.5676 167.759 93.6753 167.844 94.8594C167.844 96.5313 167.844 101.219 157.688 101.219H156.125V121.531Z" fill="#B7CDE1"/>
<g style="mix-blend-mode:multiply">
<path d="M199.875 117.625H156.125V121.531H199.875V117.625Z" fill="#42CACD"/>
</g>
<g style="mix-blend-mode:multiply">
<path d="M158.469 101.219C163.648 101.219 172.531 101.219 172.531 93.4063C172.531 84.8125 158.469 81.6875 158.469 94.0782V94.8594C158.516 93.6615 159.035 92.531 159.914 91.7154C160.792 90.8998 161.958 90.4656 163.156 90.5078C164.343 90.5048 165.487 90.9523 166.357 91.7599C167.228 92.5676 167.759 93.6753 167.844 94.8594C167.844 96.5313 167.844 101.219 157.688 101.219" fill="#42CACD"/>
</g>
<g style="mix-blend-mode:multiply">
<path d="M188.156 98.0938C192.04 98.0938 195.188 94.9458 195.188 91.0625C195.188 87.1792 192.04 84.0312 188.156 84.0312C184.273 84.0312 181.125 87.1792 181.125 91.0625C181.125 94.9458 184.273 98.0938 188.156 98.0938Z" fill="#FEB452"/>
</g>
<path d="M133.839 14.0511L144.631 15.4011L156.772 3.2595L148.681 1.9095C148.372 1.8054 148.042 1.78176 147.721 1.84082C147.401 1.89987 147.101 2.03967 146.85 2.247L133.839 14.0511Z" fill="white"/>
<path d="M159 39.1609L157.65 28.3693L169.791 16.2278L171.141 24.3278C171.24 24.6322 171.26 24.9566 171.199 25.2708C171.139 25.585 171 25.8788 170.795 26.125L159 39.1609Z" fill="white"/>
<path d="M139.863 24.2352C141.038 23.0615 142.631 22.4025 144.292 22.4033C145.953 22.4041 147.545 23.0646 148.719 24.2394C149.892 25.4142 150.551 27.0072 150.55 28.6678C150.55 30.3285 149.889 31.9208 148.714 33.0946C142.521 39.2877 134.548 40.1736 133.662 39.2877C132.776 38.4017 133.662 30.4367 139.863 24.2352Z" fill="#F7993B"/>
<g style="mix-blend-mode:multiply">
<path d="M142.226 24.2099C142.647 23.7894 143.147 23.4559 143.697 23.2286C144.247 23.0012 144.836 22.8844 145.431 22.8848C146.026 22.8852 146.615 23.0028 147.165 23.2308C147.714 23.4589 148.214 23.793 148.634 24.2141C149.055 24.6351 149.388 25.1349 149.615 25.6848C149.843 26.2347 149.96 26.824 149.959 27.4191C149.959 28.0142 149.841 28.6033 149.613 29.1529C149.385 29.7025 149.051 30.2019 148.63 30.6224C144.15 35.1027 138.378 35.7439 137.737 35.1027C137.096 34.4614 137.737 28.6986 142.226 24.2099Z" fill="#F05656"/>
</g>
<path d="M165.066 -4.16534C174.508 -8.2069 180.625 -7.5319 180.625 -7.5319C180.625 -7.5319 181.3 -1.46534 177.25 7.97623C175.225 12.7012 167.808 20.1178 167.808 20.1178L156.3 31.5928L141.458 16.7512L152.925 5.28466C152.925 5.28466 160.375 -2.14034 165.066 -4.16534Z" fill="#B7CDE1"/>
<path d="M142.81 18.1011L154.951 30.2423L153.967 31.2267C153.865 31.328 153.728 31.3849 153.585 31.3849C153.442 31.3849 153.304 31.328 153.203 31.2267L141.802 19.8253C141.711 19.7222 141.662 19.5882 141.667 19.4507C141.671 19.3132 141.728 19.1826 141.825 19.0855L142.81 18.1011Z" fill="#F7993B"/>
<g style="mix-blend-mode:multiply">
<path d="M133.839 14.0511L144.631 15.4011L156.772 3.2595L148.681 1.9095C148.372 1.8054 148.042 1.78176 147.721 1.84082C147.401 1.89987 147.101 2.03967 146.85 2.247L133.839 14.0511Z" fill="#42CACD"/>
</g>
<g style="mix-blend-mode:multiply">
<path d="M159 39.1612L157.65 28.3696L169.791 16.228L171.141 24.328C171.24 24.6325 171.26 24.9569 171.199 25.2711C171.139 25.5853 171 25.8791 170.795 26.1252L159 39.1612Z" fill="#42CACD"/>
</g>
<g style="mix-blend-mode:multiply">
<path d="M169.724 7.03116C171.807 7.03116 173.495 5.34258 173.495 3.2596C173.495 1.17662 171.807 -0.511963 169.724 -0.511963C167.641 -0.511963 165.952 1.17662 165.952 3.2596C165.952 5.34258 167.641 7.03116 169.724 7.03116Z" fill="#B7CDE1"/>
</g>
<g style="mix-blend-mode:multiply">
<path d="M169.673 5.73184C170.978 5.73184 172.036 4.67411 172.036 3.36934C172.036 2.06456 170.978 1.00684 169.673 1.00684C168.368 1.00684 167.311 2.06456 167.311 3.36934C167.311 4.67411 168.368 5.73184 169.673 5.73184Z" fill="#42CACD"/>
</g>
<path d="M163.75 13.3761C164.366 12.448 163.893 10.8449 163.075 10.0011C162.257 9.15737 160.662 8.75237 159.742 9.35987L145.508 27.5427L163.75 13.3761Z" fill="#42CACD"/>
<path d="M96 84.0625C103.922 84.0625 110.344 77.6406 110.344 69.7188C110.344 61.7969 103.922 55.375 96 55.375C88.0782 55.375 81.6562 61.7969 81.6562 69.7188C81.6562 77.6406 88.0782 84.0625 96 84.0625Z" fill="white"/>
<path d="M99.5775 101.857C99.3244 102.245 99.0459 102.186 98.97 101.731L95.1056 79.8943C95.0805 79.7908 95.0799 79.6828 95.1039 79.579C95.1279 79.4752 95.1758 79.3785 95.2439 79.2965C95.3119 79.2145 95.3982 79.1496 95.4958 79.1069C95.5933 79.0642 95.6996 79.0449 95.8059 79.0505H104.505C104.741 79.0579 104.967 79.1455 105.147 79.2989C105.326 79.4523 105.448 79.6623 105.492 79.8943L109.357 101.731C109.433 102.186 109.179 102.355 108.791 102.102L102.936 98.3218C102.843 98.2604 102.739 98.218 102.629 98.1971C102.52 98.1761 102.407 98.1771 102.298 98.1998C102.189 98.2226 102.086 98.2667 101.994 98.3296C101.902 98.3925 101.823 98.473 101.763 98.5665L99.5775 101.857Z" fill="#B7CDE1"/>
<path d="M92.3297 101.925C92.6334 102.279 92.9541 102.186 93.03 101.731L96.8944 79.8943C96.9195 79.7908 96.9201 79.6828 96.8961 79.579C96.8721 79.4752 96.8242 79.3785 96.7561 79.2965C96.6881 79.2145 96.6018 79.1496 96.5042 79.1069C96.4067 79.0642 96.3004 79.0449 96.1941 79.0505H87.495C87.259 79.0579 87.0326 79.1455 86.8531 79.2989C86.6736 79.4523 86.5518 79.6623 86.5078 79.8943L82.6434 101.731C82.5675 102.186 82.8037 102.33 83.175 102.051L88.0603 98.4061C88.2435 98.269 88.4713 98.2052 88.6991 98.227C88.9269 98.2489 89.1383 98.3548 89.2922 98.5243L92.3297 101.925Z" fill="#B7CDE1"/>
<g style="mix-blend-mode:multiply">
<path d="M96 84.0625C103.922 84.0625 110.344 77.6406 110.344 69.7188C110.344 61.7969 103.922 55.375 96 55.375C88.0782 55.375 81.6562 61.7969 81.6562 69.7188C81.6562 77.6406 88.0782 84.0625 96 84.0625Z" fill="#FEB452"/>
</g>
<g style="mix-blend-mode:multiply">
<path d="M95.6288 62.4541C95.8313 62.0322 96.1688 62.0322 96.3713 62.4541L98.2359 66.2172C98.3644 66.4365 98.5387 66.6254 98.747 66.771C98.9552 66.9167 99.1925 67.0156 99.4425 67.061L103.602 67.6685C104.058 67.736 104.168 68.0566 103.83 68.3772L100.826 71.3135C100.651 71.5024 100.52 71.7269 100.439 71.9715C100.359 72.2162 100.333 72.4752 100.362 72.731L101.063 76.9075C101.138 77.3716 100.868 77.5657 100.463 77.3547L96.7425 75.3972C96.507 75.2889 96.2508 75.2328 95.9916 75.2328C95.7323 75.2328 95.4762 75.2889 95.2406 75.3972L91.5281 77.3547C91.1231 77.5657 90.8531 77.3547 90.9291 76.9075L91.6378 72.7647C91.667 72.509 91.6407 72.2499 91.5606 72.0053C91.4805 71.7607 91.3485 71.5362 91.1738 71.3472L88.17 68.411C87.8325 68.0904 87.9422 67.7697 88.3978 67.7022L92.5575 67.0947C92.8075 67.0493 93.0448 66.9504 93.2531 66.8048C93.4613 66.6592 93.6356 66.4702 93.7641 66.251L95.6288 62.4541Z" fill="#FEB452"/>
</g>
<rect x="14.9375" y="82.9062" width="10.125" height="2.53125" rx="1.26562" fill="white"/>
<path d="M24.4887 109.602C24.4236 108.187 23.8157 106.851 22.7912 105.872C21.7667 104.893 20.4045 104.346 18.9875 104.346C17.5705 104.346 16.2082 104.893 15.1838 105.872C14.1593 106.851 13.5513 108.187 13.4862 109.602C13.3551 108.239 12.7206 106.973 11.7066 106.052C10.6926 105.13 9.37179 104.62 8.00186 104.62C6.63193 104.62 5.31113 105.13 4.29712 106.052C3.28312 106.973 2.64865 108.239 2.51749 109.602C2.4753 117.854 13.4862 123.406 13.4862 123.406C13.4862 123.406 24.4887 117.854 24.4887 109.602Z" fill="white"/>
<path d="M24.4634 96.3218H25.3072C28.6036 96.3861 31.7403 97.7541 34.0302 100.126C36.3201 102.498 37.5766 105.681 37.5247 108.978V126.022C37.5249 126.461 37.354 126.882 37.0484 127.197C36.7428 127.513 36.3265 127.696 35.8878 127.709H13.849C13.4086 127.696 12.9907 127.512 12.6847 127.195C12.3811 126.88 12.2117 126.459 12.2122 126.022V108.978C12.1603 105.676 13.4214 102.488 15.7186 100.115C18.0158 97.7414 21.1611 96.3773 24.4634 96.3218Z" fill="white"/>
<path d="M24.8684 95.478C26.3703 95.478 27.8385 95.0327 29.0873 94.1983C30.3361 93.3638 31.3094 92.1779 31.8842 90.7903C32.4589 89.4027 32.6093 87.8759 32.3163 86.4028C32.0233 84.9298 31.3 83.5767 30.238 82.5147C29.176 81.4527 27.823 80.7294 26.3499 80.4364C24.8769 80.1434 23.35 80.2938 21.9624 80.8686C20.5749 81.4433 19.3889 82.4166 18.5545 83.6654C17.7201 84.9142 17.2747 86.3824 17.2747 87.8843C17.2747 89.8983 18.0747 91.8298 19.4988 93.2539C20.923 94.678 22.8545 95.478 24.8684 95.478Z" fill="white"/>
<g style="mix-blend-mode:multiply">
<path d="M24.4634 96.3218H25.3072C28.6036 96.3861 31.7403 97.7541 34.0302 100.126C36.3201 102.498 37.5766 105.681 37.5247 108.978V126.022C37.5249 126.461 37.354 126.882 37.0484 127.197C36.7428 127.513 36.3265 127.696 35.8878 127.709H13.849C13.4086 127.696 12.9907 127.512 12.6847 127.195C12.3811 126.88 12.2117 126.459 12.2122 126.022V108.978C12.1603 105.676 13.4214 102.488 15.7186 100.115C18.0158 97.7414 21.1611 96.3773 24.4634 96.3218Z" fill="#B7CDE1"/>
</g>
<g style="mix-blend-mode:multiply">
<path d="M24.8684 95.478C26.3703 95.478 27.8385 95.0327 29.0873 94.1983C30.3361 93.3638 31.3094 92.1779 31.8842 90.7903C32.4589 89.4027 32.6093 87.8759 32.3163 86.4028C32.0233 84.9298 31.3 83.5767 30.238 82.5147C29.176 81.4527 27.823 80.7294 26.3499 80.4364C24.8769 80.1434 23.35 80.2938 21.9624 80.8686C20.5749 81.4433 19.3889 82.4166 18.5545 83.6654C17.7201 84.9142 17.2747 86.3824 17.2747 87.8843C17.2747 89.8983 18.0747 91.8298 19.4988 93.2539C20.923 94.678 22.8545 95.478 24.8684 95.478Z" fill="#B7CDE1"/>
</g>
<g style="mix-blend-mode:multiply">
<path d="M24.4887 109.603C24.4236 108.187 23.8157 106.851 22.7912 105.872C21.7667 104.893 20.4045 104.347 18.9875 104.346C17.5705 104.347 16.2082 104.893 15.1838 105.872C14.1593 106.851 13.5513 108.187 13.4862 109.603C13.3551 108.239 12.7206 106.973 11.7066 106.052C10.6926 105.131 9.37179 104.62 8.00186 104.62C6.63193 104.62 5.31113 105.131 4.29712 106.052C3.28312 106.973 2.64865 108.239 2.51749 109.603C2.4753 117.854 13.4862 123.406 13.4862 123.406C13.4862 123.406 24.4887 117.854 24.4887 109.603Z" fill="#F05656"/>
</g>
<g style="mix-blend-mode:multiply">
<path d="M22.9429 92.5277C22.7726 93.0053 23.0217 93.539 23.5211 93.6273C24.0828 93.7267 24.6584 93.7382 25.2272 93.6597C26.1004 93.5391 26.9316 93.2098 27.6505 92.6997C28.3694 92.1896 28.9547 91.5138 29.3569 90.7294C29.6189 90.2185 29.7982 89.6713 29.8899 89.1083C29.9714 88.6078 29.55 88.1964 29.0429 88.1994L28.8543 88.2006C28.3472 88.2036 27.9505 88.6241 27.8204 89.1143C27.7571 89.3526 27.6683 89.5844 27.555 89.8054C27.3013 90.3001 26.9321 90.7264 26.4787 91.0482C26.0252 91.3699 25.5009 91.5776 24.9501 91.6537C24.7041 91.6877 24.4561 91.6949 24.2102 91.6759C23.7046 91.6368 23.1766 91.8724 23.0063 92.3501L22.9429 92.5277Z" fill="#B7CDE1"/>
</g>
<g style="mix-blend-mode:multiply">
<rect x="14.9375" y="82.9062" width="10.125" height="2.53125" rx="1.26562" fill="#B7CDE1"/>
</g>
</g>
<defs>
<clipPath id="clip0_309_152011">
<rect width="200" height="138" fill="white"/>
</clipPath>
</defs>
</svg>
