<svg viewBox="0 0 471 280" fill="none"
    xmlns="http://www.w3.org/2000/svg">
    <g clip-path="url(#clip0_429_17967)">
        <rect width="471" height="280" rx="12" fill="white"/>
        <path d="M3.723 18L0.255 6.1H2.635L4.93 15.246L7.259 6.1H9.877L12.223 15.246L14.518 6.1H16.898L13.464 18H11.016L8.585 9.279L6.137 18H3.723ZM18.1864 18V5.964H20.3284V10.758C20.8894 9.823 21.8584 9.296 23.0484 9.296C24.9694 9.296 26.2444 10.52 26.2444 12.39V18H24.1024V12.917C24.1024 11.863 23.4564 11.2 22.4024 11.2C21.0764 11.2 20.3284 12.339 20.3284 14.277V18H18.1864ZM29.3844 8.123C28.6194 8.123 28.0584 7.545 28.0584 6.797C28.0584 6.066 28.6194 5.488 29.3844 5.488C30.1664 5.488 30.7444 6.066 30.7444 6.797C30.7444 7.545 30.1664 8.123 29.3844 8.123ZM28.3134 18V9.432H30.4554V18H28.3134ZM37.6132 17.915C37.1882 18.068 36.7292 18.136 36.2362 18.136C34.5022 18.136 33.2102 17.201 33.2102 15.195V11.234H31.7652V9.432H33.2102V6.916H35.3522V9.432H37.5112V11.234H35.3522V14.991C35.3522 15.807 35.7942 16.249 36.4572 16.249C36.7802 16.249 37.1542 16.198 37.4602 16.045L37.6132 17.915ZM46.9968 13.427C46.9968 13.733 46.9798 14.107 46.9628 14.277H40.6048C40.7918 15.569 41.6248 16.334 42.8488 16.334C43.8518 16.334 44.5658 15.858 44.7868 15.025L46.7928 15.569C46.3168 17.184 44.8208 18.136 42.8148 18.136C39.9758 18.136 38.4628 15.943 38.4628 13.716C38.4628 11.489 39.8568 9.296 42.6958 9.296C45.5858 9.296 46.9968 11.438 46.9968 13.427ZM40.6558 12.713H44.7018C44.5998 11.693 43.9368 10.928 42.6958 10.928C41.6418 10.928 40.8938 11.557 40.6558 12.713ZM56.1181 18.085C54.2141 18.374 52.7011 17.626 52.7011 15.518V5.964H54.8431V15.246C54.8431 16.215 55.2851 16.266 55.9821 16.249L56.1181 18.085ZM60.8965 9.296C63.1405 9.296 64.6705 10.503 64.6705 12.781V18H62.5965V16.759C62.1205 17.592 61.0835 18.136 60.0295 18.136C58.3465 18.136 57.1735 17.048 57.1735 15.586C57.1735 13.903 58.4485 13.002 60.9985 12.73L62.5965 12.577V12.492C62.5965 11.523 61.9335 10.928 60.8965 10.928C59.9615 10.928 59.2985 11.506 59.1965 12.424L57.2925 12.084C57.5645 10.384 59.0775 9.296 60.8965 9.296ZM60.5055 16.555C61.8315 16.555 62.5965 15.552 62.5965 14.294V14.107L60.9645 14.294C59.8255 14.43 59.2475 14.906 59.2475 15.518C59.2475 16.113 59.7235 16.555 60.5055 16.555ZM71.3526 18.136C70.2986 18.136 69.3296 17.694 68.9046 17.014V18H66.7626V5.964H68.9046V10.384C69.3976 9.738 70.3156 9.296 71.3866 9.296C73.9196 9.296 75.4326 11.098 75.4326 13.716C75.4326 16.334 73.9196 18.136 71.3526 18.136ZM71.0466 16.283C72.4066 16.283 73.3076 15.263 73.3076 13.716C73.3076 12.169 72.4066 11.149 71.0466 11.149C69.6696 11.149 68.7686 12.169 68.7686 13.716C68.7686 15.263 69.6696 16.283 71.0466 16.283ZM85.1306 13.427C85.1306 13.733 85.1136 14.107 85.0966 14.277H78.7386C78.9256 15.569 79.7586 16.334 80.9826 16.334C81.9856 16.334 82.6996 15.858 82.9206 15.025L84.9266 15.569C84.4506 17.184 82.9546 18.136 80.9486 18.136C78.1096 18.136 76.5966 15.943 76.5966 13.716C76.5966 11.489 77.9906 9.296 80.8296 9.296C83.7196 9.296 85.1306 11.438 85.1306 13.427ZM78.7896 12.713H82.8356C82.7336 11.693 82.0706 10.928 80.8296 10.928C79.7756 10.928 79.0276 11.557 78.7896 12.713ZM90.1679 18.085C88.2639 18.374 86.7509 17.626 86.7509 15.518V5.964H88.8929V15.246C88.8929 16.215 89.3349 16.266 90.0319 16.249L90.1679 18.085ZM92.7193 8.123C91.9543 8.123 91.3933 7.545 91.3933 6.797C91.3933 6.066 91.9543 5.488 92.7193 5.488C93.5013 5.488 94.0793 6.066 94.0793 6.797C94.0793 7.545 93.5013 8.123 92.7193 8.123ZM91.6483 18V9.432H93.7903V18H91.6483ZM95.8651 18V9.432H98.0071V10.724C98.5511 9.891 99.5201 9.296 100.727 9.296C102.597 9.296 103.855 10.52 103.855 12.39V18H101.713V12.9C101.713 11.897 101.084 11.2 100.081 11.2C98.7721 11.2 98.0071 12.322 98.0071 14.243V18H95.8651ZM110.482 16.198C112.454 16.198 113.644 17.031 113.644 18.595C113.644 20.499 111.774 21.23 109.479 21.23C106.963 21.23 105.314 20.431 105.314 18.765C105.314 18.17 105.654 17.541 106.147 17.133C105.79 16.81 105.586 16.402 105.586 15.909C105.586 15.093 106.079 14.515 106.827 14.192C106.334 13.682 106.062 13.019 106.062 12.237C106.062 10.469 107.456 9.296 109.462 9.296C110.04 9.296 110.567 9.398 111.026 9.585L112.284 8.276L113.525 9.432L112.386 10.622C112.692 11.064 112.879 11.625 112.879 12.237C112.879 14.005 111.485 15.161 109.462 15.161C109.003 15.161 108.561 15.093 108.17 14.991C107.796 15.178 107.626 15.399 107.626 15.654C107.626 16.045 107.983 16.198 108.476 16.198H110.482ZM109.462 10.945C108.663 10.945 108.051 11.438 108.051 12.237C108.051 13.019 108.663 13.512 109.462 13.512C110.244 13.512 110.873 13.019 110.873 12.237C110.873 11.438 110.244 10.945 109.462 10.945ZM109.479 19.513C110.924 19.513 111.57 19.207 111.57 18.629C111.57 18.017 111.009 17.864 110.125 17.864H108.544C108.272 17.864 108 17.847 107.745 17.796C107.473 18.085 107.388 18.34 107.388 18.646C107.388 19.224 107.966 19.513 109.479 19.513Z" fill="#20014B"/>
        <path d="M1.168 50V38.8H8.336V40.096H2.624V43.52H7.296V44.832H2.624V50H1.168ZM12.6423 50.128C10.2423 50.128 8.54625 48.384 8.54625 45.968C8.54625 43.552 10.2423 41.808 12.6423 41.808C15.0263 41.808 16.7543 43.552 16.7543 45.968C16.7543 48.384 15.0263 50.128 12.6423 50.128ZM12.6423 48.912C14.2583 48.912 15.3463 47.696 15.3463 45.968C15.3463 44.24 14.2583 43.024 12.6423 43.024C11.0263 43.024 9.93825 44.24 9.93825 45.968C9.93825 47.696 11.0263 48.912 12.6423 48.912ZM23.2146 43.264C22.9106 43.136 22.5266 43.072 22.1746 43.072C20.8946 43.072 19.8546 44.304 19.8546 46.928V50H18.4946V41.936H19.8546V43.568C20.3186 42.544 21.3746 41.808 22.3666 41.808C22.7026 41.808 23.0226 41.856 23.2946 41.952L23.2146 43.264ZM30.271 50L27.807 41.936H29.199L30.943 48.096L32.831 41.936H34.143L36.031 48.096L37.759 41.936H39.183L36.703 50H35.375L33.487 43.872L31.599 50H30.271ZM40.6978 50V38.672H42.0578V43.52C42.6498 42.368 43.6258 41.808 44.8098 41.808C46.6338 41.808 47.8338 42.944 47.8338 44.688V50H46.4738V44.944C46.4738 43.76 45.7378 43.04 44.5058 43.04C43.0178 43.04 42.0578 44.384 42.0578 46.544V50H40.6978ZM50.7135 40.416C50.1695 40.416 49.7695 40 49.7695 39.472C49.7695 38.928 50.1695 38.512 50.7135 38.512C51.2735 38.512 51.6895 38.928 51.6895 39.472C51.6895 40 51.2735 40.416 50.7135 40.416ZM50.0415 50V41.936H51.4015V50H50.0415ZM57.892 49.936C57.492 50.08 57.06 50.128 56.628 50.128C55.252 50.128 54.244 49.36 54.244 47.584V43.136H52.74V41.936H54.244V39.488H55.604V41.936H57.764V43.136H55.604V47.632C55.604 48.48 56.084 48.896 56.788 48.896C57.108 48.896 57.476 48.848 57.796 48.688L57.892 49.936ZM66.5719 45.6C66.5719 45.792 66.5559 46.08 66.5399 46.224H60.1719C60.2679 47.856 61.2919 48.928 62.7479 48.928C63.9799 48.928 64.8279 48.352 65.0679 47.344L66.3479 47.648C65.9479 49.216 64.6039 50.128 62.7479 50.128C60.3319 50.128 58.8119 48.256 58.8119 45.968C58.8119 43.68 60.2839 41.808 62.7159 41.808C65.0999 41.808 66.5719 43.52 66.5719 45.6ZM60.2519 45.088H65.1319C65.0039 43.856 64.1399 42.944 62.7159 42.944C61.4519 42.944 60.5239 43.744 60.2519 45.088ZM74.6941 50.112C73.2541 50.256 72.1821 49.712 72.1821 48.032V38.672H73.5421V47.936C73.5421 48.816 73.9581 48.944 74.6301 48.896L74.6941 50.112ZM79.2839 41.808C81.2359 41.808 82.5959 42.96 82.5959 44.832V50H81.2519V48.624C80.7879 49.552 79.7319 50.128 78.5639 50.128C76.9479 50.128 75.8439 49.136 75.8439 47.744C75.8439 46.192 77.1079 45.344 79.6839 45.088L81.2519 44.912V44.752C81.2519 43.648 80.4679 42.944 79.2839 42.944C78.1799 42.944 77.3959 43.6 77.2839 44.688L76.0199 44.448C76.2599 42.848 77.5879 41.808 79.2839 41.808ZM78.7719 49.008C80.3399 49.008 81.2519 47.968 81.2519 46.352V45.968L79.6839 46.144C78.0519 46.32 77.2039 46.88 77.2039 47.728C77.2039 48.48 77.8439 49.008 78.7719 49.008ZM88.7911 50.128C87.6071 50.128 86.5351 49.568 86.1671 48.832V50H84.8071V38.672H86.1671V43.088C86.6791 42.336 87.7351 41.808 88.8071 41.808C91.3031 41.808 92.6791 43.6 92.6791 45.968C92.6791 48.336 91.3031 50.128 88.7911 50.128ZM88.6631 48.912C90.2471 48.912 91.2871 47.744 91.2871 45.968C91.2871 44.192 90.2471 43.024 88.6631 43.024C87.0791 43.024 86.0551 44.192 86.0551 45.968C86.0551 47.744 87.0791 48.912 88.6631 48.912ZM101.713 45.6C101.713 45.792 101.697 46.08 101.681 46.224H95.3125C95.4085 47.856 96.4325 48.928 97.8885 48.928C99.1205 48.928 99.9685 48.352 100.209 47.344L101.489 47.648C101.089 49.216 99.7445 50.128 97.8885 50.128C95.4725 50.128 93.9525 48.256 93.9525 45.968C93.9525 43.68 95.4245 41.808 97.8565 41.808C100.241 41.808 101.713 43.52 101.713 45.6ZM95.3925 45.088H100.273C100.145 43.856 99.2805 42.944 97.8565 42.944C96.5925 42.944 95.6645 43.744 95.3925 45.088ZM105.975 50.112C104.535 50.256 103.463 49.712 103.463 48.032V38.672H104.823V47.936C104.823 48.816 105.239 48.944 105.911 48.896L105.975 50.112ZM108.229 40.416C107.685 40.416 107.285 40 107.285 39.472C107.285 38.928 107.685 38.512 108.229 38.512C108.789 38.512 109.205 38.928 109.205 39.472C109.205 40 108.789 40.416 108.229 40.416ZM107.557 50V41.936H108.917V50H107.557ZM111.12 50V41.936H112.48V43.456C113.04 42.496 114.016 41.808 115.248 41.808C116.928 41.808 118.128 42.944 118.128 44.656V50H116.768V44.912C116.768 43.824 116.08 43.04 114.944 43.04C113.44 43.04 112.48 44.336 112.48 46.464V50H111.12ZM124.482 48.432C126.098 48.432 127.218 49.104 127.218 50.592C127.218 52.208 125.714 53.04 123.506 53.04C121.218 53.04 119.794 52.224 119.794 50.736C119.794 50.032 120.178 49.456 120.658 49.088C120.258 48.816 120.018 48.416 120.018 47.84C120.018 47.136 120.482 46.608 121.106 46.32C120.674 45.856 120.434 45.248 120.434 44.528C120.434 42.896 121.746 41.808 123.49 41.808C124.018 41.808 124.514 41.92 124.962 42.128L126.226 41.04L127.01 41.936L125.938 42.848C126.322 43.296 126.546 43.872 126.546 44.528C126.546 46.192 125.25 47.248 123.49 47.248C122.914 47.248 122.418 47.136 121.986 46.944C121.522 47.152 121.33 47.424 121.33 47.76C121.33 48.256 121.794 48.432 122.322 48.432H124.482ZM123.49 42.912C122.562 42.912 121.762 43.52 121.762 44.528C121.762 45.552 122.562 46.144 123.49 46.144C124.418 46.144 125.218 45.552 125.218 44.528C125.218 43.52 124.418 42.912 123.49 42.912ZM123.506 51.888C125.042 51.888 125.89 51.456 125.89 50.688C125.89 49.824 125.25 49.536 124.29 49.536H122.578C122.29 49.536 122.018 49.52 121.762 49.488C121.266 49.824 121.122 50.256 121.122 50.72C121.122 51.456 121.938 51.888 123.506 51.888ZM128.089 51.696L129.017 48.336H130.841L129.049 51.696H128.089ZM138.505 50L136.041 41.936H137.433L139.177 48.096L141.065 41.936H142.377L144.265 48.096L145.993 41.936H147.417L144.937 50H143.609L141.721 43.872L139.833 50H138.505ZM156.025 45.6C156.025 45.792 156.009 46.08 155.993 46.224H149.625C149.721 47.856 150.745 48.928 152.201 48.928C153.433 48.928 154.281 48.352 154.521 47.344L155.801 47.648C155.401 49.216 154.057 50.128 152.201 50.128C149.785 50.128 148.265 48.256 148.265 45.968C148.265 43.68 149.737 41.808 152.169 41.808C154.553 41.808 156.025 43.52 156.025 45.6ZM149.705 45.088H154.585C154.457 43.856 153.593 42.944 152.169 42.944C150.905 42.944 149.977 43.744 149.705 45.088ZM161.635 52.912V41.936H162.995V43.104C163.427 42.368 164.483 41.808 165.651 41.808C168.131 41.808 169.507 43.6 169.507 45.968C169.507 48.336 168.099 50.128 165.619 50.128C164.595 50.128 163.539 49.616 162.995 48.88V52.912H161.635ZM165.491 48.912C167.091 48.912 168.131 47.744 168.131 45.968C168.131 44.192 167.091 43.024 165.491 43.024C163.923 43.024 162.883 44.192 162.883 45.968C162.883 47.744 163.923 48.912 165.491 48.912ZM171.917 40.416C171.373 40.416 170.973 40 170.973 39.472C170.973 38.928 171.373 38.512 171.917 38.512C172.477 38.512 172.893 38.928 172.893 39.472C172.893 40 172.477 40.416 171.917 40.416ZM171.245 50V41.936H172.605V50H171.245ZM178.343 50.128C175.943 50.128 174.343 48.464 174.343 45.968C174.343 43.472 175.943 41.808 178.343 41.808C180.215 41.808 181.591 42.832 181.879 44.432L180.535 44.704C180.359 43.728 179.511 43.024 178.375 43.024C176.791 43.024 175.767 44.192 175.767 45.968C175.767 47.744 176.791 48.912 178.375 48.912C179.511 48.912 180.343 48.288 180.567 47.216L181.895 47.488C181.543 49.152 180.199 50.128 178.343 50.128ZM189.076 50L186.036 46.032L184.964 47.008V50H183.588V38.672H184.964V45.216L188.692 41.936H190.5L187.044 45.12L190.772 50H189.076ZM199.009 45.6C199.009 45.792 198.993 46.08 198.977 46.224H192.609C192.705 47.856 193.729 48.928 195.185 48.928C196.417 48.928 197.265 48.352 197.505 47.344L198.785 47.648C198.385 49.216 197.041 50.128 195.185 50.128C192.769 50.128 191.249 48.256 191.249 45.968C191.249 43.68 192.721 41.808 195.153 41.808C197.537 41.808 199.009 43.52 199.009 45.6ZM192.689 45.088H197.569C197.441 43.856 196.577 42.944 195.153 42.944C193.889 42.944 192.961 43.744 192.689 45.088ZM204.184 50.128C201.672 50.128 200.296 48.336 200.296 45.968C200.296 43.6 201.672 41.808 204.168 41.808C205.24 41.808 206.296 42.336 206.808 43.088V38.672H208.168V50H206.808V48.832C206.44 49.568 205.368 50.128 204.184 50.128ZM204.312 48.912C205.896 48.912 206.936 47.744 206.936 45.968C206.936 44.192 205.896 43.024 204.312 43.024C202.728 43.024 201.688 44.192 201.688 45.968C201.688 47.744 202.728 48.912 204.312 48.912ZM217.237 41.808C219.189 41.808 220.549 42.96 220.549 44.832V50H219.205V48.624C218.741 49.552 217.685 50.128 216.517 50.128C214.901 50.128 213.797 49.136 213.797 47.744C213.797 46.192 215.061 45.344 217.637 45.088L219.205 44.912V44.752C219.205 43.648 218.421 42.944 217.237 42.944C216.133 42.944 215.349 43.6 215.237 44.688L213.973 44.448C214.213 42.848 215.541 41.808 217.237 41.808ZM216.725 49.008C218.293 49.008 219.205 47.968 219.205 46.352V45.968L217.637 46.144C216.005 46.32 215.157 46.88 215.157 47.728C215.157 48.48 215.797 49.008 216.725 49.008ZM229.132 50.112C227.692 50.256 226.62 49.712 226.62 48.032V38.672H227.98V47.936C227.98 48.816 228.396 48.944 229.068 48.896L229.132 50.112ZM231.385 40.416C230.841 40.416 230.441 40 230.441 39.472C230.441 38.928 230.841 38.512 231.385 38.512C231.945 38.512 232.361 38.928 232.361 39.472C232.361 40 231.945 40.416 231.385 40.416ZM230.713 50V41.936H232.073V50H230.713ZM238.42 48.432C240.036 48.432 241.156 49.104 241.156 50.592C241.156 52.208 239.652 53.04 237.444 53.04C235.156 53.04 233.732 52.224 233.732 50.736C233.732 50.032 234.116 49.456 234.596 49.088C234.196 48.816 233.956 48.416 233.956 47.84C233.956 47.136 234.42 46.608 235.044 46.32C234.612 45.856 234.372 45.248 234.372 44.528C234.372 42.896 235.684 41.808 237.428 41.808C237.956 41.808 238.452 41.92 238.9 42.128L240.164 41.04L240.948 41.936L239.876 42.848C240.26 43.296 240.484 43.872 240.484 44.528C240.484 46.192 239.188 47.248 237.428 47.248C236.852 47.248 236.356 47.136 235.924 46.944C235.46 47.152 235.268 47.424 235.268 47.76C235.268 48.256 235.732 48.432 236.26 48.432H238.42ZM237.428 42.912C236.5 42.912 235.7 43.52 235.7 44.528C235.7 45.552 236.5 46.144 237.428 46.144C238.356 46.144 239.156 45.552 239.156 44.528C239.156 43.52 238.356 42.912 237.428 42.912ZM237.444 51.888C238.98 51.888 239.828 51.456 239.828 50.688C239.828 49.824 239.188 49.536 238.228 49.536H236.516C236.228 49.536 235.956 49.52 235.7 49.488C235.204 49.824 235.06 50.256 235.06 50.72C235.06 51.456 235.876 51.888 237.444 51.888ZM242.682 50V38.672H244.042V43.52C244.634 42.368 245.61 41.808 246.794 41.808C248.618 41.808 249.818 42.944 249.818 44.688V50H248.458V44.944C248.458 43.76 247.722 43.04 246.49 43.04C245.002 43.04 244.042 44.384 244.042 46.544V50H242.682ZM256.017 49.936C255.617 50.08 255.185 50.128 254.753 50.128C253.377 50.128 252.369 49.36 252.369 47.584V43.136H250.865V41.936H252.369V39.488H253.729V41.936H255.889V43.136H253.729V47.632C253.729 48.48 254.209 48.896 254.913 48.896C255.233 48.896 255.601 48.848 255.921 48.688L256.017 49.936ZM264.697 45.6C264.697 45.792 264.681 46.08 264.665 46.224H258.297C258.393 47.856 259.417 48.928 260.873 48.928C262.105 48.928 262.953 48.352 263.193 47.344L264.473 47.648C264.073 49.216 262.729 50.128 260.873 50.128C258.457 50.128 256.937 48.256 256.937 45.968C256.937 43.68 258.409 41.808 260.841 41.808C263.225 41.808 264.697 43.52 264.697 45.6ZM258.377 45.088H263.257C263.129 43.856 262.265 42.944 260.841 42.944C259.577 42.944 258.649 43.744 258.377 45.088ZM271.168 43.264C270.864 43.136 270.48 43.072 270.128 43.072C268.848 43.072 267.808 44.304 267.808 46.928V50H266.448V41.936H267.808V43.568C268.272 42.544 269.328 41.808 270.32 41.808C270.656 41.808 270.976 41.856 271.248 41.952L271.168 43.264ZM280.72 49.936C280.32 50.08 279.888 50.128 279.456 50.128C278.08 50.128 277.072 49.36 277.072 47.584V43.136H275.568V41.936H277.072V39.488H278.432V41.936H280.592V43.136H278.432V47.632C278.432 48.48 278.912 48.896 279.616 48.896C279.936 48.896 280.304 48.848 280.624 48.688L280.72 49.936ZM282.979 40.416C282.435 40.416 282.035 40 282.035 39.472C282.035 38.928 282.435 38.512 282.979 38.512C283.539 38.512 283.955 38.928 283.955 39.472C283.955 40 283.539 40.416 282.979 40.416ZM282.307 50V41.936H283.667V50H282.307ZM285.87 50V41.936H287.23V43.456C287.79 42.496 288.766 41.808 289.998 41.808C291.678 41.808 292.878 42.944 292.878 44.656V50H291.518V44.912C291.518 43.824 290.83 43.04 289.694 43.04C288.19 43.04 287.23 44.336 287.23 46.464V50H285.87ZM299.08 49.936C298.68 50.08 298.248 50.128 297.816 50.128C296.44 50.128 295.432 49.36 295.432 47.584V43.136H293.928V41.936H295.432V39.488H296.792V41.936H298.952V43.136H296.792V47.632C296.792 48.48 297.272 48.896 297.976 48.896C298.296 48.896 298.664 48.848 298.984 48.688L299.08 49.936ZM308.158 50.128C305.758 50.128 304.062 48.384 304.062 45.968C304.062 43.552 305.758 41.808 308.158 41.808C310.542 41.808 312.27 43.552 312.27 45.968C312.27 48.384 310.542 50.128 308.158 50.128ZM308.158 48.912C309.774 48.912 310.862 47.696 310.862 45.968C310.862 44.24 309.774 43.024 308.158 43.024C306.542 43.024 305.454 44.24 305.454 45.968C305.454 47.696 306.542 48.912 308.158 48.912ZM314.592 50V43.136H313.215V41.936H314.592V41.184C314.592 39.408 315.6 38.464 316.976 38.464C317.344 38.464 317.728 38.496 318.064 38.592L318 39.808C317.712 39.696 317.424 39.648 317.152 39.648C316.432 39.648 315.952 40.208 315.952 41.072V41.936H318.016V43.136H315.952V50H314.592ZM327.798 49.936C327.398 50.08 326.966 50.128 326.534 50.128C325.158 50.128 324.15 49.36 324.15 47.584V43.136H322.646V41.936H324.15V39.488H325.51V41.936H327.67V43.136H325.51V47.632C325.51 48.48 325.99 48.896 326.694 48.896C327.014 48.896 327.382 48.848 327.702 48.688L327.798 49.936ZM329.526 50V38.672H330.886V43.52C331.478 42.368 332.454 41.808 333.638 41.808C335.462 41.808 336.662 42.944 336.662 44.688V50H335.302V44.944C335.302 43.76 334.566 43.04 333.334 43.04C331.846 43.04 330.886 44.384 330.886 46.544V50H329.526ZM346.166 45.6C346.166 45.792 346.15 46.08 346.134 46.224H339.766C339.862 47.856 340.886 48.928 342.342 48.928C343.574 48.928 344.422 48.352 344.662 47.344L345.942 47.648C345.542 49.216 344.198 50.128 342.342 50.128C339.926 50.128 338.406 48.256 338.406 45.968C338.406 43.68 339.878 41.808 342.31 41.808C344.694 41.808 346.166 43.52 346.166 45.6ZM339.846 45.088H344.726C344.598 43.856 343.734 42.944 342.31 42.944C341.046 42.944 340.118 43.744 339.846 45.088ZM355.92 48.432C357.536 48.432 358.656 49.104 358.656 50.592C358.656 52.208 357.152 53.04 354.944 53.04C352.656 53.04 351.232 52.224 351.232 50.736C351.232 50.032 351.616 49.456 352.096 49.088C351.696 48.816 351.456 48.416 351.456 47.84C351.456 47.136 351.92 46.608 352.544 46.32C352.112 45.856 351.872 45.248 351.872 44.528C351.872 42.896 353.184 41.808 354.928 41.808C355.456 41.808 355.952 41.92 356.4 42.128L357.664 41.04L358.448 41.936L357.376 42.848C357.76 43.296 357.984 43.872 357.984 44.528C357.984 46.192 356.688 47.248 354.928 47.248C354.352 47.248 353.856 47.136 353.424 46.944C352.96 47.152 352.768 47.424 352.768 47.76C352.768 48.256 353.232 48.432 353.76 48.432H355.92ZM354.928 42.912C354 42.912 353.2 43.52 353.2 44.528C353.2 45.552 354 46.144 354.928 46.144C355.856 46.144 356.656 45.552 356.656 44.528C356.656 43.52 355.856 42.912 354.928 42.912ZM354.944 51.888C356.48 51.888 357.328 51.456 357.328 50.688C357.328 49.824 356.688 49.536 355.728 49.536H354.016C353.728 49.536 353.456 49.52 353.2 49.488C352.704 49.824 352.56 50.256 352.56 50.72C352.56 51.456 353.376 51.888 354.944 51.888ZM360.854 40.416C360.31 40.416 359.91 40 359.91 39.472C359.91 38.928 360.31 38.512 360.854 38.512C361.414 38.512 361.83 38.928 361.83 39.472C361.83 40 361.414 40.416 360.854 40.416ZM360.182 50V41.936H361.542V50H360.182ZM365.793 50L362.849 41.936H364.241L366.481 48.416L368.737 41.936H370.145L367.185 50H365.793ZM378.494 45.6C378.494 45.792 378.478 46.08 378.462 46.224H372.094C372.19 47.856 373.214 48.928 374.67 48.928C375.902 48.928 376.75 48.352 376.99 47.344L378.27 47.648C377.87 49.216 376.526 50.128 374.67 50.128C372.254 50.128 370.734 48.256 370.734 45.968C370.734 43.68 372.206 41.808 374.638 41.808C377.022 41.808 378.494 43.52 378.494 45.6ZM372.174 45.088H377.054C376.926 43.856 376.062 42.944 374.638 42.944C373.374 42.944 372.446 43.744 372.174 45.088ZM380.245 50V41.936H381.605V43.456C382.165 42.496 383.141 41.808 384.373 41.808C386.053 41.808 387.253 42.944 387.253 44.656V50H385.893V44.912C385.893 43.824 385.205 43.04 384.069 43.04C382.565 43.04 381.605 44.336 381.605 46.464V50H380.245ZM397.307 50.128C396.123 50.128 395.051 49.568 394.683 48.832V50H393.323V38.672H394.683V43.088C395.195 42.336 396.251 41.808 397.323 41.808C399.819 41.808 401.195 43.6 401.195 45.968C401.195 48.336 399.819 50.128 397.307 50.128ZM397.179 48.912C398.763 48.912 399.803 47.744 399.803 45.968C399.803 44.192 398.763 43.024 397.179 43.024C395.595 43.024 394.571 44.192 394.571 45.968C394.571 47.744 395.595 48.912 397.179 48.912ZM407.652 43.264C407.348 43.136 406.964 43.072 406.612 43.072C405.332 43.072 404.292 44.304 404.292 46.928V50H402.932V41.936H404.292V43.568C404.756 42.544 405.812 41.808 406.804 41.808C407.14 41.808 407.46 41.856 407.732 41.952L407.652 43.264ZM411.784 41.808C413.736 41.808 415.096 42.96 415.096 44.832V50H413.752V48.624C413.288 49.552 412.232 50.128 411.064 50.128C409.448 50.128 408.344 49.136 408.344 47.744C408.344 46.192 409.608 45.344 412.184 45.088L413.752 44.912V44.752C413.752 43.648 412.968 42.944 411.784 42.944C410.68 42.944 409.896 43.6 409.784 44.688L408.52 44.448C408.76 42.848 410.088 41.808 411.784 41.808ZM411.272 49.008C412.84 49.008 413.752 47.968 413.752 46.352V45.968L412.184 46.144C410.552 46.32 409.704 46.88 409.704 47.728C409.704 48.48 410.344 49.008 411.272 49.008ZM417.307 50V41.936H418.667V43.456C419.227 42.496 420.203 41.808 421.435 41.808C423.115 41.808 424.315 42.944 424.315 44.656V50H422.955V44.912C422.955 43.824 422.267 43.04 421.131 43.04C419.627 43.04 418.667 44.336 418.667 46.464V50H417.307ZM429.95 50.128C427.438 50.128 426.062 48.336 426.062 45.968C426.062 43.6 427.438 41.808 429.934 41.808C431.006 41.808 432.062 42.336 432.574 43.088V38.672H433.934V50H432.574V48.832C432.206 49.568 431.134 50.128 429.95 50.128ZM430.078 48.912C431.662 48.912 432.702 47.744 432.702 45.968C432.702 44.192 431.662 43.024 430.078 43.024C428.494 43.024 427.454 44.192 427.454 45.968C427.454 47.744 428.494 48.912 430.078 48.912ZM4.64 67.128C2.24 67.128 0.64 65.464 0.64 62.968C0.64 60.472 2.24 58.808 4.64 58.808C6.512 58.808 7.888 59.832 8.176 61.432L6.832 61.704C6.656 60.728 5.808 60.024 4.672 60.024C3.088 60.024 2.064 61.192 2.064 62.968C2.064 64.744 3.088 65.912 4.672 65.912C5.808 65.912 6.64 65.288 6.864 64.216L8.192 64.488C7.84 66.152 6.496 67.128 4.64 67.128ZM13.5173 67.128C11.1173 67.128 9.42125 65.384 9.42125 62.968C9.42125 60.552 11.1173 58.808 13.5173 58.808C15.9013 58.808 17.6293 60.552 17.6293 62.968C17.6293 65.384 15.9013 67.128 13.5173 67.128ZM13.5173 65.912C15.1333 65.912 16.2213 64.696 16.2213 62.968C16.2213 61.24 15.1333 60.024 13.5173 60.024C11.9013 60.024 10.8133 61.24 10.8133 62.968C10.8133 64.696 11.9013 65.912 13.5173 65.912ZM21.8816 67.112C20.4416 67.256 19.3696 66.712 19.3696 65.032V55.672H20.7296V64.936C20.7296 65.816 21.1456 65.944 21.8176 65.896L21.8816 67.112ZM27.0954 67.128C24.6954 67.128 22.9994 65.384 22.9994 62.968C22.9994 60.552 24.6954 58.808 27.0954 58.808C29.4794 58.808 31.2074 60.552 31.2074 62.968C31.2074 65.384 29.4794 67.128 27.0954 67.128ZM27.0954 65.912C28.7114 65.912 29.7994 64.696 29.7994 62.968C29.7994 61.24 28.7114 60.024 27.0954 60.024C25.4794 60.024 24.3914 61.24 24.3914 62.968C24.3914 64.696 25.4794 65.912 27.0954 65.912ZM39.9558 58.936V67H38.5958V65.48C38.0358 66.44 37.0598 67.128 35.8278 67.128C34.1478 67.128 32.9478 65.992 32.9478 64.28V58.936H34.3078V64.024C34.3078 65.112 34.9958 65.896 36.1318 65.896C37.6358 65.896 38.5958 64.6 38.5958 62.472V58.936H39.9558ZM46.8865 60.264C46.5825 60.136 46.1985 60.072 45.8465 60.072C44.5665 60.072 43.5265 61.304 43.5265 63.928V67H42.1665V58.936H43.5265V60.568C43.9905 59.544 45.0465 58.808 46.0385 58.808C46.3745 58.808 46.6945 58.856 46.9665 58.952L46.8865 60.264ZM47.9863 67.128C47.4103 67.128 47.0103 66.728 47.0103 66.168C47.0103 65.624 47.4103 65.208 47.9863 65.208C48.5303 65.208 48.9623 65.624 48.9623 66.168C48.9623 66.728 48.5303 67.128 47.9863 67.128Z" fill="#53585C"/>
        <g style="mix-blend-mode:multiply">
            <rect x="39.7322" y="161.005" width="2.57173" height="15.4304" transform="rotate(90 39.7322 161.005)" fill="#E6E6E6"/>
        </g>
        <g style="mix-blend-mode:multiply">
            <rect x="51.3049" y="164.862" width="7.71518" height="38.5759" rx="1.28586" transform="rotate(90 51.3049 164.862)" fill="#E6E6E6"/>
        </g>
        <g style="mix-blend-mode:multiply">
            <rect x="46.1614" y="163.577" width="3.85759" height="29.5748" transform="rotate(90 46.1614 163.577)" fill="#E6E6E6"/>
        </g>
        <path d="M28.9022 118.571C31.0528 118.571 40.9325 128.4 38.6312 141.194C39.6159 138.717 44.3322 136.636 44.3322 130.328C47.6039 136.699 50.9481 150.851 39.4721 158.213C35.9925 160.446 25.8822 161.187 19.8422 153.258C17.8289 150.191 15.6142 142.073 22.8622 134.145C24.6239 132.021 28.9022 126.654 28.9022 118.571Z" fill="#E6E6E6"/>
        <g style="mix-blend-mode:multiply">
            <path d="M31.1895 143.003C32.031 143.003 35.897 146.996 34.9965 152.194C35.3818 151.187 37.2273 150.342 37.2273 147.779C38.5075 150.367 39.8161 156.117 35.3255 159.108C33.9639 160.014 30.0077 160.315 27.6443 157.094C26.8564 155.848 25.9898 152.551 28.826 149.33C29.5153 148.467 31.1895 146.286 31.1895 143.003Z" fill="#86C5A3"/>
        </g>
        <path d="M109.531 118.968C104.914 119.862 100.761 122.356 97.802 126.011C94.8436 129.666 93.2698 134.248 93.3577 138.95C93.4156 148.98 100.109 152.326 103.484 155.702C103.484 155.702 106.859 157.148 106.859 160.524V169.579C106.859 170.375 107.175 171.138 107.738 171.7C108.3 172.263 109.063 172.579 109.859 172.579H117.362C118.157 172.579 118.92 172.263 119.482 171.7C120.045 171.138 120.361 170.375 120.361 169.579V160.524C120.361 157.148 123.736 155.702 123.736 155.702C127.112 152.326 133.862 148.951 133.862 138.825C133.865 135.817 133.199 132.847 131.91 130.13C130.622 127.412 128.745 125.016 126.415 123.115C124.085 121.213 121.361 119.854 118.44 119.137C115.52 118.42 112.476 118.362 109.531 118.968Z" fill="#E6E6E6"/>
        <g style="mix-blend-mode:multiply">
            <path d="M120.361 160.042H106.859V169.58C106.859 170.375 107.175 171.138 107.738 171.701C108.3 172.263 109.063 172.579 109.858 172.579H117.361C118.157 172.579 118.92 172.263 119.482 171.701C120.045 171.138 120.361 170.375 120.361 169.58V160.042Z" fill="#86C5A3"/>
        </g>
        <g style="mix-blend-mode:multiply">
            <path d="M118.432 140.396C118.384 139.165 117.85 138.003 116.945 137.165C116.041 136.328 114.842 135.884 113.61 135.931C112.379 135.884 111.179 136.328 110.275 137.165C109.37 138.003 108.836 139.165 108.788 140.396C108.82 141.461 109.223 142.482 109.927 143.281C110.632 144.08 111.593 144.609 112.646 144.775V160.041H114.574V144.775C115.627 144.609 116.588 144.08 117.293 143.281C117.997 142.482 118.4 141.461 118.432 140.396Z" fill="#86C5A3"/>
        </g>
        <g style="mix-blend-mode:multiply">
            <path d="M120.785 162.453H106.435C105.737 162.453 105.172 163.019 105.172 163.716C105.172 164.414 105.737 164.98 106.435 164.98H120.785C121.483 164.98 122.049 164.414 122.049 163.716C122.049 163.019 121.483 162.453 120.785 162.453Z" fill="#86C5A3"/>
        </g>
        <g style="mix-blend-mode:multiply">
            <path d="M120.785 166.667H106.435C105.737 166.667 105.172 167.233 105.172 167.93C105.172 168.628 105.737 169.194 106.435 169.194H120.785C121.483 169.194 122.049 168.628 122.049 167.93C122.049 167.233 121.483 166.667 120.785 166.667Z" fill="#86C5A3"/>
        </g>
        <g style="mix-blend-mode:multiply">
            <path d="M210.634 166.148L211.865 124.301C211.895 123.258 212.749 122.429 213.793 122.429H213.904C214.948 122.429 215.802 123.258 215.832 124.301L217.063 166.148H210.634Z" fill="#E6E6E6"/>
        </g>
        <g style="mix-blend-mode:multiply">
            <path d="M173.344 166.148L174.575 124.301C174.605 123.258 175.459 122.429 176.503 122.429H176.614C177.657 122.429 178.512 123.258 178.542 124.301L179.773 166.148H173.344Z" fill="#E6E6E6"/>
        </g>
        <rect x="168.2" y="145.574" width="54.0062" height="21.8597" rx="3.24037" fill="#E6E6E6"/>
        <g style="mix-blend-mode:multiply">
            <circle cx="176.584" cy="156.53" r="3.24037" fill="#86C5A3"/>
        </g>
        <g style="mix-blend-mode:multiply">
            <rect x="200.347" y="153.29" width="6.42931" height="3.85759" rx="1.92879" transform="rotate(90 200.347 153.29)" fill="#86C5A3"/>
        </g>
        <g style="mix-blend-mode:multiply">
            <rect x="208.062" y="153.29" width="6.42931" height="3.85759" rx="1.92879" transform="rotate(90 208.062 153.29)" fill="#86C5A3"/>
        </g>
        <g style="mix-blend-mode:multiply">
            <rect x="215.777" y="153.29" width="6.42931" height="3.85759" rx="1.92879" transform="rotate(90 215.777 153.29)" fill="#86C5A3"/>
        </g>
        <path d="M173.344 167.435H179.773V168.72C179.773 169.431 179.197 170.006 178.487 170.006H174.63C173.919 170.006 173.344 169.431 173.344 168.72V167.435Z" fill="#E6E6E6"/>
        <path d="M210.634 167.435H217.063V168.72C217.063 169.431 216.487 170.006 215.777 170.006H211.92C211.209 170.006 210.634 169.431 210.634 168.72V167.435Z" fill="#E6E6E6"/>
        <g style="mix-blend-mode:multiply">
            <path d="M173.344 167.435H179.773V168.72C179.773 169.431 179.197 170.006 178.487 170.006H174.63C173.919 170.006 173.344 169.431 173.344 168.72V167.435Z" fill="#E6E6E6"/>
        </g>
        <g style="mix-blend-mode:multiply">
            <path d="M210.634 167.435H217.063V168.72C217.063 169.431 216.487 170.006 215.777 170.006H211.92C211.209 170.006 210.634 169.431 210.634 168.72V167.435Z" fill="#E6E6E6"/>
        </g>
        <circle cx="292.87" cy="152.647" r="10.9298" fill="white"/>
        <rect x="249.793" y="118.571" width="42.4335" height="54.0062" rx="2.57173" fill="#E6E6E6"/>
        <g style="mix-blend-mode:multiply">
            <rect x="254.968" y="125.065" width="14.2342" height="2.59748" rx="1.29874" fill="#E6E6E6"/>
        </g>
        <g style="mix-blend-mode:multiply">
            <rect x="254.968" y="138.053" width="21.9984" height="2.59748" rx="1.29874" fill="#E6E6E6"/>
        </g>
        <g style="mix-blend-mode:multiply">
            <rect x="254.968" y="131.559" width="32.3505" height="2.59748" rx="1.29874" fill="#E6E6E6"/>
        </g>
        <g style="mix-blend-mode:multiply">
            <circle cx="292.87" cy="152.647" r="10.9298" fill="#86C5A3"/>
        </g>
        <g style="mix-blend-mode:multiply">
            <path fill-rule="evenodd" clip-rule="evenodd" d="M288.39 146.86H297.37V148.013H293.543C294.033 148.565 294.351 149.264 294.455 150.016H297.343V151.169H294.441C294.321 151.875 294.009 152.528 293.543 153.046C293.245 153.379 292.892 153.65 292.5 153.844L295.264 158.862H293.944L291.374 154.162H288.369V153.016H291.243C291.758 153.018 292.258 152.836 292.665 152.501C293.073 152.165 293.365 151.694 293.495 151.161H288.39V150.008H293.543C293.434 149.447 293.147 148.942 292.73 148.58C292.314 148.218 291.794 148.02 291.257 148.021H288.369V146.86H288.39Z" fill="#E6E6E6"/>
        </g>
        <path fill-rule="evenodd" clip-rule="evenodd" d="M288.39 146.86H297.37V148.013H293.543C294.033 148.565 294.351 149.264 294.455 150.016H297.343V151.169H294.441C294.321 151.875 294.009 152.528 293.543 153.046C293.245 153.379 292.892 153.65 292.5 153.844L295.264 158.862H293.944L291.374 154.162H288.369V153.016H291.243C291.758 153.018 292.258 152.836 292.665 152.501C293.073 152.165 293.365 151.694 293.495 151.161H288.39V150.008H293.543C293.434 149.447 293.147 148.942 292.73 148.58C292.314 148.218 291.794 148.02 291.257 148.021H288.369V146.86H288.39Z" fill="white"/>
        <path d="M375.106 159.719H380.25V164.569C380.25 165.441 379.543 166.148 378.67 166.148H376.686C375.813 166.148 375.106 165.441 375.106 164.569V159.719Z" fill="white"/>
        <path d="M375.106 159.719H380.25V164.569C380.25 165.441 379.543 166.148 378.67 166.148H376.686C375.813 166.148 375.106 165.441 375.106 164.569V159.719Z" fill="white"/>
        <path d="M336.53 159.719H341.674V164.569C341.674 165.441 340.967 166.148 340.094 166.148H338.11C337.237 166.148 336.53 165.441 336.53 164.569V159.719Z" fill="white"/>
        <path d="M336.53 159.719H341.674V164.569C341.674 165.441 340.967 166.148 340.094 166.148H338.11C337.237 166.148 336.53 165.441 336.53 164.569V159.719Z" fill="white"/>
        <path d="M340.381 127.832C340.563 126.933 341.354 126.286 342.272 126.286H374.508C375.426 126.286 376.217 126.933 376.399 127.832L379.782 144.549C380.024 145.743 379.11 146.86 377.891 146.86H338.889C337.67 146.86 336.756 145.743 336.998 144.549L340.381 127.832Z" fill="#E6E6E6"/>
        <rect x="385.393" y="145.574" width="14.1445" height="54.0062" rx="3.15868" transform="rotate(90 385.393 145.574)" fill="#E6E6E6"/>
        <g style="mix-blend-mode:multiply">
            <rect x="385.393" y="145.574" width="14.1445" height="54.0062" rx="3.15868" transform="rotate(90 385.393 145.574)" fill="#86C5A3"/>
        </g>
        <g style="mix-blend-mode:multiply">
            <circle cx="338.494" cy="152.345" r="2.36901" fill="#86C5A3"/>
        </g>
        <g style="mix-blend-mode:multiply">
            <circle cx="377.977" cy="152.345" r="2.36901" fill="#86C5A3"/>
        </g>
        <g style="mix-blend-mode:multiply">
            <path d="M375.106 159.719H380.25V164.569C380.25 165.441 379.543 166.148 378.67 166.148H376.686C375.813 166.148 375.106 165.441 375.106 164.569V159.719Z" fill="#E6E6E6"/>
        </g>
        <g style="mix-blend-mode:multiply">
            <path d="M336.53 159.719H341.674V164.569C341.674 165.441 340.967 166.148 340.094 166.148H338.11C337.237 166.148 336.53 165.441 336.53 164.569V159.719Z" fill="#E6E6E6"/>
        </g>
        <path d="M439.597 143.646H415.294C414.911 143.646 414.543 143.798 414.272 144.069C414 144.34 413.848 144.708 413.848 145.092C413.848 145.476 414 145.844 414.272 146.115C414.543 146.386 414.911 146.539 415.294 146.539H439.597C439.981 146.539 440.349 146.386 440.62 146.115C440.891 145.844 441.044 145.476 441.044 145.092C441.044 144.708 440.891 144.34 440.62 144.069C440.349 143.798 439.981 143.646 439.597 143.646Z" fill="#E6E6E6"/>
        <path d="M430.898 150.396H415.314C414.93 150.396 414.562 150.549 414.291 150.82C414.02 151.091 413.867 151.459 413.867 151.843C413.867 152.227 414.02 152.595 414.291 152.866C414.562 153.137 414.93 153.29 415.314 153.29H430.898C431.282 153.29 431.65 153.137 431.921 152.866C432.193 152.595 432.345 152.227 432.345 151.843C432.345 151.459 432.193 151.091 431.921 150.82C431.65 150.549 431.282 150.396 430.898 150.396Z" fill="white"/>
        <path d="M433.319 119.256L418.487 134.088C418.271 134.306 418.098 134.561 417.976 134.841C417.861 135.126 417.802 135.43 417.802 135.738V170.649L424.746 168.334L434.004 172.963L445.577 168.334L455.992 172.963L464.093 170.649V120.886C464.094 120.582 464.035 120.28 463.919 119.999C463.804 119.717 463.633 119.462 463.418 119.246C463.203 119.031 462.947 118.861 462.666 118.745C462.384 118.629 462.083 118.57 461.779 118.571H434.968C434.661 118.571 434.356 118.63 434.071 118.745C433.791 118.867 433.536 119.041 433.319 119.256Z" fill="#E6E6E6"/>
        <g style="mix-blend-mode:multiply">
            <path d="M432.847 119.729V131.639C432.853 131.9 432.807 132.16 432.71 132.403C432.613 132.646 432.467 132.867 432.282 133.052C432.097 133.236 431.877 133.382 431.634 133.479C431.391 133.576 431.131 133.622 430.87 133.616H418.959L432.847 119.729Z" fill="#86C5A3"/>
        </g>
        <g style="mix-blend-mode:multiply">
            <path d="M439.597 143.646H415.294C414.911 143.646 414.543 143.798 414.272 144.069C414 144.34 413.848 144.708 413.848 145.092C413.848 145.476 414 145.844 414.272 146.115C414.543 146.386 414.911 146.539 415.294 146.539H439.597C439.981 146.539 440.349 146.386 440.62 146.115C440.891 145.844 441.044 145.476 441.044 145.092C441.044 144.708 440.891 144.34 440.62 144.069C440.349 143.798 439.981 143.646 439.597 143.646Z" fill="#86C5A3"/>
        </g>
        <g style="mix-blend-mode:multiply">
            <path d="M430.898 150.396H415.314C414.93 150.396 414.562 150.549 414.291 150.82C414.02 151.091 413.867 151.459 413.867 151.843C413.867 152.227 414.02 152.595 414.291 152.866C414.562 153.137 414.93 153.29 415.314 153.29H430.898C431.282 153.29 431.65 153.137 431.921 152.866C432.193 152.595 432.345 152.227 432.345 151.843C432.345 151.459 432.193 151.091 431.921 150.82C431.65 150.549 431.282 150.396 430.898 150.396Z" fill="#86C5A3"/>
        </g>
        <g style="mix-blend-mode:multiply">
            <rect x="39.7322" y="251.726" width="2.57173" height="15.4304" transform="rotate(90 39.7322 251.726)" fill="#AED9C2"/>
        </g>
        <g style="mix-blend-mode:multiply">
            <rect x="51.3049" y="255.583" width="7.71518" height="38.5759" rx="1.28586" transform="rotate(90 51.3049 255.583)" fill="#AED9C2"/>
        </g>
        <g style="mix-blend-mode:multiply">
            <rect x="46.1614" y="254.298" width="3.85759" height="29.5748" transform="rotate(90 46.1614 254.298)" fill="#AED9C2"/>
        </g>
        <path d="M28.9022 209.292C31.0528 209.292 40.9325 219.12 38.6312 231.915C39.6159 229.438 44.3322 227.356 44.3322 221.048C47.6039 227.42 50.9481 241.572 39.4721 248.934C35.9925 251.166 25.8822 251.907 19.8422 243.979C17.8289 240.911 15.6142 232.794 22.8622 224.866C24.6239 222.742 28.9022 217.375 28.9022 209.292Z" fill="#AED9C2"/>
        <g style="mix-blend-mode:multiply">
            <path d="M31.1895 233.724C32.031 233.724 35.897 237.716 34.9965 242.914C35.3818 241.908 37.2273 241.062 37.2273 238.5C38.5075 241.088 39.8161 246.837 35.3255 249.828C33.9639 250.735 30.0077 251.036 27.6443 247.815C26.8564 246.569 25.9898 243.271 28.826 240.05C29.5153 239.188 31.1895 237.007 31.1895 233.724Z" fill="#AED9C2"/>
        </g>
        <path d="M109.531 209.689C104.914 210.582 100.761 213.077 97.802 216.732C94.8436 220.387 93.2698 224.969 93.3577 229.671C93.4156 239.701 100.109 243.047 103.484 246.422C103.484 246.422 106.859 247.869 106.859 251.244V260.3C106.859 261.096 107.175 261.858 107.738 262.421C108.3 262.983 109.063 263.299 109.859 263.299H117.362C118.157 263.299 118.92 262.983 119.482 262.421C120.045 261.858 120.361 261.096 120.361 260.3V251.244C120.361 247.869 123.736 246.422 123.736 246.422C127.112 243.047 133.862 239.672 133.862 229.545C133.865 226.538 133.199 223.568 131.91 220.851C130.622 218.133 128.745 215.737 126.415 213.835C124.085 211.934 121.361 210.575 118.44 209.858C115.52 209.141 112.476 209.083 109.531 209.689Z" fill="#AED9C2"/>
        <g style="mix-blend-mode:multiply">
            <path d="M120.361 250.763H106.859V260.301C106.859 261.096 107.175 261.859 107.738 262.421C108.3 262.984 109.063 263.3 109.858 263.3H117.361C118.157 263.3 118.92 262.984 119.482 262.421C120.045 261.859 120.361 261.096 120.361 260.301V250.763Z" fill="#AED9C2"/>
        </g>
        <g style="mix-blend-mode:multiply">
            <path d="M118.432 231.117C118.384 229.886 117.85 228.723 116.945 227.886C116.041 227.049 114.842 226.605 113.61 226.652C112.379 226.605 111.179 227.049 110.275 227.886C109.37 228.723 108.836 229.886 108.788 231.117C108.82 232.182 109.223 233.202 109.927 234.002C110.632 234.801 111.593 235.329 112.646 235.495V250.762H114.574V235.495C115.627 235.329 116.588 234.801 117.293 234.002C117.997 233.202 118.4 232.182 118.432 231.117Z" fill="#AED9C2"/>
        </g>
        <g style="mix-blend-mode:multiply">
            <path d="M120.785 253.174H106.435C105.737 253.174 105.172 253.739 105.172 254.437C105.172 255.135 105.737 255.701 106.435 255.701H120.785C121.483 255.701 122.049 255.135 122.049 254.437C122.049 253.739 121.483 253.174 120.785 253.174Z" fill="#AED9C2"/>
        </g>
        <g style="mix-blend-mode:multiply">
            <path d="M120.785 257.388H106.435C105.737 257.388 105.172 257.953 105.172 258.651C105.172 259.349 105.737 259.914 106.435 259.914H120.785C121.483 259.914 122.049 259.349 122.049 258.651C122.049 257.953 121.483 257.388 120.785 257.388Z" fill="#AED9C2"/>
        </g>
        <g style="mix-blend-mode:multiply">
            <path d="M210.634 256.869L211.865 215.022C211.895 213.979 212.749 213.15 213.793 213.15H213.904C214.948 213.15 215.802 213.979 215.832 215.022L217.063 256.869H210.634Z" fill="#AED9C2"/>
        </g>
        <g style="mix-blend-mode:multiply">
            <path d="M173.344 256.869L174.575 215.022C174.605 213.979 175.459 213.15 176.503 213.15H176.614C177.657 213.15 178.512 213.979 178.542 215.022L179.773 256.869H173.344Z" fill="#AED9C2"/>
        </g>
        <rect x="168.2" y="236.295" width="54.0062" height="21.8597" rx="3.24037" fill="#AED9C2"/>
        <g style="mix-blend-mode:multiply">
            <circle cx="176.584" cy="247.251" r="3.24037" fill="#AED9C2"/>
        </g>
        <g style="mix-blend-mode:multiply">
            <rect x="200.347" y="244.011" width="6.42931" height="3.85759" rx="1.92879" transform="rotate(90 200.347 244.011)" fill="#AED9C2"/>
        </g>
        <g style="mix-blend-mode:multiply">
            <rect x="208.062" y="244.011" width="6.42931" height="3.85759" rx="1.92879" transform="rotate(90 208.062 244.011)" fill="#AED9C2"/>
        </g>
        <g style="mix-blend-mode:multiply">
            <rect x="215.777" y="244.011" width="6.42931" height="3.85759" rx="1.92879" transform="rotate(90 215.777 244.011)" fill="#AED9C2"/>
        </g>
        <path d="M173.344 258.155H179.773V259.441C179.773 260.151 179.197 260.727 178.487 260.727H174.63C173.919 260.727 173.344 260.151 173.344 259.441V258.155Z" fill="#AED9C2"/>
        <path d="M210.634 258.155H217.063V259.441C217.063 260.151 216.487 260.727 215.777 260.727H211.92C211.209 260.727 210.634 260.151 210.634 259.441V258.155Z" fill="#AED9C2"/>
        <g style="mix-blend-mode:multiply">
            <path d="M173.344 258.155H179.773V259.441C179.773 260.151 179.197 260.727 178.487 260.727H174.63C173.919 260.727 173.344 260.151 173.344 259.441V258.155Z" fill="#AED9C2"/>
        </g>
        <g style="mix-blend-mode:multiply">
            <path d="M210.634 258.155H217.063V259.441C217.063 260.151 216.487 260.727 215.777 260.727H211.92C211.209 260.727 210.634 260.151 210.634 259.441V258.155Z" fill="#AED9C2"/>
        </g>
        <circle cx="292.87" cy="243.367" r="10.9298" fill="white"/>
        <rect x="249.793" y="209.292" width="42.4335" height="54.0062" rx="2.57173" fill="#AED9C2"/>
        <g style="mix-blend-mode:multiply">
            <rect x="254.968" y="215.786" width="14.2342" height="2.59748" rx="1.29874" fill="#AED9C2"/>
        </g>
        <g style="mix-blend-mode:multiply">
            <rect x="254.968" y="228.773" width="21.9984" height="2.59748" rx="1.29874" fill="#AED9C2"/>
        </g>
        <g style="mix-blend-mode:multiply">
            <rect x="254.968" y="222.279" width="32.3505" height="2.59748" rx="1.29874" fill="#AED9C2"/>
        </g>
        <g style="mix-blend-mode:multiply">
            <circle cx="292.87" cy="243.367" r="10.9298" fill="#AED9C2"/>
        </g>
        <g style="mix-blend-mode:multiply">
            <path fill-rule="evenodd" clip-rule="evenodd" d="M288.39 237.581H297.37V238.734H293.543C294.033 239.285 294.351 239.985 294.455 240.737H297.343V241.889H294.441C294.321 242.596 294.009 243.249 293.543 243.766C293.245 244.1 292.892 244.371 292.5 244.565L295.264 249.582H293.944L291.374 244.882H288.369V243.737H291.243C291.758 243.738 292.258 243.557 292.665 243.221C293.073 242.886 293.365 242.414 293.495 241.882H288.39V240.729H293.543C293.434 240.167 293.147 239.663 292.73 239.301C292.314 238.939 291.794 238.741 291.257 238.741H288.369V237.581H288.39Z" fill="#AED9C2"/>
        </g>
        <path fill-rule="evenodd" clip-rule="evenodd" d="M288.39 237.581H297.37V238.734H293.543C294.033 239.285 294.351 239.985 294.455 240.737H297.343V241.889H294.441C294.321 242.596 294.009 243.249 293.543 243.766C293.245 244.1 292.892 244.371 292.5 244.565L295.264 249.582H293.944L291.374 244.882H288.369V243.737H291.243C291.758 243.738 292.258 243.557 292.665 243.221C293.073 242.886 293.365 242.414 293.495 241.882H288.39V240.729H293.543C293.434 240.167 293.147 239.663 292.73 239.301C292.314 238.939 291.794 238.741 291.257 238.741H288.369V237.581H288.39Z" fill="white"/>
        <path d="M375.106 250.439H380.25V255.289C380.25 256.162 379.543 256.869 378.67 256.869H376.686C375.813 256.869 375.106 256.162 375.106 255.289V250.439Z" fill="white"/>
        <path d="M375.106 250.439H380.25V255.289C380.25 256.162 379.543 256.869 378.67 256.869H376.686C375.813 256.869 375.106 256.162 375.106 255.289V250.439Z" fill="white"/>
        <path d="M336.53 250.439H341.674V255.289C341.674 256.162 340.967 256.869 340.094 256.869H338.11C337.237 256.869 336.53 256.162 336.53 255.289V250.439Z" fill="white"/>
        <path d="M336.53 250.439H341.674V255.289C341.674 256.162 340.967 256.869 340.094 256.869H338.11C337.237 256.869 336.53 256.162 336.53 255.289V250.439Z" fill="white"/>
        <path d="M340.381 218.553C340.563 217.654 341.354 217.007 342.272 217.007H374.508C375.426 217.007 376.217 217.654 376.399 218.553L379.782 235.269C380.024 236.464 379.11 237.581 377.891 237.581H338.889C337.67 237.581 336.756 236.464 336.998 235.269L340.381 218.553Z" fill="#AED9C2"/>
        <rect x="385.393" y="236.295" width="14.1445" height="54.0062" rx="3.15868" transform="rotate(90 385.393 236.295)" fill="#AED9C2"/>
        <g style="mix-blend-mode:multiply">
            <rect x="385.393" y="236.295" width="14.1445" height="54.0062" rx="3.15868" transform="rotate(90 385.393 236.295)" fill="#AED9C2"/>
        </g>
        <g style="mix-blend-mode:multiply">
            <circle cx="338.494" cy="243.065" r="2.36901" fill="#AED9C2"/>
        </g>
        <g style="mix-blend-mode:multiply">
            <circle cx="377.977" cy="243.065" r="2.36901" fill="#AED9C2"/>
        </g>
        <g style="mix-blend-mode:multiply">
            <path d="M375.106 250.439H380.25V255.289C380.25 256.162 379.543 256.869 378.67 256.869H376.686C375.813 256.869 375.106 256.162 375.106 255.289V250.439Z" fill="#AED9C2"/>
        </g>
        <g style="mix-blend-mode:multiply">
            <path d="M336.53 250.439H341.674V255.289C341.674 256.162 340.967 256.869 340.094 256.869H338.11C337.237 256.869 336.53 256.162 336.53 255.289V250.439Z" fill="#AED9C2"/>
        </g>
        <path d="M439.597 234.366H415.294C414.911 234.366 414.543 234.519 414.272 234.79C414 235.061 413.848 235.429 413.848 235.813C413.848 236.196 414 236.564 414.272 236.836C414.543 237.107 414.911 237.259 415.294 237.259H439.597C439.981 237.259 440.349 237.107 440.62 236.836C440.891 236.564 441.044 236.196 441.044 235.813C441.044 235.429 440.891 235.061 440.62 234.79C440.349 234.519 439.981 234.366 439.597 234.366Z" fill="#AED9C2"/>
        <path d="M430.898 241.117H415.314C414.93 241.117 414.562 241.27 414.291 241.541C414.02 241.812 413.867 242.18 413.867 242.564C413.867 242.947 414.02 243.315 414.291 243.587C414.562 243.858 414.93 244.01 415.314 244.01H430.898C431.282 244.01 431.65 243.858 431.921 243.587C432.193 243.315 432.345 242.947 432.345 242.564C432.345 242.18 432.193 241.812 431.921 241.541C431.65 241.27 431.282 241.117 430.898 241.117Z" fill="white"/>
        <path d="M433.319 209.977L418.487 224.809C418.271 225.026 418.098 225.281 417.976 225.561C417.861 225.846 417.802 226.151 417.802 226.458V261.369L424.746 259.055L434.004 263.684L445.577 259.055L455.992 263.684L464.093 261.369V211.607C464.094 211.302 464.035 211.001 463.919 210.719C463.804 210.438 463.633 210.182 463.418 209.967C463.203 209.752 462.947 209.581 462.666 209.466C462.384 209.35 462.083 209.291 461.779 209.292H434.968C434.661 209.292 434.356 209.351 434.071 209.466C433.791 209.588 433.536 209.761 433.319 209.977Z" fill="#AED9C2"/>
        <g style="mix-blend-mode:multiply">
            <path d="M432.847 210.449V222.36C432.853 222.621 432.807 222.881 432.71 223.124C432.613 223.367 432.467 223.587 432.282 223.772C432.097 223.957 431.877 224.103 431.634 224.2C431.391 224.297 431.131 224.343 430.87 224.337H418.959L432.847 210.449Z" fill="#AED9C2"/>
        </g>
        <g style="mix-blend-mode:multiply">
            <path d="M439.597 234.366H415.294C414.911 234.366 414.543 234.519 414.272 234.79C414 235.061 413.848 235.429 413.848 235.813C413.848 236.196 414 236.564 414.272 236.836C414.543 237.107 414.911 237.259 415.294 237.259H439.597C439.981 237.259 440.349 237.107 440.62 236.836C440.891 236.564 441.044 236.196 441.044 235.813C441.044 235.429 440.891 235.061 440.62 234.79C440.349 234.519 439.981 234.366 439.597 234.366Z" fill="#AED9C2"/>
        </g>
        <g style="mix-blend-mode:multiply">
            <path d="M430.898 241.117H415.314C414.93 241.117 414.562 241.27 414.291 241.541C414.02 241.812 413.867 242.18 413.867 242.564C413.867 242.947 414.02 243.315 414.291 243.587C414.562 243.858 414.93 244.01 415.314 244.01H430.898C431.282 244.01 431.65 243.858 431.921 243.587C432.193 243.315 432.345 242.947 432.345 242.564C432.345 242.18 432.193 241.812 431.921 241.541C431.65 241.27 431.282 241.117 430.898 241.117Z" fill="#AED9C2"/>
        </g>
    </g>
    <defs>
        <clipPath id="clip0_429_17967">
            <rect width="471" height="280" rx="12" fill="white"/>
        </clipPath>
    </defs>
</svg>
