<svg viewBox="0 0 48 48" fill="none" xmlns="http://www.w3.org/2000/svg">
<path d="M46.2825 41.25H1.71752C1.48994 41.2498 1.2648 41.2031 1.05588 41.1128C0.846964 41.0225 0.65867 40.8906 0.502524 40.725C0.177539 40.3803 -0.00238583 39.9238 2.3896e-05 39.45V7.05C-0.00238583 6.57625 0.177539 6.11972 0.502524 5.775C0.65867 5.60943 0.846964 5.47747 1.05588 5.3872C1.2648 5.29692 1.48994 5.25024 1.71752 5.25H46.2825C46.5101 5.25024 46.7353 5.29692 46.9442 5.3872C47.1531 5.47747 47.3414 5.60943 47.4975 5.775C47.8225 6.11972 48.0024 6.57625 48 7.05V39.45C48.0024 39.9238 47.8225 40.3803 47.4975 40.725C47.3414 40.8906 47.1531 41.0225 46.9442 41.1128C46.7353 41.2031 46.5101 41.2498 46.2825 41.25V41.25Z" fill="#B7CDE1"/>
<g style="mix-blend-mode:multiply">
<path d="M4.125 9.66755C4.34771 9.66876 4.56528 9.6006 4.7475 9.47255C4.88607 9.38109 5.00252 9.25991 5.08839 9.11781C5.17425 8.97571 5.22738 8.81626 5.2439 8.65106C5.26042 8.48586 5.23992 8.31905 5.18389 8.16276C5.12786 8.00647 5.03772 7.86463 4.92 7.74755C4.76363 7.5882 4.562 7.48084 4.3425 7.44005C4.12629 7.39593 3.90186 7.4168 3.6975 7.50005C3.49249 7.58751 3.31589 7.73035 3.1875 7.91255C3.06608 8.10031 3.00101 8.31894 3 8.54255C3 8.84091 3.11853 9.12706 3.3295 9.33804C3.54048 9.54902 3.82663 9.66755 4.125 9.66755Z" fill="#B7CDE1"/>
</g>
<g style="mix-blend-mode:multiply">
<path d="M7.875 9.66755C8.09771 9.66876 8.31528 9.6006 8.4975 9.47255C8.63607 9.38109 8.75252 9.25991 8.83839 9.11781C8.92425 8.97571 8.97737 8.81626 8.9939 8.65106C9.01042 8.48586 8.98992 8.31905 8.93389 8.16276C8.87786 8.00647 8.78772 7.86463 8.67 7.74755C8.51363 7.5882 8.312 7.48084 8.0925 7.44005C7.87629 7.39593 7.65186 7.4168 7.4475 7.50005C7.24249 7.58751 7.06589 7.73035 6.9375 7.91255C6.81608 8.10031 6.75101 8.31894 6.75 8.54255C6.75 8.84091 6.86853 9.12706 7.0795 9.33804C7.29048 9.54902 7.57663 9.66755 7.875 9.66755V9.66755Z" fill="#B7CDE1"/>
</g>
<g style="mix-blend-mode:multiply">
<path d="M11.625 9.66755C11.8477 9.66876 12.0653 9.6006 12.2475 9.47255C12.3861 9.38109 12.5025 9.25991 12.5884 9.11781C12.6743 8.97571 12.7274 8.81626 12.7439 8.65106C12.7604 8.48586 12.7399 8.31905 12.6839 8.16276C12.6279 8.00647 12.5377 7.86463 12.42 7.74755C12.2636 7.5882 12.062 7.48084 11.8425 7.44005C11.6263 7.39593 11.4019 7.4168 11.1975 7.50005C10.9925 7.58751 10.8159 7.73035 10.6875 7.91255C10.5661 8.10031 10.501 8.31894 10.5 8.54255C10.5 8.84091 10.6185 9.12706 10.8295 9.33804C11.0405 9.54902 11.3266 9.66755 11.625 9.66755V9.66755Z" fill="#B7CDE1"/>
</g>
<path opacity="0.5" d="M43.4472 38.25H4.55218C4.10166 38.2044 3.68691 37.9841 3.39675 37.6365C3.10658 37.2889 2.96405 36.8414 2.99968 36.39V13.14C2.95574 12.6837 3.09446 12.2285 3.38546 11.8743C3.67645 11.52 4.096 11.2955 4.55218 11.25H43.4472C43.8977 11.2956 44.3124 11.5159 44.6026 11.8635C44.8928 12.2111 45.0353 12.6586 44.9997 13.11V36.36C45.0436 36.8163 44.9049 37.2715 44.6139 37.6257C44.3229 37.98 43.9034 38.2045 43.4472 38.25V38.25Z" fill="white"/>
<g style="mix-blend-mode:multiply">
<path fill-rule="evenodd" clip-rule="evenodd" d="M29.3611 25.4874C29.5561 25.3661 29.7174 25.1952 29.8293 24.9912C29.9412 24.7873 30 24.5573 30 24.3233C30 24.0892 29.9412 23.8592 29.8293 23.6553C29.7174 23.4513 29.5561 23.2805 29.3611 23.1591L20.0041 17.4404C19.8026 17.3178 19.5731 17.2522 19.3388 17.2501C19.1046 17.248 18.874 17.3095 18.6704 17.4284C18.4668 17.5474 18.2976 17.7195 18.1798 17.9272C18.0621 18.135 18 18.371 18 18.6114V30.1441C18.001 30.3853 18.0644 30.6219 18.1838 30.8297C18.3032 31.0375 18.4742 31.2091 18.6794 31.3268C18.8846 31.4445 19.1167 31.5042 19.3518 31.4998C19.5868 31.4953 19.8166 31.4269 20.0174 31.3014L29.3611 25.4874Z" fill="#1482FF"/>
</g>
</svg>
