<svg viewBox="0 0 32 32" fill="none" xmlns="http://www.w3.org/2000/svg">
<path d="M30.855 26.5H1.14502C0.993292 26.4998 0.843198 26.4687 0.70392 26.4085C0.564643 26.3484 0.439113 26.2604 0.335016 26.15C0.118359 25.9202 -0.00159056 25.6158 1.59306e-05 25.3V3.7C-0.00159056 3.38416 0.118359 3.07981 0.335016 2.85C0.439113 2.73962 0.564643 2.65165 0.70392 2.59146C0.843198 2.53128 0.993292 2.50016 1.14502 2.5H30.855C31.0067 2.50016 31.1568 2.53128 31.2961 2.59146C31.4354 2.65165 31.5609 2.73962 31.665 2.85C31.8817 3.07981 32.0016 3.38416 32 3.7V25.3C32.0016 25.6158 31.8817 25.9202 31.665 26.15C31.5609 26.2604 31.4354 26.3484 31.2961 26.4085C31.1568 26.4687 31.0067 26.4998 30.855 26.5Z" fill="#B7CDE1"/>
<g style="mix-blend-mode:multiply">
<path d="M2.75006 5.49991C2.89768 5.49999 3.04205 5.45651 3.16506 5.37491C3.28931 5.29104 3.38658 5.17294 3.44506 5.03491C3.50561 4.90019 3.52476 4.75052 3.50006 4.60491C3.4736 4.45412 3.40132 4.31515 3.29307 4.2069C3.18482 4.09865 3.04585 4.02637 2.89506 3.99991C2.75092 3.97049 2.6013 3.98441 2.46506 4.03991C2.32703 4.09839 2.20893 4.19566 2.12506 4.31991C2.04588 4.43304 1.99946 4.56584 1.99093 4.70366C1.98241 4.84149 2.01209 4.979 2.07673 5.10103C2.14136 5.22306 2.23844 5.32487 2.35724 5.39526C2.47605 5.46564 2.61199 5.50185 2.75006 5.49991V5.49991Z" fill="#B7CDE1"/>
</g>
<g style="mix-blend-mode:multiply">
<path d="M5.25006 5.49991C5.39768 5.49999 5.54205 5.45651 5.66506 5.37491C5.78931 5.29104 5.88658 5.17294 5.94506 5.03491C6.00056 4.89867 6.01448 4.74905 5.98506 4.60491C5.95956 4.45618 5.8895 4.31869 5.78414 4.21066C5.67879 4.10263 5.54311 4.02913 5.39506 3.99991C5.25092 3.97049 5.1013 3.98441 4.96506 4.03991C4.82703 4.09839 4.70893 4.19566 4.62506 4.31991C4.54588 4.43304 4.49946 4.56584 4.49093 4.70366C4.48241 4.84149 4.51209 4.979 4.57673 5.10103C4.64136 5.22306 4.73844 5.32487 4.85724 5.39526C4.97605 5.46564 5.11199 5.50185 5.25006 5.49991V5.49991Z" fill="#B7CDE1"/>
</g>
<g style="mix-blend-mode:multiply">
<path d="M7.75006 5.49991C7.89768 5.49999 8.04205 5.45651 8.16506 5.37491C8.28931 5.29104 8.38658 5.17294 8.44506 5.03491C8.50056 4.89867 8.51448 4.74905 8.48506 4.60491C8.45956 4.45618 8.3895 4.31869 8.28414 4.21066C8.17879 4.10263 8.04311 4.02913 7.89506 3.99991C7.75092 3.97049 7.6013 3.98441 7.46506 4.03991C7.32703 4.09839 7.20893 4.19566 7.12506 4.31991C7.04588 4.43304 6.99946 4.56584 6.99093 4.70366C6.98241 4.84149 7.01209 4.979 7.07673 5.10103C7.14136 5.22306 7.23843 5.32487 7.35724 5.39526C7.47605 5.46564 7.61199 5.50185 7.75006 5.49991Z" fill="#B7CDE1"/>
</g>
<path opacity="0.5" d="M28.925 6.5H3.07497C2.77336 6.51678 2.49074 6.65258 2.28918 6.87758C2.08762 7.10257 1.9836 7.39837 1.99997 7.7V23.3C1.9836 23.6016 2.08762 23.8974 2.28918 24.1224C2.49074 24.3474 2.77336 24.4832 3.07497 24.5H28.925C29.2266 24.4832 29.5092 24.3474 29.7108 24.1224C29.9123 23.8974 30.0163 23.6016 30 23.3V7.7C30.0163 7.39837 29.9123 7.10257 29.7108 6.87758C29.5092 6.65258 29.2266 6.51678 28.925 6.5V6.5Z" fill="white"/>
<rect x="5" y="23.5" width="11" height="6" rx="0.53125" fill="#42CACD"/>
<rect x="6.5" y="22.5" width="3.5" height="1" fill="#42CACD"/>
<rect x="11" y="22.5" width="3.5" height="1" fill="#42CACD"/>
<g style="mix-blend-mode:multiply">
<rect x="6.5" y="22.5" width="3.5" height="1" fill="#42CACD"/>
</g>
<g style="mix-blend-mode:multiply">
<rect x="11" y="22.5" width="3.5" height="1" fill="#42CACD"/>
</g>
<rect x="16" y="23.5" width="11" height="6" rx="0.53125" fill="#FE90A0"/>
<rect x="17.5" y="22.5" width="3.5" height="1" fill="#FE90A0"/>
<rect x="22" y="22.5" width="3.5" height="1" fill="#FE90A0"/>
<g style="mix-blend-mode:multiply">
<rect x="17.5" y="22.5" width="3.5" height="1" fill="#FE90A0"/>
</g>
<g style="mix-blend-mode:multiply">
<rect x="22" y="22.5" width="3.5" height="1" fill="#FE90A0"/>
</g>
<rect x="10.2141" y="15.332" width="11" height="6" rx="0.53125" transform="rotate(-12.3657 10.2141 15.332)" fill="#FEBC63"/>
<rect x="11.4651" y="14.0342" width="3.5" height="1" transform="rotate(-12.3657 11.4651 14.0342)" fill="#FEBC63"/>
<rect x="15.8608" y="13.0706" width="3.5" height="1" transform="rotate(-12.3657 15.8608 13.0706)" fill="#FEBC63"/>
<g style="mix-blend-mode:multiply">
<rect x="11.4651" y="14.0342" width="3.5" height="1" transform="rotate(-12.3657 11.4651 14.0342)" fill="#FEBC63"/>
</g>
<g style="mix-blend-mode:multiply">
<rect x="15.8608" y="13.0706" width="3.5" height="1" transform="rotate(-12.3657 15.8608 13.0706)" fill="#FEBC63"/>
</g>
</svg>
