<svg viewBox="0 0 557 365" fill="none" xmlns="http://www.w3.org/2000/svg">
<g clip-path="url(#clip0_1023_12192)">
<g clip-path="url(#clip1_1023_12192)" filter="url(#filter0_d_1023_12192)">
<rect width="1920" height="1602" transform="translate(-1157 0.128906)" fill="#F4F8FB"/>
<rect x="-1157" y="0.128906" width="1920" height="6" fill="#5FB487"/>
</g>
<rect x="-727.466" y="155.235" width="1176.3" height="561.748" rx="5.50014" fill="white"/>
<rect x="-727.466" y="155.235" width="1176.3" height="561.748" rx="5.50014" stroke="#E2E6E9" stroke-width="0.733352"/>
<path d="M-76.7489 250.27V241.191H-80.0197V240.003H-72.1581V241.191H-75.4142V250.27H-76.7489ZM-67.3249 244.095C-67.6036 243.977 -67.9556 243.919 -68.2783 243.919C-69.4516 243.919 -70.405 245.048 -70.405 247.453V250.27H-71.6517V242.877H-70.405V244.373C-69.9796 243.435 -69.0116 242.76 -68.1023 242.76C-67.7942 242.76 -67.5009 242.804 -67.2516 242.892L-67.3249 244.095ZM-63.5374 242.76C-61.748 242.76 -60.5013 243.816 -60.5013 245.532V250.27H-61.7333V249.008C-62.1587 249.859 -63.1267 250.387 -64.1974 250.387C-65.6788 250.387 -66.6908 249.478 -66.6908 248.201C-66.6908 246.779 -65.5321 246.001 -63.1707 245.767L-61.7333 245.605V245.459C-61.7333 244.447 -62.452 243.801 -63.5374 243.801C-64.5494 243.801 -65.2681 244.403 -65.3707 245.4L-66.5294 245.18C-66.3094 243.713 -65.0921 242.76 -63.5374 242.76ZM-64.0067 249.36C-62.5693 249.36 -61.7333 248.407 -61.7333 246.925V246.573L-63.1707 246.735C-64.6667 246.896 -65.4441 247.409 -65.4441 248.187C-65.4441 248.876 -64.8574 249.36 -64.0067 249.36ZM-58.4743 250.27V242.877H-57.2276V244.271C-56.7142 243.391 -55.8195 242.76 -54.6902 242.76C-53.1501 242.76 -52.0501 243.801 -52.0501 245.371V250.27H-53.2968V245.605C-53.2968 244.608 -53.9275 243.889 -54.9688 243.889C-56.3475 243.889 -57.2276 245.077 -57.2276 247.028V250.27H-58.4743ZM-47.5448 250.387C-49.3342 250.387 -50.3022 249.272 -50.6249 248.231L-49.5542 247.761C-49.2755 248.627 -48.6888 249.331 -47.5448 249.331C-46.6354 249.331 -46.0487 248.803 -46.0487 248.201C-46.0487 246.309 -50.3022 247.527 -50.3022 244.725C-50.3022 243.552 -49.2902 242.76 -47.7061 242.76C-46.4008 242.76 -45.2714 243.493 -44.9634 244.579L-46.0047 245.033C-46.2101 244.271 -46.9434 243.787 -47.7355 243.787C-48.5715 243.787 -49.0995 244.124 -49.0995 244.711C-49.0995 246.295 -44.8167 245.136 -44.8314 248.187C-44.8314 249.478 -45.9167 250.387 -47.5448 250.387ZM-40.4912 242.76C-38.7018 242.76 -37.4551 243.816 -37.4551 245.532V250.27H-38.6872V249.008C-39.1125 249.859 -40.0805 250.387 -41.1512 250.387C-42.6326 250.387 -43.6446 249.478 -43.6446 248.201C-43.6446 246.779 -42.4859 246.001 -40.1245 245.767L-38.6872 245.605V245.459C-38.6872 244.447 -39.4058 243.801 -40.4912 243.801C-41.5032 243.801 -42.2219 244.403 -42.3246 245.4L-43.4833 245.18C-43.2633 243.713 -42.0459 242.76 -40.4912 242.76ZM-40.9605 249.36C-39.5232 249.36 -38.6872 248.407 -38.6872 246.925V246.573L-40.1245 246.735C-41.6206 246.896 -42.3979 247.409 -42.3979 248.187C-42.3979 248.876 -41.8112 249.36 -40.9605 249.36ZM-32.1867 250.387C-34.3867 250.387 -35.8534 248.861 -35.8534 246.573C-35.8534 244.285 -34.3867 242.76 -32.1867 242.76C-30.4706 242.76 -29.2093 243.699 -28.9453 245.165L-30.1773 245.415C-30.3386 244.52 -31.116 243.875 -32.1573 243.875C-33.6094 243.875 -34.5481 244.945 -34.5481 246.573C-34.5481 248.201 -33.6094 249.272 -32.1573 249.272C-31.116 249.272 -30.3533 248.7 -30.148 247.717L-28.9306 247.967C-29.2533 249.492 -30.4853 250.387 -32.1867 250.387ZM-23.5479 250.211C-23.9146 250.343 -24.3106 250.387 -24.7066 250.387C-25.968 250.387 -26.892 249.683 -26.892 248.055V243.977H-28.2707V242.877H-26.892V240.633H-25.6453V242.877H-23.6652V243.977H-25.6453V248.099C-25.6453 248.876 -25.2053 249.258 -24.5599 249.258C-24.2666 249.258 -23.9292 249.214 -23.6359 249.067L-23.5479 250.211ZM-21.4771 241.484C-21.9758 241.484 -22.3425 241.103 -22.3425 240.619C-22.3425 240.12 -21.9758 239.739 -21.4771 239.739C-20.9637 239.739 -20.5824 240.12 -20.5824 240.619C-20.5824 241.103 -20.9637 241.484 -21.4771 241.484ZM-22.0931 250.27V242.877H-20.8464V250.27H-22.0931ZM-15.498 250.387C-17.698 250.387 -19.2527 248.788 -19.2527 246.573C-19.2527 244.359 -17.698 242.76 -15.498 242.76C-13.3126 242.76 -11.7286 244.359 -11.7286 246.573C-11.7286 248.788 -13.3126 250.387 -15.498 250.387ZM-15.498 249.272C-14.0166 249.272 -13.0193 248.157 -13.0193 246.573C-13.0193 244.989 -14.0166 243.875 -15.498 243.875C-16.9794 243.875 -17.9767 244.989 -17.9767 246.573C-17.9767 248.157 -16.9794 249.272 -15.498 249.272ZM-10.1332 250.27V242.877H-8.88647V244.271C-8.37312 243.391 -7.47843 242.76 -6.34907 242.76C-4.80903 242.76 -3.709 243.801 -3.709 245.371V250.27H-4.9557V245.605C-4.9557 244.608 -5.58639 243.889 -6.62775 243.889C-8.00645 243.889 -8.88647 245.077 -8.88647 247.028V250.27H-10.1332ZM4.99417 250.387C2.69144 250.387 1.43007 248.744 1.43007 246.573C1.43007 244.403 2.69144 242.76 4.9795 242.76C5.96219 242.76 6.93021 243.244 7.39956 243.933V239.885H8.64626V250.27H7.39956V249.199C7.06222 249.874 6.07953 250.387 4.99417 250.387ZM5.1115 249.272C6.56354 249.272 7.5169 248.201 7.5169 246.573C7.5169 244.945 6.56354 243.875 5.1115 243.875C3.65946 243.875 2.70611 244.945 2.70611 246.573C2.70611 248.201 3.65946 249.272 5.1115 249.272ZM13.4216 242.76C15.211 242.76 16.4577 243.816 16.4577 245.532V250.27H15.2257V249.008C14.8003 249.859 13.8323 250.387 12.7616 250.387C11.2803 250.387 10.2682 249.478 10.2682 248.201C10.2682 246.779 11.4269 246.001 13.7883 245.767L15.2257 245.605V245.459C15.2257 244.447 14.507 243.801 13.4216 243.801C12.4096 243.801 11.6909 244.403 11.5883 245.4L10.4296 245.18C10.6496 243.713 11.8669 242.76 13.4216 242.76ZM12.9523 249.36C14.3897 249.36 15.2257 248.407 15.2257 246.925V246.573L13.7883 246.735C12.2923 246.896 11.5149 247.409 11.5149 248.187C11.5149 248.876 12.1016 249.36 12.9523 249.36ZM22.3726 250.211C22.0059 250.343 21.6099 250.387 21.2139 250.387C19.9525 250.387 19.0285 249.683 19.0285 248.055V243.977H17.6498V242.877H19.0285V240.633H20.2752V242.877H22.2552V243.977H20.2752V248.099C20.2752 248.876 20.7152 249.258 21.3605 249.258C21.6539 249.258 21.9912 249.214 22.2845 249.067L22.3726 250.211ZM30.3293 246.236C30.3293 246.412 30.3146 246.676 30.3 246.808H24.4625C24.5505 248.304 25.4892 249.287 26.8239 249.287C27.9532 249.287 28.7306 248.759 28.9506 247.835L30.124 248.113C29.7573 249.551 28.5253 250.387 26.8239 250.387C24.6092 250.387 23.2158 248.671 23.2158 246.573C23.2158 244.476 24.5652 242.76 26.7946 242.76C28.9799 242.76 30.3293 244.329 30.3293 246.236ZM24.5358 245.767H29.0093C28.8919 244.637 28.0999 243.801 26.7946 243.801C25.6359 243.801 24.7852 244.535 24.5358 245.767Z" fill="black"/>
<circle cx="56.6504" cy="244.269" r="7.33352" fill="#D2E0ED"/>
<path d="M74.1774 250.387C72.1973 250.387 70.6133 249.111 70.2759 247.233L71.5373 246.823C71.7426 248.26 72.8427 249.199 74.2067 249.199C75.6147 249.199 76.5241 248.539 76.5241 247.512C76.5241 244.769 70.6866 246.207 70.6866 242.569C70.6866 240.971 72.124 239.885 74.148 239.885C76.0254 239.885 77.4774 240.897 77.7415 242.423L76.5241 242.892C76.3188 241.777 75.4387 241.073 74.148 241.073C72.828 241.073 72.036 241.645 72.036 242.569C72.036 244.916 77.9028 243.391 77.9028 247.497C77.9028 249.243 76.4214 250.387 74.1774 250.387ZM86.1448 246.236C86.1448 246.412 86.1301 246.676 86.1154 246.808H80.2779C80.3659 248.304 81.3046 249.287 82.6393 249.287C83.7687 249.287 84.546 248.759 84.7661 247.835L85.9394 248.113C85.5727 249.551 84.3407 250.387 82.6393 250.387C80.4246 250.387 79.0312 248.671 79.0312 246.573C79.0312 244.476 80.3806 242.76 82.61 242.76C84.7954 242.76 86.1448 244.329 86.1448 246.236ZM80.3513 245.767H84.8247C84.7074 244.637 83.9154 243.801 82.61 243.801C81.4513 243.801 80.6006 244.535 80.3513 245.767ZM91.5803 250.211C91.2136 250.343 90.8176 250.387 90.4216 250.387C89.1602 250.387 88.2362 249.683 88.2362 248.055V243.977H86.8575V242.877H88.2362V240.633H89.4829V242.877H91.4629V243.977H89.4829V248.099C89.4829 248.876 89.9229 249.258 90.5682 249.258C90.8616 249.258 91.1989 249.214 91.4923 249.067L91.5803 250.211ZM96.9658 250.211C96.5991 250.343 96.2031 250.387 95.8071 250.387C94.5458 250.387 93.6217 249.683 93.6217 248.055V243.977H92.243V242.877H93.6217V240.633H94.8684V242.877H96.8485V243.977H94.8684V248.099C94.8684 248.876 95.3084 249.258 95.9538 249.258C96.2471 249.258 96.5845 249.214 96.8778 249.067L96.9658 250.211ZM100.852 250.372C99.5322 250.504 98.5495 250.006 98.5495 248.465V239.885H99.7962V248.377C99.7962 249.184 100.178 249.302 100.794 249.258L100.852 250.372ZM108.99 246.236C108.99 246.412 108.976 246.676 108.961 246.808H103.124C103.212 248.304 104.15 249.287 105.485 249.287C106.614 249.287 107.392 248.759 107.612 247.835L108.785 248.113C108.418 249.551 107.186 250.387 105.485 250.387C103.27 250.387 101.877 248.671 101.877 246.573C101.877 244.476 103.226 242.76 105.456 242.76C107.641 242.76 108.99 244.329 108.99 246.236ZM103.197 245.767H107.67C107.553 244.637 106.761 243.801 105.456 243.801C104.297 243.801 103.446 244.535 103.197 245.767ZM110.595 250.27V242.877H111.842V244.271C112.209 243.391 112.942 242.76 114.071 242.76C115.274 242.76 116.213 243.317 116.477 244.315C116.873 243.435 117.753 242.76 118.868 242.76C120.452 242.76 121.449 243.757 121.449 245.312V250.27H120.202V245.561C120.202 244.549 119.63 243.86 118.589 243.86C117.328 243.86 116.638 244.989 116.638 246.559V250.27H115.392V245.561C115.392 244.549 114.82 243.86 113.793 243.86C112.531 243.86 111.842 244.989 111.842 246.559V250.27H110.595ZM130.16 246.236C130.16 246.412 130.146 246.676 130.131 246.808H124.293C124.381 248.304 125.32 249.287 126.655 249.287C127.784 249.287 128.562 248.759 128.782 247.835L129.955 248.113C129.588 249.551 128.356 250.387 126.655 250.387C124.44 250.387 123.047 248.671 123.047 246.573C123.047 244.476 124.396 242.76 126.625 242.76C128.811 242.76 130.16 244.329 130.16 246.236ZM124.367 245.767H128.84C128.723 244.637 127.931 243.801 126.625 243.801C125.467 243.801 124.616 244.535 124.367 245.767ZM131.765 250.27V242.877H133.012V244.271C133.525 243.391 134.42 242.76 135.549 242.76C137.089 242.76 138.189 243.801 138.189 245.371V250.27H136.943V245.605C136.943 244.608 136.312 243.889 135.271 243.889C133.892 243.889 133.012 245.077 133.012 247.028V250.27H131.765ZM143.875 250.211C143.508 250.343 143.112 250.387 142.716 250.387C141.455 250.387 140.531 249.683 140.531 248.055V243.977H139.152V242.877H140.531V240.633H141.777V242.877H143.757V243.977H141.777V248.099C141.777 248.876 142.217 249.258 142.863 249.258C143.156 249.258 143.493 249.214 143.787 249.067L143.875 250.211ZM152.006 250.387C149.703 250.387 148.442 248.744 148.442 246.573C148.442 244.403 149.703 242.76 151.991 242.76C152.974 242.76 153.942 243.244 154.411 243.933V239.885H155.658V250.27H154.411V249.199C154.074 249.874 153.091 250.387 152.006 250.387ZM152.123 249.272C153.575 249.272 154.529 248.201 154.529 246.573C154.529 244.945 153.575 243.875 152.123 243.875C150.671 243.875 149.718 244.945 149.718 246.573C149.718 248.201 150.671 249.272 152.123 249.272ZM160.433 242.76C162.223 242.76 163.47 243.816 163.47 245.532V250.27H162.237V249.008C161.812 249.859 160.844 250.387 159.773 250.387C158.292 250.387 157.28 249.478 157.28 248.201C157.28 246.779 158.439 246.001 160.8 245.767L162.237 245.605V245.459C162.237 244.447 161.519 243.801 160.433 243.801C159.421 243.801 158.703 244.403 158.6 245.4L157.441 245.18C157.661 243.713 158.879 242.76 160.433 242.76ZM159.964 249.36C161.401 249.36 162.237 248.407 162.237 246.925V246.573L160.8 246.735C159.304 246.896 158.527 247.409 158.527 248.187C158.527 248.876 159.113 249.36 159.964 249.36ZM169.384 250.211C169.018 250.343 168.622 250.387 168.226 250.387C166.964 250.387 166.04 249.683 166.04 248.055V243.977H164.662V242.877H166.04V240.633H167.287V242.877H169.267V243.977H167.287V248.099C167.287 248.876 167.727 249.258 168.372 249.258C168.666 249.258 169.003 249.214 169.296 249.067L169.384 250.211ZM177.341 246.236C177.341 246.412 177.326 246.676 177.312 246.808H171.474C171.562 248.304 172.501 249.287 173.836 249.287C174.965 249.287 175.742 248.759 175.962 247.835L177.136 248.113C176.769 249.551 175.537 250.387 173.836 250.387C171.621 250.387 170.228 248.671 170.228 246.573C170.228 244.476 171.577 242.76 173.806 242.76C175.992 242.76 177.341 244.329 177.341 246.236ZM171.548 245.767H176.021C175.904 244.637 175.112 243.801 173.806 243.801C172.648 243.801 171.797 244.535 171.548 245.767Z" fill="black"/>
<path d="M229.851 213.52C227.871 213.52 226.287 212.244 225.95 210.366L227.211 209.956C227.416 211.393 228.516 212.332 229.881 212.332C231.289 212.332 232.198 211.672 232.198 210.645C232.198 207.902 226.36 209.34 226.36 205.702C226.36 204.103 227.798 203.018 229.822 203.018C231.699 203.018 233.151 204.03 233.415 205.555L232.198 206.025C231.993 204.91 231.113 204.206 229.822 204.206C228.502 204.206 227.71 204.778 227.71 205.702C227.71 208.049 233.577 206.524 233.577 210.63C233.577 212.376 232.095 213.52 229.851 213.52ZM241.819 209.369C241.819 209.545 241.804 209.809 241.789 209.941H235.952C236.04 211.437 236.978 212.42 238.313 212.42C239.443 212.42 240.22 211.892 240.44 210.968L241.613 211.246C241.247 212.684 240.015 213.52 238.313 213.52C236.098 213.52 234.705 211.804 234.705 209.706C234.705 207.609 236.054 205.893 238.284 205.893C240.469 205.893 241.819 207.462 241.819 209.369ZM236.025 208.9H240.499C240.381 207.77 239.589 206.934 238.284 206.934C237.125 206.934 236.274 207.668 236.025 208.9ZM245.726 213.505C244.406 213.637 243.424 213.138 243.424 211.598V203.018H244.67V211.51C244.67 212.317 245.052 212.434 245.668 212.39L245.726 213.505ZM253.864 209.369C253.864 209.545 253.85 209.809 253.835 209.941H247.998C248.086 211.437 249.024 212.42 250.359 212.42C251.488 212.42 252.266 211.892 252.486 210.968L253.659 211.246C253.292 212.684 252.06 213.52 250.359 213.52C248.144 213.52 246.751 211.804 246.751 209.706C246.751 207.609 248.1 205.893 250.33 205.893C252.515 205.893 253.864 207.462 253.864 209.369ZM248.071 208.9H252.544C252.427 207.77 251.635 206.934 250.33 206.934C249.171 206.934 248.32 207.668 248.071 208.9ZM258.711 213.52C256.511 213.52 255.044 211.994 255.044 209.706C255.044 207.418 256.511 205.893 258.711 205.893C260.427 205.893 261.688 206.832 261.952 208.298L260.72 208.548C260.559 207.653 259.782 207.008 258.74 207.008C257.288 207.008 256.349 208.078 256.349 209.706C256.349 211.334 257.288 212.405 258.74 212.405C259.782 212.405 260.544 211.833 260.75 210.85L261.967 211.1C261.644 212.625 260.412 213.52 258.711 213.52ZM267.35 213.344C266.983 213.476 266.587 213.52 266.191 213.52C264.93 213.52 264.006 212.816 264.006 211.188V207.11H262.627V206.01H264.006V203.766H265.252V206.01H267.232V207.11H265.252V211.232C265.252 212.009 265.692 212.39 266.338 212.39C266.631 212.39 266.968 212.346 267.262 212.2L267.35 213.344ZM275.994 213.52C274.909 213.52 273.926 213.006 273.589 212.332V213.402H272.342V203.018H273.589V207.066C274.058 206.377 275.026 205.893 276.009 205.893C278.297 205.893 279.558 207.536 279.558 209.706C279.558 211.877 278.297 213.52 275.994 213.52ZM275.877 212.405C277.329 212.405 278.282 211.334 278.282 209.706C278.282 208.078 277.329 207.008 275.877 207.008C274.425 207.008 273.486 208.078 273.486 209.706C273.486 211.334 274.425 212.405 275.877 212.405ZM281.767 204.617C281.268 204.617 280.902 204.235 280.902 203.751C280.902 203.253 281.268 202.871 281.767 202.871C282.28 202.871 282.662 203.253 282.662 203.751C282.662 204.235 282.28 204.617 281.767 204.617ZM281.151 213.402V206.01H282.398V213.402H281.151ZM286.72 213.505C285.4 213.637 284.417 213.138 284.417 211.598V203.018H285.664V211.51C285.664 212.317 286.045 212.434 286.661 212.39L286.72 213.505ZM290.472 213.505C289.152 213.637 288.17 213.138 288.17 211.598V203.018H289.416V211.51C289.416 212.317 289.798 212.434 290.414 212.39L290.472 213.505ZM297.939 213.52C296.149 213.52 295.181 212.405 294.859 211.364L295.929 210.894C296.208 211.76 296.795 212.464 297.939 212.464C298.848 212.464 299.435 211.936 299.435 211.334C299.435 209.442 295.181 210.66 295.181 207.858C295.181 206.685 296.193 205.893 297.777 205.893C299.083 205.893 300.212 206.626 300.52 207.712L299.479 208.166C299.274 207.404 298.54 206.92 297.748 206.92C296.912 206.92 296.384 207.257 296.384 207.844C296.384 209.428 300.667 208.269 300.652 211.32C300.652 212.61 299.567 213.52 297.939 213.52ZM306.066 213.344C305.699 213.476 305.303 213.52 304.907 213.52C303.645 213.52 302.721 212.816 302.721 211.188V207.11H301.343V206.01H302.721V203.766H303.968V206.01H305.948V207.11H303.968V211.232C303.968 212.009 304.408 212.39 305.053 212.39C305.347 212.39 305.684 212.346 305.978 212.2L306.066 213.344ZM310.149 205.893C311.938 205.893 313.185 206.949 313.185 208.665V213.402H311.953V212.141C311.527 212.992 310.559 213.52 309.489 213.52C308.007 213.52 306.995 212.61 306.995 211.334C306.995 209.912 308.154 209.134 310.515 208.9L311.953 208.738V208.592C311.953 207.58 311.234 206.934 310.149 206.934C309.137 206.934 308.418 207.536 308.315 208.533L307.157 208.313C307.377 206.846 308.594 205.893 310.149 205.893ZM309.679 212.493C311.117 212.493 311.953 211.54 311.953 210.058V209.706L310.515 209.868C309.019 210.029 308.242 210.542 308.242 211.32C308.242 212.009 308.829 212.493 309.679 212.493ZM319.1 213.344C318.733 213.476 318.337 213.52 317.941 213.52C316.68 213.52 315.756 212.816 315.756 211.188V207.11H314.377V206.01H315.756V203.766H317.002V206.01H318.982V207.11H317.002V211.232C317.002 212.009 317.442 212.39 318.088 212.39C318.381 212.39 318.718 212.346 319.012 212.2L319.1 213.344ZM326.907 206.01V213.402H325.66V212.009C325.147 212.889 324.252 213.52 323.123 213.52C321.583 213.52 320.483 212.478 320.483 210.909V206.01H321.73V210.674C321.73 211.672 322.36 212.39 323.402 212.39C324.78 212.39 325.66 211.202 325.66 209.252V206.01H326.907ZM331.412 213.52C329.623 213.52 328.655 212.405 328.332 211.364L329.403 210.894C329.682 211.76 330.268 212.464 331.412 212.464C332.322 212.464 332.908 211.936 332.908 211.334C332.908 209.442 328.655 210.66 328.655 207.858C328.655 206.685 329.667 205.893 331.251 205.893C332.556 205.893 333.686 206.626 333.994 207.712L332.952 208.166C332.747 207.404 332.014 206.92 331.222 206.92C330.386 206.92 329.858 207.257 329.858 207.844C329.858 209.428 334.14 208.269 334.126 211.32C334.126 212.61 333.04 213.52 331.412 213.52ZM337.513 215.925C336.017 214.004 335.195 211.51 335.195 209.046C335.195 206.582 336.017 204.089 337.513 202.182L338.378 202.827C337.058 204.778 336.398 206.861 336.398 209.046C336.398 211.246 337.058 213.3 338.378 215.265L337.513 215.925ZM346.393 209.369C346.393 209.545 346.378 209.809 346.364 209.941H340.526C340.614 211.437 341.553 212.42 342.887 212.42C344.017 212.42 344.794 211.892 345.014 210.968L346.188 211.246C345.821 212.684 344.589 213.52 342.887 213.52C340.673 213.52 339.279 211.804 339.279 209.706C339.279 207.609 340.629 205.893 342.858 205.893C345.044 205.893 346.393 207.462 346.393 209.369ZM340.599 208.9H345.073C344.956 207.77 344.163 206.934 342.858 206.934C341.699 206.934 340.849 207.668 340.599 208.9ZM350.405 213.52C348.616 213.52 347.648 212.405 347.325 211.364L348.396 210.894C348.674 211.76 349.261 212.464 350.405 212.464C351.314 212.464 351.901 211.936 351.901 211.334C351.901 209.442 347.648 210.66 347.648 207.858C347.648 206.685 348.66 205.893 350.244 205.893C351.549 205.893 352.678 206.626 352.986 207.712L351.945 208.166C351.74 207.404 351.006 206.92 350.214 206.92C349.378 206.92 348.85 207.257 348.85 207.844C348.85 209.428 353.133 208.269 353.118 211.32C353.118 212.61 352.033 213.52 350.405 213.52ZM354.863 215.925L353.997 215.265C355.317 213.3 355.977 211.246 355.977 209.046C355.977 206.861 355.317 204.778 353.997 202.827L354.863 202.182C356.359 204.089 357.195 206.582 357.195 209.046C357.195 211.51 356.359 214.004 354.863 215.925Z" fill="black"/>
<rect x="225.891" y="225.835" width="175.271" height="34.4676" rx="2.56673" fill="white"/>
<rect x="225.891" y="225.835" width="175.271" height="34.4676" rx="2.56673" stroke="#C5CCD3" stroke-width="0.733352"/>
<g clip-path="url(#clip2_1023_12192)">
<path d="M245.541 241.087C245.255 240.802 244.793 240.801 244.507 241.086L241.658 243.929L238.809 241.086C238.523 240.801 238.061 240.802 237.775 241.087C237.489 241.373 237.489 241.836 237.775 242.122L241.658 246.004L245.541 242.122C245.826 241.836 245.826 241.373 245.541 241.087Z" fill="#8FB2D1"/>
</g>
<path d="M232.858 234.27C232.858 233.46 233.515 232.804 234.325 232.804H306.926C307.737 232.804 308.393 233.46 308.393 234.27V251.871C308.393 252.681 307.737 253.338 306.926 253.338H234.325C233.515 253.338 232.858 252.681 232.858 251.871V234.27Z" fill="#D7F4F4"/>
<path d="M244.469 247.47L243.659 245.381H240.01L239.2 247.47H238.097L241.348 239.256H242.321L245.583 247.47H244.469ZM240.374 244.431H243.295L241.84 240.664L240.374 244.431ZM248.344 247.552C247.288 247.657 246.502 247.259 246.502 246.026V239.162H247.499V245.956C247.499 246.601 247.804 246.695 248.297 246.66L248.344 247.552ZM251.346 247.552C250.29 247.657 249.504 247.259 249.504 246.026V239.162H250.501V245.956C250.501 246.601 250.806 246.695 251.299 246.66L251.346 247.552ZM257.319 247.564C255.888 247.564 255.113 246.672 254.855 245.839L255.712 245.463C255.935 246.156 256.404 246.719 257.319 246.719C258.047 246.719 258.516 246.296 258.516 245.815C258.516 244.302 255.113 245.276 255.113 243.034C255.113 242.096 255.923 241.462 257.19 241.462C258.234 241.462 259.138 242.049 259.384 242.917L258.551 243.281C258.387 242.671 257.8 242.283 257.167 242.283C256.498 242.283 256.075 242.553 256.075 243.023C256.075 244.29 259.502 243.363 259.49 245.804C259.49 246.836 258.622 247.564 257.319 247.564ZM263.82 247.423C263.527 247.528 263.21 247.564 262.893 247.564C261.884 247.564 261.145 247 261.145 245.698V242.436H260.042V241.556H261.145V239.761H262.143V241.556H263.727V242.436H262.143V245.733C262.143 246.355 262.495 246.66 263.011 246.66C263.246 246.66 263.515 246.625 263.75 246.508L263.82 247.423ZM267.087 241.462C268.519 241.462 269.516 242.307 269.516 243.68V247.47H268.53V246.461C268.19 247.141 267.416 247.564 266.559 247.564C265.374 247.564 264.564 246.836 264.564 245.815C264.564 244.677 265.491 244.055 267.38 243.868L268.53 243.738V243.621C268.53 242.811 267.955 242.295 267.087 242.295C266.277 242.295 265.703 242.776 265.62 243.574L264.693 243.398C264.869 242.225 265.843 241.462 267.087 241.462ZM266.712 246.742C267.861 246.742 268.53 245.98 268.53 244.794V244.513L267.38 244.642C266.184 244.771 265.562 245.182 265.562 245.804C265.562 246.355 266.031 246.742 266.712 246.742ZM274.248 247.423C273.954 247.528 273.638 247.564 273.321 247.564C272.312 247.564 271.573 247 271.573 245.698V242.436H270.47V241.556H271.573V239.761H272.57V241.556H274.154V242.436H272.57V245.733C272.57 246.355 272.922 246.66 273.438 246.66C273.673 246.66 273.943 246.625 274.177 246.508L274.248 247.423ZM280.494 241.556V247.47H279.496V246.355C279.086 247.059 278.37 247.564 277.466 247.564C276.234 247.564 275.354 246.731 275.354 245.475V241.556H276.352V245.287C276.352 246.085 276.856 246.66 277.689 246.66C278.792 246.66 279.496 245.71 279.496 244.149V241.556H280.494ZM284.098 247.564C282.666 247.564 281.892 246.672 281.634 245.839L282.49 245.463C282.713 246.156 283.183 246.719 284.098 246.719C284.825 246.719 285.295 246.296 285.295 245.815C285.295 244.302 281.892 245.276 281.892 243.034C281.892 242.096 282.702 241.462 283.969 241.462C285.013 241.462 285.917 242.049 286.163 242.917L285.33 243.281C285.166 242.671 284.579 242.283 283.945 242.283C283.277 242.283 282.854 242.553 282.854 243.023C282.854 244.29 286.28 243.363 286.269 245.804C286.269 246.836 285.4 247.564 284.098 247.564Z" fill="#2B9FA1"/>
<line x1="299.824" y1="240.111" x2="294.638" y2="245.297" stroke="black" stroke-width="0.733352" stroke-linecap="round"/>
<line x1="294.638" y1="240.11" x2="299.823" y2="245.296" stroke="black" stroke-width="0.733352" stroke-linecap="round"/>
<g clip-path="url(#clip3_1023_12192)">
<path d="M388.544 241.087C388.259 240.802 387.796 240.801 387.51 241.086L384.661 243.929L381.813 241.086C381.527 240.801 381.064 240.802 380.779 241.087C380.493 241.373 380.493 241.836 380.779 242.122L384.661 246.004L388.544 242.122C388.83 241.836 388.83 241.373 388.544 241.087Z" fill="#8FB2D1"/>
</g>
<g filter="url(#filter1_d_1023_12192)">
<rect x="273.445" y="314.447" width="128.084" height="35.2009" rx="2.93341" fill="#42CACD"/>
<path d="M310.499 336.548L309.83 334.729H306.65L305.982 336.548H304.339L307.495 328.334H308.985L312.142 336.548H310.499ZM307.155 333.38H309.337L308.246 330.423L307.155 333.38ZM312.936 338.683V330.634H314.415V331.315C314.743 330.857 315.389 330.54 316.175 330.54C317.876 330.54 318.92 331.784 318.92 333.591C318.92 335.398 317.806 336.642 316.069 336.642C315.389 336.642 314.755 336.384 314.415 335.961V338.683H312.936ZM315.893 335.363C316.832 335.363 317.454 334.659 317.454 333.591C317.454 332.523 316.832 331.819 315.893 331.819C314.943 331.819 314.321 332.523 314.321 333.591C314.321 334.659 314.943 335.363 315.893 335.363ZM320.041 338.683V330.634H321.519V331.315C321.848 330.857 322.493 330.54 323.279 330.54C324.981 330.54 326.025 331.784 326.025 333.591C326.025 335.398 324.91 336.642 323.174 336.642C322.493 336.642 321.859 336.384 321.519 335.961V338.683H320.041ZM322.998 335.363C323.936 335.363 324.558 334.659 324.558 333.591C324.558 332.523 323.936 331.819 322.998 331.819C322.047 331.819 321.425 332.523 321.425 333.591C321.425 334.659 322.047 335.363 322.998 335.363ZM329.503 336.607C328.189 336.806 327.145 336.29 327.145 334.835V328.24H328.623V334.647C328.623 335.316 328.929 335.351 329.41 335.339L329.503 336.607ZM334.397 330.634H335.911L332.79 338.683H331.288L332.203 336.313L329.903 330.634H331.511L332.931 334.436L334.397 330.634ZM340.06 336.548V331.878H339.109V330.634H340.06V330.176C340.06 328.792 340.951 328.041 342.148 328.041C342.453 328.041 342.758 328.088 343.04 328.17L342.934 329.39C342.735 329.308 342.535 329.273 342.348 329.273C341.855 329.273 341.538 329.625 341.538 330.176V330.634H342.946V331.878H341.538V336.548H340.06ZM344.751 329.731C344.223 329.731 343.836 329.332 343.836 328.815C343.836 328.311 344.223 327.912 344.751 327.912C345.291 327.912 345.69 328.311 345.69 328.815C345.69 329.332 345.291 329.731 344.751 329.731ZM344.012 336.548V330.634H345.491V336.548H344.012ZM349.281 336.607C347.967 336.806 346.923 336.29 346.923 334.835V328.24H348.401V334.647C348.401 335.316 348.706 335.351 349.187 335.339L349.281 336.607ZM353.811 336.489C353.518 336.595 353.201 336.642 352.861 336.642C351.664 336.642 350.772 335.996 350.772 334.612V331.878H349.775V330.634H350.772V328.898H352.251V330.634H353.741V331.878H352.251V334.471C352.251 335.034 352.556 335.339 353.013 335.339C353.236 335.339 353.494 335.304 353.706 335.198L353.811 336.489ZM360.288 333.392C360.288 333.603 360.276 333.861 360.264 333.978H355.876C356.005 334.87 356.58 335.398 357.425 335.398C358.117 335.398 358.61 335.069 358.763 334.494L360.147 334.87C359.819 335.985 358.786 336.642 357.401 336.642C355.442 336.642 354.398 335.128 354.398 333.591C354.398 332.054 355.36 330.54 357.319 330.54C359.314 330.54 360.288 332.019 360.288 333.392ZM355.911 332.899H358.704C358.633 332.195 358.176 331.667 357.319 331.667C356.592 331.667 356.076 332.101 355.911 332.899ZM365.22 332.066C365.009 331.972 364.727 331.925 364.469 331.925C363.636 331.925 362.885 332.617 362.885 334.377V336.548H361.406V330.634H362.885V331.714C363.178 331.045 363.952 330.54 364.668 330.54C364.879 330.54 365.138 330.575 365.314 330.634L365.22 332.066ZM368.089 336.642C366.658 336.642 365.801 335.762 365.508 334.893L366.716 334.401C366.892 334.999 367.35 335.492 368.089 335.492C368.641 335.492 369.004 335.198 369.004 334.823C369.004 333.708 365.778 334.436 365.778 332.195C365.778 331.268 366.587 330.54 367.878 330.54C369.028 330.54 370.002 331.127 370.26 331.983L369.063 332.488C368.899 331.925 368.383 331.631 367.901 331.631C367.432 331.631 367.115 331.831 367.115 332.171C367.115 333.215 370.366 332.382 370.366 334.8C370.366 335.82 369.45 336.642 368.089 336.642Z" fill="white"/>
</g>
<path d="M180.568 338.181H178.702L176.766 334.813H175.463V338.181H173.868L173.856 329.967H177.024C178.632 329.967 179.676 330.918 179.676 332.396C179.676 333.323 179.195 334.109 178.385 334.508L180.568 338.181ZM175.463 331.34V333.44H176.778C177.599 333.44 178.068 333.053 178.068 332.396C178.068 331.739 177.599 331.34 176.778 331.34H175.463ZM186.624 335.024C186.624 335.236 186.612 335.494 186.601 335.611H182.212C182.341 336.503 182.916 337.031 183.761 337.031C184.453 337.031 184.946 336.702 185.099 336.127L186.483 336.503C186.155 337.617 185.122 338.275 183.738 338.275C181.778 338.275 180.734 336.761 180.734 335.224C180.734 333.687 181.696 332.173 183.655 332.173C185.65 332.173 186.624 333.651 186.624 335.024ZM182.247 334.532H185.04C184.97 333.827 184.512 333.299 183.655 333.299C182.928 333.299 182.412 333.734 182.247 334.532ZM189.75 338.275C188.319 338.275 187.462 337.395 187.169 336.526L188.377 336.033C188.553 336.632 189.011 337.125 189.75 337.125C190.302 337.125 190.665 336.831 190.665 336.456C190.665 335.341 187.439 336.069 187.439 333.827C187.439 332.901 188.248 332.173 189.539 332.173C190.689 332.173 191.663 332.76 191.921 333.616L190.724 334.121C190.56 333.558 190.044 333.264 189.563 333.264C189.093 333.264 188.776 333.464 188.776 333.804C188.776 334.848 192.027 334.015 192.027 336.432C192.027 337.453 191.111 338.275 189.75 338.275ZM198.644 335.024C198.644 335.236 198.632 335.494 198.621 335.611H194.232C194.361 336.503 194.936 337.031 195.781 337.031C196.473 337.031 196.966 336.702 197.119 336.127L198.503 336.503C198.175 337.617 197.142 338.275 195.758 338.275C193.798 338.275 192.754 336.761 192.754 335.224C192.754 333.687 193.716 332.173 195.676 332.173C197.67 332.173 198.644 333.651 198.644 335.024ZM194.268 334.532H197.06C196.99 333.827 196.532 333.299 195.676 333.299C194.948 333.299 194.432 333.734 194.268 334.532ZM203.168 338.122C202.874 338.228 202.558 338.275 202.217 338.275C201.021 338.275 200.129 337.629 200.129 336.245V333.511H199.131V332.267H200.129V330.53H201.607V332.267H203.097V333.511H201.607V336.104C201.607 336.667 201.912 336.972 202.37 336.972C202.593 336.972 202.851 336.937 203.062 336.831L203.168 338.122ZM207.521 338.181V333.511H206.57V332.267H207.521V331.809C207.521 330.425 208.412 329.674 209.609 329.674C209.914 329.674 210.219 329.721 210.501 329.803L210.395 331.023C210.196 330.941 209.996 330.906 209.809 330.906C209.316 330.906 208.999 331.258 208.999 331.809V332.267H210.407V333.511H208.999V338.181H207.521ZM212.212 331.363C211.684 331.363 211.297 330.964 211.297 330.448C211.297 329.944 211.684 329.545 212.212 329.545C212.752 329.545 213.151 329.944 213.151 330.448C213.151 330.964 212.752 331.363 212.212 331.363ZM211.473 338.181V332.267H212.952V338.181H211.473ZM216.742 338.239C215.428 338.439 214.384 337.923 214.384 336.468V329.873H215.862V336.28C215.862 336.949 216.167 336.984 216.648 336.972L216.742 338.239ZM221.272 338.122C220.979 338.228 220.662 338.275 220.322 338.275C219.125 338.275 218.233 337.629 218.233 336.245V333.511H217.236V332.267H218.233V330.53H219.712V332.267H221.202V333.511H219.712V336.104C219.712 336.667 220.017 336.972 220.475 336.972C220.697 336.972 220.956 336.937 221.167 336.831L221.272 338.122ZM227.749 335.024C227.749 335.236 227.737 335.494 227.726 335.611H223.337C223.466 336.503 224.041 337.031 224.886 337.031C225.578 337.031 226.071 336.702 226.224 336.127L227.608 336.503C227.28 337.617 226.247 338.275 224.863 338.275C222.903 338.275 221.859 336.761 221.859 335.224C221.859 333.687 222.821 332.173 224.78 332.173C226.775 332.173 227.749 333.651 227.749 335.024ZM223.372 334.532H226.165C226.095 333.827 225.637 333.299 224.78 333.299C224.053 333.299 223.537 333.734 223.372 334.532ZM232.681 333.698C232.47 333.605 232.188 333.558 231.93 333.558C231.097 333.558 230.346 334.25 230.346 336.01V338.181H228.867V332.267H230.346V333.346C230.639 332.678 231.414 332.173 232.129 332.173C232.341 332.173 232.599 332.208 232.775 332.267L232.681 333.698ZM235.55 338.275C234.119 338.275 233.262 337.395 232.969 336.526L234.178 336.033C234.354 336.632 234.811 337.125 235.55 337.125C236.102 337.125 236.466 336.831 236.466 336.456C236.466 335.341 233.239 336.069 233.239 333.827C233.239 332.901 234.048 332.173 235.339 332.173C236.489 332.173 237.463 332.76 237.721 333.616L236.524 334.121C236.36 333.558 235.844 333.264 235.363 333.264C234.893 333.264 234.577 333.464 234.577 333.804C234.577 334.848 237.827 334.015 237.827 336.432C237.827 337.453 236.912 338.275 235.55 338.275Z" fill="#F05656"/>
<g filter="url(#filter2_d_1023_12192)">
<rect x="557" y="0.130859" width="429.011" height="910.09" rx="2.93341" fill="white" shape-rendering="crispEdges"/>
<rect x="557.367" y="0.497535" width="428.278" height="909.357" rx="2.56673" stroke="#E2E5E9" stroke-width="0.733352" shape-rendering="crispEdges"/>
</g>
<line x1="-727.833" y1="135.434" x2="449.197" y2="135.434" stroke="#8FB2D1" stroke-width="0.733352"/>
<path d="M316.043 120.2L312.572 110.96H313.799L316.65 118.814L319.515 110.96H320.743L317.271 120.2H316.043ZM322.31 112.293C321.861 112.293 321.531 111.95 321.531 111.514C321.531 111.066 321.861 110.722 322.31 110.722C322.772 110.722 323.115 111.066 323.115 111.514C323.115 111.95 322.772 112.293 322.31 112.293ZM321.756 120.2V113.547H322.878V120.2H321.756ZM330.714 116.57C330.714 116.729 330.701 116.966 330.688 117.085H325.434C325.513 118.431 326.358 119.316 327.559 119.316C328.576 119.316 329.275 118.841 329.473 118.009L330.529 118.26C330.199 119.553 329.09 120.306 327.559 120.306C325.566 120.306 324.312 118.761 324.312 116.874C324.312 114.986 325.526 113.442 327.533 113.442C329.5 113.442 330.714 114.854 330.714 116.57ZM325.5 116.148H329.526C329.42 115.131 328.708 114.379 327.533 114.379C326.49 114.379 325.724 115.039 325.5 116.148ZM333.469 120.2L331.437 113.547H332.585L334.024 118.629L335.582 113.547H336.664L338.222 118.629L339.647 113.547H340.822L338.776 120.2H337.68L336.123 115.144L334.565 120.2H333.469ZM348.081 120.306C346.008 120.306 344.873 118.827 344.873 116.874C344.873 114.92 346.008 113.442 348.067 113.442C348.952 113.442 349.823 113.877 350.246 114.498V110.854H351.368V120.2H350.246V119.237C349.942 119.844 349.058 120.306 348.081 120.306ZM348.186 119.303C349.493 119.303 350.351 118.339 350.351 116.874C350.351 115.408 349.493 114.445 348.186 114.445C346.879 114.445 346.021 115.408 346.021 116.874C346.021 118.339 346.879 119.303 348.186 119.303ZM356.18 120.306C354.2 120.306 352.801 118.867 352.801 116.874C352.801 114.88 354.2 113.442 356.18 113.442C358.147 113.442 359.573 114.88 359.573 116.874C359.573 118.867 358.147 120.306 356.18 120.306ZM356.18 119.303C357.513 119.303 358.411 118.299 358.411 116.874C358.411 115.448 357.513 114.445 356.18 114.445C354.847 114.445 353.949 115.448 353.949 116.874C353.949 118.299 354.847 119.303 356.18 119.303ZM362.319 120.2L360.287 113.547H361.435L362.874 118.629L364.431 113.547H365.514L367.072 118.629L368.497 113.547H369.672L367.626 120.2H366.53L364.973 115.144L363.415 120.2H362.319ZM370.922 120.2V113.547H372.044V114.801C372.506 114.009 373.311 113.442 374.327 113.442C375.713 113.442 376.703 114.379 376.703 115.791V120.2H375.581V116.002C375.581 115.105 375.014 114.458 374.077 114.458C372.836 114.458 372.044 115.527 372.044 117.283V120.2H370.922ZM380.6 120.293C379.412 120.411 378.527 119.963 378.527 118.577V110.854H379.649V118.497C379.649 119.223 379.993 119.329 380.547 119.289L380.6 120.293ZM384.901 120.306C382.921 120.306 381.522 118.867 381.522 116.874C381.522 114.88 382.921 113.442 384.901 113.442C386.868 113.442 388.294 114.88 388.294 116.874C388.294 118.867 386.868 120.306 384.901 120.306ZM384.901 119.303C386.235 119.303 387.132 118.299 387.132 116.874C387.132 115.448 386.235 114.445 384.901 114.445C383.568 114.445 382.67 115.448 382.67 116.874C382.67 118.299 383.568 119.303 384.901 119.303ZM392.147 113.442C393.757 113.442 394.879 114.392 394.879 115.936V120.2H393.77V119.065C393.388 119.831 392.516 120.306 391.553 120.306C390.22 120.306 389.309 119.487 389.309 118.339C389.309 117.059 390.352 116.359 392.477 116.148L393.77 116.002V115.87C393.77 114.96 393.124 114.379 392.147 114.379C391.236 114.379 390.589 114.92 390.497 115.818L389.454 115.62C389.652 114.3 390.748 113.442 392.147 113.442ZM391.724 119.382C393.018 119.382 393.77 118.524 393.77 117.191V116.874L392.477 117.019C391.13 117.164 390.431 117.626 390.431 118.326C390.431 118.946 390.959 119.382 391.724 119.382ZM399.528 120.306C397.456 120.306 396.321 118.827 396.321 116.874C396.321 114.92 397.456 113.442 399.515 113.442C400.4 113.442 401.271 113.877 401.693 114.498V110.854H402.815V120.2H401.693V119.237C401.39 119.844 400.505 120.306 399.528 120.306ZM399.634 119.303C400.941 119.303 401.799 118.339 401.799 116.874C401.799 115.408 400.941 114.445 399.634 114.445C398.327 114.445 397.469 115.408 397.469 116.874C397.469 118.339 398.327 119.303 399.634 119.303ZM407.816 120.2V110.854H408.938V114.854C409.426 113.904 410.231 113.442 411.208 113.442C412.713 113.442 413.703 114.379 413.703 115.818V120.2H412.581V116.029C412.581 115.052 411.974 114.458 410.957 114.458C409.73 114.458 408.938 115.567 408.938 117.349V120.2H407.816ZM416.079 112.293C415.63 112.293 415.3 111.95 415.3 111.514C415.3 111.066 415.63 110.722 416.079 110.722C416.541 110.722 416.884 111.066 416.884 111.514C416.884 111.95 416.541 112.293 416.079 112.293ZM415.524 120.2V113.547H416.646V120.2H415.524ZM420.694 120.306C419.084 120.306 418.213 119.303 417.922 118.365L418.886 117.943C419.137 118.722 419.665 119.355 420.694 119.355C421.513 119.355 422.041 118.88 422.041 118.339C422.041 116.636 418.213 117.732 418.213 115.21C418.213 114.154 419.124 113.442 420.549 113.442C421.724 113.442 422.74 114.102 423.018 115.078L422.08 115.488C421.896 114.801 421.236 114.366 420.523 114.366C419.77 114.366 419.295 114.669 419.295 115.197C419.295 116.623 423.15 115.58 423.136 118.326C423.136 119.487 422.16 120.306 420.694 120.306ZM428.008 120.147C427.678 120.266 427.322 120.306 426.966 120.306C425.83 120.306 424.999 119.672 424.999 118.207V114.537H423.758V113.547H424.999V111.528H426.121V113.547H427.903V114.537H426.121V118.247C426.121 118.946 426.517 119.289 427.098 119.289C427.362 119.289 427.665 119.25 427.929 119.118L428.008 120.147ZM432.147 120.306C430.167 120.306 428.767 118.867 428.767 116.874C428.767 114.88 430.167 113.442 432.147 113.442C434.113 113.442 435.539 114.88 435.539 116.874C435.539 118.867 434.113 120.306 432.147 120.306ZM432.147 119.303C433.48 119.303 434.377 118.299 434.377 116.874C434.377 115.448 433.48 114.445 432.147 114.445C430.813 114.445 429.916 115.448 429.916 116.874C429.916 118.299 430.813 119.303 432.147 119.303ZM440.869 114.643C440.618 114.537 440.301 114.484 440.011 114.484C438.955 114.484 438.097 115.501 438.097 117.666V120.2H436.975V113.547H438.097V114.894C438.48 114.049 439.351 113.442 440.169 113.442C440.447 113.442 440.711 113.481 440.935 113.56L440.869 114.643ZM446.411 113.547H447.559L444.074 122.603H442.926L443.889 120.108L441.289 113.547H442.503L444.457 118.643L446.411 113.547Z" fill="#1482FF"/>
<g filter="url(#filter3_d_1023_12192)">
<rect x="190.324" y="44.8662" width="334.409" height="101.936" rx="2.93341" fill="#C3E3D2" shape-rendering="crispEdges"/>
<rect x="190.69" y="45.2329" width="333.675" height="101.203" rx="2.56673" stroke="#36A168" stroke-width="0.733352" shape-rendering="crispEdges"/>
<path d="M190.324 47.7996C190.324 46.1795 191.637 44.8662 193.257 44.8662H203.524V146.802H193.257C191.637 146.802 190.324 145.489 190.324 143.869V47.7996Z" fill="#36A168"/>
<path d="M215.997 72.834V64.6204H218.801C221.054 64.6204 223.061 65.9111 223.061 68.7272C223.061 71.5433 221.054 72.834 218.801 72.834H215.997ZM217.816 71.2382H218.602C219.928 71.2382 221.195 70.6281 221.195 68.7272C221.195 66.8264 219.928 66.2045 218.602 66.2045H217.816V71.2382ZM226.936 72.9279C225.105 72.9279 223.815 71.6372 223.815 69.8771C223.815 68.1171 225.105 66.8264 226.936 66.8264C228.743 66.8264 230.057 68.1171 230.057 69.8771C230.057 71.6372 228.743 72.9279 226.936 72.9279ZM226.936 71.4611C227.769 71.4611 228.332 70.8158 228.332 69.8771C228.332 68.9384 227.769 68.2931 226.936 68.2931C226.091 68.2931 225.528 68.9384 225.528 69.8771C225.528 70.8158 226.091 71.4611 226.936 71.4611ZM232.231 72.834L230.389 66.9202H232.114L232.994 70.4286L234.073 66.9202H235.634L236.713 70.4286L237.593 66.9202H239.318L237.476 72.834H235.974L234.859 69.2904L233.733 72.834H232.231ZM240.207 72.834V66.9202H241.932V67.7064C242.284 67.1901 242.93 66.8264 243.739 66.8264C245.042 66.8264 245.91 67.6712 245.91 68.9736V72.834H244.197V69.4312C244.197 68.7859 243.798 68.3517 243.176 68.3517C242.355 68.3517 241.932 69.0206 241.932 70.2409V72.834H240.207ZM249.86 72.8809C248.416 73.1156 247.243 72.5641 247.243 70.9801V64.5266H248.968V70.7337C248.968 71.4259 249.273 71.4259 249.742 71.4259L249.86 72.8809ZM253.634 72.9279C251.804 72.9279 250.513 71.6372 250.513 69.8771C250.513 68.1171 251.804 66.8264 253.634 66.8264C255.441 66.8264 256.756 68.1171 256.756 69.8771C256.756 71.6372 255.441 72.9279 253.634 72.9279ZM253.634 71.4611C254.468 71.4611 255.031 70.8158 255.031 69.8771C255.031 68.9384 254.468 68.2931 253.634 68.2931C252.79 68.2931 252.226 68.9384 252.226 69.8771C252.226 70.8158 252.79 71.4611 253.634 71.4611ZM260.085 66.8264C261.693 66.8264 262.784 67.6595 262.784 69.3256V72.834H261.118V72.083C260.777 72.5993 260.109 72.9279 259.451 72.9279C258.302 72.9279 257.492 72.1534 257.492 71.1678C257.492 69.9944 258.348 69.3608 260.05 69.1848L261.118 69.0792V69.044C261.118 68.4573 260.719 68.1053 260.085 68.1053C259.522 68.1053 259.111 68.4456 259.053 69.0206L257.551 68.7389C257.738 67.5773 258.818 66.8264 260.085 66.8264ZM259.874 71.6958C260.648 71.6958 261.106 71.0739 261.118 70.3817V70.3699V70.3347V70.2878L260.015 70.4169C259.428 70.4755 259.135 70.7689 259.135 71.1091C259.135 71.4377 259.393 71.6958 259.874 71.6958ZM266.609 72.9279C264.873 72.9279 263.828 71.731 263.828 69.8771C263.828 68.0232 264.873 66.8264 266.586 66.8264C267.301 66.8264 267.853 67.0845 268.181 67.4834V64.5266H269.906V72.834H268.181V72.2473C267.876 72.6697 267.278 72.9279 266.609 72.9279ZM266.891 71.4611C267.736 71.4611 268.287 70.8275 268.287 69.8771C268.287 68.9267 267.736 68.2931 266.891 68.2931C266.069 68.2931 265.506 68.9267 265.506 69.8771C265.506 70.8275 266.069 71.4611 266.891 71.4611ZM274.913 66.1341C274.326 66.1341 273.892 65.6765 273.892 65.1015C273.892 64.5383 274.326 64.0807 274.913 64.0807C275.511 64.0807 275.969 64.5383 275.969 65.1015C275.969 65.6765 275.511 66.1341 274.913 66.1341ZM274.056 72.834V66.9202H275.781V72.834H274.056ZM277.116 72.834V66.9202H278.841V67.7064C279.193 67.1901 279.838 66.8264 280.648 66.8264C281.95 66.8264 282.818 67.6712 282.818 68.9736V72.834H281.105V69.4312C281.105 68.7859 280.706 68.3517 280.084 68.3517C279.263 68.3517 278.841 69.0206 278.841 70.2409V72.834H277.116ZM286.959 74.9695V66.9202H288.684V67.5069C289.012 67.0962 289.587 66.8264 290.338 66.8264C291.981 66.8264 293.048 68.0232 293.048 69.8771C293.048 71.731 291.887 72.9279 290.197 72.9279C289.552 72.9279 289 72.7284 288.684 72.3764V74.9695H286.959ZM289.974 71.4611C290.807 71.4611 291.359 70.8275 291.359 69.8771C291.359 68.9267 290.807 68.2931 289.974 68.2931C289.141 68.2931 288.578 68.9267 288.578 69.8771C288.578 70.8275 289.141 71.4611 289.974 71.4611ZM298.075 68.5747C297.876 68.4808 297.594 68.4339 297.324 68.4339C296.55 68.4339 295.811 69.0206 295.811 70.6985V72.834H294.086V66.9202H295.811V67.9411C296.081 67.3074 296.843 66.8264 297.547 66.8264C297.747 66.8264 298.017 66.8616 298.181 66.9202L298.075 68.5747ZM301.623 72.9279C299.793 72.9279 298.502 71.6372 298.502 69.8771C298.502 68.1171 299.793 66.8264 301.623 66.8264C303.43 66.8264 304.744 68.1171 304.744 69.8771C304.744 71.6372 303.43 72.9279 301.623 72.9279ZM301.623 71.4611C302.456 71.4611 303.02 70.8158 303.02 69.8771C303.02 68.9384 302.456 68.2931 301.623 68.2931C300.778 68.2931 300.215 68.9384 300.215 69.8771C300.215 70.8158 300.778 71.4611 301.623 71.4611ZM308.977 71.5433C310.42 71.5433 311.242 72.1652 311.242 73.2329C311.242 74.6058 309.857 75.0634 308.296 75.0634C306.525 75.0634 305.34 74.5471 305.34 73.362C305.34 72.9983 305.551 72.5524 305.891 72.259C305.668 72.0361 305.539 71.7662 305.539 71.4611C305.539 70.8862 305.879 70.4638 306.407 70.2291C306.067 69.8888 305.868 69.4195 305.868 68.868C305.868 67.636 306.853 66.8264 308.285 66.8264C308.684 66.8264 309.036 66.885 309.352 67.0024L310.197 66.0519L311.195 66.9202L310.397 67.812C310.596 68.1053 310.702 68.4691 310.702 68.868C310.702 70.1 309.728 70.8979 308.285 70.8979C308.015 70.8979 307.768 70.8745 307.534 70.8158C307.299 70.9331 307.17 71.0857 307.17 71.2382C307.17 71.4494 307.369 71.5433 307.686 71.5433H308.977ZM308.285 68.1288C307.792 68.1288 307.452 68.4221 307.452 68.868C307.452 69.3022 307.792 69.5955 308.285 69.5955C308.754 69.5955 309.106 69.3022 309.106 68.868C309.106 68.4221 308.754 68.1288 308.285 68.1288ZM308.296 73.7023C309.223 73.7023 309.575 73.5615 309.575 73.2447C309.575 72.9161 309.235 72.8575 308.672 72.8575H307.663C307.487 72.8575 307.323 72.8457 307.158 72.8223C307.041 72.9748 307.006 73.0921 307.006 73.2447C307.006 73.5615 307.299 73.7023 308.296 73.7023ZM316.065 68.5747C315.866 68.4808 315.584 68.4339 315.314 68.4339C314.54 68.4339 313.801 69.0206 313.801 70.6985V72.834H312.076V66.9202H313.801V67.9411C314.071 67.3074 314.833 66.8264 315.537 66.8264C315.737 66.8264 316.007 66.8616 316.171 66.9202L316.065 68.5747ZM322.465 69.7246C322.465 69.9592 322.453 70.2409 322.441 70.3699H318.193C318.358 71.0974 318.851 71.4964 319.578 71.4964C320.165 71.4964 320.599 71.2265 320.728 70.7337L322.347 71.1678C321.995 72.2825 320.939 72.9279 319.531 72.9279C317.489 72.9279 316.492 71.3438 316.492 69.8771C316.492 68.4104 317.384 66.8264 319.426 66.8264C321.561 66.8264 322.465 68.4104 322.465 69.7246ZM318.217 69.1496H320.622C320.564 68.5512 320.188 68.1053 319.426 68.1053C318.804 68.1053 318.381 68.4573 318.217 69.1496ZM325.566 72.9279C324.123 72.9279 323.231 72.0478 322.926 71.1561L324.311 70.6163C324.452 71.1678 324.909 71.6254 325.566 71.6254C326.024 71.6254 326.329 71.4025 326.329 71.0739C326.329 70.147 323.196 70.7689 323.196 68.5277C323.196 67.6008 324.006 66.8264 325.308 66.8264C326.517 66.8264 327.514 67.413 327.784 68.2696L326.4 68.8445C326.247 68.3048 325.766 68.0584 325.367 68.0584C324.98 68.0584 324.71 68.2227 324.71 68.4808C324.71 69.4195 327.89 68.6451 327.89 71.0387C327.89 72.0596 326.951 72.9279 325.566 72.9279ZM330.975 72.9279C329.532 72.9279 328.64 72.0478 328.335 71.1561L329.719 70.6163C329.86 71.1678 330.318 71.6254 330.975 71.6254C331.433 71.6254 331.738 71.4025 331.738 71.0739C331.738 70.147 328.605 70.7689 328.605 68.5277C328.605 67.6008 329.414 66.8264 330.717 66.8264C331.925 66.8264 332.923 67.413 333.193 68.2696L331.808 68.8445C331.655 68.3048 331.174 68.0584 330.775 68.0584C330.388 68.0584 330.118 68.2227 330.118 68.4808C330.118 69.4195 333.298 68.6451 333.298 71.0387C333.298 72.0596 332.359 72.9279 330.975 72.9279ZM216.114 100.834V92.6204H218.555C220.855 92.6204 222.673 94.0871 222.673 96.7272C222.673 99.3673 220.855 100.834 218.555 100.834H216.114ZM217.17 99.8718H218.52C220.104 99.8718 221.571 98.9683 221.571 96.7272C221.571 94.4861 220.104 93.5709 218.52 93.5709H217.17V99.8718ZM226.626 100.928C224.866 100.928 223.622 99.6489 223.622 97.8771C223.622 96.1053 224.866 94.8264 226.626 94.8264C228.374 94.8264 229.642 96.1053 229.642 97.8771C229.642 99.6489 228.374 100.928 226.626 100.928ZM226.626 100.036C227.811 100.036 228.609 99.1443 228.609 97.8771C228.609 96.6099 227.811 95.7181 226.626 95.7181C225.441 95.7181 224.643 96.6099 224.643 97.8771C224.643 99.1443 225.441 100.036 226.626 100.036ZM232.083 100.834L230.276 94.9202H231.297L232.576 99.4377L233.96 94.9202H234.923L236.307 99.4377L237.574 94.9202H238.619L236.8 100.834H235.826L234.441 96.34L233.057 100.834H232.083ZM239.729 100.834V94.9202H240.727V96.0349C241.138 95.3309 241.853 94.8264 242.757 94.8264C243.989 94.8264 244.869 95.6595 244.869 96.915V100.834H243.871V97.1027C243.871 96.3048 243.367 95.7299 242.534 95.7299C241.431 95.7299 240.727 96.6803 240.727 98.2409V100.834H239.729ZM248.332 100.916C247.276 101.022 246.49 100.623 246.49 99.3907V92.5266H247.487V99.3203C247.487 99.9657 247.793 100.06 248.285 100.024L248.332 100.916ZM252.156 100.928C250.396 100.928 249.152 99.6489 249.152 97.8771C249.152 96.1053 250.396 94.8264 252.156 94.8264C253.904 94.8264 255.171 96.1053 255.171 97.8771C255.171 99.6489 253.904 100.928 252.156 100.928ZM252.156 100.036C253.341 100.036 254.139 99.1443 254.139 97.8771C254.139 96.6099 253.341 95.7181 252.156 95.7181C250.971 95.7181 250.173 96.6099 250.173 97.8771C250.173 99.1443 250.971 100.036 252.156 100.036ZM258.596 94.8264C260.028 94.8264 261.025 95.6712 261.025 97.044V100.834H260.04V99.8249C259.699 100.505 258.925 100.928 258.068 100.928C256.883 100.928 256.074 100.2 256.074 99.1795C256.074 98.0414 257 97.4195 258.89 97.2318L260.04 97.1027V96.9854C260.04 96.1757 259.465 95.6595 258.596 95.6595C257.787 95.6595 257.212 96.1405 257.13 96.9384L256.203 96.7624C256.379 95.589 257.353 94.8264 258.596 94.8264ZM258.221 100.106C259.371 100.106 260.04 99.3438 260.04 98.1587V97.8771L258.89 98.0062C257.693 98.1352 257.071 98.5459 257.071 99.1678C257.071 99.7193 257.54 100.106 258.221 100.106ZM265.158 100.928C263.316 100.928 262.306 99.6137 262.306 97.8771C262.306 96.1405 263.316 94.8264 265.146 94.8264C265.932 94.8264 266.707 95.2136 267.082 95.7651V92.5266H268.079V100.834H267.082V99.9774C266.812 100.517 266.026 100.928 265.158 100.928ZM265.252 100.036C266.413 100.036 267.176 99.1795 267.176 97.8771C267.176 96.5747 266.413 95.7181 265.252 95.7181C264.09 95.7181 263.327 96.5747 263.327 97.8771C263.327 99.1795 264.09 100.036 265.252 100.036ZM275.044 97.6072C275.044 97.748 275.033 97.9592 275.021 98.0648H270.351C270.421 99.2617 271.172 100.048 272.24 100.048C273.143 100.048 273.765 99.6254 273.941 98.8862L274.88 99.1091C274.587 100.259 273.601 100.928 272.24 100.928C270.468 100.928 269.354 99.555 269.354 97.8771C269.354 96.1992 270.433 94.8264 272.217 94.8264C273.965 94.8264 275.044 96.0819 275.044 97.6072ZM270.41 97.2318H273.988C273.894 96.3283 273.261 95.6595 272.217 95.6595C271.29 95.6595 270.609 96.2461 270.41 97.2318ZM278.839 100.928C276.997 100.928 275.988 99.6137 275.988 97.8771C275.988 96.1405 276.997 94.8264 278.828 94.8264C279.614 94.8264 280.388 95.2136 280.764 95.7651V92.5266H281.761V100.834H280.764V99.9774C280.494 100.517 279.708 100.928 278.839 100.928ZM278.933 100.036C280.095 100.036 280.858 99.1795 280.858 97.8771C280.858 96.5747 280.095 95.7181 278.933 95.7181C277.772 95.7181 277.009 96.5747 277.009 97.8771C277.009 99.1795 277.772 100.036 278.933 100.036ZM286.792 100.834V95.8003H285.783V94.9202H286.792V94.3688C286.792 93.0663 287.532 92.374 288.541 92.374C288.811 92.374 289.092 92.3975 289.339 92.4679L289.292 93.3597C289.08 93.2775 288.869 93.2423 288.67 93.2423C288.142 93.2423 287.79 93.653 287.79 94.2866V94.9202H289.303V95.8003H287.79V100.834H286.792ZM290.995 93.8055C290.597 93.8055 290.303 93.5005 290.303 93.1133C290.303 92.7143 290.597 92.4092 290.995 92.4092C291.406 92.4092 291.711 92.7143 291.711 93.1133C291.711 93.5005 291.406 93.8055 290.995 93.8055ZM290.503 100.834V94.9202H291.5V100.834H290.503ZM294.957 100.916C293.901 101.022 293.115 100.623 293.115 99.3907V92.5266H294.113V99.3203C294.113 99.9657 294.418 100.06 294.91 100.024L294.957 100.916ZM301.468 97.6072C301.468 97.748 301.456 97.9592 301.444 98.0648H296.774C296.845 99.2617 297.596 100.048 298.664 100.048C299.567 100.048 300.189 99.6254 300.365 98.8862L301.304 99.1091C301.01 100.259 300.025 100.928 298.664 100.928C296.892 100.928 295.777 99.555 295.777 97.8771C295.777 96.1992 296.857 94.8264 298.64 94.8264C300.388 94.8264 301.468 96.0819 301.468 97.6072ZM296.833 97.2318H300.412C300.318 96.3283 299.684 95.6595 298.64 95.6595C297.713 95.6595 297.033 96.2461 296.833 97.2318ZM306.896 100.834L305.089 94.9202H306.11L307.389 99.4377L308.774 94.9202H309.736L311.121 99.4377L312.388 94.9202H313.432L311.613 100.834H310.639L309.255 96.34L307.87 100.834H306.896ZM315.036 93.8055C314.637 93.8055 314.343 93.5005 314.343 93.1133C314.343 92.7143 314.637 92.4092 315.036 92.4092C315.446 92.4092 315.751 92.7143 315.751 93.1133C315.751 93.5005 315.446 93.8055 315.036 93.8055ZM314.543 100.834V94.9202H315.54V100.834H314.543ZM318.998 100.916C317.942 101.022 317.155 100.623 317.155 99.3907V92.5266H318.153V99.3203C318.153 99.9657 318.458 100.06 318.951 100.024L318.998 100.916ZM322 100.916C320.944 101.022 320.158 100.623 320.158 99.3907V92.5266H321.155V99.3203C321.155 99.9657 321.46 100.06 321.953 100.024L322 100.916ZM326.483 93.8055C326.084 93.8055 325.791 93.5005 325.791 93.1133C325.791 92.7143 326.084 92.4092 326.483 92.4092C326.894 92.4092 327.199 92.7143 327.199 93.1133C327.199 93.5005 326.894 93.8055 326.483 93.8055ZM325.99 100.834V94.9202H326.987V100.834H325.99ZM328.603 100.834V94.9202H329.6V96.0349C330.011 95.3309 330.726 94.8264 331.63 94.8264C332.862 94.8264 333.742 95.6595 333.742 96.915V100.834H332.745V97.1027C332.745 96.3048 332.24 95.7299 331.407 95.7299C330.304 95.7299 329.6 96.6803 329.6 98.2409V100.834H328.603ZM337.956 100.928C336.196 100.928 335.023 99.7076 335.023 97.8771C335.023 96.0467 336.196 94.8264 337.956 94.8264C339.329 94.8264 340.338 95.5773 340.549 96.7507L339.564 96.9502C339.435 96.2344 338.813 95.7181 337.98 95.7181C336.818 95.7181 336.067 96.5747 336.067 97.8771C336.067 99.1795 336.818 100.036 337.98 100.036C338.813 100.036 339.423 99.5785 339.587 98.7923L340.561 98.9918C340.303 100.212 339.317 100.928 337.956 100.928ZM343.645 100.916C342.589 101.022 341.803 100.623 341.803 99.3907V92.5266H342.8V99.3203C342.8 99.9657 343.105 100.06 343.598 100.024L343.645 100.916ZM349.944 94.9202V100.834H348.947V99.7193C348.536 100.423 347.821 100.928 346.917 100.928C345.685 100.928 344.805 100.095 344.805 98.8393V94.9202H345.802V98.6515C345.802 99.4494 346.307 100.024 347.14 100.024C348.243 100.024 348.947 99.0739 348.947 97.5134V94.9202H349.944ZM354.077 100.928C352.235 100.928 351.225 99.6137 351.225 97.8771C351.225 96.1405 352.235 94.8264 354.065 94.8264C354.851 94.8264 355.626 95.2136 356.001 95.7651V92.5266H356.998V100.834H356.001V99.9774C355.731 100.517 354.945 100.928 354.077 100.928ZM354.171 100.036C355.332 100.036 356.095 99.1795 356.095 97.8771C356.095 96.5747 355.332 95.7181 354.171 95.7181C353.009 95.7181 352.246 96.5747 352.246 97.8771C352.246 99.1795 353.009 100.036 354.171 100.036ZM363.963 97.6072C363.963 97.748 363.952 97.9592 363.94 98.0648H359.27C359.34 99.2617 360.091 100.048 361.159 100.048C362.062 100.048 362.684 99.6254 362.86 98.8862L363.799 99.1091C363.506 100.259 362.52 100.928 361.159 100.928C359.387 100.928 358.272 99.555 358.272 97.8771C358.272 96.1992 359.352 94.8264 361.135 94.8264C362.884 94.8264 363.963 96.0819 363.963 97.6072ZM359.329 97.2318H362.907C362.813 96.3283 362.18 95.6595 361.135 95.6595C360.209 95.6595 359.528 96.2461 359.329 97.2318ZM370.284 94.8264C371.715 94.8264 372.712 95.6712 372.712 97.044V100.834H371.727V99.8249C371.386 100.505 370.612 100.928 369.755 100.928C368.57 100.928 367.761 100.2 367.761 99.1795C367.761 98.0414 368.688 97.4195 370.577 97.2318L371.727 97.1027V96.9854C371.727 96.1757 371.152 95.6595 370.284 95.6595C369.474 95.6595 368.899 96.1405 368.817 96.9384L367.89 96.7624C368.066 95.589 369.04 94.8264 370.284 94.8264ZM369.908 100.106C371.058 100.106 371.727 99.3438 371.727 98.1587V97.8771L370.577 98.0062C369.38 98.1352 368.758 98.5459 368.758 99.1678C368.758 99.7193 369.227 100.106 369.908 100.106ZM376.176 100.916C375.12 101.022 374.334 100.623 374.334 99.3907V92.5266H375.331V99.3203C375.331 99.9657 375.636 100.06 376.129 100.024L376.176 100.916ZM379.178 100.916C378.122 101.022 377.336 100.623 377.336 99.3907V92.5266H378.334V99.3203C378.334 99.9657 378.639 100.06 379.131 100.024L379.178 100.916ZM386.63 95.8941C386.407 95.8003 386.125 95.7533 385.867 95.7533C384.929 95.7533 384.166 96.6568 384.166 98.5811V100.834H383.169V94.9202H384.166V96.1171C384.506 95.3661 385.281 94.8264 386.008 94.8264C386.255 94.8264 386.489 94.8616 386.689 94.932L386.63 95.8941ZM390.049 100.928C388.289 100.928 387.045 99.6489 387.045 97.8771C387.045 96.1053 388.289 94.8264 390.049 94.8264C391.797 94.8264 393.064 96.1053 393.064 97.8771C393.064 99.6489 391.797 100.928 390.049 100.928ZM390.049 100.036C391.234 100.036 392.032 99.1443 392.032 97.8771C392.032 96.6099 391.234 95.7181 390.049 95.7181C388.864 95.7181 388.066 96.6099 388.066 97.8771C388.066 99.1443 388.864 100.036 390.049 100.036ZM395.506 100.834L393.699 94.9202H394.72L395.999 99.4377L397.383 94.9202H398.345L399.73 99.4377L400.997 94.9202H402.042L400.223 100.834H399.249L397.864 96.34L396.48 100.834H395.506ZM405.055 100.928C403.624 100.928 402.849 100.036 402.591 99.203L403.448 98.8275C403.671 99.5198 404.14 100.083 405.055 100.083C405.783 100.083 406.252 99.6606 406.252 99.1795C406.252 97.6659 402.849 98.6398 402.849 96.3987C402.849 95.46 403.659 94.8264 404.926 94.8264C405.97 94.8264 406.874 95.413 407.12 96.2813L406.287 96.6451C406.123 96.0349 405.536 95.6477 404.903 95.6477C404.234 95.6477 403.811 95.9176 403.811 96.3869C403.811 97.6542 407.238 96.7272 407.226 99.1678C407.226 100.2 406.358 100.928 405.055 100.928ZM413.528 94.8264C414.96 94.8264 415.957 95.6712 415.957 97.044V100.834H414.972V99.8249C414.631 100.505 413.857 100.928 413 100.928C411.815 100.928 411.006 100.2 411.006 99.1795C411.006 98.0414 411.933 97.4195 413.822 97.2318L414.972 97.1027V96.9854C414.972 96.1757 414.397 95.6595 413.528 95.6595C412.719 95.6595 412.144 96.1405 412.062 96.9384L411.135 96.7624C411.311 95.589 412.285 94.8264 413.528 94.8264ZM413.153 100.106C414.303 100.106 414.972 99.3438 414.972 98.1587V97.8771L413.822 98.0062C412.625 98.1352 412.003 98.5459 412.003 99.1678C412.003 99.7193 412.472 100.106 413.153 100.106ZM417.579 100.834V94.9202H418.576V96.0349C418.987 95.3309 419.703 94.8264 420.606 94.8264C421.838 94.8264 422.718 95.6595 422.718 96.915V100.834H421.721V97.1027C421.721 96.3048 421.216 95.7299 420.383 95.7299C419.28 95.7299 418.576 96.6803 418.576 98.2409V100.834H417.579ZM426.85 100.928C425.008 100.928 423.999 99.6137 423.999 97.8771C423.999 96.1405 425.008 94.8264 426.839 94.8264C427.625 94.8264 428.399 95.2136 428.775 95.7651V92.5266H429.772V100.834H428.775V99.9774C428.505 100.517 427.719 100.928 426.85 100.928ZM426.944 100.036C428.106 100.036 428.869 99.1795 428.869 97.8771C428.869 96.5747 428.106 95.7181 426.944 95.7181C425.783 95.7181 425.02 96.5747 425.02 97.8771C425.02 99.1795 425.783 100.036 426.944 100.036ZM436.81 100.928C435.05 100.928 433.876 99.7076 433.876 97.8771C433.876 96.0467 435.05 94.8264 436.81 94.8264C438.183 94.8264 439.192 95.5773 439.403 96.7507L438.417 96.9502C438.288 96.2344 437.666 95.7181 436.833 95.7181C435.672 95.7181 434.921 96.5747 434.921 97.8771C434.921 99.1795 435.672 100.036 436.833 100.036C437.666 100.036 438.277 99.5785 438.441 98.7923L439.415 98.9918C439.157 100.212 438.171 100.928 436.81 100.928ZM443.32 100.928C441.56 100.928 440.316 99.6489 440.316 97.8771C440.316 96.1053 441.56 94.8264 443.32 94.8264C445.068 94.8264 446.336 96.1053 446.336 97.8771C446.336 99.6489 445.068 100.928 443.32 100.928ZM443.32 100.036C444.505 100.036 445.303 99.1443 445.303 97.8771C445.303 96.6099 444.505 95.7181 443.32 95.7181C442.135 95.7181 441.337 96.6099 441.337 97.8771C441.337 99.1443 442.135 100.036 443.32 100.036ZM449.454 100.916C448.398 101.022 447.612 100.623 447.612 99.3907V92.5266H448.609V99.3203C448.609 99.9657 448.914 100.06 449.407 100.024L449.454 100.916ZM455.753 94.9202V100.834H454.756V99.7193C454.345 100.423 453.63 100.928 452.726 100.928C451.494 100.928 450.614 100.095 450.614 98.8393V94.9202H451.611V98.6515C451.611 99.4494 452.116 100.024 452.949 100.024C454.052 100.024 454.756 99.0739 454.756 97.5134V94.9202H455.753ZM457.375 100.834V94.9202H458.372V96.0349C458.665 95.3309 459.252 94.8264 460.156 94.8264C461.118 94.8264 461.869 95.2722 462.08 96.0701C462.397 95.3661 463.101 94.8264 463.992 94.8264C465.26 94.8264 466.058 95.6243 466.058 96.868V100.834H465.06V97.0675C465.06 96.2579 464.603 95.7064 463.769 95.7064C462.76 95.7064 462.209 96.6099 462.209 97.8654V100.834H461.212V97.0675C461.212 96.2579 460.754 95.7064 459.933 95.7064C458.923 95.7064 458.372 96.6099 458.372 97.8654V100.834H457.375ZM467.676 100.834V94.9202H468.673V96.0349C469.084 95.3309 469.8 94.8264 470.703 94.8264C471.935 94.8264 472.815 95.6595 472.815 96.915V100.834H471.818V97.1027C471.818 96.3048 471.313 95.7299 470.48 95.7299C469.377 95.7299 468.673 96.6803 468.673 98.2409V100.834H467.676ZM476.42 100.928C474.988 100.928 474.214 100.036 473.955 99.203L474.812 98.8275C475.035 99.5198 475.504 100.083 476.42 100.083C477.147 100.083 477.616 99.6606 477.616 99.1795C477.616 97.6659 474.214 98.6398 474.214 96.3987C474.214 95.46 475.023 94.8264 476.29 94.8264C477.335 94.8264 478.238 95.413 478.485 96.2813L477.652 96.6451C477.487 96.0349 476.901 95.6477 476.267 95.6477C475.598 95.6477 475.176 95.9176 475.176 96.3869C475.176 97.6542 478.602 96.7272 478.59 99.1678C478.59 100.2 477.722 100.928 476.42 100.928ZM217.382 114.834L215.575 108.92H216.595L217.874 113.438L219.259 108.92H220.221L221.606 113.438L222.873 108.92H223.917L222.099 114.834H221.125L219.74 110.34L218.355 114.834H217.382ZM225.521 107.806C225.122 107.806 224.829 107.5 224.829 107.113C224.829 106.714 225.122 106.409 225.521 106.409C225.932 106.409 226.237 106.714 226.237 107.113C226.237 107.5 225.932 107.806 225.521 107.806ZM225.028 114.834V108.92H226.025V114.834H225.028ZM230.785 114.787C230.492 114.893 230.175 114.928 229.858 114.928C228.849 114.928 228.11 114.365 228.11 113.062V109.8H227.007V108.92H228.11V107.125H229.107V108.92H230.691V109.8H229.107V113.097C229.107 113.719 229.459 114.024 229.976 114.024C230.21 114.024 230.48 113.989 230.715 113.872L230.785 114.787ZM232.052 114.834V106.527H233.05V110.082C233.484 109.237 234.199 108.826 235.068 108.826C236.405 108.826 237.285 109.659 237.285 110.938V114.834H236.288V111.126C236.288 110.258 235.748 109.73 234.845 109.73C233.754 109.73 233.05 110.715 233.05 112.3V114.834H232.052ZM239.397 107.806C238.998 107.806 238.705 107.5 238.705 107.113C238.705 106.714 238.998 106.409 239.397 106.409C239.808 106.409 240.113 106.714 240.113 107.113C240.113 107.5 239.808 107.806 239.397 107.806ZM238.904 114.834V108.92H239.902V114.834H238.904ZM241.517 114.834V108.92H242.514V110.035C242.925 109.331 243.641 108.826 244.544 108.826C245.776 108.826 246.656 109.659 246.656 110.915V114.834H245.659V111.103C245.659 110.305 245.154 109.73 244.321 109.73C243.218 109.73 242.514 110.68 242.514 112.241V114.834H241.517ZM254.253 114.787C253.959 114.893 253.642 114.928 253.326 114.928C252.316 114.928 251.577 114.365 251.577 113.062V109.8H250.474V108.92H251.577V107.125H252.575V108.92H254.159V109.8H252.575V113.097C252.575 113.719 252.927 114.024 253.443 114.024C253.678 114.024 253.947 113.989 254.182 113.872L254.253 114.787ZM255.519 114.834V106.527H256.517V110.082C256.951 109.237 257.667 108.826 258.535 108.826C259.873 108.826 260.753 109.659 260.753 110.938V114.834H259.755V111.126C259.755 110.258 259.216 109.73 258.312 109.73C257.221 109.73 256.517 110.715 256.517 112.3V114.834H255.519ZM267.722 111.607C267.722 111.748 267.711 111.959 267.699 112.065H263.029C263.099 113.262 263.85 114.048 264.918 114.048C265.821 114.048 266.443 113.625 266.619 112.886L267.558 113.109C267.265 114.259 266.279 114.928 264.918 114.928C263.146 114.928 262.031 113.555 262.031 111.877C262.031 110.199 263.111 108.826 264.894 108.826C266.643 108.826 267.722 110.082 267.722 111.607ZM263.087 111.232H266.666C266.572 110.328 265.939 109.659 264.894 109.659C263.968 109.659 263.287 110.246 263.087 111.232ZM273.82 114.928C272.388 114.928 271.614 114.036 271.355 113.203L272.212 112.828C272.435 113.52 272.904 114.083 273.82 114.083C274.547 114.083 275.016 113.661 275.016 113.18C275.016 111.666 271.614 112.64 271.614 110.399C271.614 109.46 272.423 108.826 273.69 108.826C274.735 108.826 275.638 109.413 275.885 110.281L275.052 110.645C274.887 110.035 274.301 109.648 273.667 109.648C272.998 109.648 272.576 109.918 272.576 110.387C272.576 111.654 276.002 110.727 275.99 113.168C275.99 114.2 275.122 114.928 273.82 114.928ZM282.561 111.607C282.561 111.748 282.549 111.959 282.538 112.065H277.868C277.938 113.262 278.689 114.048 279.757 114.048C280.66 114.048 281.282 113.625 281.458 112.886L282.397 113.109C282.104 114.259 281.118 114.928 279.757 114.928C277.985 114.928 276.87 113.555 276.87 111.877C276.87 110.199 277.95 108.826 279.733 108.826C281.482 108.826 282.561 110.082 282.561 111.607ZM277.926 111.232H281.505C281.411 110.328 280.778 109.659 279.733 109.659C278.806 109.659 278.126 110.246 277.926 111.232ZM285.687 114.916C284.631 115.022 283.845 114.623 283.845 113.391V106.527H284.843V113.32C284.843 113.966 285.148 114.06 285.64 114.024L285.687 114.916ZM292.198 111.607C292.198 111.748 292.186 111.959 292.174 112.065H287.504C287.575 113.262 288.326 114.048 289.394 114.048C290.297 114.048 290.919 113.625 291.095 112.886L292.034 113.109C291.74 114.259 290.755 114.928 289.394 114.928C287.622 114.928 286.507 113.555 286.507 111.877C286.507 110.199 287.587 108.826 289.37 108.826C291.118 108.826 292.198 110.082 292.198 111.607ZM287.563 111.232H291.142C291.048 110.328 290.414 109.659 289.37 109.659C288.443 109.659 287.763 110.246 287.563 111.232ZM296.075 114.928C294.315 114.928 293.142 113.708 293.142 111.877C293.142 110.047 294.315 108.826 296.075 108.826C297.448 108.826 298.457 109.577 298.668 110.751L297.683 110.95C297.553 110.234 296.932 109.718 296.099 109.718C294.937 109.718 294.186 110.575 294.186 111.877C294.186 113.18 294.937 114.036 296.099 114.036C296.932 114.036 297.542 113.578 297.706 112.792L298.68 112.992C298.422 114.212 297.436 114.928 296.075 114.928ZM302.986 114.787C302.693 114.893 302.376 114.928 302.059 114.928C301.05 114.928 300.311 114.365 300.311 113.062V109.8H299.208V108.92H300.311V107.125H301.308V108.92H302.892V109.8H301.308V113.097C301.308 113.719 301.66 114.024 302.176 114.024C302.411 114.024 302.681 113.989 302.916 113.872L302.986 114.787ZM309.351 111.607C309.351 111.748 309.34 111.959 309.328 112.065H304.658C304.728 113.262 305.479 114.048 306.547 114.048C307.451 114.048 308.073 113.625 308.249 112.886L309.187 113.109C308.894 114.259 307.908 114.928 306.547 114.928C304.775 114.928 303.661 113.555 303.661 111.877C303.661 110.199 304.74 108.826 306.524 108.826C308.272 108.826 309.351 110.082 309.351 111.607ZM304.717 111.232H308.295C308.202 110.328 307.568 109.659 306.524 109.659C305.597 109.659 304.916 110.246 304.717 111.232ZM313.146 114.928C311.304 114.928 310.295 113.614 310.295 111.877C310.295 110.141 311.304 108.826 313.135 108.826C313.921 108.826 314.695 109.214 315.071 109.765V106.527H316.068V114.834H315.071V113.977C314.801 114.517 314.015 114.928 313.146 114.928ZM313.24 114.036C314.402 114.036 315.165 113.18 315.165 111.877C315.165 110.575 314.402 109.718 313.24 109.718C312.079 109.718 311.316 110.575 311.316 111.877C311.316 113.18 312.079 114.036 313.24 114.036ZM323.024 114.928C321.182 114.928 320.173 113.614 320.173 111.877C320.173 110.141 321.182 108.826 323.012 108.826C323.798 108.826 324.573 109.214 324.948 109.765V106.527H325.945V114.834H324.948V113.977C324.678 114.517 323.892 114.928 323.024 114.928ZM323.118 114.036C324.279 114.036 325.042 113.18 325.042 111.877C325.042 110.575 324.279 109.718 323.118 109.718C321.956 109.718 321.193 110.575 321.193 111.877C321.193 113.18 321.956 114.036 323.118 114.036ZM329.766 108.826C331.197 108.826 332.195 109.671 332.195 111.044V114.834H331.209V113.825C330.869 114.505 330.094 114.928 329.238 114.928C328.053 114.928 327.243 114.2 327.243 113.18C327.243 112.041 328.17 111.419 330.059 111.232L331.209 111.103V110.985C331.209 110.176 330.634 109.659 329.766 109.659C328.956 109.659 328.381 110.141 328.299 110.938L327.372 110.762C327.548 109.589 328.522 108.826 329.766 108.826ZM329.39 114.106C330.54 114.106 331.209 113.344 331.209 112.159V111.877L330.059 112.006C328.862 112.135 328.24 112.546 328.24 113.168C328.24 113.719 328.71 114.106 329.39 114.106ZM336.927 114.787C336.633 114.893 336.316 114.928 336 114.928C334.99 114.928 334.251 114.365 334.251 113.062V109.8H333.148V108.92H334.251V107.125H335.249V108.92H336.833V109.8H335.249V113.097C335.249 113.719 335.601 114.024 336.117 114.024C336.352 114.024 336.621 113.989 336.856 113.872L336.927 114.787ZM343.292 111.607C343.292 111.748 343.28 111.959 343.268 112.065H338.598C338.669 113.262 339.42 114.048 340.488 114.048C341.391 114.048 342.013 113.625 342.189 112.886L343.128 113.109C342.834 114.259 341.849 114.928 340.488 114.928C338.716 114.928 337.601 113.555 337.601 111.877C337.601 110.199 338.681 108.826 340.464 108.826C342.212 108.826 343.292 110.082 343.292 111.607ZM338.657 111.232H342.236C342.142 110.328 341.508 109.659 340.464 109.659C339.537 109.659 338.857 110.246 338.657 111.232ZM349.612 108.826C351.044 108.826 352.041 109.671 352.041 111.044V114.834H351.055V113.825C350.715 114.505 349.941 114.928 349.084 114.928C347.899 114.928 347.089 114.2 347.089 113.18C347.089 112.041 348.016 111.419 349.905 111.232L351.055 111.103V110.985C351.055 110.176 350.48 109.659 349.612 109.659C348.803 109.659 348.228 110.141 348.145 110.938L347.218 110.762C347.394 109.589 348.368 108.826 349.612 108.826ZM349.237 114.106C350.387 114.106 351.055 113.344 351.055 112.159V111.877L349.905 112.006C348.709 112.135 348.087 112.546 348.087 113.168C348.087 113.719 348.556 114.106 349.237 114.106ZM353.663 114.834V108.92H354.66V110.035C355.071 109.331 355.786 108.826 356.69 108.826C357.922 108.826 358.802 109.659 358.802 110.915V114.834H357.805V111.103C357.805 110.305 357.3 109.73 356.467 109.73C355.364 109.73 354.66 110.68 354.66 112.241V114.834H353.663ZM362.934 114.928C361.092 114.928 360.083 113.614 360.083 111.877C360.083 110.141 361.092 108.826 362.922 108.826C363.709 108.826 364.483 109.214 364.859 109.765V106.527H365.856V114.834H364.859V113.977C364.589 114.517 363.803 114.928 362.934 114.928ZM363.028 114.036C364.19 114.036 364.952 113.18 364.952 111.877C364.952 110.575 364.19 109.718 363.028 109.718C361.866 109.718 361.104 110.575 361.104 111.877C361.104 113.18 361.866 114.036 363.028 114.036ZM373.445 114.787C373.152 114.893 372.835 114.928 372.518 114.928C371.509 114.928 370.77 114.365 370.77 113.062V109.8H369.667V108.92H370.77V107.125H371.767V108.92H373.351V109.8H371.767V113.097C371.767 113.719 372.119 114.024 372.636 114.024C372.87 114.024 373.14 113.989 373.375 113.872L373.445 114.787ZM375.102 107.806C374.703 107.806 374.41 107.5 374.41 107.113C374.41 106.714 374.703 106.409 375.102 106.409C375.512 106.409 375.818 106.714 375.818 107.113C375.818 107.5 375.512 107.806 375.102 107.806ZM374.609 114.834V108.92H375.606V114.834H374.609ZM377.222 114.834V108.92H378.219V110.035C378.512 109.331 379.099 108.826 380.002 108.826C380.965 108.826 381.716 109.272 381.927 110.07C382.244 109.366 382.948 108.826 383.839 108.826C385.107 108.826 385.904 109.624 385.904 110.868V114.834H384.907V111.067C384.907 110.258 384.449 109.706 383.616 109.706C382.607 109.706 382.056 110.61 382.056 111.865V114.834H381.058V111.067C381.058 110.258 380.601 109.706 379.779 109.706C378.77 109.706 378.219 110.61 378.219 111.865V114.834H377.222ZM392.873 111.607C392.873 111.748 392.862 111.959 392.85 112.065H388.18C388.25 113.262 389.001 114.048 390.069 114.048C390.973 114.048 391.594 113.625 391.77 112.886L392.709 113.109C392.416 114.259 391.43 114.928 390.069 114.928C388.297 114.928 387.183 113.555 387.183 111.877C387.183 110.199 388.262 108.826 390.046 108.826C391.794 108.826 392.873 110.082 392.873 111.607ZM388.239 111.232H391.817C391.724 110.328 391.09 109.659 390.046 109.659C389.119 109.659 388.438 110.246 388.239 111.232ZM400.449 109.894C400.226 109.8 399.945 109.753 399.686 109.753C398.748 109.753 397.985 110.657 397.985 112.581V114.834H396.988V108.92H397.985V110.117C398.325 109.366 399.1 108.826 399.827 108.826C400.074 108.826 400.308 108.862 400.508 108.932L400.449 109.894ZM403.479 108.826C404.911 108.826 405.908 109.671 405.908 111.044V114.834H404.922V113.825C404.582 114.505 403.808 114.928 402.951 114.928C401.766 114.928 400.956 114.2 400.956 113.18C400.956 112.041 401.883 111.419 403.772 111.232L404.922 111.103V110.985C404.922 110.176 404.347 109.659 403.479 109.659C402.67 109.659 402.095 110.141 402.012 110.938L401.085 110.762C401.261 109.589 402.235 108.826 403.479 108.826ZM403.104 114.106C404.254 114.106 404.922 113.344 404.922 112.159V111.877L403.772 112.006C402.576 112.135 401.954 112.546 401.954 113.168C401.954 113.719 402.423 114.106 403.104 114.106ZM407.53 114.834V108.92H408.527V110.035C408.938 109.331 409.653 108.826 410.557 108.826C411.789 108.826 412.669 109.659 412.669 110.915V114.834H411.672V111.103C411.672 110.305 411.167 109.73 410.334 109.73C409.231 109.73 408.527 110.68 408.527 112.241V114.834H407.53ZM417.329 113.684C418.514 113.684 419.336 114.177 419.336 115.268C419.336 116.453 418.233 117.063 416.613 117.063C414.936 117.063 413.891 116.465 413.891 115.374C413.891 114.857 414.173 114.435 414.525 114.165C414.232 113.966 414.056 113.672 414.056 113.25C414.056 112.734 414.396 112.346 414.853 112.135C414.537 111.795 414.361 111.349 414.361 110.821C414.361 109.624 415.323 108.826 416.602 108.826C416.989 108.826 417.353 108.908 417.681 109.061L418.608 108.263L419.183 108.92L418.397 109.589C418.679 109.918 418.843 110.34 418.843 110.821C418.843 112.041 417.892 112.816 416.602 112.816C416.179 112.816 415.816 112.734 415.499 112.593C415.159 112.745 415.018 112.945 415.018 113.191C415.018 113.555 415.358 113.684 415.745 113.684H417.329ZM416.602 109.636C415.921 109.636 415.335 110.082 415.335 110.821C415.335 111.572 415.921 112.006 416.602 112.006C417.282 112.006 417.869 111.572 417.869 110.821C417.869 110.082 417.282 109.636 416.602 109.636ZM416.613 116.219C417.74 116.219 418.362 115.902 418.362 115.339C418.362 114.705 417.892 114.494 417.188 114.494H415.933C415.722 114.494 415.522 114.482 415.335 114.459C414.971 114.705 414.865 115.022 414.865 115.362C414.865 115.902 415.464 116.219 416.613 116.219ZM425.805 111.607C425.805 111.748 425.794 111.959 425.782 112.065H421.112C421.182 113.262 421.933 114.048 423.001 114.048C423.905 114.048 424.527 113.625 424.703 112.886L425.641 113.109C425.348 114.259 424.362 114.928 423.001 114.928C421.229 114.928 420.115 113.555 420.115 111.877C420.115 110.199 421.194 108.826 422.978 108.826C424.726 108.826 425.805 110.082 425.805 111.607ZM421.171 111.232H424.749C424.656 110.328 424.022 109.659 422.978 109.659C422.051 109.659 421.37 110.246 421.171 111.232ZM426.253 116.078L426.934 113.614H428.271L426.957 116.078H426.253ZM434.42 114.916C433.364 115.022 432.578 114.623 432.578 113.391V106.527H433.576V113.32C433.576 113.966 433.881 114.06 434.373 114.024L434.42 114.916ZM436.073 107.806C435.674 107.806 435.381 107.5 435.381 107.113C435.381 106.714 435.674 106.409 436.073 106.409C436.484 106.409 436.789 106.714 436.789 107.113C436.789 107.5 436.484 107.806 436.073 107.806ZM435.58 114.834V108.92H436.578V114.834H435.58ZM438.193 114.834V108.92H439.19V110.035C439.484 109.331 440.07 108.826 440.974 108.826C441.936 108.826 442.687 109.272 442.898 110.07C443.215 109.366 443.919 108.826 444.811 108.826C446.078 108.826 446.876 109.624 446.876 110.868V114.834H445.878V111.067C445.878 110.258 445.421 109.706 444.588 109.706C443.579 109.706 443.027 110.61 443.027 111.865V114.834H442.03V111.067C442.03 110.258 441.572 109.706 440.751 109.706C439.742 109.706 439.19 110.61 439.19 111.865V114.834H438.193ZM448.987 107.806C448.588 107.806 448.295 107.5 448.295 107.113C448.295 106.714 448.588 106.409 448.987 106.409C449.398 106.409 449.703 106.714 449.703 107.113C449.703 107.5 449.398 107.806 448.987 107.806ZM448.494 114.834V108.92H449.492V114.834H448.494ZM454.251 114.787C453.958 114.893 453.641 114.928 453.324 114.928C452.315 114.928 451.576 114.365 451.576 113.062V109.8H450.473V108.92H451.576V107.125H452.573V108.92H454.158V109.8H452.573V113.097C452.573 113.719 452.925 114.024 453.442 114.024C453.676 114.024 453.946 113.989 454.181 113.872L454.251 114.787ZM460.617 111.607C460.617 111.748 460.605 111.959 460.593 112.065H455.923C455.994 113.262 456.745 114.048 457.812 114.048C458.716 114.048 459.338 113.625 459.514 112.886L460.453 113.109C460.159 114.259 459.174 114.928 457.812 114.928C456.041 114.928 454.926 113.555 454.926 111.877C454.926 110.199 456.005 108.826 457.789 108.826C459.537 108.826 460.617 110.082 460.617 111.607ZM455.982 111.232H459.561C459.467 110.328 458.833 109.659 457.789 109.659C456.862 109.659 456.181 110.246 455.982 111.232ZM464.412 114.928C462.57 114.928 461.561 113.614 461.561 111.877C461.561 110.141 462.57 108.826 464.4 108.826C465.186 108.826 465.961 109.214 466.336 109.765V106.527H467.333V114.834H466.336V113.977C466.066 114.517 465.28 114.928 464.412 114.928ZM464.506 114.036C465.667 114.036 466.43 113.18 466.43 111.877C466.43 110.575 465.667 109.718 464.506 109.718C463.344 109.718 462.581 110.575 462.581 111.877C462.581 113.18 463.344 114.036 464.506 114.036ZM474.923 114.787C474.629 114.893 474.313 114.928 473.996 114.928C472.987 114.928 472.248 114.365 472.248 113.062V109.8H471.145V108.92H472.248V107.125H473.245V108.92H474.829V109.8H473.245V113.097C473.245 113.719 473.597 114.024 474.113 114.024C474.348 114.024 474.618 113.989 474.852 113.872L474.923 114.787ZM478.601 114.928C476.841 114.928 475.597 113.649 475.597 111.877C475.597 110.105 476.841 108.826 478.601 108.826C480.349 108.826 481.617 110.105 481.617 111.877C481.617 113.649 480.349 114.928 478.601 114.928ZM478.601 114.036C479.786 114.036 480.584 113.144 480.584 111.877C480.584 110.61 479.786 109.718 478.601 109.718C477.416 109.718 476.618 110.61 476.618 111.877C476.618 113.144 477.416 114.036 478.601 114.036ZM219.212 128.787C218.919 128.893 218.602 128.928 218.285 128.928C217.276 128.928 216.537 128.365 216.537 127.062V123.8H215.434V122.92H216.537V121.125H217.534V122.92H219.118V123.8H217.534V127.097C217.534 127.719 217.886 128.024 218.402 128.024C218.637 128.024 218.907 127.989 219.142 127.872L219.212 128.787ZM220.479 128.834V120.527H221.476V124.082C221.911 123.237 222.626 122.826 223.495 122.826C224.832 122.826 225.712 123.659 225.712 124.938V128.834H224.715V125.126C224.715 124.258 224.175 123.73 223.272 123.73C222.18 123.73 221.476 124.715 221.476 126.3V128.834H220.479ZM232.682 125.607C232.682 125.748 232.67 125.959 232.658 126.065H227.988C228.059 127.262 228.81 128.048 229.877 128.048C230.781 128.048 231.403 127.625 231.579 126.886L232.518 127.109C232.224 128.259 231.239 128.928 229.877 128.928C228.106 128.928 226.991 127.555 226.991 125.877C226.991 124.199 228.07 122.826 229.854 122.826C231.602 122.826 232.682 124.082 232.682 125.607ZM228.047 125.232H231.626C231.532 124.328 230.898 123.659 229.854 123.659C228.927 123.659 228.246 124.246 228.047 125.232ZM239.002 122.826C240.434 122.826 241.431 123.671 241.431 125.044V128.834H240.445V127.825C240.105 128.505 239.331 128.928 238.474 128.928C237.289 128.928 236.479 128.2 236.479 127.18C236.479 126.041 237.406 125.419 239.295 125.232L240.445 125.103V124.985C240.445 124.176 239.87 123.659 239.002 123.659C238.192 123.659 237.617 124.141 237.535 124.938L236.608 124.762C236.784 123.589 237.758 122.826 239.002 122.826ZM238.627 128.106C239.776 128.106 240.445 127.344 240.445 126.159V125.877L239.295 126.006C238.099 126.135 237.477 126.546 237.477 127.168C237.477 127.719 237.946 128.106 238.627 128.106ZM243.052 130.97V122.92H244.05V123.777C244.367 123.237 245.141 122.826 245.998 122.826C247.816 122.826 248.825 124.141 248.825 125.877C248.825 127.614 247.793 128.928 245.974 128.928C245.223 128.928 244.449 128.552 244.05 128.013V130.97H243.052ZM245.88 128.036C247.054 128.036 247.816 127.18 247.816 125.877C247.816 124.575 247.054 123.718 245.88 123.718C244.73 123.718 243.968 124.575 243.968 125.877C243.968 127.18 244.73 128.036 245.88 128.036ZM250.1 130.97V122.92H251.097V123.777C251.414 123.237 252.188 122.826 253.045 122.826C254.863 122.826 255.873 124.141 255.873 125.877C255.873 127.614 254.84 128.928 253.021 128.928C252.27 128.928 251.496 128.552 251.097 128.013V130.97H250.1ZM252.927 128.036C254.101 128.036 254.863 127.18 254.863 125.877C254.863 124.575 254.101 123.718 252.927 123.718C251.777 123.718 251.015 124.575 251.015 125.877C251.015 127.18 251.777 128.036 252.927 128.036ZM258.989 128.916C257.933 129.022 257.147 128.623 257.147 127.391V120.527H258.144V127.32C258.144 127.966 258.449 128.06 258.942 128.024L258.989 128.916ZM260.642 121.806C260.243 121.806 259.949 121.5 259.949 121.113C259.949 120.714 260.243 120.409 260.642 120.409C261.052 120.409 261.357 120.714 261.357 121.113C261.357 121.5 261.052 121.806 260.642 121.806ZM260.149 128.834V122.92H261.146V128.834H260.149ZM268.112 125.607C268.112 125.748 268.1 125.959 268.088 126.065H263.418C263.489 127.262 264.24 128.048 265.308 128.048C266.211 128.048 266.833 127.625 267.009 126.886L267.948 127.109C267.654 128.259 266.669 128.928 265.308 128.928C263.536 128.928 262.421 127.555 262.421 125.877C262.421 124.199 263.501 122.826 265.284 122.826C267.032 122.826 268.112 124.082 268.112 125.607ZM263.477 125.232H267.056C266.962 124.328 266.328 123.659 265.284 123.659C264.357 123.659 263.677 124.246 263.477 125.232ZM271.907 128.928C270.065 128.928 269.056 127.614 269.056 125.877C269.056 124.141 270.065 122.826 271.895 122.826C272.681 122.826 273.456 123.214 273.831 123.765V120.527H274.829V128.834H273.831V127.977C273.561 128.517 272.775 128.928 271.907 128.928ZM272.001 128.036C273.162 128.036 273.925 127.18 273.925 125.877C273.925 124.575 273.162 123.718 272.001 123.718C270.839 123.718 270.076 124.575 270.076 125.877C270.076 127.18 270.839 128.036 272.001 128.036ZM279.86 128.834V123.8H278.851V122.92H279.86V122.369C279.86 121.066 280.599 120.374 281.608 120.374C281.878 120.374 282.16 120.398 282.406 120.468L282.359 121.36C282.148 121.278 281.937 121.242 281.737 121.242C281.209 121.242 280.857 121.653 280.857 122.287V122.92H282.371V123.8H280.857V128.834H279.86ZM284.063 121.806C283.664 121.806 283.371 121.5 283.371 121.113C283.371 120.714 283.664 120.409 284.063 120.409C284.474 120.409 284.779 120.714 284.779 121.113C284.779 121.5 284.474 121.806 284.063 121.806ZM283.57 128.834V122.92H284.568V128.834H283.57ZM288.025 128.916C286.969 129.022 286.183 128.623 286.183 127.391V120.527H287.18V127.32C287.18 127.966 287.485 128.06 287.978 128.024L288.025 128.916ZM292.33 128.787C292.036 128.893 291.719 128.928 291.403 128.928C290.393 128.928 289.654 128.365 289.654 127.062V123.8H288.551V122.92H289.654V121.125H290.652V122.92H292.236V123.8H290.652V127.097C290.652 127.719 291.004 128.024 291.52 128.024C291.755 128.024 292.024 127.989 292.259 127.872L292.33 128.787ZM298.695 125.607C298.695 125.748 298.683 125.959 298.671 126.065H294.001C294.072 127.262 294.823 128.048 295.891 128.048C296.794 128.048 297.416 127.625 297.592 126.886L298.531 127.109C298.237 128.259 297.252 128.928 295.891 128.928C294.119 128.928 293.004 127.555 293.004 125.877C293.004 124.199 294.084 122.826 295.867 122.826C297.615 122.826 298.695 124.082 298.695 125.607ZM294.06 125.232H297.639C297.545 124.328 296.911 123.659 295.867 123.659C294.94 123.659 294.26 124.246 294.06 125.232ZM303.44 123.894C303.217 123.8 302.936 123.753 302.678 123.753C301.739 123.753 300.976 124.657 300.976 126.581V128.834H299.979V122.92H300.976V124.117C301.317 123.366 302.091 122.826 302.818 122.826C303.065 122.826 303.3 122.862 303.499 122.932L303.44 123.894ZM306.293 128.928C304.862 128.928 304.087 128.036 303.829 127.203L304.686 126.828C304.909 127.52 305.378 128.083 306.293 128.083C307.021 128.083 307.49 127.661 307.49 127.18C307.49 125.666 304.087 126.64 304.087 124.399C304.087 123.46 304.897 122.826 306.164 122.826C307.209 122.826 308.112 123.413 308.358 124.281L307.525 124.645C307.361 124.035 306.774 123.648 306.141 123.648C305.472 123.648 305.05 123.918 305.05 124.387C305.05 125.654 308.476 124.727 308.464 127.168C308.464 128.2 307.596 128.928 306.293 128.928ZM310.217 128.928C309.794 128.928 309.501 128.635 309.501 128.224C309.501 127.825 309.794 127.52 310.217 127.52C310.616 127.52 310.933 127.825 310.933 128.224C310.933 128.635 310.616 128.928 310.217 128.928Z" fill="#454545"/>
<g clip-path="url(#clip4_1023_12192)">
<path d="M508.819 65.0216C508.533 64.7356 508.071 64.7356 507.785 65.0216L504.199 68.6004L500.613 65.0143C500.327 64.7283 499.865 64.7283 499.579 65.0143C499.293 65.3003 499.293 65.7623 499.579 66.0483L503.165 69.6344L499.579 73.2205C499.293 73.5065 499.293 73.9685 499.579 74.2545C499.865 74.5406 500.327 74.5406 500.613 74.2545L504.199 70.6685L507.785 74.2545C508.071 74.5406 508.533 74.5406 508.819 74.2545C509.105 73.9685 509.105 73.5065 508.819 73.2205L505.233 69.6344L508.819 66.0483C509.098 65.7697 509.098 65.3003 508.819 65.0216Z" fill="#8C8C8C"/>
</g>
</g>
</g>
<rect x="0.5" y="0.5" width="556" height="363.896" rx="19.5" stroke="#DADADA"/>
<defs>
<filter id="filter0_d_1023_12192" x="-1161" y="0.128906" width="1928" height="1610" filterUnits="userSpaceOnUse" color-interpolation-filters="sRGB">
<feFlood flood-opacity="0" result="BackgroundImageFix"/>
<feColorMatrix in="SourceAlpha" type="matrix" values="0 0 0 0 0 0 0 0 0 0 0 0 0 0 0 0 0 0 127 0" result="hardAlpha"/>
<feOffset dy="4"/>
<feGaussianBlur stdDeviation="2"/>
<feComposite in2="hardAlpha" operator="out"/>
<feColorMatrix type="matrix" values="0 0 0 0 0.768627 0 0 0 0 0.768627 0 0 0 0 0.768627 0 0 0 0.25 0"/>
<feBlend mode="normal" in2="BackgroundImageFix" result="effect1_dropShadow_1023_12192"/>
<feBlend mode="normal" in="SourceGraphic" in2="effect1_dropShadow_1023_12192" result="shape"/>
</filter>
<filter id="filter1_d_1023_12192" x="271.245" y="313.714" width="132.484" height="39.6013" filterUnits="userSpaceOnUse" color-interpolation-filters="sRGB">
<feFlood flood-opacity="0" result="BackgroundImageFix"/>
<feColorMatrix in="SourceAlpha" type="matrix" values="0 0 0 0 0 0 0 0 0 0 0 0 0 0 0 0 0 0 127 0" result="hardAlpha"/>
<feOffset dy="1.4667"/>
<feGaussianBlur stdDeviation="1.10003"/>
<feColorMatrix type="matrix" values="0 0 0 0 0 0 0 0 0 0 0 0 0 0 0 0 0 0 0.16 0"/>
<feBlend mode="normal" in2="BackgroundImageFix" result="effect1_dropShadow_1023_12192"/>
<feBlend mode="normal" in="SourceGraphic" in2="effect1_dropShadow_1023_12192" result="shape"/>
</filter>
<filter id="filter2_d_1023_12192" x="554.067" y="0.130859" width="434.878" height="1253.3" filterUnits="userSpaceOnUse" color-interpolation-filters="sRGB">
<feFlood flood-opacity="0" result="BackgroundImageFix"/>
<feColorMatrix in="SourceAlpha" type="matrix" values="0 0 0 0 0 0 0 0 0 0 0 0 0 0 0 0 0 0 127 0" result="hardAlpha"/>
<feOffset dy="2.93341"/>
<feGaussianBlur stdDeviation="1.4667"/>
<feComposite in2="hardAlpha" operator="out"/>
<feColorMatrix type="matrix" values="0 0 0 0 0 0 0 0 0 0 0 0 0 0 0 0 0 0 0.25 0"/>
<feBlend mode="normal" in2="BackgroundImageFix" result="effect1_dropShadow_1023_12192"/>
<feBlend mode="normal" in="SourceGraphic" in2="effect1_dropShadow_1023_12192" result="shape"/>
</filter>
<filter id="filter3_d_1023_12192" x="181.524" y="41.9328" width="352.009" height="119.536" filterUnits="userSpaceOnUse" color-interpolation-filters="sRGB">
<feFlood flood-opacity="0" result="BackgroundImageFix"/>
<feColorMatrix in="SourceAlpha" type="matrix" values="0 0 0 0 0 0 0 0 0 0 0 0 0 0 0 0 0 0 127 0" result="hardAlpha"/>
<feOffset dy="5.86682"/>
<feGaussianBlur stdDeviation="4.40011"/>
<feComposite in2="hardAlpha" operator="out"/>
<feColorMatrix type="matrix" values="0 0 0 0 0 0 0 0 0 0 0 0 0 0 0 0 0 0 0.16 0"/>
<feBlend mode="normal" in2="BackgroundImageFix" result="effect1_dropShadow_1023_12192"/>
<feBlend mode="normal" in="SourceGraphic" in2="effect1_dropShadow_1023_12192" result="shape"/>
</filter>
<clipPath id="clip0_1023_12192">
<rect width="557" height="364.896" rx="20" fill="white"/>
</clipPath>
<clipPath id="clip1_1023_12192">
<rect width="1920" height="1602" fill="white" transform="translate(-1157 0.128906)"/>
</clipPath>
<clipPath id="clip2_1023_12192">
<rect width="17.6005" height="17.6005" fill="white" transform="translate(232.858 234.271)"/>
</clipPath>
<clipPath id="clip3_1023_12192">
<rect width="17.6005" height="17.6005" fill="white" transform="translate(375.862 234.271)"/>
</clipPath>
<clipPath id="clip4_1023_12192">
<rect width="17.6005" height="17.6005" fill="white" transform="translate(495.398 60.834)"/>
</clipPath>
</defs>
</svg>
