<svg viewBox="0 0 383 291" fill="none" xmlns="http://www.w3.org/2000/svg">
<g filter="url(#filter0_d_1023_12167)">
<rect x="7" y="3" width="369" height="73" rx="3.45614" fill="#FDE5CE" shape-rendering="crispEdges"/>
<rect x="7.43202" y="3.43202" width="368.136" height="72.136" rx="3.02412" stroke="#F7993B" stroke-width="0.864035" shape-rendering="crispEdges"/>
<path d="M7 6.66659C7 4.75782 8.54737 3.21045 10.4561 3.21045H22.5526V75.7894H10.4561C8.54736 75.7894 7 74.242 7 72.3333V6.66659Z" fill="#F7993B"/>
<path d="M37.2479 35.3555V25.6783H39.4184L43.1786 31.8993V25.6783H45.2108V35.3555H43.0404L39.2801 29.1344V35.3555H37.2479ZM50.2036 35.4661C48.0469 35.4661 46.5262 33.9454 46.5262 31.8717C46.5262 29.798 48.0469 28.2773 50.2036 28.2773C52.3325 28.2773 53.8809 29.798 53.8809 31.8717C53.8809 33.9454 52.3325 35.4661 50.2036 35.4661ZM50.2036 33.738C51.1851 33.738 51.8487 32.9776 51.8487 31.8717C51.8487 30.7657 51.1851 30.0054 50.2036 30.0054C49.2082 30.0054 48.5446 30.7657 48.5446 31.8717C48.5446 32.9776 49.2082 33.738 50.2036 33.738ZM61.3321 35.4661C59.2861 35.4661 58.0557 34.056 58.0557 31.8717C58.0557 29.6874 59.2861 28.2773 61.3045 28.2773C62.1478 28.2773 62.7975 28.5814 63.1846 29.0515V25.5677H65.2168V35.3555H63.1846V34.6642C62.8252 35.1619 62.1201 35.4661 61.3321 35.4661ZM61.6639 33.738C62.6593 33.738 63.309 32.9915 63.309 31.8717C63.309 30.7519 62.6593 30.0054 61.6639 30.0054C60.6962 30.0054 60.0326 30.7519 60.0326 31.8717C60.0326 32.9915 60.6962 33.738 61.6639 33.738ZM69.5221 28.2773C71.4161 28.2773 72.7017 29.2588 72.7017 31.2219V35.3555H70.7387V34.4707C70.3377 35.079 69.5497 35.4661 68.7756 35.4661C67.4208 35.4661 66.4669 34.5536 66.4669 33.3924C66.4669 32.0099 67.4761 31.2634 69.4806 31.056L70.7387 30.9316V30.8901C70.7387 30.1989 70.2686 29.7842 69.5221 29.7842C68.8585 29.7842 68.3747 30.1851 68.3055 30.8625L66.536 30.5307C66.7572 29.1621 68.029 28.2773 69.5221 28.2773ZM69.2733 34.0145C70.1857 34.0145 70.7248 33.2818 70.7387 32.4661V32.4523V32.4108V32.3555L69.4391 32.5076C68.7479 32.5767 68.4023 32.9223 68.4023 33.3233C68.4023 33.7103 68.7064 34.0145 69.2733 34.0145ZM78.4569 35.2863C78.1251 35.3969 77.738 35.4661 77.3233 35.4661C75.8164 35.4661 74.6689 34.6642 74.6689 32.9776V30.0745H73.563V28.3879H74.6689V26.3695H76.7011V28.3879H78.3877V30.0745H76.7011V32.715C76.7011 33.3371 77.0329 33.6965 77.5306 33.6965C77.7795 33.6965 78.0836 33.655 78.3186 33.5306L78.4569 35.2863ZM82.2126 28.2773C84.1066 28.2773 85.3923 29.2588 85.3923 31.2219V35.3555H83.4292V34.4707C83.0283 35.079 82.2403 35.4661 81.4661 35.4661C80.1113 35.4661 79.1574 34.5536 79.1574 33.3924C79.1574 32.0099 80.1666 31.2634 82.1711 31.056L83.4292 30.9316V30.8901C83.4292 30.1989 82.9591 29.7842 82.2126 29.7842C81.549 29.7842 81.0652 30.1851 80.996 30.8625L79.2265 30.5307C79.4477 29.1621 80.7196 28.2773 82.2126 28.2773ZM81.9638 34.0145C82.8762 34.0145 83.4153 33.2818 83.4292 32.4661V32.4523V32.4108V32.3555L82.1297 32.5076C81.4384 32.5767 81.0928 32.9223 81.0928 33.3233C81.0928 33.7103 81.397 34.0145 81.9638 34.0145ZM92.9995 28.2773C94.8935 28.2773 96.1792 29.2588 96.1792 31.2219V35.3555H94.2161V34.4707C93.8152 35.079 93.0272 35.4661 92.253 35.4661C90.8982 35.4661 89.9443 34.5536 89.9443 33.3924C89.9443 32.0099 90.9535 31.2634 92.9581 31.056L94.2161 30.9316V30.8901C94.2161 30.1989 93.7461 29.7842 92.9995 29.7842C92.336 29.7842 91.8521 30.1851 91.783 30.8625L90.0134 30.5307C90.2346 29.1621 91.5065 28.2773 92.9995 28.2773ZM92.7507 34.0145C93.6631 34.0145 94.2023 33.2818 94.2161 32.4661V32.4523V32.4108V32.3555L92.9166 32.5076C92.2254 32.5767 91.8798 32.9223 91.8798 33.3233C91.8798 33.7103 92.1839 34.0145 92.7507 34.0145ZM99.2562 35.3555L96.7263 28.3879H98.7586L100.169 33.0053L101.579 28.3879H103.625L101.095 35.3555H99.2562ZM106.986 28.2773C108.88 28.2773 110.166 29.2588 110.166 31.2219V35.3555H108.203V34.4707C107.802 35.079 107.014 35.4661 106.24 35.4661C104.885 35.4661 103.931 34.5536 103.931 33.3924C103.931 32.0099 104.94 31.2634 106.945 31.056L108.203 30.9316V30.8901C108.203 30.1989 107.733 29.7842 106.986 29.7842C106.323 29.7842 105.839 30.1851 105.77 30.8625L104 30.5307C104.221 29.1621 105.493 28.2773 106.986 28.2773ZM106.737 34.0145C107.65 34.0145 108.189 33.2818 108.203 32.4661V32.4523V32.4108V32.3555L106.903 32.5076C106.212 32.5767 105.866 32.9223 105.866 33.3233C105.866 33.7103 106.17 34.0145 106.737 34.0145ZM112.751 27.4616C112.06 27.4616 111.548 26.9225 111.548 26.2451C111.548 25.5815 112.06 25.0423 112.751 25.0423C113.456 25.0423 113.995 25.5815 113.995 26.2451C113.995 26.9225 113.456 27.4616 112.751 27.4616ZM111.742 35.3555V28.3879H113.774V35.3555H111.742ZM118.43 35.4108C116.729 35.6873 115.347 35.0375 115.347 33.1712V25.5677H117.379V32.8809C117.379 33.6965 117.738 33.6965 118.291 33.6965L118.43 35.4108ZM122.269 28.2773C124.163 28.2773 125.448 29.2588 125.448 31.2219V35.3555H123.485V34.4707C123.084 35.079 122.296 35.4661 121.522 35.4661C120.167 35.4661 119.214 34.5536 119.214 33.3924C119.214 32.0099 120.223 31.2634 122.227 31.056L123.485 30.9316V30.8901C123.485 30.1989 123.015 29.7842 122.269 29.7842C121.605 29.7842 121.121 30.1851 121.052 30.8625L119.283 30.5307C119.504 29.1621 120.776 28.2773 122.269 28.2773ZM122.02 34.0145C122.932 34.0145 123.471 33.2818 123.485 32.4661V32.4523V32.4108V32.3555L122.186 32.5076C121.495 32.5767 121.149 32.9223 121.149 33.3233C121.149 33.7103 121.453 34.0145 122.02 34.0145ZM130.909 35.4661C130.121 35.4661 129.416 35.1619 129.057 34.6642V35.3555H127.025V25.5677H129.057V29.0515C129.444 28.5814 130.107 28.2773 130.937 28.2773C132.955 28.2773 134.2 29.6874 134.2 31.8717C134.2 34.056 132.955 35.4661 130.909 35.4661ZM130.578 33.738C131.559 33.738 132.209 32.9915 132.209 31.8717C132.209 30.7519 131.559 30.0054 130.578 30.0054C129.582 30.0054 128.932 30.7519 128.932 31.8717C128.932 32.9915 129.582 33.738 130.578 33.738ZM138.505 35.4108C136.804 35.6873 135.422 35.0375 135.422 33.1712V25.5677H137.454V32.8809C137.454 33.6965 137.814 33.6965 138.367 33.6965L138.505 35.4108ZM146.312 31.692C146.312 31.9685 146.298 32.3002 146.284 32.4523H141.28C141.473 33.3094 142.054 33.7795 142.911 33.7795C143.602 33.7795 144.114 33.4615 144.266 32.8809L146.173 33.3924C145.759 34.7057 144.515 35.4661 142.856 35.4661C140.45 35.4661 139.275 33.5997 139.275 31.8717C139.275 30.1436 140.326 28.2773 142.731 28.2773C145.247 28.2773 146.312 30.1436 146.312 31.692ZM141.307 31.0146H144.141C144.072 30.3095 143.63 29.7842 142.731 29.7842C141.998 29.7842 141.501 30.1989 141.307 31.0146ZM148.33 35.4661C147.652 35.4661 147.127 34.9546 147.127 34.291C147.127 33.6136 147.652 33.1021 148.33 33.1021C149.007 33.1021 149.532 33.6136 149.532 34.291C149.532 34.9546 149.007 35.4661 148.33 35.4661ZM39.8331 52.3555V48.3049L36.4323 42.6783H37.8562L40.469 47.1021L43.0957 42.6783H44.5196L41.105 48.3049V52.3555H39.8331ZM47.3678 52.4661C45.2941 52.4661 43.8287 50.9592 43.8287 48.8717C43.8287 46.7842 45.2941 45.2773 47.3678 45.2773C49.4277 45.2773 50.9207 46.7842 50.9207 48.8717C50.9207 50.9592 49.4277 52.4661 47.3678 52.4661ZM47.3678 51.4154C48.7641 51.4154 49.7042 50.3647 49.7042 48.8717C49.7042 47.3786 48.7641 46.328 47.3678 46.328C45.9715 46.328 45.0315 47.3786 45.0315 48.8717C45.0315 50.3647 45.9715 51.4154 47.3678 51.4154ZM58.4796 45.3879V52.3555H57.3045V51.0421C56.8207 51.8716 55.9774 52.4661 54.9129 52.4661C53.4613 52.4661 52.4245 51.4845 52.4245 50.0053V45.3879H53.5995V49.7841C53.5995 50.7242 54.194 51.4016 55.1755 51.4016C56.4751 51.4016 57.3045 50.2818 57.3045 48.4431V45.3879H58.4796ZM63.7244 52.3555V45.3879H64.8995V46.7012C65.2451 45.8717 65.9363 45.2773 67.0008 45.2773C68.1345 45.2773 69.0192 45.8026 69.2681 46.7427C69.6413 45.9132 70.4708 45.2773 71.5215 45.2773C73.0145 45.2773 73.9546 46.2174 73.9546 47.6828V52.3555H72.7795V47.9178C72.7795 46.9639 72.2404 46.3141 71.2588 46.3141C70.0699 46.3141 69.4201 47.3786 69.4201 48.8579V52.3555H68.2451V47.9178C68.2451 46.9639 67.7059 46.3141 66.7382 46.3141C65.5493 46.3141 64.8995 47.3786 64.8995 48.8579V52.3555H63.7244ZM78.4604 45.2773C80.147 45.2773 81.3221 46.2727 81.3221 47.8901V52.3555H80.1609V51.1666C79.7599 51.9684 78.8475 52.4661 77.8383 52.4661C76.442 52.4661 75.4881 51.6089 75.4881 50.4062C75.4881 49.0652 76.5803 48.3325 78.806 48.1113L80.1609 47.9593V47.821C80.1609 46.8671 79.4834 46.2588 78.4604 46.2588C77.5065 46.2588 76.8291 46.8256 76.7324 47.7657L75.6402 47.5583C75.8476 46.1759 76.995 45.2773 78.4604 45.2773ZM78.018 51.4983C79.3728 51.4983 80.1609 50.5997 80.1609 49.2035V48.8717L78.806 49.0237C77.3959 49.1758 76.6632 49.6597 76.6632 50.3924C76.6632 51.0421 77.2162 51.4983 78.018 51.4983ZM87.593 45.3879H88.7957L85.146 54.8715H83.9433L84.9525 52.2587L82.229 45.3879H83.5009L85.5469 50.7242L87.593 45.3879ZM97.3419 46.5353C97.0792 46.4247 96.7474 46.3694 96.4433 46.3694C95.3373 46.3694 94.4387 47.4339 94.4387 49.7012V52.3555H93.2636V45.3879H94.4387V46.798C94.8396 45.9132 95.752 45.2773 96.6092 45.2773C96.8995 45.2773 97.176 45.3188 97.411 45.4017L97.3419 46.5353ZM104.536 48.5537C104.536 48.7196 104.522 48.9685 104.508 49.0929H99.006C99.0889 50.503 99.9737 51.4292 101.232 51.4292C102.296 51.4292 103.029 50.9315 103.236 50.0606L104.342 50.3233C103.997 51.6781 102.835 52.4661 101.232 52.4661C99.1442 52.4661 97.8309 50.8486 97.8309 48.8717C97.8309 46.8948 99.1028 45.2773 101.204 45.2773C103.264 45.2773 104.536 46.7565 104.536 48.5537ZM99.0751 48.1113H103.292C103.181 47.0468 102.434 46.2588 101.204 46.2588C100.112 46.2588 99.3101 46.9501 99.0751 48.1113ZM108.317 52.4661C106.631 52.4661 105.718 51.4154 105.414 50.4339L106.424 49.9915C106.686 50.8071 107.239 51.4707 108.317 51.4707C109.175 51.4707 109.728 50.973 109.728 50.4062C109.728 48.6228 105.718 49.7703 105.718 47.1298C105.718 46.0238 106.672 45.2773 108.165 45.2773C109.396 45.2773 110.46 45.9685 110.751 46.9915L109.769 47.4201C109.576 46.7012 108.884 46.245 108.138 46.245C107.35 46.245 106.852 46.563 106.852 47.116C106.852 48.609 110.889 47.5169 110.875 50.3924C110.875 51.6089 109.852 52.4661 108.317 52.4661ZM118.617 48.5537C118.617 48.7196 118.603 48.9685 118.589 49.0929H113.087C113.17 50.503 114.055 51.4292 115.313 51.4292C116.377 51.4292 117.11 50.9315 117.317 50.0606L118.423 50.3233C118.078 51.6781 116.916 52.4661 115.313 52.4661C113.225 52.4661 111.912 50.8486 111.912 48.8717C111.912 46.8948 113.184 45.2773 115.285 45.2773C117.345 45.2773 118.617 46.7565 118.617 48.5537ZM113.156 48.1113H117.373C117.262 47.0468 116.516 46.2588 115.285 46.2588C114.193 46.2588 113.391 46.9501 113.156 48.1113ZM123.74 52.3002C123.395 52.4246 123.021 52.4661 122.648 52.4661C121.459 52.4661 120.588 51.8025 120.588 50.268V46.4247H119.289V45.3879H120.588V43.2727H121.763V45.3879H123.63V46.4247H121.763V50.3094C121.763 51.0421 122.178 51.4016 122.786 51.4016C123.063 51.4016 123.381 51.3601 123.657 51.2219L123.74 52.3002ZM129.137 52.3555V46.4247H127.948V45.3879H129.137V44.7381C129.137 43.2036 130.008 42.388 131.197 42.388C131.515 42.388 131.847 42.4156 132.137 42.4986L132.082 43.5492C131.833 43.4525 131.584 43.411 131.349 43.411C130.727 43.411 130.312 43.8948 130.312 44.6414V45.3879H132.096V46.4247H130.312V52.3555H129.137ZM134.089 44.0746C133.619 44.0746 133.274 43.7151 133.274 43.2589C133.274 42.7889 133.619 42.4294 134.089 42.4294C134.573 42.4294 134.933 42.7889 134.933 43.2589C134.933 43.7151 134.573 44.0746 134.089 44.0746ZM133.509 52.3555V45.3879H134.684V52.3555H133.509ZM138.757 52.4522C137.513 52.5767 136.587 52.1066 136.587 50.655V42.5677H137.762V50.5721C137.762 51.3325 138.121 51.443 138.702 51.4016L138.757 52.4522ZM143.829 52.3002C143.483 52.4246 143.11 52.4661 142.737 52.4661C141.548 52.4661 140.677 51.8025 140.677 50.268V46.4247H139.377V45.3879H140.677V43.2727H141.852V45.3879H143.718V46.4247H141.852V50.3094C141.852 51.0421 142.267 51.4016 142.875 51.4016C143.152 51.4016 143.47 51.3601 143.746 51.2219L143.829 52.3002ZM151.329 48.5537C151.329 48.7196 151.315 48.9685 151.301 49.0929H145.799C145.882 50.503 146.767 51.4292 148.025 51.4292C149.089 51.4292 149.822 50.9315 150.029 50.0606L151.135 50.3233C150.79 51.6781 149.628 52.4661 148.025 52.4661C145.937 52.4661 144.624 50.8486 144.624 48.8717C144.624 46.8948 145.896 45.2773 147.997 45.2773C150.057 45.2773 151.329 46.7565 151.329 48.5537ZM145.868 48.1113H150.085C149.974 47.0468 149.227 46.2588 147.997 46.2588C146.905 46.2588 146.103 46.9501 145.868 48.1113ZM156.92 46.5353C156.657 46.4247 156.325 46.3694 156.021 46.3694C154.915 46.3694 154.017 47.4339 154.017 49.7012V52.3555H152.842V45.3879H154.017V46.798C154.418 45.9132 155.33 45.2773 156.187 45.2773C156.477 45.2773 156.754 45.3188 156.989 45.4017L156.92 46.5353ZM160.281 52.4661C158.595 52.4661 157.682 51.4154 157.378 50.4339L158.387 49.9915C158.65 50.8071 159.203 51.4707 160.281 51.4707C161.138 51.4707 161.691 50.973 161.691 50.4062C161.691 48.6228 157.682 49.7703 157.682 47.1298C157.682 46.0238 158.636 45.2773 160.129 45.2773C161.359 45.2773 162.424 45.9685 162.714 46.9915L161.733 47.4201C161.539 46.7012 160.848 46.245 160.101 46.245C159.313 46.245 158.816 46.563 158.816 47.116C158.816 48.609 162.852 47.5169 162.839 50.3924C162.839 51.6089 161.816 52.4661 160.281 52.4661ZM170.264 45.2773C171.951 45.2773 173.126 46.2727 173.126 47.8901V52.3555H171.965V51.1666C171.564 51.9684 170.651 52.4661 169.642 52.4661C168.246 52.4661 167.292 51.6089 167.292 50.4062C167.292 49.0652 168.384 48.3325 170.61 48.1113L171.965 47.9593V47.821C171.965 46.8671 171.287 46.2588 170.264 46.2588C169.31 46.2588 168.633 46.8256 168.536 47.7657L167.444 47.5583C167.651 46.1759 168.799 45.2773 170.264 45.2773ZM169.822 51.4983C171.177 51.4983 171.965 50.5997 171.965 49.2035V48.8717L170.61 49.0237C169.2 49.1758 168.467 49.6597 168.467 50.3924C168.467 51.0421 169.02 51.4983 169.822 51.4983ZM175.036 52.3555V45.3879H176.212V46.7012C176.695 45.8717 177.539 45.2773 178.603 45.2773C180.055 45.2773 181.092 46.2588 181.092 47.7381V52.3555H179.917V47.9593C179.917 47.0192 179.322 46.3418 178.341 46.3418C177.041 46.3418 176.212 47.4616 176.212 49.3002V52.3555H175.036ZM185.96 52.4661C183.79 52.4661 182.601 50.9177 182.601 48.8717C182.601 46.8256 183.79 45.2773 185.946 45.2773C186.873 45.2773 187.785 45.7335 188.227 46.3833V42.5677H189.403V52.3555H188.227V51.3463C187.909 51.9822 186.983 52.4661 185.96 52.4661ZM186.071 51.4154C187.439 51.4154 188.338 50.4062 188.338 48.8717C188.338 47.3372 187.439 46.328 186.071 46.328C184.702 46.328 183.804 47.3372 183.804 48.8717C183.804 50.4062 184.702 51.4154 186.071 51.4154ZM198.344 52.3002C197.999 52.4246 197.625 52.4661 197.252 52.4661C196.063 52.4661 195.192 51.8025 195.192 50.268V46.4247H193.893V45.3879H195.192V43.2727H196.367V45.3879H198.234V46.4247H196.367V50.3094C196.367 51.0421 196.782 51.4016 197.39 51.4016C197.667 51.4016 197.985 51.3601 198.261 51.2219L198.344 52.3002ZM203.794 46.5353C203.531 46.4247 203.199 46.3694 202.895 46.3694C201.789 46.3694 200.891 47.4339 200.891 49.7012V52.3555H199.715V45.3879H200.891V46.798C201.291 45.9132 202.204 45.2773 203.061 45.2773C203.351 45.2773 203.628 45.3188 203.863 45.4017L203.794 46.5353ZM209.597 45.3879H210.8L207.15 54.8715H205.948L206.957 52.2587L204.233 45.3879H205.505L207.551 50.7242L209.597 45.3879ZM217.867 45.2773C219.554 45.2773 220.729 46.2727 220.729 47.8901V52.3555H219.568V51.1666C219.167 51.9684 218.254 52.4661 217.245 52.4661C215.849 52.4661 214.895 51.6089 214.895 50.4062C214.895 49.0652 215.987 48.3325 218.213 48.1113L219.568 47.9593V47.821C219.568 46.8671 218.89 46.2588 217.867 46.2588C216.913 46.2588 216.236 46.8256 216.139 47.7657L215.047 47.5583C215.254 46.1759 216.402 45.2773 217.867 45.2773ZM217.425 51.4983C218.78 51.4983 219.568 50.5997 219.568 49.2035V48.8717L218.213 49.0237C216.803 49.1758 216.07 49.6597 216.07 50.3924C216.07 51.0421 216.623 51.4983 217.425 51.4983ZM226.22 51.0007C227.616 51.0007 228.584 51.5813 228.584 52.867C228.584 54.2633 227.284 54.9821 225.377 54.9821C223.4 54.9821 222.169 54.2771 222.169 52.9914C222.169 52.3831 222.501 51.8854 222.916 51.5675C222.57 51.3325 222.363 50.9868 222.363 50.4892C222.363 49.8809 222.764 49.4247 223.303 49.1758C222.93 48.7749 222.722 48.2496 222.722 47.6275C222.722 46.2174 223.856 45.2773 225.363 45.2773C225.819 45.2773 226.248 45.3741 226.635 45.5538L227.727 44.6137L228.404 45.3879L227.478 46.1759C227.81 46.563 228.003 47.0607 228.003 47.6275C228.003 49.0652 226.884 49.9776 225.363 49.9776C224.865 49.9776 224.437 49.8809 224.063 49.715C223.662 49.8947 223.496 50.1297 223.496 50.42C223.496 50.8486 223.897 51.0007 224.354 51.0007H226.22ZM225.363 46.2312C224.561 46.2312 223.87 46.7565 223.87 47.6275C223.87 48.5122 224.561 49.0237 225.363 49.0237C226.165 49.0237 226.856 48.5122 226.856 47.6275C226.856 46.7565 226.165 46.2312 225.363 46.2312ZM225.377 53.9868C226.704 53.9868 227.436 53.6135 227.436 52.9499C227.436 52.2034 226.884 51.9546 226.054 51.9546H224.575C224.326 51.9546 224.091 51.9407 223.87 51.9131C223.441 52.2034 223.317 52.5767 223.317 52.9776C223.317 53.6135 224.022 53.9868 225.377 53.9868ZM232.502 45.2773C234.188 45.2773 235.363 46.2727 235.363 47.8901V52.3555H234.202V51.1666C233.801 51.9684 232.889 52.4661 231.88 52.4661C230.483 52.4661 229.529 51.6089 229.529 50.4062C229.529 49.0652 230.622 48.3325 232.847 48.1113L234.202 47.9593V47.821C234.202 46.8671 233.525 46.2588 232.502 46.2588C231.548 46.2588 230.87 46.8256 230.774 47.7657L229.681 47.5583C229.889 46.1759 231.036 45.2773 232.502 45.2773ZM232.059 51.4983C233.414 51.4983 234.202 50.5997 234.202 49.2035V48.8717L232.847 49.0237C231.437 49.1758 230.704 49.6597 230.704 50.3924C230.704 51.0421 231.257 51.4983 232.059 51.4983ZM237.855 44.0746C237.385 44.0746 237.039 43.7151 237.039 43.2589C237.039 42.7889 237.385 42.4294 237.855 42.4294C238.338 42.4294 238.698 42.7889 238.698 43.2589C238.698 43.7151 238.338 44.0746 237.855 44.0746ZM237.274 52.3555V45.3879H238.449V52.3555H237.274ZM240.352 52.3555V45.3879H241.527V46.7012C242.011 45.8717 242.854 45.2773 243.919 45.2773C245.37 45.2773 246.407 46.2588 246.407 47.7381V52.3555H245.232V47.9593C245.232 47.0192 244.638 46.3418 243.656 46.3418C242.357 46.3418 241.527 47.4616 241.527 49.3002V52.3555H240.352ZM249.161 52.4661C248.663 52.4661 248.317 52.1205 248.317 51.6366C248.317 51.1666 248.663 50.8071 249.161 50.8071C249.631 50.8071 250.004 51.1666 250.004 51.6366C250.004 52.1205 249.631 52.4661 249.161 52.4661Z" fill="#454545"/>
<g clip-path="url(#clip0_1023_12167)">
<path d="M357.25 26.341C356.913 26.004 356.369 26.004 356.032 26.341L351.807 30.5575L347.581 26.3323C347.244 25.9953 346.7 25.9953 346.363 26.3323C346.026 26.6693 346.026 27.2136 346.363 27.5506L350.588 31.7757L346.363 36.0009C346.026 36.3378 346.026 36.8822 346.363 37.2192C346.7 37.5561 347.244 37.5561 347.581 37.2192L351.807 32.994L356.032 37.2192C356.369 37.5561 356.913 37.5561 357.25 37.2192C357.587 36.8822 357.587 36.3378 357.25 36.0009L353.025 31.7757L357.25 27.5506C357.578 27.2223 357.578 26.6693 357.25 26.341Z" fill="#8C8C8C"/>
</g>
</g>
<g filter="url(#filter1_d_1023_12167)">
<rect x="7" y="106" width="369" height="72" rx="3.45614" fill="#FDE5CE" shape-rendering="crispEdges"/>
<rect x="7.43202" y="106.432" width="368.136" height="71.136" rx="3.02412" stroke="#F7993B" stroke-width="0.864035" shape-rendering="crispEdges"/>
<path d="M7 109.167C7 107.258 8.54737 105.71 10.4561 105.71H22.5526V178.289H10.4561C8.54736 178.289 7 176.742 7 174.833V109.167Z" fill="#F7993B"/>
<path d="M39.4184 137.855V130.045H36.5705V128.178H44.4367V130.045H41.6026V137.855H39.4184ZM45.4138 137.855V128.068H47.446V131.828C47.8746 131.178 48.6349 130.777 49.5612 130.777C51.1372 130.777 52.1602 131.773 52.1602 133.321V137.855H50.1418V133.846C50.1418 133.072 49.6579 132.574 48.9114 132.574C47.9437 132.574 47.446 133.376 47.446 134.814V137.855H45.4138ZM60.4212 134.192C60.4212 134.468 60.4074 134.8 60.3936 134.952H55.3891C55.5826 135.809 56.1632 136.279 57.0204 136.279C57.7116 136.279 58.2231 135.962 58.3752 135.381L60.283 135.892C59.8682 137.206 58.624 137.966 56.9651 137.966C54.5596 137.966 53.3845 136.1 53.3845 134.372C53.3845 132.644 54.4352 130.777 56.8407 130.777C59.3567 130.777 60.4212 132.644 60.4212 134.192ZM55.4167 133.515H58.2508C58.1816 132.81 57.7392 132.284 56.8407 132.284C56.108 132.284 55.6103 132.699 55.4167 133.515ZM66.3553 132.837C66.1203 132.727 65.7885 132.671 65.4705 132.671C64.5581 132.671 63.6872 133.362 63.6872 135.339V137.855H61.6549V130.888H63.6872V132.091C64.0051 131.344 64.9037 130.777 65.7332 130.777C65.9682 130.777 66.2862 130.819 66.4797 130.888L66.3553 132.837ZM73.8948 134.192C73.8948 134.468 73.8809 134.8 73.8671 134.952H68.8626C69.0562 135.809 69.6368 136.279 70.4939 136.279C71.1851 136.279 71.6967 135.962 71.8487 135.381L73.7565 135.892C73.3418 137.206 72.0976 137.966 70.4386 137.966C68.0331 137.966 66.8581 136.1 66.8581 134.372C66.8581 132.644 67.9087 130.777 70.3142 130.777C72.8303 130.777 73.8948 132.644 73.8948 134.192ZM68.8903 133.515H71.7243C71.6552 132.81 71.2128 132.284 70.3142 132.284C69.5815 132.284 69.0838 132.699 68.8903 133.515ZM79.4453 129.962C78.7541 129.962 78.2426 129.422 78.2426 128.745C78.2426 128.082 78.7541 127.542 79.4453 127.542C80.1504 127.542 80.6895 128.082 80.6895 128.745C80.6895 129.422 80.1504 129.962 79.4453 129.962ZM78.4361 137.855V130.888H80.4683V137.855H78.4361ZM84.5292 137.966C82.8288 137.966 81.7781 136.929 81.4187 135.879L83.05 135.243C83.2159 135.892 83.755 136.432 84.5292 136.432C85.0684 136.432 85.4278 136.169 85.4278 135.782C85.4278 134.69 81.7366 135.422 81.7366 132.782C81.7366 131.69 82.6905 130.777 84.2251 130.777C85.649 130.777 86.8241 131.469 87.142 132.478L85.5107 133.155C85.331 132.519 84.7642 132.229 84.2942 132.229C83.838 132.229 83.52 132.422 83.52 132.727C83.52 133.833 87.2665 132.92 87.2665 135.74C87.2665 136.943 86.1605 137.966 84.5292 137.966ZM94.4441 130.777C96.3381 130.777 97.6238 131.759 97.6238 133.722V137.855H95.6607V136.971C95.2598 137.579 94.4718 137.966 93.6976 137.966C92.3428 137.966 91.3889 137.054 91.3889 135.892C91.3889 134.51 92.3981 133.763 94.4026 133.556L95.6607 133.432V133.39C95.6607 132.699 95.1906 132.284 94.4441 132.284C93.7805 132.284 93.2967 132.685 93.2275 133.362L91.458 133.031C91.6792 131.662 92.9511 130.777 94.4441 130.777ZM94.1953 136.514C95.1077 136.514 95.6468 135.782 95.6607 134.966V134.952V134.911V134.856L94.3612 135.008C93.6699 135.077 93.3243 135.422 93.3243 135.823C93.3243 136.21 93.6285 136.514 94.1953 136.514ZM104.291 137.855V130.501C103.641 130.985 102.936 131.33 102.107 131.496V129.547C102.978 129.34 103.932 128.8 104.664 128.178H106.309V137.855H104.291ZM111.269 137.855V130.888H113.302V131.828C113.703 131.206 114.339 130.777 115.265 130.777C116.343 130.777 117.02 131.22 117.366 132.022C117.739 131.358 118.583 130.777 119.716 130.777C121.223 130.777 122.219 131.786 122.219 133.114V137.855H120.2V133.708C120.2 132.948 119.785 132.478 119.067 132.478C118.223 132.478 117.739 133.169 117.739 134.289V137.855H115.735V133.708C115.735 132.948 115.32 132.478 114.615 132.478C113.786 132.478 113.302 133.183 113.302 134.289V137.855H111.269ZM124.807 129.962C124.116 129.962 123.604 129.422 123.604 128.745C123.604 128.082 124.116 127.542 124.807 127.542C125.512 127.542 126.051 128.082 126.051 128.745C126.051 129.422 125.512 129.962 124.807 129.962ZM123.798 137.855V130.888H125.83V137.855H123.798ZM130.485 137.911C128.785 138.187 127.403 137.538 127.403 135.671V128.068H129.435V135.381C129.435 136.197 129.794 136.197 130.347 136.197L130.485 137.911ZM134.684 137.911C132.984 138.187 131.601 137.538 131.601 135.671V128.068H133.633V135.381C133.633 136.197 133.993 136.197 134.546 136.197L134.684 137.911ZM136.809 129.962C136.118 129.962 135.606 129.422 135.606 128.745C135.606 128.082 136.118 127.542 136.809 127.542C137.514 127.542 138.053 128.082 138.053 128.745C138.053 129.422 137.514 129.962 136.809 129.962ZM135.8 137.855V130.888H137.832V137.855H135.8ZM142.736 137.966C140.58 137.966 139.059 136.445 139.059 134.372C139.059 132.298 140.58 130.777 142.736 130.777C144.865 130.777 146.414 132.298 146.414 134.372C146.414 136.445 144.865 137.966 142.736 137.966ZM142.736 136.238C143.718 136.238 144.381 135.478 144.381 134.372C144.381 133.266 143.718 132.505 142.736 132.505C141.741 132.505 141.077 133.266 141.077 134.372C141.077 135.478 141.741 136.238 142.736 136.238ZM147.626 137.855V130.888H149.659V131.814C150.073 131.206 150.834 130.777 151.788 130.777C153.322 130.777 154.345 131.773 154.345 133.307V137.855H152.327V133.846C152.327 133.086 151.857 132.574 151.124 132.574C150.156 132.574 149.659 133.362 149.659 134.8V137.855H147.626ZM163.924 132.837C163.689 132.727 163.357 132.671 163.039 132.671C162.127 132.671 161.256 133.362 161.256 135.339V137.855H159.223V130.888H161.256V132.091C161.574 131.344 162.472 130.777 163.302 130.777C163.537 130.777 163.855 130.819 164.048 130.888L163.924 132.837ZM168.104 137.966C165.947 137.966 164.427 136.445 164.427 134.372C164.427 132.298 165.947 130.777 168.104 130.777C170.233 130.777 171.781 132.298 171.781 134.372C171.781 136.445 170.233 137.966 168.104 137.966ZM168.104 136.238C169.085 136.238 169.749 135.478 169.749 134.372C169.749 133.266 169.085 132.505 168.104 132.505C167.108 132.505 166.445 133.266 166.445 134.372C166.445 135.478 167.108 136.238 168.104 136.238ZM174.342 137.855L172.172 130.888H174.204L175.241 135.021L176.513 130.888H178.352L179.623 135.021L180.66 130.888H182.692L180.522 137.855H178.752L177.439 133.68L176.112 137.855H174.342ZM190.131 137.911C188.43 138.187 187.048 137.538 187.048 135.671V128.068H189.08V135.381C189.08 136.197 189.44 136.197 189.993 136.197L190.131 137.911ZM192.256 129.962C191.565 129.962 191.053 129.422 191.053 128.745C191.053 128.082 191.565 127.542 192.256 127.542C192.961 127.542 193.5 128.082 193.5 128.745C193.5 129.422 192.961 129.962 192.256 129.962ZM191.247 137.855V130.888H193.279V137.855H191.247ZM194.851 137.855V130.888H196.884V131.828C197.284 131.206 197.92 130.777 198.847 130.777C199.925 130.777 200.602 131.22 200.948 132.022C201.321 131.358 202.165 130.777 203.298 130.777C204.805 130.777 205.8 131.786 205.8 133.114V137.855H203.782V133.708C203.782 132.948 203.367 132.478 202.648 132.478C201.805 132.478 201.321 133.169 201.321 134.289V137.855H199.317V133.708C199.317 132.948 198.902 132.478 198.197 132.478C197.367 132.478 196.884 133.183 196.884 134.289V137.855H194.851ZM208.389 129.962C207.698 129.962 207.186 129.422 207.186 128.745C207.186 128.082 207.698 127.542 208.389 127.542C209.094 127.542 209.633 128.082 209.633 128.745C209.633 129.422 209.094 129.962 208.389 129.962ZM207.38 137.855V130.888H209.412V137.855H207.38ZM215.325 137.786C214.994 137.897 214.607 137.966 214.192 137.966C212.685 137.966 211.537 137.164 211.537 135.478V132.574H210.432V130.888H211.537V128.87H213.57V130.888H215.256V132.574H213.57V135.215C213.57 135.837 213.901 136.197 214.399 136.197C214.648 136.197 214.952 136.155 215.187 136.031L215.325 137.786ZM220.756 129.962C220.064 129.962 219.553 129.422 219.553 128.745C219.553 128.082 220.064 127.542 220.756 127.542C221.461 127.542 222 128.082 222 128.745C222 129.422 221.461 129.962 220.756 129.962ZM219.746 137.855V130.888H221.779V137.855H219.746ZM223.351 137.855V130.888H225.383V131.814C225.798 131.206 226.558 130.777 227.512 130.777C229.047 130.777 230.07 131.773 230.07 133.307V137.855H228.051V133.846C228.051 133.086 227.581 132.574 226.849 132.574C225.881 132.574 225.383 133.362 225.383 134.8V137.855H223.351ZM235.031 137.855V128.178H241.681V130.045H237.215V131.814H240.754V133.694H237.215V135.975H241.833V137.855H235.031ZM249.338 137.855H247.126L245.923 136.017L244.707 137.855H242.509L244.831 134.358L242.536 130.888H244.707L245.923 132.713L247.126 130.888H249.297L247.016 134.358L249.338 137.855ZM253.141 137.966C251.04 137.966 249.574 136.487 249.574 134.372C249.574 132.257 251.04 130.777 253.141 130.777C255.008 130.777 256.307 131.717 256.528 133.252L254.565 133.639C254.455 132.948 253.943 132.505 253.224 132.505C252.27 132.505 251.662 133.238 251.662 134.372C251.662 135.505 252.284 136.238 253.224 136.238C253.943 136.238 254.399 135.823 254.537 135.187L256.514 135.588C256.266 137.054 254.98 137.966 253.141 137.966ZM264.455 134.192C264.455 134.468 264.441 134.8 264.427 134.952H259.423C259.616 135.809 260.197 136.279 261.054 136.279C261.745 136.279 262.257 135.962 262.409 135.381L264.317 135.892C263.902 137.206 262.658 137.966 260.999 137.966C258.593 137.966 257.418 136.1 257.418 134.372C257.418 132.644 258.469 130.777 260.874 130.777C263.391 130.777 264.455 132.644 264.455 134.192ZM259.451 133.515H262.285C262.215 132.81 261.773 132.284 260.874 132.284C260.142 132.284 259.644 132.699 259.451 133.515ZM268.772 137.911C267.071 138.187 265.689 137.538 265.689 135.671V128.068H267.721V135.381C267.721 136.197 268.08 136.197 268.633 136.197L268.772 137.911ZM271.09 137.966C270.413 137.966 269.887 137.455 269.887 136.791C269.887 136.114 270.413 135.602 271.09 135.602C271.768 135.602 272.293 136.114 272.293 136.791C272.293 137.455 271.768 137.966 271.09 137.966ZM37.3861 154.855V145.178H41.0635C42.9436 145.178 44.1602 146.284 44.1602 147.985C44.1602 149.685 42.9436 150.791 41.0635 150.791H38.6442V154.855H37.3861ZM38.6442 149.657H41.022C42.1694 149.657 42.8607 149.035 42.8607 147.985C42.8607 146.934 42.1694 146.298 41.022 146.298H38.6442V149.657ZM47.6286 154.952C46.3844 155.077 45.4582 154.607 45.4582 153.155V145.068H46.6333V153.072C46.6333 153.832 46.9927 153.943 47.5733 153.902L47.6286 154.952ZM55.2993 151.054C55.2993 151.22 55.2855 151.468 55.2717 151.593H49.7695C49.8524 153.003 50.7372 153.929 51.9953 153.929C53.0597 153.929 53.7924 153.432 53.9998 152.561L55.1058 152.823C54.7602 154.178 53.5989 154.966 51.9953 154.966C49.9077 154.966 48.5944 153.349 48.5944 151.372C48.5944 149.395 49.8663 147.777 51.9676 147.777C54.0275 147.777 55.2993 149.257 55.2993 151.054ZM49.8386 150.611H54.0551C53.9445 149.547 53.198 148.759 51.9676 148.759C50.8755 148.759 50.0736 149.45 49.8386 150.611ZM59.3437 147.777C61.0302 147.777 62.2053 148.773 62.2053 150.39V154.855H61.0441V153.667C60.6432 154.468 59.7307 154.966 58.7215 154.966C57.3253 154.966 56.3714 154.109 56.3714 152.906C56.3714 151.565 57.4635 150.833 59.6893 150.611L61.0441 150.459V150.321C61.0441 149.367 60.3667 148.759 59.3437 148.759C58.3898 148.759 57.7124 149.326 57.6156 150.266L56.5234 150.058C56.7308 148.676 57.8782 147.777 59.3437 147.777ZM58.9013 153.998C60.2561 153.998 61.0441 153.1 61.0441 151.703V151.372L59.6893 151.524C58.2792 151.676 57.5465 152.16 57.5465 152.892C57.5465 153.542 58.0994 153.998 58.9013 153.998ZM66.4523 154.966C64.7657 154.966 63.8533 153.915 63.5491 152.934L64.5583 152.491C64.821 153.307 65.374 153.971 66.4523 153.971C67.3094 153.971 67.8624 153.473 67.8624 152.906C67.8624 151.123 63.8533 152.27 63.8533 149.63C63.8533 148.524 64.8072 147.777 66.3002 147.777C67.5306 147.777 68.5951 148.469 68.8854 149.492L67.9039 149.92C67.7103 149.201 67.0191 148.745 66.2726 148.745C65.4846 148.745 64.9869 149.063 64.9869 149.616C64.9869 151.109 69.0237 150.017 69.0098 152.892C69.0098 154.109 67.9868 154.966 66.4523 154.966ZM76.7517 151.054C76.7517 151.22 76.7379 151.468 76.724 151.593H71.2219C71.3048 153.003 72.1896 153.929 73.4476 153.929C74.5121 153.929 75.2448 153.432 75.4522 152.561L76.5581 152.823C76.2125 154.178 75.0513 154.966 73.4476 154.966C71.3601 154.966 70.0468 153.349 70.0468 151.372C70.0468 149.395 71.3186 147.777 73.42 147.777C75.4798 147.777 76.7517 149.257 76.7517 151.054ZM71.291 150.611H75.5075C75.3969 149.547 74.6504 148.759 73.42 148.759C72.3278 148.759 71.526 149.45 71.291 150.611ZM83.9355 154.966C82.2489 154.966 81.3365 153.915 81.0323 152.934L82.0415 152.491C82.3042 153.307 82.8572 153.971 83.9355 153.971C84.7926 153.971 85.3456 153.473 85.3456 152.906C85.3456 151.123 81.3365 152.27 81.3365 149.63C81.3365 148.524 82.2904 147.777 83.7834 147.777C85.0138 147.777 86.0783 148.469 86.3686 149.492L85.3871 149.92C85.1935 149.201 84.5023 148.745 83.7558 148.745C82.9678 148.745 82.4701 149.063 82.4701 149.616C82.4701 151.109 86.5069 150.017 86.493 152.892C86.493 154.109 85.47 154.966 83.9355 154.966ZM94.2349 151.054C94.2349 151.22 94.2211 151.468 94.2073 151.593H88.7051C88.788 153.003 89.6728 153.929 90.9308 153.929C91.9953 153.929 92.728 153.432 92.9354 152.561L94.0414 152.823C93.6957 154.178 92.5345 154.966 90.9308 154.966C88.8433 154.966 87.53 153.349 87.53 151.372C87.53 149.395 88.8018 147.777 90.9032 147.777C92.963 147.777 94.2349 149.257 94.2349 151.054ZM88.7742 150.611H92.9907C92.8801 149.547 92.1336 148.759 90.9032 148.759C89.811 148.759 89.0092 149.45 88.7742 150.611ZM97.9182 154.952C96.674 155.077 95.7477 154.607 95.7477 153.155V145.068H96.9228V153.072C96.9228 153.832 97.2822 153.943 97.8629 153.902L97.9182 154.952ZM105.589 151.054C105.589 151.22 105.575 151.468 105.561 151.593H100.059C100.142 153.003 101.027 153.929 102.285 153.929C103.349 153.929 104.082 153.432 104.289 152.561L105.395 152.823C105.05 154.178 103.888 154.966 102.285 154.966C100.197 154.966 98.8839 153.349 98.8839 151.372C98.8839 149.395 100.156 147.777 102.257 147.777C104.317 147.777 105.589 149.257 105.589 151.054ZM100.128 150.611H104.345C104.234 149.547 103.488 148.759 102.257 148.759C101.165 148.759 100.363 149.45 100.128 150.611ZM110.157 154.966C108.083 154.966 106.701 153.528 106.701 151.372C106.701 149.215 108.083 147.777 110.157 147.777C111.774 147.777 112.963 148.662 113.212 150.045L112.051 150.28C111.899 149.436 111.166 148.828 110.185 148.828C108.816 148.828 107.931 149.837 107.931 151.372C107.931 152.906 108.816 153.915 110.185 153.915C111.166 153.915 111.885 153.376 112.079 152.45L113.226 152.685C112.922 154.123 111.761 154.966 110.157 154.966ZM118.299 154.8C117.954 154.925 117.581 154.966 117.207 154.966C116.018 154.966 115.147 154.302 115.147 152.768V148.925H113.848V147.888H115.147V145.773H116.323V147.888H118.189V148.925H116.323V152.809C116.323 153.542 116.737 153.902 117.346 153.902C117.622 153.902 117.94 153.86 118.217 153.722L118.299 154.8ZM125.604 147.777C127.291 147.777 128.466 148.773 128.466 150.39V154.855H127.305V153.667C126.904 154.468 125.991 154.966 124.982 154.966C123.586 154.966 122.632 154.109 122.632 152.906C122.632 151.565 123.724 150.833 125.95 150.611L127.305 150.459V150.321C127.305 149.367 126.627 148.759 125.604 148.759C124.65 148.759 123.973 149.326 123.876 150.266L122.784 150.058C122.991 148.676 124.139 147.777 125.604 147.777ZM125.162 153.998C126.517 153.998 127.305 153.1 127.305 151.703V151.372L125.95 151.524C124.54 151.676 123.807 152.16 123.807 152.892C123.807 153.542 124.36 153.998 125.162 153.998ZM136.048 154.966C134.361 154.966 133.449 153.915 133.144 152.934L134.154 152.491C134.416 153.307 134.969 153.971 136.048 153.971C136.905 153.971 137.458 153.473 137.458 152.906C137.458 151.123 133.449 152.27 133.449 149.63C133.449 148.524 134.402 147.777 135.896 147.777C137.126 147.777 138.19 148.469 138.481 149.492L137.499 149.92C137.306 149.201 136.614 148.745 135.868 148.745C135.08 148.745 134.582 149.063 134.582 149.616C134.582 151.109 138.619 150.017 138.605 152.892C138.605 154.109 137.582 154.966 136.048 154.966ZM140.097 154.855V145.068H141.272V149.257C141.784 148.261 142.627 147.777 143.65 147.777C145.226 147.777 146.263 148.759 146.263 150.266V154.855H145.088V150.487C145.088 149.464 144.452 148.842 143.387 148.842C142.102 148.842 141.272 150.003 141.272 151.869V154.855H140.097ZM151.309 154.966C149.235 154.966 147.769 153.459 147.769 151.372C147.769 149.284 149.235 147.777 151.309 147.777C153.368 147.777 154.861 149.284 154.861 151.372C154.861 153.459 153.368 154.966 151.309 154.966ZM151.309 153.915C152.705 153.915 153.645 152.865 153.645 151.372C153.645 149.879 152.705 148.828 151.309 148.828C149.912 148.828 148.972 149.879 148.972 151.372C148.972 152.865 149.912 153.915 151.309 153.915ZM159.904 148.952C159.904 148.952 159.711 148.897 159.434 148.897C158.342 148.897 157.54 149.934 157.54 152.201V154.855H156.365V147.888H157.54V149.298C157.9 148.413 158.729 147.777 159.586 147.777C159.821 147.777 159.973 147.805 159.973 147.805L159.904 148.952ZM165.268 154.8C164.922 154.925 164.549 154.966 164.176 154.966C162.987 154.966 162.116 154.302 162.116 152.768V148.925H160.816V147.888H162.116V145.773H163.291V147.888H165.157V148.925H163.291V152.809C163.291 153.542 163.706 153.902 164.314 153.902C164.59 153.902 164.908 153.86 165.185 153.722L165.268 154.8ZM172.768 151.054C172.768 151.22 172.754 151.468 172.74 151.593H167.238C167.321 153.003 168.205 153.929 169.464 153.929C170.528 153.929 171.261 153.432 171.468 152.561L172.574 152.823C172.228 154.178 171.067 154.966 169.464 154.966C167.376 154.966 166.063 153.349 166.063 151.372C166.063 149.395 167.335 147.777 169.436 147.777C171.496 147.777 172.768 149.257 172.768 151.054ZM167.307 150.611H171.523C171.413 149.547 170.666 148.759 169.436 148.759C168.344 148.759 167.542 149.45 167.307 150.611ZM178.359 149.035C178.096 148.925 177.764 148.869 177.46 148.869C176.354 148.869 175.455 149.934 175.455 152.201V154.855H174.28V147.888H175.455V149.298C175.856 148.413 176.769 147.777 177.626 147.777C177.916 147.777 178.193 147.819 178.428 147.902L178.359 149.035ZM185.866 154.966C183.695 154.966 182.506 153.418 182.506 151.372C182.506 149.326 183.695 147.777 185.852 147.777C186.778 147.777 187.691 148.234 188.133 148.883V145.068H189.308V154.855H188.133V153.846C187.815 154.482 186.889 154.966 185.866 154.966ZM185.976 153.915C187.345 153.915 188.244 152.906 188.244 151.372C188.244 149.837 187.345 148.828 185.976 148.828C184.608 148.828 183.709 149.837 183.709 151.372C183.709 152.906 184.608 153.915 185.976 153.915ZM193.809 147.777C195.496 147.777 196.671 148.773 196.671 150.39V154.855H195.51V153.667C195.109 154.468 194.196 154.966 193.187 154.966C191.791 154.966 190.837 154.109 190.837 152.906C190.837 151.565 191.929 150.833 194.155 150.611L195.51 150.459V150.321C195.51 149.367 194.832 148.759 193.809 148.759C192.855 148.759 192.178 149.326 192.081 150.266L190.989 150.058C191.196 148.676 192.344 147.777 193.809 147.777ZM193.367 153.998C194.722 153.998 195.51 153.1 195.51 151.703V151.372L194.155 151.524C192.745 151.676 192.012 152.16 192.012 152.892C192.012 153.542 192.565 153.998 193.367 153.998ZM202.246 154.8C201.9 154.925 201.527 154.966 201.154 154.966C199.965 154.966 199.094 154.302 199.094 152.768V148.925H197.794V147.888H199.094V145.773H200.269V147.888H202.135V148.925H200.269V152.809C200.269 153.542 200.684 153.902 201.292 153.902C201.568 153.902 201.886 153.86 202.163 153.722L202.246 154.8ZM209.746 151.054C209.746 151.22 209.732 151.468 209.718 151.593H204.216C204.299 153.003 205.183 153.929 206.442 153.929C207.506 153.929 208.239 153.432 208.446 152.561L209.552 152.823C209.206 154.178 208.045 154.966 206.442 154.966C204.354 154.966 203.041 153.349 203.041 151.372C203.041 149.395 204.313 147.777 206.414 147.777C208.474 147.777 209.746 149.257 209.746 151.054ZM204.285 150.611H208.501C208.391 149.547 207.644 148.759 206.414 148.759C205.322 148.759 204.52 149.45 204.285 150.611ZM218.671 149.035C218.409 148.925 218.077 148.869 217.773 148.869C216.667 148.869 215.768 149.934 215.768 152.201V154.855H214.593V147.888H215.768V149.298C216.169 148.413 217.081 147.777 217.939 147.777C218.229 147.777 218.505 147.819 218.74 147.902L218.671 149.035ZM222.241 147.777C223.928 147.777 225.103 148.773 225.103 150.39V154.855H223.942V153.667C223.541 154.468 222.628 154.966 221.619 154.966C220.223 154.966 219.269 154.109 219.269 152.906C219.269 151.565 220.361 150.833 222.587 150.611L223.942 150.459V150.321C223.942 149.367 223.264 148.759 222.241 148.759C221.287 148.759 220.61 149.326 220.513 150.266L219.421 150.058C219.628 148.676 220.776 147.777 222.241 147.777ZM221.799 153.998C223.154 153.998 223.942 153.1 223.942 151.703V151.372L222.587 151.524C221.177 151.676 220.444 152.16 220.444 152.892C220.444 153.542 220.997 153.998 221.799 153.998ZM227.014 154.855V147.888H228.189V149.201C228.672 148.372 229.516 147.777 230.58 147.777C232.032 147.777 233.069 148.759 233.069 150.238V154.855H231.894V150.459C231.894 149.519 231.299 148.842 230.318 148.842C229.018 148.842 228.189 149.962 228.189 151.8V154.855H227.014ZM238.559 153.501C239.956 153.501 240.923 154.081 240.923 155.367C240.923 156.763 239.624 157.482 237.716 157.482C235.739 157.482 234.509 156.777 234.509 155.491C234.509 154.883 234.841 154.385 235.255 154.067C234.91 153.832 234.702 153.487 234.702 152.989C234.702 152.381 235.103 151.925 235.642 151.676C235.269 151.275 235.062 150.75 235.062 150.127C235.062 148.717 236.195 147.777 237.702 147.777C238.159 147.777 238.587 147.874 238.974 148.054L240.066 147.114L240.744 147.888L239.817 148.676C240.149 149.063 240.343 149.561 240.343 150.127C240.343 151.565 239.223 152.478 237.702 152.478C237.205 152.478 236.776 152.381 236.403 152.215C236.002 152.395 235.836 152.63 235.836 152.92C235.836 153.349 236.237 153.501 236.693 153.501H238.559ZM237.702 148.731C236.9 148.731 236.209 149.257 236.209 150.127C236.209 151.012 236.9 151.524 237.702 151.524C238.504 151.524 239.195 151.012 239.195 150.127C239.195 149.257 238.504 148.731 237.702 148.731ZM237.716 156.487C239.043 156.487 239.776 156.114 239.776 155.45C239.776 154.703 239.223 154.455 238.394 154.455H236.914C236.665 154.455 236.43 154.441 236.209 154.413C235.781 154.703 235.656 155.077 235.656 155.478C235.656 156.114 236.361 156.487 237.716 156.487ZM248.546 151.054C248.546 151.22 248.532 151.468 248.519 151.593H243.016C243.099 153.003 243.984 153.929 245.242 153.929C246.307 153.929 247.039 153.432 247.247 152.561L248.353 152.823C248.007 154.178 246.846 154.966 245.242 154.966C243.155 154.966 241.841 153.349 241.841 151.372C241.841 149.395 243.113 147.777 245.214 147.777C247.274 147.777 248.546 149.257 248.546 151.054ZM243.085 150.611H247.302C247.191 149.547 246.445 148.759 245.214 148.759C244.122 148.759 243.32 149.45 243.085 150.611ZM250.484 154.966C249.986 154.966 249.64 154.62 249.64 154.137C249.64 153.667 249.986 153.307 250.484 153.307C250.954 153.307 251.327 153.667 251.327 154.137C251.327 154.62 250.954 154.966 250.484 154.966Z" fill="#454545"/>
<g clip-path="url(#clip1_1023_12167)">
<path d="M357.25 128.42C356.913 128.083 356.369 128.083 356.032 128.42L351.807 132.636L347.581 128.411C347.244 128.074 346.7 128.074 346.363 128.411C346.026 128.748 346.026 129.292 346.363 129.629L350.588 133.854L346.363 138.079C346.026 138.416 346.026 138.961 346.363 139.298C346.7 139.635 347.244 139.635 347.581 139.298L351.807 135.073L356.032 139.298C356.369 139.635 356.913 139.635 357.25 139.298C357.587 138.961 357.587 138.416 357.25 138.079L353.025 133.854L357.25 129.629C357.578 129.301 357.578 128.748 357.25 128.42Z" fill="#8C8C8C"/>
</g>
</g>
<g filter="url(#filter2_d_1023_12167)">
<rect x="7" y="207" width="369" height="73" rx="3.45614" fill="#FDE5CE" shape-rendering="crispEdges"/>
<rect x="7.43202" y="207.432" width="368.136" height="72.136" rx="3.02412" stroke="#F7993B" stroke-width="0.864035" shape-rendering="crispEdges"/>
<path d="M7 210.667C7 208.758 8.54737 207.21 10.4561 207.21H22.5526V279.789H10.4561C8.54736 279.789 7 278.242 7 276.333V210.667Z" fill="#F7993B"/>
<path d="M37.2479 239.355V229.678H40.552C43.2063 229.678 45.5703 231.199 45.5703 234.517C45.5703 237.835 43.2063 239.355 40.552 239.355H37.2479ZM39.3907 237.475H40.317C41.8791 237.475 43.3722 236.756 43.3722 234.517C43.3722 232.277 41.8791 231.545 40.317 231.545H39.3907V237.475ZM50.1361 239.466C47.9794 239.466 46.4587 237.945 46.4587 235.872C46.4587 233.798 47.9794 232.277 50.1361 232.277C52.265 232.277 53.8134 233.798 53.8134 235.872C53.8134 237.945 52.265 239.466 50.1361 239.466ZM50.1361 237.738C51.1176 237.738 51.7812 236.978 51.7812 235.872C51.7812 234.766 51.1176 234.005 50.1361 234.005C49.1407 234.005 48.4771 234.766 48.4771 235.872C48.4771 236.978 49.1407 237.738 50.1361 237.738ZM56.3746 239.355L54.2042 232.388H56.2364L57.2732 236.521L58.5451 232.388H60.3837L61.6556 236.521L62.6924 232.388H64.7246L62.5542 239.355H60.7846L59.4713 235.18L58.1442 239.355H56.3746ZM65.7726 239.355V232.388H67.8048V233.314C68.2196 232.706 68.9799 232.277 69.9338 232.277C71.4683 232.277 72.4914 233.273 72.4914 234.807V239.355H70.473V235.346C70.473 234.586 70.0029 234.074 69.2702 234.074C68.3025 234.074 67.8048 234.862 67.8048 236.3V239.355H65.7726ZM77.1448 239.411C75.4444 239.687 74.0619 239.038 74.0619 237.171V229.568H76.0942V236.881C76.0942 237.697 76.4536 237.697 77.0066 237.697L77.1448 239.411ZM81.5923 239.466C79.4357 239.466 77.915 237.945 77.915 235.872C77.915 233.798 79.4357 232.277 81.5923 232.277C83.7213 232.277 85.2697 233.798 85.2697 235.872C85.2697 237.945 83.7213 239.466 81.5923 239.466ZM81.5923 237.738C82.5739 237.738 83.2375 236.978 83.2375 235.872C83.2375 234.766 82.5739 234.005 81.5923 234.005C80.597 234.005 79.9334 234.766 79.9334 235.872C79.9334 236.978 80.597 237.738 81.5923 237.738ZM89.1924 232.277C91.0864 232.277 92.372 233.259 92.372 235.222V239.355H90.409V238.471C90.008 239.079 89.22 239.466 88.4459 239.466C87.0911 239.466 86.1372 238.554 86.1372 237.392C86.1372 236.01 87.1464 235.263 89.1509 235.056L90.409 234.932V234.89C90.409 234.199 89.9389 233.784 89.1924 233.784C88.5288 233.784 88.045 234.185 87.9758 234.862L86.2063 234.531C86.4275 233.162 87.6993 232.277 89.1924 232.277ZM88.9436 238.014C89.856 238.014 90.3951 237.282 90.409 236.466V236.452V236.411V236.356L89.1094 236.508C88.4182 236.577 88.0726 236.922 88.0726 237.323C88.0726 237.71 88.3767 238.014 88.9436 238.014ZM96.8791 239.466C94.833 239.466 93.6026 238.056 93.6026 235.872C93.6026 233.687 94.833 232.277 96.8514 232.277C97.6947 232.277 98.3445 232.581 98.7316 233.051V229.568H100.764V239.355H98.7316V238.664C98.3721 239.162 97.6671 239.466 96.8791 239.466ZM97.2109 237.738C98.2062 237.738 98.856 236.991 98.856 235.872C98.856 234.752 98.2062 234.005 97.2109 234.005C96.2431 234.005 95.5796 234.752 95.5796 235.872C95.5796 236.991 96.2431 237.738 97.2109 237.738ZM108.736 239.411C107.036 239.687 105.653 239.038 105.653 237.171V229.568H107.685V236.881C107.685 237.697 108.045 237.697 108.598 237.697L108.736 239.411ZM110.861 231.462C110.17 231.462 109.658 230.922 109.658 230.245C109.658 229.582 110.17 229.042 110.861 229.042C111.566 229.042 112.105 229.582 112.105 230.245C112.105 230.922 111.566 231.462 110.861 231.462ZM109.852 239.355V232.388H111.884V239.355H109.852ZM113.457 239.355V232.388H115.489V233.328C115.89 232.706 116.526 232.277 117.452 232.277C118.53 232.277 119.208 232.72 119.553 233.522C119.926 232.858 120.77 232.277 121.903 232.277C123.41 232.277 124.406 233.286 124.406 234.614V239.355H122.387V235.208C122.387 234.448 121.972 233.978 121.254 233.978C120.41 233.978 119.926 234.669 119.926 235.789V239.355H117.922V235.208C117.922 234.448 117.507 233.978 116.802 233.978C115.973 233.978 115.489 234.683 115.489 235.789V239.355H113.457ZM126.994 231.462C126.303 231.462 125.792 230.922 125.792 230.245C125.792 229.582 126.303 229.042 126.994 229.042C127.699 229.042 128.238 229.582 128.238 230.245C128.238 230.922 127.699 231.462 126.994 231.462ZM125.985 239.355V232.388H128.017V239.355H125.985ZM133.931 239.286C133.599 239.397 133.212 239.466 132.797 239.466C131.29 239.466 130.143 238.664 130.143 236.978V234.074H129.037V232.388H130.143V230.37H132.175V232.388H133.861V234.074H132.175V236.715C132.175 237.337 132.507 237.697 133.004 237.697C133.253 237.697 133.557 237.655 133.792 237.531L133.931 239.286ZM138.918 239.355V234.074H137.826V232.388H138.918V231.904C138.918 230.231 140.052 229.305 141.573 229.305C141.974 229.305 142.347 229.36 142.679 229.485L142.54 231.116C142.292 231.019 142.07 230.964 141.849 230.964C141.296 230.964 140.951 231.337 140.951 231.946V232.388H142.54V234.074H140.951V239.355H138.918ZM146.665 239.466C144.508 239.466 142.988 237.945 142.988 235.872C142.988 233.798 144.508 232.277 146.665 232.277C148.794 232.277 150.342 233.798 150.342 235.872C150.342 237.945 148.794 239.466 146.665 239.466ZM146.665 237.738C147.647 237.738 148.31 236.978 148.31 235.872C148.31 234.766 147.647 234.005 146.665 234.005C145.67 234.005 145.006 234.766 145.006 235.872C145.006 236.978 145.67 237.738 146.665 237.738ZM156.255 234.337C156.02 234.227 155.689 234.171 155.371 234.171C154.458 234.171 153.587 234.862 153.587 236.839V239.355H151.555V232.388H153.587V233.591C153.905 232.844 154.804 232.277 155.633 232.277C155.868 232.277 156.186 232.319 156.38 232.388L156.255 234.337ZM163.558 239.466C161.512 239.466 160.282 238.056 160.282 235.872C160.282 233.687 161.512 232.277 163.531 232.277C164.374 232.277 165.024 232.581 165.411 233.051V229.568H167.443V239.355H165.411V238.664C165.051 239.162 164.346 239.466 163.558 239.466ZM163.89 237.738C164.885 237.738 165.535 236.991 165.535 235.872C165.535 234.752 164.885 234.005 163.89 234.005C162.922 234.005 162.259 234.752 162.259 235.872C162.259 236.991 162.922 237.738 163.89 237.738ZM171.748 232.277C173.642 232.277 174.928 233.259 174.928 235.222V239.355H172.965V238.471C172.564 239.079 171.776 239.466 171.002 239.466C169.647 239.466 168.693 238.554 168.693 237.392C168.693 236.01 169.702 235.263 171.707 235.056L172.965 234.932V234.89C172.965 234.199 172.495 233.784 171.748 233.784C171.085 233.784 170.601 234.185 170.532 234.862L168.762 234.531C168.983 233.162 170.255 232.277 171.748 232.277ZM171.499 238.014C172.412 238.014 172.951 237.282 172.965 236.466V236.452V236.411V236.356L171.665 236.508C170.974 236.577 170.628 236.922 170.628 237.323C170.628 237.71 170.933 238.014 171.499 238.014ZM180.683 239.286C180.351 239.397 179.964 239.466 179.549 239.466C178.043 239.466 176.895 238.664 176.895 236.978V234.074H175.789V232.388H176.895V230.37H178.927V232.388H180.614V234.074H178.927V236.715C178.927 237.337 179.259 237.697 179.757 237.697C180.006 237.697 180.31 237.655 180.545 237.531L180.683 239.286ZM188.379 235.692C188.379 235.968 188.366 236.3 188.352 236.452H183.347C183.541 237.309 184.121 237.779 184.979 237.779C185.67 237.779 186.181 237.462 186.333 236.881L188.241 237.392C187.826 238.706 186.582 239.466 184.923 239.466C182.518 239.466 181.343 237.6 181.343 235.872C181.343 234.144 182.393 232.277 184.799 232.277C187.315 232.277 188.379 234.144 188.379 235.692ZM183.375 235.015H186.209C186.14 234.31 185.697 233.784 184.799 233.784C184.066 233.784 183.568 234.199 183.375 235.015ZM197.621 234.337C197.386 234.227 197.054 234.171 196.736 234.171C195.824 234.171 194.953 234.862 194.953 236.839V239.355H192.921V232.388H194.953V233.591C195.271 232.844 196.17 232.277 196.999 232.277C197.234 232.277 197.552 232.319 197.746 232.388L197.621 234.337ZM201.247 232.277C203.141 232.277 204.427 233.259 204.427 235.222V239.355H202.464V238.471C202.063 239.079 201.275 239.466 200.5 239.466C199.146 239.466 198.192 238.554 198.192 237.392C198.192 236.01 199.201 235.263 201.205 235.056L202.464 234.932V234.89C202.464 234.199 201.993 233.784 201.247 233.784C200.583 233.784 200.1 234.185 200.03 234.862L198.261 234.531C198.482 233.162 199.754 232.277 201.247 232.277ZM200.998 238.014C201.911 238.014 202.45 237.282 202.464 236.466V236.452V236.411V236.356L201.164 236.508C200.473 236.577 200.127 236.922 200.127 237.323C200.127 237.71 200.431 238.014 200.998 238.014ZM206.003 239.355V232.388H208.035V233.314C208.45 232.706 209.21 232.277 210.164 232.277C211.699 232.277 212.722 233.273 212.722 234.807V239.355H210.703V235.346C210.703 234.586 210.233 234.074 209.5 234.074C208.533 234.074 208.035 234.862 208.035 236.3V239.355H206.003ZM218.066 237.835C219.767 237.835 220.734 238.567 220.734 239.826C220.734 241.443 219.103 241.982 217.264 241.982C215.177 241.982 213.781 241.374 213.781 239.978C213.781 239.549 214.029 239.024 214.43 238.678C214.168 238.415 214.016 238.097 214.016 237.738C214.016 237.061 214.417 236.563 215.039 236.286C214.638 235.886 214.403 235.333 214.403 234.683C214.403 233.231 215.564 232.277 217.251 232.277C217.721 232.277 218.135 232.346 218.509 232.485L219.504 231.365L220.679 232.388L219.739 233.439C219.974 233.784 220.098 234.213 220.098 234.683C220.098 236.134 218.951 237.074 217.251 237.074C216.933 237.074 216.642 237.047 216.366 236.978C216.089 237.116 215.937 237.296 215.937 237.475C215.937 237.724 216.172 237.835 216.546 237.835H218.066ZM217.251 233.812C216.67 233.812 216.269 234.157 216.269 234.683C216.269 235.194 216.67 235.54 217.251 235.54C217.804 235.54 218.218 235.194 218.218 234.683C218.218 234.157 217.804 233.812 217.251 233.812ZM217.264 240.378C218.357 240.378 218.771 240.213 218.771 239.839C218.771 239.452 218.37 239.383 217.707 239.383H216.518C216.311 239.383 216.117 239.369 215.923 239.342C215.785 239.521 215.744 239.66 215.744 239.839C215.744 240.213 216.089 240.378 217.264 240.378ZM228.409 235.692C228.409 235.968 228.395 236.3 228.381 236.452H223.376C223.57 237.309 224.151 237.779 225.008 237.779C225.699 237.779 226.21 237.462 226.362 236.881L228.27 237.392C227.856 238.706 226.611 239.466 224.952 239.466C222.547 239.466 221.372 237.6 221.372 235.872C221.372 234.144 222.422 232.277 224.828 232.277C227.344 232.277 228.409 234.144 228.409 235.692ZM223.404 235.015H226.238C226.169 234.31 225.727 233.784 224.828 233.784C224.095 233.784 223.598 234.199 223.404 235.015ZM233.959 231.462C233.268 231.462 232.756 230.922 232.756 230.245C232.756 229.582 233.268 229.042 233.959 229.042C234.664 229.042 235.203 229.582 235.203 230.245C235.203 230.922 234.664 231.462 233.959 231.462ZM232.95 239.355V232.388H234.982V239.355H232.95ZM239.043 239.466C237.343 239.466 236.292 238.429 235.932 237.379L237.564 236.743C237.73 237.392 238.269 237.932 239.043 237.932C239.582 237.932 239.942 237.669 239.942 237.282C239.942 236.19 236.25 236.922 236.25 234.282C236.25 233.19 237.204 232.277 238.739 232.277C240.163 232.277 241.338 232.969 241.656 233.978L240.025 234.655C239.845 234.019 239.278 233.729 238.808 233.729C238.352 233.729 238.034 233.922 238.034 234.227C238.034 235.333 241.78 234.42 241.78 237.24C241.78 238.443 240.674 239.466 239.043 239.466ZM248.018 239.355V232.001C247.368 232.485 246.663 232.83 245.834 232.996V231.047C246.704 230.84 247.658 230.3 248.391 229.678H250.036V239.355H248.018ZM259.545 232.388H261.618L257.941 241.872H255.867L256.973 239.01L254.291 232.388H256.489L257.982 236.425L259.545 232.388ZM268.856 235.692C268.856 235.968 268.842 236.3 268.829 236.452H263.824C264.018 237.309 264.598 237.779 265.455 237.779C266.147 237.779 266.658 237.462 266.81 236.881L268.718 237.392C268.303 238.706 267.059 239.466 265.4 239.466C262.995 239.466 261.819 237.6 261.819 235.872C261.819 234.144 262.87 232.277 265.276 232.277C267.792 232.277 268.856 234.144 268.856 235.692ZM263.852 235.015H266.686C266.617 234.31 266.174 233.784 265.276 233.784C264.543 233.784 264.045 234.199 263.852 235.015ZM272.8 232.277C274.694 232.277 275.979 233.259 275.979 235.222V239.355H274.016V238.471C273.615 239.079 272.827 239.466 272.053 239.466C270.699 239.466 269.745 238.554 269.745 237.392C269.745 236.01 270.754 235.263 272.758 235.056L274.016 234.932V234.89C274.016 234.199 273.546 233.784 272.8 233.784C272.136 233.784 271.652 234.185 271.583 234.862L269.814 234.531C270.035 233.162 271.307 232.277 272.8 232.277ZM272.551 238.014C273.463 238.014 274.003 237.282 274.016 236.466V236.452V236.411V236.356L272.717 236.508C272.026 236.577 271.68 236.922 271.68 237.323C271.68 237.71 271.984 238.014 272.551 238.014ZM282.256 234.337C282.021 234.227 281.689 234.171 281.371 234.171C280.459 234.171 279.588 234.862 279.588 236.839V239.355H277.556V232.388H279.588V233.591C279.906 232.844 280.804 232.277 281.634 232.277C281.869 232.277 282.187 232.319 282.38 232.388L282.256 234.337ZM283.416 239.466C282.739 239.466 282.213 238.955 282.213 238.291C282.213 237.614 282.739 237.102 283.416 237.102C284.094 237.102 284.619 237.614 284.619 238.291C284.619 238.955 284.094 239.466 283.416 239.466ZM37.3861 256.355V246.678H41.0635C42.9436 246.678 44.1602 247.784 44.1602 249.485C44.1602 251.185 42.9436 252.291 41.0635 252.291H38.6442V256.355H37.3861ZM38.6442 251.157H41.022C42.1694 251.157 42.8607 250.535 42.8607 249.485C42.8607 248.434 42.1694 247.798 41.022 247.798H38.6442V251.157ZM47.6286 256.452C46.3844 256.577 45.4582 256.107 45.4582 254.655V246.568H46.6333V254.572C46.6333 255.332 46.9927 255.443 47.5733 255.402L47.6286 256.452ZM55.2993 252.554C55.2993 252.72 55.2855 252.968 55.2717 253.093H49.7695C49.8524 254.503 50.7372 255.429 51.9953 255.429C53.0597 255.429 53.7924 254.932 53.9998 254.061L55.1058 254.323C54.7602 255.678 53.5989 256.466 51.9953 256.466C49.9077 256.466 48.5944 254.849 48.5944 252.872C48.5944 250.895 49.8663 249.277 51.9676 249.277C54.0275 249.277 55.2993 250.757 55.2993 252.554ZM49.8386 252.111H54.0551C53.9445 251.047 53.198 250.259 51.9676 250.259C50.8755 250.259 50.0736 250.95 49.8386 252.111ZM59.3437 249.277C61.0302 249.277 62.2053 250.273 62.2053 251.89V256.355H61.0441V255.167C60.6432 255.968 59.7307 256.466 58.7215 256.466C57.3253 256.466 56.3714 255.609 56.3714 254.406C56.3714 253.065 57.4635 252.333 59.6893 252.111L61.0441 251.959V251.821C61.0441 250.867 60.3667 250.259 59.3437 250.259C58.3898 250.259 57.7124 250.826 57.6156 251.766L56.5234 251.558C56.7308 250.176 57.8782 249.277 59.3437 249.277ZM58.9013 255.498C60.2561 255.498 61.0441 254.6 61.0441 253.203V252.872L59.6893 253.024C58.2792 253.176 57.5465 253.66 57.5465 254.392C57.5465 255.042 58.0994 255.498 58.9013 255.498ZM66.4523 256.466C64.7657 256.466 63.8533 255.415 63.5491 254.434L64.5583 253.991C64.821 254.807 65.374 255.471 66.4523 255.471C67.3094 255.471 67.8624 254.973 67.8624 254.406C67.8624 252.623 63.8533 253.77 63.8533 251.13C63.8533 250.024 64.8072 249.277 66.3002 249.277C67.5306 249.277 68.5951 249.969 68.8854 250.992L67.9039 251.42C67.7103 250.701 67.0191 250.245 66.2726 250.245C65.4846 250.245 64.9869 250.563 64.9869 251.116C64.9869 252.609 69.0237 251.517 69.0098 254.392C69.0098 255.609 67.9868 256.466 66.4523 256.466ZM76.7517 252.554C76.7517 252.72 76.7379 252.968 76.724 253.093H71.2219C71.3048 254.503 72.1896 255.429 73.4476 255.429C74.5121 255.429 75.2448 254.932 75.4522 254.061L76.5581 254.323C76.2125 255.678 75.0513 256.466 73.4476 256.466C71.3601 256.466 70.0468 254.849 70.0468 252.872C70.0468 250.895 71.3186 249.277 73.42 249.277C75.4798 249.277 76.7517 250.757 76.7517 252.554ZM71.291 252.111H75.5075C75.3969 251.047 74.6504 250.259 73.42 250.259C72.3278 250.259 71.526 250.95 71.291 252.111ZM83.9355 256.466C82.2489 256.466 81.3365 255.415 81.0323 254.434L82.0415 253.991C82.3042 254.807 82.8572 255.471 83.9355 255.471C84.7926 255.471 85.3456 254.973 85.3456 254.406C85.3456 252.623 81.3365 253.77 81.3365 251.13C81.3365 250.024 82.2904 249.277 83.7834 249.277C85.0138 249.277 86.0783 249.969 86.3686 250.992L85.3871 251.42C85.1935 250.701 84.5023 250.245 83.7558 250.245C82.9678 250.245 82.4701 250.563 82.4701 251.116C82.4701 252.609 86.5069 251.517 86.493 254.392C86.493 255.609 85.47 256.466 83.9355 256.466ZM94.2349 252.554C94.2349 252.72 94.2211 252.968 94.2073 253.093H88.7051C88.788 254.503 89.6728 255.429 90.9308 255.429C91.9953 255.429 92.728 254.932 92.9354 254.061L94.0414 254.323C93.6957 255.678 92.5345 256.466 90.9308 256.466C88.8433 256.466 87.53 254.849 87.53 252.872C87.53 250.895 88.8018 249.277 90.9032 249.277C92.963 249.277 94.2349 250.757 94.2349 252.554ZM88.7742 252.111H92.9907C92.8801 251.047 92.1336 250.259 90.9032 250.259C89.811 250.259 89.0092 250.95 88.7742 252.111ZM97.9182 256.452C96.674 256.577 95.7477 256.107 95.7477 254.655V246.568H96.9228V254.572C96.9228 255.332 97.2822 255.443 97.8629 255.402L97.9182 256.452ZM105.589 252.554C105.589 252.72 105.575 252.968 105.561 253.093H100.059C100.142 254.503 101.027 255.429 102.285 255.429C103.349 255.429 104.082 254.932 104.289 254.061L105.395 254.323C105.05 255.678 103.888 256.466 102.285 256.466C100.197 256.466 98.8839 254.849 98.8839 252.872C98.8839 250.895 100.156 249.277 102.257 249.277C104.317 249.277 105.589 250.757 105.589 252.554ZM100.128 252.111H104.345C104.234 251.047 103.488 250.259 102.257 250.259C101.165 250.259 100.363 250.95 100.128 252.111ZM110.157 256.466C108.083 256.466 106.701 255.028 106.701 252.872C106.701 250.715 108.083 249.277 110.157 249.277C111.774 249.277 112.963 250.162 113.212 251.545L112.051 251.78C111.899 250.936 111.166 250.328 110.185 250.328C108.816 250.328 107.931 251.337 107.931 252.872C107.931 254.406 108.816 255.415 110.185 255.415C111.166 255.415 111.885 254.876 112.079 253.95L113.226 254.185C112.922 255.623 111.761 256.466 110.157 256.466ZM118.299 256.3C117.954 256.425 117.581 256.466 117.207 256.466C116.018 256.466 115.147 255.802 115.147 254.268V250.425H113.848V249.388H115.147V247.273H116.323V249.388H118.189V250.425H116.323V254.309C116.323 255.042 116.737 255.402 117.346 255.402C117.622 255.402 117.94 255.36 118.217 255.222L118.299 256.3ZM125.604 249.277C127.291 249.277 128.466 250.273 128.466 251.89V256.355H127.305V255.167C126.904 255.968 125.991 256.466 124.982 256.466C123.586 256.466 122.632 255.609 122.632 254.406C122.632 253.065 123.724 252.333 125.95 252.111L127.305 251.959V251.821C127.305 250.867 126.627 250.259 125.604 250.259C124.65 250.259 123.973 250.826 123.876 251.766L122.784 251.558C122.991 250.176 124.139 249.277 125.604 249.277ZM125.162 255.498C126.517 255.498 127.305 254.6 127.305 253.203V252.872L125.95 253.024C124.54 253.176 123.807 253.66 123.807 254.392C123.807 255.042 124.36 255.498 125.162 255.498ZM136.048 256.466C134.361 256.466 133.449 255.415 133.144 254.434L134.154 253.991C134.416 254.807 134.969 255.471 136.048 255.471C136.905 255.471 137.458 254.973 137.458 254.406C137.458 252.623 133.449 253.77 133.449 251.13C133.449 250.024 134.402 249.277 135.896 249.277C137.126 249.277 138.19 249.969 138.481 250.992L137.499 251.42C137.306 250.701 136.614 250.245 135.868 250.245C135.08 250.245 134.582 250.563 134.582 251.116C134.582 252.609 138.619 251.517 138.605 254.392C138.605 255.609 137.582 256.466 136.048 256.466ZM140.097 256.355V246.568H141.272V250.757C141.784 249.761 142.627 249.277 143.65 249.277C145.226 249.277 146.263 250.259 146.263 251.766V256.355H145.088V251.987C145.088 250.964 144.452 250.342 143.387 250.342C142.102 250.342 141.272 251.503 141.272 253.369V256.355H140.097ZM151.309 256.466C149.235 256.466 147.769 254.959 147.769 252.872C147.769 250.784 149.235 249.277 151.309 249.277C153.368 249.277 154.861 250.784 154.861 252.872C154.861 254.959 153.368 256.466 151.309 256.466ZM151.309 255.415C152.705 255.415 153.645 254.365 153.645 252.872C153.645 251.379 152.705 250.328 151.309 250.328C149.912 250.328 148.972 251.379 148.972 252.872C148.972 254.365 149.912 255.415 151.309 255.415ZM159.904 250.452C159.904 250.452 159.711 250.397 159.434 250.397C158.342 250.397 157.54 251.434 157.54 253.701V256.355H156.365V249.388H157.54V250.798C157.9 249.913 158.729 249.277 159.586 249.277C159.821 249.277 159.973 249.305 159.973 249.305L159.904 250.452ZM165.268 256.3C164.922 256.425 164.549 256.466 164.176 256.466C162.987 256.466 162.116 255.802 162.116 254.268V250.425H160.816V249.388H162.116V247.273H163.291V249.388H165.157V250.425H163.291V254.309C163.291 255.042 163.706 255.402 164.314 255.402C164.59 255.402 164.908 255.36 165.185 255.222L165.268 256.3ZM172.768 252.554C172.768 252.72 172.754 252.968 172.74 253.093H167.238C167.321 254.503 168.205 255.429 169.464 255.429C170.528 255.429 171.261 254.932 171.468 254.061L172.574 254.323C172.228 255.678 171.067 256.466 169.464 256.466C167.376 256.466 166.063 254.849 166.063 252.872C166.063 250.895 167.335 249.277 169.436 249.277C171.496 249.277 172.768 250.757 172.768 252.554ZM167.307 252.111H171.523C171.413 251.047 170.666 250.259 169.436 250.259C168.344 250.259 167.542 250.95 167.307 252.111ZM178.359 250.535C178.096 250.425 177.764 250.369 177.46 250.369C176.354 250.369 175.455 251.434 175.455 253.701V256.355H174.28V249.388H175.455V250.798C175.856 249.913 176.769 249.277 177.626 249.277C177.916 249.277 178.193 249.319 178.428 249.402L178.359 250.535ZM185.866 256.466C183.695 256.466 182.506 254.918 182.506 252.872C182.506 250.826 183.695 249.277 185.852 249.277C186.778 249.277 187.691 249.734 188.133 250.383V246.568H189.308V256.355H188.133V255.346C187.815 255.982 186.889 256.466 185.866 256.466ZM185.976 255.415C187.345 255.415 188.244 254.406 188.244 252.872C188.244 251.337 187.345 250.328 185.976 250.328C184.608 250.328 183.709 251.337 183.709 252.872C183.709 254.406 184.608 255.415 185.976 255.415ZM193.809 249.277C195.496 249.277 196.671 250.273 196.671 251.89V256.355H195.51V255.167C195.109 255.968 194.196 256.466 193.187 256.466C191.791 256.466 190.837 255.609 190.837 254.406C190.837 253.065 191.929 252.333 194.155 252.111L195.51 251.959V251.821C195.51 250.867 194.832 250.259 193.809 250.259C192.855 250.259 192.178 250.826 192.081 251.766L190.989 251.558C191.196 250.176 192.344 249.277 193.809 249.277ZM193.367 255.498C194.722 255.498 195.51 254.6 195.51 253.203V252.872L194.155 253.024C192.745 253.176 192.012 253.66 192.012 254.392C192.012 255.042 192.565 255.498 193.367 255.498ZM202.246 256.3C201.9 256.425 201.527 256.466 201.154 256.466C199.965 256.466 199.094 255.802 199.094 254.268V250.425H197.794V249.388H199.094V247.273H200.269V249.388H202.135V250.425H200.269V254.309C200.269 255.042 200.684 255.402 201.292 255.402C201.568 255.402 201.886 255.36 202.163 255.222L202.246 256.3ZM209.746 252.554C209.746 252.72 209.732 252.968 209.718 253.093H204.216C204.299 254.503 205.183 255.429 206.442 255.429C207.506 255.429 208.239 254.932 208.446 254.061L209.552 254.323C209.206 255.678 208.045 256.466 206.442 256.466C204.354 256.466 203.041 254.849 203.041 252.872C203.041 250.895 204.313 249.277 206.414 249.277C208.474 249.277 209.746 250.757 209.746 252.554ZM204.285 252.111H208.501C208.391 251.047 207.644 250.259 206.414 250.259C205.322 250.259 204.52 250.95 204.285 252.111ZM218.671 250.535C218.409 250.425 218.077 250.369 217.773 250.369C216.667 250.369 215.768 251.434 215.768 253.701V256.355H214.593V249.388H215.768V250.798C216.169 249.913 217.081 249.277 217.939 249.277C218.229 249.277 218.505 249.319 218.74 249.402L218.671 250.535ZM222.241 249.277C223.928 249.277 225.103 250.273 225.103 251.89V256.355H223.942V255.167C223.541 255.968 222.628 256.466 221.619 256.466C220.223 256.466 219.269 255.609 219.269 254.406C219.269 253.065 220.361 252.333 222.587 252.111L223.942 251.959V251.821C223.942 250.867 223.264 250.259 222.241 250.259C221.287 250.259 220.61 250.826 220.513 251.766L219.421 251.558C219.628 250.176 220.776 249.277 222.241 249.277ZM221.799 255.498C223.154 255.498 223.942 254.6 223.942 253.203V252.872L222.587 253.024C221.177 253.176 220.444 253.66 220.444 254.392C220.444 255.042 220.997 255.498 221.799 255.498ZM227.014 256.355V249.388H228.189V250.701C228.672 249.872 229.516 249.277 230.58 249.277C232.032 249.277 233.069 250.259 233.069 251.738V256.355H231.894V251.959C231.894 251.019 231.299 250.342 230.318 250.342C229.018 250.342 228.189 251.462 228.189 253.3V256.355H227.014ZM238.559 255.001C239.956 255.001 240.923 255.581 240.923 256.867C240.923 258.263 239.624 258.982 237.716 258.982C235.739 258.982 234.509 258.277 234.509 256.991C234.509 256.383 234.841 255.885 235.255 255.567C234.91 255.332 234.702 254.987 234.702 254.489C234.702 253.881 235.103 253.425 235.642 253.176C235.269 252.775 235.062 252.25 235.062 251.627C235.062 250.217 236.195 249.277 237.702 249.277C238.159 249.277 238.587 249.374 238.974 249.554L240.066 248.614L240.744 249.388L239.817 250.176C240.149 250.563 240.343 251.061 240.343 251.627C240.343 253.065 239.223 253.978 237.702 253.978C237.205 253.978 236.776 253.881 236.403 253.715C236.002 253.895 235.836 254.13 235.836 254.42C235.836 254.849 236.237 255.001 236.693 255.001H238.559ZM237.702 250.231C236.9 250.231 236.209 250.757 236.209 251.627C236.209 252.512 236.9 253.024 237.702 253.024C238.504 253.024 239.195 252.512 239.195 251.627C239.195 250.757 238.504 250.231 237.702 250.231ZM237.716 257.987C239.043 257.987 239.776 257.614 239.776 256.95C239.776 256.203 239.223 255.955 238.394 255.955H236.914C236.665 255.955 236.43 255.941 236.209 255.913C235.781 256.203 235.656 256.577 235.656 256.978C235.656 257.614 236.361 257.987 237.716 257.987ZM248.546 252.554C248.546 252.72 248.532 252.968 248.519 253.093H243.016C243.099 254.503 243.984 255.429 245.242 255.429C246.307 255.429 247.039 254.932 247.247 254.061L248.353 254.323C248.007 255.678 246.846 256.466 245.242 256.466C243.155 256.466 241.841 254.849 241.841 252.872C241.841 250.895 243.113 249.277 245.214 249.277C247.274 249.277 248.546 250.757 248.546 252.554ZM243.085 252.111H247.302C247.191 251.047 246.445 250.259 245.214 250.259C244.122 250.259 243.32 250.95 243.085 252.111ZM250.484 256.466C249.986 256.466 249.64 256.12 249.64 255.637C249.64 255.167 249.986 254.807 250.484 254.807C250.954 254.807 251.327 255.167 251.327 255.637C251.327 256.12 250.954 256.466 250.484 256.466Z" fill="#454545"/>
<g clip-path="url(#clip2_1023_12167)">
<path d="M357.25 230.499C356.913 230.162 356.369 230.162 356.032 230.499L351.807 234.715L347.581 230.49C347.244 230.153 346.7 230.153 346.363 230.49C346.026 230.827 346.026 231.371 346.363 231.708L350.588 235.933L346.363 240.159C346.026 240.496 346.026 241.04 346.363 241.377C346.7 241.714 347.244 241.714 347.581 241.377L351.807 237.152L356.032 241.377C356.369 241.714 356.913 241.714 357.25 241.377C357.587 241.04 357.587 240.496 357.25 240.159L353.025 235.933L357.25 231.708C357.578 231.38 357.578 230.827 357.25 230.499Z" fill="#8C8C8C"/>
</g>
</g>
<defs>
<filter id="filter0_d_1023_12167" x="0" y="0" width="383" height="87" filterUnits="userSpaceOnUse" color-interpolation-filters="sRGB">
<feFlood flood-opacity="0" result="BackgroundImageFix"/>
<feColorMatrix in="SourceAlpha" type="matrix" values="0 0 0 0 0 0 0 0 0 0 0 0 0 0 0 0 0 0 127 0" result="hardAlpha"/>
<feOffset dy="4"/>
<feGaussianBlur stdDeviation="3.5"/>
<feComposite in2="hardAlpha" operator="out"/>
<feColorMatrix type="matrix" values="0 0 0 0 0 0 0 0 0 0 0 0 0 0 0 0 0 0 0.1 0"/>
<feBlend mode="normal" in2="BackgroundImageFix" result="effect1_dropShadow_1023_12167"/>
<feBlend mode="normal" in="SourceGraphic" in2="effect1_dropShadow_1023_12167" result="shape"/>
</filter>
<filter id="filter1_d_1023_12167" x="0" y="102.71" width="383" height="86.5791" filterUnits="userSpaceOnUse" color-interpolation-filters="sRGB">
<feFlood flood-opacity="0" result="BackgroundImageFix"/>
<feColorMatrix in="SourceAlpha" type="matrix" values="0 0 0 0 0 0 0 0 0 0 0 0 0 0 0 0 0 0 127 0" result="hardAlpha"/>
<feOffset dy="4"/>
<feGaussianBlur stdDeviation="3.5"/>
<feComposite in2="hardAlpha" operator="out"/>
<feColorMatrix type="matrix" values="0 0 0 0 0 0 0 0 0 0 0 0 0 0 0 0 0 0 0.1 0"/>
<feBlend mode="normal" in2="BackgroundImageFix" result="effect1_dropShadow_1023_12167"/>
<feBlend mode="normal" in="SourceGraphic" in2="effect1_dropShadow_1023_12167" result="shape"/>
</filter>
<filter id="filter2_d_1023_12167" x="0" y="204" width="383" height="87" filterUnits="userSpaceOnUse" color-interpolation-filters="sRGB">
<feFlood flood-opacity="0" result="BackgroundImageFix"/>
<feColorMatrix in="SourceAlpha" type="matrix" values="0 0 0 0 0 0 0 0 0 0 0 0 0 0 0 0 0 0 127 0" result="hardAlpha"/>
<feOffset dy="4"/>
<feGaussianBlur stdDeviation="3.5"/>
<feComposite in2="hardAlpha" operator="out"/>
<feColorMatrix type="matrix" values="0 0 0 0 0 0 0 0 0 0 0 0 0 0 0 0 0 0 0.1 0"/>
<feBlend mode="normal" in2="BackgroundImageFix" result="effect1_dropShadow_1023_12167"/>
<feBlend mode="normal" in="SourceGraphic" in2="effect1_dropShadow_1023_12167" result="shape"/>
</filter>
<clipPath id="clip0_1023_12167">
<rect width="20.7368" height="20.7368" fill="white" transform="translate(341.438 21.3555)"/>
</clipPath>
<clipPath id="clip1_1023_12167">
<rect width="20.7368" height="20.7368" fill="white" transform="translate(341.438 123.855)"/>
</clipPath>
<clipPath id="clip2_1023_12167">
<rect width="20.7368" height="20.7368" fill="white" transform="translate(341.438 225.355)"/>
</clipPath>
</defs>
</svg>
