<svg width="64" height="64" viewBox="0 0 64 64" fill="none" xmlns="http://www.w3.org/2000/svg">
<path d="M32 60C47.464 60 60 47.464 60 32C60 16.536 47.464 4 32 4C16.536 4 4 16.536 4 32C4 47.464 16.536 60 32 60Z" fill="#F05656"/>
<path d="M28.1179 15.3013C28.0535 13.4974 29.4984 12 31.3034 12H33.1966C35.0016 12 36.4465 13.4974 36.3821 15.3013L35.5473 38.6763C35.486 40.3913 34.0779 41.75 32.3618 41.75H32.1382C30.4221 41.75 29.014 40.3913 28.9527 38.6763L28.1179 15.3013Z" fill="white"/>
<circle cx="32.25" cy="48.125" r="4.25" fill="white"/>
</svg>
