<svg viewBox="0 0 240 400" fill="none" xmlns="http://www.w3.org/2000/svg">
<rect width="240" height="400" rx="23.0739" fill="#F4F8FB"/>
<g filter="url(#filter0_d_936_9547)">
<g clip-path="url(#clip0_936_9547)">
<rect x="40" y="27" width="160" height="346.453" rx="8.58" fill="white"/>
<path d="M50.6898 106.812V102.499H53.4074V102.998H51.2506V104.267H53.0007V104.773H51.2506V106.307H53.4752V106.812H50.6898ZM54.1616 106.812V103.707H54.6853V104.292C54.901 103.922 55.2769 103.657 55.7514 103.657C56.3985 103.657 56.8606 104.095 56.8606 104.754V106.812H56.3368V104.853C56.3368 104.434 56.0719 104.132 55.6343 104.132C55.0551 104.132 54.6853 104.631 54.6853 105.451V106.812H54.1616ZM59.2492 106.788C59.0952 106.843 58.9288 106.862 58.7624 106.862C58.2325 106.862 57.8442 106.566 57.8442 105.882V104.169H57.265V103.707H57.8442V102.764H58.368V103.707H59.1999V104.169H58.368V105.9C58.368 106.227 58.5529 106.387 58.824 106.387C58.9473 106.387 59.089 106.369 59.2123 106.307L59.2492 106.788ZM62.5922 105.118C62.5922 105.192 62.5861 105.303 62.5799 105.358H60.1273C60.1643 105.987 60.5587 106.4 61.1194 106.4C61.5939 106.4 61.9205 106.178 62.013 105.79L62.5059 105.907C62.3519 106.511 61.8343 106.862 61.1194 106.862C60.1889 106.862 59.6035 106.141 59.6035 105.26C59.6035 104.378 60.1704 103.657 61.1071 103.657C62.0253 103.657 62.5922 104.317 62.5922 105.118ZM60.1581 104.921H62.0376C61.9883 104.446 61.6556 104.095 61.1071 104.095C60.6203 104.095 60.2629 104.403 60.1581 104.921ZM65.0844 104.218C64.9673 104.169 64.8194 104.144 64.6839 104.144C64.1909 104.144 63.7903 104.619 63.7903 105.629V106.812H63.2666V103.707H63.7903V104.335C63.9691 103.941 64.3758 103.657 64.7578 103.657C64.8872 103.657 65.0105 103.676 65.1152 103.713L65.0844 104.218ZM67.1366 106.812V102.499H68.7758C69.6138 102.499 70.1561 102.992 70.1561 103.75C70.1561 104.508 69.6138 105.001 68.7758 105.001H67.6974V106.812H67.1366ZM67.6974 104.495H68.7573C69.2688 104.495 69.5769 104.218 69.5769 103.75C69.5769 103.282 69.2688 102.998 68.7573 102.998H67.6974V104.495ZM73.2658 106.812L72.8406 105.716H70.9241L70.4989 106.812H69.9196L71.6266 102.499H72.1381L73.8512 106.812H73.2658ZM71.1151 105.216H72.6495L71.8854 103.238L71.1151 105.216ZM74.346 106.812V102.499H74.9684L77.1437 105.931V102.499H77.6921V106.812H77.0697L74.8944 103.392V106.812H74.346Z" fill="#424242"/>
<path d="M51.7806 150.76V148.954L50.2646 146.446H50.8994L52.064 148.418L53.2349 146.446H53.8696L52.3475 148.954V150.76H51.7806ZM55.1391 150.809C54.2148 150.809 53.5616 150.137 53.5616 149.207C53.5616 148.276 54.2148 147.605 55.1391 147.605C56.0573 147.605 56.7228 148.276 56.7228 149.207C56.7228 150.137 56.0573 150.809 55.1391 150.809ZM55.1391 150.341C55.7615 150.341 56.1806 149.872 56.1806 149.207C56.1806 148.541 55.7615 148.073 55.1391 148.073C54.5168 148.073 54.0977 148.541 54.0977 149.207C54.0977 149.872 54.5168 150.341 55.1391 150.341ZM60.0922 147.654V150.76H59.5684V150.174C59.3527 150.544 58.9768 150.809 58.5023 150.809C57.8553 150.809 57.3931 150.372 57.3931 149.712V147.654H57.9169V149.614C57.9169 150.033 58.1819 150.335 58.6194 150.335C59.1987 150.335 59.5684 149.835 59.5684 149.016V147.654H60.0922ZM62.7615 148.165C62.6445 148.116 62.4966 148.092 62.361 148.092C61.868 148.092 61.4675 148.566 61.4675 149.577V150.76H60.9437V147.654H61.4675V148.283C61.6462 147.888 62.0529 147.605 62.4349 147.605C62.5643 147.605 62.6876 147.623 62.7923 147.66L62.7615 148.165ZM65.0972 150.76V148.116H64.5672V147.654H65.0972V147.364C65.0972 146.68 65.4854 146.317 66.0154 146.317C66.1571 146.317 66.305 146.329 66.4344 146.366L66.4097 146.834C66.2988 146.791 66.1879 146.773 66.0831 146.773C65.8058 146.773 65.621 146.988 65.621 147.321V147.654H66.4159V148.116H65.621V150.76H65.0972ZM69.6511 149.065C69.6511 149.139 69.645 149.25 69.6388 149.305H67.1862C67.2232 149.934 67.6176 150.347 68.1784 150.347C68.6529 150.347 68.9795 150.125 69.0719 149.737L69.5649 149.854C69.4108 150.458 68.8932 150.809 68.1784 150.809C67.2479 150.809 66.6624 150.088 66.6624 149.207C66.6624 148.326 67.2294 147.605 68.166 147.605C69.0842 147.605 69.6511 148.264 69.6511 149.065ZM67.2171 148.868H69.0965C69.0472 148.393 68.7145 148.042 68.166 148.042C67.6792 148.042 67.3218 148.35 67.2171 148.868ZM71.9348 150.735C71.7808 150.791 71.6144 150.809 71.448 150.809C70.9181 150.809 70.5298 150.513 70.5298 149.829V148.116H69.9506V147.654H70.5298V146.711H71.0536V147.654H71.8855V148.116H71.0536V149.848C71.0536 150.174 71.2385 150.335 71.5097 150.335C71.6329 150.335 71.7746 150.316 71.8979 150.254L71.9348 150.735ZM73.8297 150.809C72.9054 150.809 72.2891 150.168 72.2891 149.207C72.2891 148.246 72.9054 147.605 73.8297 147.605C74.5507 147.605 75.0806 147.999 75.1916 148.615L74.6739 148.72C74.6061 148.344 74.2795 148.073 73.842 148.073C73.232 148.073 72.8376 148.523 72.8376 149.207C72.8376 149.891 73.232 150.341 73.842 150.341C74.2795 150.341 74.6 150.1 74.6863 149.688L75.1977 149.792C75.0622 150.433 74.5445 150.809 73.8297 150.809ZM75.8499 150.76V146.397H76.3737V148.264C76.6017 147.82 76.9776 147.605 77.4336 147.605C78.1361 147.605 78.5982 148.042 78.5982 148.714V150.76H78.0744V148.812C78.0744 148.356 77.791 148.079 77.3165 148.079C76.7434 148.079 76.3737 148.597 76.3737 149.429V150.76H75.8499ZM82.2585 149.065C82.2585 149.139 82.2524 149.25 82.2462 149.305H79.7936C79.8306 149.934 80.225 150.347 80.7857 150.347C81.2602 150.347 81.5868 150.125 81.6793 149.737L82.1723 149.854C82.0182 150.458 81.5006 150.809 80.7857 150.809C79.8552 150.809 79.2698 150.088 79.2698 149.207C79.2698 148.326 79.8368 147.605 80.7734 147.605C81.6916 147.605 82.2585 148.264 82.2585 149.065ZM79.8244 148.868H81.7039C81.6546 148.393 81.3219 148.042 80.7734 148.042C80.2866 148.042 79.9292 148.35 79.8244 148.868ZM84.2516 150.809C83.2841 150.809 82.7542 150.119 82.7542 149.207C82.7542 148.295 83.2841 147.605 84.2454 147.605C84.6583 147.605 85.065 147.808 85.2622 148.098V146.397H85.786V150.76H85.2622V150.31C85.1205 150.593 84.7076 150.809 84.2516 150.809ZM84.3009 150.341C84.911 150.341 85.3115 149.891 85.3115 149.207C85.3115 148.523 84.911 148.073 84.3009 148.073C83.6908 148.073 83.2903 148.523 83.2903 149.207C83.2903 149.891 83.6908 150.341 84.3009 150.341ZM90.0244 150.809C88.9522 150.809 87.9477 150.076 87.9477 148.603C87.9477 147.13 88.9583 146.397 90.0367 146.397C90.998 146.397 91.7067 146.927 91.8792 147.759L91.3246 147.876C91.2014 147.266 90.7207 146.896 90.0367 146.896C89.1617 146.896 88.527 147.506 88.527 148.603C88.527 149.7 89.1617 150.304 90.0306 150.304C90.8378 150.304 91.3493 149.78 91.3678 149.022H89.8642V148.535H91.8977V150.76H91.3863V150.094C91.1891 150.532 90.6345 150.809 90.0244 150.809ZM94.0744 150.809C93.2425 150.809 92.577 150.273 92.4353 149.484L92.9652 149.312C93.0515 149.916 93.5137 150.31 94.0868 150.31C94.6783 150.31 95.0604 150.033 95.0604 149.601C95.0604 148.449 92.6078 149.053 92.6078 147.525C92.6078 146.853 93.2117 146.397 94.0621 146.397C94.8509 146.397 95.461 146.822 95.5719 147.463L95.0604 147.66C94.9741 147.192 94.6044 146.896 94.0621 146.896C93.5075 146.896 93.1748 147.136 93.1748 147.525C93.1748 148.511 95.6397 147.87 95.6397 149.595C95.6397 150.328 95.0173 150.809 94.0744 150.809ZM97.2381 150.76V146.945H95.8639V146.446H99.1668V146.945H97.7988V150.76H97.2381ZM99.7112 150.76V146.446H100.272V150.76H99.7112ZM101.168 150.76V146.446H101.79L103.965 149.879V146.446H104.514V150.76H103.891L101.716 147.34V150.76H101.168Z" fill="#424242"/>
<rect x="50.4533" y="111.694" width="139.52" height="21.3333" rx="4.05333" fill="white" stroke="#D8D8D8" stroke-width="0.426667"/>
<path d="M62.1149 125.307L61.6438 124.091H59.5207L59.0497 125.307H58.408L60.299 120.528H60.8656L62.7634 125.307H62.1149ZM59.7324 123.539H61.4322L60.5857 121.347L59.7324 123.539ZM63.3116 125.307V120.528H65.0455C65.9467 120.528 66.5065 120.979 66.5065 121.757C66.5065 122.201 66.1993 122.555 65.8784 122.692C66.3631 122.863 66.7181 123.245 66.7181 123.914C66.7181 124.774 66.131 125.307 65.1479 125.307H63.3116ZM63.9328 122.494H65.0182C65.5849 122.494 65.8921 122.255 65.8921 121.777C65.8921 121.299 65.5849 121.06 65.0182 121.06H63.9328V122.494ZM63.9328 124.747H65.0455C65.7419 124.747 66.0969 124.453 66.0969 123.9C66.0969 123.341 65.7419 123.04 65.0455 123.04H63.9328V124.747ZM69.6009 125.361C68.3994 125.361 67.2798 124.563 67.2798 122.917C67.2798 121.272 68.4062 120.473 69.6009 120.473C70.6453 120.473 71.4167 121.06 71.6147 121.982L71.0003 122.119C70.8501 121.429 70.3381 121.026 69.594 121.026C68.6246 121.026 67.9215 121.695 67.9215 122.917C67.9215 124.139 68.6246 124.801 69.594 124.801C70.3381 124.801 70.8228 124.419 70.9935 123.757L71.6147 123.887C71.3758 124.788 70.6317 125.361 69.6009 125.361ZM72.2916 125.307V120.528H73.7115C75.0495 120.528 76.1077 121.381 76.1077 122.917C76.1077 124.453 75.0495 125.307 73.7115 125.307H72.2916ZM72.906 124.747H73.691C74.6126 124.747 75.466 124.221 75.466 122.917C75.466 121.613 74.6126 121.081 73.691 121.081H72.906V124.747ZM76.8849 125.307V120.528H79.8955V121.081H77.5061V122.487H79.4449V123.047H77.5061V124.747H79.9706V125.307H76.8849ZM83.19 125.307V121.306C82.8623 121.607 82.5073 121.757 82.0567 121.839V121.286C82.5346 121.183 82.951 120.938 83.2855 120.528H83.7771V125.307H83.19ZM84.478 125.307L84.4712 124.767L86.2666 123.218C86.8264 122.733 87.0653 122.337 87.0653 121.907C87.0653 121.374 86.7103 121.026 86.1506 121.026C85.4815 121.026 85.1061 121.497 85.1743 122.207L84.5736 122.166C84.4985 121.163 85.1539 120.473 86.1506 120.473C87.0926 120.473 87.707 121.04 87.707 121.907C87.707 122.487 87.3862 123.02 86.6489 123.641L85.3518 124.747H87.707V125.307H84.478ZM89.8772 125.361C88.9351 125.361 88.2593 124.815 88.1706 123.982L88.7577 123.894C88.8259 124.446 89.2697 124.801 89.8772 124.801C90.5394 124.801 90.9695 124.406 90.9695 123.805C90.9695 123.184 90.5735 122.822 89.9114 122.822C89.7339 122.822 89.5359 122.876 89.3857 122.972L89.1195 122.576L90.6282 121.081H88.3071V120.528H91.3586V121.067L90.0001 122.392C90.9422 122.303 91.6112 122.876 91.6112 123.818C91.6112 124.74 90.9285 125.361 89.8772 125.361ZM94.5623 125.307V124.139H92.0433V123.579L94.4667 120.528H95.1835V123.579H95.873V124.139H95.1835V125.307H94.5623ZM92.7123 123.579H94.5623V121.238L92.7123 123.579ZM98.2249 125.307V120.528H101.235V121.081H98.8461V122.487H100.785V123.047H98.8461V124.747H101.311V125.307H98.2249Z" fill="#242424"/>
<g clip-path="url(#clip1_936_9547)">
<path fill-rule="evenodd" clip-rule="evenodd" d="M171.413 122.146C171.413 120.788 171.953 119.486 172.913 118.526C173.873 117.566 175.175 117.026 176.533 117.026C177.891 117.026 179.193 117.566 180.154 118.526C181.114 119.486 181.653 120.788 181.653 122.146C181.653 123.504 181.114 124.807 180.154 125.767C179.193 126.727 177.891 127.266 176.533 127.266C175.175 127.266 173.873 126.727 172.913 125.767C171.953 124.807 171.413 123.504 171.413 122.146V122.146ZM176.241 124.338L179.189 120.653L178.656 120.227L176.143 123.368L174.362 121.884L173.925 122.409L176.241 124.338V124.338Z" fill="#179E83"/>
</g>
<path d="M65.6957 61.9062L62.2687 52.3489H64.4669L66.7197 59.3121L68.9861 52.3489H71.1843L67.7573 61.9062H65.6957ZM77.6799 58.2881C77.6799 58.5612 77.6662 58.8889 77.6526 59.039H72.7101C72.9012 59.8856 73.4747 60.3498 74.3212 60.3498C75.0038 60.3498 75.509 60.0357 75.6592 59.4623L77.5434 59.9675C77.1338 61.2645 75.905 62.0155 74.2666 62.0155C71.8909 62.0155 70.7303 60.1723 70.7303 58.4656C70.7303 56.7589 71.768 54.9157 74.1437 54.9157C76.6286 54.9157 77.6799 56.7589 77.6799 58.2881ZM72.7374 57.6191H75.5363C75.468 56.9228 75.0311 56.404 74.1437 56.404C73.42 56.404 72.9285 56.8136 72.7374 57.6191ZM83.5405 56.9501C83.3084 56.8409 82.9807 56.7862 82.6667 56.7862C81.7655 56.7862 80.9054 57.4689 80.9054 59.4213V61.9062H78.8983V55.025H80.9054V56.2128C81.2194 55.4755 82.1069 54.9157 82.9261 54.9157C83.1582 54.9157 83.4722 54.9567 83.6634 55.025L83.5405 56.9501ZM85.5884 54.1102C84.9057 54.1102 84.4005 53.5777 84.4005 52.9087C84.4005 52.2533 84.9057 51.7209 85.5884 51.7209C86.2847 51.7209 86.8172 52.2533 86.8172 52.9087C86.8172 53.5777 86.2847 54.1102 85.5884 54.1102ZM84.5917 61.9062V55.025H86.5987V61.9062H84.5917ZM88.7115 61.9062V56.6907H87.6328V55.025H88.7115V54.5471C88.7115 52.895 89.831 51.9803 91.3329 51.9803C91.7288 51.9803 92.0975 52.0349 92.4252 52.1578L92.2886 53.7689C92.0429 53.6733 91.8244 53.6187 91.606 53.6187C91.0598 53.6187 90.7185 53.9873 90.7185 54.5881V55.025H92.2886V56.6907H90.7185V61.9062H88.7115ZM97.937 55.025H99.985L96.3532 64.3912H94.3052L95.3974 61.5649L92.7487 55.025H94.9196L96.3941 59.0117L97.937 55.025ZM107.293 62.0155C105.218 62.0155 103.77 60.5546 103.77 58.4656C103.77 56.3766 105.218 54.9157 107.293 54.9157C109.136 54.9157 110.42 55.8442 110.638 57.3597L108.699 57.742C108.59 57.0593 108.085 56.6224 107.375 56.6224C106.433 56.6224 105.832 57.346 105.832 58.4656C105.832 59.5852 106.446 60.3088 107.375 60.3088C108.085 60.3088 108.535 59.8992 108.672 59.2712L110.624 59.6671C110.379 61.1144 109.109 62.0155 107.293 62.0155ZM118.494 55.025V61.9062H116.5V60.9915C116.077 61.5922 115.326 62.0155 114.398 62.0155C112.882 62.0155 111.858 61.0324 111.858 59.5169V55.025H113.865V58.9844C113.865 59.7354 114.33 60.2405 115.04 60.2405C115.995 60.2405 116.5 59.4623 116.5 58.0424V55.025H118.494ZM124.7 56.9501C124.468 56.8409 124.141 56.7862 123.827 56.7862C122.926 56.7862 122.065 57.4689 122.065 59.4213V61.9062H120.058V55.025H122.065V56.2128C122.379 55.4755 123.267 54.9157 124.086 54.9157C124.318 54.9157 124.632 54.9567 124.823 55.025L124.7 56.9501ZM130.394 56.9501C130.162 56.8409 129.834 56.7862 129.52 56.7862C128.619 56.7862 127.759 57.4689 127.759 59.4213V61.9062H125.752V55.025H127.759V56.2128C128.073 55.4755 128.96 54.9157 129.779 54.9157C130.012 54.9157 130.326 54.9567 130.517 55.025L130.394 56.9501ZM137.84 58.2881C137.84 58.5612 137.826 58.8889 137.813 59.039H132.87C133.061 59.8856 133.635 60.3498 134.481 60.3498C135.164 60.3498 135.669 60.0357 135.819 59.4623L137.703 59.9675C137.294 61.2645 136.065 62.0155 134.427 62.0155C132.051 62.0155 130.89 60.1723 130.89 58.4656C130.89 56.7589 131.928 54.9157 134.304 54.9157C136.789 54.9157 137.84 56.7589 137.84 58.2881ZM132.897 57.6191H135.696C135.628 56.9228 135.191 56.404 134.304 56.404C133.58 56.404 133.089 56.8136 132.897 57.6191ZM139.058 61.9062V55.025H141.065V55.9397C141.475 55.339 142.226 54.9157 143.168 54.9157C144.684 54.9157 145.694 55.8988 145.694 57.4143V61.9062H143.7V57.9468C143.7 57.1958 143.236 56.6907 142.513 56.6907C141.557 56.6907 141.065 57.4689 141.065 58.8889V61.9062H139.058ZM151.319 61.838C150.991 61.9472 150.609 62.0155 150.199 62.0155C148.711 62.0155 147.578 61.2236 147.578 59.5579V56.6907H146.486V55.025H147.578V53.0316H149.585V55.025H151.251V56.6907H149.585V59.2985C149.585 59.9129 149.913 60.2678 150.404 60.2678C150.65 60.2678 150.95 60.2269 151.182 60.104L151.319 61.838ZM65.6547 70.9157C67.5252 70.9157 68.795 71.8851 68.795 73.8239V77.9062H66.8562V77.0324C66.4603 77.6332 65.682 78.0155 64.9174 78.0155C63.5794 78.0155 62.6373 77.1144 62.6373 75.9675C62.6373 74.6021 63.634 73.8649 65.6138 73.6601L66.8562 73.5372V73.4962C66.8562 72.8136 66.392 72.404 65.6547 72.404C64.9994 72.404 64.5215 72.7999 64.4532 73.4689L62.7056 73.1412C62.924 71.7896 64.1802 70.9157 65.6547 70.9157ZM65.409 76.5819C66.3101 76.5819 66.8426 75.8582 66.8562 75.0527V75.039V74.9981V74.9435L65.5728 75.0937C64.8901 75.1619 64.5488 75.5033 64.5488 75.8992C64.5488 76.2815 64.8492 76.5819 65.409 76.5819ZM73.5329 78.0155C71.4576 78.0155 70.0103 76.5546 70.0103 74.4656C70.0103 72.3766 71.4576 70.9157 73.5329 70.9157C75.3761 70.9157 76.6595 71.8442 76.878 73.3597L74.9392 73.742C74.83 73.0593 74.3248 72.6224 73.6148 72.6224C72.6727 72.6224 72.072 73.346 72.072 74.4656C72.072 75.5852 72.6864 76.3088 73.6148 76.3088C74.3248 76.3088 74.7754 75.8992 74.9119 75.2712L76.8643 75.6671C76.6186 77.1144 75.3488 78.0155 73.5329 78.0155ZM81.2796 78.0155C79.2043 78.0155 77.757 76.5546 77.757 74.4656C77.757 72.3766 79.2043 70.9157 81.2796 70.9157C83.1228 70.9157 84.4062 71.8442 84.6246 73.3597L82.6859 73.742C82.5766 73.0593 82.0715 72.6224 81.3615 72.6224C80.4194 72.6224 79.8187 73.346 79.8187 74.4656C79.8187 75.5852 80.4331 76.3088 81.3615 76.3088C82.0715 76.3088 82.522 75.8992 82.6586 75.2712L84.611 75.6671C84.3652 77.1144 83.0955 78.0155 81.2796 78.0155ZM89.1355 78.0155C87.0055 78.0155 85.5037 76.5136 85.5037 74.4656C85.5037 72.4176 87.0055 70.9157 89.1355 70.9157C91.2381 70.9157 92.7672 72.4176 92.7672 74.4656C92.7672 76.5136 91.2381 78.0155 89.1355 78.0155ZM89.1355 76.3088C90.1048 76.3088 90.7602 75.5579 90.7602 74.4656C90.7602 73.3733 90.1048 72.6224 89.1355 72.6224C88.1524 72.6224 87.4971 73.3733 87.4971 74.4656C87.4971 75.5579 88.1524 76.3088 89.1355 76.3088ZM100.601 71.025V77.9062H98.6071V76.9915C98.1839 77.5922 97.433 78.0155 96.5045 78.0155C94.989 78.0155 93.965 77.0324 93.965 75.5169V71.025H95.9721V74.9844C95.9721 75.7354 96.4363 76.2405 97.1462 76.2405C98.102 76.2405 98.6071 75.4623 98.6071 74.0424V71.025H100.601ZM102.165 77.9062V71.025H104.172V71.9397C104.582 71.339 105.333 70.9157 106.275 70.9157C107.79 70.9157 108.801 71.8988 108.801 73.4143V77.9062H106.807V73.9468C106.807 73.1958 106.343 72.6907 105.619 72.6907C104.664 72.6907 104.172 73.4689 104.172 74.8889V77.9062H102.165ZM114.425 77.838C114.098 77.9472 113.716 78.0155 113.306 78.0155C111.818 78.0155 110.684 77.2236 110.684 75.5579V72.6907H109.592V71.025H110.684V69.0316H112.692V71.025H114.357V72.6907H112.692V75.2985C112.692 75.9129 113.019 76.2678 113.511 76.2678C113.756 76.2678 114.057 76.2269 114.289 76.104L114.425 77.838ZM124.717 77.9062L121.959 73.742L121.031 74.725V77.9062H118.874V68.3489H121.031V71.8442L124.294 68.3489H127.12L123.461 72.1855L127.434 77.9062H124.717ZM130.743 77.9062V73.9604L127.507 68.3489H129.801L131.822 71.9397L133.856 68.3489H136.136L132.9 73.9604V77.9062H130.743ZM140.617 78.0155C138.023 78.0155 135.811 76.3498 135.811 73.1276C135.811 69.9054 138.063 68.2397 140.617 68.2397C143.006 68.2397 144.672 69.5231 144.945 71.5028L142.801 71.9534C142.583 70.8065 141.709 70.0829 140.603 70.0829C139.156 70.0829 137.982 71.1342 137.982 73.1276C137.982 75.121 139.142 76.1586 140.603 76.1586C141.723 76.1586 142.528 75.5169 142.747 74.4929L144.917 74.9844C144.467 76.8822 142.869 78.0155 140.617 78.0155Z" fill="#091016"/>
<path d="M163.838 81.3994H195.202C195.305 81.4047 195.407 81.4306 195.501 81.4757C195.595 81.5186 195.678 81.5805 195.747 81.6575C195.817 81.7338 195.871 81.8236 195.906 81.9215C195.937 82.0201 195.951 82.1233 195.947 82.2266V85.2831C195.954 85.3898 195.94 85.4968 195.904 85.5976C195.869 85.6985 195.814 85.7911 195.741 85.8698C195.601 86.0209 195.407 86.1114 195.202 86.1221H163.838C163.632 86.1114 163.439 86.0209 163.299 85.8698C163.225 85.7921 163.168 85.6997 163.133 85.5985C163.098 85.4974 163.084 85.3899 163.093 85.2831V82.2266C163.086 82.1232 163.1 82.0194 163.134 81.9215C163.168 81.8236 163.222 81.7338 163.293 81.6575C163.434 81.5039 163.63 81.4113 163.838 81.3994Z" fill="#B1CDE2" fill-opacity="0.5"/>
<path d="M163.093 65.2542C163.093 65.1198 163.129 64.9879 163.199 64.8729C163.267 64.7558 163.367 64.6603 163.486 64.5971L179.168 53.3273C179.276 53.2687 179.397 53.2384 179.52 53.2393C179.643 53.2392 179.764 53.2694 179.872 53.3273L195.554 64.5971C195.672 64.662 195.771 64.7571 195.841 64.8729C195.91 64.9879 195.947 65.1198 195.947 65.2542V68.9209C195.945 69.1182 195.867 69.3073 195.73 69.4489C195.589 69.5879 195.399 69.6659 195.202 69.6659H163.838C163.74 69.6667 163.643 69.648 163.552 69.6108C163.462 69.5737 163.379 69.5188 163.31 69.4495C163.24 69.3801 163.186 69.2977 163.148 69.2069C163.111 69.1162 163.093 69.0189 163.093 68.9209V65.2542Z" fill="#B1CDE2" fill-opacity="0.5"/>
<g style="mix-blend-mode:multiply">
<g style="mix-blend-mode:multiply">
<path d="M170.72 66.1465H166.613V83.7465H170.72V66.1465Z" fill="#B1CDE2" fill-opacity="0.5"/>
</g>
</g>
<g style="mix-blend-mode:multiply">
<g style="mix-blend-mode:multiply">
<path d="M177.76 66.1465H173.653V83.7465H177.76V66.1465Z" fill="#B1CDE2" fill-opacity="0.5"/>
</g>
</g>
<g style="mix-blend-mode:multiply">
<g style="mix-blend-mode:multiply">
<path d="M192.427 66.1465H188.32V83.7465H192.427V66.1465Z" fill="#B1CDE2" fill-opacity="0.5"/>
</g>
</g>
<g style="mix-blend-mode:multiply">
<g style="mix-blend-mode:multiply">
<path d="M185.328 66.1465H181.221V83.7465H185.328V66.1465Z" fill="#B1CDE2" fill-opacity="0.5"/>
</g>
</g>
<path d="M194.187 69.6664C195.952 69.6663 197.662 69.0544 199.025 67.9349C200.389 66.8155 201.323 65.2577 201.667 63.5271C202.011 61.7966 201.745 60.0002 200.913 58.4441C200.081 56.8881 198.735 55.6686 197.105 54.9935C195.475 54.3183 193.661 54.2293 191.972 54.7416C190.284 55.2539 188.825 56.3358 187.845 57.803C186.865 59.2701 186.424 61.0317 186.597 62.7877C186.77 64.5437 187.546 66.1853 188.794 67.4329C189.502 68.1411 190.343 68.7028 191.269 69.0861C192.194 69.4693 193.186 69.6665 194.187 69.6664Z" fill="#FFB036" fill-opacity="0.5"/>
<g style="mix-blend-mode:multiply">
<g style="mix-blend-mode:multiply">
<path fill-rule="evenodd" clip-rule="evenodd" d="M190.494 58.1123H197.886V59.033H194.765C195.169 59.4582 195.43 59.9991 195.511 60.5801H197.886V61.4953H195.495C195.418 61.9423 195.233 62.3637 194.955 62.7226C194.678 63.0816 194.317 63.3672 193.904 63.5545L196.159 67.3678H195.113L192.994 63.7506H190.494V62.819H192.858C193.355 62.8143 193.83 62.6193 194.187 62.2743C194.43 62.0389 194.604 61.7411 194.689 61.4136H190.494V60.4875H194.743C194.632 60.0706 194.387 59.7015 194.047 59.436C193.707 59.1706 193.29 59.0233 192.858 59.0166H190.494V58.1123Z" fill="#FFB036" fill-opacity="0.5"/>
</g>
</g>
<path d="M53.8666 53.8799L51.7333 56.0132L53.8666 58.1465" stroke="black" stroke-width="0.853333" stroke-linecap="round" stroke-linejoin="round"/>
<path d="M52.3733 56.0137H57.92" stroke="black" stroke-width="0.853333" stroke-linecap="round" stroke-linejoin="round"/>
<rect x="50.4534" y="155.64" width="139.52" height="21.3333" rx="4.05333" stroke="#D8D8D8" stroke-width="0.426667"/>
<path d="M59.63 169.253V165.253C59.3024 165.553 58.9474 165.703 58.4968 165.785V165.232C58.9747 165.13 59.3911 164.884 59.7256 164.474H60.2171V169.253H59.63ZM60.9181 169.253L60.9113 168.714L62.7067 167.164C63.2665 166.679 63.5054 166.283 63.5054 165.853C63.5054 165.321 63.1504 164.973 62.5906 164.973C61.9216 164.973 61.5462 165.444 61.6144 166.154L61.0137 166.113C60.9386 165.109 61.5939 164.42 62.5906 164.42C63.5327 164.42 64.1471 164.986 64.1471 165.853C64.1471 166.434 63.8263 166.966 63.089 167.587L61.7919 168.693H64.1471V169.253H60.9181ZM68.3016 169.253L67.8306 168.038H65.7075L65.2364 169.253H64.5947L66.4857 164.474H67.0523L68.9502 169.253H68.3016ZM65.9191 167.485H67.619L66.7724 165.293L65.9191 167.485ZM69.4983 169.253V164.474H71.2323C72.1334 164.474 72.6932 164.925 72.6932 165.703C72.6932 166.147 72.386 166.502 72.0651 166.638C72.5498 166.809 72.9048 167.191 72.9048 167.86C72.9048 168.72 72.3177 169.253 71.3347 169.253H69.4983ZM70.1195 166.44H71.205C71.7716 166.44 72.0788 166.201 72.0788 165.724C72.0788 165.246 71.7716 165.007 71.205 165.007H70.1195V166.44ZM70.1195 168.693H71.2323C71.9286 168.693 72.2836 168.4 72.2836 167.847C72.2836 167.287 71.9286 166.986 71.2323 166.986H70.1195V168.693ZM75.7876 169.308C74.5861 169.308 73.4665 168.509 73.4665 166.864C73.4665 165.218 74.5929 164.42 75.7876 164.42C76.8321 164.42 77.6035 165.007 77.8015 165.928L77.1871 166.065C77.0369 165.375 76.5249 164.973 75.7808 164.973C74.8114 164.973 74.1082 165.642 74.1082 166.864C74.1082 168.086 74.8114 168.748 75.7808 168.748C76.5249 168.748 77.0096 168.365 77.1802 167.703L77.8015 167.833C77.5625 168.734 76.8184 169.308 75.7876 169.308ZM80.6404 169.308C79.4526 169.308 78.3399 168.495 78.3399 166.864C78.3399 165.232 79.4594 164.42 80.6541 164.42C81.7191 164.42 82.5041 165.007 82.6953 165.928L82.0809 166.058C81.9443 165.382 81.4119 164.973 80.6541 164.973C79.6847 164.973 78.9816 165.648 78.9816 166.864C78.9816 168.079 79.6847 168.748 80.6473 168.748C81.5416 168.748 82.1082 168.167 82.1287 167.328H80.463V166.789H82.7158V169.253H82.1491V168.516C81.9307 169 81.3163 169.308 80.6404 169.308ZM83.625 169.253V164.474H85.0449C86.383 164.474 87.4411 165.328 87.4411 166.864C87.4411 168.4 86.383 169.253 85.0449 169.253H83.625ZM84.2394 168.693H85.0245C85.9461 168.693 86.7994 168.167 86.7994 166.864C86.7994 165.56 85.9461 165.027 85.0245 165.027H84.2394V168.693ZM88.2183 169.253V164.474H91.2289V165.027H88.8395V166.434H90.7783V166.993H88.8395V168.693H91.304V169.253H88.2183ZM92.8767 169.253V165.253C92.549 165.553 92.1941 165.703 91.7435 165.785V165.232C92.2214 165.13 92.6378 164.884 92.9723 164.474H93.4638V169.253H92.8767ZM94.1648 169.253L94.1579 168.714L95.9534 167.164C96.5131 166.679 96.7521 166.283 96.7521 165.853C96.7521 165.321 96.3971 164.973 95.8373 164.973C95.1683 164.973 94.7928 165.444 94.8611 166.154L94.2603 166.113C94.1852 165.109 94.8406 164.42 95.8373 164.42C96.7794 164.42 97.3938 164.986 97.3938 165.853C97.3938 166.434 97.0729 166.966 96.3356 167.587L95.0386 168.693H97.3938V169.253H94.1648ZM99.6657 169.308C98.7441 169.308 98.0683 168.789 97.9454 167.99L98.5257 167.888C98.6144 168.413 99.0513 168.748 99.6521 168.748C100.287 168.748 100.697 168.318 100.697 167.669C100.697 167.007 100.273 166.597 99.5838 166.597C99.1264 166.597 98.7646 166.809 98.5257 167.171L98.0751 167.075L98.4506 164.474H100.997V165.027H98.908L98.7032 166.461C98.9489 166.229 99.338 166.065 99.6862 166.065C100.676 166.065 101.338 166.707 101.338 167.669C101.338 168.659 100.683 169.308 99.6657 169.308ZM102.085 169.253C102.242 167.881 103.15 166.345 104.208 165.027H101.525V164.474H104.85V165.027C103.764 166.427 102.836 167.956 102.72 169.253H102.085ZM105.565 169.253V164.474H108.576V165.027H106.186V166.434H108.125V166.993H106.186V168.693H108.651V169.253H105.565Z" fill="#242424"/>
<g clip-path="url(#clip2_936_9547)">
<path d="M178.791 165.343C178.625 165.179 178.358 165.179 178.192 165.343L176.533 166.99L174.874 165.343C174.709 165.179 174.441 165.179 174.276 165.343C174.109 165.509 174.109 165.779 174.276 165.945L176.533 168.191L178.791 165.945C178.958 165.779 178.958 165.509 178.791 165.343Z" fill="#8FB2D1"/>
</g>
<path d="M50.6899 194.707V190.393H53.4074V190.893H51.2506V192.162H53.0007V192.667H51.2506V194.202H53.4752V194.707H50.6899ZM54.1616 194.707V191.601H54.6854V192.187C54.9011 191.817 55.277 191.552 55.7515 191.552C56.3985 191.552 56.8607 191.989 56.8607 192.649V194.707H56.3369V192.747C56.3369 192.328 56.0719 192.026 55.6344 192.026C55.0551 192.026 54.6854 192.526 54.6854 193.345V194.707H54.1616ZM59.2493 194.682C59.0952 194.738 58.9288 194.756 58.7624 194.756C58.2325 194.756 57.8443 194.461 57.8443 193.777V192.063H57.265V191.601H57.8443V190.658H58.3681V191.601H59.2V192.063H58.3681V193.795C58.3681 194.122 58.5529 194.282 58.8241 194.282C58.9473 194.282 59.089 194.263 59.2123 194.202L59.2493 194.682ZM62.5922 193.012C62.5922 193.086 62.5861 193.197 62.5799 193.253H60.1273C60.1643 193.881 60.5587 194.294 61.1195 194.294C61.594 194.294 61.9206 194.072 62.013 193.684L62.506 193.801C62.3519 194.405 61.8343 194.756 61.1195 194.756C60.189 194.756 59.6035 194.035 59.6035 193.154C59.6035 192.273 60.1705 191.552 61.1071 191.552C62.0253 191.552 62.5922 192.211 62.5922 193.012ZM60.1582 192.815H62.0376C61.9883 192.341 61.6556 191.989 61.1071 191.989C60.6203 191.989 60.2629 192.298 60.1582 192.815ZM65.0845 192.113C64.9674 192.063 64.8195 192.039 64.6839 192.039C64.1909 192.039 63.7904 192.513 63.7904 193.524V194.707H63.2666V191.601H63.7904V192.23C63.9691 191.835 64.3758 191.552 64.7579 191.552C64.8873 191.552 65.0105 191.57 65.1153 191.607L65.0845 192.113ZM70.0884 194.707L69.6632 193.61H67.7467L67.3215 194.707H66.7422L68.4492 190.393H68.9607L70.6738 194.707H70.0884ZM67.9377 193.111H69.4721L68.708 191.133L67.9377 193.111ZM72.3145 191.552C73.0663 191.552 73.5901 191.996 73.5901 192.717V194.707H73.0724V194.177C72.8937 194.534 72.487 194.756 72.0372 194.756C71.4148 194.756 70.9896 194.374 70.9896 193.838C70.9896 193.24 71.4764 192.914 72.4685 192.815L73.0724 192.747V192.686C73.0724 192.261 72.7705 191.989 72.3145 191.989C71.8893 191.989 71.5873 192.242 71.5442 192.661L71.0574 192.569C71.1498 191.952 71.6613 191.552 72.3145 191.552ZM72.1173 194.325C72.7212 194.325 73.0724 193.924 73.0724 193.302V193.154L72.4685 193.222C71.84 193.29 71.5134 193.505 71.5134 193.832C71.5134 194.122 71.7599 194.325 72.1173 194.325ZM75.7604 194.756C74.793 194.756 74.263 194.066 74.263 193.154C74.263 192.242 74.793 191.552 75.7543 191.552C76.1672 191.552 76.5739 191.755 76.7711 192.045V190.344H77.2949V194.707H76.7711V194.257C76.6293 194.541 76.2165 194.756 75.7604 194.756ZM75.8097 194.288C76.4198 194.288 76.8204 193.838 76.8204 193.154C76.8204 192.47 76.4198 192.02 75.8097 192.02C75.1997 192.02 74.7991 192.47 74.7991 193.154C74.7991 193.838 75.1997 194.288 75.8097 194.288ZM78.1427 194.707V190.344H78.6665V192.211C78.8945 191.768 79.2704 191.552 79.7264 191.552C80.4289 191.552 80.8911 191.989 80.8911 192.661V194.707H80.3673V192.76C80.3673 192.304 80.0838 192.026 79.6093 192.026C79.0362 192.026 78.6665 192.544 78.6665 193.376V194.707H78.1427ZM82.8999 191.552C83.6517 191.552 84.1755 191.996 84.1755 192.717V194.707H83.6578V194.177C83.4791 194.534 83.0724 194.756 82.6226 194.756C82.0002 194.756 81.575 194.374 81.575 193.838C81.575 193.24 82.0618 192.914 83.0539 192.815L83.6578 192.747V192.686C83.6578 192.261 83.3559 191.989 82.8999 191.989C82.4747 191.989 82.1727 192.242 82.1296 192.661L81.6428 192.569C81.7352 191.952 82.2467 191.552 82.8999 191.552ZM82.7027 194.325C83.3066 194.325 83.6578 193.924 83.6578 193.302V193.154L83.0539 193.222C82.4254 193.29 82.0988 193.505 82.0988 193.832C82.0988 194.122 82.3453 194.325 82.7027 194.325ZM86.1856 191.552C86.9374 191.552 87.4612 191.996 87.4612 192.717V194.707H86.9436V194.177C86.7649 194.534 86.3582 194.756 85.9083 194.756C85.2859 194.756 84.8607 194.374 84.8607 193.838C84.8607 193.24 85.3475 192.914 86.3397 192.815L86.9436 192.747V192.686C86.9436 192.261 86.6416 191.989 86.1856 191.989C85.7604 191.989 85.4585 192.242 85.4153 192.661L84.9285 192.569C85.0209 191.952 85.5324 191.552 86.1856 191.552ZM85.9884 194.325C86.5923 194.325 86.9436 193.924 86.9436 193.302V193.154L86.3397 193.222C85.7111 193.29 85.3845 193.505 85.3845 193.832C85.3845 194.122 85.631 194.325 85.9884 194.325ZM90.1307 192.113C90.0136 192.063 89.8657 192.039 89.7302 192.039C89.2372 192.039 88.8366 192.513 88.8366 193.524V194.707H88.3129V191.601H88.8366V192.23C89.0153 191.835 89.4221 191.552 89.8041 191.552C89.9335 191.552 90.0568 191.57 90.1615 191.607L90.1307 192.113ZM92.1583 194.707V191.601H92.682V192.187C92.8977 191.817 93.2736 191.552 93.7481 191.552C94.3952 191.552 94.8573 191.989 94.8573 192.649V194.707H94.3335V192.747C94.3335 192.328 94.0686 192.026 93.631 192.026C93.0518 192.026 92.682 192.526 92.682 193.345V194.707H92.1583ZM98.3778 191.601V194.707H97.854V194.122C97.6383 194.491 97.2624 194.756 96.7879 194.756C96.1409 194.756 95.6787 194.319 95.6787 193.659V191.601H96.2025V193.561C96.2025 193.98 96.4675 194.282 96.905 194.282C97.4842 194.282 97.854 193.783 97.854 192.963V191.601H98.3778ZM99.2292 194.707V191.601H99.753V192.187C99.9071 191.817 100.215 191.552 100.69 191.552C101.195 191.552 101.589 191.786 101.7 192.205C101.867 191.835 102.236 191.552 102.705 191.552C103.37 191.552 103.789 191.971 103.789 192.624V194.707H103.266V192.729C103.266 192.304 103.025 192.014 102.588 192.014C102.058 192.014 101.768 192.489 101.768 193.148V194.707H101.244V192.729C101.244 192.304 101.004 192.014 100.573 192.014C100.043 192.014 99.753 192.489 99.753 193.148V194.707H99.2292ZM106.174 194.756C105.718 194.756 105.305 194.541 105.163 194.257V194.707H104.639V190.344H105.163V192.045C105.36 191.755 105.767 191.552 106.18 191.552C107.141 191.552 107.671 192.242 107.671 193.154C107.671 194.066 107.141 194.756 106.174 194.756ZM106.124 194.288C106.734 194.288 107.135 193.838 107.135 193.154C107.135 192.47 106.734 192.02 106.124 192.02C105.514 192.02 105.12 192.47 105.12 193.154C105.12 193.838 105.514 194.288 106.124 194.288ZM111.15 193.012C111.15 193.086 111.144 193.197 111.138 193.253H108.685C108.722 193.881 109.117 194.294 109.677 194.294C110.152 194.294 110.479 194.072 110.571 193.684L111.064 193.801C110.91 194.405 110.392 194.756 109.677 194.756C108.747 194.756 108.162 194.035 108.162 193.154C108.162 192.273 108.728 191.552 109.665 191.552C110.583 191.552 111.15 192.211 111.15 193.012ZM108.716 192.815H110.596C110.546 192.341 110.214 191.989 109.665 191.989C109.178 191.989 108.821 192.298 108.716 192.815ZM113.642 192.113C113.525 192.063 113.377 192.039 113.242 192.039C112.749 192.039 112.348 192.513 112.348 193.524V194.707H111.825V191.601H112.348V192.23C112.527 191.835 112.934 191.552 113.316 191.552C113.445 191.552 113.568 191.57 113.673 191.607L113.642 192.113Z" fill="#424242"/>
<rect x="50.4534" y="199.586" width="139.52" height="21.3333" rx="4.05333" fill="white" stroke="#D8D8D8" stroke-width="0.426667"/>
<path d="M153.994 213.255C153.072 213.255 152.335 212.661 152.178 211.787L152.765 211.596C152.861 212.265 153.373 212.702 154.008 212.702C154.663 212.702 155.086 212.395 155.086 211.917C155.086 210.64 152.369 211.309 152.369 209.616C152.369 208.872 153.038 208.367 153.98 208.367C154.854 208.367 155.53 208.838 155.653 209.548L155.086 209.766C154.991 209.248 154.581 208.92 153.98 208.92C153.366 208.92 152.997 209.186 152.997 209.616C152.997 210.708 155.728 209.998 155.728 211.91C155.728 212.722 155.038 213.255 153.994 213.255ZM159.564 211.323C159.564 211.405 159.557 211.528 159.55 211.589H156.833C156.874 212.285 157.311 212.743 157.933 212.743C158.458 212.743 158.82 212.497 158.922 212.067L159.469 212.197C159.298 212.866 158.724 213.255 157.933 213.255C156.902 213.255 156.253 212.456 156.253 211.48C156.253 210.504 156.881 209.705 157.919 209.705C158.936 209.705 159.564 210.435 159.564 211.323ZM156.868 211.104H158.95C158.895 210.579 158.526 210.19 157.919 210.19C157.38 210.19 156.984 210.531 156.868 211.104ZM160.311 213.2V209.76H160.891V210.408C161.13 209.998 161.547 209.705 162.072 209.705C162.789 209.705 163.301 210.19 163.301 210.92V213.2H162.721V211.029C162.721 210.565 162.427 210.231 161.943 210.231C161.301 210.231 160.891 210.784 160.891 211.692V213.2H160.311ZM165.705 213.255C164.634 213.255 164.047 212.49 164.047 211.48C164.047 210.47 164.634 209.705 165.699 209.705C166.156 209.705 166.607 209.93 166.825 210.251V208.367H167.405V213.2H166.825V212.702C166.668 213.016 166.211 213.255 165.705 213.255ZM165.76 212.736C166.436 212.736 166.88 212.238 166.88 211.48C166.88 210.722 166.436 210.224 165.76 210.224C165.084 210.224 164.64 210.722 164.64 211.48C164.64 212.238 165.084 212.736 165.76 212.736ZM172.155 213.255C170.79 213.255 169.8 212.231 169.8 210.811C169.8 209.391 170.79 208.367 172.155 208.367C173.514 208.367 174.504 209.391 174.504 210.811C174.504 212.231 173.514 213.255 172.155 213.255ZM172.148 212.695C173.152 212.695 173.869 211.903 173.869 210.811C173.869 209.719 173.152 208.92 172.148 208.92C171.159 208.92 170.435 209.719 170.435 210.811C170.435 211.903 171.159 212.695 172.148 212.695ZM176.105 213.2V208.974H174.583V208.422H178.242V208.974H176.727V213.2H176.105ZM178.845 213.2V208.422H180.661C181.589 208.422 182.19 208.968 182.19 209.807C182.19 210.647 181.589 211.193 180.661 211.193H179.466V213.2H178.845ZM179.466 210.633H180.641C181.207 210.633 181.548 210.326 181.548 209.807C181.548 209.289 181.207 208.974 180.641 208.974H179.466V210.633Z" fill="#777777"/>
<path d="M51.4227 229.547L50.3322 225.963H50.8134L51.6685 229.009L52.5338 225.963H53.0202L53.8803 229.009L54.7354 225.963H55.2166L54.1312 229.547H53.6397L52.7795 226.659L51.9091 229.547H51.4227ZM57.758 228.139C57.758 228.2 57.7529 228.292 57.7478 228.339H55.71C55.7407 228.861 56.0684 229.204 56.5343 229.204C56.9286 229.204 57.1999 229.02 57.2767 228.697L57.6863 228.794C57.5583 229.296 57.1282 229.588 56.5343 229.588C55.7612 229.588 55.2748 228.989 55.2748 228.257C55.2748 227.524 55.7458 226.925 56.5241 226.925C57.287 226.925 57.758 227.473 57.758 228.139ZM55.7356 227.975H57.2972C57.2562 227.581 56.9798 227.289 56.5241 227.289C56.1196 227.289 55.8226 227.545 55.7356 227.975ZM60.1267 229.547L59.3382 226.966H59.7837L60.3418 228.938L60.9459 226.966H61.3658L61.9699 228.938L62.5229 226.966H62.9786L62.185 229.547H61.76L61.1558 227.586L60.5517 229.547H60.1267ZM63.6783 226.48C63.5042 226.48 63.3762 226.347 63.3762 226.178C63.3762 226.004 63.5042 225.871 63.6783 225.871C63.8575 225.871 63.9906 226.004 63.9906 226.178C63.9906 226.347 63.8575 226.48 63.6783 226.48ZM63.4633 229.547V226.966H63.8985V229.547H63.4633ZM65.4071 229.583C64.9463 229.629 64.6033 229.455 64.6033 228.917V225.922H65.0385V228.886C65.0385 229.168 65.1716 229.209 65.3866 229.194L65.4071 229.583ZM66.7171 229.583C66.2563 229.629 65.9133 229.455 65.9133 228.917V225.922H66.3485V228.886C66.3485 229.168 66.4816 229.209 66.6966 229.194L66.7171 229.583ZM69.3236 229.588C68.6989 229.588 68.361 229.199 68.2484 228.835L68.6221 228.671C68.7194 228.973 68.9242 229.219 69.3236 229.219C69.641 229.219 69.8458 229.035 69.8458 228.825C69.8458 228.164 68.361 228.589 68.361 227.612C68.361 227.202 68.7143 226.925 69.2672 226.925C69.7229 226.925 70.1172 227.181 70.2247 227.56L69.8612 227.719C69.7895 227.453 69.5335 227.284 69.257 227.284C68.9652 227.284 68.7808 227.402 68.7808 227.606C68.7808 228.159 70.2759 227.755 70.2708 228.82C70.2708 229.27 69.8919 229.588 69.3236 229.588ZM73.138 228.139C73.138 228.2 73.1329 228.292 73.1278 228.339H71.09C71.1207 228.861 71.4484 229.204 71.9143 229.204C72.3086 229.204 72.5799 229.02 72.6567 228.697L73.0663 228.794C72.9383 229.296 72.5082 229.588 71.9143 229.588C71.1412 229.588 70.6548 228.989 70.6548 228.257C70.6548 227.524 71.1258 226.925 71.9041 226.925C72.667 226.925 73.138 227.473 73.138 228.139ZM71.1156 227.975H72.6772C72.6362 227.581 72.3598 227.289 71.9041 227.289C71.4996 227.289 71.2026 227.545 71.1156 227.975ZM73.6983 229.547V226.966H74.1335V227.453C74.3127 227.146 74.625 226.925 75.0192 226.925C75.5568 226.925 75.9408 227.289 75.9408 227.837V229.547H75.5056V227.919C75.5056 227.571 75.2855 227.32 74.922 227.32C74.4407 227.32 74.1335 227.734 74.1335 228.415V229.547H73.6983ZM77.744 229.588C76.9401 229.588 76.4998 229.014 76.4998 228.257C76.4998 227.499 76.9401 226.925 77.7388 226.925C78.0819 226.925 78.4198 227.094 78.5836 227.335V225.922H79.0188V229.547H78.5836V229.173C78.4659 229.409 78.1228 229.588 77.744 229.588ZM77.7849 229.199C78.2918 229.199 78.6246 228.825 78.6246 228.257C78.6246 227.688 78.2918 227.315 77.7849 227.315C77.278 227.315 76.9452 227.688 76.9452 228.257C76.9452 228.825 77.278 229.199 77.7849 229.199ZM82.6581 226.966H83.1036L81.7519 230.479H81.3064L81.6802 229.511L80.6716 226.966H81.1426L81.9004 228.943L82.6581 226.966ZM84.6005 229.588C83.8325 229.588 83.2898 229.03 83.2898 228.257C83.2898 227.484 83.8325 226.925 84.6005 226.925C85.3634 226.925 85.9164 227.484 85.9164 228.257C85.9164 229.03 85.3634 229.588 84.6005 229.588ZM84.6005 229.199C85.1176 229.199 85.4658 228.81 85.4658 228.257C85.4658 227.704 85.1176 227.315 84.6005 227.315C84.0834 227.315 83.7352 227.704 83.7352 228.257C83.7352 228.81 84.0834 229.199 84.6005 229.199ZM88.7158 226.966V229.547H88.2806V229.06C88.1014 229.368 87.7891 229.588 87.3949 229.588C86.8573 229.588 86.4733 229.224 86.4733 228.676V226.966H86.9085V228.595C86.9085 228.943 87.1286 229.194 87.4922 229.194C87.9734 229.194 88.2806 228.779 88.2806 228.098V226.966H88.7158ZM91.6208 226.925C92.2455 226.925 92.6807 227.294 92.6807 227.893V229.547H92.2506V229.107C92.1021 229.404 91.7642 229.588 91.3904 229.588C90.8733 229.588 90.52 229.27 90.52 228.825C90.52 228.328 90.9245 228.057 91.7488 227.975L92.2506 227.919V227.868C92.2506 227.514 91.9997 227.289 91.6208 227.289C91.2676 227.289 91.0167 227.499 90.9808 227.847L90.5764 227.77C90.6532 227.258 91.0781 226.925 91.6208 226.925ZM91.457 229.229C91.9588 229.229 92.2506 228.897 92.2506 228.38V228.257L91.7488 228.313C91.2266 228.369 90.9552 228.548 90.9552 228.82C90.9552 229.06 91.16 229.229 91.457 229.229ZM93.3883 229.547V226.966H93.8235V227.453C94.0027 227.146 94.315 226.925 94.7092 226.925C95.2468 226.925 95.6308 227.289 95.6308 227.837V229.547H95.1956V227.919C95.1956 227.571 94.9755 227.32 94.612 227.32C94.1307 227.32 93.8235 227.734 93.8235 228.415V229.547H93.3883ZM99.1963 229.588C98.1723 229.588 97.4299 228.82 97.4299 227.755C97.4299 226.69 98.1723 225.922 99.1963 225.922C100.215 225.922 100.958 226.69 100.958 227.755C100.958 228.82 100.215 229.588 99.1963 229.588ZM99.1912 229.168C99.9438 229.168 100.481 228.574 100.481 227.755C100.481 226.936 99.9438 226.337 99.1912 226.337C98.4488 226.337 97.9061 226.936 97.9061 227.755C97.9061 228.574 98.4488 229.168 99.1912 229.168ZM102.159 229.547V226.378H101.017V225.963H103.761V226.378H102.625V229.547H102.159ZM104.214 229.547V225.963H105.576C106.272 225.963 106.723 226.372 106.723 227.002C106.723 227.632 106.272 228.042 105.576 228.042H104.68V229.547H104.214ZM104.68 227.622H105.56C105.985 227.622 106.241 227.391 106.241 227.002C106.241 226.613 105.985 226.378 105.56 226.378H104.68V227.622ZM109.81 229.526C109.682 229.572 109.544 229.588 109.406 229.588C108.966 229.588 108.643 229.342 108.643 228.774V227.35H108.162V226.966H108.643V226.183H109.078V226.966H109.769V227.35H109.078V228.789C109.078 229.06 109.232 229.194 109.457 229.194C109.56 229.194 109.677 229.178 109.78 229.127L109.81 229.526ZM111.416 229.588C110.648 229.588 110.105 229.03 110.105 228.257C110.105 227.484 110.648 226.925 111.416 226.925C112.178 226.925 112.731 227.484 112.731 228.257C112.731 229.03 112.178 229.588 111.416 229.588ZM111.416 229.199C111.933 229.199 112.281 228.81 112.281 228.257C112.281 227.704 111.933 227.315 111.416 227.315C110.898 227.315 110.55 227.704 110.55 228.257C110.55 228.81 110.898 229.199 111.416 229.199ZM115.895 229.526C115.767 229.572 115.629 229.588 115.491 229.588C115.051 229.588 114.728 229.342 114.728 228.774V227.35H114.247V226.966H114.728V226.183H115.163V226.966H115.854V227.35H115.163V228.789C115.163 229.06 115.317 229.194 115.542 229.194C115.645 229.194 115.762 229.178 115.865 229.127L115.895 229.526ZM116.448 229.547V225.922H116.883V227.473C117.073 227.105 117.385 226.925 117.764 226.925C118.348 226.925 118.732 227.289 118.732 227.847V229.547H118.297V227.929C118.297 227.55 118.061 227.32 117.667 227.32C117.191 227.32 116.883 227.75 116.883 228.441V229.547H116.448ZM121.773 228.139C121.773 228.2 121.768 228.292 121.763 228.339H119.725C119.756 228.861 120.083 229.204 120.549 229.204C120.944 229.204 121.215 229.02 121.292 228.697L121.701 228.794C121.573 229.296 121.143 229.588 120.549 229.588C119.776 229.588 119.29 228.989 119.29 228.257C119.29 227.524 119.761 226.925 120.539 226.925C121.302 226.925 121.773 227.473 121.773 228.139ZM119.751 227.975H121.312C121.271 227.581 120.995 227.289 120.539 227.289C120.135 227.289 119.838 227.545 119.751 227.975ZM123.568 229.547V226.966H124.003V227.453C124.131 227.146 124.387 226.925 124.782 226.925C125.202 226.925 125.529 227.12 125.621 227.468C125.76 227.161 126.067 226.925 126.456 226.925C127.009 226.925 127.357 227.274 127.357 227.816V229.547H126.922V227.903C126.922 227.55 126.722 227.309 126.359 227.309C125.918 227.309 125.678 227.704 125.678 228.252V229.547H125.243V227.903C125.243 227.55 125.043 227.309 124.684 227.309C124.244 227.309 124.003 227.704 124.003 228.252V229.547H123.568ZM129.226 229.588C128.458 229.588 127.915 229.03 127.915 228.257C127.915 227.484 128.458 226.925 129.226 226.925C129.988 226.925 130.541 227.484 130.541 228.257C130.541 229.03 129.988 229.588 129.226 229.588ZM129.226 229.199C129.743 229.199 130.091 228.81 130.091 228.257C130.091 227.704 129.743 227.315 129.226 227.315C128.708 227.315 128.36 227.704 128.36 228.257C128.36 228.81 128.708 229.199 129.226 229.199ZM132.373 229.588C131.994 229.588 131.651 229.409 131.533 229.173V229.547H131.098V225.922H131.533V227.335C131.697 227.094 132.035 226.925 132.378 226.925C133.177 226.925 133.617 227.499 133.617 228.257C133.617 229.014 133.177 229.588 132.373 229.588ZM132.332 229.199C132.839 229.199 133.172 228.825 133.172 228.257C133.172 227.688 132.839 227.315 132.332 227.315C131.825 227.315 131.498 227.688 131.498 228.257C131.498 228.825 131.825 229.199 132.332 229.199ZM134.388 226.48C134.214 226.48 134.086 226.347 134.086 226.178C134.086 226.004 134.214 225.871 134.388 225.871C134.568 225.871 134.701 226.004 134.701 226.178C134.701 226.347 134.568 226.48 134.388 226.48ZM134.173 229.547V226.966H134.608V229.547H134.173ZM136.117 229.583C135.656 229.629 135.313 229.455 135.313 228.917V225.922H135.748V228.886C135.748 229.168 135.882 229.209 136.097 229.194L136.117 229.583ZM138.958 228.139C138.958 228.2 138.953 228.292 138.948 228.339H136.91C136.941 228.861 137.268 229.204 137.734 229.204C138.129 229.204 138.4 229.02 138.477 228.697L138.886 228.794C138.758 229.296 138.328 229.588 137.734 229.588C136.961 229.588 136.475 228.989 136.475 228.257C136.475 227.524 136.946 226.925 137.724 226.925C138.487 226.925 138.958 227.473 138.958 228.139ZM136.936 227.975H138.497C138.456 227.581 138.18 227.289 137.724 227.289C137.32 227.289 137.023 227.545 136.936 227.975ZM140.753 229.547V226.966H141.188V227.453C141.368 227.146 141.68 226.925 142.074 226.925C142.612 226.925 142.996 227.289 142.996 227.837V229.547H142.561V227.919C142.561 227.571 142.34 227.32 141.977 227.32C141.496 227.32 141.188 227.734 141.188 228.415V229.547H140.753ZM145.921 226.966V229.547H145.486V229.06C145.306 229.368 144.994 229.588 144.6 229.588C144.062 229.588 143.678 229.224 143.678 228.676V226.966H144.113V228.595C144.113 228.943 144.334 229.194 144.697 229.194C145.178 229.194 145.486 228.779 145.486 228.098V226.966H145.921ZM146.628 229.547V226.966H147.063V227.453C147.191 227.146 147.447 226.925 147.842 226.925C148.262 226.925 148.589 227.12 148.681 227.468C148.82 227.161 149.127 226.925 149.516 226.925C150.069 226.925 150.417 227.274 150.417 227.816V229.547H149.982V227.903C149.982 227.55 149.782 227.309 149.419 227.309C148.978 227.309 148.738 227.704 148.738 228.252V229.547H148.303V227.903C148.303 227.55 148.103 227.309 147.744 227.309C147.304 227.309 147.063 227.704 147.063 228.252V229.547H146.628ZM152.398 229.588C152.019 229.588 151.676 229.409 151.558 229.173V229.547H151.123V225.922H151.558V227.335C151.722 227.094 152.06 226.925 152.403 226.925C153.202 226.925 153.642 227.499 153.642 228.257C153.642 229.014 153.202 229.588 152.398 229.588ZM152.357 229.199C152.864 229.199 153.197 228.825 153.197 228.257C153.197 227.688 152.864 227.315 152.357 227.315C151.85 227.315 151.523 227.688 151.523 228.257C151.523 228.825 151.85 229.199 152.357 229.199ZM156.533 228.139C156.533 228.2 156.528 228.292 156.523 228.339H154.485C154.516 228.861 154.843 229.204 155.309 229.204C155.704 229.204 155.975 229.02 156.052 228.697L156.461 228.794C156.333 229.296 155.903 229.588 155.309 229.588C154.536 229.588 154.05 228.989 154.05 228.257C154.05 227.524 154.521 226.925 155.299 226.925C156.062 226.925 156.533 227.473 156.533 228.139ZM154.511 227.975H156.072C156.031 227.581 155.755 227.289 155.299 227.289C154.895 227.289 154.598 227.545 154.511 227.975ZM158.604 227.391C158.506 227.35 158.384 227.33 158.271 227.33C157.861 227.33 157.528 227.724 157.528 228.564V229.547H157.093V226.966H157.528V227.489C157.677 227.161 158.015 226.925 158.332 226.925C158.44 226.925 158.542 226.941 158.629 226.972L158.604 227.391ZM161.092 229.583C160.631 229.629 160.288 229.455 160.288 228.917V225.922H160.723V228.886C160.723 229.168 160.857 229.209 161.072 229.194L161.092 229.583ZM161.813 226.48C161.639 226.48 161.511 226.347 161.511 226.178C161.511 226.004 161.639 225.871 161.813 225.871C161.993 225.871 162.126 226.004 162.126 226.178C162.126 226.347 161.993 226.48 161.813 226.48ZM161.598 229.547V226.966H162.033V229.547H161.598ZM162.738 229.547V226.966H163.173V227.453C163.353 227.146 163.665 226.925 164.059 226.925C164.597 226.925 164.981 227.289 164.981 227.837V229.547H164.546V227.919C164.546 227.571 164.325 227.32 163.962 227.32C163.481 227.32 163.173 227.734 163.173 228.415V229.547H162.738ZM167.444 229.547L166.472 228.277L166.129 228.589V229.547H165.688V225.922H166.129V228.016L167.322 226.966H167.9L166.794 227.985L167.987 229.547H167.444ZM170.623 228.139C170.623 228.2 170.618 228.292 170.613 228.339H168.575C168.606 228.861 168.933 229.204 169.399 229.204C169.794 229.204 170.065 229.02 170.142 228.697L170.551 228.794C170.423 229.296 169.993 229.588 169.399 229.588C168.626 229.588 168.14 228.989 168.14 228.257C168.14 227.524 168.611 226.925 169.389 226.925C170.152 226.925 170.623 227.473 170.623 228.139ZM168.601 227.975H170.162C170.121 227.581 169.845 227.289 169.389 227.289C168.985 227.289 168.688 227.545 168.601 227.975ZM172.279 229.588C171.475 229.588 171.035 229.014 171.035 228.257C171.035 227.499 171.475 226.925 172.274 226.925C172.617 226.925 172.955 227.094 173.119 227.335V225.922H173.554V229.547H173.119V229.173C173.001 229.409 172.658 229.588 172.279 229.588ZM172.32 229.199C172.827 229.199 173.16 228.825 173.16 228.257C173.16 227.688 172.827 227.315 172.32 227.315C171.813 227.315 171.48 227.688 171.48 228.257C171.48 228.825 171.813 229.199 172.32 229.199ZM176.067 229.547L175.278 226.966H175.724L176.282 228.938L176.886 226.966H177.306L177.91 228.938L178.463 226.966H178.919L178.125 229.547H177.7L177.096 227.586L176.492 229.547H176.067ZM179.618 226.48C179.444 226.48 179.316 226.347 179.316 226.178C179.316 226.004 179.444 225.871 179.618 225.871C179.798 225.871 179.931 226.004 179.931 226.178C179.931 226.347 179.798 226.48 179.618 226.48ZM179.403 229.547V226.966H179.838V229.547H179.403ZM181.915 229.526C181.787 229.572 181.649 229.588 181.511 229.588C181.071 229.588 180.748 229.342 180.748 228.774V227.35H180.267V226.966H180.748V226.183H181.183V226.966H181.874V227.35H181.183V228.789C181.183 229.06 181.337 229.194 181.562 229.194C181.665 229.194 181.782 229.178 181.885 229.127L181.915 229.526ZM182.468 229.547V225.922H182.903V227.473C183.093 227.105 183.405 226.925 183.784 226.925C184.368 226.925 184.752 227.289 184.752 227.847V229.547H184.317V227.929C184.317 227.55 184.081 227.32 183.687 227.32C183.211 227.32 182.903 227.75 182.903 228.441V229.547H182.468ZM52.2931 232.966H52.7386L51.3869 236.479H50.9414L51.3152 235.511L50.3066 232.966H50.7776L51.5354 234.943L52.2931 232.966ZM54.2355 235.588C53.4675 235.588 52.9248 235.03 52.9248 234.257C52.9248 233.484 53.4675 232.925 54.2355 232.925C54.9984 232.925 55.5514 233.484 55.5514 234.257C55.5514 235.03 54.9984 235.588 54.2355 235.588ZM54.2355 235.199C54.7526 235.199 55.1008 234.81 55.1008 234.257C55.1008 233.704 54.7526 233.315 54.2355 233.315C53.7184 233.315 53.3702 233.704 53.3702 234.257C53.3702 234.81 53.7184 235.199 54.2355 235.199ZM58.3508 232.966V235.547H57.9156V235.06C57.7364 235.368 57.4241 235.588 57.0299 235.588C56.4923 235.588 56.1083 235.224 56.1083 234.676V232.966H56.5435V234.595C56.5435 234.943 56.7636 235.194 57.1272 235.194C57.6084 235.194 57.9156 234.779 57.9156 234.098V232.966H58.3508ZM60.5687 233.391C60.4714 233.35 60.3485 233.33 60.2359 233.33C59.8263 233.33 59.4935 233.724 59.4935 234.564V235.547H59.0583V232.966H59.4935V233.489C59.642 233.161 59.9799 232.925 60.2973 232.925C60.4048 232.925 60.5072 232.941 60.5943 232.972L60.5687 233.391ZM64.7262 235.547L64.373 234.636H62.7806L62.4274 235.547H61.9461L63.3643 231.963H63.7893L65.2126 235.547H64.7262ZM62.9394 234.221H64.2142L63.5794 232.577L62.9394 234.221ZM66.5758 232.925C67.2005 232.925 67.6357 233.294 67.6357 233.893V235.547H67.2056V235.107C67.0571 235.404 66.7192 235.588 66.3454 235.588C65.8283 235.588 65.475 235.27 65.475 234.825C65.475 234.328 65.8795 234.057 66.7038 233.975L67.2056 233.919V233.868C67.2056 233.514 66.9547 233.289 66.5758 233.289C66.2226 233.289 65.9717 233.499 65.9358 233.847L65.5314 233.77C65.6082 233.258 66.0331 232.925 66.5758 232.925ZM66.412 235.229C66.9138 235.229 67.2056 234.897 67.2056 234.38V234.257L66.7038 234.313C66.1816 234.369 65.9102 234.548 65.9102 234.82C65.9102 235.06 66.115 235.229 66.412 235.229ZM69.439 235.588C68.6351 235.588 68.1948 235.014 68.1948 234.257C68.1948 233.499 68.6351 232.925 69.4338 232.925C69.7769 232.925 70.1148 233.094 70.2786 233.335V231.922H70.7138V235.547H70.2786V235.173C70.1609 235.409 69.8178 235.588 69.439 235.588ZM69.4799 235.199C69.9868 235.199 70.3196 234.825 70.3196 234.257C70.3196 233.688 69.9868 233.315 69.4799 233.315C68.973 233.315 68.6402 233.688 68.6402 234.257C68.6402 234.825 68.973 235.199 69.4799 235.199ZM71.4183 235.547V231.922H71.8535V233.473C72.0429 233.105 72.3552 232.925 72.7341 232.925C73.3178 232.925 73.7018 233.289 73.7018 233.847V235.547H73.2666V233.929C73.2666 233.55 73.0311 233.32 72.6368 233.32C72.1607 233.32 71.8535 233.75 71.8535 234.441V235.547H71.4183ZM75.3708 232.925C75.9955 232.925 76.4307 233.294 76.4307 233.893V235.547H76.0006V235.107C75.8521 235.404 75.5142 235.588 75.1404 235.588C74.6233 235.588 74.27 235.27 74.27 234.825C74.27 234.328 74.6745 234.057 75.4988 233.975L76.0006 233.919V233.868C76.0006 233.514 75.7497 233.289 75.3708 233.289C75.0176 233.289 74.7667 233.499 74.7308 233.847L74.3264 233.77C74.4032 233.258 74.8281 232.925 75.3708 232.925ZM75.207 235.229C75.7088 235.229 76.0006 234.897 76.0006 234.38V234.257L75.4988 234.313C74.9766 234.369 74.7052 234.548 74.7052 234.82C74.7052 235.06 74.91 235.229 75.207 235.229ZM78.1008 232.925C78.7255 232.925 79.1607 233.294 79.1607 233.893V235.547H78.7306V235.107C78.5821 235.404 78.2442 235.588 77.8704 235.588C77.3533 235.588 77 235.27 77 234.825C77 234.328 77.4045 234.057 78.2288 233.975L78.7306 233.919V233.868C78.7306 233.514 78.4797 233.289 78.1008 233.289C77.7476 233.289 77.4967 233.499 77.4608 233.847L77.0564 233.77C77.1332 233.258 77.5581 232.925 78.1008 232.925ZM77.937 235.229C78.4388 235.229 78.7306 234.897 78.7306 234.38V234.257L78.2288 234.313C77.7066 234.369 77.4352 234.548 77.4352 234.82C77.4352 235.06 77.64 235.229 77.937 235.229ZM81.3787 233.391C81.2814 233.35 81.1585 233.33 81.0459 233.33C80.6363 233.33 80.3035 233.724 80.3035 234.564V235.547H79.8683V232.966H80.3035V233.489C80.452 233.161 80.7899 232.925 81.1073 232.925C81.2148 232.925 81.3172 232.941 81.4043 232.972L81.3787 233.391ZM81.7306 235.588C81.5463 235.588 81.4183 235.46 81.4183 235.281C81.4183 235.107 81.5463 234.973 81.7306 234.973C81.9047 234.973 82.0429 235.107 82.0429 235.281C82.0429 235.46 81.9047 235.588 81.7306 235.588Z" fill="#767676"/>
<g filter="url(#filter1_d_936_9547)">
<rect x="40" y="342.733" width="160" height="30.72" fill="white"/>
</g>
<g style="mix-blend-mode:multiply">
<path d="M119.787 358.946C118.943 358.946 118.118 358.696 117.416 358.227C116.715 357.759 116.168 357.092 115.845 356.313C115.522 355.533 115.437 354.675 115.602 353.847C115.767 353.02 116.173 352.259 116.77 351.663C117.366 351.066 118.127 350.66 118.954 350.495C119.782 350.33 120.64 350.415 121.419 350.738C122.199 351.061 122.865 351.608 123.334 352.309C123.803 353.011 124.053 353.836 124.053 354.68C124.051 355.811 123.601 356.894 122.801 357.694C122.001 358.494 120.918 358.944 119.787 358.946Z" fill="#CDCDCD"/>
</g>
<mask id="mask0_936_9547" style="mask-type:alpha" maskUnits="userSpaceOnUse" x="115" y="350" width="10" height="9">
<path d="M119.787 358.947C118.943 358.947 118.118 358.697 117.416 358.228C116.715 357.76 116.168 357.093 115.845 356.314C115.522 355.534 115.437 354.676 115.602 353.848C115.767 353.021 116.173 352.26 116.77 351.664C117.366 351.067 118.127 350.661 118.954 350.496C119.782 350.331 120.64 350.416 121.419 350.739C122.199 351.062 122.865 351.609 123.334 352.31C123.803 353.012 124.053 353.837 124.053 354.681C124.051 355.812 123.601 356.895 122.801 357.695C122.001 358.495 120.918 358.945 119.787 358.947Z" fill="#B1CDE2"/>
</mask>
<g mask="url(#mask0_936_9547)">
<g style="mix-blend-mode:multiply">
<g style="mix-blend-mode:multiply">
<path d="M121.92 358.776C121.92 358.871 121.882 358.962 121.815 359.029C121.748 359.097 121.657 359.134 121.562 359.134H117.984C117.938 359.134 117.891 359.125 117.848 359.107C117.805 359.089 117.766 359.062 117.733 359.029C117.7 358.996 117.674 358.956 117.657 358.913C117.639 358.87 117.63 358.823 117.631 358.776V357.416C117.629 357.17 117.676 356.926 117.769 356.699C117.862 356.471 117.999 356.264 118.173 356.09C118.346 355.916 118.552 355.778 118.78 355.684C119.007 355.59 119.25 355.541 119.496 355.542H120.033C120.279 355.541 120.522 355.59 120.749 355.684C120.976 355.778 121.183 355.916 121.356 356.09C121.529 356.264 121.667 356.471 121.76 356.699C121.853 356.926 121.899 357.17 121.898 357.416L121.92 358.776Z" fill="#505050"/>
</g>
<g style="mix-blend-mode:multiply">
<path d="M119.645 355.249C119.899 355.249 120.148 355.174 120.359 355.032C120.57 354.89 120.734 354.688 120.83 354.452C120.926 354.217 120.95 353.958 120.898 353.709C120.846 353.46 120.721 353.232 120.539 353.054C120.357 352.876 120.126 352.757 119.876 352.711C119.626 352.665 119.368 352.694 119.134 352.795C118.901 352.897 118.703 353.065 118.566 353.28C118.429 353.494 118.359 353.744 118.365 353.999C118.373 354.333 118.511 354.651 118.75 354.885C118.989 355.119 119.31 355.25 119.645 355.249Z" fill="#505050"/>
</g>
</g>
</g>
<path d="M112.127 368.36V364.776H113.612C114.354 364.776 114.83 365.217 114.83 365.898C114.83 366.579 114.354 367.019 113.612 367.019H112.936V368.36H112.127ZM112.936 366.328H113.53C113.837 366.328 114.021 366.164 114.021 365.898C114.021 365.631 113.837 365.468 113.53 365.468H112.936V366.328ZM116.952 366.502C116.865 366.461 116.742 366.44 116.624 366.44C116.286 366.44 115.964 366.696 115.964 367.429V368.36H115.211V365.78H115.964V366.225C116.081 365.949 116.414 365.739 116.721 365.739C116.808 365.739 116.926 365.754 116.998 365.78L116.952 366.502ZM118.5 368.401C117.701 368.401 117.138 367.838 117.138 367.07C117.138 366.302 117.701 365.739 118.5 365.739C119.288 365.739 119.862 366.302 119.862 367.07C119.862 367.838 119.288 368.401 118.5 368.401ZM118.5 367.761C118.863 367.761 119.109 367.48 119.109 367.07C119.109 366.661 118.863 366.379 118.5 366.379C118.131 366.379 117.886 366.661 117.886 367.07C117.886 367.48 118.131 367.761 118.5 367.761ZM120.466 368.36V366.405H120.061V365.78H120.466V365.601C120.466 364.981 120.886 364.638 121.449 364.638C121.597 364.638 121.736 364.659 121.859 364.705L121.807 365.309C121.715 365.273 121.633 365.253 121.551 365.253C121.347 365.253 121.219 365.391 121.219 365.616V365.78H121.807V366.405H121.219V368.36H120.466ZM122.615 365.437C122.359 365.437 122.169 365.237 122.169 364.986C122.169 364.741 122.359 364.541 122.615 364.541C122.876 364.541 123.076 364.741 123.076 364.986C123.076 365.237 122.876 365.437 122.615 365.437ZM122.241 368.36V365.78H122.994V368.36H122.241ZM124.718 368.381C124.088 368.483 123.576 368.243 123.576 367.551V364.735H124.329V367.444C124.329 367.746 124.462 367.746 124.667 367.746L124.718 368.381ZM127.609 367.004C127.609 367.106 127.604 367.229 127.599 367.285H125.745C125.817 367.603 126.032 367.777 126.35 367.777C126.606 367.777 126.795 367.659 126.851 367.444L127.558 367.633C127.404 368.12 126.943 368.401 126.329 368.401C125.438 368.401 125.003 367.71 125.003 367.07C125.003 366.43 125.392 365.739 126.283 365.739C127.215 365.739 127.609 366.43 127.609 367.004ZM125.756 366.753H126.805C126.78 366.492 126.616 366.297 126.283 366.297C126.012 366.297 125.827 366.451 125.756 366.753Z" fill="#091016"/>
<path d="M169.606 354.466C169.606 354.299 169.59 354.133 169.56 353.969L170.773 353.097L169.754 351.375L168.378 351.977C168.108 351.766 167.805 351.598 167.481 351.48L167.313 349.986H165.274L165.106 351.45C164.78 351.577 164.477 351.756 164.209 351.977L162.833 351.365L161.813 353.087L163.026 353.969C162.968 354.298 162.968 354.635 163.026 354.964L161.813 355.845L162.833 357.567L164.209 356.98C164.479 357.191 164.782 357.359 165.106 357.478L165.274 358.946H167.313L167.481 357.483C167.805 357.364 168.108 357.196 168.378 356.985L169.754 357.572L170.773 355.85L169.56 354.964C169.59 354.8 169.606 354.633 169.606 354.466Z" fill="#CDCDCD"/>
<path d="M166.293 355.959C167.118 355.959 167.787 355.291 167.787 354.466C167.787 353.641 167.118 352.973 166.293 352.973C165.469 352.973 164.8 353.641 164.8 354.466C164.8 355.291 165.469 355.959 166.293 355.959Z" fill="#505050"/>
<path d="M158.071 368.4C157.355 368.4 156.75 367.914 156.684 367.259L157.39 367.049C157.436 367.448 157.749 367.714 158.102 367.714C158.425 367.714 158.635 367.561 158.635 367.335C158.635 366.66 156.796 367.059 156.796 365.743C156.796 365.154 157.36 364.734 158.061 364.734C158.752 364.734 159.31 365.103 159.433 365.651L158.711 365.953C158.64 365.63 158.399 365.42 158.061 365.42C157.78 365.42 157.605 365.538 157.605 365.738C157.605 366.306 159.449 365.851 159.449 367.315C159.449 367.965 158.896 368.4 158.071 368.4ZM162.366 367.003C162.366 367.105 162.361 367.228 162.356 367.284H160.502C160.574 367.602 160.789 367.776 161.106 367.776C161.362 367.776 161.552 367.658 161.608 367.443L162.315 367.632C162.161 368.119 161.7 368.4 161.086 368.4C160.195 368.4 159.76 367.709 159.76 367.069C159.76 366.429 160.149 365.738 161.04 365.738C161.972 365.738 162.366 366.429 162.366 367.003ZM160.512 366.752H161.562C161.536 366.491 161.372 366.296 161.04 366.296C160.768 366.296 160.584 366.45 160.512 366.752ZM164.375 368.334C164.252 368.375 164.109 368.4 163.956 368.4C163.397 368.4 162.972 368.103 162.972 367.479V366.404H162.563V365.779H162.972V365.031H163.725V365.779H164.35V366.404H163.725V367.381C163.725 367.612 163.848 367.745 164.032 367.745C164.124 367.745 164.237 367.73 164.324 367.684L164.375 368.334ZM166.395 368.334C166.272 368.375 166.129 368.4 165.976 368.4C165.417 368.4 164.992 368.103 164.992 367.479V366.404H164.583V365.779H164.992V365.031H165.745V365.779H166.37V366.404H165.745V367.381C165.745 367.612 165.868 367.745 166.052 367.745C166.144 367.745 166.257 367.73 166.344 367.684L166.395 368.334ZM167.181 365.436C166.925 365.436 166.736 365.236 166.736 364.985C166.736 364.74 166.925 364.54 167.181 364.54C167.443 364.54 167.642 364.74 167.642 364.985C167.642 365.236 167.443 365.436 167.181 365.436ZM166.808 368.359V365.779H167.56V368.359H166.808ZM168.143 368.359V365.779H168.895V366.122C169.049 365.897 169.331 365.738 169.684 365.738C170.252 365.738 170.631 366.107 170.631 366.675V368.359H169.883V366.875C169.883 366.593 169.709 366.404 169.438 366.404C169.08 366.404 168.895 366.695 168.895 367.228V368.359H168.143ZM172.61 367.796C173.24 367.796 173.599 368.068 173.599 368.533C173.599 369.132 172.994 369.332 172.313 369.332C171.54 369.332 171.023 369.107 171.023 368.59C171.023 368.431 171.115 368.236 171.264 368.108C171.167 368.011 171.11 367.893 171.11 367.76C171.11 367.509 171.259 367.325 171.489 367.223C171.341 367.074 171.254 366.869 171.254 366.629C171.254 366.091 171.684 365.738 172.308 365.738C172.482 365.738 172.636 365.764 172.774 365.815L173.143 365.4L173.578 365.779L173.23 366.168C173.317 366.296 173.363 366.455 173.363 366.629C173.363 367.166 172.938 367.515 172.308 367.515C172.191 367.515 172.083 367.504 171.981 367.479C171.878 367.53 171.822 367.596 171.822 367.663C171.822 367.755 171.909 367.796 172.047 367.796H172.61ZM172.308 366.306C172.093 366.306 171.945 366.434 171.945 366.629C171.945 366.818 172.093 366.946 172.308 366.946C172.513 366.946 172.667 366.818 172.667 366.629C172.667 366.434 172.513 366.306 172.308 366.306ZM172.313 368.738C172.718 368.738 172.872 368.677 172.872 368.539C172.872 368.395 172.723 368.37 172.477 368.37H172.037C171.96 368.37 171.889 368.364 171.817 368.354C171.766 368.421 171.75 368.472 171.75 368.539C171.75 368.677 171.878 368.738 172.313 368.738ZM174.884 368.4C174.255 368.4 173.865 368.016 173.732 367.627L174.336 367.392C174.398 367.632 174.598 367.832 174.884 367.832C175.084 367.832 175.217 367.735 175.217 367.591C175.217 367.187 173.85 367.458 173.85 366.48C173.85 366.076 174.203 365.738 174.772 365.738C175.299 365.738 175.734 365.994 175.852 366.368L175.248 366.619C175.181 366.383 174.971 366.276 174.797 366.276C174.628 366.276 174.511 366.347 174.511 366.46C174.511 366.869 175.898 366.532 175.898 367.576C175.898 368.021 175.488 368.4 174.884 368.4Z" fill="#091016"/>
<path d="M69.8667 353.274C69.8667 353.098 69.9561 352.936 70.1038 352.842L73.6451 350.588C73.8128 350.481 74.0272 350.481 74.1949 350.588L77.7362 352.842C77.8839 352.936 77.9733 353.098 77.9733 353.274V358.008C77.9733 358.291 77.7441 358.52 77.4613 358.52H70.3787C70.0959 358.52 69.8667 358.291 69.8667 358.008V353.274Z" fill="#CDCDCD"/>
<path d="M72.8533 356.387C72.8533 356.151 73.0444 355.96 73.28 355.96H74.56C74.7956 355.96 74.9867 356.151 74.9867 356.387V358.52H72.8533V356.387Z" fill="#505050"/>
<path d="M69.5332 364.776H70.3473V368.36H69.5332V366.86H68.1099V368.36H67.3009V364.776H68.1099V366.169H69.5332V364.776ZM72.1941 368.401C71.3954 368.401 70.8322 367.838 70.8322 367.07C70.8322 366.302 71.3954 365.739 72.1941 365.739C72.9826 365.739 73.556 366.302 73.556 367.07C73.556 367.838 72.9826 368.401 72.1941 368.401ZM72.1941 367.761C72.5576 367.761 72.8034 367.48 72.8034 367.07C72.8034 366.661 72.5576 366.379 72.1941 366.379C71.8255 366.379 71.5797 366.661 71.5797 367.07C71.5797 367.48 71.8255 367.761 72.1941 367.761ZM74.0052 368.36V365.78H74.7578V366.128C74.9063 365.898 75.1418 365.739 75.4849 365.739C75.8842 365.739 76.1351 365.903 76.2631 366.2C76.4013 365.954 76.7137 365.739 77.1335 365.739C77.6916 365.739 78.0602 366.113 78.0602 366.604V368.36H77.3127V366.824C77.3127 366.543 77.1591 366.369 76.8929 366.369C76.5805 366.369 76.4013 366.625 76.4013 367.039V368.36H75.6589V366.824C75.6589 366.543 75.5053 366.369 75.2442 366.369C74.937 366.369 74.7578 366.63 74.7578 367.039V368.36H74.0052ZM81.1233 367.004C81.1233 367.106 81.1181 367.229 81.113 367.285H79.2596C79.3313 367.603 79.5463 367.777 79.8637 367.777C80.1197 367.777 80.3092 367.659 80.3655 367.444L81.0721 367.633C80.9185 368.12 80.4577 368.401 79.8433 368.401C78.9524 368.401 78.5172 367.71 78.5172 367.07C78.5172 366.43 78.9063 365.739 79.7972 365.739C80.729 365.739 81.1233 366.43 81.1233 367.004ZM79.2698 366.753H80.3194C80.2938 366.492 80.13 366.297 79.7972 366.297C79.5258 366.297 79.3415 366.451 79.2698 366.753Z" fill="#091016"/>
</g>
</g>
<defs>
<filter id="filter0_d_936_9547" x="20" y="9" width="200" height="386.453" filterUnits="userSpaceOnUse" color-interpolation-filters="sRGB">
<feFlood flood-opacity="0" result="BackgroundImageFix"/>
<feColorMatrix in="SourceAlpha" type="matrix" values="0 0 0 0 0 0 0 0 0 0 0 0 0 0 0 0 0 0 127 0" result="hardAlpha"/>
<feOffset dy="2"/>
<feGaussianBlur stdDeviation="10"/>
<feComposite in2="hardAlpha" operator="out"/>
<feColorMatrix type="matrix" values="0 0 0 0 0.00392157 0 0 0 0 0.298039 0 0 0 0 0.572549 0 0 0 0.1 0"/>
<feBlend mode="normal" in2="BackgroundImageFix" result="effect1_dropShadow_936_9547"/>
<feBlend mode="normal" in="SourceGraphic" in2="effect1_dropShadow_936_9547" result="shape"/>
</filter>
<filter id="filter1_d_936_9547" x="31.4667" y="332.493" width="177.067" height="47.7864" filterUnits="userSpaceOnUse" color-interpolation-filters="sRGB">
<feFlood flood-opacity="0" result="BackgroundImageFix"/>
<feColorMatrix in="SourceAlpha" type="matrix" values="0 0 0 0 0 0 0 0 0 0 0 0 0 0 0 0 0 0 127 0" result="hardAlpha"/>
<feOffset dy="-1.70667"/>
<feGaussianBlur stdDeviation="4.26667"/>
<feComposite in2="hardAlpha" operator="out"/>
<feColorMatrix type="matrix" values="0 0 0 0 0.0040625 0 0 0 0 0.167963 0 0 0 0 0.320937 0 0 0 0.1 0"/>
<feBlend mode="normal" in2="BackgroundImageFix" result="effect1_dropShadow_936_9547"/>
<feBlend mode="normal" in="SourceGraphic" in2="effect1_dropShadow_936_9547" result="shape"/>
</filter>
<clipPath id="clip0_936_9547">
<rect x="40" y="27" width="160" height="346.453" rx="8.58" fill="white"/>
</clipPath>
<clipPath id="clip1_936_9547">
<rect width="10.24" height="10.24" fill="white" transform="translate(171.413 117.026)"/>
</clipPath>
<clipPath id="clip2_936_9547">
<rect width="10.24" height="10.1857" fill="white" transform="translate(171.413 161.4)"/>
</clipPath>
</defs>
</svg>
