<svg  viewBox="0 0 240 400" fill="none" xmlns="http://www.w3.org/2000/svg">
<rect width="240" height="400" rx="23.0739" fill="#F4F8FB"/>
<g filter="url(#filter0_d_936_9530)">
<g clip-path="url(#clip0_936_9530)">
<rect x="40" y="27" width="160" height="346.453" rx="7.59337" fill="white"/>
<g filter="url(#filter1_d_936_9530)">
<rect x="50.24" y="139.213" width="139.947" height="46.5067" rx="1.33686" fill="white"/>
</g>
<rect x="49.8135" y="44.4941" width="139.947" height="82.4482" rx="5.12" fill="#E4F4FF"/>
<g clip-path="url(#clip1_936_9530)">
<path d="M158.332 100.086C159.796 100.086 161.226 99.652 162.442 98.8381C163.659 98.0242 164.607 96.8674 165.167 95.514C165.727 94.1605 165.874 92.6712 165.588 91.2344C165.303 89.7976 164.598 88.4778 163.564 87.4419C162.529 86.406 161.211 85.7006 159.776 85.4148C158.341 85.129 156.853 85.2757 155.501 85.8363C154.15 86.3969 152.994 87.3463 152.181 88.5643C151.368 89.7824 150.935 91.2145 150.935 92.6795C150.935 94.6439 151.714 96.5279 153.101 97.917C154.489 99.3061 156.37 100.086 158.332 100.086Z" fill="#B7CDE1"/>
<path d="M157.736 102.245H158.741C167.061 102.245 173.849 107.799 173.849 114.588V125.278C173.797 125.762 173.557 126.206 173.181 126.515C172.805 126.824 172.323 126.973 171.839 126.93H144.646C144.162 126.975 143.679 126.828 143.302 126.52C142.924 126.213 142.683 125.769 142.628 125.285V114.588C142.628 107.771 149.388 102.245 157.736 102.245Z" fill="#B7CDE1"/>
<g style="mix-blend-mode:multiply">
<path d="M154.214 105.056H147.558V98.6768" stroke="#00CCCE" stroke-width="2.08" stroke-linecap="round" stroke-linejoin="round"/>
</g>
<g style="mix-blend-mode:multiply">
<path d="M169.058 98.6768V105.056H161.757" stroke="#00CCCE" stroke-width="2.08" stroke-linecap="round" stroke-linejoin="round"/>
</g>
<g style="mix-blend-mode:multiply">
<path d="M161.674 83.5303H169.058V90.1667" stroke="#00CCCE" stroke-width="2.08" stroke-linecap="round" stroke-linejoin="round"/>
</g>
<g style="mix-blend-mode:multiply">
<path d="M147.558 90.1667V83.5303H154.214" stroke="#00CCCE" stroke-width="2.08" stroke-linecap="round" stroke-linejoin="round"/>
</g>
<g style="mix-blend-mode:multiply">
<path d="M146.601 94.4844H169.772" stroke="#1482FF" stroke-width="2.08" stroke-linecap="round" stroke-linejoin="round"/>
</g>
</g>
<rect x="49.8134" y="300.92" width="139.947" height="18.7733" rx="4.26667" fill="#014C92"/>
<path d="M98.6197 313.248C97.2526 313.248 95.9854 312.334 95.9854 310.499C95.9854 308.663 97.2833 307.749 98.6888 307.749C99.979 307.749 100.893 308.425 101.1 309.539L100.071 309.754C99.9406 309.078 99.403 308.648 98.6811 308.648C97.7211 308.648 97.0376 309.323 97.0376 310.499C97.0376 311.674 97.7211 312.342 98.6657 312.342C99.4798 312.342 100.025 311.858 100.079 311.159H98.4814V310.314H101.047V313.187H100.102V312.534C99.8638 312.971 99.2725 313.248 98.6197 313.248ZM103.773 313.248C102.598 313.248 101.753 312.403 101.753 311.251C101.753 310.099 102.598 309.254 103.773 309.254C104.948 309.254 105.792 310.099 105.792 311.251C105.792 312.403 104.948 313.248 103.773 313.248ZM103.773 312.411C104.395 312.411 104.817 311.942 104.817 311.251C104.817 310.56 104.395 310.091 103.773 310.091C103.143 310.091 102.728 310.56 102.728 311.251C102.728 311.942 103.143 312.411 103.773 312.411ZM110.661 313.148C110.469 313.217 110.262 313.248 110.039 313.248C109.256 313.248 108.672 312.826 108.672 311.919V310.13H108.02V309.316H108.672V308.179H109.64V309.316H110.615V310.13H109.64V311.827C109.64 312.196 109.84 312.395 110.139 312.395C110.285 312.395 110.454 312.372 110.592 312.303L110.661 313.148ZM113.065 313.248C111.89 313.248 111.045 312.403 111.045 311.251C111.045 310.099 111.89 309.254 113.065 309.254C114.24 309.254 115.085 310.099 115.085 311.251C115.085 312.403 114.24 313.248 113.065 313.248ZM113.065 312.411C113.687 312.411 114.11 311.942 114.11 311.251C114.11 310.56 113.687 310.091 113.065 310.091C112.435 310.091 112.021 310.56 112.021 311.251C112.021 311.942 112.435 312.411 113.065 312.411ZM117.658 313.187V307.749H118.625V309.915C118.879 309.492 119.316 309.254 119.854 309.254C120.722 309.254 121.298 309.807 121.298 310.652V313.187H120.33V310.89C120.33 310.414 120.038 310.115 119.562 310.115C118.963 310.115 118.625 310.629 118.625 311.505V313.187H117.658ZM124.045 313.248C122.87 313.248 122.025 312.403 122.025 311.251C122.025 310.099 122.87 309.254 124.045 309.254C125.22 309.254 126.065 310.099 126.065 311.251C126.065 312.403 125.22 313.248 124.045 313.248ZM124.045 312.411C124.667 312.411 125.09 311.942 125.09 311.251C125.09 310.56 124.667 310.091 124.045 310.091C123.415 310.091 123.001 310.56 123.001 311.251C123.001 311.942 123.415 312.411 124.045 312.411ZM126.793 313.187V309.316H127.76V309.907C127.975 309.523 128.336 309.254 128.874 309.254C129.488 309.254 129.903 309.515 130.08 309.984C130.287 309.592 130.748 309.254 131.362 309.254C132.199 309.254 132.745 309.8 132.745 310.56V313.187H131.777V310.829C131.777 310.368 131.523 310.076 131.07 310.076C130.548 310.076 130.249 310.529 130.249 311.213V313.187H129.281V310.829C129.281 310.368 129.035 310.076 128.59 310.076C128.06 310.076 127.76 310.537 127.76 311.22V313.187H126.793ZM137.333 311.121C137.333 311.259 137.325 311.428 137.318 311.505H134.445C134.53 312.088 134.906 312.434 135.459 312.434C135.912 312.434 136.235 312.219 136.335 311.843L137.241 312.088C137.026 312.818 136.35 313.248 135.444 313.248C134.161 313.248 133.478 312.257 133.478 311.251C133.478 310.245 134.108 309.254 135.39 309.254C136.696 309.254 137.333 310.222 137.333 311.121ZM134.468 310.798H136.296C136.25 310.337 135.951 309.992 135.39 309.992C134.914 309.992 134.576 310.276 134.468 310.798ZM142.483 308.916L144.718 311.151L142.491 313.379L141.976 312.864L143.274 311.566H139.703V310.737H143.274L141.968 309.439L142.483 308.916Z" fill="#F2F2F2"/>
<path d="M73.8433 64.1502C71.2491 64.1502 69.0373 62.4845 69.0373 59.2623C69.0373 56.0402 71.2901 54.3745 73.8433 54.3745C76.2326 54.3745 77.8983 55.6579 78.1714 57.6376L76.0278 58.0882C75.8093 56.9413 74.9355 56.2177 73.8296 56.2177C72.3824 56.2177 71.2082 57.269 71.2082 59.2623C71.2082 61.2557 72.3687 62.2934 73.8296 62.2934C74.9492 62.2934 75.7547 61.6517 75.9732 60.6277L78.1441 61.1192C77.6935 63.017 76.0961 64.1502 73.8433 64.1502ZM82.7354 64.1502C80.6055 64.1502 79.1036 62.6484 79.1036 60.6004C79.1036 58.5524 80.6055 57.0505 82.7354 57.0505C84.838 57.0505 86.3672 58.5524 86.3672 60.6004C86.3672 62.6484 84.838 64.1502 82.7354 64.1502ZM82.7354 62.4436C83.7048 62.4436 84.3602 61.6926 84.3602 60.6004C84.3602 59.5081 83.7048 58.7572 82.7354 58.7572C81.7524 58.7572 81.097 59.5081 81.097 60.6004C81.097 61.6926 81.7524 62.4436 82.7354 62.4436ZM87.565 64.041V57.1597H89.572V58.0882C89.968 57.4738 90.596 57.0505 91.5108 57.0505C92.5757 57.0505 93.2448 57.4874 93.5861 58.2793C93.9547 57.6239 94.7876 57.0505 95.9072 57.0505C97.3954 57.0505 98.3784 58.0472 98.3784 59.3579V64.041H96.385V59.945C96.385 59.1941 95.9754 58.7299 95.2655 58.7299C94.4326 58.7299 93.9547 59.4125 93.9547 60.5185V64.041H91.975V59.945C91.975 59.1941 91.5654 58.7299 90.8691 58.7299C90.0499 58.7299 89.572 59.4262 89.572 60.5185V64.041H87.565ZM99.9383 66.5259V57.1597H101.945V57.8424C102.328 57.3645 102.997 57.0505 103.87 57.0505C105.782 57.0505 107.024 58.4431 107.024 60.6004C107.024 62.7576 105.673 64.1502 103.707 64.1502C102.956 64.1502 102.314 63.9181 101.945 63.5085V66.5259H99.9383ZM103.447 62.4436C104.417 62.4436 105.058 61.7063 105.058 60.6004C105.058 59.4945 104.417 58.7572 103.447 58.7572C102.478 58.7572 101.822 59.4945 101.822 60.6004C101.822 61.7063 102.478 62.4436 103.447 62.4436ZM111.276 64.0956C109.597 64.3687 108.232 63.727 108.232 61.8838V54.3745H110.239V61.5971C110.239 62.4026 110.594 62.4026 111.14 62.4026L111.276 64.0956ZM118.987 60.4229C118.987 60.6959 118.973 61.0236 118.959 61.1738H114.017C114.208 62.0203 114.781 62.4845 115.628 62.4845C116.31 62.4845 116.816 62.1705 116.966 61.5971L118.85 62.1022C118.44 63.3993 117.212 64.1502 115.573 64.1502C113.198 64.1502 112.037 62.307 112.037 60.6004C112.037 58.8937 113.075 57.0505 115.45 57.0505C117.935 57.0505 118.987 58.8937 118.987 60.4229ZM114.044 59.7539H116.843C116.775 59.0575 116.338 58.5387 115.45 58.5387C114.727 58.5387 114.235 58.9483 114.044 59.7539ZM124.345 63.9727C124.018 64.082 123.635 64.1502 123.226 64.1502C121.738 64.1502 120.604 63.3583 120.604 61.6926V58.8254H119.512V57.1597H120.604V55.1663H122.611V57.1597H124.277V58.8254H122.611V61.4332C122.611 62.0476 122.939 62.4026 123.431 62.4026C123.676 62.4026 123.977 62.3617 124.209 62.2388L124.345 63.9727ZM131.947 60.4229C131.947 60.6959 131.933 61.0236 131.919 61.1738H126.977C127.168 62.0203 127.741 62.4845 128.588 62.4845C129.27 62.4845 129.776 62.1705 129.926 61.5971L131.81 62.1022C131.4 63.3993 130.172 64.1502 128.533 64.1502C126.158 64.1502 124.997 62.307 124.997 60.6004C124.997 58.8937 126.035 57.0505 128.41 57.0505C130.895 57.0505 131.947 58.8937 131.947 60.4229ZM127.004 59.7539H129.803C129.735 59.0575 129.298 58.5387 128.41 58.5387C127.687 58.5387 127.195 58.9483 127.004 59.7539ZM71.1672 80.041L68.6687 73.1597H70.6757L72.0683 77.7199L73.461 73.1597H75.4817L72.9831 80.041H71.1672ZM77.335 72.245C76.6523 72.245 76.1472 71.7125 76.1472 71.0435C76.1472 70.3881 76.6523 69.8556 77.335 69.8556C78.0313 69.8556 78.5638 70.3881 78.5638 71.0435C78.5638 71.7125 78.0313 72.245 77.335 72.245ZM76.3383 80.041V73.1597H78.3453V80.041H76.3383ZM82.7928 80.1502C80.7721 80.1502 79.557 78.7576 79.557 76.6004C79.557 74.4431 80.7721 73.0505 82.7655 73.0505C83.5984 73.0505 84.2401 73.3509 84.6224 73.8151V70.3745H86.6294V80.041H84.6224V79.3583C84.2674 79.8499 83.5711 80.1502 82.7928 80.1502ZM83.1205 78.4436C84.1035 78.4436 84.7452 77.7063 84.7452 76.6004C84.7452 75.4945 84.1035 74.7572 83.1205 74.7572C82.1648 74.7572 81.5094 75.4945 81.5094 76.6004C81.5094 77.7063 82.1648 78.4436 83.1205 78.4436ZM94.7999 76.4229C94.7999 76.6959 94.7862 77.0236 94.7725 77.1738H89.83C90.0212 78.0203 90.5946 78.4845 91.4411 78.4845C92.1238 78.4845 92.629 78.1705 92.7792 77.5971L94.6633 78.1022C94.2537 79.3993 93.0249 80.1502 91.3865 80.1502C89.0108 80.1502 87.8503 78.307 87.8503 76.6004C87.8503 74.8937 88.888 73.0505 91.2636 73.0505C93.7485 73.0505 94.7999 74.8937 94.7999 76.4229ZM89.8573 75.7539H92.6563C92.588 75.0575 92.1511 74.5387 91.2636 74.5387C90.54 74.5387 90.0485 74.9483 89.8573 75.7539ZM99.3088 80.1502C97.1788 80.1502 95.677 78.6484 95.677 76.6004C95.677 74.5524 97.1788 73.0505 99.3088 73.0505C101.411 73.0505 102.941 74.5524 102.941 76.6004C102.941 78.6484 101.411 80.1502 99.3088 80.1502ZM99.3088 78.4436C100.278 78.4436 100.934 77.6926 100.934 76.6004C100.934 75.5081 100.278 74.7572 99.3088 74.7572C98.3257 74.7572 97.6704 75.5081 97.6704 76.6004C97.6704 77.6926 98.3257 78.4436 99.3088 78.4436ZM113.331 80.041L110.573 75.8767L109.644 76.8598V80.041H107.487V70.4837H109.644V73.9789L112.907 70.4837H115.734L112.074 74.3203L116.048 80.041H113.331ZM119.356 80.041V76.0952L116.12 70.4837H118.414L120.435 74.0745L122.469 70.4837H124.749L121.513 76.0952V80.041H119.356ZM129.23 80.1502C126.636 80.1502 124.424 78.4845 124.424 75.2623C124.424 72.0402 126.677 70.3745 129.23 70.3745C131.619 70.3745 133.285 71.6579 133.558 73.6376L131.414 74.0882C131.196 72.9413 130.322 72.2177 129.216 72.2177C127.769 72.2177 126.595 73.269 126.595 75.2623C126.595 77.2557 127.755 78.2934 129.216 78.2934C130.336 78.2934 131.141 77.6517 131.36 76.6277L133.531 77.1192C133.08 79.017 131.483 80.1502 129.23 80.1502Z" fill="#091016"/>
<path d="M57.7068 57.293L55.5734 59.4263L57.7068 61.5596" stroke="black" stroke-width="0.853333" stroke-linecap="round" stroke-linejoin="round"/>
<path d="M56.2134 59.4268H61.7601" stroke="black" stroke-width="0.853333" stroke-linecap="round" stroke-linejoin="round"/>
<path d="M58.6888 147.348L58.0006 146.533C57.8486 146.353 57.5794 146.33 57.3994 146.482L56.7474 147.033C56.5674 147.185 56.5447 147.454 56.6967 147.634L57.3849 148.449C57.5369 148.629 57.8061 148.652 57.9862 148.5L58.6381 147.949C58.8182 147.797 58.8409 147.528 58.6888 147.348Z" fill="#E59E30"/>
<path d="M64.2056 146.499L63.4514 147.253C63.2848 147.42 63.2848 147.69 63.4514 147.856L64.0548 148.46C64.2214 148.626 64.4916 148.626 64.6582 148.46L65.4124 147.706C65.5791 147.539 65.5791 147.269 65.4124 147.102L64.809 146.499C64.6424 146.332 64.3723 146.332 64.2056 146.499Z" fill="#E59E30"/>
<path d="M61.0582 156.707C64.0379 156.707 66.4534 154.292 66.4534 151.312C66.4534 148.333 64.0379 145.917 61.0582 145.917C58.0785 145.917 55.663 148.333 55.663 151.312C55.663 154.292 58.0785 156.707 61.0582 156.707Z" fill="#C4D9E9"/>
<g style="mix-blend-mode:multiply">
<g style="mix-blend-mode:multiply">
<path d="M61.0582 152.227C61.2384 152.227 61.4145 152.174 61.5643 152.074C61.7141 151.974 61.8309 151.831 61.8998 151.665C61.9688 151.498 61.9868 151.315 61.9517 151.138C61.9165 150.962 61.8298 150.799 61.7024 150.672C61.575 150.545 61.4126 150.458 61.2359 150.423C61.0592 150.388 60.8761 150.406 60.7096 150.475C60.5432 150.544 60.4009 150.66 60.3008 150.81C60.2007 150.96 60.1473 151.136 60.1473 151.316C60.1473 151.558 60.2433 151.79 60.4141 151.96C60.5849 152.131 60.8166 152.227 61.0582 152.227Z" fill="#FFB036"/>
</g>
</g>
<g style="mix-blend-mode:multiply">
<path d="M61.0582 145.917C59.724 145.919 58.4381 146.416 57.4504 147.314C56.4628 148.211 55.8441 149.443 55.7145 150.771C55.5849 152.099 55.9538 153.428 56.7494 154.499C57.5449 155.57 58.7104 156.307 60.0191 156.566C61.3279 156.826 62.6864 156.589 63.8306 155.903C64.9747 155.217 65.8228 154.129 66.2099 152.853C66.5969 151.576 66.4954 150.201 65.9249 148.994C65.3545 147.788 64.3559 146.837 63.1233 146.327C62.4685 146.056 61.7668 145.917 61.0582 145.917ZM61.0582 155.886C60 155.886 58.9746 155.519 58.1566 154.848C57.3385 154.177 56.7786 153.243 56.5721 152.205C56.3656 151.167 56.5254 150.089 57.0242 149.156C57.523 148.223 58.33 147.492 59.3076 147.087C60.2852 146.682 61.373 146.628 62.3857 146.935C63.3983 147.242 64.2731 147.891 64.861 148.771C65.449 149.651 65.7136 150.707 65.6099 151.76C65.5062 152.813 65.0406 153.798 64.2924 154.546C63.4342 155.404 62.2711 155.885 61.0582 155.886Z" fill="#B1CDE2"/>
</g>
<g style="mix-blend-mode:multiply">
<g style="mix-blend-mode:multiply">
<path d="M62.7649 145.614C62.8781 145.614 62.9866 145.569 63.0666 145.489C63.1466 145.409 63.1916 145.301 63.1916 145.187C63.1916 145.074 63.1466 144.966 63.0666 144.886C62.9866 144.806 62.8781 144.761 62.7649 144.761H59.3516C59.2384 144.761 59.1299 144.806 59.0499 144.886C58.9698 144.966 58.9249 145.074 58.9249 145.187C58.9249 145.301 58.9698 145.409 59.0499 145.489C59.1299 145.569 59.2384 145.614 59.3516 145.614H62.7649Z" fill="#A6D4FE"/>
</g>
</g>
<g style="mix-blend-mode:multiply">
<g style="mix-blend-mode:multiply">
<path d="M55.9234 154.361C56.0003 154.361 56.0741 154.327 56.1285 154.267C56.1829 154.207 56.2134 154.126 56.2134 154.041C56.2134 153.956 56.1829 153.874 56.1285 153.814C56.0741 153.754 56.0003 153.721 55.9234 153.721H54.7456C54.6687 153.721 54.5949 153.754 54.5405 153.814C54.4861 153.874 54.4556 153.956 54.4556 154.041C54.4556 154.126 54.4861 154.207 54.5405 154.267C54.5949 154.327 54.6687 154.361 54.7456 154.361H55.9234Z" fill="#A6D4FE"/>
</g>
</g>
<g style="mix-blend-mode:multiply">
<g style="mix-blend-mode:multiply">
<path d="M58.0034 155.64C58.0945 155.64 58.1818 155.606 58.2462 155.546C58.3106 155.486 58.3468 155.405 58.3468 155.32C58.3468 155.235 58.3106 155.154 58.2462 155.094C58.1818 155.034 58.0945 155 58.0034 155H55.3941C55.303 155 55.2157 155.034 55.1513 155.094C55.0869 155.154 55.0508 155.235 55.0508 155.32C55.0508 155.405 55.0869 155.486 55.1513 155.546C55.2157 155.606 55.303 155.64 55.3941 155.64H58.0034Z" fill="#A6D4FE"/>
</g>
</g>
<g style="mix-blend-mode:multiply">
<path d="M61.3334 147.961V147.534C61.3334 147.298 61.1902 147.107 61.0134 147.107C60.8367 147.107 60.6934 147.298 60.6934 147.534V147.961C60.6934 148.196 60.8367 148.387 61.0134 148.387C61.1902 148.387 61.3334 148.196 61.3334 147.961Z" fill="#B5CBDF"/>
</g>
<g style="mix-blend-mode:multiply">
<path d="M61.4742 151.175V149.341C61.4742 149.105 61.2832 148.914 61.0476 148.914C60.8119 148.914 60.6209 149.105 60.6209 149.341V151.175C60.6209 151.411 60.8119 151.602 61.0476 151.602C61.2832 151.602 61.4742 151.411 61.4742 151.175Z" fill="#FFB036"/>
</g>
<g style="mix-blend-mode:multiply">
<path d="M61.3462 155.171V154.744C61.3462 154.508 61.203 154.317 61.0262 154.317C60.8495 154.317 60.7062 154.508 60.7062 154.744V155.171C60.7062 155.406 60.8495 155.597 61.0262 155.597C61.203 155.597 61.3462 155.406 61.3462 155.171Z" fill="#B5CBDF"/>
</g>
<g style="mix-blend-mode:multiply">
<path d="M57.6449 150.947H57.2182C56.9826 150.947 56.7916 151.091 56.7916 151.267C56.7916 151.444 56.9826 151.587 57.2182 151.587H57.6449C57.8805 151.587 58.0716 151.444 58.0716 151.267C58.0716 151.091 57.8805 150.947 57.6449 150.947Z" fill="#B5CBDF"/>
</g>
<g style="mix-blend-mode:multiply">
<path d="M64.8982 150.947H64.4716C64.2359 150.947 64.0449 151.091 64.0449 151.267C64.0449 151.444 64.2359 151.587 64.4716 151.587H64.8982C65.1339 151.587 65.3249 151.444 65.3249 151.267C65.3249 151.091 65.1339 150.947 64.8982 150.947Z" fill="#B5CBDF"/>
</g>
<path d="M73.3549 151.814C71.9896 151.814 70.9997 150.79 70.9997 149.37C70.9997 147.95 71.9896 146.926 73.3549 146.926C74.7134 146.926 75.7033 147.95 75.7033 149.37C75.7033 150.79 74.7134 151.814 73.3549 151.814ZM73.3481 151.255C74.3516 151.255 75.0684 150.463 75.0684 149.37C75.0684 148.278 74.3516 147.479 73.3481 147.479C72.3582 147.479 71.6346 148.278 71.6346 149.37C71.6346 150.463 72.3582 151.255 73.3481 151.255ZM79.4476 148.319V151.76H78.8674V151.111C78.6284 151.521 78.212 151.814 77.6864 151.814C76.9696 151.814 76.4576 151.33 76.4576 150.599V148.319H77.0378V150.49C77.0378 150.954 77.3314 151.289 77.8161 151.289C78.4578 151.289 78.8674 150.736 78.8674 149.828V148.319H79.4476ZM82.4048 148.886C82.275 148.831 82.1112 148.804 81.961 148.804C81.4149 148.804 80.9712 149.329 80.9712 150.449V151.76H80.3909V148.319H80.9712V149.015C81.1691 148.579 81.6197 148.265 82.0429 148.265C82.1863 148.265 82.3228 148.285 82.4389 148.326L82.4048 148.886ZM85.5247 151.76L84.2686 148.319H84.8625L85.8182 151.084L86.7808 148.319H87.3816L86.1186 151.76H85.5247ZM88.2309 147.671C87.9988 147.671 87.8282 147.493 87.8282 147.268C87.8282 147.036 87.9988 146.858 88.2309 146.858C88.4699 146.858 88.6474 147.036 88.6474 147.268C88.6474 147.493 88.4699 147.671 88.2309 147.671ZM87.9442 151.76V148.319H88.5245V151.76H87.9442ZM90.9251 151.814C89.8533 151.814 89.2662 151.05 89.2662 150.039C89.2662 149.029 89.8533 148.265 90.9183 148.265C91.3757 148.265 91.8263 148.49 92.0447 148.811V146.926H92.625V151.76H92.0447V151.261C91.8877 151.575 91.4303 151.814 90.9251 151.814ZM90.9797 151.296C91.6556 151.296 92.0993 150.797 92.0993 150.039C92.0993 149.282 91.6556 148.783 90.9797 148.783C90.3039 148.783 89.8602 149.282 89.8602 150.039C89.8602 150.797 90.3039 151.296 90.9797 151.296ZM96.6772 149.882C96.6772 149.964 96.6704 150.087 96.6635 150.149H93.9465C93.9875 150.845 94.4244 151.302 95.0456 151.302C95.5713 151.302 95.9331 151.057 96.0355 150.627L96.5816 150.756C96.4109 151.425 95.8375 151.814 95.0456 151.814C94.0148 151.814 93.3662 151.016 93.3662 150.039C93.3662 149.063 93.9943 148.265 95.032 148.265C96.0491 148.265 96.6772 148.995 96.6772 149.882ZM93.9806 149.664H96.0628C96.0082 149.138 95.6395 148.749 95.032 148.749C94.4926 148.749 94.0967 149.091 93.9806 149.664ZM98.9739 151.814C97.9499 151.814 97.2262 151.07 97.2262 150.039C97.2262 149.009 97.9499 148.265 98.9739 148.265C99.991 148.265 100.728 149.009 100.728 150.039C100.728 151.07 99.991 151.814 98.9739 151.814ZM98.9739 151.296C99.6634 151.296 100.128 150.777 100.128 150.039C100.128 149.302 99.6634 148.783 98.9739 148.783C98.2844 148.783 97.8202 149.302 97.8202 150.039C97.8202 150.777 98.2844 151.296 98.9739 151.296ZM106.128 151.76L104.401 149.316L103.766 149.971V151.76H103.145V146.981H103.766V149.145L105.855 146.981H106.681L104.838 148.879L106.879 151.76H106.128ZM108.647 151.76V149.76L106.967 146.981H107.67L108.961 149.166L110.258 146.981H110.961L109.275 149.76V151.76H108.647ZM113.234 151.814C112.033 151.814 110.913 151.016 110.913 149.37C110.913 147.725 112.039 146.926 113.234 146.926C114.279 146.926 115.05 147.514 115.248 148.435L114.634 148.572C114.483 147.882 113.971 147.479 113.227 147.479C112.258 147.479 111.555 148.148 111.555 149.37C111.555 150.592 112.258 151.255 113.227 151.255C113.971 151.255 114.456 150.872 114.627 150.21L115.248 150.34C115.009 151.241 114.265 151.814 113.234 151.814ZM117.624 151.76V146.926H118.204V148.995C118.457 148.503 118.874 148.265 119.379 148.265C120.157 148.265 120.669 148.749 120.669 149.493V151.76H120.089V149.603C120.089 149.097 119.775 148.79 119.249 148.79C118.614 148.79 118.204 149.364 118.204 150.285V151.76H117.624ZM123.161 151.814C122.137 151.814 121.413 151.07 121.413 150.039C121.413 149.009 122.137 148.265 123.161 148.265C124.178 148.265 124.915 149.009 124.915 150.039C124.915 151.07 124.178 151.814 123.161 151.814ZM123.161 151.296C123.85 151.296 124.314 150.777 124.314 150.039C124.314 149.302 123.85 148.783 123.161 148.783C122.471 148.783 122.007 149.302 122.007 150.039C122.007 150.777 122.471 151.296 123.161 151.296ZM128.648 148.319V151.76H128.067V151.111C127.828 151.521 127.412 151.814 126.886 151.814C126.17 151.814 125.658 151.33 125.658 150.599V148.319H126.238V150.49C126.238 150.954 126.531 151.289 127.016 151.289C127.658 151.289 128.067 150.736 128.067 149.828V148.319H128.648ZM131.605 148.886C131.475 148.831 131.311 148.804 131.161 148.804C130.615 148.804 130.171 149.329 130.171 150.449V151.76H129.591V148.319H130.171V149.015C130.369 148.579 130.82 148.265 131.243 148.265C131.386 148.265 131.523 148.285 131.639 148.326L131.605 148.886ZM133.265 151.814C132.432 151.814 131.981 151.296 131.831 150.811L132.329 150.592C132.459 150.995 132.732 151.323 133.265 151.323C133.688 151.323 133.961 151.077 133.961 150.797C133.961 149.917 131.981 150.483 131.981 149.179C131.981 148.633 132.452 148.265 133.19 148.265C133.797 148.265 134.323 148.606 134.466 149.111L133.981 149.323C133.886 148.968 133.544 148.742 133.176 148.742C132.787 148.742 132.541 148.899 132.541 149.172C132.541 149.91 134.534 149.37 134.528 150.79C134.528 151.391 134.022 151.814 133.265 151.814ZM138.194 148.265C139.027 148.265 139.607 148.756 139.607 149.555V151.76H139.034V151.173C138.836 151.569 138.385 151.814 137.887 151.814C137.198 151.814 136.727 151.391 136.727 150.797C136.727 150.135 137.266 149.773 138.365 149.664L139.034 149.589V149.521C139.034 149.05 138.699 148.749 138.194 148.749C137.723 148.749 137.389 149.029 137.341 149.493L136.802 149.391C136.904 148.708 137.471 148.265 138.194 148.265ZM137.976 151.337C138.645 151.337 139.034 150.893 139.034 150.203V150.039L138.365 150.115C137.669 150.19 137.307 150.429 137.307 150.79C137.307 151.111 137.58 151.337 137.976 151.337ZM142.565 148.886C142.435 148.831 142.271 148.804 142.121 148.804C141.575 148.804 141.131 149.329 141.131 150.449V151.76H140.551V148.319H141.131V149.015C141.329 148.579 141.78 148.265 142.203 148.265C142.346 148.265 142.483 148.285 142.599 148.326L142.565 148.886ZM146.117 149.882C146.117 149.964 146.11 150.087 146.104 150.149H143.387C143.427 150.845 143.864 151.302 144.486 151.302C145.011 151.302 145.373 151.057 145.475 150.627L146.022 150.756C145.851 151.425 145.278 151.814 144.486 151.814C143.455 151.814 142.806 151.016 142.806 150.039C142.806 149.063 143.434 148.265 144.472 148.265C145.489 148.265 146.117 148.995 146.117 149.882ZM143.421 149.664H145.503C145.448 149.138 145.08 148.749 144.472 148.749C143.933 148.749 143.537 149.091 143.421 149.664ZM150.006 150.183C149.023 150.183 148.32 149.5 148.32 148.558C148.32 147.602 149.043 146.926 150.054 146.926C151.119 146.926 151.829 147.787 151.829 149.111C151.829 150.865 150.9 151.814 149.617 151.814C149.139 151.814 148.675 151.664 148.313 151.377L148.627 150.893C148.914 151.139 149.262 151.255 149.624 151.255C150.545 151.255 151.228 150.504 151.248 149.466C151.03 149.903 150.538 150.183 150.006 150.183ZM150.047 147.479C149.405 147.479 148.955 147.944 148.948 148.579C148.948 149.207 149.405 149.657 150.047 149.657C150.689 149.657 151.146 149.207 151.146 148.579C151.146 147.944 150.689 147.479 150.047 147.479ZM155.508 148.265C156.34 148.265 156.921 148.756 156.921 149.555V151.76H156.347V151.173C156.149 151.569 155.699 151.814 155.2 151.814C154.511 151.814 154.04 151.391 154.04 150.797C154.04 150.135 154.579 149.773 155.678 149.664L156.347 149.589V149.521C156.347 149.05 156.013 148.749 155.508 148.749C155.037 148.749 154.702 149.029 154.654 149.493L154.115 149.391C154.217 148.708 154.784 148.265 155.508 148.265ZM155.289 151.337C155.958 151.337 156.347 150.893 156.347 150.203V150.039L155.678 150.115C154.982 150.19 154.62 150.429 154.62 150.79C154.62 151.111 154.893 151.337 155.289 151.337ZM158.281 151.814C158.035 151.814 157.864 151.644 157.864 151.405C157.864 151.173 158.035 150.995 158.281 150.995C158.513 150.995 158.697 151.173 158.697 151.405C158.697 151.644 158.513 151.814 158.281 151.814ZM159.631 151.76V148.319H160.211V148.968C160.382 148.558 160.723 148.265 161.249 148.265C161.809 148.265 162.246 148.524 162.368 148.988C162.553 148.579 162.962 148.265 163.481 148.265C164.218 148.265 164.683 148.729 164.683 149.452V151.76H164.102V149.568C164.102 149.097 163.836 148.777 163.351 148.777C162.764 148.777 162.443 149.302 162.443 150.033V151.76H161.863V149.568C161.863 149.097 161.597 148.777 161.119 148.777C160.532 148.777 160.211 149.302 160.211 150.033V151.76H159.631ZM166.041 151.814C165.795 151.814 165.624 151.644 165.624 151.405C165.624 151.173 165.795 150.995 166.041 150.995C166.273 150.995 166.457 151.173 166.457 151.405C166.457 151.644 166.273 151.814 166.041 151.814ZM170.867 151.732C170.696 151.794 170.512 151.814 170.328 151.814C169.741 151.814 169.311 151.487 169.311 150.729V148.831H168.669V148.319H169.311V147.275H169.891V148.319H170.812V148.831H169.891V150.749C169.891 151.111 170.096 151.289 170.396 151.289C170.533 151.289 170.69 151.268 170.826 151.2L170.867 151.732ZM173.007 151.814C171.983 151.814 171.26 151.07 171.26 150.039C171.26 149.009 171.983 148.265 173.007 148.265C174.024 148.265 174.762 149.009 174.762 150.039C174.762 151.07 174.024 151.814 173.007 151.814ZM173.007 151.296C173.697 151.296 174.161 150.777 174.161 150.039C174.161 149.302 173.697 148.783 173.007 148.783C172.318 148.783 171.854 149.302 171.854 150.039C171.854 150.777 172.318 151.296 173.007 151.296ZM178.632 151.814C177.711 151.814 177.035 151.296 176.912 150.497L177.492 150.394C177.581 150.92 178.018 151.255 178.619 151.255C179.254 151.255 179.663 150.825 179.663 150.176C179.663 149.514 179.24 149.104 178.55 149.104C178.093 149.104 177.731 149.316 177.492 149.678L177.042 149.582L177.417 146.981H179.963V147.534H177.875L177.67 148.968C177.915 148.736 178.305 148.572 178.653 148.572C179.643 148.572 180.305 149.213 180.305 150.176C180.305 151.166 179.649 151.814 178.632 151.814ZM71.1909 162.002V157.319H71.7712V157.817C71.9555 157.503 72.406 157.265 72.9044 157.265C73.9625 157.265 74.5496 158.029 74.5496 159.039C74.5496 160.05 73.9489 160.814 72.8907 160.814C72.4538 160.814 72.0033 160.596 71.7712 160.282V162.002H71.1909ZM72.8361 160.296C73.5188 160.296 73.9625 159.797 73.9625 159.039C73.9625 158.282 73.5188 157.783 72.8361 157.783C72.1671 157.783 71.7234 158.282 71.7234 159.039C71.7234 159.797 72.1671 160.296 72.8361 160.296ZM75.5006 160.814C75.2549 160.814 75.0842 160.644 75.0842 160.405C75.0842 160.173 75.2549 159.995 75.5006 159.995C75.7328 159.995 75.9171 160.173 75.9171 160.405C75.9171 160.644 75.7328 160.814 75.5006 160.814ZM76.8509 160.76V157.319H77.4312V157.968C77.6018 157.558 77.9432 157.265 78.4688 157.265C79.0286 157.265 79.4655 157.524 79.5884 157.988C79.7727 157.579 80.1823 157.265 80.7011 157.265C81.4384 157.265 81.9026 157.729 81.9026 158.452V160.76H81.3224V158.568C81.3224 158.097 81.0561 157.777 80.5714 157.777C79.9843 157.777 79.6635 158.302 79.6635 159.033V160.76H79.0832V158.568C79.0832 158.097 78.817 157.777 78.3391 157.777C77.752 157.777 77.4312 158.302 77.4312 159.033V160.76H76.8509ZM83.2606 160.814C83.0149 160.814 82.8442 160.644 82.8442 160.405C82.8442 160.173 83.0149 159.995 83.2606 159.995C83.4928 159.995 83.6771 160.173 83.6771 160.405C83.6771 160.644 83.4928 160.814 83.2606 160.814ZM87.4932 160.76V158.76L85.8138 155.981H86.517L87.8072 158.166L89.1043 155.981H89.8074L88.1212 158.76V160.76H87.4932ZM91.2139 160.814C90.1899 160.814 89.4662 160.07 89.4662 159.039C89.4662 158.009 90.1899 157.265 91.2139 157.265C92.231 157.265 92.9683 158.009 92.9683 159.039C92.9683 160.07 92.231 160.814 91.2139 160.814ZM91.2139 160.296C91.9034 160.296 92.3676 159.777 92.3676 159.039C92.3676 158.302 91.9034 157.783 91.2139 157.783C90.5244 157.783 90.0602 158.302 90.0602 159.039C90.0602 159.777 90.5244 160.296 91.2139 160.296ZM96.701 157.319V160.76H96.1207V160.111C95.8818 160.521 95.4653 160.814 94.9397 160.814C94.2229 160.814 93.7109 160.33 93.7109 159.599V157.319H94.2912V159.49C94.2912 159.954 94.5847 160.289 95.0694 160.289C95.7111 160.289 96.1207 159.736 96.1207 158.828V157.319H96.701ZM100.574 157.265C101.407 157.265 101.987 157.756 101.987 158.555V160.76H101.414V160.173C101.216 160.569 100.765 160.814 100.267 160.814C99.5776 160.814 99.1066 160.391 99.1066 159.797C99.1066 159.135 99.6459 158.773 100.745 158.664L101.414 158.589V158.521C101.414 158.05 101.079 157.749 100.574 157.749C100.103 157.749 99.7688 158.029 99.721 158.493L99.1817 158.391C99.2841 157.708 99.8507 157.265 100.574 157.265ZM100.356 160.337C101.025 160.337 101.414 159.893 101.414 159.203V159.039L100.745 159.115C100.049 159.19 99.6868 159.429 99.6868 159.79C99.6868 160.111 99.9599 160.337 100.356 160.337ZM102.931 162.002V157.319H103.511V157.817C103.695 157.503 104.146 157.265 104.644 157.265C105.703 157.265 106.29 158.029 106.29 159.039C106.29 160.05 105.689 160.814 104.631 160.814C104.194 160.814 103.743 160.596 103.511 160.282V162.002H102.931ZM104.576 160.296C105.259 160.296 105.703 159.797 105.703 159.039C105.703 158.282 105.259 157.783 104.576 157.783C103.907 157.783 103.463 158.282 103.463 159.039C103.463 159.797 103.907 160.296 104.576 160.296ZM107.031 162.002V157.319H107.611V157.817C107.795 157.503 108.246 157.265 108.744 157.265C109.803 157.265 110.39 158.029 110.39 159.039C110.39 160.05 109.789 160.814 108.731 160.814C108.294 160.814 107.843 160.596 107.611 160.282V162.002H107.031ZM108.676 160.296C109.359 160.296 109.803 159.797 109.803 159.039C109.803 158.282 109.359 157.783 108.676 157.783C108.007 157.783 107.563 158.282 107.563 159.039C107.563 159.797 108.007 160.296 108.676 160.296ZM114.244 158.882C114.244 158.964 114.237 159.087 114.23 159.149H111.513C111.554 159.845 111.991 160.302 112.612 160.302C113.138 160.302 113.5 160.057 113.602 159.627L114.148 159.756C113.978 160.425 113.404 160.814 112.612 160.814C111.581 160.814 110.933 160.016 110.933 159.039C110.933 158.063 111.561 157.265 112.599 157.265C113.616 157.265 114.244 157.995 114.244 158.882ZM111.547 158.664H113.629C113.575 158.138 113.206 157.749 112.599 157.749C112.059 157.749 111.663 158.091 111.547 158.664ZM116.241 157.265C117.074 157.265 117.654 157.756 117.654 158.555V160.76H117.081V160.173C116.883 160.569 116.432 160.814 115.934 160.814C115.244 160.814 114.773 160.391 114.773 159.797C114.773 159.135 115.313 158.773 116.412 158.664L117.081 158.589V158.521C117.081 158.05 116.746 157.749 116.241 157.749C115.77 157.749 115.435 158.029 115.388 158.493L114.848 158.391C114.951 157.708 115.517 157.265 116.241 157.265ZM116.023 160.337C116.692 160.337 117.081 159.893 117.081 159.203V159.039L116.412 159.115C115.715 159.19 115.354 159.429 115.354 159.79C115.354 160.111 115.627 160.337 116.023 160.337ZM120.611 157.886C120.482 157.831 120.318 157.804 120.168 157.804C119.622 157.804 119.178 158.329 119.178 159.449V160.76H118.598V157.319H119.178V158.015C119.376 157.579 119.826 157.265 120.25 157.265C120.393 157.265 120.53 157.285 120.646 157.326L120.611 157.886ZM124.687 160.732C124.516 160.794 124.332 160.814 124.148 160.814C123.561 160.814 123.131 160.487 123.131 159.729V157.831H122.489V157.319H123.131V156.275H123.711V157.319H124.632V157.831H123.711V159.749C123.711 160.111 123.916 160.289 124.216 160.289C124.353 160.289 124.51 160.268 124.646 160.2L124.687 160.732ZM126.827 160.814C125.803 160.814 125.08 160.07 125.08 159.039C125.08 158.009 125.803 157.265 126.827 157.265C127.844 157.265 128.582 158.009 128.582 159.039C128.582 160.07 127.844 160.814 126.827 160.814ZM126.827 160.296C127.517 160.296 127.981 159.777 127.981 159.039C127.981 158.302 127.517 157.783 126.827 157.783C126.138 157.783 125.674 158.302 125.674 159.039C125.674 159.777 126.138 160.296 126.827 160.296ZM132.671 160.814C132.166 160.814 131.708 160.575 131.551 160.261V160.76H130.971V155.926H131.551V157.811C131.77 157.49 132.22 157.265 132.678 157.265C133.743 157.265 134.33 158.029 134.33 159.039C134.33 160.05 133.743 160.814 132.671 160.814ZM132.616 160.296C133.292 160.296 133.736 159.797 133.736 159.039C133.736 158.282 133.292 157.783 132.616 157.783C131.94 157.783 131.503 158.282 131.503 159.039C131.503 159.797 131.94 160.296 132.616 160.296ZM138.184 158.882C138.184 158.964 138.177 159.087 138.17 159.149H135.453C135.494 159.845 135.931 160.302 136.552 160.302C137.078 160.302 137.44 160.057 137.542 159.627L138.088 159.756C137.918 160.425 137.344 160.814 136.552 160.814C135.521 160.814 134.873 160.016 134.873 159.039C134.873 158.063 135.501 157.265 136.539 157.265C137.556 157.265 138.184 157.995 138.184 158.882ZM135.487 158.664H137.569C137.515 158.138 137.146 157.749 136.539 157.749C135.999 157.749 135.603 158.091 135.487 158.664ZM142.407 160.732C142.236 160.794 142.052 160.814 141.868 160.814C141.281 160.814 140.851 160.487 140.851 159.729V157.831H140.209V157.319H140.851V156.275H141.431V157.319H142.352V157.831H141.431V159.749C141.431 160.111 141.636 160.289 141.936 160.289C142.073 160.289 142.23 160.268 142.366 160.2L142.407 160.732ZM145.098 157.886C144.968 157.831 144.805 157.804 144.654 157.804C144.108 157.804 143.664 158.329 143.664 159.449V160.76H143.084V157.319H143.664V158.015C143.862 157.579 144.313 157.265 144.736 157.265C144.88 157.265 145.016 157.285 145.132 157.326L145.098 157.886ZM147.964 157.319H148.558L146.756 162.002H146.162L146.66 160.712L145.315 157.319H145.943L146.954 159.954L147.964 157.319ZM149.404 156.671C149.172 156.671 149.002 156.493 149.002 156.268C149.002 156.036 149.172 155.858 149.404 155.858C149.643 155.858 149.821 156.036 149.821 156.268C149.821 156.493 149.643 156.671 149.404 156.671ZM149.118 160.76V157.319H149.698V160.76H149.118ZM150.638 160.76V157.319H151.218V157.968C151.457 157.558 151.873 157.265 152.399 157.265C153.116 157.265 153.628 157.749 153.628 158.48V160.76H153.047V158.589C153.047 158.125 152.754 157.79 152.269 157.79C151.627 157.79 151.218 158.343 151.218 159.251V160.76H150.638ZM156.339 160.091C157.028 160.091 157.506 160.377 157.506 161.012C157.506 161.702 156.865 162.057 155.923 162.057C154.946 162.057 154.339 161.709 154.339 161.074C154.339 160.773 154.503 160.528 154.707 160.371C154.537 160.255 154.434 160.084 154.434 159.838C154.434 159.538 154.632 159.313 154.899 159.19C154.714 158.992 154.612 158.732 154.612 158.425C154.612 157.729 155.172 157.265 155.916 157.265C156.141 157.265 156.353 157.312 156.544 157.401L157.083 156.937L157.418 157.319L156.96 157.708C157.124 157.899 157.22 158.145 157.22 158.425C157.22 159.135 156.667 159.586 155.916 159.586C155.67 159.586 155.458 159.538 155.274 159.456C155.076 159.545 154.994 159.661 154.994 159.804C154.994 160.016 155.192 160.091 155.417 160.091H156.339ZM155.916 157.736C155.52 157.736 155.178 157.995 155.178 158.425C155.178 158.862 155.52 159.115 155.916 159.115C156.312 159.115 156.653 158.862 156.653 158.425C156.653 157.995 156.312 157.736 155.916 157.736ZM155.923 161.565C156.578 161.565 156.94 161.381 156.94 161.053C156.94 160.685 156.667 160.562 156.257 160.562H155.527C155.404 160.562 155.288 160.555 155.178 160.541C154.967 160.685 154.905 160.869 154.905 161.067C154.905 161.381 155.254 161.565 155.923 161.565ZM161.354 160.814C160.33 160.814 159.606 160.07 159.606 159.039C159.606 158.009 160.33 157.265 161.354 157.265C162.371 157.265 163.108 158.009 163.108 159.039C163.108 160.07 162.371 160.814 161.354 160.814ZM161.354 160.296C162.043 160.296 162.508 159.777 162.508 159.039C162.508 158.302 162.043 157.783 161.354 157.783C160.664 157.783 160.2 158.302 160.2 159.039C160.2 159.777 160.664 160.296 161.354 160.296ZM166.841 157.319V160.76H166.261V160.111C166.022 160.521 165.605 160.814 165.08 160.814C164.363 160.814 163.851 160.33 163.851 159.599V157.319H164.431V159.49C164.431 159.954 164.725 160.289 165.209 160.289C165.851 160.289 166.261 159.736 166.261 158.828V157.319H166.841ZM169.614 160.732C169.443 160.794 169.259 160.814 169.074 160.814C168.487 160.814 168.057 160.487 168.057 159.729V157.831H167.416V157.319H168.057V156.275H168.638V157.319H169.559V157.831H168.638V159.749C168.638 160.111 168.842 160.289 169.143 160.289C169.279 160.289 169.436 160.268 169.573 160.2L169.614 160.732ZM171.491 160.814C170.658 160.814 170.208 160.296 170.058 159.811L170.556 159.592C170.686 159.995 170.959 160.323 171.491 160.323C171.915 160.323 172.188 160.077 172.188 159.797C172.188 158.917 170.208 159.483 170.208 158.179C170.208 157.633 170.679 157.265 171.416 157.265C172.024 157.265 172.549 157.606 172.693 158.111L172.208 158.323C172.112 157.968 171.771 157.742 171.403 157.742C171.013 157.742 170.768 157.899 170.768 158.172C170.768 158.91 172.761 158.37 172.754 159.79C172.754 160.391 172.249 160.814 171.491 160.814ZM173.778 156.671C173.546 156.671 173.375 156.493 173.375 156.268C173.375 156.036 173.546 155.858 173.778 155.858C174.017 155.858 174.194 156.036 174.194 156.268C174.194 156.493 174.017 156.671 173.778 156.671ZM173.491 160.76V157.319H174.071V160.76H173.491ZM176.472 160.814C175.4 160.814 174.813 160.05 174.813 159.039C174.813 158.029 175.4 157.265 176.465 157.265C176.922 157.265 177.373 157.49 177.591 157.811V155.926H178.172V160.76H177.591V160.261C177.434 160.575 176.977 160.814 176.472 160.814ZM176.526 160.296C177.202 160.296 177.646 159.797 177.646 159.039C177.646 158.282 177.202 157.783 176.526 157.783C175.851 157.783 175.407 158.282 175.407 159.039C175.407 159.797 175.851 160.296 176.526 160.296ZM182.224 158.882C182.224 158.964 182.217 159.087 182.21 159.149H179.493C179.534 159.845 179.971 160.302 180.592 160.302C181.118 160.302 181.48 160.057 181.582 159.627L182.128 159.756C181.958 160.425 181.384 160.814 180.592 160.814C179.561 160.814 178.913 160.016 178.913 159.039C178.913 158.063 179.541 157.265 180.579 157.265C181.596 157.265 182.224 157.995 182.224 158.882ZM179.527 158.664H181.609C181.555 158.138 181.186 157.749 180.579 157.749C180.039 157.749 179.643 158.091 179.527 158.664ZM72.7405 169.814C71.7165 169.814 70.9929 169.07 70.9929 168.039C70.9929 167.009 71.7165 166.265 72.7405 166.265C73.7577 166.265 74.495 167.009 74.495 168.039C74.495 169.07 73.7577 169.814 72.7405 169.814ZM72.7405 169.296C73.43 169.296 73.8942 168.777 73.8942 168.039C73.8942 167.302 73.43 166.783 72.7405 166.783C72.051 166.783 71.5868 167.302 71.5868 168.039C71.5868 168.777 72.051 169.296 72.7405 169.296ZM75.4856 169.76V166.831H74.8985V166.319H75.4856V165.998C75.4856 165.241 75.9156 164.838 76.5027 164.838C76.6597 164.838 76.8236 164.851 76.9669 164.892L76.9396 165.411C76.8168 165.363 76.6939 165.343 76.5778 165.343C76.2706 165.343 76.0658 165.582 76.0658 165.95V166.319H76.9465V166.831H76.0658V169.76H75.4856ZM81.1204 169.732C80.9498 169.794 80.7654 169.814 80.5811 169.814C79.994 169.814 79.564 169.487 79.564 168.729V166.831H78.9222V166.319H79.564V165.275H80.1442V166.319H81.0658V166.831H80.1442V168.749C80.1442 169.111 80.349 169.289 80.6494 169.289C80.7859 169.289 80.9429 169.268 81.0795 169.2L81.1204 169.732ZM81.8576 169.76V164.926H82.4378V166.995C82.6904 166.503 83.1068 166.265 83.612 166.265C84.3902 166.265 84.9022 166.749 84.9022 167.493V169.76H84.322V167.603C84.322 167.097 84.008 166.79 83.4823 166.79C82.8474 166.79 82.4378 167.364 82.4378 168.285V169.76H81.8576ZM88.9572 167.882C88.9572 167.964 88.9504 168.087 88.9435 168.149H86.2265C86.2675 168.845 86.7044 169.302 87.3256 169.302C87.8513 169.302 88.2131 169.057 88.3155 168.627L88.8616 168.756C88.6909 169.425 88.1175 169.814 87.3256 169.814C86.2948 169.814 85.6462 169.016 85.6462 168.039C85.6462 167.063 86.2743 166.265 87.312 166.265C88.3291 166.265 88.9572 166.995 88.9572 167.882ZM86.2606 167.664H88.3428C88.2882 167.138 87.9195 166.749 87.312 166.749C86.7726 166.749 86.3767 167.091 86.2606 167.664ZM90.8246 169.814C89.9917 169.814 89.5412 169.296 89.391 168.811L89.8893 168.592C90.019 168.995 90.2921 169.323 90.8246 169.323C91.2478 169.323 91.5209 169.077 91.5209 168.797C91.5209 167.917 89.5412 168.483 89.5412 167.179C89.5412 166.633 90.0122 166.265 90.7495 166.265C91.3571 166.265 91.8827 166.606 92.0261 167.111L91.5414 167.323C91.4458 166.968 91.1045 166.742 90.7358 166.742C90.3467 166.742 90.101 166.899 90.101 167.172C90.101 167.91 92.0944 167.37 92.0875 168.79C92.0875 169.391 91.5824 169.814 90.8246 169.814ZM95.9105 167.882C95.9105 167.964 95.9037 168.087 95.8969 168.149H93.1798C93.2208 168.845 93.6577 169.302 94.2789 169.302C94.8046 169.302 95.1664 169.057 95.2688 168.627L95.8149 168.756C95.6443 169.425 95.0708 169.814 94.2789 169.814C93.2481 169.814 92.5996 169.016 92.5996 168.039C92.5996 167.063 93.2276 166.265 94.2653 166.265C95.2825 166.265 95.9105 166.995 95.9105 167.882ZM93.214 167.664H95.2961C95.2415 167.138 94.8729 166.749 94.2653 166.749C93.726 166.749 93.33 167.091 93.214 167.664ZM100.134 169.732C99.9631 169.794 99.7788 169.814 99.5945 169.814C99.0074 169.814 98.5773 169.487 98.5773 168.729V166.831H97.9356V166.319H98.5773V165.275H99.1576V166.319H100.079V166.831H99.1576V168.749C99.1576 169.111 99.3624 169.289 99.6627 169.289C99.7993 169.289 99.9563 169.268 100.093 169.2L100.134 169.732ZM101.098 165.671C100.866 165.671 100.695 165.493 100.695 165.268C100.695 165.036 100.866 164.858 101.098 164.858C101.337 164.858 101.514 165.036 101.514 165.268C101.514 165.493 101.337 165.671 101.098 165.671ZM100.811 169.76V166.319H101.391V169.76H100.811ZM102.331 169.76V166.319H102.911V166.968C103.082 166.558 103.423 166.265 103.949 166.265C104.509 166.265 104.946 166.524 105.068 166.988C105.253 166.579 105.662 166.265 106.181 166.265C106.918 166.265 107.383 166.729 107.383 167.452V169.76H106.802V167.568C106.802 167.097 106.536 166.777 106.051 166.777C105.464 166.777 105.143 167.302 105.143 168.033V169.76H104.563V167.568C104.563 167.097 104.297 166.777 103.819 166.777C103.232 166.777 102.911 167.302 102.911 168.033V169.76H102.331ZM111.437 167.882C111.437 167.964 111.43 168.087 111.424 168.149H108.707C108.747 168.845 109.184 169.302 109.806 169.302C110.331 169.302 110.693 169.057 110.795 168.627L111.342 168.756C111.171 169.425 110.598 169.814 109.806 169.814C108.775 169.814 108.126 169.016 108.126 168.039C108.126 167.063 108.754 166.265 109.792 166.265C110.809 166.265 111.437 166.995 111.437 167.882ZM108.741 167.664H110.823C110.768 167.138 110.4 166.749 109.792 166.749C109.253 166.749 108.857 167.091 108.741 167.664ZM113.305 169.814C112.472 169.814 112.021 169.296 111.871 168.811L112.369 168.592C112.499 168.995 112.772 169.323 113.305 169.323C113.728 169.323 114.001 169.077 114.001 168.797C114.001 167.917 112.021 168.483 112.021 167.179C112.021 166.633 112.492 166.265 113.23 166.265C113.837 166.265 114.363 166.606 114.506 167.111L114.021 167.323C113.926 166.968 113.584 166.742 113.216 166.742C112.827 166.742 112.581 166.899 112.581 167.172C112.581 167.91 114.574 167.37 114.568 168.79C114.568 169.391 114.062 169.814 113.305 169.814ZM115.587 169.814C115.342 169.814 115.171 169.644 115.171 169.405C115.171 169.173 115.342 168.995 115.587 168.995C115.819 168.995 116.004 169.173 116.004 169.405C116.004 169.644 115.819 169.814 115.587 169.814ZM118.612 169.76V164.981H120.427C121.356 164.981 121.957 165.527 121.957 166.367C121.957 167.207 121.356 167.753 120.427 167.753H119.233V169.76H118.612ZM119.233 167.193H120.407C120.974 167.193 121.315 166.886 121.315 166.367C121.315 165.848 120.974 165.534 120.407 165.534H119.233V167.193ZM123.669 169.808C123.055 169.869 122.598 169.637 122.598 168.92V164.926H123.178V168.879C123.178 169.255 123.355 169.309 123.642 169.289L123.669 169.808ZM127.457 167.882C127.457 167.964 127.45 168.087 127.444 168.149H124.727C124.767 168.845 125.204 169.302 125.826 169.302C126.351 169.302 126.713 169.057 126.815 168.627L127.362 168.756C127.191 169.425 126.618 169.814 125.826 169.814C124.795 169.814 124.146 169.016 124.146 168.039C124.146 167.063 124.774 166.265 125.812 166.265C126.829 166.265 127.457 166.995 127.457 167.882ZM124.761 167.664H126.843C126.788 167.138 126.42 166.749 125.812 166.749C125.273 166.749 124.877 167.091 124.761 167.664ZM129.454 166.265C130.287 166.265 130.867 166.756 130.867 167.555V169.76H130.294V169.173C130.096 169.569 129.645 169.814 129.147 169.814C128.458 169.814 127.987 169.391 127.987 168.797C127.987 168.135 128.526 167.773 129.625 167.664L130.294 167.589V167.521C130.294 167.05 129.959 166.749 129.454 166.749C128.983 166.749 128.649 167.029 128.601 167.493L128.062 167.391C128.164 166.708 128.731 166.265 129.454 166.265ZM129.236 169.337C129.905 169.337 130.294 168.893 130.294 168.203V168.039L129.625 168.115C128.929 168.19 128.567 168.429 128.567 168.79C128.567 169.111 128.84 169.337 129.236 169.337ZM132.965 169.814C132.132 169.814 131.681 169.296 131.531 168.811L132.029 168.592C132.159 168.995 132.432 169.323 132.965 169.323C133.388 169.323 133.661 169.077 133.661 168.797C133.661 167.917 131.681 168.483 131.681 167.179C131.681 166.633 132.152 166.265 132.89 166.265C133.497 166.265 134.023 166.606 134.166 167.111L133.681 167.323C133.586 166.968 133.244 166.742 132.876 166.742C132.487 166.742 132.241 166.899 132.241 167.172C132.241 167.91 134.234 167.37 134.228 168.79C134.228 169.391 133.722 169.814 132.965 169.814ZM138.051 167.882C138.051 167.964 138.044 168.087 138.037 168.149H135.32C135.361 168.845 135.798 169.302 136.419 169.302C136.945 169.302 137.306 169.057 137.409 168.627L137.955 168.756C137.784 169.425 137.211 169.814 136.419 169.814C135.388 169.814 134.74 169.016 134.74 168.039C134.74 167.063 135.368 166.265 136.405 166.265C137.422 166.265 138.051 166.995 138.051 167.882ZM135.354 167.664H137.436C137.382 167.138 137.013 166.749 136.405 166.749C135.866 166.749 135.47 167.091 135.354 167.664ZM142.274 169.732C142.103 169.794 141.919 169.814 141.734 169.814C141.147 169.814 140.717 169.487 140.717 168.729V166.831H140.076V166.319H140.717V165.275H141.298V166.319H142.219V166.831H141.298V168.749C141.298 169.111 141.502 169.289 141.803 169.289C141.939 169.289 142.096 169.268 142.233 169.2L142.274 169.732ZM144.965 166.886C144.835 166.831 144.671 166.804 144.521 166.804C143.975 166.804 143.531 167.329 143.531 168.449V169.76H142.951V166.319H143.531V167.015C143.729 166.579 144.18 166.265 144.603 166.265C144.746 166.265 144.883 166.285 144.999 166.326L144.965 166.886ZM147.831 166.319H148.425L146.622 171.002H146.028L146.527 169.712L145.182 166.319H145.81L146.82 168.954L147.831 166.319ZM151.914 166.265C152.747 166.265 153.327 166.756 153.327 167.555V169.76H152.754V169.173C152.556 169.569 152.105 169.814 151.607 169.814C150.918 169.814 150.447 169.391 150.447 168.797C150.447 168.135 150.986 167.773 152.085 167.664L152.754 167.589V167.521C152.754 167.05 152.419 166.749 151.914 166.749C151.443 166.749 151.109 167.029 151.061 167.493L150.522 167.391C150.624 166.708 151.191 166.265 151.914 166.265ZM151.696 169.337C152.365 169.337 152.754 168.893 152.754 168.203V168.039L152.085 168.115C151.389 168.19 151.027 168.429 151.027 168.79C151.027 169.111 151.3 169.337 151.696 169.337ZM156.039 169.091C156.728 169.091 157.206 169.377 157.206 170.012C157.206 170.702 156.565 171.057 155.623 171.057C154.646 171.057 154.039 170.709 154.039 170.074C154.039 169.773 154.203 169.528 154.407 169.371C154.237 169.255 154.134 169.084 154.134 168.838C154.134 168.538 154.332 168.313 154.599 168.19C154.414 167.992 154.312 167.732 154.312 167.425C154.312 166.729 154.872 166.265 155.616 166.265C155.841 166.265 156.053 166.312 156.244 166.401L156.783 165.937L157.118 166.319L156.66 166.708C156.824 166.899 156.92 167.145 156.92 167.425C156.92 168.135 156.367 168.586 155.616 168.586C155.37 168.586 155.158 168.538 154.974 168.456C154.776 168.545 154.694 168.661 154.694 168.804C154.694 169.016 154.892 169.091 155.117 169.091H156.039ZM155.616 166.736C155.22 166.736 154.878 166.995 154.878 167.425C154.878 167.862 155.22 168.115 155.616 168.115C156.012 168.115 156.353 167.862 156.353 167.425C156.353 166.995 156.012 166.736 155.616 166.736ZM155.623 170.565C156.278 170.565 156.64 170.381 156.64 170.053C156.64 169.685 156.367 169.562 155.957 169.562H155.227C155.104 169.562 154.988 169.555 154.878 169.541C154.667 169.685 154.605 169.869 154.605 170.067C154.605 170.381 154.954 170.565 155.623 170.565ZM159.141 166.265C159.974 166.265 160.554 166.756 160.554 167.555V169.76H159.981V169.173C159.783 169.569 159.332 169.814 158.834 169.814C158.144 169.814 157.673 169.391 157.673 168.797C157.673 168.135 158.213 167.773 159.312 167.664L159.981 167.589V167.521C159.981 167.05 159.646 166.749 159.141 166.749C158.67 166.749 158.335 167.029 158.288 167.493L157.748 167.391C157.851 166.708 158.417 166.265 159.141 166.265ZM158.923 169.337C159.592 169.337 159.981 168.893 159.981 168.203V168.039L159.312 168.115C158.615 168.19 158.254 168.429 158.254 168.79C158.254 169.111 158.527 169.337 158.923 169.337ZM161.784 165.671C161.552 165.671 161.382 165.493 161.382 165.268C161.382 165.036 161.552 164.858 161.784 164.858C162.023 164.858 162.201 165.036 162.201 165.268C162.201 165.493 162.023 165.671 161.784 165.671ZM161.498 169.76V166.319H162.078V169.76H161.498ZM163.018 169.76V166.319H163.598V166.968C163.837 166.558 164.253 166.265 164.779 166.265C165.496 166.265 166.008 166.749 166.008 167.48V169.76H165.427V167.589C165.427 167.125 165.134 166.79 164.649 166.79C164.007 166.79 163.598 167.343 163.598 168.251V169.76H163.018ZM72.2627 178.808C71.6483 178.869 71.1909 178.637 71.1909 177.92V173.926H71.7712V177.879C71.7712 178.255 71.9486 178.309 72.2354 178.289L72.2627 178.808ZM74.221 175.265C75.0538 175.265 75.6341 175.756 75.6341 176.555V178.76H75.0606V178.173C74.8627 178.569 74.4121 178.814 73.9138 178.814C73.2243 178.814 72.7532 178.391 72.7532 177.797C72.7532 177.135 73.2925 176.773 74.3916 176.664L75.0606 176.589V176.521C75.0606 176.05 74.7261 175.749 74.221 175.749C73.7499 175.749 73.4154 176.029 73.3676 176.493L72.8283 176.391C72.9307 175.708 73.4973 175.265 74.221 175.265ZM74.0025 178.337C74.6715 178.337 75.0606 177.893 75.0606 177.203V177.039L74.3916 177.115C73.6953 177.19 73.3335 177.429 73.3335 177.79C73.3335 178.111 73.6066 178.337 74.0025 178.337ZM78.3871 178.732C78.2164 178.794 78.0321 178.814 77.8478 178.814C77.2607 178.814 76.8306 178.487 76.8306 177.729V175.831H76.1889V175.319H76.8306V174.275H77.4109V175.319H78.3325V175.831H77.4109V177.749C77.4109 178.111 77.6157 178.289 77.9161 178.289C78.0526 178.289 78.2096 178.268 78.3461 178.2L78.3871 178.732ZM82.0905 176.882C82.0905 176.964 82.0837 177.087 82.0769 177.149H79.3598C79.4008 177.845 79.8377 178.302 80.4589 178.302C80.9846 178.302 81.3464 178.057 81.4488 177.627L81.9949 177.756C81.8243 178.425 81.2508 178.814 80.4589 178.814C79.4281 178.814 78.7796 178.016 78.7796 177.039C78.7796 176.063 79.4076 175.265 80.4453 175.265C81.4625 175.265 82.0905 175.995 82.0905 176.882ZM79.394 176.664H81.4761C81.4215 176.138 81.0529 175.749 80.4453 175.749C79.906 175.749 79.51 176.091 79.394 176.664ZM84.8514 175.886C84.7217 175.831 84.5579 175.804 84.4077 175.804C83.8616 175.804 83.4178 176.329 83.4178 177.449V178.76H82.8376V175.319H83.4178V176.015C83.6158 175.579 84.0664 175.265 84.4896 175.265C84.633 175.265 84.7695 175.285 84.8856 175.326L84.8514 175.886ZM85.3206 178.814C85.0749 178.814 84.9042 178.644 84.9042 178.405C84.9042 178.173 85.0749 177.995 85.3206 177.995C85.5528 177.995 85.7371 178.173 85.7371 178.405C85.7371 178.644 85.5528 178.814 85.3206 178.814Z" fill="black"/>
<g filter="url(#filter2_d_936_9530)">
<rect x="40" y="342.733" width="160" height="30.72" fill="white"/>
</g>
<g style="mix-blend-mode:multiply">
<path d="M119.787 358.946C118.943 358.946 118.118 358.696 117.416 358.227C116.715 357.759 116.168 357.092 115.845 356.313C115.522 355.533 115.437 354.675 115.602 353.847C115.767 353.02 116.173 352.259 116.77 351.663C117.366 351.066 118.127 350.66 118.954 350.495C119.782 350.33 120.64 350.415 121.419 350.738C122.199 351.061 122.865 351.608 123.334 352.309C123.803 353.011 124.053 353.836 124.053 354.68C124.051 355.811 123.601 356.894 122.801 357.694C122.001 358.494 120.918 358.944 119.787 358.946Z" fill="#CDCDCD"/>
</g>
<mask id="mask0_936_9530" style="mask-type:alpha" maskUnits="userSpaceOnUse" x="115" y="350" width="10" height="9">
<path d="M119.787 358.947C118.943 358.947 118.118 358.697 117.416 358.228C116.715 357.76 116.168 357.093 115.845 356.314C115.522 355.534 115.437 354.676 115.602 353.848C115.767 353.021 116.173 352.26 116.77 351.664C117.366 351.067 118.127 350.661 118.954 350.496C119.782 350.331 120.64 350.416 121.419 350.739C122.199 351.062 122.865 351.609 123.334 352.31C123.803 353.012 124.053 353.837 124.053 354.681C124.051 355.812 123.601 356.895 122.801 357.695C122.001 358.495 120.918 358.945 119.787 358.947Z" fill="#B1CDE2"/>
</mask>
<g mask="url(#mask0_936_9530)">
<g style="mix-blend-mode:multiply">
<g style="mix-blend-mode:multiply">
<path d="M121.92 358.776C121.92 358.871 121.882 358.962 121.815 359.029C121.748 359.097 121.657 359.134 121.562 359.134H117.984C117.938 359.134 117.891 359.125 117.848 359.107C117.805 359.089 117.766 359.062 117.733 359.029C117.7 358.996 117.674 358.956 117.657 358.913C117.639 358.87 117.63 358.823 117.631 358.776V357.416C117.629 357.17 117.676 356.926 117.769 356.699C117.862 356.471 117.999 356.264 118.173 356.09C118.346 355.916 118.552 355.778 118.78 355.684C119.007 355.59 119.25 355.541 119.496 355.542H120.033C120.279 355.541 120.522 355.59 120.749 355.684C120.976 355.778 121.183 355.916 121.356 356.09C121.529 356.264 121.667 356.471 121.76 356.699C121.853 356.926 121.9 357.17 121.898 357.416L121.92 358.776Z" fill="#505050"/>
</g>
<g style="mix-blend-mode:multiply">
<path d="M119.645 355.249C119.899 355.249 120.148 355.174 120.359 355.032C120.57 354.89 120.734 354.688 120.83 354.452C120.926 354.217 120.95 353.958 120.898 353.709C120.846 353.46 120.721 353.232 120.539 353.054C120.357 352.876 120.126 352.757 119.876 352.711C119.626 352.665 119.368 352.694 119.134 352.795C118.901 352.897 118.703 353.065 118.566 353.28C118.429 353.494 118.359 353.744 118.365 353.999C118.373 354.333 118.511 354.651 118.75 354.885C118.989 355.119 119.31 355.25 119.645 355.249Z" fill="#505050"/>
</g>
</g>
</g>
<path d="M112.127 368.36V364.776H113.612C114.354 364.776 114.83 365.217 114.83 365.898C114.83 366.579 114.354 367.019 113.612 367.019H112.936V368.36H112.127ZM112.936 366.328H113.53C113.837 366.328 114.021 366.164 114.021 365.898C114.021 365.631 113.837 365.468 113.53 365.468H112.936V366.328ZM116.952 366.502C116.865 366.461 116.742 366.44 116.624 366.44C116.286 366.44 115.964 366.696 115.964 367.429V368.36H115.211V365.78H115.964V366.225C116.081 365.949 116.414 365.739 116.721 365.739C116.808 365.739 116.926 365.754 116.998 365.78L116.952 366.502ZM118.5 368.401C117.701 368.401 117.138 367.838 117.138 367.07C117.138 366.302 117.701 365.739 118.5 365.739C119.288 365.739 119.862 366.302 119.862 367.07C119.862 367.838 119.288 368.401 118.5 368.401ZM118.5 367.761C118.863 367.761 119.109 367.48 119.109 367.07C119.109 366.661 118.863 366.379 118.5 366.379C118.131 366.379 117.886 366.661 117.886 367.07C117.886 367.48 118.131 367.761 118.5 367.761ZM120.466 368.36V366.405H120.061V365.78H120.466V365.601C120.466 364.981 120.886 364.638 121.449 364.638C121.597 364.638 121.736 364.659 121.859 364.705L121.807 365.309C121.715 365.273 121.633 365.253 121.551 365.253C121.347 365.253 121.219 365.391 121.219 365.616V365.78H121.807V366.405H121.219V368.36H120.466ZM122.615 365.437C122.359 365.437 122.169 365.237 122.169 364.986C122.169 364.741 122.359 364.541 122.615 364.541C122.876 364.541 123.076 364.741 123.076 364.986C123.076 365.237 122.876 365.437 122.615 365.437ZM122.241 368.36V365.78H122.994V368.36H122.241ZM124.718 368.381C124.088 368.483 123.576 368.243 123.576 367.551V364.735H124.329V367.444C124.329 367.746 124.462 367.746 124.667 367.746L124.718 368.381ZM127.609 367.004C127.609 367.106 127.604 367.229 127.599 367.285H125.745C125.817 367.603 126.032 367.777 126.35 367.777C126.606 367.777 126.795 367.659 126.851 367.444L127.558 367.633C127.404 368.12 126.943 368.401 126.329 368.401C125.438 368.401 125.003 367.71 125.003 367.07C125.003 366.43 125.392 365.739 126.283 365.739C127.215 365.739 127.609 366.43 127.609 367.004ZM125.756 366.753H126.805C126.78 366.492 126.616 366.297 126.283 366.297C126.012 366.297 125.827 366.451 125.756 366.753Z" fill="#091016"/>
<path d="M169.606 354.466C169.606 354.299 169.59 354.133 169.56 353.969L170.773 353.097L169.754 351.375L168.378 351.977C168.108 351.766 167.805 351.598 167.481 351.48L167.313 349.986H165.274L165.106 351.45C164.78 351.577 164.477 351.756 164.209 351.977L162.833 351.365L161.813 353.087L163.026 353.969C162.968 354.298 162.968 354.635 163.026 354.964L161.813 355.845L162.833 357.567L164.209 356.98C164.479 357.191 164.782 357.359 165.106 357.478L165.274 358.946H167.313L167.481 357.483C167.805 357.364 168.108 357.196 168.378 356.985L169.754 357.572L170.773 355.85L169.56 354.964C169.59 354.8 169.606 354.633 169.606 354.466Z" fill="#CDCDCD"/>
<path d="M166.293 355.959C167.118 355.959 167.787 355.291 167.787 354.466C167.787 353.641 167.118 352.973 166.293 352.973C165.469 352.973 164.8 353.641 164.8 354.466C164.8 355.291 165.469 355.959 166.293 355.959Z" fill="#505050"/>
<path d="M158.071 368.4C157.355 368.4 156.75 367.914 156.684 367.259L157.39 367.049C157.436 367.448 157.749 367.714 158.102 367.714C158.425 367.714 158.635 367.561 158.635 367.335C158.635 366.66 156.796 367.059 156.796 365.743C156.796 365.154 157.36 364.734 158.061 364.734C158.752 364.734 159.31 365.103 159.433 365.651L158.711 365.953C158.64 365.63 158.399 365.42 158.061 365.42C157.78 365.42 157.605 365.538 157.605 365.738C157.605 366.306 159.449 365.851 159.449 367.315C159.449 367.965 158.896 368.4 158.071 368.4ZM162.366 367.003C162.366 367.105 162.361 367.228 162.356 367.284H160.502C160.574 367.602 160.789 367.776 161.106 367.776C161.362 367.776 161.552 367.658 161.608 367.443L162.315 367.632C162.161 368.119 161.7 368.4 161.086 368.4C160.195 368.4 159.76 367.709 159.76 367.069C159.76 366.429 160.149 365.738 161.04 365.738C161.972 365.738 162.366 366.429 162.366 367.003ZM160.512 366.752H161.562C161.536 366.491 161.372 366.296 161.04 366.296C160.768 366.296 160.584 366.45 160.512 366.752ZM164.375 368.334C164.252 368.375 164.109 368.4 163.956 368.4C163.397 368.4 162.972 368.103 162.972 367.479V366.404H162.563V365.779H162.972V365.031H163.725V365.779H164.35V366.404H163.725V367.381C163.725 367.612 163.848 367.745 164.032 367.745C164.124 367.745 164.237 367.73 164.324 367.684L164.375 368.334ZM166.395 368.334C166.272 368.375 166.129 368.4 165.976 368.4C165.417 368.4 164.992 368.103 164.992 367.479V366.404H164.583V365.779H164.992V365.031H165.745V365.779H166.37V366.404H165.745V367.381C165.745 367.612 165.868 367.745 166.052 367.745C166.144 367.745 166.257 367.73 166.344 367.684L166.395 368.334ZM167.181 365.436C166.925 365.436 166.736 365.236 166.736 364.985C166.736 364.74 166.925 364.54 167.181 364.54C167.443 364.54 167.642 364.74 167.642 364.985C167.642 365.236 167.443 365.436 167.181 365.436ZM166.808 368.359V365.779H167.56V368.359H166.808ZM168.143 368.359V365.779H168.895V366.122C169.049 365.897 169.331 365.738 169.684 365.738C170.252 365.738 170.631 366.107 170.631 366.675V368.359H169.883V366.875C169.883 366.593 169.709 366.404 169.438 366.404C169.08 366.404 168.895 366.695 168.895 367.228V368.359H168.143ZM172.61 367.796C173.24 367.796 173.599 368.068 173.599 368.533C173.599 369.132 172.994 369.332 172.313 369.332C171.54 369.332 171.023 369.107 171.023 368.59C171.023 368.431 171.115 368.236 171.264 368.108C171.167 368.011 171.11 367.893 171.11 367.76C171.11 367.509 171.259 367.325 171.489 367.223C171.341 367.074 171.254 366.869 171.254 366.629C171.254 366.091 171.684 365.738 172.308 365.738C172.482 365.738 172.636 365.764 172.774 365.815L173.143 365.4L173.578 365.779L173.23 366.168C173.317 366.296 173.363 366.455 173.363 366.629C173.363 367.166 172.938 367.515 172.308 367.515C172.191 367.515 172.083 367.504 171.981 367.479C171.878 367.53 171.822 367.596 171.822 367.663C171.822 367.755 171.909 367.796 172.047 367.796H172.61ZM172.308 366.306C172.093 366.306 171.945 366.434 171.945 366.629C171.945 366.818 172.093 366.946 172.308 366.946C172.513 366.946 172.667 366.818 172.667 366.629C172.667 366.434 172.513 366.306 172.308 366.306ZM172.313 368.738C172.718 368.738 172.872 368.677 172.872 368.539C172.872 368.395 172.723 368.37 172.477 368.37H172.037C171.96 368.37 171.889 368.364 171.817 368.354C171.766 368.421 171.75 368.472 171.75 368.539C171.75 368.677 171.878 368.738 172.313 368.738ZM174.884 368.4C174.255 368.4 173.865 368.016 173.732 367.627L174.336 367.392C174.398 367.632 174.598 367.832 174.884 367.832C175.084 367.832 175.217 367.735 175.217 367.591C175.217 367.187 173.85 367.458 173.85 366.48C173.85 366.076 174.203 365.738 174.772 365.738C175.299 365.738 175.734 365.994 175.852 366.368L175.248 366.619C175.181 366.383 174.971 366.276 174.797 366.276C174.628 366.276 174.511 366.347 174.511 366.46C174.511 366.869 175.898 366.532 175.898 367.576C175.898 368.021 175.488 368.4 174.884 368.4Z" fill="#091016"/>
<path d="M69.8667 353.274C69.8667 353.098 69.9561 352.936 70.1038 352.842L73.6451 350.588C73.8128 350.481 74.0272 350.481 74.1949 350.588L77.7362 352.842C77.8839 352.936 77.9733 353.098 77.9733 353.274V358.008C77.9733 358.291 77.7441 358.52 77.4613 358.52H70.3787C70.0959 358.52 69.8667 358.291 69.8667 358.008V353.274Z" fill="#CDCDCD"/>
<path d="M72.8533 356.387C72.8533 356.151 73.0444 355.96 73.28 355.96H74.56C74.7956 355.96 74.9867 356.151 74.9867 356.387V358.52H72.8533V356.387Z" fill="#505050"/>
<path d="M69.5332 364.776H70.3473V368.36H69.5332V366.86H68.1099V368.36H67.3009V364.776H68.1099V366.169H69.5332V364.776ZM72.1941 368.401C71.3954 368.401 70.8322 367.838 70.8322 367.07C70.8322 366.302 71.3954 365.739 72.1941 365.739C72.9826 365.739 73.556 366.302 73.556 367.07C73.556 367.838 72.9826 368.401 72.1941 368.401ZM72.1941 367.761C72.5576 367.761 72.8034 367.48 72.8034 367.07C72.8034 366.661 72.5576 366.379 72.1941 366.379C71.8255 366.379 71.5797 366.661 71.5797 367.07C71.5797 367.48 71.8255 367.761 72.1941 367.761ZM74.0052 368.36V365.78H74.7578V366.128C74.9063 365.898 75.1418 365.739 75.4849 365.739C75.8842 365.739 76.1351 365.903 76.2631 366.2C76.4013 365.954 76.7137 365.739 77.1335 365.739C77.6916 365.739 78.0602 366.113 78.0602 366.604V368.36H77.3127V366.824C77.3127 366.543 77.1591 366.369 76.8929 366.369C76.5805 366.369 76.4013 366.625 76.4013 367.039V368.36H75.6589V366.824C75.6589 366.543 75.5053 366.369 75.2442 366.369C74.937 366.369 74.7578 366.63 74.7578 367.039V368.36H74.0052ZM81.1233 367.004C81.1233 367.106 81.1181 367.229 81.113 367.285H79.2596C79.3313 367.603 79.5463 367.777 79.8637 367.777C80.1197 367.777 80.3092 367.659 80.3655 367.444L81.0721 367.633C80.9185 368.12 80.4577 368.401 79.8433 368.401C78.9524 368.401 78.5172 367.71 78.5172 367.07C78.5172 366.43 78.9063 365.739 79.7972 365.739C80.729 365.739 81.1233 366.43 81.1233 367.004ZM79.2698 366.753H80.3194C80.2938 366.492 80.13 366.297 79.7972 366.297C79.5258 366.297 79.3415 366.451 79.2698 366.753Z" fill="#091016"/>
</g>
</g>
<defs>
<filter id="filter0_d_936_9530" x="20" y="9" width="200" height="386.453" filterUnits="userSpaceOnUse" color-interpolation-filters="sRGB">
<feFlood flood-opacity="0" result="BackgroundImageFix"/>
<feColorMatrix in="SourceAlpha" type="matrix" values="0 0 0 0 0 0 0 0 0 0 0 0 0 0 0 0 0 0 127 0" result="hardAlpha"/>
<feOffset dy="2"/>
<feGaussianBlur stdDeviation="10"/>
<feComposite in2="hardAlpha" operator="out"/>
<feColorMatrix type="matrix" values="0 0 0 0 0.00392157 0 0 0 0 0.298039 0 0 0 0 0.572549 0 0 0 0.1 0"/>
<feBlend mode="normal" in2="BackgroundImageFix" result="effect1_dropShadow_936_9530"/>
<feBlend mode="normal" in="SourceGraphic" in2="effect1_dropShadow_936_9530" result="shape"/>
</filter>
<filter id="filter1_d_936_9530" x="48.96" y="137.933" width="142.507" height="49.0668" filterUnits="userSpaceOnUse" color-interpolation-filters="sRGB">
<feFlood flood-opacity="0" result="BackgroundImageFix"/>
<feColorMatrix in="SourceAlpha" type="matrix" values="0 0 0 0 0 0 0 0 0 0 0 0 0 0 0 0 0 0 127 0" result="hardAlpha"/>
<feOffset/>
<feGaussianBlur stdDeviation="0.64"/>
<feColorMatrix type="matrix" values="0 0 0 0 0 0 0 0 0 0 0 0 0 0 0 0 0 0 0.15 0"/>
<feBlend mode="normal" in2="BackgroundImageFix" result="effect1_dropShadow_936_9530"/>
<feBlend mode="normal" in="SourceGraphic" in2="effect1_dropShadow_936_9530" result="shape"/>
</filter>
<filter id="filter2_d_936_9530" x="31.4667" y="332.493" width="177.067" height="47.7864" filterUnits="userSpaceOnUse" color-interpolation-filters="sRGB">
<feFlood flood-opacity="0" result="BackgroundImageFix"/>
<feColorMatrix in="SourceAlpha" type="matrix" values="0 0 0 0 0 0 0 0 0 0 0 0 0 0 0 0 0 0 127 0" result="hardAlpha"/>
<feOffset dy="-1.70667"/>
<feGaussianBlur stdDeviation="4.26667"/>
<feComposite in2="hardAlpha" operator="out"/>
<feColorMatrix type="matrix" values="0 0 0 0 0.0040625 0 0 0 0 0.167963 0 0 0 0 0.320937 0 0 0 0.1 0"/>
<feBlend mode="normal" in2="BackgroundImageFix" result="effect1_dropShadow_936_9530"/>
<feBlend mode="normal" in="SourceGraphic" in2="effect1_dropShadow_936_9530" result="shape"/>
</filter>
<clipPath id="clip0_936_9530">
<rect x="40" y="27" width="160" height="346.453" rx="7.59337" fill="white"/>
</clipPath>
<clipPath id="clip1_936_9530">
<rect width="44.3733" height="44.428" fill="white" transform="translate(136 82.5029)"/>
</clipPath>
</defs>
</svg>
