<svg viewBox="0 0 240 400" fill="none" xmlns="http://www.w3.org/2000/svg">
<rect width="240" height="400" rx="23.0739" fill="#F0F8FF"/>
<g filter="url(#filter0_d_936_9509)">
<g clip-path="url(#clip0_936_9509)">
<rect x="40" y="27" width="160" height="346.453" rx="7.59337" fill="white"/>
<rect x="50.2399" y="300.92" width="139.947" height="18.7733" rx="4.26667" fill="#014C92"/>
<path d="M98.4864 313.205C97.1193 313.205 95.8521 312.291 95.8521 310.456C95.8521 308.62 97.1501 307.706 98.5555 307.706C99.8457 307.706 100.76 308.382 100.967 309.496L99.9379 309.711C99.8073 309.035 99.2697 308.605 98.5478 308.605C97.5878 308.605 96.9043 309.281 96.9043 310.456C96.9043 311.631 97.5878 312.299 98.5325 312.299C99.3465 312.299 99.8918 311.815 99.9456 311.116H98.3481V310.271H100.913V313.144H99.9686V312.491C99.7305 312.929 99.1392 313.205 98.4864 313.205ZM103.639 313.205C102.464 313.205 101.619 312.36 101.619 311.208C101.619 310.056 102.464 309.211 103.639 309.211C104.814 309.211 105.659 310.056 105.659 311.208C105.659 312.36 104.814 313.205 103.639 313.205ZM103.639 312.368C104.261 312.368 104.684 311.899 104.684 311.208C104.684 310.517 104.261 310.049 103.639 310.049C103.01 310.049 102.595 310.517 102.595 311.208C102.595 311.899 103.01 312.368 103.639 312.368ZM110.528 313.105C110.336 313.174 110.129 313.205 109.906 313.205C109.123 313.205 108.539 312.783 108.539 311.876V310.087H107.886V309.273H108.539V308.136H109.507V309.273H110.482V310.087H109.507V311.784C109.507 312.153 109.706 312.353 110.006 312.353C110.152 312.353 110.321 312.329 110.459 312.26L110.528 313.105ZM112.932 313.205C111.757 313.205 110.912 312.36 110.912 311.208C110.912 310.056 111.757 309.211 112.932 309.211C114.107 309.211 114.952 310.056 114.952 311.208C114.952 312.36 114.107 313.205 112.932 313.205ZM112.932 312.368C113.554 312.368 113.976 311.899 113.976 311.208C113.976 310.517 113.554 310.049 112.932 310.049C112.302 310.049 111.887 310.517 111.887 311.208C111.887 311.899 112.302 312.368 112.932 312.368ZM117.524 313.144V307.706H118.492V309.872C118.745 309.449 119.183 309.211 119.721 309.211C120.589 309.211 121.165 309.764 121.165 310.609V313.144H120.197V310.847C120.197 310.371 119.905 310.072 119.429 310.072C118.83 310.072 118.492 310.586 118.492 311.462V313.144H117.524ZM123.912 313.205C122.737 313.205 121.892 312.36 121.892 311.208C121.892 310.056 122.737 309.211 123.912 309.211C125.087 309.211 125.932 310.056 125.932 311.208C125.932 312.36 125.087 313.205 123.912 313.205ZM123.912 312.368C124.534 312.368 124.956 311.899 124.956 311.208C124.956 310.517 124.534 310.049 123.912 310.049C123.282 310.049 122.867 310.517 122.867 311.208C122.867 311.899 123.282 312.368 123.912 312.368ZM126.659 313.144V309.273H127.627V309.864C127.842 309.48 128.203 309.211 128.741 309.211C129.355 309.211 129.77 309.473 129.946 309.941C130.154 309.549 130.615 309.211 131.229 309.211C132.066 309.211 132.611 309.757 132.611 310.517V313.144H131.644V310.786C131.644 310.325 131.39 310.033 130.937 310.033C130.415 310.033 130.115 310.486 130.115 311.17V313.144H129.148V310.786C129.148 310.325 128.902 310.033 128.456 310.033C127.927 310.033 127.627 310.494 127.627 311.177V313.144H126.659ZM137.2 311.078C137.2 311.216 137.192 311.385 137.184 311.462H134.312C134.397 312.045 134.773 312.391 135.326 312.391C135.779 312.391 136.102 312.176 136.201 311.8L137.108 312.045C136.893 312.775 136.217 313.205 135.311 313.205C134.028 313.205 133.344 312.214 133.344 311.208C133.344 310.202 133.974 309.211 135.257 309.211C136.562 309.211 137.2 310.179 137.2 311.078ZM134.335 310.755H136.163C136.117 310.294 135.817 309.949 135.257 309.949C134.781 309.949 134.443 310.233 134.335 310.755ZM142.35 308.873L144.585 311.108L142.357 313.336L141.843 312.821L143.141 311.523H139.569V310.694H143.141L141.835 309.396L142.35 308.873Z" fill="#F2F2F2"/>
<path d="M53.4892 61.4795V57.5337L50.2533 51.9222H52.5471L54.5678 55.513L56.6021 51.9222H58.8822L55.6464 57.5337V61.4795H53.4892ZM61.5084 61.5887C59.3785 61.5887 57.8766 60.0869 57.8766 58.0389C57.8766 55.9909 59.3785 54.489 61.5084 54.489C63.611 54.489 65.1402 55.9909 65.1402 58.0389C65.1402 60.0869 63.611 61.5887 61.5084 61.5887ZM61.5084 59.8821C62.4778 59.8821 63.1331 59.1311 63.1331 58.0389C63.1331 56.9466 62.4778 56.1957 61.5084 56.1957C60.5253 56.1957 59.87 56.9466 59.87 58.0389C59.87 59.1311 60.5253 59.8821 61.5084 59.8821ZM72.9735 54.5982V61.4795H70.9801V60.5647C70.5568 61.1655 69.8059 61.5887 68.8774 61.5887C67.3619 61.5887 66.3379 60.6057 66.3379 59.0902V54.5982H68.345V58.5577C68.345 59.3086 68.8092 59.8138 69.5192 59.8138C70.4749 59.8138 70.9801 59.0355 70.9801 57.6156V54.5982H72.9735ZM79.1801 56.5233C78.948 56.4141 78.6203 56.3595 78.3063 56.3595C77.4051 56.3595 76.545 57.0422 76.545 58.9946V61.4795H74.5379V54.5982H76.545V55.7861C76.859 55.0488 77.7465 54.489 78.5657 54.489C78.7978 54.489 79.1118 54.5299 79.3029 54.5982L79.1801 56.5233ZM83.5799 61.4795V51.9222H90.2154V53.7654H85.7371V55.6222H89.3416V57.4791H85.7371V61.4795H83.5799ZM91.4199 61.4795V51.9222H94.683C97.3044 51.9222 99.6392 53.424 99.6392 56.7008C99.6392 59.9776 97.3044 61.4795 94.683 61.4795H91.4199ZM93.5361 59.6226H94.4509C95.9937 59.6226 97.4683 58.9127 97.4683 56.7008C97.4683 54.489 95.9937 53.7654 94.4509 53.7654H93.5361V59.6226ZM105.121 53.6834C104.439 53.6834 103.933 53.151 103.933 52.4819C103.933 51.8266 104.439 51.2941 105.121 51.2941C105.818 51.2941 106.35 51.8266 106.35 52.4819C106.35 53.151 105.818 53.6834 105.121 53.6834ZM104.125 61.4795V54.5982H106.132V61.4795H104.125ZM110.142 61.5887C108.463 61.5887 107.425 60.5647 107.07 59.5271L108.681 58.899C108.845 59.5407 109.378 60.0732 110.142 60.0732C110.675 60.0732 111.03 59.8138 111.03 59.4315C111.03 58.3529 107.384 59.0765 107.384 56.4687C107.384 55.3901 108.326 54.489 109.842 54.489C111.248 54.489 112.409 55.1717 112.723 56.1683L111.112 56.8374C110.934 56.2093 110.374 55.9226 109.91 55.9226C109.46 55.9226 109.146 56.1137 109.146 56.4141C109.146 57.5064 112.846 56.6053 112.846 59.3905C112.846 60.5784 111.753 61.5887 110.142 61.5887ZM120.426 61.5887C118.351 61.5887 116.903 60.1278 116.903 58.0389C116.903 55.9499 118.351 54.489 120.426 54.489C122.269 54.489 123.552 55.4174 123.771 56.9329L121.832 57.3152C121.723 56.6326 121.218 56.1957 120.508 56.1957C119.566 56.1957 118.965 56.9193 118.965 58.0389C118.965 59.1584 119.579 59.8821 120.508 59.8821C121.218 59.8821 121.668 59.4725 121.805 58.8444L123.757 59.2403C123.511 60.6876 122.242 61.5887 120.426 61.5887ZM131.627 54.5982V61.4795H129.633V60.5647C129.21 61.1655 128.459 61.5887 127.531 61.5887C126.015 61.5887 124.991 60.6057 124.991 59.0902V54.5982H126.998V58.5577C126.998 59.3086 127.463 59.8138 128.172 59.8138C129.128 59.8138 129.633 59.0355 129.633 57.6156V54.5982H131.627ZM137.833 56.5233C137.601 56.4141 137.274 56.3595 136.96 56.3595C136.058 56.3595 135.198 57.0422 135.198 58.9946V61.4795H133.191V54.5982H135.198V55.7861C135.512 55.0488 136.4 54.489 137.219 54.489C137.451 54.489 137.765 54.5299 137.956 54.5982L137.833 56.5233ZM143.527 56.5233C143.295 56.4141 142.967 56.3595 142.653 56.3595C141.752 56.3595 140.892 57.0422 140.892 58.9946V61.4795H138.885V54.5982H140.892V55.7861C141.206 55.0488 142.093 54.489 142.912 54.489C143.144 54.489 143.458 54.5299 143.65 54.5982L143.527 56.5233ZM150.973 57.8614C150.973 58.1344 150.959 58.4621 150.946 58.6123H146.003C146.194 59.4588 146.768 59.923 147.614 59.923C148.297 59.923 148.802 59.609 148.952 59.0355L150.836 59.5407C150.427 60.8378 149.198 61.5887 147.559 61.5887C145.184 61.5887 144.023 59.7455 144.023 58.0389C144.023 56.3322 145.061 54.489 147.437 54.489C149.922 54.489 150.973 56.3322 150.973 57.8614ZM146.03 57.1923H148.829C148.761 56.496 148.324 55.9772 147.437 55.9772C146.713 55.9772 146.221 56.3868 146.03 57.1923ZM152.191 61.4795V54.5982H154.198V55.513C154.608 54.9122 155.359 54.489 156.301 54.489C157.816 54.489 158.827 55.472 158.827 56.9875V61.4795H156.833V57.52C156.833 56.7691 156.369 56.2639 155.646 56.2639C154.69 56.2639 154.198 57.0422 154.198 58.4621V61.4795H152.191ZM164.452 61.4112C164.124 61.5205 163.742 61.5887 163.332 61.5887C161.844 61.5887 160.711 60.7968 160.711 59.1311V56.2639H159.618V54.5982H160.711V52.6048H162.718V54.5982H164.383V56.2639H162.718V58.8717C162.718 59.4861 163.045 59.8411 163.537 59.8411C163.783 59.8411 164.083 59.8001 164.315 59.6773L164.452 61.4112ZM169.049 61.5341C167.37 61.8072 166.005 61.1655 166.005 59.3223V51.8129H168.012V59.0355C168.012 59.8411 168.367 59.8411 168.913 59.8411L169.049 61.5341ZM174.643 54.5982H176.691L173.059 63.9644H171.011L172.104 61.1382L169.455 54.5982H171.626L173.1 58.585L174.643 54.5982ZM54.8545 77.5887C54.0763 77.5887 53.38 77.2883 53.025 76.7968V77.4795H51.0179V67.8129H53.025V71.2536C53.4073 70.7894 54.0626 70.489 54.8818 70.489C56.8752 70.489 58.104 71.8816 58.104 74.0389C58.104 76.1961 56.8752 77.5887 54.8545 77.5887ZM54.5268 75.8821C55.4962 75.8821 56.1379 75.1448 56.1379 74.0389C56.1379 72.9329 55.4962 72.1957 54.5268 72.1957C53.5438 72.1957 52.9021 72.9329 52.9021 74.0389C52.9021 75.1448 53.5438 75.8821 54.5268 75.8821ZM65.9195 73.8614C65.9195 74.1344 65.9058 74.4621 65.8922 74.6123H60.9497C61.1408 75.4588 61.7142 75.923 62.5608 75.923C63.2434 75.923 63.7486 75.609 63.8988 75.0355L65.7829 75.5407C65.3733 76.8378 64.1445 77.5887 62.5061 77.5887C60.1305 77.5887 58.9699 75.7455 58.9699 74.0389C58.9699 72.3322 60.0076 70.489 62.3833 70.489C64.8682 70.489 65.9195 72.3322 65.9195 73.8614ZM60.977 73.1923H63.7759C63.7076 72.496 63.2707 71.9772 62.3833 71.9772C61.6596 71.9772 61.1681 72.3868 60.977 73.1923ZM68.1346 69.6834C67.452 69.6834 66.9468 69.151 66.9468 68.4819C66.9468 67.8266 67.452 67.2941 68.1346 67.2941C68.8309 67.2941 69.3634 67.8266 69.3634 68.4819C69.3634 69.151 68.8309 69.6834 68.1346 69.6834ZM67.1379 77.4795V70.5982H69.145V77.4795H67.1379ZM70.6979 77.4795V70.5982H72.705V71.513C73.1146 70.9122 73.8655 70.489 74.8076 70.489C76.3231 70.489 77.3335 71.472 77.3335 72.9875V77.4795H75.3401V73.52C75.3401 72.7691 74.8759 72.2639 74.1522 72.2639C73.1965 72.2639 72.705 73.0422 72.705 74.4621V77.4795H70.6979ZM82.612 75.9776C84.2913 75.9776 85.2471 76.7013 85.2471 77.9437C85.2471 79.5411 83.636 80.0736 81.8201 80.0736C79.7584 80.0736 78.3794 79.4729 78.3794 78.0939C78.3794 77.6706 78.6252 77.1518 79.0211 76.8105C78.7617 76.5511 78.6115 76.237 78.6115 75.8821C78.6115 75.213 79.0075 74.7215 79.6219 74.4485C79.2259 74.0525 78.9938 73.5064 78.9938 72.8647C78.9938 71.4311 80.1407 70.489 81.8064 70.489C82.2706 70.489 82.6802 70.5573 83.0489 70.6938L84.0319 69.5879L85.1924 70.5982L84.264 71.6359C84.4961 71.9772 84.619 72.4005 84.619 72.8647C84.619 74.2983 83.4858 75.2267 81.8064 75.2267C81.4924 75.2267 81.2057 75.1994 80.9326 75.1311C80.6595 75.2677 80.5093 75.4451 80.5093 75.6226C80.5093 75.8684 80.7415 75.9776 81.1101 75.9776H82.612ZM81.8064 72.0045C81.233 72.0045 80.837 72.3458 80.837 72.8647C80.837 73.3698 81.233 73.7112 81.8064 73.7112C82.3525 73.7112 82.7621 73.3698 82.7621 72.8647C82.7621 72.3458 82.3525 72.0045 81.8064 72.0045ZM81.8201 78.4898C82.8987 78.4898 83.3083 78.326 83.3083 77.9574C83.3083 77.5751 82.9123 77.5068 82.257 77.5068H81.0828C80.878 77.5068 80.6868 77.4931 80.4957 77.4658C80.3592 77.6433 80.3182 77.7799 80.3182 77.9574C80.3182 78.326 80.6595 78.4898 81.8201 78.4898ZM90.0444 77.4795V72.2639H88.9658V70.5982H90.0444V70.1203C90.0444 68.4683 91.164 67.5535 92.6658 67.5535C93.0618 67.5535 93.4304 67.6081 93.7581 67.731L93.6216 69.3421C93.3758 69.2465 93.1573 69.1919 92.9389 69.1919C92.3928 69.1919 92.0514 69.5606 92.0514 70.1613V70.5982H93.6216V72.2639H92.0514V77.4795H90.0444ZM101.227 70.5982V77.4795H99.2334V76.5647C98.8101 77.1655 98.0592 77.5887 97.1308 77.5887C95.6153 77.5887 94.5913 76.6057 94.5913 75.0902V70.5982H96.5983V74.5577C96.5983 75.3086 97.0625 75.8138 97.7725 75.8138C98.7282 75.8138 99.2334 75.0355 99.2334 73.6156V70.5982H101.227ZM102.791 77.4795V70.5982H104.798V71.513C105.208 70.9122 105.959 70.489 106.901 70.489C108.416 70.489 109.427 71.472 109.427 72.9875V77.4795H107.433V73.52C107.433 72.7691 106.969 72.2639 106.246 72.2639C105.29 72.2639 104.798 73.0422 104.798 74.4621V77.4795H102.791ZM113.872 77.5887C111.852 77.5887 110.637 76.1961 110.637 74.0389C110.637 71.8816 111.852 70.489 113.845 70.489C114.678 70.489 115.32 70.7894 115.702 71.2536V67.8129H117.709V77.4795H115.702V76.7968C115.347 77.2883 114.651 77.5887 113.872 77.5887ZM114.2 75.8821C115.183 75.8821 115.825 75.1448 115.825 74.0389C115.825 72.9329 115.183 72.1957 114.2 72.1957C113.244 72.1957 112.589 72.9329 112.589 74.0389C112.589 75.1448 113.244 75.8821 114.2 75.8821ZM125.879 73.8614C125.879 74.1344 125.866 74.4621 125.852 74.6123H120.91C121.101 75.4588 121.674 75.923 122.521 75.923C123.203 75.923 123.709 75.609 123.859 75.0355L125.743 75.5407C125.333 76.8378 124.105 77.5887 122.466 77.5887C120.09 77.5887 118.93 75.7455 118.93 74.0389C118.93 72.3322 119.968 70.489 122.343 70.489C124.828 70.489 125.879 72.3322 125.879 73.8614ZM120.937 73.1923H123.736C123.668 72.496 123.231 71.9772 122.343 71.9772C121.62 71.9772 121.128 72.3868 120.937 73.1923ZM129.992 77.5887C127.972 77.5887 126.757 76.1961 126.757 74.0389C126.757 71.8816 127.972 70.489 129.965 70.489C130.798 70.489 131.44 70.7894 131.822 71.2536V67.8129H133.829V77.4795H131.822V76.7968C131.467 77.2883 130.771 77.5887 129.992 77.5887ZM130.32 75.8821C131.303 75.8821 131.945 75.1448 131.945 74.0389C131.945 72.9329 131.303 72.1957 130.32 72.1957C129.364 72.1957 128.709 72.9329 128.709 74.0389C128.709 75.1448 129.364 75.8821 130.32 75.8821ZM136.579 77.5887C135.91 77.5887 135.391 77.0835 135.391 76.4282C135.391 75.7592 135.91 75.254 136.579 75.254C137.248 75.254 137.767 75.7592 137.767 76.4282C137.767 77.0835 137.248 77.5887 136.579 77.5887ZM140.512 77.5887C139.843 77.5887 139.325 77.0835 139.325 76.4282C139.325 75.7592 139.843 75.254 140.512 75.254C141.181 75.254 141.7 75.7592 141.7 76.4282C141.7 77.0835 141.181 77.5887 140.512 77.5887ZM144.446 77.5887C143.777 77.5887 143.258 77.0835 143.258 76.4282C143.258 75.7592 143.777 75.254 144.446 75.254C145.115 75.254 145.634 75.7592 145.634 76.4282C145.634 77.0835 145.115 77.5887 144.446 77.5887Z" fill="#091016"/>
<rect x="50.2402" y="95.2666" width="139.947" height="83.2" rx="5.12" fill="#E4F4FF"/>
<path d="M185.671 178.467C185.671 170.773 182.605 163.393 177.147 157.952C171.69 152.511 164.287 149.454 156.569 149.454C148.851 149.454 141.449 152.511 135.991 157.952C130.533 163.393 127.467 170.773 127.467 178.467L156.569 178.467H185.671Z" fill="#ABD4FD" fill-opacity="0.56"/>
<path d="M57.5172 109.52V104.741H60.7531V105.54H58.4456V106.646H60.3093V107.451H58.4456V109.52H57.5172ZM61.4105 109.52V104.741H62.9739C64.2914 104.741 65.4246 105.526 65.4246 107.13C65.4246 108.734 64.2914 109.52 62.9739 109.52H61.4105ZM62.3253 108.714H62.8919C63.7111 108.714 64.4825 108.298 64.4825 107.13C64.4825 105.963 63.7111 105.54 62.8919 105.54H62.3253V108.714ZM69.1772 109.574C68.1463 109.574 67.5388 108.851 67.5388 107.799C67.5388 106.748 68.1463 106.024 69.1635 106.024C69.5936 106.024 69.9622 106.202 70.1602 106.461V104.686H71.0204V109.52H70.1602V109.124C69.9895 109.397 69.6072 109.574 69.1772 109.574ZM69.3 108.83C69.853 108.83 70.2148 108.42 70.2148 107.799C70.2148 107.178 69.853 106.768 69.3 106.768C68.7539 106.768 68.3921 107.178 68.3921 107.799C68.3921 108.42 68.7539 108.83 69.3 108.83ZM75.0991 107.683C75.0991 107.806 75.0923 107.956 75.0854 108.024H72.5323C72.6073 108.543 72.9419 108.851 73.4334 108.851C73.8361 108.851 74.1229 108.659 74.2116 108.325L75.0172 108.543C74.826 109.192 74.2253 109.574 73.4197 109.574C72.2797 109.574 71.6721 108.694 71.6721 107.799C71.6721 106.905 72.2319 106.024 73.3719 106.024C74.5325 106.024 75.0991 106.884 75.0991 107.683ZM72.5527 107.396H74.1775C74.1365 106.987 73.8703 106.68 73.3719 106.68C72.9487 106.68 72.6483 106.932 72.5527 107.396ZM77.7309 109.485C77.5603 109.547 77.3759 109.574 77.178 109.574C76.4816 109.574 75.9628 109.199 75.9628 108.393V106.803H75.3825V106.079H75.9628V105.069H76.823V106.079H77.69V106.803H76.823V108.311C76.823 108.639 77.0005 108.816 77.2667 108.816C77.3964 108.816 77.5466 108.796 77.6695 108.734L77.7309 109.485ZM79.6008 106.024C80.5019 106.024 81.1163 106.509 81.1163 107.424V109.52H80.2835V109.021C80.0923 109.356 79.6759 109.574 79.2526 109.574C78.5768 109.574 78.1057 109.137 78.1057 108.55C78.1057 107.874 78.6177 107.512 79.6417 107.403L80.2835 107.342V107.308C80.2835 106.919 80.0172 106.68 79.6008 106.68C79.2253 106.68 78.9591 106.912 78.9181 107.28L78.1535 107.144C78.2628 106.461 78.8703 106.024 79.6008 106.024ZM79.4438 108.939C79.9763 108.939 80.2835 108.536 80.2835 108.031V107.956L79.6281 108.031C79.1707 108.086 78.9386 108.277 78.9386 108.523C78.9386 108.762 79.1297 108.939 79.4438 108.939ZM82.3865 105.553C82.0793 105.553 81.854 105.321 81.854 105.021C81.854 104.727 82.0793 104.495 82.3865 104.495C82.7005 104.495 82.9326 104.727 82.9326 105.021C82.9326 105.321 82.7005 105.553 82.3865 105.553ZM81.9564 109.52V106.079H82.8166V109.52H81.9564ZM85.0219 109.554C84.2573 109.67 83.6497 109.369 83.6497 108.523V104.686H84.5099V108.414C84.5099 108.803 84.6874 108.823 84.9673 108.816L85.0219 109.554ZM86.8179 109.574C85.9851 109.574 85.4867 109.062 85.316 108.557L86.0192 108.27C86.1216 108.618 86.3878 108.905 86.8179 108.905C87.1388 108.905 87.3504 108.734 87.3504 108.516C87.3504 107.867 85.4731 108.291 85.4731 106.987C85.4731 106.448 85.9441 106.024 86.695 106.024C87.364 106.024 87.9307 106.366 88.0808 106.864L87.3845 107.158C87.2889 106.83 86.9886 106.659 86.7087 106.659C86.4356 106.659 86.2513 106.775 86.2513 106.973C86.2513 107.581 88.1423 107.096 88.1423 108.502C88.1423 109.096 87.6098 109.574 86.8179 109.574Z" fill="#232153"/>
<path d="M57.6998 135.4C57.8372 134.313 58.5301 133.065 59.4201 131.918H57.2459V131.219H60.2564V131.918C59.3246 133.178 58.6018 134.427 58.5182 135.4H57.6998ZM62.1053 132.581C62.9595 132.581 63.5748 133.178 63.5748 134.015C63.5748 134.851 62.9117 135.448 61.9859 135.448C61.0421 135.448 60.3791 134.66 60.3791 133.501C60.3791 131.936 61.3049 131.171 62.3562 131.171C62.8042 131.171 63.2463 131.315 63.5808 131.595L63.2104 132.187C62.9954 132.002 62.6967 131.87 62.3741 131.87C61.6812 131.87 61.1914 132.372 61.1436 133.077C61.3348 132.766 61.6932 132.581 62.1053 132.581ZM62.0098 134.743C62.4578 134.743 62.7744 134.421 62.7744 133.973C62.7803 133.531 62.4578 133.208 62.0098 133.208C61.5558 133.208 61.2332 133.531 61.2332 133.973C61.2332 134.421 61.5558 134.743 62.0098 134.743ZM65.595 135.448C64.7289 135.448 64.0539 134.964 64.0539 134.176C64.0539 133.704 64.3526 133.298 64.8006 133.148C64.4601 132.987 64.2331 132.653 64.2331 132.294C64.2331 131.655 64.7767 131.171 65.595 131.171C66.4014 131.171 66.945 131.655 66.945 132.294C66.945 132.659 66.718 132.993 66.3716 133.148C66.8255 133.292 67.1242 133.698 67.1242 134.176C67.1242 134.964 66.4492 135.448 65.595 135.448ZM65.595 132.85C65.9594 132.85 66.1983 132.641 66.1983 132.324C66.2043 132.002 65.9594 131.798 65.595 131.798C65.2187 131.798 64.9738 132.002 64.9798 132.324C64.9798 132.641 65.2187 132.85 65.595 132.85ZM65.595 134.785C66.043 134.785 66.3298 134.54 66.3298 134.158C66.3298 133.782 66.043 133.537 65.595 133.537C65.1411 133.537 64.8484 133.782 64.8484 134.158C64.8484 134.54 65.1411 134.785 65.595 134.785ZM67.384 135.4L67.3781 134.743L68.8654 133.489C69.3194 133.107 69.5165 132.808 69.5165 132.491C69.5165 132.115 69.2597 131.87 68.8654 131.87C68.3995 131.87 68.1307 132.235 68.1785 132.784L67.4079 132.73C67.3243 131.84 67.9814 131.171 68.8654 131.171C69.7495 131.171 70.3349 131.709 70.3349 132.491C70.3349 133.017 70.0302 133.483 69.3433 134.027L68.519 134.696H70.3289V135.4H67.384ZM72.3207 135.448C71.4964 135.448 70.8871 134.988 70.7736 134.289L71.5084 134.152C71.586 134.516 71.8847 134.743 72.2909 134.743C72.7329 134.743 73.0256 134.445 73.0256 134.003C73.0256 133.543 72.7209 133.256 72.2431 133.256C71.9086 133.256 71.6517 133.399 71.4606 133.68L70.8752 133.555L71.2216 131.219H73.5273V131.918H71.813L71.6577 132.915C71.8488 132.742 72.1535 132.617 72.4462 132.617C73.2705 132.617 73.838 133.178 73.838 134.003C73.838 134.875 73.2406 135.448 72.3207 135.448ZM76.2993 135.4V134.528H74.1907V133.823L76.2336 131.219H77.1117V133.823H77.6433V134.528H77.1117V135.4H76.2993ZM75.027 133.823H76.2993V132.187L75.027 133.823ZM79.53 135.448C78.6699 135.448 78.0486 134.958 77.971 134.218L78.7117 134.098C78.7714 134.486 79.094 134.743 79.536 134.743C79.9959 134.743 80.3066 134.463 80.3066 134.05C80.3066 133.62 80.0139 133.358 79.5539 133.358C79.4106 133.358 79.2194 133.399 79.082 133.495L78.7654 132.963L79.9123 131.918H78.0905V131.219H80.8621V131.876L79.7929 132.832C80.5754 132.802 81.1189 133.28 81.1189 134.068C81.1189 134.899 80.4858 135.448 79.53 135.448ZM82.9264 134.038C82.0722 134.038 81.457 133.441 81.457 132.605C81.457 131.769 82.12 131.171 83.0459 131.171C83.9897 131.171 84.6527 131.96 84.6527 133.119C84.6527 134.684 83.7269 135.448 82.6755 135.448C82.2275 135.448 81.7855 135.305 81.451 135.024L81.8214 134.433C82.0364 134.618 82.3351 134.743 82.6576 134.743C83.3505 134.743 83.8403 134.248 83.8881 133.543C83.697 133.853 83.3386 134.038 82.9264 134.038ZM83.022 131.87C82.574 131.87 82.2574 132.199 82.2574 132.647C82.2514 133.089 82.574 133.411 83.022 133.411C83.476 133.411 83.7985 133.089 83.7985 132.647C83.7985 132.199 83.476 131.87 83.022 131.87ZM86.6067 135.448C85.7406 135.448 85.0656 134.964 85.0656 134.176C85.0656 133.704 85.3642 133.298 85.8122 133.148C85.4718 132.987 85.2448 132.653 85.2448 132.294C85.2448 131.655 85.7884 131.171 86.6067 131.171C87.4131 131.171 87.9567 131.655 87.9567 132.294C87.9567 132.659 87.7297 132.993 87.3832 133.148C87.8372 133.292 88.1359 133.698 88.1359 134.176C88.1359 134.964 87.4609 135.448 86.6067 135.448ZM86.6067 132.85C86.9711 132.85 87.21 132.641 87.21 132.324C87.216 132.002 86.9711 131.798 86.6067 131.798C86.2304 131.798 85.9855 132.002 85.9914 132.324C85.9914 132.641 86.2304 132.85 86.6067 132.85ZM86.6067 134.785C87.0547 134.785 87.3414 134.54 87.3414 134.158C87.3414 133.782 87.0547 133.537 86.6067 133.537C86.1527 133.537 85.86 133.782 85.86 134.158C85.86 134.54 86.1527 134.785 86.6067 134.785ZM89.9906 134.038C89.1364 134.038 88.5212 133.441 88.5212 132.605C88.5212 131.769 89.1842 131.171 90.1101 131.171C91.0538 131.171 91.7169 131.96 91.7169 133.119C91.7169 134.684 90.791 135.448 89.7397 135.448C89.2917 135.448 88.8497 135.305 88.5152 135.024L88.8855 134.433C89.1006 134.618 89.3992 134.743 89.7218 134.743C90.4147 134.743 90.9045 134.248 90.9523 133.543C90.7612 133.853 90.4028 134.038 89.9906 134.038ZM90.0862 131.87C89.6382 131.87 89.3216 132.199 89.3216 132.647C89.3156 133.089 89.6382 133.411 90.0862 133.411C90.5401 133.411 90.8627 133.089 90.8627 132.647C90.8627 132.199 90.5401 131.87 90.0862 131.87ZM93.8321 135.448C92.7689 135.448 92.1357 134.6 92.1357 133.31C92.1357 132.019 92.7689 131.171 93.8321 131.171C94.8954 131.171 95.5286 132.019 95.5286 133.31C95.5286 134.6 94.8954 135.448 93.8321 135.448ZM93.8321 134.743C94.4056 134.743 94.7162 134.206 94.7162 133.31C94.7162 132.414 94.4056 131.87 93.8321 131.87C93.2587 131.87 92.9541 132.414 92.9541 133.31C92.9541 134.206 93.2587 134.743 93.8321 134.743ZM97.6471 135.448C96.5839 135.448 95.9507 134.6 95.9507 133.31C95.9507 132.019 96.5839 131.171 97.6471 131.171C98.7104 131.171 99.3436 132.019 99.3436 133.31C99.3436 134.6 98.7104 135.448 97.6471 135.448ZM97.6471 134.743C98.2206 134.743 98.5312 134.206 98.5312 133.31C98.5312 132.414 98.2206 131.87 97.6471 131.87C97.0737 131.87 96.7691 132.414 96.7691 133.31C96.7691 134.206 97.0737 134.743 97.6471 134.743ZM99.7299 135.4L99.7239 134.743L101.211 133.489C101.665 133.107 101.862 132.808 101.862 132.491C101.862 132.115 101.606 131.87 101.211 131.87C100.745 131.87 100.477 132.235 100.524 132.784L99.7538 132.73C99.6701 131.84 100.327 131.171 101.211 131.171C102.095 131.171 102.681 131.709 102.681 132.491C102.681 133.017 102.376 133.483 101.689 134.027L100.865 134.696H102.675V135.4H99.7299ZM104.625 135.448C103.765 135.448 103.144 134.958 103.066 134.218L103.807 134.098C103.866 134.486 104.189 134.743 104.631 134.743C105.091 134.743 105.402 134.463 105.402 134.05C105.402 133.62 105.109 133.358 104.649 133.358C104.506 133.358 104.314 133.399 104.177 133.495L103.86 132.963L105.007 131.918H103.185V131.219H105.957V131.876L104.888 132.832C105.67 132.802 106.214 133.28 106.214 134.068C106.214 134.899 105.581 135.448 104.625 135.448ZM108.137 135.448C107.277 135.448 106.655 134.958 106.578 134.218L107.318 134.098C107.378 134.486 107.701 134.743 108.143 134.743C108.603 134.743 108.913 134.463 108.913 134.05C108.913 133.62 108.621 133.358 108.161 133.358C108.017 133.358 107.826 133.399 107.689 133.495L107.372 132.963L108.519 131.918H106.697V131.219H109.469V131.876L108.4 132.832C109.182 132.802 109.726 133.28 109.726 134.068C109.726 134.899 109.092 135.448 108.137 135.448Z" fill="#232153"/>
<path d="M133.472 135.448C132.647 135.448 132.038 134.988 131.925 134.289L132.659 134.152C132.737 134.516 133.036 134.743 133.442 134.743C133.884 134.743 134.176 134.445 134.176 134.003C134.176 133.543 133.872 133.256 133.394 133.256C133.059 133.256 132.803 133.399 132.611 133.68L132.026 133.555L132.373 131.219H134.678V131.918H132.964L132.809 132.915C133 132.742 133.304 132.617 133.597 132.617C134.421 132.617 134.989 133.178 134.989 134.003C134.989 134.875 134.392 135.448 133.472 135.448ZM136.035 135.448C135.772 135.448 135.569 135.251 135.569 134.988C135.569 134.725 135.772 134.528 136.035 134.528C136.303 134.528 136.5 134.725 136.5 134.988C136.5 135.251 136.303 135.448 136.035 135.448ZM138.808 132.581C139.662 132.581 140.277 133.178 140.277 134.015C140.277 134.851 139.614 135.448 138.688 135.448C137.745 135.448 137.082 134.66 137.082 133.501C137.082 131.936 138.007 131.171 139.059 131.171C139.507 131.171 139.949 131.315 140.283 131.595L139.913 132.187C139.698 132.002 139.399 131.87 139.077 131.87C138.384 131.87 137.894 132.372 137.846 133.077C138.037 132.766 138.396 132.581 138.808 132.581ZM138.712 134.743C139.16 134.743 139.477 134.421 139.477 133.973C139.483 133.531 139.16 133.208 138.712 133.208C138.258 133.208 137.936 133.531 137.936 133.973C137.936 134.421 138.258 134.743 138.712 134.743ZM141.682 133.274C141.091 133.274 140.703 132.844 140.703 132.223C140.703 131.601 141.091 131.171 141.682 131.171C142.268 131.171 142.656 131.601 142.656 132.223C142.656 132.844 142.268 133.274 141.682 133.274ZM141.193 135.4L143.988 131.219H144.597L141.802 135.4H141.193ZM141.682 132.76C141.927 132.76 142.077 132.557 142.077 132.223C142.077 131.888 141.927 131.685 141.682 131.685C141.431 131.685 141.276 131.888 141.276 132.223C141.276 132.557 141.431 132.76 141.682 132.76ZM144.125 135.448C143.54 135.448 143.146 135.018 143.146 134.397C143.146 133.776 143.54 133.346 144.125 133.346C144.711 133.346 145.099 133.776 145.099 134.397C145.099 135.018 144.711 135.448 144.125 135.448ZM144.125 134.934C144.376 134.934 144.526 134.731 144.526 134.397C144.526 134.062 144.376 133.859 144.125 133.859C143.875 133.859 143.725 134.062 143.725 134.397C143.725 134.731 143.875 134.934 144.125 134.934ZM147.049 136.488V132.39H147.801V132.736C147.968 132.503 148.297 132.342 148.697 132.342C149.563 132.342 150.095 132.975 150.095 133.895C150.095 134.815 149.528 135.448 148.643 135.448C148.297 135.448 147.974 135.317 147.801 135.102V136.488H147.049ZM148.554 134.797C149.032 134.797 149.348 134.439 149.348 133.895C149.348 133.352 149.032 132.993 148.554 132.993C148.07 132.993 147.753 133.352 147.753 133.895C147.753 134.439 148.07 134.797 148.554 134.797ZM153.503 133.794C153.503 133.901 153.497 134.032 153.491 134.092H151.257C151.322 134.546 151.615 134.815 152.045 134.815C152.398 134.815 152.648 134.648 152.726 134.355L153.431 134.546C153.264 135.114 152.738 135.448 152.033 135.448C151.036 135.448 150.504 134.678 150.504 133.895C150.504 133.113 150.994 132.342 151.991 132.342C153.007 132.342 153.503 133.095 153.503 133.794ZM151.275 133.543H152.696C152.66 133.184 152.427 132.915 151.991 132.915C151.621 132.915 151.358 133.136 151.275 133.543ZM156.013 133.119C155.906 133.071 155.762 133.047 155.631 133.047C155.207 133.047 154.825 133.399 154.825 134.295V135.4H154.072V132.39H154.825V132.939C154.974 132.599 155.368 132.342 155.733 132.342C155.84 132.342 155.971 132.36 156.061 132.39L156.013 133.119ZM159.092 132.342C159.881 132.342 160.419 132.766 160.419 133.567V135.4H159.69V134.964C159.523 135.257 159.158 135.448 158.788 135.448C158.196 135.448 157.784 135.066 157.784 134.552C157.784 133.961 158.232 133.644 159.128 133.549L159.69 133.495V133.465C159.69 133.125 159.457 132.915 159.092 132.915C158.764 132.915 158.531 133.119 158.495 133.441L157.826 133.322C157.922 132.724 158.453 132.342 159.092 132.342ZM158.955 134.893C159.421 134.893 159.69 134.54 159.69 134.098V134.032L159.116 134.098C158.716 134.146 158.513 134.313 158.513 134.528C158.513 134.737 158.68 134.893 158.955 134.893ZM161.154 135.4V132.39H161.906V132.844C162.097 132.551 162.438 132.342 162.862 132.342C163.519 132.342 163.961 132.772 163.961 133.429V135.4H163.208V133.608C163.208 133.256 162.987 133.011 162.635 133.011C162.175 133.011 161.906 133.405 161.906 134.08V135.4H161.154ZM164.689 135.4V132.39H165.441V132.844C165.632 132.551 165.973 132.342 166.397 132.342C167.054 132.342 167.496 132.772 167.496 133.429V135.4H166.743V133.608C166.743 133.256 166.522 133.011 166.17 133.011C165.71 133.011 165.441 133.405 165.441 134.08V135.4H164.689ZM171.002 132.39V135.4H170.249V134.946C170.058 135.239 169.718 135.448 169.294 135.448C168.642 135.448 168.194 135.018 168.194 134.361V132.39H168.947V134.182C168.947 134.534 169.168 134.779 169.521 134.779C169.986 134.779 170.249 134.385 170.249 133.71V132.39H171.002ZM171.735 135.4V132.39H172.488V132.85C172.655 132.551 172.936 132.342 173.354 132.342C173.832 132.342 174.154 132.545 174.292 132.91C174.453 132.605 174.812 132.342 175.289 132.342C175.941 132.342 176.365 132.766 176.365 133.358V135.4H175.612V133.567C175.612 133.208 175.415 132.981 175.062 132.981C174.656 132.981 174.423 133.334 174.423 133.865V135.4H173.671V133.567C173.671 133.208 173.479 132.981 173.133 132.981C172.721 132.981 172.488 133.34 172.488 133.871V135.4H171.735Z" fill="#232153"/>
<path d="M58.1837 166.974V163.688C57.8969 163.915 57.5923 164.059 57.222 164.13V163.408C57.6102 163.318 58.0104 163.091 58.3151 162.792H58.9363V166.974H58.1837ZM61.0682 167.021C60.2439 167.021 59.6346 166.561 59.5211 165.863L60.2559 165.725C60.3335 166.09 60.6322 166.317 61.0384 166.317C61.4804 166.317 61.7731 166.018 61.7731 165.576C61.7731 165.116 61.4684 164.829 60.9906 164.829C60.6561 164.829 60.3992 164.973 60.2081 165.253L59.6227 165.128L59.9691 162.792H62.2748V163.491H60.5605L60.4052 164.489C60.5963 164.315 60.901 164.19 61.1937 164.19C62.018 164.19 62.5855 164.752 62.5855 165.576C62.5855 166.448 61.9881 167.021 61.0682 167.021ZM64.9512 166.944C64.8019 166.998 64.6406 167.021 64.4674 167.021C63.8581 167.021 63.4041 166.693 63.4041 165.988V164.596H62.8964V163.963H63.4041V163.079H64.1568V163.963H64.9154V164.596H64.1568V165.916C64.1568 166.203 64.3121 166.358 64.545 166.358C64.6585 166.358 64.7899 166.34 64.8975 166.287L64.9512 166.944ZM65.621 166.974V162.745H66.3737V164.429C66.5708 164.1 66.9113 163.915 67.3294 163.915C68.0044 163.915 68.4524 164.345 68.4524 165.002V166.974H67.6997V165.188C67.6997 164.817 67.4728 164.584 67.1024 164.584C66.6365 164.584 66.3737 164.985 66.3737 165.665V166.974H65.621ZM72.5796 167.021C71.3551 167.021 70.4591 166.119 70.4591 164.883C70.4591 163.646 71.3551 162.745 72.5796 162.745C73.7981 162.745 74.6941 163.646 74.6941 164.883C74.6941 166.119 73.7981 167.021 72.5796 167.021ZM72.5796 166.317C73.3382 166.317 73.8758 165.713 73.8758 164.883C73.8758 164.053 73.3382 163.443 72.5796 163.443C71.821 163.443 71.2774 164.053 71.2774 164.883C71.2774 165.713 71.821 166.317 72.5796 166.317ZM76.6373 167.021C75.7353 167.021 75.1081 166.388 75.1081 165.468C75.1081 164.548 75.7353 163.915 76.6373 163.915C77.4078 163.915 77.9514 164.315 78.0529 164.955L77.3182 165.098C77.2645 164.781 77.0136 164.566 76.6611 164.566C76.1952 164.566 75.8906 164.919 75.8906 165.468C75.8906 166.018 76.1952 166.37 76.6611 166.37C77.0136 166.37 77.2465 166.179 77.3182 165.857L78.0529 166.006C77.9394 166.639 77.3959 167.021 76.6373 167.021ZM80.3512 166.944C80.2019 166.998 80.0406 167.021 79.8674 167.021C79.2581 167.021 78.8041 166.693 78.8041 165.988V164.596H78.2964V163.963H78.8041V163.079H79.5568V163.963H80.3154V164.596H79.5568V165.916C79.5568 166.203 79.7121 166.358 79.945 166.358C80.0585 166.358 80.1899 166.34 80.2975 166.287L80.3512 166.944ZM82.2207 167.021C81.3068 167.021 80.6497 166.364 80.6497 165.468C80.6497 164.572 81.3068 163.915 82.2207 163.915C83.1347 163.915 83.7917 164.572 83.7917 165.468C83.7917 166.364 83.1347 167.021 82.2207 167.021ZM82.2207 166.37C82.7046 166.37 83.0331 166.006 83.0331 165.468C83.0331 164.931 82.7046 164.566 82.2207 164.566C81.7309 164.566 81.4084 164.931 81.4084 165.468C81.4084 166.006 81.7309 166.37 82.2207 166.37ZM85.9705 167.021C85.6001 167.021 85.2597 166.866 85.1103 166.627V166.974H84.3577V162.745H85.1103V164.298C85.2836 164.071 85.6061 163.915 85.9824 163.915C86.8725 163.915 87.4041 164.548 87.4041 165.468C87.4041 166.388 86.8725 167.021 85.9705 167.021ZM85.863 166.37C86.3408 166.37 86.6574 166.012 86.6574 165.468C86.6574 164.925 86.3408 164.566 85.863 164.566C85.3791 164.566 85.0625 164.925 85.0625 165.468C85.0625 166.012 85.3791 166.37 85.863 166.37ZM90.8117 165.367C90.8117 165.474 90.8057 165.606 90.7997 165.665H88.5657C88.6314 166.119 88.9241 166.388 89.3542 166.388C89.7066 166.388 89.9575 166.221 90.0352 165.928L90.74 166.119C90.5728 166.687 90.0471 167.021 89.3423 167.021C88.3447 167.021 87.8131 166.251 87.8131 165.468C87.8131 164.686 88.3029 163.915 89.3004 163.915C90.3159 163.915 90.8117 164.668 90.8117 165.367ZM88.5836 165.116H90.0053C89.9695 164.758 89.7365 164.489 89.3004 164.489C88.9301 164.489 88.6673 164.71 88.5836 165.116ZM93.3224 164.692C93.2148 164.644 93.0715 164.62 92.9401 164.62C92.516 164.62 92.1337 164.973 92.1337 165.869V166.974H91.381V163.963H92.1337V164.513C92.283 164.172 92.6772 163.915 93.0416 163.915C93.1491 163.915 93.2805 163.933 93.3701 163.963L93.3224 164.692ZM93.1083 167.72L93.5026 166.185H94.3986L93.6041 167.72H93.1083ZM96.364 166.974L96.3581 166.317L97.8454 165.062C98.2994 164.68 98.4965 164.381 98.4965 164.065C98.4965 163.688 98.2397 163.443 97.8454 163.443C97.3795 163.443 97.1107 163.808 97.1585 164.357L96.3879 164.304C96.3043 163.414 96.9614 162.745 97.8454 162.745C98.7295 162.745 99.3149 163.282 99.3149 164.065C99.3149 164.59 99.0102 165.056 98.3233 165.6L97.499 166.269H99.3089V166.974H96.364ZM101.526 167.021C100.463 167.021 99.8299 166.173 99.8299 164.883C99.8299 163.593 100.463 162.745 101.526 162.745C102.59 162.745 103.223 163.593 103.223 164.883C103.223 166.173 102.59 167.021 101.526 167.021ZM101.526 166.317C102.1 166.317 102.41 165.779 102.41 164.883C102.41 163.987 102.1 163.443 101.526 163.443C100.953 163.443 100.648 163.987 100.648 164.883C100.648 165.779 100.953 166.317 101.526 166.317ZM103.609 166.974L103.603 166.317L105.09 165.062C105.544 164.68 105.742 164.381 105.742 164.065C105.742 163.688 105.485 163.443 105.09 163.443C104.625 163.443 104.356 163.808 104.404 164.357L103.633 164.304C103.549 163.414 104.206 162.745 105.09 162.745C105.974 162.745 106.56 163.282 106.56 164.065C106.56 164.59 106.255 165.056 105.568 165.6L104.744 166.269H106.554V166.974H103.609ZM107.039 166.974L107.033 166.317L108.52 165.062C108.974 164.68 109.172 164.381 109.172 164.065C109.172 163.688 108.915 163.443 108.52 163.443C108.055 163.443 107.786 163.808 107.834 164.357L107.063 164.304C106.979 163.414 107.636 162.745 108.52 162.745C109.404 162.745 109.99 163.282 109.99 164.065C109.99 164.59 109.685 165.056 108.998 165.6L108.174 166.269H109.984V166.974H107.039Z" fill="#232153"/>
<path d="M57.5362 124.6V120.097H60.4182V120.618H58.1216V121.994H60V122.522H58.1216V124.6H57.5362ZM61.1421 124.6V120.097H62.4802C63.741 120.097 64.7381 120.901 64.7381 122.348C64.7381 123.796 63.741 124.6 62.4802 124.6H61.1421ZM61.7211 124.072H62.4609C63.3293 124.072 64.1334 123.577 64.1334 122.348C64.1334 121.119 63.3293 120.618 62.4609 120.618H61.7211V124.072ZM68.8941 121.891C68.7719 121.84 68.6175 121.814 68.476 121.814C67.9613 121.814 67.5432 122.31 67.5432 123.365V124.6H66.9964V121.357H67.5432V122.014C67.7298 121.602 68.1543 121.306 68.5532 121.306C68.6882 121.306 68.8169 121.325 68.9263 121.364L68.8941 121.891ZM72.2416 122.831C72.2416 122.908 72.2351 123.024 72.2287 123.081H69.6684C69.707 123.738 70.1187 124.169 70.7041 124.169C71.1995 124.169 71.5404 123.937 71.6369 123.532L72.1515 123.654C71.9907 124.284 71.4503 124.651 70.7041 124.651C69.7328 124.651 69.1217 123.898 69.1217 122.979C69.1217 122.059 69.7135 121.306 70.6913 121.306C71.6498 121.306 72.2416 121.994 72.2416 122.831ZM69.7006 122.625H71.6626C71.6112 122.129 71.2638 121.763 70.6913 121.763C70.1831 121.763 69.81 122.084 69.7006 122.625ZM73.1792 124.6V121.84H72.626V121.357H73.1792V121.055C73.1792 120.341 73.5845 119.962 74.1377 119.962C74.2857 119.962 74.44 119.974 74.5751 120.013L74.5494 120.502C74.4336 120.457 74.3178 120.438 74.2085 120.438C73.919 120.438 73.726 120.663 73.726 121.01V121.357H74.5558V121.84H73.726V124.6H73.1792ZM77.9331 122.831C77.9331 122.908 77.9267 123.024 77.9203 123.081H75.36C75.3986 123.738 75.8103 124.169 76.3957 124.169C76.891 124.169 77.2319 123.937 77.3284 123.532L77.8431 123.654C77.6822 124.284 77.1419 124.651 76.3957 124.651C75.4243 124.651 74.8132 123.898 74.8132 122.979C74.8132 122.059 75.405 121.306 76.3828 121.306C77.3413 121.306 77.9331 121.994 77.9331 122.831ZM75.3922 122.625H77.3542C77.3027 122.129 76.9553 121.763 76.3828 121.763C75.8746 121.763 75.5015 122.084 75.3922 122.625ZM80.5347 121.891C80.4125 121.84 80.2581 121.814 80.1166 121.814C79.602 121.814 79.1838 122.31 79.1838 123.365V124.6H78.6371V121.357H79.1838V122.014C79.3704 121.602 79.795 121.306 80.1938 121.306C80.3289 121.306 80.4575 121.325 80.5669 121.364L80.5347 121.891ZM83.8822 122.831C83.8822 122.908 83.8758 123.024 83.8694 123.081H81.3091C81.3477 123.738 81.7594 124.169 82.3448 124.169C82.8401 124.169 83.181 123.937 83.2775 123.532L83.7922 123.654C83.6313 124.284 83.091 124.651 82.3448 124.651C81.3734 124.651 80.7623 123.898 80.7623 122.979C80.7623 122.059 81.3541 121.306 82.3319 121.306C83.2904 121.306 83.8822 121.994 83.8822 122.831ZM81.3413 122.625H83.3033C83.2518 122.129 82.9044 121.763 82.3319 121.763C81.8237 121.763 81.4506 122.084 81.3413 122.625ZM84.5862 124.6V121.357H85.133V121.969C85.3581 121.583 85.7505 121.306 86.2458 121.306C86.9213 121.306 87.4037 121.763 87.4037 122.451V124.6H86.8569V122.554C86.8569 122.117 86.5803 121.801 86.1236 121.801C85.5189 121.801 85.133 122.322 85.133 123.178V124.6H84.5862ZM89.7142 124.651C88.7493 124.651 88.106 123.982 88.106 122.979C88.106 121.975 88.7493 121.306 89.7142 121.306C90.4669 121.306 91.0201 121.718 91.1359 122.361L90.5955 122.47C90.5248 122.078 90.1838 121.795 89.7271 121.795C89.0902 121.795 88.6785 122.264 88.6785 122.979C88.6785 123.693 89.0902 124.162 89.7271 124.162C90.1838 124.162 90.5183 123.911 90.6084 123.48L91.1423 123.59C91.0008 124.259 90.4604 124.651 89.7142 124.651ZM94.7565 122.831C94.7565 122.908 94.75 123.024 94.7436 123.081H92.1833C92.2219 123.738 92.6336 124.169 93.219 124.169C93.7143 124.169 94.0553 123.937 94.1518 123.532L94.6664 123.654C94.5056 124.284 93.9652 124.651 93.219 124.651C92.2477 124.651 91.6365 123.898 91.6365 122.979C91.6365 122.059 92.2284 121.306 93.2061 121.306C94.1646 121.306 94.7565 121.994 94.7565 122.831ZM92.2155 122.625H94.1775C94.126 122.129 93.7787 121.763 93.2061 121.763C92.6979 121.763 92.3248 122.084 92.2155 122.625ZM97.0121 124.6V121.357H97.5588V121.969C97.784 121.583 98.1764 121.306 98.6717 121.306C99.3472 121.306 99.8296 121.763 99.8296 122.451V124.6H99.2828V122.554C99.2828 122.117 99.0062 121.801 98.5495 121.801C97.9448 121.801 97.5588 122.322 97.5588 123.178V124.6H97.0121ZM103.505 121.357V124.6H102.958V123.988C102.733 124.374 102.34 124.651 101.845 124.651C101.17 124.651 100.687 124.194 100.687 123.506V121.357H101.234V123.403C101.234 123.841 101.51 124.156 101.967 124.156C102.572 124.156 102.958 123.635 102.958 122.779V121.357H103.505ZM104.393 124.6V121.357H104.94V121.969C105.101 121.583 105.423 121.306 105.918 121.306C106.446 121.306 106.857 121.55 106.973 121.988C107.147 121.602 107.533 121.306 108.022 121.306C108.716 121.306 109.154 121.743 109.154 122.425V124.6H108.607V122.535C108.607 122.091 108.356 121.788 107.899 121.788C107.346 121.788 107.044 122.284 107.044 122.972V124.6H106.497V122.535C106.497 122.091 106.246 121.788 105.796 121.788C105.243 121.788 104.94 122.284 104.94 122.972V124.6H104.393ZM111.643 124.651C111.167 124.651 110.736 124.426 110.588 124.13V124.6H110.041V120.045H110.588V121.821C110.794 121.518 111.218 121.306 111.649 121.306C112.653 121.306 113.206 122.026 113.206 122.979C113.206 123.931 112.653 124.651 111.643 124.651ZM111.591 124.162C112.228 124.162 112.646 123.693 112.646 122.979C112.646 122.264 112.228 121.795 111.591 121.795C110.954 121.795 110.543 122.264 110.543 122.979C110.543 123.693 110.954 124.162 111.591 124.162ZM116.838 122.831C116.838 122.908 116.831 123.024 116.825 123.081H114.265C114.303 123.738 114.715 124.169 115.3 124.169C115.796 124.169 116.137 123.937 116.233 123.532L116.748 123.654C116.587 124.284 116.047 124.651 115.3 124.651C114.329 124.651 113.718 123.898 113.718 122.979C113.718 122.059 114.31 121.306 115.288 121.306C116.246 121.306 116.838 121.994 116.838 122.831ZM114.297 122.625H116.259C116.207 122.129 115.86 121.763 115.288 121.763C114.779 121.763 114.406 122.084 114.297 122.625ZM119.439 121.891C119.317 121.84 119.163 121.814 119.021 121.814C118.507 121.814 118.089 122.31 118.089 123.365V124.6H117.542V121.357H118.089V122.014C118.275 121.602 118.7 121.306 119.099 121.306C119.234 121.306 119.362 121.325 119.472 121.364L119.439 121.891Z" fill="#727272"/>
<path d="M132.203 124.6V120.097H132.789V124.6H132.203ZM133.698 124.6V121.357H134.244V121.969C134.47 121.583 134.862 121.306 135.357 121.306C136.033 121.306 136.515 121.763 136.515 122.451V124.6H135.968V122.554C135.968 122.117 135.692 121.801 135.235 121.801C134.63 121.801 134.244 122.322 134.244 123.178V124.6H133.698ZM139.009 124.574C138.848 124.632 138.674 124.651 138.5 124.651C137.947 124.651 137.542 124.342 137.542 123.628V121.84H136.937V121.357H137.542V120.373H138.089V121.357H138.957V121.84H138.089V123.648C138.089 123.988 138.282 124.156 138.565 124.156C138.693 124.156 138.841 124.136 138.97 124.072L139.009 124.574ZM142.498 122.831C142.498 122.908 142.492 123.024 142.486 123.081H139.925C139.964 123.738 140.376 124.169 140.961 124.169C141.456 124.169 141.797 123.937 141.894 123.532L142.408 123.654C142.248 124.284 141.707 124.651 140.961 124.651C139.99 124.651 139.379 123.898 139.379 122.979C139.379 122.059 139.97 121.306 140.948 121.306C141.907 121.306 142.498 121.994 142.498 122.831ZM139.957 122.625H141.919C141.868 122.129 141.521 121.763 140.948 121.763C140.44 121.763 140.067 122.084 139.957 122.625ZM145.1 121.891C144.978 121.84 144.823 121.814 144.682 121.814C144.167 121.814 143.749 122.31 143.749 123.365V124.6H143.202V121.357H143.749V122.014C143.936 121.602 144.36 121.306 144.759 121.306C144.894 121.306 145.023 121.325 145.132 121.364L145.1 121.891ZM148.448 122.831C148.448 122.908 148.441 123.024 148.435 123.081H145.874C145.913 123.738 146.325 124.169 146.91 124.169C147.405 124.169 147.746 123.937 147.843 123.532L148.357 123.654C148.197 124.284 147.656 124.651 146.91 124.651C145.939 124.651 145.328 123.898 145.328 122.979C145.328 122.059 145.919 121.306 146.897 121.306C147.856 121.306 148.448 121.994 148.448 122.831ZM145.907 122.625H147.869C147.817 122.129 147.47 121.763 146.897 121.763C146.389 121.763 146.016 122.084 145.907 122.625ZM150.207 124.651C149.422 124.651 148.998 124.162 148.856 123.705L149.326 123.5C149.448 123.879 149.705 124.188 150.207 124.188C150.606 124.188 150.863 123.956 150.863 123.693C150.863 122.863 148.998 123.397 148.998 122.168C148.998 121.653 149.442 121.306 150.136 121.306C150.709 121.306 151.204 121.628 151.339 122.104L150.883 122.303C150.793 121.969 150.471 121.756 150.124 121.756C149.757 121.756 149.525 121.904 149.525 122.162C149.525 122.856 151.404 122.348 151.397 123.686C151.397 124.252 150.921 124.651 150.207 124.651ZM153.772 124.574C153.611 124.632 153.437 124.651 153.263 124.651C152.71 124.651 152.305 124.342 152.305 123.628V121.84H151.7V121.357H152.305V120.373H152.852V121.357H153.72V121.84H152.852V123.648C152.852 123.988 153.045 124.156 153.328 124.156C153.456 124.156 153.604 124.136 153.733 124.072L153.772 124.574ZM157.859 121.891C157.737 121.84 157.582 121.814 157.441 121.814C156.926 121.814 156.508 122.31 156.508 123.365V124.6H155.961V121.357H156.508V122.014C156.695 121.602 157.119 121.306 157.518 121.306C157.653 121.306 157.782 121.325 157.891 121.364L157.859 121.891ZM159.52 121.306C160.305 121.306 160.852 121.769 160.852 122.522V124.6H160.311V124.046C160.125 124.419 159.7 124.651 159.231 124.651C158.581 124.651 158.137 124.252 158.137 123.693C158.137 123.069 158.645 122.728 159.681 122.625L160.311 122.554V122.49C160.311 122.046 159.996 121.763 159.52 121.763C159.076 121.763 158.761 122.026 158.716 122.464L158.208 122.367C158.304 121.724 158.838 121.306 159.52 121.306ZM159.314 124.201C159.945 124.201 160.311 123.783 160.311 123.133V122.979L159.681 123.049C159.025 123.12 158.684 123.345 158.684 123.686C158.684 123.988 158.941 124.201 159.314 124.201ZM163.446 124.574C163.285 124.632 163.111 124.651 162.938 124.651C162.384 124.651 161.979 124.342 161.979 123.628V121.84H161.375V121.357H161.979V120.373H162.526V121.357H163.394V121.84H162.526V123.648C162.526 123.988 162.719 124.156 163.002 124.156C163.131 124.156 163.279 124.136 163.407 124.072L163.446 124.574ZM166.936 122.831C166.936 122.908 166.929 123.024 166.923 123.081H164.363C164.401 123.738 164.813 124.169 165.398 124.169C165.894 124.169 166.234 123.937 166.331 123.532L166.846 123.654C166.685 124.284 166.144 124.651 165.398 124.651C164.427 124.651 163.816 123.898 163.816 122.979C163.816 122.059 164.408 121.306 165.385 121.306C166.344 121.306 166.936 121.994 166.936 122.831ZM164.395 122.625H166.357C166.305 122.129 165.958 121.763 165.385 121.763C164.877 121.763 164.504 122.084 164.395 122.625Z" fill="#727272"/>
<path d="M57.5362 156.174V151.671H58.2439L59.762 155.325L61.2801 151.671H61.9878V156.174H61.4088V152.777L60.0065 156.174H59.5176L58.1088 152.777V156.174H57.5362ZM64.1036 152.88C64.8884 152.88 65.4352 153.343 65.4352 154.096V156.174H64.8948V155.621C64.7083 155.994 64.2837 156.225 63.8141 156.225C63.1644 156.225 62.7205 155.826 62.7205 155.267C62.7205 154.643 63.2287 154.302 64.2644 154.199L64.8948 154.128V154.064C64.8948 153.62 64.5796 153.337 64.1036 153.337C63.6597 153.337 63.3445 153.601 63.2995 154.038L62.7913 153.942C62.8878 153.298 63.4217 152.88 64.1036 152.88ZM63.8978 155.775C64.5282 155.775 64.8948 155.357 64.8948 154.707V154.553L64.2644 154.624C63.6083 154.694 63.2673 154.919 63.2673 155.26C63.2673 155.563 63.5247 155.775 63.8978 155.775ZM68.0294 156.148C67.8686 156.206 67.6949 156.225 67.5212 156.225C66.968 156.225 66.5627 155.917 66.5627 155.202V153.414H65.958V152.932H66.5627V151.947H67.1095V152.932H67.9779V153.414H67.1095V155.222C67.1095 155.563 67.3025 155.73 67.5855 155.73C67.7142 155.73 67.8621 155.711 67.9908 155.646L68.0294 156.148ZM71.4536 152.932V156.174H70.9068V155.563C70.6817 155.949 70.2893 156.225 69.7939 156.225C69.1185 156.225 68.636 155.769 68.636 155.08V152.932H69.1828V154.977C69.1828 155.415 69.4594 155.73 69.9162 155.73C70.5208 155.73 70.9068 155.209 70.9068 154.353V152.932H71.4536ZM74.2401 153.466C74.1179 153.414 73.9635 153.388 73.822 153.388C73.3074 153.388 72.8892 153.884 72.8892 154.939V156.174H72.3424V152.932H72.8892V153.588C73.0758 153.176 73.5003 152.88 73.8992 152.88C74.0343 152.88 74.1629 152.9 74.2723 152.938L74.2401 153.466ZM75.0752 152.321C74.8565 152.321 74.6956 152.153 74.6956 151.941C74.6956 151.722 74.8565 151.555 75.0752 151.555C75.3003 151.555 75.4676 151.722 75.4676 151.941C75.4676 152.153 75.3003 152.321 75.0752 152.321ZM74.805 156.174V152.932H75.3518V156.174H74.805ZM77.9613 156.148C77.8005 156.206 77.6268 156.225 77.4531 156.225C76.8999 156.225 76.4946 155.917 76.4946 155.202V153.414H75.8899V152.932H76.4946V151.947H77.0414V152.932H77.9098V153.414H77.0414V155.222C77.0414 155.563 77.2344 155.73 77.5174 155.73C77.6461 155.73 77.7941 155.711 77.9227 155.646L77.9613 156.148ZM80.7351 152.932H81.2947L79.5965 157.345H79.0368L79.5064 156.129L78.2391 152.932H78.8309L79.783 155.415L80.7351 152.932ZM84.7503 156.225C83.7404 156.225 83.1872 155.505 83.1872 154.553C83.1872 153.601 83.7404 152.88 84.7439 152.88C85.1749 152.88 85.5995 153.093 85.8053 153.395V151.619H86.3521V156.174H85.8053V155.704C85.6574 156 85.2264 156.225 84.7503 156.225ZM84.8018 155.736C85.4387 155.736 85.8568 155.267 85.8568 154.553C85.8568 153.839 85.4387 153.369 84.8018 153.369C84.165 153.369 83.7468 153.839 83.7468 154.553C83.7468 155.267 84.165 155.736 84.8018 155.736ZM88.4466 152.88C89.2314 152.88 89.7782 153.343 89.7782 154.096V156.174H89.2378V155.621C89.0512 155.994 88.6267 156.225 88.1571 156.225C87.5074 156.225 87.0635 155.826 87.0635 155.267C87.0635 154.643 87.5717 154.302 88.6074 154.199L89.2378 154.128V154.064C89.2378 153.62 88.9226 153.337 88.4466 153.337C88.0027 153.337 87.6875 153.601 87.6425 154.038L87.1343 153.942C87.2308 153.298 87.7647 152.88 88.4466 152.88ZM88.2407 155.775C88.8711 155.775 89.2378 155.357 89.2378 154.707V154.553L88.6074 154.624C87.9512 154.694 87.6103 154.919 87.6103 155.26C87.6103 155.563 87.8676 155.775 88.2407 155.775ZM92.3723 156.148C92.2115 156.206 92.0378 156.225 91.8641 156.225C91.3109 156.225 90.9057 155.917 90.9057 155.202V153.414H90.301V152.932H90.9057V151.947H91.4524V152.932H92.3209V153.414H91.4524V155.222C91.4524 155.563 91.6454 155.73 91.9285 155.73C92.0571 155.73 92.2051 155.711 92.3337 155.646L92.3723 156.148ZM95.8621 154.405C95.8621 154.482 95.8557 154.598 95.8492 154.656H93.289C93.3276 155.312 93.7393 155.743 94.3247 155.743C94.82 155.743 95.1609 155.511 95.2574 155.106L95.772 155.228C95.6112 155.859 95.0709 156.225 94.3247 156.225C93.3533 156.225 92.7422 155.473 92.7422 154.553C92.7422 153.633 93.334 152.88 94.3118 152.88C95.2703 152.88 95.8621 153.569 95.8621 154.405ZM93.3211 154.199H95.2831C95.2317 153.704 94.8843 153.337 94.3118 153.337C93.8036 153.337 93.4305 153.659 93.3211 154.199Z" fill="#727272"/>
<path d="M51.9464 193.573V191.573L50.267 188.795H50.9701L52.2604 190.979L53.5574 188.795H54.2606L52.5744 191.573V193.573H51.9464ZM55.667 193.628C54.643 193.628 53.9194 192.884 53.9194 191.853C53.9194 190.822 54.643 190.078 55.667 190.078C56.6842 190.078 57.4215 190.822 57.4215 191.853C57.4215 192.884 56.6842 193.628 55.667 193.628ZM55.667 193.109C56.3565 193.109 56.8208 192.59 56.8208 191.853C56.8208 191.116 56.3565 190.597 55.667 190.597C54.9776 190.597 54.5133 191.116 54.5133 191.853C54.5133 192.59 54.9776 193.109 55.667 193.109ZM61.1541 190.133V193.573H60.5739V192.925C60.3349 193.334 59.9185 193.628 59.3929 193.628C58.6761 193.628 58.1641 193.143 58.1641 192.413V190.133H58.7443V192.303C58.7443 192.768 59.0379 193.102 59.5226 193.102C60.1643 193.102 60.5739 192.549 60.5739 191.641V190.133H61.1541ZM64.1113 190.699C63.9816 190.645 63.8177 190.617 63.6675 190.617C63.1214 190.617 62.6777 191.143 62.6777 192.263V193.573H62.0974V190.133H62.6777V190.829C62.8756 190.392 63.3262 190.078 63.7494 190.078C63.8928 190.078 64.0293 190.098 64.1454 190.139L64.1113 190.699ZM66.3847 193.573V188.795H69.443V189.348H67.0059V190.808H68.9993V191.368H67.0059V193.573H66.3847ZM70.2114 193.573V188.795H71.6313C72.9693 188.795 74.0275 189.648 74.0275 191.184C74.0275 192.72 72.9693 193.573 71.6313 193.573H70.2114ZM70.8258 193.013H71.6108C72.5324 193.013 73.3858 192.488 73.3858 191.184C73.3858 189.88 72.5324 189.348 71.6108 189.348H70.8258V193.013ZM76.7108 189.484C76.4787 189.484 76.308 189.307 76.308 189.081C76.308 188.849 76.4787 188.672 76.7108 188.672C76.9497 188.672 77.1272 188.849 77.1272 189.081C77.1272 189.307 76.9497 189.484 76.7108 189.484ZM76.4241 193.573V190.133H77.0043V193.573H76.4241ZM79.0978 193.628C78.2649 193.628 77.8144 193.109 77.6642 192.624L78.1625 192.406C78.2922 192.809 78.5653 193.136 79.0978 193.136C79.521 193.136 79.7941 192.891 79.7941 192.611C79.7941 191.73 77.8144 192.297 77.8144 190.993C77.8144 190.447 78.2854 190.078 79.0227 190.078C79.6302 190.078 80.1559 190.419 80.2993 190.924L79.8146 191.136C79.719 190.781 79.3777 190.556 79.009 190.556C78.6199 190.556 78.3741 190.713 78.3741 190.986C78.3741 191.723 80.3675 191.184 80.3607 192.604C80.3607 193.205 79.8555 193.628 79.0978 193.628ZM84.2528 193.628C83.2288 193.628 82.5461 192.918 82.5461 191.853C82.5461 190.788 83.2288 190.078 84.2528 190.078C85.0515 190.078 85.6386 190.515 85.7614 191.198L85.188 191.314C85.1129 190.897 84.7511 190.597 84.2664 190.597C83.5906 190.597 83.1537 191.095 83.1537 191.853C83.1537 192.611 83.5906 193.109 84.2664 193.109C84.7511 193.109 85.1061 192.843 85.2017 192.385L85.7683 192.501C85.6181 193.211 85.0446 193.628 84.2528 193.628ZM89.4808 190.133V193.573H88.9005V192.925C88.6616 193.334 88.2452 193.628 87.7195 193.628C87.0027 193.628 86.4907 193.143 86.4907 192.413V190.133H87.071V192.303C87.071 192.768 87.3645 193.102 87.8492 193.102C88.4909 193.102 88.9005 192.549 88.9005 191.641V190.133H89.4808ZM92.4379 190.699C92.3082 190.645 92.1444 190.617 91.9942 190.617C91.4481 190.617 91.0043 191.143 91.0043 192.263V193.573H90.4241V190.133H91.0043V190.829C91.2023 190.392 91.6529 190.078 92.0761 190.078C92.2195 190.078 92.356 190.098 92.4721 190.139L92.4379 190.699ZM95.0513 190.699C94.9216 190.645 94.7577 190.617 94.6075 190.617C94.0614 190.617 93.6177 191.143 93.6177 192.263V193.573H93.0374V190.133H93.6177V190.829C93.8156 190.392 94.2662 190.078 94.6895 190.078C94.8328 190.078 94.9693 190.098 95.0854 190.139L95.0513 190.699ZM98.6037 191.696C98.6037 191.778 98.5969 191.901 98.59 191.962H95.873C95.914 192.658 96.3509 193.116 96.9721 193.116C97.4978 193.116 97.8596 192.87 97.962 192.44L98.5081 192.57C98.3375 193.239 97.764 193.628 96.9721 193.628C95.9413 193.628 95.2928 192.829 95.2928 191.853C95.2928 190.877 95.9208 190.078 96.9585 190.078C97.9756 190.078 98.6037 190.808 98.6037 191.696ZM95.9072 191.477H97.9893C97.9347 190.952 97.566 190.563 96.9585 190.563C96.4192 190.563 96.0232 190.904 95.9072 191.477ZM99.3507 193.573V190.133H99.931V190.781C100.17 190.372 100.586 190.078 101.112 190.078C101.829 190.078 102.341 190.563 102.341 191.293V193.573H101.761V191.402C101.761 190.938 101.467 190.604 100.982 190.604C100.341 190.604 99.931 191.157 99.931 192.065V193.573H99.3507ZM104.987 193.546C104.816 193.607 104.632 193.628 104.448 193.628C103.861 193.628 103.43 193.3 103.43 192.542V190.645H102.789V190.133H103.43V189.088H104.011V190.133H104.932V190.645H104.011V192.563C104.011 192.925 104.216 193.102 104.516 193.102C104.652 193.102 104.809 193.082 104.946 193.013L104.987 193.546ZM106.796 193.621C106.181 193.682 105.724 193.45 105.724 192.734V188.74H106.304V192.693C106.304 193.068 106.482 193.123 106.769 193.102L106.796 193.621ZM109.737 190.133H110.331L108.529 194.816H107.935L108.433 193.525L107.088 190.133H107.716L108.727 192.768L109.737 190.133ZM114.237 193.628C113.732 193.628 113.275 193.389 113.118 193.075V193.573H112.537V188.74H113.118V190.624C113.336 190.303 113.787 190.078 114.244 190.078C115.309 190.078 115.896 190.843 115.896 191.853C115.896 192.863 115.309 193.628 114.237 193.628ZM114.183 193.109C114.858 193.109 115.302 192.611 115.302 191.853C115.302 191.095 114.858 190.597 114.183 190.597C113.507 190.597 113.07 191.095 113.07 191.853C113.07 192.611 113.507 193.109 114.183 193.109ZM119.75 191.696C119.75 191.778 119.744 191.901 119.737 191.962H117.02C117.061 192.658 117.498 193.116 118.119 193.116C118.644 193.116 119.006 192.87 119.109 192.44L119.655 192.57C119.484 193.239 118.911 193.628 118.119 193.628C117.088 193.628 116.439 192.829 116.439 191.853C116.439 190.877 117.067 190.078 118.105 190.078C119.122 190.078 119.75 190.808 119.75 191.696ZM117.054 191.477H119.136C119.081 190.952 118.713 190.563 118.105 190.563C117.566 190.563 117.17 190.904 117.054 191.477ZM120.784 189.484C120.552 189.484 120.381 189.307 120.381 189.081C120.381 188.849 120.552 188.672 120.784 188.672C121.023 188.672 121.201 188.849 121.201 189.081C121.201 189.307 121.023 189.484 120.784 189.484ZM120.497 193.573V190.133H121.078V193.573H120.497ZM122.017 193.573V190.133H122.598V190.781C122.837 190.372 123.253 190.078 123.779 190.078C124.495 190.078 125.007 190.563 125.007 191.293V193.573H124.427V191.402C124.427 190.938 124.134 190.604 123.649 190.604C123.007 190.604 122.598 191.157 122.598 192.065V193.573H122.017ZM127.719 192.904C128.408 192.904 128.886 193.191 128.886 193.826C128.886 194.515 128.244 194.87 127.302 194.87C126.326 194.87 125.719 194.522 125.719 193.887C125.719 193.587 125.882 193.341 126.087 193.184C125.917 193.068 125.814 192.897 125.814 192.652C125.814 192.351 126.012 192.126 126.278 192.003C126.094 191.805 125.992 191.546 125.992 191.239C125.992 190.542 126.551 190.078 127.296 190.078C127.521 190.078 127.732 190.126 127.924 190.215L128.463 189.75L128.797 190.133L128.34 190.522C128.504 190.713 128.599 190.959 128.599 191.239C128.599 191.948 128.047 192.399 127.296 192.399C127.05 192.399 126.838 192.351 126.654 192.269C126.456 192.358 126.374 192.474 126.374 192.618C126.374 192.829 126.572 192.904 126.797 192.904H127.719ZM127.296 190.549C126.9 190.549 126.558 190.808 126.558 191.239C126.558 191.675 126.9 191.928 127.296 191.928C127.692 191.928 128.033 191.675 128.033 191.239C128.033 190.808 127.692 190.549 127.296 190.549ZM127.302 194.379C127.958 194.379 128.32 194.194 128.32 193.867C128.32 193.498 128.047 193.375 127.637 193.375H126.906C126.784 193.375 126.668 193.368 126.558 193.355C126.347 193.498 126.285 193.682 126.285 193.88C126.285 194.194 126.633 194.379 127.302 194.379ZM131.525 193.573V190.645H130.938V190.133H131.525V189.812C131.525 189.054 131.955 188.651 132.543 188.651C132.7 188.651 132.863 188.665 133.007 188.706L132.979 189.225C132.857 189.177 132.734 189.156 132.618 189.156C132.31 189.156 132.106 189.395 132.106 189.764V190.133H132.986V190.645H132.106V193.573H131.525ZM136.601 190.133V193.573H136.021V192.925C135.782 193.334 135.365 193.628 134.84 193.628C134.123 193.628 133.611 193.143 133.611 192.413V190.133H134.191V192.303C134.191 192.768 134.485 193.102 134.969 193.102C135.611 193.102 136.021 192.549 136.021 191.641V190.133H136.601ZM137.544 193.573V190.133H138.124V190.781C138.363 190.372 138.78 190.078 139.305 190.078C140.022 190.078 140.534 190.563 140.534 191.293V193.573H139.954V191.402C139.954 190.938 139.66 190.604 139.176 190.604C138.534 190.604 138.124 191.157 138.124 192.065V193.573H137.544ZM142.938 193.628C141.867 193.628 141.279 192.863 141.279 191.853C141.279 190.843 141.867 190.078 142.931 190.078C143.389 190.078 143.839 190.303 144.058 190.624V188.74H144.638V193.573H144.058V193.075C143.901 193.389 143.443 193.628 142.938 193.628ZM142.993 193.109C143.669 193.109 144.112 192.611 144.112 191.853C144.112 191.095 143.669 190.597 142.993 190.597C142.317 190.597 141.873 191.095 141.873 191.853C141.873 192.611 142.317 193.109 142.993 193.109ZM148.69 191.696C148.69 191.778 148.684 191.901 148.677 191.962H145.96C146.001 192.658 146.438 193.116 147.059 193.116C147.584 193.116 147.946 192.87 148.049 192.44L148.595 192.57C148.424 193.239 147.851 193.628 147.059 193.628C146.028 193.628 145.379 192.829 145.379 191.853C145.379 190.877 146.007 190.078 147.045 190.078C148.062 190.078 148.69 190.808 148.69 191.696ZM145.994 191.477H148.076C148.021 190.952 147.653 190.563 147.045 190.563C146.506 190.563 146.11 190.904 145.994 191.477ZM150.898 193.628C149.827 193.628 149.239 192.863 149.239 191.853C149.239 190.843 149.827 190.078 150.891 190.078C151.349 190.078 151.799 190.303 152.018 190.624V188.74H152.598V193.573H152.018V193.075C151.861 193.389 151.403 193.628 150.898 193.628ZM150.953 193.109C151.629 193.109 152.073 192.611 152.073 191.853C152.073 191.095 151.629 190.597 150.953 190.597C150.277 190.597 149.833 191.095 149.833 191.853C149.833 192.611 150.277 193.109 150.953 193.109ZM153.954 193.628C153.708 193.628 153.537 193.457 153.537 193.218C153.537 192.986 153.708 192.809 153.954 192.809C154.186 192.809 154.37 192.986 154.37 193.218C154.37 193.457 154.186 193.628 153.954 193.628ZM158.186 193.573V191.573L156.507 188.795H157.21L158.5 190.979L159.797 188.795H160.501L158.814 191.573V193.573H158.186ZM161.907 193.628C160.883 193.628 160.159 192.884 160.159 191.853C160.159 190.822 160.883 190.078 161.907 190.078C162.924 190.078 163.662 190.822 163.662 191.853C163.662 192.884 162.924 193.628 161.907 193.628ZM161.907 193.109C162.597 193.109 163.061 192.59 163.061 191.853C163.061 191.116 162.597 190.597 161.907 190.597C161.218 190.597 160.753 191.116 160.753 191.853C160.753 192.59 161.218 193.109 161.907 193.109ZM167.394 190.133V193.573H166.814V192.925C166.575 193.334 166.159 193.628 165.633 193.628C164.916 193.628 164.404 193.143 164.404 192.413V190.133H164.984V192.303C164.984 192.768 165.278 193.102 165.763 193.102C166.404 193.102 166.814 192.549 166.814 191.641V190.133H167.394ZM170.749 193.573L169.697 190.133H170.291L171.035 192.761L171.841 190.133H172.401L173.206 192.761L173.944 190.133H174.551L173.493 193.573H172.926L172.121 190.959L171.315 193.573H170.749ZM175.484 189.484C175.252 189.484 175.081 189.307 175.081 189.081C175.081 188.849 175.252 188.672 175.484 188.672C175.723 188.672 175.901 188.849 175.901 189.081C175.901 189.307 175.723 189.484 175.484 189.484ZM175.197 193.573V190.133H175.778V193.573H175.197ZM177.789 193.621C177.175 193.682 176.717 193.45 176.717 192.734V188.74H177.298V192.693C177.298 193.068 177.475 193.123 177.762 193.102L177.789 193.621ZM179.536 193.621C178.921 193.682 178.464 193.45 178.464 192.734V188.74H179.044V192.693C179.044 193.068 179.222 193.123 179.509 193.102L179.536 193.621ZM52.4788 201.904C53.1683 201.904 53.6462 202.191 53.6462 202.826C53.6462 203.515 53.0045 203.87 52.0624 203.87C51.0862 203.87 50.4786 203.522 50.4786 202.887C50.4786 202.587 50.6425 202.341 50.8473 202.184C50.6766 202.068 50.5742 201.897 50.5742 201.652C50.5742 201.351 50.7722 201.126 51.0384 201.003C50.8541 200.805 50.7517 200.546 50.7517 200.239C50.7517 199.542 51.3115 199.078 52.0556 199.078C52.2809 199.078 52.4925 199.126 52.6836 199.215L53.2229 198.75L53.5574 199.133L53.1001 199.522C53.2639 199.713 53.3595 199.959 53.3595 200.239C53.3595 200.948 52.8065 201.399 52.0556 201.399C51.8098 201.399 51.5982 201.351 51.4139 201.269C51.2159 201.358 51.134 201.474 51.134 201.618C51.134 201.829 51.332 201.904 51.5572 201.904H52.4788ZM52.0556 199.549C51.6596 199.549 51.3183 199.808 51.3183 200.239C51.3183 200.675 51.6596 200.928 52.0556 200.928C52.4515 200.928 52.7929 200.675 52.7929 200.239C52.7929 199.808 52.4515 199.549 52.0556 199.549ZM52.0624 203.379C52.7178 203.379 53.0796 203.194 53.0796 202.867C53.0796 202.498 52.8065 202.375 52.3969 202.375H51.6665C51.5436 202.375 51.4275 202.368 51.3183 202.355C51.1067 202.498 51.0452 202.682 51.0452 202.88C51.0452 203.194 51.3934 203.379 52.0624 203.379ZM57.4104 200.696C57.4104 200.778 57.4035 200.901 57.3967 200.962H54.6797C54.7206 201.658 55.1576 202.116 55.7788 202.116C56.3044 202.116 56.6662 201.87 56.7686 201.44L57.3148 201.57C57.1441 202.239 56.5707 202.628 55.7788 202.628C54.748 202.628 54.0994 201.829 54.0994 200.853C54.0994 199.877 54.7275 199.078 55.7651 199.078C56.7823 199.078 57.4104 199.808 57.4104 200.696ZM54.7138 200.477H56.796C56.7413 199.952 56.3727 199.563 55.7651 199.563C55.2258 199.563 54.8299 199.904 54.7138 200.477ZM59.9403 202.546C59.7696 202.607 59.5853 202.628 59.401 202.628C58.8139 202.628 58.3838 202.3 58.3838 201.542V199.645H57.7421V199.133H58.3838V198.088H58.9641V199.133H59.8857V199.645H58.9641V201.563C58.9641 201.925 59.1689 202.102 59.4692 202.102C59.6058 202.102 59.7628 202.082 59.8993 202.013L59.9403 202.546ZM63.5475 199.078C64.3803 199.078 64.9606 199.57 64.9606 200.368V202.573H64.3872V201.986C64.1892 202.382 63.7386 202.628 63.2403 202.628C62.5508 202.628 62.0797 202.205 62.0797 201.611C62.0797 200.948 62.619 200.587 63.7181 200.477L64.3872 200.402V200.334C64.3872 199.863 64.0526 199.563 63.5475 199.563C63.0764 199.563 62.7419 199.843 62.6941 200.307L62.1548 200.204C62.2572 199.522 62.8238 199.078 63.5475 199.078ZM63.329 202.15C63.998 202.15 64.3872 201.706 64.3872 201.017V200.853L63.7181 200.928C63.0218 201.003 62.66 201.242 62.66 201.604C62.66 201.925 62.9331 202.15 63.329 202.15ZM69.0594 202.628C68.0286 202.628 67.3118 201.904 67.3118 200.853C67.3118 199.802 68.0286 199.078 69.0594 199.078C69.9401 199.078 70.5613 199.535 70.6773 200.266L69.8377 200.43C69.7762 200.068 69.4895 199.822 69.0867 199.822C68.5542 199.822 68.2061 200.225 68.2061 200.853C68.2061 201.481 68.5542 201.884 69.0867 201.884C69.4895 201.884 69.7557 201.665 69.8377 201.297L70.6773 201.467C70.5476 202.191 69.9264 202.628 69.0594 202.628ZM72.9339 202.628C71.8894 202.628 71.1385 201.877 71.1385 200.853C71.1385 199.829 71.8894 199.078 72.9339 199.078C73.9784 199.078 74.7293 199.829 74.7293 200.853C74.7293 201.877 73.9784 202.628 72.9339 202.628ZM72.9339 201.884C73.4868 201.884 73.8623 201.467 73.8623 200.853C73.8623 200.239 73.4868 199.822 72.9339 199.822C72.3741 199.822 72.0054 200.239 72.0054 200.853C72.0054 201.467 72.3741 201.884 72.9339 201.884ZM75.3761 202.573V199.133H76.2363V199.651C76.4547 199.317 76.8439 199.078 77.3285 199.078C78.0795 199.078 78.5847 199.57 78.5847 200.32V202.573H77.7245V200.525C77.7245 200.122 77.4719 199.843 77.0691 199.843C76.5435 199.843 76.2363 200.293 76.2363 201.065V202.573H75.3761ZM79.6165 202.573V199.856H79.0635V199.133H79.6165V198.866C79.6165 198.061 80.1353 197.624 80.8316 197.624C81.0091 197.624 81.1866 197.651 81.3505 197.699L81.289 198.409C81.173 198.361 81.0569 198.341 80.9477 198.341C80.661 198.341 80.4767 198.546 80.4767 198.866V199.133H81.2959V199.856H80.4767V202.573H79.6165ZM82.3462 198.607C82.039 198.607 81.8137 198.375 81.8137 198.074C81.8137 197.781 82.039 197.549 82.3462 197.549C82.6602 197.549 82.8923 197.781 82.8923 198.074C82.8923 198.375 82.6602 198.607 82.3462 198.607ZM81.9161 202.573V199.133H82.7763V202.573H81.9161ZM85.8281 199.965C85.7052 199.911 85.5414 199.884 85.3912 199.884C84.9065 199.884 84.4696 200.286 84.4696 201.31V202.573H83.6095V199.133H84.4696V199.761C84.6403 199.372 85.0908 199.078 85.5073 199.078C85.6301 199.078 85.7803 199.098 85.8827 199.133L85.8281 199.965ZM86.3828 202.573V199.133H87.2429V199.658C87.4341 199.317 87.7549 199.078 88.2328 199.078C88.7789 199.078 89.1476 199.31 89.3046 199.727C89.4889 199.378 89.8985 199.078 90.4447 199.078C91.1888 199.078 91.6735 199.563 91.6735 200.239V202.573H90.8133V200.477C90.8133 200.068 90.588 199.808 90.1852 199.808C89.721 199.808 89.4548 200.211 89.4548 200.819V202.573H88.5946V200.477C88.5946 200.068 88.3762 199.808 87.9802 199.808C87.5092 199.808 87.2429 200.218 87.2429 200.826V202.573H86.3828ZM93.8338 199.078C94.7349 199.078 95.3493 199.563 95.3493 200.477V202.573H94.5165V202.075C94.3253 202.409 93.9089 202.628 93.4857 202.628C92.8098 202.628 92.3388 202.191 92.3388 201.604C92.3388 200.928 92.8508 200.566 93.8748 200.457L94.5165 200.396V200.361C94.5165 199.972 94.2503 199.733 93.8338 199.733C93.4584 199.733 93.1921 199.965 93.1512 200.334L92.3866 200.198C92.4958 199.515 93.1034 199.078 93.8338 199.078ZM93.6768 201.993C94.2093 201.993 94.5165 201.59 94.5165 201.085V201.01L93.8611 201.085C93.4037 201.14 93.1716 201.331 93.1716 201.577C93.1716 201.815 93.3628 201.993 93.6768 201.993ZM98.1706 202.539C98 202.601 97.8156 202.628 97.6177 202.628C96.9213 202.628 96.4025 202.252 96.4025 201.447V199.856H95.8223V199.133H96.4025V198.122H97.2627V199.133H98.1297V199.856H97.2627V201.365C97.2627 201.693 97.4402 201.87 97.7064 201.87C97.8361 201.87 97.9863 201.85 98.1092 201.788L98.1706 202.539ZM99.1929 198.607C98.8857 198.607 98.6604 198.375 98.6604 198.074C98.6604 197.781 98.8857 197.549 99.1929 197.549C99.5069 197.549 99.739 197.781 99.739 198.074C99.739 198.375 99.5069 198.607 99.1929 198.607ZM98.7628 202.573V199.133H99.6229V202.573H98.7628ZM102.067 202.628C101.023 202.628 100.272 201.877 100.272 200.853C100.272 199.829 101.023 199.078 102.067 199.078C103.112 199.078 103.863 199.829 103.863 200.853C103.863 201.877 103.112 202.628 102.067 202.628ZM102.067 201.884C102.62 201.884 102.996 201.467 102.996 200.853C102.996 200.239 102.62 199.822 102.067 199.822C101.507 199.822 101.139 200.239 101.139 200.853C101.139 201.467 101.507 201.884 102.067 201.884ZM104.509 202.573V199.133H105.37V199.651C105.588 199.317 105.977 199.078 106.462 199.078C107.213 199.078 107.718 199.57 107.718 200.32V202.573H106.858V200.525C106.858 200.122 106.605 199.843 106.202 199.843C105.677 199.843 105.37 200.293 105.37 201.065V202.573H104.509ZM110.995 202.573L109.923 199.133H110.79L111.384 201.372L112.074 199.133H112.859L113.548 201.372L114.135 199.133H115.002L113.937 202.573H113.166L112.47 200.327L111.76 202.573H110.995ZM116 198.607C115.692 198.607 115.467 198.375 115.467 198.074C115.467 197.781 115.692 197.549 116 197.549C116.314 197.549 116.546 197.781 116.546 198.074C116.546 198.375 116.314 198.607 116 198.607ZM115.569 202.573V199.133H116.43V202.573H115.569ZM119.304 202.539C119.133 202.601 118.949 202.628 118.751 202.628C118.055 202.628 117.536 202.252 117.536 201.447V199.856H116.956V199.133H117.536V198.122H118.396V199.133H119.263V199.856H118.396V201.365C118.396 201.693 118.574 201.87 118.84 201.87C118.969 201.87 119.12 201.85 119.243 201.788L119.304 202.539ZM120.069 202.573V197.74H120.93V199.665C121.155 199.29 121.544 199.078 122.022 199.078C122.793 199.078 123.305 199.57 123.305 200.32V202.573H122.445V200.532C122.445 200.109 122.186 199.843 121.762 199.843C121.23 199.843 120.93 200.3 120.93 201.078V202.573H120.069ZM124.566 198.607C124.259 198.607 124.034 198.375 124.034 198.074C124.034 197.781 124.259 197.549 124.566 197.549C124.88 197.549 125.112 197.781 125.112 198.074C125.112 198.375 124.88 198.607 124.566 198.607ZM124.136 202.573V199.133H124.996V202.573H124.136ZM125.829 202.573V199.133H126.69V199.651C126.908 199.317 127.297 199.078 127.782 199.078C128.533 199.078 129.038 199.57 129.038 200.32V202.573H128.178V200.525C128.178 200.122 127.925 199.843 127.522 199.843C126.997 199.843 126.69 200.293 126.69 201.065V202.573H125.829ZM132.37 202.573V198.819C132.042 199.078 131.694 199.242 131.271 199.324V198.498C131.714 198.395 132.172 198.136 132.52 197.795H133.23V202.573H132.37ZM133.83 200.969V200.232H136.943V200.969H133.83ZM137.084 202.573L137.078 201.822L138.777 200.389C139.296 199.952 139.521 199.61 139.521 199.249C139.521 198.819 139.228 198.539 138.777 198.539C138.245 198.539 137.938 198.955 137.992 199.583L137.112 199.522C137.016 198.505 137.767 197.74 138.777 197.74C139.788 197.74 140.457 198.354 140.457 199.249C140.457 199.849 140.109 200.382 139.323 201.003L138.381 201.768H140.45V202.573H137.084ZM143.668 202.573L142.597 199.133H143.464L144.057 201.372L144.747 199.133H145.532L146.222 201.372L146.809 199.133H147.676L146.611 202.573H145.839L145.143 200.327L144.433 202.573H143.668ZM149.727 202.628C148.683 202.628 147.932 201.877 147.932 200.853C147.932 199.829 148.683 199.078 149.727 199.078C150.772 199.078 151.523 199.829 151.523 200.853C151.523 201.877 150.772 202.628 149.727 202.628ZM149.727 201.884C150.28 201.884 150.656 201.467 150.656 200.853C150.656 200.239 150.28 199.822 149.727 199.822C149.167 199.822 148.799 200.239 148.799 200.853C148.799 201.467 149.167 201.884 149.727 201.884ZM154.388 199.965C154.265 199.911 154.101 199.884 153.951 199.884C153.467 199.884 153.03 200.286 153.03 201.31V202.573H152.169V199.133H153.03V199.761C153.2 199.372 153.651 199.078 154.067 199.078C154.19 199.078 154.34 199.098 154.443 199.133L154.388 199.965ZM157.271 202.573L156.213 201.058L155.81 201.454V202.573H154.943V197.74H155.81V200.355L157.107 199.133H158.199L156.8 200.491L158.308 202.573H157.271ZM159.2 198.607C158.892 198.607 158.667 198.375 158.667 198.074C158.667 197.781 158.892 197.549 159.2 197.549C159.514 197.549 159.746 197.781 159.746 198.074C159.746 198.375 159.514 198.607 159.2 198.607ZM158.769 202.573V199.133H159.63V202.573H158.769ZM160.463 202.573V199.133H161.323V199.651C161.541 199.317 161.931 199.078 162.415 199.078C163.166 199.078 163.671 199.57 163.671 200.32V202.573H162.811V200.525C162.811 200.122 162.559 199.843 162.156 199.843C161.63 199.843 161.323 200.293 161.323 201.065V202.573H160.463ZM166.332 201.85C167.124 201.85 167.602 202.184 167.602 202.812C167.602 203.577 166.851 203.87 165.93 203.87C164.919 203.87 164.257 203.549 164.257 202.88C164.257 202.642 164.394 202.389 164.592 202.225C164.448 202.095 164.366 201.932 164.366 201.734C164.366 201.406 164.564 201.174 164.865 201.044C164.667 200.839 164.557 200.573 164.557 200.259C164.557 199.549 165.117 199.078 165.923 199.078C166.155 199.078 166.366 199.119 166.551 199.194L167.056 198.668L167.554 199.133L167.097 199.61C167.22 199.788 167.295 200.013 167.295 200.259C167.295 200.969 166.735 201.433 165.923 201.433C165.738 201.433 165.561 201.406 165.404 201.365C165.254 201.44 165.185 201.529 165.185 201.631C165.185 201.788 165.329 201.85 165.527 201.85H166.332ZM165.923 199.74C165.602 199.74 165.356 199.938 165.356 200.259C165.356 200.573 165.602 200.771 165.923 200.771C166.237 200.771 166.489 200.573 166.489 200.259C166.489 199.938 166.237 199.74 165.923 199.74ZM165.93 203.181C166.51 203.181 166.769 203.058 166.769 202.826C166.769 202.58 166.544 202.519 166.189 202.519H165.554C165.445 202.519 165.336 202.512 165.233 202.491C165.124 202.607 165.09 202.71 165.09 202.833C165.09 203.065 165.322 203.181 165.93 203.181ZM171.237 202.628C170.206 202.628 169.598 201.904 169.598 200.853C169.598 199.802 170.206 199.078 171.223 199.078C171.653 199.078 172.022 199.255 172.22 199.515V197.74H173.08V202.573H172.22V202.177C172.049 202.45 171.667 202.628 171.237 202.628ZM171.36 201.884C171.913 201.884 172.275 201.474 172.275 200.853C172.275 200.232 171.913 199.822 171.36 199.822C170.814 199.822 170.452 200.232 170.452 200.853C170.452 201.474 170.814 201.884 171.36 201.884ZM175.241 199.078C176.142 199.078 176.756 199.563 176.756 200.477V202.573H175.923V202.075C175.732 202.409 175.316 202.628 174.892 202.628C174.217 202.628 173.745 202.191 173.745 201.604C173.745 200.928 174.257 200.566 175.281 200.457L175.923 200.396V200.361C175.923 199.972 175.657 199.733 175.241 199.733C174.865 199.733 174.599 199.965 174.558 200.334L173.793 200.198C173.902 199.515 174.51 199.078 175.241 199.078ZM175.083 201.993C175.616 201.993 175.923 201.59 175.923 201.085V201.01L175.268 201.085C174.81 201.14 174.578 201.331 174.578 201.577C174.578 201.815 174.769 201.993 175.083 201.993ZM179.702 199.133H180.583L178.767 203.816H177.893L178.426 202.437L177.088 199.133H178.023L178.849 201.344L179.702 199.133ZM182.171 202.628C181.338 202.628 180.84 202.116 180.669 201.611L181.372 201.324C181.475 201.672 181.741 201.959 182.171 201.959C182.492 201.959 182.703 201.788 182.703 201.57C182.703 200.921 180.826 201.344 180.826 200.041C180.826 199.501 181.297 199.078 182.048 199.078C182.717 199.078 183.284 199.419 183.434 199.918L182.738 200.211C182.642 199.884 182.342 199.713 182.062 199.713C181.789 199.713 181.604 199.829 181.604 200.027C181.604 200.634 183.495 200.15 183.495 201.556C183.495 202.15 182.963 202.628 182.171 202.628ZM184.515 202.628C184.215 202.628 183.983 202.403 183.983 202.102C183.983 201.802 184.215 201.577 184.515 201.577C184.822 201.577 185.048 201.802 185.048 202.102C185.048 202.403 184.822 202.628 184.515 202.628Z" fill="black"/>
<g filter="url(#filter1_d_936_9509)">
<rect x="40" y="342.732" width="160" height="30.72" fill="white"/>
</g>
<g style="mix-blend-mode:multiply">
<path d="M119.787 358.945C118.943 358.945 118.118 358.695 117.416 358.226C116.715 357.758 116.168 357.091 115.845 356.312C115.522 355.532 115.437 354.674 115.602 353.846C115.767 353.019 116.173 352.258 116.77 351.662C117.366 351.065 118.127 350.659 118.954 350.494C119.782 350.329 120.64 350.414 121.419 350.737C122.199 351.06 122.865 351.607 123.334 352.308C123.803 353.01 124.053 353.835 124.053 354.679C124.051 355.81 123.601 356.894 122.801 357.693C122.001 358.493 120.918 358.943 119.787 358.945Z" fill="#CDCDCD"/>
</g>
<mask id="mask0_936_9509" style="mask-type:alpha" maskUnits="userSpaceOnUse" x="115" y="350" width="10" height="9">
<path d="M119.787 358.946C118.943 358.946 118.118 358.696 117.416 358.227C116.715 357.759 116.168 357.092 115.845 356.313C115.522 355.533 115.437 354.675 115.602 353.847C115.767 353.02 116.173 352.259 116.77 351.663C117.366 351.066 118.127 350.66 118.954 350.495C119.782 350.33 120.64 350.415 121.419 350.738C122.199 351.061 122.865 351.608 123.334 352.309C123.803 353.011 124.053 353.836 124.053 354.68C124.051 355.811 123.601 356.894 122.801 357.694C122.001 358.494 120.918 358.944 119.787 358.946Z" fill="#B1CDE2"/>
</mask>
<g mask="url(#mask0_936_9509)">
<g style="mix-blend-mode:multiply">
<g style="mix-blend-mode:multiply">
<path d="M121.92 358.775C121.92 358.87 121.882 358.961 121.815 359.028C121.748 359.096 121.657 359.133 121.562 359.133H117.984C117.938 359.133 117.891 359.124 117.848 359.106C117.805 359.088 117.766 359.061 117.733 359.028C117.7 358.995 117.674 358.955 117.657 358.912C117.639 358.869 117.631 358.822 117.631 358.775V357.415C117.629 357.169 117.676 356.925 117.769 356.698C117.862 356.47 117.999 356.263 118.173 356.089C118.346 355.915 118.553 355.777 118.78 355.683C119.007 355.589 119.25 355.54 119.496 355.541H120.033C120.279 355.54 120.522 355.589 120.749 355.683C120.976 355.777 121.183 355.915 121.356 356.089C121.529 356.263 121.667 356.47 121.76 356.698C121.853 356.925 121.9 357.169 121.898 357.415L121.92 358.775Z" fill="#505050"/>
</g>
<g style="mix-blend-mode:multiply">
<path d="M119.645 355.248C119.899 355.248 120.148 355.173 120.359 355.031C120.57 354.889 120.734 354.687 120.83 354.451C120.926 354.216 120.95 353.957 120.898 353.708C120.846 353.459 120.721 353.231 120.539 353.053C120.357 352.875 120.126 352.756 119.876 352.71C119.626 352.664 119.368 352.693 119.135 352.795C118.901 352.896 118.703 353.064 118.566 353.279C118.429 353.493 118.359 353.743 118.365 353.998C118.373 354.332 118.511 354.65 118.75 354.884C118.989 355.118 119.31 355.249 119.645 355.248Z" fill="#505050"/>
</g>
</g>
</g>
<path d="M112.127 368.359V364.775H113.612C114.354 364.775 114.83 365.216 114.83 365.897C114.83 366.578 114.354 367.018 113.612 367.018H112.936V368.359H112.127ZM112.936 366.327H113.53C113.837 366.327 114.021 366.163 114.021 365.897C114.021 365.63 113.837 365.467 113.53 365.467H112.936V366.327ZM116.952 366.501C116.865 366.46 116.742 366.439 116.624 366.439C116.286 366.439 115.964 366.695 115.964 367.428V368.359H115.211V365.779H115.964V366.224C116.081 365.948 116.414 365.738 116.721 365.738C116.808 365.738 116.926 365.753 116.998 365.779L116.952 366.501ZM118.5 368.4C117.701 368.4 117.138 367.837 117.138 367.069C117.138 366.301 117.701 365.738 118.5 365.738C119.288 365.738 119.862 366.301 119.862 367.069C119.862 367.837 119.288 368.4 118.5 368.4ZM118.5 367.76C118.863 367.76 119.109 367.479 119.109 367.069C119.109 366.66 118.863 366.378 118.5 366.378C118.131 366.378 117.886 366.66 117.886 367.069C117.886 367.479 118.131 367.76 118.5 367.76ZM120.466 368.359V366.404H120.061V365.779H120.466V365.6C120.466 364.98 120.886 364.637 121.449 364.637C121.597 364.637 121.736 364.658 121.859 364.704L121.807 365.308C121.715 365.272 121.633 365.252 121.551 365.252C121.347 365.252 121.219 365.39 121.219 365.615V365.779H121.807V366.404H121.219V368.359H120.466ZM122.615 365.436C122.359 365.436 122.169 365.236 122.169 364.985C122.169 364.74 122.359 364.54 122.615 364.54C122.876 364.54 123.076 364.74 123.076 364.985C123.076 365.236 122.876 365.436 122.615 365.436ZM122.241 368.359V365.779H122.994V368.359H122.241ZM124.718 368.38C124.088 368.482 123.576 368.242 123.576 367.55V364.734H124.329V367.443C124.329 367.745 124.462 367.745 124.667 367.745L124.718 368.38ZM127.609 367.003C127.609 367.105 127.604 367.228 127.599 367.284H125.745C125.817 367.602 126.032 367.776 126.35 367.776C126.606 367.776 126.795 367.658 126.851 367.443L127.558 367.632C127.404 368.119 126.943 368.4 126.329 368.4C125.438 368.4 125.003 367.709 125.003 367.069C125.003 366.429 125.392 365.738 126.283 365.738C127.215 365.738 127.609 366.429 127.609 367.003ZM125.756 366.752H126.805C126.78 366.491 126.616 366.296 126.283 366.296C126.012 366.296 125.827 366.45 125.756 366.752Z" fill="#091016"/>
<path d="M169.606 354.465C169.606 354.298 169.59 354.132 169.56 353.968L170.773 353.096L169.754 351.374L168.378 351.976C168.108 351.765 167.805 351.597 167.481 351.479L167.313 349.985H165.274L165.106 351.449C164.78 351.576 164.477 351.755 164.209 351.976L162.833 351.364L161.813 353.087L163.026 353.968C162.968 354.297 162.968 354.634 163.026 354.963L161.813 355.844L162.833 357.567L164.209 356.979C164.479 357.19 164.782 357.359 165.106 357.477L165.274 358.945H167.313L167.481 357.482C167.805 357.363 168.108 357.195 168.378 356.984L169.754 357.571L170.773 355.849L169.56 354.963C169.59 354.799 169.606 354.632 169.606 354.465Z" fill="#CDCDCD"/>
<path d="M166.293 355.958C167.118 355.958 167.787 355.29 167.787 354.465C167.787 353.64 167.118 352.972 166.293 352.972C165.469 352.972 164.8 353.64 164.8 354.465C164.8 355.29 165.469 355.958 166.293 355.958Z" fill="#505050"/>
<path d="M158.071 368.399C157.355 368.399 156.75 367.913 156.684 367.258L157.39 367.048C157.436 367.447 157.749 367.713 158.102 367.713C158.425 367.713 158.635 367.56 158.635 367.334C158.635 366.659 156.796 367.058 156.796 365.742C156.796 365.153 157.36 364.733 158.061 364.733C158.752 364.733 159.31 365.102 159.433 365.65L158.711 365.952C158.64 365.629 158.399 365.42 158.061 365.42C157.779 365.42 157.605 365.537 157.605 365.737C157.605 366.305 159.449 365.85 159.449 367.314C159.449 367.964 158.896 368.399 158.071 368.399ZM162.366 367.002C162.366 367.104 162.361 367.227 162.355 367.283H160.502C160.574 367.601 160.789 367.775 161.106 367.775C161.362 367.775 161.552 367.657 161.608 367.442L162.315 367.631C162.161 368.118 161.7 368.399 161.086 368.399C160.195 368.399 159.76 367.708 159.76 367.068C159.76 366.428 160.149 365.737 161.04 365.737C161.971 365.737 162.366 366.428 162.366 367.002ZM160.512 366.751H161.562C161.536 366.49 161.372 366.295 161.04 366.295C160.768 366.295 160.584 366.449 160.512 366.751ZM164.375 368.333C164.252 368.374 164.109 368.399 163.955 368.399C163.397 368.399 162.972 368.102 162.972 367.478V366.403H162.563V365.778H162.972V365.03H163.725V365.778H164.35V366.403H163.725V367.38C163.725 367.611 163.848 367.744 164.032 367.744C164.124 367.744 164.237 367.729 164.324 367.683L164.375 368.333ZM166.395 368.333C166.272 368.374 166.129 368.399 165.975 368.399C165.417 368.399 164.992 368.102 164.992 367.478V366.403H164.583V365.778H164.992V365.03H165.745V365.778H166.37V366.403H165.745V367.38C165.745 367.611 165.868 367.744 166.052 367.744C166.144 367.744 166.257 367.729 166.344 367.683L166.395 368.333ZM167.181 365.435C166.925 365.435 166.736 365.235 166.736 364.984C166.736 364.739 166.925 364.539 167.181 364.539C167.443 364.539 167.642 364.739 167.642 364.984C167.642 365.235 167.443 365.435 167.181 365.435ZM166.808 368.358V365.778H167.56V368.358H166.808ZM168.143 368.358V365.778H168.895V366.121C169.049 365.896 169.33 365.737 169.684 365.737C170.252 365.737 170.631 366.106 170.631 366.674V368.358H169.883V366.874C169.883 366.592 169.709 366.403 169.438 366.403C169.08 366.403 168.895 366.694 168.895 367.227V368.358H168.143ZM172.61 367.795C173.24 367.795 173.599 368.067 173.599 368.532C173.599 369.132 172.994 369.331 172.313 369.331C171.54 369.331 171.023 369.106 171.023 368.589C171.023 368.43 171.115 368.236 171.264 368.108C171.167 368.01 171.11 367.892 171.11 367.759C171.11 367.508 171.259 367.324 171.489 367.222C171.341 367.073 171.254 366.868 171.254 366.628C171.254 366.09 171.684 365.737 172.308 365.737C172.482 365.737 172.636 365.763 172.774 365.814L173.143 365.399L173.578 365.778L173.23 366.167C173.317 366.295 173.363 366.454 173.363 366.628C173.363 367.165 172.938 367.514 172.308 367.514C172.191 367.514 172.083 367.503 171.981 367.478C171.878 367.529 171.822 367.596 171.822 367.662C171.822 367.754 171.909 367.795 172.047 367.795H172.61ZM172.308 366.305C172.093 366.305 171.945 366.433 171.945 366.628C171.945 366.817 172.093 366.945 172.308 366.945C172.513 366.945 172.667 366.817 172.667 366.628C172.667 366.433 172.513 366.305 172.308 366.305ZM172.313 368.737C172.718 368.737 172.872 368.676 172.872 368.538C172.872 368.394 172.723 368.369 172.477 368.369H172.037C171.96 368.369 171.888 368.364 171.817 368.353C171.766 368.42 171.75 368.471 171.75 368.538C171.75 368.676 171.878 368.737 172.313 368.737ZM174.884 368.399C174.254 368.399 173.865 368.015 173.732 367.626L174.336 367.391C174.398 367.631 174.598 367.831 174.884 367.831C175.084 367.831 175.217 367.734 175.217 367.59C175.217 367.186 173.85 367.457 173.85 366.479C173.85 366.075 174.203 365.737 174.772 365.737C175.299 365.737 175.734 365.993 175.852 366.367L175.248 366.618C175.181 366.382 174.971 366.275 174.797 366.275C174.628 366.275 174.51 366.346 174.51 366.459C174.51 366.868 175.898 366.531 175.898 367.575C175.898 368.02 175.488 368.399 174.884 368.399Z" fill="#091016"/>
<path d="M69.8667 353.273C69.8667 353.098 69.9561 352.935 70.1038 352.841L73.6452 350.587C73.8129 350.48 74.0272 350.48 74.1949 350.587L77.7362 352.841C77.8839 352.935 77.9734 353.098 77.9734 353.273V358.007C77.9734 358.29 77.7441 358.519 77.4614 358.519H70.3787C70.0959 358.519 69.8667 358.29 69.8667 358.007V353.273Z" fill="#CDCDCD"/>
<path d="M72.8533 356.386C72.8533 356.15 73.0444 355.959 73.28 355.959H74.56C74.7956 355.959 74.9867 356.15 74.9867 356.386V358.519H72.8533V356.386Z" fill="#505050"/>
<path d="M69.5332 364.775H70.3473V368.359H69.5332V366.859H68.1099V368.359H67.3009V364.775H68.1099V366.168H69.5332V364.775ZM72.1941 368.4C71.3954 368.4 70.8322 367.837 70.8322 367.069C70.8322 366.301 71.3954 365.738 72.1941 365.738C72.9826 365.738 73.556 366.301 73.556 367.069C73.556 367.837 72.9826 368.4 72.1941 368.4ZM72.1941 367.76C72.5576 367.76 72.8034 367.479 72.8034 367.069C72.8034 366.66 72.5576 366.378 72.1941 366.378C71.8255 366.378 71.5797 366.66 71.5797 367.069C71.5797 367.479 71.8255 367.76 72.1941 367.76ZM74.0052 368.359V365.779H74.7578V366.127C74.9063 365.897 75.1418 365.738 75.4849 365.738C75.8842 365.738 76.1351 365.902 76.2631 366.199C76.4013 365.953 76.7137 365.738 77.1335 365.738C77.6916 365.738 78.0602 366.112 78.0602 366.603V368.359H77.3127V366.823C77.3127 366.542 77.1591 366.368 76.8929 366.368C76.5805 366.368 76.4013 366.624 76.4013 367.038V368.359H75.6589V366.823C75.6589 366.542 75.5053 366.368 75.2442 366.368C74.937 366.368 74.7578 366.629 74.7578 367.038V368.359H74.0052ZM81.1233 367.003C81.1233 367.105 81.1181 367.228 81.113 367.284H79.2596C79.3313 367.602 79.5463 367.776 79.8637 367.776C80.1197 367.776 80.3092 367.658 80.3655 367.443L81.0721 367.632C80.9185 368.119 80.4577 368.4 79.8433 368.4C78.9524 368.4 78.5172 367.709 78.5172 367.069C78.5172 366.429 78.9063 365.738 79.7972 365.738C80.729 365.738 81.1233 366.429 81.1233 367.003ZM79.2698 366.752H80.3194C80.2938 366.491 80.13 366.296 79.7972 366.296C79.5258 366.296 79.3415 366.45 79.2698 366.752Z" fill="#091016"/>
</g>
</g>
<defs>
<filter id="filter0_d_936_9509" x="20" y="9" width="200" height="386.453" filterUnits="userSpaceOnUse" color-interpolation-filters="sRGB">
<feFlood flood-opacity="0" result="BackgroundImageFix"/>
<feColorMatrix in="SourceAlpha" type="matrix" values="0 0 0 0 0 0 0 0 0 0 0 0 0 0 0 0 0 0 127 0" result="hardAlpha"/>
<feOffset dy="2"/>
<feGaussianBlur stdDeviation="10"/>
<feComposite in2="hardAlpha" operator="out"/>
<feColorMatrix type="matrix" values="0 0 0 0 0.00392157 0 0 0 0 0.298039 0 0 0 0 0.572549 0 0 0 0.1 0"/>
<feBlend mode="normal" in2="BackgroundImageFix" result="effect1_dropShadow_936_9509"/>
<feBlend mode="normal" in="SourceGraphic" in2="effect1_dropShadow_936_9509" result="shape"/>
</filter>
<filter id="filter1_d_936_9509" x="31.4667" y="332.492" width="177.067" height="47.7864" filterUnits="userSpaceOnUse" color-interpolation-filters="sRGB">
<feFlood flood-opacity="0" result="BackgroundImageFix"/>
<feColorMatrix in="SourceAlpha" type="matrix" values="0 0 0 0 0 0 0 0 0 0 0 0 0 0 0 0 0 0 127 0" result="hardAlpha"/>
<feOffset dy="-1.70667"/>
<feGaussianBlur stdDeviation="4.26667"/>
<feComposite in2="hardAlpha" operator="out"/>
<feColorMatrix type="matrix" values="0 0 0 0 0.0040625 0 0 0 0 0.167963 0 0 0 0 0.320937 0 0 0 0.1 0"/>
<feBlend mode="normal" in2="BackgroundImageFix" result="effect1_dropShadow_936_9509"/>
<feBlend mode="normal" in="SourceGraphic" in2="effect1_dropShadow_936_9509" result="shape"/>
</filter>
<clipPath id="clip0_936_9509">
<rect x="40" y="27" width="160" height="346.453" rx="7.59337" fill="white"/>
</clipPath>
</defs>
</svg>
