<svg viewBox="0 0 240 400" fill="none" xmlns="http://www.w3.org/2000/svg">
<rect width="240" height="400" rx="23.0739" fill="#F4F8FB"/>
<g filter="url(#filter0_d_943_9837)">
<g clip-path="url(#clip0_943_9837)">
<rect x="40" y="27" width="159.791" height="346" rx="8.59" fill="white"/>
<rect x="50.2267" y="300.562" width="139.764" height="18.7488" rx="4.2734" fill="#014C92" fill-opacity="0.5"/>
<path d="M101.964 313.25V307.866H104.134C105.226 307.866 105.926 308.512 105.926 309.512C105.926 310.504 105.226 311.15 104.134 311.15H103.011V313.25H101.964ZM103.011 310.25H104.041C104.564 310.25 104.88 309.973 104.88 309.512C104.88 309.042 104.564 308.765 104.041 308.765H103.011V310.25ZM109.046 310.312C108.907 310.25 108.722 310.219 108.553 310.219C108.007 310.219 107.515 310.673 107.515 311.827V313.25H106.546V309.373H107.515V310.081C107.707 309.642 108.215 309.312 108.684 309.312C108.822 309.312 108.992 309.335 109.107 309.373L109.046 310.312ZM111.351 313.312C110.174 313.312 109.328 312.465 109.328 311.312C109.328 310.158 110.174 309.312 111.351 309.312C112.528 309.312 113.374 310.158 113.374 311.312C113.374 312.465 112.528 313.312 111.351 313.312ZM111.351 312.473C111.974 312.473 112.397 312.004 112.397 311.312C112.397 310.619 111.974 310.15 111.351 310.15C110.72 310.15 110.305 310.619 110.305 311.312C110.305 312.004 110.72 312.473 111.351 312.473ZM115.864 313.312C114.703 313.312 113.895 312.496 113.895 311.312C113.895 310.127 114.703 309.312 115.864 309.312C116.856 309.312 117.556 309.827 117.687 310.65L116.741 310.835C116.672 310.427 116.349 310.15 115.895 310.15C115.295 310.15 114.903 310.604 114.903 311.312C114.903 312.019 115.295 312.473 115.895 312.473C116.349 312.473 116.649 312.227 116.741 311.812L117.687 312.004C117.541 312.819 116.841 313.312 115.864 313.312ZM122.068 311.181C122.068 311.319 122.06 311.489 122.053 311.565H119.176C119.26 312.15 119.637 312.496 120.191 312.496C120.645 312.496 120.968 312.281 121.068 311.904L121.976 312.15C121.76 312.881 121.083 313.312 120.176 313.312C118.891 313.312 118.207 312.319 118.207 311.312C118.207 310.304 118.837 309.312 120.122 309.312C121.43 309.312 122.068 310.281 122.068 311.181ZM119.199 310.858H121.03C120.983 310.396 120.683 310.05 120.122 310.05C119.645 310.05 119.307 310.335 119.199 310.858ZM126.455 311.181C126.455 311.319 126.447 311.489 126.44 311.565H123.563C123.647 312.15 124.024 312.496 124.578 312.496C125.032 312.496 125.355 312.281 125.455 311.904L126.363 312.15C126.147 312.881 125.47 313.312 124.563 313.312C123.278 313.312 122.594 312.319 122.594 311.312C122.594 310.304 123.224 309.312 124.509 309.312C125.817 309.312 126.455 310.281 126.455 311.181ZM123.586 310.858H125.417C125.37 310.396 125.07 310.05 124.509 310.05C124.032 310.05 123.694 310.335 123.586 310.858ZM128.827 313.312C127.665 313.312 126.98 312.496 126.98 311.312C126.98 310.127 127.665 309.312 128.811 309.312C129.296 309.312 129.711 309.512 129.934 309.804V307.804H130.903V313.25H129.934V312.804C129.742 313.112 129.311 313.312 128.827 313.312ZM128.965 312.473C129.588 312.473 129.996 312.012 129.996 311.312C129.996 310.612 129.588 310.15 128.965 310.15C128.35 310.15 127.942 310.612 127.942 311.312C127.942 312.012 128.35 312.473 128.965 312.473ZM136.27 308.973L138.509 311.212L136.278 313.442L135.763 312.927L137.063 311.627H133.486V310.796H137.063L135.755 309.496L136.27 308.973Z" fill="#F2F2F2"/>
<path d="M68.9813 51.8807H71.1556V61.4531H68.9813V57.4464H65.1797V61.4531H63.019V51.8807H65.1797V55.6003H68.9813V51.8807ZM79.4112 57.8293C79.4112 58.1028 79.3975 58.431 79.3838 58.5814H74.4335C74.625 59.4292 75.1993 59.8942 76.0471 59.8942C76.7309 59.8942 77.2369 59.5797 77.3873 59.0053L79.2744 59.5113C78.8642 60.8104 77.6334 61.5625 75.9924 61.5625C73.613 61.5625 72.4507 59.7164 72.4507 58.0071C72.4507 56.2977 73.4899 54.4516 75.8694 54.4516C78.3582 54.4516 79.4112 56.2977 79.4112 57.8293ZM74.4609 57.1592H77.2642C77.1958 56.4618 76.7582 55.9421 75.8694 55.9421C75.1446 55.9421 74.6523 56.3524 74.4609 57.1592ZM83.681 61.5078C81.999 61.7813 80.6315 61.1386 80.6315 59.2925V51.7713H82.6417V59.0053C82.6417 59.8121 82.9973 59.8121 83.5443 59.8121L83.681 61.5078ZM84.7847 63.942V54.561H86.795V55.2447C87.1779 54.7661 87.8479 54.4516 88.7231 54.4516C90.6376 54.4516 91.882 55.8464 91.882 58.0071C91.882 60.1677 90.5282 61.5625 88.559 61.5625C87.8069 61.5625 87.1642 61.3301 86.795 60.9198V63.942H84.7847ZM88.2992 59.8532C89.2701 59.8532 89.9128 59.1147 89.9128 58.0071C89.9128 56.8994 89.2701 56.1609 88.2992 56.1609C87.3283 56.1609 86.6719 56.8994 86.6719 58.0071C86.6719 59.1147 87.3283 59.8532 88.2992 59.8532ZM103.009 54.561V61.4531H101.012V60.5369C100.589 61.1386 99.8364 61.5625 98.9065 61.5625C97.3886 61.5625 96.363 60.5779 96.363 59.06V54.561H98.3732V58.5267C98.3732 59.2788 98.8381 59.7848 99.5492 59.7848C100.506 59.7848 101.012 59.0053 101.012 57.5831V54.561H103.009ZM107.037 61.5625C105.355 61.5625 104.316 60.5369 103.961 59.4976L105.574 58.8686C105.738 59.5113 106.272 60.0446 107.037 60.0446C107.571 60.0446 107.926 59.7848 107.926 59.4019C107.926 58.3216 104.275 59.0463 104.275 56.4344C104.275 55.3541 105.219 54.4516 106.737 54.4516C108.145 54.4516 109.307 55.1353 109.622 56.1336L108.008 56.8037C107.831 56.1746 107.27 55.8875 106.805 55.8875C106.354 55.8875 106.039 56.0789 106.039 56.3797C106.039 57.4737 109.745 56.5712 109.745 59.3609C109.745 60.5506 108.651 61.5625 107.037 61.5625ZM115.792 61.4531L113.645 54.561H115.655L116.681 58.6498L117.939 54.561H119.758L121.016 58.6498L122.041 54.561H124.052L121.905 61.4531H120.154L118.855 57.3233L117.542 61.4531H115.792ZM126.087 53.6448C125.403 53.6448 124.897 53.1115 124.897 52.4414C124.897 51.785 125.403 51.2517 126.087 51.2517C126.784 51.2517 127.317 51.785 127.317 52.4414C127.317 53.1115 126.784 53.6448 126.087 53.6448ZM125.088 61.4531V54.561H127.098V61.4531H125.088ZM132.948 61.3848C132.62 61.4941 132.237 61.5625 131.826 61.5625C130.336 61.5625 129.201 60.7694 129.201 59.101V56.2293H128.107V54.561H129.201V52.5645H131.211V54.561H132.879V56.2293H131.211V58.8412C131.211 59.4566 131.539 59.8121 132.032 59.8121C132.278 59.8121 132.579 59.7711 132.811 59.648L132.948 61.3848ZM134.503 61.4531V51.7713H136.513V55.4909C136.937 54.8482 137.689 54.4516 138.606 54.4516C140.164 54.4516 141.176 55.4362 141.176 56.9678V61.4531H139.18V57.4874C139.18 56.7216 138.701 56.2293 137.963 56.2293C137.006 56.2293 136.513 57.0225 136.513 58.4447V61.4531H134.503ZM148.695 54.4516C150.569 54.4516 151.84 55.4225 151.84 57.3643V61.4531H149.899V60.5779C149.502 61.1796 148.722 61.5625 147.957 61.5625C146.617 61.5625 145.673 60.66 145.673 59.5113C145.673 58.1438 146.671 57.4054 148.654 57.2002L149.899 57.0772V57.0361C149.899 56.3524 149.434 55.9421 148.695 55.9421C148.039 55.9421 147.56 56.3387 147.492 57.0088L145.741 56.6806C145.96 55.3268 147.218 54.4516 148.695 54.4516ZM148.449 60.1267C149.352 60.1267 149.885 59.4019 149.899 58.5951V58.5814V58.5404V58.4857L148.613 58.6361C147.929 58.7045 147.587 59.0463 147.587 59.4429C147.587 59.8258 147.888 60.1267 148.449 60.1267ZM157.232 61.4531V56.2293H156.152V54.561H157.232V54.0824C157.232 52.4277 158.353 51.5115 159.858 51.5115C160.254 51.5115 160.623 51.5662 160.952 51.6893L160.815 53.3029C160.569 53.2072 160.35 53.1525 160.131 53.1525C159.584 53.1525 159.242 53.5217 159.242 54.1234V54.561H160.815V56.2293H159.242V61.4531H157.232ZM168.218 57.8293C168.218 58.1028 168.204 58.431 168.19 58.5814H163.24C163.432 59.4292 164.006 59.8942 164.854 59.8942C165.537 59.8942 166.043 59.5797 166.194 59.0053L168.081 59.5113C167.671 60.8104 166.44 61.5625 164.799 61.5625C162.42 61.5625 161.257 59.7164 161.257 58.0071C161.257 56.2977 162.297 54.4516 164.676 54.4516C167.165 54.4516 168.218 56.2977 168.218 57.8293ZM163.267 57.1592H166.071C166.002 56.4618 165.565 55.9421 164.676 55.9421C163.951 55.9421 163.459 56.3524 163.267 57.1592ZM170.772 61.4531L168.625 54.561H170.635L171.661 58.6498L172.919 54.561H174.738L175.996 58.6498L177.021 54.561H179.032L176.885 61.4531H175.134L173.835 57.3233L172.522 61.4531H170.772ZM62.937 79.942V70.561H64.9472V71.2447C65.3301 70.7661 66.0002 70.4516 66.8754 70.4516C68.7898 70.4516 70.0343 71.8464 70.0343 74.0071C70.0343 76.1677 68.6804 77.5625 66.7113 77.5625C65.9591 77.5625 65.3164 77.3301 64.9472 76.9198V79.942H62.937ZM66.4514 75.8532C67.4224 75.8532 68.0651 75.1147 68.0651 74.0071C68.0651 72.8994 67.4224 72.1609 66.4514 72.1609C65.4805 72.1609 64.8241 72.8994 64.8241 74.0071C64.8241 75.1147 65.4805 75.8532 66.4514 75.8532ZM77.8621 73.8293C77.8621 74.1028 77.8484 74.431 77.8347 74.5814H72.8844C73.0759 75.4292 73.6502 75.8942 74.498 75.8942C75.1818 75.8942 75.6878 75.5797 75.8382 75.0053L77.7253 75.5113C77.3151 76.8104 76.0843 77.5625 74.4433 77.5625C72.0639 77.5625 70.9015 75.7164 70.9015 74.0071C70.9015 72.2977 71.9408 70.4516 74.3203 70.4516C76.8091 70.4516 77.8621 72.2977 77.8621 73.8293ZM72.9118 73.1592H75.7151C75.6467 72.4618 75.2091 71.9421 74.3203 71.9421C73.5955 71.9421 73.1032 72.3524 72.9118 73.1592ZM83.7319 72.4891C83.4994 72.3797 83.1712 72.325 82.8567 72.325C81.9542 72.325 81.0926 73.0088 81.0926 74.9643V77.4531H79.0824V70.561H81.0926V71.7507C81.4072 71.0123 82.296 70.4516 83.1165 70.4516C83.349 70.4516 83.6635 70.4926 83.855 70.561L83.7319 72.4891ZM87.086 77.5625C85.404 77.5625 84.3647 76.5369 84.0091 75.4976L85.6228 74.8686C85.7869 75.5113 86.3202 76.0446 87.086 76.0446C87.6193 76.0446 87.9748 75.7848 87.9748 75.4019C87.9748 74.3216 84.3237 75.0463 84.3237 72.4344C84.3237 71.3541 85.2672 70.4516 86.7851 70.4516C88.1936 70.4516 89.356 71.1353 89.6705 72.1336L88.0569 72.8037C87.8791 72.1746 87.3184 71.8875 86.8535 71.8875C86.4022 71.8875 86.0877 72.0789 86.0877 72.3797C86.0877 73.4737 89.7936 72.5712 89.7936 75.3609C89.7936 76.5506 88.6996 77.5625 87.086 77.5625ZM94.2101 77.5625C92.0768 77.5625 90.5725 76.0583 90.5725 74.0071C90.5725 71.9558 92.0768 70.4516 94.2101 70.4516C96.316 70.4516 97.8476 71.9558 97.8476 74.0071C97.8476 76.0583 96.316 77.5625 94.2101 77.5625ZM94.2101 75.8532C95.181 75.8532 95.8374 75.101 95.8374 74.0071C95.8374 72.9131 95.181 72.1609 94.2101 72.1609C93.2255 72.1609 92.5691 72.9131 92.5691 74.0071C92.5691 75.101 93.2255 75.8532 94.2101 75.8532ZM99.0472 77.4531V70.561H101.057V71.4772C101.468 70.8755 102.22 70.4516 103.163 70.4516C104.681 70.4516 105.693 71.4362 105.693 72.9541V77.4531H103.697V73.4874C103.697 72.7353 103.232 72.2293 102.507 72.2293C101.55 72.2293 101.057 73.0088 101.057 74.431V77.4531H99.0472ZM109.941 70.4516C111.814 70.4516 113.086 71.4225 113.086 73.3643V77.4531H111.144V76.5779C110.748 77.1796 109.968 77.5625 109.202 77.5625C107.862 77.5625 106.919 76.66 106.919 75.5113C106.919 74.1438 107.917 73.4054 109.9 73.2002L111.144 73.0772V73.0361C111.144 72.3524 110.679 71.9421 109.941 71.9421C109.284 71.9421 108.806 72.3387 108.737 73.0088L106.987 72.6806C107.206 71.3268 108.464 70.4516 109.941 70.4516ZM109.695 76.1267C110.597 76.1267 111.13 75.4019 111.144 74.5951V74.5814V74.5404V74.4857L109.859 74.6361C109.175 74.7045 108.833 75.0463 108.833 75.4429C108.833 75.8258 109.134 76.1267 109.695 76.1267ZM117.695 77.5078C116.013 77.7813 114.645 77.1386 114.645 75.2925V67.7713H116.655V75.0053C116.655 75.8121 117.011 75.8121 117.558 75.8121L117.695 77.5078ZM124.969 77.5625C122.945 77.5625 121.728 76.1677 121.728 74.0071C121.728 71.8464 122.945 70.4516 124.942 70.4516C125.776 70.4516 126.419 70.7524 126.802 71.2174V67.7713H128.812V77.4531H126.802V76.7694C126.446 77.2617 125.749 77.5625 124.969 77.5625ZM125.297 75.8532C126.282 75.8532 126.925 75.1147 126.925 74.0071C126.925 72.8994 126.282 72.1609 125.297 72.1609C124.34 72.1609 123.684 72.8994 123.684 74.0071C123.684 75.1147 124.34 75.8532 125.297 75.8532ZM136.995 73.8293C136.995 74.1028 136.982 74.431 136.968 74.5814H132.018C132.209 75.4292 132.783 75.8942 133.631 75.8942C134.315 75.8942 134.821 75.5797 134.971 75.0053L136.858 75.5113C136.448 76.8104 135.217 77.5625 133.576 77.5625C131.197 77.5625 130.035 75.7164 130.035 74.0071C130.035 72.2977 131.074 70.4516 133.453 70.4516C135.942 70.4516 136.995 72.2977 136.995 73.8293ZM132.045 73.1592H134.848C134.78 72.4618 134.342 71.9421 133.453 71.9421C132.729 71.9421 132.236 72.3524 132.045 73.1592ZM142.363 77.3848C142.034 77.4941 141.652 77.5625 141.241 77.5625C139.751 77.5625 138.616 76.7694 138.616 75.101V72.2293H137.522V70.561H138.616V68.5645H140.626V70.561H142.294V72.2293H140.626V74.8412C140.626 75.4566 140.954 75.8121 141.446 75.8121C141.693 75.8121 141.993 75.7711 142.226 75.648L142.363 77.3848ZM146.078 70.4516C147.951 70.4516 149.223 71.4225 149.223 73.3643V77.4531H147.281V76.5779C146.884 77.1796 146.105 77.5625 145.339 77.5625C143.999 77.5625 143.056 76.66 143.056 75.5113C143.056 74.1438 144.054 73.4054 146.037 73.2002L147.281 73.0772V73.0361C147.281 72.3524 146.816 71.9421 146.078 71.9421C145.421 71.9421 144.943 72.3387 144.874 73.0088L143.124 72.6806C143.343 71.3268 144.601 70.4516 146.078 70.4516ZM145.832 76.1267C146.734 76.1267 147.267 75.4019 147.281 74.5951V74.5814V74.5404V74.4857L145.996 74.6361C145.312 74.7045 144.97 75.0463 144.97 75.4429C144.97 75.8258 145.271 76.1267 145.832 76.1267ZM151.78 69.6448C151.097 69.6448 150.591 69.1115 150.591 68.4414C150.591 67.785 151.097 67.2517 151.78 67.2517C152.478 67.2517 153.011 67.785 153.011 68.4414C153.011 69.1115 152.478 69.6448 151.78 69.6448ZM150.782 77.4531V70.561H152.792V77.4531H150.782ZM157.397 77.5078C155.715 77.7813 154.348 77.1386 154.348 75.2925V67.7713H156.358V75.0053C156.358 75.8121 156.713 75.8121 157.26 75.8121L157.397 77.5078ZM160.962 77.5625C159.28 77.5625 158.241 76.5369 157.886 75.4976L159.499 74.8686C159.663 75.5113 160.197 76.0446 160.962 76.0446C161.496 76.0446 161.851 75.7848 161.851 75.4019C161.851 74.3216 158.2 75.0463 158.2 72.4344C158.2 71.3541 159.144 70.4516 160.662 70.4516C162.07 70.4516 163.232 71.1353 163.547 72.1336L161.933 72.8037C161.755 72.1746 161.195 71.8875 160.73 71.8875C160.279 71.8875 159.964 72.0789 159.964 72.3797C159.964 73.4737 163.67 72.5712 163.67 75.3609C163.67 76.5506 162.576 77.5625 160.962 77.5625ZM164.312 74.3489V72.6396H177.412V74.3489H164.312Z" fill="#091016"/>
<path d="M50.6779 103.26V98.4736H51.724L53.1872 101.94L54.6504 98.4736H55.6966V103.26H54.8214V100.203L53.5359 103.26H52.8385L51.5531 100.203V103.26H50.6779ZM58.18 103.314C57.1339 103.314 56.3818 102.562 56.3818 101.537C56.3818 100.511 57.1339 99.759 58.18 99.759C59.2261 99.759 59.9783 100.511 59.9783 101.537C59.9783 102.562 59.2261 103.314 58.18 103.314ZM58.18 102.569C58.7338 102.569 59.1099 102.152 59.1099 101.537C59.1099 100.921 58.7338 100.504 58.18 100.504C57.6193 100.504 57.2501 100.921 57.2501 101.537C57.2501 102.152 57.6193 102.569 58.18 102.569ZM62.6104 103.226C62.4395 103.287 62.2549 103.314 62.0566 103.314C61.3591 103.314 60.8395 102.938 60.8395 102.132V100.538H60.2583V99.8137H60.8395V98.8018H61.701V99.8137H62.5694V100.538H61.701V102.05C61.701 102.378 61.8788 102.556 62.1455 102.556C62.2754 102.556 62.4258 102.535 62.5489 102.473L62.6104 103.226ZM63.3771 103.26V98.4189H64.2386V100.347C64.4643 99.971 64.854 99.759 65.3326 99.759C66.1052 99.759 66.618 100.251 66.618 101.003V103.26H65.7565V101.215C65.7565 100.791 65.4967 100.525 65.0728 100.525C64.5395 100.525 64.2386 100.983 64.2386 101.762V103.26H63.3771ZM70.698 101.42C70.698 101.544 70.6911 101.694 70.6843 101.762H68.1271C68.2023 102.282 68.5373 102.59 69.0296 102.59C69.433 102.59 69.7202 102.398 69.8091 102.063L70.6159 102.282C70.4245 102.932 69.8228 103.314 69.016 103.314C67.8741 103.314 67.2656 102.432 67.2656 101.537C67.2656 100.641 67.8262 99.759 68.9681 99.759C70.1305 99.759 70.698 100.621 70.698 101.42ZM68.1476 101.133H69.7749C69.7339 100.723 69.4672 100.415 68.9681 100.415C68.5442 100.415 68.2433 100.668 68.1476 101.133ZM73.5718 100.648C73.4488 100.593 73.2847 100.566 73.1342 100.566C72.6488 100.566 72.2112 100.969 72.2112 101.995V103.26H71.3497V99.8137H72.2112V100.443C72.3821 100.053 72.8334 99.759 73.2505 99.759C73.3735 99.759 73.524 99.7795 73.6265 99.8137L73.5718 100.648ZM75.183 98.9385C75.183 99.1094 75.1557 99.2052 74.8685 99.6975L74.595 100.176H74.1711L74.4993 99.4513C74.2736 99.3898 74.1164 99.1778 74.1164 98.9385C74.1164 98.6445 74.3557 98.4052 74.6565 98.4052C74.9437 98.4052 75.183 98.6445 75.183 98.9385ZM76.3056 103.314C75.4715 103.314 74.9723 102.802 74.8014 102.296L75.5056 102.009C75.6082 102.357 75.8749 102.644 76.3056 102.644C76.627 102.644 76.8389 102.473 76.8389 102.255C76.8389 101.605 74.9586 102.029 74.9586 100.723C74.9586 100.183 75.4304 99.759 76.1826 99.759C76.8526 99.759 77.4201 100.101 77.5706 100.6L76.8731 100.894C76.7774 100.566 76.4766 100.395 76.1962 100.395C75.9227 100.395 75.7381 100.511 75.7381 100.709C75.7381 101.318 77.6321 100.832 77.6321 102.241C77.6321 102.836 77.0988 103.314 76.3056 103.314ZM79.8965 103.26V99.8137H80.758V100.34C80.9494 99.9983 81.2708 99.759 81.7494 99.759C82.2964 99.759 82.6656 99.9915 82.8229 100.409C83.0075 100.06 83.4177 99.759 83.9647 99.759C84.71 99.759 85.1955 100.244 85.1955 100.921V103.26H84.334V101.161C84.334 100.75 84.1083 100.491 83.7049 100.491C83.24 100.491 82.9733 100.894 82.9733 101.503V103.26H82.1118V101.161C82.1118 100.75 81.893 100.491 81.4964 100.491C81.0246 100.491 80.758 100.901 80.758 101.509V103.26H79.8965ZM87.3593 99.759C88.2618 99.759 88.8772 100.244 88.8772 101.161V103.26H88.043V102.761C87.8515 103.096 87.4345 103.314 87.0105 103.314C86.3336 103.314 85.8619 102.877 85.8619 102.289C85.8619 101.612 86.3747 101.25 87.4003 101.14L88.043 101.079V101.044C88.043 100.655 87.7763 100.415 87.3593 100.415C86.9832 100.415 86.7165 100.648 86.6755 101.017L85.9097 100.88C86.0191 100.197 86.6276 99.759 87.3593 99.759ZM87.202 102.679C87.7353 102.679 88.043 102.275 88.043 101.769V101.694L87.3866 101.769C86.9285 101.824 86.696 102.015 86.696 102.261C86.696 102.501 86.8875 102.679 87.202 102.679ZM90.1494 99.2872C89.8417 99.2872 89.616 99.0547 89.616 98.7539C89.616 98.4599 89.8417 98.2274 90.1494 98.2274C90.4639 98.2274 90.6963 98.4599 90.6963 98.7539C90.6963 99.0547 90.4639 99.2872 90.1494 99.2872ZM89.7186 103.26V99.8137H90.5801V103.26H89.7186ZM92.871 103.314C91.8385 103.314 91.23 102.59 91.23 101.537C91.23 100.484 91.8385 99.759 92.8573 99.759C93.2881 99.759 93.6573 99.9368 93.8556 100.197V98.4189H94.7171V103.26H93.8556V102.863C93.6846 103.137 93.3017 103.314 92.871 103.314ZM92.994 102.569C93.5479 102.569 93.9103 102.159 93.9103 101.537C93.9103 100.915 93.5479 100.504 92.994 100.504C92.4471 100.504 92.0847 100.915 92.0847 101.537C92.0847 102.159 92.4471 102.569 92.994 102.569ZM98.8022 101.42C98.8022 101.544 98.7954 101.694 98.7886 101.762H96.2314C96.3066 102.282 96.6416 102.59 97.1339 102.59C97.5373 102.59 97.8245 102.398 97.9134 102.063L98.7202 102.282C98.5287 102.932 97.927 103.314 97.1202 103.314C95.9784 103.314 95.3698 102.432 95.3698 101.537C95.3698 100.641 95.9305 99.759 97.0724 99.759C98.2347 99.759 98.8022 100.621 98.8022 101.42ZM96.2519 101.133H97.8792C97.8382 100.723 97.5715 100.415 97.0724 100.415C96.6484 100.415 96.3476 100.668 96.2519 101.133ZM99.4539 103.26V99.8137H100.315V100.333C100.534 99.9983 100.924 99.759 101.409 99.759C102.162 99.759 102.668 100.251 102.668 101.003V103.26H101.806V101.209C101.806 100.805 101.553 100.525 101.15 100.525C100.623 100.525 100.315 100.976 100.315 101.749V103.26H99.4539ZM105.143 103.26V99.8137H106.004V100.333C106.223 99.9983 106.613 99.759 107.098 99.759C107.851 99.759 108.356 100.251 108.356 101.003V103.26H107.495V101.209C107.495 100.805 107.242 100.525 106.839 100.525C106.312 100.525 106.004 100.976 106.004 101.749V103.26H105.143ZM110.516 99.759C111.418 99.759 112.034 100.244 112.034 101.161V103.26H111.199V102.761C111.008 103.096 110.591 103.314 110.167 103.314C109.49 103.314 109.018 102.877 109.018 102.289C109.018 101.612 109.531 101.25 110.557 101.14L111.199 101.079V101.044C111.199 100.655 110.933 100.415 110.516 100.415C110.14 100.415 109.873 100.648 109.832 101.017L109.066 100.88C109.176 100.197 109.784 99.759 110.516 99.759ZM110.358 102.679C110.892 102.679 111.199 102.275 111.199 101.769V101.694L110.543 101.769C110.085 101.824 109.852 102.015 109.852 102.261C109.852 102.501 110.044 102.679 110.358 102.679ZM112.875 103.26V99.8137H113.737V100.34C113.928 99.9983 114.249 99.759 114.728 99.759C115.275 99.759 115.644 99.9915 115.801 100.409C115.986 100.06 116.396 99.759 116.943 99.759C117.689 99.759 118.174 100.244 118.174 100.921V103.26H117.313V101.161C117.313 100.75 117.087 100.491 116.684 100.491C116.219 100.491 115.952 100.894 115.952 101.503V103.26H115.09V101.161C115.09 100.75 114.872 100.491 114.475 100.491C114.003 100.491 113.737 100.901 113.737 101.509V103.26H112.875ZM122.259 101.42C122.259 101.544 122.252 101.694 122.246 101.762H119.688C119.764 102.282 120.099 102.59 120.591 102.59C120.994 102.59 121.281 102.398 121.37 102.063L122.177 102.282C121.986 102.932 121.384 103.314 120.577 103.314C119.435 103.314 118.827 102.432 118.827 101.537C118.827 100.641 119.387 99.759 120.529 99.759C121.692 99.759 122.259 100.621 122.259 101.42ZM119.709 101.133H121.336C121.295 100.723 121.028 100.415 120.529 100.415C120.105 100.415 119.805 100.668 119.709 101.133Z" fill="black"/>
<rect x="50.4403" y="107.756" width="139.74" height="20.085" rx="3.20505" fill="white"/>
<rect x="50.4403" y="107.756" width="139.74" height="20.085" rx="3.20505" stroke="#C5CCD3" stroke-width="0.42734"/>
<path d="M50.678 144.658V139.872H51.7241L53.1873 143.339L54.6505 139.872H55.6966V144.658H54.8214V141.602L53.536 144.658H52.8386L51.5531 141.602V144.658H50.678ZM57.8929 141.157C58.7954 141.157 59.4108 141.643 59.4108 142.559V144.658H58.5766V144.159C58.3852 144.494 57.9681 144.713 57.5442 144.713C56.8673 144.713 56.3955 144.275 56.3955 143.687C56.3955 143.01 56.9083 142.648 57.9339 142.539L58.5766 142.477V142.443C58.5766 142.053 58.31 141.814 57.8929 141.814C57.5168 141.814 57.2502 142.046 57.2092 142.416L56.4434 142.279C56.5528 141.595 57.1613 141.157 57.8929 141.157ZM57.7356 144.077C58.269 144.077 58.5766 143.674 58.5766 143.168V143.092L57.9202 143.168C57.4621 143.222 57.2297 143.414 57.2297 143.66C57.2297 143.899 57.4211 144.077 57.7356 144.077ZM62.4744 142.046C62.3513 141.992 62.1872 141.964 62.0368 141.964C61.5514 141.964 61.1138 142.368 61.1138 143.393V144.658H60.2522V141.212H61.1138V141.841C61.2847 141.451 61.736 141.157 62.153 141.157C62.2761 141.157 62.4265 141.178 62.5291 141.212L62.4744 142.046ZM63.4607 140.686C63.153 140.686 62.9274 140.453 62.9274 140.152C62.9274 139.858 63.153 139.626 63.4607 139.626C63.7752 139.626 64.0077 139.858 64.0077 140.152C64.0077 140.453 63.7752 140.686 63.4607 140.686ZM63.0299 144.658V141.212H63.8915V144.658H63.0299ZM66.7703 144.624C66.5994 144.686 66.4148 144.713 66.2165 144.713C65.5191 144.713 64.9994 144.337 64.9994 143.53V141.937H64.4183V141.212H64.9994V140.2H65.861V141.212H66.7293V141.937H65.861V143.448C65.861 143.776 66.0387 143.954 66.3054 143.954C66.4353 143.954 66.5857 143.933 66.7088 143.872L66.7703 144.624ZM68.6432 141.157C69.5457 141.157 70.1611 141.643 70.1611 142.559V144.658H69.3269V144.159C69.1355 144.494 68.7184 144.713 68.2945 144.713C67.6175 144.713 67.1458 144.275 67.1458 143.687C67.1458 143.01 67.6586 142.648 68.6842 142.539L69.3269 142.477V142.443C69.3269 142.053 69.0602 141.814 68.6432 141.814C68.2671 141.814 68.0004 142.046 67.9594 142.416L67.1936 142.279C67.303 141.595 67.9116 141.157 68.6432 141.157ZM68.4859 144.077C69.0192 144.077 69.3269 143.674 69.3269 143.168V143.092L68.6705 143.168C68.2124 143.222 67.9799 143.414 67.9799 143.66C67.9799 143.899 68.1714 144.077 68.4859 144.077ZM72.3768 144.692C71.611 144.809 71.0025 144.508 71.0025 143.66V139.817H71.864V143.551C71.864 143.94 72.0418 143.961 72.3221 143.954L72.3768 144.692ZM75.8183 144.713C74.9841 144.713 74.485 144.2 74.314 143.694L75.0183 143.407C75.1208 143.756 75.3875 144.043 75.8183 144.043C76.1396 144.043 76.3516 143.872 76.3516 143.653C76.3516 143.004 74.4713 143.427 74.4713 142.122C74.4713 141.581 74.9431 141.157 75.6952 141.157C76.3652 141.157 76.9328 141.499 77.0832 141.998L76.3858 142.292C76.29 141.964 75.9892 141.793 75.7089 141.793C75.4354 141.793 75.2507 141.91 75.2507 142.108C75.2507 142.716 77.1447 142.231 77.1447 143.639C77.1447 144.234 76.6114 144.713 75.8183 144.713ZM79.7641 144.624C79.5932 144.686 79.4086 144.713 79.2103 144.713C78.5129 144.713 77.9933 144.337 77.9933 143.53V141.937H77.4121V141.212H77.9933V140.2H78.8548V141.212H79.7231V141.937H78.8548V143.448C78.8548 143.776 79.0325 143.954 79.2992 143.954C79.4291 143.954 79.5795 143.933 79.7026 143.872L79.7641 144.624ZM81.637 141.157C82.5395 141.157 83.1549 141.643 83.1549 142.559V144.658H82.3207V144.159C82.1293 144.494 81.7122 144.713 81.2883 144.713C80.6113 144.713 80.1396 144.275 80.1396 143.687C80.1396 143.01 80.6524 142.648 81.678 142.539L82.3207 142.477V142.443C82.3207 142.053 82.054 141.814 81.637 141.814C81.2609 141.814 80.9942 142.046 80.9532 142.416L80.1874 142.279C80.2968 141.595 80.9054 141.157 81.637 141.157ZM81.4797 144.077C82.013 144.077 82.3207 143.674 82.3207 143.168V143.092L81.6643 143.168C81.2062 143.222 80.9737 143.414 80.9737 143.66C80.9737 143.899 81.1652 144.077 81.4797 144.077ZM85.9806 144.624C85.8097 144.686 85.6251 144.713 85.4268 144.713C84.7294 144.713 84.2097 144.337 84.2097 143.53V141.937H83.6285V141.212H84.2097V140.2H85.0712V141.212H85.9396V141.937H85.0712V143.448C85.0712 143.776 85.249 143.954 85.5157 143.954C85.6456 143.954 85.796 143.933 85.9191 143.872L85.9806 144.624ZM89.7539 141.212V144.658H88.8924V144.139C88.6736 144.474 88.2839 144.713 87.7984 144.713C87.0531 144.713 86.5403 144.221 86.5403 143.468V141.212H87.4018V143.263C87.4018 143.667 87.6548 143.947 88.0582 143.947C88.5915 143.947 88.8924 143.496 88.8924 142.723V141.212H89.7539ZM91.7968 144.713C90.9626 144.713 90.4635 144.2 90.2925 143.694L90.9968 143.407C91.0993 143.756 91.366 144.043 91.7968 144.043C92.1181 144.043 92.3301 143.872 92.3301 143.653C92.3301 143.004 90.4498 143.427 90.4498 142.122C90.4498 141.581 90.9216 141.157 91.6737 141.157C92.3438 141.157 92.9113 141.499 93.0617 141.998L92.3643 142.292C92.2685 141.964 91.9677 141.793 91.6874 141.793C91.4139 141.793 91.2293 141.91 91.2293 142.108C91.2293 142.716 93.1232 142.231 93.1232 143.639C93.1232 144.234 92.5899 144.713 91.7968 144.713Z" fill="black"/>
<rect x="50.4404" y="149.119" width="139.74" height="20.085" rx="3.20505" fill="white"/>
<rect x="50.4404" y="149.119" width="139.74" height="20.085" rx="3.20505" stroke="#C5CCD3" stroke-width="0.42734"/>
<g clip-path="url(#clip1_943_9837)">
<path d="M181.117 158.01C180.951 157.845 180.684 157.845 180.518 158.01L178.856 159.659L177.194 158.01C177.028 157.845 176.761 157.845 176.595 158.01C176.428 158.176 176.428 158.446 176.595 158.613L178.856 160.862L181.117 158.613C181.284 158.446 181.284 158.176 181.117 158.01Z" fill="#8FB2D1"/>
</g>
<path d="M52.28 185.979C51.3365 185.979 50.5502 185.343 50.4339 184.474L51.2613 184.221C51.3365 184.796 51.7809 185.185 52.3142 185.185C52.8134 185.185 53.1416 184.946 53.1416 184.584C53.1416 183.551 50.6049 184.132 50.6049 182.396C50.6049 181.63 51.3228 181.083 52.2664 181.083C53.1758 181.083 53.8937 181.568 54.0441 182.293L53.2099 182.635C53.1142 182.17 52.7655 181.876 52.2664 181.876C51.8083 181.876 51.5279 182.074 51.5279 182.396C51.5279 183.264 54.0851 182.621 54.0851 184.563C54.0851 185.411 53.3604 185.979 52.28 185.979ZM54.7129 187.168V182.478H55.5745V182.874C55.7659 182.608 56.142 182.423 56.6001 182.423C57.5915 182.423 58.2 183.148 58.2 184.201C58.2 185.254 57.5505 185.979 56.5385 185.979C56.142 185.979 55.7727 185.828 55.5745 185.582V187.168H54.7129ZM56.436 185.233C56.983 185.233 57.3454 184.823 57.3454 184.201C57.3454 183.579 56.983 183.168 56.436 183.168C55.8821 183.168 55.5198 183.579 55.5198 184.201C55.5198 184.823 55.8821 185.233 56.436 185.233ZM60.4664 185.979C59.4203 185.979 58.6682 185.226 58.6682 184.201C58.6682 183.175 59.4203 182.423 60.4664 182.423C61.5126 182.423 62.2647 183.175 62.2647 184.201C62.2647 185.226 61.5126 185.979 60.4664 185.979ZM60.4664 185.233C61.0203 185.233 61.3963 184.816 61.3963 184.201C61.3963 183.585 61.0203 183.168 60.4664 183.168C59.9058 183.168 59.5365 183.585 59.5365 184.201C59.5365 184.816 59.9058 185.233 60.4664 185.233ZM66.1261 182.478V185.924H65.2646V185.404C65.0458 185.739 64.6561 185.979 64.1706 185.979C63.4253 185.979 62.9125 185.486 62.9125 184.734V182.478H63.774V184.529C63.774 184.932 64.027 185.213 64.4304 185.213C64.9638 185.213 65.2646 184.761 65.2646 183.989V182.478H66.1261ZM68.169 185.979C67.3348 185.979 66.8357 185.466 66.6647 184.96L67.369 184.673C67.4716 185.021 67.7382 185.308 68.169 185.308C68.4903 185.308 68.7023 185.138 68.7023 184.919C68.7023 184.269 66.822 184.693 66.822 183.387C66.822 182.847 67.2938 182.423 68.0459 182.423C68.716 182.423 69.2835 182.765 69.4339 183.264L68.7365 183.558C68.6408 183.23 68.3399 183.059 68.0596 183.059C67.7861 183.059 67.6015 183.175 67.6015 183.373C67.6015 183.982 69.4954 183.497 69.4954 184.905C69.4954 185.5 68.9621 185.979 68.169 185.979ZM73.3516 184.085C73.3516 184.208 73.3448 184.358 73.338 184.426H70.7808C70.856 184.946 71.191 185.254 71.6833 185.254C72.0867 185.254 72.3739 185.062 72.4628 184.727L73.2696 184.946C73.0781 185.596 72.4764 185.979 71.6696 185.979C70.5278 185.979 69.9192 185.096 69.9192 184.201C69.9192 183.305 70.4799 182.423 71.6218 182.423C72.7841 182.423 73.3516 183.285 73.3516 184.085ZM70.8013 183.797H72.4286C72.3876 183.387 72.1209 183.079 71.6218 183.079C71.1978 183.079 70.897 183.332 70.8013 183.797ZM75.6459 185.924V182.478H76.5074V182.997C76.7262 182.662 77.116 182.423 77.6014 182.423C78.3535 182.423 78.8595 182.915 78.8595 183.667V185.924H77.998V183.873C77.998 183.469 77.745 183.189 77.3416 183.189C76.8151 183.189 76.5074 183.64 76.5074 184.413V185.924H75.6459ZM81.0188 182.423C81.9213 182.423 82.5367 182.909 82.5367 183.825V185.924H81.7025V185.425C81.5111 185.76 81.094 185.979 80.67 185.979C79.9931 185.979 79.5214 185.541 79.5214 184.953C79.5214 184.276 80.0342 183.914 81.0598 183.804L81.7025 183.743V183.708C81.7025 183.319 81.4358 183.079 81.0188 183.079C80.6427 183.079 80.376 183.312 80.335 183.681L79.5692 183.544C79.6786 182.861 80.2872 182.423 81.0188 182.423ZM80.8615 185.343C81.3948 185.343 81.7025 184.939 81.7025 184.433V184.358L81.0461 184.433C80.588 184.488 80.3555 184.679 80.3555 184.926C80.3555 185.165 80.547 185.343 80.8615 185.343ZM83.3781 185.924V182.478H84.2396V183.004C84.4311 182.662 84.7524 182.423 85.231 182.423C85.778 182.423 86.1473 182.656 86.3045 183.073C86.4891 182.724 86.8994 182.423 87.4464 182.423C88.1917 182.423 88.6771 182.909 88.6771 183.585V185.924H87.8156V183.825C87.8156 183.414 87.59 183.155 87.1866 183.155C86.7216 183.155 86.4549 183.558 86.4549 184.167V185.924H85.5934V183.825C85.5934 183.414 85.3746 183.155 84.9781 183.155C84.5063 183.155 84.2396 183.565 84.2396 184.173V185.924H83.3781ZM92.7622 184.085C92.7622 184.208 92.7554 184.358 92.7485 184.426H90.1913C90.2666 184.946 90.6016 185.254 91.0939 185.254C91.4973 185.254 91.7845 185.062 91.8734 184.727L92.6802 184.946C92.4887 185.596 91.887 185.979 91.0802 185.979C89.9384 185.979 89.3298 185.096 89.3298 184.201C89.3298 183.305 89.8905 182.423 91.0323 182.423C92.1947 182.423 92.7622 183.285 92.7622 184.085ZM90.2119 183.797H91.8392C91.7981 183.387 91.5315 183.079 91.0323 183.079C90.6084 183.079 90.3076 183.332 90.2119 183.797Z" fill="black"/>
<rect x="50.4698" y="190.42" width="139.74" height="20.085" rx="3.20505" fill="white"/>
<rect x="50.4698" y="190.42" width="139.74" height="20.085" rx="3.20505" stroke="#C5CCD3" stroke-width="0.42734"/>
<path d="M54.0314 192.086L53.6694 191.102H51.9483L51.5863 192.086H50.6971L52.4056 187.64H53.2121L54.9206 192.086H54.0314ZM52.2214 190.371H53.4027L52.812 188.771L52.2214 190.371ZM56.6104 192.137C55.6514 192.137 55.0861 191.464 55.0861 190.485C55.0861 189.507 55.6514 188.834 56.5977 188.834C56.9978 188.834 57.3407 188.999 57.5249 189.241V187.589H58.3252V192.086H57.5249V191.718C57.3662 191.972 57.0105 192.137 56.6104 192.137ZM56.7247 191.444C57.2391 191.444 57.5757 191.063 57.5757 190.485C57.5757 189.908 57.2391 189.526 56.7247 189.526C56.2166 189.526 55.88 189.908 55.88 190.485C55.88 191.063 56.2166 191.444 56.7247 191.444ZM60.4558 192.137C59.4967 192.137 58.9315 191.464 58.9315 190.485C58.9315 189.507 59.4967 188.834 60.4431 188.834C60.8432 188.834 61.1861 188.999 61.3703 189.241V187.589H62.1706V192.086H61.3703V191.718C61.2115 191.972 60.8559 192.137 60.4558 192.137ZM60.5701 191.444C61.0845 191.444 61.4211 191.063 61.4211 190.485C61.4211 189.908 61.0845 189.526 60.5701 189.526C60.062 189.526 59.7254 189.908 59.7254 190.485C59.7254 191.063 60.062 191.444 60.5701 191.444ZM63.3485 188.396C63.0627 188.396 62.8531 188.18 62.8531 187.901C62.8531 187.627 63.0627 187.412 63.3485 187.412C63.6406 187.412 63.8566 187.627 63.8566 187.901C63.8566 188.18 63.6406 188.396 63.3485 188.396ZM62.9484 192.086V188.885H63.7486V192.086H62.9484ZM66.4227 192.054C66.2639 192.111 66.0925 192.137 65.9083 192.137C65.2605 192.137 64.7778 191.787 64.7778 191.038V189.558H64.2379V188.885H64.7778V187.945H65.578V188.885H66.3846V189.558H65.578V190.962C65.578 191.267 65.7431 191.432 65.9908 191.432C66.1115 191.432 66.2512 191.413 66.3655 191.356L66.4227 192.054ZM67.3737 188.396C67.0879 188.396 66.8783 188.18 66.8783 187.901C66.8783 187.627 67.0879 187.412 67.3737 187.412C67.6659 187.412 67.8818 187.627 67.8818 187.901C67.8818 188.18 67.6659 188.396 67.3737 188.396ZM66.9736 192.086V188.885H67.7739V192.086H66.9736ZM70.0478 192.137C69.0761 192.137 68.3775 191.438 68.3775 190.485C68.3775 189.533 69.0761 188.834 70.0478 188.834C71.0196 188.834 71.7182 189.533 71.7182 190.485C71.7182 191.438 71.0196 192.137 70.0478 192.137ZM70.0478 191.444C70.5623 191.444 70.9116 191.057 70.9116 190.485C70.9116 189.914 70.5623 189.526 70.0478 189.526C69.5271 189.526 69.1841 189.914 69.1841 190.485C69.1841 191.057 69.5271 191.444 70.0478 191.444ZM72.3199 192.086V188.885H73.1202V189.368C73.3234 189.056 73.6854 188.834 74.1364 188.834C74.835 188.834 75.305 189.291 75.305 189.99V192.086H74.5047V190.181C74.5047 189.806 74.2697 189.546 73.895 189.546C73.406 189.546 73.1202 189.965 73.1202 190.682V192.086H72.3199ZM77.3106 188.834C78.149 188.834 78.7206 189.285 78.7206 190.136V192.086H77.9457V191.622C77.7679 191.934 77.3805 192.137 76.9867 192.137C76.358 192.137 75.9197 191.73 75.9197 191.184C75.9197 190.555 76.3961 190.219 77.3487 190.117L77.9457 190.06V190.028C77.9457 189.666 77.698 189.444 77.3106 189.444C76.9613 189.444 76.7136 189.66 76.6755 190.003L75.9642 189.876C76.0658 189.241 76.631 188.834 77.3106 188.834ZM77.1645 191.546C77.6599 191.546 77.9457 191.171 77.9457 190.701V190.632L77.336 190.701C76.9105 190.752 76.6946 190.93 76.6946 191.159C76.6946 191.381 76.8724 191.546 77.1645 191.546ZM80.7787 192.118C80.0674 192.226 79.5021 191.946 79.5021 191.159V187.589H80.3024V191.057C80.3024 191.419 80.4675 191.438 80.7279 191.432L80.7787 192.118ZM84.2103 192.137C83.2513 192.137 82.6861 191.464 82.6861 190.485C82.6861 189.507 83.2513 188.834 84.1976 188.834C84.5977 188.834 84.9407 188.999 85.1249 189.241V187.589H85.9251V192.086H85.1249V191.718C84.9661 191.972 84.6104 192.137 84.2103 192.137ZM84.3246 191.444C84.8391 191.444 85.1757 191.063 85.1757 190.485C85.1757 189.908 84.8391 189.526 84.3246 189.526C83.8166 189.526 83.48 189.908 83.48 190.485C83.48 191.063 83.8166 191.444 84.3246 191.444ZM89.7197 190.377C89.7197 190.492 89.7134 190.632 89.707 190.695H87.3317C87.4016 191.178 87.7128 191.464 88.17 191.464C88.5448 191.464 88.8115 191.286 88.8941 190.974L89.6435 191.178C89.4657 191.781 88.9068 192.137 88.1573 192.137C87.0967 192.137 86.5315 191.317 86.5315 190.485C86.5315 189.653 87.0522 188.834 88.1129 188.834C89.1926 188.834 89.7197 189.634 89.7197 190.377ZM87.3507 190.111H88.8623C88.8242 189.73 88.5765 189.444 88.1129 189.444C87.7191 189.444 87.4397 189.679 87.3507 190.111ZM92.1682 192.054C92.0094 192.111 91.8379 192.137 91.6538 192.137C91.0059 192.137 90.5233 191.787 90.5233 191.038V189.558H89.9834V188.885H90.5233V187.945H91.3235V188.885H92.1301V189.558H91.3235V190.962C91.3235 191.267 91.4886 191.432 91.7363 191.432C91.857 191.432 91.9967 191.413 92.111 191.356L92.1682 192.054ZM93.9078 188.834C94.7461 188.834 95.3177 189.285 95.3177 190.136V192.086H94.5429V191.622C94.3651 191.934 93.9777 192.137 93.5839 192.137C92.9551 192.137 92.5169 191.73 92.5169 191.184C92.5169 190.555 92.9932 190.219 93.9459 190.117L94.5429 190.06V190.028C94.5429 189.666 94.2952 189.444 93.9078 189.444C93.5585 189.444 93.3108 189.66 93.2727 190.003L92.5614 189.876C92.663 189.241 93.2282 188.834 93.9078 188.834ZM93.7617 191.546C94.2571 191.546 94.5429 191.171 94.5429 190.701V190.632L93.9332 190.701C93.5077 190.752 93.2917 190.93 93.2917 191.159C93.2917 191.381 93.4696 191.546 93.7617 191.546ZM96.4994 188.396C96.2136 188.396 96.0041 188.18 96.0041 187.901C96.0041 187.627 96.2136 187.412 96.4994 187.412C96.7916 187.412 97.0075 187.627 97.0075 187.901C97.0075 188.18 96.7916 188.396 96.4994 188.396ZM96.0993 192.086V188.885H96.8996V192.086H96.0993ZM98.9513 192.118C98.2399 192.226 97.6747 191.946 97.6747 191.159V187.589H98.4749V191.057C98.4749 191.419 98.6401 191.438 98.9005 191.432L98.9513 192.118ZM100.622 192.137C99.8473 192.137 99.3837 191.66 99.2249 191.19L99.8791 190.924C99.9743 191.248 100.222 191.514 100.622 191.514C100.921 191.514 101.118 191.356 101.118 191.152C101.118 190.549 99.371 190.943 99.371 189.73C99.371 189.228 99.8092 188.834 100.508 188.834C101.13 188.834 101.657 189.152 101.797 189.615L101.149 189.888C101.06 189.584 100.781 189.425 100.521 189.425C100.266 189.425 100.095 189.533 100.095 189.717C100.095 190.282 101.854 189.831 101.854 191.14C101.854 191.692 101.359 192.137 100.622 192.137Z" fill="#1482FF"/>
<path d="M105.19 188.834C106.028 188.834 106.6 189.285 106.6 190.136V192.086H105.825V191.622C105.647 191.934 105.26 192.137 104.866 192.137C104.237 192.137 103.799 191.73 103.799 191.184C103.799 190.555 104.275 190.219 105.228 190.117L105.825 190.06V190.028C105.825 189.666 105.577 189.444 105.19 189.444C104.84 189.444 104.593 189.66 104.555 190.003L103.843 189.876C103.945 189.241 104.51 188.834 105.19 188.834ZM105.044 191.546C105.539 191.546 105.825 191.171 105.825 190.701V190.632L105.215 190.701C104.79 190.752 104.574 190.93 104.574 191.159C104.574 191.381 104.751 191.546 105.044 191.546ZM110.31 188.885V192.086H109.51V191.603C109.307 191.914 108.945 192.137 108.494 192.137C107.802 192.137 107.325 191.679 107.325 190.981V188.885H108.126V190.79C108.126 191.165 108.361 191.425 108.735 191.425C109.231 191.425 109.51 191.006 109.51 190.289V188.885H110.31ZM112.989 192.054C112.83 192.111 112.659 192.137 112.475 192.137C111.827 192.137 111.344 191.787 111.344 191.038V189.558H110.804V188.885H111.344V187.945H112.144V188.885H112.951V189.558H112.144V190.962C112.144 191.267 112.31 191.432 112.557 191.432C112.678 191.432 112.818 191.413 112.932 191.356L112.989 192.054ZM114.977 192.137C114.005 192.137 113.307 191.438 113.307 190.485C113.307 189.533 114.005 188.834 114.977 188.834C115.949 188.834 116.647 189.533 116.647 190.485C116.647 191.438 115.949 192.137 114.977 192.137ZM114.977 191.444C115.491 191.444 115.841 191.057 115.841 190.485C115.841 189.914 115.491 189.526 114.977 189.526C114.456 189.526 114.113 189.914 114.113 190.485C114.113 191.057 114.456 191.444 114.977 191.444ZM117.454 192.086V189.558H116.94V188.885H117.454V188.637C117.454 187.888 117.937 187.481 118.584 187.481C118.75 187.481 118.915 187.507 119.067 187.551L119.01 188.212C118.902 188.167 118.794 188.148 118.692 188.148C118.426 188.148 118.254 188.339 118.254 188.637V188.885H119.016V189.558H118.254V192.086H117.454ZM119.994 188.396C119.708 188.396 119.498 188.18 119.498 187.901C119.498 187.627 119.708 187.412 119.994 187.412C120.286 187.412 120.502 187.627 120.502 187.901C120.502 188.18 120.286 188.396 119.994 188.396ZM119.593 192.086V188.885H120.394V192.086H119.593ZM122.445 192.118C121.734 192.226 121.169 191.946 121.169 191.159V187.589H121.969V191.057C121.969 191.419 122.134 191.438 122.395 191.432L122.445 192.118ZM124.275 192.118C123.564 192.226 122.998 191.946 122.998 191.159V187.589H123.799V191.057C123.799 191.419 123.964 191.438 124.224 191.432L124.275 192.118ZM127.845 190.377C127.845 190.492 127.839 190.632 127.832 190.695H125.457C125.527 191.178 125.838 191.464 126.295 191.464C126.67 191.464 126.937 191.286 127.019 190.974L127.769 191.178C127.591 191.781 127.032 192.137 126.282 192.137C125.222 192.137 124.657 191.317 124.657 190.485C124.657 189.653 125.177 188.834 126.238 188.834C127.318 188.834 127.845 189.634 127.845 190.377ZM125.476 190.111H126.987C126.949 189.73 126.702 189.444 126.238 189.444C125.844 189.444 125.565 189.679 125.476 190.111ZM129.803 192.137C128.844 192.137 128.279 191.464 128.279 190.485C128.279 189.507 128.844 188.834 129.79 188.834C130.19 188.834 130.533 188.999 130.718 189.241V187.589H131.518V192.086H130.718V191.718C130.559 191.972 130.203 192.137 129.803 192.137ZM129.917 191.444C130.432 191.444 130.768 191.063 130.768 190.485C130.768 189.908 130.432 189.526 129.917 189.526C129.409 189.526 129.073 189.908 129.073 190.485C129.073 191.063 129.409 191.444 129.917 191.444ZM134.101 192.086V189.558H133.586V188.885H134.101V188.637C134.101 187.888 134.583 187.481 135.231 187.481C135.396 187.481 135.562 187.507 135.714 187.551L135.657 188.212C135.549 188.167 135.441 188.148 135.339 188.148C135.073 188.148 134.901 188.339 134.901 188.637V188.885H135.663V189.558H134.901V192.086H134.101ZM138.304 189.66C138.19 189.609 138.038 189.584 137.898 189.584C137.447 189.584 137.04 189.958 137.04 190.911V192.086H136.24V188.885H137.04V189.469C137.199 189.107 137.618 188.834 138.006 188.834C138.12 188.834 138.26 188.853 138.355 188.885L138.304 189.66ZM140.208 192.137C139.236 192.137 138.537 191.438 138.537 190.485C138.537 189.533 139.236 188.834 140.208 188.834C141.179 188.834 141.878 189.533 141.878 190.485C141.878 191.438 141.179 192.137 140.208 192.137ZM140.208 191.444C140.722 191.444 141.071 191.057 141.071 190.485C141.071 189.914 140.722 189.526 140.208 189.526C139.687 189.526 139.344 189.914 139.344 190.485C139.344 191.057 139.687 191.444 140.208 191.444ZM142.48 192.086V188.885H143.28V189.374C143.458 189.056 143.756 188.834 144.201 188.834C144.709 188.834 145.052 189.05 145.198 189.438C145.369 189.114 145.75 188.834 146.259 188.834C146.951 188.834 147.402 189.285 147.402 189.914V192.086H146.602V190.136C146.602 189.755 146.392 189.514 146.017 189.514C145.585 189.514 145.338 189.888 145.338 190.454V192.086H144.537V190.136C144.537 189.755 144.334 189.514 143.966 189.514C143.528 189.514 143.28 189.895 143.28 190.46V192.086H142.48ZM152.474 192.086L151.09 190.041L150.601 190.543V192.086H149.737V187.64H150.601V189.399L152.258 187.64H153.395L151.68 189.418L153.554 192.086H152.474ZM155.122 192.086V190.244L153.598 187.64H154.525L155.554 189.431L156.589 187.64H157.516L155.986 190.244V192.086H155.122ZM159.609 192.137C158.434 192.137 157.398 191.368 157.398 189.863C157.398 188.358 158.453 187.589 159.609 187.589C160.676 187.589 161.431 188.174 161.584 189.069L160.726 189.247C160.612 188.682 160.18 188.332 159.609 188.332C158.859 188.332 158.275 188.866 158.275 189.863C158.275 190.86 158.853 191.387 159.609 191.387C160.187 191.387 160.587 191.07 160.701 190.549L161.571 190.74C161.355 191.61 160.631 192.137 159.609 192.137Z" fill="#111111"/>
<path d="M53.8883 53.9229L51.7516 56.0596L53.8883 58.1963" stroke="black" stroke-width="0.85468" stroke-linecap="round" stroke-linejoin="round"/>
<path d="M52.3926 56.0596H57.9481" stroke="black" stroke-width="0.85468" stroke-linecap="round" stroke-linejoin="round"/>
<g filter="url(#filter1_d_943_9837)">
<rect x="40.0001" y="342.231" width="160.252" height="30.7685" fill="white"/>
</g>
<g style="mix-blend-mode:multiply">
<path d="M119.913 358.472C119.067 358.472 118.241 358.221 117.538 357.751C116.836 357.282 116.288 356.614 115.965 355.834C115.641 355.053 115.556 354.193 115.721 353.365C115.886 352.536 116.293 351.774 116.891 351.176C117.489 350.579 118.25 350.172 119.079 350.007C119.908 349.842 120.767 349.927 121.548 350.25C122.329 350.574 122.996 351.121 123.466 351.824C123.935 352.527 124.186 353.353 124.186 354.198C124.184 355.331 123.733 356.416 122.932 357.217C122.131 358.018 121.045 358.469 119.913 358.472Z" fill="#CDCDCD"/>
</g>
<mask id="mask0_943_9837" style="mask-type:alpha" maskUnits="userSpaceOnUse" x="115" y="349" width="10" height="10">
<path d="M119.913 358.471C119.067 358.471 118.241 358.22 117.538 357.75C116.836 357.281 116.288 356.613 115.965 355.833C115.641 355.052 115.556 354.192 115.721 353.364C115.886 352.535 116.293 351.773 116.891 351.175C117.489 350.578 118.25 350.171 119.079 350.006C119.908 349.841 120.767 349.926 121.548 350.249C122.329 350.573 122.996 351.12 123.466 351.823C123.935 352.526 124.186 353.352 124.186 354.197C124.184 355.33 123.733 356.415 122.932 357.216C122.131 358.017 121.045 358.468 119.913 358.471Z" fill="#B1CDE2"/>
</mask>
<g mask="url(#mask0_943_9837)">
<g style="mix-blend-mode:multiply">
<g style="mix-blend-mode:multiply">
<path d="M122.049 358.299C122.049 358.394 122.012 358.485 121.944 358.553C121.877 358.62 121.786 358.657 121.691 358.657H118.108C118.061 358.657 118.014 358.648 117.971 358.63C117.928 358.612 117.889 358.586 117.856 358.552C117.823 358.519 117.797 358.479 117.779 358.436C117.762 358.392 117.753 358.346 117.754 358.299V356.936C117.752 356.69 117.799 356.446 117.892 356.218C117.985 355.99 118.123 355.783 118.296 355.609C118.47 355.434 118.676 355.296 118.904 355.201C119.131 355.107 119.375 355.059 119.622 355.06H120.159C120.405 355.059 120.649 355.107 120.877 355.201C121.104 355.296 121.311 355.434 121.484 355.609C121.658 355.783 121.796 355.99 121.889 356.218C121.982 356.446 122.029 356.69 122.027 356.936L122.049 358.299Z" fill="#505050"/>
</g>
<g style="mix-blend-mode:multiply">
<path d="M119.771 354.767C120.025 354.767 120.274 354.691 120.486 354.549C120.697 354.407 120.862 354.205 120.958 353.969C121.054 353.733 121.077 353.474 121.026 353.224C120.974 352.975 120.849 352.746 120.666 352.568C120.484 352.39 120.253 352.27 120.002 352.224C119.752 352.178 119.493 352.208 119.259 352.309C119.026 352.411 118.828 352.58 118.69 352.794C118.553 353.009 118.483 353.26 118.489 353.514C118.496 353.849 118.635 354.168 118.874 354.402C119.114 354.636 119.436 354.767 119.771 354.767Z" fill="#505050"/>
</g>
</g>
</g>
<path d="M112.241 367.89V364.3H113.728C114.471 364.3 114.948 364.741 114.948 365.423C114.948 366.105 114.471 366.546 113.728 366.546H113.051V367.89H112.241ZM113.051 365.854H113.646C113.953 365.854 114.138 365.69 114.138 365.423C114.138 365.156 113.953 364.992 113.646 364.992H113.051V365.854ZM117.073 366.028C116.986 365.987 116.863 365.967 116.745 365.967C116.407 365.967 116.084 366.223 116.084 366.956V367.89H115.33V365.305H116.084V365.751C116.202 365.474 116.535 365.264 116.843 365.264C116.93 365.264 117.048 365.279 117.119 365.305L117.073 366.028ZM118.624 367.931C117.824 367.931 117.26 367.367 117.26 366.597C117.26 365.828 117.824 365.264 118.624 365.264C119.414 365.264 119.988 365.828 119.988 366.597C119.988 367.367 119.414 367.931 118.624 367.931ZM118.624 367.29C118.988 367.29 119.234 367.008 119.234 366.597C119.234 366.187 118.988 365.905 118.624 365.905C118.255 365.905 118.008 366.187 118.008 366.597C118.008 367.008 118.255 367.29 118.624 367.29ZM120.593 367.89V365.931H120.188V365.305H120.593V365.126C120.593 364.505 121.013 364.162 121.578 364.162C121.726 364.162 121.865 364.182 121.988 364.228L121.936 364.833C121.844 364.797 121.762 364.777 121.68 364.777C121.475 364.777 121.347 364.915 121.347 365.141V365.305H121.936V365.931H121.347V367.89H120.593ZM122.745 364.962C122.489 364.962 122.299 364.762 122.299 364.51C122.299 364.264 122.489 364.064 122.745 364.064C123.007 364.064 123.207 364.264 123.207 364.51C123.207 364.762 123.007 364.962 122.745 364.962ZM122.371 367.89V365.305H123.125V367.89H122.371ZM124.851 367.91C124.221 368.013 123.708 367.772 123.708 367.079V364.259H124.462V366.972C124.462 367.274 124.595 367.274 124.8 367.274L124.851 367.91ZM127.747 366.531C127.747 366.633 127.742 366.756 127.737 366.813H125.881C125.953 367.131 126.168 367.305 126.486 367.305C126.742 367.305 126.932 367.187 126.988 366.972L127.696 367.161C127.542 367.649 127.081 367.931 126.465 367.931C125.573 367.931 125.137 367.238 125.137 366.597C125.137 365.956 125.527 365.264 126.419 365.264C127.353 365.264 127.747 365.956 127.747 366.531ZM125.891 366.279H126.942C126.917 366.018 126.753 365.823 126.419 365.823C126.147 365.823 125.963 365.977 125.891 366.279Z" fill="#091016"/>
<path d="M169.811 353.983C169.81 353.816 169.795 353.649 169.765 353.485L170.98 352.612L169.959 350.887L168.58 351.49C168.31 351.279 168.007 351.11 167.682 350.992L167.514 349.496H165.472L165.303 350.962C164.977 351.09 164.673 351.268 164.405 351.49L163.027 350.877L162.006 352.602L163.22 353.485C163.162 353.814 163.162 354.152 163.22 354.482L162.006 355.364L163.027 357.089L164.405 356.501C164.675 356.713 164.979 356.881 165.303 356.999L165.472 358.47H167.514L167.682 357.004C168.007 356.886 168.31 356.718 168.58 356.506L169.959 357.094L170.98 355.369L169.765 354.482C169.795 354.317 169.81 354.15 169.811 353.983Z" fill="#CDCDCD"/>
<path d="M166.493 355.479C167.319 355.479 167.988 354.809 167.988 353.983C167.988 353.157 167.319 352.487 166.493 352.487C165.667 352.487 164.997 353.157 164.997 353.983C164.997 354.809 165.667 355.479 166.493 355.479Z" fill="#505050"/>
<path d="M158.258 367.93C157.54 367.93 156.935 367.443 156.868 366.786L157.576 366.576C157.622 366.976 157.935 367.243 158.288 367.243C158.612 367.243 158.822 367.089 158.822 366.863C158.822 366.186 156.981 366.586 156.981 365.268C156.981 364.678 157.545 364.258 158.247 364.258C158.94 364.258 159.499 364.627 159.622 365.176L158.899 365.478C158.827 365.155 158.586 364.945 158.247 364.945C157.965 364.945 157.791 365.063 157.791 365.263C157.791 365.832 159.637 365.376 159.637 366.843C159.637 367.494 159.083 367.93 158.258 367.93ZM162.559 366.53C162.559 366.632 162.554 366.755 162.549 366.812H160.692C160.764 367.13 160.979 367.304 161.297 367.304C161.554 367.304 161.743 367.186 161.8 366.971L162.508 367.16C162.354 367.648 161.892 367.93 161.277 367.93C160.385 367.93 159.949 367.237 159.949 366.596C159.949 365.955 160.338 365.263 161.231 365.263C162.164 365.263 162.559 365.955 162.559 366.53ZM160.702 366.278H161.754C161.728 366.017 161.564 365.822 161.231 365.822C160.959 365.822 160.774 365.976 160.702 366.278ZM164.572 367.863C164.449 367.904 164.305 367.93 164.151 367.93C163.592 367.93 163.167 367.632 163.167 367.007V365.93H162.756V365.304H163.167V364.555H163.92V365.304H164.546V365.93H163.92V366.909C163.92 367.14 164.043 367.273 164.228 367.273C164.32 367.273 164.433 367.258 164.52 367.212L164.572 367.863ZM166.595 367.863C166.472 367.904 166.328 367.93 166.174 367.93C165.615 367.93 165.19 367.632 165.19 367.007V365.93H164.779V365.304H165.19V364.555H165.944V365.304H166.569V365.93H165.944V366.909C165.944 367.14 166.067 367.273 166.251 367.273C166.344 367.273 166.456 367.258 166.544 367.212L166.595 367.863ZM167.382 364.961C167.126 364.961 166.936 364.761 166.936 364.509C166.936 364.263 167.126 364.063 167.382 364.063C167.644 364.063 167.844 364.263 167.844 364.509C167.844 364.761 167.644 364.961 167.382 364.961ZM167.008 367.889V365.304H167.762V367.889H167.008ZM168.345 367.889V365.304H169.099V365.648C169.253 365.422 169.535 365.263 169.888 365.263C170.458 365.263 170.837 365.632 170.837 366.202V367.889H170.088V366.402C170.088 366.119 169.914 365.93 169.642 365.93C169.283 365.93 169.099 366.222 169.099 366.755V367.889H168.345ZM172.82 367.325C173.45 367.325 173.809 367.596 173.809 368.063C173.809 368.663 173.204 368.863 172.522 368.863C171.748 368.863 171.23 368.637 171.23 368.119C171.23 367.96 171.322 367.766 171.471 367.637C171.374 367.54 171.317 367.422 171.317 367.289C171.317 367.037 171.466 366.853 171.697 366.75C171.548 366.602 171.461 366.396 171.461 366.155C171.461 365.617 171.892 365.263 172.517 365.263C172.691 365.263 172.845 365.289 172.984 365.34L173.353 364.925L173.789 365.304L173.44 365.694C173.527 365.822 173.574 365.981 173.574 366.155C173.574 366.694 173.148 367.043 172.517 367.043C172.399 367.043 172.292 367.032 172.189 367.007C172.086 367.058 172.03 367.125 172.03 367.191C172.03 367.284 172.117 367.325 172.256 367.325H172.82ZM172.517 365.832C172.302 365.832 172.153 365.961 172.153 366.155C172.153 366.345 172.302 366.473 172.517 366.473C172.722 366.473 172.876 366.345 172.876 366.155C172.876 365.961 172.722 365.832 172.517 365.832ZM172.522 368.268C172.927 368.268 173.081 368.207 173.081 368.068C173.081 367.925 172.933 367.899 172.686 367.899H172.245C172.168 367.899 172.097 367.894 172.025 367.884C171.974 367.95 171.958 368.001 171.958 368.068C171.958 368.207 172.086 368.268 172.522 368.268ZM175.097 367.93C174.466 367.93 174.077 367.545 173.943 367.155L174.548 366.919C174.61 367.16 174.81 367.36 175.097 367.36C175.297 367.36 175.43 367.263 175.43 367.119C175.43 366.714 174.061 366.986 174.061 366.007C174.061 365.602 174.415 365.263 174.984 365.263C175.513 365.263 175.948 365.519 176.066 365.894L175.461 366.145C175.395 365.909 175.184 365.802 175.01 365.802C174.841 365.802 174.723 365.873 174.723 365.986C174.723 366.396 176.112 366.058 176.112 367.104C176.112 367.55 175.702 367.93 175.097 367.93Z" fill="#091016"/>
<path d="M69.9138 352.789C69.9138 352.613 70.0034 352.45 70.1513 352.356L73.6983 350.099C73.8662 349.992 74.0809 349.992 74.2489 350.099L77.7958 352.356C77.9437 352.45 78.0333 352.613 78.0333 352.789V357.53C78.0333 357.814 77.8037 358.043 77.5205 358.043H70.4267C70.1434 358.043 69.9138 357.814 69.9138 357.53V352.789Z" fill="#CDCDCD"/>
<path d="M72.9052 355.906C72.9052 355.67 73.0966 355.479 73.3326 355.479H74.6146C74.8506 355.479 75.0419 355.67 75.0419 355.906V358.043H72.9052V355.906Z" fill="#505050"/>
<path d="M69.5799 364.299H70.3952V367.889H69.5799V366.386H68.1543V367.889H67.344V364.299H68.1543V365.694H69.5799V364.299ZM72.245 367.93C71.445 367.93 70.8809 367.366 70.8809 366.596C70.8809 365.827 71.445 365.263 72.245 365.263C73.0347 365.263 73.609 365.827 73.609 366.596C73.609 367.366 73.0347 367.93 72.245 367.93ZM72.245 367.289C72.6091 367.289 72.8552 367.007 72.8552 366.596C72.8552 366.186 72.6091 365.904 72.245 365.904C71.8757 365.904 71.6296 366.186 71.6296 366.596C71.6296 367.007 71.8757 367.289 72.245 367.289ZM74.0589 367.889V365.304H74.8127V365.653C74.9614 365.422 75.1973 365.263 75.5409 365.263C75.9409 365.263 76.1922 365.427 76.3204 365.725C76.4588 365.478 76.7717 365.263 77.1922 365.263C77.7511 365.263 78.1203 365.637 78.1203 366.13V367.889H77.3716V366.35C77.3716 366.068 77.2178 365.894 76.9511 365.894C76.6383 365.894 76.4588 366.15 76.4588 366.566V367.889H75.7153V366.35C75.7153 366.068 75.5614 365.894 75.2999 365.894C74.9922 365.894 74.8127 366.155 74.8127 366.566V367.889H74.0589ZM81.1882 366.53C81.1882 366.632 81.1831 366.755 81.178 366.812H79.3216C79.3934 367.13 79.6088 367.304 79.9267 367.304C80.1831 367.304 80.3728 367.186 80.4293 366.971L81.1369 367.16C80.9831 367.648 80.5216 367.93 79.9062 367.93C79.0139 367.93 78.578 367.237 78.578 366.596C78.578 365.955 78.9678 365.263 79.86 365.263C80.7933 365.263 81.1882 365.955 81.1882 366.53ZM79.3318 366.278H80.3831C80.3575 366.017 80.1934 365.822 79.86 365.822C79.5883 365.822 79.4036 365.976 79.3318 366.278Z" fill="#091016"/>
<rect opacity="0.7" x="40" y="27" width="160.252" height="347" fill="#091016"/>
<path d="M40.0001 248.217C40.0001 246.328 41.5307 244.798 43.4188 244.798H196.834C198.722 244.798 200.253 246.328 200.253 248.217V373H40.0001V248.217Z" fill="white"/>
<path d="M52.7382 302.806V299.831L50.2767 295.626H51.7741L53.4356 298.519L55.1074 295.626H56.6048L54.1331 299.831V302.806H52.7382ZM58.6307 302.888C57.0615 302.888 55.9333 301.76 55.9333 300.221C55.9333 298.683 57.0615 297.555 58.6307 297.555C60.1999 297.555 61.3281 298.683 61.3281 300.221C61.3281 301.76 60.1999 302.888 58.6307 302.888ZM58.6307 301.77C59.4614 301.77 60.0255 301.144 60.0255 300.221C60.0255 299.298 59.4614 298.672 58.6307 298.672C57.7897 298.672 57.2359 299.298 57.2359 300.221C57.2359 301.144 57.7897 301.77 58.6307 301.77ZM67.1202 297.637V302.806H65.828V302.026C65.4998 302.529 64.9152 302.888 64.187 302.888C63.069 302.888 62.2998 302.149 62.2998 301.021V297.637H63.5921V300.713C63.5921 301.319 63.9716 301.739 64.5767 301.739C65.3767 301.739 65.828 301.062 65.828 299.903V297.637H67.1202ZM71.7127 298.888C71.5281 298.806 71.2819 298.765 71.0563 298.765C70.3281 298.765 69.6717 299.37 69.6717 300.908V302.806H68.3794V297.637H69.6717V298.58C69.9281 297.996 70.605 297.555 71.2306 297.555C71.4152 297.555 71.6409 297.585 71.7947 297.637L71.7127 298.888ZM76.8149 302.888C75.5637 302.888 74.815 302.119 74.5586 301.36L75.615 300.929C75.7688 301.452 76.1688 301.883 76.8149 301.883C77.297 301.883 77.6149 301.626 77.6149 301.298C77.6149 300.324 74.7945 300.96 74.7945 299.001C74.7945 298.19 75.5022 297.555 76.6303 297.555C77.6354 297.555 78.4867 298.067 78.7123 298.816L77.6662 299.257C77.5226 298.765 77.0713 298.508 76.6508 298.508C76.2406 298.508 75.9637 298.683 75.9637 298.98C75.9637 299.893 78.8046 299.165 78.8046 301.277C78.8046 302.17 78.0047 302.888 76.8149 302.888ZM84.589 300.047C84.589 300.231 84.5787 300.457 84.5684 300.56H80.7326C80.8455 301.339 81.348 301.801 82.0864 301.801C82.6916 301.801 83.1223 301.513 83.2557 301.011L84.4659 301.339C84.1787 302.313 83.2762 302.888 82.0659 302.888C80.3532 302.888 79.4404 301.565 79.4404 300.221C79.4404 298.878 80.2814 297.555 81.9941 297.555C83.7377 297.555 84.589 298.847 84.589 300.047ZM80.7634 299.616H83.2044C83.1428 299.001 82.7428 298.539 81.9941 298.539C81.3583 298.539 80.907 298.919 80.7634 299.616ZM87.3215 302.888C86.0702 302.888 85.3215 302.119 85.0651 301.36L86.1215 300.929C86.2754 301.452 86.6754 301.883 87.3215 301.883C87.8035 301.883 88.1215 301.626 88.1215 301.298C88.1215 300.324 85.301 300.96 85.301 299.001C85.301 298.19 86.0087 297.555 87.1369 297.555C88.142 297.555 88.9932 298.067 89.2189 298.816L88.1728 299.257C88.0292 298.765 87.5779 298.508 87.1574 298.508C86.7471 298.508 86.4702 298.683 86.4702 298.98C86.4702 299.893 89.3112 299.165 89.3112 301.277C89.3112 302.17 88.5112 302.888 87.3215 302.888ZM92.0489 302.888C90.7977 302.888 90.049 302.119 89.7926 301.36L90.849 300.929C91.0028 301.452 91.4028 301.883 92.0489 301.883C92.531 301.883 92.8489 301.626 92.8489 301.298C92.8489 300.324 90.0285 300.96 90.0285 299.001C90.0285 298.19 90.7362 297.555 91.8643 297.555C92.8694 297.555 93.7207 298.067 93.9463 298.816L92.9002 299.257C92.7566 298.765 92.3053 298.508 91.8848 298.508C91.4746 298.508 91.1977 298.683 91.1977 298.98C91.1977 299.893 94.0386 299.165 94.0386 301.277C94.0386 302.17 93.2387 302.888 92.0489 302.888ZM95.6174 296.847C95.1559 296.847 94.8175 296.498 94.8175 296.047C94.8175 295.606 95.1559 295.257 95.6174 295.257C96.0892 295.257 96.4379 295.606 96.4379 296.047C96.4379 296.498 96.0892 296.847 95.6174 296.847ZM94.9713 302.806V297.637H96.2636V302.806H94.9713ZM99.9358 302.888C98.3666 302.888 97.2384 301.76 97.2384 300.221C97.2384 298.683 98.3666 297.555 99.9358 297.555C101.505 297.555 102.633 298.683 102.633 300.221C102.633 301.76 101.505 302.888 99.9358 302.888ZM99.9358 301.77C100.767 301.77 101.331 301.144 101.331 300.221C101.331 299.298 100.767 298.672 99.9358 298.672C99.0948 298.672 98.5409 299.298 98.5409 300.221C98.5409 301.144 99.0948 301.77 99.9358 301.77ZM103.605 302.806V297.637H104.897V298.416C105.225 297.913 105.81 297.555 106.538 297.555C107.666 297.555 108.425 298.293 108.425 299.421V302.806H107.133V299.729C107.133 299.124 106.754 298.703 106.148 298.703C105.359 298.703 104.897 299.38 104.897 300.539V302.806H103.605ZM112.138 302.806V295.544H113.431V298.437C113.769 297.872 114.354 297.555 115.072 297.555C116.231 297.555 117 298.293 117 299.421V302.806H115.707V299.739C115.707 299.103 115.318 298.703 114.682 298.703C113.882 298.703 113.431 299.39 113.431 300.56V302.806H112.138ZM120.238 297.555C121.591 297.555 122.515 298.283 122.515 299.657V302.806H121.263V302.057C120.976 302.56 120.35 302.888 119.715 302.888C118.699 302.888 117.992 302.231 117.992 301.349C117.992 300.334 118.761 299.79 120.299 299.626L121.263 299.534V299.483C121.263 298.898 120.863 298.539 120.238 298.539C119.674 298.539 119.274 298.888 119.212 299.442L118.063 299.237C118.227 298.211 119.14 297.555 120.238 297.555ZM120.002 301.934C120.802 301.934 121.263 301.329 121.263 300.57V300.457L120.279 300.57C119.592 300.652 119.243 300.939 119.243 301.308C119.243 301.667 119.53 301.934 120.002 301.934ZM125.582 302.888C124.331 302.888 123.582 302.119 123.325 301.36L124.382 300.929C124.536 301.452 124.936 301.883 125.582 301.883C126.064 301.883 126.382 301.626 126.382 301.298C126.382 300.324 123.561 300.96 123.561 299.001C123.561 298.19 124.269 297.555 125.397 297.555C126.402 297.555 127.254 298.067 127.479 298.816L126.433 299.257C126.289 298.765 125.838 298.508 125.418 298.508C125.007 298.508 124.731 298.683 124.731 298.98C124.731 299.893 127.571 299.165 127.571 301.277C127.571 302.17 126.771 302.888 125.582 302.888ZM135.84 300.047C135.84 300.231 135.829 300.457 135.819 300.56H131.983C132.096 301.339 132.599 301.801 133.337 301.801C133.942 301.801 134.373 301.513 134.506 301.011L135.717 301.339C135.429 302.313 134.527 302.888 133.317 302.888C131.604 302.888 130.691 301.565 130.691 300.221C130.691 298.878 131.532 297.555 133.245 297.555C134.988 297.555 135.84 298.847 135.84 300.047ZM132.014 299.616H134.455C134.394 299.001 133.994 298.539 133.245 298.539C132.609 298.539 132.158 298.919 132.014 299.616ZM140.968 302.806H139.553L138.527 301.247L137.491 302.806H136.076L137.819 300.19L136.127 297.637H137.522L138.527 299.134L139.522 297.637H140.917L139.224 300.19L140.968 302.806ZM141.775 304.672V297.637H143.067V298.231C143.354 297.831 143.919 297.555 144.606 297.555C146.093 297.555 147.006 298.642 147.006 300.221C147.006 301.801 146.031 302.888 144.513 302.888C143.919 302.888 143.365 302.662 143.067 302.293V304.672H141.775ZM144.36 301.77C145.18 301.77 145.724 301.154 145.724 300.221C145.724 299.288 145.18 298.672 144.36 298.672C143.529 298.672 142.985 299.288 142.985 300.221C142.985 301.154 143.529 301.77 144.36 301.77ZM148.631 296.847C148.169 296.847 147.831 296.498 147.831 296.047C147.831 295.606 148.169 295.257 148.631 295.257C149.103 295.257 149.451 295.606 149.451 296.047C149.451 296.498 149.103 296.847 148.631 296.847ZM147.985 302.806V297.637H149.277V302.806H147.985ZM153.862 298.888C153.677 298.806 153.431 298.765 153.206 298.765C152.478 298.765 151.821 299.37 151.821 300.908V302.806H150.529V297.637H151.821V298.58C152.078 297.996 152.754 297.555 153.38 297.555C153.565 297.555 153.79 297.585 153.944 297.637L153.862 298.888ZM159.387 300.047C159.387 300.231 159.377 300.457 159.366 300.56H155.53C155.643 301.339 156.146 301.801 156.884 301.801C157.489 301.801 157.92 301.513 158.053 301.011L159.264 301.339C158.977 302.313 158.074 302.888 156.864 302.888C155.151 302.888 154.238 301.565 154.238 300.221C154.238 298.878 155.079 297.555 156.792 297.555C158.536 297.555 159.387 298.847 159.387 300.047ZM155.561 299.616H158.002C157.941 299.001 157.541 298.539 156.792 298.539C156.156 298.539 155.705 298.919 155.561 299.616ZM162.549 302.888C161 302.888 160.087 301.801 160.087 300.221C160.087 298.642 161 297.555 162.528 297.555C163.175 297.555 163.728 297.821 164.026 298.211V295.544H165.318V302.806H164.026V302.211C163.769 302.621 163.195 302.888 162.549 302.888ZM162.733 301.77C163.564 301.77 164.108 301.154 164.108 300.221C164.108 299.288 163.564 298.672 162.733 298.672C161.913 298.672 161.369 299.288 161.369 300.221C161.369 301.154 161.913 301.77 162.733 301.77Z" fill="#091016"/>
<path d="M51.1343 318.464V314.143H52.776C53.6154 314.143 54.1585 314.637 54.1585 315.396C54.1585 316.156 53.6154 316.649 52.776 316.649H51.6959V318.464H51.1343ZM51.6959 316.143H52.7575C53.2698 316.143 53.5784 315.865 53.5784 315.396C53.5784 314.927 53.2698 314.643 52.7575 314.643H51.6959V316.143ZM55.707 318.507C55.1516 318.563 54.738 318.353 54.738 317.705V314.094H55.2627V317.668C55.2627 318.007 55.4231 318.057 55.6824 318.038L55.707 318.507ZM59.1316 316.767C59.1316 316.841 59.1255 316.952 59.1193 317.007H56.6628C56.6999 317.637 57.0949 318.05 57.6565 318.05C58.1318 318.05 58.4589 317.828 58.5515 317.439L59.0452 317.557C58.8909 318.161 58.3725 318.513 57.6565 318.513C56.7246 318.513 56.1382 317.791 56.1382 316.909C56.1382 316.026 56.706 315.304 57.6442 315.304C58.5638 315.304 59.1316 315.964 59.1316 316.767ZM56.6937 316.569H58.5762C58.5268 316.094 58.1935 315.742 57.6442 315.742C57.1566 315.742 56.7986 316.051 56.6937 316.569ZM60.9372 315.304C61.6902 315.304 62.2148 315.748 62.2148 316.47V318.464H61.6964V317.933C61.5174 318.291 61.11 318.513 60.6595 318.513C60.0361 318.513 59.6103 318.131 59.6103 317.594C59.6103 316.995 60.0978 316.668 61.0915 316.569L61.6964 316.501V316.439C61.6964 316.014 61.394 315.742 60.9372 315.742C60.5114 315.742 60.2089 315.995 60.1657 316.415L59.6781 316.322C59.7707 315.705 60.283 315.304 60.9372 315.304ZM60.7397 318.081C61.3446 318.081 61.6964 317.68 61.6964 317.057V316.909L61.0915 316.976C60.462 317.044 60.1349 317.26 60.1349 317.587C60.1349 317.878 60.3818 318.081 60.7397 318.081ZM64.1109 318.513C63.3579 318.513 62.9506 318.044 62.8148 317.606L63.2653 317.408C63.3826 317.773 63.6295 318.069 64.1109 318.069C64.4936 318.069 64.7404 317.847 64.7404 317.594C64.7404 316.797 62.9506 317.31 62.9506 316.131C62.9506 315.637 63.3764 315.304 64.043 315.304C64.5923 315.304 65.0675 315.612 65.1972 316.069L64.7589 316.26C64.6725 315.94 64.3639 315.736 64.0307 315.736C63.6788 315.736 63.4567 315.878 63.4567 316.125C63.4567 316.791 65.2589 316.304 65.2527 317.587C65.2527 318.131 64.796 318.513 64.1109 318.513ZM68.7091 316.767C68.7091 316.841 68.7029 316.952 68.6967 317.007H66.2403C66.2773 317.637 66.6723 318.05 67.234 318.05C67.7092 318.05 68.0363 317.828 68.1289 317.439L68.6227 317.557C68.4684 318.161 67.9499 318.513 67.234 318.513C66.302 318.513 65.7157 317.791 65.7157 316.909C65.7157 316.026 66.2835 315.304 67.2216 315.304C68.1413 315.304 68.7091 315.964 68.7091 316.767ZM66.2711 316.569H68.1536C68.1042 316.094 67.7709 315.742 67.2216 315.742C66.734 315.742 66.3761 316.051 66.2711 316.569ZM72.694 315.865C72.5767 315.816 72.4286 315.791 72.2928 315.791C71.799 315.791 71.3978 316.267 71.3978 317.279V318.464H70.8732V315.353H71.3978V315.983C71.5768 315.588 71.9842 315.304 72.3668 315.304C72.4965 315.304 72.6199 315.322 72.7248 315.359L72.694 315.865ZM75.9057 316.767C75.9057 316.841 75.8995 316.952 75.8934 317.007H73.4369C73.4739 317.637 73.869 318.05 74.4306 318.05C74.9059 318.05 75.233 317.828 75.3255 317.439L75.8193 317.557C75.665 318.161 75.1466 318.513 74.4306 318.513C73.4986 318.513 72.9123 317.791 72.9123 316.909C72.9123 316.026 73.4801 315.304 74.4183 315.304C75.3379 315.304 75.9057 315.964 75.9057 316.767ZM73.4678 316.569H75.3502C75.3009 316.094 74.9676 315.742 74.4183 315.742C73.9307 315.742 73.5727 316.051 73.4678 316.569ZM76.3342 316.915V316.452H78.155V316.915H76.3342ZM79.726 318.507C79.1705 318.563 78.757 318.353 78.757 317.705V314.094H79.2816V317.668C79.2816 318.007 79.4421 318.057 79.7013 318.038L79.726 318.507ZM81.7372 318.513C80.8114 318.513 80.1572 317.84 80.1572 316.909C80.1572 315.977 80.8114 315.304 81.7372 315.304C82.6568 315.304 83.3234 315.977 83.3234 316.909C83.3234 317.84 82.6568 318.513 81.7372 318.513ZM81.7372 318.044C82.3606 318.044 82.7803 317.575 82.7803 316.909C82.7803 316.242 82.3606 315.773 81.7372 315.773C81.1138 315.773 80.6941 316.242 80.6941 316.909C80.6941 317.575 81.1138 318.044 81.7372 318.044ZM85.5933 317.859C86.2167 317.859 86.6487 318.118 86.6487 318.692C86.6487 319.316 86.0685 319.637 85.2168 319.637C84.3342 319.637 83.7849 319.322 83.7849 318.748C83.7849 318.476 83.933 318.254 84.1182 318.112C83.9639 318.007 83.8713 317.853 83.8713 317.631C83.8713 317.359 84.0503 317.155 84.291 317.044C84.1244 316.865 84.0318 316.631 84.0318 316.353C84.0318 315.724 84.5379 315.304 85.2106 315.304C85.4143 315.304 85.6056 315.347 85.7784 315.427L86.266 315.008L86.5685 315.353L86.1549 315.705C86.3031 315.878 86.3895 316.1 86.3895 316.353C86.3895 316.995 85.8895 317.402 85.2106 317.402C84.9884 317.402 84.7971 317.359 84.6305 317.285C84.4515 317.365 84.3774 317.47 84.3774 317.6C84.3774 317.791 84.5564 317.859 84.7601 317.859H85.5933ZM85.2106 315.73C84.8526 315.73 84.544 315.964 84.544 316.353C84.544 316.748 84.8526 316.976 85.2106 316.976C85.5686 316.976 85.8772 316.748 85.8772 316.353C85.8772 315.964 85.5686 315.73 85.2106 315.73ZM85.2168 319.192C85.8093 319.192 86.1364 319.026 86.1364 318.729C86.1364 318.396 85.8895 318.285 85.5192 318.285H84.8588C84.7477 318.285 84.6428 318.279 84.544 318.266C84.3527 318.396 84.2972 318.563 84.2972 318.742C84.2972 319.026 84.6119 319.192 85.2168 319.192ZM87.4967 314.767C87.2868 314.767 87.1325 314.606 87.1325 314.403C87.1325 314.193 87.2868 314.032 87.4967 314.032C87.7127 314.032 87.8732 314.193 87.8732 314.403C87.8732 314.606 87.7127 314.767 87.4967 314.767ZM87.2374 318.464V315.353H87.7621V318.464H87.2374ZM88.6117 318.464V315.353H89.1363V315.94C89.3523 315.569 89.7288 315.304 90.2041 315.304C90.8521 315.304 91.315 315.742 91.315 316.402V318.464H90.7904V316.501C90.7904 316.081 90.525 315.779 90.0868 315.779C89.5066 315.779 89.1363 316.279 89.1363 317.1V318.464H88.6117ZM95.3107 318.439C95.1564 318.495 94.9897 318.513 94.8231 318.513C94.2923 318.513 93.9034 318.217 93.9034 317.532V315.816H93.3233V315.353H93.9034V314.409H94.4281V315.353H95.2613V315.816H94.4281V317.55C94.4281 317.878 94.6132 318.038 94.8848 318.038C95.0082 318.038 95.1502 318.019 95.2736 317.958L95.3107 318.439ZM97.2455 318.513C96.3197 318.513 95.6655 317.84 95.6655 316.909C95.6655 315.977 96.3197 315.304 97.2455 315.304C98.1652 315.304 98.8317 315.977 98.8317 316.909C98.8317 317.84 98.1652 318.513 97.2455 318.513ZM97.2455 318.044C97.8689 318.044 98.2886 317.575 98.2886 316.909C98.2886 316.242 97.8689 315.773 97.2455 315.773C96.6222 315.773 96.2025 316.242 96.2025 316.909C96.2025 317.575 96.6222 318.044 97.2455 318.044ZM100.992 319.587V315.353H101.516V315.804C101.683 315.52 102.09 315.304 102.541 315.304C103.498 315.304 104.028 315.995 104.028 316.909C104.028 317.822 103.485 318.513 102.529 318.513C102.134 318.513 101.726 318.316 101.516 318.032V319.587H100.992ZM102.479 318.044C103.096 318.044 103.498 317.594 103.498 316.909C103.498 316.223 103.096 315.773 102.479 315.773C101.874 315.773 101.473 316.223 101.473 316.909C101.473 317.594 101.874 318.044 102.479 318.044ZM106.519 315.865C106.402 315.816 106.254 315.791 106.118 315.791C105.624 315.791 105.223 316.267 105.223 317.279V318.464H104.699V315.353H105.223V315.983C105.402 315.588 105.81 315.304 106.192 315.304C106.322 315.304 106.445 315.322 106.55 315.359L106.519 315.865ZM108.318 318.513C107.392 318.513 106.738 317.84 106.738 316.909C106.738 315.977 107.392 315.304 108.318 315.304C109.237 315.304 109.904 315.977 109.904 316.909C109.904 317.84 109.237 318.513 108.318 318.513ZM108.318 318.044C108.941 318.044 109.361 317.575 109.361 316.909C109.361 316.242 108.941 315.773 108.318 315.773C107.694 315.773 107.275 316.242 107.275 316.909C107.275 317.575 107.694 318.044 108.318 318.044ZM111.939 318.513C111.014 318.513 110.396 317.871 110.396 316.909C110.396 315.946 111.014 315.304 111.939 315.304C112.661 315.304 113.192 315.699 113.303 316.316L112.785 316.421C112.717 316.044 112.39 315.773 111.952 315.773C111.341 315.773 110.946 316.223 110.946 316.909C110.946 317.594 111.341 318.044 111.952 318.044C112.39 318.044 112.711 317.803 112.797 317.39L113.309 317.495C113.174 318.137 112.655 318.513 111.939 318.513ZM116.777 316.767C116.777 316.841 116.771 316.952 116.765 317.007H114.308C114.345 317.637 114.74 318.05 115.302 318.05C115.777 318.05 116.104 317.828 116.197 317.439L116.691 317.557C116.536 318.161 116.018 318.513 115.302 318.513C114.37 318.513 113.784 317.791 113.784 316.909C113.784 316.026 114.351 315.304 115.29 315.304C116.209 315.304 116.777 315.964 116.777 316.767ZM114.339 316.569H116.222C116.172 316.094 115.839 315.742 115.29 315.742C114.802 315.742 114.444 316.051 114.339 316.569ZM120.267 316.767C120.267 316.841 120.261 316.952 120.255 317.007H117.798C117.835 317.637 118.23 318.05 118.792 318.05C119.267 318.05 119.594 317.828 119.687 317.439L120.181 317.557C120.026 318.161 119.508 318.513 118.792 318.513C117.86 318.513 117.274 317.791 117.274 316.909C117.274 316.026 117.841 315.304 118.779 315.304C119.699 315.304 120.267 315.964 120.267 316.767ZM117.829 316.569H119.711C119.662 316.094 119.329 315.742 118.779 315.742C118.292 315.742 117.934 316.051 117.829 316.569ZM122.263 318.513C121.294 318.513 120.763 317.822 120.763 316.909C120.763 315.995 121.294 315.304 122.257 315.304C122.67 315.304 123.078 315.507 123.275 315.798V314.094H123.8V318.464H123.275V318.013C123.133 318.297 122.72 318.513 122.263 318.513ZM122.313 318.044C122.924 318.044 123.325 317.594 123.325 316.909C123.325 316.223 122.924 315.773 122.313 315.773C121.701 315.773 121.3 316.223 121.3 316.909C121.3 317.594 121.701 318.044 122.313 318.044ZM125.026 318.513C124.803 318.513 124.649 318.359 124.649 318.143C124.649 317.933 124.803 317.773 125.026 317.773C125.235 317.773 125.402 317.933 125.402 318.143C125.402 318.359 125.235 318.513 125.026 318.513ZM128.735 318.464L127.42 314.143H128.001L129.031 317.816L130.074 314.143H130.661L131.698 317.816L132.728 314.143H133.308L132 318.464H131.407L130.371 314.983L129.321 318.464H128.735ZM136.372 316.767C136.372 316.841 136.366 316.952 136.36 317.007H133.903C133.94 317.637 134.335 318.05 134.897 318.05C135.372 318.05 135.699 317.828 135.792 317.439L136.286 317.557C136.131 318.161 135.613 318.513 134.897 318.513C133.965 318.513 133.379 317.791 133.379 316.909C133.379 316.026 133.946 315.304 134.885 315.304C135.804 315.304 136.372 315.964 136.372 316.767ZM133.934 316.569H135.816C135.767 316.094 135.434 315.742 134.885 315.742C134.397 315.742 134.039 316.051 133.934 316.569ZM138.536 318.464V314.094H139.061V315.964C139.289 315.52 139.666 315.304 140.122 315.304C140.826 315.304 141.289 315.742 141.289 316.415V318.464H140.764V316.514C140.764 316.057 140.48 315.779 140.005 315.779C139.431 315.779 139.061 316.297 139.061 317.131V318.464H138.536ZM143.301 315.304C144.054 315.304 144.578 315.748 144.578 316.47V318.464H144.06V317.933C143.881 318.291 143.474 318.513 143.023 318.513C142.4 318.513 141.974 318.131 141.974 317.594C141.974 316.995 142.461 316.668 143.455 316.569L144.06 316.501V316.439C144.06 316.014 143.758 315.742 143.301 315.742C142.875 315.742 142.573 315.995 142.529 316.415L142.042 316.322C142.134 315.705 142.647 315.304 143.301 315.304ZM143.103 318.081C143.708 318.081 144.06 317.68 144.06 317.057V316.909L143.455 316.976C142.826 317.044 142.498 317.26 142.498 317.587C142.498 317.878 142.745 318.081 143.103 318.081ZM146.119 318.464L144.983 315.353H145.52L146.384 317.853L147.255 315.353H147.798L146.656 318.464H146.119ZM151.018 316.767C151.018 316.841 151.012 316.952 151.006 317.007H148.55C148.587 317.637 148.982 318.05 149.543 318.05C150.019 318.05 150.346 317.828 150.438 317.439L150.932 317.557C150.778 318.161 150.259 318.513 149.543 318.513C148.611 318.513 148.025 317.791 148.025 316.909C148.025 316.026 148.593 315.304 149.531 315.304C150.451 315.304 151.018 315.964 151.018 316.767ZM148.58 316.569H150.463C150.414 316.094 150.08 315.742 149.531 315.742C149.043 315.742 148.685 316.051 148.58 316.569ZM154.226 318.513C153.473 318.513 153.065 318.044 152.929 317.606L153.38 317.408C153.497 317.773 153.744 318.069 154.226 318.069C154.608 318.069 154.855 317.847 154.855 317.594C154.855 316.797 153.065 317.31 153.065 316.131C153.065 315.637 153.491 315.304 154.158 315.304C154.707 315.304 155.182 315.612 155.312 316.069L154.874 316.26C154.787 315.94 154.479 315.736 154.145 315.736C153.794 315.736 153.571 315.878 153.571 316.125C153.571 316.791 155.374 316.304 155.367 317.587C155.367 318.131 154.911 318.513 154.226 318.513ZM157.194 315.304C157.947 315.304 158.471 315.748 158.471 316.47V318.464H157.953V317.933C157.774 318.291 157.367 318.513 156.916 318.513C156.293 318.513 155.867 318.131 155.867 317.594C155.867 316.995 156.354 316.668 157.348 316.569L157.953 316.501V316.439C157.953 316.014 157.651 315.742 157.194 315.742C156.768 315.742 156.466 315.995 156.422 316.415L155.935 316.322C156.027 315.705 156.54 315.304 157.194 315.304ZM156.996 318.081C157.601 318.081 157.953 317.68 157.953 317.057V316.909L157.348 316.976C156.719 317.044 156.391 317.26 156.391 317.587C156.391 317.878 156.638 318.081 156.996 318.081ZM160.012 318.464L158.876 315.353H159.413L160.277 317.853L161.148 315.353H161.691L160.549 318.464H160.012ZM164.911 316.767C164.911 316.841 164.905 316.952 164.899 317.007H162.443C162.48 317.637 162.875 318.05 163.436 318.05C163.912 318.05 164.239 317.828 164.331 317.439L164.825 317.557C164.671 318.161 164.152 318.513 163.436 318.513C162.504 318.513 161.918 317.791 161.918 316.909C161.918 316.026 162.486 315.304 163.424 315.304C164.344 315.304 164.911 315.964 164.911 316.767ZM162.473 316.569H164.356C164.307 316.094 163.973 315.742 163.424 315.742C162.936 315.742 162.578 316.051 162.473 316.569ZM166.908 318.513C165.939 318.513 165.408 317.822 165.408 316.909C165.408 315.995 165.939 315.304 166.901 315.304C167.315 315.304 167.722 315.507 167.92 315.798V314.094H168.444V318.464H167.92V318.013C167.778 318.297 167.364 318.513 166.908 318.513ZM166.957 318.044C167.568 318.044 167.969 317.594 167.969 316.909C167.969 316.223 167.568 315.773 166.957 315.773C166.346 315.773 165.945 316.223 165.945 316.909C165.945 317.594 166.346 318.044 166.957 318.044ZM171.943 315.304C172.696 315.304 173.22 315.748 173.22 316.47V318.464H172.702V317.933C172.523 318.291 172.116 318.513 171.665 318.513C171.042 318.513 170.616 318.131 170.616 317.594C170.616 316.995 171.103 316.668 172.097 316.569L172.702 316.501V316.439C172.702 316.014 172.399 315.742 171.943 315.742C171.517 315.742 171.214 315.995 171.171 316.415L170.684 316.322C170.776 315.705 171.288 315.304 171.943 315.304ZM171.745 318.081C172.35 318.081 172.702 317.68 172.702 317.057V316.909L172.097 316.976C171.467 317.044 171.14 317.26 171.14 317.587C171.14 317.878 171.387 318.081 171.745 318.081ZM175.042 318.507C174.487 318.563 174.073 318.353 174.073 317.705V314.094H174.598V317.668C174.598 318.007 174.758 318.057 175.018 318.038L175.042 318.507ZM176.621 318.507C176.066 318.563 175.652 318.353 175.652 317.705V314.094H176.177V317.668C176.177 318.007 176.338 318.057 176.597 318.038L176.621 318.507ZM53.1587 322.353H53.6956L52.0662 326.587H51.5293L51.9798 325.421L50.764 322.353H51.3318L52.2452 324.736L53.1587 322.353ZM55.5002 325.513C54.5744 325.513 53.9202 324.84 53.9202 323.909C53.9202 322.977 54.5744 322.304 55.5002 322.304C56.4198 322.304 57.0864 322.977 57.0864 323.909C57.0864 324.84 56.4198 325.513 55.5002 325.513ZM55.5002 325.044C56.1236 325.044 56.5433 324.575 56.5433 323.909C56.5433 323.242 56.1236 322.773 55.5002 322.773C54.8768 322.773 54.4571 323.242 54.4571 323.909C54.4571 324.575 54.8768 325.044 55.5002 325.044ZM60.4611 322.353V325.464H59.9365V324.878C59.7204 325.248 59.3439 325.513 58.8687 325.513C58.2206 325.513 57.7577 325.075 57.7577 324.415V322.353H58.2824V324.316C58.2824 324.736 58.5478 325.038 58.986 325.038C59.5661 325.038 59.9365 324.538 59.9365 323.717V322.353H60.4611ZM63.1346 322.865C63.0173 322.816 62.8692 322.791 62.7334 322.791C62.2397 322.791 61.8385 323.267 61.8385 324.279V325.464H61.3139V322.353H61.8385V322.983C62.0175 322.588 62.4248 322.304 62.8075 322.304C62.9371 322.304 63.0605 322.322 63.1655 322.359L63.1346 322.865ZM66.4861 325.513C65.5171 325.513 64.9863 324.822 64.9863 323.909C64.9863 322.995 65.5171 322.304 66.48 322.304C66.8935 322.304 67.3008 322.507 67.4983 322.798V321.094H68.023V325.464H67.4983V325.013C67.3564 325.297 66.9429 325.513 66.4861 325.513ZM66.5355 325.044C67.1465 325.044 67.5477 324.594 67.5477 323.909C67.5477 323.223 67.1465 322.773 66.5355 322.773C65.9245 322.773 65.5233 323.223 65.5233 323.909C65.5233 324.594 65.9245 325.044 66.5355 325.044ZM70.0325 322.304C70.7855 322.304 71.3101 322.748 71.3101 323.47V325.464H70.7916V324.933C70.6127 325.291 70.2053 325.513 69.7547 325.513C69.1314 325.513 68.7055 325.131 68.7055 324.594C68.7055 323.995 69.1931 323.668 70.1868 323.569L70.7916 323.501V323.439C70.7916 323.014 70.4892 322.742 70.0325 322.742C69.6066 322.742 69.3042 322.995 69.261 323.415L68.7734 323.322C68.866 322.705 69.3783 322.304 70.0325 322.304ZM69.835 325.081C70.4398 325.081 70.7916 324.68 70.7916 324.057V323.909L70.1868 323.976C69.5572 324.044 69.2301 324.26 69.2301 324.587C69.2301 324.878 69.477 325.081 69.835 325.081ZM73.7991 325.439C73.6448 325.495 73.4781 325.513 73.3115 325.513C72.7807 325.513 72.3919 325.217 72.3919 324.532V322.816H71.8117V322.353H72.3919V321.409H72.9165V322.353H73.7497V322.816H72.9165V324.55C72.9165 324.878 73.1017 325.038 73.3732 325.038C73.4967 325.038 73.6386 325.019 73.7621 324.958L73.7991 325.439ZM75.5174 322.304C76.2703 322.304 76.795 322.748 76.795 323.47V325.464H76.2765V324.933C76.0975 325.291 75.6902 325.513 75.2396 325.513C74.6162 325.513 74.1904 325.131 74.1904 324.594C74.1904 323.995 74.678 323.668 75.6717 323.569L76.2765 323.501V323.439C76.2765 323.014 75.9741 322.742 75.5174 322.742C75.0915 322.742 74.7891 322.995 74.7459 323.415L74.2583 323.322C74.3509 322.705 74.8631 322.304 75.5174 322.304ZM75.3199 325.081C75.9247 325.081 76.2765 324.68 76.2765 324.057V323.909L75.6717 323.976C75.0421 324.044 74.715 324.26 74.715 324.587C74.715 324.878 74.9619 325.081 75.3199 325.081ZM77.3949 326.118L77.7529 324.822H78.4565L77.7652 326.118H77.3949ZM82.771 322.353H83.308L81.6786 326.587H81.1416L81.5921 325.421L80.3763 322.353H80.9441L81.8575 324.736L82.771 322.353ZM85.1125 325.513C84.1867 325.513 83.5325 324.84 83.5325 323.909C83.5325 322.977 84.1867 322.304 85.1125 322.304C86.0321 322.304 86.6987 322.977 86.6987 323.909C86.6987 324.84 86.0321 325.513 85.1125 325.513ZM85.1125 325.044C85.7359 325.044 86.1556 324.575 86.1556 323.909C86.1556 323.242 85.7359 322.773 85.1125 322.773C84.4891 322.773 84.0694 323.242 84.0694 323.909C84.0694 324.575 84.4891 325.044 85.1125 325.044ZM90.0734 322.353V325.464H89.5488V324.878C89.3327 325.248 88.9562 325.513 88.481 325.513C87.8329 325.513 87.37 325.075 87.37 324.415V322.353H87.8947V324.316C87.8947 324.736 88.1601 325.038 88.5983 325.038C89.1784 325.038 89.5488 324.538 89.5488 323.717V322.353H90.0734ZM93.7789 325.513C92.8531 325.513 92.2359 324.871 92.2359 323.909C92.2359 322.946 92.8531 322.304 93.7789 322.304C94.5011 322.304 95.0319 322.699 95.143 323.316L94.6245 323.421C94.5566 323.044 94.2295 322.773 93.7913 322.773C93.1803 322.773 92.7853 323.223 92.7853 323.909C92.7853 324.594 93.1803 325.044 93.7913 325.044C94.2295 325.044 94.5504 324.803 94.6368 324.39L95.1491 324.495C95.0133 325.137 94.4949 325.513 93.7789 325.513ZM96.9325 322.304C97.6855 322.304 98.2101 322.748 98.2101 323.47V325.464H97.6916V324.933C97.5127 325.291 97.1053 325.513 96.6548 325.513C96.0314 325.513 95.6055 325.131 95.6055 324.594C95.6055 323.995 96.0931 323.668 97.0868 323.569L97.6916 323.501V323.439C97.6916 323.014 97.3892 322.742 96.9325 322.742C96.5066 322.742 96.2042 322.995 96.161 323.415L95.6734 323.322C95.766 322.705 96.2783 322.304 96.9325 322.304ZM96.735 325.081C97.3398 325.081 97.6916 324.68 97.6916 324.057V323.909L97.0868 323.976C96.4572 324.044 96.1301 324.26 96.1301 324.587C96.1301 324.878 96.377 325.081 96.735 325.081ZM99.0631 325.464V322.353H99.5877V322.94C99.8037 322.569 100.18 322.304 100.655 322.304C101.304 322.304 101.766 322.742 101.766 323.402V325.464H101.242V323.501C101.242 323.081 100.976 322.779 100.538 322.779C99.958 322.779 99.5877 323.279 99.5877 324.1V325.464H99.0631ZM104.108 326.587V322.353H104.633V322.804C104.799 322.52 105.207 322.304 105.657 322.304C106.614 322.304 107.145 322.995 107.145 323.909C107.145 324.822 106.601 325.513 105.645 325.513C105.25 325.513 104.842 325.316 104.633 325.032V326.587H104.108ZM105.595 325.044C106.213 325.044 106.614 324.594 106.614 323.909C106.614 323.223 106.213 322.773 105.595 322.773C104.991 322.773 104.589 323.223 104.589 323.909C104.589 324.594 104.991 325.044 105.595 325.044ZM108.074 321.767C107.864 321.767 107.71 321.606 107.71 321.403C107.71 321.193 107.864 321.032 108.074 321.032C108.29 321.032 108.45 321.193 108.45 321.403C108.45 321.606 108.29 321.767 108.074 321.767ZM107.815 325.464V322.353H108.339V325.464H107.815ZM110.553 325.513C109.627 325.513 109.01 324.871 109.01 323.909C109.01 322.946 109.627 322.304 110.553 322.304C111.275 322.304 111.806 322.699 111.917 323.316L111.399 323.421C111.331 323.044 111.004 322.773 110.565 322.773C109.954 322.773 109.559 323.223 109.559 323.909C109.559 324.594 109.954 325.044 110.565 325.044C111.004 325.044 111.325 324.803 111.411 324.39L111.923 324.495C111.787 325.137 111.269 325.513 110.553 325.513ZM114.693 325.464L113.521 323.933L113.107 324.31V325.464H112.576V321.094H113.107V323.618L114.545 322.353H115.243L113.91 323.581L115.348 325.464H114.693ZM120.047 322.353V325.464H119.523V324.878C119.307 325.248 118.93 325.513 118.455 325.513C117.807 325.513 117.344 325.075 117.344 324.415V322.353H117.869V324.316C117.869 324.736 118.134 325.038 118.572 325.038C119.152 325.038 119.523 324.538 119.523 323.717V322.353H120.047ZM120.9 326.587V322.353H121.425V322.804C121.591 322.52 121.999 322.304 122.449 322.304C123.406 322.304 123.937 322.995 123.937 323.909C123.937 324.822 123.394 325.513 122.437 325.513C122.042 325.513 121.635 325.316 121.425 325.032V326.587H120.9ZM122.388 325.044C123.005 325.044 123.406 324.594 123.406 323.909C123.406 323.223 123.005 322.773 122.388 322.773C121.783 322.773 121.382 323.223 121.382 323.909C121.382 324.594 121.783 325.044 122.388 325.044ZM126.787 325.464L125.836 322.353H126.373L127.046 324.729L127.774 322.353H128.281L129.009 324.729L129.675 322.353H130.225L129.268 325.464H128.756L128.028 323.1L127.299 325.464H126.787ZM130.809 325.464V321.094H131.334V322.964C131.562 322.52 131.939 322.304 132.395 322.304C133.099 322.304 133.562 322.742 133.562 323.415V325.464H133.037V323.514C133.037 323.057 132.753 322.779 132.278 322.779C131.704 322.779 131.334 323.297 131.334 324.131V325.464H130.809ZM137.228 323.767C137.228 323.841 137.222 323.952 137.216 324.007H134.759C134.796 324.637 135.191 325.05 135.753 325.05C136.228 325.05 136.555 324.828 136.648 324.439L137.141 324.557C136.987 325.161 136.469 325.513 135.753 325.513C134.821 325.513 134.234 324.791 134.234 323.909C134.234 323.026 134.802 322.304 135.74 322.304C136.66 322.304 137.228 322.964 137.228 323.767ZM134.79 323.569H136.672C136.623 323.094 136.29 322.742 135.74 322.742C135.253 322.742 134.895 323.051 134.79 323.569ZM139.724 322.865C139.607 322.816 139.459 322.791 139.323 322.791C138.829 322.791 138.428 323.267 138.428 324.279V325.464H137.903V322.353H138.428V322.983C138.607 322.588 139.014 322.304 139.397 322.304C139.526 322.304 139.65 322.322 139.755 322.359L139.724 322.865ZM142.936 323.767C142.936 323.841 142.93 323.952 142.923 324.007H140.467C140.504 324.637 140.899 325.05 141.461 325.05C141.936 325.05 142.263 324.828 142.356 324.439L142.849 324.557C142.695 325.161 142.177 325.513 141.461 325.513C140.529 325.513 139.942 324.791 139.942 323.909C139.942 323.026 140.51 322.304 141.448 322.304C142.368 322.304 142.936 322.964 142.936 323.767ZM140.498 323.569H142.38C142.331 323.094 141.998 322.742 141.448 322.742C140.961 322.742 140.603 323.051 140.498 323.569ZM147.149 322.353H147.686L146.057 326.587H145.52L145.97 325.421L144.754 322.353H145.322L146.236 324.736L147.149 322.353ZM149.49 325.513C148.565 325.513 147.91 324.84 147.91 323.909C147.91 322.977 148.565 322.304 149.49 322.304C150.41 322.304 151.077 322.977 151.077 323.909C151.077 324.84 150.41 325.513 149.49 325.513ZM149.49 325.044C150.114 325.044 150.534 324.575 150.534 323.909C150.534 323.242 150.114 322.773 149.49 322.773C148.867 322.773 148.447 323.242 148.447 323.909C148.447 324.575 148.867 325.044 149.49 325.044ZM154.451 322.353V325.464H153.927V324.878C153.711 325.248 153.334 325.513 152.859 325.513C152.211 325.513 151.748 325.075 151.748 324.415V322.353H152.273V324.316C152.273 324.736 152.538 325.038 152.976 325.038C153.556 325.038 153.927 324.538 153.927 323.717V322.353H154.451ZM157.762 325.507C157.206 325.563 156.793 325.353 156.793 324.705V321.094H157.318V324.668C157.318 325.007 157.478 325.057 157.737 325.038L157.762 325.507ZM161.187 323.767C161.187 323.841 161.18 323.952 161.174 324.007H158.718C158.755 324.637 159.15 325.05 159.711 325.05C160.187 325.05 160.514 324.828 160.606 324.439L161.1 324.557C160.946 325.161 160.427 325.513 159.711 325.513C158.779 325.513 158.193 324.791 158.193 323.909C158.193 323.026 158.761 322.304 159.699 322.304C160.619 322.304 161.187 322.964 161.187 323.767ZM158.749 323.569H160.631C160.582 323.094 160.248 322.742 159.699 322.742C159.211 322.742 158.854 323.051 158.749 323.569ZM162.086 325.464V322.816H161.555V322.353H162.086V322.063C162.086 321.378 162.475 321.014 163.006 321.014C163.148 321.014 163.296 321.026 163.425 321.063L163.401 321.532C163.29 321.489 163.179 321.471 163.074 321.471C162.796 321.471 162.611 321.687 162.611 322.02V322.353H163.407V322.816H162.611V325.464H162.086ZM165.692 325.439C165.538 325.495 165.371 325.513 165.204 325.513C164.674 325.513 164.285 325.217 164.285 324.532V322.816H163.705V322.353H164.285V321.409H164.809V322.353H165.643V322.816H164.809V324.55C164.809 324.878 164.994 325.038 165.266 325.038C165.389 325.038 165.531 325.019 165.655 324.958L165.692 325.439ZM169.194 325.513C168.268 325.513 167.614 324.84 167.614 323.909C167.614 322.977 168.268 322.304 169.194 322.304C170.113 322.304 170.78 322.977 170.78 323.909C170.78 324.84 170.113 325.513 169.194 325.513ZM169.194 325.044C169.817 325.044 170.237 324.575 170.237 323.909C170.237 323.242 169.817 322.773 169.194 322.773C168.57 322.773 168.151 323.242 168.151 323.909C168.151 324.575 168.57 325.044 169.194 325.044ZM171.676 325.464V322.816H171.145V322.353H171.676V322.063C171.676 321.378 172.064 321.014 172.595 321.014C172.737 321.014 172.885 321.026 173.015 321.063L172.99 321.532C172.879 321.489 172.768 321.471 172.663 321.471C172.385 321.471 172.2 321.687 172.2 322.02V322.353H172.996V322.816H172.2V325.464H171.676ZM173.936 325.464V322.816H173.405V322.353H173.936V322.063C173.936 321.378 174.325 321.014 174.856 321.014C174.997 321.014 175.146 321.026 175.275 321.063L175.251 321.532C175.139 321.489 175.028 321.471 174.923 321.471C174.646 321.471 174.461 321.687 174.461 322.02V322.353H175.257V322.816H174.461V325.464H173.936ZM175.818 325.513C175.596 325.513 175.442 325.359 175.442 325.143C175.442 324.933 175.596 324.773 175.818 324.773C176.028 324.773 176.194 324.933 176.194 325.143C176.194 325.359 176.028 325.513 175.818 325.513Z" fill="#424242"/>
<path d="M58.2062 264.657L56.8276 263.024C56.5231 262.663 55.9838 262.618 55.6232 262.923L54.3172 264.025C53.9566 264.33 53.9111 264.869 54.2156 265.23L55.5942 266.862C55.8988 267.223 56.438 267.268 56.7986 266.964L58.1046 265.861C58.4653 265.556 58.5107 265.017 58.2062 264.657Z" fill="#E59E30"/>
<path d="M69.2572 262.955L67.7463 264.466C67.4126 264.8 67.4126 265.341 67.7463 265.675L68.955 266.883C69.2888 267.217 69.83 267.217 70.1637 266.883L71.6746 265.372C72.0084 265.039 72.0084 264.498 71.6746 264.164L70.4659 262.955C70.1321 262.621 69.591 262.621 69.2572 262.955Z" fill="#E59E30"/>
<path d="M62.9524 283.404C68.9212 283.404 73.7599 278.565 73.7599 272.596C73.7599 266.628 68.9212 261.789 62.9524 261.789C56.9837 261.789 52.145 266.628 52.145 272.596C52.145 278.565 56.9837 283.404 62.9524 283.404Z" fill="#C4D9E9"/>
<g style="mix-blend-mode:multiply">
<g style="mix-blend-mode:multiply">
<path d="M62.9525 274.43C63.3134 274.43 63.6662 274.323 63.9662 274.122C64.2663 273.922 64.5002 273.637 64.6383 273.303C64.7764 272.97 64.8125 272.603 64.7421 272.249C64.6717 271.895 64.4979 271.57 64.2427 271.315C63.9875 271.06 63.6624 270.886 63.3084 270.815C62.9545 270.745 62.5876 270.781 62.2542 270.919C61.9207 271.057 61.6357 271.291 61.4352 271.591C61.2347 271.891 61.1277 272.244 61.1277 272.605C61.1277 273.089 61.32 273.553 61.6622 273.895C62.0044 274.238 62.4685 274.43 62.9525 274.43Z" fill="#FFB036"/>
</g>
</g>
<g style="mix-blend-mode:multiply">
<path d="M62.9525 261.789C60.2798 261.792 57.7039 262.79 55.7255 264.587C53.7471 266.384 52.5077 268.852 52.2481 271.512C51.9886 274.172 52.7275 276.834 54.3211 278.979C55.9148 281.125 58.2494 282.601 60.871 283.121C63.4926 283.641 66.2139 283.168 68.5059 281.793C70.7978 280.418 72.4966 278.24 73.272 275.682C74.0474 273.124 73.8439 270.37 72.7012 267.954C71.5585 265.538 69.5582 263.633 67.0891 262.61C65.7775 262.067 64.3719 261.788 62.9525 261.789ZM62.9525 281.759C60.8328 281.759 58.7786 281.024 57.14 279.679C55.5014 278.334 54.3797 276.463 53.9661 274.384C53.5525 272.305 53.8726 270.147 54.8717 268.278C55.8709 266.408 57.4874 264.943 59.4457 264.132C61.4041 263.321 63.5831 263.214 65.6116 263.829C67.64 264.444 69.3924 265.744 70.5701 267.506C71.7478 269.269 72.278 271.385 72.0702 273.494C71.8625 275.604 70.9298 277.576 69.431 279.075C67.712 280.792 65.3821 281.757 62.9525 281.759Z" fill="#B1CDE2"/>
</g>
<g style="mix-blend-mode:multiply">
<g style="mix-blend-mode:multiply">
<path d="M66.3712 261.183C66.5979 261.183 66.8153 261.093 66.9755 260.933C67.1358 260.772 67.2259 260.555 67.2259 260.328C67.2259 260.102 67.1358 259.884 66.9755 259.724C66.8153 259.564 66.5979 259.474 66.3712 259.474H59.5338C59.3071 259.474 59.0897 259.564 58.9294 259.724C58.7691 259.884 58.6791 260.102 58.6791 260.328C58.6791 260.555 58.7691 260.772 58.9294 260.933C59.0897 261.093 59.3071 261.183 59.5338 261.183H66.3712Z" fill="#A6D4FE"/>
</g>
</g>
<g style="mix-blend-mode:multiply">
<g style="mix-blend-mode:multiply">
<path d="M52.6665 278.704C52.8206 278.704 52.9684 278.636 53.0774 278.516C53.1863 278.396 53.2476 278.233 53.2476 278.063C53.2476 277.893 53.1863 277.73 53.0774 277.61C52.9684 277.489 52.8206 277.422 52.6665 277.422H50.3074C50.1532 277.422 50.0055 277.489 49.8965 277.61C49.7875 277.73 49.7263 277.893 49.7263 278.063C49.7263 278.233 49.7875 278.396 49.8965 278.516C50.0055 278.636 50.1532 278.704 50.3074 278.704H52.6665Z" fill="#A6D4FE"/>
</g>
</g>
<g style="mix-blend-mode:multiply">
<g style="mix-blend-mode:multiply">
<path d="M56.8332 281.267C57.0156 281.267 57.1906 281.2 57.3195 281.08C57.4485 280.959 57.521 280.796 57.521 280.626C57.521 280.456 57.4485 280.293 57.3195 280.173C57.1906 280.053 57.0156 279.985 56.8332 279.985H51.6063C51.4239 279.985 51.249 280.053 51.12 280.173C50.991 280.293 50.9186 280.456 50.9186 280.626C50.9186 280.796 50.991 280.959 51.12 281.08C51.249 281.2 51.4239 281.267 51.6063 281.267H56.8332Z" fill="#A6D4FE"/>
</g>
</g>
<g style="mix-blend-mode:multiply">
<path d="M63.5037 265.883V265.029C63.5037 264.556 63.2167 264.174 62.8627 264.174C62.5087 264.174 62.2217 264.556 62.2217 265.029V265.883C62.2217 266.355 62.5087 266.738 62.8627 266.738C63.2167 266.738 63.5037 266.355 63.5037 265.883Z" fill="#B5CBDF"/>
</g>
<g style="mix-blend-mode:multiply">
<path d="M63.7858 272.323V268.648C63.7858 268.176 63.4031 267.793 62.9311 267.793C62.4591 267.793 62.0764 268.176 62.0764 268.648V272.323C62.0764 272.795 62.4591 273.177 62.9311 273.177C63.4031 273.177 63.7858 272.795 63.7858 272.323Z" fill="#FFB036"/>
</g>
<g style="mix-blend-mode:multiply">
<path d="M63.5294 280.328V279.473C63.5294 279.001 63.2424 278.618 62.8883 278.618C62.5343 278.618 62.2473 279.001 62.2473 279.473V280.328C62.2473 280.8 62.5343 281.182 62.8883 281.182C63.2424 281.182 63.5294 280.8 63.5294 280.328Z" fill="#B5CBDF"/>
</g>
<g style="mix-blend-mode:multiply">
<path d="M56.115 271.866H55.2603C54.7883 271.866 54.4057 272.153 54.4057 272.507C54.4057 272.861 54.7883 273.148 55.2603 273.148H56.115C56.5871 273.148 56.9697 272.861 56.9697 272.507C56.9697 272.153 56.5871 271.866 56.115 271.866Z" fill="#B5CBDF"/>
</g>
<g style="mix-blend-mode:multiply">
<path d="M70.6446 271.866H69.7899C69.3179 271.866 68.9352 272.153 68.9352 272.507C68.9352 272.861 69.3179 273.148 69.7899 273.148H70.6446C71.1166 273.148 71.4993 272.861 71.4993 272.507C71.4993 272.153 71.1166 271.866 70.6446 271.866Z" fill="#B5CBDF"/>
</g>
<rect x="48.1194" y="346.651" width="140.167" height="18.803" rx="4.2734" fill="#014C92"/>
<path d="M105.036 358.882V353.497H106.082V357.974H108.582V358.882H105.036ZM110.959 358.943C109.782 358.943 108.936 358.097 108.936 356.943C108.936 355.79 109.782 354.943 110.959 354.943C112.136 354.943 112.982 355.79 112.982 356.943C112.982 358.097 112.136 358.943 110.959 358.943ZM110.959 358.105C111.582 358.105 112.005 357.636 112.005 356.943C112.005 356.251 111.582 355.782 110.959 355.782C110.329 355.782 109.913 356.251 109.913 356.943C109.913 357.636 110.329 358.105 110.959 358.105ZM115.773 358.066C116.665 358.066 117.203 358.443 117.203 359.151C117.203 360.013 116.357 360.343 115.319 360.343C114.18 360.343 113.434 359.982 113.434 359.228C113.434 358.959 113.588 358.674 113.811 358.49C113.65 358.343 113.557 358.159 113.557 357.936C113.557 357.566 113.78 357.305 114.119 357.159C113.896 356.928 113.773 356.628 113.773 356.274C113.773 355.474 114.403 354.943 115.311 354.943C115.573 354.943 115.811 354.99 116.019 355.074L116.588 354.482L117.15 355.005L116.634 355.543C116.773 355.743 116.857 355.997 116.857 356.274C116.857 357.074 116.227 357.597 115.311 357.597C115.103 357.597 114.903 357.566 114.727 357.52C114.557 357.605 114.48 357.705 114.48 357.82C114.48 357.997 114.642 358.066 114.865 358.066H115.773ZM115.311 355.69C114.95 355.69 114.673 355.913 114.673 356.274C114.673 356.628 114.95 356.851 115.311 356.851C115.665 356.851 115.95 356.628 115.95 356.274C115.95 355.913 115.665 355.69 115.311 355.69ZM115.319 359.566C115.973 359.566 116.265 359.428 116.265 359.166C116.265 358.89 116.011 358.82 115.611 358.82H114.896C114.773 358.82 114.65 358.813 114.534 358.79C114.411 358.92 114.373 359.036 114.373 359.174C114.373 359.436 114.634 359.566 115.319 359.566ZM118.297 354.413C117.951 354.413 117.697 354.151 117.697 353.813C117.697 353.482 117.951 353.22 118.297 353.22C118.651 353.22 118.913 353.482 118.913 353.813C118.913 354.151 118.651 354.413 118.297 354.413ZM117.813 358.882V355.005H118.782V358.882H117.813ZM119.721 358.882V355.005H120.69V355.59C120.936 355.213 121.374 354.943 121.921 354.943C122.767 354.943 123.336 355.497 123.336 356.343V358.882H122.367V356.574C122.367 356.12 122.082 355.805 121.628 355.805C121.036 355.805 120.69 356.313 120.69 357.182V358.882H119.721ZM128.698 354.605L130.936 356.843L128.705 359.074L128.19 358.559L129.49 357.259H125.913V356.428H129.49L128.182 355.128L128.698 354.605Z" fill="#F2F2F2"/>
</g>
</g>
<defs>
<filter id="filter0_d_943_9837" x="20" y="9" width="199.791" height="386" filterUnits="userSpaceOnUse" color-interpolation-filters="sRGB">
<feFlood flood-opacity="0" result="BackgroundImageFix"/>
<feColorMatrix in="SourceAlpha" type="matrix" values="0 0 0 0 0 0 0 0 0 0 0 0 0 0 0 0 0 0 127 0" result="hardAlpha"/>
<feOffset dy="2"/>
<feGaussianBlur stdDeviation="10"/>
<feComposite in2="hardAlpha" operator="out"/>
<feColorMatrix type="matrix" values="0 0 0 0 0.00392157 0 0 0 0 0.298039 0 0 0 0 0.572549 0 0 0 0.1 0"/>
<feBlend mode="normal" in2="BackgroundImageFix" result="effect1_dropShadow_943_9837"/>
<feBlend mode="normal" in="SourceGraphic" in2="effect1_dropShadow_943_9837" result="shape"/>
</filter>
<filter id="filter1_d_943_9837" x="31.4533" y="331.975" width="177.346" height="47.8621" filterUnits="userSpaceOnUse" color-interpolation-filters="sRGB">
<feFlood flood-opacity="0" result="BackgroundImageFix"/>
<feColorMatrix in="SourceAlpha" type="matrix" values="0 0 0 0 0 0 0 0 0 0 0 0 0 0 0 0 0 0 127 0" result="hardAlpha"/>
<feOffset dy="-1.70936"/>
<feGaussianBlur stdDeviation="4.2734"/>
<feComposite in2="hardAlpha" operator="out"/>
<feColorMatrix type="matrix" values="0 0 0 0 0.0040625 0 0 0 0 0.167963 0 0 0 0 0.320937 0 0 0 0.1 0"/>
<feBlend mode="normal" in2="BackgroundImageFix" result="effect1_dropShadow_943_9837"/>
<feBlend mode="normal" in="SourceGraphic" in2="effect1_dropShadow_943_9837" result="shape"/>
</filter>
<clipPath id="clip0_943_9837">
<rect x="40" y="27" width="159.791" height="346" rx="8.59" fill="white"/>
</clipPath>
<clipPath id="clip1_943_9837">
<rect width="10.2562" height="10.2018" fill="white" transform="translate(173.728 154.061)"/>
</clipPath>
</defs>
</svg>
