<svg viewBox="0 0 222 400" fill="none" xmlns="http://www.w3.org/2000/svg">
<rect width="222" height="400" rx="23.0739" fill="#F0F8FF"/>
<g filter="url(#filter0_d_939_10199)">
<g clip-path="url(#clip0_939_10199)">
<rect x="31" y="27" width="160" height="346.453" rx="8.59" fill="white"/>
<rect x="41.4533" y="98.0395" width="139.52" height="15.7867" rx="4.05333" fill="#F8F8F8" stroke="#3480F6" stroke-width="0.426667"/>
<path d="M53.1869 108.921C54.8364 108.921 56.1735 107.583 56.1735 105.934C56.1735 104.284 54.8364 102.947 53.1869 102.947C51.5374 102.947 50.2002 104.284 50.2002 105.934C50.2002 107.583 51.5374 108.921 53.1869 108.921Z" stroke="#676767" stroke-width="0.853333" stroke-linecap="round" stroke-linejoin="round"/>
<path d="M55.3201 108.493L56.6001 109.773" stroke="#676767" stroke-width="0.853333" stroke-linecap="round" stroke-linejoin="round"/>
<path d="M67.4954 105.7C68.3496 105.7 68.9649 106.297 68.9649 107.134C68.9649 107.97 68.3018 108.567 67.376 108.567C66.4322 108.567 65.7691 107.779 65.7691 106.62C65.7691 105.055 66.695 104.29 67.7463 104.29C68.1943 104.29 68.6363 104.434 68.9708 104.715L68.6005 105.306C68.3854 105.121 68.0868 104.989 67.7642 104.989C67.0713 104.989 66.5815 105.491 66.5337 106.196C66.7249 105.885 67.0833 105.7 67.4954 105.7ZM67.3998 107.862C67.8478 107.862 68.1644 107.54 68.1644 107.092C68.1704 106.65 67.8478 106.327 67.3998 106.327C66.9459 106.327 66.6233 106.65 66.6233 107.092C66.6233 107.54 66.9459 107.862 67.3998 107.862ZM71.1763 105.7C72.0304 105.7 72.6457 106.297 72.6457 107.134C72.6457 107.97 71.9827 108.567 71.0568 108.567C70.113 108.567 69.45 107.779 69.45 106.62C69.45 105.055 70.3758 104.29 71.4271 104.29C71.8751 104.29 72.3172 104.434 72.6517 104.715L72.2813 105.306C72.0663 105.121 71.7676 104.989 71.4451 104.989C70.7521 104.989 70.2623 105.491 70.2145 106.196C70.4057 105.885 70.7641 105.7 71.1763 105.7ZM71.0807 107.862C71.5287 107.862 71.8453 107.54 71.8453 107.092C71.8512 106.65 71.5287 106.327 71.0807 106.327C70.6267 106.327 70.3041 106.65 70.3041 107.092C70.3041 107.54 70.6267 107.862 71.0807 107.862ZM74.8272 108.567C73.764 108.567 73.1308 107.719 73.1308 106.429C73.1308 105.139 73.764 104.29 74.8272 104.29C75.8905 104.29 76.5236 105.139 76.5236 106.429C76.5236 107.719 75.8905 108.567 74.8272 108.567ZM74.8272 107.862C75.4007 107.862 75.7113 107.325 75.7113 106.429C75.7113 105.533 75.4007 104.989 74.8272 104.989C74.2538 104.989 73.9491 105.533 73.9491 106.429C73.9491 107.325 74.2538 107.862 74.8272 107.862ZM78.6422 108.567C77.579 108.567 76.9458 107.719 76.9458 106.429C76.9458 105.139 77.579 104.29 78.6422 104.29C79.7055 104.29 80.3386 105.139 80.3386 106.429C80.3386 107.719 79.7055 108.567 78.6422 108.567ZM78.6422 107.862C79.2157 107.862 79.5263 107.325 79.5263 106.429C79.5263 105.533 79.2157 104.989 78.6422 104.989C78.0688 104.989 77.7641 105.533 77.7641 106.429C77.7641 107.325 78.0688 107.862 78.6422 107.862ZM80.8874 108.52C81.0248 107.432 81.7177 106.184 82.6077 105.037H80.4334V104.338H83.444V105.037C82.5121 106.297 81.7894 107.546 81.7057 108.52H80.8874ZM85.1251 108.567C84.259 108.567 83.584 108.083 83.584 107.295C83.584 106.823 83.8827 106.417 84.3307 106.268C83.9902 106.106 83.7632 105.772 83.7632 105.413C83.7632 104.774 84.3068 104.29 85.1251 104.29C85.9315 104.29 86.4751 104.774 86.4751 105.413C86.4751 105.778 86.2481 106.112 85.9016 106.268C86.3556 106.411 86.6543 106.817 86.6543 107.295C86.6543 108.083 85.9793 108.567 85.1251 108.567ZM85.1251 105.969C85.4895 105.969 85.7284 105.76 85.7284 105.443C85.7344 105.121 85.4895 104.918 85.1251 104.918C84.7488 104.918 84.5039 105.121 84.5099 105.443C84.5099 105.76 84.7488 105.969 85.1251 105.969ZM85.1251 107.904C85.5731 107.904 85.8598 107.659 85.8598 107.277C85.8598 106.901 85.5731 106.656 85.1251 106.656C84.6711 106.656 84.3784 106.901 84.3784 107.277C84.3784 107.659 84.6711 107.904 85.1251 107.904ZM88.6928 108.818V104.04H89.5051V108.818H88.6928Z" fill="black"/>
<g filter="url(#filter1_d_939_10199)">
<rect x="41.24" y="128.12" width="139.947" height="37.9733" rx="1.33686" fill="white"/>
</g>
<path d="M61.2319 141.093V136.867H59.7095V136.314H63.3686V136.867H61.8531V141.093H61.2319ZM63.971 141.093V136.259H64.5513V138.328C64.8039 137.836 65.2203 137.598 65.7255 137.598C66.5037 137.598 67.0157 138.082 67.0157 138.826V141.093H66.4355V138.936C66.4355 138.43 66.1214 138.123 65.5958 138.123C64.9609 138.123 64.5513 138.697 64.5513 139.618V141.093H63.971ZM71.0707 139.215C71.0707 139.297 71.0638 139.42 71.057 139.482H68.34C68.381 140.178 68.8179 140.635 69.4391 140.635C69.9648 140.635 70.3266 140.39 70.429 139.96L70.9751 140.089C70.8044 140.758 70.231 141.147 69.4391 141.147C68.4083 141.147 67.7597 140.349 67.7597 139.372C67.7597 138.396 68.3878 137.598 69.4254 137.598C70.4426 137.598 71.0707 138.328 71.0707 139.215ZM68.3741 138.997H70.4563C70.4017 138.471 70.033 138.082 69.4254 138.082C68.8861 138.082 68.4902 138.424 68.3741 138.997ZM73.4644 142.335V137.652H74.0446V138.15C74.229 137.836 74.6795 137.598 75.1779 137.598C76.236 137.598 76.8231 138.362 76.8231 139.372C76.8231 140.383 76.2224 141.147 75.1642 141.147C74.7273 141.147 74.2768 140.929 74.0446 140.615V142.335H73.4644ZM75.1096 140.629C75.7923 140.629 76.236 140.13 76.236 139.372C76.236 138.615 75.7923 138.116 75.1096 138.116C74.4406 138.116 73.9969 138.615 73.9969 139.372C73.9969 140.13 74.4406 140.629 75.1096 140.629ZM77.8511 137.004C77.619 137.004 77.4483 136.826 77.4483 136.601C77.4483 136.369 77.619 136.191 77.8511 136.191C78.09 136.191 78.2675 136.369 78.2675 136.601C78.2675 136.826 78.09 137.004 77.8511 137.004ZM77.5644 141.093V137.652H78.1446V141.093H77.5644ZM79.0844 141.093V137.652H79.6646V138.301C79.9036 137.891 80.32 137.598 80.8457 137.598C81.5625 137.598 82.0745 138.082 82.0745 138.813V141.093H81.4942V138.922C81.4942 138.458 81.2006 138.123 80.716 138.123C80.0742 138.123 79.6646 138.676 79.6646 139.584V141.093H79.0844ZM84.5264 141.147C83.5024 141.147 82.8197 140.437 82.8197 139.372C82.8197 138.307 83.5024 137.598 84.5264 137.598C85.3251 137.598 85.9122 138.034 86.0351 138.717L85.4617 138.833C85.3866 138.417 85.0248 138.116 84.5401 138.116C83.8642 138.116 83.4273 138.615 83.4273 139.372C83.4273 140.13 83.8642 140.629 84.5401 140.629C85.0248 140.629 85.3797 140.362 85.4753 139.905L86.0419 140.021C85.8917 140.731 85.3183 141.147 84.5264 141.147ZM88.314 141.147C87.29 141.147 86.5664 140.403 86.5664 139.372C86.5664 138.342 87.29 137.598 88.314 137.598C89.3312 137.598 90.0685 138.342 90.0685 139.372C90.0685 140.403 89.3312 141.147 88.314 141.147ZM88.314 140.629C89.0035 140.629 89.4677 140.11 89.4677 139.372C89.4677 138.635 89.0035 138.116 88.314 138.116C87.6245 138.116 87.1603 138.635 87.1603 139.372C87.1603 140.11 87.6245 140.629 88.314 140.629ZM92.272 141.147C91.2002 141.147 90.6131 140.383 90.6131 139.372C90.6131 138.362 91.2002 137.598 92.2651 137.598C92.7225 137.598 93.1731 137.823 93.3915 138.144V136.259H93.9718V141.093H93.3915V140.594C93.2345 140.908 92.7771 141.147 92.272 141.147ZM92.3266 140.629C93.0024 140.629 93.4461 140.13 93.4461 139.372C93.4461 138.615 93.0024 138.116 92.3266 138.116C91.6507 138.116 91.207 138.615 91.207 139.372C91.207 140.13 91.6507 140.629 92.3266 140.629ZM98.024 139.215C98.024 139.297 98.0172 139.42 98.0103 139.482H95.2933C95.3343 140.178 95.7712 140.635 96.3924 140.635C96.9181 140.635 97.2799 140.39 97.3823 139.96L97.9284 140.089C97.7578 140.758 97.1843 141.147 96.3924 141.147C95.3616 141.147 94.7131 140.349 94.7131 139.372C94.7131 138.396 95.3411 137.598 96.3788 137.598C97.3959 137.598 98.024 138.328 98.024 139.215ZM95.3275 138.997H97.4096C97.355 138.471 96.9863 138.082 96.3788 138.082C95.8395 138.082 95.4435 138.424 95.3275 138.997ZM102.684 137.652H103.278L101.476 142.335H100.882L101.38 141.045L100.035 137.652H100.663L101.674 140.287L102.684 137.652ZM105.274 141.147C104.25 141.147 103.526 140.403 103.526 139.372C103.526 138.342 104.25 137.598 105.274 137.598C106.291 137.598 107.028 138.342 107.028 139.372C107.028 140.403 106.291 141.147 105.274 141.147ZM105.274 140.629C105.964 140.629 106.428 140.11 106.428 139.372C106.428 138.635 105.964 138.116 105.274 138.116C104.585 138.116 104.12 138.635 104.12 139.372C104.12 140.11 104.585 140.629 105.274 140.629ZM110.761 137.652V141.093H110.181V140.444C109.942 140.854 109.525 141.147 109 141.147C108.283 141.147 107.771 140.663 107.771 139.932V137.652H108.351V139.823C108.351 140.287 108.645 140.622 109.13 140.622C109.771 140.622 110.181 140.069 110.181 139.161V137.652H110.761ZM114.505 141.147C113.672 141.147 113.221 140.629 113.071 140.144L113.569 139.925C113.699 140.328 113.972 140.656 114.505 140.656C114.928 140.656 115.201 140.41 115.201 140.13C115.201 139.25 113.221 139.816 113.221 138.512C113.221 137.966 113.692 137.598 114.43 137.598C115.037 137.598 115.563 137.939 115.706 138.444L115.222 138.656C115.126 138.301 114.785 138.075 114.416 138.075C114.027 138.075 113.781 138.232 113.781 138.505C113.781 139.243 115.775 138.703 115.768 140.123C115.768 140.724 115.263 141.147 114.505 141.147ZM119.591 139.215C119.591 139.297 119.584 139.42 119.577 139.482H116.86C116.901 140.178 117.338 140.635 117.959 140.635C118.485 140.635 118.847 140.39 118.949 139.96L119.495 140.089C119.324 140.758 118.751 141.147 117.959 141.147C116.928 141.147 116.28 140.349 116.28 139.372C116.28 138.396 116.908 137.598 117.945 137.598C118.963 137.598 119.591 138.328 119.591 139.215ZM116.894 138.997H118.976C118.922 138.471 118.553 138.082 117.945 138.082C117.406 138.082 117.01 138.424 116.894 138.997ZM121.588 137.598C122.421 137.598 123.001 138.089 123.001 138.888V141.093H122.427V140.506C122.229 140.902 121.779 141.147 121.281 141.147C120.591 141.147 120.12 140.724 120.12 140.13C120.12 139.468 120.659 139.106 121.758 138.997L122.427 138.922V138.854C122.427 138.383 122.093 138.082 121.588 138.082C121.117 138.082 120.782 138.362 120.734 138.826L120.195 138.724C120.298 138.041 120.864 137.598 121.588 137.598ZM121.369 140.67C122.038 140.67 122.427 140.226 122.427 139.536V139.372L121.758 139.448C121.062 139.523 120.7 139.762 120.7 140.123C120.7 140.444 120.973 140.67 121.369 140.67ZM125.958 138.219C125.829 138.164 125.665 138.137 125.515 138.137C124.968 138.137 124.525 138.662 124.525 139.782V141.093H123.944V137.652H124.525V138.348C124.723 137.912 125.173 137.598 125.596 137.598C125.74 137.598 125.876 137.618 125.992 137.659L125.958 138.219ZM127.906 141.147C126.882 141.147 126.2 140.437 126.2 139.372C126.2 138.307 126.882 137.598 127.906 137.598C128.705 137.598 129.292 138.034 129.415 138.717L128.842 138.833C128.767 138.417 128.405 138.116 127.92 138.116C127.244 138.116 126.807 138.615 126.807 139.372C126.807 140.13 127.244 140.629 127.92 140.629C128.405 140.629 128.76 140.362 128.855 139.905L129.422 140.021C129.272 140.731 128.698 141.147 127.906 141.147ZM130.144 141.093V136.259H130.725V138.328C130.977 137.836 131.394 137.598 131.899 137.598C132.677 137.598 133.189 138.082 133.189 138.826V141.093H132.609V138.936C132.609 138.43 132.295 138.123 131.769 138.123C131.134 138.123 130.725 138.697 130.725 139.618V141.093H130.144ZM137.244 139.215C137.244 139.297 137.237 139.42 137.23 139.482H134.513C134.554 140.178 134.991 140.635 135.612 140.635C136.138 140.635 136.5 140.39 136.602 139.96L137.148 140.089C136.978 140.758 136.404 141.147 135.612 141.147C134.582 141.147 133.933 140.349 133.933 139.372C133.933 138.396 134.561 137.598 135.599 137.598C136.616 137.598 137.244 138.328 137.244 139.215ZM134.547 138.997H136.63C136.575 138.471 136.206 138.082 135.599 138.082C135.059 138.082 134.664 138.424 134.547 138.997ZM139.452 141.147C138.38 141.147 137.793 140.383 137.793 139.372C137.793 138.362 138.38 137.598 139.445 137.598C139.903 137.598 140.353 137.823 140.572 138.144V136.259H141.152V141.093H140.572V140.594C140.415 140.908 139.957 141.147 139.452 141.147ZM139.507 140.629C140.182 140.629 140.626 140.13 140.626 139.372C140.626 138.615 140.182 138.116 139.507 138.116C138.831 138.116 138.387 138.615 138.387 139.372C138.387 140.13 138.831 140.629 139.507 140.629ZM144.079 141.093V138.164H143.492V137.652H144.079V137.331C144.079 136.574 144.509 136.171 145.096 136.171C145.253 136.171 145.417 136.184 145.56 136.225L145.533 136.744C145.41 136.696 145.287 136.676 145.171 136.676C144.864 136.676 144.659 136.915 144.659 137.283V137.652H145.54V138.164H144.659V141.093H144.079ZM147.561 141.147C146.537 141.147 145.813 140.403 145.813 139.372C145.813 138.342 146.537 137.598 147.561 137.598C148.578 137.598 149.315 138.342 149.315 139.372C149.315 140.403 148.578 141.147 147.561 141.147ZM147.561 140.629C148.25 140.629 148.714 140.11 148.714 139.372C148.714 138.635 148.25 138.116 147.561 138.116C146.871 138.116 146.407 138.635 146.407 139.372C146.407 140.11 146.871 140.629 147.561 140.629ZM152.072 138.219C151.942 138.164 151.778 138.137 151.628 138.137C151.082 138.137 150.638 138.662 150.638 139.782V141.093H150.058V137.652H150.638V138.348C150.836 137.912 151.287 137.598 151.71 137.598C151.853 137.598 151.99 137.618 152.106 137.659L152.072 138.219ZM154.604 137.004C154.372 137.004 154.202 136.826 154.202 136.601C154.202 136.369 154.372 136.191 154.604 136.191C154.843 136.191 155.021 136.369 155.021 136.601C155.021 136.826 154.843 137.004 154.604 137.004ZM154.318 141.093V137.652H154.898V141.093H154.318ZM156.991 141.147C156.159 141.147 155.708 140.629 155.558 140.144L156.056 139.925C156.186 140.328 156.459 140.656 156.991 140.656C157.415 140.656 157.688 140.41 157.688 140.13C157.688 139.25 155.708 139.816 155.708 138.512C155.708 137.966 156.179 137.598 156.916 137.598C157.524 137.598 158.05 137.939 158.193 138.444L157.708 138.656C157.613 138.301 157.271 138.075 156.903 138.075C156.514 138.075 156.268 138.232 156.268 138.505C156.268 139.243 158.261 138.703 158.254 140.123C158.254 140.724 157.749 141.147 156.991 141.147ZM61.6074 149.147C60.5834 149.147 59.8597 148.403 59.8597 147.372C59.8597 146.342 60.5834 145.598 61.6074 145.598C62.6245 145.598 63.3618 146.342 63.3618 147.372C63.3618 148.403 62.6245 149.147 61.6074 149.147ZM61.6074 148.629C62.2969 148.629 62.7611 148.11 62.7611 147.372C62.7611 146.635 62.2969 146.116 61.6074 146.116C60.9179 146.116 60.4537 146.635 60.4537 147.372C60.4537 148.11 60.9179 148.629 61.6074 148.629ZM67.0945 145.652V149.093H66.5142V148.444C66.2753 148.854 65.8588 149.147 65.3332 149.147C64.6164 149.147 64.1044 148.663 64.1044 147.932V145.652H64.6846V147.823C64.6846 148.287 64.9782 148.622 65.4629 148.622C66.1046 148.622 66.5142 148.069 66.5142 147.161V145.652H67.0945ZM69.8673 149.065C69.6966 149.127 69.5123 149.147 69.328 149.147C68.7409 149.147 68.3108 148.82 68.3108 148.062V146.164H67.6691V145.652H68.3108V144.608H68.891V145.652H69.8126V146.164H68.891V148.082C68.891 148.444 69.0958 148.622 69.3962 148.622C69.5328 148.622 69.6898 148.601 69.8263 148.533L69.8673 149.065ZM71.7447 149.147C70.9119 149.147 70.4613 148.629 70.3111 148.144L70.8095 147.925C70.9392 148.328 71.2123 148.656 71.7447 148.656C72.168 148.656 72.4411 148.41 72.4411 148.13C72.4411 147.25 70.4613 147.816 70.4613 146.512C70.4613 145.966 70.9324 145.598 71.6697 145.598C72.2772 145.598 72.8029 145.939 72.9462 146.444L72.4615 146.656C72.366 146.301 72.0246 146.075 71.656 146.075C71.2669 146.075 71.0211 146.232 71.0211 146.505C71.0211 147.243 73.0145 146.703 73.0077 148.123C73.0077 148.724 72.5025 149.147 71.7447 149.147ZM74.0311 145.004C73.799 145.004 73.6283 144.826 73.6283 144.601C73.6283 144.369 73.799 144.191 74.0311 144.191C74.27 144.191 74.4475 144.369 74.4475 144.601C74.4475 144.826 74.27 145.004 74.0311 145.004ZM73.7444 149.093V145.652H74.3246V149.093H73.7444ZM76.7253 149.147C75.6535 149.147 75.0664 148.383 75.0664 147.372C75.0664 146.362 75.6535 145.598 76.7185 145.598C77.1758 145.598 77.6264 145.823 77.8449 146.144V144.259H78.4251V149.093H77.8449V148.594C77.6878 148.908 77.2305 149.147 76.7253 149.147ZM76.7799 148.629C77.4557 148.629 77.8995 148.13 77.8995 147.372C77.8995 146.615 77.4557 146.116 76.7799 146.116C76.1041 146.116 75.6603 146.615 75.6603 147.372C75.6603 148.13 76.1041 148.629 76.7799 148.629ZM82.4773 147.215C82.4773 147.297 82.4705 147.42 82.4637 147.482H79.7467C79.7876 148.178 80.2245 148.635 80.8458 148.635C81.3714 148.635 81.7332 148.39 81.8356 147.96L82.3818 148.089C82.2111 148.758 81.6377 149.147 80.8458 149.147C79.8149 149.147 79.1664 148.349 79.1664 147.372C79.1664 146.396 79.7945 145.598 80.8321 145.598C81.8493 145.598 82.4773 146.328 82.4773 147.215ZM79.7808 146.997H81.8629C81.8083 146.471 81.4397 146.082 80.8321 146.082C80.2928 146.082 79.8969 146.424 79.7808 146.997ZM86.0248 149.147C85.1919 149.147 84.7413 148.629 84.5912 148.144L85.0895 147.925C85.2192 148.328 85.4923 148.656 86.0248 148.656C86.448 148.656 86.7211 148.41 86.7211 148.13C86.7211 147.25 84.7413 147.816 84.7413 146.512C84.7413 145.966 85.2124 145.598 85.9497 145.598C86.5572 145.598 87.0829 145.939 87.2262 146.444L86.7416 146.656C86.646 146.301 86.3046 146.075 85.936 146.075C85.5469 146.075 85.3011 146.232 85.3011 146.505C85.3011 147.243 87.2945 146.703 87.2877 148.123C87.2877 148.724 86.7825 149.147 86.0248 149.147ZM89.8073 149.065C89.6366 149.127 89.4523 149.147 89.268 149.147C88.6809 149.147 88.2508 148.82 88.2508 148.062V146.164H87.6091V145.652H88.2508V144.608H88.831V145.652H89.7526V146.164H88.831V148.082C88.831 148.444 89.0358 148.622 89.3362 148.622C89.4728 148.622 89.6298 148.601 89.7663 148.533L89.8073 149.065ZM91.7078 145.598C92.5406 145.598 93.1209 146.089 93.1209 146.888V149.093H92.5475V148.506C92.3495 148.902 91.8989 149.147 91.4006 149.147C90.7111 149.147 90.2401 148.724 90.2401 148.13C90.2401 147.468 90.7794 147.106 91.8785 146.997L92.5475 146.922V146.854C92.5475 146.383 92.213 146.082 91.7078 146.082C91.2368 146.082 90.9022 146.362 90.8545 146.826L90.3152 146.724C90.4176 146.041 90.9842 145.598 91.7078 145.598ZM91.4893 148.67C92.1584 148.67 92.5475 148.226 92.5475 147.536V147.372L91.8785 147.448C91.1821 147.523 90.8203 147.762 90.8203 148.123C90.8203 148.444 91.0934 148.67 91.4893 148.67ZM95.8739 149.065C95.7033 149.127 95.5189 149.147 95.3346 149.147C94.7475 149.147 94.3174 148.82 94.3174 148.062V146.164H93.6757V145.652H94.3174V144.608H94.8977V145.652H95.8193V146.164H94.8977V148.082C94.8977 148.444 95.1025 148.622 95.4029 148.622C95.5394 148.622 95.6964 148.601 95.833 148.533L95.8739 149.065ZM99.5773 147.215C99.5773 147.297 99.5705 147.42 99.5637 147.482H96.8467C96.8876 148.178 97.3245 148.635 97.9458 148.635C98.4714 148.635 98.8332 148.39 98.9356 147.96L99.4818 148.089C99.3111 148.758 98.7377 149.147 97.9458 149.147C96.9149 149.147 96.2664 148.349 96.2664 147.372C96.2664 146.396 96.8945 145.598 97.9321 145.598C98.9493 145.598 99.5773 146.328 99.5773 147.215ZM96.8808 146.997H98.9629C98.9083 146.471 98.5397 146.082 97.9321 146.082C97.3928 146.082 96.9969 146.424 96.8808 146.997ZM103.043 149.141C102.428 149.202 101.971 148.97 101.971 148.253V144.259H102.551V148.212C102.551 148.588 102.729 148.642 103.016 148.622L103.043 149.141ZM104.004 145.004C103.772 145.004 103.602 144.826 103.602 144.601C103.602 144.369 103.772 144.191 104.004 144.191C104.243 144.191 104.421 144.369 104.421 144.601C104.421 144.826 104.243 145.004 104.004 145.004ZM103.718 149.093V145.652H104.298V149.093H103.718ZM105.238 149.093V145.652H105.818V146.301C105.989 145.891 106.33 145.598 106.856 145.598C107.415 145.598 107.852 145.857 107.975 146.321C108.16 145.912 108.569 145.598 109.088 145.598C109.825 145.598 110.289 146.062 110.289 146.785V149.093H109.709V146.901C109.709 146.43 109.443 146.11 108.958 146.11C108.371 146.11 108.05 146.635 108.05 147.366V149.093H107.47V146.901C107.47 146.43 107.204 146.11 106.726 146.11C106.139 146.11 105.818 146.635 105.818 147.366V149.093H105.238ZM111.518 145.004C111.286 145.004 111.115 144.826 111.115 144.601C111.115 144.369 111.286 144.191 111.518 144.191C111.757 144.191 111.934 144.369 111.934 144.601C111.934 144.826 111.757 145.004 111.518 145.004ZM111.231 149.093V145.652H111.811V149.093H111.231ZM114.581 149.065C114.41 149.127 114.226 149.147 114.041 149.147C113.454 149.147 113.024 148.82 113.024 148.062V146.164H112.382V145.652H113.024V144.608H113.604V145.652H114.526V146.164H113.604V148.082C113.604 148.444 113.809 148.622 114.11 148.622C114.246 148.622 114.403 148.601 114.54 148.533L114.581 149.065ZM116.458 149.147C115.625 149.147 115.175 148.629 115.024 148.144L115.523 147.925C115.653 148.328 115.926 148.656 116.458 148.656C116.881 148.656 117.154 148.41 117.154 148.13C117.154 147.25 115.175 147.816 115.175 146.512C115.175 145.966 115.646 145.598 116.383 145.598C116.991 145.598 117.516 145.939 117.66 146.444L117.175 146.656C117.079 146.301 116.738 146.075 116.369 146.075C115.98 146.075 115.734 146.232 115.734 146.505C115.734 147.243 117.728 146.703 117.721 148.123C117.721 148.724 117.216 149.147 116.458 149.147ZM118.044 149.816L118.44 148.383H119.219L118.454 149.816H118.044ZM123.008 145.598C123.841 145.598 124.421 146.089 124.421 146.888V149.093H123.847V148.506C123.649 148.902 123.199 149.147 122.701 149.147C122.011 149.147 121.54 148.724 121.54 148.13C121.54 147.468 122.079 147.106 123.178 146.997L123.847 146.922V146.854C123.847 146.383 123.513 146.082 123.008 146.082C122.537 146.082 122.202 146.362 122.154 146.826L121.615 146.724C121.718 146.041 122.284 145.598 123.008 145.598ZM122.789 148.67C123.458 148.67 123.847 148.226 123.847 147.536V147.372L123.178 147.448C122.482 147.523 122.12 147.762 122.12 148.123C122.12 148.444 122.393 148.67 122.789 148.67ZM126.518 149.147C125.685 149.147 125.235 148.629 125.084 148.144L125.583 147.925C125.713 148.328 125.986 148.656 126.518 148.656C126.941 148.656 127.214 148.41 127.214 148.13C127.214 147.25 125.235 147.816 125.235 146.512C125.235 145.966 125.706 145.598 126.443 145.598C127.051 145.598 127.576 145.939 127.72 146.444L127.235 146.656C127.139 146.301 126.798 146.075 126.429 146.075C126.04 146.075 125.794 146.232 125.794 146.505C125.794 147.243 127.788 146.703 127.781 148.123C127.781 148.724 127.276 149.147 126.518 149.147ZM130.164 150.335V145.652H130.745V146.15C130.929 145.836 131.38 145.598 131.878 145.598C132.936 145.598 133.523 146.362 133.523 147.372C133.523 148.383 132.922 149.147 131.864 149.147C131.427 149.147 130.977 148.929 130.745 148.615V150.335H130.164ZM131.81 148.629C132.492 148.629 132.936 148.13 132.936 147.372C132.936 146.615 132.492 146.116 131.81 146.116C131.141 146.116 130.697 146.615 130.697 147.372C130.697 148.13 131.141 148.629 131.81 148.629ZM137.377 147.215C137.377 147.297 137.371 147.42 137.364 147.482H134.647C134.688 148.178 135.125 148.635 135.746 148.635C136.271 148.635 136.633 148.39 136.736 147.96L137.282 148.089C137.111 148.758 136.538 149.147 135.746 149.147C134.715 149.147 134.066 148.349 134.066 147.372C134.066 146.396 134.694 145.598 135.732 145.598C136.749 145.598 137.377 146.328 137.377 147.215ZM134.681 146.997H136.763C136.708 146.471 136.34 146.082 135.732 146.082C135.193 146.082 134.797 146.424 134.681 146.997ZM140.138 146.219C140.009 146.164 139.845 146.137 139.695 146.137C139.148 146.137 138.705 146.662 138.705 147.782V149.093H138.124V145.652H138.705V146.348C138.903 145.912 139.353 145.598 139.776 145.598C139.92 145.598 140.056 145.618 140.172 145.659L140.138 146.219ZM144.214 149.065C144.043 149.127 143.859 149.147 143.675 149.147C143.088 149.147 142.657 148.82 142.657 148.062V146.164H142.016V145.652H142.657V144.608H143.238V145.652H144.159V146.164H143.238V148.082C143.238 148.444 143.443 148.622 143.743 148.622C143.879 148.622 144.036 148.601 144.173 148.533L144.214 149.065ZM144.951 149.093V144.259H145.531V146.328C145.784 145.836 146.2 145.598 146.705 145.598C147.484 145.598 147.996 146.082 147.996 146.826V149.093H147.415V146.936C147.415 146.43 147.101 146.123 146.576 146.123C145.941 146.123 145.531 146.697 145.531 147.618V149.093H144.951ZM152.051 147.215C152.051 147.297 152.044 147.42 152.037 147.482H149.32C149.361 148.178 149.798 148.635 150.419 148.635C150.945 148.635 151.307 148.39 151.409 147.96L151.955 148.089C151.784 148.758 151.211 149.147 150.419 149.147C149.388 149.147 148.74 148.349 148.74 147.372C148.74 146.396 149.368 145.598 150.405 145.598C151.423 145.598 152.051 146.328 152.051 147.215ZM149.354 146.997H151.436C151.382 146.471 151.013 146.082 150.405 146.082C149.866 146.082 149.47 146.424 149.354 146.997ZM61.7576 157.147C61.2524 157.147 60.795 156.908 60.638 156.594V157.093H60.0577V152.259H60.638V154.144C60.8564 153.823 61.307 153.598 61.7644 153.598C62.8293 153.598 63.4164 154.362 63.4164 155.372C63.4164 156.383 62.8293 157.147 61.7576 157.147ZM61.7029 156.629C62.3788 156.629 62.8225 156.13 62.8225 155.372C62.8225 154.615 62.3788 154.116 61.7029 154.116C61.0271 154.116 60.5902 154.615 60.5902 155.372C60.5902 156.13 61.0271 156.629 61.7029 156.629ZM67.1478 153.652V157.093H66.5675V156.444C66.3286 156.854 65.9122 157.147 65.3865 157.147C64.6697 157.147 64.1577 156.663 64.1577 155.932V153.652H64.738V155.823C64.738 156.287 65.0315 156.622 65.5162 156.622C66.1579 156.622 66.5675 156.069 66.5675 155.161V153.652H67.1478ZM69.2447 157.147C68.4119 157.147 67.9613 156.629 67.8111 156.144L68.3095 155.925C68.4392 156.328 68.7123 156.656 69.2447 156.656C69.668 156.656 69.9411 156.41 69.9411 156.13C69.9411 155.25 67.9613 155.816 67.9613 154.512C67.9613 153.966 68.4324 153.598 69.1697 153.598C69.7772 153.598 70.3029 153.939 70.4462 154.444L69.9615 154.656C69.866 154.301 69.5246 154.075 69.156 154.075C68.7669 154.075 68.5211 154.232 68.5211 154.505C68.5211 155.243 70.5145 154.703 70.5077 156.123C70.5077 156.724 70.0025 157.147 69.2447 157.147ZM71.5311 153.004C71.299 153.004 71.1283 152.826 71.1283 152.601C71.1283 152.369 71.299 152.191 71.5311 152.191C71.77 152.191 71.9475 152.369 71.9475 152.601C71.9475 152.826 71.77 153.004 71.5311 153.004ZM71.2444 157.093V153.652H71.8246V157.093H71.2444ZM72.7644 157.093V153.652H73.3446V154.301C73.5836 153.891 74 153.598 74.5257 153.598C75.2425 153.598 75.7545 154.082 75.7545 154.813V157.093H75.1742V154.922C75.1742 154.458 74.8806 154.123 74.396 154.123C73.7542 154.123 73.3446 154.676 73.3446 155.584V157.093H72.7644ZM79.8107 155.215C79.8107 155.297 79.8038 155.42 79.797 155.482H77.08C77.121 156.178 77.5579 156.635 78.1791 156.635C78.7047 156.635 79.0666 156.39 79.169 155.96L79.7151 156.089C79.5444 156.758 78.971 157.147 78.1791 157.147C77.1483 157.147 76.4997 156.349 76.4997 155.372C76.4997 154.396 77.1278 153.598 78.1654 153.598C79.1826 153.598 79.8107 154.328 79.8107 155.215ZM77.1141 154.997H79.1963C79.1417 154.471 78.773 154.082 78.1654 154.082C77.6261 154.082 77.2302 154.424 77.1141 154.997ZM81.6781 157.147C80.8452 157.147 80.3947 156.629 80.2445 156.144L80.7428 155.925C80.8725 156.328 81.1456 156.656 81.6781 156.656C82.1013 156.656 82.3744 156.41 82.3744 156.13C82.3744 155.25 80.3947 155.816 80.3947 154.512C80.3947 153.966 80.8657 153.598 81.603 153.598C82.2106 153.598 82.7362 153.939 82.8796 154.444L82.3949 154.656C82.2993 154.301 81.958 154.075 81.5893 154.075C81.2002 154.075 80.9545 154.232 80.9545 154.505C80.9545 155.243 82.9478 154.703 82.941 156.123C82.941 156.724 82.4358 157.147 81.6781 157.147ZM84.8314 157.147C83.9986 157.147 83.548 156.629 83.3978 156.144L83.8962 155.925C84.0259 156.328 84.2989 156.656 84.8314 156.656C85.2547 156.656 85.5277 156.41 85.5277 156.13C85.5277 155.25 83.548 155.816 83.548 154.512C83.548 153.966 84.019 153.598 84.7563 153.598C85.3639 153.598 85.8896 153.939 86.0329 154.444L85.5482 154.656C85.4526 154.301 85.1113 154.075 84.7427 154.075C84.3536 154.075 84.1078 154.232 84.1078 154.505C84.1078 155.243 86.1012 154.703 86.0944 156.123C86.0944 156.724 85.5892 157.147 84.8314 157.147ZM89.7611 153.598C90.594 153.598 91.1742 154.089 91.1742 154.888V157.093H90.6008V156.506C90.4028 156.902 89.9523 157.147 89.4539 157.147C88.7644 157.147 88.2934 156.724 88.2934 156.13C88.2934 155.468 88.8327 155.106 89.9318 154.997L90.6008 154.922V154.854C90.6008 154.383 90.2663 154.082 89.7611 154.082C89.2901 154.082 88.9556 154.362 88.9078 154.826L88.3685 154.724C88.4709 154.041 89.0375 153.598 89.7611 153.598ZM89.5427 156.67C90.2117 156.67 90.6008 156.226 90.6008 155.536V155.372L89.9318 155.448C89.2355 155.523 88.8737 155.762 88.8737 156.123C88.8737 156.444 89.1467 156.67 89.5427 156.67ZM93.5786 157.147C92.5068 157.147 91.9197 156.383 91.9197 155.372C91.9197 154.362 92.5068 153.598 93.5718 153.598C94.0292 153.598 94.4797 153.823 94.6982 154.144V152.259H95.2785V157.093H94.6982V156.594C94.5412 156.908 94.0838 157.147 93.5786 157.147ZM93.6332 156.629C94.3091 156.629 94.7528 156.13 94.7528 155.372C94.7528 154.615 94.3091 154.116 93.6332 154.116C92.9574 154.116 92.5137 154.615 92.5137 155.372C92.5137 156.13 92.9574 156.629 93.6332 156.629ZM97.6786 157.147C96.6068 157.147 96.0197 156.383 96.0197 155.372C96.0197 154.362 96.6068 153.598 97.6718 153.598C98.1292 153.598 98.5797 153.823 98.7982 154.144V152.259H99.3785V157.093H98.7982V156.594C98.6412 156.908 98.1838 157.147 97.6786 157.147ZM97.7332 156.629C98.4091 156.629 98.8528 156.13 98.8528 155.372C98.8528 154.615 98.4091 154.116 97.7332 154.116C97.0574 154.116 96.6137 154.615 96.6137 155.372C96.6137 156.13 97.0574 156.629 97.7332 156.629ZM102.332 154.219C102.202 154.164 102.038 154.137 101.888 154.137C101.342 154.137 100.898 154.662 100.898 155.782V157.093H100.318V153.652H100.898V154.348C101.096 153.912 101.547 153.598 101.97 153.598C102.113 153.598 102.25 153.618 102.366 153.659L102.332 154.219ZM105.884 155.215C105.884 155.297 105.877 155.42 105.87 155.482H103.153C103.194 156.178 103.631 156.635 104.252 156.635C104.778 156.635 105.14 156.39 105.242 155.96L105.788 156.089C105.618 156.758 105.044 157.147 104.252 157.147C103.222 157.147 102.573 156.349 102.573 155.372C102.573 154.396 103.201 153.598 104.239 153.598C105.256 153.598 105.884 154.328 105.884 155.215ZM103.187 154.997H105.27C105.215 154.471 104.846 154.082 104.239 154.082C103.699 154.082 103.304 154.424 103.187 154.997ZM107.751 157.147C106.919 157.147 106.468 156.629 106.318 156.144L106.816 155.925C106.946 156.328 107.219 156.656 107.751 156.656C108.175 156.656 108.448 156.41 108.448 156.13C108.448 155.25 106.468 155.816 106.468 154.512C106.468 153.966 106.939 153.598 107.676 153.598C108.284 153.598 108.81 153.939 108.953 154.444L108.468 154.656C108.373 154.301 108.031 154.075 107.663 154.075C107.274 154.075 107.028 154.232 107.028 154.505C107.028 155.243 109.021 154.703 109.014 156.123C109.014 156.724 108.509 157.147 107.751 157.147ZM110.905 157.147C110.072 157.147 109.621 156.629 109.471 156.144L109.969 155.925C110.099 156.328 110.372 156.656 110.905 156.656C111.328 156.656 111.601 156.41 111.601 156.13C111.601 155.25 109.621 155.816 109.621 154.512C109.621 153.966 110.092 153.598 110.83 153.598C111.437 153.598 111.963 153.939 112.106 154.444L111.622 154.656C111.526 154.301 111.185 154.075 110.816 154.075C110.427 154.075 110.181 154.232 110.181 154.505C110.181 155.243 112.175 154.703 112.168 156.123C112.168 156.724 111.663 157.147 110.905 157.147ZM116.06 157.147C115.036 157.147 114.353 156.437 114.353 155.372C114.353 154.307 115.036 153.598 116.06 153.598C116.858 153.598 117.446 154.034 117.568 154.717L116.995 154.833C116.92 154.417 116.558 154.116 116.073 154.116C115.398 154.116 114.961 154.615 114.961 155.372C114.961 156.13 115.398 156.629 116.073 156.629C116.558 156.629 116.913 156.362 117.009 155.905L117.575 156.021C117.425 156.731 116.852 157.147 116.06 157.147ZM119.847 157.147C118.823 157.147 118.1 156.403 118.1 155.372C118.1 154.342 118.823 153.598 119.847 153.598C120.865 153.598 121.602 154.342 121.602 155.372C121.602 156.403 120.865 157.147 119.847 157.147ZM119.847 156.629C120.537 156.629 121.001 156.11 121.001 155.372C121.001 154.635 120.537 154.116 119.847 154.116C119.158 154.116 118.694 154.635 118.694 155.372C118.694 156.11 119.158 156.629 119.847 156.629ZM122.344 157.093V153.652H122.925V154.301C123.164 153.891 123.58 153.598 124.106 153.598C124.822 153.598 125.334 154.082 125.334 154.813V157.093H124.754V154.922C124.754 154.458 124.461 154.123 123.976 154.123C123.334 154.123 122.925 154.676 122.925 155.584V157.093H122.344ZM126.519 157.093V154.164H125.932V153.652H126.519V153.331C126.519 152.574 126.949 152.171 127.536 152.171C127.693 152.171 127.857 152.184 128 152.225L127.973 152.744C127.85 152.696 127.727 152.676 127.611 152.676C127.304 152.676 127.099 152.915 127.099 153.283V153.652H127.98V154.164H127.099V157.093H126.519ZM128.964 153.004C128.732 153.004 128.562 152.826 128.562 152.601C128.562 152.369 128.732 152.191 128.964 152.191C129.203 152.191 129.381 152.369 129.381 152.601C129.381 152.826 129.203 153.004 128.964 153.004ZM128.678 157.093V153.652H129.258V157.093H128.678ZM132.212 154.219C132.082 154.164 131.918 154.137 131.768 154.137C131.222 154.137 130.778 154.662 130.778 155.782V157.093H130.198V153.652H130.778V154.348C130.976 153.912 131.427 153.598 131.85 153.598C131.993 153.598 132.13 153.618 132.246 153.659L132.212 154.219ZM132.811 157.093V153.652H133.391V154.301C133.562 153.891 133.903 153.598 134.429 153.598C134.989 153.598 135.426 153.857 135.549 154.321C135.733 153.912 136.142 153.598 136.661 153.598C137.399 153.598 137.863 154.062 137.863 154.785V157.093H137.283V154.901C137.283 154.43 137.016 154.11 136.532 154.11C135.944 154.11 135.624 154.635 135.624 155.366V157.093H135.043V154.901C135.043 154.43 134.777 154.11 134.299 154.11C133.712 154.11 133.391 154.635 133.391 155.366V157.093H132.811ZM141.917 155.215C141.917 155.297 141.911 155.42 141.904 155.482H139.187C139.228 156.178 139.665 156.635 140.286 156.635C140.811 156.635 141.173 156.39 141.276 155.96L141.822 156.089C141.651 156.758 141.078 157.147 140.286 157.147C139.255 157.147 138.606 156.349 138.606 155.372C138.606 154.396 139.234 153.598 140.272 153.598C141.289 153.598 141.917 154.328 141.917 155.215ZM139.221 154.997H141.303C141.248 154.471 140.88 154.082 140.272 154.082C139.733 154.082 139.337 154.424 139.221 154.997ZM144.125 157.147C143.053 157.147 142.466 156.383 142.466 155.372C142.466 154.362 143.053 153.598 144.118 153.598C144.576 153.598 145.026 153.823 145.245 154.144V152.259H145.825V157.093H145.245V156.594C145.088 156.908 144.63 157.147 144.125 157.147ZM144.18 156.629C144.856 156.629 145.299 156.13 145.299 155.372C145.299 154.615 144.856 154.116 144.18 154.116C143.504 154.116 143.06 154.615 143.06 155.372C143.06 156.13 143.504 156.629 144.18 156.629ZM150.111 157.147C149.606 157.147 149.148 156.908 148.991 156.594V157.093H148.411V152.259H148.991V154.144C149.21 153.823 149.66 153.598 150.118 153.598C151.183 153.598 151.77 154.362 151.77 155.372C151.77 156.383 151.183 157.147 150.111 157.147ZM150.056 156.629C150.732 156.629 151.176 156.13 151.176 155.372C151.176 154.615 150.732 154.116 150.056 154.116C149.38 154.116 148.944 154.615 148.944 155.372C148.944 156.13 149.38 156.629 150.056 156.629ZM154.664 153.652H155.258L153.456 158.335H152.862L153.36 157.045L152.015 153.652H152.643L153.654 156.287L154.664 153.652ZM159.731 153.652H160.325L158.523 158.335H157.929L158.427 157.045L157.082 153.652H157.71L158.72 156.287L159.731 153.652ZM162.321 157.147C161.297 157.147 160.573 156.403 160.573 155.372C160.573 154.342 161.297 153.598 162.321 153.598C163.338 153.598 164.075 154.342 164.075 155.372C164.075 156.403 163.338 157.147 162.321 157.147ZM162.321 156.629C163.01 156.629 163.474 156.11 163.474 155.372C163.474 154.635 163.01 154.116 162.321 154.116C161.631 154.116 161.167 154.635 161.167 155.372C161.167 156.11 161.631 156.629 162.321 156.629ZM167.808 153.652V157.093H167.228V156.444C166.989 156.854 166.572 157.147 166.047 157.147C165.33 157.147 164.818 156.663 164.818 155.932V153.652H165.398V155.823C165.398 156.287 165.692 156.622 166.176 156.622C166.818 156.622 167.228 156.069 167.228 155.161V153.652H167.808ZM169.167 157.147C168.922 157.147 168.751 156.977 168.751 156.738C168.751 156.506 168.922 156.328 169.167 156.328C169.4 156.328 169.584 156.506 169.584 156.738C169.584 156.977 169.4 157.147 169.167 157.147Z" fill="black"/>
<g clip-path="url(#clip1_939_10199)">
<path d="M50.2109 135.822C47.8608 135.822 45.9553 137.728 45.9553 140.078C45.9553 142.428 47.8608 144.333 50.2109 144.333C52.5609 144.333 54.4664 142.428 54.4664 140.078C54.4664 137.728 52.5609 135.822 50.2109 135.822ZM49.9069 138.026C49.9069 137.984 49.9411 137.95 49.9829 137.95H50.4389C50.4806 137.95 50.5148 137.984 50.5148 138.026V140.61C50.5148 140.652 50.4806 140.686 50.4389 140.686H49.9829C49.9411 140.686 49.9069 140.652 49.9069 140.61V138.026ZM50.2109 142.206C50.0916 142.203 49.978 142.154 49.8944 142.069C49.8109 141.984 49.7641 141.869 49.7641 141.75C49.7641 141.63 49.8109 141.516 49.8944 141.43C49.978 141.345 50.0916 141.296 50.2109 141.294C50.3302 141.296 50.4438 141.345 50.5273 141.43C50.6108 141.516 50.6576 141.63 50.6576 141.75C50.6576 141.869 50.6108 141.984 50.5273 142.069C50.4438 142.154 50.3302 142.203 50.2109 142.206Z" fill="#F05656"/>
</g>
<path d="M44.8665 53.8799L42.7332 56.0132L44.8665 58.1465" stroke="black" stroke-width="0.853333" stroke-linecap="round" stroke-linejoin="round"/>
<path d="M43.3733 56.0137H48.92" stroke="black" stroke-width="0.853333" stroke-linecap="round" stroke-linejoin="round"/>
<path d="M57.2282 61.5887C55.3167 61.5887 53.7056 60.2917 53.5281 58.544L55.4123 57.9842C55.5351 59.0492 56.368 59.7592 57.3101 59.7592C58.1702 59.7592 58.73 59.3496 58.73 58.7488C58.73 56.9466 53.8285 58.0115 53.8285 54.5026C53.8285 52.9325 55.3303 51.8129 57.2008 51.8129C59.044 51.8129 60.5323 52.796 60.8599 54.2569L58.9348 55.0624C58.7437 54.2023 58.102 53.6425 57.2008 53.6425C56.4499 53.6425 55.9857 53.9565 55.9857 54.489C55.9857 56.0045 60.9009 54.7894 60.9009 58.6942C60.9009 60.4282 59.4263 61.5887 57.2282 61.5887ZM68.6799 57.8614C68.6799 58.1344 68.6662 58.4621 68.6526 58.6123H63.7101C63.9012 59.4588 64.4747 59.923 65.3212 59.923C66.0038 59.923 66.509 59.609 66.6592 59.0355L68.5434 59.5407C68.1338 60.8378 66.905 61.5887 65.2666 61.5887C62.8909 61.5887 61.7303 59.7455 61.7303 58.0389C61.7303 56.3322 62.768 54.489 65.1437 54.489C67.6286 54.489 68.6799 56.3322 68.6799 57.8614ZM63.7374 57.1923H66.5363C66.468 56.496 66.0311 55.9772 65.1437 55.9772C64.42 55.9772 63.9285 56.3868 63.7374 57.1923ZM72.943 61.5341C71.2637 61.8072 69.8983 61.1655 69.8983 59.3223V51.8129H71.9054V59.0355C71.9054 59.8411 72.2604 59.8411 72.8065 59.8411L72.943 61.5341ZM80.6532 57.8614C80.6532 58.1344 80.6396 58.4621 80.6259 58.6123H75.6834C75.8746 59.4588 76.448 59.923 77.2945 59.923C77.9772 59.923 78.4823 59.609 78.6325 59.0355L80.5167 59.5407C80.1071 60.8378 78.8783 61.5887 77.2399 61.5887C74.8642 61.5887 73.7037 59.7455 73.7037 58.0389C73.7037 56.3322 74.7413 54.489 77.117 54.489C79.6019 54.489 80.6532 56.3322 80.6532 57.8614ZM75.7107 57.1923H78.5096C78.4414 56.496 78.0045 55.9772 77.117 55.9772C76.3934 55.9772 75.9019 56.3868 75.7107 57.1923ZM85.0529 61.5887C82.9776 61.5887 81.5303 60.1278 81.5303 58.0389C81.5303 55.9499 82.9776 54.489 85.0529 54.489C86.8961 54.489 88.1795 55.4174 88.398 56.9329L86.4592 57.3152C86.35 56.6326 85.8448 56.1957 85.1348 56.1957C84.1927 56.1957 83.592 56.9193 83.592 58.0389C83.592 59.1584 84.2064 59.8821 85.1348 59.8821C85.8448 59.8821 86.2954 59.4725 86.4319 58.8444L88.3843 59.2403C88.1386 60.6876 86.8688 61.5887 85.0529 61.5887ZM93.7588 61.4112C93.4311 61.5205 93.0488 61.5887 92.6392 61.5887C91.151 61.5887 90.0178 60.7968 90.0178 59.1311V56.2639H88.9255V54.5982H90.0178V52.6048H92.0248V54.5982H93.6906V56.2639H92.0248V58.8717C92.0248 59.4861 92.3525 59.8411 92.844 59.8411C93.0898 59.8411 93.3902 59.8001 93.6223 59.6773L93.7588 61.4112ZM101.962 61.5887C101.183 61.5887 100.487 61.2883 100.132 60.7968V61.4795H98.125V51.8129H100.132V55.2536C100.514 54.7894 101.17 54.489 101.989 54.489C103.982 54.489 105.211 55.8816 105.211 58.0389C105.211 60.1961 103.982 61.5887 101.962 61.5887ZM101.634 59.8821C102.603 59.8821 103.245 59.1448 103.245 58.0389C103.245 56.9329 102.603 56.1957 101.634 56.1957C100.651 56.1957 100.009 56.9329 100.009 58.0389C100.009 59.1448 100.651 59.8821 101.634 59.8821ZM109.095 54.489C110.965 54.489 112.235 55.4584 112.235 57.3971V61.4795H110.296V60.6057C109.9 61.2064 109.122 61.5887 108.357 61.5887C107.019 61.5887 106.077 60.6876 106.077 59.5407C106.077 58.1754 107.074 57.4381 109.054 57.2333L110.296 57.1104V57.0695C110.296 56.3868 109.832 55.9772 109.095 55.9772C108.439 55.9772 107.961 56.3731 107.893 57.0422L106.146 56.7145C106.364 55.3628 107.62 54.489 109.095 54.489ZM108.849 60.1551C109.75 60.1551 110.283 59.4315 110.296 58.6259V58.6123V58.5713V58.5167L109.013 58.6669C108.33 58.7352 107.989 59.0765 107.989 59.4725C107.989 59.8547 108.289 60.1551 108.849 60.1551ZM113.792 61.4795V54.5982H115.799V55.513C116.208 54.9122 116.959 54.489 117.901 54.489C119.417 54.489 120.427 55.472 120.427 56.9875V61.4795H118.434V57.52C118.434 56.7691 117.97 56.2639 117.246 56.2639C116.29 56.2639 115.799 57.0422 115.799 58.4621V61.4795H113.792ZM126.62 61.4795L124.75 58.6396L123.999 59.3905V61.4795H121.978V51.8129H123.999V56.851L126.293 54.5982H128.805L126.088 57.3016L129.01 61.4795H126.62ZM57.8016 77.5887C57.0234 77.5887 56.327 77.2883 55.972 76.7968V77.4795H53.965V67.8129H55.972V71.2536C56.3543 70.7894 57.0097 70.489 57.8289 70.489C59.8223 70.489 61.0511 71.8816 61.0511 74.0389C61.0511 76.1961 59.8223 77.5887 57.8016 77.5887ZM57.4739 75.8821C58.4433 75.8821 59.085 75.1448 59.085 74.0389C59.085 72.9329 58.4433 72.1957 57.4739 72.1957C56.4909 72.1957 55.8492 72.9329 55.8492 74.0389C55.8492 75.1448 56.4909 75.8821 57.4739 75.8821ZM66.9005 72.5233C66.6684 72.4141 66.3407 72.3595 66.0267 72.3595C65.1255 72.3595 64.2654 73.0422 64.2654 74.9946V77.4795H62.2583V70.5982H64.2654V71.7861C64.5794 71.0488 65.4669 70.489 66.2861 70.489C66.5182 70.489 66.8322 70.5299 67.0234 70.5982L66.9005 72.5233ZM70.4814 70.489C72.3519 70.489 73.6216 71.4584 73.6216 73.3971V77.4795H71.6829V76.6057C71.2869 77.2064 70.5087 77.5887 69.7441 77.5887C68.4061 77.5887 67.464 76.6876 67.464 75.5407C67.464 74.1754 68.4607 73.4381 70.4404 73.2333L71.6829 73.1104V73.0695C71.6829 72.3868 71.2187 71.9772 70.4814 71.9772C69.826 71.9772 69.3482 72.3731 69.2799 73.0422L67.5323 72.7145C67.7507 71.3628 69.0068 70.489 70.4814 70.489ZM70.2356 76.1551C71.1367 76.1551 71.6692 75.4315 71.6829 74.6259V74.6123V74.5713V74.5167L70.3995 74.6669C69.7168 74.7352 69.3755 75.0765 69.3755 75.4725C69.3755 75.8547 69.6758 76.1551 70.2356 76.1551ZM75.1783 77.4795V70.5982H77.1854V71.513C77.595 70.9122 78.3459 70.489 79.288 70.489C80.8035 70.489 81.8139 71.472 81.8139 72.9875V77.4795H79.8205V73.52C79.8205 72.7691 79.3563 72.2639 78.6326 72.2639C77.6769 72.2639 77.1854 73.0422 77.1854 74.4621V77.4795H75.1783ZM86.5462 77.5887C84.4709 77.5887 83.0237 76.1278 83.0237 74.0389C83.0237 71.9499 84.4709 70.489 86.5462 70.489C88.3894 70.489 89.6729 71.4174 89.8913 72.9329L87.9525 73.3152C87.8433 72.6326 87.3381 72.1957 86.6282 72.1957C85.6861 72.1957 85.0853 72.9193 85.0853 74.0389C85.0853 75.1584 85.6997 75.8821 86.6282 75.8821C87.3381 75.8821 87.7887 75.4725 87.9252 74.8444L89.8776 75.2403C89.6319 76.6876 88.3621 77.5887 86.5462 77.5887ZM91.1117 77.4795V67.8129H93.1187V71.5266C93.542 70.8849 94.2929 70.489 95.2077 70.489C96.7642 70.489 97.7745 71.472 97.7745 73.0012V77.4795H95.7811V73.52C95.7811 72.7554 95.3032 72.2639 94.566 72.2639C93.6102 72.2639 93.1187 73.0558 93.1187 74.4758V77.4795H91.1117Z" fill="#091016"/>
<rect x="41.24" y="300.92" width="139.947" height="18.7733" rx="4.26667" fill="#014C92"/>
<path d="M84.8747 313.613H83.6536L82.3864 311.409H81.5339V313.613H80.4895L80.4818 308.237H82.5554C83.6075 308.237 84.2911 308.859 84.2911 309.827C84.2911 310.434 83.9762 310.948 83.4463 311.209L84.8747 313.613ZM81.5339 309.136V310.511H82.3941C82.9317 310.511 83.2389 310.257 83.2389 309.827C83.2389 309.397 82.9317 309.136 82.3941 309.136H81.5339ZM88.8389 311.547C88.8389 311.686 88.8312 311.855 88.8235 311.931H85.9512C86.0357 312.515 86.412 312.861 86.965 312.861C87.4181 312.861 87.7406 312.646 87.8405 312.269L88.7467 312.515C88.5317 313.245 87.8558 313.675 86.9496 313.675C85.667 313.675 84.9835 312.684 84.9835 311.678C84.9835 310.672 85.6133 309.681 86.8958 309.681C88.2014 309.681 88.8389 310.649 88.8389 311.547ZM85.9742 311.225H87.8021C87.756 310.764 87.4565 310.418 86.8958 310.418C86.4197 310.418 86.0818 310.703 85.9742 311.225ZM91.7997 313.575C91.6077 313.644 91.4003 313.675 91.1776 313.675C90.3943 313.675 89.8106 313.252 89.8106 312.346V310.557H89.1578V309.743H89.8106V308.606H90.7783V309.743H91.7536V310.557H90.7783V312.254C90.7783 312.623 90.9779 312.822 91.2775 312.822C91.4234 312.822 91.5923 312.799 91.7306 312.73L91.7997 313.575ZM95.0003 309.743H95.991L93.9481 315.011H92.9651L93.5641 313.46L92.0588 309.743H93.111L94.0403 312.231L95.0003 309.743ZM96.5234 315.011V309.743H97.4911V310.188C97.7061 309.888 98.1285 309.681 98.6431 309.681C99.7567 309.681 100.44 310.495 100.44 311.678C100.44 312.861 99.7106 313.675 98.5739 313.675C98.1285 313.675 97.7138 313.506 97.4911 313.229V315.011H96.5234ZM98.4587 312.838C99.0731 312.838 99.4802 312.377 99.4802 311.678C99.4802 310.979 99.0731 310.518 98.4587 310.518C97.8367 310.518 97.4296 310.979 97.4296 311.678C97.4296 312.377 97.8367 312.838 98.4587 312.838ZM104.821 311.547C104.821 311.686 104.814 311.855 104.806 311.931H101.934C102.018 312.515 102.394 312.861 102.947 312.861C103.401 312.861 103.723 312.646 103.823 312.269L104.729 312.515C104.514 313.245 103.838 313.675 102.932 313.675C101.65 313.675 100.966 312.684 100.966 311.678C100.966 310.672 101.596 309.681 102.878 309.681C104.184 309.681 104.821 310.649 104.821 311.547ZM101.957 311.225H103.785C103.738 310.764 103.439 310.418 102.878 310.418C102.402 310.418 102.064 310.703 101.957 311.225ZM107.398 315.011V309.743H108.366V310.188C108.581 309.888 109.003 309.681 109.518 309.681C110.632 309.681 111.315 310.495 111.315 311.678C111.315 312.861 110.586 313.675 109.449 313.675C109.003 313.675 108.589 313.506 108.366 313.229V315.011H107.398ZM109.334 312.838C109.948 312.838 110.355 312.377 110.355 311.678C110.355 310.979 109.948 310.518 109.334 310.518C108.712 310.518 108.305 310.979 108.305 311.678C108.305 312.377 108.712 312.838 109.334 312.838ZM112.532 309.151C112.187 309.151 111.933 308.89 111.933 308.552C111.933 308.222 112.187 307.961 112.532 307.961C112.885 307.961 113.147 308.222 113.147 308.552C113.147 308.89 112.885 309.151 112.532 309.151ZM112.048 313.613V309.743H113.016V313.613H112.048ZM113.953 313.613V309.743H114.921V310.326C115.167 309.95 115.605 309.681 116.15 309.681C116.995 309.681 117.563 310.234 117.563 311.079V313.613H116.595V311.309C116.595 310.856 116.311 310.541 115.858 310.541C115.267 310.541 114.921 311.048 114.921 311.916V313.613H113.953ZM120.257 313.675C119.097 313.675 118.291 312.861 118.291 311.678C118.291 310.495 119.097 309.681 120.257 309.681C121.248 309.681 121.947 310.196 122.077 311.017L121.133 311.202C121.063 310.795 120.741 310.518 120.288 310.518C119.689 310.518 119.297 310.971 119.297 311.678C119.297 312.384 119.689 312.838 120.288 312.838C120.741 312.838 121.04 312.592 121.133 312.177L122.077 312.369C121.931 313.183 121.232 313.675 120.257 313.675ZM124.616 313.675C123.441 313.675 122.596 312.83 122.596 311.678C122.596 310.526 123.441 309.681 124.616 309.681C125.791 309.681 126.636 310.526 126.636 311.678C126.636 312.83 125.791 313.675 124.616 313.675ZM124.616 312.838C125.238 312.838 125.66 312.369 125.66 311.678C125.66 310.987 125.238 310.518 124.616 310.518C123.986 310.518 123.571 310.987 123.571 311.678C123.571 312.369 123.986 312.838 124.616 312.838ZM128.999 313.675C127.84 313.675 127.156 312.861 127.156 311.678C127.156 310.495 127.84 309.681 128.984 309.681C129.468 309.681 129.882 309.881 130.105 310.173V308.176H131.073V313.613H130.105V313.168C129.913 313.475 129.483 313.675 128.999 313.675ZM129.137 312.838C129.76 312.838 130.167 312.377 130.167 311.678C130.167 310.979 129.76 310.518 129.137 310.518C128.523 310.518 128.116 310.979 128.116 311.678C128.116 312.377 128.523 312.838 129.137 312.838ZM135.661 311.547C135.661 311.686 135.654 311.855 135.646 311.931H132.774C132.858 312.515 133.234 312.861 133.787 312.861C134.241 312.861 134.563 312.646 134.663 312.269L135.569 312.515C135.354 313.245 134.678 313.675 133.772 313.675C132.49 313.675 131.806 312.684 131.806 311.678C131.806 310.672 132.436 309.681 133.718 309.681C135.024 309.681 135.661 310.649 135.661 311.547ZM132.797 311.225H134.625C134.578 310.764 134.279 310.418 133.718 310.418C133.242 310.418 132.904 310.703 132.797 311.225ZM140.811 309.343L143.046 311.578L140.819 313.805L140.304 313.291L141.602 311.993H138.031V311.163H141.602L140.297 309.865L140.811 309.343Z" fill="#F2F2F2"/>
<g filter="url(#filter2_d_939_10199)">
<rect x="31" y="342.733" width="160" height="30.72" fill="white"/>
</g>
<g style="mix-blend-mode:multiply">
<path d="M110.787 358.946C109.943 358.946 109.118 358.696 108.416 358.227C107.715 357.759 107.168 357.092 106.845 356.313C106.522 355.533 106.437 354.675 106.602 353.847C106.767 353.02 107.173 352.259 107.77 351.663C108.366 351.066 109.127 350.66 109.954 350.495C110.782 350.33 111.64 350.415 112.419 350.738C113.199 351.061 113.865 351.608 114.334 352.309C114.803 353.011 115.053 353.836 115.053 354.68C115.051 355.811 114.601 356.894 113.801 357.694C113.001 358.494 111.918 358.944 110.787 358.946V358.946Z" fill="#CDCDCD"/>
</g>
<mask id="mask0_939_10199" style="mask-type:alpha" maskUnits="userSpaceOnUse" x="106" y="350" width="10" height="9">
<path d="M110.787 358.947C109.943 358.947 109.118 358.697 108.416 358.228C107.715 357.76 107.168 357.093 106.845 356.314C106.522 355.534 106.437 354.676 106.602 353.848C106.767 353.021 107.173 352.26 107.77 351.664C108.366 351.067 109.127 350.661 109.954 350.496C110.782 350.331 111.64 350.416 112.419 350.739C113.199 351.062 113.865 351.609 114.334 352.31C114.803 353.012 115.053 353.837 115.053 354.681C115.051 355.812 114.601 356.895 113.801 357.695C113.001 358.495 111.918 358.945 110.787 358.947Z" fill="#B1CDE2"/>
</mask>
<g mask="url(#mask0_939_10199)">
<g style="mix-blend-mode:multiply">
<g style="mix-blend-mode:multiply">
<path d="M112.92 358.776C112.92 358.871 112.882 358.962 112.815 359.029C112.748 359.097 112.657 359.134 112.562 359.134H108.984C108.938 359.134 108.891 359.125 108.848 359.107C108.805 359.089 108.766 359.062 108.733 359.029C108.7 358.996 108.674 358.956 108.657 358.913C108.639 358.87 108.631 358.823 108.631 358.776V357.416C108.629 357.17 108.676 356.926 108.769 356.699C108.862 356.471 108.999 356.264 109.173 356.09C109.346 355.916 109.553 355.778 109.78 355.684C110.007 355.59 110.25 355.541 110.496 355.542H111.033C111.279 355.541 111.522 355.59 111.749 355.684C111.976 355.778 112.183 355.916 112.356 356.09C112.529 356.264 112.667 356.471 112.76 356.699C112.853 356.926 112.9 357.17 112.898 357.416L112.92 358.776Z" fill="#505050"/>
</g>
<g style="mix-blend-mode:multiply">
<path d="M110.645 355.249C110.899 355.249 111.148 355.174 111.359 355.032C111.57 354.89 111.734 354.688 111.83 354.452C111.926 354.217 111.949 353.958 111.898 353.709C111.846 353.46 111.721 353.232 111.539 353.054C111.357 352.876 111.126 352.757 110.876 352.711C110.626 352.665 110.368 352.694 110.134 352.795C109.901 352.897 109.703 353.065 109.566 353.28C109.429 353.494 109.359 353.744 109.365 353.999C109.372 354.333 109.511 354.651 109.75 354.885C109.989 355.119 110.31 355.25 110.645 355.249V355.249Z" fill="#505050"/>
</g>
</g>
</g>
<path d="M103.127 368.36V364.776H104.612C105.354 364.776 105.83 365.217 105.83 365.898C105.83 366.579 105.354 367.019 104.612 367.019H103.936V368.36H103.127ZM103.936 366.328H104.53C104.837 366.328 105.021 366.164 105.021 365.898C105.021 365.631 104.837 365.468 104.53 365.468H103.936V366.328ZM107.952 366.502C107.865 366.461 107.742 366.44 107.624 366.44C107.286 366.44 106.964 366.696 106.964 367.429V368.36H106.211V365.78H106.964V366.225C107.081 365.949 107.414 365.739 107.721 365.739C107.808 365.739 107.926 365.754 107.998 365.78L107.952 366.502ZM109.5 368.401C108.701 368.401 108.138 367.838 108.138 367.07C108.138 366.302 108.701 365.739 109.5 365.739C110.288 365.739 110.862 366.302 110.862 367.07C110.862 367.838 110.288 368.401 109.5 368.401ZM109.5 367.761C109.863 367.761 110.109 367.48 110.109 367.07C110.109 366.661 109.863 366.379 109.5 366.379C109.131 366.379 108.885 366.661 108.885 367.07C108.885 367.48 109.131 367.761 109.5 367.761ZM111.466 368.36V366.405H111.061V365.78H111.466V365.601C111.466 364.981 111.886 364.638 112.449 364.638C112.597 364.638 112.736 364.659 112.858 364.705L112.807 365.309C112.715 365.273 112.633 365.253 112.551 365.253C112.346 365.253 112.218 365.391 112.218 365.616V365.78H112.807V366.405H112.218V368.36H111.466ZM113.615 365.437C113.359 365.437 113.169 365.237 113.169 364.986C113.169 364.741 113.359 364.541 113.615 364.541C113.876 364.541 114.075 364.741 114.075 364.986C114.075 365.237 113.876 365.437 113.615 365.437ZM113.241 368.36V365.78H113.994V368.36H113.241ZM115.718 368.381C115.088 368.483 114.576 368.243 114.576 367.551V364.735H115.329V367.444C115.329 367.746 115.462 367.746 115.666 367.746L115.718 368.381ZM118.609 367.004C118.609 367.106 118.604 367.229 118.599 367.285H116.745C116.817 367.603 117.032 367.777 117.349 367.777C117.605 367.777 117.795 367.659 117.851 367.444L118.558 367.633C118.404 368.12 117.943 368.401 117.329 368.401C116.438 368.401 116.003 367.71 116.003 367.07C116.003 366.43 116.392 365.739 117.283 365.739C118.215 365.739 118.609 366.43 118.609 367.004ZM116.756 366.753H117.805C117.78 366.492 117.616 366.297 117.283 366.297C117.012 366.297 116.827 366.451 116.756 366.753Z" fill="#091016"/>
<path d="M160.606 354.466C160.606 354.299 160.59 354.133 160.56 353.969L161.773 353.097L160.754 351.375L159.378 351.977C159.108 351.766 158.805 351.598 158.481 351.48L158.313 349.986H156.274L156.106 351.45C155.78 351.577 155.477 351.756 155.209 351.977L153.833 351.365L152.813 353.087L154.026 353.969C153.968 354.298 153.968 354.635 154.026 354.964L152.813 355.845L153.833 357.567L155.209 356.98C155.479 357.191 155.782 357.359 156.106 357.478L156.274 358.946H158.313L158.481 357.483C158.805 357.364 159.108 357.196 159.378 356.985L160.754 357.572L161.773 355.85L160.56 354.964C160.59 354.8 160.606 354.633 160.606 354.466V354.466Z" fill="#CDCDCD"/>
<path d="M157.293 355.959C158.118 355.959 158.786 355.291 158.786 354.466C158.786 353.641 158.118 352.973 157.293 352.973C156.468 352.973 155.8 353.641 155.8 354.466C155.8 355.291 156.468 355.959 157.293 355.959Z" fill="#505050"/>
<path d="M149.071 368.4C148.355 368.4 147.75 367.914 147.684 367.259L148.39 367.049C148.436 367.448 148.749 367.714 149.102 367.714C149.425 367.714 149.635 367.561 149.635 367.335C149.635 366.66 147.796 367.059 147.796 365.743C147.796 365.154 148.36 364.734 149.061 364.734C149.752 364.734 150.31 365.103 150.433 365.651L149.711 365.953C149.64 365.63 149.399 365.42 149.061 365.42C148.779 365.42 148.605 365.538 148.605 365.738C148.605 366.306 150.449 365.851 150.449 367.315C150.449 367.965 149.896 368.4 149.071 368.4ZM153.366 367.003C153.366 367.105 153.361 367.228 153.355 367.284H151.502C151.574 367.602 151.789 367.776 152.106 367.776C152.362 367.776 152.552 367.658 152.608 367.443L153.315 367.632C153.161 368.119 152.7 368.4 152.086 368.4C151.195 368.4 150.76 367.709 150.76 367.069C150.76 366.429 151.149 365.738 152.04 365.738C152.971 365.738 153.366 366.429 153.366 367.003ZM151.512 366.752H152.562C152.536 366.491 152.372 366.296 152.04 366.296C151.768 366.296 151.584 366.45 151.512 366.752ZM155.375 368.334C155.252 368.375 155.109 368.4 154.955 368.4C154.397 368.4 153.972 368.103 153.972 367.479V366.404H153.563V365.779H153.972V365.031H154.725V365.779H155.35V366.404H154.725V367.381C154.725 367.612 154.848 367.745 155.032 367.745C155.124 367.745 155.237 367.73 155.324 367.684L155.375 368.334ZM157.395 368.334C157.272 368.375 157.129 368.4 156.975 368.4C156.417 368.4 155.992 368.103 155.992 367.479V366.404H155.583V365.779H155.992V365.031H156.745V365.779H157.37V366.404H156.745V367.381C156.745 367.612 156.868 367.745 157.052 367.745C157.144 367.745 157.257 367.73 157.344 367.684L157.395 368.334ZM158.181 365.436C157.925 365.436 157.736 365.236 157.736 364.985C157.736 364.74 157.925 364.54 158.181 364.54C158.443 364.54 158.642 364.74 158.642 364.985C158.642 365.236 158.443 365.436 158.181 365.436ZM157.808 368.359V365.779H158.56V368.359H157.808ZM159.143 368.359V365.779H159.895V366.122C160.049 365.897 160.33 365.738 160.684 365.738C161.252 365.738 161.631 366.107 161.631 366.675V368.359H160.883V366.875C160.883 366.593 160.709 366.404 160.438 366.404C160.08 366.404 159.895 366.695 159.895 367.228V368.359H159.143ZM163.61 367.796C164.24 367.796 164.599 368.068 164.599 368.533C164.599 369.132 163.994 369.332 163.313 369.332C162.54 369.332 162.023 369.107 162.023 368.59C162.023 368.431 162.115 368.236 162.264 368.108C162.167 368.011 162.11 367.893 162.11 367.76C162.11 367.509 162.259 367.325 162.489 367.223C162.341 367.074 162.254 366.869 162.254 366.629C162.254 366.091 162.684 365.738 163.308 365.738C163.482 365.738 163.636 365.764 163.774 365.815L164.143 365.4L164.578 365.779L164.23 366.168C164.317 366.296 164.363 366.455 164.363 366.629C164.363 367.166 163.938 367.515 163.308 367.515C163.191 367.515 163.083 367.504 162.981 367.479C162.878 367.53 162.822 367.596 162.822 367.663C162.822 367.755 162.909 367.796 163.047 367.796H163.61ZM163.308 366.306C163.093 366.306 162.945 366.434 162.945 366.629C162.945 366.818 163.093 366.946 163.308 366.946C163.513 366.946 163.667 366.818 163.667 366.629C163.667 366.434 163.513 366.306 163.308 366.306ZM163.313 368.738C163.718 368.738 163.872 368.677 163.872 368.539C163.872 368.395 163.723 368.37 163.477 368.37H163.037C162.96 368.37 162.888 368.364 162.817 368.354C162.766 368.421 162.75 368.472 162.75 368.539C162.75 368.677 162.878 368.738 163.313 368.738ZM165.884 368.4C165.254 368.4 164.865 368.016 164.732 367.627L165.336 367.392C165.398 367.632 165.598 367.832 165.884 367.832C166.084 367.832 166.217 367.735 166.217 367.591C166.217 367.187 164.85 367.458 164.85 366.48C164.85 366.076 165.203 365.738 165.772 365.738C166.299 365.738 166.734 365.994 166.852 366.368L166.248 366.619C166.181 366.383 165.971 366.276 165.797 366.276C165.628 366.276 165.51 366.347 165.51 366.46C165.51 366.869 166.898 366.532 166.898 367.576C166.898 368.021 166.488 368.4 165.884 368.4Z" fill="#091016"/>
<path d="M60.8667 353.274C60.8667 353.098 60.9561 352.936 61.1038 352.842L64.6452 350.588C64.8129 350.481 65.0272 350.481 65.1949 350.588L68.7362 352.842C68.8839 352.936 68.9734 353.098 68.9734 353.274V358.008C68.9734 358.291 68.7441 358.52 68.4614 358.52H61.3787C61.0959 358.52 60.8667 358.291 60.8667 358.008V353.274Z" fill="#CDCDCD"/>
<path d="M63.8533 356.387C63.8533 356.151 64.0443 355.96 64.2799 355.96H65.5599C65.7956 355.96 65.9866 356.151 65.9866 356.387V358.52H63.8533V356.387Z" fill="#505050"/>
<path d="M60.5331 364.776H61.3472V368.36H60.5331V366.86H59.1097V368.36H58.3008V364.776H59.1097V366.169H60.5331V364.776ZM63.194 368.401C62.3953 368.401 61.8321 367.838 61.8321 367.07C61.8321 366.302 62.3953 365.739 63.194 365.739C63.9825 365.739 64.5559 366.302 64.5559 367.07C64.5559 367.838 63.9825 368.401 63.194 368.401ZM63.194 367.761C63.5575 367.761 63.8033 367.48 63.8033 367.07C63.8033 366.661 63.5575 366.379 63.194 366.379C62.8253 366.379 62.5796 366.661 62.5796 367.07C62.5796 367.48 62.8253 367.761 63.194 367.761ZM65.0051 368.36V365.78H65.7577V366.128C65.9062 365.898 66.1417 365.739 66.4847 365.739C66.8841 365.739 67.135 365.903 67.263 366.2C67.4012 365.954 67.7135 365.739 68.1334 365.739C68.6915 365.739 69.0601 366.113 69.0601 366.604V368.36H68.3126V366.824C68.3126 366.543 68.159 366.369 67.8927 366.369C67.5804 366.369 67.4012 366.625 67.4012 367.039V368.36H66.6588V366.824C66.6588 366.543 66.5052 366.369 66.2441 366.369C65.9369 366.369 65.7577 366.63 65.7577 367.039V368.36H65.0051ZM72.1231 367.004C72.1231 367.106 72.118 367.229 72.1129 367.285H70.2595C70.3311 367.603 70.5462 367.777 70.8636 367.777C71.1196 367.777 71.3091 367.659 71.3654 367.444L72.0719 367.633C71.9183 368.12 71.4575 368.401 70.8431 368.401C69.9523 368.401 69.5171 367.71 69.5171 367.07C69.5171 366.43 69.9062 365.739 70.7971 365.739C71.7289 365.739 72.1231 366.43 72.1231 367.004ZM70.2697 366.753H71.3193C71.2937 366.492 71.1299 366.297 70.7971 366.297C70.5257 366.297 70.3414 366.451 70.2697 366.753Z" fill="#091016"/>
</g>
</g>
<defs>
<filter id="filter0_d_939_10199" x="11" y="9" width="200" height="386.453" filterUnits="userSpaceOnUse" color-interpolation-filters="sRGB">
<feFlood flood-opacity="0" result="BackgroundImageFix"/>
<feColorMatrix in="SourceAlpha" type="matrix" values="0 0 0 0 0 0 0 0 0 0 0 0 0 0 0 0 0 0 127 0" result="hardAlpha"/>
<feOffset dy="2"/>
<feGaussianBlur stdDeviation="10"/>
<feComposite in2="hardAlpha" operator="out"/>
<feColorMatrix type="matrix" values="0 0 0 0 0.00392157 0 0 0 0 0.298039 0 0 0 0 0.572549 0 0 0 0.1 0"/>
<feBlend mode="normal" in2="BackgroundImageFix" result="effect1_dropShadow_939_10199"/>
<feBlend mode="normal" in="SourceGraphic" in2="effect1_dropShadow_939_10199" result="shape"/>
</filter>
<filter id="filter1_d_939_10199" x="39.96" y="126.84" width="142.507" height="40.5336" filterUnits="userSpaceOnUse" color-interpolation-filters="sRGB">
<feFlood flood-opacity="0" result="BackgroundImageFix"/>
<feColorMatrix in="SourceAlpha" type="matrix" values="0 0 0 0 0 0 0 0 0 0 0 0 0 0 0 0 0 0 127 0" result="hardAlpha"/>
<feOffset/>
<feGaussianBlur stdDeviation="0.64"/>
<feColorMatrix type="matrix" values="0 0 0 0 0 0 0 0 0 0 0 0 0 0 0 0 0 0 0.15 0"/>
<feBlend mode="normal" in2="BackgroundImageFix" result="effect1_dropShadow_939_10199"/>
<feBlend mode="normal" in="SourceGraphic" in2="effect1_dropShadow_939_10199" result="shape"/>
</filter>
<filter id="filter2_d_939_10199" x="22.4667" y="332.493" width="177.067" height="47.7864" filterUnits="userSpaceOnUse" color-interpolation-filters="sRGB">
<feFlood flood-opacity="0" result="BackgroundImageFix"/>
<feColorMatrix in="SourceAlpha" type="matrix" values="0 0 0 0 0 0 0 0 0 0 0 0 0 0 0 0 0 0 127 0" result="hardAlpha"/>
<feOffset dy="-1.70667"/>
<feGaussianBlur stdDeviation="4.26667"/>
<feComposite in2="hardAlpha" operator="out"/>
<feColorMatrix type="matrix" values="0 0 0 0 0.0040625 0 0 0 0 0.167963 0 0 0 0 0.320937 0 0 0 0.1 0"/>
<feBlend mode="normal" in2="BackgroundImageFix" result="effect1_dropShadow_939_10199"/>
<feBlend mode="normal" in="SourceGraphic" in2="effect1_dropShadow_939_10199" result="shape"/>
</filter>
<clipPath id="clip0_939_10199">
<rect x="31" y="27" width="160" height="346.453" rx="8.59" fill="white"/>
</clipPath>
<clipPath id="clip1_939_10199">
<rect width="8.53333" height="8.53333" fill="white" transform="translate(45.9333 135.8)"/>
</clipPath>
</defs>
</svg>
