<svg viewBox="0 0 222 400" fill="none" xmlns="http://www.w3.org/2000/svg">
<rect width="222" height="400" rx="23.0739" fill="#F0F8FF"/>
<g filter="url(#filter0_d_940_6564)">
<g clip-path="url(#clip0_940_6564)">
<rect x="31" y="27" width="160" height="346" rx="8.59" fill="white"/>
<path d="M58.3861 293.128C57.0186 293.128 56.0272 292.102 56.0272 290.68C56.0272 289.258 57.0186 288.232 58.3861 288.232C59.7467 288.232 60.7382 289.258 60.7382 290.68C60.7382 292.102 59.7467 293.128 58.3861 293.128ZM58.3792 292.567C59.3843 292.567 60.1023 291.774 60.1023 290.68C60.1023 289.586 59.3843 288.786 58.3792 288.786C57.3878 288.786 56.663 289.586 56.663 290.68C56.663 291.774 57.3878 292.567 58.3792 292.567ZM64.4884 289.627V293.073H63.9072V292.424C63.6679 292.834 63.2508 293.128 62.7243 293.128C62.0064 293.128 61.4936 292.642 61.4936 291.911V289.627H62.0748V291.801C62.0748 292.266 62.3688 292.601 62.8542 292.601C63.497 292.601 63.9072 292.048 63.9072 291.138V289.627H64.4884ZM67.4502 290.195C67.3203 290.14 67.1562 290.113 67.0057 290.113C66.4587 290.113 66.0143 290.639 66.0143 291.76V293.073H65.4331V289.627H66.0143V290.325C66.2126 289.887 66.6639 289.572 67.0878 289.572C67.2314 289.572 67.3681 289.593 67.4844 289.634L67.4502 290.195ZM70.8554 293.128C70.0212 293.128 69.5699 292.608 69.4195 292.123L69.9186 291.904C70.0486 292.307 70.3221 292.636 70.8554 292.636C71.2793 292.636 71.5528 292.389 71.5528 292.109C71.5528 291.227 69.5699 291.795 69.5699 290.489C69.5699 289.942 70.0417 289.572 70.7802 289.572C71.3887 289.572 71.9152 289.914 72.0588 290.42L71.5733 290.632C71.4776 290.277 71.1357 290.051 70.7665 290.051C70.3768 290.051 70.1306 290.208 70.1306 290.482C70.1306 291.22 72.1271 290.68 72.1203 292.102C72.1203 292.704 71.6143 293.128 70.8554 293.128ZM75.9493 291.193C75.9493 291.275 75.9425 291.398 75.9356 291.46H73.2143C73.2554 292.157 73.693 292.615 74.3152 292.615C74.8417 292.615 75.204 292.369 75.3066 291.938L75.8536 292.068C75.6827 292.738 75.1083 293.128 74.3152 293.128C73.2827 293.128 72.6332 292.328 72.6332 291.35C72.6332 290.372 73.2622 289.572 74.3015 289.572C75.3203 289.572 75.9493 290.304 75.9493 291.193ZM73.2485 290.974H75.3339C75.2792 290.448 74.91 290.058 74.3015 290.058C73.7613 290.058 73.3648 290.4 73.2485 290.974ZM78.7146 290.195C78.5847 290.14 78.4206 290.113 78.2701 290.113C77.7232 290.113 77.2787 290.639 77.2787 291.76V293.073H76.6975V289.627H77.2787V290.325C77.477 289.887 77.9283 289.572 78.3522 289.572C78.4958 289.572 78.6325 289.593 78.7488 289.634L78.7146 290.195ZM80.1902 293.073L78.9321 289.627H79.527L80.4842 292.396L81.4483 289.627H82.05L80.785 293.073H80.1902ZM82.9007 288.978C82.6682 288.978 82.4973 288.8 82.4973 288.574C82.4973 288.342 82.6682 288.164 82.9007 288.164C83.14 288.164 83.3178 288.342 83.3178 288.574C83.3178 288.8 83.14 288.978 82.9007 288.978ZM82.6135 293.073V289.627H83.1947V293.073H82.6135ZM85.647 293.128C84.6214 293.128 83.9376 292.417 83.9376 291.35C83.9376 290.284 84.6214 289.572 85.647 289.572C86.447 289.572 87.035 290.01 87.1581 290.694L86.5837 290.81C86.5085 290.393 86.1461 290.092 85.6607 290.092C84.9838 290.092 84.5462 290.591 84.5462 291.35C84.5462 292.109 84.9838 292.608 85.6607 292.608C86.1461 292.608 86.5017 292.342 86.5974 291.884L87.1649 292C87.0145 292.711 86.4401 293.128 85.647 293.128ZM91.0064 291.193C91.0064 291.275 90.9995 291.398 90.9927 291.46H88.2714C88.3124 292.157 88.75 292.615 89.3722 292.615C89.8987 292.615 90.2611 292.369 90.3637 291.938L90.9106 292.068C90.7397 292.738 90.1654 293.128 89.3722 293.128C88.3398 293.128 87.6902 292.328 87.6902 291.35C87.6902 290.372 88.3193 289.572 89.3585 289.572C90.3773 289.572 91.0064 290.304 91.0064 291.193ZM88.3056 290.974H90.391C90.3363 290.448 89.9671 290.058 89.3585 290.058C88.8184 290.058 88.4218 290.4 88.3056 290.974ZM92.8767 293.128C92.0426 293.128 91.5913 292.608 91.4409 292.123L91.94 291.904C92.0699 292.307 92.3434 292.636 92.8767 292.636C93.3007 292.636 93.5741 292.389 93.5741 292.109C93.5741 291.227 91.5913 291.795 91.5913 290.489C91.5913 289.942 92.0631 289.572 92.8015 289.572C93.4101 289.572 93.9365 289.914 94.0801 290.42L93.5947 290.632C93.4989 290.277 93.1571 290.051 92.7878 290.051C92.3981 290.051 92.152 290.208 92.152 290.482C92.152 291.22 94.1485 290.68 94.1417 292.102C94.1417 292.704 93.6357 293.128 92.8767 293.128ZM97.8142 289.572C98.6484 289.572 99.2296 290.065 99.2296 290.865V293.073H98.6552V292.485C98.4569 292.882 98.0057 293.128 97.5065 293.128C96.8159 293.128 96.3442 292.704 96.3442 292.109C96.3442 291.446 96.8843 291.084 97.9851 290.974L98.6552 290.899V290.831C98.6552 290.359 98.3202 290.058 97.8142 290.058C97.3424 290.058 97.0074 290.338 96.9595 290.803L96.4194 290.701C96.5219 290.017 97.0894 289.572 97.8142 289.572ZM97.5954 292.649C98.2655 292.649 98.6552 292.205 98.6552 291.514V291.35L97.9851 291.425C97.2877 291.501 96.9253 291.74 96.9253 292.102C96.9253 292.424 97.1988 292.649 97.5954 292.649ZM102.192 290.195C102.062 290.14 101.898 290.113 101.747 290.113C101.2 290.113 100.756 290.639 100.756 291.76V293.073H100.175V289.627H100.756V290.325C100.954 289.887 101.405 289.572 101.829 289.572C101.973 289.572 102.11 289.593 102.226 289.634L102.192 290.195ZM105.75 291.193C105.75 291.275 105.743 291.398 105.736 291.46H103.015C103.056 292.157 103.493 292.615 104.115 292.615C104.642 292.615 105.004 292.369 105.107 291.938L105.654 292.068C105.483 292.738 104.909 293.128 104.115 293.128C103.083 293.128 102.433 292.328 102.433 291.35C102.433 290.372 103.062 289.572 104.102 289.572C105.121 289.572 105.75 290.304 105.75 291.193ZM103.049 290.974H105.134C105.08 290.448 104.71 290.058 104.102 290.058C103.562 290.058 103.165 290.4 103.049 290.974ZM109.699 293.128C108.674 293.128 107.949 292.383 107.949 291.35C107.949 290.318 108.674 289.572 109.699 289.572C110.718 289.572 111.456 290.318 111.456 291.35C111.456 292.383 110.718 293.128 109.699 293.128ZM109.699 292.608C110.39 292.608 110.855 292.089 110.855 291.35C110.855 290.612 110.39 290.092 109.699 290.092C109.009 290.092 108.544 290.612 108.544 291.35C108.544 292.089 109.009 292.608 109.699 292.608ZM112.2 293.073V289.627H112.781V290.277C113.021 289.866 113.438 289.572 113.964 289.572C114.682 289.572 115.195 290.058 115.195 290.79V293.073H114.614V290.899C114.614 290.434 114.32 290.099 113.834 290.099C113.192 290.099 112.781 290.653 112.781 291.562V293.073H112.2ZM117.213 293.121C116.598 293.183 116.14 292.95 116.14 292.232V288.232H116.721V292.191C116.721 292.567 116.899 292.622 117.186 292.601L117.213 293.121ZM120.159 289.627H120.754L118.949 294.318H118.354L118.853 293.025L117.506 289.627H118.135L119.147 292.266L120.159 289.627ZM124.249 289.572C125.083 289.572 125.665 290.065 125.665 290.865V293.073H125.09V292.485C124.892 292.882 124.441 293.128 123.942 293.128C123.251 293.128 122.779 292.704 122.779 292.109C122.779 291.446 123.319 291.084 124.42 290.974L125.09 290.899V290.831C125.09 290.359 124.755 290.058 124.249 290.058C123.777 290.058 123.442 290.338 123.395 290.803L122.854 290.701C122.957 290.017 123.524 289.572 124.249 289.572ZM124.03 292.649C124.7 292.649 125.09 292.205 125.09 291.514V291.35L124.42 291.425C123.723 291.501 123.36 291.74 123.36 292.102C123.36 292.424 123.634 292.649 124.03 292.649ZM127.371 293.073L126.113 289.627H126.708L127.665 292.396L128.629 289.627H129.231L127.966 293.073H127.371ZM130.973 289.572C131.807 289.572 132.388 290.065 132.388 290.865V293.073H131.814V292.485C131.616 292.882 131.165 293.128 130.665 293.128C129.975 293.128 129.503 292.704 129.503 292.109C129.503 291.446 130.043 291.084 131.144 290.974L131.814 290.899V290.831C131.814 290.359 131.479 290.058 130.973 290.058C130.501 290.058 130.166 290.338 130.118 290.803L129.578 290.701C129.681 290.017 130.248 289.572 130.973 289.572ZM130.754 292.649C131.424 292.649 131.814 292.205 131.814 291.514V291.35L131.144 291.425C130.447 291.501 130.084 291.74 130.084 292.102C130.084 292.424 130.358 292.649 130.754 292.649ZM133.621 288.978C133.388 288.978 133.217 288.8 133.217 288.574C133.217 288.342 133.388 288.164 133.621 288.164C133.86 288.164 134.038 288.342 134.038 288.574C134.038 288.8 133.86 288.978 133.621 288.978ZM133.333 293.073V289.627H133.915V293.073H133.333ZM135.929 293.121C135.314 293.183 134.856 292.95 134.856 292.232V288.232H135.437V292.191C135.437 292.567 135.615 292.622 135.902 292.601L135.929 293.121ZM137.891 289.572C138.725 289.572 139.306 290.065 139.306 290.865V293.073H138.732V292.485C138.533 292.882 138.082 293.128 137.583 293.128C136.892 293.128 136.421 292.704 136.421 292.109C136.421 291.446 136.961 291.084 138.062 290.974L138.732 290.899V290.831C138.732 290.359 138.397 290.058 137.891 290.058C137.419 290.058 137.084 290.338 137.036 290.803L136.496 290.701C136.598 290.017 137.166 289.572 137.891 289.572ZM137.672 292.649C138.342 292.649 138.732 292.205 138.732 291.514V291.35L138.062 291.425C137.364 291.501 137.002 291.74 137.002 292.102C137.002 292.424 137.275 292.649 137.672 292.649ZM141.954 293.128C141.448 293.128 140.989 292.889 140.832 292.574V293.073H140.251V288.232H140.832V290.119C141.051 289.798 141.502 289.572 141.96 289.572C143.027 289.572 143.615 290.338 143.615 291.35C143.615 292.362 143.027 293.128 141.954 293.128ZM141.899 292.608C142.576 292.608 143.02 292.109 143.02 291.35C143.02 290.591 142.576 290.092 141.899 290.092C141.222 290.092 140.784 290.591 140.784 291.35C140.784 292.109 141.222 292.608 141.899 292.608ZM145.431 293.121C144.816 293.183 144.357 292.95 144.357 292.232V288.232H144.939V292.191C144.939 292.567 145.116 292.622 145.404 292.601L145.431 293.121ZM149.225 291.193C149.225 291.275 149.218 291.398 149.211 291.46H146.49C146.531 292.157 146.968 292.615 147.591 292.615C148.117 292.615 148.479 292.369 148.582 291.938L149.129 292.068C148.958 292.738 148.384 293.128 147.591 293.128C146.558 293.128 145.909 292.328 145.909 291.35C145.909 290.372 146.538 289.572 147.577 289.572C148.596 289.572 149.225 290.304 149.225 291.193ZM146.524 290.974H148.609C148.555 290.448 148.185 290.058 147.577 290.058C147.037 290.058 146.64 290.4 146.524 290.974ZM152.388 293.073L151.335 289.627H151.93L152.675 292.26L153.482 289.627H154.043L154.849 292.26L155.588 289.627H156.196L155.137 293.073H154.569L153.762 290.455L152.956 293.073H152.388ZM157.131 288.978C156.898 288.978 156.728 288.8 156.728 288.574C156.728 288.342 156.898 288.164 157.131 288.164C157.37 288.164 157.548 288.342 157.548 288.574C157.548 288.8 157.37 288.978 157.131 288.978ZM156.844 293.073V289.627H157.425V293.073H156.844ZM160.199 293.046C160.028 293.107 159.843 293.128 159.658 293.128C159.07 293.128 158.64 292.8 158.64 292.041V290.14H157.997V289.627H158.64V288.581H159.221V289.627H160.144V290.14H159.221V292.061C159.221 292.424 159.426 292.601 159.727 292.601C159.864 292.601 160.021 292.581 160.158 292.513L160.199 293.046ZM160.937 293.073V288.232H161.518V290.304C161.771 289.812 162.188 289.572 162.694 289.572C163.474 289.572 163.986 290.058 163.986 290.803V293.073H163.405V290.913C163.405 290.407 163.091 290.099 162.564 290.099C161.928 290.099 161.518 290.673 161.518 291.596V293.073H160.937ZM165.217 288.978C164.985 288.978 164.814 288.8 164.814 288.574C164.814 288.342 164.985 288.164 165.217 288.164C165.456 288.164 165.634 288.342 165.634 288.574C165.634 288.8 165.456 288.978 165.217 288.978ZM164.93 293.073V289.627H165.511V293.073H164.93ZM166.452 293.073V289.627H167.033V290.277C167.273 289.866 167.69 289.572 168.216 289.572C168.934 289.572 169.447 290.058 169.447 290.79V293.073H168.866V290.899C168.866 290.434 168.572 290.099 168.086 290.099C167.444 290.099 167.033 290.653 167.033 291.562V293.073H166.452ZM56.246 301.073V296.287H56.8682V301.073H56.246ZM57.8345 301.073V297.627H58.4157V298.277C58.655 297.866 59.0721 297.572 59.5985 297.572C60.3165 297.572 60.8293 298.058 60.8293 298.79V301.073H60.2481V298.899C60.2481 298.434 59.9541 298.099 59.4686 298.099C58.8259 298.099 58.4157 298.653 58.4157 299.562V301.073H57.8345ZM63.2372 301.128C62.1638 301.128 61.5757 300.362 61.5757 299.35C61.5757 298.338 62.1638 297.572 63.2304 297.572C63.6885 297.572 64.1398 297.798 64.3586 298.119V296.232H64.9398V301.073H64.3586V300.574C64.2013 300.889 63.7432 301.128 63.2372 301.128ZM63.2919 300.608C63.9688 300.608 64.4133 300.109 64.4133 299.35C64.4133 298.591 63.9688 298.092 63.2919 298.092C62.615 298.092 62.1706 298.591 62.1706 299.35C62.1706 300.109 62.615 300.608 63.2919 300.608ZM66.1677 296.978C65.9352 296.978 65.7643 296.8 65.7643 296.574C65.7643 296.342 65.9352 296.164 66.1677 296.164C66.407 296.164 66.5848 296.342 66.5848 296.574C66.5848 296.8 66.407 296.978 66.1677 296.978ZM65.8805 301.073V297.627H66.4617V301.073H65.8805ZM68.6883 297.572C69.5225 297.572 70.1037 298.065 70.1037 298.865V301.073H69.5293V300.485C69.3311 300.882 68.8798 301.128 68.3806 301.128C67.6901 301.128 67.2183 300.704 67.2183 300.109C67.2183 299.446 67.7584 299.084 68.8593 298.974L69.5293 298.899V298.831C69.5293 298.359 69.1943 298.058 68.6883 298.058C68.2165 298.058 67.8815 298.338 67.8337 298.803L67.2935 298.701C67.3961 298.017 67.9636 297.572 68.6883 297.572ZM68.4695 300.649C69.1396 300.649 69.5293 300.205 69.5293 299.514V299.35L68.8593 299.425C68.1619 299.501 67.7995 299.74 67.7995 300.102C67.7995 300.424 68.073 300.649 68.4695 300.649ZM71.4657 301.128C71.2196 301.128 71.0486 300.957 71.0486 300.718C71.0486 300.485 71.2196 300.307 71.4657 300.307C71.6982 300.307 71.8828 300.485 71.8828 300.718C71.8828 300.957 71.6982 301.128 71.4657 301.128ZM56.246 317.073V312.287H56.8682V317.073H56.246ZM58.1764 317.073V314.14H57.5883V313.627H58.1764V313.306C58.1764 312.547 58.6071 312.143 59.1951 312.143C59.3524 312.143 59.5165 312.157 59.6601 312.198L59.6327 312.718C59.5097 312.67 59.3866 312.649 59.2704 312.649C58.9627 312.649 58.7575 312.889 58.7575 313.258V313.627H59.6396V314.14H58.7575V317.073H58.1764ZM64.2577 313.627H64.8526L63.0475 318.318H62.4526L62.9518 317.025L61.6048 313.627H62.2338L63.2458 316.266L64.2577 313.627ZM66.8517 317.128C65.8261 317.128 65.1013 316.383 65.1013 315.35C65.1013 314.318 65.8261 313.572 66.8517 313.572C67.8705 313.572 68.6089 314.318 68.6089 315.35C68.6089 316.383 67.8705 317.128 66.8517 317.128ZM66.8517 316.608C67.5423 316.608 68.0072 316.089 68.0072 315.35C68.0072 314.612 67.5423 314.092 66.8517 314.092C66.1611 314.092 65.6962 314.612 65.6962 315.35C65.6962 316.089 66.1611 316.608 66.8517 316.608ZM72.3474 313.627V317.073H71.7662V316.424C71.5269 316.834 71.1099 317.128 70.5834 317.128C69.8654 317.128 69.3526 316.642 69.3526 315.911V313.627H69.9338V315.801C69.9338 316.266 70.2278 316.601 70.7133 316.601C71.356 316.601 71.7662 316.048 71.7662 315.138V313.627H72.3474ZM73.8544 312.629C73.8544 312.772 73.8339 312.841 73.6288 313.217L73.41 313.613H73.0818L73.3348 313.039C73.1502 312.991 73.0134 312.82 73.0134 312.629C73.0134 312.396 73.2049 312.205 73.4442 312.205C73.6698 312.205 73.8544 312.396 73.8544 312.629ZM76.2841 314.195C76.1542 314.14 75.9901 314.113 75.8397 314.113C75.2927 314.113 74.8482 314.639 74.8482 315.76V317.073H74.267V313.627H74.8482V314.325C75.0465 313.887 75.4978 313.572 75.9217 313.572C76.0653 313.572 76.202 313.593 76.3183 313.634L76.2841 314.195ZM79.8421 315.193C79.8421 315.275 79.8353 315.398 79.8284 315.46H77.1071C77.1482 316.157 77.5858 316.615 78.208 316.615C78.7345 316.615 79.0968 316.369 79.1994 315.938L79.7464 316.068C79.5755 316.738 79.0011 317.128 78.208 317.128C77.1755 317.128 76.526 316.328 76.526 315.35C76.526 314.372 77.155 313.572 78.1943 313.572C79.2131 313.572 79.8421 314.304 79.8421 315.193ZM77.1413 314.974H79.2267C79.172 314.448 78.8028 314.058 78.1943 314.058C77.6541 314.058 77.2576 314.4 77.1413 314.974ZM85.2344 313.627V317.073H84.6532V316.424C84.4139 316.834 83.9968 317.128 83.4703 317.128C82.7524 317.128 82.2396 316.642 82.2396 315.911V313.627H82.8208V315.801C82.8208 316.266 83.1148 316.601 83.6002 316.601C84.243 316.601 84.6532 316.048 84.6532 315.138V313.627H85.2344ZM87.3347 317.128C86.5005 317.128 86.0492 316.608 85.8988 316.123L86.3979 315.904C86.5278 316.307 86.8013 316.636 87.3347 316.636C87.7586 316.636 88.0321 316.389 88.0321 316.109C88.0321 315.227 86.0492 315.795 86.0492 314.489C86.0492 313.942 86.521 313.572 87.2595 313.572C87.868 313.572 88.3945 313.914 88.5381 314.42L88.0526 314.632C87.9569 314.277 87.615 314.051 87.2458 314.051C86.856 314.051 86.6099 314.208 86.6099 314.482C86.6099 315.22 88.6064 314.68 88.5996 316.102C88.5996 316.704 88.0936 317.128 87.3347 317.128ZM89.6246 312.978C89.3921 312.978 89.2212 312.8 89.2212 312.574C89.2212 312.342 89.3921 312.164 89.6246 312.164C89.8639 312.164 90.0417 312.342 90.0417 312.574C90.0417 312.8 89.8639 312.978 89.6246 312.978ZM89.3374 317.073V313.627H89.9186V317.073H89.3374ZM90.8598 317.073V313.627H91.441V314.277C91.6803 313.866 92.0974 313.572 92.6239 313.572C93.3418 313.572 93.8546 314.058 93.8546 314.79V317.073H93.2735V314.899C93.2735 314.434 92.9795 314.099 92.494 314.099C91.8513 314.099 91.441 314.653 91.441 315.562V317.073H90.8598ZM96.5703 316.403C97.2609 316.403 97.7395 316.69 97.7395 317.326C97.7395 318.017 97.0968 318.372 96.1532 318.372C95.1754 318.372 94.5669 318.024 94.5669 317.388C94.5669 317.087 94.731 316.841 94.9361 316.684C94.7652 316.567 94.6626 316.396 94.6626 316.15C94.6626 315.849 94.8609 315.624 95.1276 315.501C94.943 315.302 94.8404 315.043 94.8404 314.735C94.8404 314.037 95.4011 313.572 96.1464 313.572C96.372 313.572 96.584 313.62 96.7754 313.709L97.3156 313.244L97.6506 313.627L97.1925 314.017C97.3566 314.208 97.4523 314.455 97.4523 314.735C97.4523 315.446 96.8985 315.897 96.1464 315.897C95.9002 315.897 95.6883 315.849 95.5036 315.767C95.3054 315.856 95.2233 315.972 95.2233 316.116C95.2233 316.328 95.4216 316.403 95.6472 316.403H96.5703ZM96.1464 314.044C95.7498 314.044 95.4079 314.304 95.4079 314.735C95.4079 315.172 95.7498 315.425 96.1464 315.425C96.5429 315.425 96.8848 315.172 96.8848 314.735C96.8848 314.304 96.5429 314.044 96.1464 314.044ZM96.1532 317.88C96.8096 317.88 97.172 317.695 97.172 317.367C97.172 316.998 96.8985 316.875 96.4882 316.875H95.7566C95.6336 316.875 95.5173 316.868 95.4079 316.854C95.196 316.998 95.1344 317.183 95.1344 317.381C95.1344 317.695 95.4831 317.88 96.1532 317.88ZM101.326 313.572C102.161 313.572 102.742 314.065 102.742 314.865V317.073H102.167V316.485C101.969 316.882 101.518 317.128 101.019 317.128C100.328 317.128 99.8564 316.704 99.8564 316.109C99.8564 315.446 100.397 315.084 101.497 314.974L102.167 314.899V314.831C102.167 314.359 101.832 314.058 101.326 314.058C100.855 314.058 100.52 314.338 100.472 314.803L99.9316 314.701C100.034 314.017 100.602 313.572 101.326 313.572ZM101.108 316.649C101.778 316.649 102.167 316.205 102.167 315.514V315.35L101.497 315.425C100.8 315.501 100.438 315.74 100.438 316.102C100.438 316.424 100.711 316.649 101.108 316.649ZM106.724 317.073L104.926 312.287H105.562L107.039 316.355L108.522 312.287H109.158L107.36 317.073H106.724ZM109.71 317.073V312.287H111.529C112.459 312.287 113.061 312.834 113.061 313.675C113.061 314.516 112.459 315.063 111.529 315.063H110.332V317.073H109.71ZM110.332 314.502H111.508C112.076 314.502 112.418 314.195 112.418 313.675C112.418 313.155 112.076 312.841 111.508 312.841H110.332V314.502ZM113.73 317.073V312.287H114.42L116.834 316.095V312.287H117.443V317.073H116.752L114.338 313.278V317.073H113.73ZM118.136 317.798L118.533 316.362H119.312L118.546 317.798H118.136ZM121.822 318.318V313.627H122.403V314.126C122.588 313.812 123.039 313.572 123.538 313.572C124.598 313.572 125.186 314.338 125.186 315.35C125.186 316.362 124.584 317.128 123.524 317.128C123.087 317.128 122.636 316.909 122.403 316.595V318.318H121.822ZM123.47 316.608C124.154 316.608 124.598 316.109 124.598 315.35C124.598 314.591 124.154 314.092 123.47 314.092C122.8 314.092 122.355 314.591 122.355 315.35C122.355 316.109 122.8 316.608 123.47 316.608ZM127.002 317.121C126.387 317.183 125.928 316.95 125.928 316.232V312.232H126.51V316.191C126.51 316.567 126.687 316.622 126.975 316.601L127.002 317.121ZM130.796 315.193C130.796 315.275 130.789 315.398 130.782 315.46H128.061C128.102 316.157 128.539 316.615 129.162 316.615C129.688 316.615 130.05 316.369 130.153 315.938L130.7 316.068C130.529 316.738 129.955 317.128 129.162 317.128C128.129 317.128 127.48 316.328 127.48 315.35C127.48 314.372 128.109 313.572 129.148 313.572C130.167 313.572 130.796 314.304 130.796 315.193ZM128.095 314.974H130.18C130.126 314.448 129.756 314.058 129.148 314.058C128.608 314.058 128.211 314.4 128.095 314.974ZM132.796 313.572C133.63 313.572 134.211 314.065 134.211 314.865V317.073H133.637V316.485C133.439 316.882 132.987 317.128 132.488 317.128C131.798 317.128 131.326 316.704 131.326 316.109C131.326 315.446 131.866 315.084 132.967 314.974L133.637 314.899V314.831C133.637 314.359 133.302 314.058 132.796 314.058C132.324 314.058 131.989 314.338 131.941 314.803L131.401 314.701C131.504 314.017 132.071 313.572 132.796 313.572ZM132.577 316.649C133.247 316.649 133.637 316.205 133.637 315.514V315.35L132.967 315.425C132.27 315.501 131.907 315.74 131.907 316.102C131.907 316.424 132.181 316.649 132.577 316.649ZM136.312 317.128C135.478 317.128 135.026 316.608 134.876 316.123L135.375 315.904C135.505 316.307 135.778 316.636 136.312 316.636C136.736 316.636 137.009 316.389 137.009 316.109C137.009 315.227 135.026 315.795 135.026 314.489C135.026 313.942 135.498 313.572 136.237 313.572C136.845 313.572 137.372 313.914 137.515 314.42L137.03 314.632C136.934 314.277 136.592 314.051 136.223 314.051C135.833 314.051 135.587 314.208 135.587 314.482C135.587 315.22 137.584 314.68 137.577 316.102C137.577 316.704 137.071 317.128 136.312 317.128ZM141.406 315.193C141.406 315.275 141.399 315.398 141.392 315.46H138.671C138.712 316.157 139.149 316.615 139.772 316.615C140.298 316.615 140.66 316.369 140.763 315.938L141.31 316.068C141.139 316.738 140.565 317.128 139.772 317.128C138.739 317.128 138.09 316.328 138.09 315.35C138.09 314.372 138.719 313.572 139.758 313.572C140.777 313.572 141.406 314.304 141.406 315.193ZM138.705 314.974H140.79C140.736 314.448 140.366 314.058 139.758 314.058C139.218 314.058 138.821 314.4 138.705 314.974ZM143.803 317.073V313.627H144.384V314.277C144.555 313.866 144.897 313.572 145.424 313.572C145.984 313.572 146.422 313.832 146.545 314.297C146.73 313.887 147.14 313.572 147.66 313.572C148.398 313.572 148.863 314.037 148.863 314.762V317.073H148.282V314.878C148.282 314.407 148.015 314.085 147.53 314.085C146.942 314.085 146.62 314.612 146.62 315.343V317.073H146.039V314.878C146.039 314.407 145.772 314.085 145.294 314.085C144.706 314.085 144.384 314.612 144.384 315.343V317.073H143.803ZM151.091 313.572C151.926 313.572 152.507 314.065 152.507 314.865V317.073H151.932V316.485C151.734 316.882 151.283 317.128 150.784 317.128C150.093 317.128 149.621 316.704 149.621 316.109C149.621 315.446 150.162 315.084 151.262 314.974L151.932 314.899V314.831C151.932 314.359 151.597 314.058 151.091 314.058C150.62 314.058 150.285 314.338 150.237 314.803L149.697 314.701C149.799 314.017 150.367 313.572 151.091 313.572ZM150.873 316.649C151.543 316.649 151.932 316.205 151.932 315.514V315.35L151.262 315.425C150.565 315.501 150.203 315.74 150.203 316.102C150.203 316.424 150.476 316.649 150.873 316.649ZM155.797 317.073L154.498 315.378L154.04 315.795V317.073H153.452V312.232H154.04V315.029L155.633 313.627H156.406L154.929 314.988L156.522 317.073H155.797ZM160.042 315.193C160.042 315.275 160.035 315.398 160.028 315.46H157.307C157.348 316.157 157.785 316.615 158.408 316.615C158.934 316.615 159.297 316.369 159.399 315.938L159.946 316.068C159.775 316.738 159.201 317.128 158.408 317.128C157.375 317.128 156.726 316.328 156.726 315.35C156.726 314.372 157.355 313.572 158.394 313.572C159.413 313.572 160.042 314.304 160.042 315.193ZM157.341 314.974H159.426C159.372 314.448 159.002 314.058 158.394 314.058C157.854 314.058 157.457 314.4 157.341 314.974ZM163.595 317.128C162.761 317.128 162.309 316.608 162.159 316.123L162.658 315.904C162.788 316.307 163.061 316.636 163.595 316.636C164.019 316.636 164.292 316.389 164.292 316.109C164.292 315.227 162.309 315.795 162.309 314.489C162.309 313.942 162.781 313.572 163.52 313.572C164.128 313.572 164.655 313.914 164.798 314.42L164.313 314.632C164.217 314.277 163.875 314.051 163.506 314.051C163.116 314.051 162.87 314.208 162.87 314.482C162.87 315.22 164.867 314.68 164.86 316.102C164.86 316.704 164.354 317.128 163.595 317.128ZM168.592 313.627V317.073H168.011V316.424C167.772 316.834 167.355 317.128 166.828 317.128C166.11 317.128 165.598 316.642 165.598 315.911V313.627H166.179V315.801C166.179 316.266 166.473 316.601 166.958 316.601C167.601 316.601 168.011 316.048 168.011 315.138V313.627H168.592ZM171.554 314.195C171.424 314.14 171.26 314.113 171.11 314.113C170.563 314.113 170.118 314.639 170.118 315.76V317.073H169.537V313.627H170.118V314.325C170.317 313.887 170.768 313.572 171.192 313.572C171.335 313.572 171.472 313.593 171.588 313.634L171.554 314.195ZM175.112 315.193C175.112 315.275 175.105 315.398 175.099 315.46H172.377C172.418 316.157 172.856 316.615 173.478 316.615C174.005 316.615 174.367 316.369 174.469 315.938L175.016 316.068C174.846 316.738 174.271 317.128 173.478 317.128C172.446 317.128 171.796 316.328 171.796 315.35C171.796 314.372 172.425 313.572 173.464 313.572C174.483 313.572 175.112 314.304 175.112 315.193ZM172.411 314.974H174.497C174.442 314.448 174.073 314.058 173.464 314.058C172.924 314.058 172.528 314.4 172.411 314.974ZM58.051 325.046C57.8801 325.107 57.6955 325.128 57.5109 325.128C56.9229 325.128 56.4921 324.8 56.4921 324.041V322.14H55.8494V321.627H56.4921V320.581H57.0733V321.627H57.9963V322.14H57.0733V324.061C57.0733 324.424 57.2784 324.601 57.5793 324.601C57.716 324.601 57.8733 324.581 58.01 324.513L58.051 325.046ZM60.1945 325.128C59.1689 325.128 58.4441 324.383 58.4441 323.35C58.4441 322.318 59.1689 321.572 60.1945 321.572C61.2133 321.572 61.9517 322.318 61.9517 323.35C61.9517 324.383 61.2133 325.128 60.1945 325.128ZM60.1945 324.608C60.8851 324.608 61.3501 324.089 61.3501 323.35C61.3501 322.612 60.8851 322.092 60.1945 322.092C59.5039 322.092 59.039 322.612 59.039 323.35C59.039 324.089 59.5039 324.608 60.1945 324.608ZM65.808 325.128C64.7345 325.128 64.1465 324.362 64.1465 323.35C64.1465 322.338 64.7345 321.572 65.8011 321.572C66.2592 321.572 66.7105 321.798 66.9293 322.119V320.232H67.5105V325.073H66.9293V324.574C66.772 324.889 66.3139 325.128 65.808 325.128ZM65.8627 324.608C66.5396 324.608 66.984 324.109 66.984 323.35C66.984 322.591 66.5396 322.092 65.8627 322.092C65.1857 322.092 64.7413 322.591 64.7413 323.35C64.7413 324.109 65.1857 324.608 65.8627 324.608ZM68.7384 320.978C68.5059 320.978 68.335 320.8 68.335 320.574C68.335 320.342 68.5059 320.164 68.7384 320.164C68.9777 320.164 69.1555 320.342 69.1555 320.574C69.1555 320.8 68.9777 320.978 68.7384 320.978ZM68.4512 325.073V321.627H69.0324V325.073H68.4512ZM71.1291 325.128C70.295 325.128 69.8437 324.608 69.6933 324.123L70.1924 323.904C70.3223 324.307 70.5958 324.636 71.1291 324.636C71.5531 324.636 71.8266 324.389 71.8266 324.109C71.8266 323.227 69.8437 323.795 69.8437 322.489C69.8437 321.942 70.3155 321.572 71.0539 321.572C71.6625 321.572 72.1889 321.914 72.3325 322.42L71.8471 322.632C71.7513 322.277 71.4095 322.051 71.0403 322.051C70.6505 322.051 70.4044 322.208 70.4044 322.482C70.4044 323.22 72.4009 322.68 72.3941 324.102C72.3941 324.704 71.8881 325.128 71.1291 325.128ZM74.6163 325.128C73.5907 325.128 72.9069 324.417 72.9069 323.35C72.9069 322.284 73.5907 321.572 74.6163 321.572C75.4163 321.572 76.0043 322.01 76.1274 322.694L75.553 322.81C75.4778 322.393 75.1154 322.092 74.63 322.092C73.9531 322.092 73.5155 322.591 73.5155 323.35C73.5155 324.109 73.9531 324.608 74.63 324.608C75.1154 324.608 75.471 324.342 75.5667 323.884L76.1342 324C75.9838 324.711 75.4094 325.128 74.6163 325.128ZM78.4099 325.128C77.3843 325.128 76.6595 324.383 76.6595 323.35C76.6595 322.318 77.3843 321.572 78.4099 321.572C79.4287 321.572 80.1671 322.318 80.1671 323.35C80.1671 324.383 79.4287 325.128 78.4099 325.128ZM78.4099 324.608C79.1005 324.608 79.5654 324.089 79.5654 323.35C79.5654 322.612 79.1005 322.092 78.4099 322.092C77.7193 322.092 77.2544 322.612 77.2544 323.35C77.2544 324.089 77.7193 324.608 78.4099 324.608ZM80.9108 325.073V321.627H81.492V322.277C81.7313 321.866 82.1484 321.572 82.6749 321.572C83.3928 321.572 83.9056 322.058 83.9056 322.79V325.073H83.3245V322.899C83.3245 322.434 83.0304 322.099 82.545 322.099C81.9023 322.099 81.492 322.653 81.492 323.562V325.073H80.9108ZM84.8504 325.073V321.627H85.4316V322.277C85.6709 321.866 86.088 321.572 86.6144 321.572C87.3324 321.572 87.8452 322.058 87.8452 322.79V325.073H87.264V322.899C87.264 322.434 86.97 322.099 86.4845 322.099C85.8418 322.099 85.4316 322.653 85.4316 323.562V325.073H84.8504ZM91.9078 323.193C91.9078 323.275 91.901 323.398 91.8941 323.46H89.1728C89.2138 324.157 89.6514 324.615 90.2736 324.615C90.8001 324.615 91.1625 324.369 91.2651 323.938L91.8121 324.068C91.6411 324.738 91.0668 325.128 90.2736 325.128C89.2412 325.128 88.5916 324.328 88.5916 323.35C88.5916 322.372 89.2207 321.572 90.26 321.572C91.2787 321.572 91.9078 322.304 91.9078 323.193ZM89.207 322.974H91.2924C91.2377 322.448 90.8685 322.058 90.26 322.058C89.7198 322.058 89.3232 322.4 89.207 322.974ZM94.1671 325.128C93.1415 325.128 92.4577 324.417 92.4577 323.35C92.4577 322.284 93.1415 321.572 94.1671 321.572C94.9671 321.572 95.5551 322.01 95.6782 322.694L95.1038 322.81C95.0286 322.393 94.6662 322.092 94.1808 322.092C93.5039 322.092 93.0663 322.591 93.0663 323.35C93.0663 324.109 93.5039 324.608 94.1808 324.608C94.6662 324.608 95.0218 324.342 95.1175 323.884L95.685 324C95.5346 324.711 94.9602 325.128 94.1671 325.128ZM98.1943 325.046C98.0233 325.107 97.8387 325.128 97.6541 325.128C97.0661 325.128 96.6353 324.8 96.6353 324.041V322.14H95.9926V321.627H96.6353V320.581H97.2165V321.627H98.1396V322.14H97.2165V324.061C97.2165 324.424 97.4217 324.601 97.7225 324.601C97.8592 324.601 98.0165 324.581 98.1533 324.513L98.1943 325.046ZM102.224 325.128C101.718 325.128 101.26 324.889 101.103 324.574V325.073H100.522V320.232H101.103V322.119C101.322 321.798 101.773 321.572 102.231 321.572C103.298 321.572 103.886 322.338 103.886 323.35C103.886 324.362 103.298 325.128 102.224 325.128ZM102.17 324.608C102.846 324.608 103.291 324.109 103.291 323.35C103.291 322.591 102.846 322.092 102.17 322.092C101.493 322.092 101.055 322.591 101.055 323.35C101.055 324.109 101.493 324.608 102.17 324.608ZM107.746 323.193C107.746 323.275 107.739 323.398 107.732 323.46H105.011C105.052 324.157 105.49 324.615 106.112 324.615C106.638 324.615 107.001 324.369 107.103 323.938L107.65 324.068C107.479 324.738 106.905 325.128 106.112 325.128C105.079 325.128 104.43 324.328 104.43 323.35C104.43 322.372 105.059 321.572 106.098 321.572C107.117 321.572 107.746 322.304 107.746 323.193ZM105.045 322.974H107.131C107.076 322.448 106.707 322.058 106.098 322.058C105.558 322.058 105.162 322.4 105.045 322.974ZM108.743 325.073V322.14H108.155V321.627H108.743V321.306C108.743 320.547 109.173 320.143 109.761 320.143C109.919 320.143 110.083 320.157 110.226 320.198L110.199 320.718C110.076 320.67 109.953 320.649 109.837 320.649C109.529 320.649 109.324 320.889 109.324 321.258V321.627H110.206V322.14H109.324V325.073H108.743ZM112.23 325.128C111.204 325.128 110.479 324.383 110.479 323.35C110.479 322.318 111.204 321.572 112.23 321.572C113.249 321.572 113.987 322.318 113.987 323.35C113.987 324.383 113.249 325.128 112.23 325.128ZM112.23 324.608C112.92 324.608 113.385 324.089 113.385 323.35C113.385 322.612 112.92 322.092 112.23 322.092C111.539 322.092 111.074 322.612 111.074 323.35C111.074 324.089 111.539 324.608 112.23 324.608ZM116.748 322.195C116.618 322.14 116.454 322.113 116.303 322.113C115.756 322.113 115.312 322.639 115.312 323.76V325.073H114.731V321.627H115.312V322.325C115.51 321.887 115.962 321.572 116.385 321.572C116.529 321.572 116.666 321.593 116.782 321.634L116.748 322.195ZM120.306 323.193C120.306 323.275 120.299 323.398 120.292 323.46H117.571C117.612 324.157 118.05 324.615 118.672 324.615C119.198 324.615 119.561 324.369 119.663 323.938L120.21 324.068C120.039 324.738 119.465 325.128 118.672 325.128C117.639 325.128 116.99 324.328 116.99 323.35C116.99 322.372 117.619 321.572 118.658 321.572C119.677 321.572 120.306 322.304 120.306 323.193ZM117.605 322.974H119.69C119.636 322.448 119.267 322.058 118.658 322.058C118.118 322.058 117.721 322.4 117.605 322.974ZM124.536 325.046C124.365 325.107 124.18 325.128 123.996 325.128C123.408 325.128 122.977 324.8 122.977 324.041V322.14H122.334V321.627H122.977V320.581H123.558V321.627H124.481V322.14H123.558V324.061C123.558 324.424 123.763 324.601 124.064 324.601C124.201 324.601 124.358 324.581 124.495 324.513L124.536 325.046ZM127.231 322.195C127.101 322.14 126.937 322.113 126.787 322.113C126.24 322.113 125.795 322.639 125.795 323.76V325.073H125.214V321.627H125.795V322.325C125.993 321.887 126.445 321.572 126.869 321.572C127.012 321.572 127.149 321.593 127.265 321.634L127.231 322.195ZM130.101 321.627H130.696L128.891 326.318H128.296L128.795 325.025L127.449 321.627H128.078L129.09 324.266L130.101 321.627ZM131.544 320.978C131.312 320.978 131.141 320.8 131.141 320.574C131.141 320.342 131.312 320.164 131.544 320.164C131.783 320.164 131.961 320.342 131.961 320.574C131.961 320.8 131.783 320.978 131.544 320.978ZM131.257 325.073V321.627H131.838V325.073H131.257ZM132.779 325.073V321.627H133.36V322.277C133.6 321.866 134.017 321.572 134.543 321.572C135.261 321.572 135.774 322.058 135.774 322.79V325.073H135.193V322.899C135.193 322.434 134.899 322.099 134.413 322.099C133.771 322.099 133.36 322.653 133.36 323.562V325.073H132.779ZM138.49 324.403C139.18 324.403 139.659 324.69 139.659 325.326C139.659 326.017 139.016 326.372 138.073 326.372C137.095 326.372 136.486 326.024 136.486 325.388C136.486 325.087 136.65 324.841 136.856 324.684C136.685 324.567 136.582 324.396 136.582 324.15C136.582 323.849 136.78 323.624 137.047 323.501C136.862 323.302 136.76 323.043 136.76 322.735C136.76 322.037 137.32 321.572 138.066 321.572C138.291 321.572 138.503 321.62 138.695 321.709L139.235 321.244L139.57 321.627L139.112 322.017C139.276 322.208 139.372 322.455 139.372 322.735C139.372 323.446 138.818 323.897 138.066 323.897C137.82 323.897 137.608 323.849 137.423 323.767C137.225 323.856 137.143 323.972 137.143 324.116C137.143 324.328 137.341 324.403 137.567 324.403H138.49ZM138.066 322.044C137.669 322.044 137.327 322.304 137.327 322.735C137.327 323.172 137.669 323.425 138.066 323.425C138.462 323.425 138.804 323.172 138.804 322.735C138.804 322.304 138.462 322.044 138.066 322.044ZM138.073 325.88C138.729 325.88 139.091 325.695 139.091 325.367C139.091 324.998 138.818 324.875 138.408 324.875H137.676C137.553 324.875 137.437 324.868 137.327 324.854C137.115 324.998 137.054 325.183 137.054 325.381C137.054 325.695 137.402 325.88 138.073 325.88ZM143.246 321.572C144.08 321.572 144.661 322.065 144.661 322.865V325.073H144.087V324.485C143.889 324.882 143.437 325.128 142.938 325.128C142.248 325.128 141.776 324.704 141.776 324.109C141.776 323.446 142.316 323.084 143.417 322.974L144.087 322.899V322.831C144.087 322.359 143.752 322.058 143.246 322.058C142.774 322.058 142.439 322.338 142.391 322.803L141.851 322.701C141.954 322.017 142.521 321.572 143.246 321.572ZM143.027 324.649C143.697 324.649 144.087 324.205 144.087 323.514V323.35L143.417 323.425C142.719 323.501 142.357 323.74 142.357 324.102C142.357 324.424 142.63 324.649 143.027 324.649ZM147.377 324.403C148.068 324.403 148.546 324.69 148.546 325.326C148.546 326.017 147.903 326.372 146.96 326.372C145.982 326.372 145.374 326.024 145.374 325.388C145.374 325.087 145.538 324.841 145.743 324.684C145.572 324.567 145.469 324.396 145.469 324.15C145.469 323.849 145.668 323.624 145.934 323.501C145.75 323.302 145.647 323.043 145.647 322.735C145.647 322.037 146.208 321.572 146.953 321.572C147.179 321.572 147.391 321.62 147.582 321.709L148.122 321.244L148.457 321.627L147.999 322.017C148.163 322.208 148.259 322.455 148.259 322.735C148.259 323.446 147.705 323.897 146.953 323.897C146.707 323.897 146.495 323.849 146.31 323.767C146.112 323.856 146.03 323.972 146.03 324.116C146.03 324.328 146.228 324.403 146.454 324.403H147.377ZM146.953 322.044C146.556 322.044 146.215 322.304 146.215 322.735C146.215 323.172 146.556 323.425 146.953 323.425C147.35 323.425 147.692 323.172 147.692 322.735C147.692 322.304 147.35 322.044 146.953 322.044ZM146.96 325.88C147.616 325.88 147.979 325.695 147.979 325.367C147.979 324.998 147.705 324.875 147.295 324.875H146.563C146.44 324.875 146.324 324.868 146.215 324.854C146.003 324.998 145.941 325.183 145.941 325.381C145.941 325.695 146.29 325.88 146.96 325.88ZM150.484 321.572C151.318 321.572 151.899 322.065 151.899 322.865V325.073H151.325V324.485C151.127 324.882 150.675 325.128 150.176 325.128C149.486 325.128 149.014 324.704 149.014 324.109C149.014 323.446 149.554 323.084 150.655 322.974L151.325 322.899V322.831C151.325 322.359 150.99 322.058 150.484 322.058C150.012 322.058 149.677 322.338 149.629 322.803L149.089 322.701C149.192 322.017 149.759 321.572 150.484 321.572ZM150.265 324.649C150.935 324.649 151.325 324.205 151.325 323.514V323.35L150.655 323.425C149.957 323.501 149.595 323.74 149.595 324.102C149.595 324.424 149.868 324.649 150.265 324.649ZM153.131 320.978C152.899 320.978 152.728 320.8 152.728 320.574C152.728 320.342 152.899 320.164 153.131 320.164C153.371 320.164 153.548 320.342 153.548 320.574C153.548 320.8 153.371 320.978 153.131 320.978ZM152.844 325.073V321.627H153.425V325.073H152.844ZM154.367 325.073V321.627H154.948V322.277C155.187 321.866 155.604 321.572 156.131 321.572C156.849 321.572 157.361 322.058 157.361 322.79V325.073H156.78V322.899C156.78 322.434 156.486 322.099 156.001 322.099C155.358 322.099 154.948 322.653 154.948 323.562V325.073H154.367ZM158.723 325.128C158.477 325.128 158.306 324.957 158.306 324.718C158.306 324.485 158.477 324.307 158.723 324.307C158.956 324.307 159.14 324.485 159.14 324.718C159.14 324.957 158.956 325.128 158.723 325.128Z" fill="black"/>
<g clip-path="url(#clip1_940_6564)">
<path d="M45.5178 287.801C43.1677 287.801 41.2622 289.704 41.2622 292.051C41.2622 294.398 43.1677 296.301 45.5178 296.301C47.8678 296.301 49.7733 294.398 49.7733 292.051C49.7733 289.704 47.8678 287.801 45.5178 287.801ZM45.2138 290.002C45.2138 289.96 45.248 289.926 45.2898 289.926H45.7457C45.7875 289.926 45.8217 289.96 45.8217 290.002V292.582C45.8217 292.624 45.7875 292.658 45.7457 292.658H45.2898C45.248 292.658 45.2138 292.624 45.2138 292.582V290.002ZM45.5178 294.176C45.3984 294.173 45.2848 294.124 45.2013 294.039C45.1178 293.954 45.071 293.84 45.071 293.72C45.071 293.601 45.1178 293.487 45.2013 293.402C45.2848 293.317 45.3984 293.267 45.5178 293.265C45.6371 293.267 45.7507 293.317 45.8342 293.402C45.9177 293.487 45.9645 293.601 45.9645 293.72C45.9645 293.84 45.9177 293.954 45.8342 294.039C45.7507 294.124 45.6371 294.173 45.5178 294.176Z" fill="#F05656"/>
</g>
<rect x="41.24" y="345.729" width="139.947" height="18.7488" rx="4.2734" fill="#014C92"/>
<path d="M94.5202 358.478C93.151 358.478 91.8818 357.562 91.8818 355.724C91.8818 353.885 93.1818 352.97 94.5894 352.97C95.8817 352.97 96.7971 353.647 97.0048 354.762L95.974 354.978C95.8432 354.301 95.3048 353.87 94.5817 353.87C93.6202 353.87 92.9356 354.547 92.9356 355.724C92.9356 356.901 93.6202 357.57 94.5664 357.57C95.3817 357.57 95.9279 357.085 95.9817 356.385H94.3817V355.539H96.9509V358.416H96.0048V357.762C95.7663 358.201 95.174 358.478 94.5202 358.478ZM99.6812 358.478C98.5044 358.478 97.6582 357.631 97.6582 356.478C97.6582 355.324 98.5044 354.478 99.6812 354.478C100.858 354.478 101.704 355.324 101.704 356.478C101.704 357.631 100.858 358.478 99.6812 358.478ZM99.6812 357.639C100.304 357.639 100.727 357.17 100.727 356.478C100.727 355.785 100.304 355.316 99.6812 355.316C99.0505 355.316 98.6351 355.785 98.6351 356.478C98.6351 357.17 99.0505 357.639 99.6812 357.639ZM104.281 358.416V352.97H105.25V355.139C105.504 354.716 105.943 354.478 106.481 354.478C107.35 354.478 107.927 355.031 107.927 355.878V358.416H106.958V356.116C106.958 355.639 106.666 355.339 106.189 355.339C105.589 355.339 105.25 355.855 105.25 356.731V358.416H104.281ZM110.679 358.478C109.502 358.478 108.656 357.631 108.656 356.478C108.656 355.324 109.502 354.478 110.679 354.478C111.855 354.478 112.702 355.324 112.702 356.478C112.702 357.631 111.855 358.478 110.679 358.478ZM110.679 357.639C111.302 357.639 111.725 357.17 111.725 356.478C111.725 355.785 111.302 355.316 110.679 355.316C110.048 355.316 109.632 355.785 109.632 356.478C109.632 357.17 110.048 357.639 110.679 357.639ZM113.43 358.416V354.539H114.4V355.131C114.615 354.747 114.977 354.478 115.515 354.478C116.13 354.478 116.546 354.739 116.723 355.208C116.93 354.816 117.392 354.478 118.007 354.478C118.846 354.478 119.392 355.024 119.392 355.785V358.416H118.423V356.055C118.423 355.593 118.169 355.301 117.715 355.301C117.192 355.301 116.892 355.755 116.892 356.439V358.416H115.923V356.055C115.923 355.593 115.677 355.301 115.23 355.301C114.7 355.301 114.4 355.762 114.4 356.447V358.416H113.43ZM123.988 356.347C123.988 356.485 123.98 356.655 123.972 356.731H121.095C121.18 357.316 121.557 357.662 122.111 357.662C122.565 357.662 122.888 357.447 122.988 357.07L123.895 357.316C123.68 358.047 123.003 358.478 122.095 358.478C120.811 358.478 120.126 357.485 120.126 356.478C120.126 355.47 120.757 354.478 122.041 354.478C123.349 354.478 123.988 355.447 123.988 356.347ZM121.118 356.024H122.949C122.903 355.562 122.603 355.216 122.041 355.216C121.565 355.216 121.226 355.501 121.118 356.024ZM129.145 354.139L131.384 356.378L129.153 358.608L128.638 358.093L129.938 356.793H126.361V355.962H129.938L128.63 354.662L129.145 354.139Z" fill="#F2F2F2"/>
<g style="mix-blend-mode:multiply">
<rect x="31" y="27" width="160" height="237.342" fill="#888888"/>
</g>
<rect x="31" y="27" width="58.88" height="58.803" fill="#E9E9E9"/>
<rect x="96.7065" y="27" width="58.88" height="58.803" fill="#E9E9E9"/>
<rect x="31" y="92.1943" width="124.587" height="23.436" fill="#9FE6B3"/>
<rect x="162.413" y="27" width="28.5867" height="88.6305" fill="#E9E9E9"/>
<rect x="132.12" y="122.448" width="58.88" height="46.8719" fill="#E9E9E9"/>
<rect x="132.547" y="175.712" width="58.88" height="26.8448" fill="#9FE6B3"/>
<rect x="132.547" y="209.374" width="58.88" height="54.968" fill="#E9E9E9"/>
<path d="M66.4133 122.448H125.293V162.289L66.4133 208.948V122.448Z" fill="#E9E9E9"/>
<path d="M59.1602 122.448L30.5735 122.448L31.0002 237.924L59.1602 214.744V122.448Z" fill="#E9E9E9"/>
<path d="M88.1733 264.342H31V249.215L88.1733 202.556V264.342Z" fill="#E9E9E9"/>
<path d="M95.4265 264.342L125.293 264.342V174.859L95.4265 197.656V264.342Z" fill="#E9E9E9"/>
<g filter="url(#filter1_d_940_6564)">
<ellipse cx="111.213" cy="145.884" rx="38.4" ry="38.3498" fill="white"/>
</g>
<path d="M108.216 122.448C104.511 122.448 100.958 123.946 98.3381 126.613C95.7183 129.28 94.2466 132.896 94.2466 136.667C94.2466 144.535 105.422 160.366 108.216 160.366C111.01 160.366 122.185 144.535 122.185 136.667C122.185 132.896 120.713 129.28 118.093 126.613C115.474 123.946 111.921 122.448 108.216 122.448ZM108.216 146.147C106.374 146.147 104.573 145.591 103.042 144.549C101.51 143.508 100.317 142.027 99.6119 140.295C98.907 138.563 98.7226 136.657 99.0819 134.818C99.4413 132.979 100.328 131.29 101.631 129.964C102.933 128.639 104.592 127.736 106.399 127.37C108.205 127.004 110.078 127.192 111.78 127.91C113.481 128.627 114.936 129.842 115.959 131.401C116.982 132.96 117.529 134.792 117.529 136.667C117.529 139.181 116.547 141.593 114.801 143.37C113.054 145.148 110.686 146.147 108.216 146.147Z" fill="#B1CDE2"/>
<path d="M131.07 152.702C131.07 157.544 127.133 161.474 122.269 161.474C117.406 161.474 113.469 157.544 113.469 152.702C113.469 147.86 117.406 143.93 122.269 143.93C127.133 143.93 131.07 147.86 131.07 152.702Z" fill="#F05656" stroke="#F05656" stroke-width="2.05657"/>
<line y1="-0.514143" x2="8.22501" y2="-0.514143" transform="matrix(0.708126 0.706086 -0.708126 0.706086 118.752 150.223)" stroke="white" stroke-width="1.02829"/>
<line y1="-0.514143" x2="8.22501" y2="-0.514143" transform="matrix(-0.708126 0.706086 -0.708126 -0.706086 124.635 149.394)" stroke="white" stroke-width="1.02829"/>
<ellipse cx="110.699" cy="165.912" rx="18.1619" ry="0.852217" fill="#B1CDE2" fill-opacity="0.4"/>
</g>
</g>
<defs>
<filter id="filter0_d_940_6564" x="11" y="9" width="200" height="386" filterUnits="userSpaceOnUse" color-interpolation-filters="sRGB">
<feFlood flood-opacity="0" result="BackgroundImageFix"/>
<feColorMatrix in="SourceAlpha" type="matrix" values="0 0 0 0 0 0 0 0 0 0 0 0 0 0 0 0 0 0 127 0" result="hardAlpha"/>
<feOffset dy="2"/>
<feGaussianBlur stdDeviation="10"/>
<feComposite in2="hardAlpha" operator="out"/>
<feColorMatrix type="matrix" values="0 0 0 0 0.00392157 0 0 0 0 0.298039 0 0 0 0 0.572549 0 0 0 0.1 0"/>
<feBlend mode="normal" in2="BackgroundImageFix" result="effect1_dropShadow_940_6564"/>
<feBlend mode="normal" in="SourceGraphic" in2="effect1_dropShadow_940_6564" result="shape"/>
</filter>
<filter id="filter1_d_940_6564" x="64.2667" y="100.697" width="93.8936" height="93.7928" filterUnits="userSpaceOnUse" color-interpolation-filters="sRGB">
<feFlood flood-opacity="0" result="BackgroundImageFix"/>
<feColorMatrix in="SourceAlpha" type="matrix" values="0 0 0 0 0 0 0 0 0 0 0 0 0 0 0 0 0 0 127 0" result="hardAlpha"/>
<feOffset dy="1.70936"/>
<feGaussianBlur stdDeviation="4.2734"/>
<feComposite in2="hardAlpha" operator="out"/>
<feColorMatrix type="matrix" values="0 0 0 0 0.941176 0 0 0 0 0.337255 0 0 0 0 0.337255 0 0 0 0.2 0"/>
<feBlend mode="normal" in2="BackgroundImageFix" result="effect1_dropShadow_940_6564"/>
<feBlend mode="normal" in="SourceGraphic" in2="effect1_dropShadow_940_6564" result="shape"/>
</filter>
<clipPath id="clip0_940_6564">
<rect x="31" y="27" width="160" height="346" rx="8.59" fill="white"/>
</clipPath>
<clipPath id="clip1_940_6564">
<rect width="8.53333" height="8.52217" fill="white" transform="translate(41.24 287.778)"/>
</clipPath>
</defs>
</svg>
