<svg viewBox="0 0 415 400" fill="none" xmlns="http://www.w3.org/2000/svg">
<rect width="415" height="400" rx="23.0739" fill="#F4F8FB"/>
<g filter="url(#filter0_d_943_10253)">
<rect x="31" y="27" width="160" height="346.453" rx="8.59" fill="white"/>
<path d="M55.944 173.96V166.792H57.3571L60.4291 171.769V166.792H61.7296V173.96H60.3165L57.2547 168.994V173.96H55.944ZM65.4595 174.042C63.8927 174.042 62.7663 172.915 62.7663 171.379C62.7663 169.843 63.8927 168.717 65.4595 168.717C67.0262 168.717 68.1526 169.843 68.1526 171.379C68.1526 172.915 67.0262 174.042 65.4595 174.042ZM65.4595 172.926C66.2889 172.926 66.8521 172.301 66.8521 171.379C66.8521 170.458 66.2889 169.833 65.4595 169.833C64.6198 169.833 64.0668 170.458 64.0668 171.379C64.0668 172.301 64.6198 172.926 65.4595 172.926ZM72.2279 168.011C71.7671 168.011 71.4292 167.662 71.4292 167.212C71.4292 166.771 71.7671 166.423 72.2279 166.423C72.699 166.423 73.0471 166.771 73.0471 167.212C73.0471 167.662 72.699 168.011 72.2279 168.011ZM71.5828 173.96V168.799H72.8731V173.96H71.5828ZM74.1228 173.96V168.799H75.4131V169.577C75.7407 169.075 76.3244 168.717 77.0515 168.717C78.1779 168.717 78.9356 169.454 78.9356 170.581V173.96H77.6454V170.888C77.6454 170.284 77.2665 169.864 76.6623 169.864C75.8739 169.864 75.4131 170.54 75.4131 171.697V173.96H74.1228ZM83.0746 173.909C82.8186 174.001 82.5421 174.042 82.2451 174.042C81.2007 174.042 80.4224 173.479 80.4224 172.27V169.884H79.552V168.799H80.4224V167.283H81.7127V168.799H83.0131V169.884H81.7127V172.147C81.7127 172.639 81.9789 172.905 82.3783 172.905C82.5728 172.905 82.7981 172.875 82.9824 172.782L83.0746 173.909ZM88.7268 171.205C88.7268 171.39 88.7166 171.615 88.7063 171.717H84.8766C84.9892 172.496 85.491 172.956 86.2283 172.956C86.8324 172.956 87.2625 172.67 87.3956 172.168L88.6039 172.496C88.3172 173.468 87.4161 174.042 86.2078 174.042C84.4977 174.042 83.5863 172.721 83.5863 171.379C83.5863 170.038 84.426 168.717 86.1361 168.717C87.8769 168.717 88.7268 170.007 88.7268 171.205ZM84.9073 170.775H87.3444C87.283 170.161 86.8836 169.7 86.1361 169.7C85.5012 169.7 85.0507 170.079 84.9073 170.775ZM93.0308 170.048C92.8465 169.966 92.6007 169.925 92.3755 169.925C91.6484 169.925 90.9931 170.53 90.9931 172.066V173.96H89.7028V168.799H90.9931V169.741C91.2491 169.157 91.9249 168.717 92.5495 168.717C92.7339 168.717 92.9591 168.748 93.1127 168.799L93.0308 170.048ZM93.8628 173.96V168.799H95.1531V169.577C95.4807 169.075 96.0644 168.717 96.7915 168.717C97.9179 168.717 98.6756 169.454 98.6756 170.581V173.96H97.3854V170.888C97.3854 170.284 97.0065 169.864 96.4023 169.864C95.6139 169.864 95.1531 170.54 95.1531 171.697V173.96H93.8628ZM104.787 171.205C104.787 171.39 104.777 171.615 104.766 171.717H100.937C101.049 172.496 101.551 172.956 102.288 172.956C102.892 172.956 103.323 172.67 103.456 172.168L104.664 172.496C104.377 173.468 103.476 174.042 102.268 174.042C100.558 174.042 99.6463 172.721 99.6463 171.379C99.6463 170.038 100.486 168.717 102.196 168.717C103.937 168.717 104.787 170.007 104.787 171.205ZM100.967 170.775H103.404C103.343 170.161 102.944 169.7 102.196 169.7C101.561 169.7 101.111 170.079 100.967 170.775ZM108.735 173.909C108.479 174.001 108.202 174.042 107.905 174.042C106.861 174.042 106.082 173.479 106.082 172.27V169.884H105.212V168.799H106.082V167.283H107.373V168.799H108.673V169.884H107.373V172.147C107.373 172.639 107.639 172.905 108.038 172.905C108.233 172.905 108.458 172.875 108.642 172.782L108.735 173.909ZM114.428 174.042C112.882 174.042 111.806 172.956 111.806 171.379C111.806 169.803 112.882 168.717 114.428 168.717C115.749 168.717 116.681 169.403 116.855 170.499L115.595 170.745C115.503 170.202 115.073 169.833 114.469 169.833C113.67 169.833 113.148 170.437 113.148 171.379C113.148 172.322 113.67 172.926 114.469 172.926C115.073 172.926 115.472 172.598 115.595 172.045L116.855 172.301C116.66 173.387 115.728 174.042 114.428 174.042ZM120.239 174.042C118.673 174.042 117.546 172.915 117.546 171.379C117.546 169.843 118.673 168.717 120.239 168.717C121.806 168.717 122.933 169.843 122.933 171.379C122.933 172.915 121.806 174.042 120.239 174.042ZM120.239 172.926C121.069 172.926 121.632 172.301 121.632 171.379C121.632 170.458 121.069 169.833 120.239 169.833C119.4 169.833 118.847 170.458 118.847 171.379C118.847 172.301 119.4 172.926 120.239 172.926ZM123.903 173.96V168.799H125.193V169.577C125.521 169.075 126.104 168.717 126.831 168.717C127.958 168.717 128.716 169.454 128.716 170.581V173.96H127.425V170.888C127.425 170.284 127.047 169.864 126.442 169.864C125.654 169.864 125.193 170.54 125.193 171.697V173.96H123.903ZM129.963 173.96V168.799H131.253V169.577C131.581 169.075 132.164 168.717 132.891 168.717C134.018 168.717 134.776 169.454 134.776 170.581V173.96H133.485V170.888C133.485 170.284 133.107 169.864 132.502 169.864C131.714 169.864 131.253 170.54 131.253 171.697V173.96H129.963ZM140.887 171.205C140.887 171.39 140.877 171.615 140.866 171.717H137.037C137.149 172.496 137.651 172.956 138.388 172.956C138.992 172.956 139.423 172.67 139.556 172.168L140.764 172.496C140.477 173.468 139.576 174.042 138.368 174.042C136.658 174.042 135.746 172.721 135.746 171.379C135.746 170.038 136.586 168.717 138.296 168.717C140.037 168.717 140.887 170.007 140.887 171.205ZM137.067 170.775H139.504C139.443 170.161 139.044 169.7 138.296 169.7C137.661 169.7 137.211 170.079 137.067 170.775ZM144.208 174.042C142.662 174.042 141.586 172.956 141.586 171.379C141.586 169.803 142.662 168.717 144.208 168.717C145.529 168.717 146.461 169.403 146.635 170.499L145.375 170.745C145.283 170.202 144.853 169.833 144.249 169.833C143.45 169.833 142.928 170.437 142.928 171.379C142.928 172.322 143.45 172.926 144.249 172.926C144.853 172.926 145.252 172.598 145.375 172.045L146.635 172.301C146.44 173.387 145.508 174.042 144.208 174.042ZM150.575 173.909C150.319 174.001 150.042 174.042 149.745 174.042C148.701 174.042 147.922 173.479 147.922 172.27V169.884H147.052V168.799H147.922V167.283H149.213V168.799H150.513V169.884H149.213V172.147C149.213 172.639 149.479 172.905 149.878 172.905C150.073 172.905 150.298 172.875 150.482 172.782L150.575 173.909ZM152.108 168.011C151.647 168.011 151.309 167.662 151.309 167.212C151.309 166.771 151.647 166.423 152.108 166.423C152.579 166.423 152.927 166.771 152.927 167.212C152.927 167.662 152.579 168.011 152.108 168.011ZM151.463 173.96V168.799H152.753V173.96H151.463ZM156.419 174.042C154.853 174.042 153.726 172.915 153.726 171.379C153.726 169.843 154.853 168.717 156.419 168.717C157.986 168.717 159.113 169.843 159.113 171.379C159.113 172.915 157.986 174.042 156.419 174.042ZM156.419 172.926C157.249 172.926 157.812 172.301 157.812 171.379C157.812 170.458 157.249 169.833 156.419 169.833C155.58 169.833 155.027 170.458 155.027 171.379C155.027 172.301 155.58 172.926 156.419 172.926ZM160.083 173.96V168.799H161.373V169.577C161.701 169.075 162.284 168.717 163.011 168.717C164.138 168.717 164.896 169.454 164.896 170.581V173.96H163.605V170.888C163.605 170.284 163.227 169.864 162.622 169.864C161.834 169.864 161.373 170.54 161.373 171.697V173.96H160.083Z" fill="black"/>
<g filter="url(#filter1_d_943_10253)">
<rect x="45.9332" y="191.266" width="129.707" height="61.8667" rx="1.33686" fill="white"/>
</g>
<path d="M64.7784 204.24V199.462H66.5943C67.5227 199.462 68.1234 200.008 68.1234 200.847C68.1234 201.687 67.5227 202.233 66.5943 202.233H65.3996V204.24H64.7784ZM65.3996 201.673H66.5738C67.1404 201.673 67.4817 201.366 67.4817 200.847C67.4817 200.329 67.1404 200.015 66.5738 200.015H65.3996V201.673ZM69.8362 204.288C69.2218 204.349 68.7644 204.117 68.7644 203.401V199.407H69.3447V203.36C69.3447 203.735 69.5221 203.79 69.8089 203.769L69.8362 204.288ZM73.624 202.363C73.624 202.445 73.6172 202.568 73.6104 202.629H70.8933C70.9343 203.325 71.3712 203.783 71.9924 203.783C72.5181 203.783 72.8799 203.537 72.9823 203.107L73.5284 203.237C73.3578 203.906 72.7843 204.295 71.9924 204.295C70.9616 204.295 70.3131 203.496 70.3131 202.52C70.3131 201.544 70.9411 200.745 71.9788 200.745C72.996 200.745 73.624 201.475 73.624 202.363ZM70.9275 202.144H73.0096C72.955 201.619 72.5864 201.23 71.9788 201.23C71.4395 201.23 71.0435 201.571 70.9275 202.144ZM75.6211 200.745C76.454 200.745 77.0343 201.237 77.0343 202.035V204.24H76.4608V203.653C76.2628 204.049 75.8123 204.295 75.3139 204.295C74.6244 204.295 74.1534 203.872 74.1534 203.278C74.1534 202.615 74.6927 202.254 75.7918 202.144L76.4608 202.069V202.001C76.4608 201.53 76.1263 201.23 75.6211 201.23C75.1501 201.23 74.8156 201.51 74.7678 201.974L74.2285 201.871C74.3309 201.189 74.8975 200.745 75.6211 200.745ZM75.4027 203.817C76.0717 203.817 76.4608 203.373 76.4608 202.684V202.52L75.7918 202.595C75.0955 202.67 74.7337 202.909 74.7337 203.271C74.7337 203.592 75.0067 203.817 75.4027 203.817ZM79.1314 204.295C78.2986 204.295 77.848 203.776 77.6978 203.291L78.1962 203.073C78.3259 203.476 78.5989 203.803 79.1314 203.803C79.5547 203.803 79.8277 203.558 79.8277 203.278C79.8277 202.397 77.848 202.964 77.848 201.66C77.848 201.114 78.3191 200.745 79.0563 200.745C79.6639 200.745 80.1896 201.086 80.3329 201.591L79.8482 201.803C79.7527 201.448 79.4113 201.223 79.0427 201.223C78.6536 201.223 78.4078 201.38 78.4078 201.653C78.4078 202.39 80.4012 201.851 80.3944 203.271C80.3944 203.872 79.8892 204.295 79.1314 204.295ZM84.2173 202.363C84.2173 202.445 84.2105 202.568 84.2037 202.629H81.4867C81.5276 203.325 81.9645 203.783 82.5858 203.783C83.1114 203.783 83.4732 203.537 83.5756 203.107L84.1218 203.237C83.9511 203.906 83.3777 204.295 82.5858 204.295C81.5549 204.295 80.9064 203.496 80.9064 202.52C80.9064 201.544 81.5345 200.745 82.5721 200.745C83.5893 200.745 84.2173 201.475 84.2173 202.363ZM81.5208 202.144H83.6029C83.5483 201.619 83.1797 201.23 82.5721 201.23C82.0328 201.23 81.6369 201.571 81.5208 202.144ZM86.6111 204.24V200.8H87.1913V201.448C87.362 201.039 87.7033 200.745 88.229 200.745C88.7888 200.745 89.2257 201.004 89.3485 201.469C89.5329 201.059 89.9425 200.745 90.4613 200.745C91.1986 200.745 91.6628 201.209 91.6628 201.933V204.24H91.0825V202.049C91.0825 201.578 90.8163 201.257 90.3316 201.257C89.7445 201.257 89.4236 201.783 89.4236 202.513V204.24H88.8434V202.049C88.8434 201.578 88.5771 201.257 88.0993 201.257C87.5122 201.257 87.1913 201.783 87.1913 202.513V204.24H86.6111ZM93.8878 200.745C94.7207 200.745 95.3009 201.237 95.3009 202.035V204.24H94.7275V203.653C94.5295 204.049 94.0789 204.295 93.5806 204.295C92.8911 204.295 92.4201 203.872 92.4201 203.278C92.4201 202.615 92.9594 202.254 94.0585 202.144L94.7275 202.069V202.001C94.7275 201.53 94.393 201.23 93.8878 201.23C93.4168 201.23 93.0823 201.51 93.0345 201.974L92.4952 201.871C92.5976 201.189 93.1642 200.745 93.8878 200.745ZM93.6693 203.817C94.3384 203.817 94.7275 203.373 94.7275 202.684V202.52L94.0585 202.595C93.3621 202.67 93.0003 202.909 93.0003 203.271C93.0003 203.592 93.2734 203.817 93.6693 203.817ZM98.5859 204.24L97.2889 202.547L96.8315 202.964V204.24H96.2444V199.407H96.8315V202.199L98.4221 200.8H99.1935L97.7189 202.158L99.3096 204.24H98.5859ZM102.824 202.363C102.824 202.445 102.817 202.568 102.81 202.629H100.093C100.134 203.325 100.571 203.783 101.192 203.783C101.718 203.783 102.08 203.537 102.182 203.107L102.728 203.237C102.558 203.906 101.984 204.295 101.192 204.295C100.162 204.295 99.5131 203.496 99.5131 202.52C99.5131 201.544 100.141 200.745 101.179 200.745C102.196 200.745 102.824 201.475 102.824 202.363ZM100.127 202.144H102.21C102.155 201.619 101.786 201.23 101.179 201.23C100.639 201.23 100.244 201.571 100.127 202.144ZM106.371 204.295C105.539 204.295 105.088 203.776 104.938 203.291L105.436 203.073C105.566 203.476 105.839 203.803 106.371 203.803C106.795 203.803 107.068 203.558 107.068 203.278C107.068 202.397 105.088 202.964 105.088 201.66C105.088 201.114 105.559 200.745 106.296 200.745C106.904 200.745 107.43 201.086 107.573 201.591L107.088 201.803C106.993 201.448 106.651 201.223 106.283 201.223C105.894 201.223 105.648 201.38 105.648 201.653C105.648 202.39 107.641 201.851 107.634 203.271C107.634 203.872 107.129 204.295 106.371 204.295ZM111.361 200.8V204.24H110.781V203.592C110.542 204.001 110.126 204.295 109.6 204.295C108.883 204.295 108.371 203.81 108.371 203.08V200.8H108.951V202.97C108.951 203.435 109.245 203.769 109.73 203.769C110.371 203.769 110.781 203.216 110.781 202.308V200.8H111.361ZM114.318 201.366C114.189 201.312 114.025 201.284 113.875 201.284C113.328 201.284 112.885 201.81 112.885 202.93V204.24H112.304V200.8H112.885V201.496C113.083 201.059 113.533 200.745 113.956 200.745C114.1 200.745 114.236 200.765 114.352 200.806L114.318 201.366ZM117.871 202.363C117.871 202.445 117.864 202.568 117.857 202.629H115.14C115.181 203.325 115.618 203.783 116.239 203.783C116.765 203.783 117.127 203.537 117.229 203.107L117.775 203.237C117.604 203.906 117.031 204.295 116.239 204.295C115.208 204.295 114.56 203.496 114.56 202.52C114.56 201.544 115.188 200.745 116.225 200.745C117.243 200.745 117.871 201.475 117.871 202.363ZM115.174 202.144H117.256C117.202 201.619 116.833 201.23 116.225 201.23C115.686 201.23 115.29 201.571 115.174 202.144ZM122.531 200.8H123.125L121.323 205.483H120.729L121.227 204.192L119.882 200.8H120.51L121.52 203.435L122.531 200.8ZM125.121 204.295C124.097 204.295 123.373 203.551 123.373 202.52C123.373 201.489 124.097 200.745 125.121 200.745C126.138 200.745 126.875 201.489 126.875 202.52C126.875 203.551 126.138 204.295 125.121 204.295ZM125.121 203.776C125.81 203.776 126.274 203.257 126.274 202.52C126.274 201.783 125.81 201.264 125.121 201.264C124.431 201.264 123.967 201.783 123.967 202.52C123.967 203.257 124.431 203.776 125.121 203.776ZM130.608 200.8V204.24H130.028V203.592C129.789 204.001 129.372 204.295 128.847 204.295C128.13 204.295 127.618 203.81 127.618 203.08V200.8H128.198V202.97C128.198 203.435 128.492 203.769 128.976 203.769C129.618 203.769 130.028 203.216 130.028 202.308V200.8H130.608ZM133.198 204.24V199.407H133.778V201.475C134.031 200.984 134.447 200.745 134.952 200.745C135.73 200.745 136.242 201.23 136.242 201.974V204.24H135.662V202.083C135.662 201.578 135.348 201.271 134.822 201.271C134.188 201.271 133.778 201.844 133.778 202.766V204.24H133.198ZM138.468 200.745C139.301 200.745 139.881 201.237 139.881 202.035V204.24H139.307V203.653C139.11 204.049 138.659 204.295 138.161 204.295C137.471 204.295 137 203.872 137 203.278C137 202.615 137.539 202.254 138.638 202.144L139.307 202.069V202.001C139.307 201.53 138.973 201.23 138.468 201.23C137.997 201.23 137.662 201.51 137.614 201.974L137.075 201.871C137.178 201.189 137.744 200.745 138.468 200.745ZM138.249 203.817C138.918 203.817 139.307 203.373 139.307 202.684V202.52L138.638 202.595C137.942 202.67 137.58 202.909 137.58 203.271C137.58 203.592 137.853 203.817 138.249 203.817ZM141.585 204.24L140.329 200.8H140.923L141.878 203.564L142.841 200.8H143.442L142.179 204.24H141.585ZM147.004 202.363C147.004 202.445 146.997 202.568 146.99 202.629H144.273C144.314 203.325 144.751 203.783 145.372 203.783C145.898 203.783 146.26 203.537 146.362 203.107L146.908 203.237C146.738 203.906 146.164 204.295 145.372 204.295C144.342 204.295 143.693 203.496 143.693 202.52C143.693 201.544 144.321 200.745 145.359 200.745C146.376 200.745 147.004 201.475 147.004 202.363ZM144.307 202.144H146.39C146.335 201.619 145.966 201.23 145.359 201.23C144.819 201.23 144.424 201.571 144.307 202.144ZM150.681 200.745C151.514 200.745 152.094 201.237 152.094 202.035V204.24H151.521V203.653C151.323 204.049 150.872 204.295 150.374 204.295C149.684 204.295 149.213 203.872 149.213 203.278C149.213 202.615 149.753 202.254 150.852 202.144L151.521 202.069V202.001C151.521 201.53 151.186 201.23 150.681 201.23C150.21 201.23 149.876 201.51 149.828 201.974L149.288 201.871C149.391 201.189 149.958 200.745 150.681 200.745ZM150.463 203.817C151.132 203.817 151.521 203.373 151.521 202.684V202.52L150.852 202.595C150.155 202.67 149.794 202.909 149.794 203.271C149.794 203.592 150.067 203.817 150.463 203.817ZM65.9048 212.295C65.0719 212.295 64.6213 211.776 64.4712 211.291L64.9695 211.073C65.0992 211.476 65.3723 211.803 65.9048 211.803C66.328 211.803 66.6011 211.558 66.6011 211.278C66.6011 210.397 64.6213 210.964 64.6213 209.66C64.6213 209.114 65.0924 208.745 65.8297 208.745C66.4372 208.745 66.9629 209.086 67.1063 209.591L66.6216 209.803C66.526 209.448 66.1847 209.223 65.816 209.223C65.4269 209.223 65.1811 209.38 65.1811 209.653C65.1811 210.39 67.1745 209.851 67.1677 211.271C67.1677 211.872 66.6625 212.295 65.9048 212.295ZM69.6873 212.213C69.5166 212.274 69.3323 212.295 69.148 212.295C68.5609 212.295 68.1308 211.967 68.1308 211.209V209.312H67.4891V208.8H68.1308V207.755H68.7111V208.8H69.6327V209.312H68.7111V211.23C68.7111 211.592 68.9159 211.769 69.2162 211.769C69.3528 211.769 69.5098 211.749 69.6463 211.68L69.6873 212.213ZM71.5878 208.745C72.4207 208.745 73.0009 209.237 73.0009 210.035V212.24H72.4275V211.653C72.2295 212.049 71.7789 212.295 71.2806 212.295C70.5911 212.295 70.1201 211.872 70.1201 211.278C70.1201 210.615 70.6594 210.254 71.7585 210.144L72.4275 210.069V210.001C72.4275 209.53 72.093 209.23 71.5878 209.23C71.1168 209.23 70.7823 209.51 70.7345 209.974L70.1952 209.871C70.2976 209.189 70.8642 208.745 71.5878 208.745ZM71.3693 211.817C72.0384 211.817 72.4275 211.373 72.4275 210.684V210.52L71.7585 210.595C71.0621 210.67 70.7003 210.909 70.7003 211.271C70.7003 211.592 70.9734 211.817 71.3693 211.817ZM75.6442 212.295C75.1391 212.295 74.6817 212.056 74.5247 211.742V212.24H73.9444V207.407H74.5247V209.291C74.7431 208.97 75.1937 208.745 75.6511 208.745C76.716 208.745 77.3031 209.51 77.3031 210.52C77.3031 211.53 76.716 212.295 75.6442 212.295ZM75.5896 211.776C76.2655 211.776 76.7092 211.278 76.7092 210.52C76.7092 209.762 76.2655 209.264 75.5896 209.264C74.9138 209.264 74.4769 209.762 74.4769 210.52C74.4769 211.278 74.9138 211.776 75.5896 211.776ZM79.1162 212.288C78.5018 212.349 78.0444 212.117 78.0444 211.401V207.407H78.6247V211.36C78.6247 211.735 78.8021 211.79 79.0889 211.769L79.1162 212.288ZM82.904 210.363C82.904 210.445 82.8972 210.568 82.8904 210.629H80.1733C80.2143 211.325 80.6512 211.783 81.2724 211.783C81.7981 211.783 82.1599 211.537 82.2623 211.107L82.8084 211.237C82.6378 211.906 82.0643 212.295 81.2724 212.295C80.2416 212.295 79.5931 211.496 79.5931 210.52C79.5931 209.544 80.2211 208.745 81.2588 208.745C82.276 208.745 82.904 209.475 82.904 210.363ZM80.2075 210.144H82.2896C82.235 209.619 81.8664 209.23 81.2588 209.23C80.7195 209.23 80.3235 209.571 80.2075 210.144ZM85.5844 208.151C85.3523 208.151 85.1817 207.974 85.1817 207.748C85.1817 207.516 85.3523 207.339 85.5844 207.339C85.8234 207.339 86.0009 207.516 86.0009 207.748C86.0009 207.974 85.8234 208.151 85.5844 208.151ZM85.2977 212.24V208.8H85.878V212.24H85.2977ZM86.8177 212.24V208.8H87.398V209.448C87.6369 209.039 88.0533 208.745 88.579 208.745C89.2958 208.745 89.8078 209.23 89.8078 209.96V212.24H89.2275V210.069C89.2275 209.605 88.934 209.271 88.4493 209.271C87.8076 209.271 87.398 209.824 87.398 210.732V212.24H86.8177ZM92.4539 212.213C92.2833 212.274 92.0989 212.295 91.9146 212.295C91.3275 212.295 90.8975 211.967 90.8975 211.209V209.312H90.2557V208.8H90.8975V207.755H91.4777V208.8H92.3993V209.312H91.4777V211.23C91.4777 211.592 91.6825 211.769 91.9829 211.769C92.1194 211.769 92.2764 211.749 92.413 211.68L92.4539 212.213ZM96.1573 210.363C96.1573 210.445 96.1505 210.568 96.1437 210.629H93.4267C93.4676 211.325 93.9045 211.783 94.5258 211.783C95.0514 211.783 95.4132 211.537 95.5156 211.107L96.0618 211.237C95.8911 211.906 95.3177 212.295 94.5258 212.295C93.4949 212.295 92.8464 211.496 92.8464 210.52C92.8464 209.544 93.4745 208.745 94.5121 208.745C95.5293 208.745 96.1573 209.475 96.1573 210.363ZM93.4608 210.144H95.5429C95.4883 209.619 95.1197 209.23 94.5121 209.23C93.9728 209.23 93.5769 209.571 93.4608 210.144ZM98.9183 209.366C98.7885 209.312 98.6247 209.284 98.4745 209.284C97.9284 209.284 97.4847 209.81 97.4847 210.93V212.24H96.9044V208.8H97.4847V209.496C97.6826 209.059 98.1332 208.745 98.5564 208.745C98.6998 208.745 98.8363 208.765 98.9524 208.806L98.9183 209.366ZM99.5177 212.24V208.8H100.098V209.448C100.337 209.039 100.753 208.745 101.279 208.745C101.996 208.745 102.508 209.23 102.508 209.96V212.24H101.928V210.069C101.928 209.605 101.634 209.271 101.149 209.271C100.508 209.271 100.098 209.824 100.098 210.732V212.24H99.5177ZM106.564 210.363C106.564 210.445 106.557 210.568 106.55 210.629H103.833C103.874 211.325 104.311 211.783 104.932 211.783C105.458 211.783 105.82 211.537 105.922 211.107L106.468 211.237C106.298 211.906 105.724 212.295 104.932 212.295C103.902 212.295 103.253 211.496 103.253 210.52C103.253 209.544 103.881 208.745 104.919 208.745C105.936 208.745 106.564 209.475 106.564 210.363ZM103.867 210.144H105.95C105.895 209.619 105.526 209.23 104.919 209.23C104.379 209.23 103.984 209.571 103.867 210.144ZM109.094 212.213C108.923 212.274 108.739 212.295 108.555 212.295C107.968 212.295 107.537 211.967 107.537 211.209V209.312H106.896V208.8H107.537V207.755H108.118V208.8H109.039V209.312H108.118V211.23C108.118 211.592 108.323 211.769 108.623 211.769C108.759 211.769 108.916 211.749 109.053 211.68L109.094 212.213ZM112.926 212.295C111.902 212.295 111.22 211.585 111.22 210.52C111.22 209.455 111.902 208.745 112.926 208.745C113.725 208.745 114.312 209.182 114.435 209.865L113.862 209.981C113.787 209.564 113.425 209.264 112.94 209.264C112.264 209.264 111.827 209.762 111.827 210.52C111.827 211.278 112.264 211.776 112.94 211.776C113.425 211.776 113.78 211.51 113.875 211.052L114.442 211.168C114.292 211.878 113.718 212.295 112.926 212.295ZM116.714 212.295C115.69 212.295 114.966 211.551 114.966 210.52C114.966 209.489 115.69 208.745 116.714 208.745C117.731 208.745 118.468 209.489 118.468 210.52C118.468 211.551 117.731 212.295 116.714 212.295ZM116.714 211.776C117.404 211.776 117.868 211.257 117.868 210.52C117.868 209.783 117.404 209.264 116.714 209.264C116.025 209.264 115.56 209.783 115.56 210.52C115.56 211.257 116.025 211.776 116.714 211.776ZM119.211 212.24V208.8H119.791V209.448C120.03 209.039 120.447 208.745 120.972 208.745C121.689 208.745 122.201 209.23 122.201 209.96V212.24H121.621V210.069C121.621 209.605 121.327 209.271 120.843 209.271C120.201 209.271 119.791 209.824 119.791 210.732V212.24H119.211ZM123.144 212.24V208.8H123.725V209.448C123.964 209.039 124.38 208.745 124.906 208.745C125.622 208.745 126.134 209.23 126.134 209.96V212.24H125.554V210.069C125.554 209.605 125.261 209.271 124.776 209.271C124.134 209.271 123.725 209.824 123.725 210.732V212.24H123.144ZM130.191 210.363C130.191 210.445 130.184 210.568 130.177 210.629H127.46C127.501 211.325 127.938 211.783 128.559 211.783C129.085 211.783 129.447 211.537 129.549 211.107L130.095 211.237C129.924 211.906 129.351 212.295 128.559 212.295C127.528 212.295 126.88 211.496 126.88 210.52C126.88 209.544 127.508 208.745 128.545 208.745C129.563 208.745 130.191 209.475 130.191 210.363ZM127.494 210.144H129.576C129.522 209.619 129.153 209.23 128.545 209.23C128.006 209.23 127.61 209.571 127.494 210.144ZM132.446 212.295C131.422 212.295 130.74 211.585 130.74 210.52C130.74 209.455 131.422 208.745 132.446 208.745C133.245 208.745 133.832 209.182 133.955 209.865L133.382 209.981C133.307 209.564 132.945 209.264 132.46 209.264C131.784 209.264 131.347 209.762 131.347 210.52C131.347 211.278 131.784 211.776 132.46 211.776C132.945 211.776 133.3 211.51 133.395 211.052L133.962 211.168C133.812 211.878 133.238 212.295 132.446 212.295ZM136.467 212.213C136.297 212.274 136.112 212.295 135.928 212.295C135.341 212.295 134.911 211.967 134.911 211.209V209.312H134.269V208.8H134.911V207.755H135.491V208.8H136.413V209.312H135.491V211.23C135.491 211.592 135.696 211.769 135.996 211.769C136.133 211.769 136.29 211.749 136.426 211.68L136.467 212.213ZM137.431 208.151C137.199 208.151 137.028 207.974 137.028 207.748C137.028 207.516 137.199 207.339 137.431 207.339C137.67 207.339 137.848 207.516 137.848 207.748C137.848 207.974 137.67 208.151 137.431 208.151ZM137.144 212.24V208.8H137.725V212.24H137.144ZM140.214 212.295C139.19 212.295 138.466 211.551 138.466 210.52C138.466 209.489 139.19 208.745 140.214 208.745C141.231 208.745 141.968 209.489 141.968 210.52C141.968 211.551 141.231 212.295 140.214 212.295ZM140.214 211.776C140.904 211.776 141.368 211.257 141.368 210.52C141.368 209.783 140.904 209.264 140.214 209.264C139.525 209.264 139.06 209.783 139.06 210.52C139.06 211.257 139.525 211.776 140.214 211.776ZM142.711 212.24V208.8H143.291V209.448C143.53 209.039 143.947 208.745 144.472 208.745C145.189 208.745 145.701 209.23 145.701 209.96V212.24H145.121V210.069C145.121 209.605 144.827 209.271 144.343 209.271C143.701 209.271 143.291 209.824 143.291 210.732V212.24H142.711ZM149.574 208.745C150.407 208.745 150.988 209.237 150.988 210.035V212.24H150.414V211.653C150.216 212.049 149.766 212.295 149.267 212.295C148.578 212.295 148.107 211.872 148.107 211.278C148.107 210.615 148.646 210.254 149.745 210.144L150.414 210.069V210.001C150.414 209.53 150.08 209.23 149.574 209.23C149.103 209.23 148.769 209.51 148.721 209.974L148.182 209.871C148.284 209.189 148.851 208.745 149.574 208.745ZM149.356 211.817C150.025 211.817 150.414 211.373 150.414 210.684V210.52L149.745 210.595C149.049 210.67 148.687 210.909 148.687 211.271C148.687 211.592 148.96 211.817 149.356 211.817ZM151.931 212.24V208.8H152.511V209.448C152.75 209.039 153.167 208.745 153.692 208.745C154.409 208.745 154.921 209.23 154.921 209.96V212.24H154.341V210.069C154.341 209.605 154.047 209.271 153.563 209.271C152.921 209.271 152.511 209.824 152.511 210.732V212.24H151.931ZM157.325 212.295C156.254 212.295 155.666 211.53 155.666 210.52C155.666 209.51 156.254 208.745 157.318 208.745C157.776 208.745 158.226 208.97 158.445 209.291V207.407H159.025V212.24H158.445V211.742C158.288 212.056 157.83 212.295 157.325 212.295ZM157.38 211.776C158.056 211.776 158.499 211.278 158.499 210.52C158.499 209.762 158.056 209.264 157.38 209.264C156.704 209.264 156.26 209.762 156.26 210.52C156.26 211.278 156.704 211.776 157.38 211.776ZM66.5806 220.213C66.4099 220.274 66.2256 220.295 66.0413 220.295C65.4542 220.295 65.0241 219.967 65.0241 219.209V217.312H64.3824V216.8H65.0241V215.755H65.6044V216.8H66.526V217.312H65.6044V219.23C65.6044 219.592 65.8092 219.769 66.1096 219.769C66.2461 219.769 66.4031 219.749 66.5396 219.68L66.5806 220.213ZM69.2716 217.366C69.1419 217.312 68.978 217.284 68.8279 217.284C68.2817 217.284 67.838 217.81 67.838 218.93V220.24H67.2577V216.8H67.838V217.496C68.036 217.059 68.4865 216.745 68.9098 216.745C69.0531 216.745 69.1897 216.765 69.3057 216.806L69.2716 217.366ZM72.1375 216.8H72.7314L70.9292 221.483H70.3353L70.8336 220.192L69.4888 216.8H70.1168L71.1272 219.435L72.1375 216.8ZM76.2211 216.745C77.054 216.745 77.6343 217.237 77.6343 218.035V220.24H77.0608V219.653C76.8628 220.049 76.4123 220.295 75.9139 220.295C75.2244 220.295 74.7534 219.872 74.7534 219.278C74.7534 218.615 75.2927 218.254 76.3918 218.144L77.0608 218.069V218.001C77.0608 217.53 76.7263 217.23 76.2211 217.23C75.7501 217.23 75.4156 217.51 75.3678 217.974L74.8285 217.871C74.9309 217.189 75.4975 216.745 76.2211 216.745ZM76.0027 219.817C76.6717 219.817 77.0608 219.373 77.0608 218.684V218.52L76.3918 218.595C75.6955 218.67 75.3337 218.909 75.3337 219.271C75.3337 219.592 75.6067 219.817 76.0027 219.817ZM80.3458 219.571C81.0353 219.571 81.5132 219.858 81.5132 220.493C81.5132 221.182 80.8715 221.537 79.9294 221.537C78.9532 221.537 78.3456 221.189 78.3456 220.554C78.3456 220.254 78.5095 220.008 78.7143 219.851C78.5436 219.735 78.4412 219.564 78.4412 219.319C78.4412 219.018 78.6392 218.793 78.9054 218.67C78.7211 218.472 78.6187 218.213 78.6187 217.906C78.6187 217.209 79.1785 216.745 79.9226 216.745C80.1479 216.745 80.3595 216.793 80.5506 216.882L81.0899 216.417L81.4244 216.8L80.9671 217.189C81.1309 217.38 81.2265 217.626 81.2265 217.906C81.2265 218.615 80.6735 219.066 79.9226 219.066C79.6768 219.066 79.4652 219.018 79.2809 218.936C79.0829 219.025 79.001 219.141 79.001 219.285C79.001 219.496 79.1989 219.571 79.4242 219.571H80.3458ZM79.9226 217.216C79.5266 217.216 79.1853 217.475 79.1853 217.906C79.1853 218.342 79.5266 218.595 79.9226 218.595C80.3185 218.595 80.6599 218.342 80.6599 217.906C80.6599 217.475 80.3185 217.216 79.9226 217.216ZM79.9294 221.046C80.5848 221.046 80.9466 220.861 80.9466 220.534C80.9466 220.165 80.6735 220.042 80.2639 220.042H79.5335C79.4106 220.042 79.2945 220.035 79.1853 220.022C78.9737 220.165 78.9122 220.349 78.9122 220.547C78.9122 220.861 79.2604 221.046 79.9294 221.046ZM83.4478 216.745C84.2807 216.745 84.8609 217.237 84.8609 218.035V220.24H84.2875V219.653C84.0895 220.049 83.6389 220.295 83.1406 220.295C82.4511 220.295 81.9801 219.872 81.9801 219.278C81.9801 218.615 82.5194 218.254 83.6185 218.144L84.2875 218.069V218.001C84.2875 217.53 83.953 217.23 83.4478 217.23C82.9768 217.23 82.6423 217.51 82.5945 217.974L82.0552 217.871C82.1576 217.189 82.7242 216.745 83.4478 216.745ZM83.2293 219.817C83.8984 219.817 84.2875 219.373 84.2875 218.684V218.52L83.6185 218.595C82.9221 218.67 82.5603 218.909 82.5603 219.271C82.5603 219.592 82.8334 219.817 83.2293 219.817ZM86.0911 216.151C85.859 216.151 85.6883 215.974 85.6883 215.748C85.6883 215.516 85.859 215.339 86.0911 215.339C86.33 215.339 86.5075 215.516 86.5075 215.748C86.5075 215.974 86.33 216.151 86.0911 216.151ZM85.8044 220.24V216.8H86.3847V220.24H85.8044ZM87.3244 220.24V216.8H87.9047V217.448C88.1436 217.039 88.56 216.745 89.0857 216.745C89.8025 216.745 90.3145 217.23 90.3145 217.96V220.24H89.7342V218.069C89.7342 217.605 89.4407 217.271 88.956 217.271C88.3143 217.271 87.9047 217.824 87.9047 218.732V220.24H87.3244ZM91.6741 220.295C91.4284 220.295 91.2577 220.124 91.2577 219.885C91.2577 219.653 91.4284 219.476 91.6741 219.476C91.9063 219.476 92.0906 219.653 92.0906 219.885C92.0906 220.124 91.9063 220.295 91.6741 220.295ZM65.857 236.24L64.4029 231.462H65.0446L66.1847 235.523L67.3384 231.462H67.9869L69.1338 235.523L70.2738 231.462H70.9155L69.4683 236.24H68.8129L67.666 232.39L66.5055 236.24H65.857ZM74.304 234.363C74.304 234.445 74.2972 234.568 74.2904 234.629H71.5733C71.6143 235.325 72.0512 235.783 72.6724 235.783C73.1981 235.783 73.5599 235.537 73.6623 235.107L74.2084 235.237C74.0378 235.906 73.4643 236.295 72.6724 236.295C71.6416 236.295 70.9931 235.496 70.9931 234.52C70.9931 233.544 71.6211 232.745 72.6588 232.745C73.676 232.745 74.304 233.475 74.304 234.363ZM71.6075 234.144H73.6896C73.635 233.619 73.2664 233.23 72.6588 233.23C72.1195 233.23 71.7235 233.571 71.6075 234.144ZM76.6977 236.24V231.407H77.278V233.475C77.5306 232.984 77.947 232.745 78.4522 232.745C79.2304 232.745 79.7424 233.23 79.7424 233.974V236.24H79.1621V234.083C79.1621 233.578 78.8481 233.271 78.3225 233.271C77.6876 233.271 77.278 233.844 77.278 234.766V236.24H76.6977ZM81.9678 232.745C82.8007 232.745 83.3809 233.237 83.3809 234.035V236.24H82.8075V235.653C82.6095 236.049 82.1589 236.295 81.6606 236.295C80.9711 236.295 80.5001 235.872 80.5001 235.278C80.5001 234.615 81.0394 234.254 82.1385 234.144L82.8075 234.069V234.001C82.8075 233.53 82.473 233.23 81.9678 233.23C81.4968 233.23 81.1623 233.51 81.1145 233.974L80.5752 233.871C80.6776 233.189 81.2442 232.745 81.9678 232.745ZM81.7493 235.817C82.4184 235.817 82.8075 235.373 82.8075 234.684V234.52L82.1385 234.595C81.4421 234.67 81.0803 234.909 81.0803 235.271C81.0803 235.592 81.3534 235.817 81.7493 235.817ZM85.0849 236.24L83.8288 232.8H84.4227L85.3784 235.564L86.341 232.8H86.9417L85.6788 236.24H85.0849ZM90.504 234.363C90.504 234.445 90.4972 234.568 90.4904 234.629H87.7733C87.8143 235.325 88.2512 235.783 88.8724 235.783C89.3981 235.783 89.7599 235.537 89.8623 235.107L90.4084 235.237C90.2378 235.906 89.6643 236.295 88.8724 236.295C87.8416 236.295 87.1931 235.496 87.1931 234.52C87.1931 233.544 87.8211 232.745 88.8588 232.745C89.876 232.745 90.504 233.475 90.504 234.363ZM87.8075 234.144H89.8896C89.835 233.619 89.4664 233.23 88.8588 233.23C88.3195 233.23 87.9235 233.571 87.8075 234.144ZM94.0514 236.295C93.2186 236.295 92.768 235.776 92.6178 235.291L93.1162 235.073C93.2459 235.476 93.5189 235.803 94.0514 235.803C94.4747 235.803 94.7477 235.558 94.7477 235.278C94.7477 234.397 92.768 234.964 92.768 233.66C92.768 233.114 93.2391 232.745 93.9763 232.745C94.5839 232.745 95.1096 233.086 95.2529 233.591L94.7682 233.803C94.6727 233.448 94.3313 233.223 93.9627 233.223C93.5736 233.223 93.3278 233.38 93.3278 233.653C93.3278 234.39 95.3212 233.851 95.3144 235.271C95.3144 235.872 94.8092 236.295 94.0514 236.295ZM97.3345 232.745C98.1673 232.745 98.7476 233.237 98.7476 234.035V236.24H98.1741V235.653C97.9762 236.049 97.5256 236.295 97.0273 236.295C96.3378 236.295 95.8667 235.872 95.8667 235.278C95.8667 234.615 96.406 234.254 97.5051 234.144L98.1741 234.069V234.001C98.1741 233.53 97.8396 233.23 97.3345 233.23C96.8634 233.23 96.5289 233.51 96.4811 233.974L95.9418 233.871C96.0442 233.189 96.6108 232.745 97.3345 232.745ZM97.116 235.817C97.785 235.817 98.1741 235.373 98.1741 234.684V234.52L97.5051 234.595C96.8088 234.67 96.447 234.909 96.447 235.271C96.447 235.592 96.7201 235.817 97.116 235.817ZM100.452 236.24L99.1954 232.8H99.7893L100.745 235.564L101.708 232.8H102.308L101.045 236.24H100.452ZM105.871 234.363C105.871 234.445 105.864 234.568 105.857 234.629H103.14C103.181 235.325 103.618 235.783 104.239 235.783C104.765 235.783 105.127 235.537 105.229 235.107L105.775 235.237C105.604 235.906 105.031 236.295 104.239 236.295C103.208 236.295 102.56 235.496 102.56 234.52C102.56 233.544 103.188 232.745 104.225 232.745C105.243 232.745 105.871 233.475 105.871 234.363ZM103.174 234.144H105.256C105.202 233.619 104.833 233.23 104.225 233.23C103.686 233.23 103.29 233.571 103.174 234.144ZM108.079 236.295C107.007 236.295 106.42 235.53 106.42 234.52C106.42 233.51 107.007 232.745 108.072 232.745C108.529 232.745 108.98 232.97 109.198 233.291V231.407H109.778V236.24H109.198V235.742C109.041 236.056 108.584 236.295 108.079 236.295ZM108.133 235.776C108.809 235.776 109.253 235.278 109.253 234.52C109.253 233.762 108.809 233.264 108.133 233.264C107.457 233.264 107.014 233.762 107.014 234.52C107.014 235.278 107.457 235.776 108.133 235.776ZM113.648 232.745C114.481 232.745 115.061 233.237 115.061 234.035V236.24H114.487V235.653C114.29 236.049 113.839 236.295 113.341 236.295C112.651 236.295 112.18 235.872 112.18 235.278C112.18 234.615 112.719 234.254 113.818 234.144L114.487 234.069V234.001C114.487 233.53 114.153 233.23 113.648 233.23C113.177 233.23 112.842 233.51 112.794 233.974L112.255 233.871C112.358 233.189 112.924 232.745 113.648 232.745ZM113.429 235.817C114.098 235.817 114.487 235.373 114.487 234.684V234.52L113.818 234.595C113.122 234.67 112.76 234.909 112.76 235.271C112.76 235.592 113.033 235.817 113.429 235.817ZM117.076 236.288C116.462 236.349 116.004 236.117 116.004 235.401V231.407H116.585V235.36C116.585 235.735 116.762 235.79 117.049 235.769L117.076 236.288ZM118.823 236.288C118.208 236.349 117.751 236.117 117.751 235.401V231.407H118.331V235.36C118.331 235.735 118.509 235.79 118.796 235.769L118.823 236.288ZM123.411 232.8H124.005L122.203 237.483H121.609L122.107 236.192L120.762 232.8H121.39L122.4 235.435L123.411 232.8ZM126.001 236.295C124.977 236.295 124.253 235.551 124.253 234.52C124.253 233.489 124.977 232.745 126.001 232.745C127.018 232.745 127.755 233.489 127.755 234.52C127.755 235.551 127.018 236.295 126.001 236.295ZM126.001 235.776C126.69 235.776 127.154 235.257 127.154 234.52C127.154 233.783 126.69 233.264 126.001 233.264C125.311 233.264 124.847 233.783 124.847 234.52C124.847 235.257 125.311 235.776 126.001 235.776ZM131.488 232.8V236.24H130.908V235.592C130.669 236.001 130.252 236.295 129.727 236.295C129.01 236.295 128.498 235.81 128.498 235.08V232.8H129.078V234.97C129.078 235.435 129.372 235.769 129.856 235.769C130.498 235.769 130.908 235.216 130.908 234.308V232.8H131.488ZM134.445 233.366C134.315 233.312 134.151 233.284 134.001 233.284C133.455 233.284 133.011 233.81 133.011 234.93V236.24H132.431V232.8H133.011V233.496C133.209 233.059 133.66 232.745 134.083 232.745C134.226 232.745 134.363 232.765 134.479 232.806L134.445 233.366ZM138.152 236.295C137.08 236.295 136.493 235.53 136.493 234.52C136.493 233.51 137.08 232.745 138.145 232.745C138.603 232.745 139.053 232.97 139.272 233.291V231.407H139.852V236.24H139.272V235.742C139.115 236.056 138.657 236.295 138.152 236.295ZM138.207 235.776C138.882 235.776 139.326 235.278 139.326 234.52C139.326 233.762 138.882 233.264 138.207 233.264C137.531 233.264 137.087 233.762 137.087 234.52C137.087 235.278 137.531 235.776 138.207 235.776ZM142.074 232.745C142.907 232.745 143.488 233.237 143.488 234.035V236.24H142.914V235.653C142.716 236.049 142.266 236.295 141.767 236.295C141.078 236.295 140.607 235.872 140.607 235.278C140.607 234.615 141.146 234.254 142.245 234.144L142.914 234.069V234.001C142.914 233.53 142.58 233.23 142.074 233.23C141.603 233.23 141.269 233.51 141.221 233.974L140.682 233.871C140.784 233.189 141.351 232.745 142.074 232.745ZM141.856 235.817C142.525 235.817 142.914 235.373 142.914 234.684V234.52L142.245 234.595C141.549 234.67 141.187 234.909 141.187 235.271C141.187 235.592 141.46 235.817 141.856 235.817ZM146.241 236.213C146.07 236.274 145.886 236.295 145.701 236.295C145.114 236.295 144.684 235.967 144.684 235.209V233.312H144.042V232.8H144.684V231.755H145.264V232.8H146.186V233.312H145.264V235.23C145.264 235.592 145.469 235.769 145.77 235.769C145.906 235.769 146.063 235.749 146.2 235.68L146.241 236.213ZM148.141 232.745C148.974 232.745 149.554 233.237 149.554 234.035V236.24H148.981V235.653C148.783 236.049 148.332 236.295 147.834 236.295C147.144 236.295 146.673 235.872 146.673 235.278C146.673 234.615 147.213 234.254 148.312 234.144L148.981 234.069V234.001C148.981 233.53 148.646 233.23 148.141 233.23C147.67 233.23 147.336 233.51 147.288 233.974L146.748 233.871C146.851 233.189 147.418 232.745 148.141 232.745ZM147.923 235.817C148.592 235.817 148.981 235.373 148.981 234.684V234.52L148.312 234.595C147.615 234.67 147.254 234.909 147.254 235.271C147.254 235.592 147.527 235.817 147.923 235.817ZM150.218 236.964L150.614 235.53H151.392L150.627 236.964H150.218ZM156.164 232.8H156.758L154.956 237.483H154.362L154.86 236.192L153.515 232.8H154.143L155.154 235.435L156.164 232.8ZM158.754 236.295C157.73 236.295 157.006 235.551 157.006 234.52C157.006 233.489 157.73 232.745 158.754 232.745C159.771 232.745 160.508 233.489 160.508 234.52C160.508 235.551 159.771 236.295 158.754 236.295ZM158.754 235.776C159.444 235.776 159.908 235.257 159.908 234.52C159.908 233.783 159.444 233.264 158.754 233.264C158.065 233.264 157.6 233.783 157.6 234.52C157.6 235.257 158.065 235.776 158.754 235.776ZM164.241 232.8V236.24H163.661V235.592C163.422 236.001 163.006 236.295 162.48 236.295C161.763 236.295 161.251 235.81 161.251 235.08V232.8H161.831V234.97C161.831 235.435 162.125 235.769 162.61 235.769C163.251 235.769 163.661 235.216 163.661 234.308V232.8H164.241ZM66.2597 244.295C65.2357 244.295 64.5531 243.585 64.5531 242.52C64.5531 241.455 65.2357 240.745 66.2597 240.745C67.0585 240.745 67.6456 241.182 67.7684 241.865L67.195 241.981C67.1199 241.564 66.7581 241.264 66.2734 241.264C65.5976 241.264 65.1607 241.762 65.1607 242.52C65.1607 243.278 65.5976 243.776 66.2734 243.776C66.7581 243.776 67.1131 243.51 67.2087 243.052L67.7753 243.168C67.6251 243.878 67.0516 244.295 66.2597 244.295ZM69.7478 240.745C70.5807 240.745 71.1609 241.237 71.1609 242.035V244.24H70.5875V243.653C70.3895 244.049 69.9389 244.295 69.4406 244.295C68.7511 244.295 68.2801 243.872 68.2801 243.278C68.2801 242.615 68.8194 242.254 69.9185 242.144L70.5875 242.069V242.001C70.5875 241.53 70.253 241.23 69.7478 241.23C69.2768 241.23 68.9423 241.51 68.8945 241.974L68.3552 241.871C68.4576 241.189 69.0242 240.745 69.7478 240.745ZM69.5293 243.817C70.1984 243.817 70.5875 243.373 70.5875 242.684V242.52L69.9185 242.595C69.2221 242.67 68.8603 242.909 68.8603 243.271C68.8603 243.592 69.1334 243.817 69.5293 243.817ZM72.1044 244.24V240.8H72.6847V241.448C72.9236 241.039 73.34 240.745 73.8657 240.745C74.5825 240.745 75.0945 241.23 75.0945 241.96V244.24H74.5142V242.069C74.5142 241.605 74.2207 241.271 73.736 241.271C73.0943 241.271 72.6847 241.824 72.6847 242.732V244.24H72.1044ZM77.6844 245.483V240.8H78.2647V241.298C78.449 240.984 78.8995 240.745 79.3979 240.745C80.456 240.745 81.0431 241.51 81.0431 242.52C81.0431 243.53 80.4424 244.295 79.3842 244.295C78.9473 244.295 78.4968 244.076 78.2647 243.762V245.483H77.6844ZM79.3296 243.776C80.0123 243.776 80.456 243.278 80.456 242.52C80.456 241.762 80.0123 241.264 79.3296 241.264C78.6606 241.264 78.2169 241.762 78.2169 242.52C78.2169 243.278 78.6606 243.776 79.3296 243.776ZM82.0711 240.151C81.839 240.151 81.6683 239.974 81.6683 239.748C81.6683 239.516 81.839 239.339 82.0711 239.339C82.31 239.339 82.4875 239.516 82.4875 239.748C82.4875 239.974 82.31 240.151 82.0711 240.151ZM81.7844 244.24V240.8H82.3647V244.24H81.7844ZM84.8131 244.295C83.7891 244.295 83.1064 243.585 83.1064 242.52C83.1064 241.455 83.7891 240.745 84.8131 240.745C85.6118 240.745 86.1989 241.182 86.3218 241.865L85.7483 241.981C85.6732 241.564 85.3114 241.264 84.8267 241.264C84.1509 241.264 83.714 241.762 83.714 242.52C83.714 243.278 84.1509 243.776 84.8267 243.776C85.3114 243.776 85.6664 243.51 85.762 243.052L86.3286 243.168C86.1784 243.878 85.605 244.295 84.8131 244.295ZM89.3926 244.24L88.0955 242.547L87.6381 242.964V244.24H87.0511V239.407H87.6381V242.199L89.2288 240.8H90.0002L88.5256 242.158L90.1162 244.24H89.3926ZM95.3145 240.8V244.24H94.7342V243.592C94.4953 244.001 94.0788 244.295 93.5532 244.295C92.8364 244.295 92.3244 243.81 92.3244 243.08V240.8H92.9047V242.97C92.9047 243.435 93.1982 243.769 93.6829 243.769C94.3246 243.769 94.7342 243.216 94.7342 242.308V240.8H95.3145ZM96.2577 245.483V240.8H96.838V241.298C97.0223 240.984 97.4729 240.745 97.9712 240.745C99.0293 240.745 99.6164 241.51 99.6164 242.52C99.6164 243.53 99.0157 244.295 97.9576 244.295C97.5207 244.295 97.0701 244.076 96.838 243.762V245.483H96.2577ZM97.9029 243.776C98.5856 243.776 99.0293 243.278 99.0293 242.52C99.0293 241.762 98.5856 241.264 97.9029 241.264C97.2339 241.264 96.7902 241.762 96.7902 242.52C96.7902 243.278 97.2339 243.776 97.9029 243.776ZM102.769 244.24L101.718 240.8H102.312L103.056 243.428L103.861 240.8H104.421L105.227 243.428L105.964 240.8H106.571L105.513 244.24H104.947L104.141 241.626L103.336 244.24H102.769ZM107.218 244.24V239.407H107.798V241.475C108.051 240.984 108.467 240.745 108.972 240.745C109.75 240.745 110.262 241.23 110.262 241.974V244.24H109.682V242.083C109.682 241.578 109.368 241.271 108.842 241.271C108.208 241.271 107.798 241.844 107.798 242.766V244.24H107.218ZM114.317 242.363C114.317 242.445 114.311 242.568 114.304 242.629H111.587C111.628 243.325 112.065 243.783 112.686 243.783C113.211 243.783 113.573 243.537 113.676 243.107L114.222 243.237C114.051 243.906 113.478 244.295 112.686 244.295C111.655 244.295 111.006 243.496 111.006 242.52C111.006 241.544 111.634 240.745 112.672 240.745C113.689 240.745 114.317 241.475 114.317 242.363ZM111.621 242.144H113.703C113.648 241.619 113.28 241.23 112.672 241.23C112.133 241.23 111.737 241.571 111.621 242.144ZM117.078 241.366C116.949 241.312 116.785 241.284 116.635 241.284C116.088 241.284 115.645 241.81 115.645 242.93V244.24H115.064V240.8H115.645V241.496C115.843 241.059 116.293 240.745 116.716 240.745C116.86 240.745 116.996 240.765 117.112 240.806L117.078 241.366ZM120.631 242.363C120.631 242.445 120.624 242.568 120.617 242.629H117.9C117.941 243.325 118.378 243.783 118.999 243.783C119.525 243.783 119.887 243.537 119.989 243.107L120.535 243.237C120.364 243.906 119.791 244.295 118.999 244.295C117.968 244.295 117.32 243.496 117.32 242.52C117.32 241.544 117.948 240.745 118.985 240.745C120.003 240.745 120.631 241.475 120.631 242.363ZM117.934 242.144H120.016C119.962 241.619 119.593 241.23 118.985 241.23C118.446 241.23 118.05 241.571 117.934 242.144ZM125.291 240.8H125.885L124.083 245.483H123.489L123.987 244.192L122.642 240.8H123.27L124.28 243.435L125.291 240.8ZM127.881 244.295C126.857 244.295 126.133 243.551 126.133 242.52C126.133 241.489 126.857 240.745 127.881 240.745C128.898 240.745 129.635 241.489 129.635 242.52C129.635 243.551 128.898 244.295 127.881 244.295ZM127.881 243.776C128.57 243.776 129.034 243.257 129.034 242.52C129.034 241.783 128.57 241.264 127.881 241.264C127.191 241.264 126.727 241.783 126.727 242.52C126.727 243.257 127.191 243.776 127.881 243.776ZM133.368 240.8V244.24H132.788V243.592C132.549 244.001 132.132 244.295 131.607 244.295C130.89 244.295 130.378 243.81 130.378 243.08V240.8H130.958V242.97C130.958 243.435 131.252 243.769 131.736 243.769C132.378 243.769 132.788 243.216 132.788 242.308V240.8H133.368ZM137.03 244.288C136.415 244.349 135.958 244.117 135.958 243.401V239.407H136.538V243.36C136.538 243.735 136.715 243.79 137.002 243.769L137.03 244.288ZM140.817 242.363C140.817 242.445 140.811 242.568 140.804 242.629H138.087C138.128 243.325 138.565 243.783 139.186 243.783C139.711 243.783 140.073 243.537 140.176 243.107L140.722 243.237C140.551 243.906 139.978 244.295 139.186 244.295C138.155 244.295 137.506 243.496 137.506 242.52C137.506 241.544 138.134 240.745 139.172 240.745C140.189 240.745 140.817 241.475 140.817 242.363ZM138.121 242.144H140.203C140.148 241.619 139.78 241.23 139.172 241.23C138.633 241.23 138.237 241.571 138.121 242.144ZM141.812 244.24V241.312H141.225V240.8H141.812V240.479C141.812 239.721 142.242 239.318 142.83 239.318C142.987 239.318 143.15 239.332 143.294 239.373L143.266 239.892C143.144 239.844 143.021 239.823 142.905 239.823C142.597 239.823 142.393 240.062 142.393 240.431V240.8H143.273V241.312H142.393V244.24H141.812ZM145.801 244.213C145.63 244.274 145.446 244.295 145.261 244.295C144.674 244.295 144.244 243.967 144.244 243.209V241.312H143.602V240.8H144.244V239.755H144.824V240.8H145.746V241.312H144.824V243.23C144.824 243.592 145.029 243.769 145.33 243.769C145.466 243.769 145.623 243.749 145.76 243.68L145.801 244.213ZM149.674 244.295C148.65 244.295 147.926 243.551 147.926 242.52C147.926 241.489 148.65 240.745 149.674 240.745C150.691 240.745 151.428 241.489 151.428 242.52C151.428 243.551 150.691 244.295 149.674 244.295ZM149.674 243.776C150.364 243.776 150.828 243.257 150.828 242.52C150.828 241.783 150.364 241.264 149.674 241.264C148.985 241.264 148.52 241.783 148.52 242.52C148.52 243.257 148.985 243.776 149.674 243.776ZM152.419 244.24V241.312H151.832V240.8H152.419V240.479C152.419 239.721 152.849 239.318 153.436 239.318C153.593 239.318 153.757 239.332 153.9 239.373L153.873 239.892C153.75 239.844 153.627 239.823 153.511 239.823C153.204 239.823 152.999 240.062 152.999 240.431V240.8H153.88V241.312H152.999V244.24H152.419ZM154.919 244.24V241.312H154.332V240.8H154.919V240.479C154.919 239.721 155.349 239.318 155.936 239.318C156.093 239.318 156.257 239.332 156.4 239.373L156.373 239.892C156.25 239.844 156.127 239.823 156.011 239.823C155.704 239.823 155.499 240.062 155.499 240.431V240.8H156.38V241.312H155.499V244.24H154.919ZM157.001 244.295C156.755 244.295 156.584 244.124 156.584 243.885C156.584 243.653 156.755 243.476 157.001 243.476C157.233 243.476 157.417 243.653 157.417 243.885C157.417 244.124 157.233 244.295 157.001 244.295Z" fill="black"/>
<g clip-path="url(#clip0_943_10253)">
<path d="M54.9043 198.968C52.5542 198.968 50.6487 200.873 50.6487 203.223C50.6487 205.573 52.5542 207.479 54.9043 207.479C57.2543 207.479 59.1598 205.573 59.1598 203.223C59.1598 200.873 57.2543 198.968 54.9043 198.968ZM54.6003 201.172C54.6003 201.13 54.6345 201.096 54.6763 201.096H55.1323C55.174 201.096 55.2082 201.13 55.2082 201.172V203.755C55.2082 203.797 55.174 203.831 55.1323 203.831H54.6763C54.6345 203.831 54.6003 203.797 54.6003 203.755V201.172ZM54.9043 205.351C54.785 205.349 54.6714 205.3 54.5878 205.214C54.5043 205.129 54.4575 205.014 54.4575 204.895C54.4575 204.776 54.5043 204.661 54.5878 204.576C54.6714 204.491 54.785 204.442 54.9043 204.439C55.0236 204.442 55.1372 204.491 55.2207 204.576C55.3042 204.661 55.351 204.776 55.351 204.895C55.351 205.014 55.3042 205.129 55.2207 205.214C55.1372 205.3 55.0236 205.349 54.9043 205.351Z" fill="#F05656"/>
</g>
<rect x="41.2399" y="346.146" width="139.947" height="18.7733" rx="4.26667" fill="#014C92"/>
<path d="M103.036 358.84H101.815L100.548 356.636H99.6956V358.84H98.6511L98.6434 353.464H100.717C101.769 353.464 102.453 354.086 102.453 355.054C102.453 355.66 102.138 356.175 101.608 356.436L103.036 358.84ZM99.6956 354.362V355.737H100.556C101.093 355.737 101.401 355.484 101.401 355.054C101.401 354.624 101.093 354.362 100.556 354.362H99.6956ZM107.001 356.774C107.001 356.912 106.993 357.081 106.985 357.158H104.113C104.197 357.742 104.574 358.087 105.127 358.087C105.58 358.087 105.902 357.872 106.002 357.496L106.908 357.742C106.693 358.471 106.017 358.901 105.111 358.901C103.829 358.901 103.145 357.911 103.145 356.904C103.145 355.898 103.775 354.908 105.057 354.908C106.363 354.908 107.001 355.875 107.001 356.774ZM104.136 356.451H105.964C105.918 355.991 105.618 355.645 105.057 355.645C104.581 355.645 104.243 355.929 104.136 356.451ZM109.961 358.801C109.769 358.871 109.562 358.901 109.339 358.901C108.556 358.901 107.972 358.479 107.972 357.573V355.783H107.319V354.969H107.972V353.832H108.94V354.969H109.915V355.783H108.94V357.48C108.94 357.849 109.14 358.049 109.439 358.049C109.585 358.049 109.754 358.026 109.892 357.957L109.961 358.801ZM113.124 355.906C112.985 355.845 112.801 355.814 112.632 355.814C112.087 355.814 111.595 356.267 111.595 357.419V358.84H110.628V354.969H111.595V355.676C111.787 355.238 112.294 354.908 112.763 354.908C112.901 354.908 113.07 354.931 113.185 354.969L113.124 355.906ZM116.282 354.969H117.273L115.23 360.238H114.247L114.846 358.686L113.34 354.969H114.393L115.322 357.457L116.282 354.969ZM122.223 354.57L124.458 356.805L122.23 359.032L121.716 358.517L123.014 357.219H119.443V356.39H123.014L121.708 355.092L122.223 354.57Z" fill="#F2F2F2"/>
<g style="mix-blend-mode:multiply">
<path d="M113.845 131.105H110.716C110.284 131.105 109.934 131.44 109.934 131.852V148.279C109.934 148.691 110.284 149.025 110.716 149.025H113.845C114.277 149.025 114.627 148.691 114.627 148.279V131.852C114.627 131.44 114.277 131.105 113.845 131.105Z" fill="#A9CDE3"/>
</g>
<g style="mix-blend-mode:multiply">
<path d="M121.951 125.559H118.822C118.39 125.559 118.04 125.996 118.04 126.536V148.047C118.04 148.587 118.39 149.025 118.822 149.025H121.951C122.383 149.025 122.733 148.587 122.733 148.047V126.536C122.733 125.996 122.383 125.559 121.951 125.559Z" fill="#A9CDE3"/>
</g>
<g style="mix-blend-mode:multiply">
<path d="M105.738 134.945H102.609C102.177 134.945 101.827 135.296 101.827 135.728V148.243C101.827 148.675 102.177 149.025 102.609 149.025H105.738C106.17 149.025 106.52 148.675 106.52 148.243V135.728C106.52 135.296 106.17 134.945 105.738 134.945Z" fill="#A9CDE3"/>
</g>
<g style="mix-blend-mode:multiply">
<path d="M97.6312 139.212H94.5023C94.0703 139.212 93.7201 139.456 93.7201 139.757V148.48C93.7201 148.781 94.0703 149.025 94.5023 149.025H97.6312C98.0632 149.025 98.4134 148.781 98.4134 148.48V139.757C98.4134 139.456 98.0632 139.212 97.6312 139.212Z" fill="#A9CDE3"/>
</g>
<g style="mix-blend-mode:multiply">
<path d="M127.191 120.866C127.038 120.866 126.886 120.873 126.734 120.88C126.63 120.887 126.533 120.894 126.429 120.908C126.318 120.922 126.214 120.936 126.103 120.949C125.986 120.963 125.868 120.991 125.75 121.012C125.639 121.032 125.522 121.06 125.411 121.095C122.177 121.877 119.782 124.792 119.747 128.268V128.282V128.337C119.747 128.497 119.754 128.656 119.761 128.815C119.795 129.293 119.864 129.757 119.982 130.2C120.806 133.413 123.728 135.802 127.19 135.802C127.717 135.802 128.236 135.746 128.734 135.636C129.192 135.546 129.628 135.407 130.05 135.227C132.736 134.099 134.634 131.433 134.634 128.337C134.634 124.217 131.29 120.866 127.191 120.866L127.191 120.866ZM127.752 132.229C127.717 132.312 127.668 132.388 127.606 132.457C127.537 132.52 127.461 132.568 127.378 132.603C127.294 132.637 127.204 132.658 127.115 132.658C127.018 132.658 126.934 132.637 126.844 132.603C126.761 132.568 126.685 132.52 126.623 132.457C126.561 132.388 126.505 132.312 126.471 132.229C126.436 132.146 126.422 132.056 126.422 131.966C126.422 131.786 126.492 131.606 126.623 131.474C126.88 131.218 127.343 131.218 127.606 131.474C127.731 131.606 127.807 131.786 127.807 131.966C127.807 132.056 127.786 132.146 127.751 132.229H127.752ZM127.883 128.926C127.883 129.307 127.571 129.618 127.191 129.618C126.803 129.618 126.498 129.307 126.498 128.926V124.972C126.498 124.592 126.803 124.28 127.191 124.28C127.571 124.28 127.883 124.592 127.883 124.972V128.926Z" fill="#F05656"/>
</g>
</g>
<g filter="url(#filter2_d_943_10253)">
<g clip-path="url(#clip1_943_10253)">
<rect x="224" y="27" width="159.791" height="346" rx="8.59" fill="white"/>
<path d="M251.354 293.128C249.986 293.128 248.995 292.102 248.995 290.68C248.995 289.258 249.986 288.232 251.354 288.232C252.714 288.232 253.706 289.258 253.706 290.68C253.706 292.102 252.714 293.128 251.354 293.128ZM251.347 292.567C252.352 292.567 253.07 291.774 253.07 290.68C253.07 289.586 252.352 288.786 251.347 288.786C250.355 288.786 249.631 289.586 249.631 290.68C249.631 291.774 250.355 292.567 251.347 292.567ZM257.456 289.627V293.073H256.875V292.424C256.635 292.834 256.218 293.128 255.692 293.128C254.974 293.128 254.461 292.642 254.461 291.911V289.627H255.042V291.801C255.042 292.266 255.336 292.601 255.822 292.601C256.465 292.601 256.875 292.048 256.875 291.138V289.627H257.456ZM260.418 290.195C260.288 290.14 260.124 290.113 259.973 290.113C259.426 290.113 258.982 290.639 258.982 291.76V293.073H258.401V289.627H258.982V290.325C259.18 289.887 259.631 289.572 260.055 289.572C260.199 289.572 260.336 289.593 260.452 289.634L260.418 290.195ZM263.823 293.128C262.989 293.128 262.537 292.608 262.387 292.123L262.886 291.904C263.016 292.307 263.29 292.636 263.823 292.636C264.247 292.636 264.52 292.389 264.52 292.109C264.52 291.227 262.537 291.795 262.537 290.489C262.537 289.942 263.009 289.572 263.748 289.572C264.356 289.572 264.883 289.914 265.026 290.42L264.541 290.632C264.445 290.277 264.103 290.051 263.734 290.051C263.344 290.051 263.098 290.208 263.098 290.482C263.098 291.22 265.095 290.68 265.088 292.102C265.088 292.704 264.582 293.128 263.823 293.128ZM268.917 291.193C268.917 291.275 268.91 291.398 268.903 291.46H266.182C266.223 292.157 266.661 292.615 267.283 292.615C267.809 292.615 268.172 292.369 268.274 291.938L268.821 292.068C268.65 292.738 268.076 293.128 267.283 293.128C266.25 293.128 265.601 292.328 265.601 291.35C265.601 290.372 266.23 289.572 267.269 289.572C268.288 289.572 268.917 290.304 268.917 291.193ZM266.216 290.974H268.302C268.247 290.448 267.878 290.058 267.269 290.058C266.729 290.058 266.332 290.4 266.216 290.974ZM271.682 290.195C271.552 290.14 271.388 290.113 271.238 290.113C270.691 290.113 270.246 290.639 270.246 291.76V293.073H269.665V289.627H270.246V290.325C270.445 289.887 270.896 289.572 271.32 289.572C271.463 289.572 271.6 289.593 271.716 289.634L271.682 290.195ZM273.158 293.073L271.9 289.627H272.495L273.452 292.396L274.416 289.627H275.018L273.753 293.073H273.158ZM275.868 288.978C275.636 288.978 275.465 288.8 275.465 288.574C275.465 288.342 275.636 288.164 275.868 288.164C276.108 288.164 276.285 288.342 276.285 288.574C276.285 288.8 276.108 288.978 275.868 288.978ZM275.581 293.073V289.627H276.162V293.073H275.581ZM278.615 293.128C277.589 293.128 276.905 292.417 276.905 291.35C276.905 290.284 277.589 289.572 278.615 289.572C279.415 289.572 280.003 290.01 280.126 290.694L279.551 290.81C279.476 290.393 279.114 290.092 278.628 290.092C277.951 290.092 277.514 290.591 277.514 291.35C277.514 292.109 277.951 292.608 278.628 292.608C279.114 292.608 279.469 292.342 279.565 291.884L280.132 292C279.982 292.711 279.408 293.128 278.615 293.128ZM283.974 291.193C283.974 291.275 283.967 291.398 283.96 291.46H281.239C281.28 292.157 281.718 292.615 282.34 292.615C282.866 292.615 283.229 292.369 283.331 291.938L283.878 292.068C283.707 292.738 283.133 293.128 282.34 293.128C281.307 293.128 280.658 292.328 280.658 291.35C280.658 290.372 281.287 289.572 282.326 289.572C283.345 289.572 283.974 290.304 283.974 291.193ZM281.273 290.974H283.359C283.304 290.448 282.935 290.058 282.326 290.058C281.786 290.058 281.389 290.4 281.273 290.974ZM285.844 293.128C285.01 293.128 284.559 292.608 284.408 292.123L284.908 291.904C285.037 292.307 285.311 292.636 285.844 292.636C286.268 292.636 286.542 292.389 286.542 292.109C286.542 291.227 284.559 291.795 284.559 290.489C284.559 289.942 285.031 289.572 285.769 289.572C286.378 289.572 286.904 289.914 287.048 290.42L286.562 290.632C286.466 290.277 286.125 290.051 285.755 290.051C285.366 290.051 285.12 290.208 285.12 290.482C285.12 291.22 287.116 290.68 287.109 292.102C287.109 292.704 286.603 293.128 285.844 293.128ZM290.782 289.572C291.616 289.572 292.197 290.065 292.197 290.865V293.073H291.623V292.485C291.424 292.882 290.973 293.128 290.474 293.128C289.784 293.128 289.312 292.704 289.312 292.109C289.312 291.446 289.852 291.084 290.953 290.974L291.623 290.899V290.831C291.623 290.359 291.288 290.058 290.782 290.058C290.31 290.058 289.975 290.338 289.927 290.803L289.387 290.701C289.489 290.017 290.057 289.572 290.782 289.572ZM290.563 292.649C291.233 292.649 291.623 292.205 291.623 291.514V291.35L290.953 291.425C290.255 291.501 289.893 291.74 289.893 292.102C289.893 292.424 290.166 292.649 290.563 292.649ZM295.159 290.195C295.029 290.14 294.865 290.113 294.715 290.113C294.168 290.113 293.723 290.639 293.723 291.76V293.073H293.142V289.627H293.723V290.325C293.922 289.887 294.373 289.572 294.797 289.572C294.94 289.572 295.077 289.593 295.193 289.634L295.159 290.195ZM298.717 291.193C298.717 291.275 298.71 291.398 298.703 291.46H295.982C296.023 292.157 296.461 292.615 297.083 292.615C297.609 292.615 297.972 292.369 298.074 291.938L298.621 292.068C298.45 292.738 297.876 293.128 297.083 293.128C296.051 293.128 295.401 292.328 295.401 291.35C295.401 290.372 296.03 289.572 297.069 289.572C298.088 289.572 298.717 290.304 298.717 291.193ZM296.016 290.974H298.102C298.047 290.448 297.678 290.058 297.069 290.058C296.529 290.058 296.133 290.4 296.016 290.974ZM302.667 293.128C301.641 293.128 300.916 292.383 300.916 291.35C300.916 290.318 301.641 289.572 302.667 289.572C303.686 289.572 304.424 290.318 304.424 291.35C304.424 292.383 303.686 293.128 302.667 293.128ZM302.667 292.608C303.357 292.608 303.822 292.089 303.822 291.35C303.822 290.612 303.357 290.092 302.667 290.092C301.976 290.092 301.511 290.612 301.511 291.35C301.511 292.089 301.976 292.608 302.667 292.608ZM305.168 293.073V289.627H305.749V290.277C305.988 289.866 306.405 289.572 306.932 289.572C307.65 289.572 308.162 290.058 308.162 290.79V293.073H307.581V290.899C307.581 290.434 307.287 290.099 306.802 290.099C306.159 290.099 305.749 290.653 305.749 291.562V293.073H305.168ZM310.181 293.121C309.565 293.183 309.107 292.95 309.107 292.232V288.232H309.688V292.191C309.688 292.567 309.866 292.622 310.153 292.601L310.181 293.121ZM313.127 289.627H313.722L311.916 294.318H311.322L311.821 293.025L310.474 289.627H311.103L312.115 292.266L313.127 289.627ZM317.217 289.572C318.051 289.572 318.632 290.065 318.632 290.865V293.073H318.058V292.485C317.859 292.882 317.408 293.128 316.909 293.128C316.218 293.128 315.747 292.704 315.747 292.109C315.747 291.446 316.287 291.084 317.388 290.974L318.058 290.899V290.831C318.058 290.359 317.723 290.058 317.217 290.058C316.745 290.058 316.41 290.338 316.362 290.803L315.822 290.701C315.924 290.017 316.492 289.572 317.217 289.572ZM316.998 292.649C317.668 292.649 318.058 292.205 318.058 291.514V291.35L317.388 291.425C316.69 291.501 316.328 291.74 316.328 292.102C316.328 292.424 316.601 292.649 316.998 292.649ZM320.339 293.073L319.081 289.627H319.676L320.633 292.396L321.597 289.627H322.199L320.934 293.073H320.339ZM323.941 289.572C324.775 289.572 325.356 290.065 325.356 290.865V293.073H324.782V292.485C324.583 292.882 324.132 293.128 323.633 293.128C322.942 293.128 322.471 292.704 322.471 292.109C322.471 291.446 323.011 291.084 324.112 290.974L324.782 290.899V290.831C324.782 290.359 324.447 290.058 323.941 290.058C323.469 290.058 323.134 290.338 323.086 290.803L322.546 290.701C322.648 290.017 323.216 289.572 323.941 289.572ZM323.722 292.649C324.392 292.649 324.782 292.205 324.782 291.514V291.35L324.112 291.425C323.414 291.501 323.052 291.74 323.052 292.102C323.052 292.424 323.325 292.649 323.722 292.649ZM326.588 288.978C326.356 288.978 326.185 288.8 326.185 288.574C326.185 288.342 326.356 288.164 326.588 288.164C326.827 288.164 327.005 288.342 327.005 288.574C327.005 288.8 326.827 288.978 326.588 288.978ZM326.301 293.073V289.627H326.882V293.073H326.301ZM328.897 293.121C328.281 293.183 327.823 292.95 327.823 292.232V288.232H328.405V292.191C328.405 292.567 328.582 292.622 328.87 292.601L328.897 293.121ZM330.858 289.572C331.692 289.572 332.274 290.065 332.274 290.865V293.073H331.699V292.485C331.501 292.882 331.05 293.128 330.551 293.128C329.86 293.128 329.388 292.704 329.388 292.109C329.388 291.446 329.928 291.084 331.029 290.974L331.699 290.899V290.831C331.699 290.359 331.364 290.058 330.858 290.058C330.386 290.058 330.051 290.338 330.004 290.803L329.463 290.701C329.566 290.017 330.133 289.572 330.858 289.572ZM330.639 292.649C331.31 292.649 331.699 292.205 331.699 291.514V291.35L331.029 291.425C330.332 291.501 329.969 291.74 329.969 292.102C329.969 292.424 330.243 292.649 330.639 292.649ZM334.921 293.128C334.415 293.128 333.957 292.889 333.8 292.574V293.073H333.219V288.232H333.8V290.119C334.019 289.798 334.47 289.572 334.928 289.572C335.995 289.572 336.583 290.338 336.583 291.35C336.583 292.362 335.995 293.128 334.921 293.128ZM334.866 292.608C335.543 292.608 335.988 292.109 335.988 291.35C335.988 290.591 335.543 290.092 334.866 290.092C334.189 290.092 333.752 290.591 333.752 291.35C333.752 292.109 334.189 292.608 334.866 292.608ZM338.398 293.121C337.783 293.183 337.325 292.95 337.325 292.232V288.232H337.906V292.191C337.906 292.567 338.084 292.622 338.371 292.601L338.398 293.121ZM342.192 291.193C342.192 291.275 342.185 291.398 342.179 291.46H339.457C339.498 292.157 339.936 292.615 340.558 292.615C341.085 292.615 341.447 292.369 341.55 291.938L342.097 292.068C341.926 292.738 341.351 293.128 340.558 293.128C339.526 293.128 338.876 292.328 338.876 291.35C338.876 290.372 339.505 289.572 340.544 289.572C341.563 289.572 342.192 290.304 342.192 291.193ZM339.492 290.974H341.577C341.522 290.448 341.153 290.058 340.544 290.058C340.004 290.058 339.608 290.4 339.492 290.974ZM345.356 293.073L344.303 289.627H344.897L345.643 292.26L346.45 289.627H347.01L347.817 292.26L348.556 289.627H349.164L348.104 293.073H347.537L346.73 290.455L345.923 293.073H345.356ZM350.099 288.978C349.866 288.978 349.695 288.8 349.695 288.574C349.695 288.342 349.866 288.164 350.099 288.164C350.338 288.164 350.516 288.342 350.516 288.574C350.516 288.8 350.338 288.978 350.099 288.978ZM349.811 293.073V289.627H350.393V293.073H349.811ZM353.166 293.046C352.995 293.107 352.811 293.128 352.626 293.128C352.038 293.128 351.607 292.8 351.607 292.041V290.14H350.965V289.627H351.607V288.581H352.188V289.627H353.111V290.14H352.188V292.061C352.188 292.424 352.394 292.601 352.694 292.601C352.831 292.601 352.988 292.581 353.125 292.513L353.166 293.046ZM353.904 293.073V288.232H354.486V290.304C354.739 289.812 355.156 289.572 355.662 289.572C356.441 289.572 356.954 290.058 356.954 290.803V293.073H356.373V290.913C356.373 290.407 356.058 290.099 355.532 290.099C354.896 290.099 354.486 290.673 354.486 291.596V293.073H353.904ZM358.185 288.978C357.952 288.978 357.781 288.8 357.781 288.574C357.781 288.342 357.952 288.164 358.185 288.164C358.424 288.164 358.602 288.342 358.602 288.574C358.602 288.8 358.424 288.978 358.185 288.978ZM357.897 293.073V289.627H358.479V293.073H357.897ZM359.42 293.073V289.627H360.001V290.277C360.24 289.866 360.657 289.572 361.184 289.572C361.902 289.572 362.415 290.058 362.415 290.79V293.073H361.833V290.899C361.833 290.434 361.539 290.099 361.054 290.099C360.411 290.099 360.001 290.653 360.001 291.562V293.073H359.42ZM249.214 301.073V296.287H249.836V301.073H249.214ZM250.802 301.073V297.627H251.383V298.277C251.623 297.866 252.04 297.572 252.566 297.572C253.284 297.572 253.797 298.058 253.797 298.79V301.073H253.216V298.899C253.216 298.434 252.922 298.099 252.436 298.099C251.793 298.099 251.383 298.653 251.383 299.562V301.073H250.802ZM256.205 301.128C255.131 301.128 254.543 300.362 254.543 299.35C254.543 298.338 255.131 297.572 256.198 297.572C256.656 297.572 257.107 297.798 257.326 298.119V296.232H257.907V301.073H257.326V300.574C257.169 300.889 256.711 301.128 256.205 301.128ZM256.259 300.608C256.936 300.608 257.381 300.109 257.381 299.35C257.381 298.591 256.936 298.092 256.259 298.092C255.583 298.092 255.138 298.591 255.138 299.35C255.138 300.109 255.583 300.608 256.259 300.608ZM259.135 296.978C258.903 296.978 258.732 296.8 258.732 296.574C258.732 296.342 258.903 296.164 259.135 296.164C259.375 296.164 259.552 296.342 259.552 296.574C259.552 296.8 259.375 296.978 259.135 296.978ZM258.848 301.073V297.627H259.429V301.073H258.848ZM261.656 297.572C262.49 297.572 263.071 298.065 263.071 298.865V301.073H262.497V300.485C262.299 300.882 261.847 301.128 261.348 301.128C260.658 301.128 260.186 300.704 260.186 300.109C260.186 299.446 260.726 299.084 261.827 298.974L262.497 298.899V298.831C262.497 298.359 262.162 298.058 261.656 298.058C261.184 298.058 260.849 298.338 260.801 298.803L260.261 298.701C260.364 298.017 260.931 297.572 261.656 297.572ZM261.437 300.649C262.107 300.649 262.497 300.205 262.497 299.514V299.35L261.827 299.425C261.129 299.501 260.767 299.74 260.767 300.102C260.767 300.424 261.041 300.649 261.437 300.649ZM264.433 301.128C264.187 301.128 264.016 300.957 264.016 300.718C264.016 300.485 264.187 300.307 264.433 300.307C264.666 300.307 264.85 300.485 264.85 300.718C264.85 300.957 264.666 301.128 264.433 301.128ZM249.214 317.073V312.287H249.836V317.073H249.214ZM251.144 317.073V314.14H250.556V313.627H251.144V313.306C251.144 312.547 251.575 312.143 252.163 312.143C252.32 312.143 252.484 312.157 252.628 312.198L252.6 312.718C252.477 312.67 252.354 312.649 252.238 312.649C251.93 312.649 251.725 312.889 251.725 313.258V313.627H252.607V314.14H251.725V317.073H251.144ZM257.225 313.627H257.82L256.015 318.318H255.42L255.919 317.025L254.572 313.627H255.201L256.213 316.266L257.225 313.627ZM259.819 317.128C258.794 317.128 258.069 316.383 258.069 315.35C258.069 314.318 258.794 313.572 259.819 313.572C260.838 313.572 261.576 314.318 261.576 315.35C261.576 316.383 260.838 317.128 259.819 317.128ZM259.819 316.608C260.51 316.608 260.975 316.089 260.975 315.35C260.975 314.612 260.51 314.092 259.819 314.092C259.129 314.092 258.664 314.612 258.664 315.35C258.664 316.089 259.129 316.608 259.819 316.608ZM265.315 313.627V317.073H264.734V316.424C264.494 316.834 264.077 317.128 263.551 317.128C262.833 317.128 262.32 316.642 262.32 315.911V313.627H262.901V315.801C262.901 316.266 263.195 316.601 263.681 316.601C264.324 316.601 264.734 316.048 264.734 315.138V313.627H265.315ZM266.822 312.629C266.822 312.772 266.801 312.841 266.596 313.217L266.378 313.613H266.049L266.302 313.039C266.118 312.991 265.981 312.82 265.981 312.629C265.981 312.396 266.172 312.205 266.412 312.205C266.637 312.205 266.822 312.396 266.822 312.629ZM269.252 314.195C269.122 314.14 268.958 314.113 268.807 314.113C268.26 314.113 267.816 314.639 267.816 315.76V317.073H267.235V313.627H267.816V314.325C268.014 313.887 268.465 313.572 268.889 313.572C269.033 313.572 269.17 313.593 269.286 313.634L269.252 314.195ZM272.81 315.193C272.81 315.275 272.803 315.398 272.796 315.46H270.075C270.116 316.157 270.553 316.615 271.176 316.615C271.702 316.615 272.064 316.369 272.167 315.938L272.714 316.068C272.543 316.738 271.969 317.128 271.176 317.128C270.143 317.128 269.494 316.328 269.494 315.35C269.494 314.372 270.123 313.572 271.162 313.572C272.181 313.572 272.81 314.304 272.81 315.193ZM270.109 314.974H272.194C272.14 314.448 271.77 314.058 271.162 314.058C270.622 314.058 270.225 314.4 270.109 314.974ZM278.202 313.627V317.073H277.621V316.424C277.381 316.834 276.964 317.128 276.438 317.128C275.72 317.128 275.207 316.642 275.207 315.911V313.627H275.788V315.801C275.788 316.266 276.082 316.601 276.568 316.601C277.211 316.601 277.621 316.048 277.621 315.138V313.627H278.202ZM280.302 317.128C279.468 317.128 279.017 316.608 278.866 316.123L279.365 315.904C279.495 316.307 279.769 316.636 280.302 316.636C280.726 316.636 281 316.389 281 316.109C281 315.227 279.017 315.795 279.017 314.489C279.017 313.942 279.489 313.572 280.227 313.572C280.836 313.572 281.362 313.914 281.506 314.42L281.02 314.632C280.924 314.277 280.583 314.051 280.213 314.051C279.824 314.051 279.577 314.208 279.577 314.482C279.577 315.22 281.574 314.68 281.567 316.102C281.567 316.704 281.061 317.128 280.302 317.128ZM282.592 312.978C282.36 312.978 282.189 312.8 282.189 312.574C282.189 312.342 282.36 312.164 282.592 312.164C282.831 312.164 283.009 312.342 283.009 312.574C283.009 312.8 282.831 312.978 282.592 312.978ZM282.305 317.073V313.627H282.886V317.073H282.305ZM283.827 317.073V313.627H284.409V314.277C284.648 313.866 285.065 313.572 285.591 313.572C286.309 313.572 286.822 314.058 286.822 314.79V317.073H286.241V314.899C286.241 314.434 285.947 314.099 285.462 314.099C284.819 314.099 284.409 314.653 284.409 315.562V317.073H283.827ZM289.538 316.403C290.228 316.403 290.707 316.69 290.707 317.326C290.707 318.017 290.064 318.372 289.121 318.372C288.143 318.372 287.534 318.024 287.534 317.388C287.534 317.087 287.699 316.841 287.904 316.684C287.733 316.567 287.63 316.396 287.63 316.15C287.63 315.849 287.828 315.624 288.095 315.501C287.911 315.302 287.808 315.043 287.808 314.735C287.808 314.037 288.369 313.572 289.114 313.572C289.34 313.572 289.552 313.62 289.743 313.709L290.283 313.244L290.618 313.627L290.16 314.017C290.324 314.208 290.42 314.455 290.42 314.735C290.42 315.446 289.866 315.897 289.114 315.897C288.868 315.897 288.656 315.849 288.471 315.767C288.273 315.856 288.191 315.972 288.191 316.116C288.191 316.328 288.389 316.403 288.615 316.403H289.538ZM289.114 314.044C288.717 314.044 288.375 314.304 288.375 314.735C288.375 315.172 288.717 315.425 289.114 315.425C289.51 315.425 289.852 315.172 289.852 314.735C289.852 314.304 289.51 314.044 289.114 314.044ZM289.121 317.88C289.777 317.88 290.14 317.695 290.14 317.367C290.14 316.998 289.866 316.875 289.456 316.875H288.724C288.601 316.875 288.485 316.868 288.375 316.854C288.164 316.998 288.102 317.183 288.102 317.381C288.102 317.695 288.451 317.88 289.121 317.88ZM294.294 313.572C295.128 313.572 295.709 314.065 295.709 314.865V317.073H295.135V316.485C294.937 316.882 294.485 317.128 293.986 317.128C293.296 317.128 292.824 316.704 292.824 316.109C292.824 315.446 293.364 315.084 294.465 314.974L295.135 314.899V314.831C295.135 314.359 294.8 314.058 294.294 314.058C293.822 314.058 293.487 314.338 293.439 314.803L292.899 314.701C293.002 314.017 293.569 313.572 294.294 313.572ZM294.075 316.649C294.745 316.649 295.135 316.205 295.135 315.514V315.35L294.465 315.425C293.767 315.501 293.405 315.74 293.405 316.102C293.405 316.424 293.679 316.649 294.075 316.649ZM299.692 317.073L297.893 312.287H298.529L300.006 316.355L301.49 312.287H302.126L300.327 317.073H299.692ZM302.678 317.073V312.287H304.496C305.426 312.287 306.028 312.834 306.028 313.675C306.028 314.516 305.426 315.063 304.496 315.063H303.3V317.073H302.678ZM303.3 314.502H304.476C305.043 314.502 305.385 314.195 305.385 313.675C305.385 313.155 305.043 312.841 304.476 312.841H303.3V314.502ZM306.697 317.073V312.287H307.388L309.802 316.095V312.287H310.41V317.073H309.72L307.306 313.278V317.073H306.697ZM311.104 317.798L311.5 316.362H312.28L311.514 317.798H311.104ZM314.79 318.318V313.627H315.371V314.126C315.555 313.812 316.007 313.572 316.506 313.572C317.566 313.572 318.154 314.338 318.154 315.35C318.154 316.362 317.552 317.128 316.492 317.128C316.054 317.128 315.603 316.909 315.371 316.595V318.318H314.79ZM316.437 316.608C317.121 316.608 317.566 316.109 317.566 315.35C317.566 314.591 317.121 314.092 316.437 314.092C315.767 314.092 315.323 314.591 315.323 315.35C315.323 316.109 315.767 316.608 316.437 316.608ZM319.969 317.121C319.354 317.183 318.896 316.95 318.896 316.232V312.232H319.477V316.191C319.477 316.567 319.655 316.622 319.942 316.601L319.969 317.121ZM323.763 315.193C323.763 315.275 323.756 315.398 323.75 315.46H321.028C321.069 316.157 321.507 316.615 322.129 316.615C322.656 316.615 323.018 316.369 323.121 315.938L323.668 316.068C323.497 316.738 322.922 317.128 322.129 317.128C321.097 317.128 320.447 316.328 320.447 315.35C320.447 314.372 321.076 313.572 322.115 313.572C323.134 313.572 323.763 314.304 323.763 315.193ZM321.062 314.974H323.148C323.093 314.448 322.724 314.058 322.115 314.058C321.575 314.058 321.179 314.4 321.062 314.974ZM325.764 313.572C326.598 313.572 327.179 314.065 327.179 314.865V317.073H326.605V316.485C326.406 316.882 325.955 317.128 325.456 317.128C324.765 317.128 324.293 316.704 324.293 316.109C324.293 315.446 324.834 315.084 325.934 314.974L326.605 314.899V314.831C326.605 314.359 326.27 314.058 325.764 314.058C325.292 314.058 324.957 314.338 324.909 314.803L324.369 314.701C324.471 314.017 325.039 313.572 325.764 313.572ZM325.545 316.649C326.215 316.649 326.605 316.205 326.605 315.514V315.35L325.934 315.425C325.237 315.501 324.875 315.74 324.875 316.102C324.875 316.424 325.148 316.649 325.545 316.649ZM329.279 317.128C328.445 317.128 327.994 316.608 327.844 316.123L328.343 315.904C328.473 316.307 328.746 316.636 329.279 316.636C329.703 316.636 329.977 316.389 329.977 316.109C329.977 315.227 327.994 315.795 327.994 314.489C327.994 313.942 328.466 313.572 329.204 313.572C329.813 313.572 330.339 313.914 330.483 314.42L329.997 314.632C329.902 314.277 329.56 314.051 329.19 314.051C328.801 314.051 328.555 314.208 328.555 314.482C328.555 315.22 330.551 314.68 330.544 316.102C330.544 316.704 330.038 317.128 329.279 317.128ZM334.373 315.193C334.373 315.275 334.366 315.398 334.36 315.46H331.638C331.679 316.157 332.117 316.615 332.739 316.615C333.266 316.615 333.628 316.369 333.731 315.938L334.278 316.068C334.107 316.738 333.532 317.128 332.739 317.128C331.707 317.128 331.057 316.328 331.057 315.35C331.057 314.372 331.686 313.572 332.726 313.572C333.744 313.572 334.373 314.304 334.373 315.193ZM331.673 314.974H333.758C333.703 314.448 333.334 314.058 332.726 314.058C332.185 314.058 331.789 314.4 331.673 314.974ZM336.771 317.073V313.627H337.352V314.277C337.523 313.866 337.865 313.572 338.391 313.572C338.952 313.572 339.39 313.832 339.513 314.297C339.697 313.887 340.107 313.572 340.627 313.572C341.366 313.572 341.831 314.037 341.831 314.762V317.073H341.249V314.878C341.249 314.407 340.983 314.085 340.497 314.085C339.909 314.085 339.588 314.612 339.588 315.343V317.073H339.007V314.878C339.007 314.407 338.74 314.085 338.261 314.085C337.673 314.085 337.352 314.612 337.352 315.343V317.073H336.771ZM344.059 313.572C344.893 313.572 345.474 314.065 345.474 314.865V317.073H344.9V316.485C344.702 316.882 344.25 317.128 343.751 317.128C343.061 317.128 342.589 316.704 342.589 316.109C342.589 315.446 343.129 315.084 344.23 314.974L344.9 314.899V314.831C344.9 314.359 344.565 314.058 344.059 314.058C343.587 314.058 343.252 314.338 343.204 314.803L342.664 314.701C342.767 314.017 343.334 313.572 344.059 313.572ZM343.84 316.649C344.51 316.649 344.9 316.205 344.9 315.514V315.35L344.23 315.425C343.533 315.501 343.17 315.74 343.17 316.102C343.17 316.424 343.444 316.649 343.84 316.649ZM348.765 317.073L347.465 315.378L347.007 315.795V317.073H346.419V312.232H347.007V315.029L348.6 313.627H349.373L347.896 314.988L349.489 317.073H348.765ZM353.009 315.193C353.009 315.275 353.003 315.398 352.996 315.46H350.274C350.315 316.157 350.753 316.615 351.375 316.615C351.902 316.615 352.264 316.369 352.367 315.938L352.914 316.068C352.743 316.738 352.168 317.128 351.375 317.128C350.343 317.128 349.693 316.328 349.693 315.35C349.693 314.372 350.322 313.572 351.362 313.572C352.38 313.572 353.009 314.304 353.009 315.193ZM350.309 314.974H352.394C352.339 314.448 351.97 314.058 351.362 314.058C350.821 314.058 350.425 314.4 350.309 314.974ZM356.562 317.128C355.728 317.128 355.277 316.608 355.126 316.123L355.626 315.904C355.756 316.307 356.029 316.636 356.562 316.636C356.986 316.636 357.26 316.389 357.26 316.109C357.26 315.227 355.277 315.795 355.277 314.489C355.277 313.942 355.749 313.572 356.487 313.572C357.096 313.572 357.622 313.914 357.766 314.42L357.28 314.632C357.185 314.277 356.843 314.051 356.473 314.051C356.084 314.051 355.838 314.208 355.838 314.482C355.838 315.22 357.834 314.68 357.827 316.102C357.827 316.704 357.321 317.128 356.562 317.128ZM361.56 313.627V317.073H360.979V316.424C360.739 316.834 360.322 317.128 359.796 317.128C359.078 317.128 358.565 316.642 358.565 315.911V313.627H359.146V315.801C359.146 316.266 359.44 316.601 359.926 316.601C360.569 316.601 360.979 316.048 360.979 315.138V313.627H361.56ZM364.522 314.195C364.392 314.14 364.228 314.113 364.077 314.113C363.53 314.113 363.086 314.639 363.086 315.76V317.073H362.505V313.627H363.086V314.325C363.284 313.887 363.735 313.572 364.159 313.572C364.303 313.572 364.44 313.593 364.556 313.634L364.522 314.195ZM368.08 315.193C368.08 315.275 368.073 315.398 368.066 315.46H365.345C365.386 316.157 365.823 316.615 366.446 316.615C366.972 316.615 367.334 316.369 367.437 315.938L367.984 316.068C367.813 316.738 367.239 317.128 366.446 317.128C365.413 317.128 364.764 316.328 364.764 315.35C364.764 314.372 365.393 313.572 366.432 313.572C367.451 313.572 368.08 314.304 368.08 315.193ZM365.379 314.974H367.464C367.41 314.448 367.04 314.058 366.432 314.058C365.892 314.058 365.495 314.4 365.379 314.974ZM251.019 325.046C250.848 325.107 250.663 325.128 250.478 325.128C249.89 325.128 249.46 324.8 249.46 324.041V322.14H248.817V321.627H249.46V320.581H250.041V321.627H250.964V322.14H250.041V324.061C250.041 324.424 250.246 324.601 250.547 324.601C250.684 324.601 250.841 324.581 250.978 324.513L251.019 325.046ZM253.162 325.128C252.136 325.128 251.412 324.383 251.412 323.35C251.412 322.318 252.136 321.572 253.162 321.572C254.181 321.572 254.919 322.318 254.919 323.35C254.919 324.383 254.181 325.128 253.162 325.128ZM253.162 324.608C253.853 324.608 254.318 324.089 254.318 323.35C254.318 322.612 253.853 322.092 253.162 322.092C252.472 322.092 252.007 322.612 252.007 323.35C252.007 324.089 252.472 324.608 253.162 324.608ZM258.776 325.128C257.702 325.128 257.114 324.362 257.114 323.35C257.114 322.338 257.702 321.572 258.769 321.572C259.227 321.572 259.678 321.798 259.897 322.119V320.232H260.478V325.073H259.897V324.574C259.74 324.889 259.281 325.128 258.776 325.128ZM258.83 324.608C259.507 324.608 259.952 324.109 259.952 323.35C259.952 322.591 259.507 322.092 258.83 322.092C258.153 322.092 257.709 322.591 257.709 323.35C257.709 324.109 258.153 324.608 258.83 324.608ZM261.706 320.978C261.473 320.978 261.303 320.8 261.303 320.574C261.303 320.342 261.473 320.164 261.706 320.164C261.945 320.164 262.123 320.342 262.123 320.574C262.123 320.8 261.945 320.978 261.706 320.978ZM261.419 325.073V321.627H262V325.073H261.419ZM264.097 325.128C263.263 325.128 262.811 324.608 262.661 324.123L263.16 323.904C263.29 324.307 263.563 324.636 264.097 324.636C264.521 324.636 264.794 324.389 264.794 324.109C264.794 323.227 262.811 323.795 262.811 322.489C262.811 321.942 263.283 321.572 264.021 321.572C264.63 321.572 265.157 321.914 265.3 322.42L264.815 322.632C264.719 322.277 264.377 322.051 264.008 322.051C263.618 322.051 263.372 322.208 263.372 322.482C263.372 323.22 265.368 322.68 265.362 324.102C265.362 324.704 264.856 325.128 264.097 325.128ZM267.584 325.128C266.558 325.128 265.874 324.417 265.874 323.35C265.874 322.284 266.558 321.572 267.584 321.572C268.384 321.572 268.972 322.01 269.095 322.694L268.521 322.81C268.445 322.393 268.083 322.092 267.598 322.092C266.921 322.092 266.483 322.591 266.483 323.35C266.483 324.109 266.921 324.608 267.598 324.608C268.083 324.608 268.439 324.342 268.534 323.884L269.102 324C268.951 324.711 268.377 325.128 267.584 325.128ZM271.377 325.128C270.352 325.128 269.627 324.383 269.627 323.35C269.627 322.318 270.352 321.572 271.377 321.572C272.396 321.572 273.135 322.318 273.135 323.35C273.135 324.383 272.396 325.128 271.377 325.128ZM271.377 324.608C272.068 324.608 272.533 324.089 272.533 323.35C272.533 322.612 272.068 322.092 271.377 322.092C270.687 322.092 270.222 322.612 270.222 323.35C270.222 324.089 270.687 324.608 271.377 324.608ZM273.878 325.073V321.627H274.46V322.277C274.699 321.866 275.116 321.572 275.642 321.572C276.36 321.572 276.873 322.058 276.873 322.79V325.073H276.292V322.899C276.292 322.434 275.998 322.099 275.513 322.099C274.87 322.099 274.46 322.653 274.46 323.562V325.073H273.878ZM277.818 325.073V321.627H278.399V322.277C278.638 321.866 279.056 321.572 279.582 321.572C280.3 321.572 280.813 322.058 280.813 322.79V325.073H280.232V322.899C280.232 322.434 279.938 322.099 279.452 322.099C278.809 322.099 278.399 322.653 278.399 323.562V325.073H277.818ZM284.875 323.193C284.875 323.275 284.869 323.398 284.862 323.46H282.14C282.181 324.157 282.619 324.615 283.241 324.615C283.768 324.615 284.13 324.369 284.233 323.938L284.78 324.068C284.609 324.738 284.034 325.128 283.241 325.128C282.209 325.128 281.559 324.328 281.559 323.35C281.559 322.372 282.188 321.572 283.228 321.572C284.246 321.572 284.875 322.304 284.875 323.193ZM282.175 322.974H284.26C284.205 322.448 283.836 322.058 283.228 322.058C282.687 322.058 282.291 322.4 282.175 322.974ZM287.135 325.128C286.109 325.128 285.425 324.417 285.425 323.35C285.425 322.284 286.109 321.572 287.135 321.572C287.935 321.572 288.523 322.01 288.646 322.694L288.071 322.81C287.996 322.393 287.634 322.092 287.148 322.092C286.471 322.092 286.034 322.591 286.034 323.35C286.034 324.109 286.471 324.608 287.148 324.608C287.634 324.608 287.989 324.342 288.085 323.884L288.653 324C288.502 324.711 287.928 325.128 287.135 325.128ZM291.162 325.046C290.991 325.107 290.806 325.128 290.622 325.128C290.034 325.128 289.603 324.8 289.603 324.041V322.14H288.96V321.627H289.603V320.581H290.184V321.627H291.107V322.14H290.184V324.061C290.184 324.424 290.389 324.601 290.69 324.601C290.827 324.601 290.984 324.581 291.121 324.513L291.162 325.046ZM295.192 325.128C294.686 325.128 294.228 324.889 294.07 324.574V325.073H293.489V320.232H294.07V322.119C294.289 321.798 294.741 321.572 295.199 321.572C296.265 321.572 296.853 322.338 296.853 323.35C296.853 324.362 296.265 325.128 295.192 325.128ZM295.137 324.608C295.814 324.608 296.258 324.109 296.258 323.35C296.258 322.591 295.814 322.092 295.137 322.092C294.46 322.092 294.023 322.591 294.023 323.35C294.023 324.109 294.46 324.608 295.137 324.608ZM300.714 323.193C300.714 323.275 300.707 323.398 300.7 323.46H297.979C298.02 324.157 298.457 324.615 299.079 324.615C299.606 324.615 299.968 324.369 300.071 323.938L300.618 324.068C300.447 324.738 299.873 325.128 299.079 325.128C298.047 325.128 297.397 324.328 297.397 323.35C297.397 322.372 298.027 321.572 299.066 321.572C300.085 321.572 300.714 322.304 300.714 323.193ZM298.013 322.974H300.098C300.044 322.448 299.674 322.058 299.066 322.058C298.526 322.058 298.129 322.4 298.013 322.974ZM301.71 325.073V322.14H301.122V321.627H301.71V321.306C301.71 320.547 302.141 320.143 302.729 320.143C302.886 320.143 303.05 320.157 303.194 320.198L303.167 320.718C303.044 320.67 302.92 320.649 302.804 320.649C302.497 320.649 302.291 320.889 302.291 321.258V321.627H303.173V322.14H302.291V325.073H301.71ZM305.197 325.128C304.172 325.128 303.447 324.383 303.447 323.35C303.447 322.318 304.172 321.572 305.197 321.572C306.216 321.572 306.955 322.318 306.955 323.35C306.955 324.383 306.216 325.128 305.197 325.128ZM305.197 324.608C305.888 324.608 306.353 324.089 306.353 323.35C306.353 322.612 305.888 322.092 305.197 322.092C304.507 322.092 304.042 322.612 304.042 323.35C304.042 324.089 304.507 324.608 305.197 324.608ZM309.715 322.195C309.585 322.14 309.421 322.113 309.271 322.113C308.724 322.113 308.28 322.639 308.28 323.76V325.073H307.698V321.627H308.28V322.325C308.478 321.887 308.929 321.572 309.353 321.572C309.497 321.572 309.633 321.593 309.75 321.634L309.715 322.195ZM313.273 323.193C313.273 323.275 313.267 323.398 313.26 323.46H310.538C310.579 324.157 311.017 324.615 311.639 324.615C312.166 324.615 312.528 324.369 312.631 323.938L313.178 324.068C313.007 324.738 312.432 325.128 311.639 325.128C310.607 325.128 309.957 324.328 309.957 323.35C309.957 322.372 310.586 321.572 311.626 321.572C312.644 321.572 313.273 322.304 313.273 323.193ZM310.573 322.974H312.658C312.603 322.448 312.234 322.058 311.626 322.058C311.085 322.058 310.689 322.4 310.573 322.974ZM317.503 325.046C317.332 325.107 317.148 325.128 316.963 325.128C316.375 325.128 315.944 324.8 315.944 324.041V322.14H315.302V321.627H315.944V320.581H316.526V321.627H317.449V322.14H316.526V324.061C316.526 324.424 316.731 324.601 317.032 324.601C317.168 324.601 317.326 324.581 317.462 324.513L317.503 325.046ZM320.199 322.195C320.069 322.14 319.905 322.113 319.754 322.113C319.207 322.113 318.763 322.639 318.763 323.76V325.073H318.182V321.627H318.763V322.325C318.961 321.887 319.412 321.572 319.836 321.572C319.98 321.572 320.117 321.593 320.233 321.634L320.199 322.195ZM323.069 321.627H323.664L321.859 326.318H321.264L321.763 325.025L320.416 321.627H321.045L322.057 324.266L323.069 321.627ZM324.512 320.978C324.279 320.978 324.108 320.8 324.108 320.574C324.108 320.342 324.279 320.164 324.512 320.164C324.751 320.164 324.929 320.342 324.929 320.574C324.929 320.8 324.751 320.978 324.512 320.978ZM324.224 325.073V321.627H324.806V325.073H324.224ZM325.747 325.073V321.627H326.328V322.277C326.567 321.866 326.984 321.572 327.511 321.572C328.229 321.572 328.742 322.058 328.742 322.79V325.073H328.16V322.899C328.16 322.434 327.866 322.099 327.381 322.099C326.738 322.099 326.328 322.653 326.328 323.562V325.073H325.747ZM331.457 324.403C332.148 324.403 332.626 324.69 332.626 325.326C332.626 326.017 331.984 326.372 331.04 326.372C330.062 326.372 329.454 326.024 329.454 325.388C329.454 325.087 329.618 324.841 329.823 324.684C329.652 324.567 329.55 324.396 329.55 324.15C329.55 323.849 329.748 323.624 330.015 323.501C329.83 323.302 329.727 323.043 329.727 322.735C329.727 322.037 330.288 321.572 331.033 321.572C331.259 321.572 331.471 321.62 331.662 321.709L332.202 321.244L332.538 321.627L332.079 322.017C332.244 322.208 332.339 322.455 332.339 322.735C332.339 323.446 331.785 323.897 331.033 323.897C330.787 323.897 330.575 323.849 330.391 323.767C330.192 323.856 330.11 323.972 330.11 324.116C330.11 324.328 330.309 324.403 330.534 324.403H331.457ZM331.033 322.044C330.637 322.044 330.295 322.304 330.295 322.735C330.295 323.172 330.637 323.425 331.033 323.425C331.43 323.425 331.772 323.172 331.772 322.735C331.772 322.304 331.43 322.044 331.033 322.044ZM331.04 325.88C331.697 325.88 332.059 325.695 332.059 325.367C332.059 324.998 331.785 324.875 331.375 324.875H330.644C330.52 324.875 330.404 324.868 330.295 324.854C330.083 324.998 330.021 325.183 330.021 325.381C330.021 325.695 330.37 325.88 331.04 325.88ZM336.213 321.572C337.048 321.572 337.629 322.065 337.629 322.865V325.073H337.054V324.485C336.856 324.882 336.405 325.128 335.906 325.128C335.215 325.128 334.743 324.704 334.743 324.109C334.743 323.446 335.283 323.084 336.384 322.974L337.054 322.899V322.831C337.054 322.359 336.719 322.058 336.213 322.058C335.742 322.058 335.407 322.338 335.359 322.803L334.819 322.701C334.921 322.017 335.489 321.572 336.213 321.572ZM335.995 324.649C336.665 324.649 337.054 324.205 337.054 323.514V323.35L336.384 323.425C335.687 323.501 335.324 323.74 335.324 324.102C335.324 324.424 335.598 324.649 335.995 324.649ZM340.345 324.403C341.035 324.403 341.514 324.69 341.514 325.326C341.514 326.017 340.871 326.372 339.927 326.372C338.95 326.372 338.341 326.024 338.341 325.388C338.341 325.087 338.505 324.841 338.71 324.684C338.539 324.567 338.437 324.396 338.437 324.15C338.437 323.849 338.635 323.624 338.902 323.501C338.717 323.302 338.615 323.043 338.615 322.735C338.615 322.037 339.175 321.572 339.921 321.572C340.146 321.572 340.358 321.62 340.55 321.709L341.09 321.244L341.425 321.627L340.967 322.017C341.131 322.208 341.227 322.455 341.227 322.735C341.227 323.446 340.673 323.897 339.921 323.897C339.674 323.897 339.463 323.849 339.278 323.767C339.08 323.856 338.998 323.972 338.998 324.116C338.998 324.328 339.196 324.403 339.421 324.403H340.345ZM339.921 322.044C339.524 322.044 339.182 322.304 339.182 322.735C339.182 323.172 339.524 323.425 339.921 323.425C340.317 323.425 340.659 323.172 340.659 322.735C340.659 322.304 340.317 322.044 339.921 322.044ZM339.927 325.88C340.584 325.88 340.946 325.695 340.946 325.367C340.946 324.998 340.673 324.875 340.262 324.875H339.531C339.408 324.875 339.292 324.868 339.182 324.854C338.97 324.998 338.909 325.183 338.909 325.381C338.909 325.695 339.257 325.88 339.927 325.88ZM343.451 321.572C344.286 321.572 344.867 322.065 344.867 322.865V325.073H344.292V324.485C344.094 324.882 343.643 325.128 343.144 325.128C342.453 325.128 341.981 324.704 341.981 324.109C341.981 323.446 342.522 323.084 343.622 322.974L344.292 322.899V322.831C344.292 322.359 343.957 322.058 343.451 322.058C342.98 322.058 342.645 322.338 342.597 322.803L342.057 322.701C342.159 322.017 342.727 321.572 343.451 321.572ZM343.233 324.649C343.903 324.649 344.292 324.205 344.292 323.514V323.35L343.622 323.425C342.925 323.501 342.563 323.74 342.563 324.102C342.563 324.424 342.836 324.649 343.233 324.649ZM346.099 320.978C345.866 320.978 345.695 320.8 345.695 320.574C345.695 320.342 345.866 320.164 346.099 320.164C346.338 320.164 346.516 320.342 346.516 320.574C346.516 320.8 346.338 320.978 346.099 320.978ZM345.812 325.073V321.627H346.393V325.073H345.812ZM347.334 325.073V321.627H347.915V322.277C348.155 321.866 348.572 321.572 349.098 321.572C349.816 321.572 350.329 322.058 350.329 322.79V325.073H349.748V322.899C349.748 322.434 349.454 322.099 348.968 322.099C348.326 322.099 347.915 322.653 347.915 323.562V325.073H347.334ZM351.691 325.128C351.445 325.128 351.274 324.957 351.274 324.718C351.274 324.485 351.445 324.307 351.691 324.307C351.923 324.307 352.108 324.485 352.108 324.718C352.108 324.957 351.923 325.128 351.691 325.128Z" fill="black"/>
<g clip-path="url(#clip2_943_10253)">
<path d="M238.499 287.801C236.152 287.801 234.249 289.704 234.249 292.051C234.249 294.398 236.152 296.301 238.499 296.301C240.846 296.301 242.749 294.398 242.749 292.051C242.749 289.704 240.846 287.801 238.499 287.801ZM238.195 290.002C238.195 289.96 238.229 289.926 238.271 289.926H238.726C238.768 289.926 238.802 289.96 238.802 290.002V292.582C238.802 292.624 238.768 292.658 238.726 292.658H238.271C238.229 292.658 238.195 292.624 238.195 292.582V290.002ZM238.499 294.176C238.38 294.173 238.266 294.124 238.183 294.039C238.099 293.954 238.053 293.84 238.053 293.72C238.053 293.601 238.099 293.487 238.183 293.402C238.266 293.317 238.38 293.267 238.499 293.265C238.618 293.267 238.731 293.317 238.815 293.402C238.898 293.487 238.945 293.601 238.945 293.72C238.945 293.84 238.898 293.954 238.815 294.039C238.731 294.124 238.618 294.173 238.499 294.176Z" fill="#F05656"/>
</g>
<rect x="234.227" y="345.729" width="139.764" height="18.7488" rx="4.2734" fill="#014C92"/>
<path d="M287.415 358.478C286.045 358.478 284.776 357.562 284.776 355.724C284.776 353.885 286.076 352.97 287.484 352.97C288.776 352.97 289.692 353.647 289.899 354.762L288.868 354.978C288.738 354.301 288.199 353.87 287.476 353.87C286.515 353.87 285.83 354.547 285.83 355.724C285.83 356.901 286.515 357.57 287.461 357.57C288.276 357.57 288.822 357.085 288.876 356.385H287.276V355.539H289.845V358.416H288.899V357.762C288.661 358.201 288.069 358.478 287.415 358.478ZM292.576 358.478C291.399 358.478 290.553 357.631 290.553 356.478C290.553 355.324 291.399 354.478 292.576 354.478C293.753 354.478 294.599 355.324 294.599 356.478C294.599 357.631 293.753 358.478 292.576 358.478ZM292.576 357.639C293.199 357.639 293.622 357.17 293.622 356.478C293.622 355.785 293.199 355.316 292.576 355.316C291.945 355.316 291.53 355.785 291.53 356.478C291.53 357.17 291.945 357.639 292.576 357.639ZM297.175 358.416V352.97H298.145V355.139C298.399 354.716 298.837 354.478 299.375 354.478C300.245 354.478 300.822 355.031 300.822 355.878V358.416H299.852V356.116C299.852 355.639 299.56 355.339 299.083 355.339C298.483 355.339 298.145 355.855 298.145 356.731V358.416H297.175ZM303.573 358.478C302.396 358.478 301.55 357.631 301.55 356.478C301.55 355.324 302.396 354.478 303.573 354.478C304.75 354.478 305.596 355.324 305.596 356.478C305.596 357.631 304.75 358.478 303.573 358.478ZM303.573 357.639C304.196 357.639 304.619 357.17 304.619 356.478C304.619 355.785 304.196 355.316 303.573 355.316C302.942 355.316 302.527 355.785 302.527 356.478C302.527 357.17 302.942 357.639 303.573 357.639ZM306.325 358.416V354.539H307.294V355.131C307.509 354.747 307.871 354.478 308.409 354.478C309.025 354.478 309.44 354.739 309.617 355.208C309.825 354.816 310.286 354.478 310.902 354.478C311.74 354.478 312.286 355.024 312.286 355.785V358.416H311.317V356.055C311.317 355.593 311.063 355.301 310.609 355.301C310.086 355.301 309.786 355.755 309.786 356.439V358.416H308.817V356.055C308.817 355.593 308.571 355.301 308.125 355.301C307.594 355.301 307.294 355.762 307.294 356.447V358.416H306.325ZM316.882 356.347C316.882 356.485 316.874 356.655 316.867 356.731H313.99C314.074 357.316 314.451 357.662 315.005 357.662C315.459 357.662 315.782 357.447 315.882 357.07L316.79 357.316C316.574 358.047 315.897 358.478 314.99 358.478C313.705 358.478 313.021 357.485 313.021 356.478C313.021 355.47 313.651 354.478 314.936 354.478C316.244 354.478 316.882 355.447 316.882 356.347ZM314.013 356.024H315.844C315.797 355.562 315.497 355.216 314.936 355.216C314.459 355.216 314.121 355.501 314.013 356.024ZM322.04 354.139L324.278 356.378L322.048 358.608L321.532 358.093L322.832 356.793H319.255V355.962H322.832L321.525 354.662L322.04 354.139Z" fill="#F2F2F2"/>
<g style="mix-blend-mode:multiply">
<rect x="224" y="27" width="159.791" height="237.342" fill="#888888"/>
</g>
<rect x="224" y="27" width="58.803" height="58.803" fill="#E9E9E9"/>
<rect x="289.621" y="27" width="58.803" height="58.803" fill="#E9E9E9"/>
<rect x="224" y="92.1943" width="124.424" height="23.436" fill="#9FE6B3"/>
<rect x="355.242" y="27" width="28.5493" height="88.6305" fill="#E9E9E9"/>
<rect x="324.988" y="122.448" width="58.803" height="46.8719" fill="#E9E9E9"/>
<rect x="325.414" y="175.712" width="58.803" height="26.8448" fill="#9FE6B3"/>
<rect x="325.414" y="209.374" width="58.803" height="54.968" fill="#E9E9E9"/>
<path d="M259.367 122.448H318.17V162.289L259.367 208.948V122.448Z" fill="#E9E9E9"/>
<path d="M252.123 122.448L223.574 122.448L224 237.924L252.123 214.744V122.448Z" fill="#E9E9E9"/>
<path d="M281.099 264.342H224V249.215L281.099 202.556V264.342Z" fill="#E9E9E9"/>
<path d="M288.342 264.342L318.17 264.342V174.859L288.342 197.656V264.342Z" fill="#E9E9E9"/>
<g filter="url(#filter3_d_943_10253)">
<circle cx="304.108" cy="145.884" r="38.3498" fill="white"/>
</g>
<path d="M301.216 122.448C297.511 122.448 293.958 123.946 291.338 126.613C288.718 129.28 287.246 132.896 287.246 136.667C287.246 144.535 298.422 160.366 301.216 160.366C304.009 160.366 315.185 144.535 315.185 136.667C315.185 132.896 313.713 129.28 311.093 126.613C308.474 123.946 304.92 122.448 301.216 122.448ZM301.216 146.147C299.374 146.147 297.573 145.591 296.042 144.549C294.51 143.508 293.317 142.027 292.612 140.295C291.907 138.563 291.722 136.657 292.082 134.818C292.441 132.979 293.328 131.29 294.63 129.964C295.933 128.639 297.592 127.736 299.399 127.37C301.205 127.004 303.078 127.192 304.779 127.91C306.481 128.627 307.936 129.842 308.959 131.401C309.982 132.96 310.528 134.792 310.528 136.667C310.528 139.181 309.547 141.593 307.801 143.37C306.054 145.148 303.685 146.147 301.216 146.147Z" fill="#B1CDE2"/>
<path d="M324.07 152.702C324.07 157.544 320.133 161.474 315.269 161.474C310.406 161.474 306.469 157.544 306.469 152.702C306.469 147.86 310.406 143.93 315.269 143.93C320.133 143.93 324.07 147.86 324.07 152.702Z" fill="#F05656" stroke="#F05656" stroke-width="2.05657"/>
<line y1="-0.514143" x2="8.22501" y2="-0.514143" transform="matrix(0.708126 0.706086 -0.708126 0.706086 311.752 150.223)" stroke="white" stroke-width="1.02829"/>
<line y1="-0.514143" x2="8.22501" y2="-0.514143" transform="matrix(-0.708126 0.706086 -0.708126 -0.706086 317.635 149.394)" stroke="white" stroke-width="1.02829"/>
<ellipse cx="303.699" cy="165.912" rx="18.1619" ry="0.852217" fill="#B1CDE2" fill-opacity="0.4"/>
</g>
</g>
<defs>
<filter id="filter0_d_943_10253" x="11" y="9" width="200" height="386.453" filterUnits="userSpaceOnUse" color-interpolation-filters="sRGB">
<feFlood flood-opacity="0" result="BackgroundImageFix"/>
<feColorMatrix in="SourceAlpha" type="matrix" values="0 0 0 0 0 0 0 0 0 0 0 0 0 0 0 0 0 0 127 0" result="hardAlpha"/>
<feOffset dy="2"/>
<feGaussianBlur stdDeviation="10"/>
<feComposite in2="hardAlpha" operator="out"/>
<feColorMatrix type="matrix" values="0 0 0 0 0.00392157 0 0 0 0 0.298039 0 0 0 0 0.572549 0 0 0 0.1 0"/>
<feBlend mode="normal" in2="BackgroundImageFix" result="effect1_dropShadow_943_10253"/>
<feBlend mode="normal" in="SourceGraphic" in2="effect1_dropShadow_943_10253" result="shape"/>
</filter>
<filter id="filter1_d_943_10253" x="44.6532" y="189.986" width="132.267" height="64.4262" filterUnits="userSpaceOnUse" color-interpolation-filters="sRGB">
<feFlood flood-opacity="0" result="BackgroundImageFix"/>
<feColorMatrix in="SourceAlpha" type="matrix" values="0 0 0 0 0 0 0 0 0 0 0 0 0 0 0 0 0 0 127 0" result="hardAlpha"/>
<feOffset/>
<feGaussianBlur stdDeviation="0.64"/>
<feColorMatrix type="matrix" values="0 0 0 0 0 0 0 0 0 0 0 0 0 0 0 0 0 0 0.15 0"/>
<feBlend mode="normal" in2="BackgroundImageFix" result="effect1_dropShadow_943_10253"/>
<feBlend mode="normal" in="SourceGraphic" in2="effect1_dropShadow_943_10253" result="shape"/>
</filter>
<filter id="filter2_d_943_10253" x="204" y="9" width="199.791" height="386" filterUnits="userSpaceOnUse" color-interpolation-filters="sRGB">
<feFlood flood-opacity="0" result="BackgroundImageFix"/>
<feColorMatrix in="SourceAlpha" type="matrix" values="0 0 0 0 0 0 0 0 0 0 0 0 0 0 0 0 0 0 127 0" result="hardAlpha"/>
<feOffset dy="2"/>
<feGaussianBlur stdDeviation="10"/>
<feComposite in2="hardAlpha" operator="out"/>
<feColorMatrix type="matrix" values="0 0 0 0 0.00392157 0 0 0 0 0.298039 0 0 0 0 0.572549 0 0 0 0.1 0"/>
<feBlend mode="normal" in2="BackgroundImageFix" result="effect1_dropShadow_943_10253"/>
<feBlend mode="normal" in="SourceGraphic" in2="effect1_dropShadow_943_10253" result="shape"/>
</filter>
<filter id="filter3_d_943_10253" x="257.212" y="100.697" width="93.7931" height="93.7928" filterUnits="userSpaceOnUse" color-interpolation-filters="sRGB">
<feFlood flood-opacity="0" result="BackgroundImageFix"/>
<feColorMatrix in="SourceAlpha" type="matrix" values="0 0 0 0 0 0 0 0 0 0 0 0 0 0 0 0 0 0 127 0" result="hardAlpha"/>
<feOffset dy="1.70936"/>
<feGaussianBlur stdDeviation="4.2734"/>
<feComposite in2="hardAlpha" operator="out"/>
<feColorMatrix type="matrix" values="0 0 0 0 0.941176 0 0 0 0 0.337255 0 0 0 0 0.337255 0 0 0 0.2 0"/>
<feBlend mode="normal" in2="BackgroundImageFix" result="effect1_dropShadow_943_10253"/>
<feBlend mode="normal" in="SourceGraphic" in2="effect1_dropShadow_943_10253" result="shape"/>
</filter>
<clipPath id="clip0_943_10253">
<rect width="8.53333" height="8.53333" fill="white" transform="translate(50.6267 198.946)"/>
</clipPath>
<clipPath id="clip1_943_10253">
<rect x="224" y="27" width="159.791" height="346" rx="8.59" fill="white"/>
</clipPath>
<clipPath id="clip2_943_10253">
<rect width="8.52217" height="8.52217" fill="white" transform="translate(234.227 287.778)"/>
</clipPath>
</defs>
</svg>
