<svg viewBox="0 0 240 400" fill="none" xmlns="http://www.w3.org/2000/svg">
<rect width="240" height="400" rx="23.0739" fill="#F0F8FF"/>
<g filter="url(#filter0_d_943_9707)">
<g clip-path="url(#clip0_943_9707)">
<rect x="40" y="27" width="160" height="346.453" rx="8.59" fill="white"/>
<rect x="50.4533" y="98.0395" width="139.52" height="15.7867" rx="4.05333" fill="#F8F8F8" stroke="#3480F6" stroke-width="0.426667"/>
<path d="M62.1867 108.921C63.8362 108.921 65.1734 107.583 65.1734 105.934C65.1734 104.284 63.8362 102.947 62.1867 102.947C60.5372 102.947 59.2001 104.284 59.2001 105.934C59.2001 107.583 60.5372 108.921 62.1867 108.921Z" stroke="#676767" stroke-width="0.853333" stroke-linecap="round" stroke-linejoin="round"/>
<path d="M64.3201 108.493L65.6001 109.773" stroke="#676767" stroke-width="0.853333" stroke-linecap="round" stroke-linejoin="round"/>
<path d="M76.4954 105.7C77.3496 105.7 77.9649 106.297 77.9649 107.134C77.9649 107.97 77.3018 108.567 76.376 108.567C75.4322 108.567 74.7691 107.779 74.7691 106.62C74.7691 105.055 75.695 104.29 76.7463 104.29C77.1943 104.29 77.6363 104.434 77.9708 104.715L77.6005 105.306C77.3854 105.121 77.0868 104.989 76.7642 104.989C76.0713 104.989 75.5815 105.491 75.5337 106.196C75.7249 105.885 76.0833 105.7 76.4954 105.7ZM76.3998 107.862C76.8478 107.862 77.1644 107.54 77.1644 107.092C77.1704 106.65 76.8478 106.327 76.3998 106.327C75.9459 106.327 75.6233 106.65 75.6233 107.092C75.6233 107.54 75.9459 107.862 76.3998 107.862ZM80.1763 105.7C81.0304 105.7 81.6457 106.297 81.6457 107.134C81.6457 107.97 80.9827 108.567 80.0568 108.567C79.113 108.567 78.45 107.779 78.45 106.62C78.45 105.055 79.3758 104.29 80.4271 104.29C80.8751 104.29 81.3172 104.434 81.6517 104.715L81.2813 105.306C81.0663 105.121 80.7676 104.989 80.4451 104.989C79.7521 104.989 79.2623 105.491 79.2145 106.196C79.4057 105.885 79.7641 105.7 80.1763 105.7ZM80.0807 107.862C80.5287 107.862 80.8453 107.54 80.8453 107.092C80.8512 106.65 80.5287 106.327 80.0807 106.327C79.6267 106.327 79.3041 106.65 79.3041 107.092C79.3041 107.54 79.6267 107.862 80.0807 107.862ZM83.8272 108.567C82.764 108.567 82.1308 107.719 82.1308 106.429C82.1308 105.139 82.764 104.29 83.8272 104.29C84.8905 104.29 85.5236 105.139 85.5236 106.429C85.5236 107.719 84.8905 108.567 83.8272 108.567ZM83.8272 107.862C84.4007 107.862 84.7113 107.325 84.7113 106.429C84.7113 105.533 84.4007 104.989 83.8272 104.989C83.2538 104.989 82.9491 105.533 82.9491 106.429C82.9491 107.325 83.2538 107.862 83.8272 107.862ZM87.6422 108.567C86.579 108.567 85.9458 107.719 85.9458 106.429C85.9458 105.139 86.579 104.29 87.6422 104.29C88.7055 104.29 89.3386 105.139 89.3386 106.429C89.3386 107.719 88.7055 108.567 87.6422 108.567ZM87.6422 107.862C88.2157 107.862 88.5263 107.325 88.5263 106.429C88.5263 105.533 88.2157 104.989 87.6422 104.989C87.0688 104.989 86.7641 105.533 86.7641 106.429C86.7641 107.325 87.0688 107.862 87.6422 107.862ZM89.8874 108.52C90.0248 107.432 90.7177 106.184 91.6077 105.037H89.4334V104.338H92.444V105.037C91.5121 106.297 90.7894 107.546 90.7057 108.52H89.8874ZM94.1251 108.567C93.259 108.567 92.584 108.083 92.584 107.295C92.584 106.823 92.8827 106.417 93.3307 106.268C92.9902 106.106 92.7632 105.772 92.7632 105.413C92.7632 104.774 93.3068 104.29 94.1251 104.29C94.9315 104.29 95.4751 104.774 95.4751 105.413C95.4751 105.778 95.2481 106.112 94.9016 106.268C95.3556 106.411 95.6543 106.817 95.6543 107.295C95.6543 108.083 94.9793 108.567 94.1251 108.567ZM94.1251 105.969C94.4895 105.969 94.7284 105.76 94.7284 105.443C94.7344 105.121 94.4895 104.918 94.1251 104.918C93.7488 104.918 93.5039 105.121 93.5099 105.443C93.5099 105.76 93.7488 105.969 94.1251 105.969ZM94.1251 107.904C94.5731 107.904 94.8598 107.659 94.8598 107.277C94.8598 106.901 94.5731 106.656 94.1251 106.656C93.6711 106.656 93.3784 106.901 93.3784 107.277C93.3784 107.659 93.6711 107.904 94.1251 107.904ZM97.6928 108.818V104.04H98.5051V108.818H97.6928Z" fill="black"/>
<g filter="url(#filter1_d_943_9707)">
<rect x="50.24" y="128.12" width="139.947" height="37.9733" rx="1.33686" fill="white"/>
</g>
<path d="M70.2319 141.093V136.867H68.7095V136.314H72.3686V136.867H70.8531V141.093H70.2319ZM72.971 141.093V136.259H73.5513V138.328C73.8039 137.836 74.2203 137.598 74.7255 137.598C75.5037 137.598 76.0157 138.082 76.0157 138.826V141.093H75.4355V138.936C75.4355 138.43 75.1214 138.123 74.5958 138.123C73.9609 138.123 73.5513 138.697 73.5513 139.618V141.093H72.971ZM80.0707 139.215C80.0707 139.297 80.0638 139.42 80.057 139.482H77.34C77.381 140.178 77.8179 140.635 78.4391 140.635C78.9648 140.635 79.3266 140.39 79.429 139.96L79.9751 140.089C79.8044 140.758 79.231 141.147 78.4391 141.147C77.4083 141.147 76.7597 140.349 76.7597 139.372C76.7597 138.396 77.3878 137.598 78.4254 137.598C79.4426 137.598 80.0707 138.328 80.0707 139.215ZM77.3741 138.997H79.4563C79.4017 138.471 79.033 138.082 78.4254 138.082C77.8861 138.082 77.4902 138.424 77.3741 138.997ZM82.4644 142.335V137.652H83.0446V138.15C83.229 137.836 83.6795 137.598 84.1779 137.598C85.236 137.598 85.8231 138.362 85.8231 139.372C85.8231 140.383 85.2224 141.147 84.1642 141.147C83.7273 141.147 83.2768 140.929 83.0446 140.615V142.335H82.4644ZM84.1096 140.629C84.7923 140.629 85.236 140.13 85.236 139.372C85.236 138.615 84.7923 138.116 84.1096 138.116C83.4406 138.116 82.9969 138.615 82.9969 139.372C82.9969 140.13 83.4406 140.629 84.1096 140.629ZM86.8511 137.004C86.619 137.004 86.4483 136.826 86.4483 136.601C86.4483 136.369 86.619 136.191 86.8511 136.191C87.09 136.191 87.2675 136.369 87.2675 136.601C87.2675 136.826 87.09 137.004 86.8511 137.004ZM86.5644 141.093V137.652H87.1446V141.093H86.5644ZM88.0844 141.093V137.652H88.6646V138.301C88.9036 137.891 89.32 137.598 89.8457 137.598C90.5625 137.598 91.0745 138.082 91.0745 138.813V141.093H90.4942V138.922C90.4942 138.458 90.2006 138.123 89.716 138.123C89.0742 138.123 88.6646 138.676 88.6646 139.584V141.093H88.0844ZM93.5264 141.147C92.5024 141.147 91.8197 140.437 91.8197 139.372C91.8197 138.307 92.5024 137.598 93.5264 137.598C94.3251 137.598 94.9122 138.034 95.0351 138.717L94.4617 138.833C94.3866 138.417 94.0248 138.116 93.5401 138.116C92.8642 138.116 92.4273 138.615 92.4273 139.372C92.4273 140.13 92.8642 140.629 93.5401 140.629C94.0248 140.629 94.3797 140.362 94.4753 139.905L95.0419 140.021C94.8917 140.731 94.3183 141.147 93.5264 141.147ZM97.314 141.147C96.29 141.147 95.5664 140.403 95.5664 139.372C95.5664 138.342 96.29 137.598 97.314 137.598C98.3312 137.598 99.0685 138.342 99.0685 139.372C99.0685 140.403 98.3312 141.147 97.314 141.147ZM97.314 140.629C98.0035 140.629 98.4677 140.11 98.4677 139.372C98.4677 138.635 98.0035 138.116 97.314 138.116C96.6245 138.116 96.1603 138.635 96.1603 139.372C96.1603 140.11 96.6245 140.629 97.314 140.629ZM101.272 141.147C100.2 141.147 99.6131 140.383 99.6131 139.372C99.6131 138.362 100.2 137.598 101.265 137.598C101.723 137.598 102.173 137.823 102.392 138.144V136.259H102.972V141.093H102.392V140.594C102.235 140.908 101.777 141.147 101.272 141.147ZM101.327 140.629C102.002 140.629 102.446 140.13 102.446 139.372C102.446 138.615 102.002 138.116 101.327 138.116C100.651 138.116 100.207 138.615 100.207 139.372C100.207 140.13 100.651 140.629 101.327 140.629ZM107.024 139.215C107.024 139.297 107.017 139.42 107.01 139.482H104.293C104.334 140.178 104.771 140.635 105.392 140.635C105.918 140.635 106.28 140.39 106.382 139.96L106.928 140.089C106.758 140.758 106.184 141.147 105.392 141.147C104.362 141.147 103.713 140.349 103.713 139.372C103.713 138.396 104.341 137.598 105.379 137.598C106.396 137.598 107.024 138.328 107.024 139.215ZM104.327 138.997H106.41C106.355 138.471 105.986 138.082 105.379 138.082C104.839 138.082 104.444 138.424 104.327 138.997ZM111.684 137.652H112.278L110.476 142.335H109.882L110.38 141.045L109.035 137.652H109.663L110.674 140.287L111.684 137.652ZM114.274 141.147C113.25 141.147 112.526 140.403 112.526 139.372C112.526 138.342 113.25 137.598 114.274 137.598C115.291 137.598 116.028 138.342 116.028 139.372C116.028 140.403 115.291 141.147 114.274 141.147ZM114.274 140.629C114.964 140.629 115.428 140.11 115.428 139.372C115.428 138.635 114.964 138.116 114.274 138.116C113.585 138.116 113.12 138.635 113.12 139.372C113.12 140.11 113.585 140.629 114.274 140.629ZM119.761 137.652V141.093H119.181V140.444C118.942 140.854 118.525 141.147 118 141.147C117.283 141.147 116.771 140.663 116.771 139.932V137.652H117.351V139.823C117.351 140.287 117.645 140.622 118.13 140.622C118.771 140.622 119.181 140.069 119.181 139.161V137.652H119.761ZM123.505 141.147C122.672 141.147 122.221 140.629 122.071 140.144L122.569 139.925C122.699 140.328 122.972 140.656 123.505 140.656C123.928 140.656 124.201 140.41 124.201 140.13C124.201 139.25 122.221 139.816 122.221 138.512C122.221 137.966 122.692 137.598 123.43 137.598C124.037 137.598 124.563 137.939 124.706 138.444L124.222 138.656C124.126 138.301 123.785 138.075 123.416 138.075C123.027 138.075 122.781 138.232 122.781 138.505C122.781 139.243 124.775 138.703 124.768 140.123C124.768 140.724 124.263 141.147 123.505 141.147ZM128.591 139.215C128.591 139.297 128.584 139.42 128.577 139.482H125.86C125.901 140.178 126.338 140.635 126.959 140.635C127.485 140.635 127.847 140.39 127.949 139.96L128.495 140.089C128.324 140.758 127.751 141.147 126.959 141.147C125.928 141.147 125.28 140.349 125.28 139.372C125.28 138.396 125.908 137.598 126.945 137.598C127.963 137.598 128.591 138.328 128.591 139.215ZM125.894 138.997H127.976C127.922 138.471 127.553 138.082 126.945 138.082C126.406 138.082 126.01 138.424 125.894 138.997ZM130.588 137.598C131.421 137.598 132.001 138.089 132.001 138.888V141.093H131.427V140.506C131.229 140.902 130.779 141.147 130.281 141.147C129.591 141.147 129.12 140.724 129.12 140.13C129.12 139.468 129.659 139.106 130.758 138.997L131.427 138.922V138.854C131.427 138.383 131.093 138.082 130.588 138.082C130.117 138.082 129.782 138.362 129.734 138.826L129.195 138.724C129.298 138.041 129.864 137.598 130.588 137.598ZM130.369 140.67C131.038 140.67 131.427 140.226 131.427 139.536V139.372L130.758 139.448C130.062 139.523 129.7 139.762 129.7 140.123C129.7 140.444 129.973 140.67 130.369 140.67ZM134.958 138.219C134.829 138.164 134.665 138.137 134.515 138.137C133.968 138.137 133.525 138.662 133.525 139.782V141.093H132.944V137.652H133.525V138.348C133.723 137.912 134.173 137.598 134.596 137.598C134.74 137.598 134.876 137.618 134.992 137.659L134.958 138.219ZM136.906 141.147C135.882 141.147 135.2 140.437 135.2 139.372C135.2 138.307 135.882 137.598 136.906 137.598C137.705 137.598 138.292 138.034 138.415 138.717L137.842 138.833C137.767 138.417 137.405 138.116 136.92 138.116C136.244 138.116 135.807 138.615 135.807 139.372C135.807 140.13 136.244 140.629 136.92 140.629C137.405 140.629 137.76 140.362 137.855 139.905L138.422 140.021C138.272 140.731 137.698 141.147 136.906 141.147ZM139.144 141.093V136.259H139.725V138.328C139.977 137.836 140.394 137.598 140.899 137.598C141.677 137.598 142.189 138.082 142.189 138.826V141.093H141.609V138.936C141.609 138.43 141.295 138.123 140.769 138.123C140.134 138.123 139.725 138.697 139.725 139.618V141.093H139.144ZM146.244 139.215C146.244 139.297 146.237 139.42 146.23 139.482H143.513C143.554 140.178 143.991 140.635 144.612 140.635C145.138 140.635 145.5 140.39 145.602 139.96L146.148 140.089C145.978 140.758 145.404 141.147 144.612 141.147C143.582 141.147 142.933 140.349 142.933 139.372C142.933 138.396 143.561 137.598 144.599 137.598C145.616 137.598 146.244 138.328 146.244 139.215ZM143.547 138.997H145.63C145.575 138.471 145.206 138.082 144.599 138.082C144.059 138.082 143.664 138.424 143.547 138.997ZM148.452 141.147C147.38 141.147 146.793 140.383 146.793 139.372C146.793 138.362 147.38 137.598 148.445 137.598C148.903 137.598 149.353 137.823 149.572 138.144V136.259H150.152V141.093H149.572V140.594C149.415 140.908 148.957 141.147 148.452 141.147ZM148.507 140.629C149.182 140.629 149.626 140.13 149.626 139.372C149.626 138.615 149.182 138.116 148.507 138.116C147.831 138.116 147.387 138.615 147.387 139.372C147.387 140.13 147.831 140.629 148.507 140.629ZM153.079 141.093V138.164H152.492V137.652H153.079V137.331C153.079 136.574 153.509 136.171 154.096 136.171C154.253 136.171 154.417 136.184 154.56 136.225L154.533 136.744C154.41 136.696 154.287 136.676 154.171 136.676C153.864 136.676 153.659 136.915 153.659 137.283V137.652H154.54V138.164H153.659V141.093H153.079ZM156.561 141.147C155.537 141.147 154.813 140.403 154.813 139.372C154.813 138.342 155.537 137.598 156.561 137.598C157.578 137.598 158.315 138.342 158.315 139.372C158.315 140.403 157.578 141.147 156.561 141.147ZM156.561 140.629C157.25 140.629 157.714 140.11 157.714 139.372C157.714 138.635 157.25 138.116 156.561 138.116C155.871 138.116 155.407 138.635 155.407 139.372C155.407 140.11 155.871 140.629 156.561 140.629ZM161.072 138.219C160.942 138.164 160.778 138.137 160.628 138.137C160.082 138.137 159.638 138.662 159.638 139.782V141.093H159.058V137.652H159.638V138.348C159.836 137.912 160.287 137.598 160.71 137.598C160.853 137.598 160.99 137.618 161.106 137.659L161.072 138.219ZM163.604 137.004C163.372 137.004 163.202 136.826 163.202 136.601C163.202 136.369 163.372 136.191 163.604 136.191C163.843 136.191 164.021 136.369 164.021 136.601C164.021 136.826 163.843 137.004 163.604 137.004ZM163.318 141.093V137.652H163.898V141.093H163.318ZM165.991 141.147C165.159 141.147 164.708 140.629 164.558 140.144L165.056 139.925C165.186 140.328 165.459 140.656 165.991 140.656C166.415 140.656 166.688 140.41 166.688 140.13C166.688 139.25 164.708 139.816 164.708 138.512C164.708 137.966 165.179 137.598 165.916 137.598C166.524 137.598 167.05 137.939 167.193 138.444L166.708 138.656C166.613 138.301 166.271 138.075 165.903 138.075C165.514 138.075 165.268 138.232 165.268 138.505C165.268 139.243 167.261 138.703 167.254 140.123C167.254 140.724 166.749 141.147 165.991 141.147ZM70.6074 149.147C69.5834 149.147 68.8597 148.403 68.8597 147.372C68.8597 146.342 69.5834 145.598 70.6074 145.598C71.6245 145.598 72.3618 146.342 72.3618 147.372C72.3618 148.403 71.6245 149.147 70.6074 149.147ZM70.6074 148.629C71.2969 148.629 71.7611 148.11 71.7611 147.372C71.7611 146.635 71.2969 146.116 70.6074 146.116C69.9179 146.116 69.4537 146.635 69.4537 147.372C69.4537 148.11 69.9179 148.629 70.6074 148.629ZM76.0945 145.652V149.093H75.5142V148.444C75.2753 148.854 74.8588 149.147 74.3332 149.147C73.6164 149.147 73.1044 148.663 73.1044 147.932V145.652H73.6846V147.823C73.6846 148.287 73.9782 148.622 74.4629 148.622C75.1046 148.622 75.5142 148.069 75.5142 147.161V145.652H76.0945ZM78.8673 149.065C78.6966 149.127 78.5123 149.147 78.328 149.147C77.7409 149.147 77.3108 148.82 77.3108 148.062V146.164H76.6691V145.652H77.3108V144.608H77.891V145.652H78.8126V146.164H77.891V148.082C77.891 148.444 78.0958 148.622 78.3962 148.622C78.5328 148.622 78.6898 148.601 78.8263 148.533L78.8673 149.065ZM80.7447 149.147C79.9119 149.147 79.4613 148.629 79.3111 148.144L79.8095 147.925C79.9392 148.328 80.2123 148.656 80.7447 148.656C81.168 148.656 81.4411 148.41 81.4411 148.13C81.4411 147.25 79.4613 147.816 79.4613 146.512C79.4613 145.966 79.9324 145.598 80.6697 145.598C81.2772 145.598 81.8029 145.939 81.9462 146.444L81.4615 146.656C81.366 146.301 81.0246 146.075 80.656 146.075C80.2669 146.075 80.0211 146.232 80.0211 146.505C80.0211 147.243 82.0145 146.703 82.0077 148.123C82.0077 148.724 81.5025 149.147 80.7447 149.147ZM83.0311 145.004C82.799 145.004 82.6283 144.826 82.6283 144.601C82.6283 144.369 82.799 144.191 83.0311 144.191C83.27 144.191 83.4475 144.369 83.4475 144.601C83.4475 144.826 83.27 145.004 83.0311 145.004ZM82.7444 149.093V145.652H83.3246V149.093H82.7444ZM85.7253 149.147C84.6535 149.147 84.0664 148.383 84.0664 147.372C84.0664 146.362 84.6535 145.598 85.7185 145.598C86.1758 145.598 86.6264 145.823 86.8449 146.144V144.259H87.4251V149.093H86.8449V148.594C86.6878 148.908 86.2305 149.147 85.7253 149.147ZM85.7799 148.629C86.4557 148.629 86.8995 148.13 86.8995 147.372C86.8995 146.615 86.4557 146.116 85.7799 146.116C85.1041 146.116 84.6603 146.615 84.6603 147.372C84.6603 148.13 85.1041 148.629 85.7799 148.629ZM91.4773 147.215C91.4773 147.297 91.4705 147.42 91.4637 147.482H88.7467C88.7876 148.178 89.2245 148.635 89.8458 148.635C90.3714 148.635 90.7332 148.39 90.8356 147.96L91.3818 148.089C91.2111 148.758 90.6377 149.147 89.8458 149.147C88.8149 149.147 88.1664 148.349 88.1664 147.372C88.1664 146.396 88.7945 145.598 89.8321 145.598C90.8493 145.598 91.4773 146.328 91.4773 147.215ZM88.7808 146.997H90.8629C90.8083 146.471 90.4397 146.082 89.8321 146.082C89.2928 146.082 88.8969 146.424 88.7808 146.997ZM95.0248 149.147C94.1919 149.147 93.7413 148.629 93.5912 148.144L94.0895 147.925C94.2192 148.328 94.4923 148.656 95.0248 148.656C95.448 148.656 95.7211 148.41 95.7211 148.13C95.7211 147.25 93.7413 147.816 93.7413 146.512C93.7413 145.966 94.2124 145.598 94.9497 145.598C95.5572 145.598 96.0829 145.939 96.2262 146.444L95.7416 146.656C95.646 146.301 95.3046 146.075 94.936 146.075C94.5469 146.075 94.3011 146.232 94.3011 146.505C94.3011 147.243 96.2945 146.703 96.2877 148.123C96.2877 148.724 95.7825 149.147 95.0248 149.147ZM98.8073 149.065C98.6366 149.127 98.4523 149.147 98.268 149.147C97.6809 149.147 97.2508 148.82 97.2508 148.062V146.164H96.6091V145.652H97.2508V144.608H97.831V145.652H98.7526V146.164H97.831V148.082C97.831 148.444 98.0358 148.622 98.3362 148.622C98.4728 148.622 98.6298 148.601 98.7663 148.533L98.8073 149.065ZM100.708 145.598C101.541 145.598 102.121 146.089 102.121 146.888V149.093H101.547V148.506C101.349 148.902 100.899 149.147 100.401 149.147C99.7111 149.147 99.2401 148.724 99.2401 148.13C99.2401 147.468 99.7794 147.106 100.878 146.997L101.547 146.922V146.854C101.547 146.383 101.213 146.082 100.708 146.082C100.237 146.082 99.9022 146.362 99.8545 146.826L99.3152 146.724C99.4176 146.041 99.9842 145.598 100.708 145.598ZM100.489 148.67C101.158 148.67 101.547 148.226 101.547 147.536V147.372L100.878 147.448C100.182 147.523 99.8203 147.762 99.8203 148.123C99.8203 148.444 100.093 148.67 100.489 148.67ZM104.874 149.065C104.703 149.127 104.519 149.147 104.335 149.147C103.748 149.147 103.317 148.82 103.317 148.062V146.164H102.676V145.652H103.317V144.608H103.898V145.652H104.819V146.164H103.898V148.082C103.898 148.444 104.103 148.622 104.403 148.622C104.539 148.622 104.696 148.601 104.833 148.533L104.874 149.065ZM108.577 147.215C108.577 147.297 108.571 147.42 108.564 147.482H105.847C105.888 148.178 106.325 148.635 106.946 148.635C107.471 148.635 107.833 148.39 107.936 147.96L108.482 148.089C108.311 148.758 107.738 149.147 106.946 149.147C105.915 149.147 105.266 148.349 105.266 147.372C105.266 146.396 105.894 145.598 106.932 145.598C107.949 145.598 108.577 146.328 108.577 147.215ZM105.881 146.997H107.963C107.908 146.471 107.54 146.082 106.932 146.082C106.393 146.082 105.997 146.424 105.881 146.997ZM112.043 149.141C111.428 149.202 110.971 148.97 110.971 148.253V144.259H111.551V148.212C111.551 148.588 111.729 148.642 112.016 148.622L112.043 149.141ZM113.004 145.004C112.772 145.004 112.602 144.826 112.602 144.601C112.602 144.369 112.772 144.191 113.004 144.191C113.243 144.191 113.421 144.369 113.421 144.601C113.421 144.826 113.243 145.004 113.004 145.004ZM112.718 149.093V145.652H113.298V149.093H112.718ZM114.238 149.093V145.652H114.818V146.301C114.989 145.891 115.33 145.598 115.856 145.598C116.415 145.598 116.852 145.857 116.975 146.321C117.16 145.912 117.569 145.598 118.088 145.598C118.825 145.598 119.289 146.062 119.289 146.785V149.093H118.709V146.901C118.709 146.43 118.443 146.11 117.958 146.11C117.371 146.11 117.05 146.635 117.05 147.366V149.093H116.47V146.901C116.47 146.43 116.204 146.11 115.726 146.11C115.139 146.11 114.818 146.635 114.818 147.366V149.093H114.238ZM120.518 145.004C120.286 145.004 120.115 144.826 120.115 144.601C120.115 144.369 120.286 144.191 120.518 144.191C120.757 144.191 120.934 144.369 120.934 144.601C120.934 144.826 120.757 145.004 120.518 145.004ZM120.231 149.093V145.652H120.811V149.093H120.231ZM123.581 149.065C123.41 149.127 123.226 149.147 123.041 149.147C122.454 149.147 122.024 148.82 122.024 148.062V146.164H121.382V145.652H122.024V144.608H122.604V145.652H123.526V146.164H122.604V148.082C122.604 148.444 122.809 148.622 123.11 148.622C123.246 148.622 123.403 148.601 123.54 148.533L123.581 149.065ZM125.458 149.147C124.625 149.147 124.175 148.629 124.024 148.144L124.523 147.925C124.653 148.328 124.926 148.656 125.458 148.656C125.881 148.656 126.154 148.41 126.154 148.13C126.154 147.25 124.175 147.816 124.175 146.512C124.175 145.966 124.646 145.598 125.383 145.598C125.991 145.598 126.516 145.939 126.66 146.444L126.175 146.656C126.079 146.301 125.738 146.075 125.369 146.075C124.98 146.075 124.734 146.232 124.734 146.505C124.734 147.243 126.728 146.703 126.721 148.123C126.721 148.724 126.216 149.147 125.458 149.147ZM127.044 149.816L127.44 148.383H128.219L127.454 149.816H127.044ZM132.008 145.598C132.841 145.598 133.421 146.089 133.421 146.888V149.093H132.847V148.506C132.649 148.902 132.199 149.147 131.701 149.147C131.011 149.147 130.54 148.724 130.54 148.13C130.54 147.468 131.079 147.106 132.178 146.997L132.847 146.922V146.854C132.847 146.383 132.513 146.082 132.008 146.082C131.537 146.082 131.202 146.362 131.154 146.826L130.615 146.724C130.718 146.041 131.284 145.598 132.008 145.598ZM131.789 148.67C132.458 148.67 132.847 148.226 132.847 147.536V147.372L132.178 147.448C131.482 147.523 131.12 147.762 131.12 148.123C131.12 148.444 131.393 148.67 131.789 148.67ZM135.518 149.147C134.685 149.147 134.235 148.629 134.084 148.144L134.583 147.925C134.713 148.328 134.986 148.656 135.518 148.656C135.941 148.656 136.214 148.41 136.214 148.13C136.214 147.25 134.235 147.816 134.235 146.512C134.235 145.966 134.706 145.598 135.443 145.598C136.051 145.598 136.576 145.939 136.72 146.444L136.235 146.656C136.139 146.301 135.798 146.075 135.429 146.075C135.04 146.075 134.794 146.232 134.794 146.505C134.794 147.243 136.788 146.703 136.781 148.123C136.781 148.724 136.276 149.147 135.518 149.147ZM139.164 150.335V145.652H139.745V146.15C139.929 145.836 140.38 145.598 140.878 145.598C141.936 145.598 142.523 146.362 142.523 147.372C142.523 148.383 141.922 149.147 140.864 149.147C140.427 149.147 139.977 148.929 139.745 148.615V150.335H139.164ZM140.81 148.629C141.492 148.629 141.936 148.13 141.936 147.372C141.936 146.615 141.492 146.116 140.81 146.116C140.141 146.116 139.697 146.615 139.697 147.372C139.697 148.13 140.141 148.629 140.81 148.629ZM146.377 147.215C146.377 147.297 146.371 147.42 146.364 147.482H143.647C143.688 148.178 144.125 148.635 144.746 148.635C145.271 148.635 145.633 148.39 145.736 147.96L146.282 148.089C146.111 148.758 145.538 149.147 144.746 149.147C143.715 149.147 143.066 148.349 143.066 147.372C143.066 146.396 143.694 145.598 144.732 145.598C145.749 145.598 146.377 146.328 146.377 147.215ZM143.681 146.997H145.763C145.708 146.471 145.34 146.082 144.732 146.082C144.193 146.082 143.797 146.424 143.681 146.997ZM149.138 146.219C149.009 146.164 148.845 146.137 148.695 146.137C148.148 146.137 147.705 146.662 147.705 147.782V149.093H147.124V145.652H147.705V146.348C147.903 145.912 148.353 145.598 148.776 145.598C148.92 145.598 149.056 145.618 149.172 145.659L149.138 146.219ZM153.214 149.065C153.043 149.127 152.859 149.147 152.675 149.147C152.088 149.147 151.657 148.82 151.657 148.062V146.164H151.016V145.652H151.657V144.608H152.238V145.652H153.159V146.164H152.238V148.082C152.238 148.444 152.443 148.622 152.743 148.622C152.879 148.622 153.036 148.601 153.173 148.533L153.214 149.065ZM153.951 149.093V144.259H154.531V146.328C154.784 145.836 155.2 145.598 155.705 145.598C156.484 145.598 156.996 146.082 156.996 146.826V149.093H156.415V146.936C156.415 146.43 156.101 146.123 155.576 146.123C154.941 146.123 154.531 146.697 154.531 147.618V149.093H153.951ZM161.051 147.215C161.051 147.297 161.044 147.42 161.037 147.482H158.32C158.361 148.178 158.798 148.635 159.419 148.635C159.945 148.635 160.307 148.39 160.409 147.96L160.955 148.089C160.784 148.758 160.211 149.147 159.419 149.147C158.388 149.147 157.74 148.349 157.74 147.372C157.74 146.396 158.368 145.598 159.405 145.598C160.423 145.598 161.051 146.328 161.051 147.215ZM158.354 146.997H160.436C160.382 146.471 160.013 146.082 159.405 146.082C158.866 146.082 158.47 146.424 158.354 146.997ZM70.7576 157.147C70.2524 157.147 69.795 156.908 69.638 156.594V157.093H69.0577V152.259H69.638V154.144C69.8564 153.823 70.307 153.598 70.7644 153.598C71.8293 153.598 72.4164 154.362 72.4164 155.372C72.4164 156.383 71.8293 157.147 70.7576 157.147ZM70.7029 156.629C71.3788 156.629 71.8225 156.13 71.8225 155.372C71.8225 154.615 71.3788 154.116 70.7029 154.116C70.0271 154.116 69.5902 154.615 69.5902 155.372C69.5902 156.13 70.0271 156.629 70.7029 156.629ZM76.1478 153.652V157.093H75.5675V156.444C75.3286 156.854 74.9122 157.147 74.3865 157.147C73.6697 157.147 73.1577 156.663 73.1577 155.932V153.652H73.738V155.823C73.738 156.287 74.0315 156.622 74.5162 156.622C75.1579 156.622 75.5675 156.069 75.5675 155.161V153.652H76.1478ZM78.2447 157.147C77.4119 157.147 76.9613 156.629 76.8111 156.144L77.3095 155.925C77.4392 156.328 77.7123 156.656 78.2447 156.656C78.668 156.656 78.9411 156.41 78.9411 156.13C78.9411 155.25 76.9613 155.816 76.9613 154.512C76.9613 153.966 77.4324 153.598 78.1697 153.598C78.7772 153.598 79.3029 153.939 79.4462 154.444L78.9615 154.656C78.866 154.301 78.5246 154.075 78.156 154.075C77.7669 154.075 77.5211 154.232 77.5211 154.505C77.5211 155.243 79.5145 154.703 79.5077 156.123C79.5077 156.724 79.0025 157.147 78.2447 157.147ZM80.5311 153.004C80.299 153.004 80.1283 152.826 80.1283 152.601C80.1283 152.369 80.299 152.191 80.5311 152.191C80.77 152.191 80.9475 152.369 80.9475 152.601C80.9475 152.826 80.77 153.004 80.5311 153.004ZM80.2444 157.093V153.652H80.8246V157.093H80.2444ZM81.7644 157.093V153.652H82.3446V154.301C82.5836 153.891 83 153.598 83.5257 153.598C84.2425 153.598 84.7545 154.082 84.7545 154.813V157.093H84.1742V154.922C84.1742 154.458 83.8806 154.123 83.396 154.123C82.7542 154.123 82.3446 154.676 82.3446 155.584V157.093H81.7644ZM88.8107 155.215C88.8107 155.297 88.8038 155.42 88.797 155.482H86.08C86.121 156.178 86.5579 156.635 87.1791 156.635C87.7047 156.635 88.0666 156.39 88.169 155.96L88.7151 156.089C88.5444 156.758 87.971 157.147 87.1791 157.147C86.1483 157.147 85.4997 156.349 85.4997 155.372C85.4997 154.396 86.1278 153.598 87.1654 153.598C88.1826 153.598 88.8107 154.328 88.8107 155.215ZM86.1141 154.997H88.1963C88.1417 154.471 87.773 154.082 87.1654 154.082C86.6261 154.082 86.2302 154.424 86.1141 154.997ZM90.6781 157.147C89.8452 157.147 89.3947 156.629 89.2445 156.144L89.7428 155.925C89.8725 156.328 90.1456 156.656 90.6781 156.656C91.1013 156.656 91.3744 156.41 91.3744 156.13C91.3744 155.25 89.3947 155.816 89.3947 154.512C89.3947 153.966 89.8657 153.598 90.603 153.598C91.2106 153.598 91.7362 153.939 91.8796 154.444L91.3949 154.656C91.2993 154.301 90.958 154.075 90.5893 154.075C90.2002 154.075 89.9545 154.232 89.9545 154.505C89.9545 155.243 91.9478 154.703 91.941 156.123C91.941 156.724 91.4358 157.147 90.6781 157.147ZM93.8314 157.147C92.9986 157.147 92.548 156.629 92.3978 156.144L92.8962 155.925C93.0259 156.328 93.2989 156.656 93.8314 156.656C94.2547 156.656 94.5277 156.41 94.5277 156.13C94.5277 155.25 92.548 155.816 92.548 154.512C92.548 153.966 93.019 153.598 93.7563 153.598C94.3639 153.598 94.8896 153.939 95.0329 154.444L94.5482 154.656C94.4526 154.301 94.1113 154.075 93.7427 154.075C93.3536 154.075 93.1078 154.232 93.1078 154.505C93.1078 155.243 95.1012 154.703 95.0944 156.123C95.0944 156.724 94.5892 157.147 93.8314 157.147ZM98.7611 153.598C99.594 153.598 100.174 154.089 100.174 154.888V157.093H99.6008V156.506C99.4028 156.902 98.9523 157.147 98.4539 157.147C97.7644 157.147 97.2934 156.724 97.2934 156.13C97.2934 155.468 97.8327 155.106 98.9318 154.997L99.6008 154.922V154.854C99.6008 154.383 99.2663 154.082 98.7611 154.082C98.2901 154.082 97.9556 154.362 97.9078 154.826L97.3685 154.724C97.4709 154.041 98.0375 153.598 98.7611 153.598ZM98.5427 156.67C99.2117 156.67 99.6008 156.226 99.6008 155.536V155.372L98.9318 155.448C98.2355 155.523 97.8737 155.762 97.8737 156.123C97.8737 156.444 98.1467 156.67 98.5427 156.67ZM102.579 157.147C101.507 157.147 100.92 156.383 100.92 155.372C100.92 154.362 101.507 153.598 102.572 153.598C103.029 153.598 103.48 153.823 103.698 154.144V152.259H104.278V157.093H103.698V156.594C103.541 156.908 103.084 157.147 102.579 157.147ZM102.633 156.629C103.309 156.629 103.753 156.13 103.753 155.372C103.753 154.615 103.309 154.116 102.633 154.116C101.957 154.116 101.514 154.615 101.514 155.372C101.514 156.13 101.957 156.629 102.633 156.629ZM106.679 157.147C105.607 157.147 105.02 156.383 105.02 155.372C105.02 154.362 105.607 153.598 106.672 153.598C107.129 153.598 107.58 153.823 107.798 154.144V152.259H108.378V157.093H107.798V156.594C107.641 156.908 107.184 157.147 106.679 157.147ZM106.733 156.629C107.409 156.629 107.853 156.13 107.853 155.372C107.853 154.615 107.409 154.116 106.733 154.116C106.057 154.116 105.614 154.615 105.614 155.372C105.614 156.13 106.057 156.629 106.733 156.629ZM111.332 154.219C111.202 154.164 111.038 154.137 110.888 154.137C110.342 154.137 109.898 154.662 109.898 155.782V157.093H109.318V153.652H109.898V154.348C110.096 153.912 110.547 153.598 110.97 153.598C111.113 153.598 111.25 153.618 111.366 153.659L111.332 154.219ZM114.884 155.215C114.884 155.297 114.877 155.42 114.87 155.482H112.153C112.194 156.178 112.631 156.635 113.252 156.635C113.778 156.635 114.14 156.39 114.242 155.96L114.788 156.089C114.618 156.758 114.044 157.147 113.252 157.147C112.222 157.147 111.573 156.349 111.573 155.372C111.573 154.396 112.201 153.598 113.239 153.598C114.256 153.598 114.884 154.328 114.884 155.215ZM112.187 154.997H114.27C114.215 154.471 113.846 154.082 113.239 154.082C112.699 154.082 112.304 154.424 112.187 154.997ZM116.751 157.147C115.919 157.147 115.468 156.629 115.318 156.144L115.816 155.925C115.946 156.328 116.219 156.656 116.751 156.656C117.175 156.656 117.448 156.41 117.448 156.13C117.448 155.25 115.468 155.816 115.468 154.512C115.468 153.966 115.939 153.598 116.676 153.598C117.284 153.598 117.81 153.939 117.953 154.444L117.468 154.656C117.373 154.301 117.031 154.075 116.663 154.075C116.274 154.075 116.028 154.232 116.028 154.505C116.028 155.243 118.021 154.703 118.014 156.123C118.014 156.724 117.509 157.147 116.751 157.147ZM119.905 157.147C119.072 157.147 118.621 156.629 118.471 156.144L118.969 155.925C119.099 156.328 119.372 156.656 119.905 156.656C120.328 156.656 120.601 156.41 120.601 156.13C120.601 155.25 118.621 155.816 118.621 154.512C118.621 153.966 119.092 153.598 119.83 153.598C120.437 153.598 120.963 153.939 121.106 154.444L120.622 154.656C120.526 154.301 120.185 154.075 119.816 154.075C119.427 154.075 119.181 154.232 119.181 154.505C119.181 155.243 121.175 154.703 121.168 156.123C121.168 156.724 120.663 157.147 119.905 157.147ZM125.06 157.147C124.036 157.147 123.353 156.437 123.353 155.372C123.353 154.307 124.036 153.598 125.06 153.598C125.858 153.598 126.446 154.034 126.568 154.717L125.995 154.833C125.92 154.417 125.558 154.116 125.073 154.116C124.398 154.116 123.961 154.615 123.961 155.372C123.961 156.13 124.398 156.629 125.073 156.629C125.558 156.629 125.913 156.362 126.009 155.905L126.575 156.021C126.425 156.731 125.852 157.147 125.06 157.147ZM128.847 157.147C127.823 157.147 127.1 156.403 127.1 155.372C127.1 154.342 127.823 153.598 128.847 153.598C129.865 153.598 130.602 154.342 130.602 155.372C130.602 156.403 129.865 157.147 128.847 157.147ZM128.847 156.629C129.537 156.629 130.001 156.11 130.001 155.372C130.001 154.635 129.537 154.116 128.847 154.116C128.158 154.116 127.694 154.635 127.694 155.372C127.694 156.11 128.158 156.629 128.847 156.629ZM131.344 157.093V153.652H131.925V154.301C132.164 153.891 132.58 153.598 133.106 153.598C133.822 153.598 134.334 154.082 134.334 154.813V157.093H133.754V154.922C133.754 154.458 133.461 154.123 132.976 154.123C132.334 154.123 131.925 154.676 131.925 155.584V157.093H131.344ZM135.519 157.093V154.164H134.932V153.652H135.519V153.331C135.519 152.574 135.949 152.171 136.536 152.171C136.693 152.171 136.857 152.184 137 152.225L136.973 152.744C136.85 152.696 136.727 152.676 136.611 152.676C136.304 152.676 136.099 152.915 136.099 153.283V153.652H136.98V154.164H136.099V157.093H135.519ZM137.964 153.004C137.732 153.004 137.562 152.826 137.562 152.601C137.562 152.369 137.732 152.191 137.964 152.191C138.203 152.191 138.381 152.369 138.381 152.601C138.381 152.826 138.203 153.004 137.964 153.004ZM137.678 157.093V153.652H138.258V157.093H137.678ZM141.212 154.219C141.082 154.164 140.918 154.137 140.768 154.137C140.222 154.137 139.778 154.662 139.778 155.782V157.093H139.198V153.652H139.778V154.348C139.976 153.912 140.427 153.598 140.85 153.598C140.993 153.598 141.13 153.618 141.246 153.659L141.212 154.219ZM141.811 157.093V153.652H142.391V154.301C142.562 153.891 142.903 153.598 143.429 153.598C143.989 153.598 144.426 153.857 144.549 154.321C144.733 153.912 145.142 153.598 145.661 153.598C146.399 153.598 146.863 154.062 146.863 154.785V157.093H146.283V154.901C146.283 154.43 146.016 154.11 145.532 154.11C144.944 154.11 144.624 154.635 144.624 155.366V157.093H144.043V154.901C144.043 154.43 143.777 154.11 143.299 154.11C142.712 154.11 142.391 154.635 142.391 155.366V157.093H141.811ZM150.917 155.215C150.917 155.297 150.911 155.42 150.904 155.482H148.187C148.228 156.178 148.665 156.635 149.286 156.635C149.811 156.635 150.173 156.39 150.276 155.96L150.822 156.089C150.651 156.758 150.078 157.147 149.286 157.147C148.255 157.147 147.606 156.349 147.606 155.372C147.606 154.396 148.234 153.598 149.272 153.598C150.289 153.598 150.917 154.328 150.917 155.215ZM148.221 154.997H150.303C150.248 154.471 149.88 154.082 149.272 154.082C148.733 154.082 148.337 154.424 148.221 154.997ZM153.125 157.147C152.053 157.147 151.466 156.383 151.466 155.372C151.466 154.362 152.053 153.598 153.118 153.598C153.576 153.598 154.026 153.823 154.245 154.144V152.259H154.825V157.093H154.245V156.594C154.088 156.908 153.63 157.147 153.125 157.147ZM153.18 156.629C153.856 156.629 154.299 156.13 154.299 155.372C154.299 154.615 153.856 154.116 153.18 154.116C152.504 154.116 152.06 154.615 152.06 155.372C152.06 156.13 152.504 156.629 153.18 156.629ZM159.111 157.147C158.606 157.147 158.148 156.908 157.991 156.594V157.093H157.411V152.259H157.991V154.144C158.21 153.823 158.66 153.598 159.118 153.598C160.183 153.598 160.77 154.362 160.77 155.372C160.77 156.383 160.183 157.147 159.111 157.147ZM159.056 156.629C159.732 156.629 160.176 156.13 160.176 155.372C160.176 154.615 159.732 154.116 159.056 154.116C158.38 154.116 157.944 154.615 157.944 155.372C157.944 156.13 158.38 156.629 159.056 156.629ZM163.664 153.652H164.258L162.456 158.335H161.862L162.36 157.045L161.015 153.652H161.643L162.654 156.287L163.664 153.652ZM168.731 153.652H169.325L167.523 158.335H166.929L167.427 157.045L166.082 153.652H166.71L167.72 156.287L168.731 153.652ZM171.321 157.147C170.297 157.147 169.573 156.403 169.573 155.372C169.573 154.342 170.297 153.598 171.321 153.598C172.338 153.598 173.075 154.342 173.075 155.372C173.075 156.403 172.338 157.147 171.321 157.147ZM171.321 156.629C172.01 156.629 172.474 156.11 172.474 155.372C172.474 154.635 172.01 154.116 171.321 154.116C170.631 154.116 170.167 154.635 170.167 155.372C170.167 156.11 170.631 156.629 171.321 156.629ZM176.808 153.652V157.093H176.228V156.444C175.989 156.854 175.572 157.147 175.047 157.147C174.33 157.147 173.818 156.663 173.818 155.932V153.652H174.398V155.823C174.398 156.287 174.692 156.622 175.176 156.622C175.818 156.622 176.228 156.069 176.228 155.161V153.652H176.808ZM178.167 157.147C177.922 157.147 177.751 156.977 177.751 156.738C177.751 156.506 177.922 156.328 178.167 156.328C178.4 156.328 178.584 156.506 178.584 156.738C178.584 156.977 178.4 157.147 178.167 157.147Z" fill="black"/>
<g clip-path="url(#clip1_943_9707)">
<path d="M59.2108 135.822C56.8608 135.822 54.9553 137.728 54.9553 140.078C54.9553 142.428 56.8608 144.333 59.2108 144.333C61.5609 144.333 63.4664 142.428 63.4664 140.078C63.4664 137.728 61.5609 135.822 59.2108 135.822ZM58.9069 138.026C58.9069 137.984 58.9411 137.95 58.9829 137.95H59.4388C59.4806 137.95 59.5148 137.984 59.5148 138.026V140.61C59.5148 140.652 59.4806 140.686 59.4388 140.686H58.9829C58.9411 140.686 58.9069 140.652 58.9069 140.61V138.026ZM59.2108 142.206C59.0915 142.203 58.9779 142.154 58.8944 142.069C58.8109 141.984 58.7641 141.869 58.7641 141.75C58.7641 141.63 58.8109 141.516 58.8944 141.43C58.9779 141.345 59.0915 141.296 59.2108 141.294C59.3302 141.296 59.4438 141.345 59.5273 141.43C59.6108 141.516 59.6576 141.63 59.6576 141.75C59.6576 141.869 59.6108 141.984 59.5273 142.069C59.4438 142.154 59.3302 142.203 59.2108 142.206Z" fill="#F05656"/>
</g>
<path d="M53.8666 53.8799L51.7332 56.0132L53.8666 58.1465" stroke="black" stroke-width="0.853333" stroke-linecap="round" stroke-linejoin="round"/>
<path d="M52.3732 56.0137H57.9199" stroke="black" stroke-width="0.853333" stroke-linecap="round" stroke-linejoin="round"/>
<path d="M66.2282 61.5887C64.3167 61.5887 62.7056 60.2917 62.5281 58.544L64.4123 57.9842C64.5351 59.0492 65.368 59.7592 66.3101 59.7592C67.1702 59.7592 67.73 59.3496 67.73 58.7488C67.73 56.9466 62.8285 58.0115 62.8285 54.5026C62.8285 52.9325 64.3303 51.8129 66.2008 51.8129C68.044 51.8129 69.5323 52.796 69.8599 54.2569L67.9348 55.0624C67.7437 54.2023 67.102 53.6425 66.2008 53.6425C65.4499 53.6425 64.9857 53.9565 64.9857 54.489C64.9857 56.0045 69.9009 54.7894 69.9009 58.6942C69.9009 60.4282 68.4263 61.5887 66.2282 61.5887ZM77.6799 57.8614C77.6799 58.1344 77.6662 58.4621 77.6526 58.6123H72.7101C72.9012 59.4588 73.4747 59.923 74.3212 59.923C75.0038 59.923 75.509 59.609 75.6592 59.0355L77.5434 59.5407C77.1338 60.8378 75.905 61.5887 74.2666 61.5887C71.8909 61.5887 70.7303 59.7455 70.7303 58.0389C70.7303 56.3322 71.768 54.489 74.1437 54.489C76.6286 54.489 77.6799 56.3322 77.6799 57.8614ZM72.7374 57.1923H75.5363C75.468 56.496 75.0311 55.9772 74.1437 55.9772C73.42 55.9772 72.9285 56.3868 72.7374 57.1923ZM81.943 61.5341C80.2637 61.8072 78.8983 61.1655 78.8983 59.3223V51.8129H80.9054V59.0355C80.9054 59.8411 81.2604 59.8411 81.8065 59.8411L81.943 61.5341ZM89.6532 57.8614C89.6532 58.1344 89.6396 58.4621 89.6259 58.6123H84.6834C84.8746 59.4588 85.448 59.923 86.2945 59.923C86.9772 59.923 87.4823 59.609 87.6325 59.0355L89.5167 59.5407C89.1071 60.8378 87.8783 61.5887 86.2399 61.5887C83.8642 61.5887 82.7037 59.7455 82.7037 58.0389C82.7037 56.3322 83.7413 54.489 86.117 54.489C88.6019 54.489 89.6532 56.3322 89.6532 57.8614ZM84.7107 57.1923H87.5096C87.4414 56.496 87.0045 55.9772 86.117 55.9772C85.3934 55.9772 84.9019 56.3868 84.7107 57.1923ZM94.0529 61.5887C91.9776 61.5887 90.5303 60.1278 90.5303 58.0389C90.5303 55.9499 91.9776 54.489 94.0529 54.489C95.8961 54.489 97.1795 55.4174 97.398 56.9329L95.4592 57.3152C95.35 56.6326 94.8448 56.1957 94.1348 56.1957C93.1927 56.1957 92.592 56.9193 92.592 58.0389C92.592 59.1584 93.2064 59.8821 94.1348 59.8821C94.8448 59.8821 95.2954 59.4725 95.4319 58.8444L97.3843 59.2403C97.1386 60.6876 95.8688 61.5887 94.0529 61.5887ZM102.759 61.4112C102.431 61.5205 102.049 61.5887 101.639 61.5887C100.151 61.5887 99.0178 60.7968 99.0178 59.1311V56.2639H97.9255V54.5982H99.0178V52.6048H101.025V54.5982H102.691V56.2639H101.025V58.8717C101.025 59.4861 101.353 59.8411 101.844 59.8411C102.09 59.8411 102.39 59.8001 102.622 59.6773L102.759 61.4112ZM110.962 61.5887C110.183 61.5887 109.487 61.2883 109.132 60.7968V61.4795H107.125V51.8129H109.132V55.2536C109.514 54.7894 110.17 54.489 110.989 54.489C112.982 54.489 114.211 55.8816 114.211 58.0389C114.211 60.1961 112.982 61.5887 110.962 61.5887ZM110.634 59.8821C111.603 59.8821 112.245 59.1448 112.245 58.0389C112.245 56.9329 111.603 56.1957 110.634 56.1957C109.651 56.1957 109.009 56.9329 109.009 58.0389C109.009 59.1448 109.651 59.8821 110.634 59.8821ZM118.095 54.489C119.965 54.489 121.235 55.4584 121.235 57.3971V61.4795H119.296V60.6057C118.9 61.2064 118.122 61.5887 117.357 61.5887C116.019 61.5887 115.077 60.6876 115.077 59.5407C115.077 58.1754 116.074 57.4381 118.054 57.2333L119.296 57.1104V57.0695C119.296 56.3868 118.832 55.9772 118.095 55.9772C117.439 55.9772 116.961 56.3731 116.893 57.0422L115.146 56.7145C115.364 55.3628 116.62 54.489 118.095 54.489ZM117.849 60.1551C118.75 60.1551 119.283 59.4315 119.296 58.6259V58.6123V58.5713V58.5167L118.013 58.6669C117.33 58.7352 116.989 59.0765 116.989 59.4725C116.989 59.8547 117.289 60.1551 117.849 60.1551ZM122.792 61.4795V54.5982H124.799V55.513C125.208 54.9122 125.959 54.489 126.901 54.489C128.417 54.489 129.427 55.472 129.427 56.9875V61.4795H127.434V57.52C127.434 56.7691 126.97 56.2639 126.246 56.2639C125.29 56.2639 124.799 57.0422 124.799 58.4621V61.4795H122.792ZM135.62 61.4795L133.75 58.6396L132.999 59.3905V61.4795H130.978V51.8129H132.999V56.851L135.293 54.5982H137.805L135.088 57.3016L138.01 61.4795H135.62ZM66.8016 77.5887C66.0234 77.5887 65.327 77.2883 64.972 76.7968V77.4795H62.965V67.8129H64.972V71.2536C65.3543 70.7894 66.0097 70.489 66.8289 70.489C68.8223 70.489 70.0511 71.8816 70.0511 74.0389C70.0511 76.1961 68.8223 77.5887 66.8016 77.5887ZM66.4739 75.8821C67.4433 75.8821 68.085 75.1448 68.085 74.0389C68.085 72.9329 67.4433 72.1957 66.4739 72.1957C65.4909 72.1957 64.8492 72.9329 64.8492 74.0389C64.8492 75.1448 65.4909 75.8821 66.4739 75.8821ZM75.9005 72.5233C75.6684 72.4141 75.3407 72.3595 75.0267 72.3595C74.1255 72.3595 73.2654 73.0422 73.2654 74.9946V77.4795H71.2583V70.5982H73.2654V71.7861C73.5794 71.0488 74.4669 70.489 75.2861 70.489C75.5182 70.489 75.8322 70.5299 76.0234 70.5982L75.9005 72.5233ZM79.4814 70.489C81.3519 70.489 82.6216 71.4584 82.6216 73.3971V77.4795H80.6829V76.6057C80.2869 77.2064 79.5087 77.5887 78.7441 77.5887C77.4061 77.5887 76.464 76.6876 76.464 75.5407C76.464 74.1754 77.4607 73.4381 79.4404 73.2333L80.6829 73.1104V73.0695C80.6829 72.3868 80.2187 71.9772 79.4814 71.9772C78.826 71.9772 78.3482 72.3731 78.2799 73.0422L76.5323 72.7145C76.7507 71.3628 78.0068 70.489 79.4814 70.489ZM79.2356 76.1551C80.1367 76.1551 80.6692 75.4315 80.6829 74.6259V74.6123V74.5713V74.5167L79.3995 74.6669C78.7168 74.7352 78.3755 75.0765 78.3755 75.4725C78.3755 75.8547 78.6758 76.1551 79.2356 76.1551ZM84.1783 77.4795V70.5982H86.1854V71.513C86.595 70.9122 87.3459 70.489 88.288 70.489C89.8035 70.489 90.8139 71.472 90.8139 72.9875V77.4795H88.8205V73.52C88.8205 72.7691 88.3563 72.2639 87.6326 72.2639C86.6769 72.2639 86.1854 73.0422 86.1854 74.4621V77.4795H84.1783ZM95.5462 77.5887C93.4709 77.5887 92.0237 76.1278 92.0237 74.0389C92.0237 71.9499 93.4709 70.489 95.5462 70.489C97.3894 70.489 98.6729 71.4174 98.8913 72.9329L96.9525 73.3152C96.8433 72.6326 96.3381 72.1957 95.6282 72.1957C94.6861 72.1957 94.0853 72.9193 94.0853 74.0389C94.0853 75.1584 94.6997 75.8821 95.6282 75.8821C96.3381 75.8821 96.7887 75.4725 96.9252 74.8444L98.8776 75.2403C98.6319 76.6876 97.3621 77.5887 95.5462 77.5887ZM100.112 77.4795V67.8129H102.119V71.5266C102.542 70.8849 103.293 70.489 104.208 70.489C105.764 70.489 106.775 71.472 106.775 73.0012V77.4795H104.781V73.52C104.781 72.7554 104.303 72.2639 103.566 72.2639C102.61 72.2639 102.119 73.0558 102.119 74.4758V77.4795H100.112Z" fill="#091016"/>
<rect x="50.24" y="300.92" width="139.947" height="18.7733" rx="4.26667" fill="#014C92"/>
<path d="M93.8749 313.613H92.6537L91.3865 311.409H90.5341V313.613H89.4896L89.4819 308.237H91.5555C92.6077 308.237 93.2912 308.859 93.2912 309.827C93.2912 310.434 92.9763 310.948 92.4464 311.209L93.8749 313.613ZM90.5341 309.136V310.511H91.3942C91.9318 310.511 92.239 310.257 92.239 309.827C92.239 309.397 91.9318 309.136 91.3942 309.136H90.5341ZM97.839 311.547C97.839 311.686 97.8313 311.855 97.8236 311.931H94.9513C95.0358 312.515 95.4121 312.861 95.9651 312.861C96.4182 312.861 96.7408 312.646 96.8406 312.269L97.7468 312.515C97.5318 313.245 96.856 313.675 95.9497 313.675C94.6672 313.675 93.9836 312.684 93.9836 311.678C93.9836 310.672 94.6134 309.681 95.896 309.681C97.2016 309.681 97.839 310.649 97.839 311.547ZM94.9744 311.225H96.8022C96.7561 310.764 96.4566 310.418 95.896 310.418C95.4198 310.418 95.0819 310.703 94.9744 311.225ZM100.8 313.575C100.608 313.644 100.4 313.675 100.178 313.675C99.3944 313.675 98.8107 313.252 98.8107 312.346V310.557H98.1579V309.743H98.8107V308.606H99.7784V309.743H100.754V310.557H99.7784V312.254C99.7784 312.623 99.9781 312.822 100.278 312.822C100.423 312.822 100.592 312.799 100.731 312.73L100.8 313.575ZM104 309.743H104.991L102.948 315.011H101.965L102.564 313.46L101.059 309.743H102.111L103.04 312.231L104 309.743ZM105.523 315.011V309.743H106.491V310.188C106.706 309.888 107.129 309.681 107.643 309.681C108.757 309.681 109.44 310.495 109.44 311.678C109.44 312.861 108.711 313.675 107.574 313.675C107.129 313.675 106.714 313.506 106.491 313.229V315.011H105.523ZM107.459 312.838C108.073 312.838 108.48 312.377 108.48 311.678C108.48 310.979 108.073 310.518 107.459 310.518C106.837 310.518 106.43 310.979 106.43 311.678C106.43 312.377 106.837 312.838 107.459 312.838ZM113.821 311.547C113.821 311.686 113.814 311.855 113.806 311.931H110.934C111.018 312.515 111.395 312.861 111.948 312.861C112.401 312.861 112.723 312.646 112.823 312.269L113.729 312.515C113.514 313.245 112.838 313.675 111.932 313.675C110.65 313.675 109.966 312.684 109.966 311.678C109.966 310.672 110.596 309.681 111.878 309.681C113.184 309.681 113.821 310.649 113.821 311.547ZM110.957 311.225H112.785C112.739 310.764 112.439 310.418 111.878 310.418C111.402 310.418 111.064 310.703 110.957 311.225ZM116.398 315.011V309.743H117.366V310.188C117.581 309.888 118.004 309.681 118.518 309.681C119.632 309.681 120.315 310.495 120.315 311.678C120.315 312.861 119.586 313.675 118.449 313.675C118.004 313.675 117.589 313.506 117.366 313.229V315.011H116.398ZM118.334 312.838C118.948 312.838 119.355 312.377 119.355 311.678C119.355 310.979 118.948 310.518 118.334 310.518C117.712 310.518 117.305 310.979 117.305 311.678C117.305 312.377 117.712 312.838 118.334 312.838ZM121.532 309.151C121.187 309.151 120.933 308.89 120.933 308.552C120.933 308.222 121.187 307.961 121.532 307.961C121.886 307.961 122.147 308.222 122.147 308.552C122.147 308.89 121.886 309.151 121.532 309.151ZM121.048 313.613V309.743H122.016V313.613H121.048ZM122.953 313.613V309.743H123.921V310.326C124.167 309.95 124.605 309.681 125.15 309.681C125.995 309.681 126.563 310.234 126.563 311.079V313.613H125.595V311.309C125.595 310.856 125.311 310.541 124.858 310.541C124.267 310.541 123.921 311.048 123.921 311.916V313.613H122.953ZM129.257 313.675C128.098 313.675 127.291 312.861 127.291 311.678C127.291 310.495 128.098 309.681 129.257 309.681C130.248 309.681 130.947 310.196 131.077 311.017L130.133 311.202C130.064 310.795 129.741 310.518 129.288 310.518C128.689 310.518 128.297 310.971 128.297 311.678C128.297 312.384 128.689 312.838 129.288 312.838C129.741 312.838 130.041 312.592 130.133 312.177L131.077 312.369C130.931 313.183 130.233 313.675 129.257 313.675ZM133.616 313.675C132.441 313.675 131.596 312.83 131.596 311.678C131.596 310.526 132.441 309.681 133.616 309.681C134.791 309.681 135.636 310.526 135.636 311.678C135.636 312.83 134.791 313.675 133.616 313.675ZM133.616 312.838C134.238 312.838 134.66 312.369 134.66 311.678C134.66 310.987 134.238 310.518 133.616 310.518C132.986 310.518 132.571 310.987 132.571 311.678C132.571 312.369 132.986 312.838 133.616 312.838ZM137.999 313.675C136.84 313.675 136.156 312.861 136.156 311.678C136.156 310.495 136.84 309.681 137.984 309.681C138.468 309.681 138.883 309.881 139.105 310.173V308.176H140.073V313.613H139.105V313.168C138.913 313.475 138.483 313.675 137.999 313.675ZM138.138 312.838C138.76 312.838 139.167 312.377 139.167 311.678C139.167 310.979 138.76 310.518 138.138 310.518C137.523 310.518 137.116 310.979 137.116 311.678C137.116 312.377 137.523 312.838 138.138 312.838ZM144.661 311.547C144.661 311.686 144.654 311.855 144.646 311.931H141.774C141.858 312.515 142.235 312.861 142.788 312.861C143.241 312.861 143.563 312.646 143.663 312.269L144.569 312.515C144.354 313.245 143.678 313.675 142.772 313.675C141.49 313.675 140.806 312.684 140.806 311.678C140.806 310.672 141.436 309.681 142.718 309.681C144.024 309.681 144.661 310.649 144.661 311.547ZM141.797 311.225H143.625C143.579 310.764 143.279 310.418 142.718 310.418C142.242 310.418 141.904 310.703 141.797 311.225ZM149.811 309.343L152.046 311.578L149.819 313.805L149.304 313.291L150.602 311.993H147.031V311.163H150.602L149.297 309.865L149.811 309.343Z" fill="#F2F2F2"/>
<g filter="url(#filter2_d_943_9707)">
<rect x="40" y="342.733" width="160" height="30.72" fill="white"/>
</g>
<g style="mix-blend-mode:multiply">
<path d="M119.787 358.946C118.943 358.946 118.118 358.696 117.416 358.227C116.715 357.759 116.168 357.092 115.845 356.313C115.522 355.533 115.437 354.675 115.602 353.847C115.767 353.02 116.173 352.259 116.77 351.663C117.366 351.066 118.127 350.66 118.954 350.495C119.782 350.33 120.64 350.415 121.419 350.738C122.199 351.061 122.865 351.608 123.334 352.309C123.803 353.011 124.053 353.836 124.053 354.68C124.051 355.811 123.601 356.894 122.801 357.694C122.001 358.494 120.918 358.944 119.787 358.946V358.946Z" fill="#CDCDCD"/>
</g>
<mask id="mask0_943_9707" style="mask-type:alpha" maskUnits="userSpaceOnUse" x="115" y="350" width="10" height="9">
<path d="M119.787 358.947C118.943 358.947 118.118 358.697 117.416 358.228C116.715 357.76 116.168 357.093 115.845 356.314C115.522 355.534 115.437 354.676 115.602 353.848C115.767 353.021 116.173 352.26 116.77 351.664C117.366 351.067 118.127 350.661 118.954 350.496C119.782 350.331 120.64 350.416 121.419 350.739C122.199 351.062 122.865 351.609 123.334 352.31C123.803 353.012 124.053 353.837 124.053 354.681C124.051 355.812 123.601 356.895 122.801 357.695C122.001 358.495 120.918 358.945 119.787 358.947Z" fill="#B1CDE2"/>
</mask>
<g mask="url(#mask0_943_9707)">
<g style="mix-blend-mode:multiply">
<g style="mix-blend-mode:multiply">
<path d="M121.92 358.776C121.92 358.871 121.882 358.962 121.815 359.029C121.748 359.097 121.657 359.134 121.562 359.134H117.984C117.938 359.134 117.891 359.125 117.848 359.107C117.805 359.089 117.766 359.062 117.733 359.029C117.7 358.996 117.674 358.956 117.657 358.913C117.639 358.87 117.63 358.823 117.631 358.776V357.416C117.629 357.17 117.676 356.926 117.769 356.699C117.862 356.471 117.999 356.264 118.173 356.09C118.346 355.916 118.552 355.778 118.78 355.684C119.007 355.59 119.25 355.541 119.496 355.542H120.033C120.279 355.541 120.522 355.59 120.749 355.684C120.976 355.778 121.183 355.916 121.356 356.09C121.529 356.264 121.667 356.471 121.76 356.699C121.853 356.926 121.9 357.17 121.898 357.416L121.92 358.776Z" fill="#505050"/>
</g>
<g style="mix-blend-mode:multiply">
<path d="M119.645 355.249C119.899 355.249 120.148 355.174 120.359 355.032C120.57 354.89 120.734 354.688 120.83 354.452C120.926 354.217 120.95 353.958 120.898 353.709C120.846 353.46 120.721 353.232 120.539 353.054C120.357 352.876 120.126 352.757 119.876 352.711C119.626 352.665 119.368 352.694 119.134 352.795C118.901 352.897 118.703 353.065 118.566 353.28C118.429 353.494 118.359 353.744 118.365 353.999C118.373 354.333 118.511 354.651 118.75 354.885C118.989 355.119 119.31 355.25 119.645 355.249V355.249Z" fill="#505050"/>
</g>
</g>
</g>
<path d="M112.127 368.36V364.776H113.612C114.354 364.776 114.83 365.217 114.83 365.898C114.83 366.579 114.354 367.019 113.612 367.019H112.936V368.36H112.127ZM112.936 366.328H113.53C113.837 366.328 114.021 366.164 114.021 365.898C114.021 365.631 113.837 365.468 113.53 365.468H112.936V366.328ZM116.952 366.502C116.865 366.461 116.742 366.44 116.624 366.44C116.286 366.44 115.964 366.696 115.964 367.429V368.36H115.211V365.78H115.964V366.225C116.081 365.949 116.414 365.739 116.721 365.739C116.808 365.739 116.926 365.754 116.998 365.78L116.952 366.502ZM118.5 368.401C117.701 368.401 117.138 367.838 117.138 367.07C117.138 366.302 117.701 365.739 118.5 365.739C119.288 365.739 119.862 366.302 119.862 367.07C119.862 367.838 119.288 368.401 118.5 368.401ZM118.5 367.761C118.863 367.761 119.109 367.48 119.109 367.07C119.109 366.661 118.863 366.379 118.5 366.379C118.131 366.379 117.886 366.661 117.886 367.07C117.886 367.48 118.131 367.761 118.5 367.761ZM120.466 368.36V366.405H120.061V365.78H120.466V365.601C120.466 364.981 120.886 364.638 121.449 364.638C121.597 364.638 121.736 364.659 121.859 364.705L121.807 365.309C121.715 365.273 121.633 365.253 121.551 365.253C121.347 365.253 121.219 365.391 121.219 365.616V365.78H121.807V366.405H121.219V368.36H120.466ZM122.615 365.437C122.359 365.437 122.169 365.237 122.169 364.986C122.169 364.741 122.359 364.541 122.615 364.541C122.876 364.541 123.076 364.741 123.076 364.986C123.076 365.237 122.876 365.437 122.615 365.437ZM122.241 368.36V365.78H122.994V368.36H122.241ZM124.718 368.381C124.088 368.483 123.576 368.243 123.576 367.551V364.735H124.329V367.444C124.329 367.746 124.462 367.746 124.667 367.746L124.718 368.381ZM127.609 367.004C127.609 367.106 127.604 367.229 127.599 367.285H125.745C125.817 367.603 126.032 367.777 126.35 367.777C126.606 367.777 126.795 367.659 126.851 367.444L127.558 367.633C127.404 368.12 126.943 368.401 126.329 368.401C125.438 368.401 125.003 367.71 125.003 367.07C125.003 366.43 125.392 365.739 126.283 365.739C127.215 365.739 127.609 366.43 127.609 367.004ZM125.756 366.753H126.805C126.78 366.492 126.616 366.297 126.283 366.297C126.012 366.297 125.827 366.451 125.756 366.753Z" fill="#091016"/>
<path d="M169.606 354.466C169.606 354.299 169.59 354.133 169.56 353.969L170.773 353.097L169.754 351.375L168.378 351.977C168.108 351.766 167.805 351.598 167.481 351.48L167.313 349.986H165.274L165.106 351.45C164.78 351.577 164.477 351.756 164.209 351.977L162.833 351.365L161.813 353.087L163.026 353.969C162.968 354.298 162.968 354.635 163.026 354.964L161.813 355.845L162.833 357.567L164.209 356.98C164.479 357.191 164.782 357.359 165.106 357.478L165.274 358.946H167.313L167.481 357.483C167.805 357.364 168.108 357.196 168.378 356.985L169.754 357.572L170.773 355.85L169.56 354.964C169.59 354.8 169.606 354.633 169.606 354.466V354.466Z" fill="#CDCDCD"/>
<path d="M166.293 355.959C167.118 355.959 167.787 355.291 167.787 354.466C167.787 353.641 167.118 352.973 166.293 352.973C165.469 352.973 164.8 353.641 164.8 354.466C164.8 355.291 165.469 355.959 166.293 355.959Z" fill="#505050"/>
<path d="M158.071 368.4C157.355 368.4 156.75 367.914 156.684 367.259L157.39 367.049C157.436 367.448 157.749 367.714 158.102 367.714C158.425 367.714 158.635 367.561 158.635 367.335C158.635 366.66 156.796 367.059 156.796 365.743C156.796 365.154 157.36 364.734 158.061 364.734C158.752 364.734 159.31 365.103 159.433 365.651L158.711 365.953C158.64 365.63 158.399 365.42 158.061 365.42C157.78 365.42 157.605 365.538 157.605 365.738C157.605 366.306 159.449 365.851 159.449 367.315C159.449 367.965 158.896 368.4 158.071 368.4ZM162.366 367.003C162.366 367.105 162.361 367.228 162.356 367.284H160.502C160.574 367.602 160.789 367.776 161.106 367.776C161.362 367.776 161.552 367.658 161.608 367.443L162.315 367.632C162.161 368.119 161.7 368.4 161.086 368.4C160.195 368.4 159.76 367.709 159.76 367.069C159.76 366.429 160.149 365.738 161.04 365.738C161.972 365.738 162.366 366.429 162.366 367.003ZM160.512 366.752H161.562C161.536 366.491 161.372 366.296 161.04 366.296C160.768 366.296 160.584 366.45 160.512 366.752ZM164.375 368.334C164.252 368.375 164.109 368.4 163.956 368.4C163.397 368.4 162.972 368.103 162.972 367.479V366.404H162.563V365.779H162.972V365.031H163.725V365.779H164.35V366.404H163.725V367.381C163.725 367.612 163.848 367.745 164.032 367.745C164.124 367.745 164.237 367.73 164.324 367.684L164.375 368.334ZM166.395 368.334C166.272 368.375 166.129 368.4 165.976 368.4C165.417 368.4 164.992 368.103 164.992 367.479V366.404H164.583V365.779H164.992V365.031H165.745V365.779H166.37V366.404H165.745V367.381C165.745 367.612 165.868 367.745 166.052 367.745C166.144 367.745 166.257 367.73 166.344 367.684L166.395 368.334ZM167.181 365.436C166.925 365.436 166.736 365.236 166.736 364.985C166.736 364.74 166.925 364.54 167.181 364.54C167.443 364.54 167.642 364.74 167.642 364.985C167.642 365.236 167.443 365.436 167.181 365.436ZM166.808 368.359V365.779H167.56V368.359H166.808ZM168.143 368.359V365.779H168.895V366.122C169.049 365.897 169.331 365.738 169.684 365.738C170.252 365.738 170.631 366.107 170.631 366.675V368.359H169.883V366.875C169.883 366.593 169.709 366.404 169.438 366.404C169.08 366.404 168.895 366.695 168.895 367.228V368.359H168.143ZM172.61 367.796C173.24 367.796 173.599 368.068 173.599 368.533C173.599 369.132 172.994 369.332 172.313 369.332C171.54 369.332 171.023 369.107 171.023 368.59C171.023 368.431 171.115 368.236 171.264 368.108C171.167 368.011 171.11 367.893 171.11 367.76C171.11 367.509 171.259 367.325 171.489 367.223C171.341 367.074 171.254 366.869 171.254 366.629C171.254 366.091 171.684 365.738 172.308 365.738C172.482 365.738 172.636 365.764 172.774 365.815L173.143 365.4L173.578 365.779L173.23 366.168C173.317 366.296 173.363 366.455 173.363 366.629C173.363 367.166 172.938 367.515 172.308 367.515C172.191 367.515 172.083 367.504 171.981 367.479C171.878 367.53 171.822 367.596 171.822 367.663C171.822 367.755 171.909 367.796 172.047 367.796H172.61ZM172.308 366.306C172.093 366.306 171.945 366.434 171.945 366.629C171.945 366.818 172.093 366.946 172.308 366.946C172.513 366.946 172.667 366.818 172.667 366.629C172.667 366.434 172.513 366.306 172.308 366.306ZM172.313 368.738C172.718 368.738 172.872 368.677 172.872 368.539C172.872 368.395 172.723 368.37 172.477 368.37H172.037C171.96 368.37 171.889 368.364 171.817 368.354C171.766 368.421 171.75 368.472 171.75 368.539C171.75 368.677 171.878 368.738 172.313 368.738ZM174.884 368.4C174.255 368.4 173.865 368.016 173.732 367.627L174.336 367.392C174.398 367.632 174.598 367.832 174.884 367.832C175.084 367.832 175.217 367.735 175.217 367.591C175.217 367.187 173.85 367.458 173.85 366.48C173.85 366.076 174.203 365.738 174.772 365.738C175.299 365.738 175.734 365.994 175.852 366.368L175.248 366.619C175.181 366.383 174.971 366.276 174.797 366.276C174.628 366.276 174.511 366.347 174.511 366.46C174.511 366.869 175.898 366.532 175.898 367.576C175.898 368.021 175.488 368.4 174.884 368.4Z" fill="#091016"/>
<path d="M69.8667 353.274C69.8667 353.098 69.9561 352.936 70.1038 352.842L73.6451 350.588C73.8128 350.481 74.0272 350.481 74.1949 350.588L77.7362 352.842C77.8839 352.936 77.9733 353.098 77.9733 353.274V358.008C77.9733 358.291 77.7441 358.52 77.4613 358.52H70.3787C70.0959 358.52 69.8667 358.291 69.8667 358.008V353.274Z" fill="#CDCDCD"/>
<path d="M72.8533 356.387C72.8533 356.151 73.0444 355.96 73.28 355.96H74.56C74.7956 355.96 74.9867 356.151 74.9867 356.387V358.52H72.8533V356.387Z" fill="#505050"/>
<path d="M69.5332 364.776H70.3473V368.36H69.5332V366.86H68.1099V368.36H67.3009V364.776H68.1099V366.169H69.5332V364.776ZM72.1941 368.401C71.3954 368.401 70.8322 367.838 70.8322 367.07C70.8322 366.302 71.3954 365.739 72.1941 365.739C72.9826 365.739 73.556 366.302 73.556 367.07C73.556 367.838 72.9826 368.401 72.1941 368.401ZM72.1941 367.761C72.5576 367.761 72.8034 367.48 72.8034 367.07C72.8034 366.661 72.5576 366.379 72.1941 366.379C71.8255 366.379 71.5797 366.661 71.5797 367.07C71.5797 367.48 71.8255 367.761 72.1941 367.761ZM74.0052 368.36V365.78H74.7578V366.128C74.9063 365.898 75.1418 365.739 75.4849 365.739C75.8842 365.739 76.1351 365.903 76.2631 366.2C76.4013 365.954 76.7137 365.739 77.1335 365.739C77.6916 365.739 78.0602 366.113 78.0602 366.604V368.36H77.3127V366.824C77.3127 366.543 77.1591 366.369 76.8929 366.369C76.5805 366.369 76.4013 366.625 76.4013 367.039V368.36H75.6589V366.824C75.6589 366.543 75.5053 366.369 75.2442 366.369C74.937 366.369 74.7578 366.63 74.7578 367.039V368.36H74.0052ZM81.1233 367.004C81.1233 367.106 81.1181 367.229 81.113 367.285H79.2596C79.3313 367.603 79.5463 367.777 79.8637 367.777C80.1197 367.777 80.3092 367.659 80.3655 367.444L81.0721 367.633C80.9185 368.12 80.4577 368.401 79.8433 368.401C78.9524 368.401 78.5172 367.71 78.5172 367.07C78.5172 366.43 78.9063 365.739 79.7972 365.739C80.729 365.739 81.1233 366.43 81.1233 367.004ZM79.2698 366.753H80.3194C80.2938 366.492 80.13 366.297 79.7972 366.297C79.5258 366.297 79.3415 366.451 79.2698 366.753Z" fill="#091016"/>
</g>
</g>
<defs>
<filter id="filter0_d_943_9707" x="20" y="9" width="200" height="386.453" filterUnits="userSpaceOnUse" color-interpolation-filters="sRGB">
<feFlood flood-opacity="0" result="BackgroundImageFix"/>
<feColorMatrix in="SourceAlpha" type="matrix" values="0 0 0 0 0 0 0 0 0 0 0 0 0 0 0 0 0 0 127 0" result="hardAlpha"/>
<feOffset dy="2"/>
<feGaussianBlur stdDeviation="10"/>
<feComposite in2="hardAlpha" operator="out"/>
<feColorMatrix type="matrix" values="0 0 0 0 0.00392157 0 0 0 0 0.298039 0 0 0 0 0.572549 0 0 0 0.1 0"/>
<feBlend mode="normal" in2="BackgroundImageFix" result="effect1_dropShadow_943_9707"/>
<feBlend mode="normal" in="SourceGraphic" in2="effect1_dropShadow_943_9707" result="shape"/>
</filter>
<filter id="filter1_d_943_9707" x="48.96" y="126.84" width="142.507" height="40.5336" filterUnits="userSpaceOnUse" color-interpolation-filters="sRGB">
<feFlood flood-opacity="0" result="BackgroundImageFix"/>
<feColorMatrix in="SourceAlpha" type="matrix" values="0 0 0 0 0 0 0 0 0 0 0 0 0 0 0 0 0 0 127 0" result="hardAlpha"/>
<feOffset/>
<feGaussianBlur stdDeviation="0.64"/>
<feColorMatrix type="matrix" values="0 0 0 0 0 0 0 0 0 0 0 0 0 0 0 0 0 0 0.15 0"/>
<feBlend mode="normal" in2="BackgroundImageFix" result="effect1_dropShadow_943_9707"/>
<feBlend mode="normal" in="SourceGraphic" in2="effect1_dropShadow_943_9707" result="shape"/>
</filter>
<filter id="filter2_d_943_9707" x="31.4667" y="332.493" width="177.067" height="47.7864" filterUnits="userSpaceOnUse" color-interpolation-filters="sRGB">
<feFlood flood-opacity="0" result="BackgroundImageFix"/>
<feColorMatrix in="SourceAlpha" type="matrix" values="0 0 0 0 0 0 0 0 0 0 0 0 0 0 0 0 0 0 127 0" result="hardAlpha"/>
<feOffset dy="-1.70667"/>
<feGaussianBlur stdDeviation="4.26667"/>
<feComposite in2="hardAlpha" operator="out"/>
<feColorMatrix type="matrix" values="0 0 0 0 0.0040625 0 0 0 0 0.167963 0 0 0 0 0.320937 0 0 0 0.1 0"/>
<feBlend mode="normal" in2="BackgroundImageFix" result="effect1_dropShadow_943_9707"/>
<feBlend mode="normal" in="SourceGraphic" in2="effect1_dropShadow_943_9707" result="shape"/>
</filter>
<clipPath id="clip0_943_9707">
<rect x="40" y="27" width="160" height="346.453" rx="8.59" fill="white"/>
</clipPath>
<clipPath id="clip1_943_9707">
<rect width="8.53333" height="8.53333" fill="white" transform="translate(54.9333 135.8)"/>
</clipPath>
</defs>
</svg>
