<svg  viewBox="0 0 222 400" fill="none" xmlns="http://www.w3.org/2000/svg">
<rect width="222" height="400" rx="23.0739" fill="#F0F8FF"/>
<g filter="url(#filter0_d_939_10474)">
<g clip-path="url(#clip0_939_10474)">
<rect x="31" y="27" width="160" height="346.453" rx="8.59" fill="white"/>
<path d="M56.6957 61.4795L53.2687 51.9222H55.4669L57.7197 58.8854L59.9861 51.9222H62.1843L58.7573 61.4795H56.6957ZM68.6799 57.8614C68.6799 58.1344 68.6662 58.4621 68.6526 58.6123H63.7101C63.9012 59.4588 64.4747 59.923 65.3212 59.923C66.0038 59.923 66.509 59.609 66.6592 59.0355L68.5434 59.5407C68.1338 60.8378 66.905 61.5887 65.2666 61.5887C62.8909 61.5887 61.7303 59.7455 61.7303 58.0389C61.7303 56.3322 62.768 54.489 65.1437 54.489C67.6286 54.489 68.6799 56.3322 68.6799 57.8614ZM63.7374 57.1923H66.5363C66.468 56.496 66.0311 55.9772 65.1437 55.9772C64.42 55.9772 63.9285 56.3868 63.7374 57.1923ZM74.5405 56.5233C74.3084 56.4141 73.9807 56.3595 73.6667 56.3595C72.7655 56.3595 71.9054 57.0422 71.9054 58.9946V61.4795H69.8983V54.5982H71.9054V55.7861C72.2194 55.0488 73.1069 54.489 73.9261 54.489C74.1582 54.489 74.4722 54.5299 74.6634 54.5982L74.5405 56.5233ZM76.5884 53.6834C75.9057 53.6834 75.4005 53.151 75.4005 52.4819C75.4005 51.8266 75.9057 51.2941 76.5884 51.2941C77.2847 51.2941 77.8172 51.8266 77.8172 52.4819C77.8172 53.151 77.2847 53.6834 76.5884 53.6834ZM75.5917 61.4795V54.5982H77.5987V61.4795H75.5917ZM79.7115 61.4795V56.2639H78.6328V54.5982H79.7115V54.1203C79.7115 52.4683 80.831 51.5535 82.3329 51.5535C82.7288 51.5535 83.0975 51.6081 83.4252 51.731L83.2886 53.3421C83.0429 53.2465 82.8244 53.1919 82.606 53.1919C82.0598 53.1919 81.7185 53.5606 81.7185 54.1613V54.5982H83.2886V56.2639H81.7185V61.4795H79.7115ZM88.937 54.5982H90.985L87.3532 63.9644H85.3052L86.3974 61.1382L83.7487 54.5982H85.9196L87.3941 58.585L88.937 54.5982ZM98.2929 61.5887C96.2176 61.5887 94.7703 60.1278 94.7703 58.0389C94.7703 55.9499 96.2176 54.489 98.2929 54.489C100.136 54.489 101.42 55.4174 101.638 56.9329L99.6992 57.3152C99.59 56.6326 99.0848 56.1957 98.3748 56.1957C97.4327 56.1957 96.832 56.9193 96.832 58.0389C96.832 59.1584 97.4464 59.8821 98.3748 59.8821C99.0848 59.8821 99.5354 59.4725 99.6719 58.8444L101.624 59.2403C101.379 60.6876 100.109 61.5887 98.2929 61.5887ZM109.494 54.5982V61.4795H107.5V60.5647C107.077 61.1655 106.326 61.5887 105.398 61.5887C103.882 61.5887 102.858 60.6057 102.858 59.0902V54.5982H104.865V58.5577C104.865 59.3086 105.33 59.8138 106.04 59.8138C106.995 59.8138 107.5 59.0355 107.5 57.6156V54.5982H109.494ZM115.7 56.5233C115.468 56.4141 115.141 56.3595 114.827 56.3595C113.926 56.3595 113.065 57.0422 113.065 58.9946V61.4795H111.058V54.5982H113.065V55.7861C113.379 55.0488 114.267 54.489 115.086 54.489C115.318 54.489 115.632 54.5299 115.823 54.5982L115.7 56.5233ZM121.394 56.5233C121.162 56.4141 120.834 56.3595 120.52 56.3595C119.619 56.3595 118.759 57.0422 118.759 58.9946V61.4795H116.752V54.5982H118.759V55.7861C119.073 55.0488 119.96 54.489 120.779 54.489C121.012 54.489 121.326 54.5299 121.517 54.5982L121.394 56.5233ZM128.84 57.8614C128.84 58.1344 128.826 58.4621 128.813 58.6123H123.87C124.061 59.4588 124.635 59.923 125.481 59.923C126.164 59.923 126.669 59.609 126.819 59.0355L128.703 59.5407C128.294 60.8378 127.065 61.5887 125.427 61.5887C123.051 61.5887 121.89 59.7455 121.89 58.0389C121.89 56.3322 122.928 54.489 125.304 54.489C127.789 54.489 128.84 56.3322 128.84 57.8614ZM123.897 57.1923H126.696C126.628 56.496 126.191 55.9772 125.304 55.9772C124.58 55.9772 124.089 56.3868 123.897 57.1923ZM130.058 61.4795V54.5982H132.065V55.513C132.475 54.9122 133.226 54.489 134.168 54.489C135.684 54.489 136.694 55.472 136.694 56.9875V61.4795H134.7V57.52C134.7 56.7691 134.236 56.2639 133.513 56.2639C132.557 56.2639 132.065 57.0422 132.065 58.4621V61.4795H130.058ZM142.319 61.4112C141.991 61.5205 141.609 61.5887 141.199 61.5887C139.711 61.5887 138.578 60.7968 138.578 59.1311V56.2639H137.486V54.5982H138.578V52.6048H140.585V54.5982H142.251V56.2639H140.585V58.8717C140.585 59.4861 140.913 59.8411 141.404 59.8411C141.65 59.8411 141.95 59.8001 142.182 59.6773L142.319 61.4112ZM56.6547 70.489C58.5252 70.489 59.795 71.4584 59.795 73.3971V77.4795H57.8562V76.6057C57.4603 77.2064 56.682 77.5887 55.9174 77.5887C54.5794 77.5887 53.6373 76.6876 53.6373 75.5407C53.6373 74.1754 54.634 73.4381 56.6138 73.2333L57.8562 73.1104V73.0695C57.8562 72.3868 57.392 71.9772 56.6547 71.9772C55.9994 71.9772 55.5215 72.3731 55.4532 73.0422L53.7056 72.7145C53.924 71.3628 55.1802 70.489 56.6547 70.489ZM56.409 76.1551C57.3101 76.1551 57.8426 75.4315 57.8562 74.6259V74.6123V74.5713V74.5167L56.5728 74.6669C55.8901 74.7352 55.5488 75.0765 55.5488 75.4725C55.5488 75.8547 55.8492 76.1551 56.409 76.1551ZM64.5329 77.5887C62.4576 77.5887 61.0103 76.1278 61.0103 74.0389C61.0103 71.9499 62.4576 70.489 64.5329 70.489C66.3761 70.489 67.6595 71.4174 67.878 72.9329L65.9392 73.3152C65.83 72.6326 65.3248 72.1957 64.6148 72.1957C63.6727 72.1957 63.072 72.9193 63.072 74.0389C63.072 75.1584 63.6864 75.8821 64.6148 75.8821C65.3248 75.8821 65.7754 75.4725 65.9119 74.8444L67.8643 75.2403C67.6186 76.6876 66.3488 77.5887 64.5329 77.5887ZM72.2796 77.5887C70.2043 77.5887 68.757 76.1278 68.757 74.0389C68.757 71.9499 70.2043 70.489 72.2796 70.489C74.1228 70.489 75.4062 71.4174 75.6246 72.9329L73.6859 73.3152C73.5766 72.6326 73.0715 72.1957 72.3615 72.1957C71.4194 72.1957 70.8187 72.9193 70.8187 74.0389C70.8187 75.1584 71.4331 75.8821 72.3615 75.8821C73.0715 75.8821 73.522 75.4725 73.6586 74.8444L75.611 75.2403C75.3652 76.6876 74.0955 77.5887 72.2796 77.5887ZM80.1355 77.5887C78.0055 77.5887 76.5037 76.0869 76.5037 74.0389C76.5037 71.9909 78.0055 70.489 80.1355 70.489C82.2381 70.489 83.7672 71.9909 83.7672 74.0389C83.7672 76.0869 82.2381 77.5887 80.1355 77.5887ZM80.1355 75.8821C81.1048 75.8821 81.7602 75.1311 81.7602 74.0389C81.7602 72.9466 81.1048 72.1957 80.1355 72.1957C79.1524 72.1957 78.4971 72.9466 78.4971 74.0389C78.4971 75.1311 79.1524 75.8821 80.1355 75.8821ZM91.6005 70.5982V77.4795H89.6071V76.5647C89.1839 77.1655 88.433 77.5887 87.5045 77.5887C85.989 77.5887 84.965 76.6057 84.965 75.0902V70.5982H86.972V74.5577C86.972 75.3086 87.4363 75.8138 88.1462 75.8138C89.102 75.8138 89.6071 75.0355 89.6071 73.6156V70.5982H91.6005ZM93.165 77.4795V70.5982H95.172V71.513C95.5816 70.9122 96.3326 70.489 97.2747 70.489C98.7902 70.489 99.8005 71.472 99.8005 72.9875V77.4795H97.8071V73.52C97.8071 72.7691 97.3429 72.2639 96.6193 72.2639C95.6636 72.2639 95.172 73.0422 95.172 74.4621V77.4795H93.165ZM105.425 77.4112C105.098 77.5205 104.716 77.5887 104.306 77.5887C102.818 77.5887 101.684 76.7968 101.684 75.1311V72.2639H100.592V70.5982H101.684V68.6048H103.692V70.5982H105.357V72.2639H103.692V74.8717C103.692 75.4861 104.019 75.8411 104.511 75.8411C104.756 75.8411 105.057 75.8001 105.289 75.6773L105.425 77.4112ZM115.717 77.4795L112.959 73.3152L112.031 74.2983V77.4795H109.874V67.9222H112.031V71.4174L115.294 67.9222H118.12L114.461 71.7587L118.434 77.4795H115.717ZM121.743 77.4795V73.5337L118.507 67.9222H120.801L122.822 71.513L124.856 67.9222H127.136L123.9 73.5337V77.4795H121.743ZM131.617 77.5887C129.022 77.5887 126.811 75.923 126.811 72.7008C126.811 69.4786 129.063 67.8129 131.617 67.8129C134.006 67.8129 135.672 69.0963 135.945 71.0761L133.801 71.5266C133.583 70.3798 132.709 69.6561 131.603 69.6561C130.156 69.6561 128.982 70.7074 128.982 72.7008C128.982 74.6942 130.142 75.7319 131.603 75.7319C132.723 75.7319 133.528 75.0902 133.747 74.0662L135.917 74.5577C135.467 76.4555 133.869 77.5887 131.617 77.5887Z" fill="#091016"/>
<path d="M154.838 80.5459H186.201C186.305 80.5511 186.407 80.5771 186.501 80.6222C186.594 80.6651 186.678 80.727 186.747 80.804C186.817 80.8802 186.871 80.9701 186.905 81.068C186.937 81.1666 186.951 81.2698 186.946 81.3731V84.4296C186.954 84.5362 186.94 84.6432 186.904 84.7441C186.869 84.845 186.813 84.9376 186.741 85.0163C186.601 85.1674 186.407 85.2579 186.201 85.2686H154.838C154.632 85.2579 154.439 85.1674 154.298 85.0163C154.225 84.9386 154.168 84.8462 154.133 84.745C154.097 84.6439 154.084 84.5364 154.093 84.4296V81.3731C154.086 81.2697 154.1 81.1659 154.134 81.068C154.168 80.9701 154.222 80.8802 154.293 80.804C154.434 80.6504 154.63 80.5578 154.838 80.5459V80.5459Z" fill="#B1CDE2" fill-opacity="0.5"/>
<path d="M154.093 64.4007C154.093 64.2663 154.129 64.1344 154.199 64.0194C154.267 63.9023 154.367 63.8067 154.486 63.7436L170.168 52.4738C170.276 52.4152 170.397 52.3849 170.52 52.3858C170.643 52.3856 170.764 52.4159 170.872 52.4738L186.554 63.7436C186.672 63.8084 186.771 63.9036 186.841 64.0194C186.91 64.1344 186.947 64.2663 186.947 64.4007V68.0674C186.945 68.2647 186.867 68.4538 186.73 68.5954C186.589 68.7344 186.399 68.8124 186.202 68.8124H154.838C154.74 68.8132 154.643 68.7945 154.552 68.7573C154.462 68.7201 154.379 68.6653 154.31 68.5959C154.24 68.5266 154.186 68.4442 154.148 68.3534C154.111 68.2627 154.093 68.1654 154.093 68.0674V64.4007Z" fill="#B1CDE2" fill-opacity="0.5"/>
<g style="mix-blend-mode:multiply">
<g style="mix-blend-mode:multiply">
<path d="M161.72 65.293H157.613V82.893H161.72V65.293Z" fill="#B1CDE2" fill-opacity="0.5"/>
</g>
</g>
<g style="mix-blend-mode:multiply">
<g style="mix-blend-mode:multiply">
<path d="M168.76 65.293H164.653V82.893H168.76V65.293Z" fill="#B1CDE2" fill-opacity="0.5"/>
</g>
</g>
<g style="mix-blend-mode:multiply">
<g style="mix-blend-mode:multiply">
<path d="M183.426 65.293H179.32V82.893H183.426V65.293Z" fill="#B1CDE2" fill-opacity="0.5"/>
</g>
</g>
<g style="mix-blend-mode:multiply">
<g style="mix-blend-mode:multiply">
<path d="M176.328 65.293H172.221V82.893H176.328V65.293Z" fill="#B1CDE2" fill-opacity="0.5"/>
</g>
</g>
<path d="M185.187 68.8129C186.952 68.8128 188.662 68.2009 190.025 67.0814C191.389 65.9619 192.323 64.4042 192.667 62.6736C193.011 60.943 192.744 59.1467 191.913 57.5906C191.081 56.0346 189.735 54.8151 188.105 54.1399C186.475 53.4648 184.661 53.3758 182.972 53.8881C181.284 54.4004 179.825 55.4823 178.845 56.9494C177.865 58.4166 177.424 60.1782 177.597 61.9342C177.77 63.6901 178.546 65.3318 179.794 66.5794C180.502 67.2876 181.343 67.8493 182.269 68.2325C183.194 68.6158 184.186 68.813 185.187 68.8129V68.8129Z" fill="#FFB036" fill-opacity="0.5"/>
<g style="mix-blend-mode:multiply">
<g style="mix-blend-mode:multiply">
<path fill-rule="evenodd" clip-rule="evenodd" d="M181.494 57.2598H188.886V58.1804H185.765C186.169 58.6056 186.43 59.1466 186.511 59.7275H188.886V60.6427H186.495C186.418 61.0897 186.233 61.5111 185.955 61.8701C185.678 62.229 185.317 62.5146 184.904 62.7019L187.159 66.5153H186.113L183.994 62.8981H181.494V61.9665H183.858C184.355 61.9618 184.83 61.7668 185.187 61.4217C185.43 61.1863 185.604 60.8885 185.689 60.561H181.494V59.6349H185.743C185.632 59.2181 185.387 58.8489 185.047 58.5835C184.707 58.318 184.29 58.1708 183.858 58.1641H181.494V57.2598Z" fill="#FFB036" fill-opacity="0.5"/>
</g>
</g>
<path d="M44.8665 53.8799L42.7332 56.0132L44.8665 58.1465" stroke="black" stroke-width="0.853333" stroke-linecap="round" stroke-linejoin="round"/>
<path d="M43.3733 56.0137H48.92" stroke="black" stroke-width="0.853333" stroke-linecap="round" stroke-linejoin="round"/>
<g filter="url(#filter1_d_939_10474)">
<rect x="41.6667" y="152.866" width="139.947" height="26.4533" rx="1.33686" fill="white"/>
</g>
<g clip-path="url(#clip1_939_10474)">
<path d="M50.6376 158.862C48.2876 158.862 46.3821 160.768 46.3821 163.118C46.3821 165.468 48.2876 167.373 50.6376 167.373C52.9877 167.373 54.8932 165.468 54.8932 163.118C54.8932 160.768 52.9877 158.862 50.6376 158.862ZM50.3337 161.066C50.3337 161.024 50.3679 160.99 50.4097 160.99H50.8656C50.9074 160.99 50.9416 161.024 50.9416 161.066V163.65C50.9416 163.692 50.9074 163.726 50.8656 163.726H50.4097C50.3679 163.726 50.3337 163.692 50.3337 163.65V161.066ZM50.6376 165.246C50.5183 165.243 50.4047 165.194 50.3212 165.109C50.2377 165.024 50.1909 164.909 50.1909 164.79C50.1909 164.67 50.2377 164.556 50.3212 164.471C50.4047 164.385 50.5183 164.336 50.6376 164.334C50.757 164.336 50.8706 164.385 50.9541 164.471C51.0376 164.556 51.0844 164.67 51.0844 164.79C51.0844 164.909 51.0376 165.024 50.9541 165.109C50.8706 165.194 50.757 165.243 50.6376 165.246Z" fill="#F05656"/>
</g>
<path d="M60.4495 164.84V160.659H60.9931V164.35H63.0658V164.84H60.4495ZM64.9199 164.888C64.0239 164.888 63.3907 164.237 63.3907 163.335C63.3907 162.433 64.0239 161.781 64.9199 161.781C65.8099 161.781 66.455 162.433 66.455 163.335C66.455 164.237 65.8099 164.888 64.9199 164.888ZM64.9199 164.434C65.5232 164.434 65.9294 163.98 65.9294 163.335C65.9294 162.689 65.5232 162.235 64.9199 162.235C64.3166 162.235 63.9104 162.689 63.9104 163.335C63.9104 163.98 64.3166 164.434 64.9199 164.434ZM68.4607 164.888C67.5647 164.888 66.9315 164.237 66.9315 163.335C66.9315 162.433 67.5647 161.781 68.4607 161.781C69.3507 161.781 69.9958 162.433 69.9958 163.335C69.9958 164.237 69.3507 164.888 68.4607 164.888ZM68.4607 164.434C69.064 164.434 69.4702 163.98 69.4702 163.335C69.4702 162.689 69.064 162.235 68.4607 162.235C67.8574 162.235 67.4512 162.689 67.4512 163.335C67.4512 163.98 67.8574 164.434 68.4607 164.434ZM72.6944 164.84L71.5595 163.358L71.1593 163.723V164.84H70.6456V160.611H71.1593V163.054L72.5511 161.829H73.2261L71.9358 163.018L73.3276 164.84H72.6944ZM74.7584 164.888C74.0297 164.888 73.6354 164.434 73.504 164.01L73.9401 163.818C74.0536 164.171 74.2925 164.458 74.7584 164.458C75.1288 164.458 75.3677 164.243 75.3677 163.998C75.3677 163.227 73.6354 163.723 73.6354 162.582C73.6354 162.104 74.0476 161.781 74.6927 161.781C75.2243 161.781 75.6843 162.08 75.8097 162.522L75.3856 162.707C75.302 162.397 75.0033 162.2 74.6808 162.2C74.3403 162.2 74.1252 162.337 74.1252 162.576C74.1252 163.221 75.8695 162.749 75.8635 163.992C75.8635 164.517 75.4215 164.888 74.7584 164.888ZM78.8867 164.882C78.3491 164.935 77.9489 164.732 77.9489 164.105V160.611H78.4567V164.069C78.4567 164.398 78.612 164.446 78.8628 164.428L78.8867 164.882ZM79.7281 161.262C79.525 161.262 79.3757 161.107 79.3757 160.909C79.3757 160.706 79.525 160.551 79.7281 160.551C79.9372 160.551 80.0925 160.706 80.0925 160.909C80.0925 161.107 79.9372 161.262 79.7281 161.262ZM79.4773 164.84V161.829H79.985V164.84H79.4773ZM82.8561 164.84L81.7212 163.358L81.321 163.723V164.84H80.8073V160.611H81.321V163.054L82.7127 161.829H83.3877L82.0975 163.018L83.4893 164.84H82.8561ZM86.5644 163.197C86.5644 163.269 86.5585 163.376 86.5525 163.43H84.1751C84.2109 164.039 84.5932 164.44 85.1368 164.44C85.5967 164.44 85.9133 164.225 86.0029 163.848L86.4808 163.962C86.3315 164.547 85.8297 164.888 85.1368 164.888C84.2348 164.888 83.6674 164.189 83.6674 163.335C83.6674 162.48 84.2169 161.781 85.1249 161.781C86.0149 161.781 86.5644 162.421 86.5644 163.197ZM84.205 163.006H86.0268C85.979 162.546 85.6565 162.206 85.1249 162.206C84.653 162.206 84.3065 162.504 84.205 163.006ZM90.6421 161.829H91.1617L89.5848 165.927H89.0651L89.5012 164.798L88.3244 161.829H88.874L89.758 164.135L90.6421 161.829ZM92.9082 164.888C92.0122 164.888 91.379 164.237 91.379 163.335C91.379 162.433 92.0122 161.781 92.9082 161.781C93.7982 161.781 94.4433 162.433 94.4433 163.335C94.4433 164.237 93.7982 164.888 92.9082 164.888ZM92.9082 164.434C93.5115 164.434 93.9177 163.98 93.9177 163.335C93.9177 162.689 93.5115 162.235 92.9082 162.235C92.3049 162.235 91.8987 162.689 91.8987 163.335C91.8987 163.98 92.3049 164.434 92.9082 164.434ZM97.7094 161.829V164.84H97.2017V164.272C96.9926 164.631 96.6282 164.888 96.1683 164.888C95.5411 164.888 95.0931 164.464 95.0931 163.824V161.829H95.6008V163.729C95.6008 164.135 95.8577 164.428 96.2818 164.428C96.8433 164.428 97.2017 163.944 97.2017 163.149V161.829H97.7094ZM101.099 161.781C101.827 161.781 102.335 162.212 102.335 162.91V164.84H101.833V164.326C101.66 164.673 101.266 164.888 100.83 164.888C100.226 164.888 99.8143 164.517 99.8143 163.998C99.8143 163.418 100.286 163.102 101.248 163.006L101.833 162.94V162.881C101.833 162.468 101.541 162.206 101.099 162.206C100.686 162.206 100.394 162.451 100.352 162.857L99.88 162.767C99.9696 162.17 100.465 161.781 101.099 161.781ZM100.907 164.469C101.493 164.469 101.833 164.081 101.833 163.478V163.335L101.248 163.4C100.639 163.466 100.322 163.675 100.322 163.992C100.322 164.272 100.561 164.469 100.907 164.469ZM104.923 162.325C104.809 162.277 104.666 162.253 104.534 162.253C104.057 162.253 103.668 162.713 103.668 163.693V164.84H103.161V161.829H103.668V162.439C103.842 162.056 104.236 161.781 104.606 161.781C104.732 161.781 104.851 161.799 104.953 161.835L104.923 162.325ZM108.031 163.197C108.031 163.269 108.025 163.376 108.019 163.43H105.642C105.678 164.039 106.06 164.44 106.603 164.44C107.063 164.44 107.38 164.225 107.47 163.848L107.947 163.962C107.798 164.547 107.296 164.888 106.603 164.888C105.701 164.888 105.134 164.189 105.134 163.335C105.134 162.48 105.684 161.781 106.592 161.781C107.482 161.781 108.031 162.421 108.031 163.197ZM105.672 163.006H107.493C107.446 162.546 107.123 162.206 106.592 162.206C106.12 162.206 105.773 162.504 105.672 163.006ZM111.613 164.888C111.171 164.888 110.771 164.679 110.633 164.404V164.84H110.126V160.611H110.633V162.259C110.824 161.979 111.219 161.781 111.619 161.781C112.551 161.781 113.064 162.451 113.064 163.335C113.064 164.219 112.551 164.888 111.613 164.888ZM111.565 164.434C112.157 164.434 112.545 163.998 112.545 163.335C112.545 162.672 112.157 162.235 111.565 162.235C110.974 162.235 110.592 162.672 110.592 163.335C110.592 163.998 110.974 164.434 111.565 164.434ZM116.437 163.197C116.437 163.269 116.431 163.376 116.425 163.43H114.048C114.083 164.039 114.466 164.44 115.009 164.44C115.469 164.44 115.786 164.225 115.875 163.848L116.353 163.962C116.204 164.547 115.702 164.888 115.009 164.888C114.107 164.888 113.54 164.189 113.54 163.335C113.54 162.48 114.089 161.781 114.997 161.781C115.887 161.781 116.437 162.421 116.437 163.197ZM114.077 163.006H115.899C115.852 162.546 115.529 162.206 114.997 162.206C114.525 162.206 114.179 162.504 114.077 163.006ZM118.028 164.882C117.491 164.935 117.091 164.732 117.091 164.105V160.611H117.598V164.069C117.598 164.398 117.754 164.446 118.005 164.428L118.028 164.882ZM119.975 164.888C119.079 164.888 118.446 164.237 118.446 163.335C118.446 162.433 119.079 161.781 119.975 161.781C120.865 161.781 121.51 162.433 121.51 163.335C121.51 164.237 120.865 164.888 119.975 164.888ZM119.975 164.434C120.578 164.434 120.984 163.98 120.984 163.335C120.984 162.689 120.578 162.235 119.975 162.235C119.372 162.235 118.965 162.689 118.965 163.335C118.965 163.98 119.372 164.434 119.975 164.434ZM122.753 164.84L121.833 161.829H122.353L123.004 164.129L123.709 161.829H124.198L124.903 164.129L125.548 161.829H126.08L125.154 164.84H124.658L123.954 162.552L123.249 164.84H122.753ZM128.797 164.84V161.339C128.511 161.602 128.2 161.734 127.806 161.805V161.322C128.224 161.232 128.588 161.017 128.881 160.659H129.311V164.84H128.797ZM131.471 164.888C130.581 164.888 129.972 164.398 129.972 163.639C129.972 163.149 130.283 162.737 130.761 162.588C130.39 162.421 130.145 162.08 130.145 161.71C130.145 161.059 130.665 160.611 131.471 160.611C132.254 160.611 132.774 161.059 132.774 161.71C132.774 162.08 132.529 162.427 132.158 162.588C132.636 162.737 132.947 163.149 132.947 163.639C132.947 164.398 132.338 164.888 131.471 164.888ZM131.471 162.385C131.931 162.385 132.236 162.128 132.242 161.728C132.248 161.328 131.937 161.071 131.471 161.071C130.982 161.071 130.671 161.328 130.677 161.728C130.683 162.128 130.994 162.385 131.471 162.385ZM131.465 164.416C132.033 164.416 132.397 164.105 132.397 163.633C132.397 163.161 132.033 162.851 131.465 162.851C130.892 162.851 130.522 163.161 130.522 163.633C130.522 164.105 130.892 164.416 131.465 164.416ZM137.011 161.829H137.531L135.954 165.927H135.434L135.87 164.798L134.694 161.829H135.243L136.127 164.135L137.011 161.829ZM140.645 163.197C140.645 163.269 140.639 163.376 140.633 163.43H138.256C138.292 164.039 138.674 164.44 139.218 164.44C139.678 164.44 139.994 164.225 140.084 163.848L140.562 163.962C140.412 164.547 139.911 164.888 139.218 164.888C138.316 164.888 137.748 164.189 137.748 163.335C137.748 162.48 138.298 161.781 139.206 161.781C140.096 161.781 140.645 162.421 140.645 163.197ZM138.286 163.006H140.108C140.06 162.546 139.737 162.206 139.206 162.206C138.734 162.206 138.387 162.504 138.286 163.006ZM142.393 161.781C143.121 161.781 143.629 162.212 143.629 162.91V164.84H143.127V164.326C142.954 164.673 142.56 164.888 142.124 164.888C141.521 164.888 141.108 164.517 141.108 163.998C141.108 163.418 141.58 163.102 142.542 163.006L143.127 162.94V162.881C143.127 162.468 142.835 162.206 142.393 162.206C141.981 162.206 141.688 162.451 141.646 162.857L141.174 162.767C141.264 162.17 141.76 161.781 142.393 161.781ZM142.202 164.469C142.787 164.469 143.127 164.081 143.127 163.478V163.335L142.542 163.4C141.933 163.466 141.616 163.675 141.616 163.992C141.616 164.272 141.855 164.469 142.202 164.469ZM146.217 162.325C146.103 162.277 145.96 162.253 145.829 162.253C145.351 162.253 144.962 162.713 144.962 163.693V164.84H144.455V161.829H144.962V162.439C145.136 162.056 145.53 161.781 145.9 161.781C146.026 161.781 146.145 161.799 146.247 161.835L146.217 162.325ZM147.669 164.888C146.941 164.888 146.546 164.434 146.415 164.01L146.851 163.818C146.964 164.171 147.203 164.458 147.669 164.458C148.04 164.458 148.279 164.243 148.279 163.998C148.279 163.227 146.546 163.723 146.546 162.582C146.546 162.104 146.958 161.781 147.604 161.781C148.135 161.781 148.595 162.08 148.721 162.522L148.296 162.707C148.213 162.397 147.914 162.2 147.592 162.2C147.251 162.2 147.036 162.337 147.036 162.576C147.036 163.221 148.78 162.749 148.774 163.992C148.774 164.517 148.332 164.888 147.669 164.888ZM151.983 161.781C152.711 161.781 153.219 162.212 153.219 162.91V164.84H152.717V164.326C152.544 164.673 152.15 164.888 151.714 164.888C151.111 164.888 150.698 164.517 150.698 163.998C150.698 163.418 151.17 163.102 152.132 163.006L152.717 162.94V162.881C152.717 162.468 152.425 162.206 151.983 162.206C151.571 162.206 151.278 162.451 151.236 162.857L150.764 162.767C150.854 162.17 151.35 161.781 151.983 161.781ZM151.792 164.469C152.377 164.469 152.717 164.081 152.717 163.478V163.335L152.132 163.4C151.523 163.466 151.206 163.675 151.206 163.992C151.206 164.272 151.445 164.469 151.792 164.469ZM154.045 164.84V161.829H154.552V162.397C154.762 162.038 155.126 161.781 155.586 161.781C156.213 161.781 156.661 162.206 156.661 162.845V164.84H156.153V162.94C156.153 162.534 155.896 162.241 155.472 162.241C154.911 162.241 154.552 162.725 154.552 163.52V164.84H154.045ZM158.765 164.888C157.827 164.888 157.313 164.219 157.313 163.335C157.313 162.451 157.827 161.781 158.759 161.781C159.159 161.781 159.553 161.979 159.744 162.259V160.611H160.252V164.84H159.744V164.404C159.607 164.679 159.207 164.888 158.765 164.888ZM158.813 164.434C159.404 164.434 159.792 163.998 159.792 163.335C159.792 162.672 159.404 162.235 158.813 162.235C158.221 162.235 157.833 162.672 157.833 163.335C157.833 163.998 158.221 164.434 158.813 164.434ZM162.515 164.84V161.829H163.022V162.397C163.232 162.038 163.596 161.781 164.056 161.781C164.683 161.781 165.131 162.206 165.131 162.845V164.84H164.623V162.94C164.623 162.534 164.366 162.241 163.942 162.241C163.381 162.241 163.022 162.725 163.022 163.52V164.84H162.515ZM167.312 164.888C166.416 164.888 165.783 164.237 165.783 163.335C165.783 162.433 166.416 161.781 167.312 161.781C168.202 161.781 168.848 162.433 168.848 163.335C168.848 164.237 168.202 164.888 167.312 164.888ZM167.312 164.434C167.916 164.434 168.322 163.98 168.322 163.335C168.322 162.689 167.916 162.235 167.312 162.235C166.709 162.235 166.303 162.689 166.303 163.335C166.303 163.98 166.709 164.434 167.312 164.434ZM171.057 164.816C170.908 164.87 170.747 164.888 170.585 164.888C170.072 164.888 169.695 164.601 169.695 163.938V162.277H169.134V161.829H169.695V160.915H170.203V161.829H171.009V162.277H170.203V163.956C170.203 164.272 170.382 164.428 170.645 164.428C170.765 164.428 170.902 164.41 171.021 164.35L171.057 164.816ZM63.1494 170.197C63.1494 170.269 63.1435 170.376 63.1375 170.43H60.7601C60.7959 171.039 61.1782 171.44 61.7218 171.44C62.1817 171.44 62.4983 171.225 62.5879 170.848L63.0658 170.962C62.9165 171.547 62.4147 171.888 61.7218 171.888C60.8198 171.888 60.2524 171.189 60.2524 170.335C60.2524 169.48 60.8019 168.781 61.7099 168.781C62.5999 168.781 63.1494 169.421 63.1494 170.197ZM60.79 170.006H62.6118C62.564 169.546 62.2415 169.206 61.7099 169.206C61.238 169.206 60.8915 169.504 60.79 170.006ZM64.7409 171.882C64.2033 171.935 63.8031 171.732 63.8031 171.105V167.611H64.3108V171.069C64.3108 171.398 64.4661 171.446 64.717 171.428L64.7409 171.882ZM65.5823 168.262C65.3792 168.262 65.2299 168.107 65.2299 167.909C65.2299 167.706 65.3792 167.551 65.5823 167.551C65.7914 167.551 65.9467 167.706 65.9467 167.909C65.9467 168.107 65.7914 168.262 65.5823 168.262ZM65.3314 171.84V168.829H65.8392V171.84H65.3314ZM68.2085 171.254C68.8118 171.254 69.23 171.505 69.23 172.061C69.23 172.664 68.6685 172.975 67.8441 172.975C66.99 172.975 66.4583 172.67 66.4583 172.115C66.4583 171.852 66.6017 171.637 66.7809 171.499C66.6316 171.398 66.542 171.248 66.542 171.033C66.542 170.771 66.7152 170.573 66.9481 170.466C66.7869 170.293 66.6973 170.066 66.6973 169.797C66.6973 169.188 67.1871 168.781 67.8382 168.781C68.0353 168.781 68.2205 168.823 68.3877 168.901L68.8596 168.495L69.1523 168.829L68.7521 169.17C68.8954 169.337 68.9791 169.552 68.9791 169.797C68.9791 170.418 68.4952 170.812 67.8382 170.812C67.6231 170.812 67.438 170.771 67.2767 170.699C67.1034 170.777 67.0318 170.878 67.0318 171.004C67.0318 171.189 67.205 171.254 67.4021 171.254H68.2085ZM67.8382 169.194C67.4917 169.194 67.193 169.421 67.193 169.797C67.193 170.179 67.4917 170.4 67.8382 170.4C68.1846 170.4 68.4833 170.179 68.4833 169.797C68.4833 169.421 68.1846 169.194 67.8382 169.194ZM67.8441 172.545C68.4176 172.545 68.7342 172.383 68.7342 172.097C68.7342 171.774 68.4952 171.667 68.1368 171.667H67.4977C67.3902 171.667 67.2886 171.661 67.193 171.649C67.0079 171.774 66.9541 171.935 66.9541 172.109C66.9541 172.383 67.2588 172.545 67.8441 172.545ZM70.0506 168.262C69.8475 168.262 69.6982 168.107 69.6982 167.909C69.6982 167.706 69.8475 167.551 70.0506 167.551C70.2597 167.551 70.415 167.706 70.415 167.909C70.415 168.107 70.2597 168.262 70.0506 168.262ZM69.7998 171.84V168.829H70.3075V171.84H69.7998ZM72.6171 171.888C72.1751 171.888 71.7749 171.679 71.6375 171.404V171.84H71.1298V167.611H71.6375V169.259C71.8286 168.979 72.2229 168.781 72.6231 168.781C73.5549 168.781 74.0686 169.451 74.0686 170.335C74.0686 171.219 73.5549 171.888 72.6171 171.888ZM72.5693 171.434C73.1607 171.434 73.549 170.998 73.549 170.335C73.549 169.672 73.1607 169.235 72.5693 169.235C71.978 169.235 71.5957 169.672 71.5957 170.335C71.5957 170.998 71.978 171.434 72.5693 171.434ZM75.6551 171.882C75.1175 171.935 74.7173 171.732 74.7173 171.105V167.611H75.225V171.069C75.225 171.398 75.3803 171.446 75.6312 171.428L75.6551 171.882ZM78.9694 170.197C78.9694 170.269 78.9635 170.376 78.9575 170.43H76.5801C76.6159 171.039 76.9982 171.44 77.5418 171.44C78.0017 171.44 78.3183 171.225 78.4079 170.848L78.8858 170.962C78.7365 171.547 78.2347 171.888 77.5418 171.888C76.6398 171.888 76.0724 171.189 76.0724 170.335C76.0724 169.48 76.6219 168.781 77.5299 168.781C78.4199 168.781 78.9694 169.421 78.9694 170.197ZM76.61 170.006H78.4318C78.384 169.546 78.0615 169.206 77.5299 169.206C77.058 169.206 76.7115 169.504 76.61 170.006ZM82.6648 171.816C82.5154 171.87 82.3542 171.888 82.1929 171.888C81.6792 171.888 81.3029 171.601 81.3029 170.938V169.277H80.7414V168.829H81.3029V167.915H81.8106V168.829H82.617V169.277H81.8106V170.956C81.8106 171.272 81.9898 171.428 82.2526 171.428C82.3721 171.428 82.5095 171.41 82.6289 171.35L82.6648 171.816ZM84.5374 171.888C83.6414 171.888 83.0082 171.237 83.0082 170.335C83.0082 169.433 83.6414 168.781 84.5374 168.781C85.4274 168.781 86.0725 169.433 86.0725 170.335C86.0725 171.237 85.4274 171.888 84.5374 171.888ZM84.5374 171.434C85.1407 171.434 85.5469 170.98 85.5469 170.335C85.5469 169.689 85.1407 169.235 84.5374 169.235C83.9341 169.235 83.5279 169.689 83.5279 170.335C83.5279 170.98 83.9341 171.434 84.5374 171.434ZM89.519 171.888C88.623 171.888 87.9899 171.237 87.9899 170.335C87.9899 169.433 88.623 168.781 89.519 168.781C90.4091 168.781 91.0542 169.433 91.0542 170.335C91.0542 171.237 90.4091 171.888 89.519 171.888ZM89.519 171.434C90.1223 171.434 90.5285 170.98 90.5285 170.335C90.5285 169.689 90.1223 169.235 89.519 169.235C88.9157 169.235 88.5095 169.689 88.5095 170.335C88.5095 170.98 88.9157 171.434 89.519 171.434ZM91.7039 172.927V168.829H92.2117V169.265C92.3729 168.991 92.7672 168.781 93.2032 168.781C94.1291 168.781 94.6428 169.451 94.6428 170.335C94.6428 171.219 94.1171 171.888 93.1913 171.888C92.809 171.888 92.4147 171.696 92.2117 171.422V172.927H91.7039ZM93.1435 171.434C93.7408 171.434 94.1291 170.998 94.1291 170.335C94.1291 169.672 93.7408 169.235 93.1435 169.235C92.5581 169.235 92.1698 169.672 92.1698 170.335C92.1698 170.998 92.5581 171.434 93.1435 171.434ZM98.0153 170.197C98.0153 170.269 98.0093 170.376 98.0033 170.43H95.6259C95.6618 171.039 96.0441 171.44 96.5876 171.44C97.0476 171.44 97.3642 171.225 97.4538 170.848L97.9316 170.962C97.7823 171.547 97.2805 171.888 96.5876 171.888C95.6857 171.888 95.1182 171.189 95.1182 170.335C95.1182 169.48 95.6677 168.781 96.5757 168.781C97.4657 168.781 98.0153 169.421 98.0153 170.197ZM95.6558 170.006H97.4777C97.4299 169.546 97.1073 169.206 96.5757 169.206C96.1038 169.206 95.7573 169.504 95.6558 170.006ZM98.6689 171.84V168.829H99.1767V169.397C99.3857 169.038 99.7501 168.781 100.21 168.781C100.837 168.781 101.285 169.206 101.285 169.845V171.84H100.778V169.94C100.778 169.534 100.521 169.241 100.097 169.241C99.5351 169.241 99.1767 169.725 99.1767 170.52V171.84H98.6689ZM104.674 168.781C105.403 168.781 105.911 169.212 105.911 169.91V171.84H105.409V171.326C105.236 171.673 104.842 171.888 104.406 171.888C103.802 171.888 103.39 171.517 103.39 170.998C103.39 170.418 103.862 170.102 104.824 170.006L105.409 169.94V169.881C105.409 169.468 105.116 169.206 104.674 169.206C104.262 169.206 103.97 169.451 103.928 169.857L103.456 169.767C103.545 169.17 104.041 168.781 104.674 168.781ZM104.483 171.469C105.069 171.469 105.409 171.081 105.409 170.478V170.335L104.824 170.4C104.214 170.466 103.898 170.675 103.898 170.992C103.898 171.272 104.137 171.469 104.483 171.469ZM109.497 171.888C108.601 171.888 108.004 171.266 108.004 170.335C108.004 169.403 108.601 168.781 109.497 168.781C110.196 168.781 110.71 169.164 110.817 169.761L110.316 169.863C110.25 169.498 109.933 169.235 109.509 169.235C108.918 169.235 108.536 169.672 108.536 170.335C108.536 170.998 108.918 171.434 109.509 171.434C109.933 171.434 110.244 171.201 110.328 170.8L110.823 170.902C110.692 171.523 110.19 171.888 109.497 171.888ZM114.072 168.829V171.84H113.564V171.272C113.355 171.631 112.991 171.888 112.531 171.888C111.904 171.888 111.456 171.464 111.456 170.824V168.829H111.963V170.729C111.963 171.135 112.22 171.428 112.644 171.428C113.206 171.428 113.564 170.944 113.564 170.149V168.829H114.072ZM116.659 169.325C116.546 169.277 116.403 169.253 116.271 169.253C115.793 169.253 115.405 169.713 115.405 170.693V171.84H114.897V168.829H115.405V169.439C115.578 169.056 115.972 168.781 116.343 168.781C116.468 168.781 116.588 168.799 116.689 168.835L116.659 169.325ZM118.946 169.325C118.833 169.277 118.689 169.253 118.558 169.253C118.08 169.253 117.692 169.713 117.692 170.693V171.84H117.184V168.829H117.692V169.439C117.865 169.056 118.259 168.781 118.629 168.781C118.755 168.781 118.874 168.799 118.976 168.835L118.946 169.325ZM122.054 170.197C122.054 170.269 122.048 170.376 122.042 170.43H119.665C119.701 171.039 120.083 171.44 120.627 171.44C121.087 171.44 121.403 171.225 121.493 170.848L121.971 170.962C121.821 171.547 121.32 171.888 120.627 171.888C119.725 171.888 119.157 171.189 119.157 170.335C119.157 169.48 119.707 168.781 120.615 168.781C121.505 168.781 122.054 169.421 122.054 170.197ZM119.695 170.006H121.517C121.469 169.546 121.146 169.206 120.615 169.206C120.143 169.206 119.797 169.504 119.695 170.006ZM122.708 171.84V168.829H123.216V169.397C123.425 169.038 123.789 168.781 124.249 168.781C124.876 168.781 125.324 169.206 125.324 169.845V171.84H124.817V169.94C124.817 169.534 124.56 169.241 124.136 169.241C123.574 169.241 123.216 169.725 123.216 170.52V171.84H122.708ZM127.64 171.816C127.49 171.87 127.329 171.888 127.168 171.888C126.654 171.888 126.278 171.601 126.278 170.938V169.277H125.716V168.829H126.278V167.915H126.786V168.829H127.592V169.277H126.786V170.956C126.786 171.272 126.965 171.428 127.228 171.428C127.347 171.428 127.484 171.41 127.604 171.35L127.64 171.816ZM130.796 168.781C131.525 168.781 132.033 169.212 132.033 169.91V171.84H131.531V171.326C131.358 171.673 130.963 171.888 130.527 171.888C129.924 171.888 129.512 171.517 129.512 170.998C129.512 170.418 129.984 170.102 130.945 170.006L131.531 169.94V169.881C131.531 169.468 131.238 169.206 130.796 169.206C130.384 169.206 130.091 169.451 130.049 169.857L129.578 169.767C129.667 169.17 130.163 168.781 130.796 168.781ZM130.605 171.469C131.19 171.469 131.531 171.081 131.531 170.478V170.335L130.945 170.4C130.336 170.466 130.02 170.675 130.02 170.992C130.02 171.272 130.258 171.469 130.605 171.469ZM134.178 171.888C133.282 171.888 132.685 171.266 132.685 170.335C132.685 169.403 133.282 168.781 134.178 168.781C134.877 168.781 135.391 169.164 135.498 169.761L134.997 169.863C134.931 169.498 134.614 169.235 134.19 169.235C133.599 169.235 133.216 169.672 133.216 170.335C133.216 170.998 133.599 171.434 134.19 171.434C134.614 171.434 134.925 171.201 135.008 170.8L135.504 170.902C135.373 171.523 134.871 171.888 134.178 171.888ZM137.457 171.888C136.561 171.888 135.963 171.266 135.963 170.335C135.963 169.403 136.561 168.781 137.457 168.781C138.155 168.781 138.669 169.164 138.777 169.761L138.275 169.863C138.209 169.498 137.893 169.235 137.468 169.235C136.877 169.235 136.495 169.672 136.495 170.335C136.495 170.998 136.877 171.434 137.468 171.434C137.893 171.434 138.203 171.201 138.287 170.8L138.783 170.902C138.651 171.523 138.149 171.888 137.457 171.888ZM140.771 171.888C139.875 171.888 139.242 171.237 139.242 170.335C139.242 169.433 139.875 168.781 140.771 168.781C141.661 168.781 142.306 169.433 142.306 170.335C142.306 171.237 141.661 171.888 140.771 171.888ZM140.771 171.434C141.374 171.434 141.78 170.98 141.78 170.335C141.78 169.689 141.374 169.235 140.771 169.235C140.167 169.235 139.761 169.689 139.761 170.335C139.761 170.98 140.167 171.434 140.771 171.434ZM145.572 168.829V171.84H145.064V171.272C144.855 171.631 144.491 171.888 144.031 171.888C143.404 171.888 142.956 171.464 142.956 170.824V168.829H143.463V170.729C143.463 171.135 143.72 171.428 144.144 171.428C144.706 171.428 145.064 170.944 145.064 170.149V168.829H145.572ZM146.397 171.84V168.829H146.905V169.397C147.114 169.038 147.478 168.781 147.938 168.781C148.566 168.781 149.014 169.206 149.014 169.845V171.84H148.506V169.94C148.506 169.534 148.249 169.241 147.825 169.241C147.263 169.241 146.905 169.725 146.905 170.52V171.84H146.397ZM151.329 171.816C151.18 171.87 151.018 171.888 150.857 171.888C150.343 171.888 149.967 171.601 149.967 170.938V169.277H149.406V168.829H149.967V167.915H150.475V168.829H151.281V169.277H150.475V170.956C150.475 171.272 150.654 171.428 150.917 171.428C151.036 171.428 151.174 171.41 151.293 171.35L151.329 171.816ZM152.286 171.888C152.071 171.888 151.921 171.738 151.921 171.529C151.921 171.326 152.071 171.171 152.286 171.171C152.489 171.171 152.65 171.326 152.65 171.529C152.65 171.738 152.489 171.888 152.286 171.888Z" fill="#3A3838"/>
<path d="M42.0735 103.826V99.5126H44.9574V100.234H42.9115V101.183H44.5507V101.91H42.9115V103.099H45.0252V103.826H42.0735ZM45.6172 103.826V100.72H46.3937V101.189C46.5909 100.887 46.9421 100.671 47.3797 100.671C48.0575 100.671 48.5135 101.115 48.5135 101.793V103.826H47.7371V101.977C47.7371 101.614 47.5091 101.361 47.1455 101.361C46.671 101.361 46.3937 101.768 46.3937 102.464V103.826H45.6172ZM51.0043 103.795C50.8502 103.851 50.6838 103.875 50.5051 103.875C49.8766 103.875 49.4082 103.537 49.4082 102.809V101.374H48.8845V100.72H49.4082V99.8084H50.1847V100.72H50.9673V101.374H50.1847V102.735C50.1847 103.031 50.3449 103.191 50.5852 103.191C50.7023 103.191 50.8379 103.173 50.9488 103.118L51.0043 103.795ZM54.4057 102.169C54.4057 102.279 54.3995 102.415 54.3934 102.477H52.0887C52.1565 102.945 52.4584 103.222 52.9021 103.222C53.2657 103.222 53.5245 103.05 53.6046 102.748L54.3318 102.945C54.1592 103.53 53.6169 103.875 52.8898 103.875C51.8607 103.875 51.3122 103.081 51.3122 102.273C51.3122 101.466 51.8175 100.671 52.8466 100.671C53.8942 100.671 54.4057 101.448 54.4057 102.169ZM52.1072 101.91H53.5738C53.5368 101.54 53.2965 101.263 52.8466 101.263C52.4646 101.263 52.1934 101.491 52.1072 101.91ZM56.9958 101.472C56.8849 101.423 56.737 101.398 56.6014 101.398C56.1639 101.398 55.7695 101.762 55.7695 102.686V103.826H54.993V100.72H55.7695V101.287C55.9235 100.936 56.3303 100.671 56.7062 100.671C56.8171 100.671 56.9526 100.69 57.0451 100.72L56.9958 101.472ZM59.0138 103.826V99.5126H60.7516C61.6266 99.5126 62.1874 100.03 62.1874 100.831C62.1874 101.626 61.6266 102.144 60.7516 102.144H59.8519V103.826H59.0138ZM59.8519 101.423H60.6776C61.0967 101.423 61.3493 101.201 61.3493 100.831C61.3493 100.455 61.0967 100.234 60.6776 100.234H59.8519V101.423ZM65.1169 103.826L64.7656 102.871H63.0957L62.7444 103.826H61.8817L63.5393 99.5126H64.322L65.9796 103.826H65.1169ZM63.3606 102.162H64.5068L63.9337 100.609L63.3606 102.162ZM66.3916 103.826V99.5126H67.242L69.0906 102.507V99.5126H69.8732V103.826H69.0229L67.1803 100.837V103.826H66.3916Z" fill="#424242"/>
<rect x="41.8801" y="108.453" width="139.52" height="21.3333" rx="4.05333" fill="white" stroke="#D8D8D8" stroke-width="0.426667"/>
<path d="M53.115 122.289L52.644 121.074H50.5209L50.0498 122.289H49.4081L51.2991 117.51H51.8657L53.7635 122.289H53.115ZM50.7325 120.521H52.4323L51.5858 118.33L50.7325 120.521ZM54.3117 122.289V117.51H56.0457C56.9468 117.51 57.5066 117.961 57.5066 118.739C57.5066 119.183 57.1994 119.538 56.8785 119.674C57.3632 119.845 57.7182 120.227 57.7182 120.896C57.7182 121.757 57.1311 122.289 56.1481 122.289H54.3117ZM54.9329 119.476H56.0184C56.585 119.476 56.8922 119.238 56.8922 118.76C56.8922 118.282 56.585 118.043 56.0184 118.043H54.9329V119.476ZM54.9329 121.729H56.0457C56.742 121.729 57.097 121.436 57.097 120.883C57.097 120.323 56.742 120.023 56.0457 120.023H54.9329V121.729ZM60.601 122.344C59.3995 122.344 58.2799 121.545 58.2799 119.9C58.2799 118.255 59.4063 117.456 60.601 117.456C61.6455 117.456 62.4169 118.043 62.6148 118.964L62.0004 119.101C61.8503 118.412 61.3383 118.009 60.5941 118.009C59.6248 118.009 58.9216 118.678 58.9216 119.9C58.9216 121.122 59.6248 121.784 60.5941 121.784C61.3383 121.784 61.8229 121.402 61.9936 120.739L62.6148 120.869C62.3759 121.77 61.6318 122.344 60.601 122.344ZM63.2917 122.289V117.51H64.7116C66.0497 117.51 67.1078 118.364 67.1078 119.9C67.1078 121.436 66.0497 122.289 64.7116 122.289H63.2917ZM63.9061 121.729H64.6912C65.6128 121.729 66.4661 121.204 66.4661 119.9C66.4661 118.596 65.6128 118.063 64.6912 118.063H63.9061V121.729ZM67.885 122.289V117.51H70.8956V118.063H68.5063V119.47H70.445V120.029H68.5063V121.729H70.9707V122.289H67.885ZM74.1901 122.289V118.289C73.8624 118.589 73.5074 118.739 73.0569 118.821V118.268C73.5347 118.166 73.9512 117.92 74.2857 117.51H74.7772V122.289H74.1901ZM75.4781 122.289L75.4713 121.75L77.2667 120.2C77.8265 119.715 78.0655 119.319 78.0655 118.889C78.0655 118.357 77.7105 118.009 77.1507 118.009C76.4817 118.009 76.1062 118.48 76.1745 119.19L75.5737 119.149C75.4986 118.145 76.154 117.456 77.1507 117.456C78.0928 117.456 78.7072 118.022 78.7072 118.889C78.7072 119.47 78.3863 120.002 77.649 120.623L76.352 121.729H78.7072V122.289H75.4781ZM80.8773 122.344C79.9353 122.344 79.2594 121.798 79.1707 120.965L79.7578 120.876C79.826 121.429 80.2698 121.784 80.8773 121.784C81.5395 121.784 81.9696 121.388 81.9696 120.787C81.9696 120.166 81.5737 119.804 80.9115 119.804C80.734 119.804 80.536 119.859 80.3858 119.954L80.1196 119.558L81.6283 118.063H79.3072V117.51H82.3587V118.05L81.0002 119.374C81.9423 119.285 82.6113 119.859 82.6113 120.801C82.6113 121.722 81.9287 122.344 80.8773 122.344ZM85.5624 122.289V121.122H83.0434V120.562L85.4668 117.51H86.1836V120.562H86.8731V121.122H86.1836V122.289H85.5624ZM83.7124 120.562H85.5624V118.22L83.7124 120.562ZM89.225 122.289V117.51H92.2356V118.063H89.8463V119.47H91.785V120.029H89.8463V121.729H92.3107V122.289H89.225Z" fill="#242424"/>
<g clip-path="url(#clip2_939_10474)">
<circle cx="170.947" cy="119.333" r="4.26667" fill="#F17377"/>
<path d="M168.813 121.466L173.08 117.199" stroke="#F4F8FB" stroke-width="0.711111" stroke-linecap="round" stroke-linejoin="round"/>
<path d="M173.08 121.466L168.813 117.199" stroke="#F4F8FB" stroke-width="0.711111" stroke-linecap="round" stroke-linejoin="round"/>
</g>
<path d="M42.8495 138.413L41.7589 134.829H42.2402L43.0952 137.875L43.9605 134.829H44.4469L45.3071 137.875L46.1621 134.829H46.6434L45.5579 138.413H45.0664L44.2063 135.525L43.3359 138.413H42.8495ZM49.1847 137.005C49.1847 137.067 49.1796 137.159 49.1745 137.205H47.1367C47.1675 137.727 47.4951 138.07 47.9611 138.07C48.3553 138.07 48.6267 137.886 48.7035 137.563L49.1131 137.66C48.9851 138.162 48.555 138.454 47.9611 138.454C47.1879 138.454 46.7015 137.855 46.7015 137.123C46.7015 136.391 47.1726 135.792 47.9508 135.792C48.7137 135.792 49.1847 136.339 49.1847 137.005ZM47.1623 136.841H48.7239C48.683 136.447 48.4065 136.155 47.9508 136.155C47.5463 136.155 47.2494 136.411 47.1623 136.841ZM51.5535 138.413L50.765 135.833H51.2104L51.7685 137.804L52.3727 135.833H52.7925L53.3967 137.804L53.9496 135.833H54.4053L53.6117 138.413H53.1867L52.5826 136.452L51.9784 138.413H51.5535ZM55.1051 135.346C54.931 135.346 54.803 135.213 54.803 135.044C54.803 134.87 54.931 134.737 55.1051 134.737C55.2843 134.737 55.4174 134.87 55.4174 135.044C55.4174 135.213 55.2843 135.346 55.1051 135.346ZM54.89 138.413V135.833H55.3252V138.413H54.89ZM56.8339 138.449C56.3731 138.495 56.03 138.321 56.03 137.783V134.788H56.4652V137.753C56.4652 138.034 56.5983 138.075 56.8134 138.06L56.8339 138.449ZM58.1439 138.449C57.6831 138.495 57.34 138.321 57.34 137.783V134.788H57.7752V137.753C57.7752 138.034 57.9083 138.075 58.1234 138.06L58.1439 138.449ZM62.1276 135.833V138.413H61.6924V137.927C61.5132 138.234 61.2009 138.454 60.8066 138.454C60.269 138.454 59.885 138.091 59.885 137.543V135.833H60.3202V137.461C60.3202 137.809 60.5404 138.06 60.9039 138.06C61.3852 138.06 61.6924 137.645 61.6924 136.964V135.833H62.1276ZM63.7003 138.454C63.0757 138.454 62.7377 138.065 62.6251 137.701L62.9989 137.538C63.0961 137.84 63.3009 138.085 63.7003 138.085C64.0177 138.085 64.2225 137.901 64.2225 137.691C64.2225 137.031 62.7377 137.456 62.7377 136.478C62.7377 136.068 63.091 135.792 63.644 135.792C64.0997 135.792 64.4939 136.048 64.6014 136.427L64.2379 136.585C64.1662 136.319 63.9102 136.15 63.6337 136.15C63.3419 136.15 63.1576 136.268 63.1576 136.473C63.1576 137.026 64.6526 136.621 64.6475 137.686C64.6475 138.137 64.2686 138.454 63.7003 138.454ZM67.5147 137.005C67.5147 137.067 67.5096 137.159 67.5045 137.205H65.4667C65.4975 137.727 65.8251 138.07 66.2911 138.07C66.6853 138.07 66.9567 137.886 67.0335 137.563L67.4431 137.66C67.3151 138.162 66.885 138.454 66.2911 138.454C65.5179 138.454 65.0315 137.855 65.0315 137.123C65.0315 136.391 65.5026 135.792 66.2808 135.792C67.0437 135.792 67.5147 136.339 67.5147 137.005ZM65.4923 136.841H67.0539C67.013 136.447 66.7365 136.155 66.2808 136.155C65.8763 136.155 65.5794 136.411 65.4923 136.841ZM70.6822 138.393C70.5542 138.439 70.4159 138.454 70.2777 138.454C69.8374 138.454 69.5148 138.208 69.5148 137.64V136.217H69.0335V135.833H69.5148V135.049H69.95V135.833H70.6412V136.217H69.95V137.655C69.95 137.927 70.1036 138.06 70.3289 138.06C70.4313 138.06 70.5491 138.044 70.6515 137.993L70.6822 138.393ZM71.235 138.413V134.788H71.6702V136.339C71.8597 135.971 72.172 135.792 72.5509 135.792C73.1345 135.792 73.5185 136.155 73.5185 136.713V138.413H73.0833V136.795C73.0833 136.416 72.8478 136.186 72.4536 136.186C71.9774 136.186 71.6702 136.616 71.6702 137.307V138.413H71.235ZM76.5597 137.005C76.5597 137.067 76.5546 137.159 76.5495 137.205H74.5117C74.5425 137.727 74.8701 138.07 75.3361 138.07C75.7303 138.07 76.0017 137.886 76.0785 137.563L76.4881 137.66C76.3601 138.162 75.93 138.454 75.3361 138.454C74.5629 138.454 74.0765 137.855 74.0765 137.123C74.0765 136.391 74.5476 135.792 75.3258 135.792C76.0887 135.792 76.5597 136.339 76.5597 137.005ZM74.5373 136.841H76.0989C76.058 136.447 75.7815 136.155 75.3258 136.155C74.9213 136.155 74.6244 136.411 74.5373 136.841ZM78.3755 138.413V134.829H79.7374C80.4337 134.829 80.8843 135.239 80.8843 135.868C80.8843 136.498 80.4337 136.908 79.7374 136.908H78.8414V138.413H78.3755ZM78.8414 136.488H79.7221C80.147 136.488 80.403 136.258 80.403 135.868C80.403 135.479 80.147 135.244 79.7221 135.244H78.8414V136.488ZM83.468 138.413L83.1147 137.502H81.5224L81.1691 138.413H80.6878L82.1061 134.829H82.531L83.9544 138.413H83.468ZM81.6811 137.087H82.956L82.3211 135.443L81.6811 137.087ZM84.3655 138.413V134.829H84.8826L86.69 137.681V134.829H87.1457V138.413H86.6285L84.8212 135.571V138.413H84.3655ZM90.4822 138.393C90.3542 138.439 90.2159 138.454 90.0777 138.454C89.6374 138.454 89.3148 138.208 89.3148 137.64V136.217H88.8335V135.833H89.3148V135.049H89.75V135.833H90.4412V136.217H89.75V137.655C89.75 137.927 89.9036 138.06 90.1289 138.06C90.2313 138.06 90.3491 138.044 90.4515 137.993L90.4822 138.393ZM92.0873 138.454C91.3193 138.454 90.7765 137.896 90.7765 137.123C90.7765 136.35 91.3193 135.792 92.0873 135.792C92.8501 135.792 93.4031 136.35 93.4031 137.123C93.4031 137.896 92.8501 138.454 92.0873 138.454ZM92.0873 138.065C92.6044 138.065 92.9525 137.676 92.9525 137.123C92.9525 136.57 92.6044 136.181 92.0873 136.181C91.5701 136.181 91.222 136.57 91.222 137.123C91.222 137.676 91.5701 138.065 92.0873 138.065ZM95.451 138.413V136.217H95.0107V135.833H95.451V135.592C95.451 135.024 95.7736 134.722 96.2139 134.722C96.3317 134.722 96.4545 134.732 96.5621 134.763L96.5416 135.152C96.4494 135.116 96.3573 135.1 96.2702 135.1C96.0398 135.1 95.8862 135.28 95.8862 135.556V135.833H96.5467V136.217H95.8862V138.413H95.451ZM99.2347 137.005C99.2347 137.067 99.2296 137.159 99.2245 137.205H97.1867C97.2175 137.727 97.5451 138.07 98.0111 138.07C98.4053 138.07 98.6767 137.886 98.7535 137.563L99.1631 137.66C99.0351 138.162 98.605 138.454 98.0111 138.454C97.2379 138.454 96.7515 137.855 96.7515 137.123C96.7515 136.391 97.2226 135.792 98.0008 135.792C98.7637 135.792 99.2347 136.339 99.2347 137.005ZM97.2123 136.841H98.7739C98.733 136.447 98.4565 136.155 98.0008 136.155C97.5963 136.155 97.2994 136.411 97.2123 136.841ZM101.132 138.393C101.004 138.439 100.866 138.454 100.728 138.454C100.287 138.454 99.9648 138.208 99.9648 137.64V136.217H99.4835V135.833H99.9648V135.049H100.4V135.833H101.091V136.217H100.4V137.655C100.4 137.927 100.554 138.06 100.779 138.06C100.881 138.06 100.999 138.044 101.101 137.993L101.132 138.393ZM102.707 138.454C101.939 138.454 101.427 137.922 101.427 137.123C101.427 136.324 101.939 135.792 102.707 135.792C103.306 135.792 103.746 136.119 103.838 136.631L103.408 136.718C103.352 136.406 103.08 136.181 102.717 136.181C102.21 136.181 101.882 136.555 101.882 137.123C101.882 137.691 102.21 138.065 102.717 138.065C103.08 138.065 103.347 137.865 103.418 137.522L103.843 137.609C103.731 138.142 103.3 138.454 102.707 138.454ZM104.385 138.413V134.788H104.82V136.339C105.01 135.971 105.322 135.792 105.701 135.792C106.285 135.792 106.669 136.155 106.669 136.713V138.413H106.233V136.795C106.233 136.416 105.998 136.186 105.604 136.186C105.127 136.186 104.82 136.616 104.82 137.307V138.413H104.385ZM109.982 138.393C109.854 138.439 109.716 138.454 109.578 138.454C109.137 138.454 108.815 138.208 108.815 137.64V136.217H108.334V135.833H108.815V135.049H109.25V135.833H109.941V136.217H109.25V137.655C109.25 137.927 109.404 138.06 109.629 138.06C109.731 138.06 109.849 138.044 109.951 137.993L109.982 138.393ZM110.535 138.413V134.788H110.97V136.339C111.16 135.971 111.472 135.792 111.851 135.792C112.435 135.792 112.819 136.155 112.819 136.713V138.413H112.383V136.795C112.383 136.416 112.148 136.186 111.754 136.186C111.277 136.186 110.97 136.616 110.97 137.307V138.413H110.535ZM115.86 137.005C115.86 137.067 115.855 137.159 115.85 137.205H113.812C113.842 137.727 114.17 138.07 114.636 138.07C115.03 138.07 115.302 137.886 115.378 137.563L115.788 137.66C115.66 138.162 115.23 138.454 114.636 138.454C113.863 138.454 113.377 137.855 113.377 137.123C113.377 136.391 113.848 135.792 114.626 135.792C115.389 135.792 115.86 136.339 115.86 137.005ZM113.837 136.841H115.399C115.358 136.447 115.082 136.155 114.626 136.155C114.221 136.155 113.924 136.411 113.837 136.841ZM119.237 138.454C118.346 138.454 117.512 137.845 117.512 136.621C117.512 135.397 118.351 134.788 119.247 134.788C120.046 134.788 120.635 135.228 120.778 135.92L120.317 136.017C120.215 135.51 119.816 135.203 119.247 135.203C118.52 135.203 117.993 135.71 117.993 136.621C117.993 137.532 118.52 138.034 119.242 138.034C119.913 138.034 120.338 137.599 120.353 136.969H119.104V136.565H120.794V138.413H120.369V137.86C120.205 138.224 119.744 138.454 119.237 138.454ZM122.602 138.454C121.911 138.454 121.358 138.009 121.24 137.353L121.681 137.21C121.752 137.712 122.136 138.039 122.612 138.039C123.104 138.039 123.421 137.809 123.421 137.451C123.421 136.493 121.384 136.995 121.384 135.725C121.384 135.167 121.885 134.788 122.592 134.788C123.247 134.788 123.754 135.141 123.846 135.674L123.421 135.838C123.35 135.449 123.042 135.203 122.592 135.203C122.131 135.203 121.855 135.403 121.855 135.725C121.855 136.544 123.903 136.012 123.903 137.445C123.903 138.055 123.386 138.454 122.602 138.454ZM125.231 138.413V135.244H124.089V134.829H126.833V135.244H125.697V138.413H125.231ZM127.286 138.413V134.829H127.751V138.413H127.286ZM128.496 138.413V134.829H129.013L130.82 137.681V134.829H131.276V138.413H130.759L128.951 135.571V138.413H128.496Z" fill="#767676"/>
<g filter="url(#filter2_d_939_10474)">
<rect x="31" y="342.733" width="160" height="30.72" fill="white"/>
</g>
<g style="mix-blend-mode:multiply">
<path d="M110.787 358.946C109.943 358.946 109.118 358.696 108.416 358.227C107.715 357.759 107.168 357.092 106.845 356.313C106.522 355.533 106.437 354.675 106.602 353.847C106.767 353.02 107.173 352.259 107.77 351.663C108.366 351.066 109.127 350.66 109.954 350.495C110.782 350.33 111.64 350.415 112.419 350.738C113.199 351.061 113.865 351.608 114.334 352.309C114.803 353.011 115.053 353.836 115.053 354.68C115.051 355.811 114.601 356.894 113.801 357.694C113.001 358.494 111.918 358.944 110.787 358.946V358.946Z" fill="#CDCDCD"/>
</g>
<mask id="mask0_939_10474" style="mask-type:alpha" maskUnits="userSpaceOnUse" x="106" y="350" width="10" height="9">
<path d="M110.787 358.947C109.943 358.947 109.118 358.697 108.416 358.228C107.715 357.76 107.168 357.093 106.845 356.314C106.522 355.534 106.437 354.676 106.602 353.848C106.767 353.021 107.173 352.26 107.77 351.664C108.366 351.067 109.127 350.661 109.954 350.496C110.782 350.331 111.64 350.416 112.419 350.739C113.199 351.062 113.865 351.609 114.334 352.31C114.803 353.012 115.053 353.837 115.053 354.681C115.051 355.812 114.601 356.895 113.801 357.695C113.001 358.495 111.918 358.945 110.787 358.947Z" fill="#B1CDE2"/>
</mask>
<g mask="url(#mask0_939_10474)">
<g style="mix-blend-mode:multiply">
<g style="mix-blend-mode:multiply">
<path d="M112.92 358.776C112.92 358.871 112.882 358.962 112.815 359.029C112.748 359.097 112.657 359.134 112.562 359.134H108.984C108.938 359.134 108.891 359.125 108.848 359.107C108.805 359.089 108.766 359.062 108.733 359.029C108.7 358.996 108.674 358.956 108.657 358.913C108.639 358.87 108.631 358.823 108.631 358.776V357.416C108.629 357.17 108.676 356.926 108.769 356.699C108.862 356.471 108.999 356.264 109.173 356.09C109.346 355.916 109.553 355.778 109.78 355.684C110.007 355.59 110.25 355.541 110.496 355.542H111.033C111.279 355.541 111.522 355.59 111.749 355.684C111.976 355.778 112.183 355.916 112.356 356.09C112.529 356.264 112.667 356.471 112.76 356.699C112.853 356.926 112.9 357.17 112.898 357.416L112.92 358.776Z" fill="#505050"/>
</g>
<g style="mix-blend-mode:multiply">
<path d="M110.645 355.249C110.899 355.249 111.148 355.174 111.359 355.032C111.57 354.89 111.734 354.688 111.83 354.452C111.926 354.217 111.949 353.958 111.898 353.709C111.846 353.46 111.721 353.232 111.539 353.054C111.357 352.876 111.126 352.757 110.876 352.711C110.626 352.665 110.368 352.694 110.134 352.795C109.901 352.897 109.703 353.065 109.566 353.28C109.429 353.494 109.359 353.744 109.365 353.999C109.372 354.333 109.511 354.651 109.75 354.885C109.989 355.119 110.31 355.25 110.645 355.249V355.249Z" fill="#505050"/>
</g>
</g>
</g>
<path d="M103.127 368.36V364.776H104.612C105.354 364.776 105.83 365.217 105.83 365.898C105.83 366.579 105.354 367.019 104.612 367.019H103.936V368.36H103.127ZM103.936 366.328H104.53C104.837 366.328 105.021 366.164 105.021 365.898C105.021 365.631 104.837 365.468 104.53 365.468H103.936V366.328ZM107.952 366.502C107.865 366.461 107.742 366.44 107.624 366.44C107.286 366.44 106.964 366.696 106.964 367.429V368.36H106.211V365.78H106.964V366.225C107.081 365.949 107.414 365.739 107.721 365.739C107.808 365.739 107.926 365.754 107.998 365.78L107.952 366.502ZM109.5 368.401C108.701 368.401 108.138 367.838 108.138 367.07C108.138 366.302 108.701 365.739 109.5 365.739C110.288 365.739 110.862 366.302 110.862 367.07C110.862 367.838 110.288 368.401 109.5 368.401ZM109.5 367.761C109.863 367.761 110.109 367.48 110.109 367.07C110.109 366.661 109.863 366.379 109.5 366.379C109.131 366.379 108.885 366.661 108.885 367.07C108.885 367.48 109.131 367.761 109.5 367.761ZM111.466 368.36V366.405H111.061V365.78H111.466V365.601C111.466 364.981 111.886 364.638 112.449 364.638C112.597 364.638 112.736 364.659 112.858 364.705L112.807 365.309C112.715 365.273 112.633 365.253 112.551 365.253C112.346 365.253 112.218 365.391 112.218 365.616V365.78H112.807V366.405H112.218V368.36H111.466ZM113.615 365.437C113.359 365.437 113.169 365.237 113.169 364.986C113.169 364.741 113.359 364.541 113.615 364.541C113.876 364.541 114.075 364.741 114.075 364.986C114.075 365.237 113.876 365.437 113.615 365.437ZM113.241 368.36V365.78H113.994V368.36H113.241ZM115.718 368.381C115.088 368.483 114.576 368.243 114.576 367.551V364.735H115.329V367.444C115.329 367.746 115.462 367.746 115.666 367.746L115.718 368.381ZM118.609 367.004C118.609 367.106 118.604 367.229 118.599 367.285H116.745C116.817 367.603 117.032 367.777 117.349 367.777C117.605 367.777 117.795 367.659 117.851 367.444L118.558 367.633C118.404 368.12 117.943 368.401 117.329 368.401C116.438 368.401 116.003 367.71 116.003 367.07C116.003 366.43 116.392 365.739 117.283 365.739C118.215 365.739 118.609 366.43 118.609 367.004ZM116.756 366.753H117.805C117.78 366.492 117.616 366.297 117.283 366.297C117.012 366.297 116.827 366.451 116.756 366.753Z" fill="#091016"/>
<path d="M160.606 354.466C160.606 354.299 160.59 354.133 160.56 353.969L161.773 353.097L160.754 351.375L159.378 351.977C159.108 351.766 158.805 351.598 158.481 351.48L158.313 349.986H156.274L156.106 351.45C155.78 351.577 155.477 351.756 155.209 351.977L153.833 351.365L152.813 353.087L154.026 353.969C153.968 354.298 153.968 354.635 154.026 354.964L152.813 355.845L153.833 357.567L155.209 356.98C155.479 357.191 155.782 357.359 156.106 357.478L156.274 358.946H158.313L158.481 357.483C158.805 357.364 159.108 357.196 159.378 356.985L160.754 357.572L161.773 355.85L160.56 354.964C160.59 354.8 160.606 354.633 160.606 354.466V354.466Z" fill="#CDCDCD"/>
<path d="M157.293 355.959C158.118 355.959 158.786 355.291 158.786 354.466C158.786 353.641 158.118 352.973 157.293 352.973C156.468 352.973 155.8 353.641 155.8 354.466C155.8 355.291 156.468 355.959 157.293 355.959Z" fill="#505050"/>
<path d="M149.071 368.4C148.355 368.4 147.75 367.914 147.684 367.259L148.39 367.049C148.436 367.448 148.749 367.714 149.102 367.714C149.425 367.714 149.635 367.561 149.635 367.335C149.635 366.66 147.796 367.059 147.796 365.743C147.796 365.154 148.36 364.734 149.061 364.734C149.752 364.734 150.31 365.103 150.433 365.651L149.711 365.953C149.64 365.63 149.399 365.42 149.061 365.42C148.779 365.42 148.605 365.538 148.605 365.738C148.605 366.306 150.449 365.851 150.449 367.315C150.449 367.965 149.896 368.4 149.071 368.4ZM153.366 367.003C153.366 367.105 153.361 367.228 153.355 367.284H151.502C151.574 367.602 151.789 367.776 152.106 367.776C152.362 367.776 152.552 367.658 152.608 367.443L153.315 367.632C153.161 368.119 152.7 368.4 152.086 368.4C151.195 368.4 150.76 367.709 150.76 367.069C150.76 366.429 151.149 365.738 152.04 365.738C152.971 365.738 153.366 366.429 153.366 367.003ZM151.512 366.752H152.562C152.536 366.491 152.372 366.296 152.04 366.296C151.768 366.296 151.584 366.45 151.512 366.752ZM155.375 368.334C155.252 368.375 155.109 368.4 154.955 368.4C154.397 368.4 153.972 368.103 153.972 367.479V366.404H153.563V365.779H153.972V365.031H154.725V365.779H155.35V366.404H154.725V367.381C154.725 367.612 154.848 367.745 155.032 367.745C155.124 367.745 155.237 367.73 155.324 367.684L155.375 368.334ZM157.395 368.334C157.272 368.375 157.129 368.4 156.975 368.4C156.417 368.4 155.992 368.103 155.992 367.479V366.404H155.583V365.779H155.992V365.031H156.745V365.779H157.37V366.404H156.745V367.381C156.745 367.612 156.868 367.745 157.052 367.745C157.144 367.745 157.257 367.73 157.344 367.684L157.395 368.334ZM158.181 365.436C157.925 365.436 157.736 365.236 157.736 364.985C157.736 364.74 157.925 364.54 158.181 364.54C158.443 364.54 158.642 364.74 158.642 364.985C158.642 365.236 158.443 365.436 158.181 365.436ZM157.808 368.359V365.779H158.56V368.359H157.808ZM159.143 368.359V365.779H159.895V366.122C160.049 365.897 160.33 365.738 160.684 365.738C161.252 365.738 161.631 366.107 161.631 366.675V368.359H160.883V366.875C160.883 366.593 160.709 366.404 160.438 366.404C160.08 366.404 159.895 366.695 159.895 367.228V368.359H159.143ZM163.61 367.796C164.24 367.796 164.599 368.068 164.599 368.533C164.599 369.132 163.994 369.332 163.313 369.332C162.54 369.332 162.023 369.107 162.023 368.59C162.023 368.431 162.115 368.236 162.264 368.108C162.167 368.011 162.11 367.893 162.11 367.76C162.11 367.509 162.259 367.325 162.489 367.223C162.341 367.074 162.254 366.869 162.254 366.629C162.254 366.091 162.684 365.738 163.308 365.738C163.482 365.738 163.636 365.764 163.774 365.815L164.143 365.4L164.578 365.779L164.23 366.168C164.317 366.296 164.363 366.455 164.363 366.629C164.363 367.166 163.938 367.515 163.308 367.515C163.191 367.515 163.083 367.504 162.981 367.479C162.878 367.53 162.822 367.596 162.822 367.663C162.822 367.755 162.909 367.796 163.047 367.796H163.61ZM163.308 366.306C163.093 366.306 162.945 366.434 162.945 366.629C162.945 366.818 163.093 366.946 163.308 366.946C163.513 366.946 163.667 366.818 163.667 366.629C163.667 366.434 163.513 366.306 163.308 366.306ZM163.313 368.738C163.718 368.738 163.872 368.677 163.872 368.539C163.872 368.395 163.723 368.37 163.477 368.37H163.037C162.96 368.37 162.888 368.364 162.817 368.354C162.766 368.421 162.75 368.472 162.75 368.539C162.75 368.677 162.878 368.738 163.313 368.738ZM165.884 368.4C165.254 368.4 164.865 368.016 164.732 367.627L165.336 367.392C165.398 367.632 165.598 367.832 165.884 367.832C166.084 367.832 166.217 367.735 166.217 367.591C166.217 367.187 164.85 367.458 164.85 366.48C164.85 366.076 165.203 365.738 165.772 365.738C166.299 365.738 166.734 365.994 166.852 366.368L166.248 366.619C166.181 366.383 165.971 366.276 165.797 366.276C165.628 366.276 165.51 366.347 165.51 366.46C165.51 366.869 166.898 366.532 166.898 367.576C166.898 368.021 166.488 368.4 165.884 368.4Z" fill="#091016"/>
<path d="M60.8667 353.274C60.8667 353.098 60.9561 352.936 61.1038 352.842L64.6452 350.588C64.8129 350.481 65.0272 350.481 65.1949 350.588L68.7362 352.842C68.8839 352.936 68.9734 353.098 68.9734 353.274V358.008C68.9734 358.291 68.7441 358.52 68.4614 358.52H61.3787C61.0959 358.52 60.8667 358.291 60.8667 358.008V353.274Z" fill="#CDCDCD"/>
<path d="M63.8533 356.387C63.8533 356.151 64.0443 355.96 64.2799 355.96H65.5599C65.7956 355.96 65.9866 356.151 65.9866 356.387V358.52H63.8533V356.387Z" fill="#505050"/>
<path d="M60.5331 364.776H61.3472V368.36H60.5331V366.86H59.1097V368.36H58.3008V364.776H59.1097V366.169H60.5331V364.776ZM63.194 368.401C62.3953 368.401 61.8321 367.838 61.8321 367.07C61.8321 366.302 62.3953 365.739 63.194 365.739C63.9825 365.739 64.5559 366.302 64.5559 367.07C64.5559 367.838 63.9825 368.401 63.194 368.401ZM63.194 367.761C63.5575 367.761 63.8033 367.48 63.8033 367.07C63.8033 366.661 63.5575 366.379 63.194 366.379C62.8253 366.379 62.5796 366.661 62.5796 367.07C62.5796 367.48 62.8253 367.761 63.194 367.761ZM65.0051 368.36V365.78H65.7577V366.128C65.9062 365.898 66.1417 365.739 66.4847 365.739C66.8841 365.739 67.135 365.903 67.263 366.2C67.4012 365.954 67.7135 365.739 68.1334 365.739C68.6915 365.739 69.0601 366.113 69.0601 366.604V368.36H68.3126V366.824C68.3126 366.543 68.159 366.369 67.8927 366.369C67.5804 366.369 67.4012 366.625 67.4012 367.039V368.36H66.6588V366.824C66.6588 366.543 66.5052 366.369 66.2441 366.369C65.9369 366.369 65.7577 366.63 65.7577 367.039V368.36H65.0051ZM72.1231 367.004C72.1231 367.106 72.118 367.229 72.1129 367.285H70.2595C70.3311 367.603 70.5462 367.777 70.8636 367.777C71.1196 367.777 71.3091 367.659 71.3654 367.444L72.0719 367.633C71.9183 368.12 71.4575 368.401 70.8431 368.401C69.9523 368.401 69.5171 367.71 69.5171 367.07C69.5171 366.43 69.9062 365.739 70.7971 365.739C71.7289 365.739 72.1231 366.43 72.1231 367.004ZM70.2697 366.753H71.3193C71.2937 366.492 71.1299 366.297 70.7971 366.297C70.5257 366.297 70.3414 366.451 70.2697 366.753Z" fill="#091016"/>
</g>
</g>
<defs>
<filter id="filter0_d_939_10474" x="11" y="9" width="200" height="386.453" filterUnits="userSpaceOnUse" color-interpolation-filters="sRGB">
<feFlood flood-opacity="0" result="BackgroundImageFix"/>
<feColorMatrix in="SourceAlpha" type="matrix" values="0 0 0 0 0 0 0 0 0 0 0 0 0 0 0 0 0 0 127 0" result="hardAlpha"/>
<feOffset dy="2"/>
<feGaussianBlur stdDeviation="10"/>
<feComposite in2="hardAlpha" operator="out"/>
<feColorMatrix type="matrix" values="0 0 0 0 0.00392157 0 0 0 0 0.298039 0 0 0 0 0.572549 0 0 0 0.1 0"/>
<feBlend mode="normal" in2="BackgroundImageFix" result="effect1_dropShadow_939_10474"/>
<feBlend mode="normal" in="SourceGraphic" in2="effect1_dropShadow_939_10474" result="shape"/>
</filter>
<filter id="filter1_d_939_10474" x="40.3867" y="151.586" width="142.507" height="29.0131" filterUnits="userSpaceOnUse" color-interpolation-filters="sRGB">
<feFlood flood-opacity="0" result="BackgroundImageFix"/>
<feColorMatrix in="SourceAlpha" type="matrix" values="0 0 0 0 0 0 0 0 0 0 0 0 0 0 0 0 0 0 127 0" result="hardAlpha"/>
<feOffset/>
<feGaussianBlur stdDeviation="0.64"/>
<feColorMatrix type="matrix" values="0 0 0 0 0 0 0 0 0 0 0 0 0 0 0 0 0 0 0.15 0"/>
<feBlend mode="normal" in2="BackgroundImageFix" result="effect1_dropShadow_939_10474"/>
<feBlend mode="normal" in="SourceGraphic" in2="effect1_dropShadow_939_10474" result="shape"/>
</filter>
<filter id="filter2_d_939_10474" x="22.4667" y="332.493" width="177.067" height="47.7864" filterUnits="userSpaceOnUse" color-interpolation-filters="sRGB">
<feFlood flood-opacity="0" result="BackgroundImageFix"/>
<feColorMatrix in="SourceAlpha" type="matrix" values="0 0 0 0 0 0 0 0 0 0 0 0 0 0 0 0 0 0 127 0" result="hardAlpha"/>
<feOffset dy="-1.70667"/>
<feGaussianBlur stdDeviation="4.26667"/>
<feComposite in2="hardAlpha" operator="out"/>
<feColorMatrix type="matrix" values="0 0 0 0 0.0040625 0 0 0 0 0.167963 0 0 0 0 0.320937 0 0 0 0.1 0"/>
<feBlend mode="normal" in2="BackgroundImageFix" result="effect1_dropShadow_939_10474"/>
<feBlend mode="normal" in="SourceGraphic" in2="effect1_dropShadow_939_10474" result="shape"/>
</filter>
<clipPath id="clip0_939_10474">
<rect x="31" y="27" width="160" height="346.453" rx="8.59" fill="white"/>
</clipPath>
<clipPath id="clip1_939_10474">
<rect width="8.53333" height="8.53333" fill="white" transform="translate(46.3601 158.84)"/>
</clipPath>
<clipPath id="clip2_939_10474">
<rect width="8.53333" height="8.53333" fill="white" transform="translate(166.68 115.066)"/>
</clipPath>
</defs>
</svg>
