<svg viewBox="0 0 222 400" fill="none" xmlns="http://www.w3.org/2000/svg">
<rect width="222" height="400" rx="23.0739" fill="#F0F8FF"/>
<g filter="url(#filter0_d_940_7096)">
<rect x="31" y="27" width="160" height="346.453" rx="8.59" fill="white"/>
<path d="M55.9441 173.96V166.792H57.3573L60.4293 171.769V166.792H61.7297V173.96H60.3166L57.2549 168.994V173.96H55.9441ZM65.4596 174.042C63.8929 174.042 62.7665 172.915 62.7665 171.379C62.7665 169.843 63.8929 168.717 65.4596 168.717C67.0263 168.717 68.1527 169.843 68.1527 171.379C68.1527 172.915 67.0263 174.042 65.4596 174.042ZM65.4596 172.926C66.289 172.926 66.8522 172.301 66.8522 171.379C66.8522 170.458 66.289 169.833 65.4596 169.833C64.6199 169.833 64.0669 170.458 64.0669 171.379C64.0669 172.301 64.6199 172.926 65.4596 172.926ZM72.2281 168.011C71.7673 168.011 71.4293 167.662 71.4293 167.212C71.4293 166.771 71.7673 166.423 72.2281 166.423C72.6991 166.423 73.0473 166.771 73.0473 167.212C73.0473 167.662 72.6991 168.011 72.2281 168.011ZM71.5829 173.96V168.799H72.8732V173.96H71.5829ZM74.1229 173.96V168.799H75.4132V169.577C75.7409 169.075 76.3245 168.717 77.0516 168.717C78.178 168.717 78.9357 169.454 78.9357 170.581V173.96H77.6455V170.888C77.6455 170.284 77.2666 169.864 76.6625 169.864C75.874 169.864 75.4132 170.54 75.4132 171.697V173.96H74.1229ZM83.0747 173.909C82.8187 174.001 82.5422 174.042 82.2453 174.042C81.2008 174.042 80.4225 173.479 80.4225 172.27V169.884H79.5521V168.799H80.4225V167.283H81.7128V168.799H83.0133V169.884H81.7128V172.147C81.7128 172.639 81.979 172.905 82.3784 172.905C82.5729 172.905 82.7982 172.875 82.9825 172.782L83.0747 173.909ZM88.7269 171.205C88.7269 171.39 88.7167 171.615 88.7065 171.717H84.8767C84.9893 172.496 85.4911 172.956 86.2284 172.956C86.8325 172.956 87.2626 172.67 87.3957 172.168L88.6041 172.496C88.3173 173.468 87.4162 174.042 86.2079 174.042C84.4978 174.042 83.5865 172.721 83.5865 171.379C83.5865 170.038 84.4261 168.717 86.1362 168.717C87.877 168.717 88.7269 170.007 88.7269 171.205ZM84.9074 170.775H87.3445C87.2831 170.161 86.8837 169.7 86.1362 169.7C85.5013 169.7 85.0508 170.079 84.9074 170.775ZM93.0309 170.048C92.8466 169.966 92.6009 169.925 92.3756 169.925C91.6485 169.925 90.9932 170.53 90.9932 172.066V173.96H89.7029V168.799H90.9932V169.741C91.2492 169.157 91.925 168.717 92.5497 168.717C92.734 168.717 92.9593 168.748 93.1129 168.799L93.0309 170.048ZM93.8629 173.96V168.799H95.1532V169.577C95.4809 169.075 96.0645 168.717 96.7916 168.717C97.918 168.717 98.6757 169.454 98.6757 170.581V173.96H97.3855V170.888C97.3855 170.284 97.0066 169.864 96.4025 169.864C95.614 169.864 95.1532 170.54 95.1532 171.697V173.96H93.8629ZM104.787 171.205C104.787 171.39 104.777 171.615 104.766 171.717H100.937C101.049 172.496 101.551 172.956 102.288 172.956C102.893 172.956 103.323 172.67 103.456 172.168L104.664 172.496C104.377 173.468 103.476 174.042 102.268 174.042C100.558 174.042 99.6465 172.721 99.6465 171.379C99.6465 170.038 100.486 168.717 102.196 168.717C103.937 168.717 104.787 170.007 104.787 171.205ZM100.967 170.775H103.405C103.343 170.161 102.944 169.7 102.196 169.7C101.561 169.7 101.111 170.079 100.967 170.775ZM108.735 173.909C108.479 174.001 108.202 174.042 107.905 174.042C106.861 174.042 106.083 173.479 106.083 172.27V169.884H105.212V168.799H106.083V167.283H107.373V168.799H108.673V169.884H107.373V172.147C107.373 172.639 107.639 172.905 108.038 172.905C108.233 172.905 108.458 172.875 108.643 172.782L108.735 173.909ZM114.428 174.042C112.882 174.042 111.806 172.956 111.806 171.379C111.806 169.803 112.882 168.717 114.428 168.717C115.749 168.717 116.681 169.403 116.855 170.499L115.595 170.745C115.503 170.202 115.073 169.833 114.469 169.833C113.67 169.833 113.148 170.437 113.148 171.379C113.148 172.322 113.67 172.926 114.469 172.926C115.073 172.926 115.472 172.598 115.595 172.045L116.855 172.301C116.66 173.387 115.728 174.042 114.428 174.042ZM120.24 174.042C118.673 174.042 117.546 172.915 117.546 171.379C117.546 169.843 118.673 168.717 120.24 168.717C121.806 168.717 122.933 169.843 122.933 171.379C122.933 172.915 121.806 174.042 120.24 174.042ZM120.24 172.926C121.069 172.926 121.632 172.301 121.632 171.379C121.632 170.458 121.069 169.833 120.24 169.833C119.4 169.833 118.847 170.458 118.847 171.379C118.847 172.301 119.4 172.926 120.24 172.926ZM123.903 173.96V168.799H125.193V169.577C125.521 169.075 126.105 168.717 126.832 168.717C127.958 168.717 128.716 169.454 128.716 170.581V173.96H127.426V170.888C127.426 170.284 127.047 169.864 126.442 169.864C125.654 169.864 125.193 170.54 125.193 171.697V173.96H123.903ZM129.963 173.96V168.799H131.253V169.577C131.581 169.075 132.165 168.717 132.892 168.717C134.018 168.717 134.776 169.454 134.776 170.581V173.96H133.486V170.888C133.486 170.284 133.107 169.864 132.502 169.864C131.714 169.864 131.253 170.54 131.253 171.697V173.96H129.963ZM140.887 171.205C140.887 171.39 140.877 171.615 140.866 171.717H137.037C137.149 172.496 137.651 172.956 138.388 172.956C138.993 172.956 139.423 172.67 139.556 172.168L140.764 172.496C140.477 173.468 139.576 174.042 138.368 174.042C136.658 174.042 135.746 172.721 135.746 171.379C135.746 170.038 136.586 168.717 138.296 168.717C140.037 168.717 140.887 170.007 140.887 171.205ZM137.067 170.775H139.505C139.443 170.161 139.044 169.7 138.296 169.7C137.661 169.7 137.211 170.079 137.067 170.775ZM144.208 174.042C142.662 174.042 141.586 172.956 141.586 171.379C141.586 169.803 142.662 168.717 144.208 168.717C145.529 168.717 146.461 169.403 146.635 170.499L145.375 170.745C145.283 170.202 144.853 169.833 144.249 169.833C143.45 169.833 142.928 170.437 142.928 171.379C142.928 172.322 143.45 172.926 144.249 172.926C144.853 172.926 145.252 172.598 145.375 172.045L146.635 172.301C146.44 173.387 145.508 174.042 144.208 174.042ZM150.575 173.909C150.319 174.001 150.042 174.042 149.745 174.042C148.701 174.042 147.923 173.479 147.923 172.27V169.884H147.052V168.799H147.923V167.283H149.213V168.799H150.513V169.884H149.213V172.147C149.213 172.639 149.479 172.905 149.878 172.905C150.073 172.905 150.298 172.875 150.483 172.782L150.575 173.909ZM152.108 168.011C151.647 168.011 151.309 167.662 151.309 167.212C151.309 166.771 151.647 166.423 152.108 166.423C152.579 166.423 152.927 166.771 152.927 167.212C152.927 167.662 152.579 168.011 152.108 168.011ZM151.463 173.96V168.799H152.753V173.96H151.463ZM156.42 174.042C154.853 174.042 153.726 172.915 153.726 171.379C153.726 169.843 154.853 168.717 156.42 168.717C157.986 168.717 159.113 169.843 159.113 171.379C159.113 172.915 157.986 174.042 156.42 174.042ZM156.42 172.926C157.249 172.926 157.812 172.301 157.812 171.379C157.812 170.458 157.249 169.833 156.42 169.833C155.58 169.833 155.027 170.458 155.027 171.379C155.027 172.301 155.58 172.926 156.42 172.926ZM160.083 173.96V168.799H161.373V169.577C161.701 169.075 162.285 168.717 163.012 168.717C164.138 168.717 164.896 169.454 164.896 170.581V173.96H163.606V170.888C163.606 170.284 163.227 169.864 162.622 169.864C161.834 169.864 161.373 170.54 161.373 171.697V173.96H160.083Z" fill="black"/>
<g filter="url(#filter1_d_940_7096)">
<rect x="45.9331" y="191.266" width="129.707" height="61.8667" rx="1.33686" fill="white"/>
</g>
<path d="M64.7784 204.24V199.462H66.5943C67.5227 199.462 68.1234 200.008 68.1234 200.847C68.1234 201.687 67.5227 202.233 66.5943 202.233H65.3996V204.24H64.7784ZM65.3996 201.673H66.5738C67.1404 201.673 67.4817 201.366 67.4817 200.847C67.4817 200.329 67.1404 200.015 66.5738 200.015H65.3996V201.673ZM69.8362 204.288C69.2218 204.349 68.7644 204.117 68.7644 203.401V199.407H69.3447V203.36C69.3447 203.735 69.5222 203.79 69.8089 203.769L69.8362 204.288ZM73.624 202.363C73.624 202.445 73.6172 202.568 73.6104 202.629H70.8934C70.9343 203.325 71.3712 203.783 71.9925 203.783C72.5181 203.783 72.8799 203.537 72.9823 203.107L73.5285 203.237C73.3578 203.906 72.7844 204.295 71.9925 204.295C70.9616 204.295 70.3131 203.496 70.3131 202.52C70.3131 201.544 70.9412 200.745 71.9788 200.745C72.996 200.745 73.624 201.475 73.624 202.363ZM70.9275 202.144H73.0096C72.955 201.619 72.5864 201.23 71.9788 201.23C71.4395 201.23 71.0436 201.571 70.9275 202.144ZM75.6212 200.745C76.454 200.745 77.0343 201.237 77.0343 202.035V204.24H76.4608V203.653C76.2629 204.049 75.8123 204.295 75.314 204.295C74.6245 204.295 74.1534 203.872 74.1534 203.278C74.1534 202.615 74.6927 202.254 75.7918 202.144L76.4608 202.069V202.001C76.4608 201.53 76.1263 201.23 75.6212 201.23C75.1501 201.23 74.8156 201.51 74.7678 201.974L74.2285 201.871C74.3309 201.189 74.8975 200.745 75.6212 200.745ZM75.4027 203.817C76.0717 203.817 76.4608 203.373 76.4608 202.684V202.52L75.7918 202.595C75.0955 202.67 74.7337 202.909 74.7337 203.271C74.7337 203.592 75.0068 203.817 75.4027 203.817ZM79.1314 204.295C78.2986 204.295 77.848 203.776 77.6978 203.291L78.1962 203.073C78.3259 203.476 78.599 203.803 79.1314 203.803C79.5547 203.803 79.8278 203.558 79.8278 203.278C79.8278 202.397 77.848 202.964 77.848 201.66C77.848 201.114 78.3191 200.745 79.0564 200.745C79.6639 200.745 80.1896 201.086 80.3329 201.591L79.8482 201.803C79.7527 201.448 79.4113 201.223 79.0427 201.223C78.6536 201.223 78.4078 201.38 78.4078 201.653C78.4078 202.39 80.4012 201.851 80.3944 203.271C80.3944 203.872 79.8892 204.295 79.1314 204.295ZM84.2174 202.363C84.2174 202.445 84.2105 202.568 84.2037 202.629H81.4867C81.5277 203.325 81.9646 203.783 82.5858 203.783C83.1114 203.783 83.4733 203.537 83.5757 203.107L84.1218 203.237C83.9511 203.906 83.3777 204.295 82.5858 204.295C81.555 204.295 80.9064 203.496 80.9064 202.52C80.9064 201.544 81.5345 200.745 82.5721 200.745C83.5893 200.745 84.2174 201.475 84.2174 202.363ZM81.5208 202.144H83.603C83.5484 201.619 83.1797 201.23 82.5721 201.23C82.0328 201.23 81.6369 201.571 81.5208 202.144ZM86.6111 204.24V200.8H87.1913V201.448C87.362 201.039 87.7033 200.745 88.229 200.745C88.7888 200.745 89.2257 201.004 89.3486 201.469C89.5329 201.059 89.9425 200.745 90.4613 200.745C91.1986 200.745 91.6628 201.209 91.6628 201.933V204.24H91.0825V202.049C91.0825 201.578 90.8163 201.257 90.3316 201.257C89.7445 201.257 89.4237 201.783 89.4237 202.513V204.24H88.8434V202.049C88.8434 201.578 88.5772 201.257 88.0993 201.257C87.5122 201.257 87.1913 201.783 87.1913 202.513V204.24H86.6111ZM93.8878 200.745C94.7207 200.745 95.3009 201.237 95.3009 202.035V204.24H94.7275V203.653C94.5295 204.049 94.079 204.295 93.5806 204.295C92.8911 204.295 92.4201 203.872 92.4201 203.278C92.4201 202.615 92.9594 202.254 94.0585 202.144L94.7275 202.069V202.001C94.7275 201.53 94.393 201.23 93.8878 201.23C93.4168 201.23 93.0823 201.51 93.0345 201.974L92.4952 201.871C92.5976 201.189 93.1642 200.745 93.8878 200.745ZM93.6694 203.817C94.3384 203.817 94.7275 203.373 94.7275 202.684V202.52L94.0585 202.595C93.3622 202.67 93.0004 202.909 93.0004 203.271C93.0004 203.592 93.2734 203.817 93.6694 203.817ZM98.586 204.24L97.2889 202.547L96.8315 202.964V204.24H96.2444V199.407H96.8315V202.199L98.4221 200.8H99.1935L97.719 202.158L99.3096 204.24H98.586ZM102.824 202.363C102.824 202.445 102.817 202.568 102.81 202.629H100.093C100.134 203.325 100.571 203.783 101.192 203.783C101.718 203.783 102.08 203.537 102.182 203.107L102.728 203.237C102.558 203.906 101.984 204.295 101.192 204.295C100.162 204.295 99.5131 203.496 99.5131 202.52C99.5131 201.544 100.141 200.745 101.179 200.745C102.196 200.745 102.824 201.475 102.824 202.363ZM100.127 202.144H102.21C102.155 201.619 101.786 201.23 101.179 201.23C100.639 201.23 100.244 201.571 100.127 202.144ZM106.371 204.295C105.539 204.295 105.088 203.776 104.938 203.291L105.436 203.073C105.566 203.476 105.839 203.803 106.371 203.803C106.795 203.803 107.068 203.558 107.068 203.278C107.068 202.397 105.088 202.964 105.088 201.66C105.088 201.114 105.559 200.745 106.296 200.745C106.904 200.745 107.43 201.086 107.573 201.591L107.088 201.803C106.993 201.448 106.651 201.223 106.283 201.223C105.894 201.223 105.648 201.38 105.648 201.653C105.648 202.39 107.641 201.851 107.634 203.271C107.634 203.872 107.129 204.295 106.371 204.295ZM111.361 200.8V204.24H110.781V203.592C110.542 204.001 110.126 204.295 109.6 204.295C108.883 204.295 108.371 203.81 108.371 203.08V200.8H108.951V202.97C108.951 203.435 109.245 203.769 109.73 203.769C110.371 203.769 110.781 203.216 110.781 202.308V200.8H111.361ZM114.318 201.366C114.189 201.312 114.025 201.284 113.875 201.284C113.328 201.284 112.885 201.81 112.885 202.93V204.24H112.304V200.8H112.885V201.496C113.083 201.059 113.533 200.745 113.956 200.745C114.1 200.745 114.236 200.765 114.352 200.806L114.318 201.366ZM117.871 202.363C117.871 202.445 117.864 202.568 117.857 202.629H115.14C115.181 203.325 115.618 203.783 116.239 203.783C116.765 203.783 117.127 203.537 117.229 203.107L117.775 203.237C117.604 203.906 117.031 204.295 116.239 204.295C115.208 204.295 114.56 203.496 114.56 202.52C114.56 201.544 115.188 200.745 116.225 200.745C117.243 200.745 117.871 201.475 117.871 202.363ZM115.174 202.144H117.256C117.202 201.619 116.833 201.23 116.225 201.23C115.686 201.23 115.29 201.571 115.174 202.144ZM122.531 200.8H123.125L121.323 205.483H120.729L121.227 204.192L119.882 200.8H120.51L121.521 203.435L122.531 200.8ZM125.121 204.295C124.097 204.295 123.373 203.551 123.373 202.52C123.373 201.489 124.097 200.745 125.121 200.745C126.138 200.745 126.875 201.489 126.875 202.52C126.875 203.551 126.138 204.295 125.121 204.295ZM125.121 203.776C125.81 203.776 126.274 203.257 126.274 202.52C126.274 201.783 125.81 201.264 125.121 201.264C124.431 201.264 123.967 201.783 123.967 202.52C123.967 203.257 124.431 203.776 125.121 203.776ZM130.608 200.8V204.24H130.028V203.592C129.789 204.001 129.372 204.295 128.847 204.295C128.13 204.295 127.618 203.81 127.618 203.08V200.8H128.198V202.97C128.198 203.435 128.492 203.769 128.976 203.769C129.618 203.769 130.028 203.216 130.028 202.308V200.8H130.608ZM133.198 204.24V199.407H133.778V201.475C134.031 200.984 134.447 200.745 134.952 200.745C135.73 200.745 136.242 201.23 136.242 201.974V204.24H135.662V202.083C135.662 201.578 135.348 201.271 134.822 201.271C134.188 201.271 133.778 201.844 133.778 202.766V204.24H133.198ZM138.468 200.745C139.301 200.745 139.881 201.237 139.881 202.035V204.24H139.308V203.653C139.11 204.049 138.659 204.295 138.161 204.295C137.471 204.295 137 203.872 137 203.278C137 202.615 137.539 202.254 138.638 202.144L139.308 202.069V202.001C139.308 201.53 138.973 201.23 138.468 201.23C137.997 201.23 137.662 201.51 137.614 201.974L137.075 201.871C137.178 201.189 137.744 200.745 138.468 200.745ZM138.249 203.817C138.918 203.817 139.308 203.373 139.308 202.684V202.52L138.638 202.595C137.942 202.67 137.58 202.909 137.58 203.271C137.58 203.592 137.853 203.817 138.249 203.817ZM141.585 204.24L140.329 200.8H140.923L141.878 203.564L142.841 200.8H143.442L142.179 204.24H141.585ZM147.004 202.363C147.004 202.445 146.997 202.568 146.99 202.629H144.273C144.314 203.325 144.751 203.783 145.372 203.783C145.898 203.783 146.26 203.537 146.362 203.107L146.908 203.237C146.738 203.906 146.164 204.295 145.372 204.295C144.342 204.295 143.693 203.496 143.693 202.52C143.693 201.544 144.321 200.745 145.359 200.745C146.376 200.745 147.004 201.475 147.004 202.363ZM144.308 202.144H146.39C146.335 201.619 145.966 201.23 145.359 201.23C144.82 201.23 144.424 201.571 144.308 202.144ZM150.681 200.745C151.514 200.745 152.094 201.237 152.094 202.035V204.24H151.521V203.653C151.323 204.049 150.872 204.295 150.374 204.295C149.684 204.295 149.213 203.872 149.213 203.278C149.213 202.615 149.753 202.254 150.852 202.144L151.521 202.069V202.001C151.521 201.53 151.186 201.23 150.681 201.23C150.21 201.23 149.876 201.51 149.828 201.974L149.289 201.871C149.391 201.189 149.958 200.745 150.681 200.745ZM150.463 203.817C151.132 203.817 151.521 203.373 151.521 202.684V202.52L150.852 202.595C150.156 202.67 149.794 202.909 149.794 203.271C149.794 203.592 150.067 203.817 150.463 203.817ZM65.9048 212.295C65.0719 212.295 64.6214 211.776 64.4712 211.291L64.9695 211.073C65.0992 211.476 65.3723 211.803 65.9048 211.803C66.328 211.803 66.6011 211.558 66.6011 211.278C66.6011 210.397 64.6214 210.964 64.6214 209.66C64.6214 209.114 65.0924 208.745 65.8297 208.745C66.4373 208.745 66.9629 209.086 67.1063 209.591L66.6216 209.803C66.526 209.448 66.1847 209.223 65.816 209.223C65.4269 209.223 65.1811 209.38 65.1811 209.653C65.1811 210.39 67.1745 209.851 67.1677 211.271C67.1677 211.872 66.6625 212.295 65.9048 212.295ZM69.6873 212.213C69.5166 212.274 69.3323 212.295 69.148 212.295C68.5609 212.295 68.1308 211.967 68.1308 211.209V209.312H67.4891V208.8H68.1308V207.755H68.7111V208.8H69.6327V209.312H68.7111V211.23C68.7111 211.592 68.9159 211.769 69.2162 211.769C69.3528 211.769 69.5098 211.749 69.6463 211.68L69.6873 212.213ZM71.5878 208.745C72.4207 208.745 73.0009 209.237 73.0009 210.035V212.24H72.4275V211.653C72.2295 212.049 71.779 212.295 71.2806 212.295C70.5911 212.295 70.1201 211.872 70.1201 211.278C70.1201 210.615 70.6594 210.254 71.7585 210.144L72.4275 210.069V210.001C72.4275 209.53 72.093 209.23 71.5878 209.23C71.1168 209.23 70.7823 209.51 70.7345 209.974L70.1952 209.871C70.2976 209.189 70.8642 208.745 71.5878 208.745ZM71.3694 211.817C72.0384 211.817 72.4275 211.373 72.4275 210.684V210.52L71.7585 210.595C71.0622 210.67 70.7004 210.909 70.7004 211.271C70.7004 211.592 70.9734 211.817 71.3694 211.817ZM75.6442 212.295C75.1391 212.295 74.6817 212.056 74.5247 211.742V212.24H73.9444V207.407H74.5247V209.291C74.7431 208.97 75.1937 208.745 75.6511 208.745C76.716 208.745 77.3031 209.51 77.3031 210.52C77.3031 211.53 76.716 212.295 75.6442 212.295ZM75.5896 211.776C76.2655 211.776 76.7092 211.278 76.7092 210.52C76.7092 209.762 76.2655 209.264 75.5896 209.264C74.9138 209.264 74.4769 209.762 74.4769 210.52C74.4769 211.278 74.9138 211.776 75.5896 211.776ZM79.1162 212.288C78.5018 212.349 78.0444 212.117 78.0444 211.401V207.407H78.6247V211.36C78.6247 211.735 78.8022 211.79 79.0889 211.769L79.1162 212.288ZM82.904 210.363C82.904 210.445 82.8972 210.568 82.8904 210.629H80.1734C80.2143 211.325 80.6512 211.783 81.2725 211.783C81.7981 211.783 82.1599 211.537 82.2623 211.107L82.8085 211.237C82.6378 211.906 82.0644 212.295 81.2725 212.295C80.2416 212.295 79.5931 211.496 79.5931 210.52C79.5931 209.544 80.2212 208.745 81.2588 208.745C82.276 208.745 82.904 209.475 82.904 210.363ZM80.2075 210.144H82.2896C82.235 209.619 81.8664 209.23 81.2588 209.23C80.7195 209.23 80.3236 209.571 80.2075 210.144ZM85.5845 208.151C85.3524 208.151 85.1817 207.974 85.1817 207.748C85.1817 207.516 85.3524 207.339 85.5845 207.339C85.8234 207.339 86.0009 207.516 86.0009 207.748C86.0009 207.974 85.8234 208.151 85.5845 208.151ZM85.2977 212.24V208.8H85.878V212.24H85.2977ZM86.8177 212.24V208.8H87.398V209.448C87.6369 209.039 88.0534 208.745 88.579 208.745C89.2958 208.745 89.8078 209.23 89.8078 209.96V212.24H89.2276V210.069C89.2276 209.605 88.934 209.271 88.4493 209.271C87.8076 209.271 87.398 209.824 87.398 210.732V212.24H86.8177ZM92.454 212.213C92.2833 212.274 92.099 212.295 91.9146 212.295C91.3276 212.295 90.8975 211.967 90.8975 211.209V209.312H90.2558V208.8H90.8975V207.755H91.4777V208.8H92.3993V209.312H91.4777V211.23C91.4777 211.592 91.6825 211.769 91.9829 211.769C92.1194 211.769 92.2765 211.749 92.413 211.68L92.454 212.213ZM96.1574 210.363C96.1574 210.445 96.1505 210.568 96.1437 210.629H93.4267C93.4677 211.325 93.9046 211.783 94.5258 211.783C95.0514 211.783 95.4133 211.537 95.5157 211.107L96.0618 211.237C95.8911 211.906 95.3177 212.295 94.5258 212.295C93.495 212.295 92.8464 211.496 92.8464 210.52C92.8464 209.544 93.4745 208.745 94.5121 208.745C95.5293 208.745 96.1574 209.475 96.1574 210.363ZM93.4608 210.144H95.543C95.4884 209.619 95.1197 209.23 94.5121 209.23C93.9728 209.23 93.5769 209.571 93.4608 210.144ZM98.9183 209.366C98.7886 209.312 98.6247 209.284 98.4745 209.284C97.9284 209.284 97.4847 209.81 97.4847 210.93V212.24H96.9044V208.8H97.4847V209.496C97.6826 209.059 98.1332 208.745 98.5565 208.745C98.6998 208.745 98.8364 208.765 98.9524 208.806L98.9183 209.366ZM99.5177 212.24V208.8H100.098V209.448C100.337 209.039 100.753 208.745 101.279 208.745C101.996 208.745 102.508 209.23 102.508 209.96V212.24H101.928V210.069C101.928 209.605 101.634 209.271 101.149 209.271C100.508 209.271 100.098 209.824 100.098 210.732V212.24H99.5177ZM106.564 210.363C106.564 210.445 106.557 210.568 106.55 210.629H103.833C103.874 211.325 104.311 211.783 104.932 211.783C105.458 211.783 105.82 211.537 105.922 211.107L106.468 211.237C106.298 211.906 105.724 212.295 104.932 212.295C103.902 212.295 103.253 211.496 103.253 210.52C103.253 209.544 103.881 208.745 104.919 208.745C105.936 208.745 106.564 209.475 106.564 210.363ZM103.868 210.144H105.95C105.895 209.619 105.526 209.23 104.919 209.23C104.38 209.23 103.984 209.571 103.868 210.144ZM109.094 212.213C108.923 212.274 108.739 212.295 108.555 212.295C107.968 212.295 107.537 211.967 107.537 211.209V209.312H106.896V208.8H107.537V207.755H108.118V208.8H109.039V209.312H108.118V211.23C108.118 211.592 108.323 211.769 108.623 211.769C108.759 211.769 108.916 211.749 109.053 211.68L109.094 212.213ZM112.926 212.295C111.902 212.295 111.22 211.585 111.22 210.52C111.22 209.455 111.902 208.745 112.926 208.745C113.725 208.745 114.312 209.182 114.435 209.865L113.862 209.981C113.787 209.564 113.425 209.264 112.94 209.264C112.264 209.264 111.827 209.762 111.827 210.52C111.827 211.278 112.264 211.776 112.94 211.776C113.425 211.776 113.78 211.51 113.875 211.052L114.442 211.168C114.292 211.878 113.718 212.295 112.926 212.295ZM116.714 212.295C115.69 212.295 114.966 211.551 114.966 210.52C114.966 209.489 115.69 208.745 116.714 208.745C117.731 208.745 118.469 209.489 118.469 210.52C118.469 211.551 117.731 212.295 116.714 212.295ZM116.714 211.776C117.404 211.776 117.868 211.257 117.868 210.52C117.868 209.783 117.404 209.264 116.714 209.264C116.025 209.264 115.56 209.783 115.56 210.52C115.56 211.257 116.025 211.776 116.714 211.776ZM119.211 212.24V208.8H119.791V209.448C120.03 209.039 120.447 208.745 120.972 208.745C121.689 208.745 122.201 209.23 122.201 209.96V212.24H121.621V210.069C121.621 209.605 121.327 209.271 120.843 209.271C120.201 209.271 119.791 209.824 119.791 210.732V212.24H119.211ZM123.144 212.24V208.8H123.725V209.448C123.964 209.039 124.38 208.745 124.906 208.745C125.622 208.745 126.134 209.23 126.134 209.96V212.24H125.554V210.069C125.554 209.605 125.261 209.271 124.776 209.271C124.134 209.271 123.725 209.824 123.725 210.732V212.24H123.144ZM130.191 210.363C130.191 210.445 130.184 210.568 130.177 210.629H127.46C127.501 211.325 127.938 211.783 128.559 211.783C129.085 211.783 129.447 211.537 129.549 211.107L130.095 211.237C129.924 211.906 129.351 212.295 128.559 212.295C127.528 212.295 126.88 211.496 126.88 210.52C126.88 209.544 127.508 208.745 128.545 208.745C129.563 208.745 130.191 209.475 130.191 210.363ZM127.494 210.144H129.576C129.522 209.619 129.153 209.23 128.545 209.23C128.006 209.23 127.61 209.571 127.494 210.144ZM132.446 212.295C131.422 212.295 130.74 211.585 130.74 210.52C130.74 209.455 131.422 208.745 132.446 208.745C133.245 208.745 133.832 209.182 133.955 209.865L133.382 209.981C133.307 209.564 132.945 209.264 132.46 209.264C131.784 209.264 131.347 209.762 131.347 210.52C131.347 211.278 131.784 211.776 132.46 211.776C132.945 211.776 133.3 211.51 133.395 211.052L133.962 211.168C133.812 211.878 133.238 212.295 132.446 212.295ZM136.467 212.213C136.297 212.274 136.112 212.295 135.928 212.295C135.341 212.295 134.911 211.967 134.911 211.209V209.312H134.269V208.8H134.911V207.755H135.491V208.8H136.413V209.312H135.491V211.23C135.491 211.592 135.696 211.769 135.996 211.769C136.133 211.769 136.29 211.749 136.426 211.68L136.467 212.213ZM137.431 208.151C137.199 208.151 137.028 207.974 137.028 207.748C137.028 207.516 137.199 207.339 137.431 207.339C137.67 207.339 137.848 207.516 137.848 207.748C137.848 207.974 137.67 208.151 137.431 208.151ZM137.144 212.24V208.8H137.725V212.24H137.144ZM140.214 212.295C139.19 212.295 138.466 211.551 138.466 210.52C138.466 209.489 139.19 208.745 140.214 208.745C141.231 208.745 141.969 209.489 141.969 210.52C141.969 211.551 141.231 212.295 140.214 212.295ZM140.214 211.776C140.904 211.776 141.368 211.257 141.368 210.52C141.368 209.783 140.904 209.264 140.214 209.264C139.525 209.264 139.06 209.783 139.06 210.52C139.06 211.257 139.525 211.776 140.214 211.776ZM142.711 212.24V208.8H143.291V209.448C143.53 209.039 143.947 208.745 144.472 208.745C145.189 208.745 145.701 209.23 145.701 209.96V212.24H145.121V210.069C145.121 209.605 144.827 209.271 144.343 209.271C143.701 209.271 143.291 209.824 143.291 210.732V212.24H142.711ZM149.574 208.745C150.407 208.745 150.988 209.237 150.988 210.035V212.24H150.414V211.653C150.216 212.049 149.766 212.295 149.267 212.295C148.578 212.295 148.107 211.872 148.107 211.278C148.107 210.615 148.646 210.254 149.745 210.144L150.414 210.069V210.001C150.414 209.53 150.08 209.23 149.574 209.23C149.103 209.23 148.769 209.51 148.721 209.974L148.182 209.871C148.284 209.189 148.851 208.745 149.574 208.745ZM149.356 211.817C150.025 211.817 150.414 211.373 150.414 210.684V210.52L149.745 210.595C149.049 210.67 148.687 210.909 148.687 211.271C148.687 211.592 148.96 211.817 149.356 211.817ZM151.931 212.24V208.8H152.511V209.448C152.75 209.039 153.167 208.745 153.692 208.745C154.409 208.745 154.921 209.23 154.921 209.96V212.24H154.341V210.069C154.341 209.605 154.047 209.271 153.563 209.271C152.921 209.271 152.511 209.824 152.511 210.732V212.24H151.931ZM157.325 212.295C156.254 212.295 155.666 211.53 155.666 210.52C155.666 209.51 156.254 208.745 157.318 208.745C157.776 208.745 158.226 208.97 158.445 209.291V207.407H159.025V212.24H158.445V211.742C158.288 212.056 157.83 212.295 157.325 212.295ZM157.38 211.776C158.056 211.776 158.5 211.278 158.5 210.52C158.5 209.762 158.056 209.264 157.38 209.264C156.704 209.264 156.26 209.762 156.26 210.52C156.26 211.278 156.704 211.776 157.38 211.776ZM66.5806 220.213C66.4099 220.274 66.2256 220.295 66.0413 220.295C65.4542 220.295 65.0241 219.967 65.0241 219.209V217.312H64.3824V216.8H65.0241V215.755H65.6044V216.8H66.526V217.312H65.6044V219.23C65.6044 219.592 65.8092 219.769 66.1096 219.769C66.2461 219.769 66.4031 219.749 66.5397 219.68L66.5806 220.213ZM69.2716 217.366C69.1419 217.312 68.9781 217.284 68.8279 217.284C68.2817 217.284 67.838 217.81 67.838 218.93V220.24H67.2577V216.8H67.838V217.496C68.036 217.059 68.4865 216.745 68.9098 216.745C69.0531 216.745 69.1897 216.765 69.3057 216.806L69.2716 217.366ZM72.1375 216.8H72.7314L70.9292 221.483H70.3353L70.8336 220.192L69.4888 216.8H70.1168L71.1272 219.435L72.1375 216.8ZM76.2212 216.745C77.054 216.745 77.6343 217.237 77.6343 218.035V220.24H77.0608V219.653C76.8629 220.049 76.4123 220.295 75.914 220.295C75.2245 220.295 74.7534 219.872 74.7534 219.278C74.7534 218.615 75.2927 218.254 76.3918 218.144L77.0608 218.069V218.001C77.0608 217.53 76.7263 217.23 76.2212 217.23C75.7501 217.23 75.4156 217.51 75.3678 217.974L74.8285 217.871C74.9309 217.189 75.4975 216.745 76.2212 216.745ZM76.0027 219.817C76.6717 219.817 77.0608 219.373 77.0608 218.684V218.52L76.3918 218.595C75.6955 218.67 75.3337 218.909 75.3337 219.271C75.3337 219.592 75.6068 219.817 76.0027 219.817ZM80.3458 219.571C81.0353 219.571 81.5132 219.858 81.5132 220.493C81.5132 221.182 80.8715 221.537 79.9294 221.537C78.9532 221.537 78.3456 221.189 78.3456 220.554C78.3456 220.254 78.5095 220.008 78.7143 219.851C78.5436 219.735 78.4412 219.564 78.4412 219.319C78.4412 219.018 78.6392 218.793 78.9054 218.67C78.7211 218.472 78.6187 218.213 78.6187 217.906C78.6187 217.209 79.1785 216.745 79.9226 216.745C80.1479 216.745 80.3595 216.793 80.5506 216.882L81.09 216.417L81.4245 216.8L80.9671 217.189C81.1309 217.38 81.2265 217.626 81.2265 217.906C81.2265 218.615 80.6735 219.066 79.9226 219.066C79.6768 219.066 79.4652 219.018 79.2809 218.936C79.0829 219.025 79.001 219.141 79.001 219.285C79.001 219.496 79.199 219.571 79.4242 219.571H80.3458ZM79.9226 217.216C79.5266 217.216 79.1853 217.475 79.1853 217.906C79.1853 218.342 79.5266 218.595 79.9226 218.595C80.3185 218.595 80.6599 218.342 80.6599 217.906C80.6599 217.475 80.3185 217.216 79.9226 217.216ZM79.9294 221.046C80.5848 221.046 80.9466 220.861 80.9466 220.534C80.9466 220.165 80.6735 220.042 80.2639 220.042H79.5335C79.4106 220.042 79.2945 220.035 79.1853 220.022C78.9737 220.165 78.9122 220.349 78.9122 220.547C78.9122 220.861 79.2604 221.046 79.9294 221.046ZM83.4478 216.745C84.2807 216.745 84.8609 217.237 84.8609 218.035V220.24H84.2875V219.653C84.0895 220.049 83.639 220.295 83.1406 220.295C82.4511 220.295 81.9801 219.872 81.9801 219.278C81.9801 218.615 82.5194 218.254 83.6185 218.144L84.2875 218.069V218.001C84.2875 217.53 83.953 217.23 83.4478 217.23C82.9768 217.23 82.6423 217.51 82.5945 217.974L82.0552 217.871C82.1576 217.189 82.7242 216.745 83.4478 216.745ZM83.2294 219.817C83.8984 219.817 84.2875 219.373 84.2875 218.684V218.52L83.6185 218.595C82.9222 218.67 82.5603 218.909 82.5603 219.271C82.5603 219.592 82.8334 219.817 83.2294 219.817ZM86.0911 216.151C85.859 216.151 85.6884 215.974 85.6884 215.748C85.6884 215.516 85.859 215.339 86.0911 215.339C86.3301 215.339 86.5076 215.516 86.5076 215.748C86.5076 215.974 86.3301 216.151 86.0911 216.151ZM85.8044 220.24V216.8H86.3847V220.24H85.8044ZM87.3244 220.24V216.8H87.9047V217.448C88.1436 217.039 88.56 216.745 89.0857 216.745C89.8025 216.745 90.3145 217.23 90.3145 217.96V220.24H89.7342V218.069C89.7342 217.605 89.4407 217.271 88.956 217.271C88.3143 217.271 87.9047 217.824 87.9047 218.732V220.24H87.3244ZM91.6742 220.295C91.4284 220.295 91.2577 220.124 91.2577 219.885C91.2577 219.653 91.4284 219.476 91.6742 219.476C91.9063 219.476 92.0906 219.653 92.0906 219.885C92.0906 220.124 91.9063 220.295 91.6742 220.295ZM65.857 236.24L64.4029 231.462H65.0446L66.1847 235.523L67.3384 231.462H67.9869L69.1338 235.523L70.2738 231.462H70.9156L69.4683 236.24H68.8129L67.6661 232.39L66.5055 236.24H65.857ZM74.304 234.363C74.304 234.445 74.2972 234.568 74.2904 234.629H71.5734C71.6143 235.325 72.0512 235.783 72.6725 235.783C73.1981 235.783 73.5599 235.537 73.6623 235.107L74.2085 235.237C74.0378 235.906 73.4644 236.295 72.6725 236.295C71.6416 236.295 70.9931 235.496 70.9931 234.52C70.9931 233.544 71.6211 232.745 72.6588 232.745C73.676 232.745 74.304 233.475 74.304 234.363ZM71.6075 234.144H73.6896C73.635 233.619 73.2664 233.23 72.6588 233.23C72.1195 233.23 71.7235 233.571 71.6075 234.144ZM76.6977 236.24V231.407H77.278V233.475C77.5306 232.984 77.947 232.745 78.4522 232.745C79.2304 232.745 79.7424 233.23 79.7424 233.974V236.24H79.1622V234.083C79.1622 233.578 78.8481 233.271 78.3225 233.271C77.6876 233.271 77.278 233.844 77.278 234.766V236.24H76.6977ZM81.9678 232.745C82.8007 232.745 83.3809 233.237 83.3809 234.035V236.24H82.8075V235.653C82.6095 236.049 82.159 236.295 81.6606 236.295C80.9711 236.295 80.5001 235.872 80.5001 235.278C80.5001 234.615 81.0394 234.254 82.1385 234.144L82.8075 234.069V234.001C82.8075 233.53 82.473 233.23 81.9678 233.23C81.4968 233.23 81.1623 233.51 81.1145 233.974L80.5752 233.871C80.6776 233.189 81.2442 232.745 81.9678 232.745ZM81.7494 235.817C82.4184 235.817 82.8075 235.373 82.8075 234.684V234.52L82.1385 234.595C81.4422 234.67 81.0804 234.909 81.0804 235.271C81.0804 235.592 81.3534 235.817 81.7494 235.817ZM85.0849 236.24L83.8288 232.8H84.4227L85.3784 235.564L86.341 232.8H86.9417L85.6788 236.24H85.0849ZM90.504 234.363C90.504 234.445 90.4972 234.568 90.4904 234.629H87.7734C87.8143 235.325 88.2512 235.783 88.8725 235.783C89.3981 235.783 89.7599 235.537 89.8623 235.107L90.4085 235.237C90.2378 235.906 89.6644 236.295 88.8725 236.295C87.8416 236.295 87.1931 235.496 87.1931 234.52C87.1931 233.544 87.8212 232.745 88.8588 232.745C89.876 232.745 90.504 233.475 90.504 234.363ZM87.8075 234.144H89.8896C89.835 233.619 89.4664 233.23 88.8588 233.23C88.3195 233.23 87.9236 233.571 87.8075 234.144ZM94.0514 236.295C93.2186 236.295 92.768 235.776 92.6178 235.291L93.1162 235.073C93.2459 235.476 93.519 235.803 94.0514 235.803C94.4747 235.803 94.7478 235.558 94.7478 235.278C94.7478 234.397 92.768 234.964 92.768 233.66C92.768 233.114 93.2391 232.745 93.9764 232.745C94.5839 232.745 95.1096 233.086 95.2529 233.591L94.7682 233.803C94.6727 233.448 94.3313 233.223 93.9627 233.223C93.5736 233.223 93.3278 233.38 93.3278 233.653C93.3278 234.39 95.3212 233.851 95.3144 235.271C95.3144 235.872 94.8092 236.295 94.0514 236.295ZM97.3345 232.745C98.1673 232.745 98.7476 233.237 98.7476 234.035V236.24H98.1742V235.653C97.9762 236.049 97.5256 236.295 97.0273 236.295C96.3378 236.295 95.8668 235.872 95.8668 235.278C95.8668 234.615 96.4061 234.254 97.5052 234.144L98.1742 234.069V234.001C98.1742 233.53 97.8397 233.23 97.3345 233.23C96.8634 233.23 96.5289 233.51 96.4812 233.974L95.9418 233.871C96.0442 233.189 96.6109 232.745 97.3345 232.745ZM97.116 235.817C97.785 235.817 98.1742 235.373 98.1742 234.684V234.52L97.5052 234.595C96.8088 234.67 96.447 234.909 96.447 235.271C96.447 235.592 96.7201 235.817 97.116 235.817ZM100.452 236.24L99.1954 232.8H99.7894L100.745 235.564L101.708 232.8H102.308L101.045 236.24H100.452ZM105.871 234.363C105.871 234.445 105.864 234.568 105.857 234.629H103.14C103.181 235.325 103.618 235.783 104.239 235.783C104.765 235.783 105.127 235.537 105.229 235.107L105.775 235.237C105.604 235.906 105.031 236.295 104.239 236.295C103.208 236.295 102.56 235.496 102.56 234.52C102.56 233.544 103.188 232.745 104.225 232.745C105.243 232.745 105.871 233.475 105.871 234.363ZM103.174 234.144H105.256C105.202 233.619 104.833 233.23 104.225 233.23C103.686 233.23 103.29 233.571 103.174 234.144ZM108.079 236.295C107.007 236.295 106.42 235.53 106.42 234.52C106.42 233.51 107.007 232.745 108.072 232.745C108.529 232.745 108.98 232.97 109.198 233.291V231.407H109.778V236.24H109.198V235.742C109.041 236.056 108.584 236.295 108.079 236.295ZM108.133 235.776C108.809 235.776 109.253 235.278 109.253 234.52C109.253 233.762 108.809 233.264 108.133 233.264C107.457 233.264 107.014 233.762 107.014 234.52C107.014 235.278 107.457 235.776 108.133 235.776ZM113.648 232.745C114.481 232.745 115.061 233.237 115.061 234.035V236.24H114.488V235.653C114.29 236.049 113.839 236.295 113.341 236.295C112.651 236.295 112.18 235.872 112.18 235.278C112.18 234.615 112.719 234.254 113.818 234.144L114.488 234.069V234.001C114.488 233.53 114.153 233.23 113.648 233.23C113.177 233.23 112.842 233.51 112.794 233.974L112.255 233.871C112.358 233.189 112.924 232.745 113.648 232.745ZM113.429 235.817C114.098 235.817 114.488 235.373 114.488 234.684V234.52L113.818 234.595C113.122 234.67 112.76 234.909 112.76 235.271C112.76 235.592 113.033 235.817 113.429 235.817ZM117.076 236.288C116.462 236.349 116.004 236.117 116.004 235.401V231.407H116.585V235.36C116.585 235.735 116.762 235.79 117.049 235.769L117.076 236.288ZM118.823 236.288C118.208 236.349 117.751 236.117 117.751 235.401V231.407H118.331V235.36C118.331 235.735 118.509 235.79 118.796 235.769L118.823 236.288ZM123.411 232.8H124.005L122.203 237.483H121.609L122.107 236.192L120.762 232.8H121.39L122.401 235.435L123.411 232.8ZM126.001 236.295C124.977 236.295 124.253 235.551 124.253 234.52C124.253 233.489 124.977 232.745 126.001 232.745C127.018 232.745 127.755 233.489 127.755 234.52C127.755 235.551 127.018 236.295 126.001 236.295ZM126.001 235.776C126.69 235.776 127.154 235.257 127.154 234.52C127.154 233.783 126.69 233.264 126.001 233.264C125.311 233.264 124.847 233.783 124.847 234.52C124.847 235.257 125.311 235.776 126.001 235.776ZM131.488 232.8V236.24H130.908V235.592C130.669 236.001 130.252 236.295 129.727 236.295C129.01 236.295 128.498 235.81 128.498 235.08V232.8H129.078V234.97C129.078 235.435 129.372 235.769 129.856 235.769C130.498 235.769 130.908 235.216 130.908 234.308V232.8H131.488ZM134.445 233.366C134.315 233.312 134.151 233.284 134.001 233.284C133.455 233.284 133.011 233.81 133.011 234.93V236.24H132.431V232.8H133.011V233.496C133.209 233.059 133.66 232.745 134.083 232.745C134.226 232.745 134.363 232.765 134.479 232.806L134.445 233.366ZM138.152 236.295C137.08 236.295 136.493 235.53 136.493 234.52C136.493 233.51 137.08 232.745 138.145 232.745C138.603 232.745 139.053 232.97 139.272 233.291V231.407H139.852V236.24H139.272V235.742C139.115 236.056 138.657 236.295 138.152 236.295ZM138.207 235.776C138.882 235.776 139.326 235.278 139.326 234.52C139.326 233.762 138.882 233.264 138.207 233.264C137.531 233.264 137.087 233.762 137.087 234.52C137.087 235.278 137.531 235.776 138.207 235.776ZM142.074 232.745C142.907 232.745 143.488 233.237 143.488 234.035V236.24H142.914V235.653C142.716 236.049 142.266 236.295 141.767 236.295C141.078 236.295 140.607 235.872 140.607 235.278C140.607 234.615 141.146 234.254 142.245 234.144L142.914 234.069V234.001C142.914 233.53 142.58 233.23 142.074 233.23C141.603 233.23 141.269 233.51 141.221 233.974L140.682 233.871C140.784 233.189 141.351 232.745 142.074 232.745ZM141.856 235.817C142.525 235.817 142.914 235.373 142.914 234.684V234.52L142.245 234.595C141.549 234.67 141.187 234.909 141.187 235.271C141.187 235.592 141.46 235.817 141.856 235.817ZM146.241 236.213C146.07 236.274 145.886 236.295 145.701 236.295C145.114 236.295 144.684 235.967 144.684 235.209V233.312H144.042V232.8H144.684V231.755H145.264V232.8H146.186V233.312H145.264V235.23C145.264 235.592 145.469 235.769 145.77 235.769C145.906 235.769 146.063 235.749 146.2 235.68L146.241 236.213ZM148.141 232.745C148.974 232.745 149.554 233.237 149.554 234.035V236.24H148.981V235.653C148.783 236.049 148.332 236.295 147.834 236.295C147.144 236.295 146.673 235.872 146.673 235.278C146.673 234.615 147.213 234.254 148.312 234.144L148.981 234.069V234.001C148.981 233.53 148.646 233.23 148.141 233.23C147.67 233.23 147.336 233.51 147.288 233.974L146.749 233.871C146.851 233.189 147.418 232.745 148.141 232.745ZM147.923 235.817C148.592 235.817 148.981 235.373 148.981 234.684V234.52L148.312 234.595C147.616 234.67 147.254 234.909 147.254 235.271C147.254 235.592 147.527 235.817 147.923 235.817ZM150.218 236.964L150.614 235.53H151.392L150.627 236.964H150.218ZM156.164 232.8H156.758L154.956 237.483H154.362L154.86 236.192L153.515 232.8H154.144L155.154 235.435L156.164 232.8ZM158.754 236.295C157.73 236.295 157.006 235.551 157.006 234.52C157.006 233.489 157.73 232.745 158.754 232.745C159.771 232.745 160.509 233.489 160.509 234.52C160.509 235.551 159.771 236.295 158.754 236.295ZM158.754 235.776C159.444 235.776 159.908 235.257 159.908 234.52C159.908 233.783 159.444 233.264 158.754 233.264C158.065 233.264 157.6 233.783 157.6 234.52C157.6 235.257 158.065 235.776 158.754 235.776ZM164.241 232.8V236.24H163.661V235.592C163.422 236.001 163.006 236.295 162.48 236.295C161.763 236.295 161.251 235.81 161.251 235.08V232.8H161.831V234.97C161.831 235.435 162.125 235.769 162.61 235.769C163.251 235.769 163.661 235.216 163.661 234.308V232.8H164.241ZM66.2598 244.295C65.2358 244.295 64.5531 243.585 64.5531 242.52C64.5531 241.455 65.2358 240.745 66.2598 240.745C67.0585 240.745 67.6456 241.182 67.7685 241.865L67.195 241.981C67.1199 241.564 66.7581 241.264 66.2734 241.264C65.5976 241.264 65.1607 241.762 65.1607 242.52C65.1607 243.278 65.5976 243.776 66.2734 243.776C66.7581 243.776 67.1131 243.51 67.2087 243.052L67.7753 243.168C67.6251 243.878 67.0517 244.295 66.2598 244.295ZM69.7478 240.745C70.5807 240.745 71.1609 241.237 71.1609 242.035V244.24H70.5875V243.653C70.3895 244.049 69.939 244.295 69.4406 244.295C68.7511 244.295 68.2801 243.872 68.2801 243.278C68.2801 242.615 68.8194 242.254 69.9185 242.144L70.5875 242.069V242.001C70.5875 241.53 70.253 241.23 69.7478 241.23C69.2768 241.23 68.9423 241.51 68.8945 241.974L68.3552 241.871C68.4576 241.189 69.0242 240.745 69.7478 240.745ZM69.5294 243.817C70.1984 243.817 70.5875 243.373 70.5875 242.684V242.52L69.9185 242.595C69.2222 242.67 68.8603 242.909 68.8603 243.271C68.8603 243.592 69.1334 243.817 69.5294 243.817ZM72.1044 244.24V240.8H72.6847V241.448C72.9236 241.039 73.34 240.745 73.8657 240.745C74.5825 240.745 75.0945 241.23 75.0945 241.96V244.24H74.5142V242.069C74.5142 241.605 74.2207 241.271 73.736 241.271C73.0943 241.271 72.6847 241.824 72.6847 242.732V244.24H72.1044ZM77.6844 245.483V240.8H78.2647V241.298C78.449 240.984 78.8996 240.745 79.3979 240.745C80.456 240.745 81.0431 241.51 81.0431 242.52C81.0431 243.53 80.4424 244.295 79.3842 244.295C78.9473 244.295 78.4968 244.076 78.2647 243.762V245.483H77.6844ZM79.3296 243.776C80.0123 243.776 80.456 243.278 80.456 242.52C80.456 241.762 80.0123 241.264 79.3296 241.264C78.6606 241.264 78.2169 241.762 78.2169 242.52C78.2169 243.278 78.6606 243.776 79.3296 243.776ZM82.0711 240.151C81.839 240.151 81.6684 239.974 81.6684 239.748C81.6684 239.516 81.839 239.339 82.0711 239.339C82.3101 239.339 82.4876 239.516 82.4876 239.748C82.4876 239.974 82.3101 240.151 82.0711 240.151ZM81.7844 244.24V240.8H82.3647V244.24H81.7844ZM84.8131 244.295C83.7891 244.295 83.1064 243.585 83.1064 242.52C83.1064 241.455 83.7891 240.745 84.8131 240.745C85.6118 240.745 86.1989 241.182 86.3218 241.865L85.7484 241.981C85.6733 241.564 85.3114 241.264 84.8268 241.264C84.1509 241.264 83.714 241.762 83.714 242.52C83.714 243.278 84.1509 243.776 84.8268 243.776C85.3114 243.776 85.6664 243.51 85.762 243.052L86.3286 243.168C86.1784 243.878 85.605 244.295 84.8131 244.295ZM89.3926 244.24L88.0956 242.547L87.6382 242.964V244.24H87.0511V239.407H87.6382V242.199L89.2288 240.8H90.0002L88.5256 242.158L90.1162 244.24H89.3926ZM95.3145 240.8V244.24H94.7342V243.592C94.4953 244.001 94.0789 244.295 93.5532 244.295C92.8364 244.295 92.3244 243.81 92.3244 243.08V240.8H92.9047V242.97C92.9047 243.435 93.1982 243.769 93.6829 243.769C94.3246 243.769 94.7342 243.216 94.7342 242.308V240.8H95.3145ZM96.2577 245.483V240.8H96.838V241.298C97.0223 240.984 97.4729 240.745 97.9712 240.745C99.0294 240.745 99.6165 241.51 99.6165 242.52C99.6165 243.53 99.0157 244.295 97.9576 244.295C97.5207 244.295 97.0701 244.076 96.838 243.762V245.483H96.2577ZM97.903 243.776C98.5856 243.776 99.0294 243.278 99.0294 242.52C99.0294 241.762 98.5856 241.264 97.903 241.264C97.234 241.264 96.7902 241.762 96.7902 242.52C96.7902 243.278 97.234 243.776 97.903 243.776ZM102.769 244.24L101.718 240.8H102.312L103.056 243.428L103.861 240.8H104.421L105.227 243.428L105.964 240.8H106.571L105.513 244.24H104.947L104.141 241.626L103.336 244.24H102.769ZM107.218 244.24V239.407H107.798V241.475C108.051 240.984 108.467 240.745 108.972 240.745C109.75 240.745 110.262 241.23 110.262 241.974V244.24H109.682V242.083C109.682 241.578 109.368 241.271 108.842 241.271C108.208 241.271 107.798 241.844 107.798 242.766V244.24H107.218ZM114.317 242.363C114.317 242.445 114.311 242.568 114.304 242.629H111.587C111.628 243.325 112.065 243.783 112.686 243.783C113.211 243.783 113.573 243.537 113.676 243.107L114.222 243.237C114.051 243.906 113.478 244.295 112.686 244.295C111.655 244.295 111.006 243.496 111.006 242.52C111.006 241.544 111.634 240.745 112.672 240.745C113.689 240.745 114.317 241.475 114.317 242.363ZM111.621 242.144H113.703C113.648 241.619 113.28 241.23 112.672 241.23C112.133 241.23 111.737 241.571 111.621 242.144ZM117.078 241.366C116.949 241.312 116.785 241.284 116.635 241.284C116.088 241.284 115.645 241.81 115.645 242.93V244.24H115.064V240.8H115.645V241.496C115.843 241.059 116.293 240.745 116.716 240.745C116.86 240.745 116.996 240.765 117.112 240.806L117.078 241.366ZM120.631 242.363C120.631 242.445 120.624 242.568 120.617 242.629H117.9C117.941 243.325 118.378 243.783 118.999 243.783C119.525 243.783 119.887 243.537 119.989 243.107L120.535 243.237C120.364 243.906 119.791 244.295 118.999 244.295C117.968 244.295 117.32 243.496 117.32 242.52C117.32 241.544 117.948 240.745 118.985 240.745C120.003 240.745 120.631 241.475 120.631 242.363ZM117.934 242.144H120.016C119.962 241.619 119.593 241.23 118.985 241.23C118.446 241.23 118.05 241.571 117.934 242.144ZM125.291 240.8H125.885L124.083 245.483H123.489L123.987 244.192L122.642 240.8H123.27L124.281 243.435L125.291 240.8ZM127.881 244.295C126.857 244.295 126.133 243.551 126.133 242.52C126.133 241.489 126.857 240.745 127.881 240.745C128.898 240.745 129.635 241.489 129.635 242.52C129.635 243.551 128.898 244.295 127.881 244.295ZM127.881 243.776C128.57 243.776 129.034 243.257 129.034 242.52C129.034 241.783 128.57 241.264 127.881 241.264C127.191 241.264 126.727 241.783 126.727 242.52C126.727 243.257 127.191 243.776 127.881 243.776ZM133.368 240.8V244.24H132.788V243.592C132.549 244.001 132.132 244.295 131.607 244.295C130.89 244.295 130.378 243.81 130.378 243.08V240.8H130.958V242.97C130.958 243.435 131.252 243.769 131.736 243.769C132.378 243.769 132.788 243.216 132.788 242.308V240.8H133.368ZM137.03 244.288C136.415 244.349 135.958 244.117 135.958 243.401V239.407H136.538V243.36C136.538 243.735 136.716 243.79 137.002 243.769L137.03 244.288ZM140.817 242.363C140.817 242.445 140.811 242.568 140.804 242.629H138.087C138.128 243.325 138.565 243.783 139.186 243.783C139.711 243.783 140.073 243.537 140.176 243.107L140.722 243.237C140.551 243.906 139.978 244.295 139.186 244.295C138.155 244.295 137.506 243.496 137.506 242.52C137.506 241.544 138.134 240.745 139.172 240.745C140.189 240.745 140.817 241.475 140.817 242.363ZM138.121 242.144H140.203C140.148 241.619 139.78 241.23 139.172 241.23C138.633 241.23 138.237 241.571 138.121 242.144ZM141.812 244.24V241.312H141.225V240.8H141.812V240.479C141.812 239.721 142.242 239.318 142.83 239.318C142.987 239.318 143.15 239.332 143.294 239.373L143.266 239.892C143.144 239.844 143.021 239.823 142.905 239.823C142.597 239.823 142.393 240.062 142.393 240.431V240.8H143.273V241.312H142.393V244.24H141.812ZM145.801 244.213C145.63 244.274 145.446 244.295 145.261 244.295C144.674 244.295 144.244 243.967 144.244 243.209V241.312H143.602V240.8H144.244V239.755H144.824V240.8H145.746V241.312H144.824V243.23C144.824 243.592 145.029 243.769 145.33 243.769C145.466 243.769 145.623 243.749 145.76 243.68L145.801 244.213ZM149.674 244.295C148.65 244.295 147.926 243.551 147.926 242.52C147.926 241.489 148.65 240.745 149.674 240.745C150.691 240.745 151.429 241.489 151.429 242.52C151.429 243.551 150.691 244.295 149.674 244.295ZM149.674 243.776C150.364 243.776 150.828 243.257 150.828 242.52C150.828 241.783 150.364 241.264 149.674 241.264C148.985 241.264 148.52 241.783 148.52 242.52C148.52 243.257 148.985 243.776 149.674 243.776ZM152.419 244.24V241.312H151.832V240.8H152.419V240.479C152.419 239.721 152.849 239.318 153.436 239.318C153.593 239.318 153.757 239.332 153.9 239.373L153.873 239.892C153.75 239.844 153.627 239.823 153.511 239.823C153.204 239.823 152.999 240.062 152.999 240.431V240.8H153.88V241.312H152.999V244.24H152.419ZM154.919 244.24V241.312H154.332V240.8H154.919V240.479C154.919 239.721 155.349 239.318 155.936 239.318C156.093 239.318 156.257 239.332 156.4 239.373L156.373 239.892C156.25 239.844 156.127 239.823 156.011 239.823C155.704 239.823 155.499 240.062 155.499 240.431V240.8H156.38V241.312H155.499V244.24H154.919ZM157.001 244.295C156.755 244.295 156.584 244.124 156.584 243.885C156.584 243.653 156.755 243.476 157.001 243.476C157.233 243.476 157.417 243.653 157.417 243.885C157.417 244.124 157.233 244.295 157.001 244.295Z" fill="black"/>
<g clip-path="url(#clip0_940_7096)">
<path d="M54.9042 198.968C52.5542 198.968 50.6487 200.873 50.6487 203.223C50.6487 205.573 52.5542 207.479 54.9042 207.479C57.2543 207.479 59.1598 205.573 59.1598 203.223C59.1598 200.873 57.2543 198.968 54.9042 198.968ZM54.6003 201.172C54.6003 201.13 54.6345 201.096 54.6763 201.096H55.1322C55.174 201.096 55.2082 201.13 55.2082 201.172V203.755C55.2082 203.797 55.174 203.831 55.1322 203.831H54.6763C54.6345 203.831 54.6003 203.797 54.6003 203.755V201.172ZM54.9042 205.351C54.7849 205.349 54.6713 205.3 54.5878 205.214C54.5043 205.129 54.4575 205.014 54.4575 204.895C54.4575 204.776 54.5043 204.661 54.5878 204.576C54.6713 204.491 54.7849 204.442 54.9042 204.439C55.0236 204.442 55.1372 204.491 55.2207 204.576C55.3042 204.661 55.351 204.776 55.351 204.895C55.351 205.014 55.3042 205.129 55.2207 205.214C55.1372 205.3 55.0236 205.349 54.9042 205.351Z" fill="#F05656"/>
</g>
<rect x="41.24" y="346.146" width="139.947" height="18.7733" rx="4.26667" fill="#014C92"/>
<path d="M103.036 358.84H101.815L100.548 356.636H99.6956V358.84H98.6511L98.6435 353.464H100.717C101.769 353.464 102.453 354.086 102.453 355.054C102.453 355.66 102.138 356.175 101.608 356.436L103.036 358.84ZM99.6956 354.362V355.737H100.556C101.093 355.737 101.401 355.484 101.401 355.054C101.401 354.624 101.093 354.362 100.556 354.362H99.6956ZM107.001 356.774C107.001 356.912 106.993 357.081 106.985 357.158H104.113C104.197 357.742 104.574 358.087 105.127 358.087C105.58 358.087 105.902 357.872 106.002 357.496L106.908 357.742C106.693 358.471 106.018 358.901 105.111 358.901C103.829 358.901 103.145 357.911 103.145 356.904C103.145 355.898 103.775 354.908 105.058 354.908C106.363 354.908 107.001 355.875 107.001 356.774ZM104.136 356.451H105.964C105.918 355.991 105.618 355.645 105.058 355.645C104.581 355.645 104.243 355.929 104.136 356.451ZM109.961 358.801C109.769 358.871 109.562 358.901 109.339 358.901C108.556 358.901 107.972 358.479 107.972 357.573V355.783H107.319V354.969H107.972V353.832H108.94V354.969H109.915V355.783H108.94V357.48C108.94 357.849 109.14 358.049 109.439 358.049C109.585 358.049 109.754 358.026 109.892 357.957L109.961 358.801ZM113.124 355.906C112.985 355.845 112.801 355.814 112.632 355.814C112.087 355.814 111.595 356.267 111.595 357.419V358.84H110.628V354.969H111.595V355.676C111.787 355.238 112.294 354.908 112.763 354.908C112.901 354.908 113.07 354.931 113.185 354.969L113.124 355.906ZM116.282 354.969H117.273L115.23 360.238H114.247L114.846 358.686L113.341 354.969H114.393L115.322 357.457L116.282 354.969ZM122.223 354.57L124.458 356.805L122.231 359.032L121.716 358.517L123.014 357.219H119.443V356.39H123.014L121.708 355.092L122.223 354.57Z" fill="#F2F2F2"/>
<g style="mix-blend-mode:multiply">
<path d="M113.845 131.105H110.716C110.284 131.105 109.934 131.44 109.934 131.852V148.279C109.934 148.691 110.284 149.025 110.716 149.025H113.845C114.277 149.025 114.627 148.691 114.627 148.279V131.852C114.627 131.44 114.277 131.105 113.845 131.105Z" fill="#A9CDE3"/>
</g>
<g style="mix-blend-mode:multiply">
<path d="M121.951 125.559H118.823C118.39 125.559 118.04 125.996 118.04 126.536V148.047C118.04 148.587 118.39 149.025 118.823 149.025H121.951C122.383 149.025 122.734 148.587 122.734 148.047V126.536C122.734 125.996 122.383 125.559 121.951 125.559Z" fill="#A9CDE3"/>
</g>
<g style="mix-blend-mode:multiply">
<path d="M105.738 134.945H102.609C102.177 134.945 101.827 135.296 101.827 135.728V148.243C101.827 148.675 102.177 149.025 102.609 149.025H105.738C106.17 149.025 106.52 148.675 106.52 148.243V135.728C106.52 135.296 106.17 134.945 105.738 134.945Z" fill="#A9CDE3"/>
</g>
<g style="mix-blend-mode:multiply">
<path d="M97.6313 139.212H94.5024C94.0704 139.212 93.7202 139.456 93.7202 139.757V148.48C93.7202 148.781 94.0704 149.025 94.5024 149.025H97.6313C98.0633 149.025 98.4135 148.781 98.4135 148.48V139.757C98.4135 139.456 98.0633 139.212 97.6313 139.212Z" fill="#A9CDE3"/>
</g>
<g style="mix-blend-mode:multiply">
<path d="M127.191 120.866C127.039 120.866 126.886 120.873 126.734 120.88C126.63 120.887 126.533 120.894 126.429 120.908C126.318 120.922 126.214 120.936 126.104 120.949C125.986 120.963 125.868 120.991 125.751 121.012C125.64 121.032 125.522 121.06 125.411 121.095C122.178 121.877 119.782 124.792 119.747 128.268V128.282V128.337C119.747 128.497 119.754 128.656 119.761 128.815C119.795 129.293 119.865 129.757 119.982 130.2C120.806 133.413 123.728 135.802 127.191 135.802C127.717 135.802 128.236 135.746 128.735 135.636C129.192 135.546 129.628 135.407 130.05 135.227C132.737 134.099 134.634 131.433 134.634 128.337C134.634 124.217 131.29 120.866 127.191 120.866L127.191 120.866ZM127.752 132.229C127.717 132.312 127.669 132.388 127.606 132.457C127.537 132.52 127.461 132.568 127.378 132.603C127.295 132.637 127.205 132.658 127.115 132.658C127.018 132.658 126.935 132.637 126.845 132.603C126.761 132.568 126.685 132.52 126.623 132.457C126.561 132.388 126.506 132.312 126.471 132.229C126.437 132.146 126.423 132.056 126.423 131.966C126.423 131.786 126.492 131.606 126.624 131.474C126.88 131.218 127.344 131.218 127.607 131.474C127.731 131.606 127.808 131.786 127.808 131.966C127.807 132.056 127.787 132.146 127.752 132.229H127.752ZM127.883 128.926C127.883 129.307 127.572 129.618 127.191 129.618C126.803 129.618 126.498 129.307 126.498 128.926V124.972C126.498 124.592 126.803 124.28 127.191 124.28C127.572 124.28 127.883 124.592 127.883 124.972V128.926Z" fill="#F05656"/>
</g>
</g>
<defs>
<filter id="filter0_d_940_7096" x="11" y="9" width="200" height="386.453" filterUnits="userSpaceOnUse" color-interpolation-filters="sRGB">
<feFlood flood-opacity="0" result="BackgroundImageFix"/>
<feColorMatrix in="SourceAlpha" type="matrix" values="0 0 0 0 0 0 0 0 0 0 0 0 0 0 0 0 0 0 127 0" result="hardAlpha"/>
<feOffset dy="2"/>
<feGaussianBlur stdDeviation="10"/>
<feComposite in2="hardAlpha" operator="out"/>
<feColorMatrix type="matrix" values="0 0 0 0 0.00392157 0 0 0 0 0.298039 0 0 0 0 0.572549 0 0 0 0.1 0"/>
<feBlend mode="normal" in2="BackgroundImageFix" result="effect1_dropShadow_940_7096"/>
<feBlend mode="normal" in="SourceGraphic" in2="effect1_dropShadow_940_7096" result="shape"/>
</filter>
<filter id="filter1_d_940_7096" x="44.6531" y="189.986" width="132.267" height="64.4262" filterUnits="userSpaceOnUse" color-interpolation-filters="sRGB">
<feFlood flood-opacity="0" result="BackgroundImageFix"/>
<feColorMatrix in="SourceAlpha" type="matrix" values="0 0 0 0 0 0 0 0 0 0 0 0 0 0 0 0 0 0 127 0" result="hardAlpha"/>
<feOffset/>
<feGaussianBlur stdDeviation="0.64"/>
<feColorMatrix type="matrix" values="0 0 0 0 0 0 0 0 0 0 0 0 0 0 0 0 0 0 0.15 0"/>
<feBlend mode="normal" in2="BackgroundImageFix" result="effect1_dropShadow_940_7096"/>
<feBlend mode="normal" in="SourceGraphic" in2="effect1_dropShadow_940_7096" result="shape"/>
</filter>
<clipPath id="clip0_940_7096">
<rect width="8.53333" height="8.53333" fill="white" transform="translate(50.6267 198.946)"/>
</clipPath>
</defs>
</svg>
