<svg viewBox="0 0 240 400" fill="none" xmlns="http://www.w3.org/2000/svg">
<rect width="240" height="400" rx="23.0739" fill="#F0F8FF"/>
<g filter="url(#filter0_d_943_9576)">
<g clip-path="url(#clip0_943_9576)">
<rect x="40" y="27" width="160" height="346.453" rx="8.59" fill="white"/>
<path d="M65.6957 61.4795L62.2687 51.9222H64.4669L66.7197 58.8854L68.9861 51.9222H71.1843L67.7573 61.4795H65.6957ZM77.6799 57.8614C77.6799 58.1344 77.6662 58.4621 77.6526 58.6123H72.7101C72.9012 59.4588 73.4747 59.923 74.3212 59.923C75.0038 59.923 75.509 59.609 75.6592 59.0355L77.5434 59.5407C77.1338 60.8378 75.905 61.5887 74.2666 61.5887C71.8909 61.5887 70.7303 59.7455 70.7303 58.0389C70.7303 56.3322 71.768 54.489 74.1437 54.489C76.6286 54.489 77.6799 56.3322 77.6799 57.8614ZM72.7374 57.1923H75.5363C75.468 56.496 75.0311 55.9772 74.1437 55.9772C73.42 55.9772 72.9285 56.3868 72.7374 57.1923ZM83.5405 56.5233C83.3084 56.4141 82.9807 56.3595 82.6667 56.3595C81.7655 56.3595 80.9054 57.0422 80.9054 58.9946V61.4795H78.8983V54.5982H80.9054V55.7861C81.2194 55.0488 82.1069 54.489 82.9261 54.489C83.1582 54.489 83.4722 54.5299 83.6634 54.5982L83.5405 56.5233ZM85.5884 53.6834C84.9057 53.6834 84.4005 53.151 84.4005 52.4819C84.4005 51.8266 84.9057 51.2941 85.5884 51.2941C86.2847 51.2941 86.8172 51.8266 86.8172 52.4819C86.8172 53.151 86.2847 53.6834 85.5884 53.6834ZM84.5917 61.4795V54.5982H86.5987V61.4795H84.5917ZM88.7115 61.4795V56.2639H87.6328V54.5982H88.7115V54.1203C88.7115 52.4683 89.831 51.5535 91.3329 51.5535C91.7288 51.5535 92.0975 51.6081 92.4252 51.731L92.2886 53.3421C92.0429 53.2465 91.8244 53.1919 91.606 53.1919C91.0598 53.1919 90.7185 53.5606 90.7185 54.1613V54.5982H92.2886V56.2639H90.7185V61.4795H88.7115ZM97.937 54.5982H99.985L96.3532 63.9644H94.3052L95.3974 61.1382L92.7487 54.5982H94.9196L96.3941 58.585L97.937 54.5982ZM107.293 61.5887C105.218 61.5887 103.77 60.1278 103.77 58.0389C103.77 55.9499 105.218 54.489 107.293 54.489C109.136 54.489 110.42 55.4174 110.638 56.9329L108.699 57.3152C108.59 56.6326 108.085 56.1957 107.375 56.1957C106.433 56.1957 105.832 56.9193 105.832 58.0389C105.832 59.1584 106.446 59.8821 107.375 59.8821C108.085 59.8821 108.535 59.4725 108.672 58.8444L110.624 59.2403C110.379 60.6876 109.109 61.5887 107.293 61.5887ZM118.494 54.5982V61.4795H116.5V60.5647C116.077 61.1655 115.326 61.5887 114.398 61.5887C112.882 61.5887 111.858 60.6057 111.858 59.0902V54.5982H113.865V58.5577C113.865 59.3086 114.33 59.8138 115.04 59.8138C115.995 59.8138 116.5 59.0355 116.5 57.6156V54.5982H118.494ZM124.7 56.5233C124.468 56.4141 124.141 56.3595 123.827 56.3595C122.926 56.3595 122.065 57.0422 122.065 58.9946V61.4795H120.058V54.5982H122.065V55.7861C122.379 55.0488 123.267 54.489 124.086 54.489C124.318 54.489 124.632 54.5299 124.823 54.5982L124.7 56.5233ZM130.394 56.5233C130.162 56.4141 129.834 56.3595 129.52 56.3595C128.619 56.3595 127.759 57.0422 127.759 58.9946V61.4795H125.752V54.5982H127.759V55.7861C128.073 55.0488 128.96 54.489 129.779 54.489C130.012 54.489 130.326 54.5299 130.517 54.5982L130.394 56.5233ZM137.84 57.8614C137.84 58.1344 137.826 58.4621 137.813 58.6123H132.87C133.061 59.4588 133.635 59.923 134.481 59.923C135.164 59.923 135.669 59.609 135.819 59.0355L137.703 59.5407C137.294 60.8378 136.065 61.5887 134.427 61.5887C132.051 61.5887 130.89 59.7455 130.89 58.0389C130.89 56.3322 131.928 54.489 134.304 54.489C136.789 54.489 137.84 56.3322 137.84 57.8614ZM132.897 57.1923H135.696C135.628 56.496 135.191 55.9772 134.304 55.9772C133.58 55.9772 133.089 56.3868 132.897 57.1923ZM139.058 61.4795V54.5982H141.065V55.513C141.475 54.9122 142.226 54.489 143.168 54.489C144.684 54.489 145.694 55.472 145.694 56.9875V61.4795H143.7V57.52C143.7 56.7691 143.236 56.2639 142.513 56.2639C141.557 56.2639 141.065 57.0422 141.065 58.4621V61.4795H139.058ZM151.319 61.4112C150.991 61.5205 150.609 61.5887 150.199 61.5887C148.711 61.5887 147.578 60.7968 147.578 59.1311V56.2639H146.486V54.5982H147.578V52.6048H149.585V54.5982H151.251V56.2639H149.585V58.8717C149.585 59.4861 149.913 59.8411 150.404 59.8411C150.65 59.8411 150.95 59.8001 151.182 59.6773L151.319 61.4112ZM65.6547 70.489C67.5252 70.489 68.795 71.4584 68.795 73.3971V77.4795H66.8562V76.6057C66.4603 77.2064 65.682 77.5887 64.9174 77.5887C63.5794 77.5887 62.6373 76.6876 62.6373 75.5407C62.6373 74.1754 63.634 73.4381 65.6138 73.2333L66.8562 73.1104V73.0695C66.8562 72.3868 66.392 71.9772 65.6547 71.9772C64.9994 71.9772 64.5215 72.3731 64.4532 73.0422L62.7056 72.7145C62.924 71.3628 64.1802 70.489 65.6547 70.489ZM65.409 76.1551C66.3101 76.1551 66.8426 75.4315 66.8562 74.6259V74.6123V74.5713V74.5167L65.5728 74.6669C64.8901 74.7352 64.5488 75.0765 64.5488 75.4725C64.5488 75.8547 64.8492 76.1551 65.409 76.1551ZM73.5329 77.5887C71.4576 77.5887 70.0103 76.1278 70.0103 74.0389C70.0103 71.9499 71.4576 70.489 73.5329 70.489C75.3761 70.489 76.6595 71.4174 76.878 72.9329L74.9392 73.3152C74.83 72.6326 74.3248 72.1957 73.6148 72.1957C72.6727 72.1957 72.072 72.9193 72.072 74.0389C72.072 75.1584 72.6864 75.8821 73.6148 75.8821C74.3248 75.8821 74.7754 75.4725 74.9119 74.8444L76.8643 75.2403C76.6186 76.6876 75.3488 77.5887 73.5329 77.5887ZM81.2796 77.5887C79.2043 77.5887 77.757 76.1278 77.757 74.0389C77.757 71.9499 79.2043 70.489 81.2796 70.489C83.1228 70.489 84.4062 71.4174 84.6246 72.9329L82.6859 73.3152C82.5766 72.6326 82.0715 72.1957 81.3615 72.1957C80.4194 72.1957 79.8187 72.9193 79.8187 74.0389C79.8187 75.1584 80.4331 75.8821 81.3615 75.8821C82.0715 75.8821 82.522 75.4725 82.6586 74.8444L84.611 75.2403C84.3652 76.6876 83.0955 77.5887 81.2796 77.5887ZM89.1355 77.5887C87.0055 77.5887 85.5037 76.0869 85.5037 74.0389C85.5037 71.9909 87.0055 70.489 89.1355 70.489C91.2381 70.489 92.7672 71.9909 92.7672 74.0389C92.7672 76.0869 91.2381 77.5887 89.1355 77.5887ZM89.1355 75.8821C90.1048 75.8821 90.7602 75.1311 90.7602 74.0389C90.7602 72.9466 90.1048 72.1957 89.1355 72.1957C88.1524 72.1957 87.4971 72.9466 87.4971 74.0389C87.4971 75.1311 88.1524 75.8821 89.1355 75.8821ZM100.601 70.5982V77.4795H98.6071V76.5647C98.1839 77.1655 97.433 77.5887 96.5045 77.5887C94.989 77.5887 93.965 76.6057 93.965 75.0902V70.5982H95.972V74.5577C95.972 75.3086 96.4363 75.8138 97.1462 75.8138C98.102 75.8138 98.6071 75.0355 98.6071 73.6156V70.5982H100.601ZM102.165 77.4795V70.5982H104.172V71.513C104.582 70.9122 105.333 70.489 106.275 70.489C107.79 70.489 108.801 71.472 108.801 72.9875V77.4795H106.807V73.52C106.807 72.7691 106.343 72.2639 105.619 72.2639C104.664 72.2639 104.172 73.0422 104.172 74.4621V77.4795H102.165ZM114.425 77.4112C114.098 77.5205 113.716 77.5887 113.306 77.5887C111.818 77.5887 110.684 76.7968 110.684 75.1311V72.2639H109.592V70.5982H110.684V68.6048H112.692V70.5982H114.357V72.2639H112.692V74.8717C112.692 75.4861 113.019 75.8411 113.511 75.8411C113.756 75.8411 114.057 75.8001 114.289 75.6773L114.425 77.4112ZM124.717 77.4795L121.959 73.3152L121.031 74.2983V77.4795H118.874V67.9222H121.031V71.4174L124.294 67.9222H127.12L123.461 71.7587L127.434 77.4795H124.717ZM130.743 77.4795V73.5337L127.507 67.9222H129.801L131.822 71.513L133.856 67.9222H136.136L132.9 73.5337V77.4795H130.743ZM140.617 77.5887C138.022 77.5887 135.811 75.923 135.811 72.7008C135.811 69.4786 138.063 67.8129 140.617 67.8129C143.006 67.8129 144.672 69.0963 144.945 71.0761L142.801 71.5266C142.583 70.3798 141.709 69.6561 140.603 69.6561C139.156 69.6561 137.982 70.7074 137.982 72.7008C137.982 74.6942 139.142 75.7319 140.603 75.7319C141.723 75.7319 142.528 75.0902 142.747 74.0662L144.917 74.5577C144.467 76.4555 142.869 77.5887 140.617 77.5887Z" fill="#091016"/>
<path d="M163.838 80.5459H195.202C195.305 80.5511 195.407 80.5771 195.501 80.6222C195.595 80.6651 195.679 80.727 195.747 80.804C195.818 80.8802 195.871 80.9701 195.906 81.068C195.937 81.1666 195.951 81.2698 195.947 81.3731V84.4296C195.954 84.5362 195.94 84.6432 195.904 84.7441C195.869 84.845 195.814 84.9376 195.741 85.0163C195.601 85.1674 195.407 85.2579 195.202 85.2686H163.838C163.632 85.2579 163.439 85.1674 163.299 85.0163C163.225 84.9386 163.168 84.8462 163.133 84.745C163.098 84.6439 163.084 84.5364 163.093 84.4296V81.3731C163.086 81.2697 163.1 81.1659 163.134 81.068C163.169 80.9701 163.222 80.8802 163.293 80.804C163.434 80.6504 163.63 80.5578 163.838 80.5459V80.5459Z" fill="#B1CDE2" fill-opacity="0.5"/>
<path d="M163.093 64.4007C163.093 64.2663 163.129 64.1344 163.199 64.0194C163.267 63.9023 163.367 63.8067 163.486 63.7436L179.168 52.4738C179.276 52.4152 179.397 52.3849 179.52 52.3858C179.643 52.3856 179.764 52.4159 179.872 52.4738L195.554 63.7436C195.672 63.8084 195.771 63.9036 195.841 64.0194C195.911 64.1344 195.947 64.2663 195.947 64.4007V68.0674C195.945 68.2647 195.867 68.4538 195.73 68.5954C195.589 68.7344 195.399 68.8124 195.202 68.8124H163.838C163.74 68.8132 163.643 68.7945 163.552 68.7573C163.462 68.7201 163.379 68.6653 163.31 68.5959C163.24 68.5266 163.186 68.4442 163.148 68.3534C163.111 68.2627 163.093 68.1654 163.093 68.0674V64.4007Z" fill="#B1CDE2" fill-opacity="0.5"/>
<g style="mix-blend-mode:multiply">
<g style="mix-blend-mode:multiply">
<path d="M170.72 65.293H166.613V82.893H170.72V65.293Z" fill="#B1CDE2" fill-opacity="0.5"/>
</g>
</g>
<g style="mix-blend-mode:multiply">
<g style="mix-blend-mode:multiply">
<path d="M177.76 65.293H173.653V82.893H177.76V65.293Z" fill="#B1CDE2" fill-opacity="0.5"/>
</g>
</g>
<g style="mix-blend-mode:multiply">
<g style="mix-blend-mode:multiply">
<path d="M192.427 65.293H188.32V82.893H192.427V65.293Z" fill="#B1CDE2" fill-opacity="0.5"/>
</g>
</g>
<g style="mix-blend-mode:multiply">
<g style="mix-blend-mode:multiply">
<path d="M185.328 65.293H181.221V82.893H185.328V65.293Z" fill="#B1CDE2" fill-opacity="0.5"/>
</g>
</g>
<path d="M194.187 68.8129C195.952 68.8128 197.662 68.2009 199.026 67.0814C200.389 65.9619 201.323 64.4042 201.667 62.6736C202.011 60.943 201.745 59.1467 200.913 57.5906C200.081 56.0346 198.735 54.8151 197.105 54.1399C195.475 53.4648 193.661 53.3758 191.972 53.8881C190.284 54.4004 188.825 55.4823 187.845 56.9494C186.865 58.4166 186.424 60.1782 186.597 61.9342C186.77 63.6901 187.547 65.3318 188.794 66.5794C189.502 67.2876 190.343 67.8493 191.269 68.2325C192.194 68.6158 193.186 68.813 194.187 68.8129V68.8129Z" fill="#FFB036" fill-opacity="0.5"/>
<g style="mix-blend-mode:multiply">
<g style="mix-blend-mode:multiply">
<path fill-rule="evenodd" clip-rule="evenodd" d="M190.494 57.2598H197.886V58.1804H194.765C195.169 58.6056 195.43 59.1466 195.511 59.7275H197.886V60.6427H195.495C195.418 61.0897 195.233 61.5111 194.956 61.8701C194.678 62.229 194.317 62.5146 193.904 62.7019L196.16 66.5153H195.114L192.994 62.8981H190.494V61.9665H192.858C193.355 61.9618 193.83 61.7668 194.187 61.4217C194.43 61.1863 194.604 60.8885 194.689 60.561H190.494V59.6349H194.743C194.632 59.2181 194.387 58.8489 194.047 58.5835C193.707 58.318 193.29 58.1708 192.858 58.1641H190.494V57.2598Z" fill="#FFB036" fill-opacity="0.5"/>
</g>
</g>
<path d="M53.8666 53.8799L51.7332 56.0132L53.8666 58.1465" stroke="black" stroke-width="0.853333" stroke-linecap="round" stroke-linejoin="round"/>
<path d="M52.3732 56.0137H57.9199" stroke="black" stroke-width="0.853333" stroke-linecap="round" stroke-linejoin="round"/>
<g filter="url(#filter1_d_943_9576)">
<rect x="50.6667" y="152.866" width="139.947" height="26.4533" rx="1.33686" fill="white"/>
</g>
<g clip-path="url(#clip1_943_9576)">
<path d="M59.6375 158.862C57.2875 158.862 55.382 160.768 55.382 163.118C55.382 165.468 57.2875 167.373 59.6375 167.373C61.9876 167.373 63.8931 165.468 63.8931 163.118C63.8931 160.768 61.9876 158.862 59.6375 158.862ZM59.3336 161.066C59.3336 161.024 59.3678 160.99 59.4096 160.99H59.8655C59.9073 160.99 59.9415 161.024 59.9415 161.066V163.65C59.9415 163.692 59.9073 163.726 59.8655 163.726H59.4096C59.3678 163.726 59.3336 163.692 59.3336 163.65V161.066ZM59.6375 165.246C59.5182 165.243 59.4046 165.194 59.3211 165.109C59.2376 165.024 59.1908 164.909 59.1908 164.79C59.1908 164.67 59.2376 164.556 59.3211 164.471C59.4046 164.385 59.5182 164.336 59.6375 164.334C59.7568 164.336 59.8704 164.385 59.954 164.471C60.0375 164.556 60.0843 164.67 60.0843 164.79C60.0843 164.909 60.0375 165.024 59.954 165.109C59.8704 165.194 59.7568 165.243 59.6375 165.246Z" fill="#F05656"/>
</g>
<path d="M69.4493 164.84V160.659H69.9929V164.35H72.0656V164.84H69.4493ZM73.9197 164.888C73.0237 164.888 72.3905 164.237 72.3905 163.335C72.3905 162.433 73.0237 161.781 73.9197 161.781C74.8097 161.781 75.4548 162.433 75.4548 163.335C75.4548 164.237 74.8097 164.888 73.9197 164.888ZM73.9197 164.434C74.523 164.434 74.9292 163.98 74.9292 163.335C74.9292 162.689 74.523 162.235 73.9197 162.235C73.3164 162.235 72.9102 162.689 72.9102 163.335C72.9102 163.98 73.3164 164.434 73.9197 164.434ZM77.4605 164.888C76.5645 164.888 75.9313 164.237 75.9313 163.335C75.9313 162.433 76.5645 161.781 77.4605 161.781C78.3505 161.781 78.9956 162.433 78.9956 163.335C78.9956 164.237 78.3505 164.888 77.4605 164.888ZM77.4605 164.434C78.0638 164.434 78.47 163.98 78.47 163.335C78.47 162.689 78.0638 162.235 77.4605 162.235C76.8572 162.235 76.451 162.689 76.451 163.335C76.451 163.98 76.8572 164.434 77.4605 164.434ZM81.6942 164.84L80.5593 163.358L80.1591 163.723V164.84H79.6454V160.611H80.1591V163.054L81.5509 161.829H82.2259L80.9356 163.018L82.3274 164.84H81.6942ZM83.7582 164.888C83.0295 164.888 82.6352 164.434 82.5038 164.01L82.9399 163.818C83.0534 164.171 83.2923 164.458 83.7582 164.458C84.1286 164.458 84.3675 164.243 84.3675 163.998C84.3675 163.227 82.6352 163.723 82.6352 162.582C82.6352 162.104 83.0474 161.781 83.6925 161.781C84.2241 161.781 84.6841 162.08 84.8095 162.522L84.3854 162.707C84.3018 162.397 84.0031 162.2 83.6806 162.2C83.3401 162.2 83.125 162.337 83.125 162.576C83.125 163.221 84.8693 162.749 84.8633 163.992C84.8633 164.517 84.4213 164.888 83.7582 164.888ZM87.8865 164.882C87.3489 164.935 86.9487 164.732 86.9487 164.105V160.611H87.4565V164.069C87.4565 164.398 87.6118 164.446 87.8626 164.428L87.8865 164.882ZM88.7279 161.262C88.5248 161.262 88.3755 161.107 88.3755 160.909C88.3755 160.706 88.5248 160.551 88.7279 160.551C88.937 160.551 89.0923 160.706 89.0923 160.909C89.0923 161.107 88.937 161.262 88.7279 161.262ZM88.4771 164.84V161.829H88.9848V164.84H88.4771ZM91.8559 164.84L90.721 163.358L90.3208 163.723V164.84H89.8071V160.611H90.3208V163.054L91.7125 161.829H92.3875L91.0973 163.018L92.4891 164.84H91.8559ZM95.5642 163.197C95.5642 163.269 95.5583 163.376 95.5523 163.43H93.1749C93.2107 164.039 93.593 164.44 94.1366 164.44C94.5965 164.44 94.9131 164.225 95.0027 163.848L95.4806 163.962C95.3313 164.547 94.8295 164.888 94.1366 164.888C93.2346 164.888 92.6672 164.189 92.6672 163.335C92.6672 162.48 93.2167 161.781 94.1247 161.781C95.0147 161.781 95.5642 162.421 95.5642 163.197ZM93.2048 163.006H95.0266C94.9788 162.546 94.6563 162.206 94.1247 162.206C93.6528 162.206 93.3063 162.504 93.2048 163.006ZM99.6419 161.829H100.162L98.5846 165.927H98.0649L98.501 164.798L97.3242 161.829H97.8738L98.7578 164.135L99.6419 161.829ZM101.908 164.888C101.012 164.888 100.379 164.237 100.379 163.335C100.379 162.433 101.012 161.781 101.908 161.781C102.798 161.781 103.443 162.433 103.443 163.335C103.443 164.237 102.798 164.888 101.908 164.888ZM101.908 164.434C102.511 164.434 102.917 163.98 102.917 163.335C102.917 162.689 102.511 162.235 101.908 162.235C101.305 162.235 100.899 162.689 100.899 163.335C100.899 163.98 101.305 164.434 101.908 164.434ZM106.709 161.829V164.84H106.201V164.272C105.992 164.631 105.628 164.888 105.168 164.888C104.541 164.888 104.093 164.464 104.093 163.824V161.829H104.601V163.729C104.601 164.135 104.857 164.428 105.282 164.428C105.843 164.428 106.201 163.944 106.201 163.149V161.829H106.709ZM110.098 161.781C110.827 161.781 111.335 162.212 111.335 162.91V164.84H110.833V164.326C110.66 164.673 110.266 164.888 109.83 164.888C109.226 164.888 108.814 164.517 108.814 163.998C108.814 163.418 109.286 163.102 110.248 163.006L110.833 162.94V162.881C110.833 162.468 110.54 162.206 110.098 162.206C109.686 162.206 109.394 162.451 109.352 162.857L108.88 162.767C108.969 162.17 109.465 161.781 110.098 161.781ZM109.907 164.469C110.493 164.469 110.833 164.081 110.833 163.478V163.335L110.248 163.4C109.638 163.466 109.322 163.675 109.322 163.992C109.322 164.272 109.561 164.469 109.907 164.469ZM113.923 162.325C113.809 162.277 113.666 162.253 113.534 162.253C113.056 162.253 112.668 162.713 112.668 163.693V164.84H112.16V161.829H112.668V162.439C112.841 162.056 113.236 161.781 113.606 161.781C113.731 161.781 113.851 161.799 113.952 161.835L113.923 162.325ZM117.031 163.197C117.031 163.269 117.025 163.376 117.019 163.43H114.642C114.677 164.039 115.06 164.44 115.603 164.44C116.063 164.44 116.38 164.225 116.469 163.848L116.947 163.962C116.798 164.547 116.296 164.888 115.603 164.888C114.701 164.888 114.134 164.189 114.134 163.335C114.134 162.48 114.683 161.781 115.591 161.781C116.481 161.781 117.031 162.421 117.031 163.197ZM114.671 163.006H116.493C116.446 162.546 116.123 162.206 115.591 162.206C115.119 162.206 114.773 162.504 114.671 163.006ZM120.613 164.888C120.171 164.888 119.771 164.679 119.633 164.404V164.84H119.125V160.611H119.633V162.259C119.824 161.979 120.219 161.781 120.619 161.781C121.551 161.781 122.064 162.451 122.064 163.335C122.064 164.219 121.551 164.888 120.613 164.888ZM120.565 164.434C121.156 164.434 121.545 163.998 121.545 163.335C121.545 162.672 121.156 162.235 120.565 162.235C119.974 162.235 119.591 162.672 119.591 163.335C119.591 163.998 119.974 164.434 120.565 164.434ZM125.437 163.197C125.437 163.269 125.431 163.376 125.425 163.43H123.047C123.083 164.039 123.466 164.44 124.009 164.44C124.469 164.44 124.786 164.225 124.875 163.848L125.353 163.962C125.204 164.547 124.702 164.888 124.009 164.888C123.107 164.888 122.54 164.189 122.54 163.335C122.54 162.48 123.089 161.781 123.997 161.781C124.887 161.781 125.437 162.421 125.437 163.197ZM123.077 163.006H124.899C124.851 162.546 124.529 162.206 123.997 162.206C123.525 162.206 123.179 162.504 123.077 163.006ZM127.028 164.882C126.491 164.935 126.09 164.732 126.09 164.105V160.611H126.598V164.069C126.598 164.398 126.753 164.446 127.004 164.428L127.028 164.882ZM128.975 164.888C128.079 164.888 127.445 164.237 127.445 163.335C127.445 162.433 128.079 161.781 128.975 161.781C129.865 161.781 130.51 162.433 130.51 163.335C130.51 164.237 129.865 164.888 128.975 164.888ZM128.975 164.434C129.578 164.434 129.984 163.98 129.984 163.335C129.984 162.689 129.578 162.235 128.975 162.235C128.371 162.235 127.965 162.689 127.965 163.335C127.965 163.98 128.371 164.434 128.975 164.434ZM131.753 164.84L130.833 161.829H131.353L132.004 164.129L132.708 161.829H133.198L133.903 164.129L134.548 161.829H135.08L134.154 164.84H133.658L132.953 162.552L132.249 164.84H131.753ZM137.797 164.84V161.339C137.51 161.602 137.2 161.734 136.805 161.805V161.322C137.224 161.232 137.588 161.017 137.881 160.659H138.311V164.84H137.797ZM140.471 164.888C139.581 164.888 138.972 164.398 138.972 163.639C138.972 163.149 139.282 162.737 139.76 162.588C139.39 162.421 139.145 162.08 139.145 161.71C139.145 161.059 139.665 160.611 140.471 160.611C141.254 160.611 141.773 161.059 141.773 161.71C141.773 162.08 141.528 162.427 141.158 162.588C141.636 162.737 141.947 163.149 141.947 163.639C141.947 164.398 141.337 164.888 140.471 164.888ZM140.471 162.385C140.931 162.385 141.236 162.128 141.242 161.728C141.248 161.328 140.937 161.071 140.471 161.071C139.981 161.071 139.671 161.328 139.677 161.728C139.683 162.128 139.993 162.385 140.471 162.385ZM140.465 164.416C141.033 164.416 141.397 164.105 141.397 163.633C141.397 163.161 141.033 162.851 140.465 162.851C139.892 162.851 139.521 163.161 139.521 163.633C139.521 164.105 139.892 164.416 140.465 164.416ZM146.011 161.829H146.531L144.954 165.927H144.434L144.87 164.798L143.693 161.829H144.243L145.127 164.135L146.011 161.829ZM149.645 163.197C149.645 163.269 149.639 163.376 149.633 163.43H147.256C147.292 164.039 147.674 164.44 148.217 164.44C148.677 164.44 148.994 164.225 149.084 163.848L149.561 163.962C149.412 164.547 148.91 164.888 148.217 164.888C147.315 164.888 146.748 164.189 146.748 163.335C146.748 162.48 147.298 161.781 148.205 161.781C149.096 161.781 149.645 162.421 149.645 163.197ZM147.286 163.006H149.107C149.06 162.546 148.737 162.206 148.205 162.206C147.734 162.206 147.387 162.504 147.286 163.006ZM151.393 161.781C152.121 161.781 152.629 162.212 152.629 162.91V164.84H152.127V164.326C151.954 164.673 151.56 164.888 151.124 164.888C150.52 164.888 150.108 164.517 150.108 163.998C150.108 163.418 150.58 163.102 151.542 163.006L152.127 162.94V162.881C152.127 162.468 151.835 162.206 151.393 162.206C150.98 162.206 150.688 162.451 150.646 162.857L150.174 162.767C150.264 162.17 150.759 161.781 151.393 161.781ZM151.201 164.469C151.787 164.469 152.127 164.081 152.127 163.478V163.335L151.542 163.4C150.933 163.466 150.616 163.675 150.616 163.992C150.616 164.272 150.855 164.469 151.201 164.469ZM155.217 162.325C155.103 162.277 154.96 162.253 154.828 162.253C154.351 162.253 153.962 162.713 153.962 163.693V164.84H153.455V161.829H153.962V162.439C154.136 162.056 154.53 161.781 154.9 161.781C155.026 161.781 155.145 161.799 155.247 161.835L155.217 162.325ZM156.669 164.888C155.94 164.888 155.546 164.434 155.415 164.01L155.851 163.818C155.964 164.171 156.203 164.458 156.669 164.458C157.039 164.458 157.278 164.243 157.278 163.998C157.278 163.227 155.546 163.723 155.546 162.582C155.546 162.104 155.958 161.781 156.603 161.781C157.135 161.781 157.595 162.08 157.72 162.522L157.296 162.707C157.213 162.397 156.914 162.2 156.591 162.2C156.251 162.2 156.036 162.337 156.036 162.576C156.036 163.221 157.78 162.749 157.774 163.992C157.774 164.517 157.332 164.888 156.669 164.888ZM160.983 161.781C161.711 161.781 162.219 162.212 162.219 162.91V164.84H161.717V164.326C161.544 164.673 161.15 164.888 160.714 164.888C160.11 164.888 159.698 164.517 159.698 163.998C159.698 163.418 160.17 163.102 161.132 163.006L161.717 162.94V162.881C161.717 162.468 161.425 162.206 160.983 162.206C160.57 162.206 160.278 162.451 160.236 162.857L159.764 162.767C159.854 162.17 160.349 161.781 160.983 161.781ZM160.791 164.469C161.377 164.469 161.717 164.081 161.717 163.478V163.335L161.132 163.4C160.523 163.466 160.206 163.675 160.206 163.992C160.206 164.272 160.445 164.469 160.791 164.469ZM163.045 164.84V161.829H163.552V162.397C163.761 162.038 164.126 161.781 164.586 161.781C165.213 161.781 165.661 162.206 165.661 162.845V164.84H165.153V162.94C165.153 162.534 164.896 162.241 164.472 162.241C163.911 162.241 163.552 162.725 163.552 163.52V164.84H163.045ZM167.765 164.888C166.827 164.888 166.313 164.219 166.313 163.335C166.313 162.451 166.827 161.781 167.759 161.781C168.159 161.781 168.553 161.979 168.744 162.259V160.611H169.252V164.84H168.744V164.404C168.607 164.679 168.207 164.888 167.765 164.888ZM167.812 164.434C168.404 164.434 168.792 163.998 168.792 163.335C168.792 162.672 168.404 162.235 167.812 162.235C167.221 162.235 166.833 162.672 166.833 163.335C166.833 163.998 167.221 164.434 167.812 164.434ZM171.515 164.84V161.829H172.022V162.397C172.231 162.038 172.596 161.781 173.056 161.781C173.683 161.781 174.131 162.206 174.131 162.845V164.84H173.623V162.94C173.623 162.534 173.366 162.241 172.942 162.241C172.381 162.241 172.022 162.725 172.022 163.52V164.84H171.515ZM176.312 164.888C175.416 164.888 174.783 164.237 174.783 163.335C174.783 162.433 175.416 161.781 176.312 161.781C177.202 161.781 177.847 162.433 177.847 163.335C177.847 164.237 177.202 164.888 176.312 164.888ZM176.312 164.434C176.915 164.434 177.322 163.98 177.322 163.335C177.322 162.689 176.915 162.235 176.312 162.235C175.709 162.235 175.303 162.689 175.303 163.335C175.303 163.98 175.709 164.434 176.312 164.434ZM180.057 164.816C179.908 164.87 179.746 164.888 179.585 164.888C179.071 164.888 178.695 164.601 178.695 163.938V162.277H178.134V161.829H178.695V160.915H179.203V161.829H180.009V162.277H179.203V163.956C179.203 164.272 179.382 164.428 179.645 164.428C179.764 164.428 179.902 164.41 180.021 164.35L180.057 164.816ZM72.1492 170.197C72.1492 170.269 72.1433 170.376 72.1373 170.43H69.7599C69.7957 171.039 70.178 171.44 70.7216 171.44C71.1815 171.44 71.4981 171.225 71.5877 170.848L72.0656 170.962C71.9163 171.547 71.4145 171.888 70.7216 171.888C69.8196 171.888 69.2522 171.189 69.2522 170.335C69.2522 169.48 69.8017 168.781 70.7097 168.781C71.5997 168.781 72.1492 169.421 72.1492 170.197ZM69.7898 170.006H71.6116C71.5638 169.546 71.2413 169.206 70.7097 169.206C70.2378 169.206 69.8913 169.504 69.7898 170.006ZM73.7407 171.882C73.2031 171.935 72.8029 171.732 72.8029 171.105V167.611H73.3106V171.069C73.3106 171.398 73.4659 171.446 73.7168 171.428L73.7407 171.882ZM74.5821 168.262C74.379 168.262 74.2297 168.107 74.2297 167.909C74.2297 167.706 74.379 167.551 74.5821 167.551C74.7912 167.551 74.9465 167.706 74.9465 167.909C74.9465 168.107 74.7912 168.262 74.5821 168.262ZM74.3312 171.84V168.829H74.839V171.84H74.3312ZM77.2083 171.254C77.8116 171.254 78.2298 171.505 78.2298 172.061C78.2298 172.664 77.6683 172.975 76.8439 172.975C75.9898 172.975 75.4581 172.67 75.4581 172.115C75.4581 171.852 75.6015 171.637 75.7807 171.499C75.6314 171.398 75.5418 171.248 75.5418 171.033C75.5418 170.771 75.715 170.573 75.9479 170.466C75.7867 170.293 75.6971 170.066 75.6971 169.797C75.6971 169.188 76.1869 168.781 76.838 168.781C77.0351 168.781 77.2203 168.823 77.3875 168.901L77.8594 168.495L78.1521 168.829L77.7519 169.17C77.8952 169.337 77.9789 169.552 77.9789 169.797C77.9789 170.418 77.495 170.812 76.838 170.812C76.6229 170.812 76.4378 170.771 76.2765 170.699C76.1032 170.777 76.0316 170.878 76.0316 171.004C76.0316 171.189 76.2048 171.254 76.4019 171.254H77.2083ZM76.838 169.194C76.4915 169.194 76.1928 169.421 76.1928 169.797C76.1928 170.179 76.4915 170.4 76.838 170.4C77.1844 170.4 77.4831 170.179 77.4831 169.797C77.4831 169.421 77.1844 169.194 76.838 169.194ZM76.8439 172.545C77.4174 172.545 77.734 172.383 77.734 172.097C77.734 171.774 77.495 171.667 77.1366 171.667H76.4975C76.39 171.667 76.2884 171.661 76.1928 171.649C76.0077 171.774 75.9539 171.935 75.9539 172.109C75.9539 172.383 76.2586 172.545 76.8439 172.545ZM79.0504 168.262C78.8473 168.262 78.698 168.107 78.698 167.909C78.698 167.706 78.8473 167.551 79.0504 167.551C79.2595 167.551 79.4148 167.706 79.4148 167.909C79.4148 168.107 79.2595 168.262 79.0504 168.262ZM78.7996 171.84V168.829H79.3073V171.84H78.7996ZM81.6169 171.888C81.1749 171.888 80.7747 171.679 80.6373 171.404V171.84H80.1296V167.611H80.6373V169.259C80.8284 168.979 81.2227 168.781 81.6229 168.781C82.5547 168.781 83.0684 169.451 83.0684 170.335C83.0684 171.219 82.5547 171.888 81.6169 171.888ZM81.5691 171.434C82.1605 171.434 82.5488 170.998 82.5488 170.335C82.5488 169.672 82.1605 169.235 81.5691 169.235C80.9778 169.235 80.5955 169.672 80.5955 170.335C80.5955 170.998 80.9778 171.434 81.5691 171.434ZM84.6549 171.882C84.1173 171.935 83.7171 171.732 83.7171 171.105V167.611H84.2248V171.069C84.2248 171.398 84.3801 171.446 84.631 171.428L84.6549 171.882ZM87.9692 170.197C87.9692 170.269 87.9633 170.376 87.9573 170.43H85.5799C85.6157 171.039 85.998 171.44 86.5416 171.44C87.0015 171.44 87.3181 171.225 87.4077 170.848L87.8856 170.962C87.7363 171.547 87.2345 171.888 86.5416 171.888C85.6396 171.888 85.0722 171.189 85.0722 170.335C85.0722 169.48 85.6217 168.781 86.5297 168.781C87.4197 168.781 87.9692 169.421 87.9692 170.197ZM85.6098 170.006H87.4316C87.3838 169.546 87.0613 169.206 86.5297 169.206C86.0578 169.206 85.7113 169.504 85.6098 170.006ZM91.6646 171.816C91.5152 171.87 91.354 171.888 91.1927 171.888C90.679 171.888 90.3027 171.601 90.3027 170.938V169.277H89.7412V168.829H90.3027V167.915H90.8104V168.829H91.6168V169.277H90.8104V170.956C90.8104 171.272 90.9896 171.428 91.2524 171.428C91.3719 171.428 91.5093 171.41 91.6287 171.35L91.6646 171.816ZM93.5372 171.888C92.6412 171.888 92.008 171.237 92.008 170.335C92.008 169.433 92.6412 168.781 93.5372 168.781C94.4272 168.781 95.0723 169.433 95.0723 170.335C95.0723 171.237 94.4272 171.888 93.5372 171.888ZM93.5372 171.434C94.1405 171.434 94.5467 170.98 94.5467 170.335C94.5467 169.689 94.1405 169.235 93.5372 169.235C92.9339 169.235 92.5277 169.689 92.5277 170.335C92.5277 170.98 92.9339 171.434 93.5372 171.434ZM98.5188 171.888C97.6228 171.888 96.9897 171.237 96.9897 170.335C96.9897 169.433 97.6228 168.781 98.5188 168.781C99.4089 168.781 100.054 169.433 100.054 170.335C100.054 171.237 99.4089 171.888 98.5188 171.888ZM98.5188 171.434C99.1221 171.434 99.5283 170.98 99.5283 170.335C99.5283 169.689 99.1221 169.235 98.5188 169.235C97.9155 169.235 97.5093 169.689 97.5093 170.335C97.5093 170.98 97.9155 171.434 98.5188 171.434ZM100.704 172.927V168.829H101.211V169.265C101.373 168.991 101.767 168.781 102.203 168.781C103.129 168.781 103.643 169.451 103.643 170.335C103.643 171.219 103.117 171.888 102.191 171.888C101.809 171.888 101.415 171.696 101.211 171.422V172.927H100.704ZM102.143 171.434C102.741 171.434 103.129 170.998 103.129 170.335C103.129 169.672 102.741 169.235 102.143 169.235C101.558 169.235 101.17 169.672 101.17 170.335C101.17 170.998 101.558 171.434 102.143 171.434ZM107.015 170.197C107.015 170.269 107.009 170.376 107.003 170.43H104.626C104.662 171.039 105.044 171.44 105.587 171.44C106.047 171.44 106.364 171.225 106.454 170.848L106.931 170.962C106.782 171.547 106.28 171.888 105.587 171.888C104.685 171.888 104.118 171.189 104.118 170.335C104.118 169.48 104.668 168.781 105.575 168.781C106.466 168.781 107.015 169.421 107.015 170.197ZM104.656 170.006H106.477C106.43 169.546 106.107 169.206 105.575 169.206C105.104 169.206 104.757 169.504 104.656 170.006ZM107.669 171.84V168.829H108.176V169.397C108.386 169.038 108.75 168.781 109.21 168.781C109.837 168.781 110.285 169.206 110.285 169.845V171.84H109.777V169.94C109.777 169.534 109.52 169.241 109.096 169.241C108.535 169.241 108.176 169.725 108.176 170.52V171.84H107.669ZM113.674 168.781C114.403 168.781 114.911 169.212 114.911 169.91V171.84H114.409V171.326C114.236 171.673 113.841 171.888 113.405 171.888C112.802 171.888 112.39 171.517 112.39 170.998C112.39 170.418 112.862 170.102 113.824 170.006L114.409 169.94V169.881C114.409 169.468 114.116 169.206 113.674 169.206C113.262 169.206 112.969 169.451 112.928 169.857L112.456 169.767C112.545 169.17 113.041 168.781 113.674 168.781ZM113.483 171.469C114.068 171.469 114.409 171.081 114.409 170.478V170.335L113.824 170.4C113.214 170.466 112.898 170.675 112.898 170.992C112.898 171.272 113.137 171.469 113.483 171.469ZM118.497 171.888C117.601 171.888 117.004 171.266 117.004 170.335C117.004 169.403 117.601 168.781 118.497 168.781C119.196 168.781 119.71 169.164 119.817 169.761L119.316 169.863C119.25 169.498 118.933 169.235 118.509 169.235C117.918 169.235 117.535 169.672 117.535 170.335C117.535 170.998 117.918 171.434 118.509 171.434C118.933 171.434 119.244 171.201 119.327 170.8L119.823 170.902C119.692 171.523 119.19 171.888 118.497 171.888ZM123.072 168.829V171.84H122.564V171.272C122.355 171.631 121.991 171.888 121.531 171.888C120.903 171.888 120.455 171.464 120.455 170.824V168.829H120.963V170.729C120.963 171.135 121.22 171.428 121.644 171.428C122.206 171.428 122.564 170.944 122.564 170.149V168.829H123.072ZM125.659 169.325C125.546 169.277 125.402 169.253 125.271 169.253C124.793 169.253 124.405 169.713 124.405 170.693V171.84H123.897V168.829H124.405V169.439C124.578 169.056 124.972 168.781 125.343 168.781C125.468 168.781 125.588 168.799 125.689 168.835L125.659 169.325ZM127.946 169.325C127.832 169.277 127.689 169.253 127.558 169.253C127.08 169.253 126.691 169.713 126.691 170.693V171.84H126.184V168.829H126.691V169.439C126.865 169.056 127.259 168.781 127.629 168.781C127.755 168.781 127.874 168.799 127.976 168.835L127.946 169.325ZM131.054 170.197C131.054 170.269 131.048 170.376 131.042 170.43H128.665C128.701 171.039 129.083 171.44 129.627 171.44C130.087 171.44 130.403 171.225 130.493 170.848L130.971 170.962C130.821 171.547 130.32 171.888 129.627 171.888C128.725 171.888 128.157 171.189 128.157 170.335C128.157 169.48 128.707 168.781 129.615 168.781C130.505 168.781 131.054 169.421 131.054 170.197ZM128.695 170.006H130.517C130.469 169.546 130.146 169.206 129.615 169.206C129.143 169.206 128.796 169.504 128.695 170.006ZM131.708 171.84V168.829H132.216V169.397C132.425 169.038 132.789 168.781 133.249 168.781C133.876 168.781 134.324 169.206 134.324 169.845V171.84H133.816V169.94C133.816 169.534 133.56 169.241 133.136 169.241C132.574 169.241 132.216 169.725 132.216 170.52V171.84H131.708ZM136.64 171.816C136.49 171.87 136.329 171.888 136.168 171.888C135.654 171.888 135.278 171.601 135.278 170.938V169.277H134.716V168.829H135.278V167.915H135.785V168.829H136.592V169.277H135.785V170.956C135.785 171.272 135.965 171.428 136.227 171.428C136.347 171.428 136.484 171.41 136.604 171.35L136.64 171.816ZM139.796 168.781C140.525 168.781 141.032 169.212 141.032 169.91V171.84H140.531V171.326C140.357 171.673 139.963 171.888 139.527 171.888C138.924 171.888 138.512 171.517 138.512 170.998C138.512 170.418 138.983 170.102 139.945 170.006L140.531 169.94V169.881C140.531 169.468 140.238 169.206 139.796 169.206C139.384 169.206 139.091 169.451 139.049 169.857L138.577 169.767C138.667 169.17 139.163 168.781 139.796 168.781ZM139.605 171.469C140.19 171.469 140.531 171.081 140.531 170.478V170.335L139.945 170.4C139.336 170.466 139.019 170.675 139.019 170.992C139.019 171.272 139.258 171.469 139.605 171.469ZM143.178 171.888C142.282 171.888 141.685 171.266 141.685 170.335C141.685 169.403 142.282 168.781 143.178 168.781C143.877 168.781 144.391 169.164 144.498 169.761L143.996 169.863C143.931 169.498 143.614 169.235 143.19 169.235C142.599 169.235 142.216 169.672 142.216 170.335C142.216 170.998 142.599 171.434 143.19 171.434C143.614 171.434 143.925 171.201 144.008 170.8L144.504 170.902C144.373 171.523 143.871 171.888 143.178 171.888ZM146.456 171.888C145.56 171.888 144.963 171.266 144.963 170.335C144.963 169.403 145.56 168.781 146.456 168.781C147.155 168.781 147.669 169.164 147.776 169.761L147.275 169.863C147.209 169.498 146.892 169.235 146.468 169.235C145.877 169.235 145.495 169.672 145.495 170.335C145.495 170.998 145.877 171.434 146.468 171.434C146.892 171.434 147.203 171.201 147.287 170.8L147.782 170.902C147.651 171.523 147.149 171.888 146.456 171.888ZM149.77 171.888C148.874 171.888 148.241 171.237 148.241 170.335C148.241 169.433 148.874 168.781 149.77 168.781C150.661 168.781 151.306 169.433 151.306 170.335C151.306 171.237 150.661 171.888 149.77 171.888ZM149.77 171.434C150.374 171.434 150.78 170.98 150.78 170.335C150.78 169.689 150.374 169.235 149.77 169.235C149.167 169.235 148.761 169.689 148.761 170.335C148.761 170.98 149.167 171.434 149.77 171.434ZM154.572 168.829V171.84H154.064V171.272C153.855 171.631 153.491 171.888 153.031 171.888C152.403 171.888 151.955 171.464 151.955 170.824V168.829H152.463V170.729C152.463 171.135 152.72 171.428 153.144 171.428C153.706 171.428 154.064 170.944 154.064 170.149V168.829H154.572ZM155.397 171.84V168.829H155.905V169.397C156.114 169.038 156.478 168.781 156.938 168.781C157.565 168.781 158.013 169.206 158.013 169.845V171.84H157.506V169.94C157.506 169.534 157.249 169.241 156.825 169.241C156.263 169.241 155.905 169.725 155.905 170.52V171.84H155.397ZM160.329 171.816C160.179 171.87 160.018 171.888 159.857 171.888C159.343 171.888 158.967 171.601 158.967 170.938V169.277H158.405V168.829H158.967V167.915H159.475V168.829H160.281V169.277H159.475V170.956C159.475 171.272 159.654 171.428 159.917 171.428C160.036 171.428 160.173 171.41 160.293 171.35L160.329 171.816ZM161.286 171.888C161.071 171.888 160.921 171.738 160.921 171.529C160.921 171.326 161.071 171.171 161.286 171.171C161.489 171.171 161.65 171.326 161.65 171.529C161.65 171.738 161.489 171.888 161.286 171.888Z" fill="#3A3838"/>
<path d="M51.0735 103.826V99.5126H53.9574V100.234H51.9115V101.183H53.5507V101.91H51.9115V103.099H54.0252V103.826H51.0735ZM54.6172 103.826V100.72H55.3937V101.189C55.5909 100.887 55.9421 100.671 56.3797 100.671C57.0575 100.671 57.5135 101.115 57.5135 101.793V103.826H56.7371V101.977C56.7371 101.614 56.5091 101.361 56.1455 101.361C55.671 101.361 55.3937 101.768 55.3937 102.464V103.826H54.6172ZM60.0043 103.795C59.8502 103.851 59.6838 103.875 59.5051 103.875C58.8766 103.875 58.4082 103.537 58.4082 102.809V101.374H57.8845V100.72H58.4082V99.8084H59.1847V100.72H59.9673V101.374H59.1847V102.735C59.1847 103.031 59.3449 103.191 59.5852 103.191C59.7023 103.191 59.8379 103.173 59.9488 103.118L60.0043 103.795ZM63.4057 102.169C63.4057 102.279 63.3995 102.415 63.3934 102.477H61.0887C61.1565 102.945 61.4584 103.222 61.9021 103.222C62.2657 103.222 62.5245 103.05 62.6046 102.748L63.3318 102.945C63.1592 103.53 62.6169 103.875 61.8898 103.875C60.8607 103.875 60.3122 103.081 60.3122 102.273C60.3122 101.466 60.8175 100.671 61.8466 100.671C62.8942 100.671 63.4057 101.448 63.4057 102.169ZM61.1072 101.91H62.5738C62.5368 101.54 62.2965 101.263 61.8466 101.263C61.4646 101.263 61.1934 101.491 61.1072 101.91ZM65.9958 101.472C65.8849 101.423 65.737 101.398 65.6014 101.398C65.1639 101.398 64.7695 101.762 64.7695 102.686V103.826H63.993V100.72H64.7695V101.287C64.9235 100.936 65.3303 100.671 65.7062 100.671C65.8171 100.671 65.9526 100.69 66.0451 100.72L65.9958 101.472ZM68.0138 103.826V99.5126H69.7516C70.6266 99.5126 71.1874 100.03 71.1874 100.831C71.1874 101.626 70.6266 102.144 69.7516 102.144H68.8519V103.826H68.0138ZM68.8519 101.423H69.6776C70.0967 101.423 70.3493 101.201 70.3493 100.831C70.3493 100.455 70.0967 100.234 69.6776 100.234H68.8519V101.423ZM74.1169 103.826L73.7656 102.871H72.0957L71.7444 103.826H70.8817L72.5393 99.5126H73.322L74.9796 103.826H74.1169ZM72.3606 102.162H73.5068L72.9337 100.609L72.3606 102.162ZM75.3916 103.826V99.5126H76.242L78.0906 102.507V99.5126H78.8732V103.826H78.0229L76.1803 100.837V103.826H75.3916Z" fill="#424242"/>
<rect x="50.88" y="108.453" width="139.52" height="21.3333" rx="4.05333" fill="white" stroke="#D8D8D8" stroke-width="0.426667"/>
<path d="M62.115 122.289L61.644 121.074H59.5209L59.0498 122.289H58.4081L60.2991 117.51H60.8657L62.7635 122.289H62.115ZM59.7325 120.521H61.4323L60.5858 118.33L59.7325 120.521ZM63.3117 122.289V117.51H65.0457C65.9468 117.51 66.5066 117.961 66.5066 118.739C66.5066 119.183 66.1994 119.538 65.8785 119.674C66.3632 119.845 66.7182 120.227 66.7182 120.896C66.7182 121.757 66.1311 122.289 65.1481 122.289H63.3117ZM63.9329 119.476H65.0184C65.585 119.476 65.8922 119.238 65.8922 118.76C65.8922 118.282 65.585 118.043 65.0184 118.043H63.9329V119.476ZM63.9329 121.729H65.0457C65.742 121.729 66.097 121.436 66.097 120.883C66.097 120.323 65.742 120.023 65.0457 120.023H63.9329V121.729ZM69.601 122.344C68.3995 122.344 67.2799 121.545 67.2799 119.9C67.2799 118.255 68.4063 117.456 69.601 117.456C70.6455 117.456 71.4169 118.043 71.6148 118.964L71.0004 119.101C70.8503 118.412 70.3383 118.009 69.5941 118.009C68.6248 118.009 67.9216 118.678 67.9216 119.9C67.9216 121.122 68.6248 121.784 69.5941 121.784C70.3383 121.784 70.8229 121.402 70.9936 120.739L71.6148 120.869C71.3759 121.77 70.6318 122.344 69.601 122.344ZM72.2917 122.289V117.51H73.7116C75.0497 117.51 76.1078 118.364 76.1078 119.9C76.1078 121.436 75.0497 122.289 73.7116 122.289H72.2917ZM72.9061 121.729H73.6912C74.6128 121.729 75.4661 121.204 75.4661 119.9C75.4661 118.596 74.6128 118.063 73.6912 118.063H72.9061V121.729ZM76.885 122.289V117.51H79.8956V118.063H77.5063V119.47H79.445V120.029H77.5063V121.729H79.9707V122.289H76.885ZM83.1901 122.289V118.289C82.8624 118.589 82.5074 118.739 82.0569 118.821V118.268C82.5347 118.166 82.9512 117.92 83.2857 117.51H83.7772V122.289H83.1901ZM84.4781 122.289L84.4713 121.75L86.2667 120.2C86.8265 119.715 87.0655 119.319 87.0655 118.889C87.0655 118.357 86.7105 118.009 86.1507 118.009C85.4817 118.009 85.1062 118.48 85.1745 119.19L84.5737 119.149C84.4986 118.145 85.154 117.456 86.1507 117.456C87.0928 117.456 87.7072 118.022 87.7072 118.889C87.7072 119.47 87.3863 120.002 86.649 120.623L85.352 121.729H87.7072V122.289H84.4781ZM89.8773 122.344C88.9353 122.344 88.2594 121.798 88.1707 120.965L88.7578 120.876C88.826 121.429 89.2698 121.784 89.8773 121.784C90.5395 121.784 90.9696 121.388 90.9696 120.787C90.9696 120.166 90.5737 119.804 89.9115 119.804C89.734 119.804 89.536 119.859 89.3858 119.954L89.1196 119.558L90.6283 118.063H88.3072V117.51H91.3587V118.05L90.0002 119.374C90.9423 119.285 91.6113 119.859 91.6113 120.801C91.6113 121.722 90.9287 122.344 89.8773 122.344ZM94.5624 122.289V121.122H92.0434V120.562L94.4668 117.51H95.1836V120.562H95.8731V121.122H95.1836V122.289H94.5624ZM92.7124 120.562H94.5624V118.22L92.7124 120.562ZM98.225 122.289V117.51H101.236V118.063H98.8463V119.47H100.785V120.029H98.8463V121.729H101.311V122.289H98.225Z" fill="#242424"/>
<g clip-path="url(#clip2_943_9576)">
<circle cx="179.947" cy="119.333" r="4.26667" fill="#F17377"/>
<path d="M177.813 121.466L182.08 117.199" stroke="#F4F8FB" stroke-width="0.711111" stroke-linecap="round" stroke-linejoin="round"/>
<path d="M182.08 121.466L177.813 117.199" stroke="#F4F8FB" stroke-width="0.711111" stroke-linecap="round" stroke-linejoin="round"/>
</g>
<path d="M51.8495 138.413L50.7589 134.829H51.2402L52.0952 137.875L52.9605 134.829H53.4469L54.3071 137.875L55.1621 134.829H55.6434L54.5579 138.413H54.0664L53.2063 135.525L52.3359 138.413H51.8495ZM58.1847 137.005C58.1847 137.067 58.1796 137.159 58.1745 137.205H56.1367C56.1675 137.727 56.4951 138.07 56.9611 138.07C57.3553 138.07 57.6267 137.886 57.7035 137.563L58.1131 137.66C57.9851 138.162 57.555 138.454 56.9611 138.454C56.1879 138.454 55.7015 137.855 55.7015 137.123C55.7015 136.391 56.1726 135.792 56.9508 135.792C57.7137 135.792 58.1847 136.339 58.1847 137.005ZM56.1623 136.841H57.7239C57.683 136.447 57.4065 136.155 56.9508 136.155C56.5463 136.155 56.2494 136.411 56.1623 136.841ZM60.5535 138.413L59.765 135.833H60.2104L60.7685 137.804L61.3727 135.833H61.7925L62.3967 137.804L62.9496 135.833H63.4053L62.6117 138.413H62.1867L61.5826 136.452L60.9784 138.413H60.5535ZM64.1051 135.346C63.931 135.346 63.803 135.213 63.803 135.044C63.803 134.87 63.931 134.737 64.1051 134.737C64.2843 134.737 64.4174 134.87 64.4174 135.044C64.4174 135.213 64.2843 135.346 64.1051 135.346ZM63.89 138.413V135.833H64.3252V138.413H63.89ZM65.8339 138.449C65.3731 138.495 65.03 138.321 65.03 137.783V134.788H65.4652V137.753C65.4652 138.034 65.5983 138.075 65.8134 138.06L65.8339 138.449ZM67.1439 138.449C66.6831 138.495 66.34 138.321 66.34 137.783V134.788H66.7752V137.753C66.7752 138.034 66.9083 138.075 67.1234 138.06L67.1439 138.449ZM71.1276 135.833V138.413H70.6924V137.927C70.5132 138.234 70.2009 138.454 69.8066 138.454C69.269 138.454 68.885 138.091 68.885 137.543V135.833H69.3202V137.461C69.3202 137.809 69.5404 138.06 69.9039 138.06C70.3852 138.06 70.6924 137.645 70.6924 136.964V135.833H71.1276ZM72.7003 138.454C72.0757 138.454 71.7377 138.065 71.6251 137.701L71.9989 137.538C72.0961 137.84 72.3009 138.085 72.7003 138.085C73.0177 138.085 73.2225 137.901 73.2225 137.691C73.2225 137.031 71.7377 137.456 71.7377 136.478C71.7377 136.068 72.091 135.792 72.644 135.792C73.0997 135.792 73.4939 136.048 73.6014 136.427L73.2379 136.585C73.1662 136.319 72.9102 136.15 72.6337 136.15C72.3419 136.15 72.1576 136.268 72.1576 136.473C72.1576 137.026 73.6526 136.621 73.6475 137.686C73.6475 138.137 73.2686 138.454 72.7003 138.454ZM76.5147 137.005C76.5147 137.067 76.5096 137.159 76.5045 137.205H74.4667C74.4975 137.727 74.8251 138.07 75.2911 138.07C75.6853 138.07 75.9567 137.886 76.0335 137.563L76.4431 137.66C76.3151 138.162 75.885 138.454 75.2911 138.454C74.5179 138.454 74.0315 137.855 74.0315 137.123C74.0315 136.391 74.5026 135.792 75.2808 135.792C76.0437 135.792 76.5147 136.339 76.5147 137.005ZM74.4923 136.841H76.0539C76.013 136.447 75.7365 136.155 75.2808 136.155C74.8763 136.155 74.5794 136.411 74.4923 136.841ZM79.6822 138.393C79.5542 138.439 79.4159 138.454 79.2777 138.454C78.8374 138.454 78.5148 138.208 78.5148 137.64V136.217H78.0335V135.833H78.5148V135.049H78.95V135.833H79.6412V136.217H78.95V137.655C78.95 137.927 79.1036 138.06 79.3289 138.06C79.4313 138.06 79.5491 138.044 79.6515 137.993L79.6822 138.393ZM80.235 138.413V134.788H80.6702V136.339C80.8597 135.971 81.172 135.792 81.5509 135.792C82.1345 135.792 82.5185 136.155 82.5185 136.713V138.413H82.0833V136.795C82.0833 136.416 81.8478 136.186 81.4536 136.186C80.9774 136.186 80.6702 136.616 80.6702 137.307V138.413H80.235ZM85.5597 137.005C85.5597 137.067 85.5546 137.159 85.5495 137.205H83.5117C83.5425 137.727 83.8701 138.07 84.3361 138.07C84.7303 138.07 85.0017 137.886 85.0785 137.563L85.4881 137.66C85.3601 138.162 84.93 138.454 84.3361 138.454C83.5629 138.454 83.0765 137.855 83.0765 137.123C83.0765 136.391 83.5476 135.792 84.3258 135.792C85.0887 135.792 85.5597 136.339 85.5597 137.005ZM83.5373 136.841H85.0989C85.058 136.447 84.7815 136.155 84.3258 136.155C83.9213 136.155 83.6244 136.411 83.5373 136.841ZM87.3755 138.413V134.829H88.7374C89.4337 134.829 89.8843 135.239 89.8843 135.868C89.8843 136.498 89.4337 136.908 88.7374 136.908H87.8414V138.413H87.3755ZM87.8414 136.488H88.7221C89.147 136.488 89.403 136.258 89.403 135.868C89.403 135.479 89.147 135.244 88.7221 135.244H87.8414V136.488ZM92.468 138.413L92.1147 137.502H90.5224L90.1691 138.413H89.6878L91.1061 134.829H91.531L92.9544 138.413H92.468ZM90.6811 137.087H91.956L91.3211 135.443L90.6811 137.087ZM93.3655 138.413V134.829H93.8826L95.69 137.681V134.829H96.1457V138.413H95.6285L93.8212 135.571V138.413H93.3655ZM99.4822 138.393C99.3542 138.439 99.2159 138.454 99.0777 138.454C98.6374 138.454 98.3148 138.208 98.3148 137.64V136.217H97.8335V135.833H98.3148V135.049H98.75V135.833H99.4412V136.217H98.75V137.655C98.75 137.927 98.9036 138.06 99.1289 138.06C99.2313 138.06 99.3491 138.044 99.4515 137.993L99.4822 138.393ZM101.087 138.454C100.319 138.454 99.7765 137.896 99.7765 137.123C99.7765 136.35 100.319 135.792 101.087 135.792C101.85 135.792 102.403 136.35 102.403 137.123C102.403 137.896 101.85 138.454 101.087 138.454ZM101.087 138.065C101.604 138.065 101.953 137.676 101.953 137.123C101.953 136.57 101.604 136.181 101.087 136.181C100.57 136.181 100.222 136.57 100.222 137.123C100.222 137.676 100.57 138.065 101.087 138.065ZM104.451 138.413V136.217H104.011V135.833H104.451V135.592C104.451 135.024 104.774 134.722 105.214 134.722C105.332 134.722 105.455 134.732 105.562 134.763L105.542 135.152C105.449 135.116 105.357 135.1 105.27 135.1C105.04 135.1 104.886 135.28 104.886 135.556V135.833H105.547V136.217H104.886V138.413H104.451ZM108.235 137.005C108.235 137.067 108.23 137.159 108.225 137.205H106.187C106.217 137.727 106.545 138.07 107.011 138.07C107.405 138.07 107.677 137.886 107.753 137.563L108.163 137.66C108.035 138.162 107.605 138.454 107.011 138.454C106.238 138.454 105.752 137.855 105.752 137.123C105.752 136.391 106.223 135.792 107.001 135.792C107.764 135.792 108.235 136.339 108.235 137.005ZM106.212 136.841H107.774C107.733 136.447 107.457 136.155 107.001 136.155C106.596 136.155 106.299 136.411 106.212 136.841ZM110.132 138.393C110.004 138.439 109.866 138.454 109.728 138.454C109.287 138.454 108.965 138.208 108.965 137.64V136.217H108.484V135.833H108.965V135.049H109.4V135.833H110.091V136.217H109.4V137.655C109.4 137.927 109.554 138.06 109.779 138.06C109.881 138.06 109.999 138.044 110.101 137.993L110.132 138.393ZM111.707 138.454C110.939 138.454 110.427 137.922 110.427 137.123C110.427 136.324 110.939 135.792 111.707 135.792C112.306 135.792 112.746 136.119 112.838 136.631L112.408 136.718C112.352 136.406 112.08 136.181 111.717 136.181C111.21 136.181 110.882 136.555 110.882 137.123C110.882 137.691 111.21 138.065 111.717 138.065C112.08 138.065 112.347 137.865 112.418 137.522L112.843 137.609C112.731 138.142 112.3 138.454 111.707 138.454ZM113.385 138.413V134.788H113.82V136.339C114.01 135.971 114.322 135.792 114.701 135.792C115.285 135.792 115.669 136.155 115.669 136.713V138.413H115.233V136.795C115.233 136.416 114.998 136.186 114.604 136.186C114.127 136.186 113.82 136.616 113.82 137.307V138.413H113.385ZM118.982 138.393C118.854 138.439 118.716 138.454 118.578 138.454C118.137 138.454 117.815 138.208 117.815 137.64V136.217H117.334V135.833H117.815V135.049H118.25V135.833H118.941V136.217H118.25V137.655C118.25 137.927 118.404 138.06 118.629 138.06C118.731 138.06 118.849 138.044 118.951 137.993L118.982 138.393ZM119.535 138.413V134.788H119.97V136.339C120.16 135.971 120.472 135.792 120.851 135.792C121.435 135.792 121.819 136.155 121.819 136.713V138.413H121.383V136.795C121.383 136.416 121.148 136.186 120.754 136.186C120.277 136.186 119.97 136.616 119.97 137.307V138.413H119.535ZM124.86 137.005C124.86 137.067 124.855 137.159 124.85 137.205H122.812C122.842 137.727 123.17 138.07 123.636 138.07C124.03 138.07 124.302 137.886 124.378 137.563L124.788 137.66C124.66 138.162 124.23 138.454 123.636 138.454C122.863 138.454 122.377 137.855 122.377 137.123C122.377 136.391 122.848 135.792 123.626 135.792C124.389 135.792 124.86 136.339 124.86 137.005ZM122.837 136.841H124.399C124.358 136.447 124.082 136.155 123.626 136.155C123.221 136.155 122.924 136.411 122.837 136.841ZM128.237 138.454C127.346 138.454 126.512 137.845 126.512 136.621C126.512 135.397 127.351 134.788 128.247 134.788C129.046 134.788 129.635 135.228 129.778 135.92L129.317 136.017C129.215 135.51 128.816 135.203 128.247 135.203C127.52 135.203 126.993 135.71 126.993 136.621C126.993 137.532 127.52 138.034 128.242 138.034C128.913 138.034 129.338 137.599 129.353 136.969H128.104V136.565H129.794V138.413H129.369V137.86C129.205 138.224 128.744 138.454 128.237 138.454ZM131.602 138.454C130.911 138.454 130.358 138.009 130.24 137.353L130.681 137.21C130.752 137.712 131.136 138.039 131.612 138.039C132.104 138.039 132.421 137.809 132.421 137.451C132.421 136.493 130.384 136.995 130.384 135.725C130.384 135.167 130.885 134.788 131.592 134.788C132.247 134.788 132.754 135.141 132.846 135.674L132.421 135.838C132.35 135.449 132.042 135.203 131.592 135.203C131.131 135.203 130.855 135.403 130.855 135.725C130.855 136.544 132.903 136.012 132.903 137.445C132.903 138.055 132.386 138.454 131.602 138.454ZM134.231 138.413V135.244H133.089V134.829H135.833V135.244H134.697V138.413H134.231ZM136.286 138.413V134.829H136.751V138.413H136.286ZM137.496 138.413V134.829H138.013L139.82 137.681V134.829H140.276V138.413H139.759L137.951 135.571V138.413H137.496Z" fill="#767676"/>
<g filter="url(#filter2_d_943_9576)">
<rect x="40" y="342.733" width="160" height="30.72" fill="white"/>
</g>
<g style="mix-blend-mode:multiply">
<path d="M119.787 358.946C118.943 358.946 118.118 358.696 117.416 358.227C116.715 357.759 116.168 357.092 115.845 356.313C115.522 355.533 115.437 354.675 115.602 353.847C115.767 353.02 116.173 352.259 116.77 351.663C117.366 351.066 118.127 350.66 118.954 350.495C119.782 350.33 120.64 350.415 121.419 350.738C122.199 351.061 122.865 351.608 123.334 352.309C123.803 353.011 124.053 353.836 124.053 354.68C124.051 355.811 123.601 356.894 122.801 357.694C122.001 358.494 120.918 358.944 119.787 358.946V358.946Z" fill="#CDCDCD"/>
</g>
<mask id="mask0_943_9576" style="mask-type:alpha" maskUnits="userSpaceOnUse" x="115" y="350" width="10" height="9">
<path d="M119.787 358.947C118.943 358.947 118.118 358.697 117.416 358.228C116.715 357.76 116.168 357.093 115.845 356.314C115.522 355.534 115.437 354.676 115.602 353.848C115.767 353.021 116.173 352.26 116.77 351.664C117.366 351.067 118.127 350.661 118.954 350.496C119.782 350.331 120.64 350.416 121.419 350.739C122.199 351.062 122.865 351.609 123.334 352.31C123.803 353.012 124.053 353.837 124.053 354.681C124.051 355.812 123.601 356.895 122.801 357.695C122.001 358.495 120.918 358.945 119.787 358.947Z" fill="#B1CDE2"/>
</mask>
<g mask="url(#mask0_943_9576)">
<g style="mix-blend-mode:multiply">
<g style="mix-blend-mode:multiply">
<path d="M121.92 358.776C121.92 358.871 121.882 358.962 121.815 359.029C121.748 359.097 121.657 359.134 121.562 359.134H117.984C117.938 359.134 117.891 359.125 117.848 359.107C117.805 359.089 117.766 359.062 117.733 359.029C117.7 358.996 117.674 358.956 117.657 358.913C117.639 358.87 117.63 358.823 117.631 358.776V357.416C117.629 357.17 117.676 356.926 117.769 356.699C117.862 356.471 117.999 356.264 118.173 356.09C118.346 355.916 118.552 355.778 118.78 355.684C119.007 355.59 119.25 355.541 119.496 355.542H120.033C120.279 355.541 120.522 355.59 120.749 355.684C120.976 355.778 121.183 355.916 121.356 356.09C121.529 356.264 121.667 356.471 121.76 356.699C121.853 356.926 121.9 357.17 121.898 357.416L121.92 358.776Z" fill="#505050"/>
</g>
<g style="mix-blend-mode:multiply">
<path d="M119.645 355.249C119.899 355.249 120.148 355.174 120.359 355.032C120.57 354.89 120.734 354.688 120.83 354.452C120.926 354.217 120.95 353.958 120.898 353.709C120.846 353.46 120.721 353.232 120.539 353.054C120.357 352.876 120.126 352.757 119.876 352.711C119.626 352.665 119.368 352.694 119.134 352.795C118.901 352.897 118.703 353.065 118.566 353.28C118.429 353.494 118.359 353.744 118.365 353.999C118.373 354.333 118.511 354.651 118.75 354.885C118.989 355.119 119.31 355.25 119.645 355.249V355.249Z" fill="#505050"/>
</g>
</g>
</g>
<path d="M112.127 368.36V364.776H113.612C114.354 364.776 114.83 365.217 114.83 365.898C114.83 366.579 114.354 367.019 113.612 367.019H112.936V368.36H112.127ZM112.936 366.328H113.53C113.837 366.328 114.021 366.164 114.021 365.898C114.021 365.631 113.837 365.468 113.53 365.468H112.936V366.328ZM116.952 366.502C116.865 366.461 116.742 366.44 116.624 366.44C116.286 366.44 115.964 366.696 115.964 367.429V368.36H115.211V365.78H115.964V366.225C116.081 365.949 116.414 365.739 116.721 365.739C116.808 365.739 116.926 365.754 116.998 365.78L116.952 366.502ZM118.5 368.401C117.701 368.401 117.138 367.838 117.138 367.07C117.138 366.302 117.701 365.739 118.5 365.739C119.288 365.739 119.862 366.302 119.862 367.07C119.862 367.838 119.288 368.401 118.5 368.401ZM118.5 367.761C118.863 367.761 119.109 367.48 119.109 367.07C119.109 366.661 118.863 366.379 118.5 366.379C118.131 366.379 117.886 366.661 117.886 367.07C117.886 367.48 118.131 367.761 118.5 367.761ZM120.466 368.36V366.405H120.061V365.78H120.466V365.601C120.466 364.981 120.886 364.638 121.449 364.638C121.597 364.638 121.736 364.659 121.859 364.705L121.807 365.309C121.715 365.273 121.633 365.253 121.551 365.253C121.347 365.253 121.219 365.391 121.219 365.616V365.78H121.807V366.405H121.219V368.36H120.466ZM122.615 365.437C122.359 365.437 122.169 365.237 122.169 364.986C122.169 364.741 122.359 364.541 122.615 364.541C122.876 364.541 123.076 364.741 123.076 364.986C123.076 365.237 122.876 365.437 122.615 365.437ZM122.241 368.36V365.78H122.994V368.36H122.241ZM124.718 368.381C124.088 368.483 123.576 368.243 123.576 367.551V364.735H124.329V367.444C124.329 367.746 124.462 367.746 124.667 367.746L124.718 368.381ZM127.609 367.004C127.609 367.106 127.604 367.229 127.599 367.285H125.745C125.817 367.603 126.032 367.777 126.35 367.777C126.606 367.777 126.795 367.659 126.851 367.444L127.558 367.633C127.404 368.12 126.943 368.401 126.329 368.401C125.438 368.401 125.003 367.71 125.003 367.07C125.003 366.43 125.392 365.739 126.283 365.739C127.215 365.739 127.609 366.43 127.609 367.004ZM125.756 366.753H126.805C126.78 366.492 126.616 366.297 126.283 366.297C126.012 366.297 125.827 366.451 125.756 366.753Z" fill="#091016"/>
<path d="M169.606 354.466C169.606 354.299 169.59 354.133 169.56 353.969L170.773 353.097L169.754 351.375L168.378 351.977C168.108 351.766 167.805 351.598 167.481 351.48L167.313 349.986H165.274L165.106 351.45C164.78 351.577 164.477 351.756 164.209 351.977L162.833 351.365L161.813 353.087L163.026 353.969C162.968 354.298 162.968 354.635 163.026 354.964L161.813 355.845L162.833 357.567L164.209 356.98C164.479 357.191 164.782 357.359 165.106 357.478L165.274 358.946H167.313L167.481 357.483C167.805 357.364 168.108 357.196 168.378 356.985L169.754 357.572L170.773 355.85L169.56 354.964C169.59 354.8 169.606 354.633 169.606 354.466V354.466Z" fill="#CDCDCD"/>
<path d="M166.293 355.959C167.118 355.959 167.787 355.291 167.787 354.466C167.787 353.641 167.118 352.973 166.293 352.973C165.469 352.973 164.8 353.641 164.8 354.466C164.8 355.291 165.469 355.959 166.293 355.959Z" fill="#505050"/>
<path d="M158.071 368.4C157.355 368.4 156.75 367.914 156.684 367.259L157.39 367.049C157.436 367.448 157.749 367.714 158.102 367.714C158.425 367.714 158.635 367.561 158.635 367.335C158.635 366.66 156.796 367.059 156.796 365.743C156.796 365.154 157.36 364.734 158.061 364.734C158.752 364.734 159.31 365.103 159.433 365.651L158.711 365.953C158.64 365.63 158.399 365.42 158.061 365.42C157.78 365.42 157.605 365.538 157.605 365.738C157.605 366.306 159.449 365.851 159.449 367.315C159.449 367.965 158.896 368.4 158.071 368.4ZM162.366 367.003C162.366 367.105 162.361 367.228 162.356 367.284H160.502C160.574 367.602 160.789 367.776 161.106 367.776C161.362 367.776 161.552 367.658 161.608 367.443L162.315 367.632C162.161 368.119 161.7 368.4 161.086 368.4C160.195 368.4 159.76 367.709 159.76 367.069C159.76 366.429 160.149 365.738 161.04 365.738C161.972 365.738 162.366 366.429 162.366 367.003ZM160.512 366.752H161.562C161.536 366.491 161.372 366.296 161.04 366.296C160.768 366.296 160.584 366.45 160.512 366.752ZM164.375 368.334C164.252 368.375 164.109 368.4 163.956 368.4C163.397 368.4 162.972 368.103 162.972 367.479V366.404H162.563V365.779H162.972V365.031H163.725V365.779H164.35V366.404H163.725V367.381C163.725 367.612 163.848 367.745 164.032 367.745C164.124 367.745 164.237 367.73 164.324 367.684L164.375 368.334ZM166.395 368.334C166.272 368.375 166.129 368.4 165.976 368.4C165.417 368.4 164.992 368.103 164.992 367.479V366.404H164.583V365.779H164.992V365.031H165.745V365.779H166.37V366.404H165.745V367.381C165.745 367.612 165.868 367.745 166.052 367.745C166.144 367.745 166.257 367.73 166.344 367.684L166.395 368.334ZM167.181 365.436C166.925 365.436 166.736 365.236 166.736 364.985C166.736 364.74 166.925 364.54 167.181 364.54C167.443 364.54 167.642 364.74 167.642 364.985C167.642 365.236 167.443 365.436 167.181 365.436ZM166.808 368.359V365.779H167.56V368.359H166.808ZM168.143 368.359V365.779H168.895V366.122C169.049 365.897 169.331 365.738 169.684 365.738C170.252 365.738 170.631 366.107 170.631 366.675V368.359H169.883V366.875C169.883 366.593 169.709 366.404 169.438 366.404C169.08 366.404 168.895 366.695 168.895 367.228V368.359H168.143ZM172.61 367.796C173.24 367.796 173.599 368.068 173.599 368.533C173.599 369.132 172.994 369.332 172.313 369.332C171.54 369.332 171.023 369.107 171.023 368.59C171.023 368.431 171.115 368.236 171.264 368.108C171.167 368.011 171.11 367.893 171.11 367.76C171.11 367.509 171.259 367.325 171.489 367.223C171.341 367.074 171.254 366.869 171.254 366.629C171.254 366.091 171.684 365.738 172.308 365.738C172.482 365.738 172.636 365.764 172.774 365.815L173.143 365.4L173.578 365.779L173.23 366.168C173.317 366.296 173.363 366.455 173.363 366.629C173.363 367.166 172.938 367.515 172.308 367.515C172.191 367.515 172.083 367.504 171.981 367.479C171.878 367.53 171.822 367.596 171.822 367.663C171.822 367.755 171.909 367.796 172.047 367.796H172.61ZM172.308 366.306C172.093 366.306 171.945 366.434 171.945 366.629C171.945 366.818 172.093 366.946 172.308 366.946C172.513 366.946 172.667 366.818 172.667 366.629C172.667 366.434 172.513 366.306 172.308 366.306ZM172.313 368.738C172.718 368.738 172.872 368.677 172.872 368.539C172.872 368.395 172.723 368.37 172.477 368.37H172.037C171.96 368.37 171.889 368.364 171.817 368.354C171.766 368.421 171.75 368.472 171.75 368.539C171.75 368.677 171.878 368.738 172.313 368.738ZM174.884 368.4C174.255 368.4 173.865 368.016 173.732 367.627L174.336 367.392C174.398 367.632 174.598 367.832 174.884 367.832C175.084 367.832 175.217 367.735 175.217 367.591C175.217 367.187 173.85 367.458 173.85 366.48C173.85 366.076 174.203 365.738 174.772 365.738C175.299 365.738 175.734 365.994 175.852 366.368L175.248 366.619C175.181 366.383 174.971 366.276 174.797 366.276C174.628 366.276 174.511 366.347 174.511 366.46C174.511 366.869 175.898 366.532 175.898 367.576C175.898 368.021 175.488 368.4 174.884 368.4Z" fill="#091016"/>
<path d="M69.8667 353.274C69.8667 353.098 69.9561 352.936 70.1038 352.842L73.6451 350.588C73.8128 350.481 74.0272 350.481 74.1949 350.588L77.7362 352.842C77.8839 352.936 77.9733 353.098 77.9733 353.274V358.008C77.9733 358.291 77.7441 358.52 77.4613 358.52H70.3787C70.0959 358.52 69.8667 358.291 69.8667 358.008V353.274Z" fill="#CDCDCD"/>
<path d="M72.8533 356.387C72.8533 356.151 73.0444 355.96 73.28 355.96H74.56C74.7956 355.96 74.9867 356.151 74.9867 356.387V358.52H72.8533V356.387Z" fill="#505050"/>
<path d="M69.5332 364.776H70.3473V368.36H69.5332V366.86H68.1099V368.36H67.3009V364.776H68.1099V366.169H69.5332V364.776ZM72.1941 368.401C71.3954 368.401 70.8322 367.838 70.8322 367.07C70.8322 366.302 71.3954 365.739 72.1941 365.739C72.9826 365.739 73.556 366.302 73.556 367.07C73.556 367.838 72.9826 368.401 72.1941 368.401ZM72.1941 367.761C72.5576 367.761 72.8034 367.48 72.8034 367.07C72.8034 366.661 72.5576 366.379 72.1941 366.379C71.8255 366.379 71.5797 366.661 71.5797 367.07C71.5797 367.48 71.8255 367.761 72.1941 367.761ZM74.0052 368.36V365.78H74.7578V366.128C74.9063 365.898 75.1418 365.739 75.4849 365.739C75.8842 365.739 76.1351 365.903 76.2631 366.2C76.4013 365.954 76.7137 365.739 77.1335 365.739C77.6916 365.739 78.0602 366.113 78.0602 366.604V368.36H77.3127V366.824C77.3127 366.543 77.1591 366.369 76.8929 366.369C76.5805 366.369 76.4013 366.625 76.4013 367.039V368.36H75.6589V366.824C75.6589 366.543 75.5053 366.369 75.2442 366.369C74.937 366.369 74.7578 366.63 74.7578 367.039V368.36H74.0052ZM81.1233 367.004C81.1233 367.106 81.1181 367.229 81.113 367.285H79.2596C79.3313 367.603 79.5463 367.777 79.8637 367.777C80.1197 367.777 80.3092 367.659 80.3655 367.444L81.0721 367.633C80.9185 368.12 80.4577 368.401 79.8433 368.401C78.9524 368.401 78.5172 367.71 78.5172 367.07C78.5172 366.43 78.9063 365.739 79.7972 365.739C80.729 365.739 81.1233 366.43 81.1233 367.004ZM79.2698 366.753H80.3194C80.2938 366.492 80.13 366.297 79.7972 366.297C79.5258 366.297 79.3415 366.451 79.2698 366.753Z" fill="#091016"/>
</g>
</g>
<defs>
<filter id="filter0_d_943_9576" x="20" y="9" width="200" height="386.453" filterUnits="userSpaceOnUse" color-interpolation-filters="sRGB">
<feFlood flood-opacity="0" result="BackgroundImageFix"/>
<feColorMatrix in="SourceAlpha" type="matrix" values="0 0 0 0 0 0 0 0 0 0 0 0 0 0 0 0 0 0 127 0" result="hardAlpha"/>
<feOffset dy="2"/>
<feGaussianBlur stdDeviation="10"/>
<feComposite in2="hardAlpha" operator="out"/>
<feColorMatrix type="matrix" values="0 0 0 0 0.00392157 0 0 0 0 0.298039 0 0 0 0 0.572549 0 0 0 0.1 0"/>
<feBlend mode="normal" in2="BackgroundImageFix" result="effect1_dropShadow_943_9576"/>
<feBlend mode="normal" in="SourceGraphic" in2="effect1_dropShadow_943_9576" result="shape"/>
</filter>
<filter id="filter1_d_943_9576" x="49.3867" y="151.586" width="142.507" height="29.0131" filterUnits="userSpaceOnUse" color-interpolation-filters="sRGB">
<feFlood flood-opacity="0" result="BackgroundImageFix"/>
<feColorMatrix in="SourceAlpha" type="matrix" values="0 0 0 0 0 0 0 0 0 0 0 0 0 0 0 0 0 0 127 0" result="hardAlpha"/>
<feOffset/>
<feGaussianBlur stdDeviation="0.64"/>
<feColorMatrix type="matrix" values="0 0 0 0 0 0 0 0 0 0 0 0 0 0 0 0 0 0 0.15 0"/>
<feBlend mode="normal" in2="BackgroundImageFix" result="effect1_dropShadow_943_9576"/>
<feBlend mode="normal" in="SourceGraphic" in2="effect1_dropShadow_943_9576" result="shape"/>
</filter>
<filter id="filter2_d_943_9576" x="31.4667" y="332.493" width="177.067" height="47.7864" filterUnits="userSpaceOnUse" color-interpolation-filters="sRGB">
<feFlood flood-opacity="0" result="BackgroundImageFix"/>
<feColorMatrix in="SourceAlpha" type="matrix" values="0 0 0 0 0 0 0 0 0 0 0 0 0 0 0 0 0 0 127 0" result="hardAlpha"/>
<feOffset dy="-1.70667"/>
<feGaussianBlur stdDeviation="4.26667"/>
<feComposite in2="hardAlpha" operator="out"/>
<feColorMatrix type="matrix" values="0 0 0 0 0.0040625 0 0 0 0 0.167963 0 0 0 0 0.320937 0 0 0 0.1 0"/>
<feBlend mode="normal" in2="BackgroundImageFix" result="effect1_dropShadow_943_9576"/>
<feBlend mode="normal" in="SourceGraphic" in2="effect1_dropShadow_943_9576" result="shape"/>
</filter>
<clipPath id="clip0_943_9576">
<rect x="40" y="27" width="160" height="346.453" rx="8.59" fill="white"/>
</clipPath>
<clipPath id="clip1_943_9576">
<rect width="8.53333" height="8.53333" fill="white" transform="translate(55.36 158.84)"/>
</clipPath>
<clipPath id="clip2_943_9576">
<rect width="8.53333" height="8.53333" fill="white" transform="translate(175.68 115.066)"/>
</clipPath>
</defs>
</svg>
