<svg viewBox="0 0 516 270" fill="none" xmlns="http://www.w3.org/2000/svg">
<rect width="516" height="270" fill="#F4F8FB"/>
<path d="M213.661 135.144C212.305 135.144 211.231 134.838 210.439 134.226C209.659 133.614 209.269 132.798 209.269 131.778V131.22C209.269 131.1 209.329 131.04 209.449 131.04H210.331C210.451 131.04 210.511 131.1 210.511 131.22V131.706C210.511 132.402 210.799 132.966 211.375 133.398C211.951 133.818 212.749 134.028 213.769 134.028C214.693 134.028 215.395 133.836 215.875 133.452C216.355 133.056 216.595 132.534 216.595 131.886C216.595 131.466 216.481 131.106 216.253 130.806C216.037 130.506 215.695 130.224 215.227 129.96C214.771 129.696 214.123 129.39 213.283 129.042C212.383 128.682 211.681 128.37 211.177 128.106C210.685 127.83 210.283 127.482 209.971 127.062C209.671 126.63 209.521 126.09 209.521 125.442C209.521 124.434 209.869 123.654 210.565 123.102C211.273 122.538 212.239 122.256 213.463 122.256C214.795 122.256 215.845 122.568 216.613 123.192C217.381 123.816 217.765 124.644 217.765 125.676V126.072C217.765 126.192 217.705 126.252 217.585 126.252H216.685C216.565 126.252 216.505 126.192 216.505 126.072V125.748C216.505 125.052 216.229 124.482 215.677 124.038C215.137 123.594 214.381 123.372 213.409 123.372C212.557 123.372 211.903 123.546 211.447 123.894C210.991 124.242 210.763 124.746 210.763 125.406C210.763 125.838 210.871 126.198 211.087 126.486C211.315 126.762 211.633 127.008 212.041 127.224C212.461 127.428 213.103 127.698 213.967 128.034C214.843 128.394 215.545 128.73 216.073 129.042C216.613 129.354 217.045 129.738 217.369 130.194C217.705 130.638 217.873 131.184 217.873 131.832C217.873 132.84 217.501 133.644 216.757 134.244C216.013 134.844 214.981 135.144 213.661 135.144ZM224.173 135.144C222.817 135.144 221.743 134.838 220.951 134.226C220.171 133.614 219.781 132.798 219.781 131.778V131.22C219.781 131.1 219.841 131.04 219.961 131.04H220.843C220.963 131.04 221.023 131.1 221.023 131.22V131.706C221.023 132.402 221.311 132.966 221.887 133.398C222.463 133.818 223.261 134.028 224.281 134.028C225.205 134.028 225.907 133.836 226.387 133.452C226.867 133.056 227.107 132.534 227.107 131.886C227.107 131.466 226.993 131.106 226.765 130.806C226.549 130.506 226.207 130.224 225.739 129.96C225.283 129.696 224.635 129.39 223.795 129.042C222.895 128.682 222.193 128.37 221.689 128.106C221.197 127.83 220.795 127.482 220.483 127.062C220.183 126.63 220.033 126.09 220.033 125.442C220.033 124.434 220.381 123.654 221.077 123.102C221.785 122.538 222.751 122.256 223.975 122.256C225.307 122.256 226.357 122.568 227.125 123.192C227.893 123.816 228.277 124.644 228.277 125.676V126.072C228.277 126.192 228.217 126.252 228.097 126.252H227.197C227.077 126.252 227.017 126.192 227.017 126.072V125.748C227.017 125.052 226.741 124.482 226.189 124.038C225.649 123.594 224.893 123.372 223.921 123.372C223.069 123.372 222.415 123.546 221.959 123.894C221.503 124.242 221.275 124.746 221.275 125.406C221.275 125.838 221.383 126.198 221.599 126.486C221.827 126.762 222.145 127.008 222.553 127.224C222.973 127.428 223.615 127.698 224.479 128.034C225.355 128.394 226.057 128.73 226.585 129.042C227.125 129.354 227.557 129.738 227.881 130.194C228.217 130.638 228.385 131.184 228.385 131.832C228.385 132.84 228.013 133.644 227.269 134.244C226.525 134.844 225.493 135.144 224.173 135.144ZM237.874 135.144C237.01 135.144 236.266 134.922 235.642 134.478C235.018 134.034 234.586 133.422 234.346 132.642C234.178 132.09 234.094 131.352 234.094 130.428C234.094 129.504 234.178 128.772 234.346 128.232C234.574 127.464 235 126.858 235.624 126.414C236.248 125.97 237.004 125.748 237.892 125.748C238.744 125.748 239.476 125.97 240.088 126.414C240.712 126.858 241.138 127.458 241.366 128.214C241.534 128.73 241.618 129.468 241.618 130.428C241.618 131.4 241.534 132.138 241.366 132.642C241.138 133.422 240.712 134.034 240.088 134.478C239.476 134.922 238.738 135.144 237.874 135.144ZM237.874 134.028C238.45 134.028 238.942 133.872 239.35 133.56C239.758 133.236 240.034 132.804 240.178 132.264C240.286 131.832 240.34 131.226 240.34 130.446C240.34 129.654 240.292 129.048 240.196 128.628C240.052 128.088 239.77 127.662 239.35 127.35C238.942 127.026 238.444 126.864 237.856 126.864C237.268 126.864 236.77 127.026 236.362 127.35C235.954 127.662 235.678 128.088 235.534 128.628C235.438 129.048 235.39 129.654 235.39 130.446C235.39 131.238 235.438 131.844 235.534 132.264C235.666 132.804 235.936 133.236 236.344 133.56C236.764 133.872 237.274 134.028 237.874 134.028ZM247.703 123.516C247.043 123.516 246.593 123.666 246.353 123.966C246.113 124.254 245.993 124.752 245.993 125.46V125.82C245.993 125.868 246.017 125.892 246.065 125.892H248.081C248.201 125.892 248.261 125.952 248.261 126.072V126.882C248.261 127.002 248.201 127.062 248.081 127.062H246.065C246.017 127.062 245.993 127.086 245.993 127.134V134.82C245.993 134.94 245.933 135 245.813 135H244.913C244.793 135 244.733 134.94 244.733 134.82V127.134C244.733 127.086 244.709 127.062 244.661 127.062H243.455C243.335 127.062 243.275 127.002 243.275 126.882V126.072C243.275 125.952 243.335 125.892 243.455 125.892H244.661C244.709 125.892 244.733 125.868 244.733 125.82V125.388C244.733 124.644 244.817 124.062 244.985 123.642C245.153 123.21 245.441 122.898 245.849 122.706C246.269 122.502 246.851 122.4 247.595 122.4H248.117C248.237 122.4 248.297 122.46 248.297 122.58V123.336C248.297 123.456 248.237 123.516 248.117 123.516H247.703ZM261.197 128.16C261.377 128.736 261.467 129.498 261.467 130.446C261.467 131.406 261.389 132.15 261.233 132.678C261.017 133.446 260.621 134.052 260.045 134.496C259.481 134.928 258.767 135.144 257.903 135.144C257.435 135.144 257.003 135.054 256.607 134.874C256.211 134.682 255.881 134.412 255.617 134.064C255.593 134.04 255.569 134.034 255.545 134.046C255.533 134.046 255.527 134.058 255.527 134.082V138.312C255.527 138.432 255.467 138.492 255.347 138.492H254.429C254.309 138.492 254.249 138.432 254.249 138.312V126.072C254.249 125.952 254.309 125.892 254.429 125.892H255.347C255.467 125.892 255.527 125.952 255.527 126.072V126.828C255.527 126.852 255.533 126.87 255.545 126.882C255.569 126.882 255.593 126.87 255.617 126.846C255.881 126.498 256.205 126.228 256.589 126.036C256.985 125.844 257.423 125.748 257.903 125.748C258.743 125.748 259.445 125.964 260.009 126.396C260.585 126.828 260.981 127.416 261.197 128.16ZM259.775 132.714C259.907 132.45 260.003 132.156 260.063 131.832C260.135 131.496 260.171 131.034 260.171 130.446C260.171 129.882 260.147 129.444 260.099 129.132C260.051 128.808 259.967 128.52 259.847 128.268C259.703 127.836 259.445 127.494 259.073 127.242C258.713 126.99 258.281 126.864 257.777 126.864C257.297 126.864 256.895 126.99 256.571 127.242C256.247 127.494 256.007 127.83 255.851 128.25C255.743 128.49 255.665 128.772 255.617 129.096C255.569 129.42 255.545 129.87 255.545 130.446C255.545 131.022 255.569 131.478 255.617 131.814C255.665 132.138 255.749 132.426 255.869 132.678C256.013 133.086 256.247 133.416 256.571 133.668C256.907 133.908 257.303 134.028 257.759 134.028C258.239 134.028 258.653 133.908 259.001 133.668C259.361 133.428 259.619 133.11 259.775 132.714ZM267.405 135.144C266.541 135.144 265.797 134.922 265.173 134.478C264.549 134.034 264.117 133.422 263.877 132.642C263.709 132.09 263.625 131.352 263.625 130.428C263.625 129.504 263.709 128.772 263.877 128.232C264.105 127.464 264.531 126.858 265.155 126.414C265.779 125.97 266.535 125.748 267.423 125.748C268.275 125.748 269.007 125.97 269.619 126.414C270.243 126.858 270.669 127.458 270.897 128.214C271.065 128.73 271.149 129.468 271.149 130.428C271.149 131.4 271.065 132.138 270.897 132.642C270.669 133.422 270.243 134.034 269.619 134.478C269.007 134.922 268.269 135.144 267.405 135.144ZM267.405 134.028C267.981 134.028 268.473 133.872 268.881 133.56C269.289 133.236 269.565 132.804 269.709 132.264C269.817 131.832 269.871 131.226 269.871 130.446C269.871 129.654 269.823 129.048 269.727 128.628C269.583 128.088 269.301 127.662 268.881 127.35C268.473 127.026 267.975 126.864 267.387 126.864C266.799 126.864 266.301 127.026 265.893 127.35C265.485 127.662 265.209 128.088 265.065 128.628C264.969 129.048 264.921 129.654 264.921 130.446C264.921 131.238 264.969 131.844 265.065 132.264C265.197 132.804 265.467 133.236 265.875 133.56C266.295 133.872 266.805 134.028 267.405 134.028ZM277.412 125.802C277.808 125.802 278.15 125.88 278.438 126.036C278.534 126.084 278.57 126.162 278.546 126.27L278.348 127.152C278.312 127.272 278.234 127.308 278.114 127.26C277.91 127.176 277.676 127.134 277.412 127.134L277.178 127.152C276.554 127.176 276.038 127.41 275.63 127.854C275.222 128.286 275.018 128.838 275.018 129.51V134.82C275.018 134.94 274.958 135 274.838 135H273.92C273.8 135 273.74 134.94 273.74 134.82V126.072C273.74 125.952 273.8 125.892 273.92 125.892H274.838C274.958 125.892 275.018 125.952 275.018 126.072V127.17C275.018 127.206 275.024 127.23 275.036 127.242C275.06 127.242 275.078 127.23 275.09 127.206C275.342 126.762 275.66 126.42 276.044 126.18C276.44 125.928 276.896 125.802 277.412 125.802ZM284.629 126.774C284.629 126.894 284.569 126.954 284.449 126.954H282.415C282.367 126.954 282.343 126.978 282.343 127.026V132.336C282.343 132.912 282.469 133.32 282.721 133.56C282.985 133.788 283.393 133.902 283.945 133.902H284.395C284.515 133.902 284.575 133.962 284.575 134.082V134.82C284.575 134.94 284.515 135 284.395 135C284.251 135.012 284.029 135.018 283.729 135.018C282.865 135.018 282.211 134.856 281.767 134.532C281.323 134.208 281.101 133.608 281.101 132.732V127.026C281.101 126.978 281.077 126.954 281.029 126.954H279.931C279.811 126.954 279.751 126.894 279.751 126.774V126.072C279.751 125.952 279.811 125.892 279.931 125.892H281.029C281.077 125.892 281.101 125.868 281.101 125.82V123.732C281.101 123.612 281.161 123.552 281.281 123.552H282.163C282.283 123.552 282.343 123.612 282.343 123.732V125.82C282.343 125.868 282.367 125.892 282.415 125.892H284.449C284.569 125.892 284.629 125.952 284.629 126.072V126.774ZM290.249 125.748C291.329 125.748 292.163 126.024 292.751 126.576C293.339 127.128 293.633 127.86 293.633 128.772V134.82C293.633 134.94 293.573 135 293.453 135H292.535C292.415 135 292.355 134.94 292.355 134.82V134.082C292.355 134.058 292.343 134.04 292.319 134.028C292.307 134.016 292.289 134.022 292.265 134.046C291.965 134.406 291.575 134.682 291.095 134.874C290.615 135.054 290.081 135.144 289.493 135.144C288.641 135.144 287.927 134.928 287.351 134.496C286.775 134.064 286.487 133.404 286.487 132.516C286.487 131.616 286.811 130.908 287.459 130.392C288.119 129.864 289.031 129.6 290.195 129.6H292.283C292.331 129.6 292.355 129.576 292.355 129.528V128.844C292.355 128.232 292.181 127.752 291.833 127.404C291.497 127.044 290.969 126.864 290.249 126.864C289.673 126.864 289.205 126.978 288.845 127.206C288.485 127.422 288.263 127.728 288.179 128.124C288.143 128.244 288.071 128.298 287.963 128.286L286.991 128.16C286.859 128.136 286.805 128.088 286.829 128.016C286.925 127.344 287.285 126.798 287.909 126.378C288.533 125.958 289.313 125.748 290.249 125.748ZM289.745 134.046C290.453 134.046 291.065 133.872 291.581 133.524C292.097 133.164 292.355 132.684 292.355 132.084V130.68C292.355 130.632 292.331 130.608 292.283 130.608H290.393C289.601 130.608 288.965 130.77 288.485 131.094C288.005 131.418 287.765 131.868 287.765 132.444C287.765 132.972 287.945 133.374 288.305 133.65C288.677 133.914 289.157 134.046 289.745 134.046ZM296.473 135C296.353 135 296.293 134.94 296.293 134.82V122.58C296.293 122.46 296.353 122.4 296.473 122.4H297.391C297.511 122.4 297.571 122.46 297.571 122.58V134.82C297.571 134.94 297.511 135 297.391 135H296.473ZM303.429 135.09C302.757 135.09 302.157 134.982 301.629 134.766C301.113 134.55 300.711 134.262 300.423 133.902C300.147 133.542 300.009 133.14 300.009 132.696V132.48C300.009 132.36 300.069 132.3 300.189 132.3H301.053C301.173 132.3 301.233 132.36 301.233 132.48V132.624C301.233 133.02 301.437 133.368 301.845 133.668C302.265 133.956 302.787 134.1 303.411 134.1C304.035 134.1 304.539 133.962 304.923 133.686C305.307 133.398 305.499 133.038 305.499 132.606C305.499 132.306 305.397 132.06 305.193 131.868C305.001 131.676 304.767 131.526 304.491 131.418C304.227 131.31 303.813 131.172 303.249 131.004C302.577 130.812 302.025 130.62 301.593 130.428C301.161 130.236 300.795 129.972 300.495 129.636C300.207 129.288 300.063 128.85 300.063 128.322C300.063 127.554 300.363 126.942 300.963 126.486C301.563 126.03 302.355 125.802 303.339 125.802C303.999 125.802 304.581 125.91 305.085 126.126C305.601 126.342 305.997 126.642 306.273 127.026C306.549 127.398 306.687 127.818 306.687 128.286V128.34C306.687 128.46 306.627 128.52 306.507 128.52H305.661C305.541 128.52 305.481 128.46 305.481 128.34V128.286C305.481 127.878 305.283 127.536 304.887 127.26C304.503 126.984 303.981 126.846 303.321 126.846C302.709 126.846 302.217 126.972 301.845 127.224C301.473 127.464 301.287 127.8 301.287 128.232C301.287 128.64 301.467 128.952 301.827 129.168C302.187 129.384 302.745 129.6 303.501 129.816C304.197 130.02 304.761 130.212 305.193 130.392C305.625 130.572 305.997 130.836 306.309 131.184C306.621 131.52 306.777 131.964 306.777 132.516C306.777 133.296 306.471 133.92 305.859 134.388C305.247 134.856 304.437 135.09 303.429 135.09Z" fill="black"/>
</svg>
