<svg viewBox="0 0 966 523" fill="none" xmlns="http://www.w3.org/2000/svg">
<rect width="966" height="523" rx="8" fill="#F4F8FB"/>
<path d="M406.766 253.526C406.826 253.442 406.898 253.4 406.982 253.4H407.918C408.038 253.4 408.098 253.46 408.098 253.58V265.82C408.098 265.94 408.038 266 407.918 266H407C406.88 266 406.82 265.94 406.82 265.82V255.812C406.82 255.776 406.808 255.752 406.784 255.74C406.76 255.728 406.742 255.74 406.73 255.776L403.796 260.276C403.736 260.36 403.664 260.402 403.58 260.402H403.112C403.028 260.402 402.956 260.366 402.896 260.294L399.962 255.83C399.95 255.794 399.932 255.782 399.908 255.794C399.884 255.806 399.872 255.83 399.872 255.866V265.82C399.872 265.94 399.812 266 399.692 266H398.774C398.654 266 398.594 265.94 398.594 265.82V253.58C398.594 253.46 398.654 253.4 398.774 253.4H399.71C399.806 253.4 399.878 253.436 399.926 253.508L403.31 258.638C403.322 258.65 403.34 258.656 403.364 258.656C403.388 258.656 403.406 258.65 403.418 258.638L406.766 253.526ZM414.684 266.144C413.82 266.144 413.076 265.922 412.452 265.478C411.828 265.034 411.396 264.422 411.156 263.642C410.988 263.09 410.904 262.352 410.904 261.428C410.904 260.504 410.988 259.772 411.156 259.232C411.384 258.464 411.81 257.858 412.434 257.414C413.058 256.97 413.814 256.748 414.702 256.748C415.554 256.748 416.286 256.97 416.898 257.414C417.522 257.858 417.948 258.458 418.176 259.214C418.344 259.73 418.428 260.468 418.428 261.428C418.428 262.4 418.344 263.138 418.176 263.642C417.948 264.422 417.522 265.034 416.898 265.478C416.286 265.922 415.548 266.144 414.684 266.144ZM414.684 265.028C415.26 265.028 415.752 264.872 416.16 264.56C416.568 264.236 416.844 263.804 416.988 263.264C417.096 262.832 417.15 262.226 417.15 261.446C417.15 260.654 417.102 260.048 417.006 259.628C416.862 259.088 416.58 258.662 416.16 258.35C415.752 258.026 415.254 257.864 414.666 257.864C414.078 257.864 413.58 258.026 413.172 258.35C412.764 258.662 412.488 259.088 412.344 259.628C412.248 260.048 412.2 260.654 412.2 261.446C412.2 262.238 412.248 262.844 412.344 263.264C412.476 263.804 412.746 264.236 413.154 264.56C413.574 264.872 414.084 265.028 414.684 265.028ZM426.67 253.58C426.67 253.46 426.73 253.4 426.85 253.4H427.768C427.888 253.4 427.948 253.46 427.948 253.58V265.82C427.948 265.94 427.888 266 427.768 266H426.85C426.73 266 426.67 265.94 426.67 265.82V265.064C426.67 265.04 426.658 265.028 426.634 265.028C426.622 265.016 426.604 265.022 426.58 265.046C426.316 265.394 425.986 265.664 425.59 265.856C425.206 266.048 424.774 266.144 424.294 266.144C423.454 266.144 422.746 265.928 422.17 265.496C421.606 265.064 421.216 264.476 421 263.732C420.832 263.192 420.748 262.43 420.748 261.446C420.748 260.45 420.82 259.706 420.964 259.214C421.18 258.446 421.576 257.846 422.152 257.414C422.728 256.97 423.442 256.748 424.294 256.748C424.762 256.748 425.194 256.844 425.59 257.036C425.986 257.216 426.316 257.48 426.58 257.828C426.604 257.852 426.622 257.864 426.634 257.864C426.658 257.852 426.67 257.834 426.67 257.81V253.58ZM426.346 263.642C426.454 263.402 426.532 263.12 426.58 262.796C426.628 262.472 426.652 262.022 426.652 261.446C426.652 260.87 426.628 260.42 426.58 260.096C426.532 259.76 426.448 259.466 426.328 259.214C426.184 258.806 425.944 258.482 425.608 258.242C425.284 257.99 424.894 257.864 424.438 257.864C423.958 257.864 423.544 257.984 423.196 258.224C422.848 258.464 422.596 258.782 422.44 259.178C422.296 259.442 422.188 259.742 422.116 260.078C422.056 260.402 422.026 260.858 422.026 261.446C422.026 262.01 422.05 262.454 422.098 262.778C422.146 263.09 422.23 263.372 422.35 263.624C422.494 264.056 422.746 264.398 423.106 264.65C423.478 264.902 423.916 265.028 424.42 265.028C424.9 265.028 425.302 264.902 425.626 264.65C425.95 264.398 426.19 264.062 426.346 263.642ZM436.352 257.072C436.352 256.952 436.412 256.892 436.532 256.892H437.45C437.57 256.892 437.63 256.952 437.63 257.072V265.82C437.63 265.94 437.57 266 437.45 266H436.532C436.412 266 436.352 265.94 436.352 265.82V265.046C436.352 265.022 436.34 265.004 436.316 264.992C436.292 264.98 436.274 264.986 436.262 265.01C435.758 265.754 434.96 266.126 433.868 266.126C433.292 266.126 432.758 266.012 432.266 265.784C431.786 265.544 431.402 265.202 431.114 264.758C430.838 264.314 430.7 263.78 430.7 263.156V257.072C430.7 256.952 430.76 256.892 430.88 256.892H431.798C431.918 256.892 431.978 256.952 431.978 257.072V262.778C431.978 263.462 432.17 264.008 432.554 264.416C432.938 264.812 433.46 265.01 434.12 265.01C434.804 265.01 435.344 264.806 435.74 264.398C436.148 263.99 436.352 263.45 436.352 262.778V257.072ZM440.675 266C440.555 266 440.495 265.94 440.495 265.82V253.58C440.495 253.46 440.555 253.4 440.675 253.4H441.593C441.713 253.4 441.773 253.46 441.773 253.58V265.82C441.773 265.94 441.713 266 441.593 266H440.675ZM451.627 259.916C451.675 260.252 451.699 260.672 451.699 261.176V261.752C451.699 261.872 451.639 261.932 451.519 261.932H445.705C445.657 261.932 445.633 261.956 445.633 262.004C445.657 262.664 445.693 263.09 445.741 263.282C445.873 263.822 446.155 264.248 446.587 264.56C447.019 264.872 447.571 265.028 448.243 265.028C448.747 265.028 449.191 264.914 449.575 264.686C449.959 264.458 450.259 264.134 450.475 263.714C450.547 263.606 450.631 263.582 450.727 263.642L451.429 264.056C451.525 264.116 451.549 264.2 451.501 264.308C451.201 264.884 450.751 265.34 450.151 265.676C449.551 266 448.861 266.162 448.081 266.162C447.229 266.15 446.515 265.946 445.939 265.55C445.363 265.154 444.949 264.602 444.697 263.894C444.481 263.318 444.373 262.49 444.373 261.41C444.373 260.906 444.379 260.498 444.391 260.186C444.415 259.862 444.463 259.574 444.535 259.322C444.739 258.542 445.147 257.918 445.759 257.45C446.383 256.982 447.133 256.748 448.009 256.748C449.101 256.748 449.941 257.024 450.529 257.576C451.117 258.128 451.483 258.908 451.627 259.916ZM448.009 257.864C447.421 257.864 446.929 258.02 446.533 258.332C446.149 258.632 445.897 259.04 445.777 259.556C445.705 259.808 445.657 260.216 445.633 260.78C445.633 260.828 445.657 260.852 445.705 260.852H450.367C450.415 260.852 450.439 260.828 450.439 260.78C450.415 260.24 450.379 259.856 450.331 259.628C450.199 259.088 449.929 258.662 449.521 258.35C449.125 258.026 448.621 257.864 448.009 257.864ZM457.071 266.09C456.399 266.09 455.799 265.982 455.271 265.766C454.755 265.55 454.353 265.262 454.065 264.902C453.789 264.542 453.651 264.14 453.651 263.696V263.48C453.651 263.36 453.711 263.3 453.831 263.3H454.695C454.815 263.3 454.875 263.36 454.875 263.48V263.624C454.875 264.02 455.079 264.368 455.487 264.668C455.907 264.956 456.429 265.1 457.053 265.1C457.677 265.1 458.181 264.962 458.565 264.686C458.949 264.398 459.141 264.038 459.141 263.606C459.141 263.306 459.039 263.06 458.835 262.868C458.643 262.676 458.409 262.526 458.133 262.418C457.869 262.31 457.455 262.172 456.891 262.004C456.219 261.812 455.667 261.62 455.235 261.428C454.803 261.236 454.437 260.972 454.137 260.636C453.849 260.288 453.705 259.85 453.705 259.322C453.705 258.554 454.005 257.942 454.605 257.486C455.205 257.03 455.997 256.802 456.981 256.802C457.641 256.802 458.223 256.91 458.727 257.126C459.243 257.342 459.639 257.642 459.915 258.026C460.191 258.398 460.329 258.818 460.329 259.286V259.34C460.329 259.46 460.269 259.52 460.149 259.52H459.303C459.183 259.52 459.123 259.46 459.123 259.34V259.286C459.123 258.878 458.925 258.536 458.529 258.26C458.145 257.984 457.623 257.846 456.963 257.846C456.351 257.846 455.859 257.972 455.487 258.224C455.115 258.464 454.929 258.8 454.929 259.232C454.929 259.64 455.109 259.952 455.469 260.168C455.829 260.384 456.387 260.6 457.143 260.816C457.839 261.02 458.403 261.212 458.835 261.392C459.267 261.572 459.639 261.836 459.951 262.184C460.263 262.52 460.419 262.964 460.419 263.516C460.419 264.296 460.113 264.92 459.501 265.388C458.889 265.856 458.079 266.09 457.071 266.09ZM469.952 254.516C469.292 254.516 468.842 254.666 468.602 254.966C468.362 255.254 468.242 255.752 468.242 256.46V256.82C468.242 256.868 468.266 256.892 468.314 256.892H470.33C470.45 256.892 470.51 256.952 470.51 257.072V257.882C470.51 258.002 470.45 258.062 470.33 258.062H468.314C468.266 258.062 468.242 258.086 468.242 258.134V265.82C468.242 265.94 468.182 266 468.062 266H467.162C467.042 266 466.982 265.94 466.982 265.82V258.134C466.982 258.086 466.958 258.062 466.91 258.062H465.704C465.584 258.062 465.524 258.002 465.524 257.882V257.072C465.524 256.952 465.584 256.892 465.704 256.892H466.91C466.958 256.892 466.982 256.868 466.982 256.82V256.388C466.982 255.644 467.066 255.062 467.234 254.642C467.402 254.21 467.69 253.898 468.098 253.706C468.518 253.502 469.1 253.4 469.844 253.4H470.366C470.486 253.4 470.546 253.46 470.546 253.58V254.336C470.546 254.456 470.486 254.516 470.366 254.516H469.952ZM475.398 266.144C474.534 266.144 473.79 265.922 473.166 265.478C472.542 265.034 472.11 264.422 471.87 263.642C471.702 263.09 471.618 262.352 471.618 261.428C471.618 260.504 471.702 259.772 471.87 259.232C472.098 258.464 472.524 257.858 473.148 257.414C473.772 256.97 474.528 256.748 475.416 256.748C476.268 256.748 477 256.97 477.612 257.414C478.236 257.858 478.662 258.458 478.89 259.214C479.058 259.73 479.142 260.468 479.142 261.428C479.142 262.4 479.058 263.138 478.89 263.642C478.662 264.422 478.236 265.034 477.612 265.478C477 265.922 476.262 266.144 475.398 266.144ZM475.398 265.028C475.974 265.028 476.466 264.872 476.874 264.56C477.282 264.236 477.558 263.804 477.702 263.264C477.81 262.832 477.864 262.226 477.864 261.446C477.864 260.654 477.816 260.048 477.72 259.628C477.576 259.088 477.294 258.662 476.874 258.35C476.466 258.026 475.968 257.864 475.38 257.864C474.792 257.864 474.294 258.026 473.886 258.35C473.478 258.662 473.202 259.088 473.058 259.628C472.962 260.048 472.914 260.654 472.914 261.446C472.914 262.238 472.962 262.844 473.058 263.264C473.19 263.804 473.46 264.236 473.868 264.56C474.288 264.872 474.798 265.028 475.398 265.028ZM485.405 256.802C485.801 256.802 486.143 256.88 486.431 257.036C486.527 257.084 486.563 257.162 486.539 257.27L486.341 258.152C486.305 258.272 486.227 258.308 486.107 258.26C485.903 258.176 485.669 258.134 485.405 258.134L485.171 258.152C484.547 258.176 484.031 258.41 483.623 258.854C483.215 259.286 483.011 259.838 483.011 260.51V265.82C483.011 265.94 482.951 266 482.831 266H481.913C481.793 266 481.733 265.94 481.733 265.82V257.072C481.733 256.952 481.793 256.892 481.913 256.892H482.831C482.951 256.892 483.011 256.952 483.011 257.072V258.17C483.011 258.206 483.017 258.23 483.029 258.242C483.053 258.242 483.071 258.23 483.083 258.206C483.335 257.762 483.653 257.42 484.037 257.18C484.433 256.928 484.889 256.802 485.405 256.802ZM498.193 260.042C498.433 260.63 498.553 261.332 498.553 262.148C498.553 262.808 498.463 263.39 498.283 263.894C498.043 264.614 497.635 265.172 497.059 265.568C496.495 265.952 495.793 266.144 494.953 266.144C494.113 266.144 493.393 265.928 492.793 265.496C492.193 265.052 491.779 264.458 491.551 263.714C491.443 263.378 491.377 262.922 491.353 262.346C491.353 262.226 491.413 262.166 491.533 262.166H492.451C492.571 262.166 492.631 262.226 492.631 262.346C492.655 262.694 492.697 263.018 492.757 263.318C492.889 263.846 493.141 264.266 493.513 264.578C493.897 264.878 494.371 265.028 494.935 265.028C496.015 265.028 496.717 264.548 497.041 263.588C497.185 263.192 497.257 262.7 497.257 262.112C497.257 261.392 497.161 260.804 496.969 260.348C496.585 259.484 495.907 259.052 494.935 259.052C494.755 259.052 494.533 259.118 494.269 259.25C494.221 259.274 494.185 259.286 494.161 259.286C494.113 259.286 494.071 259.256 494.035 259.196L493.567 258.566C493.507 258.47 493.513 258.386 493.585 258.314L496.753 254.606C496.789 254.546 496.777 254.516 496.717 254.516H491.641C491.521 254.516 491.461 254.456 491.461 254.336V253.58C491.461 253.46 491.521 253.4 491.641 253.4H498.301C498.421 253.4 498.481 253.46 498.481 253.58V254.462C498.481 254.522 498.451 254.594 498.391 254.678L495.511 258.134C495.487 258.158 495.481 258.182 495.493 258.206C495.505 258.218 495.529 258.224 495.565 258.224C496.849 258.308 497.725 258.914 498.193 260.042ZM505.444 255.236C505.144 255.236 504.898 255.14 504.706 254.948C504.526 254.756 504.436 254.516 504.436 254.228C504.436 253.928 504.526 253.688 504.706 253.508C504.898 253.316 505.144 253.22 505.444 253.22C505.732 253.22 505.972 253.316 506.164 253.508C506.356 253.688 506.452 253.928 506.452 254.228C506.452 254.516 506.356 254.756 506.164 254.948C505.972 255.14 505.732 255.236 505.444 255.236ZM502.87 269.744C502.75 269.744 502.69 269.684 502.69 269.564V268.826C502.69 268.706 502.75 268.646 502.87 268.646C504.154 268.634 504.796 268.016 504.796 266.792V257.072C504.796 256.952 504.856 256.892 504.976 256.892H505.894C506.014 256.892 506.074 256.952 506.074 257.072V266.792C506.074 267.812 505.822 268.556 505.318 269.024C504.814 269.492 503.998 269.732 502.87 269.744ZM512.646 266.144C511.782 266.144 511.038 265.922 510.414 265.478C509.79 265.034 509.358 264.422 509.118 263.642C508.95 263.09 508.866 262.352 508.866 261.428C508.866 260.504 508.95 259.772 509.118 259.232C509.346 258.464 509.772 257.858 510.396 257.414C511.02 256.97 511.776 256.748 512.664 256.748C513.516 256.748 514.248 256.97 514.86 257.414C515.484 257.858 515.91 258.458 516.138 259.214C516.306 259.73 516.39 260.468 516.39 261.428C516.39 262.4 516.306 263.138 516.138 263.642C515.91 264.422 515.484 265.034 514.86 265.478C514.248 265.922 513.51 266.144 512.646 266.144ZM512.646 265.028C513.222 265.028 513.714 264.872 514.122 264.56C514.53 264.236 514.806 263.804 514.95 263.264C515.058 262.832 515.112 262.226 515.112 261.446C515.112 260.654 515.064 260.048 514.968 259.628C514.824 259.088 514.542 258.662 514.122 258.35C513.714 258.026 513.216 257.864 512.628 257.864C512.04 257.864 511.542 258.026 511.134 258.35C510.726 258.662 510.45 259.088 510.306 259.628C510.21 260.048 510.162 260.654 510.162 261.446C510.162 262.238 510.21 262.844 510.306 263.264C510.438 263.804 510.708 264.236 511.116 264.56C511.536 264.872 512.046 265.028 512.646 265.028ZM524.489 257.072C524.489 256.952 524.549 256.892 524.669 256.892H525.587C525.707 256.892 525.767 256.952 525.767 257.072V265.82C525.767 265.94 525.707 266 525.587 266H524.669C524.549 266 524.489 265.94 524.489 265.82V265.046C524.489 265.022 524.477 265.004 524.453 264.992C524.429 264.98 524.411 264.986 524.399 265.01C523.895 265.754 523.097 266.126 522.005 266.126C521.429 266.126 520.895 266.012 520.403 265.784C519.923 265.544 519.539 265.202 519.251 264.758C518.975 264.314 518.837 263.78 518.837 263.156V257.072C518.837 256.952 518.897 256.892 519.017 256.892H519.935C520.055 256.892 520.115 256.952 520.115 257.072V262.778C520.115 263.462 520.307 264.008 520.691 264.416C521.075 264.812 521.597 265.01 522.257 265.01C522.941 265.01 523.481 264.806 523.877 264.398C524.285 263.99 524.489 263.45 524.489 262.778V257.072ZM532.303 256.802C532.699 256.802 533.041 256.88 533.329 257.036C533.425 257.084 533.461 257.162 533.437 257.27L533.239 258.152C533.203 258.272 533.125 258.308 533.005 258.26C532.801 258.176 532.567 258.134 532.303 258.134L532.069 258.152C531.445 258.176 530.929 258.41 530.521 258.854C530.113 259.286 529.909 259.838 529.909 260.51V265.82C529.909 265.94 529.849 266 529.729 266H528.811C528.691 266 528.631 265.94 528.631 265.82V257.072C528.631 256.952 528.691 256.892 528.811 256.892H529.729C529.849 256.892 529.909 256.952 529.909 257.072V258.17C529.909 258.206 529.915 258.23 529.927 258.242C529.951 258.242 529.969 258.23 529.981 258.206C530.233 257.762 530.551 257.42 530.935 257.18C531.331 256.928 531.787 256.802 532.303 256.802ZM538.968 256.766C539.928 256.766 540.69 257.048 541.254 257.612C541.83 258.176 542.118 258.932 542.118 259.88V265.82C542.118 265.94 542.058 266 541.938 266H541.02C540.9 266 540.84 265.94 540.84 265.82V260.132C540.84 259.472 540.636 258.932 540.228 258.512C539.832 258.092 539.316 257.882 538.68 257.882C538.02 257.882 537.486 258.086 537.078 258.494C536.67 258.902 536.466 259.436 536.466 260.096V265.82C536.466 265.94 536.406 266 536.286 266H535.368C535.248 266 535.188 265.94 535.188 265.82V257.072C535.188 256.952 535.248 256.892 535.368 256.892H536.286C536.406 256.892 536.466 256.952 536.466 257.072V257.846C536.466 257.87 536.472 257.888 536.484 257.9C536.508 257.912 536.526 257.906 536.538 257.882C537.066 257.138 537.876 256.766 538.968 256.766ZM551.752 259.916C551.8 260.252 551.824 260.672 551.824 261.176V261.752C551.824 261.872 551.764 261.932 551.644 261.932H545.83C545.782 261.932 545.758 261.956 545.758 262.004C545.782 262.664 545.818 263.09 545.866 263.282C545.998 263.822 546.28 264.248 546.712 264.56C547.144 264.872 547.696 265.028 548.368 265.028C548.872 265.028 549.316 264.914 549.7 264.686C550.084 264.458 550.384 264.134 550.6 263.714C550.672 263.606 550.756 263.582 550.852 263.642L551.554 264.056C551.65 264.116 551.674 264.2 551.626 264.308C551.326 264.884 550.876 265.34 550.276 265.676C549.676 266 548.986 266.162 548.206 266.162C547.354 266.15 546.64 265.946 546.064 265.55C545.488 265.154 545.074 264.602 544.822 263.894C544.606 263.318 544.498 262.49 544.498 261.41C544.498 260.906 544.504 260.498 544.516 260.186C544.54 259.862 544.588 259.574 544.66 259.322C544.864 258.542 545.272 257.918 545.884 257.45C546.508 256.982 547.258 256.748 548.134 256.748C549.226 256.748 550.066 257.024 550.654 257.576C551.242 258.128 551.608 258.908 551.752 259.916ZM548.134 257.864C547.546 257.864 547.054 258.02 546.658 258.332C546.274 258.632 546.022 259.04 545.902 259.556C545.83 259.808 545.782 260.216 545.758 260.78C545.758 260.828 545.782 260.852 545.83 260.852H550.492C550.54 260.852 550.564 260.828 550.564 260.78C550.54 260.24 550.504 259.856 550.456 259.628C550.324 259.088 550.054 258.662 549.646 258.35C549.25 258.026 548.746 257.864 548.134 257.864ZM553.723 269.6C553.639 269.6 553.597 269.54 553.597 269.42V268.7C553.597 268.58 553.657 268.52 553.777 268.52H553.849C554.317 268.508 554.677 268.436 554.929 268.304C555.193 268.184 555.415 267.95 555.595 267.602C555.787 267.266 555.991 266.75 556.207 266.054C556.231 266.006 556.231 265.97 556.207 265.946L553.165 257.09L553.147 257.018C553.147 256.934 553.201 256.892 553.309 256.892H554.263C554.371 256.892 554.443 256.94 554.479 257.036L556.819 264.308C556.831 264.332 556.849 264.344 556.873 264.344C556.897 264.344 556.915 264.332 556.927 264.308L559.231 257.036C559.267 256.94 559.339 256.892 559.447 256.892H560.383C560.515 256.892 560.563 256.958 560.527 257.09L557.197 266.792C556.909 267.596 556.639 268.19 556.387 268.574C556.135 268.958 555.817 269.222 555.433 269.366C555.061 269.522 554.533 269.6 553.849 269.6H553.723ZM564.86 266.09C564.188 266.09 563.588 265.982 563.06 265.766C562.544 265.55 562.142 265.262 561.854 264.902C561.578 264.542 561.44 264.14 561.44 263.696V263.48C561.44 263.36 561.5 263.3 561.62 263.3H562.484C562.604 263.3 562.664 263.36 562.664 263.48V263.624C562.664 264.02 562.868 264.368 563.276 264.668C563.696 264.956 564.218 265.1 564.842 265.1C565.466 265.1 565.97 264.962 566.354 264.686C566.738 264.398 566.93 264.038 566.93 263.606C566.93 263.306 566.828 263.06 566.624 262.868C566.432 262.676 566.198 262.526 565.922 262.418C565.658 262.31 565.244 262.172 564.68 262.004C564.008 261.812 563.456 261.62 563.024 261.428C562.592 261.236 562.226 260.972 561.926 260.636C561.638 260.288 561.494 259.85 561.494 259.322C561.494 258.554 561.794 257.942 562.394 257.486C562.994 257.03 563.786 256.802 564.77 256.802C565.43 256.802 566.012 256.91 566.516 257.126C567.032 257.342 567.428 257.642 567.704 258.026C567.98 258.398 568.118 258.818 568.118 259.286V259.34C568.118 259.46 568.058 259.52 567.938 259.52H567.092C566.972 259.52 566.912 259.46 566.912 259.34V259.286C566.912 258.878 566.714 258.536 566.318 258.26C565.934 257.984 565.412 257.846 564.752 257.846C564.14 257.846 563.648 257.972 563.276 258.224C562.904 258.464 562.718 258.8 562.718 259.232C562.718 259.64 562.898 259.952 563.258 260.168C563.618 260.384 564.176 260.6 564.932 260.816C565.628 261.02 566.192 261.212 566.624 261.392C567.056 261.572 567.428 261.836 567.74 262.184C568.052 262.52 568.208 262.964 568.208 263.516C568.208 264.296 567.902 264.92 567.29 265.388C566.678 265.856 565.868 266.09 564.86 266.09Z" fill="black"/>
</svg>
