<svg viewBox="0 0 721 397" fill="none" xmlns="http://www.w3.org/2000/svg">
<rect width="721" height="397" fill="#F4F8FB"/>
<path d="M305.501 204.144C304.145 204.144 303.071 203.838 302.279 203.226C301.499 202.614 301.109 201.798 301.109 200.778V200.22C301.109 200.1 301.169 200.04 301.289 200.04H302.171C302.291 200.04 302.351 200.1 302.351 200.22V200.706C302.351 201.402 302.639 201.966 303.215 202.398C303.791 202.818 304.589 203.028 305.609 203.028C306.533 203.028 307.235 202.836 307.715 202.452C308.195 202.056 308.435 201.534 308.435 200.886C308.435 200.466 308.321 200.106 308.093 199.806C307.877 199.506 307.535 199.224 307.067 198.96C306.611 198.696 305.963 198.39 305.123 198.042C304.223 197.682 303.521 197.37 303.017 197.106C302.525 196.83 302.123 196.482 301.811 196.062C301.511 195.63 301.361 195.09 301.361 194.442C301.361 193.434 301.709 192.654 302.405 192.102C303.113 191.538 304.079 191.256 305.303 191.256C306.635 191.256 307.685 191.568 308.453 192.192C309.221 192.816 309.605 193.644 309.605 194.676V195.072C309.605 195.192 309.545 195.252 309.425 195.252H308.525C308.405 195.252 308.345 195.192 308.345 195.072V194.748C308.345 194.052 308.069 193.482 307.517 193.038C306.977 192.594 306.221 192.372 305.249 192.372C304.397 192.372 303.743 192.546 303.287 192.894C302.831 193.242 302.603 193.746 302.603 194.406C302.603 194.838 302.711 195.198 302.927 195.486C303.155 195.762 303.473 196.008 303.881 196.224C304.301 196.428 304.943 196.698 305.807 197.034C306.683 197.394 307.385 197.73 307.913 198.042C308.453 198.354 308.885 198.738 309.209 199.194C309.545 199.638 309.713 200.184 309.713 200.832C309.713 201.84 309.341 202.644 308.597 203.244C307.853 203.844 306.821 204.144 305.501 204.144ZM316.013 204.144C314.657 204.144 313.583 203.838 312.791 203.226C312.011 202.614 311.621 201.798 311.621 200.778V200.22C311.621 200.1 311.681 200.04 311.801 200.04H312.683C312.803 200.04 312.863 200.1 312.863 200.22V200.706C312.863 201.402 313.151 201.966 313.727 202.398C314.303 202.818 315.101 203.028 316.121 203.028C317.045 203.028 317.747 202.836 318.227 202.452C318.707 202.056 318.947 201.534 318.947 200.886C318.947 200.466 318.833 200.106 318.605 199.806C318.389 199.506 318.047 199.224 317.579 198.96C317.123 198.696 316.475 198.39 315.635 198.042C314.735 197.682 314.033 197.37 313.529 197.106C313.037 196.83 312.635 196.482 312.323 196.062C312.023 195.63 311.873 195.09 311.873 194.442C311.873 193.434 312.221 192.654 312.917 192.102C313.625 191.538 314.591 191.256 315.815 191.256C317.147 191.256 318.197 191.568 318.965 192.192C319.733 192.816 320.117 193.644 320.117 194.676V195.072C320.117 195.192 320.057 195.252 319.937 195.252H319.037C318.917 195.252 318.857 195.192 318.857 195.072V194.748C318.857 194.052 318.581 193.482 318.029 193.038C317.489 192.594 316.733 192.372 315.761 192.372C314.909 192.372 314.255 192.546 313.799 192.894C313.343 193.242 313.115 193.746 313.115 194.406C313.115 194.838 313.223 195.198 313.439 195.486C313.667 195.762 313.985 196.008 314.393 196.224C314.813 196.428 315.455 196.698 316.319 197.034C317.195 197.394 317.897 197.73 318.425 198.042C318.965 198.354 319.397 198.738 319.721 199.194C320.057 199.638 320.225 200.184 320.225 200.832C320.225 201.84 319.853 202.644 319.109 203.244C318.365 203.844 317.333 204.144 316.013 204.144ZM329.714 204.144C328.85 204.144 328.106 203.922 327.482 203.478C326.858 203.034 326.426 202.422 326.186 201.642C326.018 201.09 325.934 200.352 325.934 199.428C325.934 198.504 326.018 197.772 326.186 197.232C326.414 196.464 326.84 195.858 327.464 195.414C328.088 194.97 328.844 194.748 329.732 194.748C330.584 194.748 331.316 194.97 331.928 195.414C332.552 195.858 332.978 196.458 333.206 197.214C333.374 197.73 333.458 198.468 333.458 199.428C333.458 200.4 333.374 201.138 333.206 201.642C332.978 202.422 332.552 203.034 331.928 203.478C331.316 203.922 330.578 204.144 329.714 204.144ZM329.714 203.028C330.29 203.028 330.782 202.872 331.19 202.56C331.598 202.236 331.874 201.804 332.018 201.264C332.126 200.832 332.18 200.226 332.18 199.446C332.18 198.654 332.132 198.048 332.036 197.628C331.892 197.088 331.61 196.662 331.19 196.35C330.782 196.026 330.284 195.864 329.696 195.864C329.108 195.864 328.61 196.026 328.202 196.35C327.794 196.662 327.518 197.088 327.374 197.628C327.278 198.048 327.23 198.654 327.23 199.446C327.23 200.238 327.278 200.844 327.374 201.264C327.506 201.804 327.776 202.236 328.184 202.56C328.604 202.872 329.114 203.028 329.714 203.028ZM339.543 192.516C338.883 192.516 338.433 192.666 338.193 192.966C337.953 193.254 337.833 193.752 337.833 194.46V194.82C337.833 194.868 337.857 194.892 337.905 194.892H339.921C340.041 194.892 340.101 194.952 340.101 195.072V195.882C340.101 196.002 340.041 196.062 339.921 196.062H337.905C337.857 196.062 337.833 196.086 337.833 196.134V203.82C337.833 203.94 337.773 204 337.653 204H336.753C336.633 204 336.573 203.94 336.573 203.82V196.134C336.573 196.086 336.549 196.062 336.501 196.062H335.295C335.175 196.062 335.115 196.002 335.115 195.882V195.072C335.115 194.952 335.175 194.892 335.295 194.892H336.501C336.549 194.892 336.573 194.868 336.573 194.82V194.388C336.573 193.644 336.657 193.062 336.825 192.642C336.993 192.21 337.281 191.898 337.689 191.706C338.109 191.502 338.691 191.4 339.435 191.4H339.957C340.077 191.4 340.137 191.46 340.137 191.58V192.336C340.137 192.456 340.077 192.516 339.957 192.516H339.543ZM349.742 194.766C350.702 194.766 351.464 195.048 352.028 195.612C352.604 196.176 352.892 196.932 352.892 197.88V203.82C352.892 203.94 352.832 204 352.712 204H351.794C351.674 204 351.614 203.94 351.614 203.82V198.132C351.614 197.472 351.41 196.932 351.002 196.512C350.606 196.092 350.09 195.882 349.454 195.882C348.794 195.882 348.26 196.086 347.852 196.494C347.444 196.902 347.24 197.436 347.24 198.096V203.82C347.24 203.94 347.18 204 347.06 204H346.142C346.022 204 345.962 203.94 345.962 203.82V195.072C345.962 194.952 346.022 194.892 346.142 194.892H347.06C347.18 194.892 347.24 194.952 347.24 195.072V195.846C347.24 195.87 347.246 195.888 347.258 195.9C347.282 195.912 347.3 195.906 347.312 195.882C347.84 195.138 348.65 194.766 349.742 194.766ZM362.527 197.916C362.575 198.252 362.599 198.672 362.599 199.176V199.752C362.599 199.872 362.539 199.932 362.419 199.932H356.605C356.557 199.932 356.533 199.956 356.533 200.004C356.557 200.664 356.593 201.09 356.641 201.282C356.773 201.822 357.055 202.248 357.487 202.56C357.919 202.872 358.471 203.028 359.143 203.028C359.647 203.028 360.091 202.914 360.475 202.686C360.859 202.458 361.159 202.134 361.375 201.714C361.447 201.606 361.531 201.582 361.627 201.642L362.329 202.056C362.425 202.116 362.449 202.2 362.401 202.308C362.101 202.884 361.651 203.34 361.051 203.676C360.451 204 359.761 204.162 358.981 204.162C358.129 204.15 357.415 203.946 356.839 203.55C356.263 203.154 355.849 202.602 355.597 201.894C355.381 201.318 355.273 200.49 355.273 199.41C355.273 198.906 355.279 198.498 355.291 198.186C355.315 197.862 355.363 197.574 355.435 197.322C355.639 196.542 356.047 195.918 356.659 195.45C357.283 194.982 358.033 194.748 358.909 194.748C360.001 194.748 360.841 195.024 361.429 195.576C362.017 196.128 362.383 196.908 362.527 197.916ZM358.909 195.864C358.321 195.864 357.829 196.02 357.433 196.332C357.049 196.632 356.797 197.04 356.677 197.556C356.605 197.808 356.557 198.216 356.533 198.78C356.533 198.828 356.557 198.852 356.605 198.852H361.267C361.315 198.852 361.339 198.828 361.339 198.78C361.315 198.24 361.279 197.856 361.231 197.628C361.099 197.088 360.829 196.662 360.421 196.35C360.025 196.026 359.521 195.864 358.909 195.864ZM368.614 204.144C367.75 204.144 367.006 203.922 366.382 203.478C365.758 203.034 365.326 202.422 365.086 201.642C364.918 201.09 364.834 200.352 364.834 199.428C364.834 198.504 364.918 197.772 365.086 197.232C365.314 196.464 365.74 195.858 366.364 195.414C366.988 194.97 367.744 194.748 368.632 194.748C369.484 194.748 370.216 194.97 370.828 195.414C371.452 195.858 371.878 196.458 372.106 197.214C372.274 197.73 372.358 198.468 372.358 199.428C372.358 200.4 372.274 201.138 372.106 201.642C371.878 202.422 371.452 203.034 370.828 203.478C370.216 203.922 369.478 204.144 368.614 204.144ZM368.614 203.028C369.19 203.028 369.682 202.872 370.09 202.56C370.498 202.236 370.774 201.804 370.918 201.264C371.026 200.832 371.08 200.226 371.08 199.446C371.08 198.654 371.032 198.048 370.936 197.628C370.792 197.088 370.51 196.662 370.09 196.35C369.682 196.026 369.184 195.864 368.596 195.864C368.008 195.864 367.51 196.026 367.102 196.35C366.694 196.662 366.418 197.088 366.274 197.628C366.178 198.048 366.13 198.654 366.13 199.446C366.13 200.238 366.178 200.844 366.274 201.264C366.406 201.804 366.676 202.236 367.084 202.56C367.504 202.872 368.014 203.028 368.614 203.028ZM381.951 197.214C382.095 197.754 382.167 198.498 382.167 199.446C382.167 200.43 382.083 201.192 381.915 201.732C381.687 202.476 381.291 203.064 380.727 203.496C380.163 203.928 379.461 204.144 378.621 204.144C378.141 204.144 377.703 204.048 377.307 203.856C376.911 203.664 376.581 203.388 376.317 203.028C376.305 203.004 376.287 202.998 376.263 203.01C376.239 203.01 376.227 203.022 376.227 203.046V203.82C376.227 203.94 376.167 204 376.047 204H375.129C375.009 204 374.949 203.94 374.949 203.82V191.58C374.949 191.46 375.009 191.4 375.129 191.4H376.047C376.167 191.4 376.227 191.46 376.227 191.58V195.828C376.227 195.852 376.233 195.87 376.245 195.882C376.269 195.882 376.293 195.87 376.317 195.846C376.581 195.498 376.911 195.228 377.307 195.036C377.703 194.844 378.141 194.748 378.621 194.748C379.473 194.748 380.187 194.97 380.763 195.414C381.339 195.846 381.735 196.446 381.951 197.214ZM380.565 201.624C380.685 201.372 380.769 201.09 380.817 200.778C380.865 200.454 380.889 200.01 380.889 199.446C380.889 198.858 380.853 198.402 380.781 198.078C380.721 197.742 380.619 197.442 380.475 197.178C380.319 196.782 380.067 196.464 379.719 196.224C379.371 195.984 378.957 195.864 378.477 195.864C378.021 195.864 377.625 195.99 377.289 196.242C376.965 196.482 376.731 196.806 376.587 197.214C376.467 197.466 376.377 197.754 376.317 198.078C376.269 198.402 376.245 198.858 376.245 199.446C376.245 200.022 376.269 200.472 376.317 200.796C376.377 201.108 376.461 201.39 376.569 201.642C376.725 202.062 376.965 202.398 377.289 202.65C377.613 202.902 378.015 203.028 378.495 203.028C378.999 203.028 379.431 202.902 379.791 202.65C380.163 202.398 380.421 202.056 380.565 201.624ZM387.925 194.748C389.005 194.748 389.839 195.024 390.427 195.576C391.015 196.128 391.309 196.86 391.309 197.772V203.82C391.309 203.94 391.249 204 391.129 204H390.211C390.091 204 390.031 203.94 390.031 203.82V203.082C390.031 203.058 390.019 203.04 389.995 203.028C389.983 203.016 389.965 203.022 389.941 203.046C389.641 203.406 389.251 203.682 388.771 203.874C388.291 204.054 387.757 204.144 387.169 204.144C386.317 204.144 385.603 203.928 385.027 203.496C384.451 203.064 384.163 202.404 384.163 201.516C384.163 200.616 384.487 199.908 385.135 199.392C385.795 198.864 386.707 198.6 387.871 198.6H389.959C390.007 198.6 390.031 198.576 390.031 198.528V197.844C390.031 197.232 389.857 196.752 389.509 196.404C389.173 196.044 388.645 195.864 387.925 195.864C387.349 195.864 386.881 195.978 386.521 196.206C386.161 196.422 385.939 196.728 385.855 197.124C385.819 197.244 385.747 197.298 385.639 197.286L384.667 197.16C384.535 197.136 384.481 197.088 384.505 197.016C384.601 196.344 384.961 195.798 385.585 195.378C386.209 194.958 386.989 194.748 387.925 194.748ZM387.421 203.046C388.129 203.046 388.741 202.872 389.257 202.524C389.773 202.164 390.031 201.684 390.031 201.084V199.68C390.031 199.632 390.007 199.608 389.959 199.608H388.069C387.277 199.608 386.641 199.77 386.161 200.094C385.681 200.418 385.441 200.868 385.441 201.444C385.441 201.972 385.621 202.374 385.981 202.65C386.353 202.914 386.833 203.046 387.421 203.046ZM397.748 194.766C398.708 194.766 399.47 195.048 400.034 195.612C400.61 196.176 400.898 196.932 400.898 197.88V203.82C400.898 203.94 400.838 204 400.718 204H399.8C399.68 204 399.62 203.94 399.62 203.82V198.132C399.62 197.472 399.416 196.932 399.008 196.512C398.612 196.092 398.096 195.882 397.46 195.882C396.8 195.882 396.266 196.086 395.858 196.494C395.45 196.902 395.246 197.436 395.246 198.096V203.82C395.246 203.94 395.186 204 395.066 204H394.148C394.028 204 393.968 203.94 393.968 203.82V195.072C393.968 194.952 394.028 194.892 394.148 194.892H395.066C395.186 194.892 395.246 194.952 395.246 195.072V195.846C395.246 195.87 395.252 195.888 395.264 195.9C395.288 195.912 395.306 195.906 395.318 195.882C395.846 195.138 396.656 194.766 397.748 194.766ZM403.834 204C403.714 204 403.654 203.94 403.654 203.82V191.58C403.654 191.46 403.714 191.4 403.834 191.4H404.752C404.872 191.4 404.932 191.46 404.932 191.58V198.942C404.932 198.966 404.938 198.984 404.95 198.996C404.974 199.008 404.998 199.002 405.022 198.978L408.838 194.982C408.898 194.922 408.97 194.892 409.054 194.892H410.134C410.206 194.892 410.254 194.916 410.278 194.964C410.302 195.012 410.29 195.06 410.242 195.108L407.938 197.664C407.914 197.688 407.908 197.718 407.92 197.754L410.674 203.784L410.692 203.856C410.692 203.952 410.638 204 410.53 204H409.558C409.462 204 409.396 203.952 409.36 203.856L407.038 198.6C407.014 198.552 406.984 198.546 406.948 198.582L404.968 200.67C404.944 200.694 404.932 200.724 404.932 200.76V203.82C404.932 203.94 404.872 204 404.752 204H403.834ZM415.589 204.09C414.917 204.09 414.317 203.982 413.789 203.766C413.273 203.55 412.871 203.262 412.583 202.902C412.307 202.542 412.169 202.14 412.169 201.696V201.48C412.169 201.36 412.229 201.3 412.349 201.3H413.213C413.333 201.3 413.393 201.36 413.393 201.48V201.624C413.393 202.02 413.597 202.368 414.005 202.668C414.425 202.956 414.947 203.1 415.571 203.1C416.195 203.1 416.699 202.962 417.083 202.686C417.467 202.398 417.659 202.038 417.659 201.606C417.659 201.306 417.557 201.06 417.353 200.868C417.161 200.676 416.927 200.526 416.651 200.418C416.387 200.31 415.973 200.172 415.409 200.004C414.737 199.812 414.185 199.62 413.753 199.428C413.321 199.236 412.955 198.972 412.655 198.636C412.367 198.288 412.223 197.85 412.223 197.322C412.223 196.554 412.523 195.942 413.123 195.486C413.723 195.03 414.515 194.802 415.499 194.802C416.159 194.802 416.741 194.91 417.245 195.126C417.761 195.342 418.157 195.642 418.433 196.026C418.709 196.398 418.847 196.818 418.847 197.286V197.34C418.847 197.46 418.787 197.52 418.667 197.52H417.821C417.701 197.52 417.641 197.46 417.641 197.34V197.286C417.641 196.878 417.443 196.536 417.047 196.26C416.663 195.984 416.141 195.846 415.481 195.846C414.869 195.846 414.377 195.972 414.005 196.224C413.633 196.464 413.447 196.8 413.447 197.232C413.447 197.64 413.627 197.952 413.987 198.168C414.347 198.384 414.905 198.6 415.661 198.816C416.357 199.02 416.921 199.212 417.353 199.392C417.785 199.572 418.157 199.836 418.469 200.184C418.781 200.52 418.937 200.964 418.937 201.516C418.937 202.296 418.631 202.92 418.019 203.388C417.407 203.856 416.597 204.09 415.589 204.09Z" fill="black"/>
</svg>
