<svg viewBox="0 0 967 397" fill="none" xmlns="http://www.w3.org/2000/svg">
<rect width="967" height="397" fill="#F4F8FB"/>
<path d="M404.031 204C403.935 204 403.869 203.952 403.833 203.856L400.377 191.598L400.359 191.544C400.359 191.448 400.419 191.4 400.539 191.4H401.493C401.601 191.4 401.667 191.448 401.691 191.544L404.427 201.408C404.439 201.432 404.451 201.444 404.463 201.444C404.487 201.444 404.505 201.432 404.517 201.408L407.055 191.562C407.079 191.454 407.145 191.4 407.253 191.4H408.225C408.333 191.4 408.399 191.454 408.423 191.562L411.069 201.408C411.081 201.432 411.093 201.444 411.105 201.444C411.129 201.444 411.147 201.432 411.159 201.408L413.895 191.544C413.919 191.448 413.985 191.4 414.093 191.4H415.011C415.071 191.4 415.113 191.418 415.137 191.454C415.173 191.49 415.185 191.538 415.173 191.598L411.771 203.856C411.747 203.952 411.681 204 411.573 204H410.619C410.511 204 410.445 203.946 410.421 203.838L407.793 193.758C407.781 193.734 407.763 193.722 407.739 193.722C407.727 193.722 407.715 193.734 407.703 193.758L405.129 203.838C405.117 203.946 405.051 204 404.931 204H404.031ZM420.896 194.766C421.856 194.766 422.618 195.048 423.182 195.612C423.758 196.176 424.046 196.932 424.046 197.88V203.82C424.046 203.94 423.986 204 423.866 204H422.948C422.828 204 422.768 203.94 422.768 203.82V198.132C422.768 197.472 422.564 196.932 422.156 196.512C421.76 196.092 421.244 195.882 420.608 195.882C419.948 195.882 419.414 196.086 419.006 196.494C418.598 196.902 418.394 197.436 418.394 198.096V203.82C418.394 203.94 418.334 204 418.214 204H417.296C417.176 204 417.116 203.94 417.116 203.82V191.58C417.116 191.46 417.176 191.4 417.296 191.4H418.214C418.334 191.4 418.394 191.46 418.394 191.58V195.846C418.394 195.87 418.4 195.888 418.412 195.9C418.436 195.912 418.454 195.906 418.466 195.882C418.994 195.138 419.804 194.766 420.896 194.766ZM429.969 194.748C431.049 194.748 431.883 195.024 432.471 195.576C433.059 196.128 433.353 196.86 433.353 197.772V203.82C433.353 203.94 433.293 204 433.173 204H432.255C432.135 204 432.075 203.94 432.075 203.82V203.082C432.075 203.058 432.063 203.04 432.039 203.028C432.027 203.016 432.009 203.022 431.985 203.046C431.685 203.406 431.295 203.682 430.815 203.874C430.335 204.054 429.801 204.144 429.213 204.144C428.361 204.144 427.647 203.928 427.071 203.496C426.495 203.064 426.207 202.404 426.207 201.516C426.207 200.616 426.531 199.908 427.179 199.392C427.839 198.864 428.751 198.6 429.915 198.6H432.003C432.051 198.6 432.075 198.576 432.075 198.528V197.844C432.075 197.232 431.901 196.752 431.553 196.404C431.217 196.044 430.689 195.864 429.969 195.864C429.393 195.864 428.925 195.978 428.565 196.206C428.205 196.422 427.983 196.728 427.899 197.124C427.863 197.244 427.791 197.298 427.683 197.286L426.711 197.16C426.579 197.136 426.525 197.088 426.549 197.016C426.645 196.344 427.005 195.798 427.629 195.378C428.253 194.958 429.033 194.748 429.969 194.748ZM429.465 203.046C430.173 203.046 430.785 202.872 431.301 202.524C431.817 202.164 432.075 201.684 432.075 201.084V199.68C432.075 199.632 432.051 199.608 432.003 199.608H430.113C429.321 199.608 428.685 199.77 428.205 200.094C427.725 200.418 427.485 200.868 427.485 201.444C427.485 201.972 427.665 202.374 428.025 202.65C428.397 202.914 428.877 203.046 429.465 203.046ZM440.028 195.774C440.028 195.894 439.968 195.954 439.848 195.954H437.814C437.766 195.954 437.742 195.978 437.742 196.026V201.336C437.742 201.912 437.868 202.32 438.12 202.56C438.384 202.788 438.792 202.902 439.344 202.902H439.794C439.914 202.902 439.974 202.962 439.974 203.082V203.82C439.974 203.94 439.914 204 439.794 204C439.65 204.012 439.428 204.018 439.128 204.018C438.264 204.018 437.61 203.856 437.166 203.532C436.722 203.208 436.5 202.608 436.5 201.732V196.026C436.5 195.978 436.476 195.954 436.428 195.954H435.33C435.21 195.954 435.15 195.894 435.15 195.774V195.072C435.15 194.952 435.21 194.892 435.33 194.892H436.428C436.476 194.892 436.5 194.868 436.5 194.82V192.732C436.5 192.612 436.56 192.552 436.68 192.552H437.562C437.682 192.552 437.742 192.612 437.742 192.732V194.82C437.742 194.868 437.766 194.892 437.814 194.892H439.848C439.968 194.892 440.028 194.952 440.028 195.072V195.774ZM449.09 204.09C448.418 204.09 447.818 203.982 447.29 203.766C446.774 203.55 446.372 203.262 446.084 202.902C445.808 202.542 445.67 202.14 445.67 201.696V201.48C445.67 201.36 445.73 201.3 445.85 201.3H446.714C446.834 201.3 446.894 201.36 446.894 201.48V201.624C446.894 202.02 447.098 202.368 447.506 202.668C447.926 202.956 448.448 203.1 449.072 203.1C449.696 203.1 450.2 202.962 450.584 202.686C450.968 202.398 451.16 202.038 451.16 201.606C451.16 201.306 451.058 201.06 450.854 200.868C450.662 200.676 450.428 200.526 450.152 200.418C449.888 200.31 449.474 200.172 448.91 200.004C448.238 199.812 447.686 199.62 447.254 199.428C446.822 199.236 446.456 198.972 446.156 198.636C445.868 198.288 445.724 197.85 445.724 197.322C445.724 196.554 446.024 195.942 446.624 195.486C447.224 195.03 448.016 194.802 449 194.802C449.66 194.802 450.242 194.91 450.746 195.126C451.262 195.342 451.658 195.642 451.934 196.026C452.21 196.398 452.348 196.818 452.348 197.286V197.34C452.348 197.46 452.288 197.52 452.168 197.52H451.322C451.202 197.52 451.142 197.46 451.142 197.34V197.286C451.142 196.878 450.944 196.536 450.548 196.26C450.164 195.984 449.642 195.846 448.982 195.846C448.37 195.846 447.878 195.972 447.506 196.224C447.134 196.464 446.948 196.8 446.948 197.232C446.948 197.64 447.128 197.952 447.488 198.168C447.848 198.384 448.406 198.6 449.162 198.816C449.858 199.02 450.422 199.212 450.854 199.392C451.286 199.572 451.658 199.836 451.97 200.184C452.282 200.52 452.438 200.964 452.438 201.516C452.438 202.296 452.132 202.92 451.52 203.388C450.908 203.856 450.098 204.09 449.09 204.09ZM458.837 195.774C458.837 195.894 458.777 195.954 458.657 195.954H456.623C456.575 195.954 456.551 195.978 456.551 196.026V201.336C456.551 201.912 456.677 202.32 456.929 202.56C457.193 202.788 457.601 202.902 458.153 202.902H458.603C458.723 202.902 458.783 202.962 458.783 203.082V203.82C458.783 203.94 458.723 204 458.603 204C458.459 204.012 458.237 204.018 457.937 204.018C457.073 204.018 456.419 203.856 455.975 203.532C455.531 203.208 455.309 202.608 455.309 201.732V196.026C455.309 195.978 455.285 195.954 455.237 195.954H454.139C454.019 195.954 453.959 195.894 453.959 195.774V195.072C453.959 194.952 454.019 194.892 454.139 194.892H455.237C455.285 194.892 455.309 194.868 455.309 194.82V192.732C455.309 192.612 455.369 192.552 455.489 192.552H456.371C456.491 192.552 456.551 192.612 456.551 192.732V194.82C456.551 194.868 456.575 194.892 456.623 194.892H458.657C458.777 194.892 458.837 194.952 458.837 195.072V195.774ZM464.518 204.144C463.654 204.144 462.91 203.922 462.286 203.478C461.662 203.034 461.23 202.422 460.99 201.642C460.822 201.09 460.738 200.352 460.738 199.428C460.738 198.504 460.822 197.772 460.99 197.232C461.218 196.464 461.644 195.858 462.268 195.414C462.892 194.97 463.648 194.748 464.536 194.748C465.388 194.748 466.12 194.97 466.732 195.414C467.356 195.858 467.782 196.458 468.01 197.214C468.178 197.73 468.262 198.468 468.262 199.428C468.262 200.4 468.178 201.138 468.01 201.642C467.782 202.422 467.356 203.034 466.732 203.478C466.12 203.922 465.382 204.144 464.518 204.144ZM464.518 203.028C465.094 203.028 465.586 202.872 465.994 202.56C466.402 202.236 466.678 201.804 466.822 201.264C466.93 200.832 466.984 200.226 466.984 199.446C466.984 198.654 466.936 198.048 466.84 197.628C466.696 197.088 466.414 196.662 465.994 196.35C465.586 196.026 465.088 195.864 464.5 195.864C463.912 195.864 463.414 196.026 463.006 196.35C462.598 196.662 462.322 197.088 462.178 197.628C462.082 198.048 462.034 198.654 462.034 199.446C462.034 200.238 462.082 200.844 462.178 201.264C462.31 201.804 462.58 202.236 462.988 202.56C463.408 202.872 463.918 203.028 464.518 203.028ZM474.326 204.144C473.462 204.144 472.718 203.922 472.094 203.478C471.47 203.034 471.038 202.422 470.798 201.642C470.63 201.09 470.546 200.352 470.546 199.428C470.546 198.504 470.63 197.772 470.798 197.232C471.026 196.464 471.452 195.858 472.076 195.414C472.7 194.97 473.456 194.748 474.344 194.748C475.196 194.748 475.928 194.97 476.54 195.414C477.164 195.858 477.59 196.458 477.818 197.214C477.986 197.73 478.07 198.468 478.07 199.428C478.07 200.4 477.986 201.138 477.818 201.642C477.59 202.422 477.164 203.034 476.54 203.478C475.928 203.922 475.19 204.144 474.326 204.144ZM474.326 203.028C474.902 203.028 475.394 202.872 475.802 202.56C476.21 202.236 476.486 201.804 476.63 201.264C476.738 200.832 476.792 200.226 476.792 199.446C476.792 198.654 476.744 198.048 476.648 197.628C476.504 197.088 476.222 196.662 475.802 196.35C475.394 196.026 474.896 195.864 474.308 195.864C473.72 195.864 473.222 196.026 472.814 196.35C472.406 196.662 472.13 197.088 471.986 197.628C471.89 198.048 471.842 198.654 471.842 199.446C471.842 200.238 471.89 200.844 471.986 201.264C472.118 201.804 472.388 202.236 472.796 202.56C473.216 202.872 473.726 203.028 474.326 203.028ZM486.313 191.58C486.313 191.46 486.373 191.4 486.493 191.4H487.411C487.531 191.4 487.591 191.46 487.591 191.58V203.82C487.591 203.94 487.531 204 487.411 204H486.493C486.373 204 486.313 203.94 486.313 203.82V203.064C486.313 203.04 486.301 203.028 486.277 203.028C486.265 203.016 486.247 203.022 486.223 203.046C485.959 203.394 485.629 203.664 485.233 203.856C484.849 204.048 484.417 204.144 483.937 204.144C483.097 204.144 482.389 203.928 481.813 203.496C481.249 203.064 480.859 202.476 480.643 201.732C480.475 201.192 480.391 200.43 480.391 199.446C480.391 198.45 480.463 197.706 480.607 197.214C480.823 196.446 481.219 195.846 481.795 195.414C482.371 194.97 483.085 194.748 483.937 194.748C484.405 194.748 484.837 194.844 485.233 195.036C485.629 195.216 485.959 195.48 486.223 195.828C486.247 195.852 486.265 195.864 486.277 195.864C486.301 195.852 486.313 195.834 486.313 195.81V191.58ZM485.989 201.642C486.097 201.402 486.175 201.12 486.223 200.796C486.271 200.472 486.295 200.022 486.295 199.446C486.295 198.87 486.271 198.42 486.223 198.096C486.175 197.76 486.091 197.466 485.971 197.214C485.827 196.806 485.587 196.482 485.251 196.242C484.927 195.99 484.537 195.864 484.081 195.864C483.601 195.864 483.187 195.984 482.839 196.224C482.491 196.464 482.239 196.782 482.083 197.178C481.939 197.442 481.831 197.742 481.759 198.078C481.699 198.402 481.669 198.858 481.669 199.446C481.669 200.01 481.693 200.454 481.741 200.778C481.789 201.09 481.873 201.372 481.993 201.624C482.137 202.056 482.389 202.398 482.749 202.65C483.121 202.902 483.559 203.028 484.063 203.028C484.543 203.028 484.945 202.902 485.269 202.65C485.593 202.398 485.833 202.062 485.989 201.642ZM497.564 204.144C496.7 204.144 495.956 203.922 495.332 203.478C494.708 203.034 494.276 202.422 494.036 201.642C493.868 201.09 493.784 200.352 493.784 199.428C493.784 198.504 493.868 197.772 494.036 197.232C494.264 196.464 494.69 195.858 495.314 195.414C495.938 194.97 496.694 194.748 497.582 194.748C498.434 194.748 499.166 194.97 499.778 195.414C500.402 195.858 500.828 196.458 501.056 197.214C501.224 197.73 501.308 198.468 501.308 199.428C501.308 200.4 501.224 201.138 501.056 201.642C500.828 202.422 500.402 203.034 499.778 203.478C499.166 203.922 498.428 204.144 497.564 204.144ZM497.564 203.028C498.14 203.028 498.632 202.872 499.04 202.56C499.448 202.236 499.724 201.804 499.868 201.264C499.976 200.832 500.03 200.226 500.03 199.446C500.03 198.654 499.982 198.048 499.886 197.628C499.742 197.088 499.46 196.662 499.04 196.35C498.632 196.026 498.134 195.864 497.546 195.864C496.958 195.864 496.46 196.026 496.052 196.35C495.644 196.662 495.368 197.088 495.224 197.628C495.128 198.048 495.08 198.654 495.08 199.446C495.08 200.238 495.128 200.844 495.224 201.264C495.356 201.804 495.626 202.236 496.034 202.56C496.454 202.872 496.964 203.028 497.564 203.028ZM509.407 195.072C509.407 194.952 509.467 194.892 509.587 194.892H510.505C510.625 194.892 510.685 194.952 510.685 195.072V203.82C510.685 203.94 510.625 204 510.505 204H509.587C509.467 204 509.407 203.94 509.407 203.82V203.046C509.407 203.022 509.395 203.004 509.371 202.992C509.347 202.98 509.329 202.986 509.317 203.01C508.813 203.754 508.015 204.126 506.923 204.126C506.347 204.126 505.813 204.012 505.321 203.784C504.841 203.544 504.457 203.202 504.169 202.758C503.893 202.314 503.755 201.78 503.755 201.156V195.072C503.755 194.952 503.815 194.892 503.935 194.892H504.853C504.973 194.892 505.033 194.952 505.033 195.072V200.778C505.033 201.462 505.225 202.008 505.609 202.416C505.993 202.812 506.515 203.01 507.175 203.01C507.859 203.01 508.399 202.806 508.795 202.398C509.203 201.99 509.407 201.45 509.407 200.778V195.072ZM517.635 195.774C517.635 195.894 517.575 195.954 517.455 195.954H515.421C515.373 195.954 515.349 195.978 515.349 196.026V201.336C515.349 201.912 515.475 202.32 515.727 202.56C515.991 202.788 516.399 202.902 516.951 202.902H517.401C517.521 202.902 517.581 202.962 517.581 203.082V203.82C517.581 203.94 517.521 204 517.401 204C517.257 204.012 517.035 204.018 516.735 204.018C515.871 204.018 515.217 203.856 514.773 203.532C514.329 203.208 514.107 202.608 514.107 201.732V196.026C514.107 195.978 514.083 195.954 514.035 195.954H512.937C512.817 195.954 512.757 195.894 512.757 195.774V195.072C512.757 194.952 512.817 194.892 512.937 194.892H514.035C514.083 194.892 514.107 194.868 514.107 194.82V192.732C514.107 192.612 514.167 192.552 514.287 192.552H515.169C515.289 192.552 515.349 192.612 515.349 192.732V194.82C515.349 194.868 515.373 194.892 515.421 194.892H517.455C517.575 194.892 517.635 194.952 517.635 195.072V195.774ZM527.31 192.516C526.65 192.516 526.2 192.666 525.96 192.966C525.72 193.254 525.6 193.752 525.6 194.46V194.82C525.6 194.868 525.624 194.892 525.672 194.892H527.688C527.808 194.892 527.868 194.952 527.868 195.072V195.882C527.868 196.002 527.808 196.062 527.688 196.062H525.672C525.624 196.062 525.6 196.086 525.6 196.134V203.82C525.6 203.94 525.54 204 525.42 204H524.52C524.4 204 524.34 203.94 524.34 203.82V196.134C524.34 196.086 524.316 196.062 524.268 196.062H523.062C522.942 196.062 522.882 196.002 522.882 195.882V195.072C522.882 194.952 522.942 194.892 523.062 194.892H524.268C524.316 194.892 524.34 194.868 524.34 194.82V194.388C524.34 193.644 524.424 193.062 524.592 192.642C524.76 192.21 525.048 191.898 525.456 191.706C525.876 191.502 526.458 191.4 527.202 191.4H527.724C527.844 191.4 527.904 191.46 527.904 191.58V192.336C527.904 192.456 527.844 192.516 527.724 192.516H527.31ZM532.756 204.144C531.892 204.144 531.148 203.922 530.524 203.478C529.9 203.034 529.468 202.422 529.228 201.642C529.06 201.09 528.976 200.352 528.976 199.428C528.976 198.504 529.06 197.772 529.228 197.232C529.456 196.464 529.882 195.858 530.506 195.414C531.13 194.97 531.886 194.748 532.774 194.748C533.626 194.748 534.358 194.97 534.97 195.414C535.594 195.858 536.02 196.458 536.248 197.214C536.416 197.73 536.5 198.468 536.5 199.428C536.5 200.4 536.416 201.138 536.248 201.642C536.02 202.422 535.594 203.034 534.97 203.478C534.358 203.922 533.62 204.144 532.756 204.144ZM532.756 203.028C533.332 203.028 533.824 202.872 534.232 202.56C534.64 202.236 534.916 201.804 535.06 201.264C535.168 200.832 535.222 200.226 535.222 199.446C535.222 198.654 535.174 198.048 535.078 197.628C534.934 197.088 534.652 196.662 534.232 196.35C533.824 196.026 533.326 195.864 532.738 195.864C532.15 195.864 531.652 196.026 531.244 196.35C530.836 196.662 530.56 197.088 530.416 197.628C530.32 198.048 530.272 198.654 530.272 199.446C530.272 200.238 530.32 200.844 530.416 201.264C530.548 201.804 530.818 202.236 531.226 202.56C531.646 202.872 532.156 203.028 532.756 203.028ZM542.762 194.802C543.158 194.802 543.5 194.88 543.788 195.036C543.884 195.084 543.92 195.162 543.896 195.27L543.698 196.152C543.662 196.272 543.584 196.308 543.464 196.26C543.26 196.176 543.026 196.134 542.762 196.134L542.528 196.152C541.904 196.176 541.388 196.41 540.98 196.854C540.572 197.286 540.368 197.838 540.368 198.51V203.82C540.368 203.94 540.308 204 540.188 204H539.27C539.15 204 539.09 203.94 539.09 203.82V195.072C539.09 194.952 539.15 194.892 539.27 194.892H540.188C540.308 194.892 540.368 194.952 540.368 195.072V196.17C540.368 196.206 540.374 196.23 540.386 196.242C540.41 196.242 540.428 196.23 540.44 196.206C540.692 195.762 541.01 195.42 541.394 195.18C541.79 194.928 542.246 194.802 542.762 194.802ZM554.759 195.072C554.759 194.952 554.819 194.892 554.939 194.892H555.857C555.977 194.892 556.037 194.952 556.037 195.072V203.82C556.037 203.94 555.977 204 555.857 204H554.939C554.819 204 554.759 203.94 554.759 203.82V203.046C554.759 203.022 554.747 203.004 554.723 202.992C554.699 202.98 554.681 202.986 554.669 203.01C554.165 203.754 553.367 204.126 552.275 204.126C551.699 204.126 551.165 204.012 550.673 203.784C550.193 203.544 549.809 203.202 549.521 202.758C549.245 202.314 549.107 201.78 549.107 201.156V195.072C549.107 194.952 549.167 194.892 549.287 194.892H550.205C550.325 194.892 550.385 194.952 550.385 195.072V200.778C550.385 201.462 550.577 202.008 550.961 202.416C551.345 202.812 551.867 203.01 552.527 203.01C553.211 203.01 553.751 202.806 554.147 202.398C554.555 201.99 554.759 201.45 554.759 200.778V195.072ZM561.889 204.09C561.217 204.09 560.617 203.982 560.089 203.766C559.573 203.55 559.171 203.262 558.883 202.902C558.607 202.542 558.469 202.14 558.469 201.696V201.48C558.469 201.36 558.529 201.3 558.649 201.3H559.513C559.633 201.3 559.693 201.36 559.693 201.48V201.624C559.693 202.02 559.897 202.368 560.305 202.668C560.725 202.956 561.247 203.1 561.871 203.1C562.495 203.1 562.999 202.962 563.383 202.686C563.767 202.398 563.959 202.038 563.959 201.606C563.959 201.306 563.857 201.06 563.653 200.868C563.461 200.676 563.227 200.526 562.951 200.418C562.687 200.31 562.273 200.172 561.709 200.004C561.037 199.812 560.485 199.62 560.053 199.428C559.621 199.236 559.255 198.972 558.955 198.636C558.667 198.288 558.523 197.85 558.523 197.322C558.523 196.554 558.823 195.942 559.423 195.486C560.023 195.03 560.815 194.802 561.799 194.802C562.459 194.802 563.041 194.91 563.545 195.126C564.061 195.342 564.457 195.642 564.733 196.026C565.009 196.398 565.147 196.818 565.147 197.286V197.34C565.147 197.46 565.087 197.52 564.967 197.52H564.121C564.001 197.52 563.941 197.46 563.941 197.34V197.286C563.941 196.878 563.743 196.536 563.347 196.26C562.963 195.984 562.441 195.846 561.781 195.846C561.169 195.846 560.677 195.972 560.305 196.224C559.933 196.464 559.747 196.8 559.747 197.232C559.747 197.64 559.927 197.952 560.287 198.168C560.647 198.384 561.205 198.6 561.961 198.816C562.657 199.02 563.221 199.212 563.653 199.392C564.085 199.572 564.457 199.836 564.769 200.184C565.081 200.52 565.237 200.964 565.237 201.516C565.237 202.296 564.931 202.92 564.319 203.388C563.707 203.856 562.897 204.09 561.889 204.09Z" fill="black"/>
</svg>
