<svg width="296" height="332" viewBox="0 0 296 331" fill="none"
    xmlns="http://www.w3.org/2000/svg">
    <path d="M169.965 195.864C169.945 190.396 167.58 187.404 164.416 183.815" stroke="#221F20" stroke-width="0.404319" stroke-miterlimit="10"/>
    <path d="M295.436 117.093C212.136 165.914 213.056 130.465 149.679 167.107" stroke="#5FB157" stroke-width="0.404319" stroke-miterlimit="10"/>
    <path d="M250.303 104.306C189.019 134.67 183.965 109.38 127.411 141.867" stroke="#5FB157" stroke-width="0.404319" stroke-miterlimit="10"/>
    <path d="M213.197 118.417C223.174 116.011 234.98 111.897 250.303 104.306L250.131 57.1628L212.874 79.178L213.015 118.468" fill="#8C3828"/>
    <path d="M213.197 118.417C185.805 125.028 172.22 118.771 137.6 136.338L137.418 85.1821L148.698 88.2145L212.874 79.1678L213.015 118.458" fill="#822C23"/>
    <path d="M32.0517 51.3407C31.1824 51.7956 30.2929 52.3009 29.3428 52.8468" stroke="#5FB157" stroke-width="0.404319" stroke-miterlimit="10"/>
    <path d="M169.996 204.183L169.965 195.864C169.945 190.396 167.58 187.404 164.416 183.815L149.679 167.107C213.056 130.465 212.136 165.914 295.436 117.093L295.607 165.793C222.213 208.812 214.218 185.069 169.996 204.183Z" fill="#AA7968"/>
    <path d="M149.688 171.14C213.065 134.499 212.146 169.947 295.445 121.126" stroke="#BD8B7C" stroke-width="1.63749" stroke-miterlimit="10"/>
    <path d="M149.708 176.043C213.085 139.401 212.166 174.85 295.465 126.028" stroke="#BD8B7C" stroke-width="1.22306" stroke-miterlimit="10"/>
    <path d="M179.406 60.5692L190.697 63.6016L250.142 57.1628L212.874 79.178L148.709 88.2246L137.418 85.1922L179.406 60.5692Z" fill="#965042"/>
    <path d="M97.5821 83.2514L94.4385 81.3309L94.4082 72.8301L97.5518 74.7506L97.5821 83.2514Z" fill="#D1893E"/>
    <path d="M99.1488 82.3013L97.5821 83.2515L97.5518 74.7507L99.1185 73.8005L99.1488 82.3013Z" fill="#E29D41"/>
    <path d="M99.1185 73.7993L97.5518 74.7495L94.4082 72.8289L95.975 71.8788L99.1185 73.7993Z" fill="#ECA044"/>
    <path d="M89.4455 78.6424L86.8781 77.0756L86.8579 70.1315L89.4253 71.6982L89.4455 78.6424Z" fill="#D1893E"/>
    <path d="M90.7191 77.8646L89.4455 78.6429L89.4253 71.6987L90.6989 70.9305L90.7191 77.8646Z" fill="#E29D41"/>
    <path d="M90.699 70.9289L89.4253 71.6971L86.8579 70.1304L88.1315 69.3622L90.699 70.9289Z" fill="#ECA044"/>
    <path d="M82.1776 74.5076L80.1257 73.2542L80.1055 67.705L82.1574 68.9583L82.1776 74.5076Z" fill="#D1893E"/>
    <path d="M83.1983 73.8915L82.1774 74.5081L82.1572 68.9588L83.1781 68.3322L83.1983 73.8915Z" fill="#E29D41"/>
    <path d="M83.1783 68.3324L82.1574 68.9591L80.1055 67.7057L81.1264 67.079L83.1783 68.3324Z" fill="#ECA044"/>
    <path d="M76.4967 71.2433L74.8693 70.2527L74.8491 65.8356L76.4866 66.8261L76.4967 71.2433Z" fill="#D1893E"/>
    <path d="M77.3157 70.7572L76.4969 71.2424L76.4868 66.8252L77.2955 66.33L77.3157 70.7572Z" fill="#E29D41"/>
    <path d="M77.2952 66.3302L76.4866 66.8255L74.8491 65.8349L75.6679 65.3396L77.2952 66.3302Z" fill="#ECA044"/>
    <path d="M72.0595 68.7055L70.7455 67.8969L70.7354 64.3389L72.0494 65.1475L72.0595 68.7055Z" fill="#D1893E"/>
    <path d="M72.7164 68.3021L72.0594 68.7065L72.0493 65.1485L72.7063 64.7441L72.7164 68.3021Z" fill="#E29D41"/>
    <path d="M72.7064 64.7437L72.0494 65.148L70.7354 64.3394L71.3924 63.9452L72.7064 64.7437Z" fill="#ECA044"/>
    <path d="M68.2586 66.5923L67.2074 65.9454L67.1973 63.0848L68.2485 63.7317L68.2586 66.5923Z" fill="#D1893E"/>
    <path d="M68.7847 66.2696L68.2591 66.5931L68.249 63.7325L68.7746 63.4091L68.7847 66.2696Z" fill="#E29D41"/>
    <path d="M68.7741 63.4105L68.2485 63.7339L67.1973 63.087L67.7229 62.7635L68.7741 63.4105Z" fill="#ECA044"/>
    <path d="M65.4285 65.0072L64.5794 64.4816L64.5693 62.1669L65.4285 62.6925V65.0072Z" fill="#D1893E"/>
    <path d="M65.8532 64.7443L65.4287 65.0071V62.6924L65.8532 62.4296V64.7443Z" fill="#E29D41"/>
    <path d="M65.853 62.4292L65.4285 62.692L64.5693 62.1664L64.9939 61.9137L65.853 62.4292Z" fill="#ECA044"/>
    <path d="M63.2046 63.662L62.5273 63.2577V61.4382L63.1945 61.8527L63.2046 63.662Z" fill="#D1893E"/>
    <path d="M63.5385 63.4598L63.2049 63.662L63.1948 61.8526L63.5284 61.6404L63.5385 63.4598Z" fill="#E29D41"/>
    <path d="M63.5271 61.64L63.1938 61.8521L62.5273 61.438L62.8606 61.2361L63.5271 61.64Z" fill="#ECA044"/>
    <path d="M61.2239 62.5602L60.6781 62.2266L60.668 60.7509L61.2138 61.0844L61.2239 62.5602Z" fill="#D1893E"/>
    <path d="M61.4969 62.3887L61.224 62.5606L61.2139 61.0848L61.4868 60.913L61.4969 62.3887Z" fill="#E29D41"/>
    <path d="M61.4869 60.9127L61.2139 61.0846L60.668 60.751L60.9409 60.5791L61.4869 60.9127Z" fill="#ECA044"/>
    <path d="M59.7984 61.7416L59.3638 61.4788V60.3164L59.7883 60.5792L59.7984 61.7416Z" fill="#D1893E"/>
    <path d="M60.0105 61.6107L59.7982 61.7421L59.7881 60.5797L60.0105 60.4482V61.6107Z" fill="#E29D41"/>
    <path d="M60.0108 60.4484L59.7884 60.5799L59.3638 60.317L59.5761 60.1855L60.0108 60.4484Z" fill="#ECA044"/>
    <path d="M58.4441 61.0334L58.0903 60.8111V59.8407L58.4441 60.0631V61.0334Z" fill="#D1893E"/>
    <path d="M58.6258 60.9226L58.4438 61.0338V60.0635L58.6157 59.9523L58.6258 60.9226Z" fill="#E29D41"/>
    <path d="M58.6151 59.952L58.4435 60.063L58.0903 59.841L58.2619 59.7401L58.6151 59.952Z" fill="#ECA044"/>
    <path d="M57.3923 60.396L57.1196 60.2345V59.4872L57.3923 59.6589V60.396Z" fill="#D1893E"/>
    <path d="M57.5341 60.3161L57.3926 60.3969V59.6589L57.524 59.578L57.5341 60.3161Z" fill="#E29D41"/>
    <path d="M57.5233 59.5777L57.3921 59.6584L57.1196 59.4869L57.2508 59.4061L57.5233 59.5777Z" fill="#ECA044"/>
    <path d="M56.5639 59.9716L56.3516 59.8402V59.2538L56.5639 59.3852V59.9716Z" fill="#D1893E"/>
    <path d="M56.6752 59.9017L56.564 59.9725V59.3861L56.6752 59.3153V59.9017Z" fill="#E29D41"/>
    <path d="M56.6748 59.3158L56.5637 59.3865L56.3516 59.2552L56.4526 59.1844L56.6748 59.3158Z" fill="#ECA044"/>
    <path d="M106.407 88.2542L103.263 86.3337L103.223 75.6698L106.366 77.5903L106.407 88.2542Z" fill="#D1893E"/>
    <path d="M107.963 87.3045L106.406 88.2547L106.366 77.5908L107.932 76.6406L107.963 87.3045Z" fill="#E29D41"/>
    <path d="M107.933 76.6408L106.366 77.5909L103.223 75.6704L104.789 74.7303L107.933 76.6408Z" fill="#ECA044"/>
    <path d="M115.908 93.5715L112.724 91.6206L112.684 78.7128L115.868 80.6636L115.908 93.5715Z" fill="#D1893E"/>
    <path d="M117.495 92.6112L115.908 93.5715L115.867 80.6636L117.454 79.6932L117.495 92.6112Z" fill="#E29D41"/>
    <path d="M117.455 79.6934L115.868 80.6638L112.684 78.7129L114.271 77.7527L117.455 79.6934Z" fill="#ECA044"/>
    <path d="M126.592 99.6266L123.428 97.696L123.378 82.0994L126.542 84.03L126.592 99.6266Z" fill="#D1893E"/>
    <path d="M128.169 98.6664L126.592 99.6267L126.542 84.0301L128.108 83.08L128.169 98.6664Z" fill="#E29D41"/>
    <path d="M128.108 83.0793L126.542 84.0295L123.378 82.0989L124.945 81.1386L128.108 83.0793Z" fill="#ECA044"/>
    <path d="M137.488 105.782L134.355 103.872L134.284 85.6874L137.428 87.5978L137.488 105.782Z" fill="#D1893E"/>
    <path d="M137.428 87.5979L134.284 85.6875L135.851 84.7374L137.418 85.6976L137.428 87.5979Z" fill="#ECA044"/>
    <path d="M3.57812 67.8564C4.52827 67.3106 5.41778 66.8052 6.28707 66.3503C4.94271 64.7331 3.60846 65.2082 3.61857 67.8969" fill="#AA5A33"/>
    <path d="M137.6 136.349C134.395 137.976 130.999 139.806 127.411 141.878L85.2402 94.0975L137.509 108.865L137.61 136.349H137.6Z" fill="#A7A9AB"/>
    <path d="M168.378 239.865L127.269 263.8L127.087 215.09L166.104 192.388L168.378 239.865Z" fill="#E6E7E8"/>
    <path d="M127.269 263.799L0.282673 118.568L0.11084 69.8679L127.087 215.089L127.269 263.799Z" fill="#D1D3D4"/>
    <path d="M161.788 194.905L127.087 215.09L0.11084 69.8692L35.1956 49.8251L161.788 194.905Z" fill="white"/>
    <path d="M14.7773 59.4774L4.55811 65.4411V65.4613C5.04329 65.3198 5.65988 65.6129 6.26635 66.3508L128.583 204.678C131.747 208.277 134.112 211.259 134.132 216.727L134.324 269.339L144.382 263.486L144.19 210.875C144.169 205.406 141.804 202.414 138.64 198.826L16.4754 60.4073C15.8689 59.6796 15.2624 59.3763 14.7773 59.5178" fill="#BF7C4C"/>
    <path d="M13.605 60.165L136.912 199.706C140.076 203.304 142.441 206.286 142.461 211.754L142.653 264.366" stroke="#E79B66" stroke-width="0.404319" stroke-miterlimit="10"/>
    <path d="M11.4727 61.408L134.8 200.969C137.964 204.567 140.329 207.549 140.349 213.017L140.541 265.629" stroke="#E79B66" stroke-width="0.404319" stroke-miterlimit="10"/>
    <path d="M7.0752 63.9755L130.493 203.657C133.657 207.256 136.023 210.238 136.043 215.706L136.235 268.318" stroke="#E79B66" stroke-width="0.404319" stroke-miterlimit="10"/>
    <path d="M9.22803 62.7128L132.586 202.314C135.749 205.912 138.115 208.894 138.135 214.363L138.327 266.975" stroke="#E79B66" stroke-width="0.404319" stroke-miterlimit="10"/>
    <path d="M131.585 139.705L131.474 107.238" stroke="white" stroke-width="0.818745" stroke-miterlimit="10"/>
    <path d="M128.047 141.504L127.916 106.146" stroke="white" stroke-width="0.818745" stroke-miterlimit="10"/>
    <path d="M124.48 139.381L124.348 100.152" stroke="white" stroke-width="0.818745" stroke-miterlimit="10"/>
    <path d="M120.932 139.401L120.79 100.162" stroke="white" stroke-width="0.616586" stroke-miterlimit="10"/>
    <path d="M113.826 139.421L113.685 100.182" stroke="white" stroke-width="0.616586" stroke-miterlimit="10"/>
    <path d="M110.278 139.431L110.136 100.202" stroke="white" stroke-width="0.616586" stroke-miterlimit="10"/>
    <path d="M106.547 138.927L106.416 99.6981" stroke="white" stroke-width="0.454858" stroke-miterlimit="10"/>
    <path d="M103.04 137.612L102.898 98.3728" stroke="white" stroke-width="0.454858" stroke-miterlimit="10"/>
    <path d="M100.2 136.773L100.059 97.5439" stroke="white" stroke-width="0.454858" stroke-miterlimit="10"/>
    <path d="M97.7739 136.479L97.6323 97.2403" stroke="white" stroke-width="0.323455" stroke-miterlimit="10"/>
    <path d="M95.8437 135.914L95.7021 96.6747" stroke="white" stroke-width="0.323455" stroke-miterlimit="10"/>
    <path d="M93.8523 106.267L93.8018 94.3904" stroke="white" stroke-width="0.252699" stroke-miterlimit="10"/>
    <path d="M92.1239 106.136L92.0835 94.2595" stroke="white" stroke-width="0.252699" stroke-miterlimit="10"/>
    <path d="M90.4052 105.903L90.3647 94.0262" stroke="white" stroke-width="0.252699" stroke-miterlimit="10"/>
    <path d="M89.0917 105.762L89.0513 93.8954" stroke="white" stroke-width="0.252699" stroke-miterlimit="10"/>
    <path d="M87.7675 105.672L87.7271 93.7948" stroke="white" stroke-width="0.252699" stroke-miterlimit="10"/>
    <path d="M86.4838 105.55L86.4434 93.6728" stroke="white" stroke-width="0.252699" stroke-miterlimit="10"/>
    <path d="M117.384 139.411L117.242 100.172" stroke="white" stroke-width="0.616586" stroke-miterlimit="10"/>
    <path d="M135.133 137.906L135.032 107.905" stroke="white" stroke-width="0.818745" stroke-miterlimit="10"/>
    <path d="M250.303 104.306L295.435 117.092C212.136 165.914 213.055 130.465 149.678 167.106L127.411 141.877C183.965 109.39 189.019 134.68 250.303 104.316" fill="#BD8B7C"/>
    <path d="M29.3428 52.8468C30.2929 52.3009 31.1824 51.7956 32.0517 51.3407C30.7074 49.7234 29.3731 50.1985 29.3832 52.8872" fill="#AA5A33"/>
    <path d="M40.5526 44.4667L30.3335 50.4304V50.4506C30.8187 50.3091 31.4353 50.6022 32.0417 51.3401L154.358 189.668C157.522 193.266 159.887 196.248 159.908 201.716L160.1 254.328L170.157 248.476L169.965 195.864C169.945 190.395 167.579 187.403 164.416 183.815L42.2508 45.3966C41.6443 44.6688 41.0378 44.3656 40.5526 44.5071" fill="#BF7C4C"/>
    <path d="M39.3706 45.155L162.678 184.695C165.841 188.294 168.207 191.276 168.227 196.744L168.419 249.356" stroke="#E79B66" stroke-width="0.404319" stroke-miterlimit="10"/>
    <path d="M37.2373 46.3983L160.565 185.959C163.728 189.557 166.094 192.539 166.114 198.008L166.306 250.62" stroke="#E79B66" stroke-width="0.404319" stroke-miterlimit="10"/>
    <path d="M32.8208 48.9744L156.249 188.646C159.413 192.245 161.778 195.227 161.798 200.695L161.991 253.307" stroke="#E79B66" stroke-width="0.404319" stroke-miterlimit="10"/>
    <path d="M35.0034 47.7013L158.361 187.302C161.525 190.901 163.89 193.883 163.91 199.351L164.102 251.963" stroke="#E79B66" stroke-width="0.404319" stroke-miterlimit="10"/>
    <path d="M16.4658 60.3468C17.416 59.801 18.3055 59.2956 19.1748 58.8407C17.8304 57.2234 16.4962 57.6985 16.5063 60.3872" fill="#AA5A33"/>
    <path d="M27.665 51.9668L17.4458 57.9305V57.9507C17.931 57.8092 18.5476 58.1023 19.154 58.8402L141.471 197.168C144.634 200.766 147 203.748 147.02 209.216L147.212 261.828L157.269 255.976L157.077 203.364C157.057 197.895 154.692 194.904 151.528 191.315L29.3631 52.8967C28.7566 52.169 28.1501 51.8657 27.665 52.0072" fill="#BF7C4C"/>
    <path d="M26.4829 52.6552L149.79 192.196C152.954 195.794 155.319 198.776 155.339 204.244L155.531 256.856" stroke="#E79B66" stroke-width="0.404319" stroke-miterlimit="10"/>
    <path d="M24.3599 53.8973L147.687 193.458C150.851 197.056 153.216 200.038 153.236 205.507L153.428 258.119" stroke="#E79B66" stroke-width="0.404319" stroke-miterlimit="10"/>
    <path d="M19.9429 56.4746L143.371 196.146C146.535 199.745 148.9 202.727 148.921 208.195L149.113 260.807" stroke="#E79B66" stroke-width="0.404319" stroke-miterlimit="10"/>
    <path d="M22.1157 55.2108L145.473 194.812C148.637 198.41 151.002 201.392 151.023 206.861L151.215 259.473" stroke="#E79B66" stroke-width="0.404319" stroke-miterlimit="10"/>
    <path d="M162.651 285.196L158.097 287.825V286.087L159.564 285.24L158.802 283.304L153.811 286.186L152.991 289.035L154.611 288.1V289.838L150.095 292.445V290.707L151.238 290.047L155.144 276.968L153.239 278.068V276.33L156.973 274.174L161.432 284.162L162.651 283.458V285.196ZM158.307 282.094L156.421 277.375L156.306 277.441L154.325 284.393L158.307 282.094ZM167.379 282.466L162.959 285.018V283.522L164.331 282.73V270.608L162.902 271.433V269.915L166.007 268.122V281.762L167.379 280.97V282.466ZM177.167 268.499L176.177 269.071L173.09 279.169L171.852 279.884L168.613 273.438L167.622 274.01V272.492L171.68 270.149V271.667L170.404 272.404L172.557 276.925L172.671 276.859L174.538 270.017L173.376 270.688V269.17L177.167 266.981V268.499ZM178.8 266.786C179.321 266.134 179.829 265.598 180.324 265.18C180.832 264.74 181.385 264.348 181.982 264.003C182.947 263.446 183.709 263.277 184.268 263.497C184.839 263.71 185.125 264.381 185.125 265.51V270.064C185.125 270.71 185.347 270.904 185.792 270.647C185.97 270.545 186.141 270.409 186.306 270.24L186.325 271.373C185.97 271.828 185.557 272.191 185.087 272.462C184.058 273.056 183.512 272.712 183.449 271.428V271.406C183.195 272.066 182.826 272.741 182.344 273.43C181.874 274.112 181.296 274.651 180.61 275.047C180.025 275.385 179.441 275.517 178.857 275.443C178.285 275.363 178 274.809 178 273.782C178 272.55 178.419 271.502 179.257 270.636C180.108 269.749 181.016 269.027 181.982 268.469C182.566 268.132 183.055 267.879 183.449 267.71V266.984C183.449 266.339 183.341 265.851 183.125 265.521C182.909 265.191 182.426 265.243 181.677 265.675C181.067 266.027 180.553 266.449 180.133 266.94L179.81 268.733L178.457 269.338L178.8 266.786ZM183.449 269.404V268.832C183.22 268.935 182.979 269.052 182.725 269.184C182.483 269.294 182.236 269.423 181.982 269.569C181.397 269.907 180.876 270.317 180.419 270.801C179.962 271.285 179.733 271.872 179.733 272.561C179.733 273.089 179.873 273.39 180.152 273.463C180.445 273.529 180.775 273.456 181.143 273.243C181.689 272.928 182.197 272.415 182.667 271.703C183.137 270.992 183.398 270.226 183.449 269.404ZM192.236 258.127C192.833 257.782 193.341 257.665 193.76 257.775L194.103 260.327L192.789 261.262L192.465 259.755C192.249 259.777 192.027 259.854 191.798 259.986C191.366 260.235 191.004 260.657 190.712 261.251C190.42 261.83 190.274 262.457 190.274 263.132V267.752L192.103 266.696V268.192L187.225 271.008V269.512L188.597 268.72V261.9L187.168 262.725V261.207L190.16 259.48V261.284C190.325 260.631 190.579 260.023 190.922 259.458C191.277 258.871 191.715 258.428 192.236 258.127ZM210.673 257.47L206.119 260.099V258.361L207.587 257.514L206.824 255.578L201.833 258.46L201.013 261.309L202.633 260.374V262.112L198.117 264.719V262.981L199.261 262.321L203.166 249.242L201.261 250.342V248.604L204.995 246.448L209.454 256.436L210.673 255.732V257.47ZM206.329 254.368L204.443 249.649L204.329 249.715L202.347 256.667L206.329 254.368ZM212.086 247.569C212.607 246.916 213.115 246.381 213.61 245.963C214.118 245.523 214.671 245.13 215.268 244.786C216.233 244.228 216.995 244.06 217.554 244.28C218.126 244.492 218.411 245.163 218.411 246.293V250.847C218.411 251.492 218.634 251.686 219.078 251.43C219.256 251.327 219.427 251.191 219.593 251.023L219.612 252.156C219.256 252.61 218.843 252.973 218.373 253.245C217.344 253.839 216.798 253.494 216.735 252.211V252.189C216.481 252.849 216.112 253.523 215.63 254.213C215.16 254.895 214.582 255.434 213.896 255.83C213.312 256.167 212.727 256.299 212.143 256.226C211.571 256.145 211.286 255.591 211.286 254.565C211.286 253.333 211.705 252.284 212.543 251.419C213.394 250.531 214.302 249.809 215.268 249.252C215.852 248.914 216.341 248.661 216.735 248.493V247.767C216.735 247.121 216.627 246.634 216.411 246.304C216.195 245.974 215.712 246.025 214.963 246.458C214.353 246.81 213.839 247.231 213.42 247.723L213.096 249.516L211.743 250.121L212.086 247.569ZM216.735 250.187V249.615C216.506 249.717 216.265 249.835 216.011 249.967C215.769 250.077 215.522 250.205 215.268 250.352C214.683 250.689 214.163 251.1 213.705 251.584C213.248 252.068 213.019 252.654 213.019 253.344C213.019 253.872 213.159 254.172 213.439 254.246C213.731 254.312 214.061 254.238 214.429 254.026C214.976 253.71 215.484 253.197 215.954 252.486C216.424 251.774 216.684 251.008 216.735 250.187ZM224.741 249.348L220.321 251.9V250.404L221.693 249.612V237.49L220.264 238.315V236.797L223.369 235.004V248.644L224.741 247.852V249.348ZM232.333 242.193C232.092 244.327 231.139 245.874 229.475 246.835C228.599 247.341 227.913 247.466 227.417 247.209C226.935 246.93 226.693 246.3 226.693 245.317V239.861L225.379 240.62V239.146L226.693 238.387V235.285L228.351 234.328V237.43L231.609 235.549V237.023L228.351 238.904V244.074C228.351 245.247 228.789 245.581 229.666 245.075C229.945 244.914 230.224 244.65 230.504 244.283C230.783 243.902 230.98 243.289 231.095 242.446L232.333 242.193ZM241.572 234.725C241.572 236.236 241.165 237.702 240.352 239.125C239.552 240.54 238.492 241.629 237.171 242.392C235.875 243.14 234.846 243.272 234.084 242.788C233.335 242.297 232.96 241.296 232.96 239.785C232.96 238.348 233.322 236.907 234.046 235.462C234.77 234.017 235.85 232.881 237.285 232.052C238.72 231.223 239.793 231.117 240.505 231.733C241.216 232.334 241.572 233.332 241.572 234.725ZM239.819 235.671C239.819 234.586 239.584 233.863 239.114 233.504C238.657 233.137 238.034 233.181 237.247 233.636C236.421 234.113 235.786 234.817 235.341 235.748C234.91 236.657 234.694 237.633 234.694 238.674C234.694 239.671 234.903 240.401 235.322 240.863C235.754 241.303 236.389 241.281 237.228 240.797C238.053 240.32 238.688 239.616 239.133 238.685C239.59 237.732 239.819 236.727 239.819 235.671Z" fill="#818181"/>
</svg>
