<svg  viewBox="0 0 296 331" fill="none"
    xmlns="http://www.w3.org/2000/svg">
    <path d="M135.112 115.228V160.289L182.7 132.816C209.173 117.492 205.696 76.1808 182.7 87.7544L135.112 115.228Z" fill="#606161"/>
    <mask id="mask0_278_85848" style="mask-type:luminance" maskUnits="userSpaceOnUse" x="135" y="85" width="67" height="76">
        <path d="M135.112 115.228V160.289L182.7 132.816C209.173 117.492 205.696 76.1808 182.7 87.7544L135.112 115.228Z" fill="white"/>
    </mask>
    <g mask="url(#mask0_278_85848)">
        <path d="M184.591 134.353L136.921 106.829" stroke="white" stroke-width="0.576154" stroke-miterlimit="10"/>
        <path d="M190.777 129.41L143.107 101.886" stroke="white" stroke-width="0.576154" stroke-miterlimit="10"/>
        <path d="M189.776 131.149L142.106 103.625" stroke="white" stroke-width="0.576154" stroke-miterlimit="10"/>
        <path d="M193.202 125.195L145.533 97.6705" stroke="white" stroke-width="0.576154" stroke-miterlimit="10"/>
        <path d="M192.869 127.822L145.2 100.309" stroke="white" stroke-width="0.576154" stroke-miterlimit="10"/>
        <path d="M196.043 121.85L148.374 94.3358" stroke="white" stroke-width="0.576154" stroke-miterlimit="10"/>
        <path d="M198.085 116.755L150.416 89.2311" stroke="white" stroke-width="0.576154" stroke-miterlimit="10"/>
        <path d="M203.503 111.994L155.823 84.4696" stroke="white" stroke-width="0.576154" stroke-miterlimit="10"/>
        <path d="M204.736 103.998L157.066 76.4744" stroke="white" stroke-width="0.576154" stroke-miterlimit="10"/>
        <path d="M204.382 96.6508L156.713 69.1268" stroke="white" stroke-width="0.576154" stroke-miterlimit="10"/>
        <path d="M203.503 93.8198L155.823 66.2958" stroke="white" stroke-width="0.576154" stroke-miterlimit="10"/>
        <path d="M176.565 138.839L129.037 111.396" stroke="white" stroke-width="0.576154" stroke-miterlimit="10"/>
        <path d="M167.983 143.005L120.86 115.805" stroke="white" stroke-width="0.576154" stroke-miterlimit="10"/>
        <path d="M159.604 147.554L113.006 120.647" stroke="white" stroke-width="0.576154" stroke-miterlimit="10"/>
        <path d="M152.285 152.608L104.737 125.154" stroke="white" stroke-width="0.576154" stroke-miterlimit="10"/>
        <path d="M143.886 157.217L96.6108 129.926" stroke="white" stroke-width="0.576154" stroke-miterlimit="10"/>
        <path d="M181.457 79.0316C215.359 58.8257 208 116.441 181.457 131.441L133.869 158.915" stroke="white" stroke-width="0.333563" stroke-miterlimit="10"/>
        <path d="M181.457 80.184C215.359 59.9782 208 117.594 181.457 132.594L133.869 160.067" stroke="white" stroke-width="0.333563" stroke-miterlimit="10"/>
        <path d="M180.355 78.3343C214.258 58.1285 206.899 115.744 180.355 130.744L132.767 158.218" stroke="white" stroke-width="0.333563" stroke-miterlimit="10"/>
        <path d="M179.051 77.6575C212.953 57.4517 205.595 115.067 179.051 130.067L131.463 157.541" stroke="white" stroke-width="0.333563" stroke-miterlimit="10"/>
        <path d="M177.99 76.8986C211.892 56.6928 204.534 114.308 177.99 129.308L130.402 156.782" stroke="white" stroke-width="0.333563" stroke-miterlimit="10"/>
        <path d="M177.161 76.181C211.063 55.9752 203.705 113.591 177.161 128.591L129.573 156.064" stroke="white" stroke-width="0.333563" stroke-miterlimit="10"/>
        <path d="M175.847 75.5045C209.749 55.2986 202.391 112.914 175.847 127.914L128.259 155.388" stroke="white" stroke-width="0.333563" stroke-miterlimit="10"/>
        <path d="M174.796 74.7454C208.698 54.5396 201.339 112.155 174.796 127.155L127.208 154.629" stroke="white" stroke-width="0.333563" stroke-miterlimit="10"/>
        <path d="M173.876 74.0794C207.778 53.8736 200.419 111.489 173.876 126.489L126.288 153.963" stroke="white" stroke-width="0.333563" stroke-miterlimit="10"/>
        <path d="M172.785 73.3724C206.687 53.1666 199.328 110.782 172.785 125.782L125.196 153.256" stroke="white" stroke-width="0.333563" stroke-miterlimit="10"/>
        <path d="M171.48 72.7043C205.382 52.4985 198.024 110.114 171.48 125.114L123.892 152.588" stroke="white" stroke-width="0.333563" stroke-miterlimit="10"/>
        <path d="M170.419 71.936C204.321 51.7302 196.962 109.346 170.419 124.346L122.831 151.819" stroke="white" stroke-width="0.333563" stroke-miterlimit="10"/>
        <path d="M169.59 71.2291C203.492 51.0232 196.134 108.639 169.59 123.639L122.002 151.112" stroke="white" stroke-width="0.333563" stroke-miterlimit="10"/>
        <path d="M168.276 70.5511C202.178 50.3453 194.82 107.961 168.276 122.961L120.688 150.434" stroke="white" stroke-width="0.333563" stroke-miterlimit="10"/>
        <path d="M167.225 69.7835C201.127 49.5777 193.769 107.193 167.225 122.193L119.637 149.667" stroke="white" stroke-width="0.333563" stroke-miterlimit="10"/>
        <path d="M166.335 69.0548C200.238 48.8489 192.879 106.464 166.335 121.465L118.747 148.938" stroke="white" stroke-width="0.333563" stroke-miterlimit="10"/>
        <path d="M165.244 68.3577C199.146 48.1519 191.787 105.767 165.244 120.768L117.655 148.241" stroke="white" stroke-width="0.333563" stroke-miterlimit="10"/>
        <path d="M163.93 67.6801C197.832 47.4743 190.473 105.09 163.93 120.09L116.341 147.563" stroke="white" stroke-width="0.333563" stroke-miterlimit="10"/>
        <path d="M162.878 66.9222C196.78 46.7164 189.422 104.332 162.878 119.332L115.29 146.805" stroke="white" stroke-width="0.333563" stroke-miterlimit="10"/>
        <path d="M162.039 66.2044C195.942 45.9986 188.583 103.614 162.039 118.614L114.451 146.088" stroke="white" stroke-width="0.333563" stroke-miterlimit="10"/>
        <path d="M160.736 65.5277C194.638 45.3218 187.279 102.937 160.736 117.937L113.147 145.411" stroke="white" stroke-width="0.333563" stroke-miterlimit="10"/>
        <path d="M159.674 64.7697C193.576 44.5639 186.218 102.179 159.674 117.18L112.086 144.653" stroke="white" stroke-width="0.333563" stroke-miterlimit="10"/>
        <path d="M158.846 64.0413C192.748 43.8355 185.389 101.451 158.846 116.451L111.257 143.925" stroke="white" stroke-width="0.333563" stroke-miterlimit="10"/>
        <path d="M157.794 63.2739C191.696 43.068 184.338 100.683 157.794 115.684L110.206 143.157" stroke="white" stroke-width="0.333563" stroke-miterlimit="10"/>
        <path d="M156.915 62.5452C190.817 42.3394 183.458 99.9548 156.915 114.955L109.327 142.428" stroke="white" stroke-width="0.333563" stroke-miterlimit="10"/>
        <path d="M155.813 61.8489C189.715 41.6431 182.356 99.2585 155.813 114.259L108.225 141.732" stroke="white" stroke-width="0.333563" stroke-miterlimit="10"/>
        <path d="M154.509 61.1712C188.411 40.9654 181.053 98.5808 154.509 113.581L106.921 141.054" stroke="white" stroke-width="0.333563" stroke-miterlimit="10"/>
        <path d="M153.448 60.4133C187.35 40.2075 179.991 97.8229 153.448 112.823L105.859 140.297" stroke="white" stroke-width="0.333563" stroke-miterlimit="10"/>
        <path d="M152.619 59.6956C186.521 39.4898 179.163 97.1052 152.619 112.105L105.031 139.579" stroke="white" stroke-width="0.333563" stroke-miterlimit="10"/>
        <path d="M151.305 59.0181C185.207 38.8123 177.849 96.4277 151.305 111.428L103.717 138.901" stroke="white" stroke-width="0.333563" stroke-miterlimit="10"/>
        <path d="M150.254 58.2601C184.156 38.0543 176.797 95.6697 150.254 110.67L102.666 138.143" stroke="white" stroke-width="0.333563" stroke-miterlimit="10"/>
        <path d="M149.273 57.4417C183.175 37.2359 175.817 94.8513 149.273 109.852L101.685 137.325" stroke="white" stroke-width="0.333563" stroke-miterlimit="10"/>
        <path d="M148.212 56.6827C182.114 36.4769 174.755 94.0923 148.212 109.092L100.624 136.566" stroke="white" stroke-width="0.333563" stroke-miterlimit="10"/>
        <path d="M147.332 55.9456C181.235 35.7398 173.876 93.3552 147.332 108.355L99.7441 135.829" stroke="white" stroke-width="0.333563" stroke-miterlimit="10"/>
        <path d="M146.231 55.2475C180.133 35.0417 172.774 92.6571 146.231 107.657L98.6426 135.131" stroke="white" stroke-width="0.333563" stroke-miterlimit="10"/>
        <path d="M144.927 54.5706C178.829 34.3648 171.47 91.9802 144.927 106.98L97.3384 134.454" stroke="white" stroke-width="0.333563" stroke-miterlimit="10"/>
        <path d="M143.866 53.8118C177.768 33.606 170.409 91.2214 143.866 106.222L96.2773 133.695" stroke="white" stroke-width="0.333563" stroke-miterlimit="10"/>
        <path d="M143.037 53.095C176.939 32.8892 169.58 90.5046 143.037 105.505L95.4482 132.978" stroke="white" stroke-width="0.333563" stroke-miterlimit="10"/>
        <path d="M141.723 52.4172C175.625 32.2114 168.266 89.8268 141.723 104.827L94.1343 132.3" stroke="white" stroke-width="0.333563" stroke-miterlimit="10"/>
        <path d="M140.671 51.6595C174.573 31.4537 167.215 89.0691 140.671 104.069L93.083 131.543" stroke="white" stroke-width="0.333563" stroke-miterlimit="10"/>
    </g>
    <path d="M135.021 279.674L129.259 282.989V86.2075L135.021 82.9022V279.674Z" fill="#B03034"/>
    <path d="M123.498 279.674L129.259 282.989V86.2075L123.498 82.9022V279.674Z" fill="#9D2D2A"/>
    <path d="M90.9295 254.021L85.168 257.336V60.5545L90.9295 57.2391V254.021Z" fill="#B03034"/>
    <path d="M79.4062 254.021L85.1678 257.336V60.5545L79.4062 57.2391V254.021Z" fill="#9D2D2A"/>
    <path d="M227.074 47.3937C218.765 41.5918 206.17 41.4705 190.756 49.9915L135.02 82.903L84.7939 54.1257L140.913 21.2141C150.688 15.5132 166.658 12.0765 173.036 15.5132L227.084 47.4038" fill="#F0BE46"/>
    <path d="M63.1229 270.173L57.3613 273.489V76.7069L63.1229 73.3915V270.173Z" fill="#B03034"/>
    <path d="M51.5996 270.173L57.3612 273.489V76.7069L51.5996 73.3915V270.173Z" fill="#9D2D2A"/>
    <path d="M63.1227 73.3908L57.3612 76.6759L51.5996 73.3908L57.3612 70.4696L63.1227 73.3908Z" fill="#C73533"/>
    <path d="M85.1684 60.5545L79.4068 57.2391L57.3613 70.4705L63.1229 73.3917L85.1684 60.5545Z" fill="#C73533"/>
    <path d="M63.1226 73.3917L63.1326 80.0326L85.168 67.3168V60.5546L63.1226 73.3917Z" fill="#B03034"/>
    <path d="M85.168 138.386L79.4065 135.07L63.1226 144.845V151.223L85.168 138.386Z" fill="#C73533"/>
    <path d="M63.1226 151.223L63.1326 157.863L85.168 145.148V138.385L63.1226 151.223Z" fill="#B03034"/>
    <path d="M85.168 196.789L79.4065 193.474L63.1226 203.248V209.626L85.168 196.789Z" fill="#C73533"/>
    <path d="M63.1226 209.627L63.1326 216.278L85.168 203.552V196.79L63.1226 209.627Z" fill="#B03034"/>
    <path d="M123.498 88.8565V273.044L90.9297 253.839V70.5409L123.498 88.8565Z" fill="#E4AF44"/>
    <path d="M57.3613 76.7063L63.1229 73.3807L101.978 95.8103L95.6907 99.055L57.3613 76.7063Z" fill="#C73533"/>
    <path d="M123.497 82.913L118.029 86.188L85.168 67.2154V60.5643L123.497 82.913Z" fill="#9D2D2A"/>
    <path d="M85.168 60.5646L90.9295 57.2391L129.784 79.6687L123.497 82.9134L85.168 60.5646Z" fill="#C73533"/>
    <path d="M84.7842 54.1148L90.9298 50.6377L140.772 79.4757L134.93 82.9124L84.7842 54.1148Z" fill="#C73533"/>
    <path d="M90.6367 50.6893L96.7723 47.202L146.625 76.0502L140.772 79.4768L90.6367 50.6893Z" fill="#C73533"/>
    <path d="M96.479 47.2512L102.614 43.774L152.467 72.6121L146.625 76.0488L96.479 47.2512Z" fill="#C73533"/>
    <path d="M102.332 43.826L108.467 40.3387L158.32 69.1869L152.467 72.6135L102.332 43.826Z" fill="#C73533"/>
    <path d="M108.174 40.3882L114.309 36.911L164.162 65.749L158.319 69.1857L108.174 40.3882Z" fill="#C73533"/>
    <path d="M114.016 36.9617L120.162 33.4745L170.004 62.3226L164.162 65.7492L114.016 36.9617Z" fill="#C73533"/>
    <path d="M119.869 33.526L126.004 30.0488L175.857 58.8868L170.004 62.3236L119.869 33.526Z" fill="#C73533"/>
    <path d="M125.448 30.3621L131.149 27.0164L181.184 55.7634L175.473 59.1091L125.448 30.3621Z" fill="#C73533"/>
    <path d="M131.159 27.0163L136.779 23.62L186.773 52.3367L181.183 55.7633L131.159 27.0163Z" fill="#C73533"/>
    <path d="M123.497 160.623L118.029 163.898L85.168 144.925V138.274L123.497 160.623Z" fill="#9D2D2A"/>
    <path d="M85.168 138.274L90.9295 134.959L123.497 153.76V160.623L85.168 138.274Z" fill="#C73533"/>
    <path d="M123.497 219.139L118.029 222.414L85.168 203.441V196.79L123.497 219.139Z" fill="#9D2D2A"/>
    <path d="M85.168 196.789L90.9295 193.464L123.497 212.275V219.138L85.168 196.789Z" fill="#C73533"/>
    <path d="M107.214 295.826L101.452 299.142V102.37L107.214 99.0546V295.826Z" fill="#B03034"/>
    <path d="M95.6909 295.826L101.452 299.142V102.37L95.6909 99.0546V295.826Z" fill="#9D2D2A"/>
    <path d="M107.214 99.0553L101.452 102.34L95.6909 99.0553L101.452 96.124L107.214 99.0553Z" fill="#C73533"/>
    <path d="M57.3613 154.549L63.1229 151.224L95.6907 170.034V176.685L57.3613 154.549Z" fill="#C73533"/>
    <path d="M57.3613 213.063L63.1229 209.737L95.6907 228.538V235.189L57.3613 213.063Z" fill="#C73533"/>
    <path d="M135.021 82.9034L129.259 86.1885L123.498 82.9034L129.785 79.6689L135.021 82.9034Z" fill="#C73533"/>
    <path d="M90.9293 57.2385L85.1678 60.5236L79.4062 57.2385L84.7837 54.1151L90.9293 57.2385Z" fill="#C73533"/>
    <path d="M140.954 65.8006L146.706 62.4852L152.467 65.8006L146.706 69.1161L140.954 65.8006Z" fill="#F0BE46"/>
    <path d="M135.193 55.5711L140.954 52.2557L146.706 55.5711L140.954 58.8866L135.193 55.5711Z" fill="#F0BE46"/>
    <path d="M114.229 50.3241L119.99 47.0087L125.752 50.3241L119.99 53.6395L114.229 50.3241Z" fill="#F0BE46"/>
    <path d="M119.99 60.0692L125.752 56.7538L131.513 60.0692L125.752 63.3745L119.99 60.0692Z" fill="#F0BE46"/>
    <path d="M146.705 55.5711L152.467 52.2557L158.228 55.5711L152.467 58.8866L146.705 55.5711Z" fill="#F0BE46"/>
    <path d="M157.814 55.5711L163.576 52.2557L169.337 55.5711L163.576 58.8866L157.814 55.5711Z" fill="#F0BE46"/>
    <path d="M169.661 49.1317L175.422 45.8163L181.184 49.1317L175.422 52.4471L169.661 49.1317Z" fill="#F0BE46"/>
    <path d="M175.422 52.4471L181.184 49.1317L186.774 52.3359L181.184 55.7625L175.422 52.4471Z" fill="#F0BE46"/>
    <path d="M137.234 43.7753L142.995 40.4598L148.747 43.7753L142.995 47.0907L137.234 43.7753Z" fill="#F0BE46"/>
    <path d="M157.814 49.0819L163.576 45.7665L169.337 49.0819L163.576 52.3973L157.814 49.0819Z" fill="#F0BE46"/>
    <path d="M152.052 45.7666L157.814 42.4512L163.575 45.7666L157.814 49.082L152.052 45.7666Z" fill="#F0BE46"/>
    <path d="M148.747 43.7751L154.044 40.1766L159.613 43.492L153.862 46.8075L148.747 43.7751Z" fill="#F0BE46"/>
    <path d="M175.422 45.8164L181.184 42.501L186.945 45.8164L181.184 49.1318L175.422 45.8164Z" fill="#C73533"/>
    <path d="M186.773 45.8164L192.525 42.501L198.893 46.1702L195.436 47.7773L192.444 49.0813L186.773 45.8164Z" fill="#C73533"/>
    <path d="M159.805 36.912L165.567 33.5966L171.318 36.912L165.567 40.2274L159.805 36.912Z" fill="#C73533"/>
    <path d="M148.747 30.4226L154.509 27.1072L160.27 30.4226L154.509 33.738L148.747 30.4226Z" fill="#C73533"/>
    <path d="M160.27 30.423L165.728 27.0671L171.318 30.2815L165.567 33.5969L160.27 30.423Z" fill="#C73533"/>
    <path d="M171.318 36.7899L177.08 33.4745L182.841 36.7899L177.08 40.1053L171.318 36.7899Z" fill="#C73533"/>
    <path d="M131.473 33.829L137.234 30.5135L142.996 33.829L137.234 37.1444L131.473 33.829Z" fill="#F0BE46"/>
    <path d="M125.448 30.3621L131.149 27.0164L137.234 30.5137L131.473 33.8291L125.448 30.3621Z" fill="#F0BE46"/>
    <path d="M154.044 40.1766L148.282 36.8713L154.054 33.5458L159.805 36.8612" fill="#F0BE46"/>
    <path d="M142.996 33.8281L148.606 30.4218L154.044 33.5451L148.272 36.8605L142.996 33.8281Z" fill="#F0BE46"/>
    <path d="M125.711 43.6938L131.472 40.3885L137.234 43.6938L131.472 47.0093L125.711 43.6938Z" fill="#F0BE46"/>
    <path d="M129.259 86.2075L123.498 82.9022L101.452 96.1234L107.214 99.0547L129.259 86.2075Z" fill="#C73533"/>
    <path d="M107.214 99.0551L107.224 105.696L129.259 92.9701V86.2079L107.214 99.0551Z" fill="#B03034"/>
    <path d="M129.259 222.463L123.498 219.138L107.214 228.538V235.189L129.259 222.463Z" fill="#C73533"/>
    <path d="M107.214 235.189L107.224 241.83L129.259 229.114V222.463L107.214 235.189Z" fill="#B03034"/>
    <path d="M129.259 163.948L123.498 160.623L107.214 170.033V176.684L129.259 163.948Z" fill="#C73533"/>
    <path d="M107.214 176.685L107.224 183.326L129.259 170.6V163.949L107.214 176.685Z" fill="#B03034"/>
    <path d="M95.6907 235.19L95.6806 241.831L57.3613 219.714V213.063L95.6907 235.19Z" fill="#9D2D2A"/>
    <path d="M95.6907 176.685L95.6806 183.326L57.3613 161.2V154.549L95.6907 176.685Z" fill="#9D2D2A"/>
    <path d="M95.6907 99.0554L95.6806 105.484L57.3613 83.3577V76.7067L95.6907 99.0554Z" fill="#9D2D2A"/>
    <path d="M214.399 126.125C257.661 76.1815 236.798 24.5399 190.756 49.9918L135.021 82.9033V279.837L188.755 248.755C255.346 209.495 255.74 121.111 214.409 126.135L214.399 126.125ZM135.112 115.229L182.7 87.7552C205.696 76.1815 209.173 117.493 182.7 132.816L135.112 160.29V115.229ZM182.7 217.653L135.112 245.126V192.716L182.7 165.243C216.602 145.037 209.244 202.662 182.7 217.653Z" fill="#F1F2F2"/>
    <path d="M135.112 245.126V192.716L182.7 165.243C216.602 145.037 209.244 202.652 182.7 217.652L135.112 245.126Z" fill="#606161"/>
    <mask id="mask1_278_85848" style="mask-type:luminance" maskUnits="userSpaceOnUse" x="135" y="160" width="71" height="86">
        <path d="M135.112 245.127V192.717L182.7 165.243C216.602 145.038 209.244 202.653 182.7 217.653L135.112 245.127Z" fill="white"/>
    </mask>
    <g mask="url(#mask1_278_85848)">
        <path d="M185.844 218.563L138.175 191.039" stroke="white" stroke-width="0.576154" stroke-miterlimit="10"/>
        <path d="M192.03 213.611L144.361 186.097" stroke="white" stroke-width="0.576154" stroke-miterlimit="10"/>
        <path d="M191.019 215.349L143.35 187.835" stroke="white" stroke-width="0.576154" stroke-miterlimit="10"/>
        <path d="M194.456 209.405L146.787 181.881" stroke="white" stroke-width="0.576154" stroke-miterlimit="10"/>
        <path d="M194.122 212.033L146.453 184.509" stroke="white" stroke-width="0.576154" stroke-miterlimit="10"/>
        <path d="M197.286 206.06L149.617 178.546" stroke="white" stroke-width="0.576154" stroke-miterlimit="10"/>
        <path d="M199.328 200.965L151.659 173.441" stroke="white" stroke-width="0.576154" stroke-miterlimit="10"/>
        <path d="M202.33 192.99L154.661 165.466" stroke="white" stroke-width="0.576154" stroke-miterlimit="10"/>
        <path d="M205.989 184.914L158.32 157.39" stroke="white" stroke-width="0.576154" stroke-miterlimit="10"/>
        <path d="M206.868 176.605L159.199 149.081" stroke="white" stroke-width="0.576154" stroke-miterlimit="10"/>
        <path d="M206.868 173.451L159.199 145.938" stroke="white" stroke-width="0.576154" stroke-miterlimit="10"/>
        <path d="M207.424 171.156L159.745 143.632" stroke="white" stroke-width="0.576154" stroke-miterlimit="10"/>
        <path d="M207.424 168.317L159.745 140.803" stroke="white" stroke-width="0.576154" stroke-miterlimit="10"/>
        <path d="M177.818 223.051L130.291 195.607" stroke="white" stroke-width="0.576154" stroke-miterlimit="10"/>
        <path d="M169.237 227.216L122.113 200.016" stroke="white" stroke-width="0.576154" stroke-miterlimit="10"/>
        <path d="M160.847 231.764L114.259 204.857" stroke="white" stroke-width="0.576154" stroke-miterlimit="10"/>
        <path d="M153.529 236.818L105.991 209.364" stroke="white" stroke-width="0.576154" stroke-miterlimit="10"/>
        <path d="M145.129 241.427L97.8643 214.136" stroke="white" stroke-width="0.576154" stroke-miterlimit="10"/>
        <path d="M182.71 163.243C216.613 143.037 209.254 200.652 182.71 215.652L135.122 243.126" stroke="white" stroke-width="0.333563" stroke-miterlimit="10"/>
        <path d="M182.71 164.394C216.613 144.188 209.254 201.804 182.71 216.804L135.122 244.278" stroke="white" stroke-width="0.333563" stroke-miterlimit="10"/>
        <path d="M181.609 162.544C215.511 142.339 208.152 199.954 181.609 214.954L134.021 242.428" stroke="white" stroke-width="0.333563" stroke-miterlimit="10"/>
        <path d="M180.305 161.868C214.207 141.662 206.848 199.277 180.305 214.277L132.716 241.751" stroke="white" stroke-width="0.333563" stroke-miterlimit="10"/>
        <path d="M179.244 161.109C213.146 140.903 205.787 198.519 179.244 213.519L131.655 240.992" stroke="white" stroke-width="0.333563" stroke-miterlimit="10"/>
        <path d="M178.414 160.391C212.317 140.185 204.958 197.801 178.414 212.801L130.826 240.275" stroke="white" stroke-width="0.333563" stroke-miterlimit="10"/>
        <path d="M177.1 159.714C211.003 139.509 203.644 197.124 177.1 212.124L129.512 239.598" stroke="white" stroke-width="0.333563" stroke-miterlimit="10"/>
        <path d="M176.049 158.957C209.951 138.751 202.593 196.366 176.049 211.366L128.461 238.84" stroke="white" stroke-width="0.333563" stroke-miterlimit="10"/>
        <path d="M175.129 158.279C209.031 138.073 201.673 195.688 175.129 210.689L127.541 238.162" stroke="white" stroke-width="0.333563" stroke-miterlimit="10"/>
        <path d="M174.038 157.582C207.94 137.377 200.581 194.992 174.038 209.992L126.449 237.466" stroke="white" stroke-width="0.333563" stroke-miterlimit="10"/>
        <path d="M172.724 156.904C206.626 136.698 199.267 194.313 172.724 209.314L125.135 236.787" stroke="white" stroke-width="0.333563" stroke-miterlimit="10"/>
        <path d="M171.672 156.146C205.574 135.94 198.216 193.556 171.672 208.556L124.084 236.03" stroke="white" stroke-width="0.333563" stroke-miterlimit="10"/>
        <path d="M170.833 155.428C204.736 135.222 197.377 192.838 170.833 207.838L123.245 235.311" stroke="white" stroke-width="0.333563" stroke-miterlimit="10"/>
        <path d="M169.53 154.762C203.432 134.556 196.073 192.172 169.53 207.172L121.941 234.645" stroke="white" stroke-width="0.333563" stroke-miterlimit="10"/>
        <path d="M168.468 153.993C202.37 133.788 195.012 191.403 168.468 206.403L120.88 233.877" stroke="white" stroke-width="0.333563" stroke-miterlimit="10"/>
        <path d="M167.589 153.265C201.491 133.059 194.132 190.675 167.589 205.675L120 233.148" stroke="white" stroke-width="0.333563" stroke-miterlimit="10"/>
        <path d="M166.497 152.568C200.399 132.362 193.04 189.978 166.497 204.978L118.909 232.451" stroke="white" stroke-width="0.333563" stroke-miterlimit="10"/>
        <path d="M165.183 151.89C199.085 131.684 191.727 189.3 165.183 204.3L117.595 231.773" stroke="white" stroke-width="0.333563" stroke-miterlimit="10"/>
        <path d="M164.132 151.132C198.034 130.927 190.675 188.542 164.132 203.542L116.543 231.016" stroke="white" stroke-width="0.333563" stroke-miterlimit="10"/>
        <path d="M163.293 150.416C197.195 130.21 189.836 187.825 163.293 202.825L115.705 230.299" stroke="white" stroke-width="0.333563" stroke-miterlimit="10"/>
        <path d="M161.979 149.738C195.881 129.532 188.522 187.147 161.979 202.147L114.391 229.621" stroke="white" stroke-width="0.333563" stroke-miterlimit="10"/>
        <path d="M160.928 148.98C194.83 128.774 187.471 186.39 160.928 201.39L113.339 228.863" stroke="white" stroke-width="0.333563" stroke-miterlimit="10"/>
        <path d="M160.099 148.242C194.001 128.036 186.643 185.651 160.099 200.652L112.511 228.125" stroke="white" stroke-width="0.333563" stroke-miterlimit="10"/>
        <path d="M159.048 147.484C192.95 127.278 185.591 184.893 159.048 199.894L111.459 227.367" stroke="white" stroke-width="0.333563" stroke-miterlimit="10"/>
        <path d="M158.158 146.756C192.06 126.551 184.702 184.166 158.158 199.166L110.57 226.64" stroke="white" stroke-width="0.333563" stroke-miterlimit="10"/>
        <path d="M157.066 146.059C190.968 125.853 183.61 183.469 157.066 198.469L109.478 225.942" stroke="white" stroke-width="0.333563" stroke-miterlimit="10"/>
        <path d="M155.752 145.381C189.654 125.175 182.296 182.791 155.752 197.791L108.164 225.264" stroke="white" stroke-width="0.333563" stroke-miterlimit="10"/>
        <path d="M154.701 144.614C188.603 124.408 181.245 182.023 154.701 197.024L107.113 224.497" stroke="white" stroke-width="0.333563" stroke-miterlimit="10"/>
        <path d="M153.862 143.906C187.764 123.7 180.406 181.316 153.862 196.316L106.274 223.789" stroke="white" stroke-width="0.333563" stroke-miterlimit="10"/>
        <path d="M152.558 143.228C186.46 123.022 179.102 180.638 152.558 195.638L104.97 223.111" stroke="white" stroke-width="0.333563" stroke-miterlimit="10"/>
        <path d="M151.497 142.471C185.399 122.265 178.041 179.881 151.497 194.881L103.909 222.354" stroke="white" stroke-width="0.333563" stroke-miterlimit="10"/>
        <path d="M150.516 141.652C184.419 121.446 177.06 179.061 150.516 194.061L102.928 221.535" stroke="white" stroke-width="0.333563" stroke-miterlimit="10"/>
        <path d="M149.465 140.893C183.367 120.687 176.009 178.303 149.465 193.303L101.877 220.776" stroke="white" stroke-width="0.333563" stroke-miterlimit="10"/>
        <path d="M148.576 140.156C182.478 119.95 175.119 177.565 148.576 192.566L100.987 220.039" stroke="white" stroke-width="0.333563" stroke-miterlimit="10"/>
        <path d="M147.484 139.458C181.386 119.252 174.028 176.867 147.484 191.867L99.896 219.341" stroke="white" stroke-width="0.333563" stroke-miterlimit="10"/>
        <path d="M146.17 138.78C180.072 118.574 172.714 176.189 146.17 191.19L98.582 218.663" stroke="white" stroke-width="0.333563" stroke-miterlimit="10"/>
        <path d="M145.119 138.023C179.021 117.817 171.663 175.433 145.119 190.433L97.5308 217.906" stroke="white" stroke-width="0.333563" stroke-miterlimit="10"/>
        <path d="M144.29 137.305C178.192 117.099 170.833 174.715 144.29 189.715L96.7017 217.188" stroke="white" stroke-width="0.333563" stroke-miterlimit="10"/>
        <path d="M142.976 136.627C176.878 116.422 169.52 174.037 142.976 189.037L95.3877 216.511" stroke="white" stroke-width="0.333563" stroke-miterlimit="10"/>
        <path d="M141.925 135.87C175.827 115.664 168.468 173.279 141.925 188.279L94.3364 215.753" stroke="white" stroke-width="0.333563" stroke-miterlimit="10"/>
    </g>
    <path d="M158.926 158.904L158.936 165.555L170.267 159.177V152.526L158.926 158.904Z" fill="#414042"/>
    <path d="M172.562 74.7962V81.4473L188.269 72.3703V65.7294L172.562 74.7962Z" fill="#414042"/>
    <path d="M141.894 87.735V94.3861L148.302 90.7876V84.1366L141.894 87.735Z" fill="#414042"/>
    <path d="M147.292 254.567L147.302 261.208L169.337 248.482V241.831L147.292 254.567Z" fill="#414042"/>
    <path d="M150.667 112.559L144.906 115.854L139.438 112.731L145.432 109.335L150.667 112.559Z" fill="#414042"/>
    <path d="M232.684 209.706L226.933 212.991L221.454 209.868L227.458 206.472L232.684 209.706Z" fill="#414042"/>
    <path d="M186.056 218.876L180.304 222.161L170.54 216.521L176.534 213.135L186.056 218.876Z" fill="#414042"/>
    <path d="M187.956 135.515L182.195 138.81L172.43 133.169L178.424 129.773L187.956 135.515Z" fill="#414042"/>
    <path d="M160.432 185.752L154.68 189.037L144.916 183.407L150.91 180.011L160.432 185.752Z" fill="#414042"/>
    <path d="M217.835 152.445L212.074 155.74L202.31 150.1L208.304 146.704L217.835 152.445Z" fill="#414042"/>
    <path d="M229.732 80.6994L223.981 83.9947L214.216 78.3544L220.21 74.9581L229.732 80.6994Z" fill="#414042"/>
    <path d="M211.861 188.46L206.1 191.745L190.584 182.819L196.578 179.433L211.861 188.46Z" fill="#414042"/>
    <path d="M135.598 309.552C135.644 310.695 135.344 311.885 134.695 313.123C134.058 314.338 133.065 315.373 131.714 316.228L125.86 319.936L125.788 318.2L127.257 317.27L126.814 306.455L125.345 307.385L125.274 305.648L131.054 301.987C132.244 301.234 133.161 300.976 133.807 301.214C134.452 301.437 134.795 302.062 134.837 303.087C134.868 303.85 134.703 304.638 134.343 305.453C133.981 306.253 133.488 306.926 132.862 307.473L132.866 307.561C133.739 307.158 134.4 307.16 134.849 307.568C135.31 307.967 135.56 308.629 135.598 309.552ZM133.054 304.713C133.02 303.892 132.799 303.454 132.39 303.397C131.981 303.34 131.442 303.524 130.772 303.948L128.505 305.384L128.685 309.78L130.86 308.403C132.384 307.438 133.115 306.208 133.054 304.713ZM133.773 310.617C133.708 309.049 132.933 308.736 131.446 309.678L128.751 311.385L128.948 316.199L131.29 314.715C132.095 314.205 132.719 313.615 133.162 312.943C133.605 312.257 133.808 311.482 133.773 310.617ZM144.538 305.13C144.486 306.035 144.163 306.991 143.569 307.999C142.975 309.007 142.145 309.848 141.079 310.523C139.877 311.284 138.887 311.475 138.109 311.096C137.331 310.717 136.908 309.721 136.842 308.109C136.78 306.585 137.075 305.105 137.728 303.669C138.381 302.234 139.321 301.127 140.548 300.35C141.688 299.628 142.591 299.485 143.257 299.92C143.923 300.355 144.287 301.162 144.348 302.341C144.364 302.737 144.344 303.178 144.288 303.665L138.563 307.29C138.723 309.324 139.577 309.851 141.126 308.87C141.77 308.462 142.246 307.972 142.553 307.402C142.873 306.824 143.078 306.243 143.168 305.659L144.538 305.13ZM142.655 303.369C142.678 302.692 142.516 302.163 142.17 301.781C141.836 301.376 141.303 301.406 140.572 301.869C139.89 302.3 139.387 302.897 139.063 303.659C138.75 304.398 138.572 305.173 138.529 305.982L142.655 303.369ZM150.263 294.242C150.846 293.874 151.349 293.736 151.772 293.828L152.219 296.364L150.944 297.352L150.559 295.86C150.344 295.891 150.125 295.977 149.902 296.118C149.48 296.385 149.136 296.821 148.868 297.426C148.6 298.017 148.48 298.649 148.508 299.324L148.697 303.94L150.481 302.81L150.542 304.304L145.784 307.318L145.723 305.823L147.061 304.976L146.782 298.161L145.388 299.044L145.326 297.527L148.244 295.679L148.318 297.482C148.456 296.823 148.685 296.204 149.004 295.626C149.336 295.025 149.755 294.564 150.263 294.242ZM163.716 295.962L159.404 298.692L159.343 297.198L160.681 296.35L160.507 292.108C160.466 291.111 160.276 290.51 159.937 290.303C159.598 290.083 159.161 290.141 158.629 290.478C157.935 290.918 157.395 291.538 157.008 292.339C156.621 293.14 156.43 293.908 156.435 294.642L156.61 298.928L157.949 298.08L158.01 299.575L153.698 302.306L153.637 300.811L154.975 299.964L154.696 293.149L153.302 294.032L153.239 292.516L156.269 290.597L156.337 292.268C156.869 290.653 157.785 289.434 159.086 288.61C159.891 288.1 160.585 287.961 161.167 288.194C161.748 288.427 162.064 289.167 162.116 290.412L162.316 295.314L163.655 294.467L163.716 295.962ZM164.981 285.846C165.475 285.173 165.961 284.617 166.439 284.179C166.928 283.719 167.464 283.304 168.047 282.935C168.988 282.339 169.743 282.139 170.31 282.336C170.89 282.525 171.203 283.184 171.249 284.312L171.436 288.862C171.462 289.507 171.692 289.692 172.126 289.418C172.299 289.308 172.465 289.165 172.623 288.99L172.689 290.121C172.352 290.59 171.954 290.97 171.496 291.26C170.492 291.896 169.932 291.574 169.816 290.294L169.815 290.272C169.589 290.942 169.248 291.631 168.794 292.339C168.352 293.04 167.797 293.602 167.128 294.026C166.558 294.387 165.98 294.543 165.393 294.494C164.818 294.436 164.51 293.895 164.468 292.869C164.418 291.638 164.794 290.573 165.596 289.674C166.41 288.753 167.288 287.994 168.229 287.397C168.799 287.037 169.278 286.764 169.664 286.579L169.634 285.854C169.608 285.209 169.48 284.726 169.251 284.405C169.022 284.084 168.541 284.155 167.81 284.618C167.216 284.995 166.719 285.437 166.32 285.945L166.07 287.75L164.743 288.41L164.981 285.846ZM169.733 288.272L169.71 287.7C169.486 287.812 169.249 287.939 169.001 288.081C168.764 288.201 168.522 288.34 168.274 288.497C167.704 288.858 167.201 289.289 166.764 289.791C166.327 290.294 166.122 290.889 166.151 291.578C166.172 292.106 166.324 292.4 166.606 292.462C166.901 292.516 167.228 292.429 167.587 292.202C168.12 291.864 168.607 291.331 169.047 290.601C169.488 289.871 169.716 289.094 169.733 288.272ZM178.052 276.644C178.634 276.275 179.137 276.137 179.561 276.23L180.008 278.765L178.732 279.753L178.347 278.261C178.132 278.292 177.913 278.378 177.69 278.519C177.269 278.786 176.925 279.222 176.657 279.828C176.389 280.418 176.269 281.051 176.296 281.725L176.485 286.341L178.27 285.211L178.331 286.706L173.573 289.719L173.512 288.224L174.85 287.377L174.571 280.563L173.177 281.445L173.114 279.929L176.032 278.081L176.106 279.883C176.245 279.224 176.474 278.606 176.793 278.027C177.124 277.427 177.544 276.965 178.052 276.644ZM190.984 278.692L188.029 280.564L187.95 278.63C187.713 279.381 187.369 280.118 186.915 280.841C186.474 281.556 185.869 282.157 185.101 282.644C184.023 283.326 183.144 283.439 182.465 282.983C181.784 282.512 181.413 281.514 181.35 279.99C181.295 278.642 181.536 277.234 182.074 275.766C182.623 274.275 183.554 273.114 184.867 272.282C186.144 271.474 187.085 271.48 187.69 272.299L187.471 266.957L185.557 268.17L185.495 266.653L189.026 264.417L189.585 278.045L190.923 277.198L190.984 278.692ZM187.843 276.036L187.795 274.849C187.736 274.044 187.474 273.533 187.007 273.318C186.541 273.102 185.992 273.194 185.36 273.594C184.554 274.104 183.955 274.845 183.563 275.815C183.183 276.777 183.014 277.771 183.056 278.797C183.101 279.911 183.359 280.62 183.829 280.923C184.299 281.227 184.863 281.171 185.52 280.755C186.226 280.308 186.788 279.598 187.206 278.627C187.636 277.648 187.849 276.784 187.843 276.036ZM206.148 259.031L204.668 260.126L204.177 257.46L201.427 259.202L201.87 270.017L203.951 268.699L204.022 270.435L198.224 274.108L198.152 272.371L200.178 271.088L199.735 260.273L196.966 262.027L196.713 265.164L195.238 265.94L195.408 261.232L205.593 254.782L206.148 259.031ZM213.715 261.343C213.755 262.325 213.439 263.306 212.768 264.288C212.108 265.262 211.252 266.082 210.199 266.749C208.923 267.557 207.825 267.922 206.907 267.842L207.069 265.303L208.358 264.645L208.373 265.943C208.627 265.933 208.898 265.867 209.185 265.745C209.485 265.615 209.777 265.46 210.062 265.28C210.595 264.942 211.067 264.523 211.479 264.021C211.903 263.512 212.105 263.009 212.084 262.51C212.065 262.027 211.877 261.8 211.523 261.829C211.167 261.843 210.727 261.964 210.203 262.191C209.69 262.41 209.177 262.608 208.663 262.783C208.149 262.943 207.71 262.95 207.348 262.804C206.986 262.642 206.789 262.181 206.758 261.419C206.713 260.32 207.022 259.342 207.686 258.485C208.363 257.621 209.091 256.941 209.872 256.447C210.442 256.086 210.978 255.836 211.481 255.698C211.996 255.538 212.463 255.46 212.883 255.465L213.166 257.721L211.872 258.721L211.623 257.3C211.104 257.343 210.565 257.541 210.008 257.895C209.549 258.185 209.175 258.527 208.886 258.92C208.597 259.314 208.463 259.745 208.482 260.214C208.5 260.668 208.681 260.885 209.023 260.863C209.378 260.834 209.805 260.714 210.305 260.503C210.817 260.269 211.324 260.076 211.826 259.923C212.341 259.762 212.773 259.767 213.123 259.936C213.486 260.097 213.683 260.566 213.715 261.343ZM222.453 255.267C222.39 256.195 222.095 257.223 221.569 258.353C221.056 259.475 220.198 260.416 218.996 261.178C217.832 261.915 216.872 262.087 216.119 261.692C215.377 261.275 214.974 260.267 214.908 258.67C214.848 257.19 215.15 255.721 215.815 254.262C216.479 252.789 217.443 251.652 218.707 250.852C219.227 250.522 219.732 250.278 220.221 250.118C220.71 249.959 221.179 249.925 221.628 250.017L222.067 252.355L220.755 253.366L220.39 251.906C219.906 251.882 219.36 252.062 218.753 252.446C217.972 252.941 217.41 253.643 217.066 254.552C216.721 255.447 216.57 256.422 216.614 257.477C216.659 258.576 216.892 259.308 217.314 259.672C217.736 260.037 218.33 259.976 219.099 259.489C220.251 258.759 220.906 257.532 221.065 255.808L222.453 255.267ZM233.445 251.802L229.114 254.544L229.053 253.05L230.41 252.19L230.236 247.948C230.195 246.951 229.999 246.354 229.648 246.155C229.296 245.942 228.847 246.008 228.302 246.354C227.633 246.777 227.105 247.39 226.718 248.191C226.331 248.978 226.139 249.723 226.143 250.428L226.321 254.78L227.678 253.921L227.739 255.415L223.427 258.146L223.366 256.651L224.704 255.804L224.208 243.692L222.869 244.54L222.807 243.023L225.762 241.151L226.049 248.141C226.604 246.497 227.527 245.266 228.815 244.45C229.621 243.94 230.314 243.802 230.896 244.035C231.477 244.268 231.794 245.007 231.845 246.253L232.045 251.154L233.384 250.307L233.445 251.802ZM243.917 245.17L240.887 247.089L240.815 245.33C240.299 247.01 239.391 248.262 238.089 249.086C237.284 249.596 236.584 249.738 235.99 249.513C235.409 249.28 235.092 248.533 235.041 247.273L234.841 242.393L233.502 243.241L233.44 241.724L236.414 239.841L236.65 245.6C236.691 246.596 236.881 247.198 237.22 247.404C237.571 247.603 238.026 247.525 238.583 247.172C239.252 246.748 239.78 246.121 240.165 245.291C240.55 244.446 240.734 243.667 240.718 242.956L240.547 238.78L238.93 239.804L238.867 238.287L242.12 236.227L242.461 244.558L243.855 243.675L243.917 245.17ZM260.13 234.902L256.302 237.326L256.24 235.832L257.095 235.29L256.922 231.048C256.881 230.051 256.691 229.45 256.352 229.244C256.025 229.015 255.595 229.069 255.062 229.407C254.343 229.862 253.817 230.511 253.483 231.354C253.161 232.189 253.007 232.926 253.02 233.564L253.192 237.762L254.53 236.915L254.592 238.409L250.763 240.834L250.702 239.339L251.557 238.798L251.383 234.555C251.341 233.544 251.151 232.936 250.812 232.729C250.486 232.515 250.062 232.573 249.542 232.902C248.835 233.35 248.315 233.988 247.98 234.816C247.646 235.644 247.485 236.378 247.498 237.016L247.672 241.258L249.215 240.281L249.276 241.776L244.76 244.636L244.698 243.141L246.037 242.294L245.757 235.48L244.401 236.339L244.338 234.822L247.331 232.927L247.402 234.664C247.639 233.927 247.973 233.242 248.405 232.608C248.836 231.959 249.373 231.43 250.018 231.022C250.65 230.622 251.215 230.46 251.714 230.535C252.212 230.595 252.57 230.955 252.788 231.614C253.008 230.782 253.351 230.001 253.817 229.27C254.283 228.539 254.863 227.954 255.556 227.515C256.337 227.02 257.012 226.894 257.581 227.135C258.15 227.375 258.461 228.119 258.512 229.364L258.712 234.266L260.069 233.407L260.13 234.902ZM261.663 221.482L261.57 219.218L263.262 218.147L263.354 220.411L261.663 221.482ZM265.246 231.662L260.915 234.405L260.854 232.91L262.211 232.051L261.931 225.237L260.519 226.131L260.457 224.614L263.505 222.684L263.846 231.015L265.184 230.167L265.246 231.662Z" fill="#818181"/>
</svg>
