<svg width="296" height="331" viewBox="0 0 296 331" fill="none" xmlns="http://www.w3.org/2000/svg">
<path d="M149.572 126.711L127.183 102.836C173.053 34.9003 248.287 15.1594 256.868 90.302L215.678 113.722C208.411 83.1759 172.356 89.4428 149.572 126.711Z" fill="#E6E7E8"/>
<path d="M75.6626 74.1591C105.592 30.2602 148.005 2.94845 183.505 18.5855L232.983 46.4228L232.316 46.3824C204.226 34.0304 157.001 71.066 135.663 111.882" fill="#A7A9AB"/>
<path d="M93.2707 253.425L39.8603 222.838C28.6404 173.167 46.6022 115.552 76.0063 73.5331L127.163 102.826C106.391 132.756 91.5928 172.48 91.6434 218.249C91.1077 231.804 91.8151 243.458 93.5638 253.354" fill="#CAB29A"/>
<path d="M131.671 219.36C140.505 280.716 198.838 253.556 217.851 182.608L171.294 155.286C166.634 184.296 150.199 209.97 131.671 219.36Z" fill="#CAC759"/>
<path d="M212.494 131.865L259.052 159.197L217.851 182.607L171.304 155.285L212.494 131.865Z" fill="#F8F3E7"/>
<path d="M232.791 167.739C223.805 172.843 207.935 171.236 200.263 166.485C191.106 160.815 190.166 151.637 197.888 147.25C208.926 140.973 222.218 143.793 229.88 148.281C238.694 153.456 240.513 163.352 232.801 167.739H232.791Z" fill="#E38C4E"/>
<path d="M232.791 166.759C223.805 171.864 207.935 170.256 200.263 165.506C191.106 159.835 190.166 150.657 197.888 146.27C208.926 139.993 222.218 142.813 229.88 147.301C238.694 152.477 240.513 162.372 232.801 166.759H232.791Z" fill="#F5ECE3"/>
<path d="M168.08 167.598C165.866 175.451 162.621 182.79 158.689 189.178L188.023 206.402C191.55 200.004 194.674 192.726 197.17 184.68L168.07 167.598" fill="#F1E3D5"/>
<path d="M197.18 184.539C194.684 192.585 191.56 199.863 188.033 206.261V208.576C191.56 202.177 194.684 194.9 197.18 186.854V184.539Z" fill="#E38C4E"/>
<path d="M158.699 189.035L188.033 206.259V208.574L158.699 191.36V189.035Z" fill="#CC6B38"/>
<path d="M171.496 172.601C169.939 178.12 167.665 183.275 164.896 187.763L185.516 199.862C187.992 195.364 190.196 190.249 191.944 184.599L171.496 172.591" fill="#F5EAE2"/>
<path d="M191.945 184.509C190.196 190.159 187.993 195.274 185.516 199.772V201.399C187.993 196.901 190.196 191.786 191.945 186.136V184.509Z" fill="#E38C4E"/>
<path d="M164.906 187.672L185.516 199.771V201.398L164.906 189.299V187.672Z" fill="#CC6B38"/>
<path d="M184.394 95.8114L215.668 113.723C211.655 96.8626 198.868 91.2123 184.394 95.8114Z" fill="#949598"/>
<path d="M46.3794 179.696L50.9786 182.335C51.2212 180.414 51.4839 178.484 51.7871 176.563L47.1881 173.925C46.8848 175.845 46.622 177.776 46.3794 179.696Z" fill="#949598"/>
<path d="M61.1777 180.06L68.3948 184.195C68.5363 180.94 68.88 178.322 69.6685 175.138L62.4513 171.004C61.7034 173.834 61.1777 177.099 61.1777 180.06Z" fill="#949598"/>
<path d="M105.896 110.437L113.022 114.308C114.103 111.407 115.741 109.092 117.024 106.838L109.706 102.876C108.473 104.544 106.896 107.111 105.896 110.437Z" fill="#818284"/>
<path d="M51.8683 117.836C54.2841 111.883 57.2862 105.403 60.167 99.7227L75.9354 108.749C73.0546 114.43 70.0526 120.909 67.6368 126.852L51.8481 117.806" fill="white"/>
<mask id="mask0_278_86071" style="mask-type:luminance" maskUnits="userSpaceOnUse" x="93" y="159" width="167" height="141">
<path d="M93.5635 253.264C111.839 357.285 244.728 268.547 259.041 159.199L217.851 182.619C200.081 248.928 147.954 276.997 134.005 230.278L93.5635 253.264Z" fill="white"/>
</mask>
<g mask="url(#mask0_278_86071)">
<path d="M135.218 252.798L93.5635 276.471V253.263L135.218 229.58V252.798Z" fill="#E38C4E"/>
<path d="M135.218 276.007L93.5635 299.69V276.472L135.218 252.799V276.007Z" fill="#E78855"/>
<path d="M135.218 299.224L93.5635 322.897V299.689L135.218 276.006V299.224Z" fill="#EAAB67"/>
<path d="M260.163 181.769L218.519 205.442V182.234L260.163 158.561V181.769Z" fill="#E4764C"/>
<path d="M260.163 204.987L218.519 228.66V205.442L260.163 181.769V204.987Z" fill="#EAAB67"/>
<path d="M260.163 228.195L218.519 251.878V228.66L260.163 204.987V228.195Z" fill="#E07C3C"/>
<path d="M176.864 229.125L135.219 252.798V229.58L176.864 205.907V229.125Z" fill="#EAAB67"/>
<path d="M176.864 252.333L135.219 276.006V252.798L176.864 229.125V252.333Z" fill="#E4764C"/>
<path d="M176.864 275.551L135.219 299.224V276.006L176.864 252.333V275.551Z" fill="#EC9C61"/>
<path d="M176.864 298.76L135.219 322.443V299.225L176.864 275.552V298.76Z" fill="#E38C4E"/>
<path d="M218.518 205.442L176.863 229.125V205.907L218.518 182.234V205.442Z" fill="#EA9459"/>
<path d="M218.518 228.66L176.863 252.333V229.125L218.518 205.442V228.66Z" fill="#DB8145"/>
<path d="M218.518 251.878L176.863 275.551V252.333L218.518 228.66V251.878Z" fill="#E78855"/>
<path d="M218.518 275.086L176.863 298.759V275.551L218.518 251.878V275.086Z" fill="#E4764C"/>
</g>
<path d="M72.2664 257.993L46.4001 243.184H46.3799C47.0874 244.872 47.8354 246.53 48.6238 248.178C51.3732 253.919 55.851 258.66 61.3598 261.844L86.2154 276.288C86.2154 276.288 76.6836 267.585 72.2967 257.982" fill="#D5623B"/>
<path d="M72.2658 257.993L46.3996 243.185H46.3793C43.5895 236.574 41.4366 229.741 39.8496 222.736L66.2617 237.858C67.6667 245.631 69.7085 252.312 72.2962 257.983" fill="#DF7F49"/>
<path d="M72.2666 257.992L99.6188 273.66C104.016 283.323 109.99 290.055 117.055 294.209L86.2156 276.288C86.2156 276.288 76.6838 267.585 72.297 257.982" fill="#D0793E"/>
<path d="M72.2663 257.993L99.6185 273.661C97.0106 267.919 94.9586 261.147 93.5637 253.263L66.2622 237.858C67.6672 245.631 69.709 252.313 72.2966 257.983" fill="#D55E37"/>
<path d="M151.23 231.632L176.682 245.723C183.1 241.649 189.539 235.595 195.483 227.791L170.415 213.388C164.35 221.363 157.78 227.529 151.23 231.632Z" fill="#F1E3D5"/>
<path d="M176.692 247.652C183.11 243.569 189.549 237.514 195.493 229.721V227.81C189.539 235.604 183.11 241.668 176.682 245.742V247.652H176.692Z" fill="#E38C4E"/>
<path d="M151.24 231.642L176.692 245.732V247.653L151.24 233.552V231.642Z" fill="#CC6B38"/>
<path d="M93.5839 253.373C91.8352 243.468 91.1278 231.813 91.6635 218.268C91.613 172.5 106.411 132.775 127.183 102.846L149.572 126.721C139.585 143.055 132.146 165.343 130.812 193.1C129.983 208.666 131.246 220.957 134.026 230.287L93.2909 253.444" fill="#D6C6B3"/>
<path d="M115.377 157.226C113.234 163.382 111.991 169.426 111.606 175.653L97.708 168.587C98.921 163.726 99.9722 158.874 101.509 154.234L115.377 157.226Z" fill="#E7B749"/>
<path d="M111.606 175.654L96.3635 173.581L81.8384 165.263L97.708 168.588L111.606 175.654Z" fill="#949598"/>
<path d="M87.4483 146.179C85.3055 152.335 83.4253 158.703 81.8384 165.253L97.7181 168.578C98.931 163.716 99.9823 158.864 101.519 154.225L87.4585 146.169L87.4483 146.179Z" fill="#F3CA5B"/>
<path d="M37.97 213.811L55.568 223.889C54.3247 216.217 53.7385 208.393 53.7385 200.489L36.4943 190.613C36.4235 198.427 36.929 206.18 38.0712 213.791" fill="white"/>
<path d="M54.3449 214.246L38.2429 213.821C38.1721 213.821 38.1318 213.912 38.2025 213.953C40.3151 215.166 55.5578 223.889 55.5578 223.889C55.0423 220.695 54.638 217.48 54.3449 214.246Z" fill="#58595B"/>
<path d="M68.769 124.123C68.769 124.123 51.7976 117.795 51.8684 117.836C53.9809 119.049 67.6369 126.862 67.6369 126.862" fill="#58595B"/>
<path d="M105.997 236.291C105.249 233.562 104.763 227.719 104.965 224.333L114.113 222.453H114.457C114.669 226.294 115.043 229.185 115.72 232.157" fill="#E6E7E8"/>
<path d="M115.731 232.157L105.229 231.642C105.451 233.714 105.653 234.997 105.997 236.291L115.731 232.157Z" fill="#58595B"/>
<path d="M46.3799 179.697L51.2216 180.465L50.9791 182.335L46.3799 179.697Z" fill="#58595B"/>
<path d="M61.1777 180.06L68.5969 181.233L68.3948 184.195L61.1777 180.06Z" fill="#58595B"/>
<path d="M75.6626 74.1591C105.592 30.2602 148.005 2.94845 183.505 18.5855L232.983 46.4228L232.316 46.3824C204.226 33.0196 158.507 56.4701 127.173 102.835" fill="#E6E7E8"/>
<path d="M192.238 23.4994C168.899 12.9164 137.443 24.9145 111.415 49.8104L138.271 64.7601C165.664 39.2375 198.131 28.6444 219.196 38.6613L192.228 23.4893L192.238 23.4994Z" fill="#F1F2F2"/>
<path d="M194.451 25.1856C171.112 14.6026 141.748 24.9127 115.72 49.8188L140.192 63.0198C168.453 37.9621 196.877 29.6332 219.206 38.6798L194.451 25.1958V25.1856Z" fill="#DDEDEB"/>
<path d="M115.731 49.8192H111.415L138.282 64.7689L140.192 63.0202L115.731 49.8192Z" fill="#D1D3D4"/>
<path d="M125.808 37.9122L153.1 53.1045" stroke="#D1D3D4" stroke-width="0.677234" stroke-miterlimit="10"/>
<path d="M125.354 36.8309L155.041 53.3575" stroke="#E6E7E8" stroke-width="0.970365" stroke-miterlimit="10"/>
<path d="M121.522 41.3387L148.824 56.531" stroke="#D1D3D4" stroke-width="0.677234" stroke-miterlimit="10"/>
<path d="M121.067 40.2577L150.754 56.7842" stroke="#E6E7E8" stroke-width="0.970365" stroke-miterlimit="10"/>
<path d="M134.632 32.1102L161.934 47.3025" stroke="#D1D3D4" stroke-width="0.677234" stroke-miterlimit="10"/>
<path d="M134.845 31.443L164.532 47.9695" stroke="#E6E7E8" stroke-width="0.970365" stroke-miterlimit="10"/>
<path d="M142.486 27.5917L169.788 42.7941" stroke="#D1D3D4" stroke-width="0.677234" stroke-miterlimit="10"/>
<path d="M142.698 26.9353L172.385 43.4517" stroke="#E6E7E8" stroke-width="0.970365" stroke-miterlimit="10"/>
<path d="M158.103 21.7197L185.405 36.912" stroke="#D1D3D4" stroke-width="0.677234" stroke-miterlimit="10"/>
<path d="M158.315 21.0516L188.003 37.5782" stroke="#E6E7E8" stroke-width="0.970365" stroke-miterlimit="10"/>
<path d="M168.443 19.8602L195.745 35.0626" stroke="#D1D3D4" stroke-width="0.677234" stroke-miterlimit="10"/>
<path d="M168.656 19.2028L198.343 35.7192" stroke="#E6E7E8" stroke-width="0.970365" stroke-miterlimit="10"/>
<path d="M182.1 20.8397L209.391 36.0421" stroke="#D1D3D4" stroke-width="0.677234" stroke-miterlimit="10"/>
<path d="M182.301 20.1835L211.988 36.6999" stroke="#E6E7E8" stroke-width="0.970365" stroke-miterlimit="10"/>
<path d="M221.692 52.3876L218.569 55.703" stroke="#C84F34" stroke-width="0.373995" stroke-miterlimit="10"/>
<path d="M182.756 85.3897L182.423 74.8673L170.91 81.4072" stroke="#C84F34" stroke-width="0.373995" stroke-miterlimit="10"/>
<path d="M182.423 74.8673L179.299 78.1827" stroke="#C84F34" stroke-width="0.373995" stroke-miterlimit="10"/>
<path d="M182.756 85.3885L170.91 81.406L179.299 78.1815L182.756 85.3885Z" stroke="#C84F34" stroke-width="0.373995" stroke-miterlimit="10"/>
<path d="M232.71 109.011L232.376 98.4784L220.863 105.028" stroke="#C84F34" stroke-width="0.373995" stroke-miterlimit="10"/>
<path d="M232.377 98.4784L229.253 101.804" stroke="#C84F34" stroke-width="0.373995" stroke-miterlimit="10"/>
<path d="M232.71 109.012L220.863 105.029L229.253 101.805L232.71 109.012Z" stroke="#C84F34" stroke-width="0.373995" stroke-miterlimit="10"/>
<path d="M238.431 80.578L238.168 72.4714L229.304 77.5052" stroke="#C84F34" stroke-width="0.373995" stroke-miterlimit="10"/>
<path d="M238.168 72.4714L235.772 75.0287" stroke="#C84F34" stroke-width="0.373995" stroke-miterlimit="10"/>
<path d="M238.431 80.5777L229.304 77.5049L235.773 75.0284L238.431 80.5777Z" stroke="#C84F34" stroke-width="0.373995" stroke-miterlimit="10"/>
<path d="M221.581 52.4374L210.068 58.9772L221.915 62.9598L221.581 52.4374Z" stroke="#C84F34" stroke-width="0.373995" stroke-miterlimit="10"/>
<path d="M221.915 62.9597L218.468 55.7527" stroke="#C84F34" stroke-width="0.373995" stroke-miterlimit="10"/>
<path d="M210.068 58.9771L218.468 55.7527" stroke="#C84F34" stroke-width="0.373995" stroke-miterlimit="10"/>
<path d="M171.213 96.821L159.69 103.371L171.536 107.354L171.213 96.821Z" stroke="#C84F34" stroke-width="0.373995" stroke-miterlimit="10"/>
<path d="M171.213 96.821L168.09 100.147" stroke="#C84F34" stroke-width="0.373995" stroke-miterlimit="10"/>
<path d="M159.69 103.372L168.09 100.147L171.536 107.354" stroke="#C84F34" stroke-width="0.373995" stroke-miterlimit="10"/>
<path d="M208.35 75.0284L198.576 80.5777L208.633 83.9639L208.35 75.0284Z" stroke="#C84F34" stroke-width="0.373995" stroke-miterlimit="10"/>
<path d="M208.633 83.9642L205.701 77.8387" stroke="#C84F34" stroke-width="0.373995" stroke-miterlimit="10"/>
<path d="M208.349 75.0284L205.701 77.8385" stroke="#C84F34" stroke-width="0.373995" stroke-miterlimit="10"/>
<path d="M198.576 80.578L205.702 77.8387" stroke="#C84F34" stroke-width="0.373995" stroke-miterlimit="10"/>
<path d="M11.0695 264.159C10.5996 264.357 9.98354 264.361 9.22144 264.17C8.47204 263.987 7.65913 263.642 6.78271 263.136C4.99177 262.102 3.52472 260.573 2.38157 258.549C1.23842 256.525 0.66684 254.464 0.66684 252.367C0.66684 251.12 0.89547 250.057 1.35273 249.177C1.80999 248.282 2.48318 247.732 3.3723 247.527C4.27412 247.314 5.37917 247.586 6.68745 248.341C7.72899 248.942 8.60541 249.61 9.3167 250.343C10.0407 251.084 10.6377 251.832 11.1076 252.587L11.4315 255.678L9.98354 255.018L9.6406 252.774C9.27225 252.268 8.85309 251.799 8.38313 251.366C7.91316 250.919 7.36699 250.515 6.74461 250.156C5.47444 249.423 4.45195 249.346 3.67714 249.925C2.90234 250.504 2.51494 251.637 2.51494 253.324C2.51494 255.069 2.91504 256.664 3.71525 258.109C4.52816 259.561 5.61415 260.679 6.97324 261.464C8.02748 262.073 8.89755 262.362 9.58344 262.333L9.90733 260.408L11.3553 261.42L11.0695 264.159ZM22.9104 272.227L18.4712 269.664V268.168L19.862 268.971V264.725C19.862 263.728 19.6905 262.925 19.3476 262.316C19.0046 261.693 18.5537 261.22 17.9948 260.897C17.309 260.501 16.7564 260.454 16.3373 260.754C15.9181 261.04 15.6958 261.521 15.6704 262.195V266.551L17.0613 267.354V268.85L12.6411 266.298V264.802L14.0129 265.594V253.472L12.6411 252.68V251.162L15.6704 252.911V259.907C16.2928 259.005 17.2645 258.936 18.5855 259.698C19.4111 260.175 20.1097 260.872 20.6813 261.788C21.2528 262.705 21.5386 263.787 21.5386 265.033V269.939L22.9104 270.731V272.227ZM24.5948 264.114C25.1155 264.062 25.6236 264.114 26.119 264.268C26.627 264.414 27.1796 264.66 27.7765 265.005C28.7419 265.562 29.504 266.273 30.0629 267.139C30.6344 268.011 30.9202 269.012 30.9202 270.142V274.696C30.9202 275.341 31.1425 275.792 31.5871 276.049C31.7649 276.151 31.9364 276.214 32.1015 276.236L32.1205 277.391C31.7649 277.435 31.3521 277.321 30.8821 277.05C29.8533 276.456 29.3071 275.48 29.2436 274.124V274.102C28.9896 274.468 28.6212 274.718 28.1385 274.85C27.6686 274.989 27.0907 274.861 26.4048 274.465C25.8205 274.127 25.2362 273.585 24.6519 272.837C24.0804 272.096 23.7946 271.212 23.7946 270.186C23.7946 268.954 24.2137 268.389 25.052 268.492C25.903 268.587 26.8112 268.913 27.7765 269.471C28.3608 269.808 28.8498 270.12 29.2436 270.406V269.68C29.2436 269.034 29.1356 268.422 28.9197 267.843C28.7038 267.263 28.2211 266.757 27.4717 266.325C26.862 265.973 26.3476 265.8 25.9285 265.808L25.6046 267.227L24.2518 266.27L24.5948 264.114ZM29.2436 272.1V271.528C29.015 271.366 28.7736 271.205 28.5196 271.044C28.2783 270.875 28.0306 270.717 27.7765 270.571C27.1923 270.233 26.6715 270.043 26.2142 269.999C25.757 269.955 25.5283 270.277 25.5283 270.967C25.5283 271.495 25.6681 271.957 25.9475 272.353C26.2396 272.756 26.5699 273.064 26.9382 273.277C27.4844 273.592 27.9925 273.665 28.4624 273.497C28.9324 273.328 29.1928 272.862 29.2436 272.1ZM38.0313 270.969C38.6283 271.314 39.1363 271.783 39.5555 272.377L39.8984 275.325L38.5838 274.742L38.2599 272.861C38.044 272.634 37.8217 272.454 37.5931 272.322C37.1612 272.073 36.7992 272.077 36.5071 272.333C36.2149 272.575 36.0689 273.034 36.0689 273.708V278.328L37.8979 279.384V280.88L33.0205 278.064V276.568L34.3923 277.36V270.54L32.9633 269.715V268.197L35.9546 269.924V271.728C36.1197 271.266 36.3737 270.951 36.7167 270.782C37.0723 270.606 37.5105 270.669 38.0313 270.969ZM45.2321 285.115L40.8119 282.563V281.067L42.1837 281.859V269.737L40.7548 268.912V267.394L43.8603 269.187V282.827L45.2321 283.619V285.115ZM54.0622 287.309C53.9733 288.108 53.6113 288.633 52.9762 288.882C52.3412 289.131 51.4774 288.941 50.3851 288.31C49.153 287.599 48.1559 286.598 47.3938 285.307C46.6317 284.016 46.2507 282.564 46.2507 280.951C46.2507 279.426 46.6063 278.37 47.3176 277.783C48.0289 277.196 49.0133 277.266 50.2708 277.992C51.4393 278.667 52.3475 279.609 52.9953 280.819C53.6431 282.029 53.9733 283.232 53.986 284.427C53.986 284.823 53.9479 285.219 53.8717 285.615L48.0035 282.227C48.0797 284.354 48.9117 285.875 50.4994 286.792C51.1599 287.173 51.6553 287.276 51.9855 287.1C52.3285 286.931 52.5571 286.623 52.6714 286.176L54.0622 287.309ZM52.2522 283.382C52.303 282.766 52.1633 282.069 51.8331 281.292C51.5155 280.507 50.9821 279.899 50.2327 279.466C49.5341 279.063 49.007 279.03 48.6513 279.367C48.3084 279.697 48.0988 280.221 48.0226 280.94L52.2522 283.382ZM62.4384 292.167C62.4384 293.149 62.0827 293.707 61.3714 293.839C60.6728 293.978 59.7837 293.736 58.7041 293.113C57.3958 292.357 56.2844 291.393 55.3699 290.22L55.6366 287.998L56.9512 288.911L56.9131 290.165C57.1672 290.458 57.4402 290.718 57.7324 290.946C58.0372 291.18 58.3357 291.382 58.6279 291.551C59.174 291.866 59.663 292.031 60.0949 292.046C60.5395 292.068 60.7617 291.829 60.7617 291.331C60.7617 290.847 60.5839 290.407 60.2283 290.011C59.8726 289.6 59.4281 289.189 58.8946 288.779C58.3738 288.375 57.853 287.95 57.3323 287.503C56.8115 287.041 56.3733 286.524 56.0177 285.952C55.662 285.365 55.4842 284.69 55.4842 283.928C55.4842 282.828 55.8335 282.267 56.5321 282.245C57.2434 282.23 57.9991 282.454 58.7993 282.916C59.3836 283.253 59.9298 283.656 60.4378 284.126C60.9586 284.588 61.4286 285.072 61.8477 285.578L62.0383 288.064L60.7046 287.47L60.5141 285.82C59.9933 285.24 59.4471 284.786 58.8755 284.456C58.4056 284.184 58.0182 284.063 57.7133 284.093C57.4085 284.122 57.2561 284.371 57.2561 284.841C57.2561 285.295 57.4275 285.717 57.7705 286.106C58.1261 286.502 58.558 286.898 59.0661 287.294C59.5868 287.682 60.1013 288.104 60.6093 288.559C61.1301 289.021 61.5619 289.541 61.9049 290.121C62.2605 290.707 62.4384 291.389 62.4384 292.167ZM78.2931 302.971C77.8231 303.169 77.2071 303.172 76.445 302.982C75.6956 302.798 74.8827 302.454 74.0062 301.948C72.2153 300.914 70.7483 299.385 69.6051 297.361C68.462 295.337 67.8904 293.276 67.8904 291.179C67.8904 289.932 68.119 288.869 68.5763 287.989C69.0335 287.094 69.7067 286.544 70.5958 286.339C71.4977 286.126 72.6027 286.397 73.911 287.153C74.9525 287.754 75.8289 288.421 76.5402 289.155C77.2642 289.895 77.8612 290.643 78.3312 291.399L78.6551 294.49L77.2071 293.83L76.8641 291.586C76.4958 291.08 76.0766 290.61 75.6067 290.178C75.1367 289.73 74.5905 289.327 73.9681 288.968C72.698 288.234 71.6755 288.157 70.9007 288.737C70.1259 289.316 69.7385 290.449 69.7385 292.136C69.7385 293.881 70.1386 295.476 70.9388 296.921C71.7517 298.373 72.8377 299.491 74.1968 300.276C75.251 300.884 76.1211 301.174 76.807 301.145L77.1309 299.22L78.5789 300.232L78.2931 302.971ZM88.7622 305.341C88.7622 306.852 88.3557 307.849 87.5428 308.333C86.7426 308.824 85.682 308.689 84.361 307.926C83.0654 307.178 82.0366 306.122 81.2745 304.758C80.5251 303.401 80.1504 301.968 80.1504 300.457C80.1504 299.02 80.5124 297.997 81.2364 297.388C81.9604 296.779 83.04 296.889 84.4753 297.718C85.9106 298.547 86.9839 299.68 87.6952 301.117C88.4065 302.54 88.7622 303.948 88.7622 305.341ZM87.0093 304.263C87.0093 303.178 86.7743 302.184 86.3044 301.282C85.8471 300.387 85.2247 299.713 84.4372 299.258C83.6116 298.781 82.9765 298.752 82.532 299.17C82.1001 299.581 81.8842 300.307 81.8842 301.348C81.8842 302.345 82.0938 303.317 82.5129 304.263C82.9448 305.202 83.5799 305.913 84.4182 306.397C85.2438 306.874 85.8789 306.903 86.3234 306.485C86.7807 306.06 87.0093 305.319 87.0093 304.263ZM94.9471 303.83C95.5441 304.174 96.0521 304.644 96.4713 305.238L96.8142 308.186L95.4996 307.603L95.1757 305.722C94.9598 305.494 94.7375 305.315 94.5089 305.183C94.077 304.933 93.715 304.937 93.4229 305.194C93.1307 305.436 92.9847 305.894 92.9847 306.569V311.189L94.8137 312.245V313.741L89.9363 310.925V309.429L91.3081 310.221V303.401L89.8791 302.576V301.058L92.8704 302.785V304.589C93.0355 304.127 93.2895 303.811 93.6325 303.643C93.9881 303.467 94.4263 303.529 94.9471 303.83ZM103.059 308.513C103.656 308.858 104.164 309.327 104.584 309.921L104.926 312.869L103.612 312.286L103.288 310.405C103.072 310.178 102.85 309.998 102.621 309.866C102.189 309.617 101.827 309.621 101.535 309.877C101.243 310.119 101.097 310.578 101.097 311.252V315.872L102.926 316.928V318.424L98.0485 315.608V314.112L99.4203 314.904V308.084L97.9913 307.259V305.741L100.983 307.468V309.272C101.148 308.81 101.402 308.495 101.745 308.326C102.1 308.15 102.539 308.213 103.059 308.513ZM114.029 321.931C113.941 322.73 113.579 323.255 112.943 323.504C112.308 323.753 111.445 323.563 110.352 322.932C109.12 322.221 108.123 321.22 107.361 319.929C106.599 318.638 106.218 317.186 106.218 315.573C106.218 314.048 106.574 312.992 107.285 312.405C107.996 311.818 108.98 311.888 110.238 312.614C111.407 313.289 112.315 314.231 112.962 315.441C113.61 316.651 113.941 317.854 113.953 319.049C113.953 319.445 113.915 319.841 113.839 320.237L107.971 316.849C108.047 318.976 108.879 320.497 110.467 321.414C111.127 321.795 111.622 321.898 111.953 321.722C112.296 321.553 112.524 321.245 112.639 320.798L114.029 321.931ZM112.219 318.004C112.27 317.388 112.131 316.691 111.8 315.914C111.483 315.129 110.949 314.521 110.2 314.088C109.501 313.685 108.974 313.652 108.618 313.989C108.276 314.319 108.066 314.843 107.99 315.562L112.219 318.004ZM116.099 316.944C116.62 316.893 117.128 316.944 117.623 317.098C118.131 317.245 118.684 317.49 119.281 317.835C120.246 318.392 121.008 319.104 121.567 319.969C122.139 320.842 122.425 321.843 122.425 322.972V327.526C122.425 328.171 122.647 328.622 123.091 328.879C123.269 328.982 123.441 329.044 123.606 329.066L123.625 330.221C123.269 330.265 122.856 330.151 122.387 329.88C121.358 329.286 120.811 328.311 120.748 326.954V326.932C120.494 327.299 120.126 327.548 119.643 327.68C119.173 327.819 118.595 327.691 117.909 327.295C117.325 326.958 116.741 326.415 116.156 325.667C115.585 324.926 115.299 324.043 115.299 323.016C115.299 321.784 115.718 321.219 116.556 321.322C117.407 321.417 118.316 321.744 119.281 322.301C119.865 322.638 120.354 322.95 120.748 323.236V322.51C120.748 321.865 120.64 321.252 120.424 320.673C120.208 320.094 119.725 319.588 118.976 319.155C118.366 318.803 117.852 318.631 117.433 318.638L117.109 320.057L115.756 319.1L116.099 316.944ZM120.748 324.93V324.358C120.519 324.197 120.278 324.035 120.024 323.874C119.783 323.705 119.535 323.548 119.281 323.401C118.697 323.064 118.176 322.873 117.719 322.829C117.261 322.785 117.033 323.108 117.033 323.797C117.033 324.325 117.172 324.787 117.452 325.183C117.744 325.586 118.074 325.894 118.443 326.107C118.989 326.422 119.497 326.496 119.967 326.327C120.437 326.158 120.697 325.693 120.748 324.93Z" fill="#818181"/>
</svg>
