<svg viewBox="0 0 296 332" fill="none" xmlns="http://www.w3.org/2000/svg">
<path d="M93.9816 193.36L120.463 193.469L127.631 224.121H85.1318" fill="#6D6E71"/>
<path d="M95.0459 259.058L0.424805 210.449V200.135L89.8039 240.62L95.0459 259.058Z" fill="#DCDCDD"/>
<path d="M87.8442 233.818H125.637" stroke="#922926" stroke-width="0.0881584" stroke-miterlimit="10"/>
<path d="M88.0342 234.49H125.637" stroke="#922926" stroke-width="0.0881584" stroke-miterlimit="10"/>
<path d="M88.2373 235.201H125.637" stroke="#922926" stroke-width="0.0881584" stroke-miterlimit="10"/>
<path d="M88.4209 235.852H125.502" stroke="#922926" stroke-width="0.0881584" stroke-miterlimit="10"/>
<path d="M88.583 236.422H125.501" stroke="#922926" stroke-width="0.0881584" stroke-miterlimit="10"/>
<path d="M294.895 110.375C295.634 119.747 291.348 129.465 282.044 134.836L127.624 224.113L114.116 270.098L285.163 172.093C291.701 168.316 294.976 157.404 294.976 150.793" fill="#A7A9AB"/>
<path d="M117.709 257.879L294.976 131.073" stroke="#BCBEC0" stroke-width="0.230568" stroke-miterlimit="10"/>
<path d="M114.122 270.105L294.976 140.723" stroke="#BCBEC0" stroke-width="0.230568" stroke-miterlimit="10"/>
<path d="M120.951 246.859L257.874 148.901" stroke="#BCBEC0" stroke-width="0.230568" stroke-miterlimit="10"/>
<path d="M124.233 235.683L193.628 186.036" stroke="#BCBEC0" stroke-width="0.230568" stroke-miterlimit="10"/>
<mask id="mask0_278_86179" style="mask-type:luminance" maskUnits="userSpaceOnUse" x="114" y="110" width="181" height="161">
<path d="M294.895 110.374C295.634 119.746 291.348 129.464 282.044 134.835L127.624 224.112L114.116 270.097L285.163 172.092C291.701 168.315 294.976 157.403 294.976 150.792" fill="white"/>
</mask>
<g mask="url(#mask0_278_86179)">
<path d="M128.988 149.708V268.498" stroke="#6D6E71" stroke-width="0.0881584" stroke-miterlimit="10"/>
<path d="M127.645 149.931V268.721" stroke="#6D6E71" stroke-width="0.0881584" stroke-miterlimit="10"/>
<path d="M126.336 149.931V268.721" stroke="#6D6E71" stroke-width="0.0881584" stroke-miterlimit="10"/>
<path d="M124.987 149.931V268.721" stroke="#6D6E71" stroke-width="0.0881584" stroke-miterlimit="10"/>
<path d="M123.657 149.931V268.721" stroke="#6D6E71" stroke-width="0.0881584" stroke-miterlimit="10"/>
<path d="M122.315 149.931V268.721" stroke="#6D6E71" stroke-width="0.0881584" stroke-miterlimit="10"/>
<path d="M121.006 149.931V268.721" stroke="#6D6E71" stroke-width="0.0881584" stroke-miterlimit="10"/>
<path d="M119.663 149.931V268.721" stroke="#6D6E71" stroke-width="0.0881584" stroke-miterlimit="10"/>
<path d="M118.334 149.931V268.721" stroke="#6D6E71" stroke-width="0.0881584" stroke-miterlimit="10"/>
<path d="M117.045 151.735V270.525" stroke="#6D6E71" stroke-width="0.0881584" stroke-miterlimit="10"/>
<path d="M142.191 149.219V268.002" stroke="#6D6E71" stroke-width="0.0881584" stroke-miterlimit="10"/>
<path d="M140.848 149.443V268.226" stroke="#6D6E71" stroke-width="0.0881584" stroke-miterlimit="10"/>
<path d="M139.54 149.443V268.226" stroke="#6D6E71" stroke-width="0.0881584" stroke-miterlimit="10"/>
<path d="M138.19 149.443V268.226" stroke="#6D6E71" stroke-width="0.0881584" stroke-miterlimit="10"/>
<path d="M136.861 149.443V268.226" stroke="#6D6E71" stroke-width="0.0881584" stroke-miterlimit="10"/>
<path d="M135.525 149.443V268.226" stroke="#6D6E71" stroke-width="0.0881584" stroke-miterlimit="10"/>
<path d="M134.209 149.443V268.226" stroke="#6D6E71" stroke-width="0.0881584" stroke-miterlimit="10"/>
<path d="M132.867 149.443V268.226" stroke="#6D6E71" stroke-width="0.0881584" stroke-miterlimit="10"/>
<path d="M131.538 149.443V268.226" stroke="#6D6E71" stroke-width="0.0881584" stroke-miterlimit="10"/>
<path d="M130.249 151.246V270.03" stroke="#6D6E71" stroke-width="0.0881584" stroke-miterlimit="10"/>
<path d="M115.737 151.735V270.525" stroke="#6D6E71" stroke-width="0.0881584" stroke-miterlimit="10"/>
<path d="M156.866 146.201V264.991" stroke="#6D6E71" stroke-width="0.0881584" stroke-miterlimit="10"/>
<path d="M155.523 146.432V265.215" stroke="#6D6E71" stroke-width="0.0881584" stroke-miterlimit="10"/>
<path d="M154.214 146.432V265.215" stroke="#6D6E71" stroke-width="0.0881584" stroke-miterlimit="10"/>
<path d="M152.865 146.432V265.215" stroke="#6D6E71" stroke-width="0.0881584" stroke-miterlimit="10"/>
<path d="M151.542 146.432V265.215" stroke="#6D6E71" stroke-width="0.0881584" stroke-miterlimit="10"/>
<path d="M150.2 146.432V265.215" stroke="#6D6E71" stroke-width="0.0881584" stroke-miterlimit="10"/>
<path d="M148.884 146.432V265.215" stroke="#6D6E71" stroke-width="0.0881584" stroke-miterlimit="10"/>
<path d="M147.542 146.432V265.215" stroke="#6D6E71" stroke-width="0.0881584" stroke-miterlimit="10"/>
<path d="M146.212 146.432V265.215" stroke="#6D6E71" stroke-width="0.0881584" stroke-miterlimit="10"/>
<path d="M144.924 148.229V267.019" stroke="#6D6E71" stroke-width="0.0881584" stroke-miterlimit="10"/>
<path d="M170.069 145.713V264.497" stroke="#6D6E71" stroke-width="0.0881584" stroke-miterlimit="10"/>
<path d="M168.727 145.937V264.727" stroke="#6D6E71" stroke-width="0.0881584" stroke-miterlimit="10"/>
<path d="M167.418 145.937V264.727" stroke="#6D6E71" stroke-width="0.0881584" stroke-miterlimit="10"/>
<path d="M166.075 145.937V264.727" stroke="#6D6E71" stroke-width="0.0881584" stroke-miterlimit="10"/>
<path d="M164.746 145.937V264.727" stroke="#6D6E71" stroke-width="0.0881584" stroke-miterlimit="10"/>
<path d="M163.403 145.937V264.727" stroke="#6D6E71" stroke-width="0.0881584" stroke-miterlimit="10"/>
<path d="M162.088 145.937V264.727" stroke="#6D6E71" stroke-width="0.0881584" stroke-miterlimit="10"/>
<path d="M160.745 145.937V264.727" stroke="#6D6E71" stroke-width="0.0881584" stroke-miterlimit="10"/>
<path d="M159.416 145.937V264.727" stroke="#6D6E71" stroke-width="0.0881584" stroke-miterlimit="10"/>
<path d="M158.127 147.74V266.53" stroke="#6D6E71" stroke-width="0.0881584" stroke-miterlimit="10"/>
<path d="M143.615 148.229V267.019" stroke="#6D6E71" stroke-width="0.0881584" stroke-miterlimit="10"/>
<path d="M183.361 140.39V259.18" stroke="#6D6E71" stroke-width="0.0881584" stroke-miterlimit="10"/>
<path d="M182.025 140.613V259.403" stroke="#6D6E71" stroke-width="0.0881584" stroke-miterlimit="10"/>
<path d="M180.709 140.613V259.403" stroke="#6D6E71" stroke-width="0.0881584" stroke-miterlimit="10"/>
<path d="M179.367 140.613V259.403" stroke="#6D6E71" stroke-width="0.0881584" stroke-miterlimit="10"/>
<path d="M178.038 140.613V259.403" stroke="#6D6E71" stroke-width="0.0881584" stroke-miterlimit="10"/>
<path d="M176.695 140.613V259.403" stroke="#6D6E71" stroke-width="0.0881584" stroke-miterlimit="10"/>
<path d="M175.386 140.613V259.403" stroke="#6D6E71" stroke-width="0.0881584" stroke-miterlimit="10"/>
<path d="M174.037 140.613V259.403" stroke="#6D6E71" stroke-width="0.0881584" stroke-miterlimit="10"/>
<path d="M172.708 140.613V259.403" stroke="#6D6E71" stroke-width="0.0881584" stroke-miterlimit="10"/>
<path d="M171.426 142.417V261.207" stroke="#6D6E71" stroke-width="0.0881584" stroke-miterlimit="10"/>
<path d="M196.564 139.895V258.685" stroke="#6D6E71" stroke-width="0.0881584" stroke-miterlimit="10"/>
<path d="M195.229 140.126V258.909" stroke="#6D6E71" stroke-width="0.0881584" stroke-miterlimit="10"/>
<path d="M193.913 140.126V258.909" stroke="#6D6E71" stroke-width="0.0881584" stroke-miterlimit="10"/>
<path d="M192.57 140.126V258.909" stroke="#6D6E71" stroke-width="0.0881584" stroke-miterlimit="10"/>
<path d="M191.241 140.126V258.909" stroke="#6D6E71" stroke-width="0.0881584" stroke-miterlimit="10"/>
<path d="M189.898 140.126V258.909" stroke="#6D6E71" stroke-width="0.0881584" stroke-miterlimit="10"/>
<path d="M188.589 140.126V258.909" stroke="#6D6E71" stroke-width="0.0881584" stroke-miterlimit="10"/>
<path d="M187.24 140.126V258.909" stroke="#6D6E71" stroke-width="0.0881584" stroke-miterlimit="10"/>
<path d="M185.911 140.126V258.909" stroke="#6D6E71" stroke-width="0.0881584" stroke-miterlimit="10"/>
<path d="M184.629 141.922V260.712" stroke="#6D6E71" stroke-width="0.0881584" stroke-miterlimit="10"/>
<path d="M211.239 136.883V255.673" stroke="#6D6E71" stroke-width="0.0881584" stroke-miterlimit="10"/>
<path d="M209.903 137.107V255.897" stroke="#6D6E71" stroke-width="0.0881584" stroke-miterlimit="10"/>
<path d="M208.588 137.107V255.897" stroke="#6D6E71" stroke-width="0.0881584" stroke-miterlimit="10"/>
<path d="M207.245 137.107V255.897" stroke="#6D6E71" stroke-width="0.0881584" stroke-miterlimit="10"/>
<path d="M205.916 137.107V255.897" stroke="#6D6E71" stroke-width="0.0881584" stroke-miterlimit="10"/>
<path d="M204.573 137.107V255.897" stroke="#6D6E71" stroke-width="0.0881584" stroke-miterlimit="10"/>
<path d="M203.265 137.107V255.897" stroke="#6D6E71" stroke-width="0.0881584" stroke-miterlimit="10"/>
<path d="M201.915 137.107V255.897" stroke="#6D6E71" stroke-width="0.0881584" stroke-miterlimit="10"/>
<path d="M200.586 137.107V255.897" stroke="#6D6E71" stroke-width="0.0881584" stroke-miterlimit="10"/>
<path d="M199.304 138.912V257.702" stroke="#6D6E71" stroke-width="0.0881584" stroke-miterlimit="10"/>
<path d="M224.45 136.389V255.179" stroke="#6D6E71" stroke-width="0.0881584" stroke-miterlimit="10"/>
<path d="M223.107 136.619V255.403" stroke="#6D6E71" stroke-width="0.0881584" stroke-miterlimit="10"/>
<path d="M221.798 136.619V255.403" stroke="#6D6E71" stroke-width="0.0881584" stroke-miterlimit="10"/>
<path d="M220.449 136.619V255.403" stroke="#6D6E71" stroke-width="0.0881584" stroke-miterlimit="10"/>
<path d="M219.119 136.619V255.403" stroke="#6D6E71" stroke-width="0.0881584" stroke-miterlimit="10"/>
<path d="M217.777 136.619V255.403" stroke="#6D6E71" stroke-width="0.0881584" stroke-miterlimit="10"/>
<path d="M216.468 136.619V255.403" stroke="#6D6E71" stroke-width="0.0881584" stroke-miterlimit="10"/>
<path d="M215.119 136.619V255.403" stroke="#6D6E71" stroke-width="0.0881584" stroke-miterlimit="10"/>
<path d="M213.796 136.619V255.403" stroke="#6D6E71" stroke-width="0.0881584" stroke-miterlimit="10"/>
<path d="M212.507 138.423V257.206" stroke="#6D6E71" stroke-width="0.0881584" stroke-miterlimit="10"/>
<path d="M197.989 138.912V257.702" stroke="#6D6E71" stroke-width="0.0881584" stroke-miterlimit="10"/>
<path d="M230.031 129.702V248.492" stroke="#6D6E71" stroke-width="0.0881584" stroke-miterlimit="10"/>
<path d="M228.695 129.932V248.716" stroke="#6D6E71" stroke-width="0.0881584" stroke-miterlimit="10"/>
<path d="M227.379 129.932V248.716" stroke="#6D6E71" stroke-width="0.0881584" stroke-miterlimit="10"/>
<path d="M226.037 129.932V248.716" stroke="#6D6E71" stroke-width="0.0881584" stroke-miterlimit="10"/>
<path d="M243.241 129.214V248.004" stroke="#6D6E71" stroke-width="0.0881584" stroke-miterlimit="10"/>
<path d="M241.898 129.438V248.228" stroke="#6D6E71" stroke-width="0.0881584" stroke-miterlimit="10"/>
<path d="M240.589 129.438V248.228" stroke="#6D6E71" stroke-width="0.0881584" stroke-miterlimit="10"/>
<path d="M239.24 129.438V248.228" stroke="#6D6E71" stroke-width="0.0881584" stroke-miterlimit="10"/>
<path d="M237.911 129.438V248.228" stroke="#6D6E71" stroke-width="0.0881584" stroke-miterlimit="10"/>
<path d="M236.568 129.438V248.228" stroke="#6D6E71" stroke-width="0.0881584" stroke-miterlimit="10"/>
<path d="M235.259 129.438V248.228" stroke="#6D6E71" stroke-width="0.0881584" stroke-miterlimit="10"/>
<path d="M233.91 129.438V248.228" stroke="#6D6E71" stroke-width="0.0881584" stroke-miterlimit="10"/>
<path d="M232.587 129.438V248.228" stroke="#6D6E71" stroke-width="0.0881584" stroke-miterlimit="10"/>
<path d="M231.299 131.241V250.032" stroke="#6D6E71" stroke-width="0.0881584" stroke-miterlimit="10"/>
<path d="M256.533 123.89V242.68" stroke="#6D6E71" stroke-width="0.0881584" stroke-miterlimit="10"/>
<path d="M255.19 124.114V242.904" stroke="#6D6E71" stroke-width="0.0881584" stroke-miterlimit="10"/>
<path d="M253.881 124.114V242.904" stroke="#6D6E71" stroke-width="0.0881584" stroke-miterlimit="10"/>
<path d="M252.531 124.114V242.904" stroke="#6D6E71" stroke-width="0.0881584" stroke-miterlimit="10"/>
<path d="M251.202 124.114V242.904" stroke="#6D6E71" stroke-width="0.0881584" stroke-miterlimit="10"/>
<path d="M249.859 124.114V242.904" stroke="#6D6E71" stroke-width="0.0881584" stroke-miterlimit="10"/>
<path d="M248.551 124.114V242.904" stroke="#6D6E71" stroke-width="0.0881584" stroke-miterlimit="10"/>
<path d="M247.208 124.114V242.904" stroke="#6D6E71" stroke-width="0.0881584" stroke-miterlimit="10"/>
<path d="M245.879 124.114V242.904" stroke="#6D6E71" stroke-width="0.0881584" stroke-miterlimit="10"/>
<path d="M244.59 125.918V244.708" stroke="#6D6E71" stroke-width="0.0881584" stroke-miterlimit="10"/>
<path d="M269.736 123.396V242.186" stroke="#6D6E71" stroke-width="0.0881584" stroke-miterlimit="10"/>
<path d="M268.393 123.626V242.409" stroke="#6D6E71" stroke-width="0.0881584" stroke-miterlimit="10"/>
<path d="M267.084 123.626V242.409" stroke="#6D6E71" stroke-width="0.0881584" stroke-miterlimit="10"/>
<path d="M265.735 123.626V242.409" stroke="#6D6E71" stroke-width="0.0881584" stroke-miterlimit="10"/>
<path d="M264.406 123.626V242.409" stroke="#6D6E71" stroke-width="0.0881584" stroke-miterlimit="10"/>
<path d="M263.07 123.626V242.409" stroke="#6D6E71" stroke-width="0.0881584" stroke-miterlimit="10"/>
<path d="M261.754 123.626V242.409" stroke="#6D6E71" stroke-width="0.0881584" stroke-miterlimit="10"/>
<path d="M260.412 123.626V242.409" stroke="#6D6E71" stroke-width="0.0881584" stroke-miterlimit="10"/>
<path d="M259.083 123.626V242.409" stroke="#6D6E71" stroke-width="0.0881584" stroke-miterlimit="10"/>
<path d="M257.794 125.43V244.213" stroke="#6D6E71" stroke-width="0.0881584" stroke-miterlimit="10"/>
<path d="M284.411 120.384V239.174" stroke="#6D6E71" stroke-width="0.0881584" stroke-miterlimit="10"/>
<path d="M283.068 120.615V239.398" stroke="#6D6E71" stroke-width="0.0881584" stroke-miterlimit="10"/>
<path d="M281.759 120.615V239.398" stroke="#6D6E71" stroke-width="0.0881584" stroke-miterlimit="10"/>
<path d="M280.41 120.615V239.398" stroke="#6D6E71" stroke-width="0.0881584" stroke-miterlimit="10"/>
<path d="M279.087 120.615V239.398" stroke="#6D6E71" stroke-width="0.0881584" stroke-miterlimit="10"/>
<path d="M277.745 120.615V239.398" stroke="#6D6E71" stroke-width="0.0881584" stroke-miterlimit="10"/>
<path d="M276.429 120.615V239.398" stroke="#6D6E71" stroke-width="0.0881584" stroke-miterlimit="10"/>
<path d="M275.086 120.615V239.398" stroke="#6D6E71" stroke-width="0.0881584" stroke-miterlimit="10"/>
<path d="M273.757 120.615V239.398" stroke="#6D6E71" stroke-width="0.0881584" stroke-miterlimit="10"/>
<path d="M272.469 122.412V241.202" stroke="#6D6E71" stroke-width="0.0881584" stroke-miterlimit="10"/>
<path d="M294.963 120.12V238.91" stroke="#6D6E71" stroke-width="0.0881584" stroke-miterlimit="10"/>
<path d="M293.62 120.12V238.91" stroke="#6D6E71" stroke-width="0.0881584" stroke-miterlimit="10"/>
<path d="M292.291 120.12V238.91" stroke="#6D6E71" stroke-width="0.0881584" stroke-miterlimit="10"/>
<path d="M290.948 120.12V238.91" stroke="#6D6E71" stroke-width="0.0881584" stroke-miterlimit="10"/>
<path d="M289.633 120.12V238.91" stroke="#6D6E71" stroke-width="0.0881584" stroke-miterlimit="10"/>
<path d="M288.29 120.12V238.91" stroke="#6D6E71" stroke-width="0.0881584" stroke-miterlimit="10"/>
<path d="M286.96 120.12V238.91" stroke="#6D6E71" stroke-width="0.0881584" stroke-miterlimit="10"/>
<path d="M285.672 121.924V240.708" stroke="#6D6E71" stroke-width="0.0881584" stroke-miterlimit="10"/>
<path d="M271.16 122.412V241.202" stroke="#6D6E71" stroke-width="0.0881584" stroke-miterlimit="10"/>
<path d="M114.387 151.735V270.525" stroke="#6D6E71" stroke-width="0.0881584" stroke-miterlimit="10"/>
</g>
<path d="M183.903 230.122L294.976 150.8" stroke="#BCBEC0" stroke-width="0.230568" stroke-miterlimit="10"/>
<path d="M244.095 195.632L293.274 160.45" stroke="#949598" stroke-width="0.230568" stroke-miterlimit="10"/>
<path d="M231.122 95.4434L273.133 85.8273L213.944 51.9406L0.424805 187.46L58.216 177.356L209.218 89.4282L231.122 101.859V95.4434Z" fill="#6D6E71"/>
<path d="M203.128 57.8464L260.268 82.2595L171.615 88.4781L163.314 84.2058" fill="#414042"/>
<path d="M272.055 86.0776L209.849 50.4616L210.547 50.0005L273.133 85.8267" fill="#DE565E"/>
<path d="M272.122 86.0777L209.849 50.4617V54.734L266.785 87.2984" fill="#B7332F"/>
<path d="M267.043 87.2985L206.451 52.598L207.15 52.1368L268.128 87.0543" fill="#DE565E"/>
<path d="M267.043 87.2986L206.451 52.5981V56.8704L261.706 88.5192" fill="#B7332F"/>
<path d="M251.127 82.5037L202.823 54.8491L203.521 54.3812L252.205 82.2596" fill="#DE565E"/>
<path d="M251.127 82.5039L202.823 54.8493V59.1216L251.127 86.783" fill="#B7332F"/>
<path d="M252.206 86.4097L251.127 86.7827V82.5036L252.206 82.2595V86.4097Z" fill="#DB3832"/>
<path d="M246.74 84.2397L199.351 57.0937L200.05 56.6393L247.818 83.9956" fill="#DE565E"/>
<path d="M246.74 84.2397L199.351 57.0938V61.366L246.74 88.5188" fill="#B7332F"/>
<path d="M247.818 88.1466L246.74 88.5196V84.2405L247.818 83.9964V88.1466Z" fill="#DB3832"/>
<path d="M241.721 85.4406L195.96 59.2575L196.659 58.8032L242.8 85.1965" fill="#DE565E"/>
<path d="M241.721 85.4405L195.96 59.2575V63.5298L241.721 89.7196" fill="#B7332F"/>
<path d="M242.799 89.3468L241.721 89.7198V85.4407L242.799 85.1966V89.3468Z" fill="#DB3832"/>
<path d="M231.325 84.2061L192.041 61.7256L192.739 61.2713L232.404 83.9551" fill="#DE565E"/>
<path d="M231.325 84.2061L192.041 61.7256V65.998L231.325 88.4783" fill="#B7332F"/>
<path d="M232.403 88.1055L231.325 88.4785V84.2062L232.403 83.9553V88.1055Z" fill="#DB3832"/>
<path d="M221.709 83.0194L188.419 63.9975L189.118 63.5432L222.794 82.7752" fill="#DE565E"/>
<path d="M221.709 83.0194L188.419 63.9975V68.2698L221.709 87.2984" fill="#B7332F"/>
<path d="M222.794 86.925L221.709 87.298V83.0189L222.794 82.7748V86.925Z" fill="#DB3832"/>
<path d="M259.529 77.3301L171.229 82.9858L171.615 83.8063L260.791 78.0964" fill="#DE565E"/>
<path d="M171.615 83.8062V88.4786L171.229 87.6648V82.9857" fill="#B7332F"/>
<path d="M217.946 85.1486L217.898 80.8424L171.615 83.8059V88.4783L217.946 85.1486Z" fill="#DB3832"/>
<path d="M224.971 84.8845L224.917 80.4224L218.841 80.8089L222.794 82.7755V85.0337L224.971 84.8845Z" fill="#DB3832"/>
<path d="M232.112 83.8064L232.064 79.9071L225.988 80.3004L232.112 83.8064Z" fill="#DB3832"/>
<path d="M238.52 82.7893L238.48 79.5342L233.468 79.8597L238.52 82.7893Z" fill="#DB3832"/>
<path d="M245.2 82.497L245.16 79.0995L239.87 79.4386L245.2 82.497Z" fill="#DB3832"/>
<path d="M251.94 82.1173L251.893 78.7266L246.604 79.0657L251.94 82.1173Z" fill="#DB3832"/>
<path d="M242.277 76.5295L242.237 73.132L236.94 73.471L242.277 76.5295Z" fill="#DB3832"/>
<path d="M258.465 81.5213L258.424 78.2594L253.338 78.5849L258.465 81.5213Z" fill="#DB3832"/>
<path d="M260.79 78.7611V78.0965L259.739 78.1643L260.79 78.7611Z" fill="#DB3832"/>
<path d="M249.872 71.7551L176.728 76.5089L177.115 77.3294L251.127 72.5214" fill="#DE565E"/>
<path d="M177.115 77.3302V82.0094L176.728 81.1889V76.5097" fill="#B7332F"/>
<path d="M208.031 79.4592L208.146 75.2683L177.115 77.3298V82.009L208.031 79.4592Z" fill="#DB3832"/>
<path d="M214.982 78.3134L214.942 74.8277L209.496 75.1871L214.982 78.3134Z" fill="#DB3832"/>
<path d="M222.449 78.2255L222.401 74.333L216.332 74.7196L222.449 78.2255Z" fill="#DB3832"/>
<path d="M228.857 77.2143L228.816 73.9592L223.805 74.2779L228.857 77.2143Z" fill="#DB3832"/>
<path d="M235.544 76.9229L235.503 73.5255L230.207 73.8645L235.544 76.9229Z" fill="#DB3832"/>
<path d="M248.713 75.9737L248.672 72.7119L243.586 73.0374L248.713 75.9737Z" fill="#DB3832"/>
<path d="M251.127 73.2268V72.5215L250.008 72.5893L251.127 73.2268Z" fill="#DB3832"/>
<path d="M238.656 72.4816L238.588 71.0033L233.163 71.3559L235.543 72.6851L238.656 72.4816Z" fill="#DB3832"/>
<path d="M246.272 69.6531L173.127 74.4136L173.514 75.2274L247.533 70.4194" fill="#DE565E"/>
<path d="M173.514 75.2274V79.9065L173.127 79.0928V74.4136" fill="#B7332F"/>
<path d="M176.728 76.5096L204.505 74.7057L204.552 73.1731L173.514 75.2279V79.907L176.728 79.5748V76.5096Z" fill="#DB3832"/>
<path d="M211.361 74.2582L211.341 72.7324L205.902 73.085L208.275 74.4888L211.361 74.2582Z" fill="#DB3832"/>
<path d="M215.056 74.0202L218.813 73.7761L218.8 72.291L212.724 72.6843L215.056 74.0202Z" fill="#DB3832"/>
<path d="M222.448 73.5525L225.242 73.3559L225.222 71.8572L220.088 72.203L222.448 73.5525Z" fill="#DB3832"/>
<path d="M228.83 73.1256L231.922 72.8815L231.902 71.4302L226.477 71.7761L228.83 73.1256Z" fill="#DB3832"/>
<path d="M242.27 72.2437L245.091 72.0674L245.01 70.5755L239.951 70.9146L242.27 72.2437Z" fill="#DB3832"/>
<path d="M247.472 71.0977V70.4332L246.421 70.501L247.472 71.0977Z" fill="#DB3832"/>
<path d="M234.906 70.3864L234.838 68.9081L229.413 69.2607L231.786 70.5899L234.906 70.3864Z" fill="#DB3832"/>
<path d="M242.461 67.5715L185.381 71.2064L185.768 72.0269L243.715 68.3378" fill="#DE565E"/>
<path d="M185.768 72.027V73.5868L185.381 73.6139V71.2065" fill="#B7332F"/>
<path d="M200.755 72.6096L200.795 71.077L185.768 72.0264V73.5862L200.755 72.6096Z" fill="#DB3832"/>
<path d="M207.611 72.1622L207.591 70.6364L202.152 70.989L204.525 72.3928L207.611 72.1622Z" fill="#DB3832"/>
<path d="M211.307 71.925L215.064 71.6741L215.05 70.1957L208.974 70.589L211.307 71.925Z" fill="#DB3832"/>
<path d="M218.698 71.4573L221.492 71.2606L221.472 69.7619L216.338 70.1078L218.698 71.4573Z" fill="#DB3832"/>
<path d="M225.08 71.0236L228.172 70.7863L228.152 69.335L222.727 69.6809L225.08 71.0236Z" fill="#DB3832"/>
<path d="M238.52 70.1409L241.341 69.9646L241.26 68.4794L236.201 68.8185L238.52 70.1409Z" fill="#DB3832"/>
<path d="M243.715 69.0017V68.3371L242.671 68.4049L243.715 69.0017Z" fill="#DB3832"/>
<path d="M231.529 124.114L282.193 130.672V134.836L231.529 128.278V124.114Z" fill="#D1D3D4"/>
<path d="M295.043 110.375C295.782 119.747 291.496 129.465 282.192 134.836V130.672C289.733 126.318 293.978 118.71 294.921 110.687" fill="#E6E7E8"/>
<path d="M231.122 95.4429C241.335 101.234 241.45 118.167 231.319 124.115L281.983 130.672C299.221 120.717 299.221 93.7544 281.983 83.7993L231.115 95.4429H231.122Z" fill="#BCBEC0"/>
<path d="M231.122 101.858V95.443C236.194 98.3183 238.771 103.94 238.846 109.603C237.673 106.693 235.408 104.394 232.064 102.496L231.074 101.933" fill="#58595B"/>
<path d="M236.201 119.673L290.683 122.609" stroke="#D1D3D4" stroke-width="0.447574" stroke-miterlimit="10"/>
<path d="M294.535 113.082L238.521 114.309" stroke="#D1D3D4" stroke-width="0.447574" stroke-miterlimit="10"/>
<path d="M237.076 101.505L288.045 88.4783" stroke="#D1D3D4" stroke-width="0.447574" stroke-miterlimit="10"/>
<path d="M238.907 107.5L294.121 99.6472" stroke="#D1D3D4" stroke-width="0.447574" stroke-miterlimit="10"/>
<path d="M241.491 93.1171L290.683 122.609" stroke="#D1D3D4" stroke-width="0.447574" stroke-miterlimit="10"/>
<path d="M231.325 95.443L282.193 130.672" stroke="#D1D3D4" stroke-width="0.447574" stroke-miterlimit="10"/>
<path d="M294.535 113.081L253.338 90.4038" stroke="#D1D3D4" stroke-width="0.447574" stroke-miterlimit="10"/>
<path d="M294.122 99.6477L266.786 87.2987" stroke="#D1D3D4" stroke-width="0.447574" stroke-miterlimit="10"/>
<path d="M288.045 88.4788L278.443 84.6608" stroke="#D1D3D4" stroke-width="0.447574" stroke-miterlimit="10"/>
<path d="M256.857 127.397L239.056 109.603" stroke="#D1D3D4" stroke-width="0.447574" stroke-miterlimit="10"/>
<path d="M239.605 125.159L237.286 117.761" stroke="#D1D3D4" stroke-width="0.447574" stroke-miterlimit="10"/>
<path d="M153.116 227.016L142.516 242.518L141.865 242.125L152.465 226.622L153.116 227.016Z" fill="#221F20"/>
<path d="M171.425 198.799L167.919 219.855L167.167 219.794L170.571 199.294" fill="#221F20"/>
<path d="M237.632 173.334L224.456 186.707L223.886 186.205L237.069 172.832L237.632 173.334Z" fill="#221F20"/>
<path d="M250.815 159.955L242.128 168.804L241.559 168.302L250.246 159.453L250.815 159.955Z" fill="#221F20"/>
<path d="M213.897 204.868L205.217 213.711L204.647 213.209L213.334 204.366L213.897 204.868Z" fill="#221F20"/>
<path d="M294.976 150.61L286.289 159.453L285.719 158.951L294.406 150.108L294.976 150.61Z" fill="#221F20"/>
<path d="M236.282 200.108L207.143 194.398L207.224 193.638L237.354 199.545" fill="#221F20"/>
<path d="M279.778 175.321L258.573 171.123L258.674 170.37L280.592 174.71" fill="#221F20"/>
<path d="M187.144 189.705L201.114 192.445L201.026 193.204L186.147 190.281" fill="#221F20"/>
<path d="M124.946 233.262H87.7427L85.1318 224.121H127.631L124.946 233.262Z" fill="#E0DDDB"/>
<path d="M121.656 244.254H90.8619L88.7461 236.991H123.792L121.656 244.254Z" fill="#E0DDDB"/>
<path d="M118.401 255.336H93.9815L91.981 248.31H120.463L118.401 255.336Z" fill="#E0DDDB"/>
<path d="M114.068 270.105H98.1993L95.0459 259.058H117.309L114.068 270.105Z" fill="#E0DDDB"/>
<path d="M87.8102 233.255L0.553711 191.923V187.454L85.1993 224.114L87.8102 233.255Z" fill="#C3BFBC"/>
<path d="M90.8618 244.254L0.424805 200.134V194.75L88.746 236.991L90.8618 244.254Z" fill="#C3BFBC"/>
<path d="M93.9812 255.335L0.424805 207.695V202.969L91.9807 248.309L93.9812 255.335Z" fill="#C3BFBC"/>
<path d="M98.1993 270.106L3.49679 218.452L0.424805 210.45L95.0459 259.059L98.1993 270.106Z" fill="#C3BFBC"/>
<path d="M85.1315 224.121L0.424805 187.461L58.216 177.356L93.9812 193.361" fill="#58595B"/>
<path d="M0.424805 192.445L87.844 233.818" stroke="#922926" stroke-width="0.0881584" stroke-miterlimit="10"/>
<path d="M0.424805 192.967L88.0339 234.489" stroke="#922926" stroke-width="0.0881584" stroke-miterlimit="10"/>
<path d="M0.424805 194.431L88.5832 236.422" stroke="#922926" stroke-width="0.0881584" stroke-miterlimit="10"/>
<path d="M0.424805 193.971L88.4205 235.853" stroke="#922926" stroke-width="0.0881584" stroke-miterlimit="10"/>
<path d="M0.424805 193.509L88.2374 235.201" stroke="#922926" stroke-width="0.0881584" stroke-miterlimit="10"/>
<path d="M282.05 134.837L127.631 224.121L120.463 193.469L231.529 128.279L282.05 134.837Z" fill="#E6E7E8"/>
<path d="M209.218 128.299L97.4807 193.36H93.9815L58.2163 177.356L209.218 89.4282V128.299Z" fill="#A7A9AB"/>
<path d="M238.717 112.105C239.599 105.256 235.591 104.388 231.122 101.852L209.211 89.4214V128.292L220.441 134.667L231.319 128.279V124.115C235.673 121.559 238.134 116.968 238.711 112.105H238.717Z" fill="#58595B"/>
<path d="M231.529 128.279L220.448 170.371" stroke="white" stroke-width="0.901928" stroke-miterlimit="10"/>
<path d="M251.67 130.896L216.047 137.366" stroke="white" stroke-width="0.901928" stroke-miterlimit="10"/>
<path d="M248.55 154.204L231.529 128.279" stroke="white" stroke-width="0.901928" stroke-miterlimit="10"/>
<path d="M223.587 158.456L201.914 145.66" stroke="white" stroke-width="0.901928" stroke-miterlimit="10"/>
<path d="M227.378 144.032L265.734 144.269" stroke="white" stroke-width="0.901928" stroke-miterlimit="10"/>
<path d="M271.16 133.426L246.19 150.603" stroke="white" stroke-width="0.901928" stroke-miterlimit="10"/>
<path d="M207.142 178.149L205.915 148.019" stroke="white" stroke-width="0.901928" stroke-miterlimit="10"/>
<path d="M179.366 159.453L200.585 181.933" stroke="white" stroke-width="0.901928" stroke-miterlimit="10"/>
<path d="M220.448 170.371L213.795 152.672" stroke="white" stroke-width="0.901928" stroke-miterlimit="10"/>
<path d="M205.915 161.521L193.627 174.569" stroke="white" stroke-width="0.901928" stroke-miterlimit="10"/>
<path d="M164.745 168.045L186.147 166.641" stroke="white" stroke-width="0.901928" stroke-miterlimit="10"/>
<path d="M237.354 160.681L225.988 150.963" stroke="white" stroke-width="0.901928" stroke-miterlimit="10"/>
<path d="M211.239 151.166L216.047 137.365" stroke="white" stroke-width="0.901928" stroke-miterlimit="10"/>
<path d="M251.669 130.896L265.734 137.156" stroke="white" stroke-width="0.901928" stroke-miterlimit="10"/>
<path d="M164.745 168.044L147.541 212.605" stroke="white" stroke-width="0.901928" stroke-miterlimit="10"/>
<path d="M159.809 180.828L182.025 192.669" stroke="white" stroke-width="0.901928" stroke-miterlimit="10"/>
<path d="M176.694 167.346L166.074 184.17" stroke="white" stroke-width="0.901928" stroke-miterlimit="10"/>
<path d="M170.069 177.837L197.988 179.187" stroke="white" stroke-width="0.901928" stroke-miterlimit="10"/>
<path d="M182.024 192.668L185.91 178.604" stroke="white" stroke-width="0.901928" stroke-miterlimit="10"/>
<path d="M155.035 193.204L126.295 190.044" stroke="white" stroke-width="0.901928" stroke-miterlimit="10"/>
<path d="M147.541 212.605L140.848 191.644" stroke="white" stroke-width="0.901928" stroke-miterlimit="10"/>
<path d="M152.864 198.806L171.425 198.799" stroke="white" stroke-width="0.901928" stroke-miterlimit="10"/>
<path d="M206.234 155.824L189.898 152.712" stroke="white" stroke-width="0.901928" stroke-miterlimit="10"/>
<path d="M144.198 202.128L127.631 224.12" stroke="white" stroke-width="0.901928" stroke-miterlimit="10"/>
<path d="M147.873 192.417L145.947 178.509" stroke="white" stroke-width="0.901928" stroke-miterlimit="10"/>
<path d="M136.779 191.197L145.947 178.509" stroke="white" stroke-width="0.901928" stroke-miterlimit="10"/>
<path d="M139.762 208.014L122.911 203.938" stroke="white" stroke-width="0.901928" stroke-miterlimit="10"/>
<path d="M277.744 137.325L271.16 133.426" stroke="white" stroke-width="0.901928" stroke-miterlimit="10"/>
<path d="M148.708 277.491C148.708 279.618 148.156 281.667 147.05 283.64C145.945 285.598 144.415 287.142 142.459 288.271L136.781 291.549V289.833L138.286 288.964V278.096L136.781 278.965V277.249L142.364 274.026C144.409 272.845 145.977 272.607 147.07 273.311C148.162 274.015 148.708 275.408 148.708 277.491ZM146.86 278.58C146.86 276.893 146.473 275.79 145.698 275.269C144.923 274.748 143.799 274.913 142.325 275.764L140.02 277.095V287.963L142.325 286.632C143.799 285.781 144.923 284.663 145.698 283.277C146.473 281.876 146.86 280.311 146.86 278.58ZM150.882 274.322C151.403 273.669 151.911 273.134 152.407 272.716C152.915 272.276 153.467 271.883 154.064 271.539C155.03 270.981 155.792 270.813 156.351 271.033C156.922 271.245 157.208 271.916 157.208 273.046V277.6C157.208 278.245 157.43 278.439 157.875 278.183C158.053 278.08 158.224 277.944 158.389 277.776L158.408 278.909C158.053 279.363 157.64 279.726 157.17 279.998C156.141 280.592 155.595 280.247 155.531 278.964V278.942C155.277 279.602 154.909 280.276 154.426 280.966C153.956 281.648 153.378 282.187 152.692 282.583C152.108 282.92 151.524 283.052 150.94 282.979C150.368 282.898 150.082 282.344 150.082 281.318C150.082 280.086 150.501 279.037 151.34 278.172C152.191 277.284 153.099 276.562 154.064 276.005C154.648 275.667 155.138 275.414 155.531 275.246V274.52C155.531 273.874 155.423 273.387 155.207 273.057C154.991 272.727 154.509 272.778 153.759 273.211C153.15 273.563 152.635 273.984 152.216 274.476L151.892 276.269L150.539 276.874L150.882 274.322ZM155.531 276.94V276.368C155.303 276.47 155.061 276.588 154.807 276.72C154.566 276.83 154.318 276.958 154.064 277.105C153.48 277.442 152.959 277.853 152.502 278.337C152.045 278.821 151.816 279.407 151.816 280.097C151.816 280.625 151.956 280.925 152.235 280.999C152.527 281.065 152.858 280.991 153.226 280.779C153.772 280.463 154.28 279.95 154.75 279.239C155.22 278.527 155.48 277.761 155.531 276.94ZM169.577 272.614L165.157 275.166V273.67L166.529 272.878V268.632C166.529 267.635 166.364 267.026 166.034 266.806C165.703 266.571 165.265 266.612 164.719 266.927C164.008 267.338 163.443 267.935 163.023 268.72C162.604 269.505 162.382 270.264 162.357 270.997V275.287L163.728 274.495V275.991L159.308 278.543V277.047L160.68 276.255V269.435L159.251 270.26V268.742L162.357 266.949V268.621C162.954 267.03 163.919 265.849 165.253 265.079C166.078 264.602 166.777 264.492 167.348 264.749C167.92 265.006 168.206 265.757 168.206 267.004V271.91L169.577 271.118V272.614ZM171.675 259.259V256.993L173.409 255.992V258.258L171.675 259.259ZM174.838 269.577L170.399 272.14V270.644L171.789 269.841V263.021L170.341 263.857V262.339L173.466 260.535V268.873L174.838 268.081V269.577ZM183.662 261.578C183.573 262.48 183.211 263.423 182.576 264.405C181.941 265.388 181.077 266.195 179.985 266.825C178.753 267.537 177.755 267.687 176.993 267.276C176.231 266.866 175.85 265.854 175.85 264.24C175.85 262.715 176.206 261.248 176.917 259.84C177.628 258.432 178.613 257.365 179.87 256.639C181.039 255.965 181.947 255.858 182.595 256.32C183.243 256.782 183.573 257.604 183.586 258.784C183.586 259.18 183.547 259.62 183.471 260.104L177.603 263.492C177.679 265.531 178.511 266.092 180.099 265.175C180.759 264.794 181.255 264.325 181.585 263.767C181.928 263.203 182.157 262.631 182.271 262.051L183.662 261.578ZM181.852 259.741C181.903 259.067 181.763 258.531 181.433 258.135C181.115 257.717 180.582 257.725 179.832 258.157C179.134 258.561 178.606 259.136 178.251 259.884C177.908 260.61 177.698 261.377 177.622 262.183L181.852 259.741ZM189.047 261.374L184.626 263.926V262.43L185.998 261.638V249.516L184.569 250.341V248.823L187.675 247.03V260.67L189.047 259.878V261.374ZM203.38 253.098L194.33 258.323V256.585L195.835 255.716V244.892L194.33 245.761V244.023L199.531 241.02V242.758L197.568 243.891V254.715L201.874 252.229L202.255 248.885L203.761 248.17L203.38 253.098ZM205.892 239.504V237.238L207.625 236.237V238.503L205.892 239.504ZM209.054 249.822L204.615 252.385V250.889L206.006 250.086V243.266L204.558 244.102V242.584L207.683 240.78V249.118L209.054 248.326V249.822ZM219.079 238.887C219.079 240.221 218.774 241.629 218.164 243.111C217.554 244.577 216.583 245.696 215.249 246.466C213.864 247.265 212.893 247.225 212.334 246.345C212.321 246.469 212.289 246.752 212.239 247.192C212.201 247.624 212.175 247.903 212.162 248.028L210.486 248.996C210.549 248.504 210.613 247.991 210.676 247.456C210.74 246.92 210.772 246.411 210.772 245.927V235.213L209.4 236.005V234.487L212.448 232.727V240.009C212.702 239.275 213.058 238.564 213.515 237.875C213.985 237.163 214.627 236.573 215.439 236.104C216.494 235.495 217.364 235.418 218.05 235.873C218.736 236.327 219.079 237.332 219.079 238.887ZM217.326 240.053C217.326 238.923 217.097 238.197 216.64 237.875C216.195 237.545 215.636 237.574 214.963 237.963C214.188 238.41 213.579 239.092 213.134 240.009C212.69 240.925 212.461 241.747 212.448 242.473V243.573C212.448 244.394 212.677 244.959 213.134 245.267C213.591 245.56 214.169 245.505 214.868 245.102C215.694 244.625 216.31 243.917 216.716 242.979C217.122 242.04 217.326 241.065 217.326 240.053ZM228.149 235.894C228.06 236.796 227.698 237.738 227.063 238.721C226.428 239.704 225.564 240.51 224.472 241.141C223.24 241.852 222.242 242.003 221.48 241.592C220.718 241.181 220.337 240.169 220.337 238.556C220.337 237.031 220.693 235.564 221.404 234.156C222.115 232.748 223.1 231.681 224.357 230.955C225.526 230.28 226.434 230.174 227.082 230.636C227.73 231.098 228.06 231.919 228.073 233.1C228.073 233.496 228.034 233.936 227.958 234.42L222.09 237.808C222.166 239.847 222.998 240.408 224.586 239.491C225.246 239.11 225.742 238.64 226.072 238.083C226.415 237.518 226.644 236.946 226.758 236.367L228.149 235.894ZM226.339 234.057C226.39 233.382 226.25 232.847 225.92 232.451C225.602 232.033 225.069 232.04 224.319 232.473C223.621 232.876 223.093 233.452 222.738 234.2C222.395 234.926 222.185 235.692 222.109 236.499L226.339 234.057ZM236.525 231.08C236.525 232.063 236.169 233.031 235.458 233.984C234.759 234.93 233.87 235.715 232.791 236.338C231.482 237.093 230.371 237.412 229.456 237.295L229.723 234.765L231.038 234.16L231 235.458C231.254 235.458 231.527 235.403 231.819 235.293C232.124 235.176 232.422 235.033 232.714 234.864C233.261 234.549 233.75 234.149 234.181 233.665C234.626 233.174 234.848 232.679 234.848 232.18C234.848 231.696 234.67 231.461 234.315 231.476C233.959 231.476 233.515 231.579 232.981 231.784C232.46 231.982 231.94 232.158 231.419 232.312C230.898 232.451 230.46 232.44 230.104 232.279C229.749 232.103 229.571 231.634 229.571 230.871C229.571 229.771 229.92 228.807 230.619 227.978C231.33 227.142 232.086 226.493 232.886 226.031C233.47 225.694 234.016 225.466 234.524 225.349C235.045 225.21 235.515 225.151 235.934 225.173L236.125 227.439L234.791 228.385L234.601 226.955C234.08 226.977 233.534 227.153 232.962 227.483C232.492 227.754 232.105 228.081 231.8 228.462C231.495 228.843 231.343 229.269 231.343 229.738C231.343 230.193 231.514 230.416 231.857 230.409C232.213 230.394 232.645 230.292 233.153 230.101C233.673 229.888 234.188 229.716 234.696 229.584C235.217 229.445 235.648 229.467 235.991 229.65C236.347 229.826 236.525 230.303 236.525 231.08ZM247.067 227.875L242.933 230.262V228.766L244.076 228.106L241.999 226.357L240.551 227.193V230.141L241.656 229.503V230.999L237.522 233.386V231.89L238.894 231.098V218.976L237.465 219.801V218.283L240.551 216.501V225.785L242.057 224.916L243.809 221.44L242.571 222.155V220.637L246.629 218.294V219.812L245.448 220.494L243.295 224.729L246 226.995L247.067 226.379V227.875ZM249.188 214.507V212.241L250.922 211.24V213.506L249.188 214.507ZM252.351 224.825L247.911 227.388V225.892L249.302 225.089V218.269L247.854 219.105V217.587L250.979 215.783V224.121L252.351 223.329V224.825ZM263.575 218.345L259.155 220.897V219.401L260.527 218.609V214.363C260.527 213.365 260.362 212.757 260.031 212.537C259.701 212.302 259.263 212.342 258.717 212.658C258.005 213.068 257.44 213.666 257.021 214.451C256.602 215.235 256.38 215.994 256.354 216.728V221.018L257.726 220.226V221.722L253.306 224.274V222.778L254.678 221.986V215.166L253.249 215.991V214.473L256.354 212.68V214.352C256.951 212.76 257.916 211.58 259.25 210.81C260.076 210.333 260.774 210.223 261.346 210.48C261.917 210.736 262.203 211.488 262.203 212.735V217.641L263.575 216.849V218.345ZM274.075 212.282L271.046 214.031V212.095C270.779 212.836 270.404 213.558 269.921 214.262C269.452 214.959 268.823 215.535 268.035 215.989C266.93 216.627 266.047 216.704 265.387 216.22C264.726 215.722 264.396 214.71 264.396 213.184C264.396 211.835 264.695 210.438 265.292 208.993C265.901 207.527 266.879 206.405 268.226 205.627C269.534 204.872 270.474 204.916 271.046 205.759V200.413L269.083 201.546V200.028L272.703 197.938V211.578L274.075 210.786V212.282ZM271.046 209.499V208.311C271.02 207.505 270.779 206.984 270.322 206.749C269.864 206.515 269.312 206.584 268.664 206.958C267.838 207.435 267.21 208.15 266.778 209.103C266.359 210.049 266.149 211.036 266.149 212.062C266.149 213.177 266.378 213.896 266.835 214.218C267.292 214.541 267.857 214.508 268.531 214.119C269.255 213.701 269.845 213.016 270.303 212.062C270.772 211.102 271.02 210.247 271.046 209.499Z" fill="#818181"/>
</svg>
