<svg  viewBox="0 0 296 332" fill="none" xmlns="http://www.w3.org/2000/svg">
<path d="M262.771 203.908V179.024" stroke="#A7A9AB" stroke-width="0.159557" stroke-miterlimit="10"/>
<path d="M218.77 244.725V213.72" stroke="#A7A9AB" stroke-width="0.159557" stroke-miterlimit="10"/>
<path d="M265.847 186.008V172.533" stroke="#A7A9AB" stroke-width="0.159557" stroke-miterlimit="10"/>
<path d="M257.194 199.28V179.358" stroke="#A7A9AB" stroke-width="0.159557" stroke-miterlimit="10"/>
<path d="M273.157 189.17V166.484" stroke="#A7A9AB" stroke-width="0.159557" stroke-miterlimit="10"/>
<path d="M278.321 178.372V161.85" stroke="#A7A9AB" stroke-width="0.159557" stroke-miterlimit="10"/>
<path d="M283.55 166.934V157.868" stroke="#A7A9AB" stroke-width="0.159557" stroke-miterlimit="10"/>
<path d="M222.259 222.561V206.04" stroke="#A7A9AB" stroke-width="0.159557" stroke-miterlimit="10"/>
<path d="M230.94 224.904V201.028" stroke="#A7A9AB" stroke-width="0.159557" stroke-miterlimit="10"/>
<path d="M220.511 238.176V207.099" stroke="#A7A9AB" stroke-width="0.159557" stroke-miterlimit="10"/>
<path d="M236.423 232.548V201.471" stroke="#A7A9AB" stroke-width="0.159557" stroke-miterlimit="10"/>
<path d="M249.521 210.471V179.394" stroke="#A7A9AB" stroke-width="0.159557" stroke-miterlimit="10"/>
<path d="M246.003 202.609V171.532" stroke="#A7A9AB" stroke-width="0.159557" stroke-miterlimit="10"/>
<path d="M244.35 221.307V190.222" stroke="#A7A9AB" stroke-width="0.159557" stroke-miterlimit="10"/>
<path d="M226.697 225.97C225.298 226.615 225.776 229.487 226.697 228.936L235.545 223.83C236.945 223.185 236.467 220.313 235.545 220.864L226.697 225.97Z" fill="#DAA98C"/>
<path d="M233.225 213.51C231.825 214.156 232.304 217.028 233.225 216.477L242.073 211.371C243.473 210.725 242.994 207.853 242.073 208.404L233.225 213.51Z" fill="#869CCC"/>
<path d="M217.834 223.635C216.435 224.28 216.913 227.152 217.834 226.601L226.683 221.495C228.082 220.85 227.604 217.978 226.683 218.529L217.834 223.635Z" fill="#B9C3E1"/>
<path d="M231.999 233.621C230.599 234.267 231.078 237.139 231.999 236.588L240.847 231.482C242.247 230.836 241.768 227.964 240.847 228.516L231.999 233.621Z" fill="#B9C3E1"/>
<path d="M173.688 243.659V266.418" stroke="#A7A9AB" stroke-width="0.159557" stroke-miterlimit="10"/>
<path d="M176.001 251.985V242.325" stroke="#A7A9AB" stroke-width="0.159557" stroke-miterlimit="10"/>
<path d="M189.187 264.677V234.819" stroke="#A7A9AB" stroke-width="0.159557" stroke-miterlimit="10"/>
<path d="M182.116 241.389V238.894" stroke="#A7A9AB" stroke-width="0.159557" stroke-miterlimit="10"/>
<path d="M197.491 250.824V229.226" stroke="#A7A9AB" stroke-width="0.159557" stroke-miterlimit="10"/>
<path d="M186.417 249.475V236.414" stroke="#A7A9AB" stroke-width="0.159557" stroke-miterlimit="10"/>
<path d="M190.71 240.823V233.933" stroke="#A7A9AB" stroke-width="0.159557" stroke-miterlimit="10"/>
<path d="M184.763 266.287C183.363 266.932 183.842 269.804 184.763 269.253L193.611 264.147C195.011 263.502 194.532 260.63 193.611 261.181L184.763 266.287Z" fill="#D1D3D4"/>
<path d="M178.003 243.202C176.604 243.847 177.082 246.719 178.003 246.168L186.852 241.062C188.251 240.417 187.773 237.545 186.852 238.096L178.003 243.202Z" fill="#D1D3D4"/>
<path d="M186.286 243.202C184.886 243.847 185.365 246.719 186.286 246.168L195.134 241.062C196.533 240.417 196.055 237.545 195.134 238.096L186.286 243.202Z" fill="#869CCC"/>
<path d="M214.346 245.857C212.946 246.502 213.425 249.374 214.346 248.823L223.194 243.717C224.594 243.072 224.115 240.2 223.194 240.751L214.346 245.857Z" fill="#869CCC"/>
<path d="M182.217 251.63C180.818 252.275 181.296 255.147 182.217 254.596L191.065 249.49C192.465 248.845 191.986 245.973 191.065 246.524L182.217 251.63Z" fill="#D1D3D4"/>
<path d="M193.067 252.515C191.667 253.16 192.146 256.032 193.067 255.481L201.915 250.375C203.315 249.73 202.836 246.858 201.915 247.409L193.067 252.515Z" fill="#D1D3D4"/>
<g opacity="0.7">
<mask id="mask0_278_86483" style="mask-type:luminance" maskUnits="userSpaceOnUse" x="45" y="88" width="110" height="108">
<path d="M45.7671 188.379V168.043C67.5321 158.027 125.451 117.318 154.2 88.0901L139.608 145.944L55.9424 194.253C51.4241 196.864 45.7743 193.601 45.7743 188.379H45.7671Z" fill="white"/>
</mask>
<g mask="url(#mask0_278_86483)">
<path d="M147.978 112.706L140.565 119.095L143.706 106.628L151.452 98.9692L147.978 112.706Z" fill="#818284"/>
<path d="M144.663 125.89L137.403 131.366L140.493 119.363L147.999 112.669L144.663 125.89Z" fill="#58595B"/>
<path d="M139.601 145.944L132.754 149.933L134.966 141.28L142.059 136.211L139.601 145.944Z" fill="#58595B"/>
<path d="M134.967 141.281L126.155 147.344L128.635 137.72L137.404 131.366L134.967 141.281Z" fill="#414042"/>
<path d="M140.493 119.363L131.405 126.688L134.488 114.46L143.706 106.628L140.493 119.363Z" fill="#414042"/>
<path d="M137.541 131.221L128.679 137.494L131.406 126.688L140.493 119.363L137.541 131.221Z" fill="#818284"/>
<path d="M151.452 98.9687L143.75 106.417L146.498 95.56L154.005 88.38L151.452 98.9687Z" fill="#414042"/>
<path d="M132.754 149.933L124.291 154.886L126.154 147.344L134.966 141.281L132.754 149.933Z" fill="#818284"/>
<path d="M143.706 106.628L134.488 114.461L137.084 104.089L146.498 95.5603L143.706 106.628Z" fill="#221F20"/>
<path d="M142.059 136.211L134.966 141.28L137.403 131.366L144.598 125.644L142.059 136.211Z" fill="#221F20"/>
<path d="M80.2383 174.729L73.8633 178.268L74.0808 171.458L80.4559 167.803L80.2383 174.729Z" fill="#414042"/>
<path d="M61.3453 172.191L56.196 174.939L56.0728 169.065L61.3453 165.895V172.191Z" fill="#818284"/>
<path d="M80.6013 160.725L74.2988 164.453L74.5092 157.947L81.0002 153.762L80.6013 160.725Z" fill="#58595B"/>
<path d="M94.2069 159.76L86.8311 164.148L87.4258 156.438L95.186 151.601L94.2069 159.76Z" fill="#58595B"/>
<path d="M68.1194 161.943L61.5485 166.121L61.4688 159.412L68.3369 155.126L68.1194 161.943Z" fill="#818284"/>
<path d="M50.9237 177.841L45.7671 180.706V174.432L50.9237 171.618V177.841Z" fill="#58595B"/>
<path d="M87.8754 149.128L81 153.762L81.2973 146.568L88.5209 141.578L87.8754 149.128Z" fill="#58595B"/>
<path d="M50.9237 190.308L45.7671 192.94V186.667L50.9237 183.846V190.308Z" fill="#58595B"/>
<path d="M61.4687 178.327L56.0728 181.228V174.954L61.4687 171.829V178.327Z" fill="#58595B"/>
<path d="M79.3539 180.727L73.6606 184.107L73.8637 177.978L79.731 174.715L79.3539 180.727Z" fill="#58595B"/>
<path d="M61.4687 191.048L56.0728 193.956V187.683L61.4687 184.55V191.048Z" fill="#58595B"/>
<path d="M67.4884 181.445L61.4688 184.694V178.327L67.6987 174.918L67.4884 181.445Z" fill="#58595B"/>
<path d="M67.2925 187.624L61.4688 191.048V184.854L67.4884 181.445L67.2925 187.624Z" fill="#58595B"/>
<path d="M50.9237 171.886L45.7671 174.483V168.05L50.9237 165.468V171.886Z" fill="#414042"/>
<path d="M56.0732 187.646L50.9238 190.25V183.81L56.0732 181.228V187.646Z" fill="#414042"/>
<path d="M50.9237 197.147L45.7671 200.128V192.824L50.9237 190.25V197.147Z" fill="#414042"/>
<path d="M56.0732 174.889L50.9238 177.841V171.886L56.0732 169.065V174.889Z" fill="#414042"/>
<path d="M56.0732 181.228L50.9238 183.977V177.761L56.0732 174.94V181.228Z" fill="#818284"/>
<path d="M67.6987 174.918L61.4688 178.326V171.886L67.9235 168.107L67.6987 174.918Z" fill="#818284"/>
<path d="M80.1514 167.941L74.0737 171.378L74.2986 164.452L80.6083 160.521L80.1514 167.941Z" fill="#818284"/>
<path d="M73.6603 184.107L67.2925 187.624L67.4883 181.445L73.8633 177.978L73.6603 184.107Z" fill="#818284"/>
<path d="M86.0842 171.153L79.731 174.714L80.1516 167.941L86.8312 164.147L86.0842 171.153Z" fill="#818284"/>
<path d="M92.6115 173.076L85.6636 177.086L86.1857 171.204L93.4674 167.07L92.6115 173.076Z" fill="#818284"/>
<path d="M61.3453 165.895L56.0728 169.065V162.603L61.3453 159.608V165.895Z" fill="#414042"/>
<path d="M74.0737 171.378L67.6987 174.917L67.9236 168.107L74.2986 164.452L74.0737 171.378Z" fill="#414042"/>
<path d="M87.375 156.823L80.6011 160.725L81.2248 153.552L88.064 149.135L87.375 156.823Z" fill="#414042"/>
<path d="M93.2787 167.07L86.1494 171.262L86.7659 164.09L94.207 159.76L93.2787 167.07Z" fill="#414042"/>
<path d="M74.5091 157.947L68.1196 161.936L68.3372 155.126L74.734 150.977L74.5091 157.947Z" fill="#414042"/>
<path d="M74.2988 164.452L67.9238 168.108L68.1414 162.102L74.5309 157.947L74.2988 164.452Z" fill="#818284"/>
<path d="M95.186 151.601L87.4258 156.438L88.064 149.135L96.1579 143.522L95.186 151.601Z" fill="#818284"/>
<path d="M56.0732 194.174L50.9238 197.147V190.402L56.0732 187.581V194.174Z" fill="#818284"/>
<path d="M56.0732 169.065L50.9238 171.901V165.468L56.0732 162.603V169.065Z" fill="#221F20"/>
<path d="M50.9237 183.977L45.7671 186.689V180.706L50.9237 177.841V183.977Z" fill="#221F20"/>
<path d="M67.9235 168.107L61.4688 171.828V165.924L68.1194 161.943L67.9235 168.107Z" fill="#221F20"/>
<path d="M73.8633 177.979L67.4883 181.445L67.6986 174.918L74.0736 171.379L73.8633 177.979Z" fill="#221F20"/>
<path d="M100.328 168.623L92.6113 173.076L93.4672 167.071L101.061 162.56L100.328 168.623Z" fill="#818284"/>
<path d="M101.938 155.213L94.3594 159.601L95.1862 151.601L102.975 146.604L101.938 155.213Z" fill="#414042"/>
<path d="M104.005 137.973L96.1577 143.522L97.1078 135.566L105.006 129.647L104.005 137.973Z" fill="#414042"/>
<path d="M102.975 146.604L95.186 151.601L96.1579 143.521L104.005 137.973L102.975 146.604Z" fill="#818284"/>
<path d="M101.061 162.56L93.373 167.071L94.2071 159.76L101.938 155.213L101.061 162.56Z" fill="#221F20"/>
<path d="M85.6633 177.086L79.3535 180.727L79.6799 174.707L86.0549 171.161L85.6633 177.086Z" fill="#221F20"/>
<path d="M80.9999 153.762L74.5088 157.947L74.7336 150.977L81.4858 146.452L80.9999 153.762Z" fill="#221F20"/>
<path d="M96.1581 143.522L88.1875 148.983L88.746 141.476L97.1227 135.449L96.1581 143.522Z" fill="#221F20"/>
<path d="M86.831 164.148L80.1514 167.941L80.601 160.724L87.4257 156.438L86.831 164.148Z" fill="#221F20"/>
<path d="M118.467 152.051L109.989 157.367L111.135 149.367L120.041 143.58L118.467 152.051Z" fill="#414042"/>
<path d="M121.868 133.752L112.498 140.33L113.949 130.684L123.834 123.134L121.868 133.752Z" fill="#58595B"/>
<path d="M134.488 114.46L123.834 123.134L125.647 113.387L137.084 104.089L134.488 114.46Z" fill="#58595B"/>
<path d="M117.176 159.027L109.067 163.575L109.988 157.367L118.467 152.05L117.176 159.027Z" fill="#58595B"/>
<path d="M120.04 143.58L111.134 149.367L112.498 140.331L121.868 133.753L120.04 143.58Z" fill="#818284"/>
<path d="M126.155 147.344L118.467 152.051L120.041 143.58L128.635 137.719L126.155 147.344Z" fill="#818284"/>
<path d="M131.405 126.688L121.868 133.752L123.834 123.134L134.488 114.46L131.405 126.688Z" fill="#414042"/>
<path d="M124.291 154.886L117.19 158.715L118.467 152.05L126.256 147.104L124.291 154.886Z" fill="#221F20"/>
<path d="M123.834 123.135L113.949 130.685L115.261 121.836L125.524 113.721L123.834 123.135Z" fill="#221F20"/>
<path d="M128.635 137.719L120.041 143.58L121.868 133.752L131.405 126.688L128.635 137.719Z" fill="#221F20"/>
<path d="M113.949 130.684L104.005 137.973L105.006 129.647L115.261 121.836L113.949 130.684Z" fill="#58595B"/>
<path d="M109.988 157.366L101.061 162.559L101.938 155.212L111.134 149.367L109.988 157.366Z" fill="#818284"/>
<path d="M112.498 140.33L102.976 146.604L104.005 137.973L113.949 130.684L112.498 140.33Z" fill="#414042"/>
<path d="M109.067 163.575L100.328 168.623L101.061 162.559L109.989 157.367L109.067 163.575Z" fill="#221F20"/>
<path d="M111.135 149.367L102.069 154.886L102.975 146.604L112.498 140.33L111.135 149.367Z" fill="#221F20"/>
<path d="M61.4687 184.694L56.0728 187.581L56.196 181.242L61.3453 178.377L61.4687 184.694Z" fill="#221F20"/>
<path d="M45.7671 168.05V200.128" stroke="#D1D3D4" stroke-width="0.19582" stroke-miterlimit="10"/>
<path opacity="0.65" d="M154.004 88.286L139.565 145.893L139.412 146.14L55.9279 194.268C51.4095 196.872 45.7598 193.608 45.7598 188.393V172.119C45.7598 169.638 47.1087 167.346 49.2918 166.171C100.495 138.517 144.997 96.9456 153.997 88.3876" fill="#59B7D5"/>
</g>
</g>
<g opacity="0.5">
<mask id="mask1_278_86483" style="mask-type:luminance" maskUnits="userSpaceOnUse" x="108" y="126" width="110" height="108">
<path d="M108.807 226.493V206.157C130.572 196.141 188.491 155.433 217.24 126.205L202.648 184.059L118.982 232.368C114.464 234.979 108.814 231.715 108.814 226.493H108.807Z" fill="white"/>
</mask>
<g mask="url(#mask1_278_86483)">
<path d="M211.017 150.821L203.605 157.21L206.745 144.736L214.491 137.084L211.017 150.821Z" fill="#818284"/>
<path d="M207.703 164.006L200.45 169.481L203.533 157.478L211.039 150.777L207.703 164.006Z" fill="#58595B"/>
<path d="M202.64 184.059L195.794 188.048L198.006 179.396L205.099 174.326L202.64 184.059Z" fill="#58595B"/>
<path d="M198.006 179.396L189.194 185.459L191.675 175.835L200.45 169.481L198.006 179.396Z" fill="#414042"/>
<path d="M203.533 157.478L194.445 164.803L197.528 152.576L206.746 144.736L203.533 157.478Z" fill="#414042"/>
<path d="M200.588 169.336L191.726 175.602L194.445 164.803L203.533 157.478L200.588 169.336Z" fill="#818284"/>
<path d="M214.491 137.084L206.789 144.532L209.538 133.668L217.044 126.495L214.491 137.084Z" fill="#414042"/>
<path d="M195.794 188.048L187.337 193.002L189.194 185.459L198.006 179.396L195.794 188.048Z" fill="#818284"/>
<path d="M206.745 144.735L197.527 152.575L200.131 142.197L209.538 133.668L206.745 144.735Z" fill="#221F20"/>
<path d="M205.099 174.326L198.006 179.395L200.45 169.481L207.638 163.759L205.099 174.326Z" fill="#221F20"/>
<path d="M143.278 212.837L136.903 216.383L137.121 209.573L143.503 205.918L143.278 212.837Z" fill="#414042"/>
<path d="M124.392 210.306L119.236 213.047L119.12 207.173L124.392 204.011V210.306Z" fill="#818284"/>
<path d="M143.641 198.832L137.338 202.56L137.549 196.062L144.047 191.87L143.641 198.832Z" fill="#58595B"/>
<path d="M157.247 197.875L149.871 202.256L150.465 194.553L158.226 189.709L157.247 197.875Z" fill="#58595B"/>
<path d="M131.159 200.058L124.588 204.236L124.508 197.52L131.376 193.241L131.159 200.058Z" fill="#818284"/>
<path d="M113.963 215.955L108.807 218.82V212.547L113.963 209.725V215.955Z" fill="#58595B"/>
<path d="M150.915 187.243L144.047 191.87L144.344 184.682L151.561 179.685L150.915 187.243Z" fill="#58595B"/>
<path d="M113.963 228.423L108.807 231.048V224.775L113.963 221.954V228.423Z" fill="#58595B"/>
<path d="M124.508 216.442L119.12 219.343V213.069L124.508 209.944V216.442Z" fill="#58595B"/>
<path d="M142.401 218.842L136.708 222.222L136.903 216.093L142.771 212.83L142.401 218.842Z" fill="#58595B"/>
<path d="M124.508 229.163L119.12 232.064V225.791L124.508 222.665V229.163Z" fill="#58595B"/>
<path d="M130.528 219.553L124.508 222.81V216.442L130.738 213.033L130.528 219.553Z" fill="#58595B"/>
<path d="M130.332 225.732L124.508 229.163V222.962L130.528 219.553L130.332 225.732Z" fill="#58595B"/>
<path d="M113.963 209.994L108.807 212.598V206.157L113.963 203.583V209.994Z" fill="#414042"/>
<path d="M119.12 225.761L113.963 228.358V221.925L119.12 219.343V225.761Z" fill="#414042"/>
<path d="M113.963 235.262L108.807 238.236V230.94L113.963 228.358V235.262Z" fill="#414042"/>
<path d="M119.12 212.997L113.963 215.956V209.994L119.12 207.173V212.997Z" fill="#414042"/>
<path d="M119.12 219.342L113.963 222.091V215.868L119.12 213.047V219.342Z" fill="#818284"/>
<path d="M130.738 213.033L124.508 216.441V209.994L130.963 206.222L130.738 213.033Z" fill="#818284"/>
<path d="M143.191 206.056L137.113 209.486L137.338 202.56L143.648 198.629L143.191 206.056Z" fill="#818284"/>
<path d="M136.708 222.222L130.333 225.732L130.528 219.553L136.903 216.093L136.708 222.222Z" fill="#818284"/>
<path d="M149.124 209.269L142.771 212.83L143.191 206.056L149.871 202.255L149.124 209.269Z" fill="#818284"/>
<path d="M155.651 211.191L148.703 215.202L149.225 209.32L156.514 205.178L155.651 211.191Z" fill="#818284"/>
<path d="M124.392 204.011L119.12 207.173V200.711L124.392 197.716V204.011Z" fill="#414042"/>
<path d="M137.113 209.486L130.738 213.033L130.963 206.223L137.338 202.56L137.113 209.486Z" fill="#414042"/>
<path d="M150.415 194.931L143.641 198.833L144.264 191.66L151.104 187.25L150.415 194.931Z" fill="#414042"/>
<path d="M156.318 205.178L149.189 209.37L149.805 202.197L157.247 197.875L156.318 205.178Z" fill="#414042"/>
<path d="M137.549 196.062L131.159 200.051L131.377 193.241L137.774 189.092L137.549 196.062Z" fill="#414042"/>
<path d="M137.338 202.56L130.963 206.223L131.181 200.21L137.578 196.062L137.338 202.56Z" fill="#818284"/>
<path d="M158.226 189.709L150.465 194.554L151.104 187.25L159.197 181.63L158.226 189.709Z" fill="#818284"/>
<path d="M119.12 232.282L113.963 235.262V228.51L119.12 225.689V232.282Z" fill="#818284"/>
<path d="M119.12 207.173L113.963 210.016V203.583L119.12 200.711V207.173Z" fill="#221F20"/>
<path d="M113.963 222.092L108.807 224.804V218.821L113.963 215.956V222.092Z" fill="#221F20"/>
<path d="M130.963 206.222L124.508 209.943V204.039L131.159 200.058L130.963 206.222Z" fill="#221F20"/>
<path d="M136.903 216.093L130.528 219.553L130.739 213.033L137.114 209.486L136.903 216.093Z" fill="#221F20"/>
<path d="M163.375 206.731L155.651 211.191L156.514 205.179L164.1 200.668L163.375 206.731Z" fill="#818284"/>
<path d="M164.978 193.328L157.399 197.716L158.226 189.709L166.015 184.719L164.978 193.328Z" fill="#414042"/>
<path d="M167.052 176.088L159.198 181.629L160.148 173.681L168.046 167.763L167.052 176.088Z" fill="#414042"/>
<path d="M166.015 184.719L158.226 189.708L159.197 181.629L167.052 176.088L166.015 184.719Z" fill="#818284"/>
<path d="M164.1 200.667L156.42 205.179L157.247 197.875L164.978 193.328L164.1 200.667Z" fill="#221F20"/>
<path d="M148.703 215.201L142.4 218.842L142.727 212.815L149.095 209.276L148.703 215.201Z" fill="#221F20"/>
<path d="M144.047 191.87L137.549 196.062L137.774 189.092L144.526 184.56L144.047 191.87Z" fill="#221F20"/>
<path d="M159.198 181.629L151.234 187.097L151.786 179.584L160.17 173.557L159.198 181.629Z" fill="#221F20"/>
<path d="M149.871 202.255L143.191 206.056L143.641 198.832L150.465 194.553L149.871 202.255Z" fill="#221F20"/>
<path d="M181.507 190.166L173.028 195.482L174.174 187.482L183.08 181.695L181.507 190.166Z" fill="#414042"/>
<path d="M184.908 171.867L175.545 178.445L176.988 168.792L186.881 161.249L184.908 171.867Z" fill="#58595B"/>
<path d="M197.527 152.576L186.88 161.25L188.686 151.495L200.131 142.197L197.527 152.576Z" fill="#58595B"/>
<path d="M180.215 197.142L172.107 201.69L173.028 195.482L181.506 190.165L180.215 197.142Z" fill="#58595B"/>
<path d="M183.08 181.695L174.174 187.482L175.545 178.446L184.908 171.868L183.08 181.695Z" fill="#818284"/>
<path d="M189.194 185.459L181.506 190.166L183.08 181.695L191.674 175.835L189.194 185.459Z" fill="#818284"/>
<path d="M194.445 164.803L184.908 171.867L186.88 161.249L197.527 152.575L194.445 164.803Z" fill="#414042"/>
<path d="M187.338 193.001L180.237 196.831L181.507 190.165L189.296 185.212L187.338 193.001Z" fill="#221F20"/>
<path d="M186.881 161.249L176.988 168.792L178.301 159.951L188.563 151.828L186.881 161.249Z" fill="#221F20"/>
<path d="M191.674 175.835L183.08 181.695L184.908 171.867L194.445 164.803L191.674 175.835Z" fill="#221F20"/>
<path d="M176.988 168.792L167.052 176.088L168.046 167.762L178.301 159.951L176.988 168.792Z" fill="#58595B"/>
<path d="M173.028 195.481L164.1 200.667L164.978 193.327L174.174 187.482L173.028 195.481Z" fill="#818284"/>
<path d="M175.545 178.446L166.015 184.719L167.052 176.088L176.988 168.792L175.545 178.446Z" fill="#414042"/>
<path d="M172.107 201.69L163.375 206.73L164.1 200.667L173.028 195.482L172.107 201.69Z" fill="#221F20"/>
<path d="M174.174 187.482L165.108 193.001L166.015 184.719L175.545 178.445L174.174 187.482Z" fill="#221F20"/>
<path d="M124.508 222.809L119.12 225.688L119.236 219.357L124.392 216.492L124.508 222.809Z" fill="#221F20"/>
<path d="M108.807 206.157V238.235" stroke="#D1D3D4" stroke-width="0.19582" stroke-miterlimit="10"/>
<path opacity="0.65" d="M217.044 126.401L202.604 184.008L202.452 184.255L108.807 238.243V206.165C161.482 178.554 207.833 135.256 217.044 126.502" fill="#59B7D5"/>
</g>
</g>
<path d="M204.715 185.704C203.779 185.834 203.083 185.479 202.075 184.667C202.075 184.667 216.319 127.35 216.515 127.059C217.9 125.652 219.249 124.253 220.489 122.904L204.715 185.733" fill="#BCBEC0"/>
<path d="M204.715 185.704C206.267 185.486 208.457 183.912 213.751 180.852L227.923 113.983C225.9 116.819 223.492 119.626 220.482 122.897C219.894 125.232 204.708 185.726 204.708 185.726" fill="#E6E7E8"/>
<path d="M141.646 147.497C140.711 147.628 140.014 147.273 139.006 146.46C139.006 146.46 153.25 89.1431 153.446 88.853C154.831 87.446 156.18 86.0463 157.421 84.6973L141.646 147.526" fill="#BCBEC0"/>
<path d="M141.639 147.606C143.191 147.388 145.381 145.814 150.676 142.754L164.847 75.8851C162.824 78.7209 160.416 81.5276 157.406 84.7985C156.819 87.1339 141.632 147.628 141.632 147.628" fill="#E6E7E8"/>
<path opacity="0.9" d="M167.647 66.3411L123.747 41.0005C112.222 68.1034 29.2892 125.863 1.86719 138.475L45.7671 163.816C73.189 151.203 156.122 93.4439 167.647 66.3411Z" fill="#E1643A"/>
<path d="M157.928 250.498V237.023" stroke="#A7A9AB" stroke-width="0.159557" stroke-miterlimit="10"/>
<path d="M162.592 246.444V239.612" stroke="#A7A9AB" stroke-width="0.159557" stroke-miterlimit="10"/>
<path d="M151.459 237.124V233.085" stroke="#A7A9AB" stroke-width="0.159557" stroke-miterlimit="10"/>
<path d="M142.241 244.094V227.573" stroke="#A7A9AB" stroke-width="0.159557" stroke-miterlimit="10"/>
<path d="M160.322 258.201V238.278" stroke="#A7A9AB" stroke-width="0.159557" stroke-miterlimit="10"/>
<path d="M133.567 246.43V222.561" stroke="#A7A9AB" stroke-width="0.159557" stroke-miterlimit="10"/>
<path d="M143.989 259.709V228.632" stroke="#A7A9AB" stroke-width="0.159557" stroke-miterlimit="10"/>
<path d="M135.133 232.548V223.49" stroke="#A7A9AB" stroke-width="0.159557" stroke-miterlimit="10"/>
<path d="M138.869 230.191V225.941" stroke="#A7A9AB" stroke-width="0.159557" stroke-miterlimit="10"/>
<path d="M127.446 215.208L171.346 240.548V244.784L127.446 219.443V215.208Z" fill="#BCBEC0"/>
<path d="M293.225 143.073L249.325 117.733C237.801 144.836 154.868 202.595 127.446 215.207L171.346 240.548C198.768 227.936 281.701 170.176 293.225 143.073Z" fill="#D1D3D4"/>
<path d="M171.346 244.784V240.548C198.768 227.936 281.701 170.176 293.225 143.073L295.125 145.119C283.543 170.836 198.768 232.171 171.346 244.784Z" fill="#E6E7E8"/>
<path d="M26.3232 186.69V156.824" stroke="#A7A9AB" stroke-width="0.159557" stroke-miterlimit="10"/>
<path d="M33.3945 163.402V160.907" stroke="#A7A9AB" stroke-width="0.159557" stroke-miterlimit="10"/>
<path d="M5.56641 159.602V144.843" stroke="#A7A9AB" stroke-width="0.159557" stroke-miterlimit="10"/>
<path d="M8.83691 177.733V146.728" stroke="#A7A9AB" stroke-width="0.159557" stroke-miterlimit="10"/>
<path d="M18.019 173.628V152.03" stroke="#A7A9AB" stroke-width="0.159557" stroke-miterlimit="10"/>
<path d="M29.1006 171.482V158.427" stroke="#A7A9AB" stroke-width="0.159557" stroke-miterlimit="10"/>
<path d="M39.479 173.744V164.418" stroke="#A7A9AB" stroke-width="0.159557" stroke-miterlimit="10"/>
<path d="M35.7661 183.673V158.427" stroke="#A7A9AB" stroke-width="0.159557" stroke-miterlimit="10"/>
<path d="M65.2769 188.351V179.314" stroke="#A7A9AB" stroke-width="0.159557" stroke-miterlimit="10"/>
<path d="M79.1943 192.398V187.379" stroke="#A7A9AB" stroke-width="0.159557" stroke-miterlimit="10"/>
<path d="M80.311 197.206V187.996" stroke="#A7A9AB" stroke-width="0.159557" stroke-miterlimit="10"/>
<path d="M89.5947 208.02V193.355" stroke="#A7A9AB" stroke-width="0.159557" stroke-miterlimit="10"/>
<path d="M74.6904 216.215V184.616" stroke="#A7A9AB" stroke-width="0.159557" stroke-miterlimit="10"/>
<path d="M98.2905 219.951V198.374" stroke="#A7A9AB" stroke-width="0.159557" stroke-miterlimit="10"/>
<path d="M106.297 211.48V202.907" stroke="#A7A9AB" stroke-width="0.159557" stroke-miterlimit="10"/>
<path d="M91.9082 198.802V194.69" stroke="#A7A9AB" stroke-width="0.159557" stroke-miterlimit="10"/>
<path d="M72.7905 199.106V183.651" stroke="#A7A9AB" stroke-width="0.159557" stroke-miterlimit="10"/>
<path d="M24.7998 162.829V155.947" stroke="#A7A9AB" stroke-width="0.159557" stroke-miterlimit="10"/>
<path d="M9.99022 161.756C11.39 162.401 10.9113 165.273 9.99022 164.722L1.14207 159.616C-0.257675 158.971 0.220995 156.099 1.14207 156.65L9.99022 161.756Z" fill="#869CCC"/>
<path d="M82.9438 211.98V191.331" stroke="#A7A9AB" stroke-width="0.159557" stroke-miterlimit="10"/>
<path d="M87.3682 214.134C88.7679 214.779 88.2892 217.651 87.3682 217.1L78.52 211.994C77.1203 211.349 77.5989 208.477 78.52 209.028L87.3682 214.134Z" fill="#869CCC"/>
<path d="M15.292 156.505C16.6917 157.15 16.2131 160.022 15.292 159.471L6.44383 154.365C5.04408 153.72 5.52275 150.848 6.44383 151.399L15.292 156.505Z" fill="#DAA98C"/>
<path d="M13.2612 180.083C14.661 180.729 14.1823 183.601 13.2612 183.05L4.41307 177.944C3.01332 177.298 3.49199 174.426 4.41307 174.977L13.2612 180.083Z" fill="#CF805A"/>
<path d="M40.1899 183.289C41.5897 183.934 41.111 186.806 40.1899 186.255L31.3418 181.149C29.942 180.504 30.4207 177.632 31.3418 178.183L40.1899 183.289Z" fill="#CF805A"/>
<path d="M30.7471 188.301C32.1468 188.946 31.6681 191.818 30.7471 191.267L21.8989 186.161C20.4992 185.516 20.9778 182.644 21.8989 183.195L30.7471 188.301Z" fill="#D1D3D4"/>
<path d="M79.1147 217.064C80.5145 217.709 80.0358 220.581 79.1147 220.03L70.2666 214.924C68.8668 214.279 69.3455 211.407 70.2666 211.958L79.1147 217.064Z" fill="#DAA98C"/>
<path d="M102.714 221.394C104.114 222.039 103.635 224.911 102.714 224.36L93.8662 219.254C92.4664 218.609 92.9451 215.737 93.8662 216.288L102.714 221.394Z" fill="#A7A9AB"/>
<path d="M137.81 247.503C139.209 248.149 138.731 251.021 137.81 250.469L128.961 245.364C127.562 244.718 128.04 241.846 128.961 242.397L137.81 247.503Z" fill="#DAA98C"/>
<path d="M148.413 259.869C149.813 260.514 149.334 263.386 148.413 262.835L139.565 257.729C138.165 257.084 138.644 254.212 139.565 254.763L148.413 259.869Z" fill="#DAA98C"/>
<path d="M164.738 259.274C166.138 259.919 165.659 262.791 164.738 262.24L155.89 257.134C154.49 256.489 154.969 253.617 155.89 254.168L164.738 259.274Z" fill="#58595B"/>
<path d="M162.353 251.608C163.752 252.254 163.274 255.126 162.353 254.575L153.504 249.469C152.105 248.823 152.583 245.951 153.504 246.502L162.353 251.608Z" fill="#D1D3D4"/>
<path d="M167.016 247.503C168.415 248.149 167.937 251.021 167.016 250.469L158.167 245.364C156.768 244.718 157.246 241.846 158.167 242.397L167.016 247.503Z" fill="#DAA98C"/>
<path d="M146.665 245.16C148.065 245.806 147.586 248.678 146.665 248.127L137.817 243.021C136.417 242.375 136.896 239.503 137.817 240.054L146.665 245.16Z" fill="#B9C3E1"/>
<path d="M139.558 233.992C140.957 234.637 140.479 237.509 139.558 236.958L130.709 231.852C129.31 231.207 129.788 228.335 130.709 228.886L139.558 233.992Z" fill="#D1D3D4"/>
<path d="M155.883 238.096C157.283 238.742 156.804 241.614 155.883 241.062L147.035 235.957C145.635 235.311 146.114 232.439 147.035 232.99L155.883 238.096Z" fill="#D1D3D4"/>
<path d="M143.292 231.033C144.692 231.678 144.214 234.55 143.292 233.999L134.444 228.893C133.045 228.248 133.523 225.376 134.444 225.927L143.292 231.033Z" fill="#DAA98C"/>
<path d="M252.959 200.535C251.668 201.37 252.523 204.147 253.365 203.473L261.43 197.199C262.721 196.365 261.865 193.587 261.023 194.262L252.959 200.535Z" fill="#58595B"/>
<path d="M261.611 188.866C260.32 189.7 261.176 192.478 262.017 191.803L270.082 185.53C271.373 184.696 270.517 181.918 269.676 182.593L261.611 188.866Z" fill="#CF805A"/>
<path d="M273.803 180.199C272.512 181.033 273.368 183.811 274.209 183.136L282.274 176.863C283.565 176.029 282.709 173.251 281.868 173.926L273.803 180.199Z" fill="#B9C3E1"/>
<path d="M279.315 168.152C278.024 168.986 278.879 171.764 279.721 171.09L287.786 164.816C289.077 163.982 288.221 161.204 287.379 161.879L279.315 168.152Z" fill="#D1D3D4"/>
<path d="M269.118 190.708C267.827 191.542 268.683 194.32 269.524 193.646L277.589 187.372C278.88 186.538 278.024 183.76 277.183 184.435L269.118 190.708Z" fill="#D1D3D4"/>
<path d="M240.789 221.792C239.425 222.503 240.027 225.346 240.927 224.751L249.528 219.239C250.892 218.529 250.29 215.686 249.39 216.28L240.789 221.792Z" fill="#DAA98C"/>
<path d="M241.637 203.538C240.274 204.248 240.876 207.091 241.775 206.497L250.377 200.985C251.74 200.274 251.138 197.431 250.239 198.026L241.637 203.538Z" fill="#D1D3D4"/>
<path d="M245.155 210.333C243.792 211.044 244.393 213.887 245.293 213.292L253.894 207.78C255.258 207.07 254.656 204.227 253.757 204.821L245.155 210.333Z" fill="#CF805A"/>
<path d="M258.478 205.431C257.158 206.221 257.92 209.028 258.783 208.383L267.058 202.392C268.378 201.602 267.616 198.795 266.753 199.44L258.478 205.431Z" fill="#D1D3D4"/>
<path d="M110.721 212.959C112.121 213.605 111.642 216.477 110.721 215.926L101.873 210.82C100.473 210.174 100.952 207.302 101.873 207.853L110.721 212.959Z" fill="#58595B"/>
<path d="M37.5063 165.208C38.9061 165.853 38.4274 168.725 37.5063 168.174L28.6582 163.068C27.2584 162.423 27.7371 159.551 28.6582 160.102L37.5063 165.208Z" fill="#D1D3D4"/>
<path d="M69.7007 189.366C71.1004 190.012 70.6218 192.884 69.7007 192.333L60.8525 187.227C59.4528 186.581 59.9314 183.709 60.8525 184.261L69.7007 189.366Z" fill="#B9C3E1"/>
<path d="M77.2143 199.876C78.6141 200.521 78.1354 203.393 77.2143 202.842L68.3662 197.736C66.9664 197.091 67.4451 194.219 68.3662 194.77L77.2143 199.876Z" fill="#A7A9AB"/>
<path d="M84.7353 198.461C86.1351 199.107 85.6564 201.979 84.7353 201.427L75.8872 196.322C74.4874 195.676 74.9661 192.804 75.8872 193.355L84.7353 198.461Z" fill="#D1D3D4"/>
<path d="M94.0185 208.854C95.4182 209.5 94.9396 212.372 94.0185 211.821L85.1704 206.715C83.7706 206.069 84.2493 203.197 85.1704 203.748L94.0185 208.854Z" fill="#CF805A"/>
<path d="M96.332 199.876C97.7317 200.521 97.2531 203.393 96.332 202.842L87.4839 197.736C86.0841 197.091 86.5628 194.219 87.4839 194.77L96.332 199.876Z" fill="#DAA98C"/>
<path d="M83.6182 192.702C85.0179 193.348 84.5392 196.22 83.6182 195.669L74.77 190.563C73.3703 189.917 73.8489 187.045 74.77 187.597L83.6182 192.702Z" fill="#58595B"/>
<path d="M43.9033 174.702C45.3031 175.347 44.8244 178.219 43.9033 177.668L35.0552 172.562C33.6554 171.917 34.1341 169.045 35.0552 169.596L43.9033 174.702Z" fill="#949598"/>
<path d="M29.2241 165.208C30.6239 165.853 30.1452 168.725 29.2241 168.174L20.376 163.068C18.9762 162.423 19.4549 159.551 20.376 160.102L29.2241 165.208Z" fill="#B9C3E1"/>
<path d="M33.293 173.643C34.6927 174.289 34.214 177.161 33.293 176.609L24.4448 171.504C23.0451 170.858 23.5237 167.986 24.4448 168.537L33.293 173.643Z" fill="#D1D3D4"/>
<path d="M22.4428 175.978C23.8426 176.624 23.3639 179.496 22.4428 178.945L13.5947 173.839C12.195 173.193 12.6736 170.321 13.5947 170.872L22.4428 175.978Z" fill="#D1D3D4"/>
<path d="M10.8677 153.952V147.903" stroke="#A7A9AB" stroke-width="0.159557" stroke-miterlimit="10"/>
<path d="M1.86719 138.475L45.7671 163.815V168.051L1.86719 142.703V138.475Z" fill="#E1643A"/>
<path opacity="0.7" d="M45.7671 168.051V163.815C73.1891 151.203 156.122 93.4435 167.647 66.3406L169.547 68.3859C157.964 94.1035 73.1891 155.439 45.7671 168.051Z" fill="#E1643A"/>
<path d="M64.9067 176.58L108.807 201.928V206.156L64.9067 180.815V176.58Z" fill="#A7A9AB"/>
<path d="M230.686 104.453L186.786 79.1127C175.262 106.216 92.3287 163.975 64.9067 176.587L108.807 201.928C136.229 189.316 219.162 131.556 230.686 104.453Z" fill="#BCBEC0"/>
<path d="M108.807 206.156V201.92C136.229 189.308 219.162 131.549 230.686 104.446L232.586 106.491C221.004 132.209 136.229 193.544 108.807 206.156Z" fill="#D1D3D4"/>
<path d="M159.937 110.052C157.993 128.089 144.583 156.665 103.149 198.606L108.806 201.928C157.152 153.002 167.342 122.258 165.688 105.222" fill="#F1F2F2"/>
<path d="M1.86719 138.475C38.5652 118.929 59.0248 101.857 68.163 95.6267C130.492 72.5272 151.836 86.9309 151.836 86.7641L153.41 87.9535C151.93 86.8366 125.589 67.9291 3.68033 139.316L1.86719 138.475Z" fill="#F1F2F2"/>
<path d="M283.557 137.329C228.59 170.944 196.135 182.005 177.815 184.724L173.405 186.82L174.537 187.43C193.546 188.032 230.019 181.947 292.05 145.35L293.232 143.073L283.565 137.329H283.557Z" fill="#E6E7E8"/>
<path d="M209.907 235.964V221.205" stroke="#A7A9AB" stroke-width="0.159557" stroke-miterlimit="10"/>
<path d="M206.644 254.408V223.403" stroke="#A7A9AB" stroke-width="0.159557" stroke-miterlimit="10"/>
<path d="M205.483 237.284C204.084 237.93 204.562 240.802 205.483 240.251L214.332 235.145C215.731 234.499 215.253 231.627 214.332 232.179L205.483 237.284Z" fill="#D1D3D4"/>
<path d="M200.182 233.179C198.782 233.825 199.261 236.697 200.182 236.146L209.03 231.04C210.429 230.394 209.951 227.522 209.03 228.074L200.182 233.179Z" fill="#DAA98C"/>
<path d="M202.22 255.481C200.82 256.126 201.299 258.999 202.22 258.447L211.068 253.342C212.468 252.696 211.989 249.824 211.068 250.375L202.22 255.481Z" fill="#DAA98C"/>
<path d="M171.578 253.059C170.178 253.704 170.657 256.576 171.578 256.025L180.426 250.919C181.826 250.274 181.347 247.402 180.426 247.953L171.578 253.059Z" fill="#949598"/>
<path d="M169.264 267.484C167.864 268.129 168.343 271.001 169.264 270.45L178.112 265.344C179.512 264.699 179.033 261.827 178.112 262.378L169.264 267.484Z" fill="#CF805A"/>
<path d="M204.606 230.627V224.846" stroke="#A7A9AB" stroke-width="0.159557" stroke-miterlimit="10"/>
<path d="M229.374 211.015V207.099" stroke="#A7A9AB" stroke-width="0.159557" stroke-miterlimit="10"/>
<path d="M216.094 238.343C214.694 238.989 215.173 241.861 216.094 241.31L224.942 236.204C226.342 235.558 225.863 232.686 224.942 233.237L216.094 238.343Z" fill="#CF805A"/>
<path d="M224.949 212.459C223.549 213.104 224.028 215.976 224.949 215.425L233.797 210.319C235.197 209.674 234.718 206.802 233.797 207.353L224.949 212.459Z" fill="#58595B"/>
<path d="M237.648 212.437V199.092" stroke="#A7A9AB" stroke-width="0.159557" stroke-miterlimit="10"/>
<path d="M65.0979 245.83L55.7812 240.451V238.713L57.2863 239.582V228.758L55.7812 227.889V226.151L64.9454 231.442L65.3265 235.754L63.8213 235.039L63.4403 232.311L59.0201 229.759V234.225L64.6596 237.481V239.197L59.0201 235.941V240.583L63.6118 243.234L63.9928 240.946L65.4789 241.958L65.0979 245.83ZM74.6783 248.457C74.5894 249.257 74.2274 249.781 73.5923 250.03C72.9572 250.28 72.0935 250.089 71.0012 249.458C69.7691 248.747 68.772 247.746 68.0099 246.455C67.2478 245.165 66.8668 243.713 66.8668 242.099C66.8668 240.574 67.2224 239.518 67.9337 238.931C68.645 238.345 69.6294 238.414 70.8869 239.14C72.0554 239.815 72.9636 240.757 73.6114 241.967C74.2592 243.177 74.5894 244.38 74.6021 245.575C74.6021 245.971 74.564 246.367 74.4878 246.763L68.6196 243.375C68.6958 245.502 69.5278 247.024 71.1155 247.94C71.776 248.322 72.2713 248.424 72.6016 248.248C72.9445 248.08 73.1732 247.772 73.2875 247.324L74.6783 248.457ZM72.8683 244.53C72.9191 243.914 72.7794 243.218 72.4492 242.44C72.1316 241.656 71.5982 241.047 70.8488 240.614C70.1502 240.211 69.623 240.178 69.2674 240.515C68.9244 240.845 68.7149 241.37 68.6387 242.088L72.8683 244.53ZM80.8444 244.933C81.4413 245.278 81.9494 245.747 82.3686 246.341L82.7115 249.289L81.3969 248.706L81.073 246.825C80.8571 246.598 80.6348 246.418 80.4061 246.286C79.9743 246.037 79.6123 246.041 79.3201 246.297C79.028 246.539 78.8819 246.998 78.8819 247.672V252.292L80.711 253.348V254.844L75.8335 252.028V250.532L77.2053 251.324V244.504L75.7764 243.679V242.161L78.7676 243.888V245.692C78.9327 245.23 79.1868 244.915 79.5297 244.746C79.8854 244.57 80.3236 244.633 80.8444 244.933ZM92.5956 256.8C92.5956 258.311 92.1892 259.308 91.3762 259.792C90.576 260.283 89.5154 260.148 88.1945 259.385C86.8989 258.637 85.8701 257.581 85.108 256.217C84.3586 254.86 83.9839 253.427 83.9839 251.916C83.9839 250.479 84.3459 249.456 85.0699 248.847C85.7938 248.238 86.8735 248.348 88.3088 249.177C89.7441 250.006 90.8174 251.139 91.5287 252.576C92.24 253.999 92.5956 255.407 92.5956 256.8ZM90.8428 255.722C90.8428 254.637 90.6078 253.643 90.1378 252.741C89.6806 251.846 89.0582 251.172 88.2707 250.717C87.4451 250.24 86.81 250.211 86.3654 250.629C85.9336 251.04 85.7176 251.766 85.7176 252.807C85.7176 253.804 85.9272 254.776 86.3464 255.722C86.7782 256.661 87.4133 257.372 88.2516 257.856C89.0772 258.333 89.7123 258.362 90.1569 257.944C90.6141 257.519 90.8428 256.778 90.8428 255.722ZM106.836 265.836C106.836 267.229 106.411 268.054 105.56 268.311C104.722 268.56 103.629 268.296 102.283 267.519C101.457 267.042 100.676 266.481 99.9393 265.836C99.2026 265.176 98.6184 264.53 98.1865 263.9L98.4723 261.029L99.8631 261.986L99.825 263.746C100.244 264.237 100.644 264.637 101.025 264.945C101.419 265.245 101.806 265.506 102.188 265.726C102.975 266.18 103.636 266.393 104.169 266.364C104.715 266.327 104.988 265.861 104.988 264.967C104.988 263.969 104.683 263.141 104.074 262.481C103.477 261.813 102.804 261.175 102.054 260.567C101.457 260.075 100.867 259.551 100.282 258.994C99.7107 258.444 99.228 257.806 98.8343 257.08C98.4532 256.346 98.2627 255.496 98.2627 254.528C98.2627 253.105 98.6755 252.309 99.5011 252.141C100.327 251.972 101.279 252.199 102.359 252.823C103.083 253.241 103.801 253.78 104.512 254.44C105.223 255.085 105.776 255.712 106.17 256.321L106.284 259.313L104.893 258.664L104.683 256.541C104.315 256.093 103.94 255.716 103.559 255.408C103.178 255.1 102.816 254.847 102.473 254.649C101.775 254.245 101.203 254.091 100.759 254.187C100.327 254.289 100.111 254.685 100.111 255.375C100.111 256.181 100.378 256.885 100.911 257.487C101.444 258.073 102.035 258.642 102.683 259.192C103.216 259.632 103.807 260.156 104.455 260.765C105.103 261.359 105.661 262.07 106.131 262.899C106.601 263.727 106.836 264.706 106.836 265.836ZM109.085 262.14C109.606 262.089 110.114 262.14 110.61 262.294C111.118 262.441 111.67 262.686 112.267 263.031C113.232 263.588 113.995 264.3 114.553 265.165C115.125 266.038 115.411 267.039 115.411 268.168V272.722C115.411 273.367 115.633 273.818 116.078 274.075C116.255 274.178 116.427 274.24 116.592 274.262L116.611 275.417C116.255 275.461 115.843 275.347 115.373 275.076C114.344 274.482 113.798 273.507 113.734 272.15V272.128C113.48 272.495 113.112 272.744 112.629 272.876C112.159 273.015 111.581 272.887 110.895 272.491C110.311 272.154 109.727 271.611 109.142 270.863C108.571 270.122 108.285 269.239 108.285 268.212C108.285 266.98 108.704 266.415 109.543 266.518C110.394 266.613 111.302 266.94 112.267 267.497C112.851 267.834 113.34 268.146 113.734 268.432V267.706C113.734 267.061 113.626 266.448 113.41 265.869C113.194 265.29 112.712 264.784 111.962 264.351C111.353 263.999 110.838 263.827 110.419 263.834L110.095 265.253L108.742 264.296L109.085 262.14ZM113.734 270.126V269.554C113.505 269.393 113.264 269.231 113.01 269.07C112.769 268.901 112.521 268.744 112.267 268.597C111.683 268.26 111.162 268.069 110.705 268.025C110.248 267.981 110.019 268.304 110.019 268.993C110.019 269.521 110.159 269.983 110.438 270.379C110.73 270.782 111.06 271.09 111.429 271.303C111.975 271.618 112.483 271.692 112.953 271.523C113.423 271.354 113.683 270.889 113.734 270.126ZM118.426 267.533C118.946 267.481 119.454 267.533 119.95 267.687C120.458 267.833 121.01 268.079 121.607 268.424C122.573 268.981 123.335 269.692 123.894 270.558C124.465 271.43 124.751 272.431 124.751 273.561V278.115C124.751 278.76 124.973 279.211 125.418 279.468C125.596 279.57 125.767 279.633 125.932 279.655L125.951 280.81C125.596 280.854 125.183 280.74 124.713 280.469C123.684 279.875 123.138 278.899 123.074 277.543V277.521C122.82 277.887 122.452 278.137 121.969 278.269C121.499 278.408 120.921 278.28 120.236 277.884C119.651 277.546 119.067 277.004 118.483 276.256C117.911 275.515 117.625 274.631 117.625 273.605C117.625 272.373 118.044 271.808 118.883 271.911C119.734 272.006 120.642 272.332 121.607 272.89C122.192 273.227 122.681 273.539 123.074 273.825V273.099C123.074 272.453 122.966 271.841 122.75 271.262C122.535 270.682 122.052 270.176 121.302 269.744C120.693 269.392 120.178 269.219 119.759 269.227L119.435 270.646L118.083 269.689L118.426 267.533ZM123.074 275.519V274.947C122.846 274.785 122.604 274.624 122.35 274.463C122.109 274.294 121.861 274.136 121.607 273.99C121.023 273.652 120.502 273.462 120.045 273.418C119.588 273.374 119.359 273.696 119.359 274.386C119.359 274.914 119.499 275.376 119.778 275.772C120.07 276.175 120.401 276.483 120.769 276.696C121.315 277.011 121.823 277.084 122.293 276.916C122.763 276.747 123.024 276.281 123.074 275.519ZM131.862 274.388C132.459 274.733 132.967 275.202 133.386 275.796L133.729 278.744L132.415 278.161L132.091 276.28C131.875 276.053 131.652 275.873 131.424 275.741C130.992 275.492 130.63 275.496 130.338 275.752C130.046 275.994 129.9 276.453 129.9 277.127V281.747L131.729 282.803V284.299L126.851 281.483V279.987L128.223 280.779V273.959L126.794 273.134V271.616L129.785 273.343V275.147C129.95 274.685 130.204 274.37 130.547 274.201C130.903 274.025 131.341 274.088 131.862 274.388ZM136.297 274.793V272.527L138.031 273.528V275.794L136.297 274.793ZM139.46 288.763L135.021 286.2V284.704L136.411 285.507V278.687L134.963 277.851V276.333L138.088 278.137V286.475L139.46 287.267V288.763ZM150.684 295.243L146.264 292.691V291.195L147.636 291.987V287.741C147.636 286.744 147.471 285.945 147.141 285.343C146.81 284.727 146.372 284.262 145.826 283.946C145.115 283.536 144.549 283.481 144.13 283.781C143.711 284.082 143.489 284.584 143.463 285.288V289.578L144.835 290.37V291.866L140.415 289.314V287.818L141.787 288.61V281.79L140.358 280.965V279.447L143.463 281.24V282.912C144.06 282.01 145.026 281.944 146.359 282.714C147.185 283.191 147.884 283.888 148.455 284.804C149.027 285.721 149.313 286.803 149.313 288.049V292.955L150.684 293.747V295.243ZM159.317 297.323C159.228 298.123 158.866 298.647 158.231 298.896C157.596 299.146 156.732 298.955 155.64 298.324C154.408 297.613 153.411 296.612 152.649 295.321C151.887 294.031 151.506 292.579 151.506 290.965C151.506 289.44 151.861 288.384 152.572 287.797C153.284 287.211 154.268 287.28 155.526 288.006C156.694 288.681 157.602 289.623 158.25 290.833C158.898 292.043 159.228 293.246 159.241 294.441C159.241 294.837 159.203 295.233 159.127 295.629L153.258 292.241C153.335 294.368 154.167 295.89 155.754 296.806C156.415 297.188 156.91 297.29 157.24 297.114C157.583 296.946 157.812 296.638 157.926 296.19L159.317 297.323ZM157.507 293.396C157.558 292.78 157.418 292.084 157.088 291.306C156.77 290.522 156.237 289.913 155.488 289.48C154.789 289.077 154.262 289.044 153.906 289.381C153.563 289.711 153.354 290.236 153.277 290.954L157.507 293.396ZM170.742 306.823L166.321 304.271V302.775L167.693 303.567V299.321C167.693 298.324 167.528 297.525 167.198 296.923C166.868 296.307 166.429 295.842 165.883 295.526C165.172 295.116 164.607 295.061 164.188 295.361C163.768 295.662 163.546 296.164 163.521 296.868V301.158L164.892 301.95V303.446L160.472 300.894V299.398L161.844 300.19V293.37L160.415 292.545V291.027L163.521 292.82V294.492C164.118 293.59 165.083 293.524 166.417 294.294C167.242 294.771 167.941 295.468 168.512 296.384C169.084 297.301 169.37 298.383 169.37 299.629V304.535L170.742 305.327V306.823Z" fill="#818181"/>
</svg>
