<svg width="296" height="334" viewBox="0 0 296 334" fill="none" xmlns="http://www.w3.org/2000/svg">
<path d="M178.692 76.0279L182.08 57.8873L184.304 58.4214L180.606 77.8737" fill="#818284"/>
<path d="M153.047 147.678V123.75L154.812 124.831V145.109" fill="#818284"/>
<path d="M178.692 76.0287L182.079 57.8882L153.317 56.9213L148.929 72.0192" fill="#AD7238"/>
<path d="M152.803 148.577L131.269 154.27L136.164 117.78L153.047 123.75V144.027" fill="#B8833D"/>
<path d="M153.047 123.75L156.576 110.64L131.269 91.9649L136.164 117.78" fill="#D7A243"/>
<path d="M156.576 110.639L153.932 85.1016L135.65 76.873L131.269 91.9642" fill="#AE7539"/>
<path d="M178.692 76.0282L153.932 85.1018L135.65 76.8733L148.929 72.0187" fill="#D7A243"/>
<path d="M156.576 110.639L153.933 85.1018L155.765 87.0491L158.49 112.485" fill="#949598"/>
<path d="M153.933 85.1015L178.692 76.0278L180.606 77.8737L155.765 87.0488" fill="#A7A9AB"/>
<path d="M154.812 124.729L158.49 112.485L156.576 110.639L153.047 123.749" fill="#A7A9AB"/>
<path d="M129.044 89.5782C128.679 88.7331 128.307 87.8947 127.915 87.0495L130.342 66.725L131.688 68.767L129.186 89.5173" fill="#BCBEC0"/>
<path d="M79.3955 38.3341L77.4077 57.8878L127.915 87.0493L130.342 66.7248L79.3955 38.3341Z" fill="#7A2134"/>
<mask id="mask0_278_86777" style="mask-type:luminance" maskUnits="userSpaceOnUse" x="65" y="61" width="64" height="215">
<path d="M69.1188 275.839C61.7287 212.823 92.398 177.164 127.185 156.989C129.558 134.088 129.321 111.81 119.626 91.0727L69.1188 61.9113C94.3722 152.175 52.2359 183.033 69.1188 275.839Z" fill="white"/>
</mask>
<g mask="url(#mask0_278_86777)">
<path d="M77.205 82.4045H73.1753V92.6478H77.205V82.4045Z" fill="#6D6E71"/>
<path opacity="0.9" d="M81.2348 82.4045H77.2051V92.6478H81.2348V82.4045Z" fill="#6D6E71"/>
<path d="M85.2646 82.4045H81.2349V92.6478H85.2646V82.4045Z" fill="#818284"/>
<path opacity="0.95" d="M89.2944 82.4045H85.2646V92.6478H89.2944V82.4045Z" fill="#818284"/>
<path opacity="0.9" d="M93.3173 82.4045H89.2876V92.6478H93.3173V82.4045Z" fill="#818284"/>
<path d="M97.3471 82.4045H93.3174V92.6478H97.3471V82.4045Z" fill="#949598"/>
<path opacity="0.9" d="M101.377 82.4045H97.3472V92.6478H101.377V82.4045Z" fill="#949598"/>
<path d="M105.407 82.4045H101.377V92.6478H105.407V82.4045Z" fill="#A7A9AB"/>
<path d="M79.2202 72.1615H75.1904V82.4049H79.2202V72.1615Z" fill="#6D6E71"/>
<path opacity="0.9" d="M75.1904 72.1615H71.1606V82.4049H75.1904V72.1615Z" fill="#58595B"/>
<path opacity="0.9" d="M83.2499 72.1615H79.2202V82.4049H83.2499V72.1615Z" fill="#6D6E71"/>
<path d="M87.2792 72.1615H83.2495V82.4049H87.2792V72.1615Z" fill="#818284"/>
<path opacity="0.95" d="M91.3095 72.1615H87.2798V82.4049H91.3095V72.1615Z" fill="#818284"/>
<path opacity="0.9" d="M93.3173 61.9113H89.2876V72.1546H93.3173V61.9113Z" fill="#818284"/>
<path d="M77.205 61.9113H73.1753V72.1546H77.205V61.9113Z" fill="#6D6E71"/>
<path opacity="0.9" d="M73.1752 61.9113H69.1455V72.1546H73.1752V61.9113Z" fill="#58595B"/>
<path opacity="0.9" d="M81.2348 61.9113H77.2051V72.1546H81.2348V61.9113Z" fill="#6D6E71"/>
<path d="M85.2646 61.9113H81.2349V72.1546H85.2646V61.9113Z" fill="#818284"/>
<path opacity="0.95" d="M89.2944 61.9113H85.2646V72.1546H89.2944V61.9113Z" fill="#818284"/>
<path opacity="0.9" d="M95.3325 72.1615H91.3027V82.4049H95.3325V72.1615Z" fill="#818284"/>
<path d="M99.3618 72.1615H95.332V82.4049H99.3618V72.1615Z" fill="#949598"/>
<path opacity="0.9" d="M103.392 72.1615H99.3618V82.4049H103.392V72.1615Z" fill="#949598"/>
<path d="M107.421 72.1615H103.392V82.4049H107.421V72.1615Z" fill="#A7A9AB"/>
<path opacity="0.9" d="M109.436 82.4045H105.407V92.6478H109.436V82.4045Z" fill="#A7A9AB"/>
<path d="M113.466 82.4045H109.436V92.6478H113.466V82.4045Z" fill="#BCBEC0"/>
<path d="M117.489 82.4045H113.459V92.6478H117.489V82.4045Z" fill="#D1D3D4"/>
<path d="M121.519 82.4045H117.489V92.6478H121.519V82.4045Z" fill="#E6E7E8"/>
<path opacity="0.95" d="M81.2348 102.892H77.2051V113.135H81.2348V102.892Z" fill="#6D6E71"/>
<path d="M77.205 102.892H73.1753V113.135H77.205V102.892Z" fill="#6D6E71"/>
<path opacity="0.9" d="M77.205 123.378H73.1753V133.622H77.205V123.378Z" fill="#58595B"/>
<path d="M85.2646 102.892H81.2349V113.135H85.2646V102.892Z" fill="#818284"/>
<path opacity="0.95" d="M89.2944 102.892H85.2646V113.135H89.2944V102.892Z" fill="#818284"/>
<path opacity="0.9" d="M93.3173 102.892H89.2876V113.135H93.3173V102.892Z" fill="#818284"/>
<path opacity="0.9" d="M117.489 102.892H113.459V113.135H117.489V102.892Z" fill="#BCBEC0"/>
<path d="M97.3471 102.892H93.3174V113.135H97.3471V102.892Z" fill="#949598"/>
<path opacity="0.9" d="M101.377 102.892H97.3472V113.135H101.377V102.892Z" fill="#949598"/>
<path d="M105.407 102.892H101.377V113.135H105.407V102.892Z" fill="#A7A9AB"/>
<path d="M113.466 102.892H109.436V113.135H113.466V102.892Z" fill="#BCBEC0"/>
<path opacity="0.9" d="M109.436 102.892H105.407V113.135H109.436V102.892Z" fill="#A7A9AB"/>
<path d="M129.579 123.378H125.549V133.622H129.579V123.378Z" fill="#F1F2F2"/>
<path d="M121.519 102.892H117.489V113.135H121.519V102.892Z" fill="#D1D3D4"/>
<path d="M129.579 102.892H125.549V113.135H129.579V102.892Z" fill="#F1F2F2"/>
<path d="M125.548 102.892H121.519V113.135H125.548V102.892Z" fill="#E6E7E8"/>
<path d="M79.2202 113.135H75.1904V123.378H79.2202V113.135Z" fill="#6D6E71"/>
<path opacity="0.9" d="M83.2499 113.135H79.2202V123.378H83.2499V113.135Z" fill="#6D6E71"/>
<path d="M87.2792 113.135H83.2495V123.378H87.2792V113.135Z" fill="#818284"/>
<path opacity="0.95" d="M91.3095 113.135H87.2798V123.378H91.3095V113.135Z" fill="#818284"/>
<path opacity="0.9" d="M95.3325 113.135H91.3027V123.378H95.3325V113.135Z" fill="#818284"/>
<path d="M99.3618 113.135H95.332V123.378H99.3618V113.135Z" fill="#949598"/>
<path opacity="0.9" d="M103.392 113.135H99.3618V123.378H103.392V113.135Z" fill="#949598"/>
<path d="M107.421 113.135H103.392V123.378H107.421V113.135Z" fill="#A7A9AB"/>
<path opacity="0.9" d="M111.451 113.135H107.421V123.378H111.451V113.135Z" fill="#A7A9AB"/>
<path d="M115.481 113.135H111.451V123.378H115.481V113.135Z" fill="#BCBEC0"/>
<path opacity="0.9" d="M119.504 113.135H115.474V123.378H119.504V113.135Z" fill="#BCBEC0"/>
<path d="M123.534 113.135H119.504V123.378H123.534V113.135Z" fill="#D1D3D4"/>
<path d="M131.593 113.135H127.563V123.378H131.593V113.135Z" fill="#F1F2F2"/>
<path d="M127.563 113.135H123.533V123.378H127.563V113.135Z" fill="#E6E7E8"/>
<path d="M79.2202 92.6481H75.1904V102.891H79.2202V92.6481Z" fill="#6D6E71"/>
<path d="M83.2499 92.6481H79.2202V102.891H83.2499V92.6481Z" fill="#818284"/>
<path opacity="0.95" d="M87.2792 92.6481H83.2495V102.891H87.2792V92.6481Z" fill="#818284"/>
<path opacity="0.9" d="M91.3095 92.6481H87.2798V102.891H91.3095V92.6481Z" fill="#818284"/>
<path d="M95.3325 92.6481H91.3027V102.891H95.3325V92.6481Z" fill="#949598"/>
<path opacity="0.9" d="M99.3618 92.6481H95.332V102.891H99.3618V92.6481Z" fill="#949598"/>
<path d="M103.392 92.6481H99.3618V102.891H103.392V92.6481Z" fill="#A7A9AB"/>
<path opacity="0.9" d="M107.421 92.6481H103.392V102.891H107.421V92.6481Z" fill="#A7A9AB"/>
<path opacity="0.9" d="M111.451 92.6481H107.421V102.891H111.451V92.6481Z" fill="#BCBEC0"/>
<path opacity="0.8" d="M115.481 92.6481H111.451V102.891H115.481V92.6481Z" fill="#BCBEC0"/>
<path d="M119.504 92.6481H115.474V102.891H119.504V92.6481Z" fill="#D1D3D4"/>
<path d="M123.534 92.6481H119.504V102.891H123.534V92.6481Z" fill="#E6E7E8"/>
<path d="M127.563 92.6481H123.533V102.891H127.563V92.6481Z" fill="#F1F2F2"/>
<path opacity="0.95" d="M81.2348 123.378H77.2051V133.622H81.2348V123.378Z" fill="#6D6E71"/>
<path opacity="0.9" d="M79.2202 133.621H75.1904V143.865H79.2202V133.621Z" fill="#58595B"/>
<path opacity="0.95" d="M83.2499 133.621H79.2202V143.865H83.2499V133.621Z" fill="#6D6E71"/>
<path opacity="0.9" d="M87.2792 133.621H83.2495V143.865H87.2792V133.621Z" fill="#6D6E71"/>
<path d="M91.3095 133.621H87.2798V143.865H91.3095V133.621Z" fill="#818284"/>
<path opacity="0.95" d="M95.3325 133.621H91.3027V143.865H95.3325V133.621Z" fill="#818284"/>
<path opacity="0.9" d="M99.3618 133.621H95.332V143.865H99.3618V133.621Z" fill="#818284"/>
<path d="M123.534 133.621H119.504V143.865H123.534V133.621Z" fill="#D1D3D4"/>
<path d="M103.392 133.621H99.3618V143.865H103.392V133.621Z" fill="#949598"/>
<path opacity="0.9" d="M107.421 133.621H103.392V143.865H107.421V133.621Z" fill="#949598"/>
<path d="M111.451 133.621H107.421V143.865H111.451V133.621Z" fill="#A7A9AB"/>
<path d="M119.504 133.621H115.474V143.865H119.504V133.621Z" fill="#BCBEC0"/>
<path opacity="0.9" d="M115.481 133.621H111.451V143.865H115.481V133.621Z" fill="#A7A9AB"/>
<path d="M127.563 133.621H123.533V143.865H127.563V133.621Z" fill="#E6E7E8"/>
<path d="M131.593 133.621H127.563V143.865H131.593V133.621Z" fill="#F1F2F2"/>
<path opacity="0.95" d="M81.2348 143.865H77.2051V154.108H81.2348V143.865Z" fill="#6D6E71"/>
<path opacity="0.9" d="M85.2646 143.865H81.2349V154.108H85.2646V143.865Z" fill="#6D6E71"/>
<path opacity="0.9" d="M77.205 143.865H73.1753V154.108H77.205V143.865Z" fill="#58595B"/>
<path d="M89.2944 143.865H85.2646V154.108H89.2944V143.865Z" fill="#818284"/>
<path opacity="0.95" d="M93.3173 143.865H89.2876V154.108H93.3173V143.865Z" fill="#818284"/>
<path opacity="0.9" d="M97.3471 143.865H93.3174V154.108H97.3471V143.865Z" fill="#818284"/>
<path d="M101.377 143.865H97.3472V154.108H101.377V143.865Z" fill="#949598"/>
<path opacity="0.9" d="M105.407 143.865H101.377V154.108H105.407V143.865Z" fill="#949598"/>
<path d="M109.436 143.865H105.407V154.108H109.436V143.865Z" fill="#A7A9AB"/>
<path opacity="0.9" d="M113.466 143.865H109.436V154.108H113.466V143.865Z" fill="#A7A9AB"/>
<path d="M117.489 143.865H113.459V154.108H117.489V143.865Z" fill="#BCBEC0"/>
<path d="M121.519 143.865H117.489V154.108H121.519V143.865Z" fill="#D1D3D4"/>
<path d="M125.548 143.865H121.519V154.108H125.548V143.865Z" fill="#E6E7E8"/>
<path d="M129.579 143.865H125.549V154.108H129.579V143.865Z" fill="#F1F2F2"/>
<path opacity="0.9" d="M85.2646 123.378H81.2349V133.622H85.2646V123.378Z" fill="#6D6E71"/>
<path d="M89.2944 123.378H85.2646V133.622H89.2944V123.378Z" fill="#818284"/>
<path opacity="0.95" d="M93.3173 123.378H89.2876V133.622H93.3173V123.378Z" fill="#818284"/>
<path opacity="0.9" d="M97.3471 123.378H93.3174V133.622H97.3471V123.378Z" fill="#818284"/>
<path d="M101.377 123.378H97.3472V133.622H101.377V123.378Z" fill="#949598"/>
<path opacity="0.9" d="M105.407 123.378H101.377V133.622H105.407V123.378Z" fill="#949598"/>
<path d="M109.436 123.378H105.407V133.622H109.436V123.378Z" fill="#A7A9AB"/>
<path opacity="0.9" d="M113.466 123.378H109.436V133.622H113.466V123.378Z" fill="#A7A9AB"/>
<path d="M117.489 123.378H113.459V133.622H117.489V123.378Z" fill="#BCBEC0"/>
<path opacity="0.9" d="M121.519 123.378H117.489V133.622H121.519V123.378Z" fill="#BCBEC0"/>
<path d="M125.548 123.378H121.519V133.622H125.548V123.378Z" fill="#E6E7E8"/>
<path opacity="0.9" d="M75.1904 154.108H71.1606V164.352H75.1904V154.108Z" fill="#58595B"/>
<path opacity="0.95" d="M79.2202 154.108H75.1904V164.352H79.2202V154.108Z" fill="#6D6E71"/>
<path opacity="0.9" d="M83.2499 154.108H79.2202V164.352H83.2499V154.108Z" fill="#6D6E71"/>
<path d="M87.2792 154.108H83.2495V164.352H87.2792V154.108Z" fill="#818284"/>
<path opacity="0.95" d="M91.3095 154.108H87.2798V164.352H91.3095V154.108Z" fill="#818284"/>
<path opacity="0.9" d="M95.3325 154.108H91.3027V164.352H95.3325V154.108Z" fill="#818284"/>
<path opacity="0.9" d="M119.504 154.108H115.474V164.352H119.504V154.108Z" fill="#BCBEC0"/>
<path d="M99.3618 154.108H95.332V164.352H99.3618V154.108Z" fill="#949598"/>
<path opacity="0.9" d="M103.392 154.108H99.3618V164.352H103.392V154.108Z" fill="#949598"/>
<path d="M107.421 154.108H103.392V164.352H107.421V154.108Z" fill="#A7A9AB"/>
<path d="M115.481 154.108H111.451V164.352H115.481V154.108Z" fill="#BCBEC0"/>
<path opacity="0.9" d="M111.451 154.108H107.421V164.352H111.451V154.108Z" fill="#A7A9AB"/>
<path d="M123.534 154.108H119.504V164.352H123.534V154.108Z" fill="#D1D3D4"/>
<path d="M131.593 154.108H127.563V164.352H131.593V154.108Z" fill="#F1F2F2"/>
<path d="M127.563 154.108H123.533V164.352H127.563V154.108Z" fill="#E6E7E8"/>
<path opacity="0.9" d="M77.205 164.351H73.1753V174.595H77.205V164.351Z" fill="#58595B"/>
<path opacity="0.95" d="M81.2348 164.351H77.2051V174.595H81.2348V164.351Z" fill="#6D6E71"/>
<path d="M73.1752 164.351H69.1455V174.595H73.1752V164.351Z" fill="#58595B"/>
<path opacity="0.9" d="M85.2646 164.351H81.2349V174.595H85.2646V164.351Z" fill="#6D6E71"/>
<path d="M89.2944 164.351H85.2646V174.595H89.2944V164.351Z" fill="#818284"/>
<path opacity="0.95" d="M93.3173 164.351H89.2876V174.595H93.3173V164.351Z" fill="#818284"/>
<path opacity="0.9" d="M97.3471 164.351H93.3174V174.595H97.3471V164.351Z" fill="#818284"/>
<path opacity="0.95" d="M101.377 164.351H97.3472V174.595H101.377V164.351Z" fill="#949598"/>
<path opacity="0.9" d="M105.407 164.351H101.377V174.595H105.407V164.351Z" fill="#949598"/>
<path d="M109.436 164.351H105.407V174.595H109.436V164.351Z" fill="#A7A9AB"/>
<path opacity="0.9" d="M75.1904 174.602H71.1606V184.845H75.1904V174.602Z" fill="#58595B"/>
<path opacity="0.95" d="M79.2202 174.602H75.1904V184.845H79.2202V174.602Z" fill="#6D6E71"/>
<path d="M71.1606 174.602H67.1309V184.845H71.1606V174.602Z" fill="#58595B"/>
<path opacity="0.9" d="M83.2499 174.602H79.2202V184.845H83.2499V174.602Z" fill="#6D6E71"/>
<path d="M87.2792 174.602H83.2495V184.845H87.2792V174.602Z" fill="#818284"/>
<path opacity="0.95" d="M91.3095 174.602H87.2798V184.845H91.3095V174.602Z" fill="#818284"/>
<path opacity="0.9" d="M95.3325 174.602H91.3027V184.845H95.3325V174.602Z" fill="#818284"/>
<path opacity="0.9" d="M73.1752 184.845H69.1455V195.089H73.1752V184.845Z" fill="#58595B"/>
<path opacity="0.95" d="M77.205 184.845H73.1753V195.089H77.205V184.845Z" fill="#6D6E71"/>
<path d="M69.1523 184.845H65.1226V195.089H69.1523V184.845Z" fill="#58595B"/>
<path opacity="0.9" d="M81.2348 184.845H77.2051V195.089H81.2348V184.845Z" fill="#6D6E71"/>
<path d="M85.2646 184.845H81.2349V195.089H85.2646V184.845Z" fill="#818284"/>
<path opacity="0.9" d="M83.2499 195.088H79.2202V205.332H83.2499V195.088Z" fill="#6D6E71"/>
<path opacity="0.9" d="M81.2348 205.332H77.2051V215.575H81.2348V205.332Z" fill="#6D6E71"/>
<path d="M87.2792 195.088H83.2495V205.332H87.2792V195.088Z" fill="#818284"/>
<path opacity="0.95" d="M89.2944 184.845H85.2646V195.089H89.2944V184.845Z" fill="#818284"/>
<path opacity="0.9" d="M93.3173 184.845H89.2876V195.089H93.3173V184.845Z" fill="#818284"/>
<path opacity="0.95" d="M99.3618 174.602H95.332V184.845H99.3618V174.602Z" fill="#949598"/>
<path opacity="0.9" d="M103.392 174.602H99.3618V184.845H103.392V174.602Z" fill="#949598"/>
<path d="M107.421 174.602H103.392V184.845H107.421V174.602Z" fill="#A7A9AB"/>
<path d="M113.466 164.351H109.436V174.595H113.466V164.351Z" fill="#BCBEC0"/>
<path opacity="0.9" d="M117.489 164.351H113.459V174.595H117.489V164.351Z" fill="#BCBEC0"/>
<path opacity="0.9" d="M73.1752 266.792H69.1455V277.036H73.1752V266.792Z" fill="#414042"/>
<path d="M69.1523 266.792H65.1226V277.036H69.1523V266.792Z" fill="#414042"/>
<path opacity="0.9" d="M71.1606 256.549H67.1309V266.792H71.1606V256.549Z" fill="#414042"/>
<path d="M67.1377 256.549H63.1079V266.792H67.1377V256.549Z" fill="#414042"/>
<path d="M71.1606 195.088H67.1309V205.332H71.1606V195.088Z" fill="#58595B"/>
<path d="M67.1377 195.088H63.1079V205.332H67.1377V195.088Z" fill="#414042"/>
<path opacity="0.9" d="M75.1904 195.088H71.1606V205.332H75.1904V195.088Z" fill="#58595B"/>
<path opacity="0.8" d="M79.2202 195.088H75.1904V205.332H79.2202V195.088Z" fill="#58595B"/>
<path d="M69.1523 205.332H65.1226V215.575H69.1523V205.332Z" fill="#58595B"/>
<path opacity="0.95" d="M73.1752 205.332H69.1455V215.575H73.1752V205.332Z" fill="#58595B"/>
<path opacity="0.9" d="M77.205 205.332H73.1753V215.575H77.205V205.332Z" fill="#58595B"/>
<path opacity="0.9" d="M67.1377 215.576H63.1079V225.819H67.1377V215.576Z" fill="#414042"/>
<path opacity="0.95" d="M71.1606 215.576H67.1309V225.819H71.1606V215.576Z" fill="#58595B"/>
<path opacity="0.85" d="M75.1904 215.576H71.1606V225.819H75.1904V215.576Z" fill="#58595B"/>
<path d="M65.1225 246.305H61.0928V256.548H65.1225V246.305Z" fill="#414042"/>
<path opacity="0.9" d="M69.1523 246.305H65.1226V256.548H69.1523V246.305Z" fill="#414042"/>
<path d="M73.1752 246.305H69.1455V256.548H73.1752V246.305Z" fill="#58595B"/>
<path opacity="0.9" d="M67.1377 236.062H63.1079V246.306H67.1377V236.062Z" fill="#414042"/>
<path d="M71.1606 236.062H67.1309V246.306H71.1606V236.062Z" fill="#58595B"/>
<path opacity="0.9" d="M69.1523 225.819H65.1226V236.062H69.1523V225.819Z" fill="#414042"/>
<path d="M73.1752 225.819H69.1455V236.062H73.1752V225.819Z" fill="#58595B"/>
</g>
<mask id="mask1_278_86777" style="mask-type:luminance" maskUnits="userSpaceOnUse" x="69" y="113" width="156" height="192">
<path d="M224.885 157.901C224.885 190.741 119.626 159.233 119.626 305L69.1187 275.838C69.1187 130.071 224.885 156.637 224.885 113.574V160.463" fill="white"/>
</mask>
<g mask="url(#mask1_278_86777)">
<path d="M209.261 138.901H205.231V149.145H209.261V138.901Z" fill="#F1F2F2"/>
<path d="M195.156 128.658H191.126V138.901H195.156V128.658Z" fill="#BCBEC0"/>
<path opacity="0.9" d="M199.186 128.658H195.156V138.901H199.186V128.658Z" fill="#BCBEC0"/>
<path d="M203.216 128.658H199.186V138.901H203.216V128.658Z" fill="#D1D3D4"/>
<path d="M211.275 128.658H207.246V138.901H211.275V128.658Z" fill="#F1F2F2"/>
<path d="M207.246 128.658H203.216V138.901H207.246V128.658Z" fill="#E6E7E8"/>
<path opacity="0.9" d="M166.961 149.145H162.932V159.388H166.961V149.145Z" fill="#6D6E71"/>
<path d="M170.985 149.145H166.955V159.388H170.985V149.145Z" fill="#818284"/>
<path opacity="0.95" d="M175.015 149.145H170.985V159.388H175.015V149.145Z" fill="#818284"/>
<path opacity="0.9" d="M179.044 149.145H175.014V159.388H179.044V149.145Z" fill="#818284"/>
<path d="M203.216 149.145H199.186V159.388H203.216V149.145Z" fill="#D1D3D4"/>
<path d="M183.074 149.145H179.044V159.388H183.074V149.145Z" fill="#949598"/>
<path opacity="0.9" d="M187.103 149.145H183.074V159.388H187.103V149.145Z" fill="#949598"/>
<path d="M191.126 149.145H187.097V159.388H191.126V149.145Z" fill="#A7A9AB"/>
<path d="M199.186 149.145H195.156V159.388H199.186V149.145Z" fill="#BCBEC0"/>
<path opacity="0.9" d="M195.156 149.145H191.126V159.388H195.156V149.145Z" fill="#A7A9AB"/>
<path d="M207.246 149.145H203.216V159.388H207.246V149.145Z" fill="#E6E7E8"/>
<path d="M211.275 149.145H207.246V159.388H211.275V149.145Z" fill="#F1F2F2"/>
<path opacity="0.9" d="M164.947 159.388H160.917V169.631H164.947V159.388Z" fill="#6D6E71"/>
<path d="M168.97 159.388H164.94V169.631H168.97V159.388Z" fill="#818284"/>
<path opacity="0.95" d="M173 159.388H168.97V169.631H173V159.388Z" fill="#818284"/>
<path opacity="0.9" d="M177.029 159.388H173V169.631H177.029V159.388Z" fill="#818284"/>
<path d="M181.059 159.388H177.029V169.631H181.059V159.388Z" fill="#949598"/>
<path opacity="0.9" d="M185.089 159.388H181.059V169.631H185.089V159.388Z" fill="#949598"/>
<path d="M189.119 159.388H185.089V169.631H189.119V159.388Z" fill="#A7A9AB"/>
<path opacity="0.9" d="M193.141 159.388H189.111V169.631H193.141V159.388Z" fill="#A7A9AB"/>
<path d="M197.171 159.388H193.142V169.631H197.171V159.388Z" fill="#BCBEC0"/>
<path d="M201.201 159.388H197.171V169.631H201.201V159.388Z" fill="#D1D3D4"/>
<path d="M205.23 159.388H201.201V169.631H205.23V159.388Z" fill="#E6E7E8"/>
<path d="M209.261 159.388H205.231V169.631H209.261V159.388Z" fill="#F1F2F2"/>
<path d="M211.275 169.638H207.246V179.882H211.275V169.638Z" fill="#F1F2F2"/>
<path opacity="0.9" d="M164.947 138.901H160.917V149.145H164.947V138.901Z" fill="#6D6E71"/>
<path d="M168.97 138.901H164.94V149.145H168.97V138.901Z" fill="#818284"/>
<path opacity="0.95" d="M173 138.901H168.97V149.145H173V138.901Z" fill="#818284"/>
<path opacity="0.9" d="M177.029 138.901H173V149.145H177.029V138.901Z" fill="#818284"/>
<path d="M181.059 138.901H177.029V149.145H181.059V138.901Z" fill="#949598"/>
<path opacity="0.9" d="M185.089 138.901H181.059V149.145H185.089V138.901Z" fill="#949598"/>
<path d="M189.119 138.901H185.089V149.145H189.119V138.901Z" fill="#A7A9AB"/>
<path opacity="0.9" d="M193.141 138.901H189.111V149.145H193.141V138.901Z" fill="#A7A9AB"/>
<path d="M197.171 138.901H193.142V149.145H197.171V138.901Z" fill="#BCBEC0"/>
<path opacity="0.9" d="M201.201 138.901H197.171V149.145H201.201V138.901Z" fill="#BCBEC0"/>
<path d="M205.23 138.901H201.201V149.145H205.23V138.901Z" fill="#E6E7E8"/>
<path d="M166.961 169.638H162.932V179.882H166.961V169.638Z" fill="#818284"/>
<path opacity="0.95" d="M170.985 169.638H166.955V179.882H170.985V169.638Z" fill="#818284"/>
<path opacity="0.9" d="M175.015 169.638H170.985V179.882H175.015V169.638Z" fill="#818284"/>
<path opacity="0.9" d="M199.186 169.638H195.156V179.882H199.186V169.638Z" fill="#BCBEC0"/>
<path d="M143.162 149.145H139.132V159.388H143.162V149.145Z" fill="#BCBEC0"/>
<path d="M143.162 169.638H139.132V179.882H143.162V169.638Z" fill="#BCBEC0"/>
<path d="M141.154 179.882H137.124V190.125H141.154V179.882Z" fill="#BCBEC0"/>
<path d="M141.154 159.388H137.124V169.631H141.154V159.388Z" fill="#BCBEC0"/>
<path opacity="0.9" d="M143.162 190.125H139.132V200.368H143.162V190.125Z" fill="#BCBEC0"/>
<path opacity="0.9" d="M144.988 200.368H140.958V210.612H144.988V200.368Z" fill="#BCBEC0"/>
<path opacity="0.9" d="M223.358 128.658H219.328V138.901H223.358V128.658Z" fill="#BCBEC0"/>
<path d="M223.358 149.145H219.328V159.388H223.358V149.145Z" fill="#BCBEC0"/>
<path d="M221.343 159.388H217.313V169.631H221.343V159.388Z" fill="#BCBEC0"/>
<path d="M221.343 138.901H217.313V149.145H221.343V138.901Z" fill="#BCBEC0"/>
<path opacity="0.9" d="M223.358 169.638H219.328V179.882H223.358V169.638Z" fill="#BCBEC0"/>
<path d="M179.044 169.638H175.014V179.882H179.044V169.638Z" fill="#949598"/>
<path opacity="0.9" d="M183.074 169.638H179.044V179.882H183.074V169.638Z" fill="#949598"/>
<path d="M187.103 169.638H183.074V179.882H187.103V169.638Z" fill="#A7A9AB"/>
<path d="M195.156 169.638H191.126V179.882H195.156V169.638Z" fill="#BCBEC0"/>
<path d="M227.387 128.658H223.357V138.901H227.387V128.658Z" fill="#BCBEC0"/>
<path opacity="0.9" d="M227.387 149.145H223.357V159.388H227.387V149.145Z" fill="#A7A9AB"/>
<path opacity="0.9" d="M225.373 159.388H221.343V169.631H225.373V159.388Z" fill="#A7A9AB"/>
<path opacity="0.9" d="M225.373 138.901H221.343V149.145H225.373V138.901Z" fill="#A7A9AB"/>
<path d="M227.387 169.638H223.357V179.882H227.387V169.638Z" fill="#BCBEC0"/>
<path opacity="0.9" d="M191.126 169.638H187.097V179.882H191.126V169.638Z" fill="#A7A9AB"/>
<path d="M203.216 169.638H199.186V179.882H203.216V169.638Z" fill="#D1D3D4"/>
<path d="M139.139 149.145H135.109V159.388H139.139V149.145Z" fill="#D1D3D4"/>
<path d="M139.139 169.638H135.109V179.882H139.139V169.638Z" fill="#D1D3D4"/>
<path d="M137.124 179.882H133.095V190.125H137.124V179.882Z" fill="#D1D3D4"/>
<path opacity="0.9" d="M137.124 159.388H133.095V169.631H137.124V159.388Z" fill="#BCBEC0"/>
<path d="M139.139 190.125H135.109V200.368H139.139V190.125Z" fill="#D1D3D4"/>
<path d="M140.965 200.368H136.935V210.612H140.965V200.368Z" fill="#D1D3D4"/>
<path d="M142.79 210.612H138.76V220.855H142.79V210.612Z" fill="#D1D3D4"/>
<path d="M219.328 128.658H215.298V138.901H219.328V128.658Z" fill="#D1D3D4"/>
<path opacity="0.9" d="M225.373 118.415H221.343V128.658H225.373V118.415Z" fill="#BCBEC0"/>
<path d="M221.343 118.415H217.313V128.658H221.343V118.415Z" fill="#D1D3D4"/>
<path d="M227.387 108.448H223.357V118.692H227.387V108.448Z" fill="#D1D3D4"/>
<path d="M219.328 149.145H215.298V159.388H219.328V149.145Z" fill="#D1D3D4"/>
<path d="M217.313 159.388H213.283V169.631H217.313V159.388Z" fill="#D1D3D4"/>
<path opacity="0.9" d="M217.313 138.901H213.283V149.145H217.313V138.901Z" fill="#BCBEC0"/>
<path d="M219.328 169.638H215.298V179.882H219.328V169.638Z" fill="#D1D3D4"/>
<path d="M207.246 169.638H203.216V179.882H207.246V169.638Z" fill="#E6E7E8"/>
<path d="M135.109 169.638H131.079V179.882H135.109V169.638Z" fill="#E6E7E8"/>
<path d="M133.094 159.388H129.064V169.631H133.094V159.388Z" fill="#E6E7E8"/>
<path d="M135.109 190.125H131.079V200.368H135.109V190.125Z" fill="#E6E7E8"/>
<path d="M136.935 200.368H132.905V210.612H136.935V200.368Z" fill="#E6E7E8"/>
<path d="M133.094 179.882H129.064V190.125H133.094V179.882Z" fill="#E6E7E8"/>
<path d="M138.76 210.612H134.73V220.855H138.76V210.612Z" fill="#E6E7E8"/>
<path d="M215.298 128.658H211.269V138.901H215.298V128.658Z" fill="#E6E7E8"/>
<path d="M215.298 149.145H211.269V159.388H215.298V149.145Z" fill="#E6E7E8"/>
<path d="M213.284 159.388H209.254V169.631H213.284V159.388Z" fill="#E6E7E8"/>
<path d="M213.284 138.901H209.254V149.145H213.284V138.901Z" fill="#E6E7E8"/>
<path d="M215.298 169.638H211.269V179.882H215.298V169.638Z" fill="#E6E7E8"/>
<path opacity="0.9" d="M112.946 231.099H116.976V220.855H112.946V231.099Z" fill="#BCBEC0"/>
<path d="M112.946 210.611H116.976V200.368H112.946V210.611Z" fill="#BCBEC0"/>
<path d="M114.961 200.368H118.99V190.125H114.961V200.368Z" fill="#BCBEC0"/>
<path d="M114.961 220.855H118.99V210.612H114.961V220.855Z" fill="#BCBEC0"/>
<path opacity="0.9" d="M112.946 190.118H116.976V179.875H112.946V190.118Z" fill="#BCBEC0"/>
<path d="M108.916 231.099H112.946V220.855H108.916V231.099Z" fill="#BCBEC0"/>
<path opacity="0.9" d="M108.916 210.611H112.946V200.368H108.916V210.611Z" fill="#A7A9AB"/>
<path opacity="0.9" d="M110.931 200.368H114.96V190.125H110.931V200.368Z" fill="#A7A9AB"/>
<path opacity="0.9" d="M110.931 220.855H114.96V210.612H110.931V220.855Z" fill="#A7A9AB"/>
<path d="M108.916 190.118H112.946V179.875H108.916V190.118Z" fill="#BCBEC0"/>
<path d="M116.982 231.099H121.012V220.855H116.982V231.099Z" fill="#D1D3D4"/>
<path opacity="0.9" d="M110.931 241.342H114.96V231.098H110.931V241.342Z" fill="#BCBEC0"/>
<path opacity="0.9" d="M104.893 231.099H108.923V220.855H104.893V231.099Z" fill="#949598"/>
<path opacity="0.9" d="M104.893 210.611H108.923V200.368H104.893V210.611Z" fill="#949598"/>
<path opacity="0.9" d="M106.908 200.368H110.938V190.125H106.908V200.368Z" fill="#949598"/>
<path opacity="0.9" d="M106.908 220.855H110.938V210.612H106.908V220.855Z" fill="#949598"/>
<path opacity="0.9" d="M104.893 190.118H108.923V179.875H104.893V190.118Z" fill="#949598"/>
<path opacity="0.9" d="M106.908 179.875H110.938V169.631H106.908V179.875Z" fill="#949598"/>
<path opacity="0.9" d="M106.908 241.342H110.938V231.098H106.908V241.342Z" fill="#949598"/>
<path d="M114.961 241.342H118.99V231.098H114.961V241.342Z" fill="#D1D3D4"/>
<path d="M116.982 210.611H121.012V200.368H116.982V210.611Z" fill="#D1D3D4"/>
<path d="M118.997 200.368H123.027V190.125H118.997V200.368Z" fill="#D1D3D4"/>
<path d="M118.997 220.855H123.027V210.612H118.997V220.855Z" fill="#D1D3D4"/>
<path d="M116.982 190.118H121.012V179.875H116.982V190.118Z" fill="#D1D3D4"/>
<path d="M121.005 231.099H125.035V220.855H121.005V231.099Z" fill="#E6E7E8"/>
<path d="M121.005 210.611H125.035V200.368H121.005V210.611Z" fill="#E6E7E8"/>
<path d="M123.02 200.368H127.05V190.125H123.02V200.368Z" fill="#E6E7E8"/>
<path d="M123.02 220.855H127.05V210.612H123.02V220.855Z" fill="#E6E7E8"/>
<path opacity="0.8" d="M125.035 231.099H129.064V220.855H125.035V231.099Z" fill="#E6E7E8"/>
<path d="M121.005 190.118H125.035V179.875H121.005V190.118Z" fill="#E6E7E8"/>
<path opacity="0.9" d="M114.961 179.875H118.99V169.631H114.961V179.875Z" fill="#BCBEC0"/>
<path d="M110.931 179.875H114.96V169.631H110.931V179.875Z" fill="#BCBEC0"/>
<path d="M118.997 179.875H123.027V169.631H118.997V179.875Z" fill="#D1D3D4"/>
<path d="M123.02 179.875H127.05V169.631H123.02V179.875Z" fill="#E6E7E8"/>
<path d="M121.005 169.638H125.035V159.395H121.005V169.638Z" fill="#E6E7E8"/>
<path opacity="0.9" d="M164.947 179.882H160.917V190.125H164.947V179.882Z" fill="#6D6E71"/>
<path d="M168.97 179.882H164.94V190.125H168.97V179.882Z" fill="#818284"/>
<path opacity="0.95" d="M173 179.882H168.97V190.125H173V179.882Z" fill="#818284"/>
<path opacity="0.95" d="M158.902 149.145H154.873V159.388H158.902V149.145Z" fill="#818284"/>
<path opacity="0.95" d="M156.887 159.388H152.857V169.631H156.887V159.388Z" fill="#818284"/>
<path opacity="0.95" d="M156.887 138.901H152.857V149.145H156.887V138.901Z" fill="#818284"/>
<path opacity="0.9" d="M158.902 169.638H154.873V179.882H158.902V169.638Z" fill="#818284"/>
<path opacity="0.9" d="M158.902 190.125H154.873V200.368H158.902V190.125Z" fill="#818284"/>
<path opacity="0.95" d="M156.887 179.882H152.857V190.125H156.887V179.882Z" fill="#818284"/>
<path opacity="0.95" d="M170.985 190.125H166.955V200.368H170.985V190.125Z" fill="#818284"/>
<path d="M162.932 149.145H158.902V159.388H162.932V149.145Z" fill="#818284"/>
<path d="M160.917 159.388H156.887V169.631H160.917V159.388Z" fill="#818284"/>
<path d="M160.917 138.901H156.887V149.145H160.917V138.901Z" fill="#818284"/>
<path opacity="0.95" d="M162.932 169.638H158.902V179.882H162.932V169.638Z" fill="#818284"/>
<path d="M160.917 179.882H156.887V190.125H160.917V179.882Z" fill="#818284"/>
<path opacity="0.95" d="M162.932 190.125H158.902V200.368H162.932V190.125Z" fill="#818284"/>
<path opacity="0.9" d="M177.029 179.882H173V190.125H177.029V179.882Z" fill="#818284"/>
<path opacity="0.95" d="M181.059 179.882H177.029V190.125H181.059V179.882Z" fill="#949598"/>
<path opacity="0.9" d="M151.222 149.145H147.192V159.388H151.222V149.145Z" fill="#949598"/>
<path opacity="0.9" d="M149.206 159.388H145.177V169.631H149.206V159.388Z" fill="#949598"/>
<path opacity="0.9" d="M149.206 138.901H145.177V149.145H149.206V138.901Z" fill="#949598"/>
<path opacity="0.9" d="M150.843 169.638H146.813V179.882H150.843V169.638Z" fill="#949598"/>
<path opacity="0.9" d="M149.017 179.882H144.987V190.125H149.017V179.882Z" fill="#949598"/>
<path opacity="0.9" d="M150.843 190.125H146.813V200.368H150.843V190.125Z" fill="#949598"/>
<path opacity="0.9" d="M152.857 200.368H148.828V210.612H152.857V200.368Z" fill="#949598"/>
<path d="M155.062 149.145H151.032V159.388H155.062V149.145Z" fill="#949598"/>
<path d="M153.047 159.388H149.018V169.631H153.047V159.388Z" fill="#949598"/>
<path d="M153.047 138.901H149.018V149.145H153.047V138.901Z" fill="#949598"/>
<path d="M154.872 169.638H150.843V179.882H154.872V169.638Z" fill="#949598"/>
<path opacity="0.95" d="M153.047 179.882H149.018V190.125H153.047V179.882Z" fill="#949598"/>
<path opacity="0.95" d="M154.872 190.125H150.843V200.368H154.872V190.125Z" fill="#949598"/>
<path opacity="0.9" d="M160.917 200.368H156.887V210.612H160.917V200.368Z" fill="#818284"/>
<path opacity="0.95" d="M156.887 200.368H152.857V210.612H156.887V200.368Z" fill="#949598"/>
<path opacity="0.9" d="M185.089 179.882H181.059V190.125H185.089V179.882Z" fill="#949598"/>
<path d="M189.119 179.882H185.089V190.125H189.119V179.882Z" fill="#A7A9AB"/>
<path d="M147.002 169.638H142.973V179.882H147.002V169.638Z" fill="#A7A9AB"/>
<path d="M144.988 179.882H140.958V190.125H144.988V179.882Z" fill="#A7A9AB"/>
<path d="M145.177 159.388H141.147V169.631H145.177V159.388Z" fill="#A7A9AB"/>
<path d="M147.191 149.145H143.162V159.388H147.191V149.145Z" fill="#A7A9AB"/>
<path d="M146.813 190.125H142.784V200.368H146.813V190.125Z" fill="#A7A9AB"/>
<path d="M149.017 200.368H144.987V210.612H149.017V200.368Z" fill="#A7A9AB"/>
<path opacity="0.9" d="M146.813 210.612H142.784V220.855H146.813V210.612Z" fill="#BCBEC0"/>
<path d="M166.961 190.125H162.932V200.368H166.961V190.125Z" fill="#818284"/>
<path d="M193.141 179.882H189.111V190.125H193.141V179.882Z" fill="#BCBEC0"/>
<path d="M106.908 231.099H102.878V241.342H106.908V231.099Z" fill="#818284"/>
<path d="M104.893 220.855H100.863V231.098H104.893V220.855Z" fill="#818284"/>
<path d="M106.908 210.612H102.878V220.855H106.908V210.612Z" fill="#818284"/>
<path d="M104.893 200.368H100.863V210.612H104.893V200.368Z" fill="#818284"/>
<path d="M106.908 190.125H102.878V200.368H106.908V190.125Z" fill="#818284"/>
<path d="M104.893 179.882H100.863V190.125H104.893V179.882Z" fill="#818284"/>
<path opacity="0.9" d="M102.878 231.099H98.8486V241.342H102.878V231.099Z" fill="#6D6E71"/>
<path opacity="0.9" d="M100.863 220.855H96.8335V231.098H100.863V220.855Z" fill="#6D6E71"/>
<path opacity="0.9" d="M102.878 210.612H98.8486V220.855H102.878V210.612Z" fill="#6D6E71"/>
<path opacity="0.9" d="M100.863 200.368H96.8335V210.612H100.863V200.368Z" fill="#6D6E71"/>
<path opacity="0.9" d="M102.878 190.125H98.8486V200.368H102.878V190.125Z" fill="#6D6E71"/>
<path d="M96.8403 220.855H92.8105V231.098H96.8403V220.855Z" fill="#6D6E71"/>
<path d="M98.8481 231.099H94.8184V241.342H98.8481V231.099Z" fill="#6D6E71"/>
<path d="M98.8481 210.612H94.8184V220.855H98.8481V210.612Z" fill="#6D6E71"/>
<path d="M96.8403 200.368H92.8105V210.612H96.8403V200.368Z" fill="#6D6E71"/>
<path d="M98.8481 190.125H94.8184V200.368H98.8481V190.125Z" fill="#6D6E71"/>
<path opacity="0.9" d="M92.8105 220.855H88.7808V231.098H92.8105V220.855Z" fill="#58595B"/>
<path opacity="0.9" d="M94.8251 210.612H90.7954V220.855H94.8251V210.612Z" fill="#58595B"/>
<path opacity="0.9" d="M92.8105 200.368H88.7808V210.612H92.8105V200.368Z" fill="#58595B"/>
<path opacity="0.9" d="M94.8251 190.125H90.7954V200.368H94.8251V190.125Z" fill="#58595B"/>
<path d="M90.7954 210.612H86.813V220.855H90.7954V210.612Z" fill="#58595B"/>
<path d="M88.7807 220.855H84.751V231.098H88.7807V220.855Z" fill="#58595B"/>
<path opacity="0.85" d="M86.8134 210.612H82.7837V220.855H86.8134V210.612Z" fill="#414042"/>
<path opacity="0.9" d="M84.7509 220.855H80.7212V231.098H84.7509V220.855Z" fill="#414042"/>
<path opacity="0.9" d="M82.7836 210.612H78.7539V220.855H82.7836V210.612Z" fill="#414042"/>
<path opacity="0.95" d="M80.7685 220.855H76.7388V231.098H80.7685V220.855Z" fill="#414042"/>
<path d="M76.7455 220.855H72.7158V231.098H76.7455V220.855Z" fill="#414042"/>
<path opacity="0.9" d="M94.8456 231.099H90.8159V241.342H94.8456V231.099Z" fill="#58595B"/>
<path d="M90.8163 231.099H86.7866V241.342H90.8163V231.099Z" fill="#58595B"/>
<path opacity="0.9" d="M86.7929 231.099H82.7632V241.342H86.7929V231.099Z" fill="#414042"/>
<path opacity="0.95" d="M82.8105 231.099H78.7808V241.342H82.8105V231.099Z" fill="#414042"/>
<path d="M78.7807 231.099H74.751V241.342H78.7807V231.099Z" fill="#414042"/>
<path opacity="0.8" d="M74.7514 231.099H70.7217V241.342H74.7514V231.099Z" fill="#221F20"/>
<path opacity="0.9" d="M84.7509 200.368H80.7212V210.612H84.7509V200.368Z" fill="#414042"/>
<path d="M88.7807 200.368H84.751V210.612H88.7807V200.368Z" fill="#58595B"/>
<path d="M90.7958 190.125H86.7661V200.368H90.7958V190.125Z" fill="#58595B"/>
<path opacity="0.9" d="M100.863 179.882H96.8335V190.125H100.863V179.882Z" fill="#6D6E71"/>
<path d="M129.064 179.882H125.035V190.125H129.064V179.882Z" fill="#F1F2F2"/>
<path d="M131.08 169.638H127.05V179.882H131.08V169.638Z" fill="#F1F2F2"/>
<path d="M129.064 159.388H125.035V169.631H129.064V159.388Z" fill="#F1F2F2"/>
<path d="M131.08 190.125H127.05V200.368H131.08V190.125Z" fill="#F1F2F2"/>
<path d="M133.094 200.368H129.064V210.612H133.094V200.368Z" fill="#F1F2F2"/>
<path d="M134.731 210.612H130.701V220.855H134.731V210.612Z" fill="#F1F2F2"/>
<path d="M140.775 220.855H136.745V231.098H140.775V220.855Z" fill="#E6E7E8"/>
<path d="M136.746 220.855H132.716V231.098H136.746V220.855Z" fill="#F1F2F2"/>
<path opacity="0.6" d="M129.064 200.368H125.035V210.612H129.064V200.368Z" fill="#F1F2F2"/>
<path opacity="0.6" d="M130.701 210.612H127.05V220.855H130.701V210.612Z" fill="#F1F2F2"/>
<path opacity="0.6" d="M132.716 220.855H128.875V231.098H132.716V220.855Z" fill="#F1F2F2"/>
<path d="M118.997 241.342H123.027V231.098H118.997V241.342Z" fill="#E6E7E8"/>
<path opacity="0.8" d="M123.02 241.342H127.05V231.098H123.02V241.342Z" fill="#E6E7E8"/>
<path d="M135.109 231.099H131.079V241.342H135.109V231.099Z" fill="#F1F2F2"/>
<path opacity="0.8" d="M131.08 231.099H127.05V241.342H131.08V231.099Z" fill="#F1F2F2"/>
<path opacity="0.9" d="M112.912 251.592H116.941V241.348H112.912V251.592Z" fill="#BCBEC0"/>
<path opacity="0.9" d="M108.889 251.592H112.918V241.348H108.889V251.592Z" fill="#949598"/>
<path d="M116.942 251.592H120.972V241.348H116.942V251.592Z" fill="#D1D3D4"/>
<path d="M108.889 241.342H104.859V251.585H108.889V241.342Z" fill="#818284"/>
<path opacity="0.9" d="M104.859 241.342H100.83V251.585H104.859V241.342Z" fill="#6D6E71"/>
<path d="M100.83 241.342H96.7998V251.585H100.83V241.342Z" fill="#6D6E71"/>
<path opacity="0.9" d="M96.8266 241.342H92.7969V251.585H96.8266V241.342Z" fill="#58595B"/>
<path d="M92.7973 241.342H88.7676V251.585H92.7973V241.342Z" fill="#58595B"/>
<path opacity="0.9" d="M88.767 241.342H84.7373V251.585H88.767V241.342Z" fill="#414042"/>
<path opacity="0.95" d="M84.7846 241.342H80.7549V251.585H84.7846V241.342Z" fill="#414042"/>
<path d="M80.7617 241.342H76.7319V251.585H80.7617V241.342Z" fill="#414042"/>
<path opacity="0.8" d="M76.7324 241.342H72.7026V251.585H76.7324V241.342Z" fill="#221F20"/>
<path opacity="0.85" d="M72.7363 241.342H68.7065V251.585H72.7363V241.342Z" fill="#221F20"/>
<path opacity="0.85" d="M74.7172 251.585H70.6875V261.829H74.7172V251.585Z" fill="#221F20"/>
<path opacity="0.85" d="M76.7324 261.829H72.7026V272.072H76.7324V261.829Z" fill="#221F20"/>
<path opacity="0.85" d="M78.747 272.078H74.7173V282.322H78.747V272.078Z" fill="#221F20"/>
<path opacity="0.9" d="M72.7026 261.829H68.6729V272.072H72.7026V261.829Z" fill="#221F20"/>
<path opacity="0.95" d="M70.6875 272.078H66.6577V282.322H70.6875V272.078Z" fill="#221F20"/>
<path opacity="0.9" d="M74.7172 272.078H70.6875V282.322H74.7172V272.078Z" fill="#221F20"/>
<path opacity="0.9" d="M70.6875 251.585H66.6577V261.829H70.6875V251.585Z" fill="#221F20"/>
<path d="M120.965 251.592H124.995V241.348H120.965V251.592Z" fill="#E6E7E8"/>
<path opacity="0.8" d="M124.994 251.592H129.024V241.348H124.994V251.592Z" fill="#E6E7E8"/>
<path d="M137.083 241.342H133.054V251.585H137.083V241.342Z" fill="#F1F2F2"/>
<path opacity="0.8" d="M133.054 241.342H129.024V251.585H133.054V241.342Z" fill="#F1F2F2"/>
<path opacity="0.9" d="M114.926 261.835H118.956V251.592H114.926V261.835Z" fill="#BCBEC0"/>
<path opacity="0.9" d="M110.897 261.835H114.927V251.592H110.897V261.835Z" fill="#949598"/>
<path d="M118.957 261.835H122.986V251.592H118.957V261.835Z" fill="#D1D3D4"/>
<path d="M110.897 251.585H106.867V261.829H110.897V251.585Z" fill="#818284"/>
<path opacity="0.9" d="M106.874 251.585H102.844V261.829H106.874V251.585Z" fill="#6D6E71"/>
<path d="M102.845 251.585H98.8149V261.829H102.845V251.585Z" fill="#6D6E71"/>
<path opacity="0.9" d="M98.8417 251.585H94.812V261.829H98.8417V251.585Z" fill="#58595B"/>
<path d="M94.812 251.585H90.7822V261.829H94.812V251.585Z" fill="#58595B"/>
<path opacity="0.9" d="M90.7822 251.585H86.7524V261.829H90.7822V251.585Z" fill="#414042"/>
<path opacity="0.95" d="M86.8002 251.585H82.7705V261.829H86.8002V251.585Z" fill="#414042"/>
<path d="M82.7768 251.585H78.7471V261.829H82.7768V251.585Z" fill="#414042"/>
<path opacity="0.8" d="M78.747 251.585H74.7173V261.829H78.747V251.585Z" fill="#221F20"/>
<path d="M122.98 261.835H127.009V251.592H122.98V261.835Z" fill="#E6E7E8"/>
<path opacity="0.8" d="M127.009 261.835H131.039V251.592H127.009V261.835Z" fill="#E6E7E8"/>
<path d="M139.099 251.585H135.069V261.829H139.099V251.585Z" fill="#F1F2F2"/>
<path opacity="0.8" d="M135.068 251.585H131.039V261.829H135.068V251.585Z" fill="#F1F2F2"/>
<path opacity="0.9" d="M116.942 272.078H120.972V261.835H116.942V272.078Z" fill="#BCBEC0"/>
<path opacity="0.9" d="M112.912 272.078H116.941V261.835H112.912V272.078Z" fill="#949598"/>
<path d="M120.965 272.078H124.995V261.835H120.965V272.078Z" fill="#D1D3D4"/>
<path d="M112.912 261.829H108.882V272.072H112.912V261.829Z" fill="#818284"/>
<path opacity="0.9" d="M108.889 261.829H104.859V272.072H108.889V261.829Z" fill="#6D6E71"/>
<path d="M104.859 261.829H100.83V272.072H104.859V261.829Z" fill="#6D6E71"/>
<path opacity="0.9" d="M100.856 261.829H96.8267V272.072H100.856V261.829Z" fill="#58595B"/>
<path d="M96.8266 261.829H92.7969V272.072H96.8266V261.829Z" fill="#58595B"/>
<path opacity="0.9" d="M92.7973 261.829H88.7676V272.072H92.7973V261.829Z" fill="#414042"/>
<path opacity="0.95" d="M88.8149 261.829H84.7852V272.072H88.8149V261.829Z" fill="#414042"/>
<path d="M84.7846 261.829H80.7549V272.072H84.7846V261.829Z" fill="#414042"/>
<path opacity="0.8" d="M80.7617 261.829H76.7319V272.072H80.7617V261.829Z" fill="#221F20"/>
<path d="M124.994 272.078H129.024V261.835H124.994V272.078Z" fill="#E6E7E8"/>
<path opacity="0.8" d="M129.031 272.078H133.061V261.835H129.031V272.078Z" fill="#E6E7E8"/>
<path d="M141.113 261.829H137.083V272.072H141.113V261.829Z" fill="#F1F2F2"/>
<path opacity="0.8" d="M137.083 261.829H133.054V272.072H137.083V261.829Z" fill="#F1F2F2"/>
<path opacity="0.9" d="M118.882 282.315H122.912V272.072H118.882V282.315Z" fill="#BCBEC0"/>
<path opacity="0.9" d="M114.852 282.315H118.882V272.072H114.852V282.315Z" fill="#949598"/>
<path d="M122.912 282.315H126.941V272.072H122.912V282.315Z" fill="#D1D3D4"/>
<path d="M114.852 272.078H110.823V282.322H114.852V272.078Z" fill="#818284"/>
<path opacity="0.9" d="M110.829 272.078H106.799V282.322H110.829V272.078Z" fill="#6D6E71"/>
<path d="M106.8 272.078H102.77V282.322H106.8V272.078Z" fill="#6D6E71"/>
<path opacity="0.9" d="M102.797 272.078H98.7676V282.322H102.797V272.078Z" fill="#58595B"/>
<path d="M98.7671 272.078H94.7373V282.322H98.7671V272.078Z" fill="#58595B"/>
<path opacity="0.9" d="M94.7377 272.078H90.708V282.322H94.7377V272.078Z" fill="#414042"/>
<path opacity="0.95" d="M90.7553 272.078H86.7256V282.322H90.7553V272.078Z" fill="#414042"/>
<path d="M86.7324 272.078H82.7026V282.322H86.7324V272.078Z" fill="#414042"/>
<path opacity="0.8" d="M82.7021 272.078H78.6724V282.322H82.7021V272.078Z" fill="#221F20"/>
<path d="M126.935 282.315H130.964V272.072H126.935V282.315Z" fill="#E6E7E8"/>
<path opacity="0.9" d="M120.965 292.558H124.995V282.315H120.965V292.558Z" fill="#BCBEC0"/>
<path opacity="0.9" d="M116.942 292.558H120.972V282.315H116.942V292.558Z" fill="#949598"/>
<path d="M116.942 282.322H112.912V292.565H116.942V282.322Z" fill="#818284"/>
<path opacity="0.9" d="M112.912 282.322H108.882V292.565H112.912V282.322Z" fill="#6D6E71"/>
<path d="M108.889 282.322H104.859V292.565H108.889V282.322Z" fill="#6D6E71"/>
<path opacity="0.9" d="M104.88 282.322H100.85V292.565H104.88V282.322Z" fill="#58595B"/>
<path d="M100.856 282.322H96.8267V292.565H100.856V282.322Z" fill="#58595B"/>
<path opacity="0.9" d="M96.8266 282.322H92.7969V292.565H96.8266V282.322Z" fill="#414042"/>
<path opacity="0.95" d="M92.8442 282.322H88.8145V292.565H92.8442V282.322Z" fill="#414042"/>
<path d="M88.8149 282.322H84.7852V292.565H88.8149V282.322Z" fill="#414042"/>
<path opacity="0.8" d="M84.7846 282.322H80.7549V292.565H84.7846V282.322Z" fill="#221F20"/>
<path d="M122.946 292.565H118.916V302.808H122.946V292.565Z" fill="#818284"/>
<path opacity="0.9" d="M118.923 292.565H114.893V302.808H118.923V292.565Z" fill="#6D6E71"/>
<path d="M114.893 292.565H110.863V302.808H114.893V292.565Z" fill="#6D6E71"/>
<path opacity="0.9" d="M110.89 292.565H106.86V302.808H110.89V292.565Z" fill="#58595B"/>
<path d="M106.861 292.565H102.831V302.808H106.861V292.565Z" fill="#58595B"/>
<path opacity="0.9" d="M102.831 292.565H98.8013V302.808H102.831V292.565Z" fill="#414042"/>
<path opacity="0.95" d="M98.8481 292.565H94.8184V302.808H98.8481V292.565Z" fill="#414042"/>
<path d="M120.937 302.809H116.908V313.052H120.937V302.809Z" fill="#6D6E71"/>
<path opacity="0.9" d="M116.928 302.809H112.898V313.052H116.928V302.809Z" fill="#58595B"/>
</g>
<mask id="mask2_278_86777" style="mask-type:luminance" maskUnits="userSpaceOnUse" x="68" y="108" width="157" height="168">
<path d="M69.1188 275.838C69.1188 130.071 224.886 156.636 224.886 113.574L215.737 108.171C215.737 126.069 188.841 131.937 157.394 143.148C113.175 158.915 59.5989 194.702 69.112 275.838H69.1188Z" fill="white"/>
</mask>
<g mask="url(#mask2_278_86777)">
<path d="M203.215 133.784H199.185V144.027H203.215V133.784Z" fill="#F1F2F2"/>
<path d="M189.118 123.54H185.088V133.783H189.118V123.54Z" fill="#BCBEC0"/>
<path opacity="0.9" d="M193.141 123.54H189.111V133.783H193.141V123.54Z" fill="#BCBEC0"/>
<path d="M197.171 123.54H193.141V133.783H197.171V123.54Z" fill="#D1D3D4"/>
<path d="M205.23 123.54H201.2V133.783H205.23V123.54Z" fill="#F1F2F2"/>
<path d="M227.387 113.297H223.357V123.54H227.387V113.297Z" fill="#F1F2F2"/>
<path d="M225.372 103.331H221.342V113.574H225.372V103.331Z" fill="#F1F2F2"/>
<path d="M201.2 123.54H197.17V133.783H201.2V123.54Z" fill="#E6E7E8"/>
<path opacity="0.9" d="M160.916 144.027H156.887V154.27H160.916V144.027Z" fill="#6D6E71"/>
<path d="M164.946 144.027H160.917V154.27H164.946V144.027Z" fill="#818284"/>
<path opacity="0.95" d="M168.969 144.027H164.939V154.27H168.969V144.027Z" fill="#818284"/>
<path opacity="0.9" d="M172.999 144.027H168.969V154.27H172.999V144.027Z" fill="#818284"/>
<path d="M177.029 144.027H172.999V154.27H177.029V144.027Z" fill="#949598"/>
<path opacity="0.9" d="M181.058 144.027H177.028V154.27H181.058V144.027Z" fill="#949598"/>
<path opacity="0.9" d="M158.902 133.784H154.872V144.027H158.902V133.784Z" fill="#6D6E71"/>
<path d="M162.932 133.784H158.902V144.027H162.932V133.784Z" fill="#818284"/>
<path opacity="0.95" d="M166.961 133.784H162.931V144.027H166.961V133.784Z" fill="#818284"/>
<path opacity="0.9" d="M170.985 133.784H166.955V144.027H170.985V133.784Z" fill="#818284"/>
<path d="M175.014 133.784H170.984V144.027H175.014V133.784Z" fill="#949598"/>
<path opacity="0.9" d="M179.043 133.784H175.014V144.027H179.043V133.784Z" fill="#949598"/>
<path d="M183.074 133.784H179.044V144.027H183.074V133.784Z" fill="#A7A9AB"/>
<path d="M185.088 123.54H181.059V133.783H185.088V123.54Z" fill="#A7A9AB"/>
<path opacity="0.9" d="M187.103 133.784H183.073V144.027H187.103V133.784Z" fill="#A7A9AB"/>
<path d="M191.126 133.784H187.096V144.027H191.126V133.784Z" fill="#BCBEC0"/>
<path opacity="0.9" d="M195.156 133.784H191.126V144.027H195.156V133.784Z" fill="#BCBEC0"/>
<path d="M199.185 133.784H195.156V144.027H199.185V133.784Z" fill="#E6E7E8"/>
<path d="M137.123 144.027H133.094V154.27H137.123V144.027Z" fill="#BCBEC0"/>
<path d="M135.109 154.27H131.079V164.513H135.109V154.27Z" fill="#BCBEC0"/>
<path opacity="0.9" d="M217.312 123.54H213.283V133.783H217.312V123.54Z" fill="#BCBEC0"/>
<path d="M215.298 133.784H211.268V144.027H215.298V133.784Z" fill="#BCBEC0"/>
<path d="M221.342 123.54H217.312V133.783H221.342V123.54Z" fill="#BCBEC0"/>
<path d="M217.312 103.331H213.283V113.574H217.312V103.331Z" fill="#BCBEC0"/>
<path opacity="0.9" d="M219.327 133.784H215.297V144.027H219.327V133.784Z" fill="#A7A9AB"/>
<path d="M133.094 144.027H129.064V154.27H133.094V144.027Z" fill="#D1D3D4"/>
<path d="M133.225 164.421L129.196 164.382L129.097 174.625L133.127 174.664L133.225 164.421Z" fill="#D1D3D4"/>
<path opacity="0.9" d="M131.079 154.27H127.049V164.513H131.079V154.27Z" fill="#BCBEC0"/>
<path d="M213.283 123.54H209.253V133.783H213.283V123.54Z" fill="#D1D3D4"/>
<path opacity="0.9" d="M219.327 113.297H215.297V123.54H219.327V113.297Z" fill="#BCBEC0"/>
<path d="M215.298 113.297H211.268V123.54H215.298V113.297Z" fill="#D1D3D4"/>
<path d="M223.357 113.297H219.328V123.54H223.357V113.297Z" fill="#D1D3D4"/>
<path d="M221.342 103.331H217.312V113.574H221.342V103.331Z" fill="#D1D3D4"/>
<path opacity="0.9" d="M211.275 133.784H207.245V144.027H211.275V133.784Z" fill="#BCBEC0"/>
<path d="M129.064 164.514H125.034V174.757H129.064V164.514Z" fill="#E6E7E8"/>
<path d="M127.049 154.27H123.02V164.513H127.049V154.27Z" fill="#E6E7E8"/>
<path d="M209.26 123.54H205.23V133.783H209.26V123.54Z" fill="#E6E7E8"/>
<path d="M207.245 133.784H203.215V144.027H207.245V133.784Z" fill="#E6E7E8"/>
<path opacity="0.9" d="M106.907 185H110.937V174.757H106.907V185Z" fill="#BCBEC0"/>
<path d="M102.878 185H106.908V174.757H102.878V185Z" fill="#BCBEC0"/>
<path opacity="0.9" d="M98.8477 185H102.877V174.757H98.8477V185Z" fill="#949598"/>
<path opacity="0.9" d="M100.862 174.757H104.892V164.513H100.862V174.757Z" fill="#949598"/>
<path d="M110.93 185H114.96V174.757H110.93V185Z" fill="#D1D3D4"/>
<path d="M114.96 185H118.99V174.757H114.96V185Z" fill="#E6E7E8"/>
<path opacity="0.9" d="M108.916 174.757H112.945V164.513H108.916V174.757Z" fill="#BCBEC0"/>
<path d="M104.893 174.757H108.922V164.513H104.893V174.757Z" fill="#BCBEC0"/>
<path d="M112.945 174.757H116.975V164.513H112.945V174.757Z" fill="#D1D3D4"/>
<path d="M116.982 174.757H121.012V164.513H116.982V174.757Z" fill="#E6E7E8"/>
<path d="M114.96 164.514H118.99V154.27H114.96V164.514Z" fill="#E6E7E8"/>
<path opacity="0.95" d="M152.857 144.027H148.827V154.27H152.857V144.027Z" fill="#818284"/>
<path opacity="0.95" d="M150.842 154.27H146.812V164.513H150.842V154.27Z" fill="#818284"/>
<path opacity="0.95" d="M150.842 133.784H146.812V144.027H150.842V133.784Z" fill="#818284"/>
<path d="M156.887 144.027H152.857V154.27H156.887V144.027Z" fill="#818284"/>
<path d="M154.872 154.27H150.842V164.513H154.872V154.27Z" fill="#818284"/>
<path d="M154.872 133.784H150.842V144.027H154.872V133.784Z" fill="#818284"/>
<path opacity="0.9" d="M145.176 144.027H141.146V154.27H145.176V144.027Z" fill="#949598"/>
<path opacity="0.9" d="M143.162 154.27H139.132V164.513H143.162V154.27Z" fill="#949598"/>
<path opacity="0.9" d="M143.162 133.784H139.132V144.027H143.162V133.784Z" fill="#949598"/>
<path d="M149.017 144.027H144.987V154.27H149.017V144.027Z" fill="#949598"/>
<path d="M147.002 154.27H142.972V164.513H147.002V154.27Z" fill="#949598"/>
<path d="M147.002 133.784H142.972V144.027H147.002V133.784Z" fill="#949598"/>
<path d="M139.139 154.27H135.109V164.513H139.139V154.27Z" fill="#A7A9AB"/>
<path d="M141.153 144.027H137.124V154.27H141.153V144.027Z" fill="#A7A9AB"/>
<path d="M100.863 185H96.833V195.244H100.863V185Z" fill="#818284"/>
<path d="M98.8481 174.757H94.8184V185H98.8481V174.757Z" fill="#818284"/>
<path opacity="0.9" d="M94.8246 195.244H90.7949V205.487H94.8246V195.244Z" fill="#6D6E71"/>
<path opacity="0.9" d="M96.8398 185H92.8101V195.244H96.8398V185Z" fill="#6D6E71"/>
<path d="M90.7954 195.244H86.7656V205.487H90.7954V195.244Z" fill="#6D6E71"/>
<path d="M92.81 185H88.7803V195.244H92.81V185Z" fill="#6D6E71"/>
<path opacity="0.9" d="M86.7656 215.737H82.7358V225.98H86.7656V215.737Z" fill="#58595B"/>
<path opacity="0.9" d="M88.7802 205.487H84.7505V215.73H88.7802V205.487Z" fill="#58595B"/>
<path opacity="0.9" d="M86.7656 195.244H82.7358V205.487H86.7656V195.244Z" fill="#58595B"/>
<path opacity="0.9" d="M88.7802 185H84.7505V195.244H88.7802V185Z" fill="#58595B"/>
<path d="M84.7505 205.487H80.7681V215.73H84.7505V205.487Z" fill="#58595B"/>
<path d="M82.7353 215.737H78.7056V225.98H82.7353V215.737Z" fill="#58595B"/>
<path opacity="0.85" d="M80.768 205.487H76.7383V215.73H80.768V205.487Z" fill="#414042"/>
<path opacity="0.9" d="M78.706 215.737H74.6763V225.98H78.706V215.737Z" fill="#414042"/>
<path opacity="0.9" d="M76.7451 205.487H72.7153V215.73H76.7451V205.487Z" fill="#414042"/>
<path opacity="0.95" d="M74.7304 215.737H70.7007V225.98H74.7304V215.737Z" fill="#414042"/>
<path d="M70.7006 215.737H66.6709V225.98H70.7006V215.737Z" fill="#414042"/>
<path opacity="0.9" d="M80.748 225.981H76.7183V236.224H80.748V225.981Z" fill="#414042"/>
<path opacity="0.95" d="M76.7656 225.981H72.7358V236.224H76.7656V225.981Z" fill="#414042"/>
<path d="M72.7358 225.981H68.7061V236.224H72.7358V225.981Z" fill="#414042"/>
<path opacity="0.8" d="M68.7123 225.981H64.6826V236.224H68.7123V225.981Z" fill="#221F20"/>
<path opacity="0.9" d="M78.706 195.244H74.6763V205.487H78.706V195.244Z" fill="#414042"/>
<path d="M82.7353 195.244H78.7056V205.487H82.7353V195.244Z" fill="#58595B"/>
<path d="M84.7504 185H80.7207V195.244H84.7504V185Z" fill="#58595B"/>
<path opacity="0.9" d="M94.8246 174.757H90.7949V185H94.8246V174.757Z" fill="#6D6E71"/>
<path d="M125.035 164.514H121.005V174.757H125.035V164.514Z" fill="#F1F2F2"/>
<path d="M123.019 154.27H118.99V164.513H123.019V154.27Z" fill="#F1F2F2"/>
<path opacity="0.95" d="M78.7465 236.224H74.7168V246.467H78.7465V236.224Z" fill="#414042"/>
<path d="M74.7167 236.224H70.687V246.467H74.7167V236.224Z" fill="#414042"/>
<path opacity="0.8" d="M70.687 236.224H66.6572V246.467H70.687V236.224Z" fill="#221F20"/>
<path opacity="0.85" d="M68.6718 246.467H64.6421V256.711H68.6718V246.467Z" fill="#221F20"/>
<path opacity="0.85" d="M70.687 256.71H66.6572V266.954H70.687V256.71Z" fill="#221F20"/>
<path opacity="0.85" d="M72.7021 266.954H68.6724V277.197H72.7021V266.954Z" fill="#221F20"/>
<path opacity="0.9" d="M68.6718 266.954H64.6421V277.197H68.6718V266.954Z" fill="#221F20"/>
<path opacity="0.95" d="M80.7612 246.467H76.7314V256.711H80.7612V246.467Z" fill="#414042"/>
<path d="M76.7319 246.467H72.7021V256.711H76.7319V246.467Z" fill="#414042"/>
<path opacity="0.8" d="M72.7021 246.467H68.6724V256.711H72.7021V246.467Z" fill="#221F20"/>
<path d="M78.7465 256.71H74.7168V266.954H78.7465V256.71Z" fill="#414042"/>
<path opacity="0.8" d="M74.7167 256.71H70.687V266.954H74.7167V256.71Z" fill="#221F20"/>
<path d="M80.687 266.954H76.6572V277.197H80.687V266.954Z" fill="#414042"/>
<path opacity="0.8" d="M76.6572 266.954H72.6274V277.197H76.6572V266.954Z" fill="#221F20"/>
</g>
<path opacity="0.5" d="M69.1188 275.838C69.1188 130.071 224.886 156.636 224.886 113.574L215.737 108.171C215.737 126.069 188.841 131.937 157.394 143.148C113.175 158.915 59.5989 194.702 69.112 275.838H69.1188Z" fill="#818284"/>
<mask id="mask3_278_86777" style="mask-type:luminance" maskUnits="userSpaceOnUse" x="119" y="197" width="58" height="108">
<path d="M119.625 305L176.515 272.153C176.515 224.236 159.997 223.344 158.902 197.894C137.719 214.601 119.632 244.567 119.632 305H119.625Z" fill="white"/>
</mask>
<g mask="url(#mask3_278_86777)">
<path opacity="0.9" d="M156.555 255.386H160.585V245.142H156.555V255.386Z" fill="#BCBEC0"/>
<path d="M156.555 234.899H160.585V224.656H156.555V234.899Z" fill="#BCBEC0"/>
<path d="M158.564 224.649H162.593V214.406H158.564V224.649Z" fill="#BCBEC0"/>
<path d="M158.564 245.142H162.593V234.899H158.564V245.142Z" fill="#BCBEC0"/>
<path opacity="0.9" d="M156.555 214.405H160.585V204.162H156.555V214.405Z" fill="#A7A9AB"/>
<path d="M152.526 255.386H156.556V245.142H152.526V255.386Z" fill="#BCBEC0"/>
<path opacity="0.9" d="M152.526 234.899H156.556V224.656H152.526V234.899Z" fill="#A7A9AB"/>
<path opacity="0.9" d="M154.541 224.649H158.57V214.406H154.541V224.649Z" fill="#A7A9AB"/>
<path opacity="0.9" d="M154.541 245.142H158.57V234.899H154.541V245.142Z" fill="#A7A9AB"/>
<path opacity="0.8" d="M152.526 214.405H156.556V204.162H152.526V214.405Z" fill="#818284"/>
<path d="M154.513 204.203H158.543V193.959H154.513V204.203Z" fill="#818284"/>
<path d="M160.578 255.386H164.608V245.142H160.578V255.386Z" fill="#D1D3D4"/>
<path opacity="0.9" d="M154.541 265.622H158.57V255.379H154.541V265.622Z" fill="#BCBEC0"/>
<path opacity="0.9" d="M148.496 255.386H152.525V245.142H148.496V255.386Z" fill="#949598"/>
<path opacity="0.9" d="M148.496 234.899H152.525V224.656H148.496V234.899Z" fill="#949598"/>
<path opacity="0.9" d="M150.511 224.649H154.541V214.406H150.511V224.649Z" fill="#949598"/>
<path opacity="0.9" d="M150.511 245.142H154.541V234.899H150.511V245.142Z" fill="#949598"/>
<path opacity="0.85" d="M148.496 214.405H152.525V204.162H148.496V214.405Z" fill="#58595B"/>
<path opacity="0.9" d="M150.443 204.243H154.473V194H150.443V204.243Z" fill="#58595B"/>
<path opacity="0.9" d="M150.511 265.622H154.541V255.379H150.511V265.622Z" fill="#949598"/>
<path d="M158.564 265.622H162.593V255.379H158.564V265.622Z" fill="#D1D3D4"/>
<path d="M160.578 234.899H164.608V224.656H160.578V234.899Z" fill="#D1D3D4"/>
<path d="M162.593 224.649H166.623V214.406H162.593V224.649Z" fill="#D1D3D4"/>
<path d="M162.593 245.142H166.623V234.899H162.593V245.142Z" fill="#D1D3D4"/>
<path d="M160.578 214.405H164.608V204.162H160.578V214.405Z" fill="#D1D3D4"/>
<path d="M164.608 255.386H168.638V245.142H164.608V255.386Z" fill="#E6E7E8"/>
<path d="M164.608 234.899H168.638V224.656H164.608V234.899Z" fill="#E6E7E8"/>
<path d="M166.63 224.649H170.66V214.406H166.63V224.649Z" fill="#E6E7E8"/>
<path d="M166.63 245.142H170.66V234.899H166.63V245.142Z" fill="#E6E7E8"/>
<path opacity="0.8" d="M168.645 255.386H172.674V245.142H168.645V255.386Z" fill="#E6E7E8"/>
<path opacity="0.9" d="M158.564 204.162H162.593V193.919H158.564V204.162Z" fill="#949598"/>
<path d="M150.511 255.386H146.481V265.629H150.511V255.386Z" fill="#818284"/>
<path d="M148.496 245.135H144.466V255.379H148.496V245.135Z" fill="#818284"/>
<path d="M150.511 234.892H146.481V245.135H150.511V234.892Z" fill="#818284"/>
<path d="M148.496 224.649H144.466V234.892H148.496V224.649Z" fill="#818284"/>
<path d="M150.511 214.405H146.481V224.649H150.511V214.405Z" fill="#818284"/>
<path opacity="0.9" d="M146.481 255.386H142.451V265.629H146.481V255.386Z" fill="#6D6E71"/>
<path opacity="0.9" d="M144.473 245.135H140.443V255.379H144.473V245.135Z" fill="#6D6E71"/>
<path opacity="0.9" d="M146.481 234.892H142.451V245.135H146.481V234.892Z" fill="#6D6E71"/>
<path opacity="0.9" d="M144.473 224.649H140.443V234.892H144.473V224.649Z" fill="#6D6E71"/>
<path d="M140.443 245.135H136.414V255.379H140.443V245.135Z" fill="#6D6E71"/>
<path d="M142.458 255.386H138.428V265.629H142.458V255.386Z" fill="#6D6E71"/>
<path d="M142.458 234.892H138.428V245.135H142.458V234.892Z" fill="#6D6E71"/>
<path d="M140.443 224.649H136.414V234.892H140.443V224.649Z" fill="#6D6E71"/>
<path d="M146.495 214.412H142.465V224.655H146.495V214.412Z" fill="#6D6E71"/>
<path opacity="0.9" d="M136.414 245.135H132.384V255.379H136.414V245.135Z" fill="#58595B"/>
<path opacity="0.9" d="M138.428 234.892H134.398V245.135H138.428V234.892Z" fill="#58595B"/>
<path opacity="0.9" d="M148.462 204.162H144.433V214.406H148.462V204.162Z" fill="#58595B"/>
<path opacity="0.9" d="M134.398 224.649V214.405H138.428" fill="#58595B"/>
<path d="M138.388 234.892H134.405V245.135H138.388V234.892Z" fill="#58595B"/>
<path d="M142.451 214.419H138.469V224.662H142.451V214.419Z" fill="#58595B"/>
<path opacity="0.9" d="M138.502 214.419H134.52V224.662H138.502V214.419Z" fill="#414042"/>
<path d="M144.547 204.162H140.565V214.406H144.547V204.162Z" fill="#58595B"/>
<path d="M136.251 245.135H132.222V255.379H136.251V245.135Z" fill="#58595B"/>
<path opacity="0.85" d="M130.416 234.892H126.386V245.135H130.416V234.892Z" fill="#414042"/>
<path opacity="0.9" d="M128.354 245.135H124.324V255.379H128.354V245.135Z" fill="#414042"/>
<path opacity="0.9" d="M138.449 255.386H134.419V265.629H138.449V255.386Z" fill="#58595B"/>
<path d="M134.426 255.386H130.396V265.629H134.426V255.386Z" fill="#58595B"/>
<path opacity="0.9" d="M130.396 255.386H126.366V265.629H130.396V255.386Z" fill="#414042"/>
<path opacity="0.9" d="M132.289 245.149H128.259V255.393H132.289V245.149Z" fill="#414042"/>
<path opacity="0.9" d="M134.439 234.906H130.41V245.149H134.439V234.906Z" fill="#414042"/>
<path opacity="0.9" d="M136.414 224.689H132.384V234.933H136.414V224.689Z" fill="#414042"/>
<path opacity="0.95" d="M126.414 255.386H122.384V265.629H126.414V255.386Z" fill="#414042"/>
<path d="M132.384 224.649H128.354V234.892H132.384V224.649Z" fill="#58595B"/>
<path opacity="0.6" d="M172.667 224.649H168.638V234.892H172.667V224.649Z" fill="#F1F2F2"/>
<path opacity="0.6" d="M174.304 234.892H170.653V245.135H174.304V234.892Z" fill="#F1F2F2"/>
<path opacity="0.6" d="M176.318 245.135H172.478V255.379H176.318V245.135Z" fill="#F1F2F2"/>
<path d="M162.593 265.622H166.623V255.379H162.593V265.622Z" fill="#E6E7E8"/>
<path opacity="0.8" d="M166.63 265.622H170.66V255.379H166.63V265.622Z" fill="#E6E7E8"/>
<path d="M178.712 255.386H174.682V265.629H178.712V255.386Z" fill="#F1F2F2"/>
<path opacity="0.8" d="M174.683 255.386H170.653V265.629H174.683V255.386Z" fill="#F1F2F2"/>
<path opacity="0.9" d="M156.522 275.866H160.551V265.622H156.522V275.866Z" fill="#BCBEC0"/>
<path opacity="0.9" d="M152.485 275.866H156.515V265.622H152.485V275.866Z" fill="#949598"/>
<path d="M160.544 275.866H164.574V265.622H160.544V275.866Z" fill="#D1D3D4"/>
<path d="M152.492 265.629H148.462V275.872H152.492V265.629Z" fill="#818284"/>
<path opacity="0.9" d="M148.462 265.629H144.433V275.872H148.462V265.629Z" fill="#6D6E71"/>
<path d="M144.432 265.629H140.402V275.872H144.432V265.629Z" fill="#6D6E71"/>
<path opacity="0.9" d="M140.43 265.629H136.4V275.872H140.43V265.629Z" fill="#58595B"/>
<path d="M136.4 265.629H132.37V275.872H136.4V265.629Z" fill="#58595B"/>
<path opacity="0.9" d="M132.37 265.629H128.34V275.872H132.37V265.629Z" fill="#414042"/>
<path opacity="0.95" d="M128.394 265.629H124.365V275.872H128.394V265.629Z" fill="#414042"/>
<path d="M124.365 265.629H120.335V275.872H124.365V265.629Z" fill="#414042"/>
<path opacity="0.85" d="M120.335 286.116H116.305V296.359H120.335V286.116Z" fill="#221F20"/>
<path opacity="0.85" d="M122.35 296.359H118.32V306.602H122.35V296.359Z" fill="#221F20"/>
<path d="M164.574 275.866H168.604V265.622H164.574V275.866Z" fill="#E6E7E8"/>
<path opacity="0.8" d="M168.604 275.866H172.634V265.622H168.604V275.866Z" fill="#E6E7E8"/>
<path opacity="0.8" d="M176.664 265.629H172.634V275.872H176.664V265.629Z" fill="#F1F2F2"/>
<path opacity="0.9" d="M158.53 286.116H162.56V275.873H158.53V286.116Z" fill="#BCBEC0"/>
<path opacity="0.9" d="M154.5 286.116H158.53V275.873H154.5V286.116Z" fill="#949598"/>
<path d="M162.559 286.116H166.589V275.873H162.559V286.116Z" fill="#D1D3D4"/>
<path d="M154.507 275.872H150.477V286.116H154.507V275.872Z" fill="#818284"/>
<path opacity="0.9" d="M150.477 275.872H146.447V286.116H150.477V275.872Z" fill="#6D6E71"/>
<path d="M146.447 275.872H142.417V286.116H146.447V275.872Z" fill="#6D6E71"/>
<path opacity="0.9" d="M142.445 275.872H138.415V286.116H142.445V275.872Z" fill="#58595B"/>
<path d="M138.414 275.872H134.385V286.116H138.414V275.872Z" fill="#58595B"/>
<path opacity="0.9" d="M134.385 275.872H130.355V286.116H134.385V275.872Z" fill="#414042"/>
<path opacity="0.95" d="M130.409 275.872H126.379V286.116H130.409V275.872Z" fill="#414042"/>
<path d="M126.38 275.872H122.35V286.116H126.38V275.872Z" fill="#414042"/>
<path opacity="0.8" d="M122.35 275.872H118.32V286.116H122.35V275.872Z" fill="#221F20"/>
<path d="M166.589 286.116H170.619V275.873H166.589V286.116Z" fill="#E6E7E8"/>
<path opacity="0.9" d="M152.492 286.116H148.462V296.359H152.492V286.116Z" fill="#6D6E71"/>
<path d="M148.462 286.116H144.433V296.359H148.462V286.116Z" fill="#6D6E71"/>
<path opacity="0.9" d="M144.459 286.116H140.43V296.359H144.459V286.116Z" fill="#58595B"/>
<path d="M140.43 286.116H136.4V296.359H140.43V286.116Z" fill="#58595B"/>
<path opacity="0.9" d="M136.4 286.116H132.37V296.359H136.4V286.116Z" fill="#414042"/>
<path opacity="0.95" d="M132.424 286.116H128.395V296.359H132.424V286.116Z" fill="#414042"/>
<path d="M128.394 286.116H124.365V296.359H128.394V286.116Z" fill="#414042"/>
<path opacity="0.8" d="M124.365 286.116H120.335V296.359H124.365V286.116Z" fill="#221F20"/>
<path opacity="0.9" d="M138.34 296.359H134.311V306.602H138.34V296.359Z" fill="#414042"/>
<path opacity="0.95" d="M134.365 296.359H130.335V306.602H134.365V296.359Z" fill="#414042"/>
<path d="M130.335 296.359H126.305V306.602H130.335V296.359Z" fill="#414042"/>
<path opacity="0.8" d="M126.306 296.359H122.276V306.602H126.306V296.359Z" fill="#221F20"/>
</g>
<path opacity="0.2" d="M119.625 305L176.515 272.153C176.515 224.236 159.997 223.344 158.902 197.894C137.719 214.601 119.632 244.567 119.632 305H119.625Z" fill="url(#paint0_linear_278_86777)"/>
<mask id="mask4_278_86777" style="mask-type:luminance" maskUnits="userSpaceOnUse" x="119" y="87" width="20" height="70">
<path d="M137.955 151.268C134.345 153.02 130.741 154.926 127.185 156.988C129.558 134.088 129.321 111.809 119.625 91.0726L127.915 87.0496C139.213 105.751 139.855 129.544 137.955 151.275" fill="white"/>
</mask>
<g mask="url(#mask4_278_86777)">
<mask id="mask5_278_86777" style="mask-type:luminance" maskUnits="userSpaceOnUse" x="75" y="56" width="64" height="215">
<path d="M79.5446 270.246C72.1545 207.231 102.824 171.572 137.611 151.396C139.984 128.496 139.747 106.217 130.051 85.4806L79.5446 56.3191C104.798 146.582 62.6616 177.441 79.5446 270.246Z" fill="white"/>
</mask>
<g mask="url(#mask5_278_86777)">
<path opacity="0.9" d="M127.915 97.2925H123.885V107.536H127.915V97.2925Z" fill="#BCBEC0"/>
<path d="M123.885 97.2925H119.855V107.536H123.885V97.2925Z" fill="#BCBEC0"/>
<path opacity="0.9" d="M119.856 97.2925H115.826V107.536H119.856V97.2925Z" fill="#A7A9AB"/>
<path d="M140.004 117.78H135.974V128.023H140.004V117.78Z" fill="#F1F2F2"/>
<path d="M131.945 97.2925H127.915V107.536H131.945V97.2925Z" fill="#D1D3D4"/>
<path d="M140.004 97.2925H135.974V107.536H140.004V97.2925Z" fill="#F1F2F2"/>
<path d="M135.975 97.2925H131.945V107.536H135.975V97.2925Z" fill="#E6E7E8"/>
<path opacity="0.9" d="M121.871 107.536H117.841V117.78H121.871V107.536Z" fill="#A7A9AB"/>
<path d="M125.9 107.536H121.87V117.78H125.9V107.536Z" fill="#BCBEC0"/>
<path opacity="0.9" d="M129.93 107.536H125.9V117.78H129.93V107.536Z" fill="#BCBEC0"/>
<path d="M133.96 107.536H129.93V117.78H133.96V107.536Z" fill="#D1D3D4"/>
<path d="M142.012 107.536H137.982V117.78H142.012V107.536Z" fill="#F1F2F2"/>
<path d="M137.989 107.536H133.959V117.78H137.989V107.536Z" fill="#E6E7E8"/>
<path opacity="0.9" d="M121.871 87.0496H117.841V97.2929H121.871V87.0496Z" fill="#BCBEC0"/>
<path opacity="0.8" d="M125.9 87.0496H121.87V97.2929H125.9V87.0496Z" fill="#BCBEC0"/>
<path d="M129.93 87.0496H125.9V97.2929H129.93V87.0496Z" fill="#D1D3D4"/>
<path d="M133.96 87.0496H129.93V97.2929H133.96V87.0496Z" fill="#E6E7E8"/>
<path d="M137.989 87.0496H133.959V97.2929H137.989V87.0496Z" fill="#F1F2F2"/>
<path d="M133.96 128.03H129.93V138.273H133.96V128.03Z" fill="#D1D3D4"/>
<path d="M121.871 128.03H117.841V138.273H121.871V128.03Z" fill="#A7A9AB"/>
<path d="M129.93 128.03H125.9V138.273H129.93V128.03Z" fill="#BCBEC0"/>
<path opacity="0.9" d="M125.9 128.03H121.87V138.273H125.9V128.03Z" fill="#A7A9AB"/>
<path d="M137.989 128.03H133.959V138.273H137.989V128.03Z" fill="#E6E7E8"/>
<path d="M142.012 128.03H137.982V138.273H142.012V128.03Z" fill="#F1F2F2"/>
<path d="M119.856 138.273H115.826V148.516H119.856V138.273Z" fill="#A7A9AB"/>
<path opacity="0.9" d="M123.885 138.273H119.855V148.516H123.885V138.273Z" fill="#A7A9AB"/>
<path d="M127.915 138.273H123.885V148.516H127.915V138.273Z" fill="#BCBEC0"/>
<path d="M131.945 138.273H127.915V148.516H131.945V138.273Z" fill="#D1D3D4"/>
<path d="M135.975 138.273H131.945V148.516H135.975V138.273Z" fill="#E6E7E8"/>
<path d="M140.004 138.273H135.974V148.516H140.004V138.273Z" fill="#F1F2F2"/>
<path d="M119.856 117.78H115.826V128.023H119.856V117.78Z" fill="#A7A9AB"/>
<path opacity="0.9" d="M123.885 117.78H119.855V128.023H123.885V117.78Z" fill="#A7A9AB"/>
<path d="M127.915 117.78H123.885V128.023H127.915V117.78Z" fill="#BCBEC0"/>
<path opacity="0.9" d="M131.945 117.78H127.915V128.023H131.945V117.78Z" fill="#BCBEC0"/>
<path d="M135.975 117.78H131.945V128.023H135.975V117.78Z" fill="#E6E7E8"/>
<path opacity="0.9" d="M129.93 148.517H125.9V158.76H129.93V148.517Z" fill="#BCBEC0"/>
<path d="M125.9 148.517H121.87V158.76H125.9V148.517Z" fill="#BCBEC0"/>
<path opacity="0.9" d="M121.871 148.517H117.841V158.76H121.871V148.517Z" fill="#A7A9AB"/>
<path d="M133.96 148.517H129.93V158.76H133.96V148.517Z" fill="#D1D3D4"/>
<path d="M142.012 148.517H137.982V158.76H142.012V148.517Z" fill="#F1F2F2"/>
<path d="M137.989 148.517H133.959V158.76H137.989V148.517Z" fill="#E6E7E8"/>
</g>
</g>
<path opacity="0.6" d="M137.955 151.267C134.345 153.019 130.741 154.925 127.185 156.987C129.558 134.087 129.321 111.809 119.625 91.0716L127.915 87.0487C139.213 105.75 139.855 129.543 137.955 151.274" fill="#D1D3D4"/>
<mask id="mask6_278_86777" style="mask-type:luminance" maskUnits="userSpaceOnUse" x="69" y="57" width="59" height="35">
<path d="M77.408 57.8882L127.915 87.0497L119.626 91.0726L69.1187 61.9112L77.408 57.8882Z" fill="white"/>
</mask>
<g mask="url(#mask6_278_86777)">
<mask id="mask7_278_86777" style="mask-type:luminance" maskUnits="userSpaceOnUse" x="52" y="-8" width="79" height="215">
<path d="M70.9174 206.839C63.5273 143.824 94.1966 108.165 128.983 87.9894C131.357 65.0889 131.12 42.8105 121.424 22.0736L70.9174 -7.08789C38.5714 57.8881 54.0345 114.034 70.9174 206.839Z" fill="white"/>
</mask>
<g mask="url(#mask7_278_86777)">
<path opacity="0.9" d="M79.0034 54.3793H74.9736V64.6227H79.0034V54.3793Z" fill="#58595B"/>
<path opacity="0.95" d="M74.9736 54.3793H70.9438V64.6227H74.9736V54.3793Z" fill="#58595B"/>
<path d="M70.9443 54.3793H66.9146V64.6227H70.9443V54.3793Z" fill="#58595B"/>
<path opacity="0.95" d="M76.9887 64.623H72.959V74.8664H76.9887V64.623Z" fill="#58595B"/>
<path d="M131.376 54.3793H127.347V64.6227H131.376V54.3793Z" fill="#F1F2F2"/>
<path opacity="0.95" d="M83.0331 54.3793H79.0034V64.6227H83.0331V54.3793Z" fill="#6D6E71"/>
<path opacity="0.9" d="M81.0185 64.623H76.9888V74.8664H81.0185V64.623Z" fill="#58595B"/>
<path opacity="0.95" d="M85.0483 64.623H81.0186V74.8664H85.0483V64.623Z" fill="#6D6E71"/>
<path opacity="0.9" d="M89.0776 64.623H85.0479V74.8664H89.0776V64.623Z" fill="#6D6E71"/>
<path d="M93.1005 64.623H89.0708V74.8664H93.1005V64.623Z" fill="#818284"/>
<path opacity="0.95" d="M97.1308 64.623H93.1011V74.8664H97.1308V64.623Z" fill="#818284"/>
<path opacity="0.9" d="M101.16 64.623H97.1304V74.8664H101.16V64.623Z" fill="#818284"/>
<path d="M125.332 64.623H121.302V74.8664H125.332V64.623Z" fill="#D1D3D4"/>
<path d="M105.19 64.623H101.161V74.8664H105.19V64.623Z" fill="#949598"/>
<path opacity="0.9" d="M109.22 64.623H105.19V74.8664H109.22V64.623Z" fill="#949598"/>
<path d="M113.249 64.623H109.22V74.8664H113.249V64.623Z" fill="#A7A9AB"/>
<path d="M121.302 64.623H117.272V74.8664H121.302V64.623Z" fill="#BCBEC0"/>
<path opacity="0.9" d="M117.272 64.623H113.243V74.8664H117.272V64.623Z" fill="#A7A9AB"/>
<path d="M129.361 64.623H125.332V74.8664H129.361V64.623Z" fill="#E6E7E8"/>
<path opacity="0.95" d="M83.0331 74.866H79.0034V85.1093H83.0331V74.866Z" fill="#6D6E71"/>
<path opacity="0.9" d="M87.0629 74.866H83.0332V85.1093H87.0629V74.866Z" fill="#6D6E71"/>
<path opacity="0.9" d="M79.0034 74.866H74.9736V85.1093H79.0034V74.866Z" fill="#58595B"/>
<path d="M91.0927 74.866H87.063V85.1093H91.0927V74.866Z" fill="#818284"/>
<path opacity="0.95" d="M95.1157 74.866H91.0859V85.1093H95.1157V74.866Z" fill="#818284"/>
<path opacity="0.9" d="M99.1455 74.866H95.1157V85.1093H99.1455V74.866Z" fill="#818284"/>
<path d="M103.175 74.866H99.145V85.1093H103.175V74.866Z" fill="#949598"/>
<path opacity="0.9" d="M107.205 74.866H103.175V85.1093H107.205V74.866Z" fill="#949598"/>
<path d="M111.235 74.866H107.205V85.1093H111.235V74.866Z" fill="#A7A9AB"/>
<path opacity="0.9" d="M115.264 74.866H111.234V85.1093H115.264V74.866Z" fill="#A7A9AB"/>
<path d="M119.288 74.866H115.258V85.1093H119.288V74.866Z" fill="#BCBEC0"/>
<path d="M123.317 74.866H119.287V85.1093H123.317V74.866Z" fill="#D1D3D4"/>
<path d="M127.347 74.866H123.317V85.1093H127.347V74.866Z" fill="#E6E7E8"/>
<path d="M131.376 74.866H127.347V85.1093H131.376V74.866Z" fill="#F1F2F2"/>
<path opacity="0.9" d="M87.0629 54.3793H83.0332V64.6227H87.0629V54.3793Z" fill="#6D6E71"/>
<path d="M91.0927 54.3793H87.063V64.6227H91.0927V54.3793Z" fill="#818284"/>
<path opacity="0.95" d="M95.1157 54.3793H91.0859V64.6227H95.1157V54.3793Z" fill="#818284"/>
<path opacity="0.9" d="M99.1455 54.3793H95.1157V64.6227H99.1455V54.3793Z" fill="#818284"/>
<path d="M103.175 54.3793H99.145V64.6227H103.175V54.3793Z" fill="#949598"/>
<path opacity="0.9" d="M107.205 54.3793H103.175V64.6227H107.205V54.3793Z" fill="#949598"/>
<path d="M111.235 54.3793H107.205V64.6227H111.235V54.3793Z" fill="#A7A9AB"/>
<path opacity="0.9" d="M115.264 54.3793H111.234V64.6227H115.264V54.3793Z" fill="#A7A9AB"/>
<path d="M119.288 54.3793H115.258V64.6227H119.288V54.3793Z" fill="#BCBEC0"/>
<path opacity="0.9" d="M123.317 54.3793H119.287V64.6227H123.317V54.3793Z" fill="#BCBEC0"/>
<path d="M127.347 54.3793H123.317V64.6227H127.347V54.3793Z" fill="#E6E7E8"/>
<path opacity="0.9" d="M76.9887 85.1096H72.959V95.3529H76.9887V85.1096Z" fill="#58595B"/>
<path opacity="0.95" d="M81.0185 85.1096H76.9888V95.3529H81.0185V85.1096Z" fill="#6D6E71"/>
<path opacity="0.9" d="M85.0483 85.1096H81.0186V95.3529H85.0483V85.1096Z" fill="#6D6E71"/>
<path d="M89.0776 85.1096H85.0479V95.3529H89.0776V85.1096Z" fill="#818284"/>
<path opacity="0.95" d="M93.1005 85.1096H89.0708V95.3529H93.1005V85.1096Z" fill="#818284"/>
<path opacity="0.9" d="M97.1308 85.1096H93.1011V95.3529H97.1308V85.1096Z" fill="#818284"/>
<path opacity="0.9" d="M121.302 85.1096H117.272V95.3529H121.302V85.1096Z" fill="#BCBEC0"/>
<path d="M101.16 85.1096H97.1304V95.3529H101.16V85.1096Z" fill="#949598"/>
<path opacity="0.9" d="M105.19 85.1096H101.161V95.3529H105.19V85.1096Z" fill="#949598"/>
<path d="M109.22 85.1096H105.19V95.3529H109.22V85.1096Z" fill="#A7A9AB"/>
<path d="M117.272 85.1096H113.243V95.3529H117.272V85.1096Z" fill="#BCBEC0"/>
<path opacity="0.9" d="M113.249 85.1096H109.22V95.3529H113.249V85.1096Z" fill="#A7A9AB"/>
<path d="M125.332 85.1096H121.302V95.3529H125.332V85.1096Z" fill="#D1D3D4"/>
<path d="M129.361 85.1096H125.332V95.3529H129.361V85.1096Z" fill="#E6E7E8"/>
</g>
</g>
<path opacity="0.5" d="M77.4348 57.8873L127.942 87.0488L119.659 91.0717L69.1455 61.9103L77.4348 57.8873Z" fill="#949598"/>
<path d="M149.72 29.6794L192.499 64.4121L215.386 42.3366L221.823 18.1379L196.468 4L149.72 29.6794Z" fill="#AF3541"/>
<path d="M221.823 18.1378L215.386 42.3365L230.416 43.3304L221.823 18.1378Z" fill="#C33B46"/>
<path d="M144.176 64.2772L134.142 43.3645L79.396 38.3341L130.342 66.7248L144.176 64.2772Z" fill="#BA3E45"/>
<path d="M144.176 64.2776L192.499 64.4128L149.72 29.68L134.142 43.3648L144.176 64.2776Z" fill="#A02E3E"/>
<path d="M215.825 44.541L229.882 45.4741L230.416 43.3307L215.386 42.3369L215.825 44.541Z" fill="#A7A9AB"/>
<path opacity="0.9" d="M215.386 42.3369L192.499 64.4124L192.931 66.6166L215.825 44.541" fill="#949598"/>
<path d="M192.931 66.6165L144.615 66.4813L144.176 64.2771L192.499 64.4123L192.931 66.6165Z" fill="#949598"/>
<path d="M144.615 66.4813L131.688 68.7666L130.342 66.7247L144.176 64.2771L144.615 66.4813Z" fill="#A7A9AB"/>
<path d="M149.269 313.473L147.745 314.529L147.364 312.109L143.02 314.617V319.721L148.564 316.52V318.236L143.02 321.437V325.441L145.154 324.209V325.947L139.781 329.049V327.311L141.286 326.442V315.618L139.781 316.487V314.749L148.869 309.502L149.269 313.473ZM155.262 310.123C155.859 309.778 156.367 309.661 156.786 309.771L157.129 312.323L155.815 313.258L155.491 311.751C155.275 311.773 155.053 311.85 154.824 311.982C154.392 312.231 154.03 312.653 153.738 313.247C153.446 313.826 153.3 314.453 153.3 315.128V319.748L155.129 318.692V320.188L150.251 323.004V321.508L151.623 320.716V313.896L150.194 314.721V313.203L153.186 311.476V313.28C153.351 312.627 153.605 312.019 153.948 311.454C154.303 310.867 154.741 310.424 155.262 310.123ZM159.278 308.706C159.799 308.054 160.307 307.518 160.802 307.1C161.31 306.66 161.863 306.268 162.46 305.923C163.425 305.366 164.187 305.197 164.746 305.417C165.318 305.63 165.604 306.301 165.604 307.43V311.984C165.604 312.63 165.826 312.824 166.27 312.567C166.448 312.465 166.62 312.329 166.785 312.16L166.804 313.293C166.448 313.748 166.035 314.111 165.566 314.382C164.537 314.976 163.991 314.632 163.927 313.348V313.326C163.673 313.986 163.305 314.661 162.822 315.35C162.352 316.032 161.774 316.571 161.088 316.967C160.504 317.305 159.92 317.437 159.335 317.363C158.764 317.283 158.478 316.729 158.478 315.702C158.478 314.47 158.897 313.422 159.735 312.556C160.586 311.669 161.495 310.947 162.46 310.389C163.044 310.052 163.533 309.799 163.927 309.63V308.904C163.927 308.259 163.819 307.771 163.603 307.441C163.387 307.111 162.905 307.163 162.155 307.595C161.545 307.947 161.031 308.369 160.612 308.86L160.288 310.653L158.935 311.258L159.278 308.706ZM163.927 311.324V310.752C163.698 310.855 163.457 310.972 163.203 311.104C162.962 311.214 162.714 311.343 162.46 311.489C161.876 311.827 161.355 312.237 160.898 312.721C160.44 313.205 160.212 313.792 160.212 314.481C160.212 315.009 160.351 315.31 160.631 315.383C160.923 315.449 161.253 315.376 161.622 315.163C162.168 314.848 162.676 314.335 163.146 313.623C163.616 312.912 163.876 312.146 163.927 311.324ZM177.973 306.999L173.553 309.551V308.055L174.925 307.263V303.017C174.925 302.019 174.76 301.411 174.429 301.191C174.099 300.956 173.661 300.996 173.115 301.312C172.404 301.722 171.838 302.32 171.419 303.105C171 303.889 170.778 304.648 170.752 305.382V309.672L172.124 308.88V310.376L167.704 312.928V311.432L169.076 310.64V303.82L167.647 304.645V303.127L170.752 301.334V303.006C171.349 301.414 172.315 300.234 173.648 299.464C174.474 298.987 175.172 298.877 175.744 299.134C176.316 299.39 176.601 300.142 176.601 301.389V306.295L177.973 305.503V306.999ZM188.035 301.19L183.9 303.577V302.081L185.044 301.421L182.967 299.672L181.519 300.508V303.456L182.624 302.818V304.314L178.49 306.701V305.205L179.861 304.413V292.291L178.432 293.116V291.598L181.519 289.816V299.1L183.024 298.231L184.777 294.755L183.538 295.47V293.952L187.597 291.609V293.127L186.415 293.809L184.262 298.044L186.968 300.31L188.035 299.694V301.19ZM204.975 285.623L204.117 286.118V291.904L202.784 292.674L202.574 290.947C202.219 291.754 201.711 292.546 201.05 293.323C200.402 294.079 199.634 294.713 198.745 295.226C197.043 296.209 195.664 296.301 194.61 295.501C193.569 294.695 193.048 293.265 193.048 291.211C193.048 289.158 193.6 287.086 194.706 284.996C195.811 282.906 197.303 281.319 199.183 280.233C200.174 279.661 201.05 279.317 201.812 279.199C202.587 279.075 203.197 279.126 203.641 279.353L203.984 281.949L202.555 282.95L202.193 281.223C201.85 281.172 201.431 281.194 200.936 281.289C200.44 281.385 199.862 281.623 199.202 282.004C197.919 282.745 196.878 283.86 196.077 285.348C195.29 286.815 194.896 288.399 194.896 290.1C194.896 291.816 195.277 292.953 196.039 293.51C196.801 294.068 197.805 293.987 199.05 293.268C200.104 292.66 200.923 291.864 201.507 290.881C202.092 289.884 202.384 288.938 202.384 288.043V287.119L199.583 288.736V286.998L204.975 283.885V285.623ZM213.938 283.33C213.849 284.232 213.487 285.175 212.852 286.157C212.217 287.14 211.353 287.947 210.261 288.577C209.029 289.289 208.032 289.439 207.27 289.028C206.508 288.618 206.127 287.606 206.127 285.992C206.127 284.467 206.482 283 207.194 281.592C207.905 280.184 208.889 279.117 210.147 278.391C211.315 277.717 212.223 277.61 212.871 278.072C213.519 278.534 213.849 279.356 213.862 280.536C213.862 280.932 213.824 281.372 213.748 281.856L207.879 285.244C207.956 287.283 208.788 287.844 210.375 286.927C211.036 286.546 211.531 286.077 211.861 285.519C212.204 284.955 212.433 284.383 212.547 283.803L213.938 283.33ZM212.128 281.493C212.179 280.819 212.039 280.283 211.709 279.887C211.391 279.469 210.858 279.477 210.109 279.909C209.41 280.313 208.883 280.888 208.527 281.636C208.184 282.362 207.975 283.129 207.899 283.935L212.128 281.493ZM225.115 279.781L220.676 282.344V280.848L222.067 280.045V275.799C222.067 274.802 221.895 274.197 221.552 273.984C221.209 273.757 220.758 273.805 220.199 274.127C219.514 274.523 218.961 275.114 218.542 275.898C218.123 276.668 217.9 277.405 217.875 278.109V282.465L219.266 281.662V283.158L214.846 285.71V284.214L216.217 283.422V271.3L214.846 272.092V270.574L217.875 268.825V275.821C218.497 274.201 219.469 273.009 220.79 272.246C221.616 271.77 222.314 271.66 222.886 271.916C223.457 272.173 223.743 272.925 223.743 274.171V279.077L225.115 278.285V279.781ZM230.896 266.456C231.493 266.111 232.001 265.994 232.42 266.104L232.763 268.656L231.448 269.591L231.124 268.084C230.908 268.106 230.686 268.183 230.457 268.315C230.026 268.564 229.664 268.986 229.372 269.58C229.079 270.159 228.933 270.786 228.933 271.461V276.081L230.762 275.025V276.521L225.885 279.337V277.841L227.257 277.049V270.229L225.828 271.054V269.536L228.819 267.809V269.613C228.984 268.96 229.238 268.352 229.581 267.787C229.937 267.2 230.375 266.757 230.896 266.456ZM243.104 261.079L242.152 261.629L239.218 271.639L238.17 275.39L239.522 274.609V276.149L235.102 278.701V277.161L236.607 276.292L237.598 272.596L234.531 266.029L233.559 266.59V265.072L237.617 262.729V264.247L236.322 264.995L238.513 269.714L238.627 269.648L240.513 262.575L239.313 263.268V261.75L243.104 259.561V261.079Z" fill="#818181"/>
<defs>
<linearGradient id="paint0_linear_278_86777" x1="220.842" y1="274.304" x2="137.705" y2="251.011" gradientUnits="userSpaceOnUse">
<stop stop-color="white" stop-opacity="0"/>
<stop offset="1" stop-color="#221F20"/>
</linearGradient>
</defs>
</svg>
