<svg  viewBox="0 0 296 331" fill="none" xmlns="http://www.w3.org/2000/svg">
<path d="M140.917 139.489V132.448C134.751 134.178 127.645 135.922 119.059 135.388C92.1246 133.708 64.2006 137.738 55.6782 157.937C66.0874 170.411 71.7049 174.882 87.7317 184.664C110.629 191.421 133.519 181.026 133.519 176.527V144.737L140.917 139.489Z" fill="#74924E"/>
<path d="M142.91 138.079L133.512 144.743L141.294 149.435C138.816 157.431 133.412 166.131 124.669 170.083C103.117 179.822 79.8213 166.914 68.1591 171.044C64.0438 167.47 60.3344 163.482 55.6709 157.886C64.1933 137.687 92.1173 133.651 119.052 135.338C126.634 135.815 133.07 134.505 138.716 133.003C141.607 132.675 140.916 135.267 140.916 139.496" fill="#79974E"/>
<path d="M162.661 165.754V210.132L167.467 213.037V165.213L133.512 144.743V192.567L137.976 195.251V150.866L162.661 165.754Z" fill="#D1D3D4"/>
<path d="M172.279 165.754V210.132L167.466 213.037V165.213L205.977 137.887V185.711L201.577 188.836L201.52 144.743L172.279 165.754Z" fill="#F1F2F2"/>
<path d="M189.588 237.152C186.299 219.964 203.885 190.197 201.578 191.058C106.813 226.536 -1.19467 143.768 72.0398 104.474C108.223 85.0652 140.931 99.9599 140.931 99.9599L176.908 74.4354C176.908 74.4354 113.171 40.4739 46.914 78.7429C-76.5864 150.076 70.9077 258.048 189.588 237.152Z" fill="#F1E1BE"/>
<path d="M282.566 165.191C282.331 171.841 279.291 177.53 275.745 183.688C208.491 300.603 0.991108 228.23 0.222168 146.267L0.264885 201.687C23.7176 285.929 229.687 326.775 278.835 223.182C281.348 217.885 282.566 212.061 282.566 206.194V165.191Z" fill="#E2AF44"/>
<path opacity="0.9" d="M176.893 74.4212L140.917 99.9458V139.489L176.893 113.965V74.4212Z" fill="#C38E52"/>
<path d="M140.909 99.9457C140.909 99.9457 108.13 84.9159 72.0181 104.46C43.8379 119.71 42.4922 139.76 55.6639 157.937C64.1863 137.731 92.1102 133.701 119.045 135.381C127.631 135.915 134.744 134.171 140.902 132.441V99.9457" fill="#C38E52"/>
<path d="M57.736 160.357C79.5796 151.529 87.8955 159.218 107.432 159.218C124.299 159.218 132.152 139.468 126.72 135.267C124.299 135.481 121.743 135.538 119.045 135.367C92.1104 133.686 64.1865 137.716 55.6641 157.915C56.3689 158.762 57.0596 159.574 57.7288 160.357H57.736Z" fill="#819D4F"/>
<path d="M62.8549 147.784C59.6866 154.07 79.5865 145.028 96.6242 148.51C111.341 151.521 121.458 135.445 111.042 135.032H110.885C91.7472 134.733 73.1502 137.866 62.4277 148.175" fill="#87A250"/>
<path opacity="0.8" d="M246.375 111.7L223.727 98.0446C205.984 132.113 259.511 139.489 225.222 226.159C225.222 226.159 241.341 220.278 238.728 218.761C269.522 167.591 228.832 127.756 246.375 111.707V111.7Z" fill="#54B2B3"/>
<path opacity="0.7" d="M194.984 238.298C219.576 219.309 212.634 196.426 223.763 180.072C234.393 164.465 229.345 151.977 220.673 146.744L213.133 142.195C206.931 118.187 194.692 118.913 197.491 99.3476L210.541 90.0918L223.727 98.0447C205.984 130.839 261.241 140.735 223.77 229.64" fill="#54B2B3"/>
<path d="M254.762 206.55C281.383 167.669 247.935 139.524 265.478 123.476C282.487 136.192 287.784 159.866 276.976 178.648C270.704 189.548 263.207 198.804 254.755 206.55H254.762Z" fill="#54B2B3"/>
<path opacity="0.9" d="M246.375 111.7L261.925 121.077C263.164 121.825 264.346 122.622 265.485 123.469C247.942 139.517 281.391 167.669 254.77 206.543L236.984 221.666C271.074 165.206 227.736 129.137 246.382 111.693L246.375 111.7Z" fill="#54B2B3"/>
<path d="M193.611 146.659C190.478 125.328 180.325 121.505 180.475 111.416L133.512 144.737L167.467 165.206L193.611 146.659Z" fill="#F1E1BE"/>
<path opacity="0.6" d="M193.61 146.659C190.478 125.328 180.325 121.504 180.474 111.416L197.484 99.3476C194.493 118.251 207.273 119.169 213.126 142.195L205.97 137.88L193.603 146.652L193.61 146.659Z" fill="#54B2B3"/>
<path opacity="0.6" d="M189.716 237.878C187.195 215.515 201.001 197.722 201.577 191.058C201.577 191.058 212.727 186.907 219.576 181.375C220.744 180.428 228.17 171.585 228.028 172.055C227.479 173.857 220.466 186.167 219.576 188.488C216.985 195.23 215.546 219.345 199.064 235.194L189.716 237.878Z" fill="#54B2B3"/>
<path d="M142.433 153.558V192.568L137.976 195.252V150.867L142.433 153.558Z" fill="#E6E7E8"/>
<path d="M162.654 170.083L162.661 165.754L139.365 151.742V155.957L162.654 170.083Z" fill="#BCBEC0"/>
<path d="M197.121 147.905V186.152L201.578 188.836L201.521 144.743L197.121 147.905Z" fill="#A7A9AB"/>
<path d="M172.279 170.012V165.676L200.324 145.605V149.827L172.279 170.012Z" fill="#E6E7E8"/>
<path d="M205.978 144.743L220.673 153.6C225.457 156.484 228.54 161.197 229.501 166.316C230.918 158.819 227.558 150.902 220.673 146.751L205.978 137.894" fill="#BCBEC0"/>
<path d="M282.566 165.191C282.331 171.841 279.291 177.53 275.745 183.689C208.491 300.603 0.991108 228.23 0.222168 146.267L0.264885 140.742C1.04095 222.705 209.687 295.534 276.941 178.619C280.48 172.461 282.295 165.782 282.53 159.132" fill="#BCBEC0"/>
<path d="M75.8485 237.23V265.125L74.1753 266.72C74.1753 266.72 74.1753 241.395 74.1753 238.519L75.8485 237.237V237.23Z" fill="#AA412F"/>
<path d="M72.5093 237.23V265.125L74.1753 266.72V238.519L72.5093 237.23Z" fill="#96462C"/>
<path d="M74.1753 238.519L72.5093 237.23L74.1753 236.105L75.8485 237.23L74.1753 238.519Z" fill="#B85542"/>
<path d="M190.065 248.451V276.346L188.392 277.941C188.392 277.941 188.392 252.616 188.392 249.739L190.065 248.458V248.451Z" fill="#AA412F"/>
<path d="M186.726 248.451V276.346L188.392 277.941V249.739L186.726 248.451Z" fill="#96462C"/>
<path d="M188.392 249.739L186.726 248.451L188.392 247.326L190.065 248.451L188.392 249.739Z" fill="#B85542"/>
<path d="M275.382 208.701V236.596L273.708 238.191C273.708 238.191 273.708 212.866 273.708 209.989L275.382 208.708V208.701Z" fill="#AA412F"/>
<path d="M272.035 208.701V236.596L273.708 238.191V209.989L272.035 208.701Z" fill="#96462C"/>
<path d="M273.708 209.989L272.035 208.701L273.708 207.633L275.381 208.701L273.708 209.989Z" fill="#B85542"/>
<path d="M3.56132 169.314V197.209L1.88818 198.804C1.88818 198.804 1.88818 173.479 1.88818 170.602L3.56132 169.321V169.314Z" fill="#AA412F"/>
<path d="M0.214844 169.314V197.209L1.88798 198.804V170.602L0.214844 169.314Z" fill="#96462C"/>
<path d="M1.88798 170.602L0.214844 169.314L1.88798 168.096L3.56112 169.314L1.88798 170.602Z" fill="#B85542"/>
<path d="M60.6053 224.891V252.787L58.9321 254.382C58.9321 254.382 58.9321 229.056 58.9321 226.18L60.6053 224.898V224.891Z" fill="#AA412F"/>
<path d="M57.2661 224.891V252.78L58.9322 254.375V226.173L57.2661 224.891Z" fill="#96462C"/>
<path d="M58.9322 226.173L57.2661 224.892L58.9322 223.667L60.6053 224.892L58.9322 226.173Z" fill="#B85542"/>
<path d="M36.0916 211.798V239.694L34.4185 241.288C34.4185 241.288 34.4185 215.963 34.4185 213.087L36.0916 211.805V211.798Z" fill="#AA412F"/>
<path d="M32.7451 211.798V239.687L34.4183 241.281V213.08L32.7451 211.798Z" fill="#96462C"/>
<path d="M34.4183 213.079L32.7451 211.798L34.4183 210.573L36.0914 211.798L34.4183 213.079Z" fill="#B85542"/>
<path d="M23.055 204.92V240.434L21.3818 242.029C21.3818 242.029 21.3818 209.085 21.3818 206.209L23.055 204.928V204.92Z" fill="#AA412F"/>
<path d="M19.709 204.92V240.434L21.3822 242.029V206.209L19.709 204.92Z" fill="#96462C"/>
<path d="M21.3822 206.209L19.709 204.92L21.3822 203.795L23.0553 204.92L21.3822 206.209Z" fill="#B85542"/>
<path d="M214.806 246.037V281.551L213.133 283.146C213.133 283.146 213.133 250.202 213.133 247.326L214.806 246.044V246.037Z" fill="#AA412F"/>
<path d="M211.46 246.037V281.551L213.133 283.146V247.326L211.46 246.037Z" fill="#96462C"/>
<path d="M213.133 247.326L211.46 246.037L213.133 244.919L214.806 246.037L213.133 247.326Z" fill="#B85542"/>
<path d="M282.565 185.803V221.317L280.892 222.912C280.892 222.912 280.892 189.968 280.892 187.092L282.565 185.81V185.803Z" fill="#AA412F"/>
<path d="M279.219 185.803V221.317L280.892 222.912V187.092L279.219 185.803Z" fill="#96462C"/>
<path d="M280.892 187.092L279.219 185.804L280.892 184.686L282.566 185.804L280.892 187.092Z" fill="#B85542"/>
<path d="M176.274 252.295V287.809L174.601 289.404C174.601 289.404 174.601 256.46 174.601 253.584L176.274 252.302V252.295Z" fill="#AA412F"/>
<path d="M172.935 252.295V287.816L174.608 289.404V253.584L172.935 252.295Z" fill="#96462C"/>
<path d="M174.608 253.584L172.935 252.295L174.608 251.178L176.274 252.295L174.608 253.584Z" fill="#B85542"/>
<path d="M96.4178 245.204V280.718L94.7446 282.313C94.7446 282.313 94.7446 249.37 94.7446 246.493L96.4178 245.212V245.204Z" fill="#AA412F"/>
<path d="M93.0713 245.204V280.718L94.7444 282.313V246.486L93.0713 245.204Z" fill="#96462C"/>
<path d="M94.7444 246.486L93.0713 245.204L94.7444 244.079L96.4176 245.204L94.7444 246.486Z" fill="#B85542"/>
<path d="M15.138 190.609V208.978L13.4648 210.573C13.4648 210.573 13.4648 194.774 13.4648 191.898L15.138 190.616V190.609Z" fill="#AA412F"/>
<path d="M11.7988 190.609V208.978L13.4649 210.573V191.898L11.7988 190.609Z" fill="#96462C"/>
<path d="M13.4649 191.898L11.7988 190.609L13.4649 189.399L15.138 190.609L13.4649 191.898Z" fill="#B85542"/>
<path d="M8.75131 204.991V223.36L7.07812 224.955C7.07812 224.955 7.07812 209.156 7.07812 206.28L8.75131 204.998V204.991Z" fill="#AA412F"/>
<path d="M5.40527 204.991V223.36L7.07841 224.955V206.273L5.40527 204.991Z" fill="#96462C"/>
<path d="M7.07841 206.273L5.40527 204.991L7.07841 203.923L8.7516 204.991L7.07841 206.273Z" fill="#B85542"/>
<path d="M45.3616 238.298V256.667L43.6885 258.262C43.6885 258.262 43.6885 242.463 43.6885 239.587L45.3616 238.305V238.298Z" fill="#AA412F"/>
<path d="M42.0225 238.298V256.667L43.6885 258.262V239.587L42.0225 238.298Z" fill="#96462C"/>
<path d="M43.6885 239.587L42.0225 238.298L43.6885 237.23L45.3617 238.298L43.6885 239.587Z" fill="#B85542"/>
<path d="M135.185 266.521V284.89L133.512 286.485C133.512 286.485 133.512 270.686 133.512 267.809L135.185 266.528V266.521Z" fill="#AA412F"/>
<path d="M131.846 266.521V284.89L133.512 286.485V267.802L131.846 266.521Z" fill="#96462C"/>
<path d="M133.512 267.802L131.846 266.521L133.512 265.453L135.185 266.521L133.512 267.802Z" fill="#B85542"/>
<path d="M203.243 255.229V273.598L201.57 275.193C201.57 275.193 201.57 259.394 201.57 256.518L203.243 255.236V255.229Z" fill="#AA412F"/>
<path d="M199.904 255.229V273.598L201.577 275.193V256.511L199.904 255.229Z" fill="#96462C"/>
<path d="M201.577 256.511L199.904 255.229L201.577 254.161L203.243 255.229L201.577 256.511Z" fill="#B85542"/>
<path d="M256.436 234.069V252.438L254.763 254.033C254.763 254.033 254.763 238.234 254.763 235.357L256.436 234.076V234.069Z" fill="#AA412F"/>
<path d="M253.097 234.069V252.438L254.763 254.033V235.357L253.097 234.069Z" fill="#96462C"/>
<path d="M254.763 235.357L253.097 234.069L254.763 233.001L256.436 234.069L254.763 235.357Z" fill="#B85542"/>
<path d="M116.98 249.291V277.186L115.307 278.781C115.307 278.781 115.307 253.456 115.307 250.579L116.98 249.298V249.291Z" fill="#AA412F"/>
<path d="M113.641 249.291V277.179L115.307 278.774V250.572L113.641 249.291Z" fill="#96462C"/>
<path d="M115.307 250.572L113.641 249.291L115.307 248.28L116.98 249.291L115.307 250.572Z" fill="#B85542"/>
<path d="M152.679 253.563V281.458L151.005 283.053C151.005 283.053 151.005 257.728 151.005 254.851L152.679 253.57V253.563Z" fill="#AA412F"/>
<path d="M149.339 253.563V281.458L151.013 283.053V254.851L149.339 253.563Z" fill="#96462C"/>
<path d="M151.013 254.852L149.339 253.563L151.013 252.559L152.679 253.563L151.013 254.852Z" fill="#B85542"/>
<path d="M228.562 235.187V263.082L226.889 264.677C226.889 264.677 226.889 239.352 226.889 236.475L228.562 235.194V235.187Z" fill="#AA412F"/>
<path d="M225.223 235.187V263.082L226.889 264.677V236.475L225.223 235.187Z" fill="#96462C"/>
<path d="M226.889 236.475L225.223 235.186L226.889 234.183L228.562 235.186L226.889 236.475Z" fill="#B85542"/>
<path d="M242.502 237.736V265.631L240.829 267.226C240.829 267.226 240.829 241.901 240.829 239.024L242.502 237.743V237.736Z" fill="#AA412F"/>
<path d="M239.156 237.736V265.631L240.829 267.226V239.024L239.156 237.736Z" fill="#96462C"/>
<path d="M240.829 239.024L239.156 237.735L240.829 236.732L242.502 237.735L240.829 239.024Z" fill="#B85542"/>
<path d="M265.513 206.622V234.517L263.84 236.112C263.84 236.112 263.84 210.787 263.84 207.91L265.513 206.629V206.622Z" fill="#AA412F"/>
<path d="M262.167 206.622V234.51L263.84 236.105V207.903L262.167 206.622Z" fill="#96462C"/>
<path d="M263.84 207.903L262.167 206.622L263.84 205.611L265.513 206.622L263.84 207.903Z" fill="#B85542"/>
<path d="M74.1753 249.967L93.6266 260.483" stroke="#96462C" stroke-width="0.954056" stroke-miterlimit="10"/>
<path d="M74.1753 252.559L93.6266 263.082" stroke="#96462C" stroke-width="0.954056" stroke-miterlimit="10"/>
<path d="M114.474 264.036L93.9116 269.219" stroke="#96462C" stroke-width="0.954056" stroke-miterlimit="10"/>
<path d="M12.632 200.591L1.05518 189.164" stroke="#96462C" stroke-width="0.954056" stroke-miterlimit="10"/>
<path d="M12.632 203.624L1.05518 192.197" stroke="#96462C" stroke-width="0.954056" stroke-miterlimit="10"/>
<path d="M12.8241 198.092L1.24023 186.672" stroke="#96462C" stroke-width="0.954056" stroke-miterlimit="10"/>
<path d="M93.9116 272.33L114.317 267.062" stroke="#96462C" stroke-width="0.954056" stroke-miterlimit="10"/>
<path d="M93.7622 275.2L114.474 270.059" stroke="#96462C" stroke-width="0.954056" stroke-miterlimit="10"/>
<path d="M44.5288 243.232L59.7723 233.222" stroke="#AA412F" stroke-width="0.954056" stroke-miterlimit="10"/>
<path d="M44.5288 252.566L59.7723 242.562" stroke="#AA412F" stroke-width="0.954056" stroke-miterlimit="10"/>
<path d="M22.2148 230.003L35.2512 222.271" stroke="#AA412F" stroke-width="0.954056" stroke-miterlimit="10"/>
<path d="M42.8554 243.923L33.5854 236.105" stroke="#96462C" stroke-width="0.954056" stroke-miterlimit="10"/>
<path d="M73.3426 241.281L58.0991 231.022" stroke="#96462C" stroke-width="0.954056" stroke-miterlimit="10"/>
<path d="M20.5491 230.957L6.23828 216.113" stroke="#96462C" stroke-width="0.954056" stroke-miterlimit="10"/>
<path d="M14.084 203.083L7.91113 207.64" stroke="#AA412F" stroke-width="0.954056" stroke-miterlimit="10"/>
<path d="M114.474 261.252L132.679 274.174" stroke="#96462C" stroke-width="0.954056" stroke-miterlimit="10"/>
<path d="M134.352 281.031L151.845 272.052" stroke="#AA412F" stroke-width="0.954056" stroke-miterlimit="10"/>
<path d="M133.932 278.824L151.425 269.846" stroke="#AA412F" stroke-width="0.954056" stroke-miterlimit="10"/>
<path d="M175.44 265.211L189.231 257.664" stroke="#AA412F" stroke-width="0.711982" stroke-miterlimit="10"/>
<path d="M175.44 267.468L189.231 259.921" stroke="#AA412F" stroke-width="0.711982" stroke-miterlimit="10"/>
<path d="M175.44 269.774L189.231 262.227" stroke="#AA412F" stroke-width="0.711982" stroke-miterlimit="10"/>
<path d="M151.846 275.862L173.768 284.142" stroke="#AA412F" stroke-width="0.711982" stroke-miterlimit="10"/>
<path d="M189.232 257.664L200.738 263.196" stroke="#AA412F" stroke-width="0.711982" stroke-miterlimit="10"/>
<path d="M202.411 270.287L212.3 275.919" stroke="#AA412F" stroke-width="0.711982" stroke-miterlimit="10"/>
<path d="M213.966 252.481L227.728 244.051" stroke="#AA412F" stroke-width="0.711982" stroke-miterlimit="10"/>
<path d="M281.725 209.989L274.919 220.227" stroke="#AA412F" stroke-width="0.711982" stroke-miterlimit="10"/>
<path d="M226.056 251.178L239.989 259.6" stroke="#96462C" stroke-width="0.954056" stroke-miterlimit="10"/>
<path d="M241.292 252.481L255.603 241.737" stroke="#AA412F" stroke-width="0.711982" stroke-miterlimit="10"/>
<path d="M241.292 254.802L255.603 244.051" stroke="#AA412F" stroke-width="0.711982" stroke-miterlimit="10"/>
<path d="M255.603 238.191L264.673 229.726" stroke="#AA412F" stroke-width="0.711982" stroke-miterlimit="10"/>
<path d="M272.875 226.436L263.399 220.669" stroke="#96462C" stroke-width="0.954056" stroke-miterlimit="10"/>
<path d="M143.387 70.8043V84.7805L137.058 89.2731V75.2969L143.387 70.8043Z" fill="#949598"/>
<path d="M143.387 70.8043V84.7805L141.052 82.1035V72.4632L143.387 70.8043Z" fill="#6D6E71"/>
<path d="M143.387 84.7806L137.058 89.2732V84.7806L141.052 82.1036L143.387 84.7806Z" fill="#A7A9AB"/>
<path d="M106.812 202.222L112.594 218.704L120.319 217.166L114.53 200.655L106.812 202.222Z" fill="#6D6E71"/>
<path d="M106.812 202.222L112.594 218.704L114.224 214.639L109.66 201.645L106.812 202.222Z" fill="#A7A9AB"/>
<path d="M112.594 218.704L120.319 217.166L119.095 213.67L114.225 214.638L112.594 218.704Z" fill="#949598"/>
<path d="M22.6851 114.477L26.9569 131.415L34.7887 130.575L30.5097 113.609L22.6851 114.477Z" fill="#6D6E71"/>
<path d="M22.6851 114.477L26.9569 131.415L28.9505 127.513L25.5757 114.157L22.6851 114.477Z" fill="#A7A9AB"/>
<path d="M26.957 131.415L34.7888 130.575L33.8846 126.986L28.9506 127.513L26.957 131.415Z" fill="#949598"/>
<path d="M92.3168 49.0034V74.0437L80.9678 82.0891V57.0558L92.3168 49.0034Z" fill="#949598"/>
<path d="M92.3166 49.0034V74.0437L88.123 69.2521V51.9794L92.3166 49.0034Z" fill="#6D6E71"/>
<path d="M92.3168 74.0433L80.9678 82.0888V74.0433L88.1232 69.2517L92.3168 74.0433Z" fill="#A7A9AB"/>
<path d="M64.5208 159.211V180.172L55.0229 186.914V165.946L64.5208 159.211Z" fill="#949598"/>
<path d="M64.5208 159.211V180.172L61.0107 176.163V161.696L64.5208 159.211Z" fill="#6D6E71"/>
<path d="M64.5208 180.171L55.0229 186.914V180.171L61.0107 176.163L64.5208 180.171Z" fill="#A7A9AB"/>
<path d="M168.613 41.496L167.755 41.001V46.787L166.422 46.017L166.212 44.048C165.857 44.444 165.348 44.6493 164.688 44.664C164.04 44.6713 163.272 44.4183 162.383 43.905C160.681 42.9223 159.302 41.4227 158.248 39.406C157.207 37.3967 156.686 35.3653 156.686 33.312C156.686 31.2587 157.238 29.825 158.343 29.011C159.449 28.197 160.941 28.3327 162.821 29.418C163.812 29.99 164.688 30.6573 165.45 31.42C166.225 32.19 166.835 32.9453 167.279 33.686L167.622 36.678L166.193 36.029L165.831 33.884C165.488 33.4367 165.069 32.9747 164.574 32.498C164.078 32.0213 163.5 31.5923 162.84 31.211C161.557 30.4703 160.515 30.3823 159.715 30.947C158.928 31.5043 158.534 32.6337 158.534 34.335C158.534 36.051 158.915 37.6277 159.677 39.065C160.439 40.5023 161.443 41.5803 162.687 42.299C163.742 42.9077 164.561 43.058 165.145 42.75C165.73 42.4273 166.022 41.8187 166.022 40.924V40L163.221 38.383V36.645L168.613 39.758V41.496ZM177.576 49.553C177.487 50.3523 177.125 50.8767 176.49 51.126C175.855 51.3753 174.991 51.1847 173.899 50.554C172.667 49.8427 171.67 48.8417 170.908 47.551C170.146 46.2603 169.765 44.8083 169.765 43.195C169.765 41.6697 170.12 40.6137 170.832 40.027C171.543 39.4403 172.527 39.51 173.785 40.236C174.953 40.9107 175.861 41.853 176.509 43.063C177.157 44.273 177.487 45.4757 177.5 46.671C177.5 47.067 177.462 47.463 177.386 47.859L171.517 44.471C171.594 46.5977 172.426 48.1193 174.013 49.036C174.674 49.4173 175.169 49.52 175.499 49.344C175.842 49.1753 176.071 48.8673 176.185 48.42L177.576 49.553ZM175.766 45.626C175.817 45.01 175.677 44.3133 175.347 43.536C175.029 42.7513 174.496 42.1427 173.747 41.71C173.048 41.3067 172.521 41.2737 172.165 41.611C171.822 41.941 171.613 42.4653 171.536 43.184L175.766 45.626ZM187.381 53.2119C187.381 54.7226 186.975 55.7199 186.162 56.2039C185.362 56.6953 184.301 56.5596 182.98 55.7969C181.684 55.0489 180.656 53.9929 179.894 52.6289C179.144 51.2723 178.769 49.8386 178.769 48.3279C178.769 46.8906 179.131 45.8676 179.855 45.2589C180.579 44.6503 181.659 44.7603 183.094 45.5889C184.53 46.4176 185.603 47.5506 186.314 48.9879C187.026 50.4106 187.381 51.8186 187.381 53.2119ZM185.628 52.1339C185.628 51.0486 185.393 50.0549 184.923 49.1529C184.466 48.2583 183.844 47.5836 183.056 47.1289C182.231 46.6523 181.596 46.6229 181.151 47.0409C180.719 47.4516 180.503 48.1776 180.503 49.2189C180.503 50.2163 180.713 51.1879 181.132 52.1339C181.564 53.0726 182.199 53.7839 183.037 54.2679C183.863 54.7446 184.498 54.7739 184.942 54.3559C185.4 53.9306 185.628 53.1899 185.628 52.1339ZM195.529 61.3038V54.5058L191.528 52.1958V58.9938L193.318 60.0278V61.5458L188.479 58.7518V57.2338L189.87 58.0368V51.2388L188.689 50.5568V49.0388L189.87 49.7208V48.3348C189.87 47.1615 190.2 46.4062 190.861 46.0688C191.521 45.7315 192.347 45.8488 193.338 46.4208C193.96 46.7802 194.506 47.2128 194.976 47.7188C195.446 48.2248 195.846 48.7345 196.176 49.2478C196.748 48.6392 197.574 48.6465 198.653 49.2698C199.047 49.4972 199.422 49.7648 199.777 50.0728C200.146 50.3882 200.489 50.7842 200.806 51.2608L201.149 53.8568L199.815 53.2848L199.434 51.4148C199.18 51.1655 198.882 50.9418 198.539 50.7438C197.65 50.2305 197.205 50.6485 197.205 51.9978V53.9558L199.377 55.2098V56.7278L197.205 55.4738V62.2718L198.977 63.2948V64.8128L194.157 62.0298V60.5118L195.529 61.3038ZM191.528 49.2258V50.6778L195.529 52.9878V51.2498C195.529 50.9125 195.573 50.5642 195.662 50.2048C195.37 49.7575 195.052 49.3468 194.709 48.9728C194.366 48.5988 193.998 48.2982 193.604 48.0708C193.007 47.7262 192.512 47.6382 192.118 47.8068C191.724 47.9755 191.528 48.4485 191.528 49.2258ZM205.455 58.5651C206.052 58.9097 206.56 59.3791 206.98 59.9731L207.323 62.9211L206.008 62.3381L205.684 60.4571C205.468 60.2297 205.246 60.0501 205.017 59.9181C204.585 59.6687 204.223 59.6724 203.931 59.9291C203.639 60.1711 203.493 60.6294 203.493 61.3041V65.9241L205.322 66.9801V68.4761L200.445 65.6601V64.1641L201.816 64.9561V58.1361L200.387 57.3111V55.7931L203.379 57.5201V59.3241C203.544 58.8621 203.798 58.5467 204.141 58.3781C204.496 58.2021 204.935 58.2644 205.455 58.5651ZM216.425 71.9827C216.337 72.782 215.975 73.3063 215.339 73.5557C214.704 73.805 213.841 73.6143 212.748 72.9837C211.516 72.2723 210.519 71.2713 209.757 69.9807C208.995 68.69 208.614 67.238 208.614 65.6247C208.614 64.0993 208.97 63.0433 209.681 62.4567C210.392 61.87 211.377 61.9397 212.634 62.6657C213.803 63.3403 214.711 64.2827 215.359 65.4927C216.006 66.7027 216.337 67.9053 216.349 69.1007C216.349 69.4967 216.311 69.8927 216.235 70.2887L210.367 66.9007C210.443 69.0273 211.275 70.549 212.863 71.4657C213.523 71.847 214.019 71.9497 214.349 71.7737C214.692 71.605 214.92 71.297 215.035 70.8497L216.425 71.9827ZM214.615 68.0557C214.666 67.4397 214.527 66.743 214.196 65.9657C213.879 65.181 213.345 64.5723 212.596 64.1397C211.897 63.7363 211.37 63.7033 211.015 64.0407C210.672 64.3707 210.462 64.895 210.386 65.6137L214.615 68.0557ZM226.372 72.313L225.419 71.763L222.485 78.385L221.437 80.926L222.79 81.707V83.247L218.369 80.695V79.155L219.875 80.024L220.865 77.472L217.798 67.363L216.826 66.802V65.284L220.884 67.627V69.145L219.589 68.397L221.78 75.646L221.894 75.712L223.78 70.817L222.58 70.124V68.606L226.372 70.795V72.313ZM241.118 85.0291C241.118 86.1731 240.769 86.9468 240.07 87.3501C239.385 87.7461 238.349 87.5444 236.965 86.7451L230.963 83.2801V81.5421L232.468 82.4111V71.5871L230.963 70.7181V68.9801L236.889 72.4011C238.108 73.1051 239.035 73.9558 239.67 74.9531C240.305 75.9358 240.623 76.9404 240.623 77.9671C240.623 78.7298 240.426 79.2834 240.032 79.6281C239.639 79.9581 239.118 80.0094 238.47 79.7821V79.8701C239.359 80.5301 240.02 81.3221 240.452 82.2461C240.896 83.1774 241.118 84.1051 241.118 85.0291ZM238.775 77.3841C238.775 76.5628 238.572 75.8808 238.165 75.3381C237.759 74.7954 237.213 74.3261 236.527 73.9301L234.202 72.5881V76.9881L236.431 78.2751C237.994 79.1771 238.775 78.8801 238.775 77.3841ZM239.251 83.8631C239.251 82.2938 238.489 81.0691 236.965 80.1891L234.202 78.5941V83.4121L236.603 84.7981C237.429 85.2748 238.076 85.4581 238.546 85.3481C239.016 85.2234 239.251 84.7284 239.251 83.8631ZM243.278 81.3042C243.799 81.2529 244.307 81.3042 244.803 81.4582C245.311 81.6049 245.863 81.8506 246.46 82.1952C247.426 82.7526 248.188 83.4639 248.747 84.3292C249.318 85.2019 249.604 86.2029 249.604 87.3322V91.8862C249.604 92.5316 249.826 92.9826 250.271 93.2392C250.449 93.3419 250.62 93.4042 250.785 93.4262L250.804 94.5812C250.449 94.6252 250.036 94.5116 249.566 94.2402C248.537 93.6462 247.991 92.6709 247.927 91.3142V91.2922C247.673 91.6589 247.305 91.9082 246.822 92.0402C246.352 92.1796 245.774 92.0512 245.088 91.6552C244.504 91.3179 243.92 90.7752 243.336 90.0272C242.764 89.2866 242.478 88.4029 242.478 87.3762C242.478 86.1442 242.897 85.5796 243.736 85.6822C244.587 85.7776 245.495 86.1039 246.46 86.6612C247.044 86.9986 247.534 87.3102 247.927 87.5962V86.8702C247.927 86.2249 247.819 85.6126 247.603 85.0332C247.387 84.4539 246.905 83.9479 246.155 83.5152C245.546 83.1632 245.031 82.9909 244.612 82.9982L244.288 84.4172L242.935 83.4602L243.278 81.3042ZM247.927 89.2902V88.7182C247.699 88.5569 247.457 88.3956 247.203 88.2342C246.962 88.0656 246.714 87.9079 246.46 87.7612C245.876 87.4239 245.355 87.2332 244.898 87.1892C244.441 87.1452 244.212 87.4679 244.212 88.1572C244.212 88.6852 244.352 89.1472 244.631 89.5432C244.923 89.9466 245.254 90.2546 245.622 90.4672C246.168 90.7826 246.676 90.8559 247.146 90.6872C247.616 90.5186 247.876 90.0529 247.927 89.2902ZM265.182 94.7204L264.268 94.1924L261.81 101.089L260.553 100.363L258.076 91.9154L257.98 91.8604L255.58 97.4924L254.38 96.7994L251.846 87.0204L250.969 86.5144V84.9964L255.123 87.3944V88.9124L253.636 88.0544L255.199 94.4564L255.294 94.5114L257.657 88.8574L258.724 89.4734L261.277 97.9434L261.391 98.0094L262.705 93.2904L261.277 92.4654V90.9474L265.182 93.2024V94.7204ZM266.834 94.9038C267.354 94.8525 267.862 94.9038 268.358 95.0578C268.866 95.2045 269.418 95.4502 270.015 95.7948C270.981 96.3522 271.743 97.0635 272.302 97.9288C272.873 98.8015 273.159 99.8025 273.159 100.932V105.486C273.159 106.131 273.381 106.582 273.826 106.839C274.004 106.942 274.175 107.004 274.34 107.026L274.359 108.181C274.004 108.225 273.591 108.111 273.121 107.84C272.092 107.246 271.546 106.271 271.482 104.914V104.892C271.228 105.259 270.86 105.508 270.377 105.64C269.907 105.779 269.33 105.651 268.644 105.255C268.059 104.918 267.475 104.375 266.891 103.627C266.319 102.886 266.033 102.003 266.033 100.976C266.033 99.7438 266.453 99.1792 267.291 99.2818C268.142 99.3772 269.05 99.7035 270.015 100.261C270.6 100.598 271.089 100.91 271.482 101.196V100.47C271.482 99.8245 271.375 99.2122 271.159 98.6328C270.943 98.0535 270.46 97.5475 269.711 97.1148C269.101 96.7628 268.586 96.5905 268.167 96.5978L267.843 98.0168L266.491 97.0598L266.834 94.9038ZM271.482 102.89V102.318C271.254 102.157 271.013 101.995 270.758 101.834C270.517 101.665 270.269 101.508 270.015 101.361C269.431 101.024 268.91 100.833 268.453 100.789C267.996 100.745 267.767 101.068 267.767 101.757C267.767 102.285 267.907 102.747 268.186 103.143C268.479 103.546 268.809 103.854 269.177 104.067C269.723 104.382 270.231 104.456 270.701 104.287C271.171 104.118 271.432 103.653 271.482 102.89Z" fill="#818181"/>
</svg>
