<svg viewBox="0 0 296 331" fill="none" xmlns="http://www.w3.org/2000/svg">
<path d="M149.623 119.788L142.732 123.86L144.428 116.742" fill="#E4C677"/>
<path d="M288.697 184.814L294.932 181.603V149.321L286.333 153.979L288.697 184.814Z" fill="#D5A644"/>
<path d="M157.189 259.329C49.7925 169.924 169.103 69.018 295.07 181.355C226.033 230.526 191.842 163.419 170.784 189.211C131.508 237.327 233.627 208.973 159.697 259.446C158.933 259.97 157.899 259.922 157.189 259.329Z" fill="#71552B"/>
<path d="M158.368 258.144C48.8692 168.491 168.6 66.4203 295.035 179.171C227.26 229.259 210.357 159.292 167.525 181.376C112.001 210.006 242.088 209.931 158.368 258.144Z" fill="#8B6934"/>
<path d="M295.035 177.304C168.6 64.546 48.8692 166.623 158.368 256.277C242.088 208.063 93.9956 205.355 168.193 179.143C202.791 166.926 230.925 226.468 294.946 177.372" fill="#E2BA6C"/>
<path d="M158.416 254.389C48.9175 164.735 168.648 62.6649 295.084 175.416C216.483 220.432 209.193 154.041 167.573 177.621C113.221 208.415 242.136 206.175 158.416 254.389Z" fill="#A57C3B"/>
<path d="M158.381 252.204C48.8829 162.551 168.614 60.4806 295.049 173.231C263.849 187.123 256.655 191.925 232.862 188.694C198.981 184.084 198.932 157.652 167.539 175.436C113.186 206.237 242.102 203.991 158.381 252.204Z" fill="#D4A444"/>
<path d="M295.049 171.364C168.614 58.6063 48.8829 160.684 158.381 250.337C242.102 202.123 102.981 217.221 168.207 173.204C208.648 145.917 228.886 209.028 294.96 171.433" fill="#CE9441"/>
<path d="M158.422 248.387C48.9239 158.733 168.655 56.6632 295.09 169.414C228.479 207.856 199.111 153.386 167.58 171.619C113.496 202.888 242.143 200.173 158.422 248.387Z" fill="#71552B"/>
<path d="M158.388 246.203C48.8897 156.549 168.621 54.4789 295.056 167.23C228.445 205.672 199.077 151.202 167.546 169.435C113.461 200.704 242.109 197.989 158.388 246.203Z" fill="#8B6934"/>
<path d="M295.056 165.362C168.621 52.6047 48.8897 154.682 158.388 244.335C242.109 196.122 95.663 197.672 168.214 167.202C206.829 150.988 247.18 207.257 294.966 165.431" fill="#E2BA6C"/>
<path d="M158.436 242.454C48.938 152.801 168.669 50.7304 295.104 163.481C228.493 201.924 209.213 142.106 167.594 165.686C113.241 196.48 242.157 194.241 158.436 242.454Z" fill="#A57C3B"/>
<path d="M158.409 240.27C48.9107 150.616 168.642 48.5461 295.077 161.297C219.26 207.471 211.756 138.461 167.567 163.502C113.214 194.303 242.13 192.056 158.409 240.27Z" fill="#D4A444"/>
<path d="M295.077 159.429C168.642 46.6718 48.9107 148.749 158.409 238.402C242.13 190.189 103.009 205.286 168.235 161.269C208.676 133.982 228.913 197.093 294.987 159.498" fill="#CE9441"/>
<path d="M295.084 158.982C168.648 46.224 48.9175 148.301 158.416 237.955C242.136 189.741 95.6908 191.291 168.242 160.821C206.857 144.608 228.92 196.645 294.994 159.05" fill="#E2BA6C"/>
<path d="M158.457 236.067C48.9586 146.413 168.689 44.3428 295.125 157.094C231.476 199.953 209.234 135.719 167.614 159.298C113.262 190.093 242.177 187.853 158.457 236.067Z" fill="#A57C3B"/>
<path d="M158.43 233.882C48.9312 144.229 168.662 42.1585 295.097 154.909C228.486 193.352 211.776 132.074 167.587 157.114C113.234 187.915 242.15 185.669 158.43 233.882Z" fill="#D4A444"/>
<path d="M295.097 153.042C168.662 40.2843 48.9312 142.361 158.43 232.015C242.15 183.801 103.029 198.899 168.255 154.882C208.696 127.595 228.934 190.706 295.008 153.111" fill="#CE9441"/>
<path d="M294.553 153.042C168.118 40.2843 48.3868 142.361 157.885 232.015C241.606 183.801 95.1601 185.352 167.711 154.882C206.326 138.668 228.39 190.706 294.463 153.111" fill="#E2BA6C"/>
<path d="M158.361 228.349C48.8624 138.696 168.593 36.6254 295.029 149.376C228.417 187.819 211.708 126.541 167.518 151.581C113.165 182.382 242.081 180.136 158.361 228.349Z" fill="#D4A444"/>
<path d="M295.029 147.502C168.593 34.7442 48.8624 136.821 158.361 226.475C242.081 178.261 102.96 193.359 168.187 149.342C208.628 122.055 228.865 185.166 294.939 147.571" fill="#CE9441"/>
<path d="M294.994 149.376C168.559 36.6185 48.8282 138.696 158.327 228.349C242.047 180.136 95.6015 181.686 168.152 151.216C206.767 135.002 224.276 190.051 294.905 149.445" fill="#E2BA6C"/>
<path d="M158.368 226.468C48.8692 136.814 168.6 34.7442 295.035 147.495C224.276 195.729 209.144 126.12 167.525 149.7C113.172 180.494 242.088 178.254 158.368 226.468Z" fill="#D5A644"/>
<path d="M158.34 224.284C48.8419 134.63 168.573 32.5599 295.008 145.311C228.397 183.753 211.687 122.475 167.498 147.516C113.145 178.317 242.061 176.07 158.34 224.284Z" fill="#D4A444"/>
<path d="M295.008 143.443C168.573 30.6857 48.8419 132.763 158.34 222.416C242.061 174.203 102.94 189.3 168.166 145.283C208.607 117.996 228.845 181.107 294.918 143.512" fill="#CE9441"/>
<path d="M128.752 129.876L133.637 149.576L126.533 138.84L128.752 129.876Z" fill="#E1B651"/>
<path d="M112.042 137.269L104.938 108.611L115.736 114.896L117.954 123.86L115.736 132.825L122.84 143.56" fill="#CFA344"/>
<path d="M158.395 221.224C242.116 173.011 113.468 175.726 167.553 144.456C173.665 140.921 186.371 139.55 192.91 142.451C205.168 147.881 207.766 149.452 214.684 153.063C235.666 164.012 271.097 167.023 294.973 149.238L138.826 59.0887C137.909 58.5581 136.786 58.5581 135.863 59.0749L90.447 85.2936L145.22 117.225C147.191 118.375 147.198 121.214 145.234 122.379L113.551 141.1C112.614 141.652 111.456 141.652 110.519 141.1L53.8855 107.771C52.9553 107.226 51.8046 107.219 50.8674 107.764L11.6531 130.592C9.67552 131.743 9.67552 134.603 11.6531 135.753L158.361 221.224" fill="#ECD7A2"/>
<path d="M158.367 221.224V260.618L151.263 249.889L158.367 221.224Z" fill="#E1B651"/>
<path d="M142.691 234.633L140.466 225.669L147.57 214.933L142.691 234.633Z" fill="#E1B651"/>
<path d="M158.368 260.618L151.263 249.889L140.466 243.598L147.57 254.333" fill="#C09141"/>
<path d="M136.779 248.042L129.668 237.307L118.877 231.016L125.982 241.751" fill="#C09141"/>
<path d="M158.368 221.224L151.263 249.889L140.466 243.598L147.57 214.933" fill="#E4C677"/>
<path d="M131.894 228.342L136.779 248.042L129.668 237.307L131.894 228.342Z" fill="#E1B651"/>
<path d="M136.779 208.649L129.668 219.377L131.894 228.342L129.668 237.307L118.877 231.016L125.982 202.358" fill="#E4C677"/>
<path d="M136.779 248.042L129.668 219.378L140.466 225.669L142.691 234.633L140.466 243.598L147.57 254.333" fill="#CFA344"/>
<path d="M147.57 214.933L140.466 225.669L129.668 219.378L136.779 208.649" fill="#E1CA81"/>
<path d="M115.184 235.46L108.08 224.725L97.2822 218.44L104.393 229.176" fill="#C09141"/>
<path d="M121.096 222.051L118.877 213.093L125.982 202.358L121.096 222.051Z" fill="#E1B651"/>
<path d="M110.306 215.767L115.184 235.46L108.08 224.725L110.306 215.767Z" fill="#E1B651"/>
<path d="M115.184 196.067L108.08 206.802L110.305 215.767L108.08 224.725L97.2822 218.44L104.393 189.776" fill="#E4C677"/>
<path d="M115.184 235.46L108.08 206.802L118.878 213.093L121.096 222.051L118.878 231.016L125.982 241.751" fill="#CFA344"/>
<path d="M125.982 202.358L118.878 213.093L108.08 206.802L115.184 196.067" fill="#E1CA81"/>
<path d="M93.5961 222.885L86.4919 212.149L75.6943 205.858L82.7985 216.594" fill="#C09141"/>
<path d="M99.5079 209.476L97.2822 200.511L104.393 189.776L99.5079 209.476Z" fill="#E1B651"/>
<path d="M88.7109 203.185L93.5964 222.885L86.4922 212.149L88.7109 203.185Z" fill="#E1B651"/>
<path d="M93.5961 183.484L86.4919 194.22L88.7106 203.185L86.4919 212.149L75.6943 205.858L82.7985 177.2" fill="#E4C677"/>
<path d="M93.5964 222.885L86.4922 194.22L97.2828 200.511L99.5085 209.476L97.2828 218.44L104.394 229.176" fill="#CFA344"/>
<path d="M104.394 189.776L97.2828 200.511L86.4922 194.22L93.5964 183.484" fill="#E1CA81"/>
<path d="M72.0013 210.303L64.8971 199.567L54.1064 193.283L61.2106 204.011" fill="#C09141"/>
<path d="M77.9131 196.894L75.6943 187.929L82.7985 177.2L77.9131 196.894Z" fill="#E1B651"/>
<path d="M67.1222 190.602L72.0007 210.303L64.8965 199.567L67.1222 190.602Z" fill="#E1B651"/>
<path d="M72.0013 170.909L64.8971 181.645L67.1228 190.609L64.8971 199.567L54.1064 193.283L61.2106 164.618" fill="#E4C677"/>
<path d="M72.0007 210.303L64.8965 181.645L75.694 187.929L77.9128 196.894L75.694 205.858L82.7982 216.594" fill="#CFA344"/>
<path d="M82.7982 177.2L75.694 187.929L64.8965 181.645L72.0007 170.909" fill="#E1CA81"/>
<path d="M50.4125 197.727L43.3083 186.992L32.5107 180.701L39.6149 191.436" fill="#C09141"/>
<path d="M56.3252 184.318L54.1064 175.354L61.2106 164.618L56.3252 184.318Z" fill="#E1B651"/>
<path d="M45.5274 178.027L50.4128 197.727L43.3086 186.992L45.5274 178.027Z" fill="#E1B651"/>
<path d="M50.4125 158.327L43.3083 169.062L45.5271 178.027L43.3083 186.992L32.5107 180.701L39.6149 152.036" fill="#E4C677"/>
<path d="M50.4128 197.727L43.3086 169.062L54.1062 175.354L56.3249 184.318L54.1062 193.283L61.2103 204.012" fill="#CFA344"/>
<path d="M61.2103 164.618L54.1062 175.354L43.3086 169.062L50.4128 158.327" fill="#E1CA81"/>
<path d="M28.8246 185.145L21.7135 174.41L10.9229 168.118L18.027 178.854" fill="#C09141"/>
<path d="M34.7364 171.736L32.5107 162.771L39.6149 152.036L34.7364 171.736Z" fill="#E1B651"/>
<path d="M23.939 165.445L28.8245 185.145L21.7134 174.41L23.939 165.445Z" fill="#E1B651"/>
<path d="M28.8246 145.752L21.7135 156.487L23.9392 165.445L21.7135 174.41L10.9229 168.118L18.027 139.46" fill="#E4C677"/>
<path d="M28.8245 185.145L21.7134 156.487L32.5109 162.771L34.7366 171.736L32.5109 180.701L39.6151 191.436" fill="#CFA344"/>
<path d="M39.6151 152.036L32.5109 162.771L21.7134 156.487L28.8245 145.752" fill="#E1CA81"/>
<path d="M13.1416 159.161L10.9229 150.196L18.027 139.46L13.1416 159.161Z" fill="#E1B651"/>
<path d="M7.22919 172.563L0.125 143.905L10.9225 150.196L13.1413 159.161L10.9225 168.118L18.0267 178.854" fill="#CFA344"/>
<path d="M18.0267 139.46L10.9225 150.196L0.125 143.905L7.22919 133.169" fill="#E1CA81"/>
<path d="M119.594 135.078L115.735 132.825L117.878 136.07" fill="#C09141"/>
<path d="M117.954 123.86L115.735 114.896L122.84 104.167L117.954 123.86Z" fill="#E1B651"/>
<path d="M142.733 123.86L137.324 127.478L144.428 116.742L142.733 123.86Z" fill="#E1B651"/>
<path d="M107.164 117.569L112.042 137.269L104.938 126.534L107.164 117.569Z" fill="#E1B651"/>
<path d="M112.042 97.8758L104.938 108.611L107.164 117.569L104.938 126.534L94.1406 120.25L101.252 91.5847" fill="#E4C677"/>
<path d="M121.778 136.346L115.735 132.825L119.064 137.848" fill="#C09141"/>
<path d="M133.637 110.451L126.533 121.187L128.752 130.151L128.18 132.46L121.778 136.346L115.735 132.825L122.84 104.167" fill="#E4C677"/>
<path d="M122.84 104.167L115.736 114.896L104.938 108.611L112.042 97.8758" fill="#E1CA81"/>
<path d="M129.179 131.874L126.533 121.187L137.324 127.478" fill="#C09141"/>
<path d="M144.428 116.742L137.324 127.478L126.533 121.187L133.637 110.451" fill="#E1CA81"/>
<path d="M96.3663 111.285L94.1406 102.32L101.252 91.5847L96.3663 111.285Z" fill="#E1B651"/>
<path d="M90.4538 124.694L83.3496 96.0291L94.1403 102.32L96.3659 111.285L94.1403 120.25L101.251 130.978" fill="#CFA344"/>
<path d="M101.251 91.5847L94.1403 102.32L83.3496 96.0291L90.4538 85.2936" fill="#E1CA81"/>
<path d="M112.042 137.269L104.938 126.534L94.1406 120.25L101.252 130.978" fill="#C09141"/>
<path d="M127.697 150.547L142.781 159.257L127.746 168.043L112.614 159.257" fill="#CFA344"/>
<path d="M127.794 185.538L142.877 194.248L127.498 203.24L112.462 194.482" fill="#CFA344"/>
<path d="M112.814 159.416L127.897 168.125L112.862 176.911L97.7305 168.125" fill="#E6E7E8"/>
<path d="M112.814 176.752L127.897 185.462L112.462 194.482L97.7783 185.924" fill="#E2BA6C"/>
<path d="M82.6465 159.416L97.73 168.125L82.6947 176.911L67.563 168.125" fill="#C09141"/>
<path d="M127.649 133.052L142.733 141.762L127.698 150.547L112.566 141.762" fill="#E2BA6C"/>
<path d="M112.814 159.416L127.897 168.125L112.862 176.911L97.7305 168.125" fill="#E2BA6C"/>
<path d="M52.48 107.006L67.5635 115.716L52.5282 124.501L37.3965 115.716" fill="#D1D3D4"/>
<path d="M52.7142 111.244L59.7771 115.323L52.7349 119.443V119.368L45.6514 115.323" fill="#414042"/>
<path d="M59.7773 115.323L67.5637 115.716" stroke="#221F20" stroke-width="0.165374" stroke-miterlimit="10"/>
<path d="M52.7138 111.244L52.4795 107.006" stroke="#221F20" stroke-width="0.165374" stroke-miterlimit="10"/>
<path d="M52.5283 124.501L52.735 119.368" stroke="#221F20" stroke-width="0.165374" stroke-miterlimit="10"/>
<path d="M37.3965 115.716L45.6514 115.323" stroke="#221F20" stroke-width="0.165374" stroke-miterlimit="10"/>
<path d="M59.0606 115.757L52.7144 112.084V111.244L59.7772 115.323L59.0606 115.757Z" fill="#6D6E71"/>
<path d="M46.3611 115.757L52.7142 112.084V111.244L45.6514 115.323L46.3611 115.757Z" fill="#949598"/>
<path d="M37.3965 115.716L52.48 124.425L37.4447 133.211L22.313 124.425" fill="#D1D3D4"/>
<path d="M37.6307 119.953L44.6936 124.032L37.6514 128.146V128.07L30.5679 124.032" fill="#414042"/>
<path d="M44.6934 124.032L52.4797 124.425" stroke="#221F20" stroke-width="0.165374" stroke-miterlimit="10"/>
<path d="M37.6308 119.953L37.3965 115.716" stroke="#221F20" stroke-width="0.165374" stroke-miterlimit="10"/>
<path d="M37.4443 133.211L37.651 128.07" stroke="#221F20" stroke-width="0.165374" stroke-miterlimit="10"/>
<path d="M22.313 124.425L30.5679 124.032" stroke="#221F20" stroke-width="0.165374" stroke-miterlimit="10"/>
<path d="M43.9766 124.46L37.6304 120.794V119.953L44.6932 124.032L43.9766 124.46Z" fill="#6D6E71"/>
<path d="M31.2776 124.46L37.6307 120.794V119.953L30.5679 124.032L31.2776 124.46Z" fill="#949598"/>
<path d="M67.563 115.716L82.6465 124.425L67.6112 133.211L52.4795 124.425" fill="#D1D3D4"/>
<path d="M67.7977 119.953L74.8606 124.032L67.8184 128.146V128.07L60.7349 124.032" fill="#414042"/>
<path d="M74.8604 124.032L82.6467 124.425" stroke="#221F20" stroke-width="0.165374" stroke-miterlimit="10"/>
<path d="M67.7973 119.953L67.563 115.716" stroke="#221F20" stroke-width="0.165374" stroke-miterlimit="10"/>
<path d="M67.6118 133.211L67.8185 128.07" stroke="#221F20" stroke-width="0.165374" stroke-miterlimit="10"/>
<path d="M52.4795 124.425L60.7344 124.032" stroke="#221F20" stroke-width="0.165374" stroke-miterlimit="10"/>
<path d="M74.1436 124.46L67.7974 120.794V119.953L74.8602 124.032L74.1436 124.46Z" fill="#6D6E71"/>
<path d="M61.4446 124.46L67.7977 120.794V119.953L60.7349 124.032L61.4446 124.46Z" fill="#949598"/>
<path d="M97.7783 168.201L112.862 176.911L97.8196 185.703L82.6948 176.911" fill="#D1D3D4"/>
<path d="M98.0062 172.446L105.069 176.525L98.0338 180.639L98.0269 180.563L90.9434 176.525" fill="#414042"/>
<path d="M105.069 176.525L112.862 176.911" stroke="#221F20" stroke-width="0.165374" stroke-miterlimit="10"/>
<path d="M98.0057 172.446L97.7783 168.201" stroke="#221F20" stroke-width="0.165374" stroke-miterlimit="10"/>
<path d="M97.8198 185.703L98.0266 180.563" stroke="#221F20" stroke-width="0.165374" stroke-miterlimit="10"/>
<path d="M82.6948 176.911L90.9429 176.525" stroke="#221F20" stroke-width="0.165374" stroke-miterlimit="10"/>
<path d="M104.359 176.952L98.0063 173.286V172.446L105.069 176.525L104.359 176.952Z" fill="#6D6E71"/>
<path d="M91.66 176.952L98.0062 173.286V172.446L90.9434 176.525L91.66 176.952Z" fill="#949598"/>
<path d="M97.7305 150.665L112.814 159.374L97.7787 168.167L82.647 159.374" fill="#D1D3D4"/>
<path d="M97.9647 154.909L105.028 158.988L97.9854 163.102V163.026L90.9019 158.988" fill="#414042"/>
<path d="M105.028 158.988L112.814 159.374" stroke="#221F20" stroke-width="0.165374" stroke-miterlimit="10"/>
<path d="M97.9647 154.909L97.7305 150.665" stroke="#221F20" stroke-width="0.165374" stroke-miterlimit="10"/>
<path d="M97.7783 168.167L97.9851 163.026" stroke="#221F20" stroke-width="0.165374" stroke-miterlimit="10"/>
<path d="M82.647 159.374L90.9019 158.988" stroke="#221F20" stroke-width="0.165374" stroke-miterlimit="10"/>
<path d="M104.311 159.416L97.9648 155.75V154.909L105.028 158.988L104.311 159.416Z" fill="#6D6E71"/>
<path d="M91.6116 159.416L97.9647 155.75V154.909L90.9019 158.988L91.6116 159.416Z" fill="#949598"/>
<path d="M97.7305 133.128L112.814 141.838L97.7787 150.63L82.647 141.838" fill="#D1D3D4"/>
<path d="M97.9647 137.373L105.028 141.452L97.9854 145.566V145.49L90.9019 141.452" fill="#414042"/>
<path d="M105.028 141.452L112.814 141.838" stroke="#221F20" stroke-width="0.165374" stroke-miterlimit="10"/>
<path d="M97.9647 137.373L97.7305 133.128" stroke="#221F20" stroke-width="0.165374" stroke-miterlimit="10"/>
<path d="M97.7783 150.63L97.9851 145.49" stroke="#221F20" stroke-width="0.165374" stroke-miterlimit="10"/>
<path d="M82.647 141.838L90.9019 141.452" stroke="#221F20" stroke-width="0.165374" stroke-miterlimit="10"/>
<path d="M104.311 141.879L97.9648 138.213V137.373L105.028 141.452L104.311 141.879Z" fill="#6D6E71"/>
<path d="M91.6116 141.879L97.9647 138.213V137.373L90.9019 141.452L91.6116 141.879Z" fill="#949598"/>
<path d="M52.5278 124.501L67.6113 133.211L52.5761 141.996L37.4443 133.211" fill="#D1D3D4"/>
<path d="M52.7626 128.746L59.8255 132.818L52.7833 136.939V136.863L45.6929 132.818" fill="#414042"/>
<path d="M59.8252 132.818L67.6115 133.211" stroke="#221F20" stroke-width="0.165374" stroke-miterlimit="10"/>
<path d="M52.7626 128.746L52.5283 124.501" stroke="#221F20" stroke-width="0.165374" stroke-miterlimit="10"/>
<path d="M52.5762 141.996L52.7829 136.863" stroke="#221F20" stroke-width="0.165374" stroke-miterlimit="10"/>
<path d="M37.4443 133.211L45.6924 132.818" stroke="#221F20" stroke-width="0.165374" stroke-miterlimit="10"/>
<path d="M59.1084 133.252L52.7622 129.586V128.746L59.8251 132.818L59.1084 133.252Z" fill="#6D6E71"/>
<path d="M46.4095 133.252L52.7626 129.586V128.746L45.6929 132.818L46.4095 133.252Z" fill="#949598"/>
<path d="M37.4443 133.211L52.5278 141.92L37.4926 150.706L22.3608 141.92" fill="#D1D3D4"/>
<path d="M37.6786 137.448L44.7414 141.528L37.6992 145.641V145.572L30.6157 141.528" fill="#414042"/>
<path d="M44.7417 141.528L52.5281 141.92" stroke="#221F20" stroke-width="0.165374" stroke-miterlimit="10"/>
<path d="M37.6786 137.448L37.4443 133.211" stroke="#221F20" stroke-width="0.165374" stroke-miterlimit="10"/>
<path d="M37.4927 150.706L37.6994 145.572" stroke="#221F20" stroke-width="0.165374" stroke-miterlimit="10"/>
<path d="M22.3608 141.92L30.6158 141.528" stroke="#221F20" stroke-width="0.165374" stroke-miterlimit="10"/>
<path d="M44.0249 141.962L37.6787 138.289V137.448L44.7416 141.528L44.0249 141.962Z" fill="#6D6E71"/>
<path d="M31.3255 141.962L37.6786 138.289V137.448L30.6157 141.528L31.3255 141.962Z" fill="#949598"/>
<path d="M22.3125 124.425L37.396 133.128L22.3607 141.92L7.229 133.128" fill="#D1D3D4"/>
<path d="M22.5472 128.663L29.6101 132.742L22.5679 136.856V136.78L15.4844 132.742" fill="#414042"/>
<path d="M29.6099 132.742L37.3962 133.128" stroke="#221F20" stroke-width="0.165374" stroke-miterlimit="10"/>
<path d="M22.5473 128.663L22.313 124.425" stroke="#221F20" stroke-width="0.165374" stroke-miterlimit="10"/>
<path d="M22.3608 141.92L22.5675 136.78" stroke="#221F20" stroke-width="0.165374" stroke-miterlimit="10"/>
<path d="M7.229 133.128L15.4839 132.742" stroke="#221F20" stroke-width="0.165374" stroke-miterlimit="10"/>
<path d="M28.9 133.169L22.5469 129.504V128.663L29.6097 132.742L28.9 133.169Z" fill="#6D6E71"/>
<path d="M16.1941 133.169L22.5472 129.504V128.663L15.4844 132.742L16.1941 133.169Z" fill="#949598"/>
<path d="M82.6465 124.425L97.73 133.128L82.6947 141.92L67.563 133.128" fill="#D1D3D4"/>
<path d="M82.8812 128.663L89.9441 132.742L82.9019 136.856V136.78L75.8184 132.742" fill="#414042"/>
<path d="M89.9438 132.742L97.7302 133.128" stroke="#221F20" stroke-width="0.165374" stroke-miterlimit="10"/>
<path d="M82.8813 128.663L82.647 124.425" stroke="#221F20" stroke-width="0.165374" stroke-miterlimit="10"/>
<path d="M82.6948 141.92L82.9015 136.78" stroke="#221F20" stroke-width="0.165374" stroke-miterlimit="10"/>
<path d="M67.563 133.128L75.8179 132.742" stroke="#221F20" stroke-width="0.165374" stroke-miterlimit="10"/>
<path d="M89.2271 133.169L82.8809 129.504V128.663L89.9437 132.742L89.2271 133.169Z" fill="#6D6E71"/>
<path d="M76.5281 133.169L82.8812 129.504V128.663L75.8184 132.742L76.5281 133.169Z" fill="#949598"/>
<path d="M67.563 133.128L82.6465 141.838L67.6112 150.63L52.4795 141.838" fill="#D1D3D4"/>
<path d="M67.7977 137.373L74.8606 141.452L67.8184 145.566V145.49L60.7349 141.452" fill="#414042"/>
<path d="M74.8604 141.452L82.6467 141.838" stroke="#221F20" stroke-width="0.165374" stroke-miterlimit="10"/>
<path d="M67.7973 137.373L67.563 133.128" stroke="#221F20" stroke-width="0.165374" stroke-miterlimit="10"/>
<path d="M67.6118 150.63L67.8185 145.49" stroke="#221F20" stroke-width="0.165374" stroke-miterlimit="10"/>
<path d="M52.4795 141.838L60.7344 141.452" stroke="#221F20" stroke-width="0.165374" stroke-miterlimit="10"/>
<path d="M74.1436 141.879L67.7974 138.213V137.373L74.8602 141.452L74.1436 141.879Z" fill="#6D6E71"/>
<path d="M61.4446 141.879L67.7977 138.213V137.373L60.7349 141.452L61.4446 141.879Z" fill="#949598"/>
<path d="M52.48 141.838L67.5635 150.547L52.5282 159.333L37.3965 150.547" fill="#D1D3D4"/>
<path d="M52.7142 146.082L59.7771 150.155L52.7349 154.275V154.199L45.6514 150.155" fill="#414042"/>
<path d="M59.7773 150.155L67.5637 150.547" stroke="#221F20" stroke-width="0.165374" stroke-miterlimit="10"/>
<path d="M52.7138 146.082L52.4795 141.838" stroke="#221F20" stroke-width="0.165374" stroke-miterlimit="10"/>
<path d="M52.5283 159.333L52.735 154.199" stroke="#221F20" stroke-width="0.165374" stroke-miterlimit="10"/>
<path d="M37.3965 150.547L45.6514 150.155" stroke="#221F20" stroke-width="0.165374" stroke-miterlimit="10"/>
<path d="M59.0606 150.589L52.7144 146.923V146.082L59.7772 150.155L59.0606 150.589Z" fill="#6D6E71"/>
<path d="M46.3611 150.589L52.7142 146.923V146.082L45.6514 150.155L46.3611 150.589Z" fill="#949598"/>
<path d="M67.7979 150.665L82.8813 159.374L67.8392 168.167L52.7144 159.374" fill="#D1D3D4"/>
<path d="M68.0248 154.909L75.0876 158.988L68.0523 163.102L68.0454 163.026L60.9619 158.988" fill="#414042"/>
<path d="M75.0879 158.988L82.8811 159.374" stroke="#221F20" stroke-width="0.165374" stroke-miterlimit="10"/>
<path d="M68.0247 154.909L67.7974 150.665" stroke="#221F20" stroke-width="0.165374" stroke-miterlimit="10"/>
<path d="M67.8389 168.167L68.0456 163.026" stroke="#221F20" stroke-width="0.165374" stroke-miterlimit="10"/>
<path d="M52.7144 159.374L60.9624 158.988" stroke="#221F20" stroke-width="0.165374" stroke-miterlimit="10"/>
<path d="M74.378 159.416L68.0249 155.75V154.909L75.0878 158.988L74.378 159.416Z" fill="#6D6E71"/>
<path d="M61.6785 159.416L68.0248 155.75V154.909L60.9619 158.988L61.6785 159.416Z" fill="#949598"/>
<path d="M180.218 83.3711L196.259 92.6872L180.755 101.638L164.962 92.2393" fill="#C09141"/>
<path d="M180.783 119.519L196.355 128.656L180.803 138.089L165.327 128.553" fill="#E2BA6C"/>
<path d="M149.713 83.3642L165.286 92.5011L149.74 101.934L134.264 92.3978" fill="#E2BA6C"/>
<path d="M228.128 128.208L243.453 137.228L227.735 146.406L212.314 137.448" fill="#E2BA6C"/>
<path d="M258.66 128.422L273.875 137.2L258.874 146.186L243.453 137.228" fill="#C09141"/>
<path d="M196.259 92.6872L211.763 101.638L196.307 110.672L180.755 101.638" fill="#D1D3D4"/>
<path d="M196.493 97.0489L203.756 101.238L196.521 105.469V105.393L189.237 101.238" fill="#414042"/>
<path d="M203.755 101.238L211.762 101.638" stroke="#221F20" stroke-width="0.172265" stroke-miterlimit="10"/>
<path d="M196.493 97.0489L196.259 92.6872" stroke="#221F20" stroke-width="0.172265" stroke-miterlimit="10"/>
<path d="M196.307 110.672L196.52 105.393" stroke="#221F20" stroke-width="0.172265" stroke-miterlimit="10"/>
<path d="M180.755 101.638L189.237 101.238" stroke="#221F20" stroke-width="0.172265" stroke-miterlimit="10"/>
<path d="M203.025 101.679L196.493 97.9102V97.0489L203.756 101.238L203.025 101.679Z" fill="#6D6E71"/>
<path d="M189.968 101.679L196.493 97.9102V97.0489L189.237 101.238L189.968 101.679Z" fill="#949598"/>
<path d="M180.755 101.638L196.259 110.589L180.803 119.622L165.251 110.589" fill="#D1D3D4"/>
<path d="M180.996 106L188.252 110.189L181.017 114.42V114.344L173.733 110.189" fill="#414042"/>
<path d="M188.252 110.189L196.259 110.589" stroke="#221F20" stroke-width="0.172265" stroke-miterlimit="10"/>
<path d="M180.996 106L180.755 101.638" stroke="#221F20" stroke-width="0.172265" stroke-miterlimit="10"/>
<path d="M180.803 119.622L181.017 114.344" stroke="#221F20" stroke-width="0.172265" stroke-miterlimit="10"/>
<path d="M165.251 110.589L173.733 110.189" stroke="#221F20" stroke-width="0.172265" stroke-miterlimit="10"/>
<path d="M187.521 110.63L180.996 106.861V106L188.252 110.189L187.521 110.63Z" fill="#6D6E71"/>
<path d="M174.464 110.63L180.996 106.861V106L173.733 110.189L174.464 110.63Z" fill="#949598"/>
<path d="M165.279 110.568L180.783 119.519L165.327 128.553L149.775 119.519" fill="#D1D3D4"/>
<path d="M165.513 114.93L172.776 119.119L165.541 123.35V123.274L158.257 119.119" fill="#414042"/>
<path d="M172.776 119.119L180.783 119.519" stroke="#221F20" stroke-width="0.172265" stroke-miterlimit="10"/>
<path d="M165.513 114.93L165.279 110.568" stroke="#221F20" stroke-width="0.172265" stroke-miterlimit="10"/>
<path d="M165.327 128.553L165.541 123.274" stroke="#221F20" stroke-width="0.172265" stroke-miterlimit="10"/>
<path d="M149.775 119.519L158.257 119.119" stroke="#221F20" stroke-width="0.172265" stroke-miterlimit="10"/>
<path d="M172.045 119.56L165.513 115.791V114.93L172.775 119.119L172.045 119.56Z" fill="#6D6E71"/>
<path d="M158.988 119.56L165.513 115.791V114.93L158.257 119.119L158.988 119.56Z" fill="#949598"/>
<path d="M165.251 92.6458L180.755 101.597L165.3 110.63L149.748 101.597" fill="#D1D3D4"/>
<path d="M165.492 97.0076L172.748 101.197L165.513 105.428V105.352L158.229 101.197" fill="#414042"/>
<path d="M172.748 101.197L180.755 101.597" stroke="#221F20" stroke-width="0.172265" stroke-miterlimit="10"/>
<path d="M165.492 97.0076L165.251 92.6458" stroke="#221F20" stroke-width="0.172265" stroke-miterlimit="10"/>
<path d="M165.299 110.63L165.513 105.352" stroke="#221F20" stroke-width="0.172265" stroke-miterlimit="10"/>
<path d="M149.748 101.597L158.23 101.197" stroke="#221F20" stroke-width="0.172265" stroke-miterlimit="10"/>
<path d="M172.018 101.638L165.492 97.8689V97.0076L172.748 101.197L172.018 101.638Z" fill="#6D6E71"/>
<path d="M158.967 101.638L165.492 97.8689V97.0076L158.229 101.197L158.967 101.638Z" fill="#949598"/>
<path d="M211.763 101.638L227.26 110.589L211.804 119.622L196.259 110.589" fill="#D1D3D4"/>
<path d="M211.997 106L219.26 110.189L212.018 114.42V114.344L204.741 110.189" fill="#414042"/>
<path d="M219.26 110.189L227.26 110.589" stroke="#221F20" stroke-width="0.172265" stroke-miterlimit="10"/>
<path d="M211.997 106L211.763 101.638" stroke="#221F20" stroke-width="0.172265" stroke-miterlimit="10"/>
<path d="M211.804 119.622L212.017 114.344" stroke="#221F20" stroke-width="0.172265" stroke-miterlimit="10"/>
<path d="M196.259 110.589L204.741 110.189" stroke="#221F20" stroke-width="0.172265" stroke-miterlimit="10"/>
<path d="M218.522 110.63L211.997 106.861V106L219.26 110.189L218.522 110.63Z" fill="#6D6E71"/>
<path d="M205.472 110.63L211.997 106.861V106L204.741 110.189L205.472 110.63Z" fill="#949598"/>
<path d="M196.307 110.672L211.804 119.622L196.355 128.656L180.803 119.622" fill="#D1D3D4"/>
<path d="M196.541 115.033L203.804 119.223L196.569 123.454V123.378L189.286 119.223" fill="#414042"/>
<path d="M203.804 119.223L211.804 119.622" stroke="#221F20" stroke-width="0.172265" stroke-miterlimit="10"/>
<path d="M196.541 115.033L196.307 110.672" stroke="#221F20" stroke-width="0.172265" stroke-miterlimit="10"/>
<path d="M196.355 128.656L196.569 123.378" stroke="#221F20" stroke-width="0.172265" stroke-miterlimit="10"/>
<path d="M180.803 119.622L189.286 119.223" stroke="#221F20" stroke-width="0.172265" stroke-miterlimit="10"/>
<path d="M203.074 119.664L196.542 115.895V115.033L203.804 119.223L203.074 119.664Z" fill="#6D6E71"/>
<path d="M190.016 119.664L196.541 115.895V115.033L189.286 119.223L190.016 119.664Z" fill="#949598"/>
<path d="M227.639 110.734L243.018 119.616L227.687 128.573L212.266 119.616" fill="#D1D3D4"/>
<path d="M227.88 115.061L235.081 119.216L227.901 123.412V123.337L220.679 119.216" fill="#414042"/>
<path d="M235.081 119.216L243.018 119.616" stroke="#221F20" stroke-width="0.165374" stroke-miterlimit="10"/>
<path d="M227.88 115.061L227.639 110.734" stroke="#221F20" stroke-width="0.165374" stroke-miterlimit="10"/>
<path d="M227.687 128.573L227.9 123.337" stroke="#221F20" stroke-width="0.165374" stroke-miterlimit="10"/>
<path d="M212.266 119.616L220.679 119.216" stroke="#221F20" stroke-width="0.165374" stroke-miterlimit="10"/>
<path d="M234.35 119.657L227.88 115.915V115.061L235.081 119.216L234.35 119.657Z" fill="#6D6E71"/>
<path d="M221.403 119.657L227.88 115.915V115.061L220.679 119.216L221.403 119.657Z" fill="#949598"/>
<path d="M211.763 119.54L227.26 128.491L211.804 137.524L196.259 128.491" fill="#D1D3D4"/>
<path d="M211.997 123.902L219.26 128.091L212.018 132.322V132.246L204.741 128.091" fill="#414042"/>
<path d="M219.26 128.091L227.26 128.491" stroke="#221F20" stroke-width="0.172265" stroke-miterlimit="10"/>
<path d="M211.997 123.902L211.763 119.54" stroke="#221F20" stroke-width="0.172265" stroke-miterlimit="10"/>
<path d="M211.804 137.524L212.017 132.246" stroke="#221F20" stroke-width="0.172265" stroke-miterlimit="10"/>
<path d="M196.259 128.491L204.741 128.091" stroke="#221F20" stroke-width="0.172265" stroke-miterlimit="10"/>
<path d="M218.522 128.532L211.997 124.763V123.902L219.26 128.091L218.522 128.532Z" fill="#6D6E71"/>
<path d="M205.472 128.532L211.997 124.763V123.902L204.741 128.091L205.472 128.532Z" fill="#949598"/>
<path d="M294.932 149.211L196.259 92.6872L220.679 80.6493L290.632 85.2936L294.932 149.211Z" fill="white"/>
<path d="M64.6226 239.865L59.9166 237.148V235.41L61.4027 236.268V231.582L55.0201 227.897V232.583L56.5062 233.441V235.179L51.7812 232.451V230.713L53.2863 231.582V220.758L51.7812 219.889V218.151L56.5062 220.879V222.617L55.0201 221.759V226.203L61.4027 229.888V225.444L59.9166 224.586V222.848L64.6226 225.565V227.303L63.1365 226.445V237.269L64.6226 238.127V239.865ZM66.7383 232.001C67.2591 231.949 67.7671 232.001 68.2625 232.155C68.7706 232.301 69.3231 232.547 69.9201 232.892C70.8854 233.449 71.6475 234.16 72.2064 235.026C72.778 235.898 73.0638 236.899 73.0638 238.029V242.583C73.0638 243.228 73.286 243.679 73.7306 243.936C73.9084 244.038 74.0799 244.101 74.245 244.123L74.2641 245.278C73.9084 245.322 73.4956 245.208 73.0257 244.937C71.9968 244.343 71.4506 243.367 71.3871 242.011V241.989C71.1331 242.355 70.7647 242.605 70.2821 242.737C69.8121 242.876 69.2342 242.748 68.5483 242.352C67.964 242.014 67.3797 241.472 66.7955 240.724C66.2239 239.983 65.9381 239.099 65.9381 238.073C65.9381 236.841 66.3573 236.276 67.1956 236.379C68.0466 236.474 68.9548 236.8 69.9201 237.358C70.5044 237.695 70.9934 238.007 71.3871 238.293V237.567C71.3871 236.921 71.2792 236.309 71.0632 235.73C70.8473 235.15 70.3646 234.644 69.6152 234.212C69.0056 233.86 68.4911 233.687 68.072 233.695L67.7481 235.114L66.3954 234.157L66.7383 232.001ZM71.3871 239.987V239.415C71.1585 239.253 70.9172 239.092 70.6631 238.931C70.4218 238.762 70.1741 238.604 69.9201 238.458C69.3358 238.12 68.815 237.93 68.3578 237.886C67.9005 237.842 67.6719 238.164 67.6719 238.854C67.6719 239.382 67.8116 239.844 68.091 240.24C68.3832 240.643 68.7134 240.951 69.0818 241.164C69.6279 241.479 70.136 241.552 70.606 241.384C71.0759 241.215 71.3363 240.749 71.3871 239.987ZM85.4333 251.88L81.0131 249.328V247.832L82.3849 248.624V244.378C82.3849 243.381 82.2198 242.581 81.8896 241.98C81.5593 241.364 81.1211 240.898 80.5749 240.583C79.8636 240.172 79.2984 240.117 78.8793 240.418C78.4601 240.719 78.2378 241.221 78.2124 241.925V246.215L79.5842 247.007V248.503L75.164 245.951V244.455L76.5358 245.247V238.427L75.1068 237.602V236.084L78.2124 237.877V239.549C78.8094 238.647 79.7747 238.581 81.1084 239.351C81.934 239.828 82.6326 240.524 83.2042 241.441C83.7758 242.358 84.0616 243.439 84.0616 244.686V249.592L85.4333 250.384V251.88ZM93.4183 253.608C93.4183 254.591 93.0626 255.148 92.3513 255.28C91.6528 255.42 90.7636 255.178 89.684 254.554C88.3757 253.799 87.2643 252.835 86.3498 251.661L86.6165 249.439L87.9312 250.352L87.893 251.606C88.1471 251.9 88.4202 252.16 88.7123 252.387C89.0172 252.622 89.3156 252.824 89.6078 252.992C90.154 253.308 90.643 253.473 91.0748 253.487C91.5194 253.509 91.7417 253.271 91.7417 252.772C91.7417 252.288 91.5638 251.848 91.2082 251.452C90.8525 251.042 90.408 250.631 89.8745 250.22C89.3537 249.817 88.833 249.392 88.3122 248.944C87.7914 248.482 87.3532 247.965 86.9976 247.393C86.6419 246.807 86.4641 246.132 86.4641 245.369C86.4641 244.269 86.8134 243.708 87.512 243.686C88.2233 243.672 88.979 243.895 89.7793 244.357C90.3635 244.695 90.9097 245.098 91.4178 245.567C91.9385 246.029 92.4085 246.513 92.8277 247.019L93.0182 249.505L91.6845 248.911L91.494 247.261C90.9732 246.682 90.427 246.227 89.8555 245.897C89.3855 245.626 88.9981 245.505 88.6933 245.534C88.3884 245.564 88.236 245.813 88.236 246.282C88.236 246.737 88.4075 247.159 88.7504 247.547C89.1061 247.943 89.5379 248.339 90.046 248.735C90.5668 249.124 91.0812 249.546 91.5892 250C92.11 250.462 92.5419 250.983 92.8848 251.562C93.2405 252.149 93.4183 252.831 93.4183 253.608ZM111.826 267.118L107.12 264.401V262.663L108.606 263.521V258.835L102.224 255.15V259.836L103.71 260.694V262.432L98.9846 259.704V257.966L100.49 258.835V248.011L98.9846 247.142V245.404L103.71 248.132V249.87L102.224 249.012V253.456L108.606 257.141V252.697L107.12 251.839V250.101L111.826 252.818V254.556L110.34 253.698V264.522L111.826 265.38V267.118ZM121.472 267.781C121.472 269.292 121.066 270.289 120.253 270.773C119.453 271.265 118.392 271.129 117.071 270.366C115.776 269.618 114.747 268.562 113.985 267.198C113.235 265.842 112.861 264.408 112.861 262.897C112.861 261.46 113.223 260.437 113.947 259.828C114.671 259.22 115.75 259.33 117.186 260.158C118.621 260.987 119.694 262.12 120.405 263.557C121.117 264.98 121.472 266.388 121.472 267.781ZM119.72 266.703C119.72 265.618 119.485 264.624 119.015 263.722C118.557 262.828 117.935 262.153 117.148 261.698C116.322 261.222 115.687 261.192 115.242 261.61C114.81 262.021 114.594 262.747 114.594 263.788C114.594 264.786 114.804 265.757 115.223 266.703C115.655 267.642 116.29 268.353 117.128 268.837C117.954 269.314 118.589 269.343 119.034 268.925C119.491 268.5 119.72 267.759 119.72 266.703ZM126.876 275.807L122.456 273.255V271.759L123.828 272.551V260.429L122.399 259.604V258.086L125.504 259.879V273.519L126.876 274.311V275.807ZM132.067 278.804L127.647 276.252V274.756L129.019 275.548V263.426L127.59 262.601V261.083L130.696 262.876V276.516L132.067 277.308V278.804ZM140.897 280.998C140.809 281.798 140.447 282.322 139.811 282.571C139.176 282.821 138.313 282.63 137.22 281.999C135.988 281.288 134.991 280.287 134.229 278.996C133.467 277.706 133.086 276.254 133.086 274.64C133.086 273.115 133.442 272.059 134.153 271.472C134.864 270.886 135.848 270.955 137.106 271.681C138.275 272.356 139.183 273.298 139.83 274.508C140.478 275.718 140.809 276.921 140.821 278.116C140.821 278.512 140.783 278.908 140.707 279.304L134.839 275.916C134.915 278.043 135.747 279.565 137.335 280.481C137.995 280.863 138.49 280.965 138.821 280.789C139.164 280.621 139.392 280.313 139.507 279.865L140.897 280.998ZM139.087 277.071C139.138 276.455 138.999 275.759 138.668 274.981C138.351 274.197 137.817 273.588 137.068 273.155C136.369 272.752 135.842 272.719 135.486 273.056C135.144 273.386 134.934 273.911 134.858 274.629L139.087 277.071ZM143.386 273.195V270.929L145.12 271.93V274.196L143.386 273.195ZM146.549 287.165L142.11 284.602V283.106L143.501 283.909V277.089L142.053 276.253V274.735L145.177 276.539V284.877L146.549 285.669V287.165ZM157.774 293.646L153.353 291.094V289.598L154.725 290.39V286.144C154.725 285.146 154.56 284.347 154.23 283.746C153.9 283.13 153.461 282.664 152.915 282.349C152.204 281.938 151.639 281.883 151.219 282.184C150.8 282.484 150.578 282.987 150.553 283.691V287.981L151.924 288.773V290.269L147.504 287.717V286.221L148.876 287.013V280.193L147.447 279.368V277.85L150.553 279.643V281.315C151.15 280.413 152.115 280.347 153.449 281.117C154.274 281.593 154.973 282.29 155.544 283.207C156.116 284.123 156.402 285.205 156.402 286.452V291.358L157.774 292.15V293.646Z" fill="#818181"/>
</svg>
