<svg  viewBox="0 0 296 332" fill="none" xmlns="http://www.w3.org/2000/svg">
<path d="M154.862 60.7155L122.219 40.622L106.147 49.7881L106.793 50.4486L154.862 78.2037L203.576 50.0082L203.437 49.7734L187.857 40.7761L154.862 60.7155Z" fill="#A7A9AB"/>
<path d="M154.861 171.2V78.2037L106.793 50.4486L106.763 143.497" fill="#414042"/>
<path d="M154.862 78.2037L106.822 50.4632" stroke="#6D6E71" stroke-width="0.132098" stroke-miterlimit="10"/>
<path d="M154.862 81.1466L106.822 53.4061" stroke="#6D6E71" stroke-width="0.132098" stroke-miterlimit="10"/>
<path d="M154.862 83.9427L106.822 56.2095" stroke="#6D6E71" stroke-width="0.132098" stroke-miterlimit="10"/>
<path d="M154.862 86.658L106.822 58.9248" stroke="#6D6E71" stroke-width="0.132098" stroke-miterlimit="10"/>
<path d="M154.862 89.3146L106.822 61.5741" stroke="#6D6E71" stroke-width="0.132098" stroke-miterlimit="10"/>
<path d="M154.862 92.1107L106.822 64.3775" stroke="#6D6E71" stroke-width="0.132098" stroke-miterlimit="10"/>
<path d="M154.862 94.826L106.822 67.0928" stroke="#6D6E71" stroke-width="0.132098" stroke-miterlimit="10"/>
<path d="M154.862 97.5634L106.822 69.8302" stroke="#6D6E71" stroke-width="0.132098" stroke-miterlimit="10"/>
<path d="M154.862 100.367L106.822 72.6336" stroke="#6D6E71" stroke-width="0.132098" stroke-miterlimit="10"/>
<path d="M154.862 103.082L106.822 75.3416" stroke="#6D6E71" stroke-width="0.132098" stroke-miterlimit="10"/>
<path d="M154.862 105.937L106.822 78.2037" stroke="#6D6E71" stroke-width="0.132098" stroke-miterlimit="10"/>
<path d="M154.862 108.652L106.822 80.9117" stroke="#6D6E71" stroke-width="0.132098" stroke-miterlimit="10"/>
<path d="M154.862 111.309L106.822 83.5684" stroke="#6D6E71" stroke-width="0.132098" stroke-miterlimit="10"/>
<path d="M154.862 114.105L106.822 86.3718" stroke="#6D6E71" stroke-width="0.132098" stroke-miterlimit="10"/>
<path d="M154.862 116.82L106.822 89.0798" stroke="#6D6E71" stroke-width="0.132098" stroke-miterlimit="10"/>
<path d="M154.862 119.558L106.822 91.8245" stroke="#6D6E71" stroke-width="0.132098" stroke-miterlimit="10"/>
<path d="M154.862 122.361L106.822 94.6205" stroke="#6D6E71" stroke-width="0.132098" stroke-miterlimit="10"/>
<path d="M154.862 125.076L106.822 97.3359" stroke="#6D6E71" stroke-width="0.132098" stroke-miterlimit="10"/>
<path d="M154.862 127.792L106.822 100.059" stroke="#6D6E71" stroke-width="0.132098" stroke-miterlimit="10"/>
<path d="M154.862 130.507L106.822 102.767" stroke="#6D6E71" stroke-width="0.132098" stroke-miterlimit="10"/>
<path d="M154.862 133.156L106.822 105.423" stroke="#6D6E71" stroke-width="0.132098" stroke-miterlimit="10"/>
<path d="M154.862 135.96L106.822 108.227" stroke="#6D6E71" stroke-width="0.132098" stroke-miterlimit="10"/>
<path d="M154.862 138.675L106.822 110.935" stroke="#6D6E71" stroke-width="0.132098" stroke-miterlimit="10"/>
<path d="M154.862 141.412L106.822 113.679" stroke="#6D6E71" stroke-width="0.132098" stroke-miterlimit="10"/>
<path d="M154.862 144.216L106.822 116.475" stroke="#6D6E71" stroke-width="0.132098" stroke-miterlimit="10"/>
<path d="M154.862 146.931L106.822 119.191" stroke="#6D6E71" stroke-width="0.132098" stroke-miterlimit="10"/>
<path d="M154.862 149.72L106.822 121.987" stroke="#6D6E71" stroke-width="0.132098" stroke-miterlimit="10"/>
<path d="M154.862 152.435L106.822 124.695" stroke="#6D6E71" stroke-width="0.132098" stroke-miterlimit="10"/>
<path d="M154.862 155.085L106.822 127.351" stroke="#6D6E71" stroke-width="0.132098" stroke-miterlimit="10"/>
<path d="M154.862 157.888L106.822 130.155" stroke="#6D6E71" stroke-width="0.132098" stroke-miterlimit="10"/>
<path d="M154.862 160.603L106.822 132.863" stroke="#6D6E71" stroke-width="0.132098" stroke-miterlimit="10"/>
<path d="M154.862 163.341L106.822 135.6" stroke="#6D6E71" stroke-width="0.132098" stroke-miterlimit="10"/>
<path d="M154.862 166.144L106.822 138.404" stroke="#6D6E71" stroke-width="0.132098" stroke-miterlimit="10"/>
<path d="M154.862 168.859L106.822 141.119" stroke="#6D6E71" stroke-width="0.132098" stroke-miterlimit="10"/>
<path d="M154.862 171.2L106.822 143.46" stroke="#6D6E71" stroke-width="0.132098" stroke-miterlimit="10"/>
<path d="M106.763 143.497L106.822 50.4632" stroke="#6D6E71" stroke-width="0.132098" stroke-miterlimit="10"/>
<path d="M154.862 171.2V78.2037" stroke="#6D6E71" stroke-width="0.132098" stroke-miterlimit="10"/>
<path d="M152.521 169.916V77.0662" stroke="#6D6E71" stroke-width="0.132098" stroke-miterlimit="10"/>
<path d="M149.967 168.404V75.5618" stroke="#6D6E71" stroke-width="0.132098" stroke-miterlimit="10"/>
<path d="M147.42 166.9V74.05" stroke="#6D6E71" stroke-width="0.132098" stroke-miterlimit="10"/>
<path d="M144.866 165.388V72.5456" stroke="#6D6E71" stroke-width="0.132098" stroke-miterlimit="10"/>
<path d="M142.32 163.884V71.0338" stroke="#6D6E71" stroke-width="0.132098" stroke-miterlimit="10"/>
<path d="M139.766 162.372V69.522" stroke="#6D6E71" stroke-width="0.132098" stroke-miterlimit="10"/>
<path d="M137.219 160.86V68.0175" stroke="#6D6E71" stroke-width="0.132098" stroke-miterlimit="10"/>
<path d="M134.665 159.356V66.5058" stroke="#6D6E71" stroke-width="0.132098" stroke-miterlimit="10"/>
<path d="M132.119 158.079V65.0087" stroke="#6D6E71" stroke-width="0.132098" stroke-miterlimit="10"/>
<path d="M129.565 156.567V63.4969" stroke="#6D6E71" stroke-width="0.132098" stroke-miterlimit="10"/>
<path d="M127.019 155.143V62.2273" stroke="#6D6E71" stroke-width="0.132098" stroke-miterlimit="10"/>
<path d="M124.464 153.742V60.7448" stroke="#6D6E71" stroke-width="0.132098" stroke-miterlimit="10"/>
<path d="M121.918 152.23V59.2331" stroke="#6D6E71" stroke-width="0.132098" stroke-miterlimit="10"/>
<path d="M119.364 150.718V57.7286" stroke="#6D6E71" stroke-width="0.132098" stroke-miterlimit="10"/>
<path d="M116.817 149.206V56.2168" stroke="#6D6E71" stroke-width="0.132098" stroke-miterlimit="10"/>
<path d="M114.264 147.694V54.705" stroke="#6D6E71" stroke-width="0.132098" stroke-miterlimit="10"/>
<path d="M111.717 146.183V53.1933" stroke="#6D6E71" stroke-width="0.132098" stroke-miterlimit="10"/>
<path d="M109.163 144.671V51.6815" stroke="#6D6E71" stroke-width="0.132098" stroke-miterlimit="10"/>
<mask id="mask0_278_88355" style="mask-type:luminance" maskUnits="userSpaceOnUse" x="106" y="50" width="49" height="122">
<path d="M154.861 171.2V78.2037L106.793 50.4486L106.763 143.497" fill="white"/>
</mask>
<g mask="url(#mask0_278_88355)">
<g filter="url(#filter0_d_278_88355)">
<path d="M106.763 143.497L154.861 78.2037" stroke="#D1D3D4" stroke-width="1.75396" stroke-miterlimit="10"/>
</g>
<g filter="url(#filter1_d_278_88355)">
<path d="M154.876 171.193L106.807 50.4412" stroke="#D1D3D4" stroke-width="1.75396" stroke-miterlimit="10"/>
</g>
</g>
<path d="M154.861 78.2037L106.793 50.4486L106.763 143.497" stroke="#D1D3D4" stroke-width="1.75396" stroke-linejoin="round"/>
<path opacity="0.5" d="M197.111 31.1183L199.797 32.6374L197.111 34.1932V31.1183Z" fill="#69B9C5"/>
<path opacity="0.8" d="M191.658 34.1198L194.418 35.6096L191.732 37.1581L191.658 34.1198Z" fill="#69B9C5"/>
<path opacity="0.9" d="M194.52 32.7328L197.228 34.2299L194.542 35.7784L194.52 32.7328Z" fill="#69B9C5"/>
<path opacity="0.6" d="M159.368 23.574L162.824 25.3133V28.6524L159.368 26.8765V23.574Z" fill="#69B9C5"/>
<path opacity="0.6" d="M159.368 10.0707L162.824 12.0008V15.1344L159.368 13.2557V10.0707Z" fill="#69B9C5"/>
<path opacity="0.7" d="M159.368 13.2411L162.824 15.1345V18.5177L159.368 16.6683V13.2411Z" fill="#69B9C5"/>
<path opacity="0.8" d="M159.368 6.73157L162.824 8.67634V12.0008L159.368 10.0927V6.73157Z" fill="#69B9C5"/>
<path opacity="0.8" d="M165.907 6.99579L169.136 8.96258V12.287L165.907 10.4523V6.99579Z" fill="#69B9C5"/>
<path opacity="0.6" d="M159.368 16.6462L162.824 18.5176V21.776L159.368 19.89V16.6462Z" fill="#69B9C5"/>
<path opacity="0.9" d="M159.368 19.9927L162.824 21.9008V25.4234L159.368 23.552V19.9927Z" fill="#68B9C4"/>
<path opacity="0.6" d="M169.136 12.287L172.592 14.2465L172.644 17.4462L169.136 15.5748V12.287Z" fill="#69B9C5"/>
<path opacity="0.75" d="M169.136 9.0213L172.592 10.9881L172.644 14.1804L169.136 12.3164V9.0213Z" fill="#69B9C5"/>
<path opacity="0.75" d="M159.346 3.45116L162.795 5.41794L162.854 8.77176L159.346 6.74626V3.45116Z" fill="#69B9C5"/>
<path opacity="0.7" d="M169.136 15.5234L172.754 17.5489L172.592 20.5725L169.136 18.7011V15.5234Z" fill="#69B9C5"/>
<path opacity="0.8" d="M169.136 18.6791L172.812 20.6899L172.754 23.8676L169.136 21.9228V18.6791Z" fill="#69B9C5"/>
<path opacity="0.6" d="M169.194 21.9595L172.754 23.8676L172.812 27.2581L169.136 25.2693L169.194 21.9595Z" fill="#69B9C5"/>
<path opacity="0.9" d="M169.136 25.2693L172.812 27.2581L172.864 30.7807L169.128 28.7479L169.136 25.2693Z" fill="#68B9C4"/>
<path opacity="0.9" d="M162.824 8.67636L165.907 10.4523V13.7254L162.824 11.9935V8.67636Z" fill="#68B9C4"/>
<path opacity="0.9" d="M155.317 1.1248L159.368 3.46586V6.73161L155.317 4.44192V1.1248Z" fill="#68B9C4"/>
<path opacity="0.9" d="M162.824 12.0008L165.907 13.7254V16.8884L162.824 15.1271V12.0008Z" fill="#68B9C4"/>
<path opacity="0.6" d="M162.824 15.1345L165.907 16.8884V20.2349L162.824 18.547V15.1345Z" fill="#69B9C5"/>
<path opacity="0.8" d="M162.824 18.5176L165.907 20.2349V23.5153L162.824 21.9008V18.5176Z" fill="#69B9C5"/>
<path opacity="0.9" d="M162.824 21.9008L165.907 23.5153V27.0379L162.824 25.4234V21.9008Z" fill="#68B9C4"/>
<path opacity="0.6" d="M165.907 10.4523L169.136 12.287V15.5748L165.907 13.7328V10.4523Z" fill="#69B9C5"/>
<path opacity="0.6" d="M162.824 5.47667L165.907 7.16458V10.4523L162.824 8.67637V5.47667Z" fill="#69B9C5"/>
<path opacity="0.9" d="M165.907 13.7254L169.136 15.5748V18.7011L165.907 16.8958V13.7254Z" fill="#68B9C4"/>
<path opacity="0.9" d="M165.907 16.8884L169.136 18.7011V21.9228L165.907 20.1175V16.8884Z" fill="#68B9C4"/>
<path opacity="0.6" d="M165.907 20.1322L169.136 21.9228V25.2693L165.907 23.4419V20.1322Z" fill="#69B9C5"/>
<path opacity="0.7" d="M165.907 23.5153L169.136 25.3133L169.128 28.7478L165.907 27.0379V23.5153Z" fill="#69B9C5"/>
<path opacity="0.6" d="M155.317 4.44188L159.368 6.73157V10.0707L155.317 7.81037V4.44188Z" fill="#69B9C5"/>
<path opacity="0.7" d="M155.199 7.74432L159.368 10.0707V13.2557L155.141 10.9807L155.199 7.74432Z" fill="#69B9C5"/>
<path opacity="0.8" d="M155.39 11.0614L159.368 13.2411V16.6683L155.317 14.4886L155.39 11.0614Z" fill="#69B9C5"/>
<path opacity="0.9" d="M155.199 14.3932L159.368 16.6462V19.89L155.324 17.7837L155.199 14.3932Z" fill="#68B9C4"/>
<path opacity="0.7" d="M155.361 17.7911L159.368 19.9927V23.574L155.339 21.4384L155.361 17.7911Z" fill="#69B9C5"/>
<path opacity="0.6" d="M172.753 14.3639L175.968 16.1692V19.3689L172.753 17.5489V14.3639Z" fill="#69B9C5"/>
<path opacity="0.7" d="M172.753 17.5489L175.968 19.3689L176.019 22.5026L172.812 20.6899L172.753 17.5489Z" fill="#69B9C5"/>
<path opacity="0.8" d="M172.775 20.7046L176.019 22.5026L176.056 25.6509L172.753 23.8676L172.775 20.7046Z" fill="#69B9C5"/>
<path opacity="0.9" d="M172.812 23.919L176.056 25.6729L176.092 28.9607L172.863 27.2287L172.812 23.919Z" fill="#68B9C4"/>
<path opacity="0.9" d="M172.724 11.0835L175.968 12.8374L176.005 16.1252L172.775 14.4006L172.724 11.0835Z" fill="#68B9C4"/>
<path opacity="0.6" d="M175.968 16.2426L179.659 18.18V21.4018L175.968 19.3763V16.2426Z" fill="#69B9C5"/>
<path opacity="0.9" d="M175.968 19.3689L179.608 21.3724L179.659 24.5134L176.019 22.5099L175.968 19.3689Z" fill="#69B9C5"/>
<path opacity="0.9" d="M179.659 24.5134L182.624 26.1573V29.2322L179.659 27.6544V24.5134Z" fill="#69B9C5"/>
<path opacity="0.8" d="M179.659 27.625L182.624 29.2322L182.602 32.5347L179.659 30.9128V27.625Z" fill="#69B9C5"/>
<path opacity="0.7" d="M176.02 22.5026L179.66 24.5134V27.625L176.056 25.7023L176.02 22.5026Z" fill="#69B9C5"/>
<path opacity="0.8" d="M176.056 25.6729L179.659 27.625V30.9128L176.092 28.9827L176.056 25.6729Z" fill="#68B9C4"/>
<path opacity="0.6" d="M182.617 19.912L185.773 21.688V24.8143L182.617 22.9943V19.912Z" fill="#69B9C5"/>
<path opacity="0.6" d="M185.707 18.6497L188.708 20.2643V23.3832L185.707 21.732V18.6497Z" fill="#69B9C5"/>
<path opacity="0.6" d="M179.659 21.4018L182.602 23.0383L182.624 26.1573L179.659 24.4914V21.4018Z" fill="#69B9C5"/>
<path opacity="0.9" d="M182.602 23.0383L185.772 24.8657V27.8452L182.602 26.1353V23.0383Z" fill="#69B9C5"/>
<path opacity="0.7" d="M182.624 26.1573L185.772 27.8452L185.78 30.9348L182.602 29.1809L182.624 26.1573Z" fill="#69B9C5"/>
<path opacity="0.6" d="M182.624 29.2322L185.78 30.9348L185.758 34.1125L182.602 32.5347L182.624 29.2322Z" fill="#68B9C4"/>
<path opacity="0.7" d="M179.63 18.2828L182.617 20.0001L182.602 23.0383L179.659 21.4385L179.63 18.2828Z" fill="#68B9C4"/>
<path opacity="0.7" d="M175.938 13.0135L179.659 15.1271L179.645 18.1654L175.968 16.1692L175.938 13.0135Z" fill="#68B9C4"/>
<path opacity="0.9" d="M188.62 23.3465L191.629 24.9904V28.1534L188.62 26.4435V23.3465Z" fill="#69B9C5"/>
<path opacity="0.9" d="M179.615 15.1418L182.631 16.7857V19.9487L179.615 18.2388V15.1418Z" fill="#69B9C5"/>
<path opacity="0.7" d="M188.62 26.3995L191.629 28.1534V31.0743L188.62 29.4671V26.3995Z" fill="#69B9C5"/>
<path opacity="0.8" d="M188.62 29.4817L191.629 31.0742L191.658 34.1198L188.62 32.5126V29.4817Z" fill="#69B9C5"/>
<path opacity="0.9" d="M188.635 32.498L191.658 34.1198L191.629 37.2902L188.613 35.8298L188.635 32.498Z" fill="#68B9C4"/>
<path opacity="0.7" d="M197.111 25.761L199.797 27.4562V29.7386L197.111 28.1167V25.761Z" fill="#69B9C5"/>
<path opacity="0.9" d="M194.505 24.3299L197.14 25.9371V28.2195L194.505 26.6857V24.3299Z" fill="#69B9C5"/>
<path opacity="0.7" d="M199.797 27.3168L202.41 28.7405L202.483 31.243L199.797 29.6799V27.3168Z" fill="#69B9C5"/>
<path opacity="0.8" d="M185.773 21.732L188.62 23.3906V26.4435L185.773 24.8143V21.732Z" fill="#69B9C5"/>
<path opacity="0.8" d="M182.624 17.0132L185.78 18.6717V21.7246L182.624 20.0954V17.0132Z" fill="#69B9C5"/>
<path opacity="0.9" d="M185.773 24.8143L188.62 26.4435V29.4671L185.773 27.9479V24.8143Z" fill="#69B9C5"/>
<path opacity="0.9" d="M188.671 20.3743L191.658 22.0035V25.0344L188.62 23.3465L188.671 20.3743Z" fill="#69B9C5"/>
<path opacity="0.7" d="M185.773 27.8452L188.598 29.423L188.62 32.5126L185.773 30.8908V27.8452Z" fill="#69B9C5"/>
<path opacity="0.6" d="M185.78 30.9348L188.635 32.498L188.62 35.6757L185.758 34.1125L185.78 30.9348Z" fill="#68B9C4"/>
<path opacity="0.8" d="M191.658 22.576L194.506 24.0731V26.6857L191.629 24.9904L191.658 22.576Z" fill="#69B9C5"/>
<path opacity="0.9" d="M191.629 24.9904L194.484 26.7297L194.535 29.7019L191.658 28.08L191.629 24.9904Z" fill="#69B9C5"/>
<path opacity="0.9" d="M194.535 29.7019L197.096 31.1476L197.111 34.1932L194.52 32.7328L194.535 29.7019Z" fill="#69B9C5"/>
<path opacity="0.9" d="M199.797 29.7386L202.41 31.1696L199.834 32.7622L199.797 29.7386Z" fill="#69B9C5"/>
<path opacity="0.8" d="M202.41 28.9167L204.553 29.8927L202.41 31.1696V28.9167Z" fill="#69B9C5"/>
<path opacity="0.7" d="M191.658 28.08L194.52 29.6946V32.7328L191.688 31.1623L191.658 28.08Z" fill="#69B9C5"/>
<path opacity="0.6" d="M197.111 28.1167L199.797 29.6725V32.6374L197.111 31.1183V28.1167Z" fill="#69B9C5"/>
<path opacity="0.7" d="M194.505 26.6857L197.111 28.1461V31.1183L194.535 29.7019L194.505 26.6857Z" fill="#69B9C5"/>
<path opacity="0.6" d="M191.688 31.1623L194.52 32.7768L194.542 35.6757L191.658 34.1198L191.688 31.1623Z" fill="#68B9C4"/>
<path opacity="0.9" d="M155.141 21.3284L159.316 23.6034L159.368 26.8765L155.229 24.6602L155.141 21.3284Z" fill="#68B9C4"/>
<path opacity="0.6" d="M155.368 24.7336L159.367 26.8691V30.4431L155.302 28.2928L155.368 24.7336Z" fill="#69B9C5"/>
<path opacity="0.7" d="M155.155 28.2195L159.368 30.4211L159.36 33.7089L155.141 31.4118L155.155 28.2195Z" fill="#69B9C5"/>
<path opacity="0.8" d="M155.353 31.5953L159.36 33.7089L159.338 37.5323L155.324 35.4261L155.353 31.5953Z" fill="#69B9C5"/>
<path opacity="0.6" d="M155.155 46.4049L159.331 48.6652V52.2099L155.141 50.089L155.155 46.4049Z" fill="#69B9C5"/>
<path opacity="0.7" d="M155.141 50.089L159.331 52.2099L159.368 55.982L155.199 53.729L155.141 50.089Z" fill="#69B9C5"/>
<path opacity="0.8" d="M155.199 53.729L159.368 55.982L155.141 58.4185L155.199 53.729Z" fill="#69B9C5"/>
<path opacity="0.9" d="M155.251 35.3968L159.339 37.5323L159.39 40.8201L155.324 38.7506L155.251 35.3968Z" fill="#68B9C4"/>
<path opacity="0.9" d="M155.199 38.5084L159.39 40.8201L159.419 45.0252L155.119 42.5594L155.199 38.5084Z" fill="#68B9C4"/>
<path opacity="0.9" d="M165.98 44.2693L169.135 45.9499V50.3458L165.855 48.5478L165.98 44.2693Z" fill="#68B9C4"/>
<path opacity="0.9" d="M162.824 50.566L165.907 52.2099L162.824 53.9858V50.566Z" fill="#68B9C4"/>
<path opacity="0.9" d="M159.331 52.2099L162.751 53.9858L159.419 55.9159L159.331 52.2099Z" fill="#68B9C4"/>
<path opacity="0.8" d="M165.855 48.5479L168.937 50.3532L165.862 52.1292L165.855 48.5479Z" fill="#68B9C4"/>
<path opacity="0.7" d="M155.119 42.5594L159.419 45.0252L159.302 48.7166L155.155 46.4049L155.119 42.5594Z" fill="#69B9C5"/>
<path opacity="0.9" d="M159.419 45.0252L162.795 46.8672L162.824 50.566L159.302 48.7166L159.419 45.0252Z" fill="#68B9C4"/>
<path opacity="0.7" d="M159.302 48.7166L162.81 50.566L162.824 53.9858L159.316 52.1291L159.302 48.7166Z" fill="#69B9C5"/>
<path opacity="0.8" d="M159.368 26.8985L162.824 28.6525V32.1677L159.368 30.4431V26.8985Z" fill="#69B9C5"/>
<path opacity="0.6" d="M159.368 30.4211L162.824 32.1677V35.4922L159.368 33.6942V30.4211Z" fill="#69B9C5"/>
<path opacity="0.6" d="M159.338 37.5323L162.839 39.3083L162.817 42.5594L159.36 40.8788L159.338 37.5323Z" fill="#69B9C5"/>
<path opacity="0.6" d="M159.338 40.8348L162.81 42.6621L162.839 46.8966L159.419 45.0252L159.338 40.8348Z" fill="#69B9C5"/>
<path opacity="0.6" d="M162.839 46.8966L165.855 48.5478L165.907 52.2099L162.824 50.566L162.839 46.8966Z" fill="#69B9C5"/>
<path opacity="0.6" d="M169.128 28.7478L172.864 30.7807L172.879 34.0538L169.136 32.0209L169.128 28.7478Z" fill="#69B9C5"/>
<path opacity="0.7" d="M169.136 31.9549L172.878 34.0538L172.981 37.5397L169.136 35.5362V31.9549Z" fill="#69B9C5"/>
<path opacity="0.8" d="M169.136 35.5289L172.981 37.5397V40.7174L169.136 38.7799V35.5289Z" fill="#69B9C5"/>
<path opacity="0.5" d="M169.136 38.78L173.025 40.7834L173.033 44.5702L169.136 42.5594V38.78Z" fill="#69B9C5"/>
<path opacity="0.5" d="M169.136 45.9499L172.952 48.1368L169.136 50.4412V45.9499Z" fill="#69B9C5"/>
<path opacity="0.5" d="M173.165 44.651L176.254 46.2288L173.165 48.0928V44.651Z" fill="#69B9C5"/>
<path opacity="0.9" d="M165.907 40.8935L169.136 42.5594V45.9499L165.907 44.328V40.8935Z" fill="#68B9C4"/>
<path opacity="0.9" d="M162.824 25.4087L165.907 26.9939V30.3624L162.824 28.7258V25.4087Z" fill="#68B9C4"/>
<path opacity="0.9" d="M162.824 28.7038L165.907 30.3624V33.8409L162.824 32.1677V28.7038Z" fill="#68B9C4"/>
<path opacity="0.6" d="M162.824 32.2337L165.907 33.8409V37.092L162.824 35.4922V32.2337Z" fill="#69B9C5"/>
<path opacity="0.8" d="M162.824 35.4922L165.907 37.092V40.8935L162.824 39.367V35.4922Z" fill="#69B9C5"/>
<path opacity="0.9" d="M162.839 39.3083L165.907 40.8935V44.328L162.78 42.6842L162.839 39.3083Z" fill="#68B9C4"/>
<path opacity="0.9" d="M159.36 33.7088L162.824 35.4922L162.839 39.3083L159.36 37.547V33.7088Z" fill="#68B9C4"/>
<path opacity="0.8" d="M169.136 42.5594L173.165 44.6509V47.9901L169.136 45.9499V42.5594Z" fill="#68B9C4"/>
<path opacity="0.6" d="M165.907 27.0379L169.136 28.7259V32.021L165.907 30.3624V27.0379Z" fill="#69B9C5"/>
<path opacity="0.9" d="M165.907 30.3624L169.136 31.9989V35.5362L165.907 33.8409V30.3624Z" fill="#68B9C4"/>
<path opacity="0.9" d="M165.907 33.8997L169.136 35.5362V38.7799L165.907 37.092V33.8997Z" fill="#68B9C4"/>
<path opacity="0.6" d="M165.907 37.1214L169.136 38.78V42.5594L165.907 40.8935V37.1214Z" fill="#69B9C5"/>
<path opacity="0.7" d="M162.883 42.6842L165.98 44.2693L165.855 48.5478L162.839 46.8966L162.883 42.6842Z" fill="#69B9C5"/>
<path opacity="0.6" d="M172.981 37.5397L176.188 39.257L176.283 42.464L173.025 40.7834L172.981 37.5397Z" fill="#69B9C5"/>
<path opacity="0.7" d="M173.025 40.8935L176.283 42.464L176.254 46.2288L173.164 44.6509L173.025 40.8935Z" fill="#69B9C5"/>
<path opacity="0.8" d="M176.284 42.464L179.66 44.2693L176.254 46.2288L176.284 42.464Z" fill="#69B9C5"/>
<path opacity="0.9" d="M172.864 27.2287L176.093 28.9754V32.476L172.878 30.7L172.864 27.2287Z" fill="#68B9C4"/>
<path opacity="0.9" d="M185.81 34.1932L188.62 35.6757V39.1029L185.773 37.5764L185.81 34.1932Z" fill="#68B9C4"/>
<path opacity="0.9" d="M182.602 39.235L185.684 40.8421L182.602 42.6181V39.235Z" fill="#68B9C4"/>
<path opacity="0.8" d="M185.773 37.5764L188.62 39.0955L185.773 40.6587V37.5764Z" fill="#68B9C4"/>
<path opacity="0.7" d="M172.878 30.7L176.093 32.4759L176.152 35.8298L172.878 34.0538V30.7Z" fill="#69B9C5"/>
<path opacity="0.6" d="M179.645 41.0183L182.602 42.6181L179.659 44.2693L179.645 41.0183Z" fill="#69B9C5"/>
<path opacity="0.9" d="M179.659 34.3253L182.602 35.9031V39.2349L179.659 37.6645V34.3253Z" fill="#68B9C4"/>
<path opacity="0.8" d="M179.659 30.8981L182.602 32.564V35.9031L179.659 34.3253V30.8981Z" fill="#68B9C4"/>
<path opacity="0.8" d="M179.659 37.6644L182.602 39.2863V42.6181L179.659 41.0476V37.6644Z" fill="#68B9C4"/>
<path opacity="0.9" d="M172.952 34.1198L176.108 35.8518L176.189 39.2569L172.981 37.5397L172.952 34.1198Z" fill="#68B9C4"/>
<path opacity="0.9" d="M176.188 39.2569L179.645 41.0182L179.659 44.2693L176.283 42.464L176.188 39.2569Z" fill="#69B9C5"/>
<path opacity="0.6" d="M176.093 28.9754L179.674 30.9862L179.659 34.3253L176.093 32.476V28.9754Z" fill="#69B9C5"/>
<path opacity="0.7" d="M176.093 32.4759L179.681 34.362L179.659 37.6644L176.151 35.8298L176.093 32.4759Z" fill="#69B9C5"/>
<path opacity="0.6" d="M176.151 35.8298L179.674 37.6938L179.645 41.0183L176.269 39.323L176.151 35.8298Z" fill="#69B9C5"/>
<path opacity="0.6" d="M182.602 35.9031L185.772 37.5911L185.684 40.8421L182.602 39.2716V35.9031Z" fill="#69B9C5"/>
<path opacity="0.5" d="M188.62 35.6756L191.629 37.2902L188.62 39.0955V35.6756Z" fill="#69B9C5"/>
<path opacity="0.7" d="M182.617 32.4833L185.809 34.1932L185.772 37.6204L182.602 35.9031L182.617 32.4833Z" fill="#69B9C5"/>
<path d="M202.409 31.1696L155.111 4.32448" stroke="#221F20" stroke-width="0.132098" stroke-miterlimit="10"/>
<path d="M199.797 32.6374L155.199 7.74432" stroke="#221F20" stroke-width="0.132098" stroke-miterlimit="10"/>
<path d="M197.111 34.1932L155.199 10.9514" stroke="#221F20" stroke-width="0.132098" stroke-miterlimit="10"/>
<path d="M194.542 35.6756L155.199 14.3932" stroke="#221F20" stroke-width="0.132098" stroke-miterlimit="10"/>
<path d="M188.62 39.0955L155.141 21.3284" stroke="#221F20" stroke-width="0.132098" stroke-miterlimit="10"/>
<path d="M185.574 40.8128L155.229 24.6602" stroke="#221F20" stroke-width="0.132098" stroke-miterlimit="10"/>
<path d="M179.659 44.2693L155.199 31.5146" stroke="#221F20" stroke-width="0.132098" stroke-miterlimit="10"/>
<path d="M176.254 46.2288L155.141 35.3381" stroke="#221F20" stroke-width="0.132098" stroke-miterlimit="10"/>
<path d="M173.128 48.0341L155.016 38.5818" stroke="#221F20" stroke-width="0.35226" stroke-miterlimit="10"/>
<path d="M169.136 50.3458L155.053 42.6401" stroke="#221F20" stroke-width="0.132098" stroke-miterlimit="10"/>
<path d="M165.906 52.2099L155.287 46.493" stroke="#221F20" stroke-width="0.132098" stroke-miterlimit="10"/>
<path d="M162.824 53.9858L155.141 50.089" stroke="#221F20" stroke-width="0.132098" stroke-miterlimit="10"/>
<path d="M159.368 55.982L155.199 53.729" stroke="#221F20" stroke-width="0.132098" stroke-miterlimit="10"/>
<path d="M159.368 3.45116V55.982" stroke="#221F20" stroke-width="0.132098" stroke-miterlimit="10"/>
<path d="M162.824 5.47667V53.9858" stroke="#221F20" stroke-width="0.132098" stroke-miterlimit="10"/>
<path d="M165.907 7.28198V52.2099" stroke="#221F20" stroke-width="0.132098" stroke-miterlimit="10"/>
<path d="M169.136 9.16805V50.3458" stroke="#221F20" stroke-width="0.132098" stroke-miterlimit="10"/>
<path d="M172.599 11.2009L173.128 48.0341" stroke="#221F20" stroke-width="0.35226" stroke-miterlimit="10"/>
<path d="M191.629 22.1723V37.3562" stroke="#221F20" stroke-width="0.35226" stroke-miterlimit="10"/>
<path d="M191.629 37.3562L155.287 17.7471" stroke="#221F20" stroke-width="0.35226" stroke-miterlimit="10"/>
<path d="M182.602 42.5667L155.155 28.2195" stroke="#221F20" stroke-width="0.132098" stroke-miterlimit="10"/>
<path d="M175.931 13.1457L176.254 46.2288" stroke="#221F20" stroke-width="0.132098" stroke-miterlimit="10"/>
<path d="M179.659 15.3253V44.2693" stroke="#221F20" stroke-width="0.132098" stroke-miterlimit="10"/>
<path d="M182.602 17.0499V42.5667" stroke="#221F20" stroke-width="0.132098" stroke-miterlimit="10"/>
<path d="M185.773 18.9066V40.8128" stroke="#221F20" stroke-width="0.132098" stroke-miterlimit="10"/>
<path d="M188.62 20.8514V39.0955" stroke="#221F20" stroke-width="0.132098" stroke-miterlimit="10"/>
<path d="M194.535 23.8309V35.6756" stroke="#221F20" stroke-width="0.132098" stroke-miterlimit="10"/>
<path d="M197.111 25.5702V34.1932" stroke="#221F20" stroke-width="0.132098" stroke-miterlimit="10"/>
<path d="M199.797 27.0893V32.6374" stroke="#221F20" stroke-width="0.132098" stroke-miterlimit="10"/>
<path d="M202.41 28.8506V31.1697" stroke="#221F20" stroke-width="0.132098" stroke-miterlimit="10"/>
<path opacity="0.8" d="M166.303 232.934H143.414C151.67 207.894 152.345 202.662 154.855 171.2C157.365 202.669 158.04 207.894 166.296 232.934" fill="#69B9C5"/>
<path d="M147.985 232.934C154.818 207.865 152.352 202.662 154.862 171.2" stroke="#221F20" stroke-width="0.0880651" stroke-miterlimit="10"/>
<path d="M161.738 232.934C154.906 207.865 157.372 202.662 154.862 171.2" stroke="#221F20" stroke-width="0.0880651" stroke-miterlimit="10"/>
<path d="M154.862 232.934V171.2" stroke="#221F20" stroke-width="0.0880651" stroke-miterlimit="10"/>
<path d="M144.418 229.874H165.305" stroke="#221F20" stroke-width="0.0880651" stroke-miterlimit="10"/>
<path d="M145.46 226.652H164.262" stroke="#221F20" stroke-width="0.0880651" stroke-miterlimit="10"/>
<path d="M146.474 223.43H163.25" stroke="#221F20" stroke-width="0.0880651" stroke-miterlimit="10"/>
<path d="M147.369 220.201H162.266" stroke="#221F20" stroke-width="0.0880651" stroke-miterlimit="10"/>
<path d="M148.381 216.98H161.342" stroke="#221F20" stroke-width="0.0880651" stroke-miterlimit="10"/>
<path d="M149.512 212.73H160.212" stroke="#221F20" stroke-width="0.0880651" stroke-miterlimit="10"/>
<path d="M150.502 208.474H159.221" stroke="#221F20" stroke-width="0.0880651" stroke-miterlimit="10"/>
<path d="M151.339 204.225H158.384" stroke="#221F20" stroke-width="0.0880651" stroke-miterlimit="10"/>
<path d="M152.411 197.231H157.313" stroke="#221F20" stroke-width="0.0880651" stroke-miterlimit="10"/>
<path d="M153.21 190.245H156.513" stroke="#221F20" stroke-width="0.0880651" stroke-miterlimit="10"/>
<path d="M153.871 183.251H155.853" stroke="#221F20" stroke-width="0.0880651" stroke-miterlimit="10"/>
<path d="M154.817 223.43L157.628 226.652" stroke="#221F20" stroke-width="0.0880651" stroke-miterlimit="10"/>
<path d="M157.629 226.652L157.467 232.934" stroke="#221F20" stroke-width="0.0880651" stroke-miterlimit="10"/>
<path d="M154.891 223.43L152.08 226.652" stroke="#221F20" stroke-width="0.0880651" stroke-miterlimit="10"/>
<path d="M152.08 226.652L152.242 232.934" stroke="#221F20" stroke-width="0.0880651" stroke-miterlimit="10"/>
<path d="M154.862 58.3744L204.545 29.6872V32.0283L154.862 60.7155V58.3744Z" fill="#58595B"/>
<path d="M156.63 314.358L150.554 310.85L156.63 307.342L162.699 310.85L156.63 314.358Z" fill="#E7BB9A"/>
<path d="M156.63 314.358L150.554 310.85V317.858L156.63 321.366V314.358Z" fill="#DEB18D"/>
<path d="M156.63 314.358L162.7 310.85V317.858L156.63 321.366V314.358Z" fill="#EEC8AB"/>
<path d="M145.762 320.632L139.685 317.124L145.762 313.616L151.831 317.124L145.762 320.632Z" fill="#E7BB9A"/>
<path d="M145.762 320.632L139.685 317.124V324.14L145.762 327.641V320.632Z" fill="#DEB18D"/>
<path d="M145.762 320.632L151.831 317.124V324.14L145.762 327.641V320.632Z" fill="#EEC8AB"/>
<path d="M204.552 233.301L186.785 223.041L167.954 233.888L166.303 232.934H143.421L141.769 233.888L122.938 223.041L105.171 233.301L154.862 261.988L204.552 233.301Z" fill="#DEB18D"/>
<path d="M138.643 302.293L120.252 291.674V312.912L138.643 302.293Z" fill="#CC9D7B"/>
<path d="M120.252 312.912L105.171 304.208V233.301L154.862 261.988V311.657L120.252 291.674V312.912Z" fill="#D5A17C"/>
<path d="M154.862 261.988L204.553 233.301V282.97L154.862 311.657V261.988Z" fill="#EEC8AB"/>
<path d="M105.171 245.432L154.862 274.119" stroke="#BB8B66" stroke-width="0.205485" stroke-miterlimit="10"/>
<path d="M105.171 260.557L154.862 289.244" stroke="#BB8B66" stroke-width="0.205485" stroke-miterlimit="10"/>
<path d="M105.171 275.536L154.862 304.223" stroke="#BB8B66" stroke-width="0.205485" stroke-miterlimit="10"/>
<path d="M204.553 245.432L154.862 274.119" stroke="#BB8B66" stroke-width="0.205485" stroke-miterlimit="10"/>
<path d="M204.553 260.557L154.862 289.244" stroke="#BB8B66" stroke-width="0.205485" stroke-miterlimit="10"/>
<path d="M204.553 275.536L154.862 304.223" stroke="#BB8B66" stroke-width="0.205485" stroke-miterlimit="10"/>
<path d="M105.171 293.883L120.252 302.586" stroke="#BB8B66" stroke-width="0.205485" stroke-miterlimit="10"/>
<path opacity="0.5" d="M112.95 31.1109L110.264 32.6301L112.95 34.1786V31.1109Z" fill="#69B9C5"/>
<path opacity="0.8" d="M118.403 34.1051L115.644 35.6023L118.33 37.1507L118.403 34.1051Z" fill="#69B9C5"/>
<path opacity="0.9" d="M115.533 32.7255L112.833 34.2152L115.519 35.7711L115.533 32.7255Z" fill="#69B9C5"/>
<path opacity="0.6" d="M150.693 23.5594L147.229 25.2986V28.6378L150.693 26.8618V23.5594Z" fill="#69B9C5"/>
<path opacity="0.6" d="M150.693 10.0634L147.229 11.9935V15.1198L150.693 13.2411V10.0634Z" fill="#69B9C5"/>
<path opacity="0.7" d="M150.693 13.2337L147.229 15.1198V18.5103L150.693 16.6536V13.2337Z" fill="#69B9C5"/>
<path opacity="0.8" d="M150.693 6.72427L147.229 8.66905V11.9935L150.693 10.0854V6.72427Z" fill="#69B9C5"/>
<path opacity="0.8" d="M144.154 6.98845L140.925 8.9479V12.2797L144.154 10.445V6.98845Z" fill="#69B9C5"/>
<path opacity="0.6" d="M150.693 16.6389L147.229 18.5103V21.7613L150.693 19.8826V16.6389Z" fill="#69B9C5"/>
<path opacity="0.9" d="M150.693 19.978L147.229 21.8934V25.416L150.693 23.5373V19.978Z" fill="#68B9C4"/>
<path opacity="0.6" d="M140.925 12.2797L137.469 14.2391L137.417 17.4315L140.925 15.5674V12.2797Z" fill="#69B9C5"/>
<path opacity="0.75" d="M140.925 9.01396L137.469 10.9734L137.417 14.1731L140.925 12.3017V9.01396Z" fill="#69B9C5"/>
<path opacity="0.75" d="M150.715 3.44382L147.258 5.40327L147.2 8.75708L150.715 6.73158V3.44382Z" fill="#69B9C5"/>
<path opacity="0.7" d="M140.926 15.5161L137.3 17.5342L137.462 20.5651L140.926 18.6938V15.5161Z" fill="#69B9C5"/>
<path opacity="0.8" d="M140.925 18.6717L137.249 20.6826L137.3 23.8529L140.925 21.9081V18.6717Z" fill="#69B9C5"/>
<path opacity="0.6" d="M140.867 21.9522L137.3 23.8529L137.249 27.2507L140.925 25.2619L140.867 21.9522Z" fill="#69B9C5"/>
<path opacity="0.9" d="M140.925 25.2619L137.249 27.2507L137.197 30.766L140.925 28.7405V25.2619Z" fill="#68B9C4"/>
<path opacity="0.9" d="M147.229 8.66902L144.154 10.445V13.7108L147.229 11.9861V8.66902Z" fill="#68B9C4"/>
<path opacity="0.9" d="M154.744 1.11745L150.693 3.45117V6.72426L154.744 4.43457V1.11745Z" fill="#68B9C4"/>
<path opacity="0.9" d="M147.229 11.9935L144.154 13.7108V16.8811L147.229 15.1198V11.9935Z" fill="#68B9C4"/>
<path opacity="0.6" d="M147.229 15.1198L144.154 16.881V20.2275L147.229 18.5323V15.1198Z" fill="#69B9C5"/>
<path opacity="0.8" d="M147.229 18.5103L144.154 20.2275V23.5006L147.229 21.8934V18.5103Z" fill="#69B9C5"/>
<path opacity="0.9" d="M147.229 21.8935L144.154 23.5007V27.0306L147.229 25.4161V21.8935Z" fill="#68B9C4"/>
<path opacity="0.6" d="M144.154 10.445L140.925 12.2797V15.5674L144.154 13.7181V10.445Z" fill="#69B9C5"/>
<path opacity="0.6" d="M147.229 5.46933L144.154 7.14991V10.445L147.229 8.66903V5.46933Z" fill="#69B9C5"/>
<path opacity="0.9" d="M144.154 13.7107L140.925 15.5674V18.6938L144.154 16.8884V13.7107Z" fill="#68B9C4"/>
<path opacity="0.9" d="M144.154 16.8811L140.925 18.6937V21.9081L144.154 20.1028V16.8811Z" fill="#68B9C4"/>
<path opacity="0.6" d="M144.154 20.1175L140.925 21.9082V25.262L144.154 23.4346V20.1175Z" fill="#69B9C5"/>
<path opacity="0.7" d="M144.154 23.5007L140.925 25.306V28.7405L144.154 27.0306V23.5007Z" fill="#69B9C5"/>
<path opacity="0.6" d="M154.744 4.43457L150.693 6.72426V10.0634L154.744 7.80306V4.43457Z" fill="#69B9C5"/>
<path opacity="0.7" d="M154.862 7.73701L150.693 10.0634V13.2411L154.913 10.9661L154.862 7.73701Z" fill="#69B9C5"/>
<path opacity="0.8" d="M154.671 11.0468L150.693 13.2337V16.6536L154.744 14.474L154.671 11.0468Z" fill="#69B9C5"/>
<path opacity="0.9" d="M154.862 14.3786L150.693 16.6389V19.8827L154.737 17.7691L154.862 14.3786Z" fill="#68B9C4"/>
<path opacity="0.7" d="M154.693 17.7837L150.693 19.978V23.5593L154.722 21.4311L154.693 17.7837Z" fill="#69B9C5"/>
<path opacity="0.6" d="M137.3 14.3565L134.093 16.1545V19.3542L137.3 17.5342V14.3565Z" fill="#69B9C5"/>
<path opacity="0.7" d="M137.3 17.5342L134.093 19.3543L134.034 22.4879L137.249 20.6826L137.3 17.5342Z" fill="#69B9C5"/>
<path opacity="0.8" d="M137.278 20.6899L134.034 22.4879L134.005 25.6362L137.3 23.8529L137.278 20.6899Z" fill="#69B9C5"/>
<path opacity="0.9" d="M137.249 23.9116L134.005 25.6656L133.968 28.9534L137.197 27.2214L137.249 23.9116Z" fill="#68B9C4"/>
<path opacity="0.9" d="M137.337 11.0762L134.093 12.8301L134.057 16.1179L137.286 14.3859L137.337 11.0762Z" fill="#68B9C4"/>
<path opacity="0.6" d="M134.093 16.2353L130.401 18.1727V21.3871L134.093 19.3616V16.2353Z" fill="#69B9C5"/>
<path opacity="0.9" d="M134.093 19.3542L130.453 21.3577L130.401 24.506L134.034 22.5026L134.093 19.3542Z" fill="#69B9C5"/>
<path opacity="0.9" d="M130.401 24.5061L127.437 26.15V29.2176L130.401 27.6397V24.5061Z" fill="#69B9C5"/>
<path opacity="0.8" d="M130.401 27.6177L127.437 29.2175L127.459 32.5273L130.401 30.8981V27.6177Z" fill="#69B9C5"/>
<path opacity="0.7" d="M134.034 22.4879L130.401 24.5061V27.6177L134.005 25.6949L134.034 22.4879Z" fill="#69B9C5"/>
<path opacity="0.8" d="M134.005 25.6656L130.401 27.6177V30.8981L133.968 28.9754L134.005 25.6656Z" fill="#68B9C4"/>
<path opacity="0.6" d="M127.444 19.9046L124.288 21.6806V24.7996L127.444 22.9869V19.9046Z" fill="#69B9C5"/>
<path opacity="0.6" d="M124.354 18.6424L121.353 20.2496V23.3759L124.354 21.7247V18.6424Z" fill="#69B9C5"/>
<path opacity="0.6" d="M130.401 21.3871L127.459 23.031L127.437 26.1499L130.401 24.484V21.3871Z" fill="#69B9C5"/>
<path opacity="0.9" d="M127.458 23.031L124.288 24.851V27.8378L127.458 26.1206V23.031Z" fill="#69B9C5"/>
<path opacity="0.7" d="M127.437 26.1499L124.289 27.8378L124.281 30.9275L127.459 29.1735L127.437 26.1499Z" fill="#69B9C5"/>
<path opacity="0.6" d="M127.437 29.2175L124.281 30.9275L124.303 34.0978L127.459 32.5273L127.437 29.2175Z" fill="#68B9C4"/>
<path opacity="0.7" d="M130.431 18.2755L127.444 19.9927L127.458 23.031L130.401 21.4311L130.431 18.2755Z" fill="#68B9C4"/>
<path opacity="0.7" d="M134.122 12.9989L130.401 15.1125L130.416 18.1507L134.093 16.1546L134.122 12.9989Z" fill="#68B9C4"/>
<path opacity="0.9" d="M121.441 23.3392L118.425 24.9757V28.1387L121.441 26.4288V23.3392Z" fill="#69B9C5"/>
<path opacity="0.9" d="M130.438 15.1345L127.429 16.771V19.9413L130.438 18.2314V15.1345Z" fill="#69B9C5"/>
<path opacity="0.7" d="M121.441 26.3921L118.425 28.1387V31.0669L121.441 29.4597V26.3921Z" fill="#69B9C5"/>
<path opacity="0.8" d="M121.441 29.4744L118.425 31.0669L118.403 34.1052L121.441 32.5053V29.4744Z" fill="#69B9C5"/>
<path opacity="0.9" d="M121.426 32.4906L118.403 34.1052L118.425 37.2828L121.448 35.8224L121.426 32.4906Z" fill="#68B9C4"/>
<path opacity="0.7" d="M112.95 25.7463L110.264 27.4489V29.7239L112.95 28.1094V25.7463Z" fill="#69B9C5"/>
<path opacity="0.9" d="M115.556 24.3226L112.921 25.9298V28.2121L115.556 26.6783V24.3226Z" fill="#69B9C5"/>
<path opacity="0.7" d="M110.264 27.3095L107.651 28.7332L107.578 31.2357L110.264 29.6652V27.3095Z" fill="#69B9C5"/>
<path opacity="0.8" d="M124.288 21.7173L121.441 23.3832V26.4288L124.288 24.7996V21.7173Z" fill="#69B9C5"/>
<path opacity="0.8" d="M127.437 17.0058L124.281 18.6644V21.71L127.437 20.0881V17.0058Z" fill="#69B9C5"/>
<path opacity="0.9" d="M124.288 24.7996L121.441 26.4288V29.4597L124.288 27.9332V24.7996Z" fill="#69B9C5"/>
<path opacity="0.9" d="M121.39 20.3596L118.403 21.9962V25.0198L121.441 23.3392L121.39 20.3596Z" fill="#69B9C5"/>
<path opacity="0.7" d="M124.288 27.8378L121.456 29.4083L121.441 32.5053L124.288 30.8834V27.8378Z" fill="#69B9C5"/>
<path opacity="0.6" d="M124.281 30.9275L121.426 32.4906L121.441 35.6683L124.303 34.0978L124.281 30.9275Z" fill="#68B9C4"/>
<path opacity="0.8" d="M118.403 22.5613L115.555 24.0657V26.6783L118.425 24.9757L118.403 22.5613Z" fill="#69B9C5"/>
<path opacity="0.9" d="M118.425 24.9757L115.57 26.715L115.519 29.6946L118.403 28.0727L118.425 24.9757Z" fill="#69B9C5"/>
<path opacity="0.9" d="M115.519 29.6946L112.965 31.133L112.95 34.1786L115.533 32.7255L115.519 29.6946Z" fill="#69B9C5"/>
<path opacity="0.9" d="M110.264 29.7239L107.651 31.1623L110.227 32.7475L110.264 29.7239Z" fill="#69B9C5"/>
<path opacity="0.8" d="M107.651 28.9093L105.508 29.8854L107.651 31.1623V28.9093Z" fill="#69B9C5"/>
<path opacity="0.7" d="M118.403 28.0727L115.541 29.6799L115.533 32.7255L118.373 31.155L118.403 28.0727Z" fill="#69B9C5"/>
<path opacity="0.6" d="M112.95 28.1094L110.264 29.6652V32.6301L112.95 31.1109V28.1094Z" fill="#69B9C5"/>
<path opacity="0.7" d="M115.555 26.6783L112.95 28.1387V31.1109L115.519 29.6946L115.555 26.6783Z" fill="#69B9C5"/>
<path opacity="0.6" d="M118.373 31.155L115.533 32.7695L115.519 35.6683L118.403 34.1052L118.373 31.155Z" fill="#68B9C4"/>
<path opacity="0.9" d="M154.913 21.321L150.737 23.596L150.693 26.8618L154.825 24.6455L154.913 21.321Z" fill="#68B9C4"/>
<path opacity="0.6" d="M154.686 24.7189L150.693 26.8545V30.4358L154.759 28.2855L154.686 24.7189Z" fill="#69B9C5"/>
<path opacity="0.7" d="M154.906 28.2121L150.693 30.4138L150.701 33.6942L154.913 31.4045L154.906 28.2121Z" fill="#69B9C5"/>
<path opacity="0.8" d="M154.708 31.5806L150.701 33.6942L150.715 37.525L154.737 35.4188L154.708 31.5806Z" fill="#69B9C5"/>
<path opacity="0.6" d="M154.906 46.3976L150.723 48.6506L150.73 52.2025L154.913 50.0743L154.906 46.3976Z" fill="#69B9C5"/>
<path opacity="0.7" d="M154.913 50.0743L150.73 52.2025L150.693 55.9746L154.862 53.7216L154.913 50.0743Z" fill="#69B9C5"/>
<path opacity="0.8" d="M154.862 53.7216L150.693 55.9746L154.913 58.4111L154.862 53.7216Z" fill="#69B9C5"/>
<path opacity="0.9" d="M154.81 35.3821L150.715 37.525L150.664 40.8128L154.737 38.7359L154.81 35.3821Z" fill="#68B9C4"/>
<path opacity="0.9" d="M154.862 38.5011L150.664 40.8128L150.642 45.0106L154.943 42.5521L154.862 38.5011Z" fill="#68B9C4"/>
<path opacity="0.9" d="M144.081 44.2546L140.925 45.9352V50.3311L144.198 48.5405L144.081 44.2546Z" fill="#68B9C4"/>
<path opacity="0.9" d="M147.237 50.5587L144.154 52.1952L147.229 53.9712L147.237 50.5587Z" fill="#68B9C4"/>
<path opacity="0.9" d="M150.73 52.2025L147.303 53.9785L150.642 55.9012L150.73 52.2025Z" fill="#68B9C4"/>
<path opacity="0.8" d="M144.198 48.5405L141.116 50.3385L144.191 52.1145L144.198 48.5405Z" fill="#68B9C4"/>
<path opacity="0.7" d="M154.943 42.5521L150.642 45.0105L150.752 48.7019L154.906 46.3976L154.943 42.5521Z" fill="#69B9C5"/>
<path opacity="0.9" d="M150.642 45.0105L147.259 46.8599L147.237 50.5586L150.752 48.7019L150.642 45.0105Z" fill="#68B9C4"/>
<path opacity="0.7" d="M150.752 48.7019L147.252 50.5586L147.229 53.9712L150.745 52.1145L150.752 48.7019Z" fill="#69B9C5"/>
<path opacity="0.8" d="M150.693 26.8912L147.229 28.6378V32.1604L150.693 30.4358V26.8912Z" fill="#69B9C5"/>
<path opacity="0.6" d="M150.693 30.4137L147.229 32.1604V35.4775L150.693 33.6795V30.4137Z" fill="#69B9C5"/>
<path opacity="0.6" d="M150.715 37.525L147.222 39.301L147.236 42.5521L150.7 40.8715L150.715 37.525Z" fill="#69B9C5"/>
<path opacity="0.6" d="M150.715 40.8275L147.251 42.6548L147.222 46.8893L150.642 45.0105L150.715 40.8275Z" fill="#69B9C5"/>
<path opacity="0.6" d="M147.222 46.8893L144.198 48.5405L144.154 52.1952L147.237 50.5587L147.222 46.8893Z" fill="#69B9C5"/>
<path opacity="0.6" d="M140.925 28.7405L137.197 30.766L137.183 34.0464L140.925 32.0136V28.7405Z" fill="#69B9C5"/>
<path opacity="0.7" d="M140.918 31.9402L137.182 34.0465L137.08 37.525L140.925 35.5289L140.918 31.9402Z" fill="#69B9C5"/>
<path opacity="0.8" d="M140.918 35.5215L137.08 37.525V40.7027L140.925 38.7653L140.918 35.5215Z" fill="#69B9C5"/>
<path opacity="0.5" d="M140.925 38.7653L137.028 40.7761V44.5555L140.918 42.5521L140.925 38.7653Z" fill="#69B9C5"/>
<path opacity="0.5" d="M140.926 45.9352L137.109 48.1295L140.926 50.4339V45.9352Z" fill="#69B9C5"/>
<path opacity="0.5" d="M136.889 44.6436L133.807 46.2215L136.889 48.0782V44.6436Z" fill="#69B9C5"/>
<path opacity="0.9" d="M144.154 40.8788L140.918 42.5521L140.925 45.9352L144.154 44.3207V40.8788Z" fill="#68B9C4"/>
<path opacity="0.9" d="M147.229 25.394L144.154 26.9866V30.355L147.229 28.7185V25.394Z" fill="#68B9C4"/>
<path opacity="0.9" d="M147.229 28.6891L144.154 30.355V33.8263L147.229 32.1604V28.6891Z" fill="#68B9C4"/>
<path opacity="0.6" d="M147.229 32.2191L144.154 33.8263V37.0847L147.229 35.4775V32.2191Z" fill="#69B9C5"/>
<path opacity="0.8" d="M147.229 35.4775L144.154 37.0847V40.8788L147.229 39.3524V35.4775Z" fill="#69B9C5"/>
<path opacity="0.9" d="M147.222 39.301L144.154 40.8788V44.3207L147.273 42.6768L147.222 39.301Z" fill="#68B9C4"/>
<path opacity="0.9" d="M150.7 33.6942L147.229 35.4775L147.222 39.301L150.7 37.5397V33.6942Z" fill="#68B9C4"/>
<path opacity="0.8" d="M140.918 42.5521L136.889 44.6436L136.897 47.9827L140.925 45.9352L140.918 42.5521Z" fill="#68B9C4"/>
<path opacity="0.6" d="M144.154 27.0306L140.925 28.7185V32.0136L144.154 30.3551V27.0306Z" fill="#69B9C5"/>
<path opacity="0.9" d="M144.154 30.355L140.925 31.9842V35.5289L144.154 33.8263V30.355Z" fill="#68B9C4"/>
<path opacity="0.9" d="M144.154 33.8923L140.925 35.5289V38.7653L144.154 37.0847V33.8923Z" fill="#68B9C4"/>
<path opacity="0.6" d="M144.154 37.1067L140.925 38.7653L140.918 42.5521L144.154 40.8788V37.1067Z" fill="#69B9C5"/>
<path opacity="0.7" d="M147.178 42.6768L144.081 44.2547L144.198 48.5405L147.222 46.8893L147.178 42.6768Z" fill="#69B9C5"/>
<path opacity="0.6" d="M137.08 37.525L133.873 39.2496L133.777 42.4493L137.036 40.7761L137.08 37.525Z" fill="#69B9C5"/>
<path opacity="0.7" d="M137.028 40.8788L133.777 42.4493L133.807 46.2214L136.889 44.6436L137.028 40.8788Z" fill="#69B9C5"/>
<path opacity="0.8" d="M133.777 42.4493L130.401 44.2547L133.807 46.2214L133.777 42.4493Z" fill="#69B9C5"/>
<path opacity="0.9" d="M137.197 27.2214L133.968 28.9607V32.4686L137.175 30.6853L137.197 27.2214Z" fill="#68B9C4"/>
<path opacity="0.9" d="M124.252 34.1859L121.441 35.6683V39.0955L124.288 37.569L124.252 34.1859Z" fill="#68B9C4"/>
<path opacity="0.9" d="M127.459 39.2203L124.376 40.8348L127.451 42.6108L127.459 39.2203Z" fill="#68B9C4"/>
<path opacity="0.8" d="M124.288 37.569L121.441 39.0808L124.281 40.6513L124.288 37.569Z" fill="#68B9C4"/>
<path opacity="0.7" d="M137.175 30.6853L133.968 32.4686L133.902 35.8151L137.182 34.0464L137.175 30.6853Z" fill="#69B9C5"/>
<path opacity="0.6" d="M130.409 41.0109L127.452 42.6108L130.402 44.2547L130.409 41.0109Z" fill="#69B9C5"/>
<path opacity="0.9" d="M130.402 34.318L127.459 35.8885V39.2203L130.402 37.6498V34.318Z" fill="#68B9C4"/>
<path opacity="0.8" d="M130.402 30.8834L127.459 32.5567V35.8885L130.402 34.318V30.8834Z" fill="#68B9C4"/>
<path opacity="0.8" d="M130.402 37.6498L127.459 39.279L127.452 42.6108L130.402 41.0403V37.6498Z" fill="#68B9C4"/>
<path opacity="0.9" d="M137.109 34.1051L133.954 35.8371L133.873 39.2496L137.08 37.525L137.109 34.1051Z" fill="#68B9C4"/>
<path opacity="0.9" d="M133.873 39.2496L130.409 41.0109L130.401 44.2546L133.777 42.4493L133.873 39.2496Z" fill="#69B9C5"/>
<path opacity="0.6" d="M133.968 28.9607L130.387 30.9715L130.402 34.318L133.968 32.4686V28.9607Z" fill="#69B9C5"/>
<path opacity="0.7" d="M133.968 32.4686L130.379 34.3547L130.401 37.6498L133.902 35.8151L133.968 32.4686Z" fill="#69B9C5"/>
<path opacity="0.6" d="M133.902 35.8151L130.387 37.6791L130.409 41.0109L133.785 39.3157L133.902 35.8151Z" fill="#69B9C5"/>
<path opacity="0.6" d="M127.458 35.8885L124.288 37.5764L124.376 40.8348L127.458 39.257V35.8885Z" fill="#69B9C5"/>
<path opacity="0.5" d="M121.441 35.6683L118.425 37.2828L121.441 39.0808V35.6683Z" fill="#69B9C5"/>
<path opacity="0.7" d="M127.444 32.4686L124.251 34.1859L124.288 37.6057L127.458 35.8885L127.444 32.4686Z" fill="#69B9C5"/>
<path d="M154.862 171.2L156.506 172.155" stroke="#221F20" stroke-width="0.23484" stroke-miterlimit="10"/>
<path d="M105.119 144.451L153.218 172.155C150.708 203.623 150.033 208.848 141.776 233.888L93.6782 206.184C101.934 181.145 102.609 175.912 105.119 144.451Z" fill="#D5A17C"/>
<path d="M95.3369 207.16C103.593 182.121 104.268 176.888 106.778 145.427" stroke="#58595B" stroke-width="0.0880651" stroke-miterlimit="10"/>
<path d="M153.218 172.155C150.708 203.623 150.032 208.848 141.776 233.888L143.42 232.934C151.676 207.894 152.352 202.662 154.861 171.2L153.218 172.155Z" fill="#949598"/>
<path d="M153.218 172.155L105.12 144.451L106.764 143.497L154.862 171.2L153.218 172.155Z" fill="#A7A9AB"/>
<path d="M156.506 172.155C159.016 203.623 159.691 208.848 167.947 233.888L166.303 232.934C158.047 207.894 157.372 202.662 154.862 171.2L156.506 172.155Z" fill="#6D6E71"/>
<path d="M156.506 172.155L204.604 144.451L202.96 143.497L154.862 171.2L156.506 172.155Z" fill="#BCBEC0"/>
<path d="M154.862 171.2V78.2037L202.931 50.4486L202.96 143.497" fill="#58595B"/>
<path d="M96.9956 208.129C105.252 183.089 105.927 177.857 108.437 146.395" stroke="#58595B" stroke-width="0.0880651" stroke-miterlimit="10"/>
<path d="M98.6538 209.054C106.91 184.014 107.585 178.781 110.095 147.32" stroke="#58595B" stroke-width="0.0880651" stroke-miterlimit="10"/>
<path d="M100.312 210.03C108.569 184.99 109.244 179.757 111.754 148.296" stroke="#58595B" stroke-width="0.0880651" stroke-miterlimit="10"/>
<path d="M101.971 210.991C110.227 185.951 110.902 180.719 113.412 149.258" stroke="#58595B" stroke-width="0.0880651" stroke-miterlimit="10"/>
<path d="M103.63 211.938C111.886 186.898 112.561 181.666 115.071 150.204" stroke="#58595B" stroke-width="0.0880651" stroke-miterlimit="10"/>
<path d="M105.296 212.877C113.552 187.837 114.227 182.605 116.737 151.144" stroke="#58595B" stroke-width="0.0880651" stroke-miterlimit="10"/>
<path d="M106.954 213.853C115.21 188.813 115.885 183.581 118.395 152.12" stroke="#58595B" stroke-width="0.0880651" stroke-miterlimit="10"/>
<path d="M108.613 214.829C116.869 189.79 117.544 184.557 120.054 153.096" stroke="#58595B" stroke-width="0.0880651" stroke-miterlimit="10"/>
<path d="M108.613 214.829C116.869 189.79 117.544 184.557 120.054 153.096" stroke="#58595B" stroke-width="0.0880651" stroke-miterlimit="10"/>
<path d="M110.271 215.754C118.528 190.714 119.203 185.482 121.713 154.02" stroke="#58595B" stroke-width="0.0880651" stroke-miterlimit="10"/>
<path d="M111.93 216.708C120.186 191.668 120.861 186.436 123.371 154.974" stroke="#58595B" stroke-width="0.0880651" stroke-miterlimit="10"/>
<path d="M113.588 217.669C121.844 192.63 122.52 187.397 125.029 155.936" stroke="#58595B" stroke-width="0.0880651" stroke-miterlimit="10"/>
<path d="M115.247 218.631C123.503 193.591 124.178 188.359 126.688 156.897" stroke="#58595B" stroke-width="0.0880651" stroke-miterlimit="10"/>
<path d="M116.906 219.607C125.162 194.567 125.837 189.335 128.347 157.873" stroke="#58595B" stroke-width="0.0880651" stroke-miterlimit="10"/>
<path d="M118.572 220.576C126.828 195.536 127.503 190.303 130.013 158.842" stroke="#58595B" stroke-width="0.0880651" stroke-miterlimit="10"/>
<path d="M118.572 220.517C126.828 195.477 127.503 190.245 130.013 158.783" stroke="#58595B" stroke-width="0.0880651" stroke-miterlimit="10"/>
<path d="M120.23 221.486C128.486 196.446 129.161 191.213 131.671 159.752" stroke="#58595B" stroke-width="0.0880651" stroke-miterlimit="10"/>
<path d="M121.889 222.454C130.145 197.415 130.82 192.182 133.33 160.721" stroke="#58595B" stroke-width="0.0880651" stroke-miterlimit="10"/>
<path d="M123.547 223.496C131.803 198.457 132.478 193.224 134.988 161.763" stroke="#58595B" stroke-width="0.0880651" stroke-miterlimit="10"/>
<path d="M123.547 223.386C131.803 198.347 132.478 193.114 134.988 161.653" stroke="#58595B" stroke-width="0.0880651" stroke-miterlimit="10"/>
<path d="M125.206 224.362C133.462 199.323 134.137 194.09 136.647 162.629" stroke="#58595B" stroke-width="0.0880651" stroke-miterlimit="10"/>
<path d="M126.864 225.331C135.12 200.291 135.796 195.059 138.305 163.598" stroke="#58595B" stroke-width="0.0880651" stroke-miterlimit="10"/>
<path d="M128.523 226.307C136.779 201.267 137.454 196.035 139.964 164.574" stroke="#58595B" stroke-width="0.0880651" stroke-miterlimit="10"/>
<path d="M128.523 226.307C136.779 201.267 137.454 196.035 139.964 164.574" stroke="#58595B" stroke-width="0.0880651" stroke-miterlimit="10"/>
<path d="M130.182 227.225C138.438 202.185 139.113 196.952 141.623 165.491" stroke="#58595B" stroke-width="0.0880651" stroke-miterlimit="10"/>
<path d="M131.847 228.201C140.103 203.161 140.778 197.928 143.288 166.467" stroke="#58595B" stroke-width="0.0880651" stroke-miterlimit="10"/>
<path d="M133.558 229.133C141.814 204.093 142.489 198.86 144.999 167.399" stroke="#58595B" stroke-width="0.0880651" stroke-miterlimit="10"/>
<path d="M135.216 230.109C143.472 205.069 144.147 199.836 146.657 168.375" stroke="#58595B" stroke-width="0.0880651" stroke-miterlimit="10"/>
<path d="M136.881 231.085C145.137 206.045 145.813 200.812 148.322 169.351" stroke="#58595B" stroke-width="0.0880651" stroke-miterlimit="10"/>
<path d="M138.541 232.053C146.797 207.014 147.472 201.781 149.982 170.32" stroke="#58595B" stroke-width="0.0880651" stroke-miterlimit="10"/>
<path d="M138.541 232.053C146.797 207.014 147.472 201.781 149.982 170.32" stroke="#58595B" stroke-width="0.0880651" stroke-miterlimit="10"/>
<path d="M140.199 233.03C148.455 207.99 149.13 202.757 151.64 171.296" stroke="#58595B" stroke-width="0.0880651" stroke-miterlimit="10"/>
<path d="M94.3462 204.225L142.444 231.929" stroke="#58595B" stroke-width="0.0880651" stroke-miterlimit="10"/>
<path d="M94.9702 202.309L143.068 230.013" stroke="#58595B" stroke-width="0.0880651" stroke-miterlimit="10"/>
<path d="M95.5791 200.489L143.677 228.193" stroke="#58595B" stroke-width="0.0880651" stroke-miterlimit="10"/>
<path d="M96.1006 198.713L144.191 226.417" stroke="#58595B" stroke-width="0.0880651" stroke-miterlimit="10"/>
<path d="M96.6875 196.871L144.778 224.575" stroke="#58595B" stroke-width="0.0880651" stroke-miterlimit="10"/>
<path d="M97.2012 195.169L145.299 222.873" stroke="#58595B" stroke-width="0.0880651" stroke-miterlimit="10"/>
<path d="M97.7295 193.386L145.82 221.089" stroke="#58595B" stroke-width="0.0880651" stroke-miterlimit="10"/>
<path d="M98.2065 191.756L146.305 219.453" stroke="#58595B" stroke-width="0.0880651" stroke-miterlimit="10"/>
<path d="M98.6538 190.171L146.752 217.875" stroke="#58595B" stroke-width="0.0880651" stroke-miterlimit="10"/>
<path d="M99.168 188.381L147.259 216.077" stroke="#58595B" stroke-width="0.0880651" stroke-miterlimit="10"/>
<path d="M99.645 186.619L147.743 214.323" stroke="#58595B" stroke-width="0.0880651" stroke-miterlimit="10"/>
<path d="M100.034 184.887L148.132 212.591" stroke="#58595B" stroke-width="0.0880651" stroke-miterlimit="10"/>
<path d="M100.467 183.207L148.558 210.911" stroke="#58595B" stroke-width="0.0880651" stroke-miterlimit="10"/>
<path d="M100.797 181.577L148.888 209.281" stroke="#58595B" stroke-width="0.0880651" stroke-miterlimit="10"/>
<path d="M101.157 179.948L149.255 207.652" stroke="#58595B" stroke-width="0.0880651" stroke-miterlimit="10"/>
<path d="M101.494 178.187L149.592 205.891" stroke="#58595B" stroke-width="0.0880651" stroke-miterlimit="10"/>
<path d="M101.729 176.294L149.827 203.99" stroke="#58595B" stroke-width="0.0880651" stroke-miterlimit="10"/>
<path d="M102.162 174.385L150.253 202.089" stroke="#58595B" stroke-width="0.0880651" stroke-miterlimit="10"/>
<path d="M102.397 172.367L150.495 200.071" stroke="#58595B" stroke-width="0.0880651" stroke-miterlimit="10"/>
<path d="M102.646 170.511L150.737 198.214" stroke="#58595B" stroke-width="0.0880651" stroke-miterlimit="10"/>
<path d="M102.896 168.559L150.987 196.262" stroke="#58595B" stroke-width="0.0880651" stroke-miterlimit="10"/>
<path d="M103.219 166.467L151.31 194.171" stroke="#58595B" stroke-width="0.0880651" stroke-miterlimit="10"/>
<path d="M103.395 164.368L151.493 192.072" stroke="#58595B" stroke-width="0.0880651" stroke-miterlimit="10"/>
<path d="M103.549 162.555L151.64 190.259" stroke="#58595B" stroke-width="0.0880651" stroke-miterlimit="10"/>
<path d="M103.776 160.743L151.875 188.447" stroke="#58595B" stroke-width="0.0880651" stroke-miterlimit="10"/>
<path d="M103.916 158.93L152.014 186.634" stroke="#58595B" stroke-width="0.0880651" stroke-miterlimit="10"/>
<path d="M104.048 157.103L152.147 184.807" stroke="#58595B" stroke-width="0.0880651" stroke-miterlimit="10"/>
<path d="M104.253 155.327L152.344 183.023" stroke="#58595B" stroke-width="0.0880651" stroke-miterlimit="10"/>
<path d="M104.378 153.551L152.469 181.255" stroke="#58595B" stroke-width="0.0880651" stroke-miterlimit="10"/>
<path d="M104.54 151.826L152.638 179.53" stroke="#58595B" stroke-width="0.0880651" stroke-miterlimit="10"/>
<path d="M104.687 149.94L152.777 177.644" stroke="#58595B" stroke-width="0.0880651" stroke-miterlimit="10"/>
<path d="M104.855 148.069L152.954 175.773" stroke="#58595B" stroke-width="0.0880651" stroke-miterlimit="10"/>
<path d="M105.002 146.212L153.093 173.916" stroke="#58595B" stroke-width="0.0880651" stroke-miterlimit="10"/>
<path d="M204.604 144.451L156.505 172.155C159.015 203.623 159.69 208.848 167.947 233.888L216.045 206.184C207.789 181.145 207.113 175.912 204.604 144.451Z" fill="#EEC8AB"/>
<path d="M214.386 207.16C206.13 182.121 205.455 176.888 202.945 145.427" stroke="#A7A9AB" stroke-width="0.0880651" stroke-miterlimit="10"/>
<path d="M212.728 208.129C204.472 183.089 203.796 177.857 201.287 146.395" stroke="#A7A9AB" stroke-width="0.0880651" stroke-miterlimit="10"/>
<path d="M211.069 209.054C202.813 184.014 202.138 178.781 199.628 147.32" stroke="#A7A9AB" stroke-width="0.0880651" stroke-miterlimit="10"/>
<path d="M209.411 210.03C201.155 184.99 200.48 179.757 197.97 148.296" stroke="#A7A9AB" stroke-width="0.0880651" stroke-miterlimit="10"/>
<path d="M207.752 210.991C199.496 185.951 198.821 180.719 196.311 149.258" stroke="#A7A9AB" stroke-width="0.0880651" stroke-miterlimit="10"/>
<path d="M206.086 211.938C197.83 186.898 197.155 181.666 194.645 150.204" stroke="#A7A9AB" stroke-width="0.0880651" stroke-miterlimit="10"/>
<path d="M204.428 212.877C196.171 187.837 195.496 182.605 192.986 151.144" stroke="#A7A9AB" stroke-width="0.0880651" stroke-miterlimit="10"/>
<path d="M202.769 213.853C194.513 188.813 193.837 183.581 191.328 152.12" stroke="#A7A9AB" stroke-width="0.0880651" stroke-miterlimit="10"/>
<path d="M201.111 214.829C192.854 189.79 192.179 184.557 189.669 153.096" stroke="#A7A9AB" stroke-width="0.0880651" stroke-miterlimit="10"/>
<path d="M201.111 214.829C192.854 189.79 192.179 184.557 189.669 153.096" stroke="#A7A9AB" stroke-width="0.0880651" stroke-miterlimit="10"/>
<path d="M199.452 215.754C191.196 190.714 190.521 185.482 188.011 154.02" stroke="#A7A9AB" stroke-width="0.0880651" stroke-miterlimit="10"/>
<path d="M197.794 216.708C189.538 191.668 188.862 186.436 186.353 154.974" stroke="#A7A9AB" stroke-width="0.0880651" stroke-miterlimit="10"/>
<path d="M196.135 217.669C187.879 192.63 187.204 187.397 184.694 155.936" stroke="#A7A9AB" stroke-width="0.0880651" stroke-miterlimit="10"/>
<path d="M194.476 218.631C186.22 193.591 185.545 188.359 183.035 156.897" stroke="#A7A9AB" stroke-width="0.0880651" stroke-miterlimit="10"/>
<path d="M192.818 219.607C184.561 194.567 183.886 189.335 181.376 157.873" stroke="#A7A9AB" stroke-width="0.0880651" stroke-miterlimit="10"/>
<path d="M191.152 220.576C182.896 195.536 182.221 190.303 179.711 158.842" stroke="#A7A9AB" stroke-width="0.0880651" stroke-miterlimit="10"/>
<path d="M191.152 220.517C182.896 195.477 182.221 190.245 179.711 158.783" stroke="#A7A9AB" stroke-width="0.0880651" stroke-miterlimit="10"/>
<path d="M189.493 221.486C181.237 196.446 180.562 191.213 178.052 159.752" stroke="#A7A9AB" stroke-width="0.0880651" stroke-miterlimit="10"/>
<path d="M187.835 222.454C179.579 197.415 178.903 192.182 176.394 160.721" stroke="#A7A9AB" stroke-width="0.0880651" stroke-miterlimit="10"/>
<path d="M186.176 223.496C177.92 198.457 177.245 193.224 174.735 161.763" stroke="#A7A9AB" stroke-width="0.0880651" stroke-miterlimit="10"/>
<path d="M186.176 223.386C177.92 198.347 177.245 193.114 174.735 161.653" stroke="#A7A9AB" stroke-width="0.0880651" stroke-miterlimit="10"/>
<path d="M184.518 224.362C176.262 199.323 175.587 194.09 173.077 162.629" stroke="#A7A9AB" stroke-width="0.0880651" stroke-miterlimit="10"/>
<path d="M182.859 225.331C174.603 200.291 173.928 195.059 171.418 163.598" stroke="#A7A9AB" stroke-width="0.0880651" stroke-miterlimit="10"/>
<path d="M181.2 226.307C172.944 201.267 172.269 196.035 169.759 164.574" stroke="#A7A9AB" stroke-width="0.0880651" stroke-miterlimit="10"/>
<path d="M181.2 226.307C172.944 201.267 172.269 196.035 169.759 164.574" stroke="#A7A9AB" stroke-width="0.0880651" stroke-miterlimit="10"/>
<path d="M179.542 227.225C171.286 202.185 170.61 196.952 168.101 165.491" stroke="#A7A9AB" stroke-width="0.0880651" stroke-miterlimit="10"/>
<path d="M177.876 228.201C169.62 203.161 168.945 197.928 166.435 166.467" stroke="#A7A9AB" stroke-width="0.0880651" stroke-miterlimit="10"/>
<path d="M176.166 229.133C167.91 204.093 167.234 198.86 164.725 167.399" stroke="#A7A9AB" stroke-width="0.0880651" stroke-miterlimit="10"/>
<path d="M174.508 230.109C166.251 205.069 165.576 199.836 163.066 168.375" stroke="#A7A9AB" stroke-width="0.0880651" stroke-miterlimit="10"/>
<path d="M172.842 231.085C164.585 206.045 163.91 200.812 161.4 169.351" stroke="#A7A9AB" stroke-width="0.0880651" stroke-miterlimit="10"/>
<path d="M171.183 232.053C162.927 207.014 162.252 201.781 159.742 170.32" stroke="#A7A9AB" stroke-width="0.0880651" stroke-miterlimit="10"/>
<path d="M171.183 232.053C162.927 207.014 162.252 201.781 159.742 170.32" stroke="#A7A9AB" stroke-width="0.0880651" stroke-miterlimit="10"/>
<path d="M169.525 233.03C161.268 207.99 160.593 202.757 158.083 171.296" stroke="#A7A9AB" stroke-width="0.0880651" stroke-miterlimit="10"/>
<path d="M215.377 204.225L167.279 231.929" stroke="#A7A9AB" stroke-width="0.0880651" stroke-miterlimit="10"/>
<path d="M214.753 202.309L166.655 230.013" stroke="#A7A9AB" stroke-width="0.0880651" stroke-miterlimit="10"/>
<path d="M214.144 200.489L166.046 228.193" stroke="#A7A9AB" stroke-width="0.0880651" stroke-miterlimit="10"/>
<path d="M213.623 198.713L165.525 226.417" stroke="#A7A9AB" stroke-width="0.0880651" stroke-miterlimit="10"/>
<path d="M213.036 196.871L164.945 224.575" stroke="#A7A9AB" stroke-width="0.0880651" stroke-miterlimit="10"/>
<path d="M212.522 195.169L164.424 222.873" stroke="#A7A9AB" stroke-width="0.0880651" stroke-miterlimit="10"/>
<path d="M211.994 193.386L163.903 221.089" stroke="#A7A9AB" stroke-width="0.0880651" stroke-miterlimit="10"/>
<path d="M211.517 191.756L163.418 219.453" stroke="#A7A9AB" stroke-width="0.0880651" stroke-miterlimit="10"/>
<path d="M211.069 190.171L162.971 217.875" stroke="#A7A9AB" stroke-width="0.0880651" stroke-miterlimit="10"/>
<path d="M210.556 188.381L162.465 216.077" stroke="#A7A9AB" stroke-width="0.0880651" stroke-miterlimit="10"/>
<path d="M210.079 186.619L161.98 214.323" stroke="#A7A9AB" stroke-width="0.0880651" stroke-miterlimit="10"/>
<path d="M209.69 184.887L161.591 212.591" stroke="#A7A9AB" stroke-width="0.0880651" stroke-miterlimit="10"/>
<path d="M209.256 183.207L161.166 210.911" stroke="#A7A9AB" stroke-width="0.0880651" stroke-miterlimit="10"/>
<path d="M208.926 181.577L160.835 209.281" stroke="#A7A9AB" stroke-width="0.0880651" stroke-miterlimit="10"/>
<path d="M208.567 179.948L160.468 207.652" stroke="#A7A9AB" stroke-width="0.0880651" stroke-miterlimit="10"/>
<path d="M208.229 178.187L160.131 205.891" stroke="#A7A9AB" stroke-width="0.0880651" stroke-miterlimit="10"/>
<path d="M207.995 176.294L159.896 203.99" stroke="#A7A9AB" stroke-width="0.0880651" stroke-miterlimit="10"/>
<path d="M207.561 174.385L159.463 202.089" stroke="#A7A9AB" stroke-width="0.0880651" stroke-miterlimit="10"/>
<path d="M207.326 172.367L159.228 200.071" stroke="#A7A9AB" stroke-width="0.0880651" stroke-miterlimit="10"/>
<path d="M207.077 170.511L158.979 198.214" stroke="#A7A9AB" stroke-width="0.0880651" stroke-miterlimit="10"/>
<path d="M206.828 168.559L158.737 196.262" stroke="#A7A9AB" stroke-width="0.0880651" stroke-miterlimit="10"/>
<path d="M206.504 166.467L158.414 194.171" stroke="#A7A9AB" stroke-width="0.0880651" stroke-miterlimit="10"/>
<path d="M206.328 164.368L158.23 192.072" stroke="#A7A9AB" stroke-width="0.0880651" stroke-miterlimit="10"/>
<path d="M206.174 162.555L158.076 190.259" stroke="#A7A9AB" stroke-width="0.0880651" stroke-miterlimit="10"/>
<path d="M205.947 160.743L157.849 188.447" stroke="#A7A9AB" stroke-width="0.0880651" stroke-miterlimit="10"/>
<path d="M205.8 158.93L157.709 186.634" stroke="#A7A9AB" stroke-width="0.0880651" stroke-miterlimit="10"/>
<path d="M205.675 157.103L157.577 184.807" stroke="#A7A9AB" stroke-width="0.0880651" stroke-miterlimit="10"/>
<path d="M205.47 155.327L157.379 183.023" stroke="#A7A9AB" stroke-width="0.0880651" stroke-miterlimit="10"/>
<path d="M205.345 153.551L157.254 181.255" stroke="#A7A9AB" stroke-width="0.0880651" stroke-miterlimit="10"/>
<path d="M205.184 151.826L157.085 179.53" stroke="#A7A9AB" stroke-width="0.0880651" stroke-miterlimit="10"/>
<path d="M205.037 149.94L156.946 177.644" stroke="#A7A9AB" stroke-width="0.0880651" stroke-miterlimit="10"/>
<path d="M204.868 148.069L156.77 175.773" stroke="#A7A9AB" stroke-width="0.0880651" stroke-miterlimit="10"/>
<path d="M204.721 146.212L156.63 173.916" stroke="#A7A9AB" stroke-width="0.0880651" stroke-miterlimit="10"/>
<path opacity="0.55" d="M154.891 1.40367L155.009 58.668L105.318 29.9808L154.943 1.44037" fill="#3A8784"/>
<path d="M107.651 31.1623L154.95 4.31712" stroke="#221F20" stroke-width="0.132098" stroke-miterlimit="10"/>
<path d="M110.264 32.6301L154.862 7.73701" stroke="#221F20" stroke-width="0.132098" stroke-miterlimit="10"/>
<path d="M112.95 34.1786L154.862 10.9441" stroke="#221F20" stroke-width="0.132098" stroke-miterlimit="10"/>
<path d="M115.519 35.6683L154.862 14.3786" stroke="#221F20" stroke-width="0.132098" stroke-miterlimit="10"/>
<path d="M121.441 39.0808L154.913 21.321" stroke="#221F20" stroke-width="0.132098" stroke-miterlimit="10"/>
<path d="M124.487 40.8054L154.825 24.6455" stroke="#221F20" stroke-width="0.132098" stroke-miterlimit="10"/>
<path d="M130.401 44.2546L154.861 31.4999" stroke="#221F20" stroke-width="0.132098" stroke-miterlimit="10"/>
<path d="M133.807 46.2215L154.913 35.3307" stroke="#221F20" stroke-width="0.132098" stroke-miterlimit="10"/>
<path d="M136.926 48.0268L155.045 38.5671" stroke="#221F20" stroke-width="0.35226" stroke-miterlimit="10"/>
<path d="M140.925 50.3312L155.001 42.6255" stroke="#221F20" stroke-width="0.132098" stroke-miterlimit="10"/>
<path d="M144.154 52.1952L154.774 46.4783" stroke="#221F20" stroke-width="0.132098" stroke-miterlimit="10"/>
<path d="M147.229 53.9712L154.913 50.0743" stroke="#221F20" stroke-width="0.132098" stroke-miterlimit="10"/>
<path d="M150.693 55.9746L154.862 53.7216" stroke="#221F20" stroke-width="0.132098" stroke-miterlimit="10"/>
<path d="M150.693 3.44382V55.9746" stroke="#221F20" stroke-width="0.132098" stroke-miterlimit="10"/>
<path d="M147.229 5.46933V53.9712" stroke="#221F20" stroke-width="0.132098" stroke-miterlimit="10"/>
<path d="M144.154 7.26733V52.1952" stroke="#221F20" stroke-width="0.132098" stroke-miterlimit="10"/>
<path d="M140.925 9.16069V50.3311" stroke="#221F20" stroke-width="0.132098" stroke-miterlimit="10"/>
<path d="M137.454 11.1862L136.926 48.0267" stroke="#221F20" stroke-width="0.35226" stroke-miterlimit="10"/>
<path d="M118.425 22.165V37.3416" stroke="#221F20" stroke-width="0.35226" stroke-miterlimit="10"/>
<path d="M118.425 37.3415L154.774 17.7397" stroke="#221F20" stroke-width="0.35226" stroke-miterlimit="10"/>
<path d="M127.459 42.5594L154.906 28.2121" stroke="#221F20" stroke-width="0.132098" stroke-miterlimit="10"/>
<path d="M154.862 58.3744V11.5972V1L204.545 29.6872" stroke="#221F20" stroke-width="0.653149" stroke-linejoin="round"/>
<path d="M154.861 1L105.508 29.8853" stroke="#221F20" stroke-width="0.653149" stroke-linejoin="round"/>
<path d="M134.13 13.1383L133.807 46.2215" stroke="#221F20" stroke-width="0.132098" stroke-miterlimit="10"/>
<path d="M130.401 15.3179V44.2546" stroke="#221F20" stroke-width="0.132098" stroke-miterlimit="10"/>
<path d="M127.459 17.0425V42.5594" stroke="#221F20" stroke-width="0.132098" stroke-miterlimit="10"/>
<path d="M124.288 18.8992V40.8054" stroke="#221F20" stroke-width="0.132098" stroke-miterlimit="10"/>
<path d="M121.441 20.844V39.0808" stroke="#221F20" stroke-width="0.132098" stroke-miterlimit="10"/>
<path d="M115.519 23.8236V35.6683" stroke="#221F20" stroke-width="0.132098" stroke-miterlimit="10"/>
<path d="M112.95 25.5628V34.1785" stroke="#221F20" stroke-width="0.132098" stroke-miterlimit="10"/>
<path d="M110.264 27.0746V32.6301" stroke="#221F20" stroke-width="0.132098" stroke-miterlimit="10"/>
<path d="M107.651 28.8432V31.1623" stroke="#221F20" stroke-width="0.132098" stroke-miterlimit="10"/>
<path d="M154.862 58.3744L105.171 29.6872V32.0283L154.862 60.7155V58.3744Z" fill="#414042"/>
<path d="M154.862 78.2037L202.901 50.4632" stroke="#949598" stroke-width="0.132098" stroke-miterlimit="10"/>
<path d="M154.862 81.1466L202.901 53.4061" stroke="#949598" stroke-width="0.132098" stroke-miterlimit="10"/>
<path d="M154.862 83.9427L202.901 56.2095" stroke="#949598" stroke-width="0.132098" stroke-miterlimit="10"/>
<path d="M154.862 86.658L202.901 58.9248" stroke="#949598" stroke-width="0.132098" stroke-miterlimit="10"/>
<path d="M154.862 89.3146L202.901 61.5741" stroke="#949598" stroke-width="0.132098" stroke-miterlimit="10"/>
<path d="M154.862 92.1107L202.901 64.3775" stroke="#949598" stroke-width="0.132098" stroke-miterlimit="10"/>
<path d="M154.862 94.826L202.901 67.0928" stroke="#949598" stroke-width="0.132098" stroke-miterlimit="10"/>
<path d="M154.862 97.5634L202.901 69.8302" stroke="#949598" stroke-width="0.132098" stroke-miterlimit="10"/>
<path d="M154.862 100.367L202.901 72.6336" stroke="#949598" stroke-width="0.132098" stroke-miterlimit="10"/>
<path d="M154.862 103.082L202.901 75.3416" stroke="#949598" stroke-width="0.132098" stroke-miterlimit="10"/>
<path d="M154.862 105.937L202.901 78.2037" stroke="#949598" stroke-width="0.132098" stroke-miterlimit="10"/>
<path d="M154.862 108.652L202.901 80.9117" stroke="#949598" stroke-width="0.132098" stroke-miterlimit="10"/>
<path d="M154.862 111.309L202.901 83.5684" stroke="#949598" stroke-width="0.132098" stroke-miterlimit="10"/>
<path d="M154.862 114.105L202.901 86.3718" stroke="#949598" stroke-width="0.132098" stroke-miterlimit="10"/>
<path d="M154.862 116.82L202.901 89.0798" stroke="#949598" stroke-width="0.132098" stroke-miterlimit="10"/>
<path d="M154.862 119.558L202.901 91.8245" stroke="#949598" stroke-width="0.132098" stroke-miterlimit="10"/>
<path d="M154.862 122.361L202.901 94.6205" stroke="#949598" stroke-width="0.132098" stroke-miterlimit="10"/>
<path d="M154.862 125.076L202.901 97.3359" stroke="#949598" stroke-width="0.132098" stroke-miterlimit="10"/>
<path d="M154.862 127.792L202.901 100.059" stroke="#949598" stroke-width="0.132098" stroke-miterlimit="10"/>
<path d="M154.862 130.507L202.901 102.767" stroke="#949598" stroke-width="0.132098" stroke-miterlimit="10"/>
<path d="M154.862 133.156L202.901 105.423" stroke="#949598" stroke-width="0.132098" stroke-miterlimit="10"/>
<path d="M154.862 135.96L202.901 108.227" stroke="#949598" stroke-width="0.132098" stroke-miterlimit="10"/>
<path d="M154.862 138.675L202.901 110.935" stroke="#949598" stroke-width="0.132098" stroke-miterlimit="10"/>
<path d="M154.862 141.412L202.901 113.679" stroke="#949598" stroke-width="0.132098" stroke-miterlimit="10"/>
<path d="M154.862 144.216L202.901 116.475" stroke="#949598" stroke-width="0.132098" stroke-miterlimit="10"/>
<path d="M154.862 146.931L202.901 119.191" stroke="#949598" stroke-width="0.132098" stroke-miterlimit="10"/>
<path d="M154.862 149.72L202.901 121.987" stroke="#949598" stroke-width="0.132098" stroke-miterlimit="10"/>
<path d="M154.862 152.435L202.901 124.695" stroke="#949598" stroke-width="0.132098" stroke-miterlimit="10"/>
<path d="M154.862 155.085L202.901 127.351" stroke="#949598" stroke-width="0.132098" stroke-miterlimit="10"/>
<path d="M154.862 157.888L202.901 130.155" stroke="#949598" stroke-width="0.132098" stroke-miterlimit="10"/>
<path d="M154.862 160.603L202.901 132.863" stroke="#949598" stroke-width="0.132098" stroke-miterlimit="10"/>
<path d="M154.862 163.341L202.901 135.6" stroke="#949598" stroke-width="0.132098" stroke-miterlimit="10"/>
<path d="M154.862 166.144L202.901 138.404" stroke="#949598" stroke-width="0.132098" stroke-miterlimit="10"/>
<path d="M154.862 168.859L202.901 141.119" stroke="#949598" stroke-width="0.132098" stroke-miterlimit="10"/>
<path d="M154.862 171.2L202.901 143.46" stroke="#949598" stroke-width="0.132098" stroke-miterlimit="10"/>
<path d="M202.96 143.497L202.901 50.4632" stroke="#949598" stroke-width="0.132098" stroke-miterlimit="10"/>
<path d="M154.862 171.2V78.2037" stroke="#949598" stroke-width="0.132098" stroke-miterlimit="10"/>
<path d="M157.203 169.916V77.0662" stroke="#949598" stroke-width="0.132098" stroke-miterlimit="10"/>
<path d="M159.756 168.404V75.5618" stroke="#949598" stroke-width="0.132098" stroke-miterlimit="10"/>
<path d="M162.303 166.9V74.05" stroke="#949598" stroke-width="0.132098" stroke-miterlimit="10"/>
<path d="M164.857 165.388V72.5456" stroke="#949598" stroke-width="0.132098" stroke-miterlimit="10"/>
<path d="M167.403 163.884V71.0338" stroke="#949598" stroke-width="0.132098" stroke-miterlimit="10"/>
<path d="M169.958 162.372V69.522" stroke="#949598" stroke-width="0.132098" stroke-miterlimit="10"/>
<path d="M172.504 160.86V68.0175" stroke="#949598" stroke-width="0.132098" stroke-miterlimit="10"/>
<path d="M175.058 159.356V66.5058" stroke="#949598" stroke-width="0.132098" stroke-miterlimit="10"/>
<path d="M177.604 158.079V65.0087" stroke="#949598" stroke-width="0.132098" stroke-miterlimit="10"/>
<path d="M180.159 156.567V63.4969" stroke="#949598" stroke-width="0.132098" stroke-miterlimit="10"/>
<path d="M182.705 155.143V62.2273" stroke="#949598" stroke-width="0.132098" stroke-miterlimit="10"/>
<path d="M185.259 153.742V60.7448" stroke="#949598" stroke-width="0.132098" stroke-miterlimit="10"/>
<path d="M187.806 152.23V59.2331" stroke="#949598" stroke-width="0.132098" stroke-miterlimit="10"/>
<path d="M190.359 150.718V57.7286" stroke="#949598" stroke-width="0.132098" stroke-miterlimit="10"/>
<path d="M192.905 149.206V56.2168" stroke="#949598" stroke-width="0.132098" stroke-miterlimit="10"/>
<path d="M195.459 147.694V54.705" stroke="#949598" stroke-width="0.132098" stroke-miterlimit="10"/>
<path d="M198.006 146.183V53.1933" stroke="#949598" stroke-width="0.132098" stroke-miterlimit="10"/>
<path d="M200.56 144.671V51.6815" stroke="#949598" stroke-width="0.132098" stroke-miterlimit="10"/>
<mask id="mask1_278_88355" style="mask-type:luminance" maskUnits="userSpaceOnUse" x="154" y="50" width="49" height="122">
<path d="M154.862 171.2V78.2037L202.931 50.4486L202.96 143.497" fill="white"/>
</mask>
<g mask="url(#mask1_278_88355)">
<g filter="url(#filter2_d_278_88355)">
<path d="M202.961 143.497L154.862 78.2037" stroke="#D1D3D4" stroke-width="1.75396" stroke-miterlimit="10"/>
</g>
<g filter="url(#filter3_d_278_88355)">
<path d="M154.847 171.193L202.916 50.4412" stroke="#D1D3D4" stroke-width="1.75396" stroke-miterlimit="10"/>
</g>
</g>
<path d="M154.862 171.2V78.2037" stroke="#E6E7E8" stroke-width="1.75396" stroke-miterlimit="10"/>
<path d="M154.862 78.2037L202.931 50.4486L202.96 143.497" stroke="#D1D3D4" stroke-width="1.75396" stroke-linecap="round" stroke-linejoin="round"/>
<path d="M191.506 328.321L186.781 331.049V329.311L188.286 328.442V317.618L186.781 318.487V316.749L191.506 314.021V315.759L190.02 316.617V327.441L191.506 326.583V328.321ZM212.614 303.572L211.014 304.496V315.32L212.5 314.462V316.2L207.946 318.829V317.091L209.28 316.321V308.291L209.204 308.335L205.317 319.489L204.46 319.984L200.439 313.263L200.363 313.307V321.469L201.754 320.666V322.404L197.239 325.011V323.273L198.725 322.415V311.591L197.124 312.515V310.777L200.211 308.995L204.917 316.794L204.993 316.75L209.508 303.627L212.614 301.834V303.572ZM228 297.395C228 298.935 227.587 300.34 226.761 301.608C225.948 302.87 224.932 303.852 223.713 304.556L221.446 305.865V309.297L223.503 308.109V309.847L218.207 312.905V311.167L219.712 310.298V299.474L218.207 300.343V298.605L223.599 295.492C225.135 294.605 226.253 294.392 226.952 294.854C227.65 295.302 228 296.149 228 297.395ZM226.152 298.506C226.152 297.656 225.936 297.113 225.504 296.878C225.072 296.629 224.373 296.783 223.408 297.34L221.446 298.473V304.149L223.446 302.994C225.25 301.953 226.152 300.457 226.152 298.506ZM236.583 299.392C236.494 300.294 236.132 301.236 235.497 302.219C234.862 303.202 233.998 304.008 232.906 304.639C231.674 305.35 230.677 305.501 229.915 305.09C229.152 304.679 228.771 303.667 228.771 302.054C228.771 300.529 229.127 299.062 229.838 297.654C230.55 296.246 231.534 295.179 232.791 294.453C233.96 293.778 234.868 293.672 235.516 294.134C236.164 294.596 236.494 295.417 236.507 296.598C236.507 296.994 236.469 297.434 236.392 297.918L230.524 301.306C230.6 303.345 231.432 303.906 233.02 302.989C233.681 302.608 234.176 302.138 234.506 301.581C234.849 301.016 235.078 300.444 235.192 299.865L236.583 299.392ZM234.773 297.555C234.824 296.88 234.684 296.345 234.354 295.949C234.036 295.531 233.503 295.538 232.753 295.971C232.055 296.374 231.528 296.95 231.172 297.698C230.829 298.424 230.619 299.19 230.543 299.997L234.773 297.555ZM239.072 288.715V286.449L240.806 285.448V287.714L239.072 288.715ZM242.235 299.033L237.795 301.596V300.1L239.186 299.297V292.477L237.738 293.313V291.795L240.863 289.991V298.329L242.235 297.537V299.033Z" fill="#818181"/>
<defs>
<filter id="filter0_d_278_88355" x="101.096" y="72.7226" width="59.4323" height="76.2552" filterUnits="userSpaceOnUse" color-interpolation-filters="sRGB">
<feFlood flood-opacity="0" result="BackgroundImageFix"/>
<feColorMatrix in="SourceAlpha" type="matrix" values="0 0 0 0 0 0 0 0 0 0 0 0 0 0 0 0 0 0 127 0" result="hardAlpha"/>
<feOffset/>
<feGaussianBlur stdDeviation="2.4805"/>
<feColorMatrix type="matrix" values="0 0 0 0 0.133333 0 0 0 0 0.121569 0 0 0 0 0.12549 0 0 0 0.2 0"/>
<feBlend mode="normal" in2="BackgroundImageFix" result="effect1_dropShadow_278_88355"/>
<feBlend mode="normal" in="SourceGraphic" in2="effect1_dropShadow_278_88355" result="shape"/>
</filter>
<filter id="filter1_d_278_88355" x="101.031" y="45.1559" width="59.6207" height="131.323" filterUnits="userSpaceOnUse" color-interpolation-filters="sRGB">
<feFlood flood-opacity="0" result="BackgroundImageFix"/>
<feColorMatrix in="SourceAlpha" type="matrix" values="0 0 0 0 0 0 0 0 0 0 0 0 0 0 0 0 0 0 127 0" result="hardAlpha"/>
<feOffset/>
<feGaussianBlur stdDeviation="2.4805"/>
<feColorMatrix type="matrix" values="0 0 0 0 0.133333 0 0 0 0 0.121569 0 0 0 0 0.12549 0 0 0 0.2 0"/>
<feBlend mode="normal" in2="BackgroundImageFix" result="effect1_dropShadow_278_88355"/>
<feBlend mode="normal" in="SourceGraphic" in2="effect1_dropShadow_278_88355" result="shape"/>
</filter>
<filter id="filter2_d_278_88355" x="149.195" y="72.7226" width="59.4323" height="76.2552" filterUnits="userSpaceOnUse" color-interpolation-filters="sRGB">
<feFlood flood-opacity="0" result="BackgroundImageFix"/>
<feColorMatrix in="SourceAlpha" type="matrix" values="0 0 0 0 0 0 0 0 0 0 0 0 0 0 0 0 0 0 127 0" result="hardAlpha"/>
<feOffset/>
<feGaussianBlur stdDeviation="2.4805"/>
<feColorMatrix type="matrix" values="0 0 0 0 0.133333 0 0 0 0 0.121569 0 0 0 0 0.12549 0 0 0 0.2 0"/>
<feBlend mode="normal" in2="BackgroundImageFix" result="effect1_dropShadow_278_88355"/>
<feBlend mode="normal" in="SourceGraphic" in2="effect1_dropShadow_278_88355" result="shape"/>
</filter>
<filter id="filter3_d_278_88355" x="149.071" y="45.1559" width="59.6207" height="131.323" filterUnits="userSpaceOnUse" color-interpolation-filters="sRGB">
<feFlood flood-opacity="0" result="BackgroundImageFix"/>
<feColorMatrix in="SourceAlpha" type="matrix" values="0 0 0 0 0 0 0 0 0 0 0 0 0 0 0 0 0 0 127 0" result="hardAlpha"/>
<feOffset/>
<feGaussianBlur stdDeviation="2.4805"/>
<feColorMatrix type="matrix" values="0 0 0 0 0.133333 0 0 0 0 0.121569 0 0 0 0 0.12549 0 0 0 0.2 0"/>
<feBlend mode="normal" in2="BackgroundImageFix" result="effect1_dropShadow_278_88355"/>
<feBlend mode="normal" in="SourceGraphic" in2="effect1_dropShadow_278_88355" result="shape"/>
</filter>
</defs>
</svg>
