<svg viewBox="0 0 296 335" fill="none" xmlns="http://www.w3.org/2000/svg">
<path d="M129.714 300.364C170.272 317.435 203.529 296.79 210.534 260.342C218.009 221.413 198.447 170.429 219.387 132.156L234.053 123.686H234.064L233.867 208.222H233.856C233.856 269.675 219.856 291.293 184.993 305.238C167.474 312.244 142.774 308.681 129.802 300.243" fill="#D6E3AF"/>
<path d="M126.305 297.752C166.862 314.823 194.206 295.937 201.201 259.478C208.676 220.549 177.256 171.828 198.184 133.544L224.72 122.823H223.857L224.534 207.358H224.523C224.523 268.812 214.633 290.571 179.769 304.528C162.25 311.533 149.299 308.178 132.731 301.566" fill="#E3EBC0"/>
<path d="M129.715 300.364C160.075 314.254 194.381 304.418 206.523 274.025C223.988 230.298 195.42 176.451 219.387 132.156L190.993 148.549C190.917 217.621 189.004 246.724 174.217 255.238C153.813 266.998 117.179 259.948 111.299 242.364V263.817C111.299 280.91 118.775 293.26 129.791 300.243" fill="#D5AFCE"/>
<path d="M123.277 288.484C150.643 301.008 181.562 292.134 192.501 264.746C208.239 225.336 182.491 176.801 204.097 136.877L178.501 151.653C178.436 213.916 176.709 240.134 163.387 247.817C144.993 258.418 111.977 252.069 106.676 236.211V255.544C106.676 270.954 113.419 282.08 123.343 288.375" fill="#E3C5DB"/>
<path d="M129.791 300.243C118.774 293.26 111.299 280.91 111.299 263.817V230.648L68.4355 205.905V241.959C68.4355 259.052 75.8344 268.637 86.8508 275.621L129.714 300.364" fill="#B4C47E"/>
<path d="M178.709 229.424V223.566L174.862 231.664L178.709 229.424Z" fill="#5F8259"/>
<path d="M174.862 231.664L178.709 223.566L171.397 219.347L167.55 227.457L174.862 231.664Z" fill="#8AA679"/>
<path d="M120.621 295.194L97.5613 281.883C86.5449 274.899 79.1678 268.036 79.146 248.692L78.4902 211.774L97.7471 222.834L98.4028 259.752C98.4028 276.845 105.802 285.948 116.818 292.943" fill="#DAEEF5"/>
<path d="M101.507 284.167C98.7855 282.451 96.1188 280.648 93.6926 278.528C91.2664 276.418 89.1243 273.959 87.5068 271.183C85.8784 268.407 84.7855 265.336 84.097 262.189C83.3975 259.041 83.0806 255.828 83.015 252.604L82.1953 214.058H82.6762L83.2554 252.604C83.2991 255.806 83.5942 259.019 84.2718 262.156C84.9385 265.293 86.0095 268.353 87.6161 271.129C89.2117 273.916 91.3319 276.375 93.7363 278.495C96.1407 280.626 98.8073 282.451 101.507 284.178V284.167Z" fill="white"/>
<path d="M111.299 289.752C108.578 288.036 105.911 286.232 103.485 284.112C101.059 282.003 98.9168 279.544 97.2993 276.768C95.6709 273.992 94.578 270.921 93.8894 267.774C93.19 264.626 92.873 261.413 92.8075 258.189L91.9878 219.642H92.4687L93.0479 258.189C93.0916 261.391 93.3867 264.604 94.0643 267.741C94.731 270.877 95.802 273.937 97.4086 276.713C99.0042 279.5 101.124 281.959 103.529 284.079C105.933 286.211 108.6 288.036 111.299 289.763V289.752Z" fill="white"/>
<path d="M148.129 123.806L190.993 148.549C190.916 217.62 189.004 246.724 174.217 255.238C161.102 259.489 154.162 251.511 154.162 233.544V221.468L148.14 217.992V214.156V123.817" fill="#D8A05C"/>
<path d="M165.299 166.735V160.877L161.463 168.987L165.299 166.735Z" fill="#5F8259"/>
<path d="M161.463 168.987L165.299 160.877L157.987 156.659L154.151 164.768L161.463 168.987Z" fill="#8AA679"/>
<path d="M180.468 185.948V182.101L177.944 187.435L180.468 185.948Z" fill="#5F8259"/>
<path d="M177.944 187.435L180.469 182.101L175.66 179.325L173.135 184.659L177.944 187.435Z" fill="#8AA679"/>
<path d="M163.398 206.167V202.309L160.873 207.653L163.398 206.167Z" fill="#5F8259"/>
<path d="M160.873 207.653L163.397 202.309L158.589 199.544L156.064 204.877L160.873 207.653Z" fill="#8AA679"/>
<path d="M233.845 84.0685V133.555L190.982 158.298V108.812L233.845 84.0685Z" fill="#818284"/>
<path d="M205.168 100.626V150.112" stroke="#A7A9AB" stroke-width="0.240437" stroke-miterlimit="10"/>
<path d="M219.9 92.1232V141.61" stroke="#A7A9AB" stroke-width="0.240437" stroke-miterlimit="10"/>
<path d="M190.982 125.161L233.845 100.407" stroke="#A7A9AB" stroke-width="0.240437" stroke-miterlimit="10"/>
<path d="M190.982 142.517L233.845 117.773" stroke="#A7A9AB" stroke-width="0.240437" stroke-miterlimit="10"/>
<path d="M203.922 116.571C204.121 116.571 204.283 116.41 204.283 116.211C204.283 116.011 204.121 115.85 203.922 115.85C203.723 115.85 203.562 116.011 203.562 116.211C203.562 116.41 203.723 116.571 203.922 116.571Z" fill="#BCBEC0"/>
<path d="M203.922 119.489C204.121 119.489 204.283 119.328 204.283 119.129C204.283 118.929 204.121 118.768 203.922 118.768C203.723 118.768 203.562 118.929 203.562 119.129C203.562 119.328 203.723 119.489 203.922 119.489Z" fill="#BCBEC0"/>
<path d="M206.315 115.205C206.514 115.205 206.676 115.044 206.676 114.845C206.676 114.645 206.514 114.484 206.315 114.484C206.116 114.484 205.955 114.645 205.955 114.845C205.955 115.044 206.116 115.205 206.315 115.205Z" fill="#BCBEC0"/>
<path d="M206.315 118.123C206.514 118.123 206.676 117.962 206.676 117.763C206.676 117.563 206.514 117.402 206.315 117.402C206.116 117.402 205.955 117.563 205.955 117.763C205.955 117.962 206.116 118.123 206.315 118.123Z" fill="#BCBEC0"/>
<path d="M218.698 108.047C218.897 108.047 219.059 107.885 219.059 107.686C219.059 107.487 218.897 107.325 218.698 107.325C218.499 107.325 218.337 107.487 218.337 107.686C218.337 107.885 218.499 108.047 218.698 108.047Z" fill="#BCBEC0"/>
<path d="M218.698 110.965C218.897 110.965 219.059 110.803 219.059 110.604C219.059 110.405 218.897 110.243 218.698 110.243C218.499 110.243 218.337 110.405 218.337 110.604C218.337 110.803 218.499 110.965 218.698 110.965Z" fill="#BCBEC0"/>
<path d="M221.103 106.681C221.302 106.681 221.464 106.519 221.464 106.32C221.464 106.121 221.302 105.959 221.103 105.959C220.904 105.959 220.742 106.121 220.742 106.32C220.742 106.519 220.904 106.681 221.103 106.681Z" fill="#BCBEC0"/>
<path d="M221.103 109.599C221.302 109.599 221.464 109.437 221.464 109.238C221.464 109.039 221.302 108.877 221.103 108.877C220.904 108.877 220.742 109.039 220.742 109.238C220.742 109.437 220.904 109.599 221.103 109.599Z" fill="#BCBEC0"/>
<path d="M218.698 125.336C218.897 125.336 219.059 125.175 219.059 124.976C219.059 124.776 218.897 124.615 218.698 124.615C218.499 124.615 218.337 124.776 218.337 124.976C218.337 125.175 218.499 125.336 218.698 125.336Z" fill="#BCBEC0"/>
<path d="M218.698 128.254C218.897 128.254 219.059 128.093 219.059 127.894C219.059 127.695 218.897 127.533 218.698 127.533C218.499 127.533 218.337 127.695 218.337 127.894C218.337 128.093 218.499 128.254 218.698 128.254Z" fill="#BCBEC0"/>
<path d="M221.103 123.97C221.302 123.97 221.464 123.809 221.464 123.61C221.464 123.41 221.302 123.249 221.103 123.249C220.904 123.249 220.742 123.41 220.742 123.61C220.742 123.809 220.904 123.97 221.103 123.97Z" fill="#BCBEC0"/>
<path d="M221.103 126.888C221.302 126.888 221.464 126.727 221.464 126.528C221.464 126.328 221.302 126.167 221.103 126.167C220.904 126.167 220.742 126.328 220.742 126.528C220.742 126.727 220.904 126.888 221.103 126.888Z" fill="#BCBEC0"/>
<path d="M203.966 133.916C204.165 133.916 204.326 133.754 204.326 133.555C204.326 133.356 204.165 133.194 203.966 133.194C203.766 133.194 203.605 133.356 203.605 133.555C203.605 133.754 203.766 133.916 203.966 133.916Z" fill="#BCBEC0"/>
<path d="M203.966 136.834C204.165 136.834 204.326 136.672 204.326 136.473C204.326 136.274 204.165 136.112 203.966 136.112C203.766 136.112 203.605 136.274 203.605 136.473C203.605 136.672 203.766 136.834 203.966 136.834Z" fill="#BCBEC0"/>
<path d="M206.37 132.549C206.569 132.549 206.731 132.388 206.731 132.189C206.731 131.99 206.569 131.828 206.37 131.828C206.171 131.828 206.009 131.99 206.009 132.189C206.009 132.388 206.171 132.549 206.37 132.549Z" fill="#BCBEC0"/>
<path d="M206.37 135.468C206.569 135.468 206.731 135.306 206.731 135.107C206.731 134.908 206.569 134.746 206.37 134.746C206.171 134.746 206.009 134.908 206.009 135.107C206.009 135.306 206.171 135.468 206.37 135.468Z" fill="#BCBEC0"/>
<path d="M192.184 123.577C192.383 123.577 192.545 123.415 192.545 123.216C192.545 123.017 192.383 122.855 192.184 122.855C191.985 122.855 191.823 123.017 191.823 123.216C191.823 123.415 191.985 123.577 192.184 123.577Z" fill="#BCBEC0"/>
<path d="M192.184 126.506C192.383 126.506 192.545 126.344 192.545 126.145C192.545 125.946 192.383 125.784 192.184 125.784C191.985 125.784 191.823 125.946 191.823 126.145C191.823 126.344 191.985 126.506 192.184 126.506Z" fill="#BCBEC0"/>
<path d="M192.184 140.735C192.383 140.735 192.545 140.574 192.545 140.375C192.545 140.175 192.383 140.014 192.184 140.014C191.985 140.014 191.823 140.175 191.823 140.375C191.823 140.574 191.985 140.735 192.184 140.735Z" fill="#BCBEC0"/>
<path d="M192.184 143.653C192.383 143.653 192.545 143.492 192.545 143.293C192.545 143.093 192.383 142.932 192.184 142.932C191.985 142.932 191.823 143.093 191.823 143.293C191.823 143.492 191.985 143.653 192.184 143.653Z" fill="#BCBEC0"/>
<path d="M192.283 156.222C192.482 156.222 192.644 156.06 192.644 155.861C192.644 155.662 192.482 155.5 192.283 155.5C192.084 155.5 191.922 155.662 191.922 155.861C191.922 156.06 192.084 156.222 192.283 156.222Z" fill="#BCBEC0"/>
<path d="M232.643 117.358C232.843 117.358 233.004 117.197 233.004 116.998C233.004 116.798 232.843 116.637 232.643 116.637C232.444 116.637 232.283 116.798 232.283 116.998C232.283 117.197 232.444 117.358 232.643 117.358Z" fill="#BCBEC0"/>
<path d="M232.643 120.276C232.843 120.276 233.004 120.115 233.004 119.916C233.004 119.716 232.843 119.555 232.643 119.555C232.444 119.555 232.283 119.716 232.283 119.916C232.283 120.115 232.444 120.276 232.643 120.276Z" fill="#BCBEC0"/>
<path d="M232.643 100.2C232.843 100.2 233.004 100.038 233.004 99.839C233.004 99.6398 232.843 99.4784 232.643 99.4784C232.444 99.4784 232.283 99.6398 232.283 99.839C232.283 100.038 232.444 100.2 232.643 100.2Z" fill="#BCBEC0"/>
<path d="M232.643 103.129C232.843 103.129 233.004 102.967 233.004 102.768C233.004 102.569 232.843 102.407 232.643 102.407C232.444 102.407 232.283 102.569 232.283 102.768C232.283 102.967 232.444 103.129 232.643 103.129Z" fill="#BCBEC0"/>
<path d="M218.698 94.626C218.897 94.626 219.059 94.4645 219.059 94.2653C219.059 94.0661 218.897 93.9046 218.698 93.9046C218.499 93.9046 218.337 94.0661 218.337 94.2653C218.337 94.4645 218.499 94.626 218.698 94.626Z" fill="#BCBEC0"/>
<path d="M221.103 93.2599C221.302 93.2599 221.464 93.0984 221.464 92.8992C221.464 92.7 221.302 92.5385 221.103 92.5385C220.904 92.5385 220.742 92.7 220.742 92.8992C220.742 93.0984 220.904 93.2599 221.103 93.2599Z" fill="#BCBEC0"/>
<path d="M233.004 86.2871C233.203 86.2871 233.364 86.1257 233.364 85.9265C233.364 85.7273 233.203 85.5658 233.004 85.5658C232.805 85.5658 232.643 85.7273 232.643 85.9265C232.643 86.1257 232.805 86.2871 233.004 86.2871Z" fill="#BCBEC0"/>
<path d="M203.966 103.129C204.165 103.129 204.326 102.967 204.326 102.768C204.326 102.569 204.165 102.407 203.966 102.407C203.766 102.407 203.605 102.569 203.605 102.768C203.605 102.967 203.766 103.129 203.966 103.129Z" fill="#BCBEC0"/>
<path d="M192.184 109.959C192.383 109.959 192.545 109.798 192.545 109.599C192.545 109.399 192.383 109.238 192.184 109.238C191.985 109.238 191.823 109.399 191.823 109.599C191.823 109.798 191.985 109.959 192.184 109.959Z" fill="#BCBEC0"/>
<path d="M206.37 101.763C206.569 101.763 206.731 101.601 206.731 101.402C206.731 101.203 206.569 101.041 206.37 101.041C206.171 101.041 206.009 101.203 206.009 101.402C206.009 101.601 206.171 101.763 206.37 101.763Z" fill="#BCBEC0"/>
<path d="M203.966 149.511C204.165 149.511 204.326 149.35 204.326 149.151C204.326 148.951 204.165 148.79 203.966 148.79C203.766 148.79 203.605 148.951 203.605 149.151C203.605 149.35 203.766 149.511 203.966 149.511Z" fill="#BCBEC0"/>
<path d="M206.37 148.145C206.569 148.145 206.731 147.984 206.731 147.784C206.731 147.585 206.569 147.424 206.37 147.424C206.171 147.424 206.009 147.585 206.009 147.784C206.009 147.984 206.171 148.145 206.37 148.145Z" fill="#BCBEC0"/>
<path d="M218.698 141.183C218.897 141.183 219.059 141.022 219.059 140.823C219.059 140.623 218.897 140.462 218.698 140.462C218.499 140.462 218.337 140.623 218.337 140.823C218.337 141.022 218.499 141.183 218.698 141.183Z" fill="#BCBEC0"/>
<path d="M221.103 139.817C221.302 139.817 221.464 139.656 221.464 139.457C221.464 139.257 221.302 139.096 221.103 139.096C220.904 139.096 220.742 139.257 220.742 139.457C220.742 139.656 220.904 139.817 221.103 139.817Z" fill="#BCBEC0"/>
<path d="M232.643 133.03C232.843 133.03 233.004 132.869 233.004 132.67C233.004 132.471 232.843 132.309 232.643 132.309C232.444 132.309 232.283 132.471 232.283 132.67C232.283 132.869 232.444 133.03 232.643 133.03Z" fill="#BCBEC0"/>
<path d="M148.129 84.0685V133.555L190.982 158.298V108.812L148.129 84.0685Z" fill="#58595B"/>
<path d="M176.796 100.626V150.112" stroke="#818284" stroke-width="0.240437" stroke-miterlimit="10"/>
<path d="M162.064 92.1232V141.61" stroke="#818284" stroke-width="0.240437" stroke-miterlimit="10"/>
<path d="M190.982 125.161L148.129 100.407" stroke="#818284" stroke-width="0.240437" stroke-miterlimit="10"/>
<path d="M190.982 142.517L148.129 117.773" stroke="#818284" stroke-width="0.240437" stroke-miterlimit="10"/>
<path d="M178.054 116.571C178.253 116.571 178.414 116.41 178.414 116.211C178.414 116.011 178.253 115.85 178.054 115.85C177.854 115.85 177.693 116.011 177.693 116.211C177.693 116.41 177.854 116.571 178.054 116.571Z" fill="#949598"/>
<path d="M178.054 119.489C178.253 119.489 178.414 119.328 178.414 119.129C178.414 118.929 178.253 118.768 178.054 118.768C177.854 118.768 177.693 118.929 177.693 119.129C177.693 119.328 177.854 119.489 178.054 119.489Z" fill="#949598"/>
<path d="M175.649 115.205C175.848 115.205 176.009 115.044 176.009 114.845C176.009 114.645 175.848 114.484 175.649 114.484C175.45 114.484 175.288 114.645 175.288 114.845C175.288 115.044 175.45 115.205 175.649 115.205Z" fill="#949598"/>
<path d="M175.649 118.123C175.848 118.123 176.009 117.962 176.009 117.763C176.009 117.563 175.848 117.402 175.649 117.402C175.45 117.402 175.288 117.563 175.288 117.763C175.288 117.962 175.45 118.123 175.649 118.123Z" fill="#949598"/>
<path d="M163.266 108.047C163.465 108.047 163.627 107.885 163.627 107.686C163.627 107.487 163.465 107.325 163.266 107.325C163.067 107.325 162.905 107.487 162.905 107.686C162.905 107.885 163.067 108.047 163.266 108.047Z" fill="#949598"/>
<path d="M163.266 110.965C163.465 110.965 163.627 110.803 163.627 110.604C163.627 110.405 163.465 110.243 163.266 110.243C163.067 110.243 162.905 110.405 162.905 110.604C162.905 110.803 163.067 110.965 163.266 110.965Z" fill="#949598"/>
<path d="M160.873 106.681C161.072 106.681 161.234 106.519 161.234 106.32C161.234 106.121 161.072 105.959 160.873 105.959C160.674 105.959 160.512 106.121 160.512 106.32C160.512 106.519 160.674 106.681 160.873 106.681Z" fill="#949598"/>
<path d="M160.873 109.599C161.072 109.599 161.234 109.437 161.234 109.238C161.234 109.039 161.072 108.877 160.873 108.877C160.674 108.877 160.512 109.039 160.512 109.238C160.512 109.437 160.674 109.599 160.873 109.599Z" fill="#949598"/>
<path d="M163.266 125.336C163.465 125.336 163.627 125.175 163.627 124.976C163.627 124.776 163.465 124.615 163.266 124.615C163.067 124.615 162.905 124.776 162.905 124.976C162.905 125.175 163.067 125.336 163.266 125.336Z" fill="#949598"/>
<path d="M163.266 128.254C163.465 128.254 163.627 128.093 163.627 127.894C163.627 127.695 163.465 127.533 163.266 127.533C163.067 127.533 162.905 127.695 162.905 127.894C162.905 128.093 163.067 128.254 163.266 128.254Z" fill="#949598"/>
<path d="M160.873 123.97C161.072 123.97 161.234 123.809 161.234 123.61C161.234 123.41 161.072 123.249 160.873 123.249C160.674 123.249 160.512 123.41 160.512 123.61C160.512 123.809 160.674 123.97 160.873 123.97Z" fill="#949598"/>
<path d="M160.873 126.888C161.072 126.888 161.234 126.727 161.234 126.528C161.234 126.328 161.072 126.167 160.873 126.167C160.674 126.167 160.512 126.328 160.512 126.528C160.512 126.727 160.674 126.888 160.873 126.888Z" fill="#949598"/>
<path d="M177.998 133.916C178.198 133.916 178.359 133.754 178.359 133.555C178.359 133.356 178.198 133.194 177.998 133.194C177.799 133.194 177.638 133.356 177.638 133.555C177.638 133.754 177.799 133.916 177.998 133.916Z" fill="#949598"/>
<path d="M177.998 136.834C178.198 136.834 178.359 136.672 178.359 136.473C178.359 136.274 178.198 136.112 177.998 136.112C177.799 136.112 177.638 136.274 177.638 136.473C177.638 136.672 177.799 136.834 177.998 136.834Z" fill="#949598"/>
<path d="M175.605 132.549C175.804 132.549 175.965 132.388 175.965 132.189C175.965 131.99 175.804 131.828 175.605 131.828C175.406 131.828 175.244 131.99 175.244 132.189C175.244 132.388 175.406 132.549 175.605 132.549Z" fill="#949598"/>
<path d="M175.605 135.468C175.804 135.468 175.965 135.306 175.965 135.107C175.965 134.908 175.804 134.746 175.605 134.746C175.406 134.746 175.244 134.908 175.244 135.107C175.244 135.306 175.406 135.468 175.605 135.468Z" fill="#949598"/>
<path d="M189.78 123.577C189.979 123.577 190.141 123.415 190.141 123.216C190.141 123.017 189.979 122.855 189.78 122.855C189.581 122.855 189.419 123.017 189.419 123.216C189.419 123.415 189.581 123.577 189.78 123.577Z" fill="#949598"/>
<path d="M189.78 126.506C189.979 126.506 190.141 126.344 190.141 126.145C190.141 125.946 189.979 125.784 189.78 125.784C189.581 125.784 189.419 125.946 189.419 126.145C189.419 126.344 189.581 126.506 189.78 126.506Z" fill="#949598"/>
<path d="M189.78 140.735C189.979 140.735 190.141 140.574 190.141 140.375C190.141 140.175 189.979 140.014 189.78 140.014C189.581 140.014 189.419 140.175 189.419 140.375C189.419 140.574 189.581 140.735 189.78 140.735Z" fill="#949598"/>
<path d="M189.78 143.653C189.979 143.653 190.141 143.492 190.141 143.293C190.141 143.093 189.979 142.932 189.78 142.932C189.581 142.932 189.419 143.093 189.419 143.293C189.419 143.492 189.581 143.653 189.78 143.653Z" fill="#949598"/>
<path d="M189.693 156.222C189.892 156.222 190.053 156.06 190.053 155.861C190.053 155.662 189.892 155.5 189.693 155.5C189.493 155.5 189.332 155.662 189.332 155.861C189.332 156.06 189.493 156.222 189.693 156.222Z" fill="#949598"/>
<path d="M149.321 117.358C149.52 117.358 149.682 117.197 149.682 116.998C149.682 116.798 149.52 116.637 149.321 116.637C149.122 116.637 148.96 116.798 148.96 116.998C148.96 117.197 149.122 117.358 149.321 117.358Z" fill="#949598"/>
<path d="M149.321 120.276C149.52 120.276 149.682 120.115 149.682 119.916C149.682 119.716 149.52 119.555 149.321 119.555C149.122 119.555 148.96 119.716 148.96 119.916C148.96 120.115 149.122 120.276 149.321 120.276Z" fill="#949598"/>
<path d="M149.321 100.2C149.52 100.2 149.682 100.038 149.682 99.839C149.682 99.6398 149.52 99.4784 149.321 99.4784C149.122 99.4784 148.96 99.6398 148.96 99.839C148.96 100.038 149.122 100.2 149.321 100.2Z" fill="#949598"/>
<path d="M149.321 103.129C149.52 103.129 149.682 102.967 149.682 102.768C149.682 102.569 149.52 102.407 149.321 102.407C149.122 102.407 148.96 102.569 148.96 102.768C148.96 102.967 149.122 103.129 149.321 103.129Z" fill="#949598"/>
<path d="M163.266 94.626C163.465 94.626 163.627 94.4645 163.627 94.2653C163.627 94.0661 163.465 93.9046 163.266 93.9046C163.067 93.9046 162.905 94.0661 162.905 94.2653C162.905 94.4645 163.067 94.626 163.266 94.626Z" fill="#949598"/>
<path d="M160.873 93.2599C161.072 93.2599 161.234 93.0984 161.234 92.8992C161.234 92.7 161.072 92.5385 160.873 92.5385C160.674 92.5385 160.512 92.7 160.512 92.8992C160.512 93.0984 160.674 93.2599 160.873 93.2599Z" fill="#949598"/>
<path d="M148.96 86.2871C149.159 86.2871 149.321 86.1257 149.321 85.9265C149.321 85.7273 149.159 85.5658 148.96 85.5658C148.761 85.5658 148.6 85.7273 148.6 85.9265C148.6 86.1257 148.761 86.2871 148.96 86.2871Z" fill="#949598"/>
<path d="M177.998 103.129C178.198 103.129 178.359 102.967 178.359 102.768C178.359 102.569 178.198 102.407 177.998 102.407C177.799 102.407 177.638 102.569 177.638 102.768C177.638 102.967 177.799 103.129 177.998 103.129Z" fill="#949598"/>
<path d="M189.78 109.959C189.979 109.959 190.141 109.798 190.141 109.599C190.141 109.399 189.979 109.238 189.78 109.238C189.581 109.238 189.419 109.399 189.419 109.599C189.419 109.798 189.581 109.959 189.78 109.959Z" fill="#949598"/>
<path d="M175.605 101.763C175.804 101.763 175.965 101.601 175.965 101.402C175.965 101.203 175.804 101.041 175.605 101.041C175.406 101.041 175.244 101.203 175.244 101.402C175.244 101.601 175.406 101.763 175.605 101.763Z" fill="#949598"/>
<path d="M177.998 149.511C178.198 149.511 178.359 149.35 178.359 149.151C178.359 148.951 178.198 148.79 177.998 148.79C177.799 148.79 177.638 148.951 177.638 149.151C177.638 149.35 177.799 149.511 177.998 149.511Z" fill="#949598"/>
<path d="M175.605 148.145C175.804 148.145 175.965 147.984 175.965 147.784C175.965 147.585 175.804 147.424 175.605 147.424C175.406 147.424 175.244 147.585 175.244 147.784C175.244 147.984 175.406 148.145 175.605 148.145Z" fill="#949598"/>
<path d="M163.266 141.183C163.465 141.183 163.627 141.022 163.627 140.823C163.627 140.623 163.465 140.462 163.266 140.462C163.067 140.462 162.905 140.623 162.905 140.823C162.905 141.022 163.067 141.183 163.266 141.183Z" fill="#949598"/>
<path d="M160.873 139.817C161.072 139.817 161.234 139.656 161.234 139.457C161.234 139.257 161.072 139.096 160.873 139.096C160.674 139.096 160.512 139.257 160.512 139.457C160.512 139.656 160.674 139.817 160.873 139.817Z" fill="#949598"/>
<path d="M149.321 133.03C149.52 133.03 149.682 132.869 149.682 132.67C149.682 132.471 149.52 132.309 149.321 132.309C149.122 132.309 148.96 132.471 148.96 132.67C148.96 132.869 149.122 133.03 149.321 133.03Z" fill="#949598"/>
<path d="M148.129 84.0686L190.982 59.3254L233.845 84.0686L190.982 108.812L148.129 84.0686Z" fill="#949598"/>
<path d="M152.293 84.2981L157.146 20.2543V87.0959" fill="#58595B"/>
<path d="M159.07 80.3309L163.911 16.2871V83.1287" fill="#58595B"/>
<path d="M165.845 76.3636L170.687 12.3199V79.1615" fill="#58595B"/>
<path d="M172.611 72.3964L177.463 8.35272V75.1942" fill="#58595B"/>
<path d="M179.386 68.4292L184.228 4.38551V71.227" fill="#58595B"/>
<path d="M186.163 64.462L191.004 0.418289V67.2598" fill="#58595B"/>
<path d="M195.845 64.462L191.004 0.418289V67.2598" fill="#818284"/>
<path d="M189.07 68.4292L184.228 4.38551V71.227" fill="#818284"/>
<path d="M161.988 84.2981L157.146 20.2543V87.0959" fill="#818284"/>
<path d="M168.764 80.3309L163.911 16.2871V83.1287" fill="#818284"/>
<path d="M175.529 76.3636L170.687 12.3199V79.1615" fill="#818284"/>
<path d="M182.305 72.3964L177.463 8.35272V75.1942" fill="#818284"/>
<path d="M159.07 88.2216L163.911 24.1779V91.0194" fill="#58595B"/>
<path d="M165.845 84.2543L170.687 20.2106V87.0521" fill="#58595B"/>
<path d="M172.611 80.2871L177.463 16.2434V83.085" fill="#58595B"/>
<path d="M179.386 76.3199L184.228 12.2762V79.1178" fill="#58595B"/>
<path d="M186.163 72.3527L191.004 8.30896V75.1505" fill="#58595B"/>
<path d="M192.928 68.3855L197.769 4.34175V71.1724" fill="#58595B"/>
<path d="M202.622 68.3855L197.769 4.34175V71.1724" fill="#818284"/>
<path d="M195.845 72.3527L191.004 8.30896V75.1505" fill="#818284"/>
<path d="M168.764 88.2216L163.911 24.1779V91.0194" fill="#818284"/>
<path d="M175.529 84.2543L170.687 20.2106V87.0521" fill="#818284"/>
<path d="M182.305 80.2871L177.463 16.2434V83.085" fill="#818284"/>
<path d="M189.07 76.3199L184.228 12.2762V79.1178" fill="#818284"/>
<path d="M165.845 92.1341L170.687 28.0904V94.9319" fill="#58595B"/>
<path d="M172.611 88.1669L177.463 24.1232V90.9647" fill="#58595B"/>
<path d="M179.386 84.1997L184.228 20.156V86.9975" fill="#58595B"/>
<path d="M186.163 80.2325L191.004 16.1888V83.0303" fill="#58595B"/>
<path d="M192.928 76.2653L197.769 12.2216V79.0631" fill="#58595B"/>
<path d="M199.704 72.298L204.545 8.25433V75.0958" fill="#58595B"/>
<path d="M209.386 72.298L204.545 8.25433V75.0958" fill="#818284"/>
<path d="M202.622 76.2653L197.769 12.2216V79.0631" fill="#818284"/>
<path d="M175.529 92.1341L170.687 28.0904V94.9319" fill="#818284"/>
<path d="M182.305 88.1669L177.463 24.1232V90.9647" fill="#818284"/>
<path d="M189.07 84.1997L184.228 20.156V86.9975" fill="#818284"/>
<path d="M195.845 80.2325L191.004 16.1888V83.0303" fill="#818284"/>
<path d="M172.611 96.0467L177.463 32.003V98.8445" fill="#58595B"/>
<path d="M179.386 92.0795L184.228 28.0357V94.8773" fill="#58595B"/>
<path d="M186.163 88.1123L191.004 24.0686V90.9101" fill="#58595B"/>
<path d="M192.928 84.145L197.769 20.1013V86.9429" fill="#58595B"/>
<path d="M199.704 80.1779L204.545 16.1342V82.9757" fill="#58595B"/>
<path d="M206.469 76.2106L211.321 12.1669V79.0084" fill="#58595B"/>
<path d="M216.163 76.2106L211.321 12.1669V79.0084" fill="#818284"/>
<path d="M209.386 80.1779L204.545 16.1342V82.9757" fill="#818284"/>
<path d="M182.305 96.0467L177.463 32.003V98.8445" fill="#818284"/>
<path d="M189.07 92.0795L184.228 28.0357V94.8773" fill="#818284"/>
<path d="M195.845 88.1123L191.004 24.0686V90.9101" fill="#818284"/>
<path d="M202.622 84.145L197.769 20.1013V86.9429" fill="#818284"/>
<path d="M179.386 99.9702L184.228 35.9265V102.768" fill="#58595B"/>
<path d="M186.163 96.003L191.004 31.9593V98.8008" fill="#58595B"/>
<path d="M192.928 92.0357L197.769 27.992V94.8336" fill="#58595B"/>
<path d="M199.704 88.0686L204.545 24.0248V90.8664" fill="#58595B"/>
<path d="M206.469 84.1014L211.321 20.0576V86.8992" fill="#58595B"/>
<path d="M213.244 80.1342L218.086 16.0904V82.932" fill="#58595B"/>
<path d="M222.938 80.1342L218.086 16.0904V82.932" fill="#818284"/>
<path d="M216.163 84.1014L211.321 20.0576V86.8992" fill="#818284"/>
<path d="M189.07 99.9702L184.228 35.9265V102.768" fill="#818284"/>
<path d="M195.845 96.003L191.004 31.9593V98.8008" fill="#818284"/>
<path d="M202.622 92.0357L197.769 27.992V94.8336" fill="#818284"/>
<path d="M209.386 88.0686L204.545 24.0248V90.8664" fill="#818284"/>
<path d="M186.163 103.883L191.004 39.8391V106.681" fill="#58595B"/>
<path d="M192.928 99.9156L197.769 35.8719V102.713" fill="#58595B"/>
<path d="M199.704 95.9483L204.545 31.9046V98.7461" fill="#58595B"/>
<path d="M206.469 91.9811L211.321 27.9374V94.7789" fill="#58595B"/>
<path d="M213.244 88.0139L218.086 23.9702V90.8117" fill="#58595B"/>
<path d="M220.021 84.0467L224.862 20.003V86.8445" fill="#58595B"/>
<path d="M229.703 84.0467L224.862 20.003V86.8445" fill="#818284"/>
<path d="M222.938 88.0139L218.086 23.9702V90.8117" fill="#818284"/>
<path d="M195.845 103.883L191.004 39.8391V106.681" fill="#818284"/>
<path d="M202.622 99.9156L197.769 35.8719V102.713" fill="#818284"/>
<path d="M209.386 95.9483L204.545 31.9046V98.7461" fill="#818284"/>
<path d="M216.163 91.9811L211.321 27.9374V94.7789" fill="#818284"/>
<path d="M68.4355 205.905L111.299 181.161L154.151 205.905V205.872L111.299 230.626L68.4355 205.872" fill="#D1D3D4"/>
<path d="M116.873 198.91V193.052L113.037 201.161L116.873 198.91Z" fill="#5F8259"/>
<path d="M113.037 201.161L116.873 193.052L109.561 188.845L105.725 196.954L113.037 201.161Z" fill="#8AA679"/>
<path d="M116.873 220.233V214.375L113.037 222.484L116.873 220.233Z" fill="#5F8259"/>
<path d="M113.037 222.484L116.873 214.375L109.561 210.167L105.725 218.265L113.037 222.484Z" fill="#8AA679"/>
<path d="M154.151 233.533V205.905L111.288 230.648V242.364C119.397 270.375 173.791 281.074 183.977 242.364C173.124 267.544 153.004 256.353 154.151 233.533Z" fill="#F7C98B"/>
<path d="M154.151 237.26V230.626V205.916L127.047 221.642L127.375 239.621C129.189 274.823 175.211 275.599 183.856 242.735C174.643 264.112 153.179 256.648 154.162 237.271L154.151 237.26Z" fill="#F3D0A8"/>
<path d="M25.1926 262.168L23.878 261.409V270.187C23.878 271.536 23.5795 272.369 22.9825 272.684C22.3855 272.999 21.5663 272.856 20.5247 272.255C19.6356 271.742 18.9307 271.115 18.4099 270.374C17.9018 269.641 17.5144 268.86 17.2477 268.031L18.4861 267.668C18.7401 268.416 19.0196 268.988 19.3244 269.384C19.642 269.773 19.9913 270.077 20.3723 270.297C20.9947 270.656 21.4456 270.726 21.725 270.506C22.0045 270.271 22.1442 269.839 22.1442 269.208V260.408L19.7817 259.044V257.306L25.1926 260.43V262.168ZM34.5383 275.22C34.5383 276.73 34.1319 277.728 33.319 278.212C32.5188 278.703 31.4582 278.567 30.1372 277.805C28.8416 277.057 27.8128 276.001 27.0507 274.637C26.3013 273.28 25.9266 271.846 25.9266 270.336C25.9266 268.898 26.2886 267.875 27.0126 267.267C27.7366 266.658 28.8162 266.768 30.2515 267.597C31.6868 268.425 32.7601 269.558 33.4714 270.996C34.1827 272.418 34.5383 273.826 34.5383 275.22ZM32.7855 274.142C32.7855 273.056 32.5505 272.063 32.0805 271.161C31.6233 270.266 31.0009 269.591 30.2134 269.137C29.3878 268.66 28.7527 268.631 28.3081 269.049C27.8763 269.459 27.6604 270.185 27.6604 271.227C27.6604 272.224 27.8699 273.196 28.2891 274.142C28.7209 275.08 29.356 275.792 30.1943 276.276C31.02 276.752 31.655 276.782 32.0996 276.364C32.5569 275.938 32.7855 275.198 32.7855 274.142ZM45.7341 286.59L41.2948 284.027V282.531L42.6857 283.334V279.088C42.6857 278.09 42.5142 277.287 42.1713 276.679C41.8283 276.055 41.3774 275.582 40.8185 275.26C40.1326 274.864 39.5801 274.816 39.161 275.117C38.7418 275.403 38.5195 275.883 38.4941 276.558V280.914L39.885 281.717V283.213L35.4648 280.661V279.165L36.8365 279.957V267.835L35.4648 267.043V265.525L38.4941 267.274V274.27C39.1165 273.368 40.0882 273.298 41.4092 274.061C42.2348 274.537 42.9334 275.234 43.5049 276.151C44.0765 277.067 44.3623 278.149 44.3623 279.396V284.302L45.7341 285.094V286.59ZM56.7733 292.963L52.3531 290.411V288.915L53.7249 289.707V285.461C53.7249 284.464 53.5597 283.664 53.2295 283.063C52.8992 282.447 52.461 281.981 51.9149 281.666C51.2036 281.255 50.6383 281.2 50.2192 281.501C49.8 281.802 49.5777 282.304 49.5523 283.008V287.298L50.9241 288.09V289.586L46.5039 287.034V285.538L47.8757 286.33V279.51L46.4468 278.685V277.167L49.5523 278.96V280.632C50.1493 279.73 51.1147 279.664 52.4483 280.434C53.2739 280.911 53.9725 281.607 54.5441 282.524C55.1157 283.441 55.4015 284.522 55.4015 285.769V290.675L56.7733 291.467V292.963ZM74.7002 303.313L69.9942 300.596V298.858L71.4803 299.716V295.03L65.0977 291.345V296.031L66.5838 296.889V298.627L61.8588 295.899V294.161L63.364 295.03V284.206L61.8588 283.337V281.599L66.5838 284.327V286.065L65.0977 285.207V289.651L71.4803 293.336V288.892L69.9942 288.034V286.296L74.7002 289.013V290.751L73.2141 289.893V300.717L74.7002 301.575V303.313ZM83.5655 305.528C83.4766 306.327 83.1146 306.851 82.4795 307.101C81.8444 307.35 80.9807 307.159 79.8883 306.529C78.6563 305.817 77.6592 304.816 76.8971 303.526C76.135 302.235 75.7539 300.783 75.7539 299.17C75.7539 297.644 76.1096 296.588 76.8209 296.002C77.5322 295.415 78.5165 295.485 79.774 296.211C80.9426 296.885 81.8507 297.828 82.4985 299.038C83.1463 300.248 83.4766 301.45 83.4893 302.646C83.4893 303.042 83.4512 303.438 83.375 303.834L77.5068 300.446C77.583 302.572 78.4149 304.094 80.0026 305.011C80.6631 305.392 81.1585 305.495 81.4887 305.319C81.8317 305.15 82.0603 304.842 82.1746 304.395L83.5655 305.528ZM81.7555 301.601C81.8063 300.985 81.6666 300.288 81.3363 299.511C81.0188 298.726 80.4853 298.117 79.7359 297.685C79.0373 297.281 78.5102 297.248 78.1545 297.586C77.8116 297.916 77.602 298.44 77.5258 299.159L81.7555 301.601ZM85.9591 297.67V295.404L87.7119 296.416V298.682L85.9591 297.67ZM87.7119 310.936C87.7119 312.798 87.3817 313.906 86.7212 314.258C86.0607 314.61 85.1144 314.364 83.8824 313.521L83.8252 312.124C84.1682 312.322 84.5111 312.454 84.8541 312.52C85.197 312.586 85.4764 312.439 85.6924 312.08C85.921 311.728 86.0353 311.024 86.0353 309.968V301.542L84.3206 300.552V299.034L87.7119 300.992V310.936ZM99.3127 317.523L96.2834 315.774V313.838C96.0166 314.271 95.6419 314.561 95.1593 314.707C94.6893 314.861 94.0606 314.711 93.2731 314.256C92.168 313.618 91.2852 312.676 90.6247 311.429C89.9643 310.168 89.634 308.775 89.634 307.249C89.634 305.9 89.9325 304.848 90.5295 304.092C91.1392 303.33 92.1172 303.337 93.4636 304.114C94.7719 304.87 95.7118 305.999 96.2834 307.502V302.156L94.3209 301.023V299.505L97.9409 301.595V315.235L99.3127 316.027V317.523ZM96.2834 311.242V310.054C96.258 309.218 96.0166 308.419 95.5594 307.656C95.1021 306.894 94.5496 306.325 93.9018 305.951C93.0762 305.475 92.4474 305.464 92.0156 305.918C91.5964 306.38 91.3868 307.125 91.3868 308.151C91.3868 309.266 91.6155 310.249 92.0727 311.099C92.53 311.95 93.0952 312.57 93.7684 312.958C94.4924 313.376 95.083 313.373 95.5403 312.947C96.0103 312.529 96.258 311.961 96.2834 311.242ZM110.11 323.757L107.004 321.964V320.204C106.42 321.186 105.461 321.293 104.127 320.523C103.301 320.046 102.597 319.346 102.012 318.422C101.441 317.505 101.155 316.416 101.155 315.155V310.271L99.7831 309.479V307.961L102.831 309.721V315.485C102.831 316.482 102.997 317.281 103.327 317.883C103.67 318.491 104.127 318.961 104.699 319.291C105.385 319.687 105.937 319.72 106.356 319.39C106.775 319.045 106.991 318.524 107.004 317.828V313.648L105.346 312.691V311.173L108.681 313.098V321.436L110.11 322.261V323.757ZM120.271 329.624L116.137 327.237V325.741L117.28 326.401L115.203 322.254L113.755 321.418V324.366L114.86 325.004V326.5L110.726 324.113V322.617L112.098 323.409V311.287L110.669 310.462V308.944L113.755 310.726V320.01L115.261 320.879L117.013 319.427L115.775 318.712V317.194L119.833 319.537V321.055L118.652 320.373L116.499 322.122L119.204 327.512L120.271 328.128V329.624Z" fill="#818181"/>
</svg>
