<svg  viewBox="0 0 296 331" fill="none" xmlns="http://www.w3.org/2000/svg">
<path opacity="0.3" d="M0.383621 189.718C-0.186784 205.134 24.8379 219.613 29.9131 222.546L131.416 281.261V265.78L29.9131 207.064C24.9037 204.169 0.42019 190.004 0.376312 174.8V189.718" fill="#438C88"/>
<path opacity="0.3" d="M131.416 281.254C139.702 282.57 161.699 272.939 166.145 263.542V245.72C164.507 255.79 139.702 267.089 131.416 265.772V281.254Z" fill="#71C1C2"/>
<path d="M114.721 170.478L148.323 189.908V167.092L114.721 147.655V170.478Z" fill="#A89177"/>
<path d="M176.12 173.857L148.324 189.908V167.092L176.12 151.04V173.857Z" fill="#C7AA8A"/>
<path d="M176.12 151.04L142.524 131.603L114.721 147.655L148.323 167.092L176.12 151.04Z" fill="#D2BA9A"/>
<path d="M79.2754 139.142L112.878 158.573V135.757L79.2754 116.319V139.142Z" fill="#A89177"/>
<path d="M140.674 142.528L112.878 158.573V135.757L140.674 119.705V142.528Z" fill="#C7AA8A"/>
<path d="M140.674 119.705L107.079 100.267L79.2754 116.319L112.878 135.757L140.674 119.705Z" fill="#D2BA9A"/>
<path d="M17.8613 136.049L51.4567 155.487V132.663L17.8613 113.233V136.049Z" fill="#A89177"/>
<path d="M79.2606 139.435L51.457 155.487V132.663L79.2606 116.611V139.435Z" fill="#C7AA8A"/>
<path d="M79.2603 116.611L45.6576 97.1811L17.8613 113.233L51.4567 132.663L79.2603 116.611Z" fill="#D2BA9A"/>
<path d="M48.0854 153.41L75.8744 169.462V146.638L48.0854 130.594V153.41Z" fill="#A89177"/>
<path d="M103.678 153.41L75.8745 169.462V146.638L103.678 130.594V153.41Z" fill="#C1A386"/>
<path d="M95.2173 125.694L70.0756 111.156L42.2793 127.208L75.8747 146.638L95.2173 125.694Z" fill="#D2BA9A"/>
<path d="M230.03 142.521L263.626 161.959V139.142L230.03 119.705V142.521Z" fill="#B29C80"/>
<path d="M291.429 145.907L263.625 161.959V139.142L291.429 123.091V145.907Z" fill="#C7AA8A"/>
<path d="M291.429 123.091L257.827 103.653L230.03 119.705L263.626 139.142L291.429 123.091Z" fill="#D2BA9A"/>
<path d="M255.684 104.852L289.286 124.29V116.765L255.684 97.3273V104.852Z" fill="#B29C80"/>
<path d="M291.429 123.091L289.287 124.29V116.765L291.429 115.558V123.091Z" fill="#C7AA8A"/>
<path d="M291.429 115.558L257.826 96.128L255.684 97.3273L289.286 116.765L291.429 115.558Z" fill="#D7BFA5"/>
<path d="M142.429 108.282L176.025 127.72V104.896L142.429 85.4658V108.282Z" fill="#B29C80"/>
<path d="M203.828 111.668L176.024 127.72V104.896L203.828 88.8444V111.668Z" fill="#C7AA8A"/>
<path d="M203.828 88.8444L170.225 69.414L142.429 85.4658L176.025 104.896L203.828 88.8444Z" fill="#D2BA9A"/>
<path d="M156.316 116.509L189.912 135.947V113.13L156.316 93.6928V116.509Z" fill="#B29C80"/>
<path d="M217.715 119.895L189.912 135.947V113.13L217.715 97.0787V119.895Z" fill="#C7AA8A"/>
<path d="M217.715 97.0787L184.113 77.641L156.316 93.6928L189.912 113.13L217.715 97.0787Z" fill="#D2BA9A"/>
<path d="M109.112 136.246L142.715 154.69V132.861L109.112 113.423V136.246Z" fill="#B29C80"/>
<path d="M168.895 139.406L141.574 155.333V132.97L168.895 117.057V139.406Z" fill="#C7AA8A"/>
<path d="M167.966 117.057L135.687 96.6618L107.979 113.138L141.574 132.97L167.966 117.057Z" fill="#D2BA9A"/>
<path d="M233.628 180.19L267.231 199.627V176.811L233.628 157.373V180.19Z" fill="#B29C80"/>
<path d="M295.027 183.576L267.23 199.627V176.811L295.027 160.759V183.576Z" fill="#C7AA8A"/>
<path d="M295.027 160.759L261.432 141.322L233.628 157.373L267.231 176.811L295.027 160.759Z" fill="#D2BA9A"/>
<path d="M114.625 88.6031L148.221 108.033V85.2172L114.625 65.7795V88.6031Z" fill="#B29C80"/>
<path d="M176.025 91.9817L162.123 106.9L156.317 103.36L148.221 108.033V85.2172L176.025 69.1654V91.9817Z" fill="#C7AA8A"/>
<path d="M176.024 69.1654L142.429 49.7278L114.625 65.7795L148.221 85.2172L176.024 69.1654Z" fill="#D2BA9A"/>
<path d="M162.123 106.549L189.912 122.623V103.755L162.123 87.6743V106.549Z" fill="#B29C80"/>
<path d="M212.903 109.35L189.912 122.623V103.755L212.903 90.4752V109.35Z" fill="#C7AA8A"/>
<path d="M212.903 90.4751L185.114 74.4014L162.123 87.6743L189.912 103.755L212.903 90.4751Z" fill="#D2BA9A"/>
<path d="M185.429 96.8739L219.024 116.304V93.488L185.429 74.0504V96.8739Z" fill="#B29C80"/>
<path d="M246.828 100.26L219.024 116.304V93.488L246.828 77.4363V100.26Z" fill="#C7AA8A"/>
<path d="M246.828 77.4363L213.232 57.9986L185.429 74.0504L219.024 93.488L246.828 77.4363Z" fill="#D2BA9A"/>
<path d="M233.628 157.373L267.231 176.811V153.988L233.628 134.557V157.373Z" fill="#B29C80"/>
<path d="M295.027 160.759L267.23 176.811V153.988L295.027 137.936V160.759Z" fill="#C7AA8A"/>
<path d="M295.027 137.936L261.432 118.505L233.628 134.557L267.231 153.987L295.027 137.936Z" fill="#D2BA9A"/>
<path d="M205.832 173.425L239.427 192.863V170.039L205.832 150.602V173.425Z" fill="#B29C80"/>
<path d="M267.231 176.811L239.427 192.863V170.039L267.231 153.988V176.811Z" fill="#C7AA8A"/>
<path d="M267.231 153.988L233.628 134.557L205.832 150.602L239.427 170.039L267.231 153.988Z" fill="#D2BA9A"/>
<path d="M292.789 163.048L267.23 177.696V176.811L292.789 162.163" fill="#414042"/>
<path d="M213.276 129.424L246.872 148.854V126.038L213.276 106.6V129.424Z" fill="#AB9378"/>
<path d="M266.529 137.687L246.872 148.854V126.038L266.529 114.871V137.687Z" fill="#C7AA8A"/>
<path d="M266.529 114.871L232.926 95.4333L213.276 106.6L246.872 126.038L266.529 114.871Z" fill="#D9C3A9"/>
<path d="M230.03 139.142L210.117 150.602V143.077L230.03 131.61V139.142Z" fill="#C7AA8A"/>
<path d="M207.975 141.877L227.888 130.411L230.03 131.61L210.117 143.077L207.975 141.877Z" fill="#D7BFA5"/>
<path d="M257.826 106.052L254.55 107.946L247.874 104.253L257.826 98.5266V106.052Z" fill="#C7AA8A"/>
<path d="M245.731 103.053L255.684 97.3273L257.826 98.5267L247.874 104.253L245.731 103.053Z" fill="#D7BFA5"/>
<path d="M266.529 121.635L247.991 132.254V131.369L266.529 120.743" fill="#414042"/>
<path d="M213.276 113.789L245.49 132.254V131.369L213.276 112.896" fill="#414042"/>
<path d="M277.132 188.219L272.211 191.108V179.7L277.132 176.811V188.219Z" fill="#818284"/>
<path d="M244.349 184.453L239.427 187.342V175.933L244.349 173.045V184.453Z" fill="#818284"/>
<path d="M277.132 188.219L272.211 191.108V189.901L276.175 187.758L277.132 188.219Z" fill="#6D6E71"/>
<path d="M158.13 135.559L153.208 138.455V127.047L158.13 124.151V135.559Z" fill="#818284"/>
<path d="M158.13 135.559L153.208 138.455V137.241L157.172 135.106L158.13 135.559Z" fill="#6D6E71"/>
<path d="M244.349 184.453L239.427 187.342V186.135L243.391 183.992L244.349 184.453Z" fill="#6D6E71"/>
<path d="M277.133 188.219L276.175 187.758V177.374L277.133 176.811V188.219Z" fill="#58595B"/>
<path d="M255.786 177.681L250.865 180.577V169.162L255.786 166.273V177.681Z" fill="#818284"/>
<path d="M255.786 177.681L250.865 180.577V179.363L254.828 177.228L255.786 177.681Z" fill="#6D6E71"/>
<path d="M255.786 177.681L254.828 177.228V166.836L255.786 166.273V177.681Z" fill="#58595B"/>
<path d="M264.328 172.723L259.406 175.612V164.204L264.328 161.315V172.723Z" fill="#818284"/>
<path d="M264.328 172.723L259.406 175.612V174.405L263.37 172.262L264.328 172.723Z" fill="#6D6E71"/>
<path d="M264.328 172.723L263.37 172.262V161.878L264.328 161.315V172.723Z" fill="#58595B"/>
<path d="M158.13 135.559L157.172 135.106V124.714L158.13 124.151V135.559Z" fill="#58595B"/>
<path d="M169.83 172.496L164.909 175.385V163.977L169.83 161.088V172.496Z" fill="#818284"/>
<path d="M169.83 172.496L164.909 175.385V174.178L168.865 172.036L169.83 172.496Z" fill="#6D6E71"/>
<path d="M169.831 172.496L168.865 172.036V161.651L169.831 161.088V172.496Z" fill="#58595B"/>
<path d="M161.107 177.681L156.185 180.57V169.162L161.107 166.273V177.681Z" fill="#818284"/>
<path d="M161.107 177.681L156.185 180.57V179.363L160.149 177.221L161.107 177.681Z" fill="#6D6E71"/>
<path d="M161.106 177.681L160.148 177.221V166.836L161.106 166.273V177.681Z" fill="#58595B"/>
<path d="M244.349 184.453L243.391 183.992V173.608L244.349 173.045V184.453Z" fill="#58595B"/>
<path d="M234.505 184.453L239.427 187.342V175.933L234.505 173.045V184.453Z" fill="#6D6E71"/>
<path d="M234.505 184.453L239.427 187.342V186.135L235.463 183.992L234.505 184.453Z" fill="#58595B"/>
<path d="M234.505 184.453L235.463 183.992V173.608L234.505 173.045V184.453Z" fill="#818284"/>
<path d="M239.427 144.452L244.349 147.347V135.932L239.427 133.043V144.452Z" fill="#6D6E71"/>
<path d="M239.427 144.547L244.349 147.399V146.133L240.385 143.998L239.427 144.547Z" fill="#D2BA9A"/>
<path d="M239.427 144.547L240.385 143.998V133.607L239.427 133.043V144.547Z" fill="#818284"/>
<path d="M162.123 94.585L187.688 109.233V108.341L162.123 93.6928" fill="#414042"/>
<path d="M182.767 122.762L187.689 125.65V114.242L182.767 111.353V122.762Z" fill="#6D6E71"/>
<path d="M182.767 122.762L187.689 125.65V124.443L183.725 122.301L182.767 122.762Z" fill="#58595B"/>
<path d="M182.767 122.762L183.725 122.301V111.916L182.767 111.353V122.762Z" fill="#818284"/>
<path d="M199.557 105.042L192.149 109.196V108.304L198.899 104.523" fill="#414042"/>
<path d="M197.071 122.725L192.149 125.614V114.205L197.071 111.317V122.725Z" fill="#6D6E71"/>
<path d="M197.071 122.725L192.149 125.614V124.407L196.113 122.264L197.071 122.725Z" fill="#58595B"/>
<path d="M197.071 122.725L196.113 122.264V111.88L197.071 111.317V122.725Z" fill="#818284"/>
<path d="M48.0854 140.773L75.8744 156.847V137.972L48.0854 121.899V140.773Z" fill="#A99177"/>
<path d="M98.8662 143.574L75.8745 156.847V137.972L98.8662 124.699V143.574Z" fill="#C1A386"/>
<path d="M98.8661 124.699L71.0772 108.626L48.0854 121.899L75.8744 137.972L98.8661 124.699Z" fill="#D9C3A9"/>
<path d="M83.1144 156.423L78.1929 159.319V147.911L83.1144 145.015V156.423Z" fill="#6D6E71"/>
<path d="M83.1144 156.423L78.1929 159.319V158.105L82.1564 155.969L83.1144 156.423Z" fill="#58595B"/>
<path d="M83.1147 156.423L82.1567 155.969V145.578L83.1147 145.015V156.423Z" fill="#818284"/>
<path d="M140.85 103.777L145.771 106.593V95.2578L141.808 92.9323L140.85 93.4003V103.777Z" fill="#6D6E71"/>
<path d="M140.85 103.777L145.771 106.615V105.459L141.808 103.317L140.85 103.777Z" fill="#D2BA9A"/>
<path d="M140.85 103.777L141.808 103.317V92.9323L140.85 93.4003V103.777Z" fill="#818284"/>
<path d="M185.429 78.5113L210.995 93.159V92.2741L185.429 77.6265" fill="#414042"/>
<path d="M212.274 104.282L214.761 105.744L217.196 104.34V95.7623L212.274 92.8738V104.282Z" fill="#6D6E71"/>
<path d="M212.274 104.282L214.761 105.744L215.741 105.174L213.232 103.821L212.274 104.282Z" fill="#58595B"/>
<path d="M212.274 104.282L213.232 103.821V93.4369L212.274 92.8738V104.282Z" fill="#818284"/>
<path d="M88.0288 144.978L123.774 165.615V142.792L88.0288 122.155V144.978Z" fill="#B29C80"/>
<path d="M151.57 149.563L123.774 165.615V142.792L151.57 126.74V149.563Z" fill="#C7AA8A"/>
<path d="M151.57 126.74L117.975 107.309L90.1714 123.361L123.774 142.792L151.57 126.74Z" fill="#D2BA9A"/>
<path d="M90.1714 127.822L115.737 142.47V141.578L90.1714 126.93" fill="#414042"/>
<path d="M117.017 153.585L121.939 156.481V145.073L117.017 142.177V153.585Z" fill="#6D6E71"/>
<path d="M205.832 150.602L239.427 170.039V162.514L205.832 143.077V150.602Z" fill="#B29C80"/>
<path d="M241.57 168.84L239.427 170.039V162.514L241.57 161.315V168.84Z" fill="#C7AA8A"/>
<path d="M241.57 161.315L207.974 141.877L205.832 143.077L239.427 162.514L241.57 161.315Z" fill="#D7BFA5"/>
<path d="M88.0288 122.155L123.774 142.792V135.267L88.0288 114.63V122.155Z" fill="#B29C80"/>
<path d="M125.917 141.592L123.774 142.792V135.267L125.917 134.067V141.592Z" fill="#C7AA8A"/>
<path d="M125.917 134.067L90.1715 113.43L88.0288 114.63L123.774 135.267L125.917 134.067Z" fill="#D7BFA5"/>
<path d="M208.435 151.903L235.844 167.597V166.712L208.435 151.019" fill="#414042"/>
<path d="M289.286 124.29L280.379 129.424V121.891L289.286 116.765V124.29Z" fill="#C7AA8A"/>
<path d="M276.094 121.891L287.144 115.558L289.287 116.765L278.237 123.098L276.094 121.891Z" fill="#D7BFA5"/>
<path d="M276.094 129.424L290.742 137.936V130.411L276.094 121.891V129.424Z" fill="#B29C80"/>
<path d="M292.884 136.736L290.742 137.936V130.411L292.884 129.211V136.736Z" fill="#C7AA8A"/>
<path d="M292.885 129.211L280.379 121.891L278.237 123.098L290.742 130.411L292.885 129.211Z" fill="#D7BFA5"/>
<path d="M295.027 137.936L241.57 168.84V161.315L295.027 130.411V137.936Z" fill="#C7AA8A"/>
<path d="M239.427 160.108L292.884 129.211L295.027 130.411L241.57 161.315L239.427 160.108Z" fill="#D7BFA5"/>
<path d="M117.017 153.585L119.503 155.048L121.939 153.644V145.073L117.017 142.177V153.585Z" fill="#6D6E71"/>
<path d="M117.017 153.585L121.939 156.481V155.457L117.975 153.132L117.017 153.585Z" fill="#58595B"/>
<path d="M117.017 153.585L117.975 153.132V142.74L117.017 142.177V153.585Z" fill="#818284"/>
<path d="M148.221 108.033L161.414 115.668L167.966 111.96L148.221 100.508V108.033Z" fill="#B29C80"/>
<path d="M168.997 110.081L150.371 99.3091L148.221 100.508L166.935 111.332L168.997 110.081Z" fill="#D7BFA5"/>
<path d="M168.894 117.606L125.917 141.592V134.067L168.894 110.081V117.606Z" fill="#C7AA8A"/>
<path d="M123.774 132.868L166.752 109.233L168.894 110.081L125.917 134.067L123.774 132.868Z" fill="#D7BFA5"/>
<path d="M132.535 98.9581L98.8663 118.359L92.314 114.63L132.564 91.4843L132.535 98.9581Z" fill="#C1A386"/>
<path d="M90.1714 113.43L130.356 90.3654L132.498 91.5647L92.3141 114.63L90.1714 113.43Z" fill="#D9C3A9"/>
<path d="M101.865 75.2936L135.46 94.724V71.9077L101.865 52.4701V75.2936Z" fill="#B8A289"/>
<path d="M163.264 78.6721L135.46 94.7239V71.9077L163.264 55.856V78.6721Z" fill="#C7AA8A"/>
<path d="M163.264 55.856L129.661 36.4183L101.865 52.4701L135.46 71.9077L163.264 55.856Z" fill="#D9C3A9"/>
<path d="M101.865 58.7885L127.431 73.4361V72.544L101.865 57.8962" fill="#414042"/>
<path d="M163.264 62.006L143.417 73.4289V72.5439L163.264 61.1139" fill="#414042"/>
<path d="M140.382 85.7291L135.46 88.625V77.2169L140.382 74.321V85.7291Z" fill="#818284"/>
<path d="M130.539 85.7291L135.46 88.625V77.2169L130.539 74.321V85.7291Z" fill="#6D6E71"/>
<path d="M140.382 85.7291L135.46 88.625V87.4111L139.424 85.2757L140.382 85.7291Z" fill="#6D6E71"/>
<path d="M140.382 85.7291L139.424 85.2757V74.8842L140.382 74.321V85.7291Z" fill="#58595B"/>
<path d="M130.539 85.7291L135.46 88.625V87.4111L131.497 85.2757L130.539 85.7291Z" fill="#58595B"/>
<path d="M130.539 85.7291L131.497 85.2757V74.8842L130.539 74.321V85.7291Z" fill="#818284"/>
<path d="M73.4176 168.043C67.07 171.751 62.4775 175.582 59.9327 179.67C54.1262 170.061 59.6182 161.001 73.4176 152.949V167.867" fill="#CCE7E9"/>
<path d="M131.416 271.579L29.9132 212.864C24.9039 209.968 0.420342 195.803 0.376465 180.599" stroke="#A7A9AB" stroke-width="0.0950675" stroke-miterlimit="10"/>
<path d="M131.416 277.027L29.9132 218.312C24.9039 215.416 0.420342 201.251 0.376465 186.047" stroke="#A7A9AB" stroke-width="0.0950675" stroke-miterlimit="10"/>
<path d="M166.138 252.485C164.499 262.555 139.694 272.902 131.409 271.586" stroke="#D1D3D4" stroke-width="0.0950675" stroke-miterlimit="10"/>
<path d="M166.138 257.926C164.499 267.995 139.694 278.343 131.409 277.027" stroke="#D1D3D4" stroke-width="0.0950675" stroke-miterlimit="10"/>
<path d="M137.903 265.195V280.771" stroke="#D1D3D4" stroke-width="0.0950675" stroke-miterlimit="10"/>
<path d="M146.524 262.299V278.058" stroke="#D1D3D4" stroke-width="0.0950675" stroke-miterlimit="10"/>
<path d="M133.895 265.882V281.458" stroke="#D1D3D4" stroke-width="0.0950675" stroke-miterlimit="10"/>
<path d="M128.323 263.908V279.484" stroke="#A7A9AB" stroke-width="0.0950675" stroke-miterlimit="10"/>
<path d="M124.118 261.45V277.027" stroke="#A7A9AB" stroke-width="0.0950675" stroke-miterlimit="10"/>
<path d="M165.318 248.28V265.195" stroke="#D1D3D4" stroke-width="0.0950675" stroke-miterlimit="10"/>
<path d="M163.139 251.315V267.813" stroke="#D1D3D4" stroke-width="0.0950675" stroke-miterlimit="10"/>
<path d="M159.395 254.781V270.928" stroke="#D1D3D4" stroke-width="0.0950675" stroke-miterlimit="10"/>
<path d="M155.154 257.787V273.809" stroke="#D1D3D4" stroke-width="0.0950675" stroke-miterlimit="10"/>
<path d="M128.323 279.484L124.118 277.027" stroke="#A7A9AB" stroke-width="0.0950675" stroke-miterlimit="10"/>
<path d="M119.905 258.986V274.562" stroke="#A7A9AB" stroke-width="0.0950675" stroke-miterlimit="10"/>
<path d="M115.693 256.529V272.105" stroke="#A7A9AB" stroke-width="0.0950675" stroke-miterlimit="10"/>
<path d="M111.481 254.064V269.641" stroke="#A7A9AB" stroke-width="0.0950675" stroke-miterlimit="10"/>
<path d="M107.269 251.607V267.184" stroke="#A7A9AB" stroke-width="0.0950675" stroke-miterlimit="10"/>
<path d="M103.057 249.267V264.844" stroke="#A7A9AB" stroke-width="0.0950675" stroke-miterlimit="10"/>
<path d="M98.8442 246.803V262.379" stroke="#A7A9AB" stroke-width="0.0950675" stroke-miterlimit="10"/>
<path d="M94.6323 244.346V259.922" stroke="#A7A9AB" stroke-width="0.0950675" stroke-miterlimit="10"/>
<path d="M90.4199 241.881V257.457" stroke="#A7A9AB" stroke-width="0.0950675" stroke-miterlimit="10"/>
<path d="M86.2148 239.424V255" stroke="#A7A9AB" stroke-width="0.0950675" stroke-miterlimit="10"/>
<path d="M81.8203 236.96V252.536" stroke="#A7A9AB" stroke-width="0.0950675" stroke-miterlimit="10"/>
<path d="M77.6079 234.502V250.079" stroke="#A7A9AB" stroke-width="0.0950675" stroke-miterlimit="10"/>
<path d="M73.3955 232.038V247.614" stroke="#A7A9AB" stroke-width="0.0950675" stroke-miterlimit="10"/>
<path d="M69.1909 229.581V245.157" stroke="#A7A9AB" stroke-width="0.0950675" stroke-miterlimit="10"/>
<path d="M64.9785 227.116V242.693" stroke="#A7A9AB" stroke-width="0.0950675" stroke-miterlimit="10"/>
<path d="M60.7666 224.659V240.236" stroke="#A7A9AB" stroke-width="0.0950675" stroke-miterlimit="10"/>
<path d="M56.5542 222.195V237.771" stroke="#A7A9AB" stroke-width="0.0950675" stroke-miterlimit="10"/>
<path d="M52.3418 219.738V235.314" stroke="#A7A9AB" stroke-width="0.0950675" stroke-miterlimit="10"/>
<path d="M48.1294 217.273V232.85" stroke="#A7A9AB" stroke-width="0.0950675" stroke-miterlimit="10"/>
<path d="M43.9175 214.816V230.393" stroke="#A7A9AB" stroke-width="0.0950675" stroke-miterlimit="10"/>
<path d="M43.9175 214.816V230.393" stroke="#A7A9AB" stroke-width="0.0950675" stroke-miterlimit="10"/>
<path d="M39.7051 212.352V227.928" stroke="#A7A9AB" stroke-width="0.0950675" stroke-miterlimit="10"/>
<path d="M35.5 209.895V225.471" stroke="#A7A9AB" stroke-width="0.0950675" stroke-miterlimit="10"/>
<path d="M31.2881 207.43V223.007" stroke="#A7A9AB" stroke-width="0.0950675" stroke-miterlimit="10"/>
<path d="M27.0757 204.973V220.549" stroke="#A7A9AB" stroke-width="0.0950675" stroke-miterlimit="10"/>
<path d="M0.376465 174.793V190.369" stroke="#A7A9AB" stroke-width="0.0950675" stroke-miterlimit="10"/>
<path d="M1.48047 180.599V196.176" stroke="#A7A9AB" stroke-width="0.0950675" stroke-miterlimit="10"/>
<path d="M6.16064 188.387V203.971" stroke="#A7A9AB" stroke-width="0.0950675" stroke-miterlimit="10"/>
<path d="M3.8208 184.994V200.571" stroke="#A7A9AB" stroke-width="0.0950675" stroke-miterlimit="10"/>
<path d="M9.27637 191.854V207.43" stroke="#A7A9AB" stroke-width="0.0950675" stroke-miterlimit="10"/>
<path d="M13.0571 195.283V210.86" stroke="#A7A9AB" stroke-width="0.0950675" stroke-miterlimit="10"/>
<path d="M16.6768 198.289V213.865" stroke="#A7A9AB" stroke-width="0.0950675" stroke-miterlimit="10"/>
<path d="M21.8765 202.106V217.683" stroke="#A7A9AB" stroke-width="0.0950675" stroke-miterlimit="10"/>
<path d="M2.59232 182.157C4.61068 178.859 8.10623 175.59 13.5324 172.46L47.4642 152.869V137.863L13.5324 157.454C-0.0330074 165.286 -0.998302 174.259 2.59232 182.164V182.157Z" fill="#97CFD0"/>
<path d="M71.4062 154.163V169.264" stroke="#D1D3D4" stroke-width="0.0950675" stroke-miterlimit="10"/>
<path d="M67.75 156.847V171.67" stroke="#D1D3D4" stroke-width="0.0950675" stroke-miterlimit="10"/>
<path d="M64.1299 159.772V174.676" stroke="#D1D3D4" stroke-width="0.0950675" stroke-miterlimit="10"/>
<path d="M61.98 161.71V176.811" stroke="#D1D3D4" stroke-width="0.0950675" stroke-miterlimit="10"/>
<path d="M60.7002 163.465V178.559" stroke="#D1D3D4" stroke-width="0.0950675" stroke-miterlimit="10"/>
<path d="M59.4351 164.818V179.919" stroke="#D1D3D4" stroke-width="0.0950675" stroke-miterlimit="10"/>
<path d="M58.3018 168.101V176.16" stroke="#D1D3D4" stroke-width="0.0950675" stroke-miterlimit="10"/>
<path d="M76.4376 193.835C50.762 178.983 52.9925 164.869 73.4174 152.942L73.4613 152.861C67.2599 153.849 48.6998 145.395 47.4713 137.855L13.5395 157.446C-21.1894 177.498 22.9877 203.05 29.913 207.057L131.416 265.772C139.701 267.089 164.499 255.798 166.145 245.72L76.4449 193.835H76.4376ZM46.4401 143.113C49.2775 147.94 60.6125 153.424 66.046 153.966C68.7444 154.309 65.8485 155.735 63.6839 155.479C58.2505 154.931 46.8935 149.19 44.0561 144.364C43.2663 142.843 45.7089 141.899 46.4401 143.106V143.113ZM41.8111 146.236C44.6485 151.062 55.9835 156.547 61.4169 157.088C64.1154 157.432 61.2195 158.858 59.0549 158.602C53.6214 158.054 42.2645 152.313 39.4271 147.486C38.6373 145.965 41.0798 145.022 41.8111 146.229V146.236ZM36.4727 149.585C39.3101 154.412 50.645 159.896 56.0785 160.438C58.777 160.781 55.8811 162.207 53.7165 161.951C48.283 161.403 36.9261 155.662 34.0887 150.836C33.2989 149.315 35.7414 148.371 36.4727 149.578V149.585ZM31.3317 154.112C34.3519 158.829 47.1861 164.335 52.6415 164.679C55.3472 164.92 52.5172 166.456 50.3379 166.288C44.8825 165.951 31.4268 160.884 28.4139 156.174C26.7685 153.732 30.1763 152.159 31.3317 154.119V154.112ZM23.9018 158.631C28.5455 164.182 43.7709 169.44 50.8133 168.979C54.3234 168.84 51.5153 170.829 48.6925 170.968C41.6502 171.429 25.7008 166.412 21.0571 160.869C19.7262 159.099 22.4173 156.84 23.9018 158.631ZM15.7333 163.933C21.24 168.628 42.9519 175.056 49.826 173.433C53.2631 172.709 52.0564 175.685 49.2922 176.292C42.4254 177.923 17.9491 173.155 12.4499 168.46C8.34002 166.076 12.0038 161.666 15.7333 163.94V163.933ZM13.0568 176.614C20.6988 178.669 43.281 181.806 49.8041 179.027C53.0583 177.279 55.4496 179.18 50.7694 182.23C44.005 186.661 18.8633 187.232 11.4626 183.568C6.16078 181.689 8.88117 175.275 13.0568 176.606V176.614ZM24.0335 196.622C21.8103 195.92 22.2052 192.344 24.0773 192.804C31.4414 194.713 47.5956 189.089 53.3435 184.395C56.2613 182.135 59.4351 184.928 55.0401 187.97C50.0161 192.504 31.946 198.998 24.0408 196.622H24.0335ZM32.9991 202.084C40.2754 201.353 54.9889 194.779 59.735 188.921C60.927 187.451 63.3622 188.088 62.3018 190.121C58.5064 196.578 43.0616 204.41 35.7633 204.79C32.6407 204.951 29.5986 202.764 32.9991 202.084ZM38.7251 207.606C46.0014 206.874 61.1683 199.54 64.9637 193.082C65.9436 191.459 68.5909 192.249 67.5305 194.281C63.7351 200.739 48.2684 208.22 40.9921 208.951C39.8586 209.061 35.3246 208.286 38.7251 207.606ZM44.8021 211.204C52.0784 210.472 67.2453 203.137 71.0407 196.68C72.0206 195.057 74.6679 195.846 73.6075 197.887C69.8121 204.344 54.3454 211.818 47.0691 212.556C45.9356 212.666 41.4016 211.891 44.8021 211.211V211.204ZM50.8425 214.78C58.1188 214.048 73.2857 206.713 77.0811 200.256C78.061 198.633 80.7083 199.422 79.6479 201.455C75.8526 207.913 60.3858 215.394 53.1095 216.125C51.976 216.235 47.442 215.46 50.8425 214.78ZM57.117 218.37C64.3933 217.639 79.5602 210.304 83.3556 203.847C84.3355 202.223 86.9828 203.013 85.9224 205.046C82.127 211.503 66.6603 218.977 59.384 219.716C58.2505 219.825 53.7165 219.05 57.117 218.37ZM63.194 221.968C70.4703 221.237 85.6372 213.902 89.4326 207.445C90.4125 205.821 93.0598 206.611 91.9994 208.644C88.204 215.101 72.7373 222.575 65.461 223.314C64.3275 223.423 59.7935 222.648 63.194 221.968ZM69.2344 225.398C76.5107 224.667 91.6776 217.332 95.473 210.874C96.453 209.251 99.1002 210.041 98.0398 212.074C94.2445 218.531 78.7777 226.012 71.5014 226.743C70.3679 226.853 65.8339 226.078 69.2344 225.398ZM75.4577 228.996C82.734 228.265 97.9009 220.93 101.696 214.472C102.676 212.849 105.323 213.639 104.263 215.672C100.468 222.129 85.001 229.603 77.7247 230.341C76.5912 230.451 72.0572 229.676 75.4577 228.996ZM81.5347 232.594C88.811 231.862 103.978 224.528 107.773 218.07C108.753 216.447 111.4 217.237 110.34 219.27C106.545 225.727 91.078 233.208 83.8017 233.939C82.6682 234.049 78.1342 233.274 81.5347 232.594ZM87.5751 236.17C94.8514 235.438 110.018 228.104 113.814 221.646C114.794 220.023 117.441 220.813 116.381 222.846C112.585 229.303 97.1184 236.784 89.8421 237.515C88.7086 237.625 84.1746 236.85 87.5751 236.17ZM94.3688 239.929C101.645 239.197 116.812 231.862 120.607 225.405C121.587 223.782 124.235 224.572 123.174 226.604C119.379 233.062 103.912 240.535 96.6358 241.274C95.5023 241.384 90.9683 240.609 94.3688 239.929ZM100.446 243.527C107.722 242.795 122.889 235.46 126.684 229.003C127.664 227.38 130.312 228.169 129.251 230.21C125.456 236.667 109.989 244.141 102.713 244.879C101.579 244.989 97.0453 244.214 100.446 243.534V243.527ZM106.625 247.103C113.902 246.371 129.068 239.036 132.864 232.579C133.844 230.956 136.491 231.745 135.431 233.778C131.635 240.236 116.168 247.717 108.892 248.448C107.759 248.558 103.225 247.783 106.625 247.103ZM113.214 250.854C120.49 250.123 135.657 242.788 139.453 236.331C140.433 234.707 143.08 235.497 142.02 237.53C138.224 243.987 122.757 251.461 115.481 252.2C114.348 252.309 109.814 251.534 113.214 250.854ZM119.291 254.452C126.567 253.721 141.734 246.386 145.53 239.929C146.51 238.305 149.157 239.095 148.097 241.128C144.301 247.585 128.834 255.059 121.558 255.797C120.425 255.907 115.891 255.132 119.291 254.452ZM125.332 258.028C132.608 257.297 147.775 249.962 151.57 243.505C152.55 241.881 155.197 242.671 154.137 244.711C150.342 251.168 134.875 258.642 127.599 259.381C126.465 259.49 121.931 258.715 125.332 258.035V258.028ZM160.082 247.878C155.058 255.015 141.581 261.275 133.544 262.547C131.401 263.015 128.557 261.882 131.277 261.202C139.314 259.937 152.791 253.669 157.815 246.532C158.715 245.508 160.931 246.035 160.082 247.878Z" fill="#949598"/>
<path d="M37.1947 247.788L35.5943 246.864V257.688L37.0804 258.546V260.284L32.5268 257.655V255.917L33.8605 256.687V248.657L33.7843 248.613L29.8975 255.279L29.0402 254.784L25.0201 243.421L24.9439 243.377V251.539L26.3347 252.342V254.08L21.8193 251.473V249.735L23.3054 250.593V239.769L21.7049 238.845V237.107L24.7915 238.889L29.4974 252.122L29.5737 252.166L34.0891 244.257L37.1947 246.05V247.788ZM46.7436 260.957C46.7436 262.468 46.3371 263.465 45.5242 263.949C44.724 264.44 43.6634 264.305 42.3424 263.542C41.0469 262.794 40.018 261.738 39.2559 260.374C38.5065 259.017 38.1318 257.584 38.1318 256.073C38.1318 254.636 38.4938 253.613 39.2178 253.004C39.9418 252.395 41.0215 252.505 42.4568 253.334C43.892 254.163 44.9653 255.296 45.6766 256.733C46.3879 258.156 46.7436 259.564 46.7436 260.957ZM44.9907 259.879C44.9907 258.794 44.7558 257.8 44.2858 256.898C43.8285 256.003 43.2062 255.329 42.4186 254.874C41.593 254.397 40.958 254.368 40.5134 254.786C40.0815 255.197 39.8656 255.923 39.8656 256.964C39.8656 257.961 40.0752 258.933 40.4943 259.879C40.9262 260.818 41.5613 261.529 42.3996 262.013C43.2252 262.49 43.8603 262.519 44.3049 262.101C44.7621 261.676 44.9907 260.935 44.9907 259.879ZM55.1386 267.828C55.1386 268.811 54.783 269.368 54.0717 269.5C53.3731 269.639 52.484 269.397 51.4043 268.774C50.096 268.019 48.9846 267.054 48.0701 265.881L48.3369 263.659L49.6515 264.572L49.6134 265.826C49.8674 266.119 50.1405 266.38 50.4326 266.607C50.7375 266.842 51.036 267.043 51.3281 267.212C51.8743 267.527 52.3633 267.692 52.7952 267.707C53.2397 267.729 53.462 267.491 53.462 266.992C53.462 266.508 53.2842 266.068 52.9285 265.672C52.5729 265.261 52.1283 264.851 51.5948 264.44C51.0741 264.037 50.5533 263.611 50.0325 263.164C49.5118 262.702 49.0736 262.185 48.7179 261.613C48.3623 261.026 48.1844 260.352 48.1844 259.589C48.1844 258.489 48.5337 257.928 49.2323 257.906C49.9436 257.891 50.6994 258.115 51.4996 258.577C52.0839 258.914 52.63 259.318 53.1381 259.787C53.6589 260.249 54.1288 260.733 54.548 261.239L54.7385 263.725L53.4048 263.131L53.2143 261.481C52.6935 260.902 52.1474 260.447 51.5758 260.117C51.1058 259.846 50.7184 259.725 50.4136 259.754C50.1087 259.783 49.9563 260.033 49.9563 260.502C49.9563 260.957 50.1278 261.378 50.4707 261.767C50.8264 262.163 51.2582 262.559 51.7663 262.955C52.2871 263.344 52.8015 263.765 53.3096 264.22C53.8303 264.682 54.2622 265.203 54.6051 265.782C54.9608 266.369 55.1386 267.051 55.1386 267.828ZM66.4051 277.215L61.9658 274.652V273.156L63.3567 273.959V269.713C63.3567 268.715 63.1852 267.912 62.8422 267.304C62.4993 266.68 62.0484 266.207 61.4895 265.885C60.8036 265.489 60.2511 265.441 59.8319 265.742C59.4128 266.028 59.1905 266.508 59.1651 267.183V271.539L60.5559 272.342V273.838L56.1357 271.286V269.79L57.5075 270.582V258.46L56.1357 257.668V256.15L59.1651 257.899V264.895C59.7875 263.993 60.7592 263.923 62.0801 264.686C62.9058 265.162 63.6044 265.859 64.1759 266.776C64.7475 267.692 65.0333 268.774 65.0333 270.021V274.927L66.4051 275.719V277.215ZM75.0436 279.298C74.9547 280.097 74.5927 280.622 73.9576 280.871C73.3225 281.12 72.4588 280.93 71.3665 280.299C70.1344 279.588 69.1373 278.587 68.3752 277.296C67.6131 276.005 67.2321 274.553 67.2321 272.94C67.2321 271.415 67.5877 270.359 68.299 269.772C69.0103 269.185 69.9947 269.255 71.2522 269.981C72.4207 270.656 73.3289 271.598 73.9767 272.808C74.6245 274.018 74.9547 275.221 74.9674 276.416C74.9674 276.812 74.9293 277.208 74.8531 277.604L68.9849 274.216C69.0611 276.343 69.8931 277.864 71.4808 278.781C72.1413 279.162 72.6367 279.265 72.9669 279.089C73.3098 278.92 73.5385 278.612 73.6528 278.165L75.0436 279.298ZM73.2336 275.371C73.2844 274.755 73.1447 274.058 72.8145 273.281C72.4969 272.496 71.9635 271.888 71.2141 271.455C70.5155 271.052 69.9883 271.019 69.6327 271.356C69.2898 271.686 69.0802 272.21 69.004 272.929L73.2336 275.371ZM89.2655 286.321C89.2655 287.714 88.84 288.539 87.9889 288.796C87.1506 289.045 86.0583 288.781 84.7119 288.004C83.8863 287.527 83.1051 286.966 82.3684 286.321C81.6317 285.661 81.0475 285.016 80.6156 284.385L80.9014 281.514L82.2922 282.471L82.2541 284.231C82.6733 284.722 83.0734 285.122 83.4544 285.43C83.8482 285.731 84.2356 285.991 84.6166 286.211C85.4042 286.666 86.0646 286.878 86.5981 286.849C87.1443 286.812 87.4174 286.347 87.4174 285.452C87.4174 284.455 87.1125 283.626 86.5028 282.966C85.9059 282.299 85.2327 281.661 84.4833 281.052C83.8863 280.561 83.2957 280.036 82.7114 279.479C82.1398 278.929 81.6571 278.291 81.2634 277.565C80.8823 276.832 80.6918 275.981 80.6918 275.013C80.6918 273.59 81.1046 272.795 81.9302 272.626C82.7558 272.457 83.7085 272.685 84.7881 273.308C85.5121 273.726 86.2298 274.265 86.9411 274.925C87.6524 275.57 88.2049 276.197 88.5986 276.806L88.7129 279.798L87.3221 279.149L87.1125 277.026C86.7442 276.579 86.3695 276.201 85.9884 275.893C85.6074 275.585 85.2454 275.332 84.9024 275.134C84.2038 274.731 83.6323 274.577 83.1877 274.672C82.7558 274.775 82.5399 275.171 82.5399 275.86C82.5399 276.667 82.8067 277.371 83.3401 277.972C83.8736 278.559 84.4642 279.127 85.112 279.677C85.6455 280.117 86.2361 280.641 86.8839 281.25C87.5317 281.844 88.0906 282.555 88.5605 283.384C89.0305 284.213 89.2655 285.192 89.2655 286.321ZM91.5144 282.626C92.0352 282.574 92.5433 282.626 93.0386 282.78C93.5467 282.926 94.0992 283.172 94.6962 283.517C95.6615 284.074 96.4236 284.785 96.9825 285.651C97.5541 286.523 97.8399 287.524 97.8399 288.654V293.208C97.8399 293.853 98.0621 294.304 98.5067 294.561C98.6845 294.663 98.856 294.726 99.0211 294.748L99.0402 295.903C98.6845 295.947 98.2717 295.833 97.8018 295.562C96.7729 294.968 96.2268 293.992 96.1632 292.636V292.614C95.9092 292.98 95.5409 293.23 95.0582 293.362C94.5882 293.501 94.0103 293.373 93.3244 292.977C92.7401 292.639 92.1559 292.097 91.5716 291.349C91 290.608 90.7142 289.724 90.7142 288.698C90.7142 287.466 91.1334 286.901 91.9717 287.004C92.8227 287.099 93.7309 287.425 94.6962 287.983C95.2805 288.32 95.7695 288.632 96.1632 288.918V288.192C96.1632 287.546 96.0553 286.934 95.8393 286.355C95.6234 285.775 95.1408 285.269 94.3914 284.837C93.7817 284.485 93.2673 284.312 92.8481 284.32L92.5242 285.739L91.1715 284.782L91.5144 282.626ZM96.1632 290.612V290.04C95.9346 289.878 95.6933 289.717 95.4392 289.556C95.1979 289.387 94.9502 289.229 94.6962 289.083C94.1119 288.745 93.5911 288.555 93.1339 288.511C92.6766 288.467 92.448 288.789 92.448 289.479C92.448 290.007 92.5877 290.469 92.8671 290.865C93.1593 291.268 93.4895 291.576 93.8579 291.789C94.4041 292.104 94.9121 292.177 95.3821 292.009C95.8521 291.84 96.1124 291.374 96.1632 290.612ZM104.36 283.772C104.754 283.999 105.129 284.267 105.484 284.575C105.853 284.89 106.196 285.286 106.513 285.763L106.856 288.359L105.523 287.787L105.161 285.928C104.894 285.671 104.595 285.448 104.265 285.257C103.363 284.736 102.912 285.151 102.912 286.5V288.458L105.103 289.723V291.197L102.912 289.932V296.796L104.703 297.83V299.326L99.8639 296.532V295.036L101.255 295.839V288.975L100.073 288.293V286.819L101.255 287.501V285.763C101.255 284.648 101.547 283.908 102.131 283.541C102.715 283.174 103.458 283.251 104.36 283.772ZM115.797 305.731L112.768 303.982V302.046C112.501 302.479 112.127 302.769 111.644 302.915C111.174 303.069 110.545 302.919 109.758 302.464C108.653 301.826 107.77 300.884 107.109 299.637C106.449 298.376 106.119 296.983 106.119 295.457C106.119 294.108 106.417 293.056 107.014 292.3C107.624 291.538 108.602 291.545 109.948 292.322C111.256 293.078 112.196 294.207 112.768 295.71V290.364L110.806 289.231V287.713L114.426 289.803V303.443L115.797 304.235V305.731ZM112.768 299.45V298.262C112.743 297.426 112.501 296.627 112.044 295.864C111.587 295.102 111.034 294.533 110.386 294.159C109.561 293.683 108.932 293.672 108.5 294.126C108.081 294.588 107.871 295.333 107.871 296.359C107.871 297.474 108.1 298.457 108.557 299.307C109.015 300.158 109.58 300.778 110.253 301.166C110.977 301.584 111.568 301.581 112.025 301.155C112.495 300.737 112.743 300.169 112.768 299.45ZM117.963 294.838V292.572L119.697 293.573V295.839L117.963 294.838ZM121.126 308.808L116.687 306.245V304.749L118.078 305.552V298.732L116.63 297.896V296.378L119.754 298.182V306.52L121.126 307.312V308.808ZM129.95 310.998C129.861 311.798 129.499 312.322 128.864 312.571C128.229 312.821 127.365 312.63 126.273 311.999C125.041 311.288 124.044 310.287 123.282 308.996C122.519 307.706 122.138 306.254 122.138 304.64C122.138 303.115 122.494 302.059 123.205 301.472C123.917 300.886 124.901 300.955 126.159 301.681C127.327 302.356 128.235 303.298 128.883 304.508C129.531 305.718 129.861 306.921 129.874 308.116C129.874 308.512 129.836 308.908 129.759 309.304L123.891 305.916C123.967 308.043 124.799 309.565 126.387 310.481C127.048 310.863 127.543 310.965 127.873 310.789C128.216 310.621 128.445 310.313 128.559 309.865L129.95 310.998ZM128.14 307.071C128.191 306.455 128.051 305.759 127.721 304.981C127.403 304.197 126.87 303.588 126.12 303.155C125.422 302.752 124.895 302.719 124.539 303.056C124.196 303.386 123.987 303.911 123.91 304.629L128.14 307.071Z" fill="#818181"/>
</svg>
