<svg viewBox="0 0 296 332" fill="none" xmlns="http://www.w3.org/2000/svg">
<path d="M194.454 80.2066L242.935 108.195L208.2 128.19L160.837 100.546L194.454 80.2066Z" fill="#6D6E71"/>
<path d="M194.454 70.2195L242.935 98.2084L208.2 118.196L160.837 90.5524L194.454 70.2195Z" fill="#818284"/>
<path d="M194.454 57.0046L242.935 84.9933L208.2 104.988L160.837 77.3375L194.454 57.0046Z" fill="#949598"/>
<path d="M194.454 38.6235L242.935 66.6123L208.2 86.6003L160.837 58.9564L194.454 38.6235Z" fill="#BCBEC0"/>
<path d="M242.935 226.51L208.2 246.505L177.777 202.901L242.935 165.394V226.51Z" fill="#DDDDDD" stroke="#6D6E71" stroke-width="0.234504" stroke-miterlimit="10"/>
<path d="M242.935 165.394L225.568 175.395V118.065L242.935 108.009V165.394Z" fill="#D1D3D4" stroke="#6D6E71" stroke-width="0.234504" stroke-miterlimit="10"/>
<path d="M225.575 175.533L208.208 185.534V128.204L225.575 118.148V175.533Z" fill="#E6E7E8" stroke="#6D6E71" stroke-width="0.234504" stroke-miterlimit="10"/>
<path d="M225.568 212.674L211.29 220.889L192.716 194.3L225.568 175.395V212.674Z" fill="#F1F2F2" stroke="#6D6E71" stroke-width="0.234504" stroke-miterlimit="10"/>
<path d="M208.2 185.444L192.716 194.3L154.685 139.991L170.418 131.239L208.2 185.444Z" fill="#D1D3D4" stroke="#6D6E71" stroke-width="0.234504" stroke-miterlimit="10"/>
<path d="M170.418 131.239L154.933 140.088L116.909 85.7795L132.635 77.027L170.418 131.239Z" fill="#BCBEC0" stroke="#6D6E71" stroke-width="0.234504" stroke-miterlimit="10"/>
<path d="M154.892 140.267L139.994 148.751L101.384 94.808L117.109 86.0555L154.892 140.267Z" fill="#A7A9AB" stroke="#6D6E71" stroke-width="0.234504" stroke-miterlimit="10"/>
<path d="M192.716 194.3L177.777 202.901L139.994 148.751L154.685 139.991L192.716 194.3Z" fill="#BCBEC0" stroke="#6D6E71" stroke-width="0.234504" stroke-miterlimit="10"/>
<path d="M208.201 246.505L184.509 232.876L154.306 189.575L177.777 202.901L208.201 246.505Z" fill="#A7A9AB" stroke="#6D6E71" stroke-width="0.234504" stroke-miterlimit="10"/>
<path d="M177.777 202.901L154.085 189.265L116.909 136.295L139.994 148.751L177.777 202.901Z" fill="#949598" stroke="#6D6E71" stroke-width="0.234504" stroke-miterlimit="10"/>
<path d="M139.994 148.751L116.309 135.115L79.1265 82.1447L102.211 94.5942L139.994 148.751Z" fill="#818284" stroke="#949598" stroke-width="0.234504" stroke-miterlimit="10"/>
<path d="M154.306 189.575L130.614 175.946L93.4312 122.976L116.523 135.425L154.306 189.575Z" fill="#6E6E70" stroke="#6D6E71" stroke-width="0.234504" stroke-miterlimit="10"/>
<path d="M184.509 232.876L160.824 219.24L126.704 173.139L154.085 189.265L184.509 232.876Z" fill="#818284" stroke="#6D6E71" stroke-width="0.234504" stroke-miterlimit="10"/>
<path d="M208.201 185.389L184.488 151.351V114.161L208.201 128.004V185.389Z" fill="#949598" stroke="#6D6E71" stroke-width="0.234504" stroke-miterlimit="10"/>
<path d="M184.488 151.351L160.837 118.058L160.775 100.319L184.488 114.162V151.351Z" fill="#818284" stroke="#6D6E71" stroke-width="0.234504" stroke-miterlimit="10"/>
<path d="M101.598 236.214L112.854 230.082L106.419 219.661L101.598 236.214Z" fill="#D2E9E7" stroke="white" stroke-width="0.496597" stroke-miterlimit="10"/>
<path d="M101.598 293.026L89.252 285.901L95.687 275.48L101.577 292.964" fill="#D2E9E7"/>
<path d="M101.598 293.026L89.252 285.901L95.687 275.48L101.577 292.964" stroke="white" stroke-width="0.496597" stroke-miterlimit="10"/>
<path d="M89.2444 285.915L76.8984 278.79L83.3335 268.369L89.2237 285.853" fill="#B1D7D5"/>
<path d="M89.2444 285.915L76.8984 278.79L83.3335 268.369L89.2237 285.853" stroke="white" stroke-width="0.496597" stroke-miterlimit="10"/>
<path d="M76.8299 278.749L64.4839 271.617L70.919 261.203L76.8023 278.687" fill="#D1E9E8"/>
<path d="M76.8299 278.749L64.4839 271.617L70.919 261.203L76.8023 278.687" stroke="white" stroke-width="0.496597" stroke-miterlimit="10"/>
<path d="M64.4841 271.617L52.1382 264.493L58.5732 254.071L64.4635 271.555" fill="#B1D7D5"/>
<path d="M64.4841 271.617L52.1382 264.493L58.5732 254.071L64.4635 271.555" stroke="white" stroke-width="0.496597" stroke-miterlimit="10"/>
<path d="M89.2518 285.901L83.334 268.369L95.6593 275.528L89.2518 285.901Z" fill="#BADEDD" stroke="white" stroke-width="0.496597" stroke-miterlimit="10"/>
<path d="M76.8367 278.728L70.9189 261.203L83.2373 268.362L76.8367 278.728Z" fill="#BADEDD" stroke="white" stroke-width="0.496597" stroke-miterlimit="10"/>
<path d="M64.4149 271.562L58.4971 254.029L70.8223 261.196L64.4149 271.562Z" fill="#BADEDD" stroke="white" stroke-width="0.496597" stroke-miterlimit="10"/>
<path d="M95.7419 275.556L83.396 268.431L89.831 258.009L95.7213 275.494" fill="#A1CBC6"/>
<path d="M95.7419 275.556L83.396 268.431L89.831 258.009L95.7213 275.494" stroke="white" stroke-width="0.496597" stroke-miterlimit="10"/>
<path d="M83.3269 268.389L70.981 261.258L77.416 250.843L83.3062 268.32" fill="#B1D7D5"/>
<path d="M83.3269 268.389L70.981 261.258L77.416 250.843L83.3062 268.32" stroke="white" stroke-width="0.496597" stroke-miterlimit="10"/>
<path d="M70.9807 261.258L58.6348 254.133L65.0699 243.711L70.96 261.196" fill="#D1E9E8"/>
<path d="M70.9807 261.258L58.6348 254.133L65.0699 243.711L70.96 261.196" stroke="white" stroke-width="0.496597" stroke-miterlimit="10"/>
<path d="M95.7489 275.542L89.8311 258.009L102.156 265.168L95.7489 275.542Z" fill="#BADEDD" stroke="white" stroke-width="0.496597" stroke-miterlimit="10"/>
<path d="M58.6624 254.085L52.7446 236.552L65.0699 243.711L58.6624 254.085Z" fill="#BADEDD" stroke="white" stroke-width="0.496597" stroke-miterlimit="10"/>
<path d="M83.3338 268.369L77.416 250.843L89.7344 258.002L83.3338 268.369Z" fill="#BADEDD" stroke="white" stroke-width="0.496597" stroke-miterlimit="10"/>
<path d="M70.9188 261.203L65.001 243.67L77.3194 250.829L70.9188 261.203Z" fill="#93C2BE" stroke="white" stroke-width="0.496597" stroke-miterlimit="10"/>
<path d="M102.177 265.141L89.8311 258.009L96.2661 247.594L102.156 265.072" fill="#D2E9E7"/>
<path d="M102.177 265.141L89.8311 258.009L96.2661 247.594L102.156 265.072" stroke="white" stroke-width="0.496597" stroke-miterlimit="10"/>
<path d="M89.824 258.03L77.478 250.898L83.9131 240.483L89.8033 257.961" fill="#B1D7D5"/>
<path d="M89.824 258.03L77.478 250.898L83.9131 240.483L89.8033 257.961" stroke="white" stroke-width="0.496597" stroke-miterlimit="10"/>
<path d="M77.4095 250.857L65.0635 243.732L71.4986 233.31L77.3887 250.795" fill="#D1E9E8"/>
<path d="M77.4095 250.857L65.0635 243.732L71.4986 233.31L77.3887 250.795" stroke="white" stroke-width="0.496597" stroke-miterlimit="10"/>
<path d="M65.0633 243.732L52.7173 236.6L59.1524 226.186L65.0426 243.67" fill="#D1E9E8"/>
<path d="M65.0633 243.732L52.7173 236.6L59.1524 226.186L65.0426 243.67" stroke="white" stroke-width="0.496597" stroke-miterlimit="10"/>
<path d="M89.8308 258.009L83.9131 240.483L96.2384 247.643L89.8308 258.009Z" fill="#BADEDD" stroke="white" stroke-width="0.496597" stroke-miterlimit="10"/>
<path d="M77.4158 250.843L71.498 233.31L83.8164 240.47L77.4158 250.843Z" fill="#BADEDD" stroke="white" stroke-width="0.496597" stroke-miterlimit="10"/>
<path d="M65.0013 243.67L59.0767 226.144L71.4019 233.304L65.0013 243.67Z" fill="#BADEDD" stroke="white" stroke-width="0.496597" stroke-miterlimit="10"/>
<path d="M96.3211 247.67L83.9751 240.539L90.4102 230.124L96.3004 247.601" fill="#A1CBC6"/>
<path d="M96.3211 247.67L83.9751 240.539L90.4102 230.124L96.3004 247.601" stroke="white" stroke-width="0.496597" stroke-miterlimit="10"/>
<path d="M83.9065 240.497L71.5605 233.372L77.9956 222.951L83.8858 240.435" fill="#D1E9E8"/>
<path d="M83.9065 240.497L71.5605 233.372L77.9956 222.951L83.8858 240.435" stroke="white" stroke-width="0.496597" stroke-miterlimit="10"/>
<path d="M71.5603 233.372L59.2144 226.241L65.6494 215.826L71.5396 233.31" fill="#D1E9E8"/>
<path d="M71.5603 233.372L59.2144 226.241L65.6494 215.826L71.5396 233.31" stroke="white" stroke-width="0.496597" stroke-miterlimit="10"/>
<path d="M96.3284 247.65L90.4106 230.124L102.736 237.283L96.3284 247.65Z" fill="#BADEDD" stroke="white" stroke-width="0.496597" stroke-miterlimit="10"/>
<path d="M59.242 226.192L53.3242 208.667L65.6495 215.826L59.242 226.192Z" fill="#BADEDD" stroke="white" stroke-width="0.496597" stroke-miterlimit="10"/>
<path d="M83.9129 240.483L77.9951 222.951L90.3204 230.11L83.9129 240.483Z" fill="#BADEDD" stroke="white" stroke-width="0.496597" stroke-miterlimit="10"/>
<path d="M71.4979 233.31L65.5801 215.785L77.8984 222.944L71.4979 233.31Z" fill="#93C2BE" stroke="white" stroke-width="0.496597" stroke-miterlimit="10"/>
<path d="M102.757 237.249L90.4106 230.124L96.8457 219.702L102.736 237.187" fill="#D2E9E7"/>
<path d="M102.757 237.249L90.4106 230.124L96.8457 219.702L102.736 237.187" stroke="white" stroke-width="0.496597" stroke-miterlimit="10"/>
<path d="M90.4031 230.138L78.0571 223.013L84.4922 212.591L90.3824 230.076" fill="#B1D7D5"/>
<path d="M90.4031 230.138L78.0571 223.013L84.4922 212.591L90.3824 230.076" stroke="white" stroke-width="0.496597" stroke-miterlimit="10"/>
<path d="M77.9886 222.972L65.6426 215.84L72.0777 205.425L77.9679 222.909" fill="#D1E9E8"/>
<path d="M77.9886 222.972L65.6426 215.84L72.0777 205.425L77.9679 222.909" stroke="white" stroke-width="0.496597" stroke-miterlimit="10"/>
<path d="M65.6428 215.84L53.2969 208.715L59.732 198.293L65.6221 215.778" fill="#D1E9E8"/>
<path d="M65.6428 215.84L53.2969 208.715L59.732 198.293L65.6221 215.778" stroke="white" stroke-width="0.496597" stroke-miterlimit="10"/>
<path d="M90.4105 230.124L84.4927 212.591L96.8179 219.751L90.4105 230.124Z" fill="#BADEDD" stroke="white" stroke-width="0.496597" stroke-miterlimit="10"/>
<path d="M77.9954 222.951L72.0776 205.425L84.4029 212.584L77.9954 222.951Z" fill="#B1D7D5" stroke="white" stroke-width="0.496597" stroke-miterlimit="10"/>
<path d="M65.5804 215.785L59.6626 198.252L71.981 205.418L65.5804 215.785Z" fill="#B1D7D5" stroke="white" stroke-width="0.496597" stroke-miterlimit="10"/>
<path d="M96.9006 219.778L84.5547 212.653L90.9897 202.232L96.88 219.716" fill="#93C2BE"/>
<path d="M96.9006 219.778L84.5547 212.653L90.9897 202.232L96.88 219.716" stroke="white" stroke-width="0.496597" stroke-miterlimit="10"/>
<path d="M84.4861 212.612L72.1401 205.48L78.5752 195.065L84.4654 212.543" fill="#D1E9E8"/>
<path d="M84.4861 212.612L72.1401 205.48L78.5752 195.065L84.4654 212.543" stroke="white" stroke-width="0.496597" stroke-miterlimit="10"/>
<path d="M72.1399 205.48L59.7939 198.355L66.229 187.934L72.1192 205.418" fill="#D1E9E8"/>
<path d="M72.1399 205.48L59.7939 198.355L66.229 187.934L72.1192 205.418" stroke="white" stroke-width="0.496597" stroke-miterlimit="10"/>
<path d="M96.9075 219.764L90.9897 202.232L103.315 209.391L96.9075 219.764Z" fill="#BADEDD" stroke="white" stroke-width="0.496597" stroke-miterlimit="10"/>
<path d="M59.8279 198.307L53.9102 180.775L66.2285 187.934L59.8279 198.307Z" fill="#BADEDD" stroke="white" stroke-width="0.496597" stroke-miterlimit="10"/>
<path d="M84.4925 212.591L78.5747 195.065L90.9 202.225L84.4925 212.591Z" fill="#BADEDD" stroke="white" stroke-width="0.496597" stroke-miterlimit="10"/>
<path d="M72.0775 205.425L66.1597 187.892L78.4781 195.052L72.0775 205.425Z" fill="#BADEDD" stroke="white" stroke-width="0.496597" stroke-miterlimit="10"/>
<path d="M89.2518 300.834L76.8369 293.799V278.728L89.2518 285.901V300.834Z" fill="#93C2BE" stroke="white" stroke-width="0.496597" stroke-miterlimit="10"/>
<path d="M64.4149 286.495L52 279.459V264.389L64.4149 271.562V286.495Z" fill="#93C2BE" stroke="white" stroke-width="0.496597" stroke-miterlimit="10"/>
<path d="M101.667 308L89.252 300.972V285.901L101.667 293.068V308Z" fill="#BADEDD" stroke="white" stroke-width="0.496597" stroke-miterlimit="10"/>
<path d="M76.8369 293.661L64.415 286.632V271.562L76.8369 278.728V293.661Z" fill="#BADEDD" stroke="white" stroke-width="0.496597" stroke-miterlimit="10"/>
<path d="M101.667 292.985L114.013 285.86L107.578 275.438L101.688 292.923" fill="#D2E9E7"/>
<path d="M101.667 292.985L114.013 285.86L107.578 275.438L101.688 292.923" stroke="white" stroke-width="0.496597" stroke-miterlimit="10"/>
<path d="M114.019 285.874L126.365 278.749L119.93 268.327L114.04 285.812" fill="#B1D7D5"/>
<path d="M114.019 285.874L126.365 278.749L119.93 268.327L114.04 285.812" stroke="white" stroke-width="0.496597" stroke-miterlimit="10"/>
<path d="M126.441 278.708L138.787 271.576L132.352 261.161L126.462 278.646" fill="#D1E9E8"/>
<path d="M126.441 278.708L138.787 271.576L132.352 261.161L126.462 278.646" stroke="white" stroke-width="0.496597" stroke-miterlimit="10"/>
<path d="M114.012 285.86L119.93 268.327L107.612 275.487L114.012 285.86Z" fill="#BADEDD" stroke="white" stroke-width="0.496597" stroke-miterlimit="10"/>
<path d="M126.427 278.687L132.352 261.161L120.027 268.321L126.427 278.687Z" fill="#BADEDD" stroke="white" stroke-width="0.496597" stroke-miterlimit="10"/>
<path d="M107.522 275.514L119.868 268.39L113.433 257.968L107.543 275.452" fill="#A1CBC6"/>
<path d="M107.522 275.514L119.868 268.39L113.433 257.968L107.543 275.452" stroke="white" stroke-width="0.496597" stroke-miterlimit="10"/>
<path d="M119.937 268.348L132.283 261.216L125.848 250.802L119.965 268.279" fill="#B1D7D5"/>
<path d="M119.937 268.348L132.283 261.216L125.848 250.802L119.965 268.279" stroke="white" stroke-width="0.496597" stroke-miterlimit="10"/>
<path d="M107.515 275.5L113.433 257.968L101.108 265.127L107.515 275.5Z" fill="#BADEDD" stroke="white" stroke-width="0.496597" stroke-miterlimit="10"/>
<path d="M119.93 268.327L125.848 250.802L113.53 257.961L119.93 268.327Z" fill="#BADEDD" stroke="white" stroke-width="0.496597" stroke-miterlimit="10"/>
<path d="M132.352 261.161L138.27 243.629L125.945 250.788L132.352 261.161Z" fill="#93C2BE" stroke="white" stroke-width="0.496597" stroke-miterlimit="10"/>
<path d="M101.632 264.844L113.433 257.968L106.998 247.553L101.515 264.886" fill="#D2E9E7"/>
<path d="M101.632 264.844L113.433 257.968L106.998 247.553L101.515 264.886" stroke="white" stroke-width="0.496597" stroke-miterlimit="10"/>
<path d="M113.44 257.988L125.786 250.857L119.351 240.442L113.461 257.92" fill="#B1D7D5"/>
<path d="M113.44 257.988L125.786 250.857L119.351 240.442L113.461 257.92" stroke="white" stroke-width="0.496597" stroke-miterlimit="10"/>
<path d="M125.862 250.815L138.201 243.691L131.766 233.269L125.882 250.753" fill="#D1E9E8"/>
<path d="M125.862 250.815L138.201 243.691L131.766 233.269L125.882 250.753" stroke="white" stroke-width="0.496597" stroke-miterlimit="10"/>
<path d="M113.433 257.968L119.351 240.442L107.032 247.601L113.433 257.968Z" fill="#BADEDD" stroke="white" stroke-width="0.496597" stroke-miterlimit="10"/>
<path d="M125.848 250.802L131.766 233.269L119.447 240.428L125.848 250.802Z" fill="#BADEDD" stroke="white" stroke-width="0.496597" stroke-miterlimit="10"/>
<path d="M106.943 247.629L119.289 240.497L112.854 230.083L106.964 247.56" fill="#A1CBC6"/>
<path d="M106.943 247.629L119.289 240.497L112.854 230.083L106.964 247.56" stroke="white" stroke-width="0.496597" stroke-miterlimit="10"/>
<path d="M119.358 240.456L131.704 233.331L125.269 222.909L119.379 240.394" fill="#D1E9E8"/>
<path d="M119.358 240.456L131.704 233.331L125.269 222.909L119.379 240.394" stroke="white" stroke-width="0.496597" stroke-miterlimit="10"/>
<path d="M106.936 247.608L112.854 230.083L101.598 236.214L106.936 247.608Z" fill="#BADEDD" stroke="white" stroke-width="0.496597" stroke-miterlimit="10"/>
<path d="M119.351 240.442L125.269 222.909L112.95 230.069L119.351 240.442Z" fill="#BADEDD" stroke="white" stroke-width="0.496597" stroke-miterlimit="10"/>
<path d="M131.766 233.269L137.691 215.743L125.365 222.902L131.766 233.269Z" fill="#93C2BE" stroke="white" stroke-width="0.496597" stroke-miterlimit="10"/>
<path d="M112.861 230.096L125.207 222.972L118.772 212.55L112.882 230.034" fill="#B1D7D5"/>
<path d="M112.861 230.096L125.207 222.972L118.772 212.55L112.882 230.034" stroke="white" stroke-width="0.496597" stroke-miterlimit="10"/>
<path d="M125.276 222.93L137.622 215.798L131.187 205.384L125.303 222.868" fill="#D1E9E8"/>
<path d="M125.276 222.93L137.622 215.798L131.187 205.384L125.303 222.868" stroke="white" stroke-width="0.496597" stroke-miterlimit="10"/>
<path d="M112.854 230.082L118.772 212.55L106.446 219.709L112.854 230.082Z" fill="#BADEDD" stroke="white" stroke-width="0.496597" stroke-miterlimit="10"/>
<path d="M125.269 222.909L131.187 205.384L118.868 212.543L125.269 222.909Z" fill="#B1D7D5" stroke="white" stroke-width="0.496597" stroke-miterlimit="10"/>
<path d="M106.363 219.737L118.709 212.612L112.274 202.19L106.384 219.675" fill="#93C2BE"/>
<path d="M106.363 219.737L118.709 212.612L112.274 202.19L106.384 219.675" stroke="white" stroke-width="0.496597" stroke-miterlimit="10"/>
<path d="M118.778 212.571L131.124 205.439L124.689 195.024L118.799 212.502" fill="#D1E9E8"/>
<path d="M118.778 212.571L131.124 205.439L124.689 195.024L118.799 212.502" stroke="white" stroke-width="0.496597" stroke-miterlimit="10"/>
<path d="M106.356 219.723L112.274 202.19L101.646 208.598L106.356 219.723Z" fill="#BADEDD" stroke="white" stroke-width="0.496597" stroke-miterlimit="10"/>
<path d="M118.771 212.55L124.689 195.024L112.371 202.183L118.771 212.55Z" fill="#BADEDD" stroke="white" stroke-width="0.496597" stroke-miterlimit="10"/>
<path d="M131.186 205.384L137.104 187.851L124.786 195.01L131.186 205.384Z" fill="#BADEDD" stroke="white" stroke-width="0.496597" stroke-miterlimit="10"/>
<path d="M114.013 300.792L126.428 293.757V278.687L114.013 285.86V300.792Z" fill="#D1E9E8" stroke="white" stroke-width="0.496597" stroke-miterlimit="10"/>
<path d="M101.598 307.959L114.013 300.93V285.86L101.598 293.026V307.959Z" fill="#93C2BE" stroke="white" stroke-width="0.496597" stroke-miterlimit="10"/>
<path d="M126.428 293.619L138.85 286.591V271.521L126.428 278.687V293.619Z" fill="#BADEDD" stroke="white" stroke-width="0.496597" stroke-miterlimit="10"/>
<path d="M107.612 275.487L101.556 264.706H101.515L95.687 275.48" fill="#93C2BE"/>
<path d="M107.612 275.487L101.556 264.706H101.515L95.687 275.48" stroke="white" stroke-width="0.496597" stroke-miterlimit="10"/>
<path d="M107.218 247.498L101.597 236.214H101.556L95.8726 247.429" fill="#93C2BE"/>
<path d="M107.218 247.498L101.597 236.214H101.556L95.8726 247.429" stroke="white" stroke-width="0.496597" stroke-miterlimit="10"/>
<path d="M101.639 264.534L107.218 247.498L95.8726 247.429L101.556 264.706" fill="#B1D7D5"/>
<path d="M101.639 264.534L107.218 247.498L95.8726 247.429L101.556 264.706" stroke="white" stroke-width="0.496597" stroke-miterlimit="10"/>
<path d="M106.95 219.399L101.597 207.729H101.556L95.9692 219.24" fill="#93C2BE"/>
<path d="M106.95 219.399L101.597 207.729H101.556L95.9692 219.24" stroke="white" stroke-width="0.496597" stroke-miterlimit="10"/>
<path d="M101.639 236.042L106.95 219.399L95.9692 219.24L101.556 236.214" fill="#B1D7D5"/>
<path d="M101.639 236.042L106.95 219.399L95.9692 219.24L101.556 236.214" stroke="white" stroke-width="0.496597" stroke-miterlimit="10"/>
<path d="M96.9559 191.775L91.0381 174.25L103.363 181.409L96.9559 191.775Z" fill="#BADEDD" stroke="white" stroke-width="0.496597" stroke-miterlimit="10"/>
<path d="M106.405 191.734L112.323 174.208L101.563 180.692L106.405 191.734Z" fill="#BADEDD" stroke="white" stroke-width="0.496597" stroke-miterlimit="10"/>
<path d="M101.646 208.598L112.902 202.094L106.467 191.679L101.646 208.598Z" fill="#D2E9E7" stroke="white" stroke-width="0.496597" stroke-miterlimit="10"/>
<path d="M101.646 208.598L90.4585 202.135L96.8936 191.72L101.604 208.232" fill="#D2E9E7"/>
<path d="M101.646 208.598L90.4585 202.135L96.8936 191.72L101.604 208.232" stroke="white" stroke-width="0.496597" stroke-miterlimit="10"/>
<path d="M90.4519 202.156L78.106 195.024L84.541 184.609L90.4312 202.094" fill="#B1D7D5"/>
<path d="M90.4519 202.156L78.106 195.024L84.541 184.609L90.4312 202.094" stroke="white" stroke-width="0.496597" stroke-miterlimit="10"/>
<path d="M78.0369 194.983L65.6909 187.858L72.126 177.436L78.0162 194.921" fill="#D1E9E8"/>
<path d="M78.0369 194.983L65.6909 187.858L72.126 177.436L78.0162 194.921" stroke="white" stroke-width="0.496597" stroke-miterlimit="10"/>
<path d="M65.6905 187.858C65.6905 187.858 54.4688 180.823 53.9102 180.775L59.7796 170.311L65.6698 187.796" fill="#D1E9E8"/>
<path d="M65.6905 187.858C65.6905 187.858 54.4688 180.823 53.9102 180.775L59.7796 170.311L65.6698 187.796" stroke="white" stroke-width="0.496597" stroke-miterlimit="10"/>
<path d="M90.4583 202.135L84.5405 184.609L96.8658 191.769L90.4583 202.135Z" fill="#BADEDD" stroke="white" stroke-width="0.496597" stroke-miterlimit="10"/>
<path d="M78.0443 194.969L72.1265 177.436L84.4517 184.603L78.0443 194.969Z" fill="#B1D7D5" stroke="white" stroke-width="0.496597" stroke-miterlimit="10"/>
<path d="M65.6292 187.803L59.7114 170.27L72.0298 177.429L65.6292 187.803Z" fill="#B1D7D5" stroke="white" stroke-width="0.496597" stroke-miterlimit="10"/>
<path d="M96.949 191.796L84.603 184.664L91.0381 174.25L96.9283 191.734" fill="#93C2BE"/>
<path d="M96.949 191.796L84.603 184.664L91.0381 174.25L96.9283 191.734" stroke="white" stroke-width="0.496597" stroke-miterlimit="10"/>
<path d="M84.5339 184.623L72.188 177.498L78.623 167.077L84.5133 184.561" fill="#D1E9E8"/>
<path d="M84.5339 184.623L72.188 177.498L78.623 167.077L84.5133 184.561" stroke="white" stroke-width="0.496597" stroke-miterlimit="10"/>
<path d="M72.1883 177.498L59.8423 170.374L66.2774 159.952L72.1676 177.436" fill="#D1E9E8"/>
<path d="M72.1883 177.498L59.8423 170.374L66.2774 159.952L72.1676 177.436" stroke="white" stroke-width="0.496597" stroke-miterlimit="10"/>
<path d="M59.8767 170.318L53.959 152.793L66.2773 159.952L59.8767 170.318Z" fill="#BADEDD" stroke="white" stroke-width="0.496597" stroke-miterlimit="10"/>
<path d="M84.5408 184.609L78.623 167.077L90.9483 174.243L84.5408 184.609Z" fill="#BADEDD" stroke="white" stroke-width="0.496597" stroke-miterlimit="10"/>
<path d="M72.1263 177.436L66.2085 159.911L78.5269 167.07L72.1263 177.436Z" fill="#BADEDD" stroke="white" stroke-width="0.496597" stroke-miterlimit="10"/>
<path d="M112.909 202.114L125.255 194.983L118.82 184.568L112.93 202.052" fill="#B1D7D5"/>
<path d="M112.909 202.114L125.255 194.983L118.82 184.568L112.93 202.052" stroke="white" stroke-width="0.496597" stroke-miterlimit="10"/>
<path d="M125.324 194.941L137.104 187.851L131.235 177.395L125.351 194.879" fill="#D1E9E8"/>
<path d="M125.324 194.941L137.104 187.851L131.235 177.395L125.351 194.879" stroke="white" stroke-width="0.496597" stroke-miterlimit="10"/>
<path d="M112.902 202.094L118.82 184.568L106.495 191.727L112.902 202.094Z" fill="#BADEDD" stroke="white" stroke-width="0.496597" stroke-miterlimit="10"/>
<path d="M125.317 194.928L131.235 177.395L118.917 184.561L125.317 194.928Z" fill="#B1D7D5" stroke="white" stroke-width="0.496597" stroke-miterlimit="10"/>
<path d="M106.412 191.755L118.758 184.623L112.323 174.208L106.433 191.693" fill="#93C2BE"/>
<path d="M106.412 191.755L118.758 184.623L112.323 174.208L106.433 191.693" stroke="white" stroke-width="0.496597" stroke-miterlimit="10"/>
<path d="M118.827 184.582L131.173 177.457L124.738 167.035L118.847 184.52" fill="#D1E9E8"/>
<path d="M118.827 184.582L131.173 177.457L124.738 167.035L118.847 184.52" stroke="white" stroke-width="0.496597" stroke-miterlimit="10"/>
<path d="M118.82 184.568L124.738 167.035L112.419 174.201L118.82 184.568Z" fill="#BADEDD" stroke="white" stroke-width="0.496597" stroke-miterlimit="10"/>
<path d="M131.235 177.395L137.152 159.869L124.834 167.028L131.235 177.395Z" fill="#BADEDD" stroke="white" stroke-width="0.496597" stroke-miterlimit="10"/>
<path d="M106.998 191.417L101.646 179.74H101.604L96.0176 191.258" fill="#93C2BE"/>
<path d="M106.998 191.417L101.646 179.74H101.604L96.0176 191.258" stroke="white" stroke-width="0.496597" stroke-miterlimit="10"/>
<path d="M101.646 208.598L106.998 191.417L96.0176 191.258L101.646 208.598Z" fill="#B1D7D5" stroke="white" stroke-width="0.496597" stroke-miterlimit="10"/>
<path d="M101.563 180.692L112.82 174.195L106.385 163.773L101.563 180.692Z" fill="#D2E9E7" stroke="white" stroke-width="0.496597" stroke-miterlimit="10"/>
<path d="M101.564 180.692L90.3765 174.236L96.8115 163.814L101.522 180.333" fill="#D2E9E7"/>
<path d="M101.564 180.692L90.3765 174.236L96.8115 163.814L101.522 180.333" stroke="white" stroke-width="0.496597" stroke-miterlimit="10"/>
<path d="M90.3689 174.25L78.0229 167.125L84.458 156.71L90.3482 174.188" fill="#B1D7D5"/>
<path d="M90.3689 174.25L78.0229 167.125L84.458 156.71L90.3482 174.188" stroke="white" stroke-width="0.496597" stroke-miterlimit="10"/>
<path d="M77.9539 167.084L65.6079 159.959L72.043 149.537L77.9263 167.022" fill="#D1E9E8"/>
<path d="M77.9539 167.084L65.6079 159.959L72.043 149.537L77.9263 167.022" stroke="white" stroke-width="0.496597" stroke-miterlimit="10"/>
<path d="M65.6083 159.959L53.959 152.793L59.6974 142.412L65.5876 159.89" fill="#D1E9E8"/>
<path d="M65.6083 159.959L53.959 152.793L59.6974 142.412L65.5876 159.89" stroke="white" stroke-width="0.496597" stroke-miterlimit="10"/>
<path d="M90.3763 174.236L84.4585 156.71L96.7838 163.87L90.3763 174.236Z" fill="#BADEDD" stroke="white" stroke-width="0.496597" stroke-miterlimit="10"/>
<path d="M77.9613 167.07L72.0435 149.537L84.3618 156.696L77.9613 167.07Z" fill="#B1D7D5" stroke="white" stroke-width="0.496597" stroke-miterlimit="10"/>
<path d="M65.5394 159.897L59.6216 142.371L71.9468 149.53L65.5394 159.897Z" fill="#93C2BE" stroke="white" stroke-width="0.496597" stroke-miterlimit="10"/>
<path d="M96.866 163.89L84.52 156.765L90.9551 146.344L96.8453 163.828" fill="#D1E9E8"/>
<path d="M96.866 163.89L84.52 156.765L90.9551 146.344L96.8453 163.828" stroke="white" stroke-width="0.496597" stroke-miterlimit="10"/>
<path d="M84.4509 156.724L72.105 149.599L78.54 139.177L84.4302 156.662" fill="#D1E9E8"/>
<path d="M84.4509 156.724L72.105 149.599L78.54 139.177L84.4302 156.662" stroke="white" stroke-width="0.496597" stroke-miterlimit="10"/>
<path d="M72.1053 149.599L59.7593 142.468L66.1944 132.053L72.0845 149.53" fill="#D1E9E8"/>
<path d="M72.1053 149.599L59.7593 142.468L66.1944 132.053L72.0845 149.53" stroke="white" stroke-width="0.496597" stroke-miterlimit="10"/>
<path d="M96.8734 163.876L90.9556 146.344L103.281 153.51L96.8734 163.876Z" fill="#BADEDD" stroke="white" stroke-width="0.496597" stroke-miterlimit="10"/>
<path d="M59.7869 142.419L53.8691 124.893L66.1944 132.053L59.7869 142.419Z" fill="#BADEDD" stroke="white" stroke-width="0.496597" stroke-miterlimit="10"/>
<path d="M84.4583 156.71L78.5405 139.177L90.8658 146.337L84.4583 156.71Z" fill="#BADEDD" stroke="white" stroke-width="0.496597" stroke-miterlimit="10"/>
<path d="M72.0433 149.537L66.1255 132.011L78.4439 139.171L72.0433 149.537Z" fill="#BADEDD" stroke="white" stroke-width="0.496597" stroke-miterlimit="10"/>
<path d="M112.826 174.208L125.172 167.084L118.737 156.669L112.847 174.146" fill="#B1D7D5"/>
<path d="M112.826 174.208L125.172 167.084L118.737 156.669L112.847 174.146" stroke="white" stroke-width="0.496597" stroke-miterlimit="10"/>
<path d="M125.241 167.042L137.153 159.869L131.152 149.496L125.262 166.98" fill="#D1E9E8"/>
<path d="M125.241 167.042L137.153 159.869L131.152 149.496L125.262 166.98" stroke="white" stroke-width="0.496597" stroke-miterlimit="10"/>
<path d="M112.82 174.195L118.737 156.669L106.412 163.828L112.82 174.195Z" fill="#BADEDD" stroke="white" stroke-width="0.496597" stroke-miterlimit="10"/>
<path d="M125.234 167.028L131.152 149.496L118.833 156.655L125.234 167.028Z" fill="#B1D7D5" stroke="white" stroke-width="0.496597" stroke-miterlimit="10"/>
<path d="M106.329 163.849L118.675 156.724L112.24 146.302L106.35 163.787" fill="#93C2BE"/>
<path d="M106.329 163.849L118.675 156.724L112.24 146.302L106.35 163.787" stroke="white" stroke-width="0.496597" stroke-miterlimit="10"/>
<path d="M118.744 156.683L131.09 149.558L124.655 139.136L118.765 156.621" fill="#D1E9E8"/>
<path d="M118.744 156.683L131.09 149.558L124.655 139.136L118.765 156.621" stroke="white" stroke-width="0.496597" stroke-miterlimit="10"/>
<path d="M106.322 163.835L112.24 146.302L101.805 152.365L106.322 163.835Z" fill="#BADEDD" stroke="white" stroke-width="0.496597" stroke-miterlimit="10"/>
<path d="M118.737 156.669L124.655 139.136L112.33 146.296L118.737 156.669Z" fill="#BADEDD" stroke="white" stroke-width="0.496597" stroke-miterlimit="10"/>
<path d="M131.152 149.496L137.07 131.97L124.751 139.129L131.152 149.496Z" fill="#BADEDD" stroke="white" stroke-width="0.496597" stroke-miterlimit="10"/>
<path d="M106.915 163.511L101.563 151.841H101.522L95.9351 163.359" fill="#93C2BE"/>
<path d="M106.915 163.511L101.563 151.841H101.522L95.9351 163.359" stroke="white" stroke-width="0.496597" stroke-miterlimit="10"/>
<path d="M101.563 180.692L106.915 163.511L95.9351 163.359L101.563 180.692Z" fill="#B1D7D5" stroke="white" stroke-width="0.496597" stroke-miterlimit="10"/>
<path d="M101.563 152.406L112.82 145.909L106.385 135.488L101.563 152.406Z" fill="#D2E9E7" stroke="white" stroke-width="0.496597" stroke-miterlimit="10"/>
<path d="M101.564 152.406L90.3765 145.951L96.8115 135.529L101.522 152.041" fill="#D2E9E7"/>
<path d="M101.564 152.406L90.3765 145.951L96.8115 135.529L101.522 152.041" stroke="white" stroke-width="0.496597" stroke-miterlimit="10"/>
<path d="M90.3689 145.964L78.0229 138.84L84.458 128.418L90.3482 145.902" fill="#B1D7D5"/>
<path d="M90.3689 145.964L78.0229 138.84L84.458 128.418L90.3482 145.902" stroke="white" stroke-width="0.496597" stroke-miterlimit="10"/>
<path d="M77.9539 138.798L65.6079 131.667L72.043 121.252L77.9332 138.729" fill="#D1E9E8"/>
<path d="M77.9539 138.798L65.6079 131.667L72.043 121.252L77.9332 138.729" stroke="white" stroke-width="0.496597" stroke-miterlimit="10"/>
<path d="M65.6083 131.667L53.959 124.507L59.6974 114.12L65.5876 131.604" fill="#D1E9E8"/>
<path d="M65.6083 131.667L53.959 124.507L59.6974 114.12L65.5876 131.604" stroke="white" stroke-width="0.496597" stroke-miterlimit="10"/>
<path d="M90.3763 145.951L84.4585 128.418L96.7838 135.577L90.3763 145.951Z" fill="#BADEDD" stroke="white" stroke-width="0.496597" stroke-miterlimit="10"/>
<path d="M77.9613 138.778L72.0435 121.252L84.3687 128.411L77.9613 138.778Z" fill="#B1D7D5" stroke="white" stroke-width="0.496597" stroke-miterlimit="10"/>
<path d="M65.5462 131.611L59.6284 114.079L71.9468 121.238L65.5462 131.611Z" fill="#B1D7D5" stroke="white" stroke-width="0.496597" stroke-miterlimit="10"/>
<path d="M96.866 135.605L84.52 128.48L90.9551 118.058L96.8453 135.543" fill="#93C2BE"/>
<path d="M96.866 135.605L84.52 128.48L90.9551 118.058L96.8453 135.543" stroke="white" stroke-width="0.496597" stroke-miterlimit="10"/>
<path d="M84.4509 128.439L72.105 121.307L78.54 110.892L84.4302 128.37" fill="#D1E9E8"/>
<path d="M84.4509 128.439L72.105 121.307L78.54 110.892L84.4302 128.37" stroke="white" stroke-width="0.496597" stroke-miterlimit="10"/>
<path d="M72.1053 121.307L59.7593 114.182L66.1944 103.761L72.0845 121.245" fill="#D1E9E8"/>
<path d="M72.1053 121.307L59.7593 114.182L66.1944 103.761L72.0845 121.245" stroke="white" stroke-width="0.496597" stroke-miterlimit="10"/>
<path d="M96.8803 135.591L90.9556 118.058L103.281 125.218L96.8803 135.591Z" fill="#BADEDD" stroke="white" stroke-width="0.496597" stroke-miterlimit="10"/>
<path d="M59.7943 114.134L53.8765 96.6012L66.1949 103.76L59.7943 114.134Z" fill="#BADEDD" stroke="white" stroke-width="0.496597" stroke-miterlimit="10"/>
<path d="M84.4583 128.418L78.5405 110.892L90.8658 118.052L84.4583 128.418Z" fill="#BADEDD" stroke="white" stroke-width="0.496597" stroke-miterlimit="10"/>
<path d="M72.0433 121.252L66.1255 103.719L78.4508 110.878L72.0433 121.252Z" fill="#BADEDD" stroke="white" stroke-width="0.496597" stroke-miterlimit="10"/>
<path d="M112.826 145.923L125.172 138.798L118.737 128.377L112.847 145.861" fill="#B1D7D5"/>
<path d="M112.826 145.923L125.172 138.798L118.737 128.377L112.847 145.861" stroke="white" stroke-width="0.496597" stroke-miterlimit="10"/>
<path d="M125.248 138.757L137.159 131.584L131.152 121.21L125.269 138.695" fill="#D1E9E8"/>
<path d="M125.248 138.757L137.159 131.584L131.152 121.21L125.269 138.695" stroke="white" stroke-width="0.496597" stroke-miterlimit="10"/>
<path d="M112.819 145.909L118.737 128.377L106.418 135.536L112.819 145.909Z" fill="#BADEDD" stroke="white" stroke-width="0.496597" stroke-miterlimit="10"/>
<path d="M125.234 138.736L131.152 121.21L118.833 128.37L125.234 138.736Z" fill="#93C2BE" stroke="white" stroke-width="0.496597" stroke-miterlimit="10"/>
<path d="M106.329 135.563L118.675 128.439L112.24 118.017L106.35 135.501" fill="#D2E9E7"/>
<path d="M106.329 135.563L118.675 128.439L112.24 118.017L106.35 135.501" stroke="white" stroke-width="0.496597" stroke-miterlimit="10"/>
<path d="M118.744 128.397L131.09 121.266L124.655 110.851L118.765 128.328" fill="#D1E9E8"/>
<path d="M118.744 128.397L131.09 121.266L124.655 110.851L118.765 128.328" stroke="white" stroke-width="0.496597" stroke-miterlimit="10"/>
<path d="M106.322 135.55L112.24 118.017L101.805 124.08L106.322 135.55Z" fill="#BADEDD" stroke="white" stroke-width="0.496597" stroke-miterlimit="10"/>
<path d="M118.737 128.377L124.655 110.851L112.336 118.01L118.737 128.377Z" fill="#BADEDD" stroke="white" stroke-width="0.496597" stroke-miterlimit="10"/>
<path d="M131.152 121.21L137.077 103.678L124.751 110.837L131.152 121.21Z" fill="#BADEDD" stroke="white" stroke-width="0.496597" stroke-miterlimit="10"/>
<path d="M106.915 135.225L101.563 123.555H101.522L95.9351 135.067" fill="#93C2BE"/>
<path d="M106.915 135.225L101.563 123.555H101.522L95.9351 135.067" stroke="white" stroke-width="0.496597" stroke-miterlimit="10"/>
<path d="M101.563 152.406L106.915 135.225L95.9351 135.067L101.563 152.406Z" fill="#B1D7D5" stroke="white" stroke-width="0.496597" stroke-miterlimit="10"/>
<path d="M101.563 124.507L112.82 118.003L106.385 107.589L101.563 124.507Z" fill="#D2E9E7" stroke="white" stroke-width="0.496597" stroke-miterlimit="10"/>
<path d="M101.564 124.507L90.3765 118.045L96.8115 107.63L101.522 124.142" fill="#D2E9E7"/>
<path d="M101.564 124.507L90.3765 118.045L96.8115 107.63L101.522 124.142" stroke="white" stroke-width="0.496597" stroke-miterlimit="10"/>
<path d="M90.3689 118.065L78.0229 110.934L84.458 100.519L90.3482 118.003" fill="#B1D7D5"/>
<path d="M90.3689 118.065L78.0229 110.934L84.458 100.519L90.3482 118.003" stroke="white" stroke-width="0.496597" stroke-miterlimit="10"/>
<path d="M77.9539 110.892L65.6079 103.767L72.043 93.3458L77.9263 110.83" fill="#D1E9E8"/>
<path d="M77.9539 110.892L65.6079 103.767L72.043 93.3458L77.9263 110.83" stroke="white" stroke-width="0.496597" stroke-miterlimit="10"/>
<path d="M65.6083 103.767L53.959 96.6013L59.6974 86.2211L65.5876 103.705" fill="#D1E9E8"/>
<path d="M65.6083 103.767L53.959 96.6013L59.6974 86.2211L65.5876 103.705" stroke="white" stroke-width="0.496597" stroke-miterlimit="10"/>
<path d="M90.3763 118.045L84.4585 100.519L96.7838 107.678L90.3763 118.045Z" fill="#BADEDD" stroke="white" stroke-width="0.496597" stroke-miterlimit="10"/>
<path d="M77.9613 110.878L72.0435 93.3458L84.3618 100.512L77.9613 110.878Z" fill="#B1D7D5" stroke="white" stroke-width="0.496597" stroke-miterlimit="10"/>
<path d="M65.5394 103.705L59.6216 86.1796L71.9468 93.3388L65.5394 103.705Z" fill="#B1D7D5" stroke="white" stroke-width="0.496597" stroke-miterlimit="10"/>
<path d="M96.866 107.706L84.52 100.574L90.9551 90.1592L96.8453 107.637" fill="#93C2BE"/>
<path d="M96.866 107.706L84.52 100.574L90.9551 90.1592L96.8453 107.637" stroke="white" stroke-width="0.496597" stroke-miterlimit="10"/>
<path d="M84.4509 100.533L72.105 93.4078L78.54 82.9862L84.4302 100.471" fill="#D1E9E8"/>
<path d="M84.4509 100.533L72.105 93.4078L78.54 82.9862L84.4302 100.471" stroke="white" stroke-width="0.496597" stroke-miterlimit="10"/>
<path d="M72.1053 93.4078L59.7593 86.283L66.1944 75.8614L72.0845 93.3457" fill="#D1E9E8"/>
<path d="M72.1053 93.4078L59.7593 86.283L66.1944 75.8614L72.0845 93.3457" stroke="white" stroke-width="0.496597" stroke-miterlimit="10"/>
<path d="M96.8734 107.685L90.9556 90.1592L103.281 97.3185L96.8734 107.685Z" fill="#BADEDD" stroke="white" stroke-width="0.496597" stroke-miterlimit="10"/>
<path d="M59.7869 86.2279L53.8691 68.7021L66.1944 75.8614L59.7869 86.2279Z" fill="#BADEDD" stroke="white" stroke-width="0.496597" stroke-miterlimit="10"/>
<path d="M84.4583 100.519L78.5405 82.9862L90.8658 90.1455L84.4583 100.519Z" fill="#BADEDD" stroke="white" stroke-width="0.496597" stroke-miterlimit="10"/>
<path d="M72.0433 93.3458L66.1255 75.82L78.4439 82.9793L72.0433 93.3458Z" fill="#BADEDD" stroke="white" stroke-width="0.496597" stroke-miterlimit="10"/>
<path d="M112.826 118.024L125.172 110.892L118.737 100.477L112.847 117.962" fill="#B1D7D5"/>
<path d="M112.826 118.024L125.172 110.892L118.737 100.477L112.847 117.962" stroke="white" stroke-width="0.496597" stroke-miterlimit="10"/>
<path d="M125.241 110.851L137.153 103.678L131.152 93.3044L125.262 110.789" fill="#D1E9E8"/>
<path d="M125.241 110.851L137.153 103.678L131.152 93.3044L125.262 110.789" stroke="white" stroke-width="0.496597" stroke-miterlimit="10"/>
<path d="M112.82 118.003L118.737 100.477L106.412 107.637L112.82 118.003Z" fill="#BADEDD" stroke="white" stroke-width="0.496597" stroke-miterlimit="10"/>
<path d="M125.234 110.837L131.152 93.3044L118.833 100.471L125.234 110.837Z" fill="#B1D7D5" stroke="white" stroke-width="0.496597" stroke-miterlimit="10"/>
<path d="M106.329 107.664L118.675 100.533L112.24 90.1179L106.35 107.595" fill="#93C2BE"/>
<path d="M106.329 107.664L118.675 100.533L112.24 90.1179L106.35 107.595" stroke="white" stroke-width="0.496597" stroke-miterlimit="10"/>
<path d="M118.744 100.491L131.09 93.3665L124.655 82.9449L118.765 100.429" fill="#D1E9E8"/>
<path d="M118.744 100.491L131.09 93.3665L124.655 82.9449L118.765 100.429" stroke="white" stroke-width="0.496597" stroke-miterlimit="10"/>
<path d="M106.322 107.644L112.24 90.1179L101.805 96.1805L106.322 107.644Z" fill="#BADEDD" stroke="white" stroke-width="0.496597" stroke-miterlimit="10"/>
<path d="M118.737 100.477L124.655 82.9449L112.33 90.1042L118.737 100.477Z" fill="#BADEDD" stroke="white" stroke-width="0.496597" stroke-miterlimit="10"/>
<path d="M131.152 93.3045L137.07 75.7787L124.751 82.938L131.152 93.3045Z" fill="#BADEDD" stroke="white" stroke-width="0.496597" stroke-miterlimit="10"/>
<path d="M106.915 107.326L101.563 95.6494H101.522L95.9351 107.168" fill="#D1E9E8"/>
<path d="M106.915 107.326L101.563 95.6494H101.522L95.9351 107.168" stroke="white" stroke-width="0.496597" stroke-miterlimit="10"/>
<path d="M101.563 124.507L106.915 107.326L95.9351 107.168L101.563 124.507Z" fill="#B1D7D5" stroke="white" stroke-width="0.496597" stroke-miterlimit="10"/>
<path d="M101.598 293.026L107.578 275.438L95.687 275.48L101.515 293.199" fill="#B1D7D5"/>
<path d="M101.598 293.026L107.578 275.438L95.687 275.48L101.515 293.199" stroke="white" stroke-width="0.496597" stroke-miterlimit="10"/>
<path d="M88.0588 48.1968L136.539 76.1856L101.805 96.1805L54.4419 68.5297L88.0588 48.1968Z" fill="#D1E9E8" stroke="white" stroke-width="0.496597" stroke-miterlimit="10"/>
<path opacity="0.3" d="M54.6209 68.5298L60.0007 85.6555L54.083 96.022L60.0007 113.555L54.083 124.314L60.0007 141.84L54.0002 152.213L59.918 169.746L54.0484 180.195L59.9662 197.728L53.4691 208.087L59.3869 225.613L52.8897 235.973L58.8075 253.505L52.138 264.493L52 279.459L101.846 308L101.736 96.3186L54.6209 68.5298Z" fill="url(#paint0_linear_278_92377)"/>
<path d="M194.454 14.6833L242.935 42.6722L208.2 62.6671L160.837 35.0163L194.454 14.6833Z" fill="#D1D3D4"/>
<path d="M194.454 0.219971L242.935 28.2088L208.2 48.1968L160.837 20.5529L194.454 0.219971Z" fill="#E6E7E8"/>
<path d="M208.2 127.756C208.2 76.2959 196.344 41.2789 160.837 20.5529" stroke="#414042" stroke-width="0.469009" stroke-miterlimit="10"/>
<path d="M207.552 127.39C205.414 83.6345 192.654 53.1697 160.521 34.4163" stroke="#414042" stroke-width="0.469009" stroke-miterlimit="10"/>
<path d="M207.573 127.39C203.476 91.1111 189.399 65.3225 160.837 48.652" stroke="#414042" stroke-width="0.469009" stroke-miterlimit="10"/>
<path d="M206.014 126.749C200.379 96.4565 186.426 74.3716 160.982 59.5151" stroke="#414042" stroke-width="0.469009" stroke-miterlimit="10"/>
<path d="M203.4 125.376C196.807 100.733 183.033 81.6412 160.845 68.6883" stroke="#414042" stroke-width="0.469009" stroke-miterlimit="10"/>
<path d="M200.027 123.231C192.578 103.602 179.77 88.0832 160.837 77.027" stroke="#414042" stroke-width="0.469009" stroke-miterlimit="10"/>
<path d="M195.668 120.728C188.199 106.009 176.37 93.8838 160.837 84.814" stroke="#414042" stroke-width="0.469009" stroke-miterlimit="10"/>
<path d="M190.661 117.762C183.315 106.837 173.259 97.6289 160.837 90.3799" stroke="#414042" stroke-width="0.469009" stroke-miterlimit="10"/>
<path d="M184.357 114.272C178.191 107.12 169.873 100.491 160.845 95.2219" stroke="#414042" stroke-width="0.469009" stroke-miterlimit="10"/>
<path d="M208.925 127.39C208.925 66.1984 216.884 43.2033 242.928 28.2088" stroke="#414042" stroke-width="0.469009" stroke-miterlimit="10"/>
<path d="M209.394 127.501C210.614 76.5512 219.257 55.9631 243.245 42.1619" stroke="#414042" stroke-width="0.469009" stroke-miterlimit="10"/>
<path d="M209.553 127.025C209.553 90.1179 222.368 68.1436 242.928 56.308" stroke="#414042" stroke-width="0.469009" stroke-miterlimit="10"/>
<path d="M209.953 127.183C212.049 96.1116 224.333 76.9994 243.011 66.2467" stroke="#414042" stroke-width="0.469009" stroke-miterlimit="10"/>
<path d="M213.725 125.011C213.725 102.767 226.816 85.6209 242.928 76.3442" stroke="#414042" stroke-width="0.469009" stroke-miterlimit="10"/>
<path d="M214.449 124.597C217.394 106.671 229.044 92.8216 242.935 84.8209" stroke="#414042" stroke-width="0.469009" stroke-miterlimit="10"/>
<path d="M221.457 120.355C221.457 108.554 232.768 98.3118 242.935 92.463" stroke="#414042" stroke-width="0.469009" stroke-miterlimit="10"/>
<path d="M222.292 120.079C225.085 110.671 234.417 102.678 242.935 97.7737" stroke="#414042" stroke-width="0.469009" stroke-miterlimit="10"/>
<path d="M232.769 113.906C232.769 110.858 237.852 105.264 242.928 102.878" stroke="#414042" stroke-width="0.469009" stroke-miterlimit="10"/>
<path d="M160.837 100.547C160.837 48.6521 171.225 26.6225 208.2 48.2038" stroke="#414042" stroke-width="0.469009" stroke-miterlimit="10"/>
<path d="M161.079 100.553C162.928 58.4805 174.577 42.0928 208.166 61.7015" stroke="#414042" stroke-width="0.469009" stroke-miterlimit="10"/>
<path d="M162.224 101.16C166.073 69.6747 178.639 59.0393 208.201 76.296" stroke="#414042" stroke-width="0.469009" stroke-miterlimit="10"/>
<path d="M163.837 102.071C169.072 78.2686 181.922 71.5714 208.2 86.9108" stroke="#414042" stroke-width="0.469009" stroke-miterlimit="10"/>
<path d="M166.224 103.498C172.576 86.6969 185.281 83.338 208.166 96.6978" stroke="#414042" stroke-width="0.469009" stroke-miterlimit="10"/>
<path d="M168.914 105.347C175.915 93.6286 188.143 92.525 208.166 104.216" stroke="#414042" stroke-width="0.469009" stroke-miterlimit="10"/>
<path d="M173.418 107.995C180.77 101.891 192.027 103.016 208.201 112.458" stroke="#414042" stroke-width="0.469009" stroke-miterlimit="10"/>
<path d="M177.639 110.347C184.847 107.513 194.799 109.665 208.049 117.403" stroke="#414042" stroke-width="0.469009" stroke-miterlimit="10"/>
<path d="M184.488 114.272C190.73 114.32 198.759 117.355 208.201 122.873" stroke="#414042" stroke-width="0.469009" stroke-miterlimit="10"/>
<path d="M242.935 108.009C242.935 56.1147 235.88 32.8092 208.201 48.1968" stroke="#414042" stroke-width="0.469009" stroke-miterlimit="10"/>
<path d="M243.12 108.195C242.934 65.5501 233.402 47.6657 208.166 61.7015" stroke="#414042" stroke-width="0.469009" stroke-miterlimit="10"/>
<path d="M241.549 108.63C241.549 84.545 230.355 63.55 208.201 76.3029" stroke="#414042" stroke-width="0.469009" stroke-miterlimit="10"/>
<path d="M240.88 109.382C238.169 89.98 227.224 76.0477 208.201 86.9935" stroke="#414042" stroke-width="0.469009" stroke-miterlimit="10"/>
<path d="M237.548 110.968C237.548 98.4774 231.058 83.3449 208.173 96.7048" stroke="#414042" stroke-width="0.469009" stroke-miterlimit="10"/>
<path d="M236.851 111.527C234.664 101.34 226.926 93.1457 208.166 104.098" stroke="#414042" stroke-width="0.469009" stroke-miterlimit="10"/>
<path d="M230.355 115.465C230.355 106.416 224.375 103.022 208.201 112.465" stroke="#414042" stroke-width="0.469009" stroke-miterlimit="10"/>
<path d="M229.706 115.913C227.761 110.485 221.354 109.685 208.208 117.355" stroke="#414042" stroke-width="0.469009" stroke-miterlimit="10"/>
<path d="M219.285 121.742C218.471 120.597 215.022 118.941 208.201 122.873" stroke="#414042" stroke-width="0.469009" stroke-miterlimit="10"/>
<path d="M208.201 128.19V48.1968" stroke="#414042" stroke-width="0.469009" stroke-miterlimit="10"/>
<path d="M160.837 100.546V20.5529" stroke="#414042" stroke-width="0.469009" stroke-miterlimit="10"/>
<path d="M242.935 108.195V28.2088" stroke="#414042" stroke-width="0.469009" stroke-miterlimit="10"/>
<path d="M208.201 128.19L242.935 108.195" stroke="#414042" stroke-width="0.469009" stroke-miterlimit="10"/>
<path d="M160.837 100.546L208.2 128.19" stroke="#414042" stroke-width="0.469009" stroke-miterlimit="10"/>
<path d="M134.565 311.606L133.079 312.464V325.026L132.031 325.631L125.001 319.064L124.925 319.108V327.996L126.811 326.907V328.645L121.876 331.494V329.756L123.286 328.942V318.118L121.686 319.042V317.304L124.544 315.654L131.365 322.012L131.441 321.968V313.41L129.593 314.477V312.739L134.565 309.868V311.606ZM143.934 313.853C143.934 315.364 143.528 316.83 142.715 318.253C141.915 319.668 140.854 320.757 139.533 321.52C138.237 322.268 137.209 322.4 136.446 321.916C135.697 321.425 135.322 320.424 135.322 318.913C135.322 317.476 135.684 316.035 136.408 314.59C137.132 313.145 138.212 312.009 139.647 311.18C141.083 310.351 142.156 310.245 142.867 310.861C143.578 311.462 143.934 312.46 143.934 313.853ZM142.181 314.799C142.181 313.714 141.946 312.991 141.476 312.632C141.019 312.265 140.397 312.309 139.609 312.764C138.784 313.241 138.148 313.945 137.704 314.876C137.272 315.785 137.056 316.761 137.056 317.802C137.056 318.799 137.266 319.529 137.685 319.991C138.117 320.431 138.752 320.409 139.59 319.925C140.416 319.448 141.051 318.744 141.495 317.813C141.953 316.86 142.181 315.855 142.181 314.799ZM150.119 305.2C150.716 304.855 151.224 304.738 151.643 304.848L151.986 307.4L150.672 308.335L150.348 306.828C150.132 306.85 149.909 306.927 149.681 307.059C149.249 307.308 148.887 307.73 148.595 308.324C148.303 308.903 148.157 309.53 148.157 310.205V314.825L149.986 313.769V315.265L145.108 318.081V316.585L146.48 315.793V308.973L145.051 309.798V308.28L148.042 306.553V308.357C148.207 307.704 148.461 307.096 148.804 306.531C149.16 305.944 149.598 305.501 150.119 305.2ZM168.977 304.301L165.052 306.567V305.071L165.928 304.565V300.319C165.928 299.321 165.763 298.713 165.433 298.493C165.116 298.251 164.684 298.287 164.138 298.603C163.401 299.028 162.848 299.655 162.48 300.484C162.124 301.305 161.94 302.035 161.927 302.673V306.875L163.299 306.083V307.579L159.374 309.845V308.349L160.251 307.843V303.597C160.251 302.585 160.086 301.969 159.755 301.749C159.438 301.521 159.012 301.562 158.479 301.87C157.755 302.288 157.209 302.904 156.84 303.718C156.472 304.532 156.282 305.258 156.269 305.896V310.142L157.85 309.229V310.725L153.22 313.398V311.902L154.592 311.11V304.29L153.201 305.093V303.575L156.269 301.804V303.542C156.536 302.816 156.898 302.145 157.355 301.529C157.812 300.898 158.371 300.392 159.031 300.011C159.679 299.637 160.251 299.497 160.746 299.593C161.242 299.673 161.584 300.047 161.775 300.715C162.029 299.893 162.404 299.127 162.899 298.416C163.394 297.704 163.998 297.143 164.709 296.733C165.509 296.271 166.189 296.172 166.748 296.436C167.307 296.7 167.586 297.455 167.586 298.702V303.608L168.977 302.805V304.301ZM170.638 294.255C171.159 293.603 171.667 293.067 172.163 292.649C172.671 292.209 173.223 291.817 173.82 291.472C174.786 290.915 175.548 290.746 176.107 290.966C176.678 291.179 176.964 291.85 176.964 292.979V297.533C176.964 298.179 177.186 298.373 177.631 298.116C177.809 298.014 177.98 297.878 178.145 297.709L178.164 298.842C177.809 299.297 177.396 299.66 176.926 299.931C175.897 300.525 175.351 300.181 175.287 298.897V298.875C175.033 299.535 174.665 300.21 174.182 300.899C173.712 301.581 173.134 302.12 172.448 302.516C171.864 302.854 171.28 302.986 170.696 302.912C170.124 302.832 169.838 302.278 169.838 301.251C169.838 300.019 170.257 298.971 171.096 298.105C171.947 297.218 172.855 296.496 173.82 295.938C174.405 295.601 174.894 295.348 175.287 295.179V294.453C175.287 293.808 175.179 293.32 174.963 292.99C174.747 292.66 174.265 292.712 173.515 293.144C172.906 293.496 172.391 293.918 171.972 294.409L171.648 296.202L170.296 296.807L170.638 294.255ZM175.287 296.873V296.301C175.059 296.404 174.817 296.521 174.563 296.653C174.322 296.763 174.074 296.892 173.82 297.038C173.236 297.376 172.715 297.786 172.258 298.27C171.801 298.754 171.572 299.341 171.572 300.03C171.572 300.558 171.712 300.859 171.991 300.932C172.283 300.998 172.614 300.925 172.982 300.712C173.528 300.397 174.036 299.884 174.506 299.172C174.976 298.461 175.236 297.695 175.287 296.873ZM189.333 292.548L184.913 295.1V293.604L186.285 292.812V288.566C186.285 287.568 186.12 286.96 185.79 286.74C185.459 286.505 185.021 286.545 184.475 286.861C183.764 287.271 183.199 287.869 182.779 288.654C182.36 289.438 182.138 290.197 182.113 290.931V295.221L183.484 294.429V295.925L179.064 298.477V296.981L180.436 296.189V289.369L179.007 290.194V288.676L182.113 286.883V288.555C182.71 286.963 183.675 285.783 185.009 285.013C185.834 284.536 186.533 284.426 187.104 284.683C187.676 284.939 187.962 285.691 187.962 286.938V291.844L189.333 291.052V292.548ZM203.907 274.035L202.383 275.091L202.002 272.671L197.658 275.179V280.283L203.202 277.082V278.798L197.658 281.999V286.003L199.792 284.771V286.509L194.419 289.611V287.873L195.924 287.004V276.18L194.419 277.049V275.311L203.507 270.064L203.907 274.035ZM213.223 273.849C213.223 275.36 212.816 276.826 212.004 278.249C211.203 279.664 210.143 280.753 208.822 281.516C207.526 282.264 206.497 282.396 205.735 281.912C204.986 281.421 204.611 280.42 204.611 278.909C204.611 277.472 204.973 276.031 205.697 274.586C206.421 273.141 207.501 272.005 208.936 271.176C210.371 270.347 211.445 270.241 212.156 270.857C212.867 271.458 213.223 272.456 213.223 273.849ZM211.47 274.795C211.47 273.71 211.235 272.987 210.765 272.628C210.308 272.261 209.685 272.305 208.898 272.76C208.072 273.237 207.437 273.941 206.993 274.872C206.561 275.781 206.345 276.757 206.345 277.798C206.345 278.795 206.554 279.525 206.974 279.987C207.405 280.427 208.041 280.405 208.879 279.921C209.705 279.444 210.34 278.74 210.784 277.809C211.241 276.856 211.47 275.851 211.47 274.795ZM221.618 271.026C221.618 272.009 221.262 272.977 220.551 273.93C219.852 274.876 218.963 275.661 217.884 276.284C216.575 277.04 215.464 277.359 214.549 277.241L214.816 274.711L216.131 274.106L216.093 275.404C216.347 275.404 216.62 275.349 216.912 275.239C217.217 275.122 217.515 274.979 217.807 274.81C218.354 274.495 218.843 274.095 219.274 273.611C219.719 273.12 219.941 272.625 219.941 272.126C219.941 271.642 219.763 271.408 219.408 271.422C219.052 271.422 218.608 271.525 218.074 271.73C217.553 271.928 217.033 272.104 216.512 272.258C215.991 272.398 215.553 272.387 215.197 272.225C214.842 272.049 214.664 271.58 214.664 270.817C214.664 269.717 215.013 268.753 215.712 267.924C216.423 267.088 217.179 266.439 217.979 265.977C218.563 265.64 219.109 265.413 219.617 265.295C220.138 265.156 220.608 265.097 221.027 265.119L221.218 267.385L219.884 268.331L219.694 266.901C219.173 266.923 218.627 267.099 218.055 267.429C217.585 267.701 217.198 268.027 216.893 268.408C216.588 268.79 216.436 269.215 216.436 269.684C216.436 270.139 216.607 270.363 216.95 270.355C217.306 270.341 217.738 270.238 218.246 270.047C218.766 269.835 219.281 269.662 219.789 269.53C220.31 269.391 220.741 269.413 221.084 269.596C221.44 269.772 221.618 270.249 221.618 271.026ZM229.493 266.59C229.252 268.724 228.299 270.271 226.635 271.232C225.759 271.738 225.073 271.862 224.577 271.606C224.095 271.327 223.853 270.696 223.853 269.714V264.258L222.539 265.017V263.543L223.853 262.784V259.682L225.511 258.725V261.827L228.769 259.946V261.42L225.511 263.301V268.471C225.511 269.644 225.949 269.978 226.826 269.472C227.105 269.31 227.385 269.046 227.664 268.68C227.943 268.298 228.14 267.686 228.255 266.843L229.493 266.59ZM237.951 261.575C237.862 262.477 237.5 263.419 236.865 264.402C236.229 265.384 235.366 266.191 234.273 266.822C233.041 267.533 232.044 267.683 231.282 267.273C230.52 266.862 230.139 265.85 230.139 264.237C230.139 262.711 230.495 261.245 231.206 259.837C231.917 258.429 232.902 257.362 234.159 256.636C235.328 255.961 236.236 255.855 236.884 256.317C237.531 256.779 237.862 257.6 237.874 258.781C237.874 259.177 237.836 259.617 237.76 260.101L231.892 263.489C231.968 265.527 232.8 266.088 234.388 265.172C235.048 264.79 235.544 264.321 235.874 263.764C236.217 263.199 236.445 262.627 236.56 262.048L237.951 261.575ZM236.141 259.738C236.191 259.063 236.052 258.528 235.721 258.132C235.404 257.714 234.87 257.721 234.121 258.154C233.422 258.557 232.895 259.133 232.54 259.881C232.197 260.607 231.987 261.373 231.911 262.18L236.141 259.738ZM244.117 250.931C244.714 250.586 245.222 250.469 245.641 250.579L245.984 253.131L244.669 254.066L244.345 252.559C244.129 252.581 243.907 252.658 243.678 252.79C243.247 253.039 242.885 253.461 242.592 254.055C242.3 254.634 242.154 255.261 242.154 255.936V260.556L243.983 259.5V260.996L239.106 263.812V262.316L240.478 261.524V254.704L239.049 255.529V254.011L242.04 252.284V254.088C242.205 253.435 242.459 252.826 242.802 252.262C243.158 251.675 243.596 251.231 244.117 250.931Z" fill="#818181"/>
<defs>
<linearGradient id="paint0_linear_278_92377" x1="19.5211" y1="246.981" x2="135.959" y2="130.542" gradientUnits="userSpaceOnUse">
<stop offset="0.25" stop-color="#508588"/>
<stop offset="0.28" stop-color="#54898B"/>
<stop offset="0.45" stop-color="#6EA2A2"/>
<stop offset="0.63" stop-color="#81B4B2"/>
<stop offset="0.81" stop-color="#8DBFBB"/>
<stop offset="1" stop-color="#91C3BF"/>
</linearGradient>
</defs>
</svg>
