<svg width="296" height="331" viewBox="0 0 296 331" fill="none" xmlns="http://www.w3.org/2000/svg">
<mask id="mask0_278_92644" style="mask-type:luminance" maskUnits="userSpaceOnUse" x="0" y="58" width="296" height="189">
<path d="M293.641 176.504C278.377 240.859 176.606 261.612 106.377 236.108C23.0796 205.851 -16.7936 162.505 6.87177 118.604C26.1478 82.8436 80.5101 35.2785 194.725 70.2012C248.817 86.7429 305.033 128.463 293.641 176.511V176.504Z" fill="white"/>
</mask>
<g mask="url(#mask0_278_92644)">
<path d="M36.5176 73.0067L46.9866 79.0509L54.6572 74.619L44.1882 68.5748L36.5176 73.0067Z" fill="#98C7CB"/>
<path d="M39.3159 83.4828L49.7849 89.527L57.4627 85.0951L46.9866 79.0509L39.3159 83.4828Z" fill="#98C7CB"/>
<path d="M67.2075 55.2861L77.6765 61.3302L85.3543 56.8983L74.8782 50.8541L67.2075 55.2861Z" fill="#98C7CB"/>
<path d="M62.335 70.1941L72.804 76.2383L80.4817 71.8064L70.0056 65.7622L62.335 70.1941Z" fill="#98C7CB"/>
<path d="M28.8394 77.4315L39.3155 83.4828L46.9861 79.0509L36.5171 73.0067L28.8394 77.4315Z" fill="#AAD8DE"/>
<path d="M31.688 87.9076L42.157 93.9589L49.8348 89.527L39.3587 83.4828L31.688 87.9076Z" fill="#AAD8DE"/>
<path d="M59.5366 59.718L70.0056 65.7622L77.6763 61.3303L67.2073 55.2861L59.5366 59.718Z" fill="#AAD8DE"/>
<path d="M21.1689 81.8635L31.6451 87.9076L39.3157 83.4828L28.8396 77.4315L21.1689 81.8635Z" fill="#CEE8ED"/>
<path d="M44.188 68.5748L54.657 74.619L62.3348 70.1941L51.8587 64.1428L44.188 68.5748Z" fill="#AAD8DE"/>
<path d="M46.9863 79.0509L57.4625 85.0951L65.1331 80.6702L54.657 74.619L46.9863 79.0509Z" fill="#AAD8DE"/>
<path d="M51.8589 64.1428L62.335 70.1941L70.0057 65.7621L59.5366 59.718L51.8589 64.1428Z" fill="#9BD2DC"/>
<path d="M54.6572 74.619L65.1334 80.6703L72.804 76.2383L62.335 70.1942L54.6572 74.619Z" fill="#CEE8ED"/>
<path d="M70.0054 65.7621L80.4815 71.8063L88.1521 67.3744L77.676 61.3302L70.0054 65.7621Z" fill="#CEE8ED"/>
<path d="M85.3535 56.8983L95.8226 62.9496L103.5 58.5177L93.0242 52.4735L85.3535 56.8983Z" fill="#98C7CB"/>
<path d="M77.6763 61.3302L88.1524 67.3744L95.8231 62.9496L85.354 56.8983L77.6763 61.3302Z" fill="#AAD8DE"/>
<path d="M93.0244 52.4736L103.501 58.5177L111.171 54.0858L100.695 48.0416L93.0244 52.4736Z" fill="#CEE8ED"/>
<path d="M57.4624 85.0951L67.9314 91.1464L75.6092 86.7144L65.133 80.6702L57.4624 85.0951Z" fill="#98C7CB"/>
<path d="M60.2607 95.5713L70.7298 101.623L78.4075 97.1906L67.9314 91.1464L60.2607 95.5713Z" fill="#8BBFC0"/>
<path d="M88.1523 67.3745L98.6214 73.4258L106.299 68.9938L95.823 62.9496L88.1523 67.3745Z" fill="#8BBFC0"/>
<path d="M83.2798 82.2825L93.7488 88.3338L101.427 83.9019L90.9504 77.8577L83.2798 82.2825Z" fill="#98C7CB"/>
<path d="M49.7847 89.527L60.2608 95.5712L67.9314 91.1464L57.4624 85.0951L49.7847 89.527Z" fill="#AAD8DE"/>
<path d="M52.6328 100.003L63.1089 106.047L70.7796 101.622L60.3035 95.5712L52.6328 100.003Z" fill="#AAD8DE"/>
<path d="M80.4814 71.8064L90.9505 77.8577L98.6211 73.4257L88.1521 67.3745L80.4814 71.8064Z" fill="#AAD8DE"/>
<path d="M42.1138 93.959L52.5899 100.003L60.2605 95.5712L49.7844 89.527L42.1138 93.959Z" fill="#CEE8ED"/>
<path d="M65.1333 80.6703L75.6094 86.7145L83.2801 82.2825L72.804 76.2383L65.1333 80.6703Z" fill="#AAD8DE"/>
<path d="M67.9316 91.1464L78.4078 97.1906L86.0784 92.7587L75.6094 86.7145L67.9316 91.1464Z" fill="#AAD8DE"/>
<path d="M72.8037 76.2384L83.2798 82.2826L90.9505 77.8578L80.4815 71.8065L72.8037 76.2384Z" fill="#9BD2DC"/>
<path d="M75.6094 86.7145L86.0784 92.7587L93.7491 88.3338L83.28 82.2825L75.6094 86.7145Z" fill="#CEE8ED"/>
<path d="M90.9507 77.8577L101.427 83.9018L109.097 79.4699L98.6213 73.4257L90.9507 77.8577Z" fill="#9BD2DC"/>
<path d="M111.171 54.0857L121.64 60.137L129.318 55.7051L118.842 49.6609L111.171 54.0857Z" fill="#8BBFC0"/>
<path d="M103.5 58.5177L113.97 64.5619L121.64 60.137L111.171 54.0858L103.5 58.5177Z" fill="#AAD8DE"/>
<path d="M95.8232 62.9496L106.299 68.9938L113.97 64.5618L103.501 58.5176L95.8232 62.9496Z" fill="#CEE8ED"/>
<path d="M106.299 68.9938L116.768 75.038L124.446 70.6132L113.97 64.5619L106.299 68.9938Z" fill="#98C7CB"/>
<path d="M98.6211 73.4258L109.097 79.47L116.768 75.038L106.299 68.9938L98.6211 73.4258Z" fill="#AAD8DE"/>
<path d="M129.318 55.7051L139.787 61.7493L147.465 57.3245L136.989 51.2732L129.318 55.7051Z" fill="#98C7CB"/>
<path d="M121.64 60.137L132.116 66.1812L139.787 61.7493L129.318 55.7051L121.64 60.137Z" fill="#AAD8DE"/>
<path d="M113.97 64.5619L124.446 70.6131L132.117 66.1812L121.64 60.137L113.97 64.5619Z" fill="#9BD2DC"/>
<path d="M78.4077 97.1906L88.8768 103.235L96.5545 98.81L86.0784 92.7587L78.4077 97.1906Z" fill="#98C7CB"/>
<path d="M81.2061 107.667L91.6751 113.711L99.3528 109.286L88.8767 103.235L81.2061 107.667Z" fill="#98C7CB"/>
<path d="M109.097 79.4699L119.573 85.5141L127.244 81.0893L116.768 75.038L109.097 79.4699Z" fill="#98C7CB"/>
<path d="M165.604 58.9367L176.081 64.9809L183.751 60.5561L173.282 54.5048L165.604 58.9367Z" fill="#8BBFC0"/>
<path d="M104.225 94.378L114.694 100.422L122.372 95.9903L111.896 89.9461L104.225 94.378Z" fill="#98C7CB"/>
<path d="M70.73 101.622L81.2061 107.667L88.8768 103.235L78.4077 97.1906L70.73 101.622Z" fill="#AAD8DE"/>
<path d="M73.5781 112.099L84.0542 118.143L91.7249 113.711L81.2488 107.667L73.5781 112.099Z" fill="#AAD8DE"/>
<path d="M101.427 83.9018L111.896 89.946L119.574 85.5141L109.097 79.4699L101.427 83.9018Z" fill="#95CBD0"/>
<path d="M63.0591 106.047L73.5352 112.099L81.2059 107.667L70.7297 101.622L63.0591 106.047Z" fill="#9BD2DC"/>
<path d="M86.0786 92.7586L96.5547 98.8099L104.225 94.378L93.7493 88.3338L86.0786 92.7586Z" fill="#AAD8DE"/>
<path d="M88.877 103.235L99.3531 109.286L107.024 104.854L96.5547 98.8099L88.877 103.235Z" fill="#95CBD0"/>
<path d="M93.749 88.3338L104.225 94.378L111.896 89.946L101.427 83.9019L93.749 88.3338Z" fill="#CEE8ED"/>
<path d="M96.5542 98.8099L107.023 104.854L114.694 100.422L104.225 94.3779L96.5542 98.8099Z" fill="#9BD2DC"/>
<path d="M111.896 89.9461L122.372 95.9903L130.042 91.5655L119.573 85.5142L111.896 89.9461Z" fill="#9BD2DC"/>
<path d="M132.116 66.1813L142.585 72.2255L150.263 67.8006L139.787 61.7493L132.116 66.1813Z" fill="#98C7CB"/>
<path d="M124.446 70.6132L134.915 76.6574L142.585 72.2255L132.116 66.1813L124.446 70.6132Z" fill="#AAD8DE"/>
<path d="M155.135 52.8925L165.604 58.9367L173.282 54.5048L162.806 48.4606L155.135 52.8925Z" fill="#AAD8DE"/>
<path d="M116.768 75.038L127.244 81.0893L134.915 76.6574L124.446 70.6132L116.768 75.038Z" fill="#CEE8ED"/>
<path d="M139.787 61.7494L150.263 67.8006L157.934 63.3687L147.465 57.3245L139.787 61.7494Z" fill="#95CBD0"/>
<path d="M127.244 81.0893L137.713 87.1335L145.391 82.7015L134.915 76.6573L127.244 81.0893Z" fill="#98C7CB"/>
<path d="M119.574 85.5141L130.043 91.5654L137.713 87.1335L127.244 81.0893L119.574 85.5141Z" fill="#AAD8DE"/>
<path d="M150.263 67.8006L160.732 73.8448L168.41 69.4128L157.934 63.3687L150.263 67.8006Z" fill="#98C7CB"/>
<path d="M142.585 72.2254L153.062 78.2767L160.732 73.8448L150.263 67.8006L142.585 72.2254Z" fill="#AAD8DE"/>
<path d="M134.915 76.6573L145.391 82.7015L153.062 78.2767L142.586 72.2254L134.915 76.6573Z" fill="#CEE8ED"/>
<path d="M157.934 63.3686L168.41 69.4128L176.081 64.9809L165.605 58.9367L157.934 63.3686Z" fill="#AAD8DE"/>
<path d="M147.465 57.3244L157.934 63.3686L165.605 58.9367L155.135 52.8925L147.465 57.3244Z" fill="#CEE8ED"/>
<path d="M173.282 54.5048L183.751 60.5561L191.429 56.1242L180.953 50.08L173.282 54.5048Z" fill="#CEE8ED"/>
<path d="M99.353 109.286L109.822 115.33L117.5 110.898L107.024 104.854L99.353 109.286Z" fill="#98C7CB"/>
<path d="M102.151 119.762L112.627 125.806L120.298 121.374L109.822 115.33L102.151 119.762Z" fill="#8BBFC0"/>
<path d="M130.042 91.5655L140.519 97.6097L148.189 93.1777L137.713 87.1335L130.042 91.5655Z" fill="#8BBFC0"/>
<path d="M186.55 71.0322L197.026 77.0764L204.697 72.6445L194.228 66.6003L186.55 71.0322Z" fill="#98C7CB"/>
<path d="M125.17 106.473L135.639 112.518L143.317 108.086L132.841 102.042L125.17 106.473Z" fill="#98C7CB"/>
<path d="M91.6753 113.711L102.151 119.762L109.822 115.33L99.353 109.286L91.6753 113.711Z" fill="#AAD8DE"/>
<path d="M94.5229 124.187L104.999 130.238L112.67 125.806L102.194 119.762L94.5229 124.187Z" fill="#AAD8DE"/>
<path d="M122.372 95.9903L132.841 102.042L140.518 97.6096L130.042 91.5654L122.372 95.9903Z" fill="#AAD8DE"/>
<path d="M84.0044 118.143L94.4805 124.187L102.151 119.762L91.6751 113.711L84.0044 118.143Z" fill="#CEE8ED"/>
<path d="M107.023 104.854L117.5 110.898L125.17 106.473L114.694 100.422L107.023 104.854Z" fill="#AAD8DE"/>
<path d="M109.822 115.33L120.298 121.375L127.969 116.95L117.5 110.898L109.822 115.33Z" fill="#AAD8DE"/>
<path d="M114.694 100.422L125.17 106.473L132.841 102.042L122.372 95.9902L114.694 100.422Z" fill="#CEE8ED"/>
<path d="M117.5 110.898L127.969 116.95L135.639 112.518L125.17 106.474L117.5 110.898Z" fill="#9BD2DC"/>
<path d="M132.841 102.041L143.317 108.086L150.988 103.654L140.519 97.6096L132.841 102.041Z" fill="#CEE8ED"/>
<path d="M153.062 78.2767L163.538 84.3209L171.208 79.889L160.732 73.8448L153.062 78.2767Z" fill="#8BBFC0"/>
<path d="M183.751 60.5561L194.227 66.6003L201.898 62.1684L191.429 56.1242L183.751 60.5561Z" fill="#98C7CB"/>
<path d="M145.391 82.7016L155.86 88.7529L163.538 84.3209L153.062 78.2767L145.391 82.7016Z" fill="#AAD8DE"/>
<path d="M176.081 64.9809L186.55 71.0322L194.227 66.6003L183.751 60.5561L176.081 64.9809Z" fill="#AAD8DE"/>
<path d="M137.713 87.1335L148.189 93.1777L155.86 88.7529L145.391 82.7016L137.713 87.1335Z" fill="#CEE8ED"/>
<path d="M160.732 73.8448L171.209 79.889L178.879 75.457L168.41 69.4128L160.732 73.8448Z" fill="#AAD8DE"/>
<path d="M148.189 93.1777L158.658 99.229L166.336 94.7971L155.86 88.7529L148.189 93.1777Z" fill="#98C7CB"/>
<path d="M140.519 97.6095L150.988 103.654L158.658 99.2289L148.189 93.1776L140.519 97.6095Z" fill="#AAD8DE"/>
<path d="M171.208 79.889L181.677 85.9403L189.355 81.5083L178.879 75.457L171.208 79.889Z" fill="#98C7CB"/>
<path d="M163.538 84.321L174.007 90.3652L181.677 85.9403L171.208 79.889L163.538 84.321Z" fill="#AAD8DE"/>
<path d="M155.86 88.7529L166.336 94.797L174.007 90.3651L163.538 84.3209L155.86 88.7529Z" fill="#CEE8ED"/>
<path d="M178.879 75.4571L189.355 81.5084L197.026 77.0764L186.55 71.0322L178.879 75.4571Z" fill="#AAD8DE"/>
<path d="M168.41 69.4129L178.879 75.4571L186.55 71.0323L176.081 64.981L168.41 69.4129Z" fill="#9BD2DC"/>
<path d="M194.228 66.6003L204.697 72.6445L212.374 68.2196L201.898 62.1683L194.228 66.6003Z" fill="#CEE8ED"/>
<path d="M16.2969 96.7715L26.7659 102.816L34.4436 98.3909L23.9675 92.3396L16.2969 96.7715Z" fill="#8BBFC0"/>
<path d="M-17.1987 104.016L-6.72261 110.06L0.948047 105.628L-9.52098 99.5841L-17.1987 104.016Z" fill="#98C7CB"/>
<path d="M13.498 86.2954L23.9671 92.3396L31.6448 87.9077L21.1687 81.8635L13.498 86.2954Z" fill="#98C7CB"/>
<path d="M5.8208 90.7273L16.2969 96.7715L23.9676 92.3396L13.4986 86.2954L5.8208 90.7273Z" fill="#AAD8DE"/>
<path d="M-9.52051 99.5841L0.948516 105.628L8.62627 101.203L-1.84985 95.1522L-9.52051 99.5841Z" fill="#AAD8DE"/>
<path d="M0.94873 105.628L11.4249 111.68L19.0955 107.248L8.62648 101.203L0.94873 105.628Z" fill="#98C7CB"/>
<path d="M-6.72217 110.06L3.74685 116.104L11.4246 111.68L0.948487 105.628L-6.72217 110.06Z" fill="#AAD8DE"/>
<path d="M-14.3931 114.492L-3.92404 120.536L3.7466 116.104L-6.72241 110.06L-14.3931 114.492Z" fill="#CEE8ED"/>
<path d="M8.62598 101.203L19.095 107.248L26.7656 102.816L16.2966 96.7715L8.62598 101.203Z" fill="#AAD8DE"/>
<path d="M-1.8501 95.1521L8.62603 101.203L16.2967 96.7715L5.82056 90.7273L-1.8501 95.1521Z" fill="#CEE8ED"/>
<path d="M23.9673 92.3397L34.4434 98.3909L42.1141 93.959L31.645 87.9077L23.9673 92.3397Z" fill="#CEE8ED"/>
<path d="M37.2417 108.867L47.7107 114.911L55.3885 110.479L44.9123 104.435L37.2417 108.867Z" fill="#98C7CB"/>
<path d="M-16.4668 139.876L-5.99778 145.921L1.67998 141.489L-8.79614 135.444L-16.4668 139.876Z" fill="#9BD2DC"/>
<path d="M3.74658 116.104L14.2227 122.156L21.8934 117.724L11.4243 111.68L3.74658 116.104Z" fill="#8BBFC0"/>
<path d="M34.4434 98.3909L44.9124 104.435L52.5901 100.003L42.114 93.959L34.4434 98.3909Z" fill="#98C7CB"/>
<path d="M-3.92432 120.536L6.55181 126.58L14.2225 122.156L3.74633 116.104L-3.92432 120.536Z" fill="#AAD8DE"/>
<path d="M26.7656 102.816L37.2417 108.867L44.9124 104.435L34.4434 98.3909L26.7656 102.816Z" fill="#AAD8DE"/>
<path d="M-11.5947 124.968L-1.12571 131.012L6.55205 126.581L-3.92407 120.536L-11.5947 124.968Z" fill="#CEE8ED"/>
<path d="M11.4243 111.68L21.8933 117.724L29.5711 113.292L19.095 107.248L11.4243 111.68Z" fill="#AAD8DE"/>
<path d="M-1.12549 131.013L9.35063 137.064L17.0213 132.632L6.55228 126.581L-1.12549 131.013Z" fill="#98C7CB"/>
<path d="M-8.79639 135.444L1.67974 141.489L9.35038 137.064L-1.12574 131.013L-8.79639 135.444Z" fill="#AAD8DE"/>
<path d="M21.8936 117.724L32.3697 123.768L40.0403 119.343L29.5713 113.292L21.8936 117.724Z" fill="#98C7CB"/>
<path d="M14.2227 122.156L24.6988 128.2L32.3694 123.768L21.8933 117.724L14.2227 122.156Z" fill="#AAD8DE"/>
<path d="M6.55225 126.581L17.0213 132.632L24.699 128.2L14.2229 122.156L6.55225 126.581Z" fill="#9BD2DC"/>
<path d="M29.5713 113.292L40.0403 119.343L47.7109 114.911L37.2419 108.867L29.5713 113.292Z" fill="#AAD8DE"/>
<path d="M19.0952 107.248L29.5713 113.292L37.242 108.867L26.7659 102.816L19.0952 107.248Z" fill="#9BD2DC"/>
<path d="M44.9126 104.435L55.3887 110.479L63.0594 106.047L52.5904 100.003L44.9126 104.435Z" fill="#9BD2DC"/>
<path d="M1.67969 141.489L12.1487 147.54L19.8194 143.108L9.35033 137.064L1.67969 141.489Z" fill="#98C7CB"/>
<path d="M58.187 120.955L68.6631 127.007L76.3338 122.575L65.8577 116.523L58.187 120.955Z" fill="#8BBFC0"/>
<path d="M-3.19971 156.397L7.27642 162.441L14.9471 158.016L4.47805 151.965L-3.19971 156.397Z" fill="#98C7CB"/>
<path d="M-5.99805 145.921L4.47808 151.965L12.1487 147.54L1.67972 141.489L-5.99805 145.921Z" fill="#95CBD0"/>
<path d="M-13.6689 150.352L-3.19993 156.397L4.47782 151.965L-5.9983 145.921L-13.6689 150.352Z" fill="#CEE8ED"/>
<path d="M-10.8701 160.829L-0.393994 166.873L7.27665 162.441L-3.19947 156.397L-10.8701 160.829Z" fill="#9BD2DC"/>
<path d="M4.47852 151.965L14.9475 158.016L22.6253 153.584L12.1492 147.54L4.47852 151.965Z" fill="#9BD2DC"/>
<path d="M24.6987 128.2L35.1678 134.244L42.8384 129.819L32.3694 123.768L24.6987 128.2Z" fill="#98C7CB"/>
<path d="M55.3887 110.479L65.8577 116.523L73.5355 112.099L63.0593 106.047L55.3887 110.479Z" fill="#98C7CB"/>
<path d="M17.021 132.632L27.4971 138.676L35.1678 134.244L24.6988 128.2L17.021 132.632Z" fill="#AAD8DE"/>
<path d="M47.7109 114.911L58.1871 120.955L65.8577 116.523L55.3887 110.479L47.7109 114.911Z" fill="#AAD8DE"/>
<path d="M9.35059 137.064L19.8196 143.108L27.4974 138.676L17.0212 132.632L9.35059 137.064Z" fill="#CEE8ED"/>
<path d="M32.3696 123.768L42.8386 129.819L50.5164 125.387L40.0403 119.343L32.3696 123.768Z" fill="#95CBD0"/>
<path d="M19.8193 143.108L30.2955 149.152L37.9661 144.72L27.4971 138.676L19.8193 143.108Z" fill="#98C7CB"/>
<path d="M12.1489 147.54L22.625 153.584L30.2957 149.152L19.8196 143.108L12.1489 147.54Z" fill="#AAD8DE"/>
<path d="M42.8384 129.819L53.3145 135.863L60.9851 131.431L50.5161 125.387L42.8384 129.819Z" fill="#98C7CB"/>
<path d="M35.168 134.244L45.6441 140.295L53.3147 135.863L42.8386 129.819L35.168 134.244Z" fill="#AAD8DE"/>
<path d="M27.4971 138.676L37.9661 144.72L45.6439 140.295L35.1677 134.244L27.4971 138.676Z" fill="#CEE8ED"/>
<path d="M50.5161 125.387L60.9851 131.432L68.6629 127.007L58.1868 120.955L50.5161 125.387Z" fill="#AAD8DE"/>
<path d="M40.0405 119.343L50.5167 125.387L58.1873 120.955L47.7112 114.911L40.0405 119.343Z" fill="#CEE8ED"/>
<path d="M65.8574 116.524L76.3335 122.575L84.0042 118.143L73.5352 112.099L65.8574 116.524Z" fill="#CEE8ED"/>
<path d="M-8.07178 171.305L2.40435 177.349L10.075 172.917L-0.394013 166.873L-8.07178 171.305Z" fill="#98C7CB"/>
<path d="M-5.2666 181.781L5.20241 187.825L12.8731 183.393L2.40404 177.349L-5.2666 181.781Z" fill="#8BBFC0"/>
<path d="M22.625 153.584L33.094 159.628L40.7647 155.196L30.2957 149.152L22.625 153.584Z" fill="#8BBFC0"/>
<path d="M79.1323 133.051L89.6084 139.095L97.2791 134.663L86.803 128.619L79.1323 133.051Z" fill="#98C7CB"/>
<path d="M17.7529 168.492L28.222 174.536L35.8926 170.104L25.4236 164.06L17.7529 168.492Z" fill="#98C7CB"/>
<path d="M-15.7427 175.73L-5.26655 181.781L2.40409 177.349L-8.07203 171.305L-15.7427 175.73Z" fill="#AAD8DE"/>
<path d="M-12.8945 186.213L-2.42551 192.257L5.25225 187.825L-5.22388 181.781L-12.8945 186.213Z" fill="#AAD8DE"/>
<path d="M14.9473 158.016L25.4234 164.06L33.094 159.628L22.625 153.584L14.9473 158.016Z" fill="#AAD8DE"/>
<path d="M-0.394043 166.873L10.075 172.917L17.7527 168.492L7.2766 162.441L-0.394043 166.873Z" fill="#AAD8DE"/>
<path d="M2.4043 177.349L12.8733 183.393L20.5511 178.968L10.075 172.917L2.4043 177.349Z" fill="#AAD8DE"/>
<path d="M7.27686 162.441L17.753 168.492L25.4236 164.06L14.9475 158.016L7.27686 162.441Z" fill="#CEE8ED"/>
<path d="M10.0747 172.917L20.5508 178.968L28.2215 174.536L17.7525 168.492L10.0747 172.917Z" fill="#9BD2DC"/>
<path d="M25.4233 164.06L35.8924 170.104L43.5701 165.68L33.094 159.628L25.4233 164.06Z" fill="#CEE8ED"/>
<path d="M45.644 140.295L56.1131 146.34L63.7837 141.908L53.3147 135.863L45.644 140.295Z" fill="#8BBFC0"/>
<path d="M76.3335 122.575L86.8025 128.619L94.4803 124.187L84.0041 118.143L76.3335 122.575Z" fill="#98C7CB"/>
<path d="M37.9663 144.72L48.4424 150.771L56.1131 146.34L45.6441 140.295L37.9663 144.72Z" fill="#AAD8DE"/>
<path d="M68.6631 127.007L79.1321 133.051L86.8028 128.619L76.3338 122.575L68.6631 127.007Z" fill="#AAD8DE"/>
<path d="M30.2959 149.152L40.7649 155.196L48.4427 150.772L37.9665 144.72L30.2959 149.152Z" fill="#CEE8ED"/>
<path d="M53.3149 135.863L63.784 141.908L71.4617 137.483L60.9856 131.432L53.3149 135.863Z" fill="#AAD8DE"/>
<path d="M40.7646 155.196L51.2408 161.248L58.9114 156.816L48.4424 150.771L40.7646 155.196Z" fill="#98C7CB"/>
<path d="M33.0942 159.628L43.5704 165.68L51.241 161.248L40.7649 155.196L33.0942 159.628Z" fill="#AAD8DE"/>
<path d="M63.7837 141.908L74.2598 147.959L81.9305 143.527L71.4614 137.483L63.7837 141.908Z" fill="#98C7CB"/>
<path d="M56.1128 146.34L66.5889 152.384L74.2596 147.959L63.7834 141.908L56.1128 146.34Z" fill="#AAD8DE"/>
<path d="M48.4424 150.771L58.9114 156.816L66.5892 152.384L56.113 146.34L48.4424 150.771Z" fill="#CEE8ED"/>
<path d="M71.4614 137.483L81.9305 143.527L89.6082 139.095L79.1321 133.051L71.4614 137.483Z" fill="#AAD8DE"/>
<path d="M60.9854 131.431L71.4615 137.483L79.1321 133.051L68.6631 127.007L60.9854 131.431Z" fill="#9BD2DC"/>
<path d="M86.8027 128.619L97.2789 134.663L104.95 130.238L94.4805 124.187L86.8027 128.619Z" fill="#CEE8ED"/>
<path d="M120.298 121.374L130.767 127.426L138.445 122.994L127.968 116.95L120.298 121.374Z" fill="#98C7CB"/>
<path d="M123.096 131.85L133.572 137.902L141.243 133.47L130.767 127.426L123.096 131.85Z" fill="#98C7CB"/>
<path d="M150.988 103.654L161.464 109.705L169.135 105.273L158.658 99.229L150.988 103.654Z" fill="#98C7CB"/>
<path d="M207.502 83.1206L217.971 89.1719L225.642 84.7399L215.173 78.6957L207.502 83.1206Z" fill="#8BBFC0"/>
<path d="M146.115 118.562L156.591 124.613L164.262 120.181L153.786 114.13L146.115 118.562Z" fill="#98C7CB"/>
<path d="M112.627 125.806L123.096 131.851L130.767 127.426L120.298 121.374L112.627 125.806Z" fill="#AAD8DE"/>
<path d="M115.468 136.283L125.944 142.327L133.615 137.902L123.146 131.851L115.468 136.283Z" fill="#AAD8DE"/>
<path d="M143.317 108.086L153.786 114.13L161.464 109.705L150.988 103.654L143.317 108.086Z" fill="#AAD8DE"/>
<path d="M104.949 130.238L115.425 136.283L123.096 131.851L112.627 125.806L104.949 130.238Z" fill="#CEE8ED"/>
<path d="M127.968 116.95L138.444 122.994L146.115 118.562L135.639 112.518L127.968 116.95Z" fill="#AAD8DE"/>
<path d="M130.767 127.426L141.243 133.47L148.914 129.038L138.445 122.994L130.767 127.426Z" fill="#AAD8DE"/>
<path d="M135.639 112.518L146.115 118.562L153.786 114.13L143.317 108.086L135.639 112.518Z" fill="#9BD2DC"/>
<path d="M138.445 122.994L148.914 129.038L156.592 124.613L146.115 118.562L138.445 122.994Z" fill="#CEE8ED"/>
<path d="M153.786 114.13L164.262 120.181L171.933 115.749L161.464 109.705L153.786 114.13Z" fill="#CEE8ED"/>
<path d="M174.007 90.3651L184.483 96.4164L192.154 91.9845L181.678 85.9403L174.007 90.3651Z" fill="#98C7CB"/>
<path d="M204.697 72.6445L215.173 78.6958L222.844 74.2639L212.375 68.2197L204.697 72.6445Z" fill="#98C7CB"/>
<path d="M166.336 94.797L176.805 100.841L184.483 96.4164L174.007 90.3651L166.336 94.797Z" fill="#AAD8DE"/>
<path d="M197.026 77.0763L207.502 83.1205L215.173 78.6957L204.697 72.6444L197.026 77.0763Z" fill="#AAD8DE"/>
<path d="M158.659 99.229L169.135 105.273L176.805 100.841L166.336 94.7971L158.659 99.229Z" fill="#CEE8ED"/>
<path d="M181.677 85.9402L192.153 91.9844L199.824 87.5525L189.355 81.5083L181.677 85.9402Z" fill="#AAD8DE"/>
<path d="M169.135 105.273L179.611 111.317L187.282 106.893L176.805 100.841L169.135 105.273Z" fill="#98C7CB"/>
<path d="M161.464 109.705L171.933 115.749L179.611 111.317L169.135 105.273L161.464 109.705Z" fill="#AAD8DE"/>
<path d="M192.153 91.9845L202.622 98.0287L210.3 93.5967L199.824 87.5526L192.153 91.9845Z" fill="#98C7CB"/>
<path d="M184.483 96.4164L194.952 102.461L202.623 98.0286L192.154 91.9844L184.483 96.4164Z" fill="#AAD8DE"/>
<path d="M176.805 100.841L187.281 106.893L194.952 102.461L184.483 96.4164L176.805 100.841Z" fill="#CEE8ED"/>
<path d="M199.824 87.5525L210.3 93.5967L217.971 89.1718L207.502 83.1205L199.824 87.5525Z" fill="#AAD8DE"/>
<path d="M189.355 81.5084L199.824 87.5525L207.502 83.1206L197.026 77.0764L189.355 81.5084Z" fill="#CEE8ED"/>
<path d="M215.173 78.6957L225.642 84.7399L233.32 80.308L222.843 74.2638L215.173 78.6957Z" fill="#CEE8ED"/>
<path d="M141.243 133.47L151.712 139.514L159.39 135.089L148.914 129.038L141.243 133.47Z" fill="#98C7CB"/>
<path d="M144.042 143.946L154.518 149.99L162.188 145.565L151.712 139.514L144.042 143.946Z" fill="#8BBFC0"/>
<path d="M171.933 115.749L182.409 121.793L190.08 117.369L179.611 111.317L171.933 115.749Z" fill="#8BBFC0"/>
<path d="M228.447 95.2161L238.916 101.26L246.587 96.8354L236.118 90.7841L228.447 95.2161Z" fill="#98C7CB"/>
<path d="M167.061 130.657L177.537 136.702L185.207 132.27L174.731 126.225L167.061 130.657Z" fill="#98C7CB"/>
<path d="M133.572 137.902L144.041 143.946L151.712 139.514L141.243 133.47L133.572 137.902Z" fill="#AAD8DE"/>
<path d="M136.414 148.378L146.89 154.422L154.56 149.99L144.091 143.946L136.414 148.378Z" fill="#AAD8DE"/>
<path d="M164.262 120.181L174.731 126.225L182.409 121.793L171.933 115.749L164.262 120.181Z" fill="#AAD8DE"/>
<path d="M125.895 142.327L136.371 148.378L144.041 143.946L133.572 137.902L125.895 142.327Z" fill="#CEE8ED"/>
<path d="M148.914 129.038L159.39 135.089L167.06 130.657L156.591 124.613L148.914 129.038Z" fill="#AAD8DE"/>
<path d="M151.712 139.514L162.189 145.565L169.859 141.133L159.39 135.089L151.712 139.514Z" fill="#AAD8DE"/>
<path d="M156.591 124.613L167.06 130.657L174.731 126.225L164.262 120.181L156.591 124.613Z" fill="#9BD2DC"/>
<path d="M159.39 135.089L169.859 141.133L177.537 136.702L167.061 130.657L159.39 135.089Z" fill="#CEE8ED"/>
<path d="M174.731 126.225L185.207 132.27L192.878 127.845L182.409 121.794L174.731 126.225Z" fill="#9BD2DC"/>
<path d="M194.952 102.461L205.428 108.505L213.098 104.073L202.622 98.0287L194.952 102.461Z" fill="#8BBFC0"/>
<path d="M225.642 84.7399L236.118 90.7841L243.788 86.3593L233.319 80.308L225.642 84.7399Z" fill="#98C7CB"/>
<path d="M187.281 106.892L197.75 112.937L205.428 108.505L194.952 102.461L187.281 106.892Z" fill="#AAD8DE"/>
<path d="M217.971 89.1719L228.447 95.2161L236.118 90.7842L225.642 84.74L217.971 89.1719Z" fill="#AAD8DE"/>
<path d="M179.61 111.317L190.079 117.369L197.75 112.937L187.281 106.893L179.61 111.317Z" fill="#CEE8ED"/>
<path d="M202.623 98.0286L213.099 104.073L220.769 99.648L210.3 93.5967L202.623 98.0286Z" fill="#AAD8DE"/>
<path d="M190.08 117.369L200.556 123.413L208.226 118.981L197.75 112.937L190.08 117.369Z" fill="#98C7CB"/>
<path d="M182.409 121.793L192.878 127.845L200.556 123.413L190.08 117.369L182.409 121.793Z" fill="#AAD8DE"/>
<path d="M213.099 104.073L223.575 110.124L231.245 105.692L220.769 99.648L213.099 104.073Z" fill="#98C7CB"/>
<path d="M205.428 108.505L215.897 114.556L223.575 110.124L213.098 104.073L205.428 108.505Z" fill="#AAD8DE"/>
<path d="M197.75 112.937L208.226 118.981L215.897 114.556L205.428 108.505L197.75 112.937Z" fill="#9BD2DC"/>
<path d="M220.769 99.648L231.245 105.692L238.916 101.26L228.447 95.2161L220.769 99.648Z" fill="#AAD8DE"/>
<path d="M210.3 93.5968L220.769 99.6481L228.447 95.2161L217.971 89.1719L210.3 93.5968Z" fill="#9BD2DC"/>
<path d="M236.118 90.7842L246.587 96.8355L254.264 92.4036L243.788 86.3594L236.118 90.7842Z" fill="#9BD2DC"/>
<path d="M162.188 145.565L172.665 151.61L180.335 147.178L169.859 141.133L162.188 145.565Z" fill="#98C7CB"/>
<path d="M164.987 156.041L175.463 162.086L183.134 157.654L172.665 151.61L164.987 156.041Z" fill="#98C7CB"/>
<path d="M192.878 127.845L203.354 133.889L211.025 129.457L200.556 123.413L192.878 127.845Z" fill="#98C7CB"/>
<path d="M249.392 107.312L259.861 113.356L267.539 108.924L257.063 102.88L249.392 107.312Z" fill="#8BBFC0"/>
<path d="M188.005 142.746L198.481 148.797L206.152 144.365L195.676 138.321L188.005 142.746Z" fill="#98C7CB"/>
<path d="M154.518 149.99L164.987 156.041L172.664 151.61L162.188 145.565L154.518 149.99Z" fill="#AAD8DE"/>
<path d="M157.358 160.466L167.835 166.518L175.505 162.086L165.036 156.042L157.358 160.466Z" fill="#AAD8DE"/>
<path d="M185.208 132.27L195.677 138.321L203.354 133.889L192.878 127.845L185.208 132.27Z" fill="#95CBD0"/>
<path d="M146.84 154.422L157.316 160.466L164.987 156.042L154.518 149.99L146.84 154.422Z" fill="#9BD2DC"/>
<path d="M169.859 141.133L180.335 147.178L188.006 142.746L177.537 136.702L169.859 141.133Z" fill="#AAD8DE"/>
<path d="M172.665 151.61L183.134 157.654L190.804 153.229L180.335 147.178L172.665 151.61Z" fill="#95CBD0"/>
<path d="M177.537 136.702L188.006 142.746L195.676 138.321L185.207 132.27L177.537 136.702Z" fill="#CEE8ED"/>
<path d="M180.335 147.178L190.804 153.229L198.482 148.797L188.006 142.746L180.335 147.178Z" fill="#9BD2DC"/>
<path d="M195.676 138.321L206.152 144.365L213.823 139.933L203.354 133.889L195.676 138.321Z" fill="#9BD2DC"/>
<path d="M215.897 114.556L226.373 120.6L234.044 116.168L223.575 110.124L215.897 114.556Z" fill="#98C7CB"/>
<path d="M246.587 96.8354L257.063 102.88L264.734 98.4477L254.265 92.4035L246.587 96.8354Z" fill="#98C7CB"/>
<path d="M208.226 118.981L218.695 125.032L226.373 120.6L215.897 114.556L208.226 118.981Z" fill="#AAD8DE"/>
<path d="M238.916 101.26L249.392 107.312L257.063 102.88L246.587 96.8354L238.916 101.26Z" fill="#AAD8DE"/>
<path d="M200.556 123.413L211.025 129.457L218.695 125.032L208.226 118.981L200.556 123.413Z" fill="#CEE8ED"/>
<path d="M223.575 110.124L234.044 116.168L241.715 111.736L231.246 105.692L223.575 110.124Z" fill="#95CBD0"/>
<path d="M211.025 129.457L221.501 135.508L229.172 131.076L218.696 125.032L211.025 129.457Z" fill="#98C7CB"/>
<path d="M203.354 133.889L213.823 139.933L221.501 135.508L211.025 129.457L203.354 133.889Z" fill="#AAD8DE"/>
<path d="M234.044 116.168L244.52 122.213L252.191 117.788L241.715 111.736L234.044 116.168Z" fill="#98C7CB"/>
<path d="M226.373 120.6L236.842 126.644L244.52 122.213L234.044 116.168L226.373 120.6Z" fill="#AAD8DE"/>
<path d="M218.695 125.032L229.171 131.076L236.842 126.644L226.373 120.6L218.695 125.032Z" fill="#CEE8ED"/>
<path d="M241.714 111.736L252.19 117.788L259.861 113.356L249.392 107.312L241.714 111.736Z" fill="#AAD8DE"/>
<path d="M231.246 105.692L241.715 111.736L249.392 107.312L238.916 101.26L231.246 105.692Z" fill="#CEE8ED"/>
<path d="M257.063 102.88L267.539 108.924L275.21 104.499L264.734 98.4477L257.063 102.88Z" fill="#CEE8ED"/>
<path d="M183.133 157.654L193.609 163.705L201.28 159.273L190.804 153.229L183.133 157.654Z" fill="#98C7CB"/>
<path d="M185.932 168.13L196.408 174.181L204.079 169.749L193.61 163.705L185.932 168.13Z" fill="#8BBFC0"/>
<path d="M213.823 139.933L224.299 145.984L231.97 141.552L221.501 135.508L213.823 139.933Z" fill="#8BBFC0"/>
<path d="M270.337 119.4L280.806 125.451L288.484 121.019L278.008 114.975L270.337 119.4Z" fill="#98C7CB"/>
<path d="M208.951 154.841L219.427 160.885L227.097 156.461L216.628 150.409L208.951 154.841Z" fill="#98C7CB"/>
<path d="M175.463 162.086L185.932 168.13L193.61 163.705L183.134 157.654L175.463 162.086Z" fill="#AAD8DE"/>
<path d="M178.304 172.562L188.78 178.606L196.45 174.181L185.981 168.13L178.304 172.562Z" fill="#AAD8DE"/>
<path d="M206.152 144.365L216.628 150.409L224.299 145.984L213.823 139.933L206.152 144.365Z" fill="#AAD8DE"/>
<path d="M167.785 166.518L178.261 172.562L185.932 168.13L175.463 162.086L167.785 166.518Z" fill="#CEE8ED"/>
<path d="M190.804 153.229L201.28 159.273L208.951 154.841L198.482 148.797L190.804 153.229Z" fill="#AAD8DE"/>
<path d="M193.609 163.705L204.078 169.749L211.749 165.317L201.28 159.273L193.609 163.705Z" fill="#AAD8DE"/>
<path d="M198.481 148.797L208.95 154.841L216.628 150.409L206.152 144.365L198.481 148.797Z" fill="#CEE8ED"/>
<path d="M201.28 159.273L211.749 165.317L219.427 160.885L208.951 154.841L201.28 159.273Z" fill="#9BD2DC"/>
<path d="M216.628 150.409L227.097 156.461L234.768 152.029L224.299 145.984L216.628 150.409Z" fill="#CEE8ED"/>
<path d="M236.842 126.644L247.318 132.696L254.989 128.264L244.52 122.213L236.842 126.644Z" fill="#8BBFC0"/>
<path d="M267.539 108.924L278.008 114.975L285.679 110.543L275.21 104.499L267.539 108.924Z" fill="#98C7CB"/>
<path d="M229.171 131.076L239.64 137.121L247.318 132.696L236.842 126.644L229.171 131.076Z" fill="#AAD8DE"/>
<path d="M259.861 113.356L270.337 119.4L278.008 114.975L267.539 108.924L259.861 113.356Z" fill="#AAD8DE"/>
<path d="M221.501 135.508L231.97 141.552L239.641 137.121L229.172 131.076L221.501 135.508Z" fill="#CEE8ED"/>
<path d="M244.52 122.213L254.989 128.264L262.66 123.832L252.191 117.788L244.52 122.213Z" fill="#AAD8DE"/>
<path d="M231.97 141.553L242.446 147.597L250.117 143.172L239.64 137.121L231.97 141.553Z" fill="#98C7CB"/>
<path d="M224.299 145.984L234.768 152.029L242.446 147.597L231.97 141.552L224.299 145.984Z" fill="#AAD8DE"/>
<path d="M254.989 128.264L265.465 134.308L273.136 129.876L262.659 123.832L254.989 128.264Z" fill="#98C7CB"/>
<path d="M247.318 132.696L257.787 138.74L265.465 134.308L254.989 128.264L247.318 132.696Z" fill="#AAD8DE"/>
<path d="M239.641 137.121L250.117 143.172L257.787 138.74L247.318 132.696L239.641 137.121Z" fill="#CEE8ED"/>
<path d="M262.66 123.832L273.136 129.876L280.806 125.451L270.337 119.4L262.66 123.832Z" fill="#AAD8DE"/>
<path d="M252.191 117.788L262.66 123.832L270.338 119.4L259.862 113.356L252.191 117.788Z" fill="#9BD2DC"/>
<path d="M278.008 114.975L288.484 121.019L296.155 116.587L285.678 110.543L278.008 114.975Z" fill="#CEE8ED"/>
<path d="M12.873 183.393L23.3492 189.444L31.0198 185.012L20.5508 178.968L12.873 183.393Z" fill="#98C7CB"/>
<path d="M15.6787 193.869L26.1477 199.921L33.8184 195.489L23.3494 189.444L15.6787 193.869Z" fill="#98C7CB"/>
<path d="M43.5703 165.68L54.0393 171.724L61.7171 167.292L51.241 161.248L43.5703 165.68Z" fill="#98C7CB"/>
<path d="M100.077 145.146L110.553 151.191L118.224 146.759L107.748 140.714L100.077 145.146Z" fill="#8BBFC0"/>
<path d="M38.6978 180.581L49.1668 186.632L56.8374 182.2L46.3684 176.156L38.6978 180.581Z" fill="#98C7CB"/>
<path d="M5.20264 187.825L15.6788 193.869L23.3494 189.444L12.8733 183.393L5.20264 187.825Z" fill="#AAD8DE"/>
<path d="M8.05078 198.301L18.5198 204.345L26.1975 199.921L15.7214 193.869L8.05078 198.301Z" fill="#AAD8DE"/>
<path d="M35.8926 170.104L46.3687 176.156L54.0393 171.724L43.5703 165.68L35.8926 170.104Z" fill="#AAD8DE"/>
<path d="M-2.46777 192.257L8.00125 198.301L15.679 193.869L5.20288 187.825L-2.46777 192.257Z" fill="#CEE8ED"/>
<path d="M20.5513 178.968L31.0203 185.012L38.698 180.58L28.2219 174.536L20.5513 178.968Z" fill="#AAD8DE"/>
<path d="M23.3496 189.444L33.8186 195.489L41.4964 191.057L31.0203 185.013L23.3496 189.444Z" fill="#AAD8DE"/>
<path d="M28.2217 174.536L38.6978 180.58L46.3685 176.156L35.8923 170.104L28.2217 174.536Z" fill="#9BD2DC"/>
<path d="M31.02 185.012L41.4961 191.057L49.1668 186.632L38.6978 180.581L31.02 185.012Z" fill="#CEE8ED"/>
<path d="M46.3687 176.156L56.8377 182.2L64.5154 177.768L54.0393 171.724L46.3687 176.156Z" fill="#CEE8ED"/>
<path d="M66.5889 152.384L77.0579 158.435L84.7285 154.003L74.2595 147.959L66.5889 152.384Z" fill="#98C7CB"/>
<path d="M97.2788 134.663L107.748 140.714L115.426 136.283L104.949 130.238L97.2788 134.663Z" fill="#98C7CB"/>
<path d="M58.9111 156.816L69.3873 162.86L77.0579 158.435L66.5889 152.384L58.9111 156.816Z" fill="#AAD8DE"/>
<path d="M89.6084 139.095L100.077 145.146L107.748 140.714L97.279 134.663L89.6084 139.095Z" fill="#AAD8DE"/>
<path d="M51.2407 161.248L61.7168 167.292L69.3875 162.86L58.9114 156.816L51.2407 161.248Z" fill="#CEE8ED"/>
<path d="M74.2598 147.959L84.7288 154.003L92.4066 149.571L81.9304 143.527L74.2598 147.959Z" fill="#AAD8DE"/>
<path d="M61.7168 167.292L72.1858 173.336L79.8565 168.911L69.3875 162.86L61.7168 167.292Z" fill="#98C7CB"/>
<path d="M54.0391 171.724L64.5152 177.768L72.1859 173.336L61.7168 167.292L54.0391 171.724Z" fill="#AAD8DE"/>
<path d="M84.7285 154.003L95.2046 160.047L102.875 155.623L92.4063 149.571L84.7285 154.003Z" fill="#98C7CB"/>
<path d="M77.0581 158.435L87.5342 164.479L95.2049 160.047L84.7288 154.003L77.0581 158.435Z" fill="#AAD8DE"/>
<path d="M69.3872 162.86L79.8562 168.911L87.534 164.479L77.0579 158.435L69.3872 162.86Z" fill="#CEE8ED"/>
<path d="M92.4067 149.571L102.876 155.622L110.554 151.191L100.077 145.146L92.4067 149.571Z" fill="#AAD8DE"/>
<path d="M81.9307 143.527L92.4068 149.571L100.077 145.146L89.6084 139.095L81.9307 143.527Z" fill="#CEE8ED"/>
<path d="M107.748 140.714L118.224 146.759L125.895 142.327L115.426 136.282L107.748 140.714Z" fill="#CEE8ED"/>
<path d="M33.8184 195.489L44.2945 201.533L51.9651 197.108L41.4961 191.057L33.8184 195.489Z" fill="#98C7CB"/>
<path d="M36.624 205.965L47.093 212.009L54.7708 207.584L44.2947 201.533L36.624 205.965Z" fill="#8BBFC0"/>
<path d="M64.5151 177.768L74.9842 183.812L82.6619 179.387L72.1858 173.336L64.5151 177.768Z" fill="#8BBFC0"/>
<path d="M121.022 157.235L131.499 163.279L139.169 158.854L128.7 152.803L121.022 157.235Z" fill="#98C7CB"/>
<path d="M59.6431 192.676L70.1121 198.72L77.7898 194.295L67.3137 188.244L59.6431 192.676Z" fill="#98C7CB"/>
<path d="M26.1479 199.92L36.6241 205.965L44.2947 201.533L33.8186 195.489L26.1479 199.92Z" fill="#AAD8DE"/>
<path d="M28.9961 210.397L39.4651 216.441L47.1429 212.009L36.6667 205.965L28.9961 210.397Z" fill="#AAD8DE"/>
<path d="M56.8374 182.2L67.3135 188.244L74.9842 183.812L64.5152 177.768L56.8374 182.2Z" fill="#AAD8DE"/>
<path d="M18.4771 204.345L28.9461 210.397L36.6238 205.965L26.1477 199.921L18.4771 204.345Z" fill="#CEE8ED"/>
<path d="M41.4961 191.057L51.9651 197.108L59.6429 192.676L49.1668 186.632L41.4961 191.057Z" fill="#AAD8DE"/>
<path d="M44.2949 201.533L54.771 207.584L62.4417 203.152L51.9656 197.108L44.2949 201.533Z" fill="#AAD8DE"/>
<path d="M49.167 186.632L59.6431 192.676L67.3138 188.244L56.8376 182.2L49.167 186.632Z" fill="#9BD2DC"/>
<path d="M51.9653 197.108L62.4415 203.152L70.1121 198.72L59.6431 192.676L51.9653 197.108Z" fill="#CEE8ED"/>
<path d="M67.3135 188.244L77.7896 194.295L85.4603 189.863L74.9841 183.812L67.3135 188.244Z" fill="#9BD2DC"/>
<path d="M87.5347 164.479L98.0037 170.523L105.681 166.099L95.2053 160.047L87.5347 164.479Z" fill="#8BBFC0"/>
<path d="M118.224 146.759L128.7 152.803L136.371 148.378L125.895 142.327L118.224 146.759Z" fill="#98C7CB"/>
<path d="M79.8564 168.911L90.3326 174.955L98.0032 170.523L87.5342 164.479L79.8564 168.911Z" fill="#AAD8DE"/>
<path d="M110.554 151.191L121.023 157.235L128.7 152.803L118.224 146.759L110.554 151.191Z" fill="#AAD8DE"/>
<path d="M72.186 173.336L82.6622 179.387L90.3328 174.955L79.8567 168.911L72.186 173.336Z" fill="#CEE8ED"/>
<path d="M95.2051 160.047L105.681 166.099L113.352 161.667L102.876 155.622L95.2051 160.047Z" fill="#AAD8DE"/>
<path d="M82.6621 179.387L93.1311 185.432L100.802 181L90.3328 174.955L82.6621 179.387Z" fill="#98C7CB"/>
<path d="M74.9844 183.812L85.4605 189.863L93.1311 185.432L82.6621 179.387L74.9844 183.812Z" fill="#AAD8DE"/>
<path d="M105.681 166.099L116.15 172.143L123.821 167.711L113.352 161.667L105.681 166.099Z" fill="#98C7CB"/>
<path d="M98.0034 170.523L108.48 176.575L116.15 172.143L105.681 166.099L98.0034 170.523Z" fill="#AAD8DE"/>
<path d="M90.3325 174.955L100.802 181L108.479 176.575L98.0032 170.523L90.3325 174.955Z" fill="#9BD2DC"/>
<path d="M113.352 161.667L123.821 167.711L131.498 163.279L121.022 157.235L113.352 161.667Z" fill="#AAD8DE"/>
<path d="M102.876 155.622L113.352 161.667L121.023 157.235L110.554 151.191L102.876 155.622Z" fill="#9BD2DC"/>
<path d="M128.7 152.803L139.169 158.854L146.839 154.422L136.37 148.378L128.7 152.803Z" fill="#9BD2DC"/>
<path d="M54.771 207.584L65.24 213.628L72.9107 209.196L62.4417 203.152L54.771 207.584Z" fill="#98C7CB"/>
<path d="M57.5688 218.06L68.0379 224.104L75.7156 219.672L65.2395 213.628L57.5688 218.06Z" fill="#98C7CB"/>
<path d="M85.4604 189.863L95.9295 195.908L103.607 191.476L93.1311 185.431L85.4604 189.863Z" fill="#98C7CB"/>
<path d="M141.968 169.33L152.444 175.374L160.115 170.942L149.646 164.898L141.968 169.33Z" fill="#8BBFC0"/>
<path d="M80.5879 204.771L91.0569 210.816L98.7347 206.384L88.2586 200.339L80.5879 204.771Z" fill="#98C7CB"/>
<path d="M47.0928 212.009L57.5689 218.06L65.2396 213.628L54.7705 207.584L47.0928 212.009Z" fill="#AAD8DE"/>
<path d="M49.9409 222.485L60.4099 228.536L68.0877 224.104L57.6116 218.06L49.9409 222.485Z" fill="#AAD8DE"/>
<path d="M77.7896 194.295L88.2586 200.34L95.9292 195.908L85.4602 189.863L77.7896 194.295Z" fill="#95CBD0"/>
<path d="M39.4224 216.441L49.8914 222.485L57.5691 218.06L47.093 212.009L39.4224 216.441Z" fill="#9BD2DC"/>
<path d="M62.4414 203.152L72.9104 209.196L80.5882 204.771L70.1121 198.72L62.4414 203.152Z" fill="#AAD8DE"/>
<path d="M65.2397 213.628L75.7159 219.672L83.3865 215.248L72.9104 209.196L65.2397 213.628Z" fill="#95CBD0"/>
<path d="M70.1118 198.72L80.5879 204.772L88.2586 200.34L77.7896 194.295L70.1118 198.72Z" fill="#CEE8ED"/>
<path d="M72.9106 209.196L83.3868 215.248L91.0574 210.816L80.5884 204.771L72.9106 209.196Z" fill="#9BD2DC"/>
<path d="M88.2588 200.34L98.7349 206.384L106.406 201.952L95.9294 195.908L88.2588 200.34Z" fill="#9BD2DC"/>
<path d="M108.479 176.575L118.949 182.619L126.626 178.187L116.15 172.143L108.479 176.575Z" fill="#98C7CB"/>
<path d="M139.169 158.854L149.645 164.898L157.316 160.466L146.84 154.422L139.169 158.854Z" fill="#98C7CB"/>
<path d="M100.802 181L111.278 187.051L118.949 182.619L108.48 176.575L100.802 181Z" fill="#AAD8DE"/>
<path d="M131.499 163.279L141.968 169.33L149.645 164.898L139.169 158.854L131.499 163.279Z" fill="#AAD8DE"/>
<path d="M93.1309 185.431L103.607 191.476L111.278 187.051L100.802 181L93.1309 185.431Z" fill="#CEE8ED"/>
<path d="M116.15 172.143L126.627 178.187L134.297 173.762L123.821 167.711L116.15 172.143Z" fill="#95CBD0"/>
<path d="M103.607 191.476L114.076 197.527L121.754 193.095L111.278 187.051L103.607 191.476Z" fill="#98C7CB"/>
<path d="M95.9297 195.908L106.406 201.952L114.076 197.527L103.607 191.476L95.9297 195.908Z" fill="#AAD8DE"/>
<path d="M126.626 178.187L137.095 184.238L144.766 179.806L134.297 173.762L126.626 178.187Z" fill="#98C7CB"/>
<path d="M118.948 182.619L129.424 188.663L137.095 184.238L126.626 178.187L118.948 182.619Z" fill="#AAD8DE"/>
<path d="M111.278 187.051L121.754 193.095L129.425 188.663L118.948 182.619L111.278 187.051Z" fill="#CEE8ED"/>
<path d="M134.297 173.762L144.766 179.806L152.444 175.374L141.968 169.33L134.297 173.762Z" fill="#AAD8DE"/>
<path d="M123.821 167.711L134.297 173.762L141.968 169.33L131.499 163.279L123.821 167.711Z" fill="#CEE8ED"/>
<path d="M149.646 164.898L160.115 170.942L167.785 166.518L157.316 160.466L149.646 164.898Z" fill="#CEE8ED"/>
<path d="M75.7158 219.672L86.1848 225.724L93.8555 221.292L83.3865 215.248L75.7158 219.672Z" fill="#98C7CB"/>
<path d="M78.5142 230.149L88.9832 236.2L96.6609 231.768L86.1848 225.724L78.5142 230.149Z" fill="#8BBFC0"/>
<path d="M106.406 201.952L116.875 208.003L124.553 203.571L114.076 197.527L106.406 201.952Z" fill="#8BBFC0"/>
<path d="M162.913 181.419L173.389 187.47L181.059 183.038L170.59 176.994L162.913 181.419Z" fill="#98C7CB"/>
<path d="M101.533 216.86L112.002 222.911L119.68 218.479L109.204 212.428L101.533 216.86Z" fill="#98C7CB"/>
<path d="M68.0381 224.104L78.5142 230.149L86.1849 225.724L75.7158 219.672L68.0381 224.104Z" fill="#AAD8DE"/>
<path d="M70.8862 234.58L81.3624 240.625L89.033 236.2L78.5569 230.149L70.8862 234.58Z" fill="#AAD8DE"/>
<path d="M98.7349 206.384L109.204 212.428L116.875 208.003L106.406 201.952L98.7349 206.384Z" fill="#AAD8DE"/>
<path d="M60.3672 228.536L70.8433 234.58L78.514 230.149L68.0379 224.104L60.3672 228.536Z" fill="#CEE8ED"/>
<path d="M83.3867 215.248L93.8557 221.292L101.533 216.86L91.0574 210.816L83.3867 215.248Z" fill="#AAD8DE"/>
<path d="M86.1846 225.724L96.6607 231.768L104.331 227.336L93.8552 221.292L86.1846 225.724Z" fill="#AAD8DE"/>
<path d="M91.0571 210.816L101.533 216.86L109.204 212.428L98.7349 206.384L91.0571 210.816Z" fill="#CEE8ED"/>
<path d="M93.8555 221.292L104.332 227.336L112.002 222.911L101.533 216.86L93.8555 221.292Z" fill="#9BD2DC"/>
<path d="M109.204 212.428L119.68 218.479L127.351 214.047L116.875 208.003L109.204 212.428Z" fill="#CEE8ED"/>
<path d="M129.425 188.663L139.894 194.714L147.572 190.282L137.095 184.238L129.425 188.663Z" fill="#8BBFC0"/>
<path d="M160.114 170.942L170.59 176.994L178.261 172.562L167.785 166.518L160.114 170.942Z" fill="#98C7CB"/>
<path d="M121.754 193.095L132.223 199.139L139.894 194.714L129.425 188.663L121.754 193.095Z" fill="#AAD8DE"/>
<path d="M152.443 175.374L162.912 181.419L170.59 176.994L160.114 170.943L152.443 175.374Z" fill="#AAD8DE"/>
<path d="M114.076 197.527L124.552 203.571L132.223 199.139L121.754 193.095L114.076 197.527Z" fill="#CEE8ED"/>
<path d="M137.095 184.238L147.571 190.282L155.242 185.851L144.766 179.806L137.095 184.238Z" fill="#AAD8DE"/>
<path d="M124.553 203.571L135.022 209.615L142.7 205.19L132.223 199.139L124.553 203.571Z" fill="#98C7CB"/>
<path d="M116.875 208.003L127.351 214.047L135.021 209.615L124.552 203.571L116.875 208.003Z" fill="#AAD8DE"/>
<path d="M147.571 190.282L158.04 196.327L165.718 191.895L155.242 185.851L147.571 190.282Z" fill="#98C7CB"/>
<path d="M139.894 194.714L150.37 200.759L158.04 196.327L147.571 190.282L139.894 194.714Z" fill="#AAD8DE"/>
<path d="M132.223 199.139L142.699 205.191L150.37 200.759L139.894 194.714L132.223 199.139Z" fill="#CEE8ED"/>
<path d="M155.242 185.851L165.718 191.895L173.389 187.47L162.913 181.419L155.242 185.851Z" fill="#AAD8DE"/>
<path d="M144.766 179.806L155.242 185.851L162.913 181.419L152.444 175.374L144.766 179.806Z" fill="#9BD2DC"/>
<path d="M170.59 176.994L181.059 183.038L188.73 178.606L178.261 172.562L170.59 176.994Z" fill="#CEE8ED"/>
<path d="M204.079 169.749L214.555 175.793L222.225 171.362L211.749 165.317L204.079 169.749Z" fill="#98C7CB"/>
<path d="M206.877 180.225L217.353 186.27L225.024 181.845L214.555 175.793L206.877 180.225Z" fill="#98C7CB"/>
<path d="M234.768 152.029L245.244 158.073L252.915 153.648L242.446 147.597L234.768 152.029Z" fill="#98C7CB"/>
<path d="M291.283 131.495L301.752 137.54L309.429 133.115L298.953 127.063L291.283 131.495Z" fill="#8BBFC0"/>
<path d="M229.896 166.937L240.372 172.981L248.043 168.549L237.574 162.505L229.896 166.937Z" fill="#98C7CB"/>
<path d="M196.408 174.181L206.877 180.225L214.555 175.793L204.079 169.749L196.408 174.181Z" fill="#AAD8DE"/>
<path d="M199.249 184.657L209.725 190.701L217.396 186.27L206.927 180.225L199.249 184.657Z" fill="#AAD8DE"/>
<path d="M227.097 156.461L237.573 162.505L245.244 158.073L234.768 152.029L227.097 156.461Z" fill="#AAD8DE"/>
<path d="M188.73 178.606L199.206 184.657L206.877 180.225L196.408 174.181L188.73 178.606Z" fill="#CEE8ED"/>
<path d="M211.749 165.317L222.225 171.362L229.896 166.937L219.427 160.885L211.749 165.317Z" fill="#AAD8DE"/>
<path d="M214.555 175.793L225.024 181.845L232.701 177.413L222.225 171.362L214.555 175.793Z" fill="#AAD8DE"/>
<path d="M219.427 160.885L229.896 166.937L237.574 162.505L227.097 156.461L219.427 160.885Z" fill="#9BD2DC"/>
<path d="M222.225 171.362L232.701 177.413L240.372 172.981L229.896 166.937L222.225 171.362Z" fill="#CEE8ED"/>
<path d="M237.574 162.505L248.043 168.549L255.713 164.124L245.244 158.073L237.574 162.505Z" fill="#CEE8ED"/>
<path d="M257.788 138.74L268.264 144.784L275.934 140.352L265.465 134.308L257.788 138.74Z" fill="#98C7CB"/>
<path d="M288.484 121.019L298.953 127.064L306.624 122.639L296.155 116.587L288.484 121.019Z" fill="#98C7CB"/>
<path d="M250.117 143.172L260.593 149.216L268.263 144.784L257.787 138.74L250.117 143.172Z" fill="#AAD8DE"/>
<path d="M280.807 125.451L291.283 131.495L298.953 127.064L288.484 121.019L280.807 125.451Z" fill="#AAD8DE"/>
<path d="M242.446 147.597L252.915 153.648L260.593 149.216L250.116 143.172L242.446 147.597Z" fill="#CEE8ED"/>
<path d="M265.465 134.308L275.934 140.352L283.612 135.927L273.135 129.876L265.465 134.308Z" fill="#AAD8DE"/>
<path d="M252.915 153.648L263.391 159.692L271.062 155.26L260.593 149.216L252.915 153.648Z" fill="#98C7CB"/>
<path d="M245.245 158.073L255.714 164.124L263.391 159.692L252.915 153.648L245.245 158.073Z" fill="#AAD8DE"/>
<path d="M275.934 140.352L286.41 146.403L294.081 141.972L283.612 135.927L275.934 140.352Z" fill="#98C7CB"/>
<path d="M268.264 144.784L278.733 150.828L286.41 146.403L275.934 140.352L268.264 144.784Z" fill="#AAD8DE"/>
<path d="M260.593 149.216L271.062 155.26L278.732 150.828L268.263 144.784L260.593 149.216Z" fill="#CEE8ED"/>
<path d="M283.612 135.927L294.081 141.972L301.751 137.54L291.282 131.495L283.612 135.927Z" fill="#AAD8DE"/>
<path d="M273.136 129.876L283.612 135.927L291.283 131.495L280.806 125.451L273.136 129.876Z" fill="#CEE8ED"/>
<path d="M225.023 181.845L235.5 187.889L243.17 183.457L232.701 177.413L225.023 181.845Z" fill="#98C7CB"/>
<path d="M227.822 192.321L238.298 198.365L245.969 193.933L235.5 187.889L227.822 192.321Z" fill="#8BBFC0"/>
<path d="M255.713 164.124L266.19 170.168L273.86 165.736L263.391 159.692L255.713 164.124Z" fill="#8BBFC0"/>
<path d="M250.841 179.025L261.317 185.076L268.988 180.644L258.519 174.6L250.841 179.025Z" fill="#98C7CB"/>
<path d="M217.353 186.27L227.822 192.321L235.5 187.889L225.024 181.845L217.353 186.27Z" fill="#AAD8DE"/>
<path d="M220.201 196.746L230.67 202.797L238.341 198.365L227.872 192.321L220.201 196.746Z" fill="#AAD8DE"/>
<path d="M248.043 168.549L258.519 174.6L266.19 170.168L255.714 164.124L248.043 168.549Z" fill="#AAD8DE"/>
<path d="M209.683 190.702L220.152 196.746L227.822 192.321L217.353 186.27L209.683 190.702Z" fill="#CEE8ED"/>
<path d="M232.701 177.413L243.17 183.457L250.841 179.025L240.372 172.981L232.701 177.413Z" fill="#AAD8DE"/>
<path d="M235.5 187.889L245.969 193.933L253.646 189.501L243.17 183.457L235.5 187.889Z" fill="#AAD8DE"/>
<path d="M240.372 172.981L250.841 179.025L258.519 174.6L248.043 168.549L240.372 172.981Z" fill="#9BD2DC"/>
<path d="M243.17 183.457L253.647 189.501L261.317 185.076L250.841 179.025L243.17 183.457Z" fill="#CEE8ED"/>
<path d="M258.519 174.6L268.988 180.644L276.666 176.213L266.19 170.168L258.519 174.6Z" fill="#9BD2DC"/>
<path d="M278.732 150.828L289.209 156.88L296.879 152.448L286.41 146.404L278.732 150.828Z" fill="#8BBFC0"/>
<path d="M271.062 155.26L281.538 161.312L289.209 156.88L278.733 150.828L271.062 155.26Z" fill="#AAD8DE"/>
<path d="M263.391 159.692L273.86 165.736L281.538 161.312L271.062 155.26L263.391 159.692Z" fill="#CEE8ED"/>
<path d="M286.41 146.403L296.879 152.448L304.557 148.016L294.081 141.972L286.41 146.403Z" fill="#AAD8DE"/>
<path d="M273.86 165.736L284.336 171.788L292.007 167.356L281.538 161.312L273.86 165.736Z" fill="#98C7CB"/>
<path d="M266.189 170.168L276.666 176.213L284.336 171.788L273.86 165.736L266.189 170.168Z" fill="#AAD8DE"/>
<path d="M289.208 156.88L299.678 162.924L307.355 158.492L296.879 152.448L289.208 156.88Z" fill="#AAD8DE"/>
<path d="M281.538 161.312L292.007 167.356L299.678 162.924L289.209 156.88L281.538 161.312Z" fill="#9BD2DC"/>
<path d="M294.081 141.972L304.557 148.016L312.227 143.591L301.751 137.54L294.081 141.972Z" fill="#9BD2DC"/>
<path d="M245.969 193.933L256.445 199.977L264.116 195.552L253.647 189.501L245.969 193.933Z" fill="#98C7CB"/>
<path d="M248.767 204.409L259.243 210.461L266.914 206.029L256.445 199.977L248.767 204.409Z" fill="#98C7CB"/>
<path d="M276.666 176.212L287.135 182.264L294.805 177.832L284.336 171.788L276.666 176.212Z" fill="#98C7CB"/>
<path d="M271.787 191.121L282.263 197.165L289.933 192.74L279.464 186.689L271.787 191.121Z" fill="#98C7CB"/>
<path d="M238.298 198.365L248.767 204.409L256.445 199.977L245.969 193.933L238.298 198.365Z" fill="#AAD8DE"/>
<path d="M241.146 208.841L251.615 214.885L259.286 210.461L248.817 204.409L241.146 208.841Z" fill="#AAD8DE"/>
<path d="M268.988 180.644L279.464 186.689L287.135 182.264L276.666 176.213L268.988 180.644Z" fill="#95CBD0"/>
<path d="M230.627 202.797L241.096 208.841L248.767 204.409L238.298 198.365L230.627 202.797Z" fill="#9BD2DC"/>
<path d="M253.647 189.501L264.116 195.553L271.787 191.121L261.318 185.076L253.647 189.501Z" fill="#AAD8DE"/>
<path d="M256.445 199.977L266.914 206.029L274.592 201.597L264.115 195.552L256.445 199.977Z" fill="#95CBD0"/>
<path d="M261.317 185.076L271.786 191.121L279.464 186.689L268.988 180.644L261.317 185.076Z" fill="#CEE8ED"/>
<path d="M264.116 195.553L274.592 201.597L282.262 197.165L271.786 191.121L264.116 195.553Z" fill="#9BD2DC"/>
<path d="M279.464 186.689L289.933 192.74L297.611 188.308L287.135 182.264L279.464 186.689Z" fill="#9BD2DC"/>
<path d="M292.007 167.356L302.483 173.4L310.154 168.968L299.677 162.924L292.007 167.356Z" fill="#AAD8DE"/>
<path d="M284.336 171.788L294.805 177.832L302.483 173.4L292.007 167.356L284.336 171.788Z" fill="#CEE8ED"/>
<path d="M294.806 177.832L305.282 183.876L312.952 179.444L302.483 173.4L294.806 177.832Z" fill="#98C7CB"/>
<path d="M287.135 182.264L297.611 188.308L305.282 183.876L294.805 177.832L287.135 182.264Z" fill="#AAD8DE"/>
<path d="M266.914 206.029L277.39 212.073L285.061 207.641L274.592 201.597L266.914 206.029Z" fill="#98C7CB"/>
<path d="M269.719 216.505L280.188 222.549L287.859 218.117L277.39 212.073L269.719 216.505Z" fill="#8BBFC0"/>
<path d="M292.731 203.216L303.208 209.26L310.878 204.828L300.409 198.784L292.731 203.216Z" fill="#98C7CB"/>
<path d="M259.243 210.461L269.719 216.505L277.39 212.073L266.914 206.029L259.243 210.461Z" fill="#AAD8DE"/>
<path d="M262.091 220.937L272.56 226.981L280.238 222.549L269.762 216.505L262.091 220.937Z" fill="#AAD8DE"/>
<path d="M289.933 192.74L300.409 198.784L308.08 194.352L297.611 188.308L289.933 192.74Z" fill="#AAD8DE"/>
<path d="M251.573 214.885L262.042 220.937L269.72 216.505L259.243 210.461L251.573 214.885Z" fill="#CEE8ED"/>
<path d="M274.592 201.597L285.061 207.641L292.731 203.216L282.262 197.165L274.592 201.597Z" fill="#AAD8DE"/>
<path d="M277.39 212.073L287.859 218.117L295.537 213.692L285.061 207.641L277.39 212.073Z" fill="#AAD8DE"/>
<path d="M282.263 197.165L292.732 203.216L300.41 198.784L289.933 192.74L282.263 197.165Z" fill="#CEE8ED"/>
<path d="M285.061 207.641L295.537 213.692L303.208 209.26L292.732 203.216L285.061 207.641Z" fill="#9BD2DC"/>
<path d="M96.6611 231.768L107.13 237.812L114.808 233.387L104.332 227.336L96.6611 231.768Z" fill="#98C7CB"/>
<path d="M99.459 242.244L109.928 248.288L117.606 243.863L107.13 237.812L99.459 242.244Z" fill="#98C7CB"/>
<path d="M127.351 214.047L137.82 220.092L145.497 215.667L135.021 209.615L127.351 214.047Z" fill="#98C7CB"/>
<path d="M183.858 193.514L194.334 199.558L202.005 195.133L191.536 189.082L183.858 193.514Z" fill="#8BBFC0"/>
<path d="M122.479 228.955L132.948 235L140.625 230.568L130.149 224.523L122.479 228.955Z" fill="#98C7CB"/>
<path d="M88.9834 236.2L99.4595 242.244L107.13 237.812L96.6612 231.768L88.9834 236.2Z" fill="#AAD8DE"/>
<path d="M91.8315 246.676L102.308 252.72L109.978 248.288L99.5022 242.244L91.8315 246.676Z" fill="#AAD8DE"/>
<path d="M119.68 218.479L130.149 224.523L137.82 220.091L127.351 214.047L119.68 218.479Z" fill="#AAD8DE"/>
<path d="M81.3125 240.625L91.7886 246.676L99.4593 242.244L88.9832 236.2L81.3125 240.625Z" fill="#CEE8ED"/>
<path d="M104.332 227.336L114.808 233.387L122.478 228.955L112.002 222.911L104.332 227.336Z" fill="#AAD8DE"/>
<path d="M107.13 237.812L117.606 243.863L125.277 239.432L114.808 233.387L107.13 237.812Z" fill="#AAD8DE"/>
<path d="M112.002 222.911L122.479 228.955L130.149 224.523L119.68 218.479L112.002 222.911Z" fill="#9BD2DC"/>
<path d="M114.808 233.387L125.277 239.432L132.947 235L122.478 228.955L114.808 233.387Z" fill="#CEE8ED"/>
<path d="M130.149 224.523L140.625 230.568L148.296 226.143L137.82 220.091L130.149 224.523Z" fill="#CEE8ED"/>
<path d="M150.37 200.759L160.839 206.803L168.516 202.378L158.04 196.327L150.37 200.759Z" fill="#98C7CB"/>
<path d="M181.06 183.038L191.536 189.082L199.206 184.657L188.73 178.606L181.06 183.038Z" fill="#98C7CB"/>
<path d="M142.699 205.19L153.168 211.235L160.839 206.803L150.37 200.759L142.699 205.19Z" fill="#AAD8DE"/>
<path d="M173.389 187.47L183.858 193.514L191.535 189.082L181.059 183.038L173.389 187.47Z" fill="#AAD8DE"/>
<path d="M135.021 209.615L145.498 215.667L153.168 211.235L142.699 205.19L135.021 209.615Z" fill="#CEE8ED"/>
<path d="M158.041 196.327L168.517 202.378L176.187 197.946L165.718 191.895L158.041 196.327Z" fill="#AAD8DE"/>
<path d="M145.498 215.667L155.967 221.711L163.644 217.279L153.168 211.235L145.498 215.667Z" fill="#98C7CB"/>
<path d="M137.82 220.091L148.296 226.143L155.967 221.711L145.498 215.667L137.82 220.091Z" fill="#AAD8DE"/>
<path d="M168.517 202.378L178.986 208.422L186.663 203.99L176.187 197.946L168.517 202.378Z" fill="#98C7CB"/>
<path d="M160.838 206.803L171.315 212.854L178.985 208.422L168.516 202.378L160.838 206.803Z" fill="#AAD8DE"/>
<path d="M153.168 211.235L163.645 217.279L171.315 212.854L160.839 206.803L153.168 211.235Z" fill="#CEE8ED"/>
<path d="M176.187 197.946L186.663 203.99L194.334 199.558L183.858 193.514L176.187 197.946Z" fill="#AAD8DE"/>
<path d="M165.718 191.895L176.187 197.946L183.858 193.514L173.389 187.47L165.718 191.895Z" fill="#CEE8ED"/>
<path d="M191.536 189.082L202.005 195.133L209.682 190.702L199.206 184.657L191.536 189.082Z" fill="#CEE8ED"/>
<path d="M117.606 243.863L128.075 249.908L135.753 245.476L125.277 239.431L117.606 243.863Z" fill="#98C7CB"/>
<path d="M148.296 226.143L158.772 232.187L166.443 227.755L155.967 221.711L148.296 226.143Z" fill="#8BBFC0"/>
<path d="M204.803 205.61L215.279 211.654L222.95 207.222L212.481 201.178L204.803 205.61Z" fill="#98C7CB"/>
<path d="M143.424 241.051L153.893 247.095L161.571 242.663L151.094 236.619L143.424 241.051Z" fill="#98C7CB"/>
<path d="M109.928 248.288L120.404 254.34L128.075 249.908L117.606 243.863L109.928 248.288Z" fill="#AAD8DE"/>
<path d="M140.625 230.568L151.094 236.619L158.772 232.187L148.296 226.143L140.625 230.568Z" fill="#AAD8DE"/>
<path d="M125.277 239.431L135.753 245.476L143.424 241.051L132.948 235L125.277 239.431Z" fill="#AAD8DE"/>
<path d="M128.075 249.908L138.551 255.952L146.222 251.527L135.753 245.476L128.075 249.908Z" fill="#AAD8DE"/>
<path d="M132.948 235L143.424 241.051L151.095 236.619L140.626 230.568L132.948 235Z" fill="#9BD2DC"/>
<path d="M135.753 245.476L146.222 251.527L153.893 247.095L143.424 241.051L135.753 245.476Z" fill="#CEE8ED"/>
<path d="M151.094 236.619L161.57 242.663L169.241 238.231L158.772 232.187L151.094 236.619Z" fill="#9BD2DC"/>
<path d="M171.315 212.854L181.791 218.898L189.462 214.466L178.986 208.422L171.315 212.854Z" fill="#8BBFC0"/>
<path d="M202.005 195.133L212.481 201.178L220.152 196.746L209.683 190.701L202.005 195.133Z" fill="#98C7CB"/>
<path d="M163.645 217.279L174.114 223.33L181.791 218.898L171.315 212.854L163.645 217.279Z" fill="#AAD8DE"/>
<path d="M194.334 199.558L204.803 205.61L212.481 201.178L202.005 195.133L194.334 199.558Z" fill="#AAD8DE"/>
<path d="M155.966 221.711L166.442 227.755L174.113 223.33L163.644 217.279L155.966 221.711Z" fill="#CEE8ED"/>
<path d="M178.985 208.422L189.461 214.466L197.132 210.034L186.663 203.99L178.985 208.422Z" fill="#AAD8DE"/>
<path d="M166.442 227.755L176.911 233.806L184.589 229.374L174.113 223.33L166.442 227.755Z" fill="#98C7CB"/>
<path d="M158.772 232.187L169.241 238.231L176.912 233.806L166.443 227.755L158.772 232.187Z" fill="#AAD8DE"/>
<path d="M189.462 214.466L199.931 220.511L207.609 216.086L197.133 210.034L189.462 214.466Z" fill="#98C7CB"/>
<path d="M181.791 218.898L192.26 224.942L199.931 220.511L189.462 214.466L181.791 218.898Z" fill="#AAD8DE"/>
<path d="M174.113 223.33L184.589 229.374L192.26 224.942L181.791 218.898L174.113 223.33Z" fill="#9BD2DC"/>
<path d="M197.132 210.034L207.608 216.086L215.279 211.654L204.803 205.61L197.132 210.034Z" fill="#AAD8DE"/>
<path d="M186.664 203.99L197.133 210.034L204.803 205.61L194.334 199.558L186.664 203.99Z" fill="#9BD2DC"/>
<path d="M212.481 201.178L222.95 207.222L230.628 202.797L220.152 196.746L212.481 201.178Z" fill="#9BD2DC"/>
<path d="M169.241 238.231L179.717 244.282L187.387 239.851L176.911 233.806L169.241 238.231Z" fill="#98C7CB"/>
<path d="M225.755 217.698L236.224 223.749L243.895 219.317L233.426 213.273L225.755 217.698Z" fill="#8BBFC0"/>
<path d="M161.57 242.663L172.039 248.707L179.717 244.282L169.241 238.231L161.57 242.663Z" fill="#95CBD0"/>
<path d="M153.893 247.095L164.369 253.139L172.039 248.707L161.57 242.663L153.893 247.095Z" fill="#CEE8ED"/>
<path d="M172.04 248.707L182.516 254.759L190.186 250.327L179.717 244.282L172.04 248.707Z" fill="#9BD2DC"/>
<path d="M192.26 224.942L202.736 230.994L210.407 226.562L199.931 220.511L192.26 224.942Z" fill="#98C7CB"/>
<path d="M222.95 207.222L233.426 213.273L241.096 208.841L230.627 202.797L222.95 207.222Z" fill="#98C7CB"/>
<path d="M184.589 229.374L195.058 235.419L202.736 230.994L192.26 224.943L184.589 229.374Z" fill="#AAD8DE"/>
<path d="M215.279 211.654L225.755 217.698L233.426 213.273L222.95 207.222L215.279 211.654Z" fill="#AAD8DE"/>
<path d="M176.912 233.806L187.388 239.851L195.058 235.419L184.589 229.374L176.912 233.806Z" fill="#CEE8ED"/>
<path d="M199.931 220.511L210.407 226.562L218.077 222.13L207.608 216.086L199.931 220.511Z" fill="#95CBD0"/>
<path d="M187.388 239.851L197.857 245.895L205.534 241.47L195.058 235.419L187.388 239.851Z" fill="#98C7CB"/>
<path d="M179.717 244.282L190.186 250.327L197.856 245.895L187.387 239.851L179.717 244.282Z" fill="#AAD8DE"/>
<path d="M210.407 226.562L220.876 232.606L228.554 228.174L218.077 222.13L210.407 226.562Z" fill="#98C7CB"/>
<path d="M202.736 230.994L213.205 237.038L220.876 232.606L210.407 226.562L202.736 230.994Z" fill="#AAD8DE"/>
<path d="M195.059 235.419L205.535 241.47L213.205 237.038L202.736 230.994L195.059 235.419Z" fill="#CEE8ED"/>
<path d="M218.078 222.13L228.554 228.174L236.224 223.749L225.755 217.698L218.078 222.13Z" fill="#AAD8DE"/>
<path d="M207.608 216.086L218.077 222.13L225.755 217.698L215.279 211.654L207.608 216.086Z" fill="#CEE8ED"/>
<path d="M233.426 213.273L243.895 219.317L251.573 214.885L241.096 208.841L233.426 213.273Z" fill="#CEE8ED"/>
<path d="M190.186 250.327L200.662 256.371L208.333 251.946L197.857 245.895L190.186 250.327Z" fill="#8BBFC0"/>
<path d="M246.7 229.793L257.169 235.838L264.84 231.413L254.371 225.362L246.7 229.793Z" fill="#98C7CB"/>
<path d="M213.205 237.038L223.681 243.082L231.352 238.65L220.876 232.606L213.205 237.038Z" fill="#8BBFC0"/>
<path d="M243.895 219.317L254.371 225.361L262.042 220.937L251.573 214.885L243.895 219.317Z" fill="#98C7CB"/>
<path d="M205.535 241.47L216.004 247.514L223.681 243.082L213.205 237.038L205.535 241.47Z" fill="#AAD8DE"/>
<path d="M236.224 223.749L246.7 229.793L254.371 225.361L243.895 219.317L236.224 223.749Z" fill="#AAD8DE"/>
<path d="M197.856 245.895L208.333 251.946L216.003 247.514L205.534 241.47L197.856 245.895Z" fill="#CEE8ED"/>
<path d="M220.876 232.606L231.352 238.65L239.023 234.225L228.554 228.174L220.876 232.606Z" fill="#AAD8DE"/>
<path d="M231.352 238.65L241.821 244.701L249.499 240.27L239.023 234.225L231.352 238.65Z" fill="#98C7CB"/>
<path d="M223.681 243.082L234.15 249.133L241.821 244.701L231.352 238.65L223.681 243.082Z" fill="#AAD8DE"/>
<path d="M216.004 247.514L226.48 253.558L234.151 249.133L223.682 243.082L216.004 247.514Z" fill="#CEE8ED"/>
<path d="M239.022 234.225L249.499 240.27L257.169 235.838L246.7 229.793L239.022 234.225Z" fill="#AAD8DE"/>
<path d="M228.554 228.174L239.023 234.225L246.7 229.793L236.224 223.749L228.554 228.174Z" fill="#9BD2DC"/>
<path d="M254.371 225.362L264.84 231.413L272.518 226.981L262.042 220.937L254.371 225.362Z" fill="#CEE8ED"/>
</g>
<mask id="mask1_278_92644" style="mask-type:luminance" maskUnits="userSpaceOnUse" x="0" y="58" width="296" height="189">
<path d="M293.641 176.504C278.377 240.859 176.606 261.612 106.377 236.108C23.0796 205.851 -16.7936 162.505 6.87177 118.604C26.1478 82.8436 80.5101 35.2785 194.725 70.2012C248.817 86.7429 305.033 128.463 293.641 176.511V176.504Z" fill="white"/>
</mask>
<g mask="url(#mask1_278_92644)">
<path d="M181.947 126.865V121.914C183.773 100.493 224.605 72.3604 254.208 74.5976V79.548C224.605 77.3108 183.773 105.444 181.947 126.865Z" fill="#A7A9AB"/>
<path d="M181.947 126.865C180.164 148.044 140.923 175.183 109.687 174.181V169.231C140.93 170.232 180.164 143.094 181.947 121.914V126.865Z" fill="#A7A9AB"/>
<path d="M109.687 174.181V169.231C78.2796 167.931 38.9178 196.185 37.4263 216.547V221.498C38.9178 201.135 78.2796 172.881 109.687 174.181Z" fill="#A7A9AB"/>
<path d="M241.132 65.5135C211.529 63.2763 170.697 91.4091 168.871 112.83C167.089 134.01 127.848 161.148 96.611 160.147C65.2039 158.847 25.8421 187.1 24.3506 207.463L37.4333 216.547C38.9248 196.185 78.2866 167.931 109.694 169.231C140.937 170.232 180.171 143.094 181.954 121.914C183.779 100.493 224.611 72.3603 254.214 74.5976L241.132 65.5135Z" fill="#F1F2F2"/>
<path d="M37.4265 221.491L24.3438 212.172V207.463L37.4265 216.547V221.491Z" fill="#BCBEC0"/>
<path d="M96.6113 160.147C127.855 161.148 167.089 134.01 168.872 112.83L181.954 121.914C180.172 143.094 140.931 170.232 109.694 169.231L96.6113 160.147Z" fill="#F1F2F2"/>
<path d="M208.105 145.033V140.082C209.931 118.661 250.763 90.5285 280.366 92.7657V97.7161C250.763 95.4789 209.931 123.612 208.105 145.033Z" fill="#A7A9AB"/>
<path d="M208.106 145.033C206.323 166.212 167.082 193.351 135.845 192.349V187.399C167.089 188.4 206.323 161.262 208.106 140.082V145.033Z" fill="#A7A9AB"/>
<path d="M135.845 192.349V187.399C104.438 186.099 65.076 214.353 63.5845 234.715V239.666C65.076 219.303 104.438 191.05 135.845 192.349Z" fill="#A7A9AB"/>
<path d="M267.29 83.6887C237.687 81.4514 196.855 109.584 195.03 131.005C193.247 152.185 154.006 179.323 122.769 178.322C91.3621 177.022 52.0003 205.276 50.5088 225.638L63.5915 234.722C65.083 214.36 104.445 186.106 135.852 187.406C167.096 188.407 206.33 161.269 208.112 140.089C209.938 118.668 250.77 90.5355 280.373 92.7727L267.29 83.6887Z" fill="#F1F2F2"/>
<path d="M63.5847 239.666L50.502 230.34V225.631L63.5847 234.715V239.666Z" fill="#BCBEC0"/>
<path d="M122.77 178.315C154.013 179.316 193.247 152.178 195.03 130.998L208.113 140.082C206.33 161.262 167.089 188.4 135.852 187.399L122.77 178.315Z" fill="#F1F2F2"/>
<path d="M234.264 163.201V158.25C236.089 136.829 276.921 108.697 306.524 110.934V115.884C276.921 113.647 236.089 141.78 234.264 163.201Z" fill="#A7A9AB"/>
<path d="M234.264 163.201C232.482 184.38 193.241 211.519 162.004 210.517V205.567C193.248 206.568 232.482 179.43 234.264 158.25V163.201Z" fill="#A7A9AB"/>
<path d="M162.004 210.517V205.567C130.596 204.267 91.2347 232.521 89.7432 252.883V257.834C91.2347 237.471 130.596 209.218 162.004 210.517Z" fill="#A7A9AB"/>
<path d="M293.449 101.857C263.846 99.6196 223.014 127.752 221.188 149.173C219.406 170.353 180.164 197.491 148.928 196.49C117.521 195.19 78.159 223.444 76.6675 243.807L89.7502 252.891C91.2417 232.528 130.604 204.274 162.011 205.574C193.254 206.575 232.488 179.437 234.271 158.257C236.096 136.836 276.928 108.704 306.531 110.941L293.449 101.857Z" fill="#F1F2F2"/>
<path d="M89.7429 257.834L76.6602 248.508V243.799L89.7429 252.883V257.834Z" fill="#BCBEC0"/>
<path d="M148.928 196.483C180.171 197.484 219.405 170.346 221.188 149.166L234.271 158.25C232.488 179.43 193.247 206.568 162.01 205.567L148.928 196.483Z" fill="#F1F2F2"/>
<path d="M260.422 181.376V176.426C262.248 155.005 303.08 126.872 332.683 129.109V134.059C303.08 131.822 262.248 159.955 260.422 181.376Z" fill="#A7A9AB"/>
<path d="M260.423 181.376C258.64 202.555 219.399 229.694 188.162 228.693V223.742C219.406 224.744 258.64 197.605 260.423 176.426V181.376Z" fill="#A7A9AB"/>
<path d="M188.162 228.685V223.735C156.755 222.435 117.393 250.689 115.901 271.052V276.002C117.393 255.639 156.755 227.386 188.162 228.685Z" fill="#A7A9AB"/>
<path d="M319.607 120.025C290.004 117.788 249.172 145.921 247.346 167.342C245.564 188.521 206.323 215.66 175.086 214.658C143.679 213.358 104.317 241.612 102.826 261.975L115.908 271.059C117.4 250.696 156.762 222.442 188.169 223.742C219.413 224.744 258.646 197.605 260.429 176.426C262.255 155.005 303.087 126.872 332.69 129.109L319.607 120.025Z" fill="#F1F2F2"/>
<path d="M175.086 214.658C206.33 215.66 245.564 188.521 247.347 167.342L260.43 176.426C258.647 197.605 219.406 224.744 188.169 223.742L175.086 214.658Z" fill="#F1F2F2"/>
<path d="M103.472 72.3532V67.4028C105.297 45.9818 146.13 17.8489 175.733 20.0862V25.0366C146.13 22.7994 105.297 50.9322 103.472 72.3532Z" fill="#A7A9AB"/>
<path d="M103.472 72.3532C101.69 93.5328 62.4485 120.671 31.2119 119.67V114.719C62.4556 115.721 101.69 88.5824 103.472 67.4028V72.3532Z" fill="#A7A9AB"/>
<path d="M31.2121 119.67V114.719C-0.195006 113.42 -39.5568 141.673 -41.0483 162.036V166.986C-39.5568 146.624 -0.195006 118.37 31.2121 119.67Z" fill="#A7A9AB"/>
<path d="M162.657 11.0093C133.054 8.77204 92.2221 36.9049 90.3968 58.3259C88.614 79.5054 49.373 106.644 18.1364 105.642C-13.2707 104.343 -52.6325 132.596 -54.124 152.959L-41.0413 162.043C-39.5498 141.68 -0.187976 113.427 31.2191 114.726C62.4628 115.728 101.697 88.5895 103.479 67.4099C105.305 45.9889 146.137 17.8561 175.74 20.0934L162.657 11.0093Z" fill="#F1F2F2"/>
<path d="M18.1362 105.635C49.3799 106.637 88.6139 79.4983 90.3966 58.3188L103.479 67.4028C101.697 88.5824 62.4555 115.721 31.2189 114.719L18.1362 105.635Z" fill="#F1F2F2"/>
<path d="M129.63 90.5214V85.5709C131.456 64.1499 172.288 36.0171 201.891 38.2544V43.2048C172.288 40.9675 131.456 69.1003 129.63 90.5214Z" fill="#A7A9AB"/>
<path d="M129.631 90.5213C127.848 111.701 88.6067 138.839 57.3701 137.838V132.887C88.6138 133.889 127.848 106.75 129.631 85.5709V90.5213Z" fill="#A7A9AB"/>
<path d="M57.3703 137.838V132.887C25.9632 131.588 -13.3986 159.841 -14.8901 180.204V185.154C-13.3986 164.792 25.9632 136.538 57.3703 137.838Z" fill="#A7A9AB"/>
<path d="M188.815 29.1774C159.212 26.9401 118.38 55.073 116.555 76.494C114.772 97.6735 75.5312 124.812 44.2946 123.811C12.8875 122.511 -26.4743 150.764 -27.9658 171.127L-14.8831 180.211C-13.3916 159.848 25.9702 131.595 57.3773 132.895C88.621 133.896 127.855 106.758 129.638 85.578C131.463 64.157 172.295 36.0242 201.898 38.2614L188.815 29.1774Z" fill="#F1F2F2"/>
<path d="M44.2944 123.803C75.5381 124.805 114.772 97.6664 116.555 76.4869L129.638 85.5709C127.855 106.75 88.6138 133.889 57.3772 132.887L44.2944 123.803Z" fill="#F1F2F2"/>
<path d="M77.3141 54.1852C75.5314 75.3647 36.2903 102.503 5.05371 101.502V96.5513C36.2974 97.5528 75.5314 70.4143 77.3141 49.2347V54.1852Z" fill="#A7A9AB"/>
<path d="M5.05337 101.502V96.5513C-26.3537 95.2516 -65.7155 123.505 -67.207 143.868V148.818C-65.7155 128.456 -26.3537 100.202 5.05337 101.502Z" fill="#A7A9AB"/>
<path d="M136.499 -7.16585C106.896 -9.40313 66.0639 18.7297 64.2386 40.1507C62.4559 61.3302 23.2148 88.4687 -8.02183 87.4673C-39.4289 86.1675 -78.7907 114.421 -80.2822 134.784L-67.1995 143.868C-65.708 123.505 -26.3462 95.2516 5.0609 96.5513C36.3046 97.5528 75.5386 70.4143 77.3213 49.2348C79.1466 27.8137 119.979 -0.319084 149.582 1.91819L136.499 -7.16585Z" fill="#F1F2F2"/>
<path d="M-8.02197 87.4673C23.2217 88.4687 62.4557 61.3302 64.2384 40.1507L77.3211 49.2347C75.5384 70.4143 36.2974 97.5527 5.06075 96.5513L-8.02197 87.4673Z" fill="#F1F2F2"/>
<path d="M155.789 108.697V103.746C157.614 82.3251 198.446 54.1923 228.049 56.4295V61.38C198.446 59.1427 157.614 87.2755 155.789 108.697Z" fill="#A7A9AB"/>
<path d="M155.789 108.697C154.006 129.876 114.765 157.015 83.5283 156.013V151.063C114.772 152.064 154.006 124.926 155.789 103.746V108.697Z" fill="#A7A9AB"/>
<path d="M83.5285 156.006V151.056C52.1214 149.756 12.7596 178.009 11.2681 198.372V203.323C12.7596 182.96 52.1214 154.706 83.5285 156.006Z" fill="#A7A9AB"/>
<path d="M214.974 47.3455C185.371 45.1082 144.538 73.2411 142.713 94.6621C140.93 115.842 101.689 142.98 70.4528 141.979C39.0457 140.679 -0.316101 168.932 -1.80762 189.295L11.2751 198.379C12.7666 178.016 52.1284 149.763 83.5355 151.063C114.779 152.064 154.013 124.926 155.796 103.746C157.621 82.3251 198.453 54.1923 228.056 56.4295L214.974 47.3455Z" fill="#F1F2F2"/>
<path d="M11.2683 203.323L-1.81445 193.997V189.295L11.2683 198.379V203.323Z" fill="#BCBEC0"/>
<path d="M70.4526 141.979C101.696 142.98 140.93 115.842 142.713 94.662L155.796 103.746C154.013 124.926 114.772 152.064 83.5353 151.063L70.4526 141.979Z" fill="#F1F2F2"/>
<path d="M286.581 199.544V194.594C288.406 173.173 329.238 145.04 358.841 147.277V152.227C329.238 149.99 288.406 178.123 286.581 199.544Z" fill="#A7A9AB"/>
<path d="M286.581 199.544C284.798 220.724 245.557 247.862 214.32 246.861V241.91C245.564 242.912 284.798 215.773 286.581 194.594V199.544Z" fill="#A7A9AB"/>
<path d="M214.32 246.861V241.91C182.913 240.61 143.552 268.864 142.06 289.227V294.177C143.552 273.814 182.913 245.561 214.32 246.861Z" fill="#A7A9AB"/>
<path d="M345.765 138.193C316.162 135.956 275.33 164.089 273.505 185.51C271.722 206.689 232.481 233.828 201.244 232.826C169.837 231.526 130.475 259.78 128.984 280.143L142.067 289.227C143.558 268.864 182.92 240.61 214.327 241.91C245.571 242.912 284.805 215.773 286.587 194.594C288.413 173.173 329.245 145.04 358.848 147.277L345.765 138.193Z" fill="#F1F2F2"/>
<path d="M201.245 232.826C232.488 233.828 271.722 206.689 273.505 185.51L286.588 194.594C284.805 215.773 245.564 242.912 214.327 241.91L201.245 232.826Z" fill="#F1F2F2"/>
</g>
<path d="M239.996 173.996C230.884 203.003 173.758 211.817 127.365 198.372C77.6125 183.954 44.2664 155.061 58.3861 127.909C73.8695 98.1351 117.493 87.5027 165.441 100.656C212.012 113.434 249.194 144.741 239.996 174.004V173.996Z" fill="white"/>
<path d="M63.9472 162.498C82.6125 138.896 122.45 131.332 165.832 143.229C194.938 151.212 220.94 167.427 233.682 184.863C236.203 181.873 238.867 177.626 240.003 173.997C249.193 144.734 212.019 113.427 165.448 100.649C117.5 87.4957 73.8764 98.1281 58.3931 127.902C52.3418 139.535 55.0123 151.496 63.9472 162.491" fill="#EEAE43"/>
<mask id="mask2_278_92644" style="mask-type:luminance" maskUnits="userSpaceOnUse" x="45" y="206" width="217" height="51">
<path d="M45.4385 206.618L67.1791 224.744C78.2731 230.255 94.1045 238.359 107.28 243.899C150.995 262.28 203.22 261.506 240.309 239.19L261.978 221.022C222.631 248.949 156.478 254.297 106.378 236.1C82.8045 227.535 63.3651 215.873 46.5678 207.066L45.4456 206.618H45.4385Z" fill="white"/>
</mask>
<g mask="url(#mask2_278_92644)">
<path d="M45.4385 206.618L66.0782 223.806C77.1723 229.318 93.0036 237.421 106.179 242.961C149.894 261.343 203.22 261.506 240.301 239.197L261.623 221.32C222.275 249.247 155.37 253.366 105.27 235.17C81.6965 226.604 61.5966 216.995 45.4385 206.625V206.618Z" fill="#414042"/>
<path d="M246.58 233.991C209.498 256.307 157.913 259.233 113.551 243.352C100.091 238.537 73.72 226.64 62.626 221.136" stroke="#CA753A" stroke-width="0.582401" stroke-miterlimit="10"/>
<path d="M149.291 245.682L148.431 255.405" stroke="#CA753A" stroke-width="0.582401" stroke-miterlimit="10"/>
<path d="M156.94 246.314L155.789 256.108" stroke="#CA753A" stroke-width="0.582401" stroke-miterlimit="10"/>
<path d="M245.529 230.333L234.186 242.855" stroke="#CA753A" stroke-width="0.582401" stroke-miterlimit="10"/>
<path d="M224.867 247.415L233.475 235.468" stroke="#CA753A" stroke-width="0.582401" stroke-miterlimit="10"/>
<path d="M217.651 250.149L224.058 238.444" stroke="#CA753A" stroke-width="0.582401" stroke-miterlimit="10"/>
<path d="M210.755 252.187L216.217 240.575" stroke="#CA753A" stroke-width="0.582401" stroke-miterlimit="10"/>
<path d="M205.151 253.367L209.455 242.187" stroke="#CA753A" stroke-width="0.582401" stroke-miterlimit="10"/>
<path d="M198.503 254.901L202.431 243.629" stroke="#CA753A" stroke-width="0.582401" stroke-miterlimit="10"/>
<path d="M191.521 255.987L195.059 244.63" stroke="#CA753A" stroke-width="0.582401" stroke-miterlimit="10"/>
<path d="M184.724 256.648L187.871 245.447" stroke="#CA753A" stroke-width="0.582401" stroke-miterlimit="10"/>
<path d="M177.565 257.166L180.08 246.399" stroke="#CA753A" stroke-width="0.582401" stroke-miterlimit="10"/>
<path d="M170.626 256.882L172.92 246.69" stroke="#CA753A" stroke-width="0.582401" stroke-miterlimit="10"/>
<path d="M162.87 256.648L164.717 246.655" stroke="#CA753A" stroke-width="0.582401" stroke-miterlimit="10"/>
<path d="M141.84 244.787L141.428 254.197" stroke="#CA753A" stroke-width="0.582401" stroke-miterlimit="10"/>
<path d="M135.128 243.721L134.908 253.089" stroke="#CA753A" stroke-width="0.582401" stroke-miterlimit="10"/>
<path d="M127.798 241.875L127.855 251.207" stroke="#CA753A" stroke-width="0.582401" stroke-miterlimit="10"/>
<path d="M121.328 240.326L121.719 249.375" stroke="#CA753A" stroke-width="0.582401" stroke-miterlimit="10"/>
<path d="M114.545 238.032L115.482 247.379" stroke="#CA753A" stroke-width="0.582401" stroke-miterlimit="10"/>
<path d="M108.316 235.887L109.503 245.263" stroke="#CA753A" stroke-width="0.582401" stroke-miterlimit="10"/>
<path d="M101.931 233.764L103.465 242.35" stroke="#CA753A" stroke-width="0.582401" stroke-miterlimit="10"/>
<path d="M96.1709 232.137L97.7263 239.964" stroke="#CA753A" stroke-width="0.582401" stroke-miterlimit="10"/>
<path d="M89.8213 229.048L92.1083 237.407" stroke="#CA753A" stroke-width="0.582401" stroke-miterlimit="10"/>
<path d="M83.5356 226.363L85.9434 234.602" stroke="#CA753A" stroke-width="0.582401" stroke-miterlimit="10"/>
<path d="M76.4473 223.252L79.5865 231.072" stroke="#CA753A" stroke-width="0.582401" stroke-miterlimit="10"/>
<path d="M68.0239 219.197L73.0099 228.075" stroke="#CA753A" stroke-width="0.582401" stroke-miterlimit="10"/>
<path d="M67.179 224.751L47.7964 208.358" stroke="#CA753A" stroke-width="0.582401" stroke-miterlimit="10"/>
<path d="M240.308 239.197L261.978 221.029" stroke="#CA753A" stroke-width="0.582401" stroke-miterlimit="10"/>
</g>
<path d="M240.308 239.197C202.182 261.108 152.295 261.747 107.492 243.508C94.2533 238.118 78.2727 230.255 67.1787 224.744L70.0481 227.016C73.4715 230.149 77.3778 233.188 81.6606 236.108C94.2249 244.68 110.056 252.28 126.64 258.289C163.538 271.662 208.816 266.364 229.385 248.345L228.376 249.197L240.308 239.19" fill="#BCBEC0"/>
<path d="M241.054 168.996C237.346 144.195 204.739 120.217 165.441 109.435C117.492 96.2815 73.8691 106.914 58.3857 136.687C56.9226 139.493 55.9709 142.32 55.495 145.146C54.5433 139.422 55.4098 133.619 58.3857 127.902C73.8691 98.1281 117.492 87.4957 165.441 100.649C209.107 112.624 244.506 140.892 241.189 168.492" fill="#949598"/>
<path d="M13.1272 226.429C13.1272 228.453 12.5556 229.861 11.4125 230.653C10.282 231.438 8.76418 231.28 6.85892 230.18C4.94096 229.073 3.42946 227.474 2.32441 225.384C1.21936 223.294 0.66684 221.244 0.66684 219.235C0.66684 217.182 1.23842 215.774 2.38157 215.011C3.52472 214.234 5.02988 214.384 6.89703 215.462C8.78958 216.555 10.3011 218.146 11.4315 220.236C12.562 222.326 13.1272 224.39 13.1272 226.429ZM11.2601 225.395C11.2601 223.738 10.8663 222.161 10.0788 220.665C9.304 219.162 8.24341 218.021 6.89703 217.244C5.49984 216.437 4.42019 216.357 3.65809 217.002C2.90869 217.64 2.53399 218.736 2.53399 220.291C2.53399 221.816 2.90234 223.349 3.63904 224.889C4.38844 226.422 5.48714 227.606 6.93513 228.442C8.33232 229.249 9.39926 229.337 10.136 228.706C10.8854 228.083 11.2601 226.979 11.2601 225.395ZM21.5796 235.577C21.5796 236.56 21.2239 237.117 20.5126 237.249C19.814 237.388 18.9249 237.146 17.8453 236.523C16.537 235.768 15.4256 234.803 14.5111 233.63L14.7778 231.408L16.0924 232.321L16.0543 233.575C16.3083 233.868 16.5814 234.129 16.8736 234.356C17.1784 234.591 17.4769 234.792 17.769 234.961C18.3152 235.276 18.8042 235.441 19.2361 235.456C19.6806 235.478 19.9029 235.24 19.9029 234.741C19.9029 234.257 19.7251 233.817 19.3695 233.421C19.0138 233.01 18.5693 232.6 18.0358 232.189C17.515 231.786 16.9942 231.36 16.4735 230.913C15.9527 230.451 15.5145 229.934 15.1588 229.362C14.8032 228.775 14.6254 228.101 14.6254 227.338C14.6254 226.238 14.9747 225.677 15.6733 225.655C16.3846 225.64 17.1403 225.864 17.9405 226.326C18.5248 226.663 19.071 227.067 19.579 227.536C20.0998 227.998 20.5698 228.482 20.9889 228.988L21.1795 231.474L19.8458 230.88L19.6552 229.23C19.1345 228.651 18.5883 228.196 18.0167 227.866C17.5468 227.595 17.1594 227.474 16.8545 227.503C16.5497 227.532 16.3973 227.782 16.3973 228.251C16.3973 228.706 16.5687 229.127 16.9117 229.516C17.2673 229.912 17.6992 230.308 18.2073 230.704C18.728 231.093 19.2424 231.514 19.7505 231.969C20.2713 232.431 20.7031 232.952 21.0461 233.531C21.4017 234.118 21.5796 234.8 21.5796 235.577ZM30.5597 240.234C30.4581 241.04 30.1215 241.667 29.5499 242.115C28.9911 242.569 28.0956 242.441 26.8635 241.73C25.6696 241.04 24.7042 240.058 23.9675 238.782C23.2435 237.498 22.8815 236.057 22.8815 234.459C22.8815 232.977 23.2435 231.94 23.9675 231.346C24.6915 230.737 25.7013 230.807 26.9969 231.555C27.5304 231.863 28.0448 232.233 28.5401 232.666C29.0355 233.098 29.5055 233.626 29.95 234.25L30.293 237L28.9402 236.395L28.6354 234.569C28.1527 233.967 27.6002 233.487 26.9778 233.128C26.1776 232.666 25.587 232.662 25.2059 233.117C24.8249 233.557 24.6344 234.305 24.6344 235.361C24.6344 236.461 24.8376 237.436 25.244 238.287C25.6505 239.137 26.2475 239.79 27.035 240.245C28.2162 240.927 28.9212 240.542 29.1498 239.09L30.5597 240.234ZM32.5768 235.722C33.0975 235.671 33.6056 235.722 34.101 235.876C34.609 236.023 35.1615 236.269 35.7585 236.613C36.7239 237.171 37.486 237.882 38.0448 238.747C38.6164 239.62 38.9022 240.621 38.9022 241.75V246.304C38.9022 246.95 39.1245 247.401 39.569 247.657C39.7469 247.76 39.9183 247.822 40.0835 247.844L40.1025 248.999C39.7469 249.043 39.3341 248.93 38.8641 248.658C37.8353 248.064 37.2891 247.089 37.2256 245.732V245.71C36.9715 246.077 36.6032 246.326 36.1205 246.458C35.6506 246.598 35.0726 246.469 34.3867 246.073C33.8025 245.736 33.2182 245.193 32.6339 244.445C32.0623 243.705 31.7765 242.821 31.7765 241.794C31.7765 240.562 32.1957 239.998 33.034 240.1C33.885 240.196 34.7932 240.522 35.7585 241.079C36.3428 241.417 36.8318 241.728 37.2256 242.014V241.288C37.2256 240.643 37.1176 240.031 36.9017 239.451C36.6858 238.872 36.2031 238.366 35.4537 237.933C34.844 237.581 34.3296 237.409 33.9104 237.416L33.5865 238.835L32.2338 237.878L32.5768 235.722ZM37.2256 243.708V243.136C36.9969 242.975 36.7556 242.814 36.5016 242.652C36.2602 242.484 36.0126 242.326 35.7585 242.179C35.1743 241.842 34.6535 241.651 34.1962 241.607C33.739 241.563 33.5103 241.886 33.5103 242.575C33.5103 243.103 33.65 243.565 33.9295 243.961C34.2216 244.365 34.5519 244.673 34.9202 244.885C35.4664 245.201 35.9745 245.274 36.4444 245.105C36.9144 244.937 37.1748 244.471 37.2256 243.708ZM46.0133 242.578C46.6103 242.922 47.1183 243.392 47.5375 243.986L47.8804 246.934L46.5658 246.351L46.2419 244.47C46.026 244.242 45.8037 244.063 45.5751 243.931C45.1432 243.681 44.7812 243.685 44.4891 243.942C44.1969 244.184 44.0509 244.642 44.0509 245.317V249.937L45.8799 250.993V252.489L41.0024 249.673V248.177L42.3742 248.969V242.149L40.9453 241.324V239.806L43.9365 241.533V243.337C44.1017 242.875 44.3557 242.559 44.6986 242.391C45.0543 242.215 45.4925 242.277 46.0133 242.578ZM65.9228 251.499L64.4367 250.641V263.203L63.3888 262.598L56.3584 247.913L56.2822 247.869V256.757L58.1684 257.846V259.584L53.2337 256.735V254.997L54.6436 255.811V244.987L53.0432 244.063V242.325L55.9011 243.975L62.7219 258.209L62.7981 258.253V249.695L60.95 248.628V246.89L65.9228 249.761V251.499ZM68.1055 253.177V250.911L69.8392 251.912V254.178L68.1055 253.177ZM71.2682 267.147L66.8289 264.584V263.088L68.2198 263.891V257.071L66.7718 256.235V254.717L69.8964 256.521V264.859L71.2682 265.651V267.147ZM80.092 269.337C80.0031 270.136 79.6411 270.661 79.0061 270.91C78.371 271.159 77.5073 270.969 76.4149 270.338C75.1828 269.627 74.1858 268.626 73.4237 267.335C72.6616 266.044 72.2805 264.592 72.2805 262.979C72.2805 261.454 72.6361 260.398 73.3474 259.811C74.0587 259.224 75.0431 259.294 76.3006 260.02C77.4691 260.695 78.3773 261.637 79.0251 262.847C79.6729 264.057 80.0031 265.26 80.0158 266.455C80.0158 266.851 79.9777 267.247 79.9015 267.643L74.0333 264.255C74.1095 266.382 74.9415 267.903 76.5292 268.82C77.1897 269.201 77.6851 269.304 78.0153 269.128C78.3583 268.959 78.5869 268.651 78.7012 268.204L80.092 269.337ZM78.2821 265.41C78.3329 264.794 78.1931 264.097 77.8629 263.32C77.5454 262.535 77.0119 261.927 76.2625 261.494C75.5639 261.091 75.0368 261.058 74.6811 261.395C74.3382 261.725 74.1286 262.249 74.0524 262.968L78.2821 265.41ZM97.0037 282.005L93.0789 279.739V278.243L93.9553 278.749V274.503C93.9553 273.506 93.7902 272.706 93.46 272.105C93.1424 271.496 92.7106 271.034 92.1644 270.719C91.4277 270.294 90.8752 270.283 90.5068 270.686C90.1512 271.097 89.967 271.614 89.9543 272.237V276.439L91.3261 277.231V278.727L87.4012 276.461V274.965L88.2777 275.471V271.225C88.2777 270.213 88.1125 269.406 87.7823 268.805C87.4647 268.211 87.0392 267.76 86.5058 267.452C85.7818 267.034 85.2356 267.019 84.8672 267.408C84.4989 267.797 84.3084 268.303 84.2957 268.926V273.172L85.877 274.085V275.581L81.2473 272.908V271.412L82.619 272.204V265.384L81.2282 264.581V263.063L84.2957 264.834V266.572C84.5624 266.154 84.9244 265.901 85.3817 265.813C85.8389 265.71 86.3978 265.85 87.0583 266.231C87.7061 266.605 88.2777 267.126 88.773 267.793C89.2684 268.446 89.6113 269.216 89.8019 270.103C90.0559 269.575 90.4306 269.241 90.926 269.102C91.4213 268.963 92.0247 269.098 92.736 269.509C93.5362 269.971 94.2157 270.657 94.7746 271.566C95.3335 272.475 95.6129 273.553 95.6129 274.8V279.706L97.0037 280.509V282.005ZM105.62 284.075C105.531 284.875 105.169 285.399 104.534 285.648C103.898 285.898 103.035 285.707 101.942 285.076C100.71 284.365 99.7132 283.364 98.9511 282.073C98.189 280.783 97.808 279.331 97.808 277.717C97.808 276.192 98.1636 275.136 98.8749 274.549C99.5862 273.963 100.571 274.032 101.828 274.758C102.997 275.433 103.905 276.375 104.553 277.585C105.2 278.795 105.531 279.998 105.543 281.193C105.543 281.589 105.505 281.985 105.429 282.381L99.5608 278.993C99.637 281.12 100.469 282.642 102.057 283.558C102.717 283.94 103.213 284.042 103.543 283.866C103.886 283.698 104.114 283.39 104.229 282.942L105.62 284.075ZM103.81 280.148C103.86 279.532 103.721 278.836 103.39 278.058C103.073 277.274 102.539 276.665 101.79 276.232C101.091 275.829 100.564 275.796 100.209 276.133C99.8656 276.463 99.6561 276.988 99.5798 277.706L103.81 280.148ZM115.566 284.406L114.613 283.856L111.679 290.478L110.631 293.019L111.984 293.8V295.34L107.563 292.788V291.248L109.069 292.117L110.059 289.565L106.992 279.456L106.02 278.895V277.377L110.078 279.72V281.238L108.783 280.49L110.974 287.739L111.088 287.805L112.974 282.91L111.774 282.217V280.699L115.566 282.888V284.406ZM123.928 294.646C123.839 295.445 123.477 295.969 122.842 296.219C122.207 296.468 121.343 296.277 120.251 295.647C119.019 294.935 118.022 293.934 117.259 292.644C116.497 291.353 116.116 289.901 116.116 288.288C116.116 286.762 116.472 285.706 117.183 285.12C117.895 284.533 118.879 284.603 120.136 285.329C121.305 286.003 122.213 286.946 122.861 288.156C123.509 289.366 123.839 290.568 123.852 291.764C123.852 292.16 123.814 292.556 123.737 292.952L117.869 289.564C117.945 291.69 118.777 293.212 120.365 294.129C121.025 294.51 121.521 294.613 121.851 294.437C122.194 294.268 122.423 293.96 122.537 293.513L123.928 294.646ZM122.118 290.719C122.169 290.103 122.029 289.406 121.699 288.629C121.381 287.844 120.848 287.235 120.098 286.803C119.4 286.399 118.873 286.366 118.517 286.704C118.174 287.034 117.964 287.558 117.888 288.277L122.118 290.719ZM130.094 291.122C130.691 291.466 131.199 291.936 131.618 292.53L131.961 295.478L130.646 294.895L130.322 293.014C130.107 292.786 129.884 292.607 129.656 292.475C129.224 292.225 128.862 292.229 128.57 292.486C128.278 292.728 128.131 293.186 128.131 293.861V298.481L129.96 299.537V301.033L125.083 298.217V296.721L126.455 297.513V290.693L125.026 289.868V288.35L128.017 290.077V291.881C128.182 291.419 128.436 291.103 128.779 290.935C129.135 290.759 129.573 290.821 130.094 291.122Z" fill="#818181"/>
</svg>
