<svg width="296" height="331" viewBox="0 0 296 331" fill="none" xmlns="http://www.w3.org/2000/svg">
<path d="M208.917 96.1714V62.8115C213.946 67.334 217.107 72.9217 217.107 79.4173C217.107 83.6255 215.308 90.5052 208.926 96.1714" fill="#414042"/>
<path opacity="0.5" d="M136.078 112.812C145.751 107.294 154.936 104.064 166.504 103.575C174.396 103.243 191.055 107.085 191.055 107.085L194.407 105.182V54.142C185.615 50.7196 175.523 49.052 166.504 49.4361C154.936 49.9251 145.751 53.1554 136.078 58.6732L79.2583 91.4744L126.151 118.548L136.078 112.821V112.812Z" fill="#A7A9AB"/>
<path d="M208.917 96.1714V62.8114L236.113 47.0002V29.8881L194.407 54.1419V105.181L205.425 98.8168C206.717 97.9786 207.878 97.0881 208.908 96.1714" fill="#818284"/>
<path d="M278.195 254.223L228.029 225.263V222.897L278.195 251.857V254.223Z" fill="#414042"/>
<path d="M279.889 250.879L278.195 251.857L228.029 222.897L229.731 221.919L279.889 250.879Z" fill="#6D6E71"/>
<path d="M279.889 250.879L278.195 251.857V254.223L279.889 253.245V250.879Z" fill="#58595B"/>
<path d="M292.732 244.829L212.471 198.486V194.706L292.732 241.048V244.829Z" fill="#6D6E71"/>
<path d="M295.447 239.477L292.732 241.048L212.471 194.706L215.186 193.134L295.447 239.477Z" fill="#949598"/>
<path d="M295.447 239.477L292.731 241.048V244.829L295.447 243.266V239.477Z" fill="#818284"/>
<path d="M257.277 283.724L186.663 242.952V239.625L257.277 280.397V283.724Z" fill="#414042"/>
<path d="M259.669 279.018L257.277 280.397L186.663 239.625L189.047 238.246L259.669 279.018Z" fill="#6D6E71"/>
<path d="M259.669 279.018L257.277 280.397V283.724L259.669 282.344V279.018Z" fill="#58595B"/>
<path d="M240.322 282.17L169.708 241.397V238.071L240.322 278.843V282.17Z" fill="#414042"/>
<path d="M242.705 277.464L240.322 278.843L169.708 238.071L172.091 236.692L242.705 277.464Z" fill="#6D6E71"/>
<path d="M242.705 277.464L240.322 278.843V282.17L242.705 280.79V277.464Z" fill="#58595B"/>
<path d="M152.16 241.214L81.5459 200.451V197.115L152.16 237.888V241.214Z" fill="#414042"/>
<path d="M154.552 236.508L152.16 237.888L81.5459 197.115L83.9381 195.745L154.552 236.508Z" fill="#6D6E71"/>
<path d="M154.551 236.508L152.159 237.888V241.214L154.551 239.843V236.508Z" fill="#58595B"/>
<path d="M257.277 273.308L186.663 232.536V229.201L257.277 269.973V273.308Z" fill="#414042"/>
<path d="M259.669 268.593L257.277 269.973L186.663 229.201L189.047 227.83L259.669 268.593Z" fill="#6D6E71"/>
<path d="M259.669 268.594L257.277 269.973V273.308L259.669 271.929V268.594Z" fill="#58595B"/>
<path d="M282.36 279.315L211.746 238.542V235.216L282.36 275.98V279.315Z" fill="#414042"/>
<path d="M284.743 274.6L282.36 275.98L211.746 235.216L214.13 233.837L284.743 274.6Z" fill="#6D6E71"/>
<path d="M284.743 274.6L282.36 275.98V279.315L284.743 277.935V274.6Z" fill="#58595B"/>
<path d="M278.195 261.792L228.029 232.833V230.467L278.195 259.426V261.792Z" fill="#414042"/>
<path d="M279.889 258.448L278.195 259.426L228.029 230.467L229.731 229.489L279.889 258.448Z" fill="#6D6E71"/>
<path d="M279.889 258.448L278.195 259.426V261.792L279.889 260.814V258.448Z" fill="#58595B"/>
<path d="M257.966 257.916L207.809 228.956V226.59L257.966 255.55V257.916Z" fill="#414042"/>
<path d="M259.669 254.572L257.966 255.55L207.809 226.59L209.502 225.612L259.669 254.572Z" fill="#6D6E71"/>
<path d="M259.669 254.572L257.966 255.55V257.916L259.669 256.938V254.572Z" fill="#58595B"/>
<path d="M222.747 225.717L172.58 196.758V194.392L222.747 223.351V225.717Z" fill="#414042"/>
<path d="M224.44 222.373L222.747 223.351L172.58 194.392L174.283 193.414L224.44 222.373Z" fill="#6D6E71"/>
<path d="M224.441 222.373L222.747 223.351V225.717L224.441 224.739V222.373Z" fill="#58595B"/>
<path d="M284.97 249.805L234.812 220.845V218.479L284.97 247.439V249.805Z" fill="#414042"/>
<path d="M286.664 246.461L284.97 247.439L234.812 218.479L236.506 217.502L286.664 246.461Z" fill="#6D6E71"/>
<path d="M286.665 246.461L284.971 247.439V249.805L286.665 248.827V246.461Z" fill="#58595B"/>
<path d="M203.635 234.579L131.145 192.724V189.302L203.635 231.165V234.579Z" fill="#414042"/>
<path d="M206.089 229.742L203.635 231.165L131.145 189.301L133.589 187.887L206.089 229.742Z" fill="#6D6E71"/>
<path d="M206.089 229.742L203.635 231.165V234.579L206.089 233.165V229.742Z" fill="#58595B"/>
<path d="M72.7188 174.119L0.219238 132.264V128.842L72.7188 170.696V174.119Z" fill="#414042"/>
<path d="M75.1721 169.282L72.7188 170.696L0.219238 128.842L2.67256 127.427L75.1721 169.282Z" fill="#6D6E71"/>
<path d="M75.1721 169.282L72.7188 170.696V174.119L75.1721 172.705V169.282Z" fill="#58595B"/>
<path d="M112.26 175.324L62.1025 146.364V143.998L112.26 172.958V175.324Z" fill="#414042"/>
<path d="M186.148 247.727L143.359 223.019V218.872L186.148 243.58V247.727Z" fill="#D68167"/>
<path d="M239.562 239.852L196.773 215.153V211.006L239.562 235.705V239.852Z" fill="#BA5F53"/>
<path d="M265.353 234.849L222.563 210.15V206.003L265.353 230.702V234.849Z" fill="#BA5F53"/>
<path d="M236.82 285.505L194.04 260.806V256.659L236.82 281.358V285.505Z" fill="#BA5F53"/>
<path d="M118.048 208.282L75.2681 183.583V179.436L118.048 204.135V208.282Z" fill="#D49888"/>
<path d="M36.3468 165.38L0.219238 144.557V140.41L36.3468 161.232V165.38Z" fill="#D49888"/>
<path d="M94.1441 203.69L76.6216 193.597V189.45L94.1441 199.543V203.69Z" fill="#D49888"/>
<path d="M178.465 176.467L160.942 166.375V162.228L178.465 172.32V176.467Z" fill="#D49888"/>
<path d="M51.5728 148.468L34.0503 138.375V134.228L51.5728 144.321V148.468Z" fill="#D49888"/>
<path d="M85.3871 135.966L67.856 125.873V121.726L85.3871 131.819V135.966Z" fill="#D49888"/>
<path d="M275.34 220.688L257.818 210.596V206.449L275.34 216.541V220.688Z" fill="#D49888"/>
<path d="M53.8692 179.619L11.0889 154.92V150.773L53.8692 175.472V179.619Z" fill="#C76E5C"/>
<path d="M148.728 210.185L105.939 185.486V181.339L148.728 206.038V210.185Z" fill="#C76E5C"/>
<path d="M143.377 162.332L100.596 137.633V133.486L143.377 158.185V162.332Z" fill="#C76E5C"/>
<path d="M100.526 192.977L57.7373 168.269V164.122L100.526 188.83V192.977Z" fill="#D68167"/>
<path d="M42.8077 139.292L0.0273438 114.593V110.446L42.8077 135.145V139.292Z" fill="#D68167"/>
<path d="M11.0889 154.92L0.219238 148.704V144.557L11.0889 150.773V154.92Z" fill="#D68167"/>
<path d="M113.954 171.98L112.26 172.958L62.1025 143.998L63.7963 143.02L113.954 171.98Z" fill="#6D6E71"/>
<path d="M113.954 171.98L112.26 172.958V175.324L113.954 174.346V171.98Z" fill="#58595B"/>
<path d="M186.27 215.24L136.104 186.281V183.915L186.27 212.874V215.24Z" fill="#414042"/>
<path d="M187.964 211.897L186.27 212.874L136.104 183.915L137.806 182.937L187.964 211.897Z" fill="#6D6E71"/>
<path d="M187.964 211.896L186.27 212.874V215.24L187.964 214.262V211.896Z" fill="#58595B"/>
<path d="M172.152 232.763L121.986 203.803V201.437L172.152 230.397V232.763Z" fill="#414042"/>
<path d="M173.846 229.419L172.152 230.397L121.986 201.437L123.68 200.459L173.846 229.419Z" fill="#6D6E71"/>
<path d="M173.846 229.419L172.152 230.397V232.763L173.846 231.785V229.419Z" fill="#58595B"/>
<path d="M234.097 222.111L156.481 177.297V173.639L234.097 218.453V222.111Z" fill="#6D6E71"/>
<path d="M236.725 216.934L234.097 218.453L156.481 173.639L159.109 172.128L236.725 216.934Z" fill="#949598"/>
<path d="M236.725 216.934L234.097 218.453V222.111L236.725 220.592V216.934Z" fill="#818284"/>
<path d="M157.607 151.568L79.9912 106.762V103.104L157.607 147.909V151.568Z" fill="#6D6E71"/>
<path d="M160.235 146.39L157.607 147.909L79.9912 103.103L82.6192 101.584L160.235 146.39Z" fill="#949598"/>
<path d="M160.235 146.39L157.607 147.909V151.568L160.235 150.057V146.39Z" fill="#818284"/>
<path d="M64.3375 118.33L21.4175 93.5521V91.5266L64.3375 116.313V118.33Z" fill="#6D6E71"/>
<path d="M65.7955 115.475L64.3375 116.313L21.4175 91.5267L22.8667 90.6886L65.7955 115.475Z" fill="#949598"/>
<path d="M65.7959 115.475L64.3379 116.313V118.33L65.7959 117.492V115.475Z" fill="#818284"/>
<path d="M241.858 205.785L179.53 169.806V166.864L241.858 202.852V205.785Z" fill="#6D6E71"/>
<path d="M243.963 201.629L241.858 202.852L179.53 166.864L181.634 165.65L243.963 201.629Z" fill="#949598"/>
<path d="M243.963 201.629L241.858 202.852V205.785L243.963 204.572V201.629Z" fill="#818284"/>
<path d="M262.061 203.698L184.454 158.893V155.234L262.061 200.04V203.698Z" fill="#6D6E71"/>
<path d="M264.689 198.53L262.061 200.04L184.454 155.234L187.073 153.715L264.689 198.53Z" fill="#949598"/>
<path d="M264.689 198.53L262.061 200.04V203.698L264.689 202.188V198.53Z" fill="#818284"/>
<path d="M0.219238 95.3856L159.702 187.634V190.725L0.219238 98.485V95.3856Z" fill="#6D6E71"/>
<path d="M162.034 186.289L159.702 187.634L0.219238 95.3856L2.62891 93.9974L162.034 186.289Z" fill="#949598"/>
<path d="M162.034 186.289L159.703 187.634V190.725L162.034 189.398V186.289Z" fill="#818284"/>
<mask id="mask0_278_93430" style="mask-type:luminance" maskUnits="userSpaceOnUse" x="187" y="82" width="84" height="100">
<path d="M270.329 82.3769C270.329 97.8913 263.283 109.425 236.349 125.262L187.073 153.715L234.865 181.313L239.03 178.903C246.782 174.346 252.894 170.146 257.661 166.104C265.737 159.259 270.32 149.167 270.32 138.576V82.3682L270.329 82.3769Z" fill="white"/>
</mask>
<g mask="url(#mask0_278_93430)">
<path d="M270.329 82.377C270.329 97.8914 263.283 109.425 236.349 125.262L187.073 153.715" stroke="#221F20" stroke-width="0.270651" stroke-miterlimit="10"/>
<path d="M271.097 118.05C271.097 133.565 264.051 145.098 237.117 160.935L187.841 189.389" stroke="#221F20" stroke-width="0.270651" stroke-miterlimit="10"/>
<path d="M274.249 122.32C274.249 137.834 267.204 149.367 240.27 165.205L190.994 193.658" stroke="#221F20" stroke-width="0.270651" stroke-miterlimit="10"/>
<path d="M274.249 128.169C274.249 143.684 267.204 155.217 240.27 171.054L190.994 199.508" stroke="#221F20" stroke-width="0.270651" stroke-miterlimit="10"/>
<path d="M274.249 125.585C274.249 141.099 267.204 152.633 240.27 168.47L190.994 196.923" stroke="#221F20" stroke-width="0.270651" stroke-miterlimit="10"/>
<path d="M273.559 119.561C273.559 135.075 266.514 146.609 239.58 162.446L190.304 190.899" stroke="#221F20" stroke-width="0.270651" stroke-miterlimit="10"/>
<path d="M270.329 102.37C270.329 117.885 263.283 129.418 236.349 145.255L187.073 173.708" stroke="#221F20" stroke-width="0.270651" stroke-miterlimit="10"/>
<path d="M270.329 111.127C270.329 126.641 263.283 138.175 236.349 154.012L187.073 182.465" stroke="#221F20" stroke-width="0.270651" stroke-miterlimit="10"/>
<path d="M271.857 116.165C271.857 131.679 264.811 143.212 237.877 159.05L188.601 187.503" stroke="#221F20" stroke-width="0.270651" stroke-miterlimit="10"/>
<path d="M271.857 125.585C271.857 141.099 264.811 152.633 237.877 168.47L188.601 196.923" stroke="#221F20" stroke-width="0.270651" stroke-miterlimit="10"/>
<path d="M271.857 123.114C271.857 138.629 264.811 150.162 237.877 165.999L188.601 194.453" stroke="#221F20" stroke-width="0.270651" stroke-miterlimit="10"/>
<path d="M271.857 107.181C271.857 122.695 264.811 134.228 237.877 150.066L188.601 178.519" stroke="#221F20" stroke-width="0.270651" stroke-miterlimit="10"/>
<path d="M271.857 97.4548C271.857 112.969 264.811 124.502 237.877 140.34L188.601 168.793" stroke="#221F20" stroke-width="0.270651" stroke-miterlimit="10"/>
<path d="M270.329 85.9652C270.329 101.48 263.283 113.013 236.349 128.85L187.073 157.304" stroke="#E6E7E8" stroke-width="0.270651" stroke-miterlimit="10"/>
<path d="M270.329 96.0667C270.329 111.581 263.283 123.114 236.349 138.952L187.073 167.405" stroke="#E6E7E8" stroke-width="0.270651" stroke-miterlimit="10"/>
<path d="M270.329 105.958C270.329 121.473 263.283 133.006 236.349 148.844L187.073 177.297" stroke="#E6E7E8" stroke-width="0.270651" stroke-miterlimit="10"/>
<path d="M270.329 114.715C270.329 130.23 263.283 141.763 236.349 157.6L187.073 186.054" stroke="#E6E7E8" stroke-width="0.270651" stroke-miterlimit="10"/>
<path d="M271.857 119.744C271.857 135.259 264.811 146.792 237.877 162.629L188.601 191.083" stroke="#E6E7E8" stroke-width="0.270651" stroke-miterlimit="10"/>
<path d="M271.857 129.173C271.857 144.688 264.811 156.221 237.877 172.058L188.601 200.512" stroke="#E6E7E8" stroke-width="0.270651" stroke-miterlimit="10"/>
<path d="M271.857 126.703C271.857 142.217 264.811 153.75 237.877 169.588L188.601 198.041" stroke="#E6E7E8" stroke-width="0.270651" stroke-miterlimit="10"/>
<path d="M271.857 110.76C271.857 126.275 264.811 137.808 237.877 153.645L188.601 182.099" stroke="#E6E7E8" stroke-width="0.270651" stroke-miterlimit="10"/>
<path d="M271.857 118.05C271.857 133.565 264.811 145.098 237.877 160.935L188.601 189.389" stroke="#E6E7E8" stroke-width="0.270651" stroke-miterlimit="10"/>
<path d="M271.857 121.639C271.857 137.153 264.811 148.686 237.877 164.524L188.601 192.977" stroke="#E6E7E8" stroke-width="0.270651" stroke-miterlimit="10"/>
<path d="M271.857 101.043C271.857 116.558 264.811 128.091 237.877 143.928L188.601 172.381" stroke="#E6E7E8" stroke-width="0.270651" stroke-miterlimit="10"/>
<path d="M271.097 88.8638C271.097 104.378 264.051 115.911 237.117 131.749L187.841 160.202" stroke="#BCBEC0" stroke-width="0.270651" stroke-miterlimit="10"/>
<path d="M271.097 98.9652C271.097 114.48 264.051 126.013 237.117 141.85L187.841 170.304" stroke="#BCBEC0" stroke-width="0.270651" stroke-miterlimit="10"/>
<path d="M271.097 108.848C271.097 124.363 264.051 135.896 237.117 151.733L187.841 180.187" stroke="#BCBEC0" stroke-width="0.270651" stroke-miterlimit="10"/>
<path d="M271.097 117.605C271.097 133.12 264.051 144.653 237.117 160.49L187.841 188.944" stroke="#BCBEC0" stroke-width="0.270651" stroke-miterlimit="10"/>
<path d="M272.625 122.643C272.625 138.157 265.579 149.69 238.645 165.528L189.369 193.981" stroke="#BCBEC0" stroke-width="0.270651" stroke-miterlimit="10"/>
<path d="M272.625 132.072C272.625 147.586 265.579 159.12 238.645 174.957L189.369 203.41" stroke="#BCBEC0" stroke-width="0.270651" stroke-miterlimit="10"/>
<path d="M272.625 129.601C272.625 145.115 265.579 156.649 238.645 172.486L189.369 200.939" stroke="#BCBEC0" stroke-width="0.270651" stroke-miterlimit="10"/>
<path d="M272.625 113.659C272.625 129.173 265.579 140.707 238.645 156.544L189.369 184.997" stroke="#BCBEC0" stroke-width="0.270651" stroke-miterlimit="10"/>
<path d="M272.625 103.933C272.625 119.447 265.579 130.981 238.645 146.818L189.369 175.271" stroke="#BCBEC0" stroke-width="0.270651" stroke-miterlimit="10"/>
<path d="M270.329 80.2291C270.329 95.7435 263.283 107.277 236.349 123.114L187.073 151.567" stroke="#949598" stroke-width="0.270651" stroke-miterlimit="10"/>
<path d="M270.329 90.3394C270.329 105.854 263.283 117.387 236.349 133.224L187.073 161.678" stroke="#949598" stroke-width="0.270651" stroke-miterlimit="10"/>
<path d="M270.329 100.222C270.329 115.737 263.283 127.27 236.349 143.108L187.073 171.561" stroke="#949598" stroke-width="0.270651" stroke-miterlimit="10"/>
<path d="M270.329 108.979C270.329 124.494 263.283 136.027 236.349 151.864L187.073 180.318" stroke="#949598" stroke-width="0.270651" stroke-miterlimit="10"/>
<path d="M271.857 114.017C271.857 129.531 264.811 141.064 237.877 156.902L188.601 185.355" stroke="#949598" stroke-width="0.270651" stroke-miterlimit="10"/>
<path d="M271.857 123.437C271.857 138.952 264.811 150.485 237.877 166.322L188.601 194.776" stroke="#949598" stroke-width="0.270651" stroke-miterlimit="10"/>
<path d="M271.857 120.966C271.857 136.481 264.811 148.014 237.877 163.852L188.601 192.305" stroke="#949598" stroke-width="0.270651" stroke-miterlimit="10"/>
<path d="M271.857 105.033C271.857 120.547 264.811 132.081 237.877 147.918L188.601 176.371" stroke="#949598" stroke-width="0.270651" stroke-miterlimit="10"/>
<path d="M271.857 95.307C271.857 110.821 264.811 122.355 237.877 138.192L188.601 166.645" stroke="#949598" stroke-width="0.270651" stroke-miterlimit="10"/>
<path d="M271.097 84.35C271.097 99.8644 264.051 111.398 237.117 127.235L187.841 155.688" stroke="#58595B" stroke-width="0.270651" stroke-miterlimit="10"/>
<path d="M271.097 94.4514C271.097 109.966 264.051 121.499 237.117 137.336L187.841 165.79" stroke="#58595B" stroke-width="0.270651" stroke-miterlimit="10"/>
<path d="M271.097 104.343C271.097 119.858 264.051 131.391 237.117 147.228L187.841 175.682" stroke="#58595B" stroke-width="0.270651" stroke-miterlimit="10"/>
<path d="M271.097 113.1C271.097 128.615 264.051 140.148 237.117 155.985L187.841 184.438" stroke="#58595B" stroke-width="0.270651" stroke-miterlimit="10"/>
<path d="M272.625 118.129C272.625 133.643 265.579 145.177 238.645 161.014L189.369 189.467" stroke="#58595B" stroke-width="0.270651" stroke-miterlimit="10"/>
<path d="M272.625 127.558C272.625 143.073 265.579 154.606 238.645 170.443L189.369 198.897" stroke="#58595B" stroke-width="0.270651" stroke-miterlimit="10"/>
<path d="M272.625 125.087C272.625 140.602 265.579 152.135 238.645 167.972L189.369 196.426" stroke="#58595B" stroke-width="0.270651" stroke-miterlimit="10"/>
<path d="M272.625 109.145C272.625 124.66 265.579 136.193 238.645 152.03L189.369 180.483" stroke="#58595B" stroke-width="0.270651" stroke-miterlimit="10"/>
<path d="M272.625 99.4279C272.625 114.942 265.579 126.475 238.645 142.313L189.369 170.766" stroke="#58595B" stroke-width="0.270651" stroke-miterlimit="10"/>
<path opacity="0.5" d="M272.625 86.6549C272.625 102.169 265.579 113.703 238.645 129.54L189.369 157.993" stroke="#FFDD4F" stroke-width="0.270651" stroke-miterlimit="10"/>
<path opacity="0.5" d="M273.559 105.522C273.559 121.036 266.514 132.57 239.58 148.407L190.304 176.86" stroke="#FFDD4F" stroke-width="0.270651" stroke-miterlimit="10"/>
<path opacity="0.5" d="M274.249 121.796C274.249 137.31 267.204 148.844 240.27 164.681L190.994 193.134" stroke="#FFDD4F" stroke-width="0.270651" stroke-miterlimit="10"/>
<path opacity="0.2" d="M272.625 97.9088C272.625 113.423 265.579 124.956 238.645 140.794L189.369 169.247" stroke="#FFDD4F" stroke-width="0.270651" stroke-miterlimit="10"/>
<path opacity="0.5" d="M273.559 104.343C273.559 119.858 266.514 131.391 239.58 147.228L190.304 175.682" stroke="#FFDD4F" stroke-width="0.270651" stroke-miterlimit="10"/>
</g>
<mask id="mask1_278_93430" style="mask-type:luminance" maskUnits="userSpaceOnUse" x="187" y="82" width="84" height="100">
<path d="M270.329 82.3769C270.329 97.8913 263.283 109.425 236.349 125.262L187.073 153.715L234.865 181.313L239.03 178.903C246.782 174.346 252.894 170.146 257.661 166.104C265.737 159.259 270.32 149.167 270.32 138.576V82.3682L270.329 82.3769Z" fill="white"/>
</mask>
<g mask="url(#mask1_278_93430)">
<path d="M270.329 94.1719C270.329 109.686 263.283 121.22 236.349 137.057L187.073 165.51" stroke="#221F20" stroke-width="0.270651" stroke-miterlimit="10"/>
<path d="M271.097 129.837C271.097 145.351 264.051 156.884 237.117 172.722L187.841 201.175" stroke="#221F20" stroke-width="0.270651" stroke-miterlimit="10"/>
<path d="M274.249 134.115C274.249 149.629 267.204 161.162 240.27 177L190.994 205.453" stroke="#221F20" stroke-width="0.270651" stroke-miterlimit="10"/>
<path d="M274.249 139.956C274.249 155.47 267.204 167.003 240.27 182.841L190.994 211.294" stroke="#221F20" stroke-width="0.270651" stroke-miterlimit="10"/>
<path d="M274.249 137.38C274.249 152.895 267.204 164.428 240.27 180.265L190.994 208.718" stroke="#221F20" stroke-width="0.270651" stroke-miterlimit="10"/>
<path d="M273.559 131.356C273.559 146.87 266.514 158.403 239.58 174.241L190.304 202.694" stroke="#221F20" stroke-width="0.270651" stroke-miterlimit="10"/>
<path d="M270.329 114.156C270.329 129.671 263.283 141.204 236.349 157.042L187.073 185.495" stroke="#221F20" stroke-width="0.270651" stroke-miterlimit="10"/>
<path d="M270.329 122.922C270.329 138.436 263.283 149.97 236.349 165.807L187.073 194.26" stroke="#221F20" stroke-width="0.270651" stroke-miterlimit="10"/>
<path d="M271.857 127.951C271.857 143.465 264.811 154.999 237.877 170.836L188.601 199.289" stroke="#221F20" stroke-width="0.270651" stroke-miterlimit="10"/>
<path d="M271.857 137.38C271.857 152.895 264.811 164.428 237.877 180.265L188.601 208.718" stroke="#221F20" stroke-width="0.270651" stroke-miterlimit="10"/>
<path d="M271.857 134.909C271.857 150.424 264.811 161.957 237.877 177.794L188.601 206.248" stroke="#221F20" stroke-width="0.270651" stroke-miterlimit="10"/>
<path d="M271.857 118.967C271.857 134.481 264.811 146.015 237.877 161.852L188.601 190.305" stroke="#221F20" stroke-width="0.270651" stroke-miterlimit="10"/>
<path d="M271.857 109.241C271.857 124.756 264.811 136.289 237.877 152.126L188.601 180.579" stroke="#221F20" stroke-width="0.270651" stroke-miterlimit="10"/>
<path d="M270.329 97.7603C270.329 113.275 263.283 124.808 236.349 140.645L187.073 169.099" stroke="#E6E7E8" stroke-width="0.270651" stroke-miterlimit="10"/>
<path d="M270.329 107.862C270.329 123.376 263.283 134.909 236.349 150.747L187.073 179.2" stroke="#E6E7E8" stroke-width="0.270651" stroke-miterlimit="10"/>
<path d="M270.329 117.745C270.329 133.259 263.283 144.792 236.349 160.63L187.073 189.083" stroke="#E6E7E8" stroke-width="0.270651" stroke-miterlimit="10"/>
<path d="M270.329 126.51C270.329 142.025 263.283 153.558 236.349 169.395L187.073 197.849" stroke="#E6E7E8" stroke-width="0.270651" stroke-miterlimit="10"/>
<path d="M271.857 131.539C271.857 147.054 264.811 158.587 237.877 174.424L188.601 202.878" stroke="#E6E7E8" stroke-width="0.270651" stroke-miterlimit="10"/>
<path d="M271.857 140.968C271.857 156.483 264.811 168.016 237.877 183.853L188.601 212.307" stroke="#E6E7E8" stroke-width="0.270651" stroke-miterlimit="10"/>
<path d="M271.857 138.498C271.857 154.012 264.811 165.545 237.877 181.383L188.601 209.836" stroke="#E6E7E8" stroke-width="0.270651" stroke-miterlimit="10"/>
<path d="M271.857 122.555C271.857 138.07 264.811 149.603 237.877 165.441L188.601 193.894" stroke="#E6E7E8" stroke-width="0.270651" stroke-miterlimit="10"/>
<path d="M271.857 129.837C271.857 145.351 264.811 156.884 237.877 172.722L188.601 201.175" stroke="#E6E7E8" stroke-width="0.270651" stroke-miterlimit="10"/>
<path d="M271.857 133.425C271.857 148.939 264.811 160.473 237.877 176.31L188.601 204.763" stroke="#E6E7E8" stroke-width="0.270651" stroke-miterlimit="10"/>
<path d="M271.857 112.829C271.857 128.344 264.811 139.877 237.877 155.714L188.601 184.168" stroke="#E6E7E8" stroke-width="0.270651" stroke-miterlimit="10"/>
<path d="M271.097 100.65C271.097 116.164 264.051 127.698 237.117 143.535L187.841 171.988" stroke="#BCBEC0" stroke-width="0.270651" stroke-miterlimit="10"/>
<path d="M271.097 110.76C271.097 126.275 264.051 137.808 237.117 153.645L187.841 182.099" stroke="#BCBEC0" stroke-width="0.270651" stroke-miterlimit="10"/>
<path d="M271.097 120.643C271.097 136.158 264.051 147.691 237.117 163.528L187.841 191.982" stroke="#BCBEC0" stroke-width="0.270651" stroke-miterlimit="10"/>
<path d="M271.097 129.4C271.097 144.915 264.051 156.448 237.117 172.285L187.841 200.739" stroke="#BCBEC0" stroke-width="0.270651" stroke-miterlimit="10"/>
<path d="M272.625 134.438C272.625 149.952 265.579 161.485 238.645 177.323L189.369 205.776" stroke="#BCBEC0" stroke-width="0.270651" stroke-miterlimit="10"/>
<path d="M272.625 143.858C272.625 159.373 265.579 170.906 238.645 186.743L189.369 215.197" stroke="#BCBEC0" stroke-width="0.270651" stroke-miterlimit="10"/>
<path d="M272.625 141.387C272.625 156.902 265.579 168.435 238.645 184.273L189.369 212.726" stroke="#BCBEC0" stroke-width="0.270651" stroke-miterlimit="10"/>
<path d="M272.625 125.454C272.625 140.968 265.579 152.502 238.645 168.339L189.369 196.792" stroke="#BCBEC0" stroke-width="0.270651" stroke-miterlimit="10"/>
<path d="M272.625 115.728C272.625 131.242 265.579 142.776 238.645 158.613L189.369 187.066" stroke="#BCBEC0" stroke-width="0.270651" stroke-miterlimit="10"/>
<path d="M270.329 92.0242C270.329 107.539 263.283 119.072 236.349 134.909L187.073 163.363" stroke="#949598" stroke-width="0.270651" stroke-miterlimit="10"/>
<path d="M270.329 102.126C270.329 117.64 263.283 129.173 236.349 145.011L187.073 173.464" stroke="#949598" stroke-width="0.270651" stroke-miterlimit="10"/>
<path d="M270.329 112.009C270.329 127.523 263.283 139.056 236.349 154.894L187.073 183.347" stroke="#949598" stroke-width="0.270651" stroke-miterlimit="10"/>
<path d="M270.329 120.774C270.329 136.289 263.283 147.822 236.349 163.659L187.073 192.113" stroke="#949598" stroke-width="0.270651" stroke-miterlimit="10"/>
<path d="M271.857 125.803C271.857 141.318 264.811 152.851 237.877 168.688L188.601 197.141" stroke="#949598" stroke-width="0.270651" stroke-miterlimit="10"/>
<path d="M271.857 135.232C271.857 150.747 264.811 162.28 237.877 178.117L188.601 206.571" stroke="#949598" stroke-width="0.270651" stroke-miterlimit="10"/>
<path d="M271.857 132.761C271.857 148.276 264.811 159.809 237.877 175.647L188.601 204.1" stroke="#949598" stroke-width="0.270651" stroke-miterlimit="10"/>
<path d="M271.857 116.819C271.857 132.334 264.811 143.867 237.877 159.704L188.601 188.158" stroke="#949598" stroke-width="0.270651" stroke-miterlimit="10"/>
<path d="M271.857 107.093C271.857 122.608 264.811 134.141 237.877 149.978L188.601 178.432" stroke="#949598" stroke-width="0.270651" stroke-miterlimit="10"/>
<path d="M271.097 96.1451C271.097 111.66 264.051 123.193 237.117 139.03L187.841 167.484" stroke="#58595B" stroke-width="0.270651" stroke-miterlimit="10"/>
<path d="M271.097 106.246C271.097 121.761 264.051 133.294 237.117 149.132L187.841 177.585" stroke="#58595B" stroke-width="0.270651" stroke-miterlimit="10"/>
<path d="M271.097 116.13C271.097 131.644 264.051 143.177 237.117 159.015L187.841 187.468" stroke="#58595B" stroke-width="0.270651" stroke-miterlimit="10"/>
<path d="M271.097 124.895C271.097 140.41 264.051 151.943 237.117 167.78L187.841 196.233" stroke="#58595B" stroke-width="0.270651" stroke-miterlimit="10"/>
<path d="M272.625 129.924C272.625 145.438 265.579 156.972 238.645 172.809L189.369 201.262" stroke="#58595B" stroke-width="0.270651" stroke-miterlimit="10"/>
<path d="M272.625 139.353C272.625 154.868 265.579 166.401 238.645 182.238L189.369 210.692" stroke="#58595B" stroke-width="0.270651" stroke-miterlimit="10"/>
<path d="M272.625 136.882C272.625 152.397 265.579 163.93 238.645 179.768L189.369 208.221" stroke="#58595B" stroke-width="0.270651" stroke-miterlimit="10"/>
<path d="M272.625 120.94C272.625 136.455 265.579 147.988 238.645 163.825L189.369 192.279" stroke="#58595B" stroke-width="0.270651" stroke-miterlimit="10"/>
<path d="M272.625 111.214C272.625 126.729 265.579 138.262 238.645 154.099L189.369 182.553" stroke="#58595B" stroke-width="0.270651" stroke-miterlimit="10"/>
<path opacity="0.5" d="M272.625 98.4413C272.625 113.956 265.579 125.489 238.645 141.326L189.369 169.78" stroke="#FFDD4F" stroke-width="0.270651" stroke-miterlimit="10"/>
<path opacity="0.5" d="M273.559 117.317C273.559 132.831 266.514 144.365 239.58 160.202L190.304 188.655" stroke="#FFDD4F" stroke-width="0.270651" stroke-miterlimit="10"/>
<path opacity="0.5" d="M274.249 133.591C274.249 149.105 267.204 160.638 240.27 176.476L190.994 204.929" stroke="#FFDD4F" stroke-width="0.270651" stroke-miterlimit="10"/>
<path opacity="0.2" d="M272.625 109.695C272.625 125.209 265.579 136.743 238.645 152.58L189.369 181.033" stroke="#FFDD4F" stroke-width="0.270651" stroke-miterlimit="10"/>
<path opacity="0.5" d="M273.559 116.13C273.559 131.644 266.514 143.177 239.58 159.015L190.304 187.468" stroke="#FFDD4F" stroke-width="0.270651" stroke-miterlimit="10"/>
</g>
<path d="M172.737 104.579L180.15 61.5542V104.937C178.246 104.623 176.622 105.731 174.728 105.574" fill="white"/>
<path d="M178.596 103.846L180.15 61.5542V104.937C179.626 104.85 179.12 104.151 178.596 103.854" fill="#58595B"/>
<path d="M89.5742 232.249C89.5742 233.789 89.1614 234.717 88.3358 235.032C87.5228 235.355 86.5067 235.164 85.2873 234.46L83.0201 233.151V236.583L85.0778 237.771V239.509L79.7812 236.451V234.713L81.2863 235.582V224.758L79.7812 223.889V222.151L85.173 225.264C86.7099 226.151 87.8277 227.229 88.5263 228.498C89.2249 229.752 89.5742 231.002 89.5742 232.249ZM87.7261 231.226C87.7261 230.375 87.5101 229.583 87.0783 228.85C86.6464 228.102 85.9478 227.449 84.9825 226.892L83.0201 225.759V231.435L85.0206 232.59C86.8243 233.631 87.7261 233.177 87.7261 231.226ZM100.664 248.508L96.2246 245.945V244.449L97.6154 245.252V241.006C97.6154 240.008 97.4439 239.205 97.101 238.597C96.758 237.973 96.3071 237.5 95.7482 237.178C95.0624 236.782 94.5098 236.734 94.0907 237.035C93.6715 237.321 93.4492 237.801 93.4238 238.476V242.832L94.8147 243.635V245.131L90.3945 242.579V241.083L91.7663 241.875V229.753L90.3945 228.961V227.443L93.4238 229.192V236.188C94.0462 235.286 95.0179 235.216 96.3389 235.979C97.1645 236.455 97.8631 237.152 98.4347 238.069C99.0062 238.985 99.292 240.067 99.292 241.314V246.22L100.664 247.012V248.508ZM102.767 237.578V235.312L104.501 236.313V238.579L102.767 237.578ZM105.93 251.548L101.491 248.985V247.489L102.882 248.292V241.472L101.434 240.636V239.118L104.558 240.922V249.26L105.93 250.052V251.548ZM111.115 254.542L106.695 251.99V250.494L108.066 251.286V239.164L106.638 238.339V236.821L109.743 238.614V252.254L111.115 253.046V254.542ZM113.41 243.723V241.457L115.144 242.458V244.724L113.41 243.723ZM116.573 257.693L112.133 255.13V253.634L113.524 254.437V247.617L112.076 246.781V245.263L115.201 247.067V255.405L116.573 256.197V257.693ZM126.921 258.497C126.921 259.846 126.61 260.906 125.987 261.676C125.365 262.431 124.374 262.417 123.015 261.632C121.758 260.906 120.843 259.843 120.271 258.442V262.974L122.12 264.041V265.581L117.223 262.754V261.214L118.614 262.017V250.555L117.166 249.719V248.201L120.271 249.994V251.996C120.525 251.556 120.887 251.252 121.357 251.083C121.827 250.914 122.456 251.057 123.244 251.512C124.336 252.143 125.219 253.085 125.892 254.339C126.578 255.586 126.921 256.972 126.921 258.497ZM125.168 257.661C125.168 256.532 124.939 255.542 124.482 254.691C124.037 253.848 123.46 253.221 122.748 252.81C122.024 252.392 121.44 252.385 120.995 252.788C120.551 253.191 120.316 253.767 120.29 254.515L120.271 255.648C120.271 256.469 120.5 257.276 120.957 258.068C121.415 258.86 121.98 259.45 122.653 259.839C123.504 260.33 124.133 260.349 124.539 259.894C124.958 259.432 125.168 258.688 125.168 257.661ZM139.513 258.375L138.198 257.616V266.394C138.198 267.743 137.9 268.576 137.303 268.891C136.706 269.206 135.886 269.063 134.845 268.462C133.956 267.949 133.251 267.322 132.73 266.581C132.222 265.848 131.835 265.067 131.568 264.238L132.806 263.875C133.06 264.623 133.34 265.195 133.645 265.591C133.962 265.98 134.311 266.284 134.692 266.504C135.315 266.863 135.766 266.933 136.045 266.713C136.325 266.478 136.464 266.046 136.464 265.415V256.615L134.102 255.251V253.513L139.513 256.637V258.375ZM148.858 271.427C148.858 272.937 148.452 273.935 147.639 274.419C146.839 274.91 145.778 274.774 144.457 274.012C143.162 273.264 142.133 272.208 141.371 270.844C140.621 269.487 140.247 268.053 140.247 266.543C140.247 265.105 140.609 264.082 141.333 263.474C142.057 262.865 143.136 262.975 144.572 263.804C146.007 264.632 147.08 265.765 147.792 267.203C148.503 268.625 148.858 270.033 148.858 271.427ZM147.106 270.349C147.106 269.263 146.871 268.27 146.401 267.368C145.943 266.473 145.321 265.798 144.534 265.344C143.708 264.867 143.073 264.838 142.628 265.256C142.196 265.666 141.98 266.392 141.98 267.434C141.98 268.431 142.19 269.403 142.609 270.349C143.041 271.287 143.676 271.999 144.514 272.483C145.34 272.959 145.975 272.989 146.42 272.571C146.877 272.145 147.106 271.405 147.106 270.349ZM160.054 282.797L155.615 280.234V278.738L157.006 279.541V275.295C157.006 274.297 156.834 273.494 156.491 272.886C156.148 272.262 155.698 271.789 155.139 271.467C154.453 271.071 153.9 271.023 153.481 271.324C153.062 271.61 152.84 272.09 152.814 272.765V277.121L154.205 277.924V279.42L149.785 276.868V275.372L151.157 276.164V264.042L149.785 263.25V261.732L152.814 263.481V270.477C153.437 269.575 154.408 269.505 155.729 270.268C156.555 270.744 157.253 271.441 157.825 272.358C158.397 273.274 158.682 274.356 158.682 275.603V280.509L160.054 281.301V282.797ZM171.093 289.17L166.673 286.618V285.122L168.045 285.914V281.668C168.045 280.671 167.88 279.871 167.55 279.27C167.219 278.654 166.781 278.188 166.235 277.873C165.524 277.462 164.958 277.407 164.539 277.708C164.12 278.009 163.898 278.511 163.872 279.215V283.505L165.244 284.297V285.793L160.824 283.241V281.745L162.196 282.537V275.717L160.767 274.892V273.374L163.872 275.167V276.839C164.469 275.937 165.435 275.871 166.768 276.641C167.594 277.118 168.293 277.814 168.864 278.731C169.436 279.648 169.722 280.729 169.722 281.976V286.882L171.093 287.674V289.17ZM179.078 290.898C179.078 291.881 178.723 292.438 178.011 292.57C177.313 292.71 176.424 292.468 175.344 291.844C174.036 291.089 172.924 290.125 172.01 288.951L172.277 286.729L173.591 287.642L173.553 288.896C173.807 289.19 174.08 289.45 174.372 289.677C174.677 289.912 174.976 290.114 175.268 290.282C175.814 290.598 176.303 290.763 176.735 290.777C177.179 290.799 177.402 290.561 177.402 290.062C177.402 289.578 177.224 289.138 176.868 288.742C176.513 288.332 176.068 287.921 175.535 287.51C175.014 287.107 174.493 286.682 173.972 286.234C173.451 285.772 173.013 285.255 172.658 284.683C172.302 284.097 172.124 283.422 172.124 282.659C172.124 281.559 172.473 280.998 173.172 280.976C173.883 280.962 174.639 281.185 175.439 281.647C176.024 281.985 176.57 282.388 177.078 282.857C177.599 283.319 178.069 283.803 178.488 284.309L178.678 286.795L177.345 286.201L177.154 284.551C176.633 283.972 176.087 283.517 175.516 283.187C175.046 282.916 174.658 282.795 174.353 282.824C174.048 282.854 173.896 283.103 173.896 283.572C173.896 284.027 174.068 284.449 174.41 284.837C174.766 285.233 175.198 285.629 175.706 286.025C176.227 286.414 176.741 286.836 177.249 287.29C177.77 287.752 178.202 288.273 178.545 288.852C178.901 289.439 179.078 290.121 179.078 290.898ZM188.973 294.587C188.973 296.098 188.567 297.095 187.754 297.579C186.953 298.07 185.893 297.935 184.572 297.172C183.276 296.424 182.247 295.368 181.485 294.004C180.736 292.647 180.361 291.214 180.361 289.703C180.361 288.266 180.723 287.243 181.447 286.634C182.171 286.025 183.251 286.135 184.686 286.964C186.121 287.793 187.195 288.926 187.906 290.363C188.617 291.786 188.973 293.194 188.973 294.587ZM187.22 293.509C187.22 292.424 186.985 291.43 186.515 290.528C186.058 289.633 185.436 288.959 184.648 288.504C183.822 288.027 183.187 287.998 182.743 288.416C182.311 288.827 182.095 289.553 182.095 290.594C182.095 291.591 182.305 292.563 182.724 293.509C183.156 294.448 183.791 295.159 184.629 295.643C185.455 296.12 186.09 296.149 186.534 295.731C186.992 295.306 187.22 294.565 187.22 293.509ZM200.416 306.1L195.996 303.548V302.052L197.368 302.844V298.598C197.368 297.6 197.203 296.801 196.873 296.2C196.542 295.584 196.104 295.118 195.558 294.803C194.847 294.392 194.282 294.337 193.862 294.638C193.443 294.938 193.221 295.441 193.196 296.145V300.435L194.567 301.227V302.723L190.147 300.171V298.675L191.519 299.467V292.647L190.09 291.822V290.304L193.196 292.097V293.769C193.793 292.867 194.758 292.801 196.092 293.571C196.917 294.047 197.616 294.744 198.187 295.661C198.759 296.577 199.045 297.659 199.045 298.906V303.812L200.416 304.604V306.1Z" fill="#818181"/>
</svg>
