<svg width="299" height="332" viewBox="0 0 299 332" fill="none" xmlns="http://www.w3.org/2000/svg">
<path d="M241.711 198.221C241.627 201.184 241.321 204.147 240.484 207.019C231.058 239.417 161.23 271.341 96.518 253.186C37.1957 236.545 2.19072 201.435 2.14191 177.892V132.408C1.44474 166.04 45.7012 196.074 100.29 211.314C163.035 228.827 229.176 199.023 241.711 163.418V198.228V198.221Z" fill="#D5C18D"/>
<path d="M197.28 145.396C191.647 125.276 164.876 104.612 131.174 96.0506C89.6995 85.5163 53.9555 100.826 47.9529 124.446C45.6383 133.565 49.7307 143.186 58.0131 152.18C73.309 139.721 102.276 132.108 133.384 140.007C143.382 142.545 152.633 146.812 160.846 151.887C167.671 149.649 176.93 148.053 187.436 146.714C190.615 146.31 193.913 145.926 197.287 145.557" fill="#D5C18D"/>
<path d="M240.505 208.309C261.211 205.019 283.855 204.579 297.59 197.684V153.923C281.122 160.678 261.211 163.244 241.718 164.471V199.281C241.635 202.244 241.328 205.207 240.491 208.079" fill="#D5C18D"/>
<path d="M196.911 148.185C193.536 148.555 190.239 148.938 187.06 149.342C175.215 135.559 154.753 123.345 130.791 117.259C91.7006 107.331 57.6926 120.361 48.8943 141.674C46.9004 136.779 46.3566 131.857 47.5697 127.075C53.5723 103.455 89.3163 88.1447 130.791 98.679C164.485 107.24 191.257 127.904 196.897 148.025" fill="#9F9D9C"/>
<path d="M297.478 155.575L297.227 173.89C280.794 180.729 260.897 183.399 241.411 184.731L241.662 166.416C261.148 165.092 281.038 162.414 297.478 155.575Z" fill="#9F9D9C"/>
<path d="M2.23983 134.437L2.47686 161.229C7.83114 191.814 49.515 218.607 100.053 232.71C162.798 250.223 228.939 220.419 241.474 184.815L241.816 166.507C229.288 202.118 163.14 231.916 100.395 214.403C45.2274 199.009 0.622388 168.501 2.28166 134.437" fill="#9F9D9C"/>
<path d="M164.813 185.756V172.746C170.669 168.71 181.322 167.085 194.568 166.235C189.082 175.528 178.282 182.277 164.994 185.728" fill="#EFDFA9"/>
<path d="M152.898 187.938V155.31L164.813 172.747V185.77C161.021 186.746 157.026 187.45 152.898 187.868" fill="#BEA570"/>
<path d="M194.562 166.235C181.315 167.086 170.663 168.71 164.806 172.747L152.892 155.31V158.956L164.806 176.393V176.002C170.307 172.21 180.06 170.544 192.219 169.651L192.261 169.595C193.104 168.515 193.878 167.392 194.562 166.235Z" fill="white"/>
<path d="M297.52 153.456L297.269 171.77C280.836 178.61 260.939 181.28 241.453 182.612L241.704 164.297C261.19 162.972 281.08 160.295 297.52 153.456Z" fill="#EFDFA9"/>
<path d="M2.128 132.157L2.36505 158.95C7.71933 189.534 49.4032 216.327 99.9412 230.431C162.687 247.944 228.827 218.139 241.362 182.535L241.704 164.227C229.176 199.839 163.028 229.636 100.283 212.123C45.1156 196.729 0.510572 166.221 2.16984 132.157" fill="#EFDFA9"/>
<path d="M2.91602 142.155C9.23936 172.175 50.4352 198.388 100.234 212.283C162.98 229.796 229.12 199.992 241.655 164.387C261.148 163.16 281.053 160.595 297.527 153.839V156.495C281.06 163.251 260.981 165.851 241.488 167.078L242.227 167.051C229.699 202.662 163.551 232.459 100.806 214.946C49.1455 200.529 6.74349 172.858 2.92996 141.43" fill="white"/>
<path d="M197.301 145.557C193.927 145.926 190.629 146.31 187.45 146.714C175.605 132.931 155.143 120.717 131.182 114.63C92.0912 104.702 58.0832 117.733 49.2849 139.045C47.291 134.151 46.7472 129.229 47.9603 124.446C53.9629 100.826 89.7069 85.5163 131.182 96.0506C164.876 104.612 191.647 125.276 197.287 145.396" fill="#EFDFA9"/>
<path d="M195.963 144.657C196.402 144.609 196.841 144.56 197.281 144.511L197.267 144.358C191.634 124.237 164.862 103.573 131.168 95.0119C89.6931 84.4776 53.9491 99.7875 47.9464 123.408C47.3678 125.701 47.1865 128.023 47.3817 130.358C47.4863 129.327 47.6606 128.295 47.9255 127.27C53.9282 103.65 89.6721 88.3399 131.147 98.8742C162.736 106.899 188.238 125.569 195.949 144.448" fill="white"/>
<path d="M114.129 215.211L113.557 255.612" stroke="white" stroke-width="9.78829" stroke-miterlimit="10"/>
<path d="M99.2578 93.5339L98.6582 136.229" stroke="white" stroke-width="9.78829" stroke-miterlimit="10"/>
<path d="M145.515 99.5226L144.909 142.524" stroke="white" stroke-width="9.78829" stroke-miterlimit="10"/>
<path d="M183.811 123.436L183.427 150.402" stroke="white" stroke-width="5.34033" stroke-miterlimit="10"/>
<path d="M56.4097 108.941L55.7544 155.31" stroke="white" stroke-width="5.34033" stroke-miterlimit="10"/>
<path d="M47.3049 186.056L46.6426 232.808" stroke="white" stroke-width="9.78829" stroke-miterlimit="10"/>
<path d="M9.06485 149.342L8.36768 198.639" stroke="white" stroke-width="2.67017" stroke-miterlimit="10"/>
<path d="M179.976 212.611L179.405 253.012" stroke="white" stroke-width="8.0105" stroke-miterlimit="10"/>
<path d="M225.634 188.105L225.062 228.506" stroke="white" stroke-width="4.44796" stroke-miterlimit="10"/>
<path d="M255.062 165.552L254.49 205.953" stroke="white" stroke-width="4.44796" stroke-miterlimit="10"/>
<path d="M285.702 159.682L285.138 200.083" stroke="white" stroke-width="4.44796" stroke-miterlimit="10"/>
<path d="M297.582 159.912C281.115 166.667 261.204 169.233 241.711 170.46C229.183 206.071 163.035 235.868 100.29 218.355C47.6462 203.659 4.60978 175.208 2.23242 143.033" stroke="white" stroke-width="2.67017" stroke-miterlimit="10"/>
<path d="M297.582 163.676C281.115 170.432 261.204 172.998 241.711 174.225C229.183 209.836 163.035 239.633 100.29 222.12C47.6462 207.424 4.60978 178.972 2.23242 146.798" stroke="white" stroke-width="0.89238" stroke-miterlimit="10"/>
<path d="M47.5767 130.714C53.5793 107.094 89.3233 91.7839 130.798 102.318C161.23 110.05 186.007 127.653 194.68 145.808" stroke="white" stroke-width="2.67017" stroke-miterlimit="10"/>
<path d="M47.5767 134.89C53.5793 111.27 89.3233 95.9599 130.798 106.494C161.23 114.226 186.007 131.829 194.68 149.984" stroke="white" stroke-width="0.89238" stroke-miterlimit="10"/>
<path d="M194.562 172.942C181.315 173.792 170.662 175.417 164.806 179.453L149.859 157.681" stroke="white" stroke-width="2.67017" stroke-miterlimit="10"/>
<path d="M194.562 177.208C181.315 178.059 170.662 179.683 164.806 183.72L149.859 161.947" stroke="white" stroke-width="0.89238" stroke-miterlimit="10"/>
<path d="M141.228 258.206V241.543C141.228 238.162 143.974 235.415 147.356 235.415C150.737 235.415 153.484 237.465 153.484 240.853V257.209" fill="white"/>
<path d="M263.972 202.697V185.142C263.972 181.761 266.719 179.014 270.1 179.014C273.481 179.014 276.228 181.064 276.228 184.452V200.808" fill="white"/>
<path d="M71.5034 244.611V227.098C71.5034 224.03 73.9923 222.782 77.0529 223.968C79.9113 225.069 82.6024 229.05 82.6024 232.118V248.55" fill="white"/>
<path d="M211.851 240.079V222.566C211.851 219.499 209.362 218.251 206.301 219.436C203.443 220.538 200.752 224.518 200.752 227.586V244.018" fill="white"/>
<path d="M116.757 133.872V116.359C116.757 113.292 119.162 111.388 122.306 112.337C125.96 113.438 127.856 117.419 127.856 120.486V137.811" fill="white"/>
<path d="M159.94 148.959V131.446C159.94 128.379 162.429 127.131 165.489 128.316C168.348 129.417 171.039 133.398 171.039 136.466V152.898" fill="white"/>
<path d="M18.7695 210.463V194.491C18.7695 191.828 21.3003 190.838 23.587 192.546C26.0689 194.401 28.4044 199.274 28.4044 201.937V218.516" fill="white"/>
<path d="M83.0838 135.12V117.607C83.0838 114.54 80.5949 113.292 77.5344 114.477C74.676 115.578 71.9849 119.559 71.9849 122.627V140.837" fill="white"/>
<path d="M236.789 213.88V201.463C236.789 198.8 237.242 194.882 234.963 196.583C232.481 198.437 232.627 201.456 232.627 204.119V220.698" fill="white"/>
<path d="M100.806 255.375V243.245" stroke="#221F20" stroke-width="0.89238" stroke-miterlimit="10" stroke-linecap="round"/>
<path d="M94.2451 249.31V237.179" stroke="#221F20" stroke-width="0.89238" stroke-miterlimit="10" stroke-linecap="round"/>
<path d="M97.7729 251.813V231.853" stroke="#221F20" stroke-width="0.89238" stroke-miterlimit="10" stroke-linecap="round"/>
<path d="M90.4321 253.221V233.268" stroke="#221F20" stroke-width="0.89238" stroke-miterlimit="10" stroke-linecap="round"/>
<path d="M87.7197 256.17V236.217" stroke="#221F20" stroke-width="0.89238" stroke-miterlimit="10" stroke-linecap="round"/>
<path d="M137.031 257.606V245.475" stroke="#221F20" stroke-width="0.89238" stroke-miterlimit="10" stroke-linecap="round"/>
<path d="M129.578 256.881V244.75" stroke="#221F20" stroke-width="0.89238" stroke-miterlimit="10" stroke-linecap="round"/>
<path d="M133.099 255.821V235.868" stroke="#221F20" stroke-width="0.89238" stroke-miterlimit="10" stroke-linecap="round"/>
<path d="M125.764 255.452V235.499" stroke="#221F20" stroke-width="0.89238" stroke-miterlimit="10" stroke-linecap="round"/>
<path d="M123.053 258.401V238.448" stroke="#221F20" stroke-width="0.89238" stroke-miterlimit="10" stroke-linecap="round"/>
<path d="M230.766 223.264V211.126" stroke="#221F20" stroke-width="0.89238" stroke-miterlimit="10" stroke-linecap="round"/>
<path d="M224.198 228.004V215.867" stroke="#221F20" stroke-width="0.89238" stroke-miterlimit="10" stroke-linecap="round"/>
<path d="M227.726 226.052V206.099" stroke="#221F20" stroke-width="0.89238" stroke-miterlimit="10" stroke-linecap="round"/>
<path d="M220.385 231.915V211.955" stroke="#221F20" stroke-width="0.89238" stroke-miterlimit="10" stroke-linecap="round"/>
<path d="M217.68 234.864V214.911" stroke="#221F20" stroke-width="0.89238" stroke-miterlimit="10" stroke-linecap="round"/>
<path d="M291.963 197.649V185.512" stroke="#221F20" stroke-width="0.89238" stroke-miterlimit="10" stroke-linecap="round"/>
<path d="M285.403 199.72V187.582" stroke="#221F20" stroke-width="0.89238" stroke-miterlimit="10" stroke-linecap="round"/>
<path d="M288.924 198.653V178.7" stroke="#221F20" stroke-width="0.89238" stroke-miterlimit="10" stroke-linecap="round"/>
<path d="M281.589 200.069V180.116" stroke="#221F20" stroke-width="0.89238" stroke-miterlimit="10" stroke-linecap="round"/>
<path d="M278.877 202.125V182.172" stroke="#221F20" stroke-width="0.89238" stroke-miterlimit="10" stroke-linecap="round"/>
<path d="M253.089 204.921V192.783" stroke="#221F20" stroke-width="0.89238" stroke-miterlimit="10" stroke-linecap="round"/>
<path d="M245.636 205.207V193.076" stroke="#221F20" stroke-width="0.89238" stroke-miterlimit="10" stroke-linecap="round"/>
<path d="M249.164 205.925V185.972" stroke="#221F20" stroke-width="0.89238" stroke-miterlimit="10" stroke-linecap="round"/>
<path d="M241.823 207.34V187.387" stroke="#221F20" stroke-width="0.89238" stroke-miterlimit="10" stroke-linecap="round"/>
<path d="M239.11 211.182V191.222" stroke="#221F20" stroke-width="0.89238" stroke-miterlimit="10" stroke-linecap="round"/>
<path d="M193.822 247.239V235.102" stroke="#221F20" stroke-width="0.89238" stroke-miterlimit="10" stroke-linecap="round"/>
<path d="M186.37 249.184V237.047" stroke="#221F20" stroke-width="0.89238" stroke-miterlimit="10" stroke-linecap="round"/>
<path d="M189.897 247.232V227.279" stroke="#221F20" stroke-width="0.89238" stroke-miterlimit="10" stroke-linecap="round"/>
<path d="M182.556 248.641V228.688" stroke="#221F20" stroke-width="0.89238" stroke-miterlimit="10" stroke-linecap="round"/>
<path d="M179.844 251.59V231.637" stroke="#221F20" stroke-width="0.89238" stroke-miterlimit="10" stroke-linecap="round"/>
<path d="M172.928 253.549V241.411" stroke="#221F20" stroke-width="0.89238" stroke-miterlimit="10" stroke-linecap="round"/>
<path d="M165.468 253.709V241.578" stroke="#221F20" stroke-width="0.89238" stroke-miterlimit="10" stroke-linecap="round"/>
<path d="M168.996 252.649V232.696" stroke="#221F20" stroke-width="0.89238" stroke-miterlimit="10" stroke-linecap="round"/>
<path d="M161.655 254.058V234.105" stroke="#221F20" stroke-width="0.89238" stroke-miterlimit="10" stroke-linecap="round"/>
<path d="M158.95 255.229V235.276" stroke="#221F20" stroke-width="0.89238" stroke-miterlimit="10" stroke-linecap="round"/>
<path d="M104.41 254.615V237.876" stroke="#221F20" stroke-width="0.89238" stroke-miterlimit="10" stroke-linecap="round"/>
<path d="M108.056 260.179V243.44" stroke="#221F20" stroke-width="0.89238" stroke-miterlimit="10" stroke-linecap="round"/>
<path d="M59.519 238.051V225.913" stroke="#221F20" stroke-width="0.89238" stroke-miterlimit="10" stroke-linecap="round"/>
<path d="M52.9517 233.763V221.632" stroke="#221F20" stroke-width="0.89238" stroke-miterlimit="10" stroke-linecap="round"/>
<path d="M56.4795 234.481V214.528" stroke="#221F20" stroke-width="0.89238" stroke-miterlimit="10" stroke-linecap="round"/>
<path d="M49.1387 235.889V215.936" stroke="#221F20" stroke-width="0.89238" stroke-miterlimit="10" stroke-linecap="round"/>
<path d="M45.8477 235.889V215.936" stroke="#221F20" stroke-width="0.89238" stroke-miterlimit="10" stroke-linecap="round"/>
<path d="M41.4419 227.809V215.671" stroke="#221F20" stroke-width="0.89238" stroke-miterlimit="10" stroke-linecap="round"/>
<path d="M34.874 221.744V209.606" stroke="#221F20" stroke-width="0.89238" stroke-miterlimit="10" stroke-linecap="round"/>
<path d="M38.4019 224.24V204.287" stroke="#221F20" stroke-width="0.89238" stroke-miterlimit="10" stroke-linecap="round"/>
<path d="M31.0605 221.2V201.247" stroke="#221F20" stroke-width="0.89238" stroke-miterlimit="10" stroke-linecap="round"/>
<path d="M3.125 185.226V173.095" stroke="#221F20" stroke-width="0.89238" stroke-miterlimit="10" stroke-linecap="round"/>
<path d="M16.3853 204.977V192.846" stroke="#221F20" stroke-width="0.89238" stroke-miterlimit="10" stroke-linecap="round"/>
<path d="M9.81787 198.911V186.781" stroke="#221F20" stroke-width="0.89238" stroke-miterlimit="10" stroke-linecap="round"/>
<path d="M13.3452 201.407V181.454" stroke="#221F20" stroke-width="0.89238" stroke-miterlimit="10" stroke-linecap="round"/>
<path d="M6.00439 200.152V180.199" stroke="#221F20" stroke-width="0.89238" stroke-miterlimit="10" stroke-linecap="round"/>
<path d="M64.0088 239.068V222.329" stroke="#221F20" stroke-width="0.89238" stroke-miterlimit="10" stroke-linecap="round"/>
<path d="M67.6553 242.847V226.115" stroke="#221F20" stroke-width="0.89238" stroke-miterlimit="10" stroke-linecap="round"/>
<path d="M112.19 256.17V239.431" stroke="#221F20" stroke-width="0.89238" stroke-miterlimit="10" stroke-linecap="round"/>
<path d="M115.342 261.587V244.855" stroke="#221F20" stroke-width="0.89238" stroke-miterlimit="10" stroke-linecap="round"/>
<path d="M119.309 257.683V240.944" stroke="#221F20" stroke-width="0.89238" stroke-miterlimit="10" stroke-linecap="round"/>
<path d="M176.63 253.228V236.489" stroke="#221F20" stroke-width="0.89238" stroke-miterlimit="10" stroke-linecap="round"/>
<path d="M196.841 245.622V228.883" stroke="#221F20" stroke-width="0.89238" stroke-miterlimit="10" stroke-linecap="round"/>
<path d="M214.926 235.666V218.927" stroke="#221F20" stroke-width="0.89238" stroke-miterlimit="10" stroke-linecap="round"/>
<path d="M261.134 204.551V187.812" stroke="#221F20" stroke-width="0.89238" stroke-miterlimit="10" stroke-linecap="round"/>
<path d="M256.666 203.799V187.066" stroke="#221F20" stroke-width="0.89238" stroke-miterlimit="10" stroke-linecap="round"/>
<path d="M295.442 197.531V180.799" stroke="#221F20" stroke-width="0.89238" stroke-miterlimit="10" stroke-linecap="round"/>
<path d="M241.132 208.728C241.132 208.728 241.028 208.351 240.888 208.825C231.463 241.223 161.237 272.261 96.525 254.106C37.2027 237.465 2.19773 202.355 2.14893 178.812V191.242C2.19773 214.786 37.2027 246.333 96.525 262.974C161.237 281.129 231.079 244.095 240.505 211.697C261.211 208.407 283.855 207.968 297.589 201.073V197.942C283.862 204.837 261.204 205.534 240.491 208.825" fill="white"/>
<path d="M143.807 140.607V128.469" stroke="#221F20" stroke-width="0.89238" stroke-miterlimit="10" stroke-linecap="round"/>
<path d="M137.247 137.205V125.074" stroke="#221F20" stroke-width="0.89238" stroke-miterlimit="10" stroke-linecap="round"/>
<path d="M140.768 138.815V118.862" stroke="#221F20" stroke-width="0.89238" stroke-miterlimit="10" stroke-linecap="round"/>
<path d="M133.433 138.446V118.493" stroke="#221F20" stroke-width="0.89238" stroke-miterlimit="10" stroke-linecap="round"/>
<path d="M130.722 138.725V118.771" stroke="#221F20" stroke-width="0.89238" stroke-miterlimit="10" stroke-linecap="round"/>
<path d="M114.554 134.82V122.683" stroke="#221F20" stroke-width="0.89238" stroke-miterlimit="10" stroke-linecap="round"/>
<path d="M107.986 133.203V121.065" stroke="#221F20" stroke-width="0.89238" stroke-miterlimit="10" stroke-linecap="round"/>
<path d="M111.514 133.029V113.076" stroke="#221F20" stroke-width="0.89238" stroke-miterlimit="10" stroke-linecap="round"/>
<path d="M104.173 132.659V112.706" stroke="#221F20" stroke-width="0.89238" stroke-miterlimit="10" stroke-linecap="round"/>
<path d="M101.461 132.938V112.985" stroke="#221F20" stroke-width="0.89238" stroke-miterlimit="10" stroke-linecap="round"/>
<path d="M98.1772 136.006V123.868" stroke="#221F20" stroke-width="0.89238" stroke-miterlimit="10" stroke-linecap="round"/>
<path d="M91.6104 133.496V121.365" stroke="#221F20" stroke-width="0.89238" stroke-miterlimit="10" stroke-linecap="round"/>
<path d="M95.1377 134.214V114.261" stroke="#221F20" stroke-width="0.89238" stroke-miterlimit="10" stroke-linecap="round"/>
<path d="M87.7964 133.844V113.891" stroke="#221F20" stroke-width="0.89238" stroke-miterlimit="10" stroke-linecap="round"/>
<path d="M85.0845 134.123V114.17" stroke="#221F20" stroke-width="0.89238" stroke-miterlimit="10" stroke-linecap="round"/>
<path d="M69.3076 141.325V129.194" stroke="#221F20" stroke-width="0.89238" stroke-miterlimit="10" stroke-linecap="round"/>
<path d="M63.3047 145.947V133.809" stroke="#221F20" stroke-width="0.89238" stroke-miterlimit="10" stroke-linecap="round"/>
<path d="M66.2681 142.21V122.257" stroke="#221F20" stroke-width="0.89238" stroke-miterlimit="10" stroke-linecap="round"/>
<path d="M60.2583 147.906V127.953" stroke="#221F20" stroke-width="0.89238" stroke-miterlimit="10" stroke-linecap="round"/>
<path d="M57.6577 152.096V132.143" stroke="#221F20" stroke-width="0.89238" stroke-miterlimit="10" stroke-linecap="round"/>
<path d="M173.862 158.071V145.94" stroke="#221F20" stroke-width="0.89238" stroke-miterlimit="10" stroke-linecap="round"/>
<path d="M176.902 158.956V138.996" stroke="#221F20" stroke-width="0.89238" stroke-miterlimit="10" stroke-linecap="round"/>
<path d="M154.042 143.974V131.844" stroke="#221F20" stroke-width="0.89238" stroke-miterlimit="10" stroke-linecap="round"/>
<path d="M157.562 147.363V127.409" stroke="#221F20" stroke-width="0.89238" stroke-miterlimit="10" stroke-linecap="round"/>
<path d="M150.229 143.437V123.484" stroke="#221F20" stroke-width="0.89238" stroke-miterlimit="10" stroke-linecap="round"/>
<path d="M147.516 143.716V123.763" stroke="#221F20" stroke-width="0.89238" stroke-miterlimit="10" stroke-linecap="round"/>
<path d="M165.489 150.549C163.844 150.967 162.296 151.413 160.853 151.887C152.641 146.819 143.389 142.552 133.392 140.007C102.284 132.108 73.3163 139.721 58.0204 152.18C57.3929 151.504 56.7934 150.82 56.2217 150.137C70.2906 135.392 99.0141 128.016 131.182 136.187C143.821 139.394 155.478 144.309 165.42 150.256" fill="#E6E7E8"/>
<path d="M241.132 205.339C241.132 205.339 241.028 204.963 240.888 205.437C231.463 237.835 161.237 268.873 96.525 250.718C37.2027 234.077 2.19773 198.967 2.14893 175.424V178.951C2.19773 202.495 37.2027 237.604 96.525 254.246C161.237 272.4 231.079 240.707 240.505 208.309C261.211 205.019 283.855 204.579 297.589 197.684V194.554C283.862 201.449 261.204 202.146 240.491 205.437" fill="#E6E7E8"/>
<path d="M283.848 130.798C273.216 135.413 258.38 138.264 242.408 140.391V140.363C240.484 119.022 203.806 82.9369 150.974 69.1259C78.2799 50.128 12.7597 87.3779 3.33393 124.481C-6.09184 161.585 41.0021 195.579 100.29 212.13C163.035 229.643 229.183 199.839 241.711 164.234C261.204 163.007 281.108 160.441 297.582 153.686L283.855 130.805L283.848 130.798ZM164.806 172.747C170.662 168.71 181.315 167.085 194.561 166.235C183.588 184.815 151.364 193.25 120.459 185.4C78.984 174.873 41.9503 147.83 47.9529 124.209C53.9556 100.589 89.6996 85.2794 131.174 95.8136C164.869 104.375 191.64 125.039 197.28 145.159L197.294 145.313C193.913 145.682 190.622 146.066 187.443 146.47C171.952 148.45 159.187 150.967 152.898 155.303L164.813 172.74L164.806 172.747Z" fill="#161C47"/>
<path d="M182.127 287.271C182.127 289.28 181.581 291.297 180.489 293.321L181.88 294.146L180.794 296.027L179.288 295.158C178.298 296.478 177.154 297.512 175.859 298.26C173.941 299.367 172.429 299.514 171.324 298.7C170.219 297.886 169.667 296.474 169.667 294.465C169.667 292.412 170.238 290.344 171.382 288.261C172.525 286.164 174.03 284.576 175.897 283.498C177.79 282.405 179.301 282.251 180.432 283.036C181.562 283.821 182.127 285.232 182.127 287.271ZM180.26 288.393C180.26 286.736 179.866 285.614 179.079 285.027C178.304 284.418 177.243 284.503 175.897 285.28C174.5 286.087 173.42 287.253 172.658 288.778C171.909 290.281 171.534 291.81 171.534 293.365C171.534 294.89 171.902 295.998 172.639 296.687C173.388 297.354 174.487 297.27 175.935 296.434C176.799 295.935 177.542 295.272 178.164 294.443L175.992 293.145L177.078 291.264L179.307 292.595C179.943 291.275 180.26 289.874 180.26 288.393ZM193.472 287.871L190.366 289.664V287.904C189.782 289.561 188.823 290.775 187.489 291.545C186.664 292.022 185.959 292.135 185.375 291.886C184.803 291.629 184.517 290.87 184.517 289.609V284.725L183.145 285.517V283.999L186.194 282.239V288.003C186.194 289 186.359 289.609 186.689 289.829C187.032 290.042 187.489 289.983 188.061 289.653C188.747 289.257 189.299 288.652 189.719 287.838C190.138 287.009 190.354 286.239 190.366 285.528V281.348L188.709 282.305V280.787L192.043 278.862V287.2L193.472 286.375V287.871ZM195.67 274.458V272.192L197.404 271.191V273.457L195.67 274.458ZM198.833 284.776L194.393 287.339V285.843L195.784 285.04V278.22L194.336 279.056V277.538L197.461 275.734V284.072L198.833 283.28V284.776ZM210.057 278.296L205.637 280.848V279.352L207.009 278.56V274.314C207.009 273.316 206.844 272.708 206.513 272.488C206.183 272.253 205.745 272.293 205.199 272.609C204.487 273.019 203.922 273.617 203.503 274.402C203.084 275.186 202.862 275.945 202.836 276.679V280.969L204.208 280.177V281.673L199.788 284.225V282.729L201.16 281.937V275.117L199.731 275.942V274.424L202.836 272.631V274.303C203.433 272.711 204.398 271.531 205.732 270.761C206.558 270.284 207.256 270.174 207.828 270.431C208.4 270.687 208.685 271.439 208.685 272.686V277.592L210.057 276.8V278.296ZM215.051 275.413L210.631 277.965V276.469L212.002 275.677V263.555L210.573 264.38V262.862L213.679 261.069V274.709L215.051 273.917V275.413ZM216.927 265.243C217.447 264.591 217.956 264.055 218.451 263.637C218.959 263.197 219.512 262.805 220.108 262.46C221.074 261.903 221.836 261.734 222.395 261.954C222.966 262.167 223.252 262.838 223.252 263.967V268.521C223.252 269.167 223.474 269.361 223.919 269.104C224.097 269.002 224.268 268.866 224.433 268.697L224.452 269.83C224.097 270.285 223.684 270.648 223.214 270.919C222.185 271.513 221.639 271.169 221.576 269.885V269.863C221.322 270.523 220.953 271.198 220.47 271.887C220.001 272.569 219.423 273.108 218.737 273.504C218.152 273.842 217.568 273.974 216.984 273.9C216.412 273.82 216.127 273.266 216.127 272.239C216.127 271.007 216.546 269.959 217.384 269.093C218.235 268.206 219.143 267.484 220.108 266.926C220.693 266.589 221.182 266.336 221.576 266.167V265.441C221.576 264.796 221.468 264.308 221.252 263.978C221.036 263.648 220.553 263.7 219.804 264.132C219.194 264.484 218.68 264.906 218.26 265.397L217.937 267.19L216.584 267.795L216.927 265.243ZM221.576 267.861V267.289C221.347 267.392 221.106 267.509 220.852 267.641C220.61 267.751 220.363 267.88 220.108 268.026C219.524 268.364 219.003 268.774 218.546 269.258C218.089 269.742 217.86 270.329 217.86 271.018C217.86 271.546 218 271.847 218.279 271.92C218.572 271.986 218.902 271.913 219.27 271.7C219.816 271.385 220.324 270.872 220.794 270.16C221.264 269.449 221.525 268.683 221.576 267.861ZM235.622 263.536L231.202 266.088V264.592L232.573 263.8V259.554C232.573 258.557 232.408 257.948 232.078 257.728C231.748 257.493 231.31 257.534 230.763 257.849C230.052 258.26 229.487 258.857 229.068 259.642C228.649 260.427 228.426 261.186 228.401 261.919V266.209L229.773 265.417V266.913L225.352 269.465V267.969L226.724 267.177V260.357L225.295 261.182V259.664L228.401 257.871V259.543C228.998 257.952 229.963 256.771 231.297 256.001C232.122 255.524 232.821 255.414 233.393 255.671C233.964 255.928 234.25 256.679 234.25 257.926V262.832L235.622 262.04V263.536ZM246.122 257.474L243.092 259.223V257.287C242.826 258.027 242.451 258.75 241.968 259.454C241.498 260.15 240.869 260.726 240.082 261.181C238.977 261.819 238.094 261.896 237.434 261.412C236.773 260.913 236.443 259.901 236.443 258.376C236.443 257.026 236.741 255.629 237.338 254.185C237.948 252.718 238.926 251.596 240.273 250.819C241.581 250.063 242.521 250.107 243.092 250.951V245.605L241.13 246.738V245.22L244.75 243.13V256.77L246.122 255.978V257.474ZM243.092 254.691V253.503C243.067 252.696 242.826 252.175 242.368 251.941C241.911 251.706 241.358 251.776 240.711 252.15C239.885 252.626 239.256 253.341 238.825 254.295C238.405 255.241 238.196 256.227 238.196 257.254C238.196 258.368 238.424 259.087 238.882 259.41C239.339 259.732 239.904 259.699 240.577 259.311C241.301 258.893 241.892 258.207 242.349 257.254C242.819 256.293 243.067 255.439 243.092 254.691ZM262.078 238.449L260.554 239.483L260.173 236.799L257.353 238.427V249.251L259.487 248.019V249.757L253.543 253.189V251.451L255.619 250.252V239.428L252.781 241.067L252.4 244.191L250.894 244.906L251.256 240.209L261.697 234.181L262.078 238.449ZM269.968 240.802C269.879 241.704 269.517 242.646 268.882 243.629C268.247 244.612 267.383 245.418 266.291 246.049C265.059 246.76 264.062 246.911 263.3 246.5C262.538 246.089 262.156 245.077 262.156 243.464C262.156 241.939 262.512 240.472 263.223 239.064C263.935 237.656 264.919 236.589 266.177 235.863C267.345 235.188 268.253 235.082 268.901 235.544C269.549 236.006 269.879 236.827 269.892 238.008C269.892 238.404 269.854 238.844 269.777 239.328L263.909 242.716C263.985 244.755 264.817 245.316 266.405 244.399C267.066 244.018 267.561 243.548 267.891 242.991C268.234 242.426 268.463 241.854 268.577 241.275L269.968 240.802ZM268.158 238.965C268.209 238.29 268.069 237.755 267.739 237.359C267.421 236.941 266.888 236.948 266.138 237.381C265.44 237.784 264.913 238.36 264.557 239.108C264.214 239.834 264.005 240.6 263.928 241.407L268.158 238.965ZM276.134 230.158C276.731 229.813 277.239 229.696 277.658 229.806L278.001 232.358L276.687 233.293L276.363 231.786C276.147 231.808 275.924 231.885 275.696 232.017C275.264 232.266 274.902 232.688 274.61 233.282C274.318 233.861 274.172 234.488 274.172 235.163V239.783L276.001 238.727V240.223L271.123 243.039V241.543L272.495 240.751V233.931L271.066 234.756V233.238L274.057 231.511V233.315C274.222 232.662 274.476 232.054 274.819 231.489C275.175 230.902 275.613 230.459 276.134 230.158ZM284.246 225.475C284.843 225.13 285.351 225.013 285.77 225.123L286.113 227.675L284.799 228.61L284.475 227.103C284.259 227.125 284.037 227.202 283.808 227.334C283.376 227.583 283.014 228.005 282.722 228.599C282.43 229.178 282.284 229.805 282.284 230.48V235.1L284.113 234.044V235.54L279.235 238.356V236.86L280.607 236.068V229.248L279.178 230.073V228.555L282.17 226.828V228.632C282.335 227.979 282.589 227.37 282.932 226.806C283.287 226.219 283.725 225.775 284.246 225.475ZM296.455 220.098L295.502 220.648L292.568 230.658L291.52 234.409L292.873 233.628V235.168L288.453 237.72V236.18L289.958 235.311L290.949 231.615L287.881 225.048L286.909 225.609V224.091L290.968 221.748V223.266L289.672 224.014L291.863 228.733L291.977 228.667L293.864 221.594L292.663 222.287V220.769L296.455 218.58V220.098Z" fill="#818181"/>
</svg>
