<svg viewBox="0 0 296 337" fill="none" xmlns="http://www.w3.org/2000/svg">
<path d="M194.396 45.776L156.623 68.0815C156.623 16.6772 88.4913 67.0644 88.4913 97.9416C88.4913 139.962 160.199 72.7576 192.727 98.9523C193.104 99.2529 193.462 99.5983 193.782 99.9629C199.673 106.526 202.181 111.528 202.181 123.004C202.181 227.553 43.0104 306.553 48.9338 212.277L86.7066 189.972C86.7066 249.66 176.46 175.042 161.587 147.107C141.431 123.011 52.8294 205.286 52.8294 123.01C52.8294 29.1829 194.396 -45.5249 194.396 45.7824V45.776Z" fill="#818284"/>
<path d="M153.815 142.725C165.144 163.995 115.806 212.328 91.6196 207.838C110.177 229.331 174.342 171.057 161.587 147.107C159.7 144.849 157.206 143.525 154.244 142.911" fill="#58595B"/>
<path d="M90.2954 107.051C101.208 127.456 159.054 78.7898 189.567 96.7647L179.607 91.2315C153.502 78.9497 110.1 109.571 90.6664 107.678" fill="#58595B"/>
<path d="M63.7361 249.948L53.8403 244.178C45.0191 237.826 40.0169 226.088 41.1619 207.902C41.1619 202.279 48.774 205.509 48.9403 212.284C47.7058 231.89 53.6164 243.999 63.7424 249.948" fill="#58595B"/>
<path d="M144.194 46.2816C151.563 47.6249 156.623 54.0728 156.623 68.0881C156.623 73.7109 149.011 70.4805 148.845 63.7064C148.845 55.672 146.996 49.8062 144.188 46.2816H144.194Z" fill="#58595B"/>
<path d="M67.1137 158.161C58.4909 153.926 52.9513 143.64 52.9513 123.074C52.9513 50.4457 137.779 -10.7329 176.108 7.68976L169.264 3.78135C131.401 -16.1126 45.1729 45.469 45.1729 118.699C45.1729 137.915 50.0088 148.156 57.6721 152.871L66.9858 158.103" fill="#A7A9AB"/>
<path d="M42.4029 205.228C43.1257 204.851 44.0916 204.947 45.0639 205.439L45.0831 205.401L82.856 183.095L82.8368 183.134C81.8645 182.641 80.8858 182.545 80.1629 182.929L80.1054 182.948L42.3325 205.254" fill="#818284"/>
<path d="M82.8368 183.134C83.8603 183.652 84.8838 184.605 85.6322 185.897L85.6642 185.878L47.8913 208.184L47.8594 208.203C47.1173 206.911 46.0874 205.957 45.064 205.439L45.0832 205.401L82.856 183.095" fill="#A7A9AB"/>
<path d="M47.8208 208.228C48.4669 209.348 48.8954 210.723 48.9338 212.277L86.7067 189.972C86.6683 188.411 86.2333 187.042 85.5936 185.923L85.6256 185.903L47.8528 208.209" fill="#949598"/>
<path d="M204.446 90.0417C187.66 92.1143 174.202 82.6854 160.014 60.3864" stroke="#BCBEC0" stroke-width="0.678056" stroke-miterlimit="10" stroke-linecap="round"/>
<path d="M204.446 94.9864C187.66 97.059 174.202 87.6301 160.014 65.3311" stroke="#BCBEC0" stroke-width="0.678056" stroke-miterlimit="10" stroke-linecap="round"/>
<path d="M202.309 84.3294C185.524 86.402 172.065 76.9732 157.877 54.6741" stroke="#BCBEC0" stroke-width="0.678056" stroke-miterlimit="10" stroke-linecap="round"/>
<path d="M199.469 80.0245C182.684 82.097 169.225 72.6681 155.037 50.369" stroke="#BCBEC0" stroke-width="0.678056" stroke-miterlimit="10" stroke-linecap="round"/>
<path d="M132.162 43.9082C132.162 62.1262 151.173 76.8707 174.662 76.8707" stroke="#E6E7E8" stroke-width="0.447773" stroke-miterlimit="10" stroke-linecap="round"/>
<path d="M127.051 46.1151C127.051 64.3331 146.062 79.0775 169.551 79.0775" stroke="#E6E7E8" stroke-width="0.447773" stroke-miterlimit="10" stroke-linecap="round"/>
<path d="M121.973 48.8529C121.973 67.0709 140.984 81.8154 164.473 81.8154" stroke="#E6E7E8" stroke-width="0.447773" stroke-miterlimit="10" stroke-linecap="round"/>
<path d="M117.091 52.1985C117.328 70.4165 136.525 84.9114 160.014 84.6044" stroke="#E6E7E8" stroke-width="0.447773" stroke-miterlimit="10" stroke-linecap="round"/>
<path d="M112.722 55.9086C114.839 74.1265 133.537 88.3146 155.644 88.3146" stroke="#E6E7E8" stroke-width="0.447773" stroke-miterlimit="10" stroke-linecap="round"/>
<path d="M108.404 59.1517C111.526 78.0797 129.865 90.6557 151.327 91.5576" stroke="#E6E7E8" stroke-width="0.447773" stroke-miterlimit="10" stroke-linecap="round"/>
<path d="M104.017 63.5975C109.793 82.5255 126.169 94.4171 146.939 96.0035" stroke="#E6E7E8" stroke-width="0.447773" stroke-miterlimit="10" stroke-linecap="round"/>
<path d="M100.044 67.8258C105.821 86.7538 124.282 98.6454 145.052 100.232" stroke="#E6E7E8" stroke-width="0.447773" stroke-miterlimit="10" stroke-linecap="round"/>
<path d="M95.6304 72.7832C104.017 94.3211 120.559 101.818 141.335 103.404" stroke="#E6E7E8" stroke-width="0.447773" stroke-miterlimit="10" stroke-linecap="round"/>
<path d="M92.2656 78.4572C100.652 99.995 116.823 106.558 137.599 108.151" stroke="#E6E7E8" stroke-width="0.447773" stroke-miterlimit="10" stroke-linecap="round"/>
<path d="M137.6 43.1278C137.6 61.3458 156.611 76.0903 180.1 76.0903" stroke="#E6E7E8" stroke-width="0.447773" stroke-miterlimit="10" stroke-linecap="round"/>
<path d="M144.194 43.1278C144.194 61.3458 163.205 76.0903 186.694 76.0903" stroke="#E6E7E8" stroke-width="0.447773" stroke-miterlimit="10" stroke-linecap="round"/>
<path d="M150.406 44.049C150.406 62.2669 169.417 77.0115 192.906 77.0115" stroke="#E6E7E8" stroke-width="0.447773" stroke-miterlimit="10" stroke-linecap="round"/>
<path d="M89.2144 83.7601C94.7795 102.048 118.486 114.445 134.83 115.763" stroke="#D1D3D4" stroke-width="0.447773" stroke-miterlimit="10" stroke-linecap="round"/>
<path d="M86.5659 90.3232C89.5404 101.46 102.75 116.243 133.288 121.968" stroke="#D1D3D4" stroke-width="0.447773" stroke-miterlimit="10" stroke-linecap="round"/>
<path d="M85.8882 98.0441C88.594 112.302 107.004 124.674 133.103 126.561" stroke="#BCBEC0" stroke-width="0.447773" stroke-miterlimit="10" stroke-linecap="round"/>
<path d="M86.2979 105.4C94.7288 120.989 106.371 128.448 134.184 132.65" stroke="#BCBEC0" stroke-width="0.447773" stroke-miterlimit="10" stroke-linecap="round"/>
<path d="M90.9351 110.857C94.6772 119.723 110.24 132.113 136.992 136.872" stroke="#BCBEC0" stroke-width="0.447773" stroke-miterlimit="10" stroke-linecap="round"/>
<path d="M96.9478 114.266C100.69 123.132 116.253 135.523 143.004 140.282" stroke="#BCBEC0" stroke-width="0.447773" stroke-miterlimit="10" stroke-linecap="round"/>
<path d="M102.238 114.778C105.98 123.644 121.543 136.034 148.294 140.794" stroke="#BCBEC0" stroke-width="0.447773" stroke-miterlimit="10" stroke-linecap="round"/>
<path d="M191.703 101.697C198.375 116.16 213.094 122.448 227.244 124.917" stroke="#A7A9AB" stroke-width="0.447773" stroke-miterlimit="10" stroke-linecap="round"/>
<path d="M195.542 106.756C202.207 119.089 221.001 127.239 234.101 128.684" stroke="#818284" stroke-width="0.447773" stroke-miterlimit="10" stroke-linecap="round"/>
<path d="M198.624 113.07C205.289 125.403 224.083 133.552 237.184 134.998" stroke="#818284" stroke-width="0.447773" stroke-miterlimit="10" stroke-linecap="round"/>
<path d="M199.29 117.72C205.955 130.053 224.749 138.203 237.85 139.649" stroke="#818284" stroke-width="0.447773" stroke-miterlimit="10" stroke-linecap="round"/>
<path d="M199.29 120.951C205.955 133.284 224.749 141.433 237.85 142.879" stroke="#818284" stroke-width="0.447773" stroke-miterlimit="10" stroke-linecap="round"/>
<path d="M170.05 96.9246C176.101 113.307 189.56 123.017 207.202 126.561" stroke="#A7A9AB" stroke-width="0.447773" stroke-miterlimit="10" stroke-linecap="round"/>
<path d="M175.513 96.688C181.565 113.07 195.33 123.42 212.973 126.964" stroke="#A7A9AB" stroke-width="0.447773" stroke-miterlimit="10" stroke-linecap="round"/>
<path d="M164.031 97.4875C170.082 113.87 183.541 123.58 201.183 127.124" stroke="#A7A9AB" stroke-width="0.447773" stroke-miterlimit="10" stroke-linecap="round"/>
<path d="M158.389 97.8522C164.44 114.234 177.899 123.945 195.541 127.488" stroke="#A7A9AB" stroke-width="0.447773" stroke-miterlimit="10" stroke-linecap="round"/>
<path d="M153.342 99.4449C159.393 115.827 172.852 125.537 190.494 129.081" stroke="#A7A9AB" stroke-width="0.447773" stroke-miterlimit="10" stroke-linecap="round"/>
<path d="M160.078 208.35C173.415 230.63 193.36 231.532 211.002 235.075" stroke="#D1D3D4" stroke-width="0.447773" stroke-miterlimit="10" stroke-linecap="round"/>
<path d="M163.257 205.017C176.108 227.009 196.539 228.199 214.181 231.743" stroke="#D1D3D4" stroke-width="0.447773" stroke-miterlimit="10" stroke-linecap="round"/>
<path d="M167.043 201.198C178.526 223.894 200.326 224.38 217.968 227.924" stroke="#D1D3D4" stroke-width="0.447773" stroke-miterlimit="10" stroke-linecap="round"/>
<path d="M170.05 197.168C181.698 218.38 203.332 220.35 220.974 223.894" stroke="#D1D3D4" stroke-width="0.447773" stroke-miterlimit="10" stroke-linecap="round"/>
<path d="M156.898 212.341C169.206 233.022 190.181 235.523 207.823 239.067" stroke="#D1D3D4" stroke-width="0.447773" stroke-miterlimit="10" stroke-linecap="round"/>
<path d="M153.06 216.461C165.95 236.176 186.342 239.643 203.985 243.186" stroke="#D1D3D4" stroke-width="0.447773" stroke-miterlimit="10" stroke-linecap="round"/>
<path d="M148.986 219.659C161.824 240.653 182.268 242.841 199.91 246.385" stroke="#D1D3D4" stroke-width="0.447773" stroke-miterlimit="10" stroke-linecap="round"/>
<path d="M144.591 222.813C156.24 241.997 177.874 245.995 195.516 249.538" stroke="#BCBEC0" stroke-width="0.447773" stroke-miterlimit="10" stroke-linecap="round"/>
<path d="M140.491 225.698C152.139 245.662 173.773 248.879 191.415 252.423" stroke="#BCBEC0" stroke-width="0.447773" stroke-miterlimit="10" stroke-linecap="round"/>
<path d="M136.365 228.634C148.014 245.982 169.648 251.816 187.29 255.359" stroke="#BCBEC0" stroke-width="0.447773" stroke-miterlimit="10" stroke-linecap="round"/>
<path d="M147.476 100.232C153.527 116.614 166.986 126.324 184.628 129.868" stroke="#A7A9AB" stroke-width="0.447773" stroke-miterlimit="10" stroke-linecap="round"/>
<path d="M142.071 102.285C148.122 118.667 161.581 128.377 179.223 131.921" stroke="#A7A9AB" stroke-width="0.447773" stroke-miterlimit="10" stroke-linecap="round"/>
<path d="M136.461 103.405C142.512 119.787 155.971 129.497 173.613 133.041" stroke="#A7A9AB" stroke-width="0.447773" stroke-miterlimit="10" stroke-linecap="round"/>
<path d="M131.83 105.4C137.881 121.782 151.34 131.493 168.982 135.036" stroke="#A7A9AB" stroke-width="0.447773" stroke-miterlimit="10" stroke-linecap="round"/>
<path d="M126.475 106.756C132.526 123.138 145.985 132.849 163.627 136.393" stroke="#A7A9AB" stroke-width="0.447773" stroke-miterlimit="10" stroke-linecap="round"/>
<path d="M121.973 109.046C128.024 125.428 141.483 135.139 159.125 138.683" stroke="#A7A9AB" stroke-width="0.447773" stroke-miterlimit="10" stroke-linecap="round"/>
<path d="M181.487 97.3276C185.939 114.26 201.189 121.693 214.143 125.844" stroke="#A7A9AB" stroke-width="0.447773" stroke-miterlimit="10" stroke-linecap="round"/>
<path d="M186.547 98.5876C191.147 112.142 203.998 121.015 221.454 124.674" stroke="#A7A9AB" stroke-width="0.447773" stroke-miterlimit="10" stroke-linecap="round"/>
<path d="M52.3691 215.674C60.8768 233.687 74.7962 243.686 96.8394 248.33" stroke="#F1F2F2" stroke-width="0.447773" stroke-miterlimit="10" stroke-linecap="round"/>
<path d="M53.0601 225.698C63.8258 241.722 72.9348 249.845 98.976 255.308" stroke="#F1F2F2" stroke-width="0.447773" stroke-miterlimit="10" stroke-linecap="round"/>
<path d="M58.958 241.299C67.8495 254.541 76.7666 263.605 107.298 269.33" stroke="#D1D3D4" stroke-width="0.447773" stroke-miterlimit="10" stroke-linecap="round"/>
<path d="M67.2671 246.973C76.1586 260.215 84.2185 269.292 114.757 275.017" stroke="#D1D3D4" stroke-width="0.447773" stroke-miterlimit="10" stroke-linecap="round"/>
<path d="M75.3462 249.948C84.2377 263.189 92.2976 272.266 122.836 277.991" stroke="#D1D3D4" stroke-width="0.447773" stroke-miterlimit="10" stroke-linecap="round"/>
<path d="M84.2373 250.626C93.1288 263.867 101.189 272.944 131.727 278.669" stroke="#D1D3D4" stroke-width="0.447773" stroke-miterlimit="10" stroke-linecap="round"/>
<path d="M91.7725 249.372C100.664 262.613 108.724 271.69 139.262 277.416" stroke="#D1D3D4" stroke-width="0.447773" stroke-miterlimit="10" stroke-linecap="round"/>
<path d="M55.8872 234.314C66.3331 247.837 75.1031 257.055 103.377 262.358" stroke="#F1F2F2" stroke-width="0.447773" stroke-miterlimit="10" stroke-linecap="round"/>
<path d="M173.408 193.26C183.739 211.375 206.748 219.071 223.648 219.071" stroke="#BCBEC0" stroke-width="0.447773" stroke-miterlimit="10" stroke-linecap="round"/>
<path d="M176.108 188.897C188.723 208.35 209.448 214.708 226.349 214.708" stroke="#BCBEC0" stroke-width="0.447773" stroke-miterlimit="10" stroke-linecap="round"/>
<path d="M178.865 184.72C189.906 202.26 212.205 210.531 229.105 210.531" stroke="#BCBEC0" stroke-width="0.447773" stroke-miterlimit="10" stroke-linecap="round"/>
<path d="M182.364 180.351C193.117 198.422 215.704 206.162 232.604 206.162" stroke="#BCBEC0" stroke-width="0.447773" stroke-miterlimit="10" stroke-linecap="round"/>
<path d="M185.882 176.878C195.515 193.81 219.222 199.989 236.122 199.989" stroke="#BCBEC0" stroke-width="0.447773" stroke-miterlimit="10" stroke-linecap="round"/>
<path d="M187.29 171.357C197.115 186.454 220.629 194.469 237.53 194.469" stroke="#BCBEC0" stroke-width="0.447773" stroke-miterlimit="10" stroke-linecap="round"/>
<path d="M189.913 166.854C199.738 181.95 223.252 189.064 240.153 189.064" stroke="#A7A9AB" stroke-width="0.447773" stroke-miterlimit="10" stroke-linecap="round"/>
<path d="M192.509 163.08C202.334 178.176 225.849 188.891 242.749 188.891" stroke="#A7A9AB" stroke-width="0.447773" stroke-miterlimit="10" stroke-linecap="round"/>
<path d="M69.4932 155.532C75.359 164.071 91.095 170.98 104.739 170.98" stroke="#E6E7E8" stroke-width="0.678056" stroke-miterlimit="10" stroke-linecap="round"/>
<path d="M76.0308 157.041C81.8966 165.581 97.6326 172.489 111.277 172.489" stroke="#D1D3D4" stroke-width="0.678056" stroke-miterlimit="10" stroke-linecap="round"/>
<path d="M82.9268 157.041C88.7926 165.581 104.529 172.489 118.173 172.489" stroke="#D1D3D4" stroke-width="0.678056" stroke-miterlimit="10" stroke-linecap="round"/>
<path d="M88.6768 156.408C94.5426 164.948 110.279 171.856 123.923 171.856" stroke="#D1D3D4" stroke-width="0.678056" stroke-miterlimit="10" stroke-linecap="round"/>
<path d="M94.6899 155.116C100.556 163.656 116.292 170.564 129.936 170.564" stroke="#D1D3D4" stroke-width="0.678056" stroke-miterlimit="10" stroke-linecap="round"/>
<path d="M115.915 26.1382C118.851 40.3134 138.137 49.7486 162.918 50.3691" stroke="white" stroke-width="0.678056" stroke-miterlimit="10" stroke-linecap="round"/>
<path d="M110.643 29.9697C114.635 44.6247 132.462 53.6697 156.623 54.8339" stroke="white" stroke-width="0.678056" stroke-miterlimit="10" stroke-linecap="round"/>
<path d="M120.808 22.8949C125.484 37.9081 144.111 46.5629 168.976 46.5629" stroke="white" stroke-width="0.678056" stroke-miterlimit="10" stroke-linecap="round"/>
<path d="M126.015 19.767C130.506 34.7929 148.756 43.2622 174.931 43.2622" stroke="white" stroke-width="0.678056" stroke-miterlimit="10" stroke-linecap="round"/>
<path d="M131.644 16.767C134.523 30.7311 153.764 40.3134 181.091 40.3134" stroke="white" stroke-width="0.678056" stroke-miterlimit="10" stroke-linecap="round"/>
<path d="M136.781 14.3745C140.855 27.9484 158.165 37.9081 187.059 37.9081" stroke="white" stroke-width="0.678056" stroke-miterlimit="10" stroke-linecap="round"/>
<path d="M186.068 20.1956C190.456 31.6074 203.505 36.8463 214.853 36.8463" stroke="#E6E7E8" stroke-width="0.678056" stroke-miterlimit="10" stroke-linecap="round"/>
<path d="M188.767 25.1658C191.793 34.7289 216.926 40.9082 226.841 40.9082" stroke="#BCBEC0" stroke-width="0.678056" stroke-miterlimit="10" stroke-linecap="round"/>
<path d="M142.263 12.1803C145.608 24.5005 162.457 35.7012 193.993 35.7012" stroke="white" stroke-width="0.678056" stroke-miterlimit="10" stroke-linecap="round"/>
<path d="M181.091 14.8031C184.494 25.4153 194.249 31.3387 208.879 33.4433" stroke="white" stroke-width="0.678056" stroke-miterlimit="10" stroke-linecap="round"/>
<path d="M147.655 10.4149C154.321 28.5433 179.172 32.9187 198.318 34.7929" stroke="white" stroke-width="0.678056" stroke-miterlimit="10" stroke-linecap="round"/>
<path d="M153.841 8.89233C161.127 27.7052 194.863 34.4794 206.345 33.5583" stroke="white" stroke-width="0.678056" stroke-miterlimit="10" stroke-linecap="round"/>
<path d="M160.66 7.91357C166.73 23.9438 190.04 32.5731 208.878 33.4431" stroke="white" stroke-width="0.678056" stroke-miterlimit="10" stroke-linecap="round"/>
<path d="M167.658 7.79211C173.371 21.9673 191.991 31.4025 208.885 33.4367" stroke="white" stroke-width="0.678056" stroke-miterlimit="10" stroke-linecap="round"/>
<path d="M175.187 10.5748C179.504 23.298 194.805 30.731 208.878 33.4432" stroke="white" stroke-width="0.678056" stroke-miterlimit="10" stroke-linecap="round"/>
<path d="M60.4927 103.641C66.9342 120.663 90.2888 128.256 105.321 129.356" stroke="white" stroke-width="0.678056" stroke-miterlimit="10" stroke-linecap="round"/>
<path d="M59.0278 110.895C67.9897 129.356 87.4934 134.102 104.099 135.203" stroke="white" stroke-width="0.678056" stroke-miterlimit="10" stroke-linecap="round"/>
<path d="M105.11 34.4539C110.803 50.1451 130.576 61.1603 148.781 61.1603" stroke="white" stroke-width="0.678056" stroke-miterlimit="10" stroke-linecap="round"/>
<path d="M100.441 38.5797C103.71 53.1259 123.719 65.7084 143.171 66.2649" stroke="white" stroke-width="0.678056" stroke-miterlimit="10" stroke-linecap="round"/>
<path d="M59.0278 142.879C63.7103 153.12 78.9985 161.922 103.07 161.922" stroke="white" stroke-width="0.678056" stroke-miterlimit="10" stroke-linecap="round"/>
<path d="M58.1392 135.203C65.0221 149.602 78.129 157.035 102.699 157.035" stroke="white" stroke-width="0.678056" stroke-miterlimit="10" stroke-linecap="round"/>
<path d="M57.7554 129.849C65.8856 145.425 81.5705 152.346 102.59 151.182" stroke="white" stroke-width="0.678056" stroke-miterlimit="10" stroke-linecap="round"/>
<path d="M57.7554 125.179C67.4465 139.31 77.8924 146.103 102.782 146.103" stroke="white" stroke-width="0.678056" stroke-miterlimit="10" stroke-linecap="round"/>
<path d="M58.1392 119.051C65.3675 132.414 81.5641 141.51 103.3 140.563" stroke="white" stroke-width="0.678056" stroke-miterlimit="10" stroke-linecap="round"/>
<path d="M63.3521 151.182C70.1646 160.534 81.2182 166.476 103.293 166.476" stroke="#F1F2F2" stroke-width="0.678056" stroke-miterlimit="10" stroke-linecap="round"/>
<path d="M145.749 195.646C158.779 211.484 178.398 217.459 194.512 217.459" stroke="#E6E7E8" stroke-width="0.678056" stroke-miterlimit="10" stroke-linecap="round"/>
<path d="M149.696 191.616C162.726 207.454 182.345 213.429 198.458 213.429" stroke="#E6E7E8" stroke-width="0.678056" stroke-miterlimit="10" stroke-linecap="round"/>
<path d="M153.418 187.477C167.191 204.064 184.526 208.35 201.573 209.284" stroke="#E6E7E8" stroke-width="0.678056" stroke-miterlimit="10" stroke-linecap="round"/>
<path d="M156.418 183.108C170.191 199.695 187.526 203.981 204.573 204.915" stroke="#D1D3D4" stroke-width="0.678056" stroke-miterlimit="10" stroke-linecap="round"/>
<path d="M159.221 178.809C172.993 195.396 190.328 199.682 207.375 200.616" stroke="#D1D3D4" stroke-width="0.678056" stroke-miterlimit="10" stroke-linecap="round"/>
<path d="M161.843 173.462C174.08 190.548 193.852 195.652 209.998 195.268" stroke="#D1D3D4" stroke-width="0.678056" stroke-miterlimit="10" stroke-linecap="round"/>
<path d="M163.935 168.715C176.172 185.801 195.944 190.906 212.089 190.522" stroke="#D1D3D4" stroke-width="0.678056" stroke-miterlimit="10" stroke-linecap="round"/>
<path d="M177.918 176.289C188.914 183.55 201.931 185.948 213.183 185.686" stroke="#BCBEC0" stroke-width="0.678056" stroke-miterlimit="10" stroke-linecap="round"/>
<path d="M165.022 159.082C177.259 176.168 197.031 181.272 213.177 180.888" stroke="#BCBEC0" stroke-width="0.678056" stroke-miterlimit="10" stroke-linecap="round"/>
<path d="M163.589 155.295C175.826 172.381 195.599 177.485 211.744 177.101" stroke="#BCBEC0" stroke-width="0.678056" stroke-miterlimit="10" stroke-linecap="round"/>
<path d="M163.257 152.039C175.494 169.125 195.266 174.229 211.412 173.846" stroke="#BCBEC0" stroke-width="0.678056" stroke-miterlimit="10" stroke-linecap="round"/>
<path d="M141.93 199.087C153.105 213.825 175.232 222.679 190.079 221.789" stroke="#E6E7E8" stroke-width="0.678056" stroke-miterlimit="10" stroke-linecap="round"/>
<path d="M83.7065 196.605C94.8817 211.343 117.008 220.197 131.855 219.307" stroke="#E6E7E8" stroke-width="0.678056" stroke-miterlimit="10" stroke-linecap="round"/>
<path d="M84.8003 203.002C95.9754 217.74 119.97 226.171 134.81 225.282" stroke="#D1D3D4" stroke-width="0.678056" stroke-miterlimit="10" stroke-linecap="round"/>
<path d="M88.4341 209.303C99.6092 224.041 121.736 232.894 136.582 232.005" stroke="#D1D3D4" stroke-width="0.678056" stroke-miterlimit="10" stroke-linecap="round"/>
<path d="M95.9761 215.29C100.652 221.45 107.234 226.587 114.405 230.412" stroke="#BCBEC0" stroke-width="0.678056" stroke-miterlimit="10" stroke-linecap="round"/>
<path d="M103.364 216.781C114.539 231.519 136.665 240.372 151.512 239.483" stroke="#BCBEC0" stroke-width="0.678056" stroke-miterlimit="10" stroke-linecap="round"/>
<path d="M109.601 215.917C116.023 224.38 126.054 230.905 136.244 234.755C143.792 237.608 151.429 238.996 157.743 238.613" stroke="#BCBEC0" stroke-width="0.678056" stroke-miterlimit="10" stroke-linecap="round"/>
<path d="M115.268 215.002C121.69 223.465 131.721 229.99 141.911 233.841C149.459 236.694 157.096 238.082 163.41 237.698" stroke="#BCBEC0" stroke-width="0.678056" stroke-miterlimit="10" stroke-linecap="round"/>
<path d="M120.802 213.006C127.224 221.469 137.254 227.994 147.444 231.845C154.992 234.698 162.63 236.086 168.944 235.702" stroke="#BCBEC0" stroke-width="0.678056" stroke-miterlimit="10" stroke-linecap="round"/>
<path d="M125.619 210.467C132.041 218.93 142.071 225.455 152.261 229.306C159.809 232.158 167.447 233.547 173.761 233.163" stroke="#D1D3D4" stroke-width="0.678056" stroke-miterlimit="10" stroke-linecap="round"/>
<path d="M130.326 207.774C136.749 216.237 146.779 222.762 156.969 226.612C164.517 229.465 172.155 230.854 178.468 230.47" stroke="#E6E7E8" stroke-width="0.678056" stroke-miterlimit="10" stroke-linecap="round"/>
<path d="M134.631 204.723C141.054 213.186 151.084 219.71 161.274 223.561C168.822 226.414 176.46 227.802 182.773 227.418" stroke="#E6E7E8" stroke-width="0.678056" stroke-miterlimit="10" stroke-linecap="round"/>
<path d="M138.341 202.043C144.764 210.506 154.794 217.03 164.984 220.881C172.532 223.734 180.17 225.122 186.483 224.738" stroke="#E6E7E8" stroke-width="0.678056" stroke-miterlimit="10" stroke-linecap="round"/>
<path d="M90.2954 49.0833C91.9138 64.7105 106.684 77.0114 131.554 79.0776" stroke="white" stroke-width="0.678056" stroke-miterlimit="10" stroke-linecap="round"/>
<path d="M84.6982 55.9662C86.3166 71.5935 101.087 83.8944 125.957 85.9606" stroke="white" stroke-width="0.678056" stroke-miterlimit="10" stroke-linecap="round"/>
<path d="M78.5767 63.4119C80.195 79.0391 94.9652 91.3401 119.836 93.4063" stroke="white" stroke-width="0.678056" stroke-miterlimit="10" stroke-linecap="round"/>
<path d="M74.0601 70.9666C78.5826 86.5938 90.4485 97.0141 115.319 100.059" stroke="white" stroke-width="0.678056" stroke-miterlimit="10" stroke-linecap="round"/>
<path d="M69.6665 79.2375C75.3276 93.4064 86.055 104.466 110.926 106.533" stroke="white" stroke-width="0.678056" stroke-miterlimit="10" stroke-linecap="round"/>
<path d="M66.4932 86.4084C72.1543 100.577 82.8817 111.637 107.752 113.703" stroke="white" stroke-width="0.678056" stroke-miterlimit="10" stroke-linecap="round"/>
<path d="M63.2822 95.3894C68.9434 108.087 81.0524 119.716 104.541 121.782" stroke="white" stroke-width="0.678056" stroke-miterlimit="10" stroke-linecap="round"/>
<path d="M95.522 43.2622C98.8291 58.6208 114.098 70.9602 136.781 73.2566" stroke="white" stroke-width="0.678056" stroke-miterlimit="10" stroke-linecap="round"/>
<path d="M246.171 76.5125L208.399 98.818C208.399 47.4137 140.267 97.8009 140.267 128.678C140.267 170.698 211.974 103.494 244.502 129.689C244.879 129.989 245.238 130.335 245.557 130.699C251.449 137.263 253.956 142.265 253.956 153.741C253.956 258.289 94.7858 337.289 100.709 243.014L138.482 220.708C138.482 280.396 228.235 205.778 213.362 177.844C193.206 153.747 104.605 236.022 104.605 153.747C104.605 59.9194 246.171 -14.7884 246.171 76.5189V76.5125Z" fill="#A7A9AB"/>
<path d="M244.842 79.2183C245.635 78.8729 246.172 78.0029 246.172 76.5125L208.399 98.818C208.399 100.225 207.926 101.076 207.209 101.46L207.446 101.338L245.219 79.0328" fill="#BCBEC0"/>
<path d="M142.071 137.781C152.984 158.186 210.83 109.52 241.342 127.495L231.382 121.962C205.277 109.68 161.875 140.301 142.442 138.408" fill="#818284"/>
<path d="M115.511 280.684L105.616 274.914C96.7945 268.562 91.7923 256.824 92.9373 238.638C92.9373 233.016 100.549 236.246 100.716 243.02C99.4812 262.626 105.392 274.735 115.518 280.684" fill="#818284"/>
<path d="M195.97 77.0115C203.339 78.3548 208.399 84.8028 208.399 98.8181C208.399 104.441 200.787 101.21 200.621 94.4362C200.621 86.4019 198.772 80.5361 195.964 77.0115H195.97Z" fill="#818284"/>
<path d="M118.889 188.897C110.266 184.663 104.726 174.377 104.726 153.811C104.726 81.1823 189.554 20.0037 227.883 38.4263L221.038 34.5179C183.176 14.624 96.9478 76.2055 96.9478 149.436C96.9478 168.651 101.784 178.893 109.447 183.607L118.761 188.84" fill="#D1D3D4"/>
<path d="M94.1788 235.965C94.9016 235.587 95.8675 235.683 96.8398 236.176L96.859 236.137L134.632 213.832L134.613 213.87C133.64 213.378 132.662 213.282 131.939 213.665L131.881 213.685L94.1084 235.99" fill="#BCBEC0"/>
<path d="M134.612 213.864C135.636 214.382 136.659 215.335 137.408 216.627L137.44 216.608L99.6667 238.913L99.6347 238.933C98.8927 237.64 97.8628 236.687 96.8394 236.169L96.8585 236.131L134.631 213.825" fill="#D1D3D4"/>
<path d="M99.5962 238.958C100.242 240.078 100.671 241.453 100.709 243.007L138.482 220.702C138.444 219.141 138.009 217.772 137.369 216.653L137.401 216.633L99.6282 238.939" fill="#BCBEC0"/>
<path d="M187.059 48.1813V77.4464L191.038 79.794V50.5288L187.059 48.1813Z" fill="#949598"/>
<path d="M191.831 50.062L187.859 47.7145L187.059 48.1814L191.038 50.529L191.831 50.062Z" fill="#BCBEC0"/>
<path d="M191.038 79.7941V50.529L191.831 50.062V79.3272L191.038 79.7941Z" fill="white"/>
<path d="M183.681 49.7677V79.0265L187.66 81.3805V52.1153L183.681 49.7677Z" fill="#949598"/>
<path d="M188.453 51.6421L184.474 49.2944L183.681 49.7678L187.66 52.1154L188.453 51.6421Z" fill="#BCBEC0"/>
<path d="M187.66 81.3806V52.1154L188.453 51.6421V80.9073L187.66 81.3806Z" fill="white"/>
<path d="M179.851 51.5524V80.8175L183.823 83.1651V53.8999L179.851 51.5524Z" fill="#949598"/>
<path d="M184.623 53.4331L180.644 51.0791L179.851 51.5525L183.823 53.9L184.623 53.4331Z" fill="#BCBEC0"/>
<path d="M183.822 83.1651V53.8999L184.622 53.433V82.6917L183.822 83.1651Z" fill="white"/>
<path d="M175.634 54.0728V83.3379L179.613 85.6856V56.4204L175.634 54.0728Z" fill="#949598"/>
<path d="M180.406 55.9535L176.427 53.6058L175.634 54.0728L179.613 56.4204L180.406 55.9535Z" fill="#BCBEC0"/>
<path d="M179.613 85.6855V56.4203L180.406 55.9534V85.2185L179.613 85.6855Z" fill="white"/>
<path d="M241.335 133.284V205.382L245.314 207.729V135.638L241.335 133.284Z" fill="#949598"/>
<path d="M246.107 135.165L242.135 132.817L241.335 133.284L245.314 135.638L246.107 135.165Z" fill="#BCBEC0"/>
<path d="M245.314 207.729V135.638L246.108 135.164V207.262L245.314 207.729Z" fill="white"/>
<path d="M250.208 140.634V182.117L254.18 184.464V142.981L250.208 140.634Z" fill="#949598"/>
<path d="M254.979 142.514L251.001 140.167L250.208 140.634L254.18 142.981L254.979 142.514Z" fill="#BCBEC0"/>
<path d="M254.18 184.464V142.981L254.98 142.514V183.997L254.18 184.464Z" fill="white"/>
<path d="M237.185 132.1V214.113L241.163 216.461V134.448L237.185 132.1Z" fill="#949598"/>
<path d="M241.957 133.981L237.978 131.627L237.185 132.1L241.163 134.448L241.957 133.981Z" fill="#BCBEC0"/>
<path d="M241.163 216.461V134.448L241.956 133.981V215.987L241.163 216.461Z" fill="white"/>
<path d="M233.077 131.365V219.365L237.056 221.712V133.712L233.077 131.365Z" fill="#949598"/>
<path d="M237.849 133.239L233.87 130.891L233.077 131.365L237.056 133.712L237.849 133.239Z" fill="#BCBEC0"/>
<path d="M237.056 221.712V133.712L237.849 133.239V221.245L237.056 221.712Z" fill="white"/>
<path d="M228.907 130.757V225.135L232.886 227.482V133.105L228.907 130.757Z" fill="#949598"/>
<path d="M233.679 132.638L229.707 130.29L228.907 130.757L232.886 133.105L233.679 132.638Z" fill="#BCBEC0"/>
<path d="M232.886 227.482V133.105L233.679 132.638V227.015L232.886 227.482Z" fill="white"/>
<path d="M224.685 130.757V231.385L228.663 233.732V133.105L224.685 130.757Z" fill="#949598"/>
<path d="M229.457 132.638L225.484 130.29L224.685 130.757L228.663 133.105L229.457 132.638Z" fill="#BCBEC0"/>
<path d="M228.664 233.732V133.105L229.457 132.638V233.265L228.664 233.732Z" fill="white"/>
<path d="M220.565 131.23V234.999L224.538 237.346V133.578L220.565 131.23Z" fill="#949598"/>
<path d="M225.337 133.105L221.359 130.757L220.565 131.23L224.538 133.578L225.337 133.105Z" fill="#BCBEC0"/>
<path d="M224.538 237.346V133.578L225.338 133.105V236.879L224.538 237.346Z" fill="white"/>
<path d="M216.683 131.697V240.82L220.661 243.167V134.045L216.683 131.697Z" fill="#949598"/>
<path d="M221.455 133.578L217.476 131.23L216.683 131.697L220.661 134.045L221.455 133.578Z" fill="#BCBEC0"/>
<path d="M220.662 243.167V134.045L221.455 133.578V242.7L220.662 243.167Z" fill="white"/>
<path d="M212.8 132.567V244.306L216.772 246.66V134.915L212.8 132.567Z" fill="#949598"/>
<path d="M217.572 134.448L213.593 132.1L212.8 132.567L216.772 134.915L217.572 134.448Z" fill="#BCBEC0"/>
<path d="M216.772 247.556V134.915L217.572 134.448V247.089L216.772 247.556Z" fill="white"/>
<path d="M209.025 133.341V174.588L213.004 176.942V135.689L209.025 133.341Z" fill="#949598"/>
<path d="M213.797 135.222L209.819 132.874L209.025 133.341L213.004 135.689L213.797 135.222Z" fill="#BCBEC0"/>
<path d="M213.005 176.942V135.689L213.798 135.222V176.468L213.005 176.942Z" fill="white"/>
<path d="M205.098 134.281V172.553L209.076 174.901V136.629L205.098 134.281Z" fill="#949598"/>
<path d="M209.87 136.162L205.891 133.815L205.098 134.282L209.076 136.629L209.87 136.162Z" fill="#BCBEC0"/>
<path d="M209.077 174.901V136.629L209.87 136.162V174.434L209.077 174.901Z" fill="white"/>
<path d="M201.619 135.459V171.843L205.591 174.197V137.806L201.619 135.459Z" fill="#949598"/>
<path d="M206.391 137.333L202.412 134.985L201.619 135.459L205.591 137.806L206.391 137.333Z" fill="#BCBEC0"/>
<path d="M205.59 174.198V137.806L206.39 137.333V173.724L205.59 174.198Z" fill="white"/>
<path d="M197.409 136.629V172.694L201.388 175.042V138.977L197.409 136.629Z" fill="#949598"/>
<path d="M202.181 138.51L198.209 136.162L197.409 136.629L201.388 138.977L202.181 138.51Z" fill="#BCBEC0"/>
<path d="M201.388 175.042V138.977L202.181 138.51V174.568L201.388 175.042Z" fill="white"/>
<path d="M193.155 138.241V173.462L197.134 175.809V140.589L193.155 138.241Z" fill="#949598"/>
<path d="M197.927 140.122L193.948 137.774L193.155 138.241L197.134 140.589L197.927 140.122Z" fill="#BCBEC0"/>
<path d="M197.134 175.809V140.589L197.927 140.122V175.336L197.134 175.809Z" fill="white"/>
<path d="M188.92 139.898V174.812L192.899 177.166V142.246L188.92 139.898Z" fill="#949598"/>
<path d="M193.692 141.772L189.714 139.425L188.92 139.898L192.899 142.246L193.692 141.772Z" fill="#BCBEC0"/>
<path d="M192.899 177.166V142.246L193.693 141.772V176.692L192.899 177.166Z" fill="white"/>
<path d="M184.949 141.542V176.097L188.928 178.451V143.896L184.949 141.542Z" fill="#949598"/>
<path d="M189.721 143.423L185.742 141.075L184.949 141.542L188.928 143.896L189.721 143.423Z" fill="#BCBEC0"/>
<path d="M188.927 178.451V143.896L189.72 143.423V177.978L188.927 178.451Z" fill="white"/>
<path d="M209.358 214.312V247.952L213.337 250.306V216.659L209.358 214.312Z" fill="#949598"/>
<path d="M214.13 216.192L210.158 213.844L209.358 214.311L213.337 216.659L214.13 216.192Z" fill="#BCBEC0"/>
<path d="M213.337 248.502V216.659L214.13 216.192V248.035L213.337 248.502Z" fill="white"/>
<path d="M206.23 218.687V250.53L210.203 252.878V221.035L206.23 218.687Z" fill="#949598"/>
<path d="M211.002 220.567L207.024 218.22L206.23 218.687L210.203 221.034L211.002 220.567Z" fill="#BCBEC0"/>
<path d="M210.203 252.877V221.034L211.002 220.567V252.41L210.203 252.877Z" fill="white"/>
<path d="M202.712 222.563V253.703L206.691 256.05V224.911L202.712 222.563Z" fill="#949598"/>
<path d="M207.484 224.444L203.505 222.096L202.712 222.563L206.691 224.911L207.484 224.444Z" fill="#BCBEC0"/>
<path d="M206.691 256.754V224.911L207.484 224.444V256.287L206.691 256.754Z" fill="white"/>
<path d="M199.188 225.966V256.837L203.166 259.185V228.314L199.188 225.966Z" fill="#949598"/>
<path d="M203.966 227.847L199.987 225.499L199.188 225.966L203.166 228.314L203.966 227.847Z" fill="#BCBEC0"/>
<path d="M203.166 259.185V228.314L203.966 227.847V258.711L203.166 259.185Z" fill="white"/>
<path d="M196.072 229.798V259.287L200.045 261.641V232.146L196.072 229.798Z" fill="#949598"/>
<path d="M200.844 231.672L196.865 229.325L196.072 229.798L200.045 232.146L200.844 231.672Z" fill="#BCBEC0"/>
<path d="M200.045 261.641V232.146L200.845 231.672V261.168L200.045 261.641Z" fill="white"/>
<path d="M193.13 232.542V261.481L197.109 263.829V234.89L193.13 232.542Z" fill="#949598"/>
<path d="M197.902 234.423L193.923 232.075L193.13 232.542L197.109 234.89L197.902 234.423Z" fill="#BCBEC0"/>
<path d="M197.109 263.829V234.89L197.902 234.423V263.362L197.109 263.829Z" fill="white"/>
<path d="M189.951 235.088V263.874L193.929 266.228V237.436L189.951 235.088Z" fill="#949598"/>
<path d="M194.723 236.962L190.75 234.615L189.951 235.088L193.929 237.436L194.723 236.962Z" fill="#BCBEC0"/>
<path d="M193.93 266.228V237.436L194.723 236.962V265.754L193.93 266.228Z" fill="white"/>
<path d="M186.33 238.095V266.33L190.309 268.684V240.442L186.33 238.095Z" fill="#949598"/>
<path d="M191.102 239.969L187.13 237.621L186.33 238.095L190.309 240.442L191.102 239.969Z" fill="#BCBEC0"/>
<path d="M190.309 268.684V240.442L191.102 239.969V268.211L190.309 268.684Z" fill="white"/>
<path d="M182.396 240.442V268.684L186.375 271.032V242.79L182.396 240.442Z" fill="#949598"/>
<path d="M187.168 242.323L183.196 239.969L182.396 240.442L186.375 242.79L187.168 242.323Z" fill="#BCBEC0"/>
<path d="M186.375 271.032V242.79L187.168 242.323V270.558L186.375 271.032Z" fill="white"/>
<path d="M178.833 242.739V270.814L182.812 273.162V245.086L178.833 242.739Z" fill="#949598"/>
<path d="M183.611 244.619L179.633 242.271L178.833 242.739L182.812 245.086L183.611 244.619Z" fill="#BCBEC0"/>
<path d="M182.812 273.162V245.086L183.611 244.619V272.695L182.812 273.162Z" fill="white"/>
<path d="M174.867 244.728V272.97L178.845 275.317V247.076L174.867 244.728Z" fill="#949598"/>
<path d="M179.639 246.602L175.666 244.255L174.867 244.728L178.845 247.076L179.639 246.602Z" fill="#BCBEC0"/>
<path d="M178.846 275.317V247.076L179.639 246.602V274.844L178.846 275.317Z" fill="white"/>
<path d="M171.022 246.212V275.017L175.001 277.371V248.56L171.022 246.212Z" fill="#949598"/>
<path d="M175.794 248.086L171.822 245.739L171.022 246.212L175.001 248.56L175.794 248.086Z" fill="#BCBEC0"/>
<path d="M175.002 277.371V248.56L175.795 248.086V276.897L175.002 277.371Z" fill="white"/>
<path d="M167.043 247.92V277.064L171.022 279.411V250.268L167.043 247.92Z" fill="#949598"/>
<path d="M171.815 249.801L167.837 247.453L167.043 247.92L171.022 250.268L171.815 249.801Z" fill="#BCBEC0"/>
<path d="M171.022 279.411V250.268L171.815 249.801V278.944L171.022 279.411Z" fill="white"/>
<path d="M162.874 248.56V278.599L166.846 280.947V250.907L162.874 248.56Z" fill="#949598"/>
<path d="M167.646 250.434L163.667 248.086L162.874 248.56L166.846 250.907L167.646 250.434Z" fill="#BCBEC0"/>
<path d="M166.845 280.947V250.907L167.645 250.434V280.48L166.845 280.947Z" fill="white"/>
<path d="M159.438 249.334V280.275L163.417 282.622V251.681L159.438 249.334Z" fill="#949598"/>
<path d="M164.21 251.208L160.231 248.86L159.438 249.334L163.417 251.681L164.21 251.208Z" fill="#BCBEC0"/>
<path d="M163.417 282.622V251.681L164.21 251.208V282.149L163.417 282.622Z" fill="white"/>
<path d="M154.397 249.455V281.298L158.376 283.646V251.809L154.397 249.455Z" fill="#949598"/>
<path d="M159.169 251.336L155.191 248.988L154.397 249.455L158.376 251.809L159.169 251.336Z" fill="#BCBEC0"/>
<path d="M158.376 283.646V251.809L159.169 251.336V283.179L158.376 283.646Z" fill="white"/>
<path d="M180.963 143.192V177.281L184.942 179.628V145.546L180.963 143.192Z" fill="#949598"/>
<path d="M185.735 145.073L181.756 142.725L180.963 143.192L184.942 145.546L185.735 145.073Z" fill="#BCBEC0"/>
<path d="M184.942 179.628V145.546L185.735 145.073V179.161L184.942 179.628Z" fill="white"/>
<path d="M171.259 56.5354V85.8006L175.238 88.1482V58.8894L171.259 56.5354Z" fill="#949598"/>
<path d="M176.031 58.416L172.052 56.0684L171.259 56.5353L175.238 58.8894L176.031 58.416Z" fill="#BCBEC0"/>
<path d="M175.238 88.1483V58.8895L176.031 58.4161V87.6813L175.238 88.1483Z" fill="white"/>
<path d="M167.166 59.6123V88.8775L171.138 91.225V61.9599L167.166 59.6123Z" fill="#949598"/>
<path d="M171.938 61.4929L167.959 59.1454L167.166 59.6123L171.138 61.9599L171.938 61.4929Z" fill="#BCBEC0"/>
<path d="M171.137 91.225V61.9599L171.937 61.4929V90.7581L171.137 91.225Z" fill="white"/>
<path d="M163.059 62.4333V91.6985L167.031 94.0461V64.7809L163.059 62.4333Z" fill="#949598"/>
<path d="M167.831 64.3075L163.852 61.9598L163.059 62.4333L167.031 64.7808L167.831 64.3075Z" fill="#BCBEC0"/>
<path d="M167.031 94.0461V64.781L167.831 64.3076V93.5728L167.031 94.0461Z" fill="white"/>
<path d="M158.952 65.83V95.0951L162.924 97.4428V68.184L158.952 65.83Z" fill="#949598"/>
<path d="M163.724 67.7106L159.745 65.3629L158.952 65.8299L162.924 68.1839L163.724 67.7106Z" fill="#BCBEC0"/>
<path d="M162.924 97.4427V68.1839L163.723 67.7106V96.9757L162.924 97.4427Z" fill="white"/>
<path d="M154.781 69.5464V98.8115L158.76 101.159V71.8939L154.781 69.5464Z" fill="#949598"/>
<path d="M159.553 71.4207L155.58 69.0731L154.781 69.5465L158.76 71.894L159.553 71.4207Z" fill="#BCBEC0"/>
<path d="M158.76 101.159V71.894L159.553 71.4207V100.686L158.76 101.159Z" fill="white"/>
<path d="M150.406 73.2502V102.515L154.385 104.863V75.5979L150.406 73.2502Z" fill="#949598"/>
<path d="M155.178 75.1308L151.205 72.7832L150.406 73.2502L154.385 75.5978L155.178 75.1308Z" fill="#BCBEC0"/>
<path d="M154.385 104.863V75.5978L155.178 75.1309V104.39L154.385 104.863Z" fill="white"/>
<path d="M146.395 77.344V106.609L150.367 108.957V79.6916L146.395 77.344Z" fill="#949598"/>
<path d="M151.167 79.2184L147.188 76.8707L146.395 77.3441L150.367 79.6917L151.167 79.2184Z" fill="#BCBEC0"/>
<path d="M150.367 108.957V79.6917L151.167 79.2184V108.484L150.367 108.957Z" fill="white"/>
<path d="M142.666 81.3549V110.62L146.644 112.968V83.7025L142.666 81.3549Z" fill="#949598"/>
<path d="M147.444 83.2355L143.465 80.8879L142.666 81.3549L146.644 83.7025L147.444 83.2355Z" fill="#BCBEC0"/>
<path d="M146.645 112.968V83.7025L147.444 83.2355V112.501L146.645 112.968Z" fill="white"/>
<path d="M176.836 144.606V178.982L180.815 181.336V146.954L176.836 144.606Z" fill="#949598"/>
<path d="M181.608 146.48L177.63 144.133L176.836 144.606L180.815 146.954L181.608 146.48Z" fill="#BCBEC0"/>
<path d="M180.816 181.566V146.954L181.609 146.48V181.099L180.816 181.566Z" fill="white"/>
<path d="M172.961 145.777V180.159L176.933 182.507V148.124L172.961 145.777Z" fill="#949598"/>
<path d="M177.733 147.657L173.754 145.31L172.961 145.777L176.933 148.124L177.733 147.657Z" fill="#BCBEC0"/>
<path d="M176.933 182.744V148.124L177.733 147.657V182.27L176.933 182.744Z" fill="white"/>
<path d="M168.982 147.325V181.701L172.961 184.055V149.672L168.982 147.325Z" fill="#949598"/>
<path d="M173.754 148.969L169.782 146.621L168.982 147.088L172.961 149.436L173.754 148.969Z" fill="#BCBEC0"/>
<path d="M172.961 184.055V149.436L173.754 148.969V183.581L172.961 184.055Z" fill="white"/>
<path d="M165.022 148.61V183.223L169.001 185.571V150.958L165.022 148.61Z" fill="#949598"/>
<path d="M169.794 150.485L165.822 148.137L165.022 148.61L169.001 150.958L169.794 150.485Z" fill="#BCBEC0"/>
<path d="M169.001 185.571V150.958L169.794 150.485V185.104L169.001 185.571Z" fill="white"/>
<path d="M160.871 149.621L160.909 184.586L164.888 186.933L164.843 151.969L160.871 149.621Z" fill="#949598"/>
<path d="M165.643 151.502L161.664 149.148L160.871 149.621L164.843 151.969L165.643 151.502Z" fill="#BCBEC0"/>
<path d="M164.888 186.933L164.843 151.969L165.643 151.502L165.681 186.466L164.888 186.933Z" fill="white"/>
<path d="M156.003 150.472V186.166L159.975 188.513V152.819L156.003 150.472Z" fill="#949598"/>
<path d="M160.775 152.346L156.796 149.999L156.003 150.472L159.975 152.82L160.775 152.346Z" fill="#BCBEC0"/>
<path d="M159.976 188.513V152.819L160.775 152.346V188.046L159.976 188.513Z" fill="white"/>
<path d="M151.551 150.958V187.56L155.53 189.908V153.306L151.551 150.958Z" fill="#949598"/>
<path d="M156.323 152.839L152.344 150.485L151.551 150.958L155.53 153.306L156.323 152.839Z" fill="#BCBEC0"/>
<path d="M155.53 189.908V153.306L156.323 152.839V189.434L155.53 189.908Z" fill="white"/>
<path d="M147.438 150.753V188.731L151.416 191.085V153.101L147.438 150.753Z" fill="#949598"/>
<path d="M152.209 152.628L148.231 150.28L147.438 150.753L151.416 153.101L152.209 152.628Z" fill="#BCBEC0"/>
<path d="M151.417 191.085V153.101L152.21 152.628V190.612L151.417 191.085Z" fill="white"/>
<path d="M143.126 149.148V189.831L147.105 192.185V151.502L143.126 149.148Z" fill="#949598"/>
<path d="M147.904 151.028L143.926 148.681L143.126 149.148L147.105 151.502L147.904 151.028Z" fill="#BCBEC0"/>
<path d="M147.105 192.185V151.502L147.905 151.028V191.712L147.105 192.185Z" fill="white"/>
<path d="M246.107 136.738V194.424L250.086 196.771V139.086L246.107 136.738Z" fill="#949598"/>
<path d="M250.879 138.612L246.907 136.265L246.107 136.738L250.086 139.086L250.879 138.612Z" fill="#BCBEC0"/>
<path d="M250.087 196.772V139.086L250.88 138.612V196.305L250.087 196.772Z" fill="white"/>
<path d="M138.873 85.4617V190.356L142.851 192.703V87.8092L138.873 85.4617Z" fill="#949598"/>
<path d="M143.645 87.3422L139.672 84.9882L138.873 85.4616L142.851 87.8092L143.645 87.3422Z" fill="#BCBEC0"/>
<path d="M142.851 192.703V87.8092L143.644 87.3423V192.236L142.851 192.703Z" fill="white"/>
<path d="M135.021 90.4639V190.861L138.994 193.209V92.8115L135.021 90.4639Z" fill="#949598"/>
<path d="M139.793 92.3445L135.815 89.9969L135.021 90.4639L138.994 92.8115L139.793 92.3445Z" fill="#BCBEC0"/>
<path d="M138.994 193.208V92.8114L139.793 92.3444V192.735L138.994 193.208Z" fill="white"/>
<path d="M130.902 96.2786V191.27L134.874 193.624V98.6326L130.902 96.2786Z" fill="#949598"/>
<path d="M135.674 98.1592L131.695 95.8115L130.902 96.2785L134.874 98.6325L135.674 98.1592Z" fill="#BCBEC0"/>
<path d="M134.875 193.624V98.6325L135.674 98.1592V193.151L134.875 193.624Z" fill="white"/>
<path d="M127.48 101.242V190.791L131.459 193.145V103.59L127.48 101.242Z" fill="#949598"/>
<path d="M132.252 103.123L128.273 100.769L127.48 101.242L131.459 103.59L132.252 103.123Z" fill="#BCBEC0"/>
<path d="M131.458 193.145V103.59L132.252 103.123V192.671L131.458 193.145Z" fill="white"/>
<path d="M124.09 107.23L124.122 190.439L128.101 192.786L128.069 109.577L124.09 107.23Z" fill="#949598"/>
<path d="M128.862 109.104L124.889 106.756L124.09 107.23L128.069 109.577L128.862 109.104Z" fill="#BCBEC0"/>
<path d="M128.1 192.786L128.068 109.577L128.862 109.104L128.894 192.32L128.1 192.786Z" fill="white"/>
<path d="M120.162 114.177V189.371L124.141 191.718V116.524L120.162 114.177Z" fill="#949598"/>
<path d="M124.934 116.051L120.962 113.703L120.162 114.177L124.141 116.524L124.934 116.051Z" fill="#BCBEC0"/>
<path d="M124.141 191.718V116.524L124.934 116.051V191.251L124.141 191.718Z" fill="white"/>
<path d="M116.611 123.522V187.541L120.59 189.895V125.87L116.611 123.522Z" fill="#949598"/>
<path d="M121.39 125.403L117.411 123.049L116.611 123.522L120.59 125.87L121.39 125.403Z" fill="#BCBEC0"/>
<path d="M120.59 189.895V125.87L121.39 125.403V189.422L120.59 189.895Z" fill="white"/>
<path d="M113.4 133.117V184.893L117.379 187.24V135.465L113.4 133.117Z" fill="#949598"/>
<path d="M118.172 134.998L114.2 132.644L113.4 133.118L117.379 135.465L118.172 134.998Z" fill="#BCBEC0"/>
<path d="M117.379 187.24V135.465L118.173 134.998V186.767L117.379 187.24Z" fill="white"/>
<path d="M110.24 147.728V180.594L114.219 182.942V150.075L110.24 147.728Z" fill="#949598"/>
<path d="M115.012 149.608L111.04 147.261L110.24 147.728L114.219 150.075L115.012 149.608Z" fill="#BCBEC0"/>
<path d="M114.219 182.942V150.075L115.012 149.608V182.475L114.219 182.942Z" fill="white"/>
<path d="M205.622 173.462C216.951 194.731 167.613 243.065 143.427 238.574C161.984 260.068 226.15 201.793 213.394 177.844C211.507 175.585 209.013 174.261 206.051 173.647" fill="#818284"/>
<path d="M143.831 321.849C143.902 323.241 143.543 324.577 142.756 325.858C141.98 327.116 140.939 328.167 139.634 329.011C138.833 329.529 138.07 329.909 137.345 330.151C136.619 330.379 136.037 330.438 135.599 330.328L135.723 327.116L137.079 326.398L137.132 328.202C137.551 328.188 137.947 328.105 138.321 327.954C138.707 327.781 139.084 327.574 139.454 327.335C140.217 326.841 140.849 326.259 141.349 325.587C141.861 324.893 142.094 324.1 142.049 323.206C141.999 322.21 141.67 321.749 141.064 321.824C140.469 321.876 139.803 322.049 139.068 322.343C138.482 322.571 137.9 322.759 137.322 322.905C136.757 323.044 136.271 322.988 135.864 322.737C135.468 322.463 135.246 321.843 135.197 320.876C135.126 319.455 135.474 318.164 136.242 317.001C137.009 315.839 137.917 314.919 138.964 314.242C139.666 313.788 140.368 313.463 141.07 313.266C141.771 313.054 142.323 313.015 142.724 313.149L142.982 316L141.642 317.026L141.337 315.158C140.968 315.154 140.597 315.228 140.223 315.379C139.849 315.53 139.496 315.713 139.163 315.928C138.486 316.367 137.941 316.901 137.527 317.531C137.126 318.153 136.943 318.809 136.978 319.497C137.019 320.303 137.305 320.685 137.837 320.643C138.369 320.587 138.953 320.444 139.59 320.213C140.114 320.011 140.696 319.823 141.336 319.652C141.975 319.465 142.536 319.503 143.02 319.765C143.504 320.027 143.774 320.721 143.831 321.849ZM145.76 315.451C146.247 314.773 146.727 314.213 147.201 313.771C147.686 313.305 148.218 312.886 148.797 312.511C149.733 311.906 150.485 311.699 151.055 311.891C151.636 312.074 151.956 312.73 152.013 313.858L152.243 318.406C152.275 319.05 152.507 319.233 152.938 318.955C153.11 318.843 153.275 318.699 153.431 318.522L153.507 319.653C153.175 320.125 152.781 320.508 152.326 320.803C151.328 321.448 150.765 321.131 150.637 319.853L150.636 319.831C150.415 320.503 150.082 321.195 149.634 321.908C149.199 322.613 148.649 323.18 147.984 323.611C147.418 323.977 146.841 324.138 146.254 324.094C145.679 324.043 145.365 323.504 145.314 322.479C145.251 321.248 145.617 320.18 146.411 319.273C147.216 318.344 148.086 317.577 149.022 316.972C149.589 316.605 150.064 316.328 150.449 316.14L150.413 315.414C150.38 314.77 150.248 314.288 150.015 313.97C149.783 313.651 149.303 313.727 148.577 314.197C147.986 314.579 147.493 315.026 147.099 315.538L146.866 317.345L145.546 318.017L145.76 315.451ZM150.535 317.831L150.506 317.26C150.283 317.374 150.048 317.504 149.801 317.648C149.565 317.77 149.324 317.911 149.078 318.07C148.511 318.437 148.012 318.873 147.58 319.38C147.147 319.886 146.949 320.483 146.984 321.172C147.01 321.699 147.165 321.992 147.448 322.052C147.743 322.103 148.069 322.013 148.426 321.782C148.956 321.439 149.437 320.901 149.871 320.167C150.304 319.433 150.525 318.654 150.535 317.831ZM164.345 312.802L160.059 315.574L159.983 314.08L161.313 313.22L161.099 308.979C161.049 307.983 160.853 307.384 160.512 307.181C160.171 306.963 159.735 307.025 159.205 307.368C158.516 307.814 157.981 308.439 157.602 309.244C157.223 310.049 157.04 310.818 157.051 311.552L157.268 315.836L158.598 314.976L158.673 316.47L154.388 319.242L154.312 317.748L155.642 316.888L155.298 310.076L153.913 310.973L153.836 309.457L156.847 307.509L156.931 309.179C157.447 307.559 158.352 306.332 159.645 305.495C160.445 304.977 161.138 304.832 161.721 305.06C162.305 305.287 162.628 306.024 162.691 307.269L162.939 312.168L164.269 311.308L164.345 312.802ZM171.374 305.397C171.241 307.54 170.368 309.134 168.754 310.177C167.904 310.727 167.226 310.886 166.718 310.655C166.222 310.401 165.949 309.783 165.899 308.802L165.624 303.353L164.349 304.177L164.275 302.705L165.55 301.88L165.393 298.782L167 297.743L167.157 300.841L170.316 298.798L170.39 300.27L167.231 302.313L167.492 307.477C167.551 308.648 168.006 308.959 168.856 308.41C169.127 308.235 169.392 307.957 169.653 307.577C169.913 307.182 170.078 306.56 170.15 305.712L171.374 305.397ZM172.765 294.831L172.651 292.568L174.332 291.481L174.446 293.744L172.765 294.831ZM176.445 304.976L172.14 307.76L172.065 306.266L173.413 305.394L173.069 298.583L171.665 299.491L171.589 297.975L174.618 296.015L175.039 304.343L176.369 303.482L176.445 304.976ZM177.799 294.73C178.286 294.051 178.766 293.491 179.24 293.049C179.725 292.584 180.257 292.164 180.836 291.79C181.772 291.184 182.525 290.977 183.094 291.169C183.675 291.352 183.995 292.008 184.052 293.136L184.282 297.684C184.314 298.329 184.546 298.511 184.977 298.233C185.149 298.121 185.314 297.977 185.47 297.8L185.546 298.931C185.214 299.403 184.82 299.786 184.365 300.081C183.367 300.726 182.804 300.409 182.676 299.131L182.675 299.109C182.454 299.781 182.121 300.473 181.673 301.186C181.238 301.891 180.688 302.459 180.023 302.889C179.457 303.255 178.88 303.416 178.293 303.373C177.718 303.321 177.405 302.782 177.353 301.757C177.291 300.527 177.656 299.458 178.45 298.552C179.255 297.622 180.125 296.855 181.061 296.25C181.628 295.883 182.104 295.606 182.488 295.418L182.452 294.693C182.419 294.048 182.287 293.567 182.054 293.248C181.822 292.929 181.343 293.005 180.616 293.475C180.025 293.857 179.532 294.304 179.139 294.816L178.906 296.623L177.585 297.296L177.799 294.73ZM182.574 297.11L182.545 296.538C182.322 296.652 182.087 296.782 181.84 296.926C181.604 297.048 181.363 297.189 181.117 297.348C180.55 297.715 180.051 298.151 179.619 298.658C179.187 299.164 178.988 299.762 179.023 300.45C179.049 300.977 179.204 301.271 179.487 301.33C179.782 301.381 180.108 301.291 180.465 301.06C180.995 300.718 181.476 300.179 181.91 299.445C182.343 298.711 182.565 297.932 182.574 297.11ZM195.391 284.145L194.117 284.97L194.524 293.034C194.603 294.586 194.302 296.066 193.623 297.474C192.956 298.873 191.945 300.011 190.591 300.887C189.729 301.445 188.929 301.72 188.191 301.713C187.453 301.721 186.93 301.296 186.619 300.438L187.836 298.857C188.107 299.423 188.49 299.719 188.988 299.746C189.485 299.772 190.005 299.61 190.547 299.259C191.286 298.781 191.88 298.079 192.329 297.154C192.778 296.228 192.973 295.186 192.915 294.029L192.832 292.381C192.613 293.097 192.286 293.8 191.851 294.49C191.415 295.181 190.816 295.773 190.052 296.266C189.067 296.904 188.203 297.046 187.46 296.695C186.729 296.321 186.324 295.357 186.246 293.804C186.178 292.457 186.424 291.035 186.984 289.538C187.543 288.026 188.445 286.868 189.689 286.064C190.97 285.235 191.91 285.225 192.511 286.031L192.433 284.493L195.315 282.629L195.391 284.145ZM192.705 289.876L192.641 288.602C192.599 287.782 192.344 287.266 191.876 287.055C191.407 286.843 190.859 286.941 190.231 287.347C189.418 287.873 188.832 288.615 188.474 289.573C188.114 290.516 187.961 291.5 188.012 292.526C188.069 293.653 188.321 294.353 188.767 294.624C189.226 294.887 189.763 294.82 190.378 294.422C191.117 293.944 191.693 293.254 192.105 292.352C192.517 291.45 192.717 290.625 192.705 289.876ZM204.795 281.581C204.871 283.089 204.539 284.575 203.799 286.037C203.071 287.491 202.067 288.632 200.786 289.46C199.53 290.273 198.509 290.456 197.724 290.011C196.95 289.558 196.526 288.578 196.449 287.069C196.377 285.633 196.665 284.176 197.316 282.697C197.966 281.217 198.987 280.028 200.378 279.127C201.77 278.227 202.837 278.067 203.578 278.646C204.319 279.211 204.724 280.189 204.795 281.581ZM203.092 282.614C203.037 281.53 202.766 280.82 202.278 280.485C201.803 280.142 201.184 280.218 200.42 280.711C199.62 281.229 199.021 281.964 198.624 282.917C198.239 283.847 198.072 284.832 198.125 285.872C198.175 286.868 198.421 287.586 198.863 288.026C199.317 288.444 199.95 288.39 200.763 287.864C201.563 287.346 202.162 286.611 202.559 285.659C202.967 284.684 203.145 283.669 203.092 282.614ZM220.284 275.352C219.852 276.115 219.273 276.861 218.546 277.588C217.832 278.306 217.051 278.941 216.201 279.49C214.464 280.613 213.008 280.852 211.83 280.207C210.653 279.561 210.011 278.191 209.906 276.097C209.843 274.852 210.004 273.515 210.39 272.085C210.774 270.641 211.38 269.282 212.206 268.006C213.043 266.708 214.096 265.649 215.364 264.829C216.374 264.176 217.232 263.787 217.938 263.663C218.656 263.532 219.256 263.56 219.736 263.749L220.196 266.446L218.801 267.53L218.365 265.701C217.993 265.64 217.576 265.675 217.112 265.809C216.647 265.928 216.113 266.182 215.51 266.573C214.278 267.369 213.313 268.523 212.613 270.034C211.914 271.546 211.607 273.143 211.692 274.828C211.78 276.571 212.237 277.682 213.062 278.162C213.9 278.634 214.978 278.443 216.296 277.591C217.318 276.93 218.151 276.172 218.794 275.317L219.002 273.005L220.414 272.272L220.284 275.352ZM222.538 265.794C223.025 265.116 223.506 264.555 223.979 264.113C224.464 263.648 224.996 263.228 225.575 262.854C226.511 262.248 227.264 262.041 227.833 262.233C228.415 262.416 228.734 263.072 228.791 264.2L229.021 268.748C229.053 269.393 229.285 269.576 229.716 269.297C229.889 269.185 230.053 269.041 230.21 268.864L230.286 269.995C229.954 270.467 229.56 270.85 229.104 271.145C228.106 271.79 227.543 271.474 227.415 270.195L227.414 270.173C227.194 270.845 226.86 271.537 226.413 272.25C225.978 272.955 225.428 273.523 224.763 273.953C224.196 274.319 223.619 274.48 223.032 274.437C222.457 274.385 222.144 273.846 222.092 272.821C222.03 271.591 222.396 270.522 223.189 269.616C223.994 268.687 224.865 267.919 225.801 267.314C226.367 266.947 226.843 266.67 227.228 266.482L227.191 265.757C227.158 265.112 227.026 264.631 226.794 264.312C226.561 263.993 226.082 264.069 225.355 264.539C224.764 264.921 224.272 265.368 223.878 265.88L223.645 267.687L222.324 268.36L222.538 265.794ZM227.313 268.174L227.284 267.602C227.061 267.716 226.826 267.846 226.579 267.99C226.343 268.113 226.103 268.253 225.856 268.412C225.29 268.779 224.79 269.215 224.358 269.722C223.926 270.228 223.727 270.826 223.762 271.514C223.789 272.041 223.943 272.335 224.226 272.394C224.521 272.445 224.847 272.355 225.204 272.124C225.734 271.782 226.216 271.243 226.649 270.509C227.082 269.775 227.304 268.996 227.313 268.174ZM235.267 266.932L230.981 269.704L230.906 268.21L232.236 267.35L231.624 255.243L230.239 256.139L230.162 254.623L233.173 252.676L233.862 266.298L235.192 265.438L235.267 266.932ZM236.627 256.681C237.114 256.003 237.595 255.443 238.069 255C238.554 254.535 239.086 254.115 239.665 253.741C240.601 253.136 241.353 252.929 241.922 253.12C242.504 253.304 242.823 253.96 242.88 255.087L243.11 259.636C243.143 260.28 243.375 260.463 243.806 260.184C243.978 260.073 244.142 259.929 244.299 259.752L244.375 260.882C244.043 261.354 243.649 261.738 243.193 262.033C242.196 262.678 241.633 262.361 241.505 261.083L241.503 261.061C241.283 261.733 240.949 262.425 240.502 263.138C240.067 263.843 239.517 264.41 238.852 264.84C238.286 265.207 237.709 265.368 237.121 265.324C236.546 265.273 236.233 264.734 236.181 263.709C236.119 262.478 236.485 261.41 237.278 260.503C238.083 259.574 238.954 258.807 239.89 258.201C240.457 257.835 240.932 257.558 241.317 257.369L241.28 256.644C241.248 256 241.115 255.518 240.883 255.199C240.651 254.881 240.171 254.956 239.445 255.426C238.853 255.809 238.361 256.256 237.967 256.768L237.734 258.575L236.414 259.247L236.627 256.681ZM241.402 259.061L241.374 258.49C241.15 258.604 240.915 258.733 240.668 258.878C240.433 259 240.192 259.141 239.946 259.3C239.379 259.666 238.88 260.103 238.447 260.609C238.015 261.116 237.816 261.713 237.851 262.402C237.878 262.929 238.033 263.222 238.315 263.281C238.61 263.333 238.937 263.243 239.294 263.012C239.823 262.669 240.305 262.131 240.738 261.397C241.172 260.663 241.393 259.884 241.402 259.061ZM251.544 253.546C251.411 255.689 250.537 257.283 248.924 258.326C248.074 258.876 247.396 259.035 246.888 258.803C246.392 258.549 246.119 257.932 246.069 256.95L245.794 251.501L244.519 252.326L244.445 250.854L245.72 250.029L245.563 246.931L247.17 245.892L247.327 248.99L250.486 246.947L250.56 248.419L247.401 250.462L247.662 255.625C247.721 256.797 248.176 257.108 249.026 256.559C249.297 256.383 249.562 256.106 249.823 255.725C250.083 255.33 250.248 254.709 250.32 253.861L251.544 253.546ZM256.609 242.827C257.188 242.453 257.689 242.31 258.114 242.399L258.585 244.93L257.319 245.93L256.92 244.442C256.705 244.475 256.487 244.563 256.265 244.706C255.847 244.977 255.506 245.416 255.245 246.024C254.982 246.618 254.868 247.251 254.902 247.925L255.135 252.539L256.908 251.392L256.984 252.886L252.255 255.945L252.179 254.451L253.509 253.59L253.165 246.779L251.78 247.675L251.703 246.159L254.603 244.283L254.694 246.085C254.826 245.425 255.049 244.804 255.363 244.223C255.689 243.619 256.104 243.154 256.609 242.827ZM260.548 241.21C261.036 240.532 261.516 239.971 261.99 239.529C262.475 239.064 263.007 238.644 263.586 238.27C264.522 237.664 265.274 237.457 265.844 237.649C266.425 237.833 266.744 238.488 266.801 239.616L267.031 244.164C267.064 244.809 267.296 244.992 267.727 244.713C267.899 244.601 268.064 244.457 268.22 244.28L268.296 245.411C267.964 245.883 267.57 246.266 267.114 246.561C266.117 247.206 265.554 246.89 265.426 245.611L265.425 245.589C265.204 246.261 264.87 246.954 264.423 247.666C263.988 248.371 263.438 248.939 262.773 249.369C262.207 249.735 261.63 249.897 261.043 249.853C260.468 249.801 260.154 249.263 260.102 248.237C260.04 247.007 260.406 245.938 261.199 245.032C262.005 244.103 262.875 243.335 263.811 242.73C264.378 242.364 264.853 242.086 265.238 241.898L265.201 241.173C265.169 240.528 265.036 240.047 264.804 239.728C264.572 239.409 264.092 239.485 263.366 239.955C262.774 240.337 262.282 240.784 261.888 241.296L261.655 243.103L260.335 243.776L260.548 241.21ZM265.323 243.59L265.295 243.019C265.071 243.133 264.836 243.262 264.589 243.407C264.354 243.529 264.113 243.669 263.867 243.829C263.3 244.195 262.801 244.631 262.369 245.138C261.936 245.644 261.738 246.242 261.772 246.93C261.799 247.458 261.954 247.751 262.236 247.81C262.532 247.861 262.858 247.771 263.215 247.54C263.744 247.198 264.226 246.659 264.659 245.925C265.093 245.191 265.314 244.413 265.323 243.59ZM277.189 231.241L276.228 231.863L273.656 242.104L272.455 242.88L268.895 236.606L267.934 237.227L267.857 235.711L271.792 233.166L271.869 234.682L270.631 235.483L273.01 239.889L273.12 239.818L274.64 232.89L273.513 233.619L273.436 232.103L277.112 229.725L277.189 231.241ZM278.733 229.449C279.22 228.771 279.7 228.21 280.174 227.768C280.659 227.303 281.191 226.883 281.77 226.509C282.706 225.903 283.459 225.696 284.028 225.888C284.609 226.071 284.929 226.727 284.986 227.855L285.216 232.403C285.248 233.048 285.48 233.231 285.911 232.952C286.083 232.84 286.248 232.696 286.404 232.519L286.481 233.65C286.148 234.122 285.754 234.505 285.299 234.8C284.301 235.445 283.738 235.129 283.61 233.85L283.609 233.828C283.389 234.5 283.055 235.193 282.607 235.905C282.172 236.61 281.623 237.178 280.957 237.608C280.391 237.974 279.814 238.136 279.227 238.092C278.652 238.04 278.339 237.502 278.287 236.476C278.225 235.246 278.59 234.177 279.384 233.271C280.189 232.342 281.06 231.574 281.995 230.969C282.562 230.603 283.038 230.325 283.422 230.137L283.386 229.412C283.353 228.767 283.221 228.286 282.988 227.967C282.756 227.648 282.277 227.724 281.55 228.194C280.959 228.576 280.466 229.023 280.073 229.535L279.84 231.342L278.519 232.015L278.733 229.449ZM283.508 231.829L283.479 231.257C283.256 231.372 283.021 231.501 282.774 231.646C282.538 231.768 282.297 231.908 282.051 232.068C281.484 232.434 280.985 232.87 280.553 233.377C280.121 233.883 279.922 234.481 279.957 235.169C279.983 235.697 280.138 235.99 280.421 236.049C280.716 236.1 281.042 236.01 281.399 235.779C281.929 235.437 282.41 234.898 282.844 234.164C283.277 233.43 283.499 232.652 283.508 231.829Z" fill="#818181"/>
</svg>
