<svg width="296" height="331" viewBox="0 0 296 331" fill="none" xmlns="http://www.w3.org/2000/svg">
<path d="M99.6869 177.68V175.807L73.814 190.888L76.4202 191.254L99.6869 177.68Z" fill="#BCBEC0"/>
<path d="M99.6865 177.68V175.807L141.469 199.847L135.917 198.815L99.6865 177.68Z" fill="#818284"/>
<path opacity="0.4" d="M99.6865 176.771L75.1235 191.064L141.469 200.804L99.6865 176.771Z" fill="#64B9BA"/>
<path d="M139.046 155.174L198.848 121.02L158.98 98.0049L0.125 188.926L40.5429 212.424L73.8139 190.888L99.6868 175.807L141.469 199.847L255.902 268.181L295.125 245.233L139.046 155.174Z" fill="#F6F6F6"/>
<path d="M197.083 119.826L166.188 101.969L165.156 102.559L197.083 121.007V119.826Z" fill="#58595B"/>
<path d="M167.071 101.453L197.084 118.787V119.826L166.188 101.968L167.071 101.453Z" fill="#E6E7E8"/>
<path d="M198.848 83.3173V121.007L197.966 121.523V82.9371L198.848 83.3173Z" fill="#A7A9AB"/>
<path d="M197.083 83.4529V121.007L197.966 121.522V83.833L197.083 83.4529Z" fill="#58595B"/>
<path d="M159.625 142.773L198.848 119.826V121.007L160.955 143.174L159.625 142.773Z" fill="#A7A9AB"/>
<path d="M160.956 143.174L198.849 121.007V122.188L161.648 143.954L160.956 143.174Z" fill="#A7A9AB"/>
<path d="M197.084 119.826L160.507 141.226V142.258L197.966 120.342L197.084 119.826Z" fill="#E6E7E8"/>
<path d="M1.00732 188.268L60.2937 153.83V155.011L1.00732 189.449V188.268Z" fill="#A7A9AB"/>
<path d="M59.4114 153.314L1.88965 186.714V187.752L60.2937 153.83L59.4114 153.314Z" fill="#E6E7E8"/>
<path d="M293.36 244.052L137.281 153.857V155.045L293.36 245.233V244.052Z" fill="#58595B"/>
<path d="M138.164 153.341L293.36 243.014V244.052L137.281 153.857L138.164 153.341Z" fill="#E6E7E8"/>
<path d="M255.901 220.691V230.491L295.125 207.544V197.689L279.229 207.137V211.881L271.797 216.136V211.392L255.901 220.636" fill="#A7A9AB"/>
<path d="M175.195 59.6707L99.5918 103.319V108.07L175.195 64.4556V59.6707Z" fill="#A7A9AB"/>
<path d="M99.5917 103.319L83.3228 93.9189V98.256L99.5917 108.07V103.319Z" fill="#58595B"/>
<path d="M17.0249 155.737V150.993L92.1866 107.595V112.339L17.0249 155.737Z" fill="#A7A9AB"/>
<path d="M83.3228 93.9189L158.98 50.311L175.195 59.6706L99.5917 103.319L83.3228 93.9189Z" fill="#E6E7E8"/>
<path d="M0.125 141.233L75.9722 98.2356L92.1869 107.595L17.0252 150.993L0.125 141.233Z" fill="#E6E7E8"/>
<path d="M24.4575 155.282L40.679 164.642L99.8296 130.495L255.902 220.691L271.797 211.392L99.6192 111.891L24.4575 155.282Z" fill="#E6E7E8"/>
<path d="M99.8293 140.303L40.543 174.734L40.6787 164.642L99.8293 130.495V140.303Z" fill="#A7A9AB"/>
<path d="M99.8291 140.296L255.901 230.491V220.691L99.8291 130.495V140.296Z" fill="#58595B"/>
<path d="M295.125 207.544V245.233L294.243 245.756V208.066L295.125 207.544Z" fill="#A7A9AB"/>
<path d="M293.36 208.575V245.233L294.243 245.756V208.066L293.36 208.575Z" fill="#58595B"/>
<path d="M255.901 267L295.125 244.052V245.233L255.901 268.181V267Z" fill="#A7A9AB"/>
<path d="M293.36 244.052L256.784 265.452V266.484L294.242 244.568L293.36 244.052Z" fill="#E6E7E8"/>
<path d="M1.88965 152.418V188.926L1.00732 189.449V151.922L1.88965 152.418Z" fill="#A7A9AB"/>
<path d="M0.125 151.407V188.927L1.00733 189.449V151.923L0.125 151.407Z" fill="#58595B"/>
<path d="M40.5429 211.243L1.00732 188.268V189.449L40.5429 212.424V211.243Z" fill="#58595B"/>
<path d="M40.5429 212.424L0.125 188.926V190.114L40.5429 213.605V212.424Z" fill="#58595B"/>
<path d="M1.88965 187.745L39.6606 209.695V210.727L1.00732 188.268L1.88965 187.745Z" fill="#E6E7E8"/>
<path d="M255.901 267L141.469 200.872V202.053L255.901 268.181V267Z" fill="#58595B"/>
<path d="M255.901 268.181L295.125 245.233V246.414L255.901 269.362V268.181Z" fill="#A7A9AB"/>
<path d="M255.901 268.181L141.469 202.053V203.234L255.901 269.362V268.181Z" fill="#58595B"/>
<path d="M141.469 199.847L255.026 265.452V266.484L141.469 200.872V199.847Z" fill="#E6E7E8"/>
<path d="M40.543 211.243L73.8139 191.92V193.101L40.543 212.424V211.243Z" fill="#A7A9AB"/>
<path d="M40.543 212.424L73.8139 193.101V194.282L40.543 213.605V212.424Z" fill="#A7A9AB"/>
<path d="M73.8139 190.888L41.4253 209.695V210.727L73.8139 191.92V190.888Z" fill="#E6E7E8"/>
<path d="M40.5431 174.734V203.404L14.9077 188.587V159.993L40.3395 174.694" fill="#818284"/>
<path d="M281.537 214.82L255.901 230.532V259.195L281.537 244.378V214.82Z" fill="#A7A9AB"/>
<path d="M255.901 230.532L99.8291 140.31V168.979L255.901 259.195V230.532Z" fill="#818284"/>
<path d="M249.359 226.718V255.394" stroke="#BCBEC0" stroke-width="0.223978" stroke-miterlimit="10"/>
<path d="M243.183 223.093V251.762" stroke="#BCBEC0" stroke-width="0.223978" stroke-miterlimit="10"/>
<path d="M236.673 219.387V248.057" stroke="#BCBEC0" stroke-width="0.223978" stroke-miterlimit="10"/>
<path d="M230.273 215.688V244.351" stroke="#BCBEC0" stroke-width="0.223978" stroke-miterlimit="10"/>
<path d="M230.273 230.023L255.902 244.84" stroke="#BCBEC0" stroke-width="0.223978" stroke-miterlimit="10"/>
<path d="M223.723 211.901V240.577" stroke="#BCBEC0" stroke-width="0.223978" stroke-miterlimit="10"/>
<path d="M217.554 208.277V236.946" stroke="#BCBEC0" stroke-width="0.223978" stroke-miterlimit="10"/>
<path d="M211.038 204.571V233.24" stroke="#BCBEC0" stroke-width="0.223978" stroke-miterlimit="10"/>
<path d="M204.638 200.872V229.534" stroke="#BCBEC0" stroke-width="0.223978" stroke-miterlimit="10"/>
<path d="M204.638 215.207L230.273 230.023" stroke="#BCBEC0" stroke-width="0.223978" stroke-miterlimit="10"/>
<path d="M198.095 197.085V225.761" stroke="#BCBEC0" stroke-width="0.223978" stroke-miterlimit="10"/>
<path d="M191.918 193.46V222.13" stroke="#F1F2F2" stroke-width="0.223978" stroke-miterlimit="10"/>
<path d="M185.41 189.755V218.424" stroke="#BCBEC0" stroke-width="0.223978" stroke-miterlimit="10"/>
<path d="M179.009 186.055V214.718" stroke="#BCBEC0" stroke-width="0.223978" stroke-miterlimit="10"/>
<path d="M179.009 200.39L204.638 215.207" stroke="#BCBEC0" stroke-width="0.223978" stroke-miterlimit="10"/>
<path d="M172.459 182.268V210.944" stroke="#BCBEC0" stroke-width="0.223978" stroke-miterlimit="10"/>
<path d="M166.29 178.644V207.313" stroke="#BCBEC0" stroke-width="0.223978" stroke-miterlimit="10"/>
<path d="M159.774 174.938V203.6" stroke="#BCBEC0" stroke-width="0.223978" stroke-miterlimit="10"/>
<path d="M153.374 171.239V199.901" stroke="#BCBEC0" stroke-width="0.223978" stroke-miterlimit="10"/>
<path d="M153.374 185.567L179.009 200.39" stroke="#BCBEC0" stroke-width="0.223978" stroke-miterlimit="10"/>
<path d="M146.831 167.452V196.128" stroke="#BCBEC0" stroke-width="0.223978" stroke-miterlimit="10"/>
<path d="M140.655 163.827V192.497" stroke="#BCBEC0" stroke-width="0.223978" stroke-miterlimit="10"/>
<path d="M134.146 160.121V188.784" stroke="#BCBEC0" stroke-width="0.223978" stroke-miterlimit="10"/>
<path d="M127.746 156.422V185.085" stroke="#BCBEC0" stroke-width="0.223978" stroke-miterlimit="10"/>
<path d="M127.746 170.75L153.374 185.567" stroke="#BCBEC0" stroke-width="0.223978" stroke-miterlimit="10"/>
<path d="M121.196 152.635V181.311" stroke="#BCBEC0" stroke-width="0.223978" stroke-miterlimit="10"/>
<path d="M115.026 149.011V177.68" stroke="#BCBEC0" stroke-width="0.223978" stroke-miterlimit="10"/>
<path d="M108.51 145.305V173.967" stroke="#BCBEC0" stroke-width="0.223978" stroke-miterlimit="10"/>
<path d="M102.11 141.606V170.268" stroke="#BCBEC0" stroke-width="0.223978" stroke-miterlimit="10"/>
<path d="M99.8291 154.617L127.745 170.75" stroke="#BCBEC0" stroke-width="0.223978" stroke-miterlimit="10"/>
<path d="M34.0205 170.913V199.589" stroke="#BCBEC0" stroke-width="0.223978" stroke-miterlimit="10"/>
<path d="M27.8442 167.289V195.965" stroke="#BCBEC0" stroke-width="0.223978" stroke-miterlimit="10"/>
<path d="M21.335 163.583V192.252" stroke="#BCBEC0" stroke-width="0.223978" stroke-miterlimit="10"/>
<path d="M14.9077 159.891V188.56" stroke="#BCBEC0" stroke-width="0.223978" stroke-miterlimit="10"/>
<path d="M14.9077 174.205L40.5634 189.035" stroke="#BCBEC0" stroke-width="0.223978" stroke-miterlimit="10"/>
<path d="M40.543 174.734L99.8293 140.31V168.979L40.543 203.404V174.734Z" fill="#A7A9AB"/>
<path d="M47.1128 170.913V199.589" stroke="#BCBEC0" stroke-width="0.223978" stroke-miterlimit="10"/>
<path d="M53.2827 167.289V195.965" stroke="#BCBEC0" stroke-width="0.223978" stroke-miterlimit="10"/>
<path d="M59.7983 163.583V192.252" stroke="#BCBEC0" stroke-width="0.223978" stroke-miterlimit="10"/>
<path d="M66.1787 159.891V188.56" stroke="#BCBEC0" stroke-width="0.223978" stroke-miterlimit="10"/>
<path d="M66.1988 174.219L40.5635 189.035" stroke="#BCBEC0" stroke-width="0.223978" stroke-miterlimit="10"/>
<path d="M262.451 226.718V255.394" stroke="#BCBEC0" stroke-width="0.223978" stroke-miterlimit="10"/>
<path d="M268.627 223.093V251.762" stroke="#BCBEC0" stroke-width="0.223978" stroke-miterlimit="10"/>
<path d="M275.137 219.387V248.057" stroke="#BCBEC0" stroke-width="0.223978" stroke-miterlimit="10"/>
<path d="M281.517 215.695V244.365" stroke="#BCBEC0" stroke-width="0.223978" stroke-miterlimit="10"/>
<path d="M281.537 230.023L255.901 244.84" stroke="#BCBEC0" stroke-width="0.223978" stroke-miterlimit="10"/>
<path d="M72.7417 156.097V184.773" stroke="#BCBEC0" stroke-width="0.223978" stroke-miterlimit="10"/>
<path d="M78.918 152.472V181.148" stroke="#BCBEC0" stroke-width="0.223978" stroke-miterlimit="10"/>
<path d="M85.4268 148.766V177.436" stroke="#BCBEC0" stroke-width="0.223978" stroke-miterlimit="10"/>
<path d="M91.814 145.074V173.743" stroke="#BCBEC0" stroke-width="0.223978" stroke-miterlimit="10"/>
<path d="M97.8608 141.429V170.099" stroke="#BCBEC0" stroke-width="0.223978" stroke-miterlimit="10"/>
<path d="M99.8294 154.617L66.1987 174.218" stroke="#BCBEC0" stroke-width="0.223978" stroke-miterlimit="10"/>
<path d="M179.762 94.1564L147.693 112.353V135.864L152.206 138.47L179.871 122.873L179.762 94.1564Z" fill="#A7A9AB"/>
<path d="M154.236 108.539V137.215" stroke="#BCBEC0" stroke-width="0.223978" stroke-miterlimit="10"/>
<path d="M160.412 104.914V133.583" stroke="#BCBEC0" stroke-width="0.223978" stroke-miterlimit="10"/>
<path d="M166.921 101.208V129.878" stroke="#BCBEC0" stroke-width="0.223978" stroke-miterlimit="10"/>
<path d="M173.24 97.5568V126.219" stroke="#BCBEC0" stroke-width="0.223978" stroke-miterlimit="10"/>
<path d="M173.308 98.2695V126.185" stroke="#BCBEC0" stroke-width="0.223978" stroke-miterlimit="10"/>
<path d="M179.735 108.138L147.693 126.66" stroke="#BCBEC0" stroke-width="0.223978" stroke-miterlimit="10"/>
<path d="M41.4253 174.219V211.908L40.543 212.424V174.734L41.4253 174.219Z" fill="#A7A9AB"/>
<path d="M39.6606 174.219V211.908L40.543 212.424V174.734L39.6606 174.219Z" fill="#58595B"/>
<path d="M256.784 229.976V267.665L255.901 268.181V230.491L256.784 229.976Z" fill="#A7A9AB"/>
<path d="M255.026 229.976V267.665L255.901 268.181V230.491L255.026 229.976Z" fill="#58595B"/>
<path d="M279.229 211.881L107.024 112.36V107.615L279.229 207.137V211.881Z" fill="#58595B"/>
<path opacity="0.62" d="M83.3225 98.256L79.671 100.36L92.1866 107.595V112.339L17.0249 155.737L24.4569 160.481V155.282L99.6186 111.891L271.797 211.392V216.136L279.229 211.881L107.023 112.36V107.615L178.486 66.356L175.194 64.4556H175.242L99.5915 108.07L83.3225 98.1813" fill="#F1E9C0"/>
<path d="M263.334 226.148V262.697L262.451 263.213V226.663L263.334 226.148Z" fill="#A7A9AB"/>
<path d="M261.569 227.179V262.697L262.451 263.213V226.663L261.569 227.179Z" fill="#58595B"/>
<path d="M269.877 222.313V258.869L269.001 259.385V222.835L269.877 222.313Z" fill="#A7A9AB"/>
<path d="M268.119 223.351V258.869L269.001 259.385V222.835L268.119 223.351Z" fill="#58595B"/>
<path d="M276.426 218.485V255.034L275.544 255.55V219.001L276.426 218.485Z" fill="#A7A9AB"/>
<path d="M274.662 219.516V255.034L275.544 255.55V219.001L274.662 219.516Z" fill="#58595B"/>
<path d="M282.976 214.657V251.206L282.093 251.722V215.173L282.976 214.657Z" fill="#A7A9AB"/>
<path d="M281.211 215.688V251.206L282.093 251.722V215.173L281.211 215.688Z" fill="#58595B"/>
<path d="M289.173 210.992V247.541L288.291 248.064V211.514L289.173 210.992Z" fill="#A7A9AB"/>
<path d="M287.408 212.03V247.541L288.29 248.064V211.514L287.408 212.03Z" fill="#58595B"/>
<path opacity="0.3" d="M262.01 226.921L256.784 229.976V265.975L262.01 262.962V226.921Z" fill="#7AC6D2"/>
<path opacity="0.3" d="M268.56 223.066L263.333 226.12V262.12L268.56 259.106V223.066Z" fill="#7AC6D2"/>
<path opacity="0.3" d="M275.103 219.265L269.876 222.326V258.326L275.103 255.305V219.265Z" fill="#7AC6D2"/>
<path opacity="0.3" d="M281.652 215.39L276.426 218.444V254.443L281.652 251.423V215.39Z" fill="#7AC6D2"/>
<path opacity="0.3" d="M287.862 211.759L282.976 214.63V250.629L287.862 247.799V211.759Z" fill="#7AC6D2"/>
<path opacity="0.3" d="M293.801 208.256L289.172 210.998V246.998L293.801 244.296V208.256Z" fill="#7AC6D2"/>
<path d="M47.9678 170.391V206.94L47.0854 207.456V170.906L47.9678 170.391Z" fill="#A7A9AB"/>
<path d="M46.21 171.422V206.94L47.0855 207.456V170.906L46.21 171.422Z" fill="#58595B"/>
<path d="M54.5181 166.556V203.112L53.6357 203.628V167.078L54.5181 166.556Z" fill="#A7A9AB"/>
<path d="M52.7529 167.594V203.112L53.6353 203.628V167.078L52.7529 167.594Z" fill="#58595B"/>
<path d="M61.0606 162.728V199.277L60.1851 199.793V163.244L61.0606 162.728Z" fill="#A7A9AB"/>
<path d="M59.3027 163.759V199.277L60.1851 199.793V163.244L59.3027 163.759Z" fill="#58595B"/>
<path d="M67.6104 158.995V195.544L66.728 196.067V159.511L67.6104 158.995Z" fill="#A7A9AB"/>
<path d="M65.8457 160.026V195.544L66.728 196.067V159.511L65.8457 160.026Z" fill="#58595B"/>
<path d="M73.814 155.37V191.92L72.9316 192.435V155.886L73.814 155.37Z" fill="#A7A9AB"/>
<path d="M72.0493 156.402V191.92L72.9317 192.435V155.886L72.0493 156.402Z" fill="#58595B"/>
<path opacity="0.3" d="M46.6515 171.164L41.4253 174.219V210.218L46.6515 207.205V171.164Z" fill="#7AC6D2"/>
<path opacity="0.3" d="M53.1944 167.309L47.9683 170.363V206.363L53.1944 203.349V167.309Z" fill="#7AC6D2"/>
<path opacity="0.3" d="M59.7442 163.508L54.5181 166.569V202.569L59.7442 199.548V163.508Z" fill="#7AC6D2"/>
<path opacity="0.3" d="M66.2867 159.633L61.0605 162.687V198.686L66.2867 195.666V159.633Z" fill="#7AC6D2"/>
<path opacity="0.3" d="M72.4972 156.008L67.6104 158.873V194.872L72.4972 192.042V156.008Z" fill="#7AC6D2"/>
<path d="M248.476 226.148V262.697L249.358 263.213V226.663L248.476 226.148Z" fill="#58595B"/>
<path d="M250.241 227.179V262.697L249.359 263.213V226.663L250.241 227.179Z" fill="#A7A9AB"/>
<path d="M241.927 222.367V258.916L242.809 259.432V222.883L241.927 222.367Z" fill="#58595B"/>
<path d="M243.691 223.399V258.916L242.809 259.432V222.883L243.691 223.399Z" fill="#A7A9AB"/>
<path d="M235.384 218.593V255.143L236.266 255.658V219.109L235.384 218.593Z" fill="#58595B"/>
<path d="M237.149 219.625V255.143L236.267 255.658V219.109L237.149 219.625Z" fill="#A7A9AB"/>
<path d="M228.834 214.657V251.355L229.716 251.871V215.173L228.834 214.657Z" fill="#58595B"/>
<path d="M230.599 215.688V251.369L229.716 251.871V215.173L230.599 215.688Z" fill="#A7A9AB"/>
<path d="M222.638 210.992L222.624 247.765L223.506 248.281L223.52 211.514L222.638 210.992Z" fill="#58595B"/>
<path d="M224.402 212.03L224.389 247.765L223.506 248.281L223.52 211.514L224.402 212.03Z" fill="#A7A9AB"/>
<path d="M216.386 207.381L216.379 244.147L217.262 244.67L217.269 207.897L216.386 207.381Z" fill="#58595B"/>
<path d="M218.151 208.413L218.138 244.147L217.262 244.67L217.269 207.897L218.151 208.413Z" fill="#A7A9AB"/>
<path opacity="0.4" d="M249.8 226.921L255.026 229.976V265.975L249.8 262.962V226.921Z" fill="#64B9BA"/>
<path opacity="0.4" d="M243.25 223.066L248.477 226.12V262.12L243.25 259.106V223.066Z" fill="#64B9BA"/>
<path opacity="0.4" d="M236.708 219.265L241.927 222.326V258.326L236.708 255.305V219.265Z" fill="#64B9BA"/>
<path opacity="0.4" d="M230.158 215.39L235.384 218.444V254.443L230.158 251.423V215.39Z" fill="#64B9BA"/>
<path opacity="0.4" d="M223.947 211.759L228.834 214.63V250.629L223.947 247.799V211.759Z" fill="#64B9BA"/>
<path opacity="0.4" d="M217.792 208.134L222.638 210.998V246.998L217.792 244.351V208.134Z" fill="#64B9BA"/>
<path d="M167.057 101.928V123.66L166.174 123.294V102.444L167.057 101.928Z" fill="#A7A9AB"/>
<path d="M165.292 102.959V122.778L166.174 123.294V102.444L165.292 102.959Z" fill="#58595B"/>
<path d="M173.6 98.093V127.448L172.717 126.939V98.6089L173.6 98.093Z" fill="#A7A9AB"/>
<path d="M171.842 99.1247V126.423L172.717 126.939V98.6089L171.842 99.1247Z" fill="#58595B"/>
<path d="M180.149 93.3691V130.814L179.79 131.025L179.267 130.719V93.885L180.149 93.3691Z" fill="#A7A9AB"/>
<path d="M178.385 95.2968V130.203L179.267 130.719V94.781L178.385 95.2968Z" fill="#58595B"/>
<path d="M186.692 89.5413V126.986L185.817 127.502V90.057L186.692 89.5413Z" fill="#A7A9AB"/>
<path d="M184.935 91.2651V126.986L185.817 127.502V90.7628L184.935 91.2651Z" fill="#58595B"/>
<path d="M192.902 86.7177L192.895 123.321L192.013 123.837V87.2199L192.902 86.7177Z" fill="#A7A9AB"/>
<path d="M191.131 87.7222V123.321L192.014 123.837V87.22L191.131 87.7222Z" fill="#58595B"/>
<path opacity="0.3" d="M165.733 102.702L160.507 105.756V119.88L165.733 122.9V102.702Z" fill="#7AC6D2"/>
<path opacity="0.3" d="M172.276 98.8464L167.057 101.901V123.66L172.276 126.681V98.8464Z" fill="#7AC6D2"/>
<path d="M153.964 109.631V131.371L153.082 131.004V110.154L153.964 109.631Z" fill="#A7A9AB"/>
<path d="M152.2 110.67V130.482L153.082 131.004V110.154L152.2 110.67Z" fill="#58595B"/>
<path d="M160.507 105.803V135.158L159.625 134.649V106.319L160.507 105.803Z" fill="#A7A9AB"/>
<path d="M158.742 106.835V134.133L159.625 134.649V106.319L158.742 106.835Z" fill="#58595B"/>
<path opacity="0.3" d="M152.641 110.412L148.405 112.882L152.641 115.333V110.412Z" fill="#7AC6D2"/>
<path opacity="0.3" d="M159.184 106.557L153.964 109.611V116.093L159.184 119.249V106.557Z" fill="#7AC6D2"/>
<path opacity="0.3" d="M178.826 95.0457L173.6 98.1067V127.448L178.826 130.495V95.0457Z" fill="#7AC6D2"/>
<path opacity="0.3" d="M185.376 91.0139L180.149 93.9935V130.224L185.376 127.203V91.0139Z" fill="#7AC6D2"/>
<path opacity="0.3" d="M191.586 87.4642L186.692 90.2606V126.409L191.586 123.579V87.4642Z" fill="#7AC6D2"/>
<path opacity="0.3" d="M197.532 84.0707L192.903 86.7177V122.717L197.532 120.016V84.0707Z" fill="#7AC6D2"/>
<path d="M198.848 83.1272V73.3265L139.046 107.48L148.378 112.869L198.848 83.3173" fill="#A7A9AB"/>
<path d="M139.046 107.48L295.125 197.675L279.229 207.137L107.024 107.615L182.627 63.9601L198.848 73.3265L139.046 107.48Z" fill="#E6E7E8"/>
<path d="M33.1108 170.377V206.926L33.9932 207.442V170.893L33.1108 170.377Z" fill="#58595B"/>
<path d="M34.8755 171.409V206.926L33.9932 207.442V170.893L34.8755 171.409Z" fill="#A7A9AB"/>
<path d="M26.5684 166.603V203.152L27.4507 203.668V167.119L26.5684 166.603Z" fill="#58595B"/>
<path d="M28.333 167.635V203.152L27.4507 203.668V167.119L28.333 167.635Z" fill="#A7A9AB"/>
<path d="M20.0186 162.83V199.379L20.9009 199.895V163.345L20.0186 162.83Z" fill="#58595B"/>
<path d="M21.7832 163.861V199.379L20.9009 199.895V163.345L21.7832 163.861Z" fill="#A7A9AB"/>
<path d="M13.4756 158.886V195.585L14.3579 196.107V159.402L13.4756 158.886Z" fill="#58595B"/>
<path d="M15.2403 159.918V195.605L14.3579 196.107V159.402L15.2403 159.918Z" fill="#A7A9AB"/>
<path d="M6.63415 155.16L6.62061 191.553L7.50294 192.069L7.50973 155.676L6.63415 155.16Z" fill="#58595B"/>
<path d="M8.39205 155.818L8.38526 191.553L7.50293 192.069L7.50972 155.302L8.39205 155.818Z" fill="#A7A9AB"/>
<path opacity="0.4" d="M34.4346 171.151L39.6607 174.212V210.211L34.4346 207.191V171.151Z" fill="#64B9BA"/>
<path opacity="0.4" d="M27.8916 167.296L33.111 170.357V206.356L27.8916 203.336V167.296Z" fill="#64B9BA"/>
<path opacity="0.4" d="M21.3418 163.502L26.568 166.556V202.555L21.3418 199.535V163.502Z" fill="#64B9BA"/>
<path opacity="0.4" d="M14.7993 159.87L20.0187 162.83V198.673L14.7993 195.659V159.87Z" fill="#64B9BA"/>
<path opacity="0.4" d="M8.03906 155.968L13.4756 159.11V194.865L8.03906 191.743V155.968Z" fill="#64B9BA"/>
<path opacity="0.4" d="M1.44873 152.167L6.63414 155.16V190.786L1.53017 187.963L1.44873 152.167Z" fill="#64B9BA"/>
<path d="M40.5429 174.734L0.125 151.4V141.233L17.0252 150.993V155.737L24.4572 160.481V155.282L40.6787 164.642L40.5429 174.734Z" fill="#58595B"/>
<path d="M141.469 200.872V203.234L73.814 194.282V191.92L141.469 200.872Z" fill="#818284"/>
<path d="M73.814 191.92V190.888L141.469 199.847V200.872" fill="#E6E7E8"/>
<path d="M168.584 239.876L167.06 239.15L166.679 236.026L163.859 234.398V245.222L165.993 246.454V248.192L160.048 244.76V243.022L162.125 244.221V233.397L159.286 231.758L158.905 234.442L157.4 233.419L157.762 229.14L168.203 235.168L168.584 239.876ZM170.133 241.497C170.654 241.445 171.162 241.497 171.658 241.651C172.166 241.797 172.718 242.043 173.315 242.388C174.281 242.945 175.043 243.656 175.602 244.522C176.173 245.394 176.459 246.395 176.459 247.525V252.079C176.459 252.724 176.681 253.175 177.126 253.432C177.304 253.534 177.475 253.597 177.64 253.619L177.659 254.774C177.304 254.818 176.891 254.704 176.421 254.433C175.392 253.839 174.846 252.863 174.782 251.507V251.485C174.528 251.851 174.16 252.101 173.677 252.233C173.207 252.372 172.629 252.244 171.943 251.848C171.359 251.51 170.775 250.968 170.191 250.22C169.619 249.479 169.333 248.595 169.333 247.569C169.333 246.337 169.752 245.772 170.591 245.875C171.442 245.97 172.35 246.296 173.315 246.854C173.9 247.191 174.389 247.503 174.782 247.789V247.063C174.782 246.417 174.674 245.805 174.458 245.226C174.242 244.646 173.76 244.14 173.01 243.708C172.401 243.356 171.886 243.183 171.467 243.191L171.143 244.61L169.791 243.653L170.133 241.497ZM174.782 249.483V248.911C174.554 248.749 174.312 248.588 174.058 248.427C173.817 248.258 173.569 248.1 173.315 247.954C172.731 247.616 172.21 247.426 171.753 247.382C171.296 247.338 171.067 247.66 171.067 248.35C171.067 248.878 171.207 249.34 171.486 249.736C171.778 250.139 172.109 250.447 172.477 250.66C173.023 250.975 173.531 251.048 174.001 250.88C174.471 250.711 174.731 250.245 174.782 249.483ZM188.295 261.068L185.266 259.319V257.383C184.999 257.816 184.624 258.106 184.142 258.252C183.672 258.406 183.043 258.256 182.255 257.801C181.15 257.163 180.268 256.221 179.607 254.974C178.947 253.713 178.616 252.32 178.616 250.794C178.616 249.445 178.915 248.393 179.512 247.637C180.121 246.875 181.1 246.882 182.446 247.659C183.754 248.415 184.694 249.544 185.266 251.047V245.701L183.303 244.568V243.05L186.923 245.14V258.78L188.295 259.572V261.068ZM185.266 254.787V253.599C185.24 252.763 184.999 251.964 184.542 251.201C184.084 250.439 183.532 249.87 182.884 249.496C182.058 249.02 181.43 249.009 180.998 249.463C180.579 249.925 180.369 250.67 180.369 251.696C180.369 252.811 180.598 253.794 181.055 254.644C181.512 255.495 182.078 256.115 182.751 256.503C183.475 256.921 184.065 256.918 184.523 256.492C184.993 256.074 185.24 255.506 185.266 254.787ZM190.042 252.991C190.563 252.939 191.071 252.991 191.566 253.145C192.074 253.291 192.627 253.537 193.224 253.882C194.189 254.439 194.951 255.15 195.51 256.016C196.082 256.888 196.367 257.889 196.367 259.019V263.573C196.367 264.218 196.59 264.669 197.034 264.926C197.212 265.028 197.383 265.091 197.549 265.113L197.568 266.268C197.212 266.312 196.799 266.198 196.329 265.927C195.3 265.333 194.754 264.357 194.691 263.001V262.979C194.437 263.345 194.068 263.595 193.586 263.727C193.116 263.866 192.538 263.738 191.852 263.342C191.268 263.004 190.683 262.462 190.099 261.714C189.527 260.973 189.242 260.089 189.242 259.063C189.242 257.831 189.661 257.266 190.499 257.369C191.35 257.464 192.258 257.79 193.224 258.348C193.808 258.685 194.297 258.997 194.691 259.283V258.557C194.691 257.911 194.583 257.299 194.367 256.72C194.151 256.14 193.668 255.634 192.919 255.202C192.309 254.85 191.795 254.677 191.376 254.685L191.052 256.104L189.699 255.147L190.042 252.991ZM194.691 260.977V260.405C194.462 260.243 194.221 260.082 193.967 259.921C193.725 259.752 193.478 259.594 193.224 259.448C192.639 259.11 192.119 258.92 191.661 258.876C191.204 258.832 190.975 259.154 190.975 259.844C190.975 260.372 191.115 260.834 191.395 261.23C191.687 261.633 192.017 261.941 192.385 262.154C192.932 262.469 193.44 262.542 193.91 262.374C194.38 262.205 194.64 261.739 194.691 260.977ZM207.117 267.029C207.117 268.54 206.711 269.537 205.898 270.021C205.098 270.513 204.037 270.377 202.716 269.614C201.421 268.866 200.392 267.81 199.63 266.446C198.88 265.09 198.506 263.656 198.506 262.145C198.506 260.708 198.868 259.685 199.592 259.076C200.316 258.468 201.395 258.578 202.831 259.406C204.266 260.235 205.339 261.368 206.051 262.805C206.762 264.228 207.117 265.636 207.117 267.029ZM205.365 265.951C205.365 264.866 205.13 263.872 204.66 262.97C204.202 262.076 203.58 261.401 202.793 260.946C201.967 260.47 201.332 260.44 200.887 260.858C200.455 261.269 200.239 261.995 200.239 263.036C200.239 264.034 200.449 265.005 200.868 265.951C201.3 266.89 201.935 267.601 202.773 268.085C203.599 268.562 204.234 268.591 204.679 268.173C205.136 267.748 205.365 267.007 205.365 265.951ZM223.925 281.639L219.371 279.01V277.272L220.838 278.119L220.076 275.303L215.084 272.421L214.265 274.324L215.884 275.259V276.997L211.369 274.39V272.652L212.512 273.312L216.418 264.743L214.513 263.643V261.905L218.247 264.061L222.705 279.197L223.925 279.901V281.639ZM219.581 273.521L217.694 266.624L217.58 266.558L215.599 271.222L219.581 273.521ZM234.692 287.856L230.272 285.304V283.808L231.644 284.6V280.354C231.644 279.356 231.479 278.557 231.149 277.956C230.818 277.34 230.38 276.874 229.834 276.559C229.123 276.148 228.557 276.093 228.138 276.394C227.719 276.694 227.497 277.197 227.471 277.901V282.191L228.843 282.983V284.479L224.423 281.927V280.431L225.795 281.223V274.403L224.366 273.578V272.06L227.471 273.853V275.525C228.068 274.623 229.034 274.557 230.367 275.327C231.193 275.803 231.892 276.5 232.463 277.417C233.035 278.333 233.321 279.415 233.321 280.662V285.568L234.692 286.36V287.856ZM245.192 293.918L242.163 292.169V290.233C241.896 290.665 241.521 290.955 241.039 291.102C240.569 291.256 239.94 291.105 239.153 290.651C238.048 290.013 237.165 289.07 236.504 287.824C235.844 286.562 235.514 285.169 235.514 283.644C235.514 282.294 235.812 281.242 236.409 280.487C237.019 279.724 237.997 279.731 239.343 280.509C240.651 281.264 241.591 282.393 242.163 283.897V278.551L240.2 277.418V275.9L243.82 277.99V291.63L245.192 292.422V293.918ZM242.163 287.637V286.449C242.137 285.613 241.896 284.813 241.439 284.051C240.982 283.288 240.429 282.72 239.781 282.346C238.956 281.869 238.327 281.858 237.895 282.313C237.476 282.775 237.266 283.519 237.266 284.546C237.266 285.66 237.495 286.643 237.952 287.494C238.41 288.344 238.975 288.964 239.648 289.353C240.372 289.771 240.963 289.767 241.42 289.342C241.89 288.924 242.137 288.355 242.163 287.637ZM254.674 294.486C254.674 295.997 254.268 296.994 253.455 297.478C252.655 297.97 251.594 297.834 250.273 297.071C248.978 296.323 247.949 295.267 247.187 293.903C246.437 292.547 246.063 291.113 246.063 289.602C246.063 288.165 246.425 287.142 247.149 286.533C247.873 285.925 248.952 286.035 250.388 286.863C251.823 287.692 252.896 288.825 253.607 290.262C254.319 291.685 254.674 293.093 254.674 294.486ZM252.922 293.408C252.922 292.323 252.687 291.329 252.217 290.427C251.759 289.533 251.137 288.858 250.35 288.403C249.524 287.927 248.889 287.897 248.444 288.315C248.012 288.726 247.796 289.452 247.796 290.493C247.796 291.491 248.006 292.462 248.425 293.408C248.857 294.347 249.492 295.058 250.33 295.542C251.156 296.019 251.791 296.048 252.236 295.63C252.693 295.205 252.922 294.464 252.922 293.408Z" fill="#818181"/>
</svg>
