<svg viewBox="0 0 319 319" fill="none" xmlns="http://www.w3.org/2000/svg">
<rect width="318.05" height="318.05" rx="30" fill="#F7F7F7"/>
<g clip-path="url(#clip0_305_149787)">
<path d="M168.02 190.33C168.01 192.56 167.99 194.8 167.98 197.03C167.82 197.98 168.01 198.95 167.88 199.9C167.87 201.19 167.85 202.49 167.84 203.78C167.71 205.09 167.82 206.41 167.78 207.73C167.77 208.08 167.83 208.42 167.74 208.77C167.71 213.28 167.62 217.78 167.74 222.29C167.84 222.59 167.72 222.91 167.84 223.2C167.84 226.49 168.64 229.51 170.71 232.14C171.68 233.37 172.56 234.68 173.56 236.06C172.29 235.77 171.15 235.41 170.14 234.86C168.6 234.03 167 233.34 165.5 232.42C163.3 231.07 161.15 229.64 159.1 228.08C157.57 226.92 156.17 225.63 155.06 224.03C154.37 223.03 154.19 221.92 153.97 220.79C153.92 220.54 153.92 220.28 153.89 220.02C153.8 219.78 153.91 219.5 153.79 219.26C153.79 217.66 153.79 216.05 153.79 214.45C153.95 213.45 153.76 212.44 153.89 211.44C153.9 209.44 153.91 207.45 153.93 205.45C154.06 204.56 153.95 203.66 153.99 202.76C154 202.51 153.95 202.25 154.03 202.01C154.04 200.58 154.06 199.14 154.07 197.71C154.22 197.23 154.05 196.72 154.17 196.24C154.18 195.55 154.2 194.87 154.21 194.18C154.31 193.67 154.3 193.17 154.21 192.66C153.92 192.37 153.9 192.35 153.63 192.64C152.63 193.74 151.61 194.84 150.65 195.98C147.5 199.76 144.03 203.17 139.57 205.42C137.12 206.65 134.53 207.4 131.81 207.67C131.47 207.79 131.1 207.64 130.76 207.78C130.34 207.7 129.91 207.73 129.49 207.78C129.1 207.64 128.69 207.8 128.3 207.68C126.56 207.53 124.81 207.33 123.18 206.66C121.89 206.13 120.77 205.28 119.61 204.52C115.11 201.59 110.65 198.61 106.12 195.72C104.11 194.43 101.97 193.33 100.09 191.84C99.1002 191.06 98.1702 190.21 97.1802 189.43C96.5802 188.95 96.0502 188.39 95.4902 187.88C93.9002 186.44 92.7102 184.69 91.6402 182.84C90.4002 180.69 89.4102 178.45 88.8402 176.03C88.5202 174.67 88.3402 173.29 88.2902 171.89C88.1702 171.56 88.3302 171.19 88.1902 170.86C88.1802 170.31 88.1602 169.76 88.1502 169.21C88.0802 167.76 88.0802 166.3 88.1502 164.85C88.1602 164.35 88.1802 163.86 88.1902 163.36C88.3002 163.11 88.1902 162.84 88.2902 162.59C88.4502 159.77 89.0202 157.01 89.9402 154.35C91.1802 150.74 93.0202 147.45 95.5702 144.55C102.14 137.06 110.35 132.59 120.15 131.05C128.01 129.82 135.41 131.36 142.46 134.91C145.89 136.64 149.02 138.72 151.54 141.64C151.6 141.71 151.66 141.79 151.73 141.84C152.28 142.23 152.64 143.27 153.36 142.93C154.28 142.5 155.12 141.7 155.2 140.52C155.28 139.23 155.27 137.94 155.27 136.65C155.29 127.24 155.3 117.84 155.31 108.43C155.31 107.58 155.13 107.38 154.3 107.37C144.07 107.19 133.85 107.13 123.62 107.41C119.99 107.51 116.36 107.64 112.85 108.78C110.41 109.58 108.07 110.56 106.04 112.16C104.38 113.48 103.09 115.06 102.86 117.26C102.69 118.91 103.17 120.46 103.79 121.96C103.92 122.28 104.25 122.69 103.89 122.9C103.51 123.13 103.25 122.68 103.04 122.37C100.06 117.97 97.0802 113.57 94.1102 109.15C93.4202 108.12 93.0202 106.97 93.1402 105.7C93.2402 104.65 93.7602 103.82 94.5102 103.09C98.5202 99.1699 103.43 96.9899 108.79 95.6999C114.85 94.2299 121.02 93.9299 127.22 93.9899C134.61 94.0699 142 94.1299 149.38 94.1899C149.59 94.1899 149.8 94.1599 150.01 94.1399C151.38 94.2799 152.75 94.1599 154.12 94.1999C154.75 94.2199 155.37 94.1499 156 94.2399C160.34 94.2499 164.68 94.2599 169.02 94.2799C169.22 94.3699 169.43 94.3399 169.64 94.3399C177.81 94.3399 185.98 94.3399 194.15 94.3399C194.36 94.3399 194.57 94.3799 194.77 94.2799C197.29 94.2699 199.8 94.2499 202.32 94.2399C203.18 94.1099 204.05 94.2899 204.91 94.1399C205.83 94.1299 206.75 94.1099 207.67 94.0999C208.16 93.9699 208.66 94.1499 209.15 93.9999C209.69 93.9899 210.23 93.9699 210.77 93.9599C211.01 93.8599 211.29 93.9799 211.53 93.8599C213.44 94.0099 214.83 93.0499 215.95 91.6599C216.67 90.7599 216.64 89.5899 216.39 88.5399C215.87 86.3599 215.07 84.2699 213.88 82.3399C213.63 81.9299 213.25 81.5899 213.03 80.9399C213.87 81.3499 214.26 82.0099 214.7 82.5499C217.41 85.8899 219.87 89.3999 222.04 93.1199C223.1 94.9399 224.04 96.7999 224.73 98.8099C225.77 101.84 224.34 104.19 222.07 105.48C220.21 106.54 218.19 107.12 216.07 107.35C215.33 107.43 214.6 107.55 213.86 107.65C213.57 107.76 213.25 107.62 212.96 107.75C208.45 107.74 203.93 107.72 199.42 107.71C199.33 107.71 199.24 107.74 199.15 107.75C197.74 107.62 196.32 107.73 194.91 107.69C194.29 107.67 193.66 107.74 193.04 107.65C190.01 107.64 186.98 107.62 183.95 107.61C182.54 107.48 181.13 107.59 179.72 107.55C179.24 107.54 178.75 107.6 178.27 107.51C175.28 107.49 172.3 107.47 169.31 107.45C168.66 107.45 168.46 107.82 168.54 108.41C168.41 108.75 168.55 109.12 168.44 109.46C168.31 114.09 168.41 118.71 168.41 123.34C168.41 123.88 168.43 124.41 168.44 124.95C168.54 125.84 168.45 126.74 168.48 127.64C168.48 127.89 168.43 128.15 168.54 128.39C168.54 129.11 168.54 129.84 168.54 130.56C168.54 130.94 168.54 131.08 169.04 130.92C170.71 130.38 172.35 129.73 174.03 129.2C176.19 128.52 178.43 128.27 180.66 128.03C180.95 127.92 181.27 128.06 181.56 127.93C183.11 127.93 184.67 127.93 186.22 127.93C186.47 128.04 186.74 127.93 186.99 128.03C190.13 128.34 193.22 128.94 196.12 130.21C198.66 131.32 201.05 132.75 203.34 134.34C206.5 136.52 209.3 139.11 212.06 141.76C214.68 144.27 217.35 146.73 219.85 149.36C221.41 151 223.18 152.47 224.39 154.4C226.56 157.86 228.29 161.52 228.91 165.61C229.01 166.28 229.04 166.95 229.1 167.63C229.17 168.8 229.17 169.97 229.1 171.14C228.6 175.42 227.32 179.43 225.15 183.17C223.65 185.76 222.02 188.23 219.83 190.29C217.54 192.45 215.1 194.39 212.25 195.81C210.34 196.76 208.49 197.81 206.51 198.59C204.54 199.37 202.51 199.98 200.47 200.55C197.72 201.32 194.9 201.71 192.08 202.13C189.72 202.48 187.37 202.86 185.01 203.12C184.77 203.22 184.5 203.1 184.26 203.22C183.9 203.23 183.54 203.25 183.18 203.26C182.85 203.33 182.53 203.33 182.2 203.26C182.01 203.25 181.83 203.23 181.64 203.22C180.24 203.13 179.9 202.93 179.57 201.6C179.28 200.4 178.75 199.28 178.43 198.1C178.12 196.95 177.83 195.8 177.59 194.63C177.44 193.92 177.62 193.82 178.74 193.82C179.68 193.92 180.61 193.92 181.55 193.82C182 193.81 182.45 193.79 182.9 193.78C183.19 193.67 183.51 193.81 183.79 193.68C185.85 193.65 187.88 193.32 189.93 193.15C193.66 192.83 197.25 191.88 200.77 190.73C204.55 189.5 208.09 187.76 211.24 185.27C212.33 184.41 213.46 183.58 214.45 182.61C215.92 181.17 217.16 179.51 218.26 177.76C219.32 176.08 220.38 174.39 221 172.51C221.61 170.67 222.19 168.8 222.48 166.86C222.76 165.05 222.98 163.26 222.85 161.43C222.74 161.19 222.87 160.92 222.75 160.69C222.5 158.2 221.54 155.95 220.27 153.83C219.9 153.21 219.56 152.56 218.89 151.87C219.02 153.09 219.13 154.1 219.25 155.11C219.34 155.36 219.23 155.63 219.35 155.87C219.36 156.51 219.38 157.14 219.39 157.78C219.46 158.34 219.46 158.9 219.39 159.46L219.35 161.24C219.23 161.48 219.35 161.75 219.25 161.99C218.8 167.09 216.68 171.46 213.59 175.48C211.48 178.22 208.99 180.49 206.11 182.31C203.25 184.12 200.15 185.41 196.89 186.35C194.82 186.95 192.71 187.4 190.6 187.81C188.97 188.13 187.3 188.23 185.65 188.43C183.95 188.64 182.26 188.85 180.56 189.04C179.94 189.11 179.31 189.13 178.68 189.17C178.07 189.24 177.46 189.24 176.86 189.17C176.05 189.17 175.68 188.69 175.39 187.99C174.66 186.25 174.2 184.43 173.71 182.63C173.46 181.7 173.15 180.78 172.9 179.85C172.91 179.22 173.35 179.59 173.61 179.55C174.01 179.56 174.42 179.58 174.82 179.59C175.16 179.73 175.52 179.57 175.86 179.69C176.99 179.75 178.12 179.83 179.24 179.69C179.47 179.58 179.74 179.72 179.98 179.59C180.3 179.58 180.62 179.56 180.93 179.55C181.18 179.46 181.45 179.56 181.7 179.45C183.9 179.42 186.05 179.04 188.22 178.7C191.18 178.24 194.04 177.39 196.85 176.35C199.24 175.46 201.39 174.14 203.49 172.73C205.71 171.23 207.24 169.12 208.69 166.94C209.76 165.33 210.93 163.77 211.62 161.94C212.3 160.12 212.87 158.28 213.07 156.33C213.18 155.28 213.41 154.25 213.33 153.18C213.42 152.85 213.42 152.53 213.33 152.2C213.29 150.15 212.99 148.15 212.13 146.26C211.9 145.76 211.54 145.42 211.01 145.24C208.93 144.57 206.8 144.05 204.67 143.53C203.88 143.34 203.05 143.32 202.23 143.23C201.99 143.11 201.72 143.23 201.48 143.13C198.89 143 196.33 143.09 193.76 143.6C190.58 144.22 187.77 145.5 185.21 147.45C182.51 149.51 179.73 151.45 177.06 153.54C173.89 156.02 171.6 159.19 169.91 162.85C168.9 165.03 168.72 167.31 168.66 169.64C168.54 169.93 168.66 170.26 168.56 170.55C168.55 171.05 168.53 171.54 168.52 172.04C168.38 172.43 168.54 172.84 168.42 173.22C168.41 173.9 168.39 174.59 168.38 175.27C168.23 175.8 168.4 176.35 168.28 176.88C168.27 177.85 168.25 178.81 168.24 179.78C168.09 180.54 168.27 181.32 168.14 182.09C168.13 183.57 168.11 185.06 168.1 186.54C167.97 187.53 168.08 188.52 168.04 189.5C168.04 189.75 168.08 190.01 168 190.25L168.02 190.33Z" fill="#3A3A3A"/>
<path d="M194.81 94.33C193.08 94.5 191.35 94.43 189.62 94.43C182.95 94.43 176.28 94.41 169.6 94.4C169.42 94.4 169.23 94.36 169.05 94.33C177.63 94.33 186.22 94.33 194.8 94.33H194.81Z" fill="#FAF9F8"/>
<path d="M193.06 107.72C195.1 107.72 197.14 107.67 199.17 107.82C197.29 107.82 195.4 107.82 193.52 107.83C193.36 107.83 193.19 107.85 193.06 107.71V107.72Z" fill="#FAF9F8"/>
<path d="M156.03 94.29C154.04 94.29 152.04 94.34 150.05 94.19C151.87 94.19 153.69 94.19 155.51 94.18C155.69 94.18 155.89 94.14 156.04 94.3L156.03 94.29Z" fill="#FAF9F8"/>
<path d="M178.28 107.58C180.18 107.58 182.07 107.53 183.97 107.68C182.23 107.68 180.48 107.68 178.74 107.69C178.58 107.69 178.41 107.71 178.28 107.57V107.58Z" fill="#FAF9F8"/>
<path d="M167.74 208.77C167.74 207.11 167.69 205.44 167.84 203.79C167.84 205.3 167.85 206.81 167.85 208.32C167.85 208.48 167.87 208.65 167.73 208.78L167.74 208.77Z" fill="#FAF9F8"/>
<path d="M88.1501 164.85C88.1501 166.3 88.1501 167.76 88.1501 169.21C87.8901 168.58 88.0401 167.92 88.0501 167.28C88.0501 166.47 87.9001 165.65 88.1501 164.85Z" fill="#FAF9F8"/>
<path d="M168.02 190.33C168.02 189.09 167.96 187.85 168.12 186.61C168.08 187.85 168.27 189.09 168.02 190.33Z" fill="#FAF9F8"/>
<path d="M229.12 171.18C229.12 170.01 229.12 168.84 229.12 167.67C229.31 168.84 229.31 170.01 229.12 171.18Z" fill="#FAF9F8"/>
<path d="M154.04 202.02C154.04 203.17 154.09 204.32 153.94 205.46C153.97 204.31 153.79 203.16 154.04 202.02Z" fill="#FAF9F8"/>
<path d="M168.55 128.45C168.4 127.31 168.44 126.16 168.45 125.01C168.7 126.15 168.52 127.3 168.55 128.45Z" fill="#FAF9F8"/>
<path d="M153.9 211.45C153.9 212.46 153.96 213.46 153.8 214.46C153.84 213.46 153.65 212.44 153.9 211.45Z" fill="#FAF9F8"/>
<path d="M167.88 199.9C167.88 198.94 167.84 197.98 167.98 197.03C167.95 197.99 168.13 198.95 167.88 199.9Z" fill="#FAF9F8"/>
<path d="M181.58 193.86C180.64 194 179.71 194.06 178.77 193.86C179.71 193.86 180.64 193.86 181.58 193.86Z" fill="#FAF9F8"/>
<path d="M204.94 94.19C204.08 94.34 203.21 94.3 202.35 94.29C203.21 94.05 204.08 94.22 204.94 94.19Z" fill="#FAF9F8"/>
<path d="M168.17 182.16C168.16 181.39 168.13 180.62 168.27 179.85C168.24 180.62 168.41 181.4 168.17 182.16Z" fill="#FAF9F8"/>
<path d="M176.87 189.23C177.48 189.23 178.09 189.23 178.69 189.23C178.08 189.42 177.47 189.42 176.87 189.23Z" fill="#FAF9F8"/>
<path d="M219.41 159.5C219.41 158.94 219.41 158.38 219.41 157.82C219.6 158.38 219.6 158.94 219.41 159.5Z" fill="#FAF9F8"/>
<path d="M168.31 176.95C168.31 176.41 168.26 175.87 168.41 175.34C168.39 175.88 168.54 176.43 168.31 176.95Z" fill="#FAF9F8"/>
<path d="M154.18 196.25C154.18 196.74 154.22 197.24 154.08 197.72C154.11 197.23 153.94 196.73 154.18 196.25Z" fill="#FAF9F8"/>
<path d="M154.22 192.67C154.42 193.18 154.32 193.68 154.22 194.19C154.22 193.68 154.22 193.18 154.22 192.67Z" fill="#FAF9F8"/>
<path d="M209.18 94.05C208.7 94.21 208.2 94.16 207.7 94.15C208.18 93.91 208.68 94.08 209.18 94.05Z" fill="#FAF9F8"/>
<path d="M168.45 173.29C168.43 172.89 168.41 172.49 168.55 172.11C168.53 172.5 168.68 172.91 168.45 173.29Z" fill="#FAF9F8"/>
<path d="M128.3 207.67C128.7 207.66 129.1 207.66 129.49 207.77C129.09 207.75 128.68 207.9 128.3 207.67Z" fill="#FAF9F8"/>
<path d="M173.63 179.61C173.41 179.76 172.94 179.31 172.92 179.91C172.85 179.42 172.92 179.39 173.63 179.61Z" fill="#FAF9F8"/>
<path d="M130.76 207.77C131.1 207.63 131.46 207.66 131.81 207.66C131.48 207.89 131.11 207.74 130.76 207.77Z" fill="#FAF9F8"/>
<path d="M175.88 179.75C175.53 179.77 175.18 179.78 174.84 179.65C175.19 179.67 175.55 179.53 175.88 179.75Z" fill="#FAF9F8"/>
<path d="M182.22 203.31C182.55 203.31 182.87 203.31 183.2 203.31C182.87 203.49 182.55 203.49 182.22 203.31Z" fill="#FAF9F8"/>
<path d="M88.1899 170.86C88.3099 171.19 88.3099 171.54 88.2899 171.89C88.0599 171.57 88.2099 171.2 88.1899 170.86Z" fill="#FAF9F8"/>
<path d="M168.44 109.52C168.42 109.17 168.41 108.81 168.54 108.47C168.52 108.82 168.67 109.19 168.44 109.52Z" fill="#FAF9F8"/>
<path d="M213.34 152.26C213.44 152.59 213.45 152.91 213.34 153.24C213.34 152.91 213.34 152.59 213.34 152.26Z" fill="#FAF9F8"/>
<path d="M168.59 170.62C168.57 170.31 168.55 170 168.69 169.71C168.67 170.02 168.81 170.34 168.59 170.62Z" fill="#FAF9F8"/>
<path d="M212.99 107.82C213.28 107.69 213.58 107.7 213.89 107.72C213.61 107.94 213.29 107.81 212.99 107.82Z" fill="#FAF9F8"/>
<path d="M183.82 193.72C183.53 193.85 183.23 193.84 182.93 193.82C183.21 193.6 183.52 193.73 183.82 193.72Z" fill="#FAF9F8"/>
<path d="M181.57 127.98C181.28 128.11 180.98 128.1 180.67 128.08C180.95 127.86 181.27 127.99 181.57 127.98Z" fill="#FAF9F8"/>
<path d="M167.84 223.2C167.71 222.91 167.73 222.6 167.74 222.29C167.96 222.57 167.82 222.9 167.84 223.2Z" fill="#FAF9F8"/>
<path d="M184.28 203.27C184.52 203.15 184.77 203.15 185.03 203.17C184.8 203.37 184.53 203.27 184.28 203.27Z" fill="#FAF9F8"/>
<path d="M211.56 93.91C211.32 94.03 211.06 94.02 210.8 94.01C211.03 93.81 211.3 93.92 211.56 93.91Z" fill="#FAF9F8"/>
<path d="M153.79 219.27C153.9 219.51 153.9 219.77 153.89 220.03C153.69 219.8 153.8 219.53 153.79 219.27Z" fill="#FAF9F8"/>
<path d="M180 179.64C179.77 179.75 179.52 179.77 179.26 179.74C179.48 179.54 179.75 179.65 180 179.64Z" fill="#FAF9F8"/>
<path d="M181.72 179.51C181.48 179.64 181.21 179.63 180.95 179.61C181.18 179.41 181.46 179.52 181.72 179.51Z" fill="#FAF9F8"/>
<path d="M88.29 162.6C88.31 162.86 88.32 163.12 88.19 163.37C88.19 163.11 88.09 162.84 88.29 162.6Z" fill="#FAF9F8"/>
<path d="M219.27 162.03C219.25 161.77 219.26 161.52 219.37 161.28C219.37 161.53 219.47 161.8 219.27 162.03Z" fill="#FAF9F8"/>
<path d="M222.78 160.72C222.92 160.95 222.9 161.21 222.88 161.46C222.68 161.24 222.78 160.97 222.78 160.72Z" fill="#FAF9F8"/>
<path d="M219.37 155.9C219.26 155.66 219.26 155.4 219.27 155.14C219.47 155.37 219.36 155.65 219.37 155.9Z" fill="#FAF9F8"/>
<path d="M201.51 143.2C201.77 143.18 202.02 143.18 202.26 143.3C202.01 143.3 201.74 143.4 201.51 143.2Z" fill="#FAF9F8"/>
<path d="M187 128.08C186.74 128.1 186.47 128.11 186.23 127.98C186.49 127.99 186.77 127.88 187 128.08Z" fill="#FAF9F8"/>
<path d="M107.22 178.97C107.08 175.7 107.67 172.15 108.84 168.67C110.09 164.95 112.14 161.79 115.17 159.32C119.42 155.86 123.97 152.86 129.29 151.27C134.71 149.65 140.16 149.51 145.62 151.17C147.68 151.8 147.76 151.89 146.8 153.74C142.78 161.51 138.82 169.32 134.05 176.66C130.42 182.25 125.92 187.07 120.57 191.06C118.58 192.55 116.4 193.73 113.89 194.2C111.57 194.64 110.72 194.25 109.6 192.19C108.13 189.48 107.56 186.53 107.31 183.5C107.2 182.12 107.12 180.74 107.21 178.96L107.22 178.97Z" fill="white"/>
<path d="M94.9204 173.71C94.8504 169.33 95.2104 165 96.4804 160.79C97.4904 157.43 99.1604 154.43 101.62 151.87C104.33 149.05 107.21 146.43 110.55 144.39C115.16 141.58 120.09 139.5 125.5 138.85C130.22 138.28 134.84 139.04 139.39 140.28C143.32 141.35 146.86 143.23 150.15 145.59C150.36 145.74 150.87 145.78 150.54 146.28C150.27 146.7 150.04 147.18 149.41 146.95C149.15 146.86 148.9 146.72 148.66 146.57C144.96 144.15 140.81 143.22 136.47 143.03C126.85 142.61 118.17 145.32 110.44 151.06C107.46 153.28 104.98 155.99 102.94 159.1C101.48 161.33 100.82 163.88 100.3 166.45C99.6904 169.51 99.2904 172.61 99.4504 175.74C99.6204 179.15 99.8804 182.57 101 185.84C101.74 188.02 103.01 189.95 103.97 192.03C104.11 192.34 104.57 192.71 104.2 193.01C103.76 193.36 103.51 192.79 103.26 192.54C101.73 191.02 100.28 189.41 98.9304 187.73C96.7604 185.03 95.6904 181.86 95.2204 178.47C95.0004 176.89 94.9304 175.29 94.9304 173.7L94.9204 173.71Z" fill="white"/>
<path d="M154.51 162.01C154.59 165.97 154.71 169.91 154.48 173.84C154.41 175.06 153.81 176.1 153.15 177.11C149.85 182.12 145.95 186.64 141.98 191.12C139.63 193.78 137.26 196.39 134.33 198.45C130.9 200.87 127.17 202.4 122.89 202.29C120.43 202.23 118.07 201.69 115.82 200.67C115.59 200.57 115.27 200.49 115.36 200.16C115.43 199.89 115.74 199.93 115.96 199.93C122.1 199.72 127.16 197.1 131.76 193.17C138.23 187.66 143.48 181.21 147.74 173.89C149.9 170.17 152.05 166.44 154.13 162.67C154.25 162.45 154.38 162.23 154.51 162.01Z" fill="white"/>
<path d="M168.23 145C168.23 144.3 168.26 143.59 168.23 142.89C168.18 141.83 168.54 140.94 169.37 140.29C173.64 136.94 178.26 134.35 183.75 133.57C189.13 132.8 194.4 133.05 199.55 134.87C202.27 135.83 204.75 137.22 206.96 139.07C207.21 139.28 207.61 139.52 207.44 139.83C207.28 140.11 206.85 139.93 206.54 139.84C203.91 139.1 201.31 138.21 198.58 137.9C194.76 137.46 190.94 137.01 187.11 137.89C181.25 139.23 176.19 142.09 171.58 145.86C170.71 146.57 169.83 147.27 168.94 147.97C168.76 148.11 168.53 148.32 168.33 148.2C168.21 148.13 168.19 147.82 168.19 147.61C168.18 146.74 168.19 145.88 168.19 145.01C168.2 145.01 168.22 145.01 168.23 145.01V145Z" fill="white"/>
</g>
<defs>
<clipPath id="clip0_305_149787">
<rect width="141.27" height="155.07" fill="white" transform="translate(88 81)"/>
</clipPath>
</defs>
</svg>
