<svg  viewBox="0 0 319 319" fill="none" xmlns="http://www.w3.org/2000/svg">
<rect y="0.149963" width="318.05" height="318.05" rx="30" fill="#F7F7F7"/>
<g filter="url(#filter0_d_304_149727)">
<path d="M217.14 81H82.3604V99.32H217.14V81Z" fill="#58595B"/>
<path d="M205.501 99.32H186.521V233.06H205.501V99.32Z" fill="#58595B"/>
<path d="M94 183.65L106.45 170.94C111.18 177.61 118.96 181.96 127.76 181.96C142.18 181.96 153.86 170.27 153.86 155.86C153.86 141.45 142.17 129.76 127.76 129.76C119.91 129.76 112.88 133.22 108.09 138.7L94.31 127.7L94.01 128.05C102.03 118.33 114.16 112.14 127.75 112.14C151.9 112.14 171.47 131.71 171.47 155.86C171.47 180.01 151.9 199.58 127.75 199.58C114.17 199.58 102.03 193.39 94.01 183.67" fill="#58595B"/>
<path d="M205.5 163.47V144.49H165.46V163.47H205.5Z" fill="#58595B"/>
</g>
<g filter="url(#filter1_d_304_149727)">
<path d="M100.56 132.97C106.96 125.18 116.58 120.23 127.33 120.23C146.61 120.23 162.24 136.17 162.24 155.82C162.24 175.47 146.61 191.41 127.33 191.41C116.06 191.41 106.03 185.96 99.6504 177.51" stroke="white" stroke-width="1.69" stroke-miterlimit="10"/>
<path d="M82 90.16H216.77" stroke="white" stroke-width="1.69" stroke-miterlimit="10"/>
<path d="M195.64 233.05V90.16" stroke="white" stroke-width="1.69" stroke-miterlimit="10"/>
<path d="M162.19 153.97H195.64" stroke="white" stroke-width="1.69" stroke-miterlimit="10"/>
</g>
<defs>
<filter id="filter0_d_304_149727" x="82.3604" y="81" width="144.34" height="161.62" filterUnits="userSpaceOnUse" color-interpolation-filters="sRGB">
<feFlood flood-opacity="0" result="BackgroundImageFix"/>
<feColorMatrix in="SourceAlpha" type="matrix" values="0 0 0 0 0 0 0 0 0 0 0 0 0 0 0 0 0 0 127 0" result="hardAlpha"/>
<feOffset dx="9.56" dy="9.56"/>
<feColorMatrix type="matrix" values="0 0 0 0 0.560784 0 0 0 0 0.780392 0 0 0 0 0.247059 0 0 0 0.95 0"/>
<feBlend mode="normal" in2="BackgroundImageFix" result="effect1_dropShadow_304_149727"/>
<feBlend mode="normal" in="SourceGraphic" in2="effect1_dropShadow_304_149727" result="shape"/>
</filter>
<filter id="filter1_d_304_149727" x="82" y="89.315" width="136.2" height="145.165" filterUnits="userSpaceOnUse" color-interpolation-filters="sRGB">
<feFlood flood-opacity="0" result="BackgroundImageFix"/>
<feColorMatrix in="SourceAlpha" type="matrix" values="0 0 0 0 0 0 0 0 0 0 0 0 0 0 0 0 0 0 127 0" result="hardAlpha"/>
<feOffset dx="1.43" dy="1.43"/>
<feColorMatrix type="matrix" values="0 0 0 0 0.564706 0 0 0 0 0.780392 0 0 0 0 0.25098 0 0 0 0.75 0"/>
<feBlend mode="normal" in2="BackgroundImageFix" result="effect1_dropShadow_304_149727"/>
<feBlend mode="normal" in="SourceGraphic" in2="effect1_dropShadow_304_149727" result="shape"/>
</filter>
</defs>
</svg>
