<svg viewBox="0 0 319 319" fill="none" xmlns="http://www.w3.org/2000/svg">
<rect y="0.149963" width="318.05" height="318.05" rx="30" fill="#FEF1F9"/>
<path d="M166.34 117.8L166.38 94.89H226.8V83H109.33V94.89H152.52V103.77C118.52 107.14 92 135.04 92 168.96C92 205.15 122.2 234.5 159.45 234.5C196.7 234.5 226.9 205.16 226.9 168.96H212.56C212.56 198.42 189.77 220.51 159.45 220.51C129.13 220.51 106.34 198.42 106.34 168.96C106.34 139.5 129.13 117.41 159.45 117.41C161.79 117.41 164.09 117.54 166.33 117.8" stroke="url(#paint0_linear_305_149848)" stroke-width="4.21" stroke-miterlimit="10" stroke-linecap="round"/>
<defs>
<linearGradient id="paint0_linear_305_149848" x1="159.46" y1="236.61" x2="159.46" y2="80.89" gradientUnits="userSpaceOnUse">
<stop stop-color="#FAD3E4"/>
<stop offset="0.02" stop-color="#F7B7D4"/>
<stop offset="0.04" stop-color="#F497C2"/>
<stop offset="0.06" stop-color="#F27DB4"/>
<stop offset="0.08" stop-color="#F06BAA"/>
<stop offset="0.1" stop-color="#EF60A3"/>
<stop offset="0.12" stop-color="#EF5DA2"/>
<stop offset="0.61" stop-color="#E1058C"/>
<stop offset="1" stop-color="#7E206F"/>
</linearGradient>
</defs>
</svg>
