<svg  viewBox="0 0 319 319" fill="none" xmlns="http://www.w3.org/2000/svg">
<rect width="318.05" height="318.05" rx="30" fill="#F7F7F7"/>
<g clip-path="url(#clip0_305_149873)">
<path d="M146.32 224.29C146.72 224.31 147.12 224.32 147.52 224.34C148.06 224.51 148.62 224.31 149.16 224.47C149.69 224.49 150.21 224.5 150.74 224.52C151.39 224.73 152.07 224.49 152.72 224.66C153.24 224.68 153.76 224.69 154.28 224.71C154.74 224.83 155.19 224.82 155.65 224.71C156.35 224.31 155.78 224.04 155.51 223.87C154.59 223.26 153.73 222.6 152.95 221.82C151.46 220.33 150.31 218.59 149.21 216.81C147.21 213.59 145.97 210.06 145.1 206.4C144.82 205.23 144.8 204.01 144.67 202.81C144.54 202.46 144.73 202.07 144.55 201.72C144.53 201.25 144.51 200.78 144.5 200.32C144.43 198.96 144.41 197.6 144.51 196.24C144.61 193.69 145.22 191.25 145.98 188.82C146.73 186.46 147.64 184.15 149.46 182.45C151.24 180.78 152.66 178.83 154.25 177.02C156.13 174.89 158.48 173.38 160.86 171.91C163.75 170.12 166.64 168.31 169.71 166.81C170.79 166.28 171.94 166.03 173.1 165.79C175.03 165.39 176.95 164.95 178.88 164.53C179.83 164.46 180.77 164.45 181.71 164.53C183.64 164.85 185.58 165.13 187.5 165.49C189.78 165.91 191.63 167.22 193.41 168.58C197.36 171.58 200.62 175.28 203.91 178.96C204.77 179.92 205.53 180.97 206.59 181.76C207.78 182.65 208.44 184.04 209.43 185.12C211.18 187.03 212.95 188.92 213.79 191.45C214.35 193.14 214.71 194.89 215.31 196.56C215.63 197.44 215.82 198.36 216.07 199.26C216.21 199.55 216.03 199.89 216.2 200.18C216.22 200.47 216.23 200.75 216.25 201.04C216.39 201.53 216.2 202.04 216.37 202.53C216.39 203.22 216.41 203.91 216.43 204.6C216.58 205.27 216.37 205.96 216.55 206.63C216.57 207.08 216.59 207.53 216.61 207.98C216.72 208.28 216.57 208.61 216.73 208.91C216.75 209.19 216.77 209.48 216.78 209.76C216.86 210.35 216.85 210.94 216.78 211.53C216.45 214.49 215.1 217 213.19 219.2C210.49 222.31 207.61 225.25 204.32 227.74C202.44 229.16 200.18 229.89 198.06 230.89C195.92 231.9 193.58 232.32 191.38 233.12C187.54 234.51 183.52 234.98 179.56 235.77C179.27 235.9 178.93 235.73 178.65 235.9L177.96 235.95C177.59 236.08 177.19 235.92 176.83 236.07C176.32 236.09 175.81 236.11 175.29 236.13C174.05 236.2 172.81 236.21 171.57 236.13C171.22 236.09 170.9 236.09 170.55 236.22C169.71 236.54 168.82 236.71 167.91 236.6C167.6 236.46 167.26 236.6 166.95 236.48L165.55 236.43C165.02 236.23 164.46 236.44 163.93 236.3C163.46 236.28 163 236.27 162.53 236.25C162.06 236.05 161.56 236.26 161.09 236.12C160.7 236.1 160.31 236.08 159.91 236.06C159.6 235.92 159.26 236.05 158.95 235.95C158.03 235.81 157.12 235.63 156.26 235.28C155.8 235.09 155.43 235.28 155.03 235.42C154.62 235.47 154.2 235.52 153.8 235.39C152.44 234.81 151.04 234.54 149.57 234.35C147.89 234.13 146.55 232.91 145.13 231.98C143.22 230.73 141.13 229.77 139.27 228.42C137.71 227.29 136.28 226 134.79 224.78C132.92 223.26 131.11 221.66 129.02 220.41C126.63 218.98 124.56 217.09 122.36 215.39C121.13 214.44 119.86 213.51 118.74 212.44C117.17 210.94 115.62 209.41 114.32 207.65C113.07 205.95 111.71 204.33 110.69 202.46C109.82 200.87 108.91 199.31 108.17 197.64C106.49 193.87 104.83 190.1 103.61 186.16C102.75 183.36 102.29 180.48 101.75 177.61C101.58 176.71 101.44 175.8 101.29 174.89C101.15 174.6 101.33 174.26 101.15 173.98C101.13 173.75 101.12 173.52 101.1 173.29C100.96 172.87 101.15 172.42 100.97 172C100.97 171.09 100.97 170.18 100.97 169.28C101.14 168.79 100.95 168.28 101.09 167.79C101.15 166.67 101.22 165.56 101.14 164.44C101.34 163.67 101.11 162.87 101.27 162.1C101.49 158.66 102.1 155.28 103.3 152.04C104.37 149.15 105.79 146.43 107.19 143.69C108.83 140.48 110.71 137.43 112.94 134.61C113.66 133.69 114.46 132.84 115.33 132.03C116.53 130.92 117.62 129.69 118.79 128.54C121.18 126.19 123.92 124.31 126.82 122.66C129.78 120.98 132.79 119.38 135.89 117.97C139.6 116.28 143.33 114.68 147.32 113.74C150 113.11 152.64 112.25 155.34 111.68C156 111.54 156.68 111.47 157.35 111.37C157.64 111.23 157.98 111.41 158.27 111.24C158.5 111.22 158.73 111.21 158.95 111.19C159.24 111.06 159.58 111.23 159.87 111.06C160.1 111.04 160.32 111.03 160.55 111.01C160.84 110.88 161.18 111.05 161.46 110.88C162.67 110.91 163.86 110.65 165.05 110.49C165.8 110.39 166.24 109.55 166.25 108.43C166.42 108.08 166.23 107.68 166.38 107.32C166.4 106.99 166.41 106.66 166.43 106.32C166.58 105.95 166.43 105.55 166.55 105.18C166.57 104.78 166.59 104.38 166.61 103.98C166.79 103.56 166.59 103.11 166.74 102.69C166.76 102.35 166.77 102.01 166.79 101.66C166.9 101.28 166.92 100.9 166.79 100.53C166.36 99.71 165.59 99.7 164.82 99.69C164.5 99.79 164.17 99.74 163.85 99.74C156.65 99.74 149.46 99.74 142.26 99.74C141.94 99.74 141.61 99.67 141.3 99.81C140.42 99.83 139.55 99.85 138.67 99.87C137.84 100.02 136.99 99.79 136.16 99.99C135.4 100.01 134.63 100.02 133.87 100.04C132.97 100.2 132.06 99.97 131.16 100.17C130.23 100.19 129.29 100.2 128.36 100.22C126.98 100.39 125.58 100.15 124.2 100.35C120.97 100.35 117.75 100.35 114.52 100.35C114.33 100.23 114.12 100.27 113.91 100.27C108.13 100.27 102.34 100.27 96.5605 100.27C96.3605 100.27 96.1405 100.23 95.9505 100.35C94.7305 100.35 93.5105 100.35 92.2905 100.35C90.5205 100.18 88.7505 100.32 86.9905 100.27C86.0805 100.24 85.1605 100.33 84.2505 100.22C83.7805 100.2 83.3105 100.16 82.8405 100.17C82.2205 100.19 81.7205 100 81.3705 99.47C81.1905 98.86 81.4205 98.22 81.2405 97.62C80.9205 97.02 81.0205 96.35 81.1105 95.75C81.3105 94.38 80.5805 93.3 80.1705 92.13C79.9705 91.57 79.8005 91.04 80.3405 90.56C80.6405 90.49 80.9405 90.4 81.2105 90.61C81.3105 90.84 81.5305 90.74 81.7005 90.78C82.1505 90.89 82.5905 90.9 83.0305 90.78C83.4405 90.7 83.8405 90.63 84.2505 90.55C84.9005 90.47 85.5505 90.48 86.2005 90.55C86.4905 90.57 86.7805 90.59 87.0705 90.6C87.3605 90.77 87.6905 90.6 87.9805 90.72C89.8205 90.72 91.6505 90.89 93.4705 91.13C93.9105 91.26 94.3405 91.25 94.7805 91.13C94.9405 91 95.1105 90.87 95.2705 90.74C95.3605 90.4 95.0305 90.55 94.9205 90.43C93.6205 90.24 92.3305 90.05 91.0305 89.85C90.6205 89.66 90.1705 89.87 89.7605 89.72C89.4005 89.72 89.0405 89.72 88.6805 89.72C88.3305 89.86 87.9405 89.67 87.5905 89.85C87.3605 89.87 87.1305 89.89 86.9005 89.9C86.1905 89.97 85.4805 89.98 84.7805 89.9C84.4905 89.88 84.2005 89.87 83.9205 89.85C83.6305 89.67 83.3005 89.85 83.0105 89.72C82.0505 89.58 81.0805 89.43 80.1205 89.29C79.6905 89.23 79.3605 89.07 79.2405 88.61C79.1605 88.2 79.1305 87.78 79.2505 87.37C79.9305 86.28 79.4605 85.88 78.6705 84.9C78.4305 84.61 78.1605 84.31 78.0705 83.97C77.8205 83.03 78.2305 82.57 79.2405 82.57C80.2605 82.57 81.2305 82.99 82.2605 82.94C82.6305 83.06 83.0005 83.07 83.3705 82.94C83.6605 82.86 83.9605 82.79 84.2505 82.71C84.9005 82.65 85.5505 82.64 86.1905 82.71C86.5905 82.73 86.9905 82.75 87.4005 82.77C87.8205 82.95 88.2705 82.75 88.6905 82.9C89.1505 82.92 89.6105 82.93 90.0705 82.95C90.9305 83.07 91.7905 83.07 92.6405 82.95L93.6805 82.9C94.0305 82.76 94.4305 82.95 94.7805 82.77C95.3105 82.87 95.8005 82.63 96.3205 82.59C96.8505 82.8 97.4105 82.56 97.9505 82.73C98.3405 82.75 98.7305 82.76 99.1305 82.78C99.5605 82.94 100.01 82.78 100.44 82.9C100.91 82.92 101.37 82.94 101.84 82.95C102.49 83.15 103.17 82.93 103.82 83.08C104.3 83.08 104.77 83.08 105.25 83.08C105.66 82.92 106.11 83.14 106.52 82.94C106.75 82.92 106.98 82.91 107.21 82.89C107.5 82.76 107.84 82.94 108.12 82.76C108.93 82.63 109.7 83.01 110.51 82.95C111.33 83.07 112.15 83.07 112.97 82.95C114.21 82.97 115.42 82.71 116.63 82.54C117.75 82.45 118.88 82.45 120 82.54C122.08 82.69 124.16 82.61 126.23 82.54C127.59 82.46 128.95 82.46 130.31 82.54C130.65 82.56 130.99 82.58 131.34 82.59C131.63 82.75 131.97 82.59 132.27 82.72C132.44 82.73 132.61 82.75 132.78 82.76C133.07 82.94 133.4 82.76 133.69 82.89C134.65 83.21 135.58 83.01 136.5 82.75C137.22 82.55 137.95 82.63 138.68 82.55C139.51 82.38 140.37 82.63 141.19 82.41C142.01 82.4 142.83 82.38 143.66 82.37C144.68 82.2 145.71 82.44 146.73 82.24L151.49 82.19C152.85 82.09 154.21 82.11 155.57 82.18C157.98 82.2 160.39 82.22 162.79 82.24C164.57 82.4 166.35 82.26 168.14 82.31C168.69 82.33 169.25 82.24 169.8 82.36C172.13 82.22 174.37 82.95 176.67 83.12C177 83.21 177.33 83.25 177.66 83.12C178.19 83.11 178.71 83.09 179.24 83.08C180.66 82.98 182.08 83 183.5 83.08C184.32 83.1 185.14 83.11 185.96 83.13C186.67 83.34 187.41 83.1 188.12 83.26C188.82 83.28 189.52 83.29 190.21 83.31C191.7 83.51 193.2 83.28 194.7 83.43C195.76 83.45 196.82 83.47 197.87 83.49C198.64 83.69 199.44 83.46 200.21 83.62C200.9 83.64 201.59 83.66 202.27 83.68C203 83.86 203.74 83.66 204.47 83.8C206.42 83.93 208.36 83.9 210.31 83.86C210.72 84.05 211.17 83.84 211.59 83.99C211.82 84 212.04 84.02 212.27 84.03C212.56 84.2 212.89 84.03 213.19 84.16C213.42 84.18 213.65 84.19 213.88 84.21C214.29 84.4 214.74 84.2 215.15 84.34C215.8 84.4 216.44 84.41 217.09 84.27C218.49 83.97 219.9 83.87 221.31 84.19C223.02 84.58 224.73 84.4 226.43 84.16C229.38 83.74 232.33 83.82 235.29 83.89C236.21 83.91 237.09 83.83 237.93 83.45C238.23 83.41 238.53 83.29 238.8 83.52C239.3 84.22 239.51 84.96 239.2 85.8C239.18 86.56 238.83 86.99 237.97 87.1C236.68 87.27 235.38 87.44 234.07 87.32C231.2 87.04 228.33 87.15 225.47 87.42C223.4 87.61 221.33 87.6 219.26 87.42C218.49 87.35 217.72 87.3 216.95 87.39C214.55 87.69 212.16 87.51 209.77 87.24C208.88 87.14 207.99 87.19 207.11 87.18C205.07 87.15 203.03 87.23 200.98 87.03C199.72 86.91 198.43 86.93 197.18 87.23C196.56 87.38 195.95 87.3 195.33 87.17C193.41 86.75 191.49 86.64 189.51 86.71C187.39 86.79 185.25 86.59 183.13 86.41C181.39 86.26 179.65 86.13 177.9 86.11C175.65 86.09 173.4 86.08 171.19 85.57C170.65 85.45 170.13 85.54 169.62 85.71C168.89 85.96 168.16 85.94 167.45 85.63C165.43 84.75 163.51 85.43 161.5 85.91C161.71 86.4 162.09 86.41 162.41 86.48C162.9 86.59 163.41 86.56 163.92 86.55C170.17 86.41 176.41 87.07 182.66 86.92C183.11 86.91 183.55 86.99 183.98 87.06C185.65 87.36 187.31 87.57 189 87.15C189.71 86.97 190.48 87.04 191.21 87.24C192.48 87.58 193.79 87.56 195.09 87.65C199.23 87.94 203.37 88.03 207.52 88C208.03 88 208.52 88.12 209.01 88.26C209.82 88.49 210.63 88.57 211.46 88.29C211.74 88.19 212.06 88.14 212.34 88.23C214.06 88.74 215.75 88.37 217.45 88.13C219.23 87.87 221 87.97 222.75 88.36C223.39 88.5 224.04 88.58 224.69 88.48C225.88 88.31 227.05 88.29 228.22 88.59C228.61 88.69 228.99 88.6 229.36 88.49C232.25 87.58 235.22 87.82 238.18 87.85C238.51 87.85 238.82 87.97 239.11 88.12C239.99 88.57 240.01 89.06 239.17 89.67C237.86 90.61 236.35 90.9 234.8 90.74C233.86 90.64 232.96 90.52 232.09 90.96C231.18 91.43 230.3 90.97 229.41 90.94C227.76 90.88 226.13 91.28 224.48 91.14C223.8 91.02 223.12 91.01 222.45 91.14C222.04 91.13 221.63 91.12 221.22 91.11C220.91 91.1 220.61 91.11 220.54 91.5C220.48 91.82 220.71 91.93 220.93 92.1C221.5 92.53 222.17 92.65 222.82 92.73C223.69 92.83 224.55 93.07 225.43 92.96C225.86 93.13 226.32 92.94 226.74 93.09C227.9 93.26 228.98 92.96 230.03 92.51C230.81 92.18 231.62 92.01 232.44 91.84C233.8 91.75 235.16 91.75 236.52 91.84C237 91.84 237.47 91.84 237.95 91.84C238.42 91.8 238.9 91.67 239.35 91.92C239.87 92.56 239.35 93.09 239.16 93.64C239.05 93.96 238.83 94.23 238.65 94.52C238.37 94.76 238.01 94.52 237.72 94.7C237.14 94.72 236.56 94.74 235.98 94.76C235.43 94.89 234.86 94.7 234.31 94.88C233.74 94.9 233.17 94.91 232.6 94.93C231.83 95.1 231.03 94.86 230.26 95.06H221.78C221.84 95.23 221.88 95.33 221.9 95.44C222.06 96.37 222.52 96.85 223.54 96.68C224.18 96.58 224.84 96.64 225.49 96.62C225.84 96.5 226.23 96.68 226.58 96.5L227.44 96.45C227.74 96.33 228.08 96.49 228.37 96.33C228.65 96.31 228.94 96.29 229.22 96.28C229.51 96.16 229.85 96.32 230.14 96.15C231.13 96.24 232.16 95.76 233.12 96.4C233.25 96.49 233.66 96.4 233.75 96.28C234.36 95.41 235.25 95.64 236.08 95.63C236.99 95.82 237.91 95.59 238.82 95.76C239.25 95.86 239.54 96.13 239.75 96.51C239.87 96.82 239.73 97.16 239.87 97.47C239.81 97.89 239.95 98.27 240.11 98.65C240.18 98.94 240.18 99.24 240.11 99.53C239.86 100.41 239.28 100.98 238.47 101.34C237.94 101.52 237.37 101.28 236.84 101.48C235.66 101.49 234.49 101.51 233.31 101.52C232.28 101.69 231.24 101.45 230.21 101.65C229.23 101.67 228.24 101.69 227.26 101.71C225.95 101.87 224.63 101.63 223.32 101.84C220.2 101.84 217.08 101.84 213.96 101.84C212.44 101.66 210.91 101.81 209.38 101.76C208.88 101.74 208.38 101.82 207.88 101.71C206.53 101.69 205.18 101.68 203.83 101.66C202.64 101.46 201.43 101.7 200.23 101.53C199.23 101.51 198.23 101.5 197.23 101.48C196.46 101.27 195.67 101.51 194.9 101.35C194.43 101.33 193.97 101.32 193.5 101.3C193.03 101.1 192.53 101.32 192.06 101.17C191.67 101.15 191.28 101.13 190.89 101.11C190.46 100.94 190 101.13 189.57 100.98C189.22 100.97 188.88 100.95 188.53 100.94C188.12 100.75 187.67 100.95 187.26 100.81C186.85 100.79 186.45 100.78 186.04 100.76C185.39 100.56 184.71 100.79 184.06 100.63C183.29 100.62 182.52 100.65 181.75 100.59C180.74 100.52 179.83 101.27 179.95 102.34C179.99 102.69 179.95 103.05 179.95 103.4C179.76 103.94 179.97 104.5 179.83 105.04C179.81 105.55 179.79 106.06 179.77 106.57C179.59 107.12 179.8 107.69 179.64 108.24C179.63 108.76 179.61 109.29 179.6 109.81C179.4 110.52 179.63 111.26 179.47 111.97C179.4 113.46 179.33 114.94 179.47 116.43C179.63 116.9 179.4 117.41 179.61 117.87C179.63 118.16 179.64 118.45 179.66 118.74C179.78 119.05 179.64 119.39 179.78 119.7C179.8 119.97 179.81 120.25 179.83 120.52C179.98 120.87 179.78 121.27 179.97 121.61C179.87 122.94 179.11 123.8 177.13 123.94C176.3 124.09 175.44 123.86 174.61 124.06C174.03 124.08 173.44 124.09 172.86 124.11C172.5 124.24 172.11 124.06 171.75 124.23C169.69 124.24 167.7 124.78 165.7 125.18C163.27 125.68 160.81 126.16 158.47 127.05C155.95 128.01 153.42 128.92 150.89 129.85C147.39 131.14 144.13 132.95 140.8 134.61C138.13 135.94 135.74 137.65 133.54 139.64C130.18 142.67 127.05 145.9 124.62 149.75C122 153.91 119.87 158.32 118.07 162.89C116.82 166.07 116.16 169.38 115.93 172.78C115.74 173.13 115.93 173.52 115.8 173.87C115.78 174.22 115.77 174.56 115.75 174.91C115.54 175.62 115.79 176.36 115.62 177.07C115.62 177.96 115.62 178.85 115.62 179.75C115.77 180.46 115.54 181.2 115.75 181.91C115.76 182.26 115.78 182.61 115.79 182.96C115.93 183.31 115.74 183.71 115.92 184.05C115.93 184.28 115.95 184.51 115.96 184.73C116.1 185.02 115.92 185.36 116.1 185.64C116.11 185.81 116.13 185.98 116.14 186.15C116.28 186.44 116.1 186.78 116.27 187.07C116.45 189.95 116.96 192.76 118.37 195.33C118.86 196.21 118.85 197.19 119.03 198.12C119.54 200.76 120.64 203.17 121.85 205.54C124.15 210.06 126.7 214.43 129.67 218.55C130.75 220.05 132.31 220.84 133.94 221.55C136.02 222.46 138.11 223.35 140.37 223.76C140.75 223.83 141.13 223.83 141.51 223.85C141.79 224.03 142.13 223.85 142.42 223.98C142.65 224 142.88 224.01 143.1 224.03C143.39 224.2 143.72 224.03 144.02 224.15C144.36 224.17 144.7 224.19 145.05 224.21C145.47 224.39 145.92 224.19 146.34 224.34L146.32 224.29Z" fill="#343436"/>
<path d="M239.14 89.63C239.62 88.69 239.41 88.15 238.39 88.15C235.82 88.15 233.23 87.82 230.69 88.43C229.36 88.75 228.06 89.07 226.71 88.59C226.68 88.59 226.65 88.57 226.62 88.59C224.33 89.16 222.11 88.4 219.86 88.28C218.43 88.21 217.01 88.36 215.63 88.67C214.57 88.91 213.58 88.82 212.57 88.51C212.1 88.37 211.66 88.33 211.21 88.61C210.79 88.87 210.28 88.9 209.83 88.75C207.63 88.01 205.37 88.17 203.14 88.3C200.19 88.47 197.3 87.81 194.37 87.93C193.15 87.98 191.96 87.8 190.79 87.39C190.28 87.21 189.72 87.24 189.2 87.39C187.52 87.84 185.87 87.73 184.19 87.39C182.4 87.03 180.59 87.16 178.78 87.22C176.32 87.31 173.88 86.96 171.42 86.95C168.64 86.95 165.85 86.86 163.07 86.83C162.43 86.83 161.85 86.65 161.25 86.49C160.98 86.41 160.85 86.27 160.88 85.98C160.9 85.72 161.07 85.65 161.29 85.6C162.62 85.3 163.93 84.91 165.3 84.84C166.08 84.8 166.82 84.89 167.52 85.31C168.13 85.68 168.82 85.73 169.48 85.42C170.07 85.14 170.68 85.05 171.29 85.23C173.46 85.86 175.69 85.67 177.9 85.8C181.47 86.01 185.05 86.23 188.62 86.41C190.18 86.49 191.77 86.18 193.31 86.51C195.29 86.93 197.26 86.7 199.24 86.75C204.03 86.87 208.82 87.03 213.6 87.13C218.32 87.23 223.06 87.48 227.79 86.93C230.32 86.63 232.88 86.99 235.42 86.99C236.19 86.99 236.96 86.92 237.72 86.87C238.43 86.82 238.95 86.5 239.19 85.8C239.84 85.73 240.06 86.03 240.06 86.67C240.06 87.47 240.2 88.28 240.21 89.08C240.22 89.76 239.84 89.95 239.12 89.65L239.14 89.63Z" fill="#E7E8E8"/>
<path d="M141.3 99.8C141.9 99.6 142.53 99.67 143.14 99.67C150.37 99.65 157.59 99.67 164.82 99.67C164.62 99.85 164.38 99.82 164.15 99.82C156.53 99.82 148.92 99.81 141.3 99.8Z" fill="#E5E5E6"/>
<path d="M95.96 100.34C96.13 100.31 96.3 100.24 96.47 100.24C102.32 100.24 108.17 100.24 114.02 100.24C114.19 100.24 114.36 100.3 114.53 100.34C108.34 100.34 102.15 100.34 95.97 100.34H95.96Z" fill="#E5E5E6"/>
<path d="M84.2598 100.21C86.7998 100.21 89.3398 100.23 91.8898 100.24C92.0298 100.24 92.1698 100.3 92.3098 100.33C89.8198 100.33 87.3398 100.34 84.8498 100.35C84.6398 100.35 84.4298 100.36 84.2598 100.21Z" fill="#E5E5E6"/>
<path d="M169.8 82.36C167.46 82.36 165.13 82.43 162.79 82.23C164.93 82.23 167.08 82.22 169.22 82.21C169.43 82.21 169.63 82.2 169.8 82.36Z" fill="#E5E5E6"/>
<path d="M207.87 101.63C209.89 101.64 211.92 101.56 213.94 101.76C212.14 101.76 210.34 101.76 208.54 101.77C208.31 101.77 208.06 101.81 207.87 101.63Z" fill="#E5E5E6"/>
<path d="M194.7 83.41C193.2 83.42 191.7 83.52 190.21 83.29C191.71 83.33 193.21 83.12 194.7 83.41Z" fill="#E5E5E6"/>
<path d="M183.49 83.06C182.07 83.06 180.65 83.06 179.23 83.06C180.65 82.81 182.07 82.82 183.49 83.06Z" fill="#E5E5E6"/>
<path d="M124.2 100.33C125.58 100.17 126.97 100.19 128.36 100.2C126.98 100.52 125.59 100.29 124.2 100.33Z" fill="#E5E5E6"/>
<path d="M130.32 82.53C128.96 82.53 127.6 82.53 126.24 82.53C127.6 82.3 128.96 82.3 130.32 82.53Z" fill="#E5E5E6"/>
<path d="M144.52 196.22C144.52 197.58 144.52 198.94 144.51 200.3C144.3 198.94 144.27 197.58 144.52 196.22Z" fill="#E7E8E8"/>
<path d="M236.5 91.78C235.14 91.78 233.78 91.78 232.42 91.78C233.78 91.54 235.14 91.54 236.5 91.78Z" fill="#E6E7E8"/>
<path d="M155.57 82.17C154.21 82.17 152.85 82.17 151.49 82.18C152.85 81.92 154.21 81.96 155.57 82.17Z" fill="#E5E5E6"/>
<path d="M223.31 101.76C224.62 101.58 225.94 101.61 227.25 101.63C225.94 101.94 224.62 101.7 223.31 101.76Z" fill="#E5E5E6"/>
<path d="M171.59 236.1C172.83 236.1 174.07 236.1 175.31 236.1C174.07 236.32 172.83 236.33 171.59 236.1Z" fill="#E5E5E6"/>
<path d="M200.22 101.46C201.42 101.44 202.62 101.42 203.82 101.59C202.62 101.55 201.41 101.77 200.22 101.46Z" fill="#E5E5E6"/>
<path d="M120 82.54C118.88 82.54 117.75 82.54 116.63 82.54C117.75 82.29 118.88 82.3 120 82.54Z" fill="#E5E5E6"/>
<path d="M230.2 101.58C231.23 101.4 232.26 101.45 233.3 101.45C232.28 101.77 231.24 101.54 230.2 101.58Z" fill="#E5E5E6"/>
<path d="M146.73 82.23C145.71 82.4 144.69 82.37 143.66 82.36C144.67 82.05 145.7 82.27 146.73 82.23Z" fill="#E5E5E6"/>
<path d="M181.72 164.53C180.78 164.53 179.83 164.53 178.89 164.53C179.84 164.32 180.78 164.31 181.72 164.53Z" fill="#E7E8E8"/>
<path d="M238.81 95.7C237.9 95.67 236.98 95.83 236.07 95.57C236.98 95.61 237.91 95.39 238.81 95.7Z" fill="#E5E5E6"/>
<path d="M131.16 100.16C132.06 99.98 132.96 100.02 133.87 100.03C132.98 100.34 132.06 100.11 131.16 100.16Z" fill="#E5E5E6"/>
<path d="M92.6501 82.94C91.7901 83.1 90.9401 83.1 90.0801 82.94C90.9401 82.94 91.7901 82.94 92.6501 82.94Z" fill="#E5E5E6"/>
<path d="M141.2 82.4C140.37 82.58 139.53 82.55 138.69 82.54C139.51 82.23 140.37 82.45 141.2 82.4Z" fill="#E5E5E6"/>
<path d="M136.16 99.99C136.99 99.81 137.83 99.84 138.67 99.87C137.84 100.15 137 99.95 136.16 99.99Z" fill="#E5E5E6"/>
<path d="M174.57 124C175.4 123.83 176.24 123.85 177.09 123.88C176.26 124.16 175.41 123.96 174.57 124Z" fill="#E7E8E8"/>
<path d="M230.24 95.01C231.01 94.82 231.8 94.88 232.58 94.88C231.81 95.19 231.02 94.96 230.24 95.01Z" fill="#E6E7E8"/>
<path d="M194.89 101.28C195.67 101.28 196.45 101.23 197.22 101.41C196.44 101.36 195.65 101.58 194.89 101.28Z" fill="#E5E5E6"/>
<path d="M200.21 83.6C199.43 83.61 198.64 83.66 197.87 83.47C198.65 83.52 199.44 83.3 200.21 83.6Z" fill="#E5E5E6"/>
<path d="M112.96 82.94C112.14 83.14 111.32 83.16 110.5 82.94C111.32 82.94 112.14 82.94 112.96 82.94Z" fill="#E5E5E6"/>
<path d="M101.29 162.07C101.27 162.85 101.34 163.64 101.16 164.41C101.2 163.63 100.98 162.83 101.29 162.07Z" fill="#E5E5E6"/>
<path d="M84.79 89.9C85.5 89.9 86.21 89.9 86.91 89.9C86.2 90.11 85.49 90.12 84.79 89.9Z" fill="#E5E5E6"/>
<path d="M115.73 181.84C115.53 181.13 115.59 180.41 115.6 179.68C115.88 180.38 115.68 181.12 115.73 181.84Z" fill="#E7E8E8"/>
<path d="M204.48 83.77C203.74 83.81 203.01 83.82 202.28 83.65C203.01 83.68 203.76 83.48 204.48 83.77Z" fill="#E5E5E6"/>
<path d="M188.12 83.24C187.4 83.25 186.67 83.3 185.96 83.11C186.68 83.15 187.42 82.95 188.12 83.24Z" fill="#E5E5E6"/>
<path d="M115.59 177.01C115.59 176.29 115.52 175.56 115.72 174.85C115.67 175.57 115.88 176.31 115.59 177.01Z" fill="#E7E8E8"/>
<path d="M179.45 111.91C179.45 111.19 179.38 110.46 179.58 109.75C179.53 110.47 179.74 111.21 179.45 111.91Z" fill="#E7E8E8"/>
<path d="M184.04 100.56C184.7 100.56 185.37 100.49 186.02 100.69C185.36 100.64 184.68 100.86 184.04 100.56Z" fill="#E7E8E8"/>
<path d="M152.73 224.64C152.07 224.64 151.4 224.7 150.75 224.5C151.41 224.56 152.09 224.33 152.73 224.64Z" fill="#E7E8E8"/>
<path d="M103.81 83.06C103.15 83.08 102.48 83.12 101.83 82.93C102.49 82.98 103.17 82.77 103.81 83.06Z" fill="#E5E5E6"/>
<path d="M86.2098 90.53C85.5598 90.53 84.9098 90.53 84.2598 90.53C84.9098 90.3 85.5598 90.31 86.2098 90.53Z" fill="#E5E5E6"/>
<path d="M216.56 206.61C216.38 205.94 216.42 205.26 216.44 204.58C216.72 205.24 216.54 205.93 216.56 206.61Z" fill="#E5E5E6"/>
<path d="M222.42 91.09C223.1 90.92 223.78 90.93 224.45 91.09C223.77 91.09 223.09 91.09 222.42 91.09Z" fill="#E6E7E8"/>
<path d="M86.2095 82.7C85.5595 82.7 84.9095 82.7 84.2695 82.7C84.9195 82.49 85.5695 82.49 86.2095 82.7Z" fill="#E5E5E6"/>
<path d="M81.2502 97.61C81.5602 98.21 81.2302 98.85 81.3802 99.46C81.0602 98.86 81.2802 98.22 81.2502 97.61Z" fill="#E5E5E6"/>
<path d="M216.8 211.51C216.8 210.92 216.8 210.33 216.8 209.74C217.03 210.33 217.02 210.92 216.8 211.51Z" fill="#E5E5E6"/>
<path d="M149.17 224.46C148.62 224.48 148.07 224.51 147.53 224.33C148.08 224.27 148.64 224.18 149.17 224.46Z" fill="#E7E8E8"/>
<path d="M179.62 108.18C179.62 107.62 179.57 107.06 179.75 106.51C179.72 107.07 179.91 107.64 179.62 108.18Z" fill="#E7E8E8"/>
<path d="M163.94 236.28C164.49 236.26 165.03 236.22 165.56 236.41C165.02 236.37 164.46 236.56 163.94 236.28Z" fill="#E5E5E6"/>
<path d="M97.9503 82.71C97.4003 82.71 96.8503 82.76 96.3203 82.57C96.8603 82.61 97.4203 82.42 97.9503 82.71Z" fill="#E5E5E6"/>
<path d="M179.8 104.97C179.78 104.42 179.75 103.87 179.92 103.33C179.88 103.88 180.08 104.44 179.8 104.97Z" fill="#E7E8E8"/>
<path d="M234.29 94.82C234.84 94.66 235.4 94.68 235.96 94.7C235.42 94.96 234.85 94.79 234.29 94.82Z" fill="#E6E7E8"/>
<path d="M236.82 101.41C237.35 101.2 237.91 101.36 238.45 101.27C237.93 101.58 237.36 101.37 236.82 101.41Z" fill="#E5E5E6"/>
<path d="M101.11 167.77C101.14 168.27 101.15 168.77 100.99 169.26C101.01 168.76 100.84 168.25 101.11 167.77Z" fill="#E5E5E6"/>
<path d="M179.58 117.81C179.39 117.34 179.44 116.85 179.44 116.37C179.73 116.83 179.53 117.33 179.58 117.81Z" fill="#E7E8E8"/>
<path d="M161.1 236.1C161.59 236.08 162.07 236.06 162.54 236.23C162.06 236.2 161.56 236.37 161.1 236.1Z" fill="#E5E5E6"/>
<path d="M192.04 101.1C192.53 101.08 193.01 101.06 193.48 101.23C193 101.19 192.5 101.38 192.04 101.1Z" fill="#E5E5E6"/>
<path d="M216.38 202.52C216.22 202.03 216.24 201.53 216.26 201.03C216.54 201.51 216.36 202.02 216.38 202.52Z" fill="#E5E5E6"/>
<path d="M239.33 91.86C238.87 91.64 238.39 91.86 237.93 91.78C238.41 91.6 238.89 91.48 239.33 91.86Z" fill="#E6E7E8"/>
<path d="M88.7002 82.89C88.2702 82.91 87.8302 82.94 87.4102 82.76C87.8402 82.78 88.2902 82.62 88.7002 82.89Z" fill="#E5E5E6"/>
<path d="M100.43 82.88C99.9901 82.91 99.5501 82.92 99.1201 82.76C99.5601 82.78 100.01 82.62 100.43 82.88Z" fill="#E5E5E6"/>
<path d="M94.7905 91.12C94.3505 91.38 93.9105 91.27 93.4805 91.12C93.9205 91.12 94.3605 91.12 94.7905 91.12Z" fill="#E5E5E6"/>
<path d="M100.99 171.98C101.17 172.4 101.13 172.83 101.12 173.27C100.85 172.86 101.02 172.41 100.99 171.98Z" fill="#E5E5E6"/>
<path d="M83.04 90.76C82.6 90.96 82.15 91.01 81.71 90.76C82.15 90.76 82.6 90.76 83.04 90.76Z" fill="#E5E5E6"/>
<path d="M226.72 93.03C226.28 93.03 225.83 93.09 225.41 92.9C225.85 92.93 226.31 92.75 226.72 93.03Z" fill="#E6E7E8"/>
<path d="M89.7695 89.72C90.1995 89.7 90.6295 89.66 91.0395 89.85C90.6195 89.82 90.1695 89.99 89.7695 89.72Z" fill="#E5E5E6"/>
<path d="M166.75 102.67C166.77 103.1 166.8 103.54 166.62 103.96C166.64 103.53 166.48 103.08 166.75 102.67Z" fill="#E5E5E6"/>
<path d="M153.8 235.37C154.21 235.37 154.62 235.39 155.03 235.4C154.61 235.6 154.2 235.63 153.8 235.37Z" fill="#E5E5E6"/>
<path d="M146.32 224.29C145.89 224.29 145.45 224.35 145.03 224.16C145.46 224.19 145.91 224.02 146.32 224.29Z" fill="#E7E8E8"/>
<path d="M106.51 82.93C106.1 83.11 105.67 83.08 105.24 83.07C105.64 82.79 106.08 82.97 106.51 82.93Z" fill="#E5E5E6"/>
<path d="M155.66 224.7C155.2 224.95 154.75 224.81 154.29 224.7C154.75 224.7 155.2 224.7 155.66 224.7Z" fill="#E7E8E8"/>
<path d="M79.2602 87.37C79.2602 87.78 79.2602 88.2 79.2502 88.61C79.0202 88.2 79.0102 87.78 79.2602 87.37Z" fill="#E5E5E6"/>
<path d="M211.6 83.96C211.17 83.96 210.73 84.01 210.32 83.83C210.75 83.86 211.2 83.69 211.6 83.96Z" fill="#E5E5E6"/>
<path d="M215.15 84.31C214.72 84.33 214.29 84.36 213.88 84.18C214.3 84.21 214.75 84.04 215.15 84.31Z" fill="#E5E5E6"/>
<path d="M189.55 100.92C189.99 100.91 190.44 100.88 190.87 101.05C190.43 101.03 189.97 101.2 189.55 100.92Z" fill="#E5E5E6"/>
<path d="M187.24 100.75C187.67 100.74 188.1 100.69 188.51 100.88C188.09 100.85 187.64 101.01 187.24 100.75Z" fill="#E7E8E8"/>
<path d="M144.56 201.71C144.73 202.06 144.7 202.43 144.68 202.8C144.44 202.46 144.58 202.08 144.56 201.71Z" fill="#E7E8E8"/>
<path d="M115.77 173.8C115.75 173.43 115.73 173.06 115.9 172.71C115.87 173.07 116.02 173.46 115.77 173.8Z" fill="#E7E8E8"/>
<path d="M115.9 183.98C115.71 183.63 115.76 183.26 115.77 182.89C116.02 183.23 115.87 183.62 115.9 183.98Z" fill="#E7E8E8"/>
<path d="M176.85 236.04C177.21 235.88 177.6 235.9 177.98 235.92C177.63 236.18 177.23 236.03 176.85 236.04Z" fill="#E5E5E6"/>
<path d="M171.72 124.17C172.07 123.99 172.45 124.03 172.83 124.05C172.48 124.3 172.1 124.15 171.72 124.17Z" fill="#E7E8E8"/>
<path d="M179.93 121.55C179.76 121.2 179.78 120.83 179.79 120.46C180.05 120.8 179.9 121.19 179.93 121.55Z" fill="#E7E8E8"/>
<path d="M94.7797 82.76C94.4297 82.94 94.0597 82.9 93.6797 82.89C94.0197 82.64 94.4097 82.78 94.7797 82.76Z" fill="#E5E5E6"/>
<path d="M166.39 107.29C166.39 107.67 166.44 108.05 166.26 108.4C166.28 108.03 166.13 107.63 166.39 107.29Z" fill="#E5E5E6"/>
<path d="M87.6104 89.85C87.9604 89.67 88.3304 89.7 88.7004 89.72C88.3604 89.97 87.9804 89.83 87.6104 89.85Z" fill="#E5E5E6"/>
<path d="M166.56 105.16C166.59 105.54 166.6 105.93 166.44 106.3C166.45 105.92 166.31 105.52 166.56 105.16Z" fill="#E5E5E6"/>
<path d="M166.79 100.51C166.97 100.89 166.95 101.26 166.79 101.64C166.79 101.26 166.79 100.89 166.79 100.51Z" fill="#E5E5E6"/>
<path d="M83.3795 82.93C83.0095 83.16 82.6395 83.13 82.2695 82.93C82.6395 82.93 83.0095 82.93 83.3795 82.93Z" fill="#E5E5E6"/>
<path d="M226.57 96.45C226.22 96.62 225.85 96.59 225.48 96.57C225.82 96.33 226.21 96.47 226.57 96.45Z" fill="#E6E7E8"/>
<path d="M81.2196 90.6C80.9296 90.58 80.6396 90.56 80.3496 90.55C80.6596 90.33 80.9496 90.28 81.2196 90.6Z" fill="#E5E5E6"/>
<path d="M142.41 223.93C142.1 223.95 141.79 223.96 141.5 223.8C141.81 223.82 142.14 223.7 142.41 223.93Z" fill="#E7E8E8"/>
<path d="M144.01 224.1C143.7 224.12 143.38 224.15 143.09 223.98C143.4 224 143.72 223.88 144.01 224.1Z" fill="#E7E8E8"/>
<path d="M83.0098 89.72C83.3198 89.7 83.6398 89.69 83.9198 89.85C83.6098 89.84 83.2798 89.95 83.0098 89.72Z" fill="#E5E5E6"/>
<path d="M213.2 84.13C212.89 84.15 212.57 84.18 212.28 84C212.59 84.01 212.92 83.89 213.2 84.13Z" fill="#E5E5E6"/>
<path d="M238.8 83.49C238.51 83.47 238.22 83.45 237.93 83.42C238.24 83.22 238.54 83.16 238.8 83.49Z" fill="#E5E5E6"/>
<path d="M177.66 83.11C177.33 83.27 177 83.27 176.67 83.11C177 83.11 177.33 83.11 177.66 83.11Z" fill="#E5E5E6"/>
<path d="M178.67 235.87C178.96 235.71 179.27 235.72 179.58 235.74C179.3 235.98 178.98 235.86 178.67 235.87Z" fill="#E5E5E6"/>
<path d="M158.96 235.93C159.29 235.91 159.61 235.89 159.92 236.04C159.6 236.04 159.26 236.15 158.96 235.93Z" fill="#E5E5E6"/>
<path d="M133.69 82.89C133.38 82.91 133.07 82.92 132.78 82.76C133.09 82.77 133.41 82.66 133.69 82.89Z" fill="#E5E5E6"/>
<path d="M108.12 82.76C107.83 82.91 107.52 82.91 107.21 82.89C107.49 82.66 107.81 82.77 108.12 82.76Z" fill="#E5E5E6"/>
<path d="M132.27 82.71C131.95 82.73 131.63 82.75 131.34 82.58C131.66 82.58 131.99 82.47 132.27 82.71Z" fill="#E5E5E6"/>
<path d="M166.96 236.45C167.29 236.42 167.61 236.41 167.92 236.57C167.6 236.57 167.26 236.69 166.96 236.45Z" fill="#E5E5E6"/>
<path d="M94.9299 90.43C95.1299 90.44 95.3799 90.31 95.4799 90.58C95.5199 90.67 95.4199 90.78 95.2699 90.74C95.1499 90.64 95.0399 90.54 94.9199 90.43H94.9299Z" fill="#E5E5E6"/>
<path d="M216.74 208.89C216.57 208.6 216.6 208.28 216.62 207.96C216.85 208.25 216.73 208.57 216.74 208.89Z" fill="#E5E5E6"/>
<path d="M87.9803 90.71C87.6703 90.74 87.3603 90.75 87.0703 90.59C87.3803 90.6 87.7003 90.49 87.9803 90.71Z" fill="#E5E5E6"/>
<path d="M237.7 94.65L238.63 94.47C238.37 94.79 238.02 94.63 237.7 94.65Z" fill="#E6E7E8"/>
<path d="M230.13 96.1C229.84 96.27 229.53 96.24 229.21 96.23C229.49 96 229.82 96.12 230.13 96.1Z" fill="#E6E7E8"/>
<path d="M216.21 200.17C216.04 199.88 216.06 199.57 216.08 199.25C216.32 199.53 216.2 199.86 216.21 200.17Z" fill="#E5E5E6"/>
<path d="M228.37 96.28C228.08 96.45 227.76 96.43 227.44 96.4C227.72 96.17 228.06 96.29 228.37 96.28Z" fill="#E6E7E8"/>
<path d="M239.86 97.4C239.7 97.1 239.76 96.76 239.74 96.44C239.98 96.73 239.86 97.07 239.86 97.4Z" fill="#E5E5E6"/>
<path d="M116.26 187C116.08 186.71 116.11 186.4 116.13 186.08C116.37 186.36 116.25 186.69 116.26 187Z" fill="#E7E8E8"/>
<path d="M116.08 185.57C115.92 185.28 115.92 184.97 115.94 184.66C116.18 184.93 116.06 185.26 116.08 185.57Z" fill="#E7E8E8"/>
<path d="M240.1 99.46C240.1 99.17 240.1 98.87 240.1 98.58C240.3 98.87 240.31 99.17 240.1 99.46Z" fill="#E5E5E6"/>
<path d="M101.16 173.96C101.32 174.25 101.32 174.56 101.3 174.87C101.06 174.59 101.18 174.27 101.16 173.96Z" fill="#E5E5E6"/>
<path d="M161.47 110.86C161.18 111.02 160.87 111.02 160.56 110.99C160.84 110.75 161.16 110.87 161.47 110.86Z" fill="#E5E5E6"/>
<path d="M159.88 111.04C159.59 111.22 159.28 111.19 158.96 111.17C159.24 110.93 159.57 111.05 159.88 111.04Z" fill="#E5E5E6"/>
<path d="M158.28 111.22C157.99 111.4 157.68 111.37 157.36 111.35C157.64 111.11 157.97 111.23 158.28 111.22Z" fill="#E5E5E6"/>
<path d="M179.75 119.64C179.6 119.34 179.6 119.01 179.63 118.68C179.87 118.97 179.74 119.31 179.75 119.64Z" fill="#E7E8E8"/>
<path d="M192.57 177.37C194.59 177.39 196.59 177.59 198.55 178.09C199.27 178.27 199.96 178.54 200.62 178.89C201.93 179.57 202.83 180.47 203.14 182.06C203.68 184.78 204.49 187.45 205.15 190.15C205.3 190.76 205.5 190.89 206.04 190.55C207.09 189.9 207.25 190 207.33 191.33C207.44 193.25 207.55 195.17 207.67 197.09C207.68 197.33 207.69 197.57 207.76 197.79C208.82 201.16 207.69 204.17 206.27 207.15C205.97 207.78 205.38 207.63 204.89 207.72C204.69 207.76 204.67 207.58 204.67 207.42C204.66 206.99 204.74 206.61 205.05 206.28C205.55 205.76 205.91 205.14 206.11 204.45C206.85 201.88 207.47 199.3 206.79 196.6C206.48 195.36 206.35 194.09 206.66 192.82C206.7 192.65 206.7 192.47 206.69 192.29C206.67 191.78 206.33 191.36 205.92 191.33C205.46 191.3 205.23 191.76 205.2 192.27C205.04 194.6 204.87 196.93 204.69 199.26C204.47 202.02 203.42 204.39 201.42 206.35C199.65 208.09 198.03 209.99 196.11 211.59C195.44 212.15 194.96 212.87 194.77 213.74C194.66 214.24 194.38 214.4 193.89 214.39C193.04 214.37 192.23 214.6 191.55 215.1C187.51 218.09 182.93 219.84 178.12 221.12C175.47 221.83 172.94 222.96 170.19 223.35C168.43 223.6 166.68 223.88 164.93 224.15C164.05 224.29 163.39 223.97 163.07 223.15C161.84 219.99 160.44 216.88 160.23 213.41C160.12 211.56 159.38 209.76 159.69 207.87C160.25 204.46 160.68 201.02 161.71 197.7C162.1 196.44 162.75 195.32 163.53 194.27C164.68 192.73 165.82 191.18 166.85 189.55C167.25 188.91 167.76 188.4 168.43 188.04C169.78 187.29 170.95 186.3 172.12 185.29C176.78 181.27 182.26 178.94 188.25 177.77C189.67 177.49 191.12 177.39 192.58 177.39L192.57 177.37Z" fill="#F7F7F7"/>
<path d="M209.88 188.12C211.49 189.1 212.51 190.43 213.19 192.05C214.18 194.41 214.64 196.92 215.06 199.43C215.58 202.55 216.03 205.69 216.16 208.86C216.19 209.48 216.12 210.11 215.93 210.7C215.46 212.19 214.91 213.65 214.58 215.19C214.34 216.31 213.53 217.16 212.74 217.97C211.89 218.84 211.04 219.7 210.38 220.74C210.23 220.98 210.01 221.22 209.77 221.37C207.49 222.8 205.68 224.78 203.73 226.59C203.65 226.66 203.56 226.73 203.44 226.82C203.07 226.25 203.12 225.83 203.57 225.31C206.12 222.39 208.9 219.67 211.54 216.83C211.72 216.64 211.95 216.48 212.02 216.21C212.1 215.92 212.22 215.62 211.92 215.4C211.59 215.15 211.46 215.53 211.28 215.67C209.67 216.91 207.95 218.01 206.56 219.53C206.11 220.02 205.46 220.21 204.82 220.36C204.16 220.52 203.61 220.87 203.33 221.51C202.82 222.68 201.93 223.49 200.84 224.07C199.48 224.79 198.11 225.47 196.83 226.35C196.07 226.87 195.2 227 194.28 226.87C193.8 226.8 193.45 226.57 193.46 226.11C193.46 225.63 193.82 225.28 194.31 225.23C197.82 224.86 200.37 222.93 202.44 220.25C203.19 219.27 204.1 218.48 205.07 217.76C207.76 215.77 209.91 213.33 211.4 210.33C212.51 208.11 212.33 205.72 212.25 203.36C212.16 200.79 211.92 198.22 211.82 195.65C211.76 194.09 211.18 192.72 210.6 191.33C210.19 190.35 209.89 189.35 209.88 188.15V188.12Z" fill="white"/>
<path d="M111.5 163.48C111.64 161.73 112.26 160.09 112.8 158.44C113.21 157.18 113.77 155.97 114.4 154.79C115.29 153.12 116.18 151.46 116.85 149.68C117.29 148.52 117.94 147.45 118.63 146.42C121.69 141.84 125.31 137.78 129.55 134.23C131.63 132.48 133.89 131.06 136.26 129.79C137.33 129.22 138.39 128.64 139.46 128.07C139.67 127.96 139.89 127.79 140.1 127.79C140.5 127.79 141.08 127.5 141.25 128.1C141.4 128.63 140.78 128.62 140.49 128.77C127.19 135.42 118.34 145.94 113.45 159.89C112.96 161.28 112.57 162.71 112.11 164.11C112.04 164.33 112.11 164.76 111.74 164.71C111.4 164.66 111.56 164.27 111.51 164.03C111.47 163.86 111.51 163.68 111.51 163.5L111.5 163.48Z" fill="white"/>
<path d="M172.87 109.83C173.01 106.9 173.17 103.92 173.29 100.94C173.31 100.45 173.44 100.29 173.94 100.29C174.71 100.29 175.47 100.22 176.24 100.31C177.04 100.4 177.46 100.87 177.38 101.67C177.2 103.55 177 105.43 176.81 107.32C176.75 107.87 176.66 108.41 176.85 108.98C177.13 109.85 176.87 110.22 175.96 110.45C174.24 110.88 173.89 111.3 173.76 113.1C173.74 113.34 173.86 113.68 173.41 113.66C173 113.65 173.06 113.31 173.04 113.07C172.97 112.01 172.93 110.95 172.87 109.83Z" fill="white"/>
<path d="M212.74 211.69C214.06 213.06 213.83 213.81 211.93 214.38C212.21 213.46 212.46 212.61 212.74 211.69Z" fill="#39383A"/>
</g>
<defs>
<clipPath id="clip0_305_149873">
<rect width="162.25" height="154.61" fill="white" transform="translate(78 82)"/>
</clipPath>
</defs>
</svg>
