<svg width="319" height="319" viewBox="0 0 319 319" fill="none" xmlns="http://www.w3.org/2000/svg">
<rect width="318.05" height="318.05" rx="30" fill="#F7F7F7"/>
<path d="M136.839 177.31C139.029 177.34 140.979 176.62 142.739 175.34C145.039 173.66 145.979 171.22 146.559 168.56C146.969 166.64 147.009 164.7 147.009 162.76C147.009 140.91 146.999 119.06 147.019 97.2C147.019 93.27 145.949 89.73 143.489 86.67C142.749 85.75 141.899 84.87 140.849 84.23C140.619 84.09 140.489 84.02 140.759 83.73C141.079 83.39 141.329 82.95 141.509 82.52C141.769 81.92 142.019 82.06 142.449 82.36C145.639 84.6 148.859 86.81 152.059 89.03C156.009 91.77 159.989 94.47 163.889 97.27C166.739 99.32 168.429 102.16 169.099 105.61C169.239 106.34 169.369 107.08 169.409 107.82C169.489 108.1 169.449 108.38 169.449 108.66C169.449 131.77 169.449 154.89 169.449 178C169.449 178.3 169.399 178.61 169.499 178.91C169.409 180.4 169.399 181.89 168.959 183.33C167.249 188.96 163.489 192.58 158.009 194.49C155.789 195.26 153.449 195.44 151.169 195.15C147.789 194.72 144.759 193.34 142.029 191.23C140.549 190.08 138.959 189.06 137.399 188C134.919 186.3 132.459 184.55 129.979 182.85C127.809 181.36 125.639 179.87 123.479 178.37C121.039 176.68 118.579 175.01 116.169 173.26C114.929 172.37 113.639 171.53 112.479 170.55C110.289 168.69 108.689 166.4 107.849 163.61C107.199 161.44 106.769 159.22 106.559 156.96C106.469 156.01 106.449 155.06 106.369 154.12C106.259 153.77 106.399 153.4 106.269 153.06C106.419 152.48 106.269 151.89 106.269 151.31C106.269 133.06 106.269 114.8 106.269 96.55C106.269 93.03 105.189 89.85 103.089 87.05C102.309 86.01 101.409 85.02 100.249 84.35C99.9391 84.17 99.9691 83.91 100.069 83.63C100.079 83.59 100.139 83.57 100.159 83.53C100.489 83.02 100.819 82.51 101.149 82C101.689 82.36 102.229 82.71 102.759 83.08C106.169 85.44 109.589 87.81 112.999 90.18C116.469 92.59 119.979 94.94 123.389 97.43C126.159 99.47 127.769 102.31 128.419 105.69C128.659 106.91 128.709 108.15 128.709 109.4C128.709 127.51 128.709 145.63 128.709 163.74C128.709 164.02 128.729 164.3 128.739 164.58C128.829 164.98 128.699 165.39 128.829 165.78C128.859 168.9 129.109 171.99 130.569 174.82C131.509 176.64 133.049 177.51 135.129 177.3C135.699 177.39 136.259 177.39 136.829 177.3L136.839 177.31Z" fill="#010101"/>
<path d="M188.31 95.9732C188.41 94.3032 187.94 92.7332 187.44 91.1832C186.58 88.5232 184.87 86.4332 182.85 84.5732C182.58 84.3232 182 84.2632 182 83.8932C182 83.5732 182.38 83.2532 182.59 82.9232C183.03 82.2366 183.583 82.1266 184.25 82.5932C191.11 87.3432 197.98 92.0932 204.83 96.8632C208.58 99.4732 210.52 103.123 210.76 107.673C210.82 108.753 210.82 109.833 210.82 110.913C210.82 148.113 210.81 185.303 210.84 222.503C210.84 227.383 212.85 231.403 216.75 234.403C217.08 234.653 217.17 234.833 216.9 235.173C216.65 235.483 216.43 235.823 216.26 236.183C216.01 236.713 215.76 236.663 215.32 236.363C210.24 232.813 205.17 229.273 200.06 225.773C198.1 224.423 196.12 223.113 194.18 221.723C191.13 219.523 189.24 216.613 188.6 212.883C188.51 212.333 188.5 211.783 188.41 211.243C188.32 210.943 188.37 210.633 188.37 210.333C188.37 172.513 188.37 134.693 188.37 96.8732C188.37 96.5732 188.42 96.2632 188.32 95.9632L188.31 95.9732Z" fill="#010101"/>
</svg>
