<svg viewBox="0 0 319 319" fill="none" xmlns="http://www.w3.org/2000/svg">
<rect width="318.05" height="318.05" rx="30" fill="#F7F5FA"/>
<path d="M154.77 232.52L140.61 211.65C105.22 153.76 152.86 165.25 186.43 164.59V193.3C186.43 204.01 179.13 211.65 167.55 211.65L188.79 236.29C200.37 236.29 208.84 225.47 208.84 206.3V159.63C225.75 151.52 214.56 133.16 209.66 126.11V123.38C221.53 123.38 238.93 115.88 231.4 108.18L208.84 82L206.44 84.05L212.02 90.52C215.66 94.16 210.83 98.99 200.67 98.74H84L103.96 121.91H180.86C183.94 121.91 186.43 124.87 186.43 128.53V134.51C186.43 157.19 81.96 117.63 111.51 179.86C114.64 187.85 128.12 208.92 152.67 234.11L154.78 232.51L154.77 232.52Z" fill="#7054A3"/>
</svg>
