<svg width="319" height="319" viewBox="0 0 319 319" fill="none" xmlns="http://www.w3.org/2000/svg">
<rect width="318.05" height="318.05" rx="30" fill="#F7F7F7"/>
<path d="M229.438 158.18C229.438 175.4 229.468 192.63 229.418 209.85C229.408 215.26 229.018 220.65 227.598 225.91C227.218 227.31 226.718 228.65 226.088 229.96C224.158 233.94 220.938 236.01 216.578 236.36C215.078 236.48 213.568 236.5 212.058 236.51C201.438 236.52 190.808 236.51 180.188 236.51C178.678 236.51 177.168 236.54 175.678 236.23C170.558 235.18 167.348 232.09 166.018 227.06C164.798 222.49 165.358 218.09 167.528 213.91C169.468 210.16 172.668 208.33 176.808 208.13C178.998 208.02 181.208 208.17 183.408 208.11C185.638 208.05 186.698 206.68 186.348 204.47C186.168 203.3 185.628 202.81 184.438 202.84C183.428 202.86 182.458 203.16 181.498 203.45C176.148 205.04 170.838 206.79 165.358 207.92C155.718 209.92 145.968 210.96 136.138 210.27C123.568 209.39 113.158 203.88 104.878 194.43C97.3684 185.85 92.7984 175.85 91.1484 164.56C90.6084 160.88 90.5584 157.17 91.3784 153.5C91.6684 152.21 92.0784 150.96 92.7084 149.79C94.2484 146.98 96.5384 145.58 99.8184 145.93C105.298 146.51 110.748 146.17 116.128 145.08C122.578 143.78 128.488 141.28 133.348 136.71C136.378 133.86 138.688 130.53 139.468 126.34C139.868 124.16 139.898 121.96 139.238 119.81C138.868 118.59 138.238 117.5 137.148 116.76C136.268 116.16 135.318 115.89 134.308 116.41C133.328 116.92 132.868 117.78 132.848 118.87C132.848 119.43 132.888 120 132.948 120.56C134.198 131.42 127.958 139.99 117.158 141.99C110.238 143.27 103.638 142.25 97.6184 138.44C93.0384 135.54 90.1184 131.44 89.2584 126.02C88.7684 122.94 88.9683 119.84 89.9183 116.88C93.7783 104.86 100.548 95.02 111.688 88.61C117.848 85.07 124.538 83.24 131.648 83.19C148.388 83.06 162.088 89.46 172.298 102.78C178.528 110.91 181.078 120.31 180.518 130.54C180.218 135.99 179.158 141.24 176.658 146.14C174.018 151.31 170.298 155.45 165.208 158.3C164.218 158.86 163.268 159.48 162.618 160.44C162.088 161.25 161.668 162.1 162.238 163.07C162.798 164.04 163.728 164.14 164.708 164.01C166.798 163.74 168.708 162.96 170.508 161.9C173.438 160.18 175.738 157.8 177.638 155.01C180.718 150.47 182.558 145.42 183.578 140.07C185.438 130.31 184.928 120.7 181.568 111.29C180.998 109.69 180.238 108.18 179.438 106.68C177.208 102.46 175.148 98.16 174.208 93.42C173.908 91.92 173.848 90.41 174.028 88.92C174.318 86.52 175.538 84.7 177.718 83.57C179.658 82.57 181.758 82.13 183.898 82.11C190.688 82.02 197.478 82.01 204.258 82C208.598 82 212.928 82 217.268 82.09C222.068 82.18 225.298 84.54 227.008 89.04C228.178 92.12 228.698 95.34 229.018 98.59C229.348 102.03 229.438 105.49 229.438 108.95C229.408 125.36 229.428 141.76 229.428 158.17L229.438 158.18Z" fill="#3B3A3C"/>
</svg>
