<svg width="319" height="319" viewBox="0 0 319 319" fill="none" xmlns="http://www.w3.org/2000/svg">
<rect width="318.05" height="318.05" rx="30" fill="#FDF2F2"/>
<path d="M190.174 66H192.105V102.349C192.105 158.392 116.361 121.728 116.361 147.886V155.984C116.361 168.79 160.535 169.722 176.672 162.375C173.43 135.806 205 135.806 205 145.453V175.581C205 185.942 196.003 191.716 189.397 191.716L202.608 212.729C209.359 222.691 193.574 231.357 170.771 232.12C144.981 232.992 114.297 224.821 131.697 252.637L130.823 253L118.923 232.846C86.1635 185.615 200.665 232.725 185.536 191.716C145.224 194.5 113.496 195.081 113.496 176.549V128.313C113.496 96.2124 188.037 123.484 189.373 86.88L190.186 66H190.174Z" fill="#8F1B1D"/>
</svg>
