<svg viewBox="0 0 319 319" fill="none" xmlns="http://www.w3.org/2000/svg">
<rect width="318.05" height="318.05" rx="30" fill="#F4F4FB"/>
<path d="M78.0083 111.483H85.8663C92.3433 111.483 93.9598 116.93 93.9598 122.377C93.9598 129.514 94.8591 134.79 96.4864 136.651L114.408 155.335C110.436 158.545 102.31 172.552 111.025 181.98L140.808 210.122C157.209 217.784 176.983 206.773 176.983 204.686L181.95 213.044L216.23 240.737C234.344 246.483 248.84 231.62 240.66 216.393L222.793 198.073H216.241C225.244 207.34 218.146 223.83 199.668 219.539V121.05C224.259 124.207 233.584 109.75 227.107 99.1456L199.668 76L197.27 78.3435C212.247 90.8953 197.473 101.35 178.053 101.35H172.829V163.296C169.467 171.953 154.072 190.679 130.895 190.679C130.895 188.09 130.359 180.492 137.329 174.938L155.914 161.563L135.07 139.744L120.071 150.648C116.313 148.668 115.553 140.579 121.324 130.52L132.479 122.494L112.106 103.822H87.1296L75 110.06L77.9869 111.494L78.0083 111.483Z" fill="#272862"/>
</svg>
