<svg width="319" height="319" viewBox="0 0 319 319" fill="none" xmlns="http://www.w3.org/2000/svg">
<rect width="318.05" height="318.05" rx="30" fill="#FBF3F3"/>
<g opacity="0.7">
<path d="M217.55 110.05L194.79 101.93V216.37C194.79 226.83 185.28 230.56 178.59 229.07C178.59 229.07 151.58 222.96 133.39 213.32C128.64 210.81 125.58 208.48 125.6 197.81L125.67 157.75C127.07 158.64 136.31 164.42 142.32 160.68C145.03 158.99 146.92 156.15 146.92 152.62C146.92 133.15 146.92 115.62 146.26 106.85C146.14 105.21 145.98 101.37 141.83 99.15C137.61 96.9 111.68 84.6 103.65 82L103.06 83.6C107.56 85.56 115.22 88.52 119.44 90.77C123.59 92.98 123.25 96.32 123.37 97.97C124.03 106.74 124.03 124.26 124.03 143.74C124.03 147.26 123.69 148.7 120.92 150.3C116.46 152.88 104.67 145.28 103.27 144.38H103.07L103 190.89C102.98 201.55 106.04 203.88 110.79 206.4C128.98 216.03 172.34 231.43 195.74 235.73C207.96 237.98 217.53 232.81 217.53 220.36" fill="#B7B7B8"/>
<path d="M158.021 131.39C158.361 141.86 158.18 145.74 158.18 165.21Z" fill="#B7B7B8"/>
<path d="M213.9 150.1C213.85 148.45 213.12 144.62 208.98 142.4C204.76 140.15 174.53 126.8 166.58 123.69C158.98 120.66 154.54 125.01 154.54 131.39L154.7 165.21C154.75 167.06 154.11 173.49 161.75 177.31C169.93 181.66 188.6 188.79 192.82 191.04C194.22 191.93 203.46 195.71 209.47 191.98C212.18 190.29 214.07 187.45 214.07 183.92C214.07 164.45 214.25 160.56 213.91 150.1H213.9ZM190.34 175.65C190.34 179.24 187.4 182.18 183.81 182.18C180.22 182.18 177.28 179.24 177.28 175.65V142.72C177.28 139.13 180.22 136.19 183.81 136.19C187.4 136.19 190.34 139.13 190.34 142.72V175.65Z" fill="#B7B7B8"/>
</g>
<path d="M214.55 109.05L191.79 100.93V215.37C191.79 225.83 182.28 229.56 175.59 228.07C175.59 228.07 148.58 221.96 130.39 212.32C125.64 209.81 122.58 207.48 122.6 196.81L122.67 156.75C124.07 157.64 133.31 163.42 139.32 159.68C142.03 157.99 143.92 155.15 143.92 151.62C143.92 132.15 143.92 114.62 143.26 105.85C143.14 104.21 142.98 100.37 138.83 98.15C134.61 95.9 108.68 83.6 100.65 81L100.06 82.6C104.56 84.56 112.22 87.52 116.44 89.77C120.59 91.98 120.25 95.32 120.37 96.97C121.03 105.74 121.03 123.26 121.03 142.74C121.03 146.26 120.69 147.7 117.92 149.3C113.46 151.88 101.67 144.28 100.27 143.38H100.07L100 189.89C99.9801 200.55 103.04 202.88 107.79 205.4C125.98 215.03 169.34 230.43 192.74 234.73C204.96 236.98 214.53 231.81 214.53 219.36" fill="#A03333"/>
<path d="M143.81 130.92C144.15 141.39 143.97 145.27 143.97 164.74Z" fill="#A03333"/>
<path d="M211.36 147.395C211.31 145.745 210.58 141.915 206.44 139.695C202.22 137.445 171.99 124.095 164.04 120.985C156.44 117.955 152 122.305 152 128.685L152.16 162.505C152.21 164.355 151.57 170.785 159.21 174.605C167.39 178.955 186.06 186.085 190.28 188.335C191.68 189.225 200.92 193.005 206.93 189.275C209.64 187.585 211.53 184.745 211.53 181.215C211.53 161.745 211.71 157.855 211.37 147.395H211.36ZM187.8 172.945C187.8 176.535 184.86 179.475 181.27 179.475C177.68 179.475 174.74 176.535 174.74 172.945V140.015C174.74 136.425 177.68 133.485 181.27 133.485C184.86 133.485 187.8 136.425 187.8 140.015V172.945Z" fill="#A03333"/>
</svg>
