<svg  viewBox="0 0 319 319" fill="none" xmlns="http://www.w3.org/2000/svg">
<rect width="318.05" height="318.05" rx="30" fill="#FDF1F3"/>
<path d="M180.81 236.077C175.76 230.927 170.7 225.797 165.66 220.637C162.34 217.237 159.01 213.847 155.74 210.397C152.28 206.737 153.09 197.667 156.83 191.147C158.54 188.157 159.23 184.647 159.41 180.617C153.2 186.647 146.02 188.697 139.11 184.967C132.64 181.477 127.1 176.187 121.77 171.107C110.93 160.777 113.51 148.537 113.51 134.637C113.51 129.497 113.01 121.457 113.01 114.717C113.01 109.397 113.21 102.797 108.91 98.577C104.39 94.147 91.27 93.267 87 88.587C91.76 82.767 96.23 81.137 104.04 81.137C132.93 81.137 160.52 80.927 188.78 81.027C198.08 81.057 209.98 81.057 218.81 81.137C225.33 81.197 225.75 81.487 231.12 86.047C232.95 87.597 222.34 100.967 217.78 99.007C212.1 96.567 200.72 97.477 194.84 97.477C184.21 97.477 176.58 96.387 172.83 102.627C166.52 113.097 171.31 112.567 171.31 127.587C173.83 126.347 176.24 125.137 178.67 123.977C185.77 120.607 193.17 121.667 198.58 126.937C202.6 130.857 206.66 134.757 210.42 138.887C220.99 150.477 216.96 163.187 211.11 174.457C204.76 186.687 206.81 195.797 217.59 204.217C217.01 204.587 216.43 204.957 215.85 205.337C209.77 198.977 204.31 191.917 197.45 186.437C186.61 177.777 192.6 169.947 196.64 161.137C199.53 154.847 201.03 147.877 202.3 141.067C202.99 137.337 194.88 134.827 190.69 137.897C185.77 141.497 181.49 145.907 176.99 150.037C171 155.537 171.57 162.377 172.29 169.467C173.26 179.017 174.16 188.637 173.98 198.207C173.91 202.187 171.04 206.137 169.35 210.067C167.79 213.667 164.84 216.427 170.43 220.367C175.42 223.887 178.37 230.017 182.21 234.997C181.74 235.367 181.28 235.737 180.81 236.107V236.077ZM157.54 97.417C152.26 97.417 147.02 97.607 141.81 97.367C135.88 97.087 133.26 100.437 129.93 104.537C125.35 110.177 130.48 114.467 130.32 119.357C129.82 134.237 129.32 149.127 129.11 164.007C129.07 166.757 130.4 169.517 131.09 172.267C134.24 171.337 138.35 171.267 140.35 169.287C144.39 165.277 148.03 160.547 150.48 155.527C153.46 149.407 157.42 142.437 156.75 136.257C155.35 123.377 153.72 110.787 157.54 97.417Z" fill="#720E1D"/>
</svg>
