<svg width="319" height="319" viewBox="0 0 319 319" fill="none" xmlns="http://www.w3.org/2000/svg">
<rect width="318.05" height="318.05" rx="30" fill="#FEF1F5"/>
<g filter="url(#filter0_d_305_150164)">
<path d="M107.17 150.121C95.83 150.121 91 159.791 91 168.611V190.371C91 233.321 157.68 241.081 157.68 198.301V121.281C158.67 80.1213 91.76 81.6413 91.76 120.031L105.95 120.091C105.95 99.2013 141.05 96.6113 140.96 121.281V198.301C140.96 216.831 107.47 217.211 107.47 190.371V175.521C107.47 168.611 112.95 165.281 119.41 165.281H190.57V218.061C190.57 241.331 227.67 245.501 227.67 214.401L213.01 214.301C213.38 223.321 207.16 222.141 207.16 218.051V103.461C207.16 74.9513 169.16 74.6913 169.3 103.611H184.37C184.37 97.2213 190.57 94.7013 190.57 103.461V150.111H107.17V150.121Z" fill="url(#paint0_linear_305_150164)"/>
</g>
<defs>
<filter id="filter0_d_305_150164" x="91" y="82" width="146.23" height="164.18" filterUnits="userSpaceOnUse" color-interpolation-filters="sRGB">
<feFlood flood-opacity="0" result="BackgroundImageFix"/>
<feColorMatrix in="SourceAlpha" type="matrix" values="0 0 0 0 0 0 0 0 0 0 0 0 0 0 0 0 0 0 127 0" result="hardAlpha"/>
<feOffset dx="4.78" dy="4.78"/>
<feGaussianBlur stdDeviation="2.39"/>
<feColorMatrix type="matrix" values="0 0 0 0 0.137255 0 0 0 0 0.121569 0 0 0 0 0.12549 0 0 0 0.2 0"/>
<feBlend mode="normal" in2="BackgroundImageFix" result="effect1_dropShadow_305_150164"/>
<feBlend mode="normal" in="SourceGraphic" in2="effect1_dropShadow_305_150164" result="shape"/>
</filter>
<linearGradient id="paint0_linear_305_150164" x1="91.01" y1="159.311" x2="227.68" y2="159.311" gradientUnits="userSpaceOnUse">
<stop stop-color="#DD1A21"/>
<stop offset="0.16" stop-color="#E93E3A"/>
<stop offset="0.52" stop-color="#ED683C"/>
<stop offset="0.74" stop-color="#EC3562"/>
<stop offset="1" stop-color="#EC008C"/>
</linearGradient>
</defs>
</svg>
