<svg width="319" height="319" viewBox="0 0 319 319" fill="none" xmlns="http://www.w3.org/2000/svg">
<rect width="318.05" height="318.05" rx="30" fill="#FEF1F2"/>
<path d="M220.01 82H84L97.35 99.74H115.42C131.08 104.46 142.77 115.72 146.36 122.26L146.39 122.43C124.82 129.19 107.38 140.27 107.38 156.16C108.3 167.88 114.68 176.88 119.62 185.39C144.51 223.34 193.09 198.88 173.91 157.54L165.37 140.24L165.34 140.03C172.5 138.92 180.23 138.34 188.3 138.34L188.76 138.4V210.08L208.55 236.37V99.74H233.37L220.01 82ZM121.47 176.07C117.54 158.87 132.56 147.17 157.52 141.87L157.57 141.95C174.4 178.47 130.37 186 121.47 176.07ZM188.75 115.18L188.53 115.15C178.12 115.15 165.6 116.84 153.33 120.14L139.91 99.74H188.75V115.18Z" fill="#BA141A"/>
</svg>
