<svg viewBox="0 0 319 319" fill="none" xmlns="http://www.w3.org/2000/svg">
<rect width="318.05" height="318.05" rx="30" fill="#F9F8F5"/>
<path d="M176.92 97.93L197.9 120.78C222.93 153.23 171.11 189.47 137.7 157.05C148.07 179.02 139.19 203.05 150.59 212.69C167.14 227.1 211.6 212.49 204.21 170.83L206.87 170.79C246.22 223.29 164.9 266.76 140.11 208.15C135.51 196.32 133.58 189.67 130.63 176.48C127.52 162.59 127.92 143.39 113.31 122.85H116.55C145.28 169.5 205.93 141.22 188.81 115.86C173.43 95.12 126.64 132.59 100 82L103.12 82.11C106.99 89.23 113.88 90.54 131.02 90.54C156.05 90.54 166.22 88.33 176.92 97.93Z" fill="#493C2B"/>
</svg>
