<svg viewBox="0 0 319 319" fill="none" xmlns="http://www.w3.org/2000/svg">
<rect width="318.05" height="318.05" rx="30" fill="#FFF0F6"/>
<path d="M180.218 126.73V82C189.628 88.34 197.908 93.44 205.558 99.36C207.948 101.21 209.428 105.12 209.938 108.31C210.848 114.09 210.648 120.04 211.038 125.91C211.898 138.86 212.868 149.86 225.728 159.7C244.848 174.33 247.888 199.45 236.078 215.7C230.588 223.26 222.788 229.35 215.258 235.09C213.028 236.79 207.248 236.41 204.708 234.65C196.648 229.09 189.338 222.44 181.608 216.1C189.288 210.47 197.688 205.32 204.868 198.81C214.138 190.4 217.598 167.68 211.408 157.61C209.738 154.9 205.288 152.69 201.928 152.41C182.378 150.76 169.238 160.74 167.898 181.57C167.778 183.49 167.618 185.41 167.478 187.41C147.338 182.13 140.678 174.06 137.848 153.99C137.478 151.36 132.688 147.56 129.778 147.41C118.588 146.82 109.708 156.88 108.628 169.17C106.478 193.73 121.898 207.4 139.368 220.01C144.498 223.71 149.318 227.83 154.278 231.76C153.628 232.66 152.978 233.56 152.338 234.45C146.108 229.83 139.658 225.48 133.688 220.54C117.458 207.13 98.5885 195.66 86.0085 179.37C68.6385 156.88 74.0385 134.77 100.958 126.44C109.428 123.82 121.728 129.71 130.898 134.4C138.748 138.41 145.648 146.65 153.238 140.43C159.658 135.18 169.078 128.99 180.228 126.73H180.218Z" fill="url(#paint0_linear_305_150452)"/>
<defs>
<linearGradient id="paint0_linear_305_150452" x1="159.518" y1="236.19" x2="159.518" y2="82" gradientUnits="userSpaceOnUse">
<stop stop-color="#FDE2E0"/>
<stop offset="0.05" stop-color="#F9BCC0"/>
<stop offset="0.1" stop-color="#F69AA3"/>
<stop offset="0.14" stop-color="#F3828F"/>
<stop offset="0.19" stop-color="#F27483"/>
<stop offset="0.22" stop-color="#F26F7F"/>
<stop offset="0.54" stop-color="#D7085F"/>
<stop offset="0.8" stop-color="#BA0052"/>
<stop offset="1" stop-color="#980041"/>
</linearGradient>
</defs>
</svg>
