<svg width="319" height="319" viewBox="0 0 319 319" fill="none" xmlns="http://www.w3.org/2000/svg">
<rect width="318.05" height="318.05" rx="30" fill="#F7F7F7"/>
<g opacity="0.8">
<path d="M203.953 82L219.003 95.67C204.043 110.15 197.663 139.42 209.393 162.66C227.683 198.91 210.543 226.44 189.803 236.57L177.793 220.51C191.973 213.67 212.083 192.93 195.203 157.34C187.493 141.09 178.983 114.3 203.953 82Z" fill="#010101"/>
<path d="M175.723 164.97C165.613 142 162.003 107.68 171.353 101.17L156.303 87.5C143.283 105.19 149.813 134.68 158.833 150.24C126.323 115.7 83.5428 152.05 104.603 182.34L123.623 206.22C146.813 229.02 193.333 204.96 175.733 164.96L175.723 164.97ZM157.943 189.65C147.433 202.18 126.593 202.11 116.703 192.98C109.803 186.62 110.783 165.34 124.493 157.93C135.033 152.23 146.563 148.97 160.183 156.23C167.343 166.91 164.863 181.4 157.943 189.65Z" fill="#010101"/>
</g>
</svg>
