<svg width="319" height="319" viewBox="0 0 319 319" fill="none" xmlns="http://www.w3.org/2000/svg">
<rect width="318.05" height="318.05" rx="30" fill="#F1FDFE"/>
<path d="M170.8 204.64L158.13 196.58C155.78 195.23 152.74 196.86 152.74 199.58V214.48C152.74 228.08 145.32 225.88 144.45 213.62V184.61C144.45 184.48 144.61 184.42 144.7 184.51C156.27 196.05 173.65 186.39 173.65 175.86V123.82C173.65 115.1 173.2 112.93 166.61 108.05L147.12 94.3002C146.15 93.4202 145.09 92.6602 143.93 92.0502L133.5 84.6902C128.86 81.4202 122.46 84.7402 122.46 90.4102V105.27C122.46 105.31 122.46 105.94 122.46 105.98C122.46 114.24 129.16 122.14 137.42 122.14C140.24 122.14 143.65 120.87 145.13 118.4L147.21 119.72C151.45 122.67 150.75 126.63 150.75 130.23V159.71C150.75 165.74 151.05 172.83 146.11 170.64L146.07 170.62L129.95 159.71C121.42 153.88 122.1 156.85 122.12 173.89V199.05C122.12 219.13 149.01 233.09 149.2 233.18C163.44 239.85 173.65 234.31 173.65 220.57V209.91C173.65 207.99 172.47 205.59 170.8 204.64Z" fill="#D1D3D4"/>
<path d="M152.75 83.21C148.79 83.21 146.57 88.29 149.79 90.58L166.62 102.15C179.34 111.23 178.41 113.27 178.41 131.73V223.84C178.41 239.69 198.27 239.69 198.27 223.84C198.27 223.84 198.83 117.59 198.83 116.12C198.83 107.3 197.19 102.89 190.6 96.8199C188.7 95.0699 183.29 90.4999 181.31 88.9699C175.74 84.6799 173.63 83.2 164.62 83.2H152.75V83.21Z" fill="#D1D3D4"/>
<path d="M168.7 203.44L156.03 195.38C153.68 194.03 150.64 195.66 150.64 198.38V213.28C150.64 226.88 143.22 224.68 142.35 212.42V183.41C142.35 183.28 142.51 183.22 142.6 183.31C154.17 194.85 171.55 185.19 171.55 174.66V122.62C171.55 113.9 171.1 111.73 164.51 106.85L145.02 93.0999C144.05 92.2199 142.99 91.4599 141.83 90.8499L131.4 83.49C126.76 80.22 120.36 83.54 120.36 89.21V104.07C120.36 104.11 120.36 104.74 120.36 104.78C120.36 113.04 127.06 120.94 135.32 120.94C138.14 120.94 141.55 119.67 143.03 117.2L145.11 118.52C149.35 121.47 148.65 125.43 148.65 129.03V158.51C148.65 164.54 148.95 171.63 144.01 169.44L143.97 169.42L127.85 158.51C119.32 152.68 120 155.65 120.02 172.69V197.85C120.02 217.93 146.91 231.89 147.1 231.98C161.34 238.65 171.55 233.11 171.55 219.37V208.71C171.55 206.79 170.37 204.39 168.7 203.44Z" fill="#0C999F"/>
<path d="M150.65 82.01C146.69 82.01 144.47 87.09 147.69 89.38L164.52 100.95C177.24 110.03 176.31 112.07 176.31 130.53V222.64C176.31 238.49 196.17 238.49 196.17 222.64C196.17 222.64 196.73 116.39 196.73 114.92C196.73 106.1 195.09 101.69 188.5 95.62C186.6 93.87 181.19 89.3 179.21 87.77C173.64 83.48 171.53 82 162.52 82H150.65V82.01Z" fill="#0C999F"/>
</svg>
