<svg width="319" height="319" viewBox="0 0 319 319" fill="none" xmlns="http://www.w3.org/2000/svg">
<rect width="318.05" height="318.05" rx="30" fill="#F6F5FA"/>
<path d="M212.61 82H95V85.88C95 91.14 99.31 95.45 104.57 95.45H108.2C111.74 95.45 114.6 98.32 114.6 101.85V158.57C116.02 196.46 163.45 198.3 183 187.41C185.4 186.07 188.36 187.76 188.36 190.51V236.71H193.22C199.12 236.71 203.95 231.88 203.95 225.98V95.45H222.18V91.57C222.18 86.31 217.87 82 212.61 82ZM127.02 155.42V144.68C127.02 131.41 143.53 125.29 152.18 135.36L182.82 171.01C169.84 183 127.02 183.27 127.02 155.42ZM163.42 130.87L131.6 95.45H188.37V121.31C188.37 134.43 172.19 140.63 163.42 130.87Z" fill="url(#paint0_linear_305_150461)"/>
<defs>
<linearGradient id="paint0_linear_305_150461" x1="88.19" y1="93.78" x2="233.49" y2="177.67" gradientUnits="userSpaceOnUse">
<stop stop-color="#446F9E"/>
<stop offset="0.26" stop-color="#4B4C94"/>
<stop offset="0.69" stop-color="#852B79"/>
<stop offset="1" stop-color="#C41D74"/>
</linearGradient>
</defs>
</svg>
