<svg width="319" height="319" viewBox="0 0 319 319" fill="none" xmlns="http://www.w3.org/2000/svg">
<rect width="318.05" height="318.05" rx="30" fill="#F8F7F7"/>
<path d="M145.455 139.65C135.085 106.39 196.095 125.84 169.135 82C173.485 112.01 117.815 88.09 142.705 140.6" fill="#231F20"/>
<path d="M205.756 197.25C202.606 222.99 178.176 240.52 152.846 234.81C144.956 233.05 137.666 228.9 132.096 223.11C137.766 228.81 145.096 232.8 152.936 234.41C177.786 239.57 201.456 222.25 204.106 197.04L205.756 197.26V197.25Z" fill="#231F20"/>
<path d="M204.475 179.26C205.725 185.11 206.265 191.18 205.755 197.25L204.105 197.04C205.135 191.23 205.175 185.21 204.475 179.27V179.26Z" fill="#231F20"/>
<path d="M132.086 223.1C110.236 197.03 123.756 167.51 143.736 157.35C167.986 145.02 198.546 148.32 179.936 114.43C181.456 130.03 163.636 133.99 142.696 140.6C118.856 148.12 93.0459 182.49 132.086 223.1Z" fill="#231F20"/>
</svg>
