<svg  viewBox="0 0 319 319" fill="none" xmlns="http://www.w3.org/2000/svg">
<rect width="318.05" height="318.05" rx="30" fill="#FCF3F5"/>
<path d="M200.62 109.27V235.58L187.41 217.98V131.81C187.41 134.73 179.82 139.45 172.24 138.35C216.27 199.97 104.56 252.96 99.5195 128.43H112.82C89.2795 212.52 191.86 190.05 165.91 139.23C160.99 135.51 157.5 135.16 151.78 134.9C149 136.75 132.77 140.2 122.38 134.52V133.26C135.65 133.26 153.28 121.31 152.24 107.59C152.17 106.68 152.02 105.75 151.78 104.83C143.4 99.2996 127.4 109.01 129.74 118.15L119.43 107.23C121.49 92.4 137.24 86.5996 147.6 95.8296L159.07 106.84L160.86 108.56C166.35 114.3 163.05 124.02 159.6 125.65C177.76 125.05 187.42 113.04 187.42 107.23V99.5596H172.88L162.13 85.23H200.63L220.28 99.5596H200.63V109.28L200.62 109.27Z" fill="#E6E7E8"/>
<path d="M199.61 107.91V234.22L186.4 216.62V130.45C186.4 133.37 178.81 138.09 171.23 136.99C215.26 198.61 103.55 251.6 98.5098 127.07H111.81C88.2698 211.16 190.85 188.69 164.9 137.87C159.98 134.15 156.49 133.8 150.77 133.54C147.99 135.39 131.76 138.84 121.37 133.16V131.9C134.64 131.9 152.27 119.95 151.23 106.23C151.16 105.32 151.01 104.39 150.77 103.47C142.39 97.9397 126.39 107.65 128.73 116.79L118.42 105.87C120.48 91.0396 136.23 85.2397 146.59 94.4697L158.06 105.48L159.85 107.2C165.34 112.94 162.04 122.66 158.59 124.29C176.75 123.69 186.41 111.68 186.41 105.87V98.1997H171.87L161.12 83.8696H199.62L219.27 98.1997H199.62V107.92L199.61 107.91Z" fill="#D1D3D4"/>
<path d="M198.1 106.04V232.35L184.89 214.75V128.58C184.89 131.5 177.3 136.22 169.72 135.12C213.75 196.74 102.04 249.73 97 125.2H110.3C86.76 209.29 189.34 186.82 163.39 136C158.47 132.28 154.98 131.93 149.26 131.67C146.48 133.52 130.25 136.97 119.86 131.29V130.03C133.13 130.03 150.76 118.08 149.72 104.36C149.65 103.45 149.5 102.52 149.26 101.6C140.88 96.0696 124.88 105.78 127.22 114.92L116.91 104C118.97 89.17 134.72 83.3696 145.08 92.5996L156.55 103.61L158.34 105.33C163.83 111.07 160.53 120.79 157.08 122.42C175.24 121.82 184.9 109.81 184.9 104V96.3296H170.36L159.61 82H198.11L217.76 96.3296H198.11V106.05L198.1 106.04Z" fill="url(#paint0_linear_305_150462)"/>
<defs>
<linearGradient id="paint0_linear_305_150462" x1="115.42" y1="188.16" x2="231.94" y2="120.89" gradientUnits="userSpaceOnUse">
<stop offset="0.14" stop-color="#5D2578"/>
<stop offset="0.16" stop-color="#602576"/>
<stop offset="0.59" stop-color="#C52D43"/>
<stop offset="0.78" stop-color="#EE3130"/>
</linearGradient>
</defs>
</svg>
