<svg width="319" height="319" viewBox="0 0 319 319" fill="none" xmlns="http://www.w3.org/2000/svg">
<rect x="0.0996094" width="318.05" height="318.05" rx="30" fill="#F4F6FB"/>
<path d="M169.671 82V95.3999" stroke="#587ABC" stroke-width="2.9" stroke-miterlimit="10" stroke-linecap="square"/>
<path d="M150.19 142.13C171.83 142.13 189.38 159.68 189.38 181.32C189.38 202.96 171.83 220.51 150.19 220.51C128.55 220.51 111 202.96 111 181.32" stroke="#F4C328" stroke-width="2.9" stroke-miterlimit="10"/>
<path d="M111 179C111 170.2 118.13 163.07 126.93 163.07C135.73 163.07 142.86 170.2 142.86 179" stroke="#587ABC" stroke-width="2.9" stroke-miterlimit="10"/>
<path d="M142.851 181.32V201.16" stroke="#39B65C" stroke-width="2.9" stroke-miterlimit="10"/>
<path d="M147.871 142.13C134.971 142.13 124.511 131.67 124.511 118.77C124.511 105.87 134.971 95.4102 147.871 95.4102" stroke="#39B65C" stroke-width="2.9" stroke-miterlimit="10"/>
<path d="M150.19 95.3999H166.23" stroke="#E11E3D" stroke-width="2.9" stroke-miterlimit="10"/>
<path d="M207.801 203.48C207.801 221.42 193.261 235.96 175.321 235.96C157.381 235.96 142.841 221.42 142.841 203.48" stroke="#E11E3D" stroke-width="2.9" stroke-miterlimit="10"/>
</svg>
