<svg width="319" height="319" viewBox="0 0 319 319" fill="none" xmlns="http://www.w3.org/2000/svg">
<rect y="0.0500488" width="318.05" height="318.05" rx="30" fill="#FEF0F8"/>
<path d="M187.84 250H146.99C137.42 250 129.6 246.93 129.01 237.51V233.13V203.99" stroke="url(#paint0_linear_305_150467)" stroke-width="0.63" stroke-miterlimit="10"/>
<path d="M129 155.39C132.06 156.89 135.5 157.72 139.14 157.72H178.6C191.37 157.72 201.73 168.07 201.73 180.85C201.73 190.29 196.07 198.42 187.95 202.01L187.8 201.68C187.82 201.41 187.83 201.15 187.83 200.88C187.83 195.78 183.69 191.64 178.59 191.64H138.2H139.13C126.36 191.64 116 181.29 116 168.51V134.6" fill="url(#paint1_linear_305_150467)"/>
<path d="M189.81 100.01C197.02 104.19 201.72 112.26 201.72 121.2C201.72 134.2 191.46 144.8 178.59 145.33V145.35H138.2C133.1 145.35 128.96 149.49 128.96 154.59C128.96 154.86 128.97 155.13 128.99 155.39C121.3 151.63 116 143.73 116 134.6C116 121.83 126.35 111.47 139.13 111.47H138.2H178.92C189.66 111.47 191.15 108.24 191.15 104.25C191.15 102.76 190.27 101.69 189.49 100.53" fill="url(#paint2_linear_305_150467)"/>
<path d="M178.6 97.0601H121.3" stroke="url(#paint3_linear_305_150467)" stroke-width="0.63" stroke-miterlimit="10"/>
<path d="M189.66 100.28C186.38 98.3803 182.62 97.2301 178.6 97.0601" stroke="#D41E8E" stroke-width="0.64" stroke-miterlimit="10"/>
<path d="M201.83 180.81C201.83 190.3 196.12 198.45 187.94 202.02C185.08 203.29 181.92 203.99 178.59 203.99H129C121.83 203.99 116.01 202.4 116.01 195.23V215.31V213.63C116.01 226.4 126.36 236.76 139.14 236.76H138.21H178.6C191.37 236.76 201.73 226.41 201.73 213.63V179.72" fill="url(#paint4_linear_305_150467)"/>
<path d="M194.72 68C198.94 70.44 201.68 75.1601 201.68 80.3901C201.68 87.9901 195.68 91.1302 188.16 91.4502L164.54 91.46C161.56 91.46 159.14 93.8804 159.14 96.8604C159.14 97.0204 159.14 97.1801 159.16 97.3301C154.66 95.1301 151.56 90.5099 151.56 85.1699C151.56 77.6999 157.62 74.7002 165.08 74.7002H164.53H188.34C194.62 74.7002 195.49 72.81 195.49 70.48C195.49 69.61 194.98 68.9801 194.52 68.3101" fill="url(#paint5_linear_305_150467)"/>
<path d="M116.01 195.22C116.01 202.39 121.83 203.98 129 203.98V195.22C129 191.63 126.09 188.73 122.51 188.73C118.93 188.73 116.02 191.64 116.02 195.22H116.01Z" fill="url(#paint6_linear_305_150467)"/>
<defs>
<linearGradient id="paint0_linear_305_150467" x1="128.69" y1="227.15" x2="187.84" y2="227.15" gradientUnits="userSpaceOnUse">
<stop stop-color="#2E0E5C"/>
<stop offset="0.03" stop-color="#341566"/>
<stop offset="0.07" stop-color="#3D1F73"/>
<stop offset="0.12" stop-color="#402378"/>
<stop offset="0.91" stop-color="#ED0677"/>
</linearGradient>
<linearGradient id="paint1_linear_305_150467" x1="201.72" y1="168.31" x2="116.01" y2="168.31" gradientUnits="userSpaceOnUse">
<stop stop-color="#2E0E5C"/>
<stop offset="0.02" stop-color="#341566"/>
<stop offset="0.05" stop-color="#3D1F73"/>
<stop offset="0.08" stop-color="#402378"/>
<stop offset="0.22" stop-color="#5E1D77"/>
<stop offset="0.69" stop-color="#C40C77"/>
<stop offset="0.9" stop-color="#ED0677"/>
</linearGradient>
<linearGradient id="paint2_linear_305_150467" x1="116.01" y1="127.7" x2="201.72" y2="127.7" gradientUnits="userSpaceOnUse">
<stop stop-color="#2E0E5C"/>
<stop offset="0.03" stop-color="#341566"/>
<stop offset="0.07" stop-color="#3D1F73"/>
<stop offset="0.12" stop-color="#402378"/>
<stop offset="0.91" stop-color="#ED0677"/>
</linearGradient>
<linearGradient id="paint3_linear_305_150467" x1="nan" y1="nan" x2="nan" y2="nan" gradientUnits="userSpaceOnUse">
<stop stop-color="#2E0E5C"/>
<stop offset="0.03" stop-color="#341566"/>
<stop offset="0.07" stop-color="#3D1F73"/>
<stop offset="0.12" stop-color="#402378"/>
<stop offset="0.91" stop-color="#ED0677"/>
</linearGradient>
<linearGradient id="paint4_linear_305_150467" x1="116.01" y1="208.23" x2="201.83" y2="208.23" gradientUnits="userSpaceOnUse">
<stop stop-color="#2E0E5C"/>
<stop offset="0.03" stop-color="#341566"/>
<stop offset="0.07" stop-color="#3D1F73"/>
<stop offset="0.12" stop-color="#402378"/>
<stop offset="1" stop-color="#ED0677"/>
</linearGradient>
<linearGradient id="paint5_linear_305_150467" x1="151.56" y1="82.67" x2="201.68" y2="82.67" gradientUnits="userSpaceOnUse">
<stop stop-color="#2E0E5C"/>
<stop offset="0.03" stop-color="#341566"/>
<stop offset="0.07" stop-color="#3D1F73"/>
<stop offset="0.12" stop-color="#402378"/>
<stop offset="0.91" stop-color="#ED0677"/>
</linearGradient>
<linearGradient id="paint6_linear_305_150467" x1="116.01" y1="196.35" x2="129" y2="196.35" gradientUnits="userSpaceOnUse">
<stop stop-color="#2E0E5C"/>
<stop offset="0.06" stop-color="#341566"/>
<stop offset="0.18" stop-color="#3D1F73"/>
<stop offset="0.28" stop-color="#402378"/>
<stop offset="0.36" stop-color="#482177"/>
<stop offset="0.49" stop-color="#611D77"/>
<stop offset="0.66" stop-color="#891677"/>
<stop offset="0.86" stop-color="#BF0D77"/>
<stop offset="1" stop-color="#ED0677"/>
</linearGradient>
</defs>
</svg>
