<svg  viewBox="0 0 319 319" fill="none" xmlns="http://www.w3.org/2000/svg">
<rect x="0.0498047" y="0.0500488" width="318.05" height="318.05" rx="30" fill="#F7F7F7"/>
<g filter="url(#filter0_d_305_150471)">
<path d="M154.98 95.6602C162.16 95.6602 165.8 97.94 167.97 103L188.87 163.88C189.98 166.67 189.48 169.46 187.64 171.63L187.6 171.5L203.64 218.21C206.85 226.98 206.37 237.09 194.97 236.67H163.62C153.75 236.67 148.71 230.61 145.76 223.62L120.73 165.21L124.36 163.62L137.41 192.8C140.36 199.78 145.4 205.85 155.27 205.85H177.91C190.55 206.2 191.51 195.25 188.2 186.68L188.29 186.94L183.97 174.35V174.33C181.98 175.23 179.51 175.77 176.63 175.77H151.51L138.19 144.7H167.68C169.99 144.7 172.26 143.8 173.78 142.05C178.91 136.15 171.83 126.73 164.29 126.73H141.72C133.3 126.73 128.42 122.89 126.49 117.41L112 83.5903L115.63 82L119.84 90.5601C121.65 94.3301 124.9 95.6699 131.14 95.6699H154.98V95.6602Z" fill="#414042"/>
</g>
<defs>
<filter id="filter0_d_305_150471" x="112" y="82" width="95.1525" height="156.483" filterUnits="userSpaceOnUse" color-interpolation-filters="sRGB">
<feFlood flood-opacity="0" result="BackgroundImageFix"/>
<feColorMatrix in="SourceAlpha" type="matrix" values="0 0 0 0 0 0 0 0 0 0 0 0 0 0 0 0 0 0 127 0" result="hardAlpha"/>
<feOffset dx="1.8" dy="1.8"/>
<feColorMatrix type="matrix" values="0 0 0 0 0.137255 0 0 0 0 0.121569 0 0 0 0 0.12549 0 0 0 0.2 0"/>
<feBlend mode="normal" in2="BackgroundImageFix" result="effect1_dropShadow_305_150471"/>
<feBlend mode="normal" in="SourceGraphic" in2="effect1_dropShadow_305_150471" result="shape"/>
</filter>
</defs>
</svg>
