<svg width="319" height="319" viewBox="0 0 319 319" fill="none" xmlns="http://www.w3.org/2000/svg">
<rect width="318.05" height="318.05" rx="30" fill="#FEFAF1"/>
<g opacity="0.9">
<path d="M211.11 103.32V236.71L189.6 215.37V103.32H102.66H242.9L221 85.78H80.7695L102.66 103.32" fill="#DF2426"/>
<path d="M189.599 193.89V168.12C181.139 180.59 136.079 179.96 133.559 174.8C131.779 171.16 128.859 150.12 144.399 148.9H174.099L152.849 130.04L133.569 129.98V103.31H112.449V117.9C112.449 120.31 113.489 122.6 115.289 124.19L126.579 134.12C114.129 130.01 106.169 153.8 116.749 165.62L140.279 188.82C149.779 197.95 185.649 195.76 189.609 193.89H189.599Z" fill="#DF2426"/>
</g>
<g opacity="0.7">
<path d="M206.34 99.54V232.24L184.83 210.9V99.54H95.82H238.13L216.23 82H76L97.89 99.54" fill="#F3EA24"/>
<path d="M185.33 190.11V164.34C176.87 176.81 131.81 176.18 129.29 171.02C127.51 167.38 124.59 146.34 140.13 145.12H169.83L148.58 126.26L129.3 126.2V99.53H108.18V114.12C108.18 116.53 109.22 118.82 111.02 120.41L122.31 130.34C109.86 126.23 101.9 150.02 112.48 161.84L136.01 185.04C145.51 194.17 181.38 191.98 185.34 190.11H185.33Z" fill="#F3EA24"/>
</g>
</svg>
