<svg width="319" height="319" viewBox="0 0 319 319" fill="none" xmlns="http://www.w3.org/2000/svg">
<rect y="0.100098" width="318.05" height="318.05" rx="30" fill="#FFFCF0"/>
<path d="M123.823 98.0002L124.766 102.4L196.352 87.0667L195.409 82.6665L123.823 98.0002Z" fill="#243E90"/>
<path d="M137.175 184.171H132.655V107.341L137.175 106.411V184.171Z" fill="#243E90"/>
<path d="M132.646 188.621C133.336 188.591 134.015 188.581 134.715 188.581C161.395 188.621 182.986 210.241 183.026 236.901L187.526 235.671C187.576 206.561 164.015 184.171 134.905 184.121C134.155 184.121 133.405 183.511 132.655 183.541" fill="#243E90"/>
<path d="M187.776 135.691H183.256V94.6909L187.776 93.771V135.691Z" fill="#243E90"/>
<path d="M187.775 135.701H183.255V135.541C183.255 156.061 167.245 172.691 146.725 172.691L146.105 177.211C169.115 177.211 187.775 158.561 187.775 135.541" fill="#243E90"/>
<path d="M121 97.3337L121.942 101.734L193.529 86.4002L192.586 82L121 97.3337Z" fill="#FFCD05"/>
<path d="M134.346 183.511H129.826V106.691L134.346 105.751V183.511Z" fill="#FFCD05"/>
<path d="M129.815 187.971C130.505 187.941 131.185 187.931 131.885 187.931C158.565 187.971 180.155 209.591 180.195 236.251L184.695 235.021C184.745 205.911 161.185 183.521 132.075 183.471C131.325 183.471 130.575 182.861 129.825 182.891" fill="#FFCD05"/>
<path d="M184.946 135.031H180.426V94.041L184.946 93.1108V135.031Z" fill="#FFCD05"/>
<path d="M184.945 135.041H180.425V134.881C180.425 155.401 164.415 172.031 143.895 172.031L143.275 176.551C166.285 176.551 184.945 157.901 184.945 134.881" fill="#FFCD05"/>
</svg>
