<svg width="319" height="319" viewBox="0 0 319 319" fill="none" xmlns="http://www.w3.org/2000/svg">
<rect x="0.0498047" y="0.100098" width="318.05" height="318.05" rx="30" fill="#F7F7F7"/>
<path d="M112 98.3896H206.24" stroke="#414042" stroke-width="1.45" stroke-miterlimit="10"/>
<path d="M153.04 218.54L130.38 201.81V102.55L153.04 119.28V218.54Z" fill="#414042" stroke="#414042" stroke-width="0.88" stroke-miterlimit="10"/>
<path d="M152 217.9L192.42 247.73" stroke="#414042" stroke-width="0.88" stroke-miterlimit="10"/>
<path d="M190.88 222.06L168.22 205.33V102.55L190.88 119.28V222.06Z" fill="#414042" stroke="#414042" stroke-width="0.88" stroke-miterlimit="10"/>
<path d="M190.88 222.6L181.99 233.59L160.06 217.58L168.22 205.33" fill="#414042"/>
<path d="M190.88 222.6L181.99 233.59L160.06 217.58L168.22 205.33" stroke="#414042" stroke-width="0.88" stroke-miterlimit="10"/>
<path d="M170.34 83.0698L191.09 98.3896" stroke="#414042" stroke-width="1.37" stroke-miterlimit="10"/>
<path d="M170.39 83H130.38L112.91 70H152.64L170.34 83.0698" fill="#414042"/>
<path d="M170.39 83H130.38L112.91 70H152.64L170.34 83.0698" stroke="#414042" stroke-width="1.37" stroke-miterlimit="10"/>
</svg>
