<svg width="319" height="319" viewBox="0 0 319 319" fill="none" xmlns="http://www.w3.org/2000/svg">
<rect x="0.0996094" y="0.100098" width="318.05" height="318.05" rx="30" fill="#F7F7F7"/>
<path d="M154.46 176.05L135.92 224.94H65L73.65 202.13H119.5L129.39 176.05H83.54L90.9 156.66L91.01 156.7H136.73L146.72 130.34H100.8L109.45 107.52H180.45L161.8 156.7H175.38L193.96 107.73H219.03L174.5 225.15H149.42L168.04 176.05H154.46Z" fill="#414042"/>
<path d="M162.81 72H240.2L253.75 107.73L209.3 224.94H184.23L228.68 107.73L223.86 94.8101H154.16L162.81 72Z" fill="#414042"/>
<path d="M65.5898 233.69L116.92 98.3496" stroke="white" stroke-width="1.51" stroke-miterlimit="10"/>
<path d="M71.29 234L122.61 98.6699" stroke="white" stroke-width="2.26" stroke-miterlimit="10"/>
</svg>
