<svg width="319" height="319" viewBox="0 0 319 319" fill="none" xmlns="http://www.w3.org/2000/svg">
<rect y="0.149902" width="318.05" height="318.05" rx="30" fill="#F4F6FB"/>
<path d="M214 116.457H170.98C168.213 116.457 165.97 118.7 165.97 121.467C165.97 124.234 168.213 126.477 170.98 126.477H214C216.767 126.477 219.01 124.234 219.01 121.467C219.01 118.7 216.767 116.457 214 116.457Z" fill="#E72D92"/>
<path d="M208.03 239.777V127.007C208.03 124.157 205.72 121.847 202.871 121.847H202.581C199.731 121.847 197.42 124.157 197.42 127.007V239.777C197.42 242.626 199.731 244.937 202.581 244.937H202.871C205.72 244.937 208.03 242.626 208.03 239.777Z" fill="#E72D92"/>
<path d="M187.56 239.777V127.007C187.56 124.157 185.25 121.847 182.4 121.847H182.11C179.26 121.847 176.95 124.157 176.95 127.007V239.777C176.95 242.626 179.26 244.937 182.11 244.937H182.4C185.25 244.937 187.56 242.626 187.56 239.777Z" fill="#E72D92"/>
<path d="M177.32 121.887L152.64 81.5168C151.18 79.1168 152.04 76.0569 154.58 74.6769C157.12 73.2969 160.36 74.117 161.83 76.507L186.51 116.877C187.97 119.277 187.11 122.337 184.57 123.717C182.03 125.097 178.79 124.277 177.32 121.887Z" fill="#E72D92"/>
<path d="M197.41 121.887L172.73 81.5168C171.27 79.1168 172.13 76.0569 174.67 74.6769C177.21 73.2969 180.45 74.117 181.92 76.507L206.6 116.877C208.06 119.277 207.2 122.337 204.66 123.717C202.12 125.097 198.88 124.277 197.41 121.887Z" fill="#E72D92"/>
<path d="M156.46 234.777V194.137C156.46 191.287 154.15 188.977 151.3 188.977H151.01C148.16 188.977 145.85 191.287 145.85 194.137V234.777C145.85 237.626 148.16 239.937 151.01 239.937H151.3C154.15 239.937 156.46 237.626 156.46 234.777Z" fill="#E72D92"/>
<path d="M112.85 234.057V212.307C112.85 209.457 110.54 207.147 107.69 207.147H107.4C104.55 207.147 102.24 209.457 102.24 212.307V234.057C102.24 236.907 104.55 239.217 107.4 239.217H107.69C110.54 239.217 112.85 236.907 112.85 234.057Z" fill="#E72D92"/>
<path d="M112.851 143.367V126.627C112.851 123.777 110.54 121.467 107.69 121.467H107.4C104.551 121.467 102.241 123.777 102.241 126.627V143.367C102.241 146.217 104.551 148.527 107.4 148.527H107.69C110.54 148.527 112.851 146.217 112.851 143.367Z" fill="#E72D92"/>
<path d="M156.471 172.637V126.627C156.471 123.777 154.16 121.467 151.311 121.467H151.021C148.171 121.467 145.861 123.777 145.861 126.627V172.637C145.861 175.487 148.171 177.797 151.021 177.797H151.311C154.16 177.797 156.471 175.487 156.471 172.637Z" fill="#E72D92"/>
<path d="M156.45 193.977C156.45 188.457 151.71 183.977 145.87 183.977V193.977H156.45Z" fill="#E72D92"/>
<path d="M156.45 234.937C156.45 240.457 151.71 244.937 145.87 244.937V234.937H156.45Z" fill="#E72D92"/>
<path d="M156.45 173.377C156.45 178.897 151.71 183.377 145.87 183.377V173.377H156.45Z" fill="#E72D92"/>
<path d="M102.26 234.937C102.26 240.457 107 244.937 112.84 244.937V234.937H102.26Z" fill="#E72D92"/>
<path d="M112.96 244.947H146.16C148.927 244.947 151.17 242.704 151.17 239.937C151.17 237.17 148.927 234.927 146.16 234.927H112.96C110.193 234.927 107.95 237.17 107.95 239.937C107.95 242.704 110.193 244.947 112.96 244.947Z" fill="#E72D92"/>
<path d="M156.45 173.377C156.45 178.897 161.19 183.377 167.03 183.377V173.377H156.45Z" fill="#E72D92"/>
<path d="M167.15 183.387H176.9C179.667 183.387 181.91 181.143 181.91 178.376C181.91 175.61 179.667 173.367 176.9 173.367H167.15C164.383 173.367 162.14 175.61 162.14 178.376C162.14 181.143 164.383 183.387 167.15 183.387Z" fill="#E72D92"/>
<path d="M117.86 183.387H146.15C148.917 183.387 151.16 181.143 151.16 178.376C151.16 175.61 148.917 173.367 146.15 173.367H117.86C115.093 173.367 112.85 175.61 112.85 178.376C112.85 181.143 115.093 183.387 117.86 183.387Z" fill="#E72D92"/>
<path d="M112.56 126.477H146.15C148.917 126.477 151.16 124.234 151.16 121.467C151.16 118.7 148.917 116.457 146.15 116.457H112.56C109.793 116.457 107.55 118.7 107.55 121.467C107.55 124.234 109.793 126.477 112.56 126.477Z" fill="#E72D92"/>
<path d="M156.45 126.467C156.45 120.947 151.71 116.467 145.87 116.467V126.467H156.45Z" fill="#E72D92"/>
<path d="M102.26 126.467C102.26 120.947 107 116.467 112.84 116.467V126.467H102.26Z" fill="#E72D92"/>
<path d="M210.77 116.477H203.11L178.69 76.5166C177.23 74.1166 173.98 73.2965 171.44 74.6865C168.9 76.0665 168.03 79.1368 169.5 81.5268L190.86 116.467H183.01L158.59 76.5068C157.13 74.1068 153.88 73.2867 151.34 74.6767C148.8 76.0567 147.93 79.1266 149.4 81.5166L170.76 116.456H167.74C164.97 116.456 162.73 118.697 162.73 121.467C162.73 124.237 164.97 126.477 167.74 126.477H173.74C173.72 126.647 173.71 126.817 173.71 126.997V173.367C173.71 173.367 173.67 173.367 173.65 173.367H163.9C163.82 173.367 163.74 173.367 163.66 173.377H153.2C153.2 178.757 157.7 183.127 163.33 183.357C163.52 183.377 163.7 183.387 163.89 183.387H173.64C173.64 183.387 173.68 183.387 173.7 183.387V239.777C173.7 242.627 176.01 244.936 178.86 244.936H179.16C182.01 244.936 184.32 242.627 184.32 239.777V126.997C184.32 126.817 184.32 126.647 184.29 126.477H194.2C194.18 126.647 194.17 126.817 194.17 126.997V239.777C194.17 242.627 196.48 244.936 199.33 244.936H199.63C202.48 244.936 204.79 242.627 204.79 239.777V126.997C204.79 126.817 204.79 126.647 204.76 126.477H210.76C213.53 126.477 215.77 124.237 215.77 121.467C215.77 118.697 213.53 116.456 210.76 116.456L210.77 116.477Z" fill="url(#paint0_linear_305_150468)"/>
<path d="M153.23 172.657V126.637C153.23 126.437 153.22 126.247 153.19 126.047C152.96 121.047 148.87 117.007 143.65 116.527C143.41 116.487 143.16 116.467 142.91 116.467H109.32C109.07 116.467 108.82 116.487 108.58 116.527C103.37 116.997 99.27 121.047 99.04 126.047C99.02 126.237 99 126.437 99 126.637V143.387C99 146.237 101.31 148.547 104.16 148.547H104.46C107.31 148.547 109.62 146.237 109.62 143.387V126.637C109.62 126.637 109.62 126.537 109.62 126.497H142.64C142.64 126.497 142.64 126.597 142.64 126.637V172.657C142.64 172.907 142.66 173.147 142.7 173.377H114.65C111.88 173.377 109.64 175.617 109.64 178.387C109.64 181.157 111.88 183.397 114.65 183.397H142.93C143.18 183.397 143.43 183.377 143.67 183.337C149.03 182.847 153.23 178.587 153.23 173.387H153.18C153.21 173.147 153.24 172.897 153.24 172.647L153.23 172.657Z" fill="url(#paint1_linear_305_150468)"/>
<path d="M142.64 183.997V193.897C142.64 193.977 142.63 194.067 142.63 194.147V234.797C142.63 234.797 142.63 234.897 142.63 234.937H109.72C109.66 234.937 109.6 234.937 109.54 234.937C109.59 234.647 109.62 234.357 109.62 234.057V212.297C109.62 209.447 107.31 207.137 104.46 207.137H104.16C101.31 207.137 99 209.447 99 212.297V234.057C99 234.357 99.03 234.647 99.08 234.937H99.01C99.01 240.317 103.51 244.687 109.14 244.917C109.32 244.937 109.51 244.947 109.7 244.947H142.9C143.15 244.947 143.4 244.927 143.64 244.887C148.85 244.417 152.95 240.367 153.18 235.367C153.2 235.177 153.22 234.977 153.22 234.777V194.127C153.22 193.927 153.21 193.737 153.18 193.537C152.94 188.217 148.31 183.967 142.62 183.967L142.64 183.997Z" fill="url(#paint2_linear_305_150468)"/>
<defs>
<linearGradient id="paint0_linear_305_150468" x1="148.7" y1="159.487" x2="215.78" y2="159.487" gradientUnits="userSpaceOnUse">
<stop stop-color="#009DDA" stop-opacity="0.9"/>
<stop offset="0.11" stop-color="#019CD9" stop-opacity="0.87"/>
<stop offset="0.26" stop-color="#0499D7" stop-opacity="0.79"/>
<stop offset="0.43" stop-color="#0996D4" stop-opacity="0.66"/>
<stop offset="0.62" stop-color="#1191D0" stop-opacity="0.47"/>
<stop offset="0.82" stop-color="#1A8ACB" stop-opacity="0.23"/>
<stop offset="1" stop-color="#2484C6" stop-opacity="0"/>
</linearGradient>
<linearGradient id="paint1_linear_305_150468" x1="99.02" y1="149.937" x2="153.23" y2="149.937" gradientUnits="userSpaceOnUse">
<stop stop-color="#009DDA" stop-opacity="0.9"/>
<stop offset="0.11" stop-color="#019CD9" stop-opacity="0.87"/>
<stop offset="0.26" stop-color="#0499D7" stop-opacity="0.79"/>
<stop offset="0.43" stop-color="#0996D4" stop-opacity="0.66"/>
<stop offset="0.62" stop-color="#1191D0" stop-opacity="0.47"/>
<stop offset="0.82" stop-color="#1A8ACB" stop-opacity="0.23"/>
<stop offset="1" stop-color="#2484C6" stop-opacity="0"/>
</linearGradient>
<linearGradient id="paint2_linear_305_150468" x1="99.02" y1="214.477" x2="153.23" y2="214.477" gradientUnits="userSpaceOnUse">
<stop stop-color="#009DDA" stop-opacity="0.9"/>
<stop offset="0.11" stop-color="#019CD9" stop-opacity="0.87"/>
<stop offset="0.26" stop-color="#0499D7" stop-opacity="0.79"/>
<stop offset="0.43" stop-color="#0996D4" stop-opacity="0.66"/>
<stop offset="0.62" stop-color="#1191D0" stop-opacity="0.47"/>
<stop offset="0.82" stop-color="#1A8ACB" stop-opacity="0.23"/>
<stop offset="1" stop-color="#2484C6" stop-opacity="0"/>
</linearGradient>
</defs>
</svg>
