<svg  viewBox="0 0 319 319" fill="none" xmlns="http://www.w3.org/2000/svg">
<rect x="0.0498047" y="0.149902" width="318.05" height="318.05" rx="30" fill="#F4F5FB"/>
<path opacity="0.3" d="M165.43 208C165.43 222.94 156.97 230.66 146.49 230.66H121.12C105.11 230.66 91.12 216.46 91.12 200.39H91V175.06L116.44 194.14V207.6H136.53C138.51 207.6 140.11 206 140.11 204.02V182.34L116.45 164.59V158.49H136.55C138.53 158.49 140.13 156.89 140.13 154.91V129.36H120.03C118.05 129.36 116.45 130.96 116.45 132.94V148.45L91.01 129.37V125.65C91.01 115.18 99.48 106.71 109.95 106.71H133.55C149.56 106.71 165.31 120.91 165.31 136.98V160.56C165.31 167.37 161.26 170.73 160.11 170.72H183.36V129.37L161.3 111.04V106.71H205.6H205.46L227.54 125.04V129.37H208.81V249.75L183.37 230.67V194.16H165.32L165.44 208.01L165.43 208Z" fill="#48C5DE"/>
<path opacity="0.3" d="M207.641 84.5498L185.581 68L163.511 84.5498L185.581 101.1L207.641 84.5498Z" fill="#48C5DE"/>
<path opacity="0.5" d="M165.13 205.43C165.13 219.64 157.09 226.98 147.12 226.98H122.99C107.76 226.98 94.4601 213.47 94.4601 198.19H94.3401V174.1L118.54 192.25V205.05H137.64C139.52 205.05 141.04 203.53 141.04 201.65V181.03L118.53 164.15V158.35H137.65C139.53 158.35 141.05 156.83 141.05 154.95V130.65H121.93C120.05 130.65 118.53 132.17 118.53 134.05V148.8L94.3301 130.65V127.11C94.3301 117.16 102.39 109.1 112.34 109.1H134.79C150.02 109.1 165 122.61 165 137.89V160.32C165 166.8 161.15 169.99 160.06 169.98H182.17V130.65L161.19 113.22V109.1H203.32H203.19L224.19 126.53V130.65H206.37V245.14L182.17 226.99V192.26H165L165.12 205.43H165.13Z" fill="#3A93D0"/>
<path opacity="0.5" d="M204.261 84.5498L185.581 70.5298L166.891 84.5498L185.581 98.5601L204.261 84.5498Z" fill="#3A93D0"/>
<path opacity="0.7" d="M164.77 202.37C164.77 215.71 157.22 222.6 147.87 222.6H125.22C110.93 222.6 98.4401 209.92 98.4401 195.58H98.3301V172.97L121.04 190.01V202.03H138.97C140.74 202.03 142.17 200.6 142.17 198.83V179.47L121.04 163.62V158.17H138.98C140.75 158.17 142.18 156.74 142.18 154.97V132.16H124.24C122.47 132.16 121.04 133.59 121.04 135.36V149.2L98.3301 132.16V128.84C98.3301 119.5 105.89 111.94 115.23 111.94H136.3C150.59 111.94 164.65 124.62 164.65 138.96V160.01C164.65 166.09 161.03 169.09 160.01 169.08H180.76V132.16L161.06 115.8V111.93H200.6H200.48L220.19 128.29V132.16H203.47V239.63L180.76 222.59C180.76 222.59 180.76 189.99 180.76 190H164.65L164.76 202.37H164.77Z" fill="#3D77BC"/>
<path opacity="0.7" d="M199.86 84.5498L185.58 73.8301L171.29 84.5498L185.58 95.27L199.86 84.5498Z" fill="#3D77BC"/>
<path d="M164.391 199.09C164.391 211.5 157.371 217.91 148.671 217.91H127.611C114.321 217.91 102.701 206.12 102.701 192.78H102.601V171.75L123.721 187.6V198.78H140.401C142.041 198.78 143.371 197.45 143.371 195.81V177.81L123.721 163.07V158H140.411C142.051 158 143.381 156.67 143.381 155.03V133.82H126.691C125.051 133.82 123.721 135.15 123.721 136.79V149.66L102.601 133.81V130.72C102.601 122.03 109.631 115 118.321 115H137.921C151.211 115 164.291 126.79 164.291 140.13V159.71C164.291 165.37 160.931 168.15 159.971 168.15H179.271V133.81L160.951 118.59V114.99H197.731H197.621L215.951 130.21V133.81H200.401V233.76L179.281 217.91V187.59H164.291L164.391 199.09Z" fill="#4559A8"/>
<path d="M196.101 84.5498L185.581 76.6602L175.061 84.5498L185.581 92.4399L196.101 84.5498Z" fill="#4559A8"/>
</svg>
