<svg width="319" height="319" viewBox="0 0 319 319" fill="none" xmlns="http://www.w3.org/2000/svg">
<rect x="0.0996094" y="0.149902" width="318.05" height="318.05" rx="30" fill="#F4FBF4"/>
<path d="M185.18 92.9365H148.12L164.19 109.547H181.09V138.077C178.92 143.087 165.98 148.717 155.78 141.907C173.62 110.627 130.36 71.2466 88.8201 102.347L102.03 116.007C133.51 89.1768 155.78 108.087 137.59 133.577C117.4 112.707 90.7301 130.527 103.92 150.377C116.71 168.147 135.83 166.207 145.59 154.547C170.34 187.227 107.81 218.937 82.0701 145.057L77.6201 147.087C118 250.677 199.74 203.056 151.7 148.706L152.68 147.607C157.42 151.687 168.01 160.877 181.09 156.447V205.427L201.25 226.267V109.537L185.18 92.9267V92.9365ZM116.68 150.907C110.26 146.827 125.27 129.816 133.34 140.226C129.33 144.226 120.05 153.397 116.68 150.907Z" fill="url(#paint0_linear_305_150476)"/>
<path d="M209.29 109.547L193.21 92.9365H241.44V109.547H209.29Z" fill="url(#paint1_linear_305_150476)"/>
<path d="M225.878 130.332L211.295 144.439L225.402 159.023L239.985 144.915L225.878 130.332Z" fill="url(#paint2_linear_305_150476)"/>
<path d="M225.869 169.839L211.286 183.947L225.394 198.53L239.977 184.423L225.869 169.839Z" fill="url(#paint3_linear_305_150476)"/>
<g opacity="0.8">
<path d="M183.56 94.8666H146.5L162.57 111.476H179.47V140.007C177.3 145.017 164.36 150.647 154.16 143.837C172 112.557 128.74 73.1768 87.2 104.277L100.41 117.936C131.89 91.1065 154.16 110.017 135.97 135.507C115.78 114.637 89.11 132.457 102.3 152.307C115.09 170.077 134.21 168.136 143.97 156.476C168.72 189.156 106.19 220.867 80.45 146.987L76 149.017C116.38 252.607 198.12 204.987 150.08 150.637L151.06 149.537C155.8 153.617 166.39 162.807 179.47 158.377V207.357L199.63 228.197V111.467L183.56 94.8569V94.8666ZM115.06 152.837C108.64 148.757 123.65 131.747 131.72 142.157C127.71 146.157 118.43 155.327 115.06 152.837Z" fill="white"/>
<path d="M207.67 111.487L191.6 94.8667H239.82V111.487H207.67Z" fill="white"/>
<path d="M224.27 132.256L209.687 146.363L223.794 160.946L238.377 146.839L224.27 132.256Z" fill="white"/>
<path d="M224.261 171.773L209.678 185.881L223.785 200.464L238.368 186.357L224.261 171.773Z" fill="white"/>
</g>
<defs>
<linearGradient id="paint0_linear_305_150476" x1="139.44" y1="226.277" x2="139.44" y2="90.9966" gradientUnits="userSpaceOnUse">
<stop stop-color="#FFFEF0"/>
<stop offset="0.19" stop-color="#E5F1D6"/>
<stop offset="0.51" stop-color="#9BCD6A"/>
<stop offset="0.74" stop-color="#29B786"/>
<stop offset="1" stop-color="#00B081"/>
</linearGradient>
<linearGradient id="paint1_linear_305_150476" x1="217.33" y1="109.547" x2="217.33" y2="92.9365" gradientUnits="userSpaceOnUse">
<stop stop-color="#29B786"/>
<stop offset="1" stop-color="#00B081"/>
</linearGradient>
<linearGradient id="paint2_linear_305_150476" x1="225.608" y1="159.023" x2="225.608" y2="130.333" gradientUnits="userSpaceOnUse">
<stop stop-color="#FFFEF0"/>
<stop offset="0.19" stop-color="#E5F1D6"/>
<stop offset="0.61" stop-color="#9BCD6A"/>
<stop offset="1" stop-color="#29B786"/>
</linearGradient>
<linearGradient id="paint3_linear_305_150476" x1="225.597" y1="198.539" x2="225.597" y2="169.838" gradientUnits="userSpaceOnUse">
<stop stop-color="#FFFEF0"/>
<stop offset="0.19" stop-color="#E5F1D6"/>
<stop offset="1" stop-color="#9BCD6A"/>
</linearGradient>
</defs>
</svg>
