<svg viewBox="0 0 319 319" fill="none" xmlns="http://www.w3.org/2000/svg">
<rect x="0.0498047" y="0.200195" width="318.05" height="318.05" rx="30" fill="#FEF1F6"/>
<path d="M170.66 107.65V139.14C170.66 141.31 172.42 143.08 174.6 143.08H202.34C212.09 143.08 217.31 143.05 217.74 143.05H230.08C232.25 143.05 234.02 144.81 234.02 146.99V182.63C234.02 184.8 232.26 186.57 230.08 186.57C223.71 186.57 218.77 188.23 215.27 191.54C211.77 194.85 210.02 199.13 210.02 204.38C210.02 210.38 211.92 214.78 215.74 217.59C219.55 220.4 224.52 221.81 230.64 221.81C232.63 221.81 234.68 221.64 236.8 221.29C239.17 220.9 241.32 222.75 241.32 225.15V232.81C241.32 234.71 239.96 236.37 238.09 236.68C234.7 237.26 231.34 237.55 228.02 237.55C217.27 237.55 208.43 234.83 201.5 229.4C194.57 223.96 191.1 216.19 191.1 206.07C191.1 198.08 193.41 191.39 198.03 186.02C202.1 181.29 207.47 177.97 214.15 176.05C215.82 175.57 216.96 174.02 216.96 172.29C216.96 172.29 218.97 158.85 199.53 158.85H174.6C172.43 158.85 170.66 160.61 170.66 162.79V222.02C170.66 224.19 168.9 225.96 166.72 225.96H156.41C154.24 225.96 152.47 224.2 152.47 222.02V188.93C152.47 185.54 148.48 183.74 145.93 185.98L101.61 224.98C100.89 225.61 99.9703 225.96 99.0103 225.96H82.0303C81.6003 225.96 81.2503 225.61 81.2503 225.18C81.2503 224.96 81.3403 224.75 81.5103 224.6L150.36 162.09C151.67 160.9 152.03 158.97 151.23 157.39C141.45 138.09 115.32 135.47 104.24 147.33C99.3204 152.6 96.9503 159.2 96.4203 167.35C96.2903 169.42 94.5703 171.04 92.5003 171.04H85.4003C83.2003 171.04 81.4303 169.23 81.4603 167.03C81.5903 158.9 82.2704 151.57 85.6804 145.27C96.3104 125.62 127.63 117.87 146.2 132.08C148.77 134.04 152.48 132.15 152.48 128.92V107.69C152.48 105.52 150.72 103.75 148.54 103.75H77.5504C75.3804 103.75 73.6104 101.99 73.6104 99.8101V91.1899C73.6104 89.0199 75.3704 87.25 77.5504 87.25H242.21C244.38 87.25 246.15 89.0099 246.15 91.1899V99.8101C246.15 101.98 244.39 103.75 242.21 103.75H174.6C172.43 103.75 170.66 105.51 170.66 107.69V107.65Z" fill="#EE2A7B"/>
<path d="M173.47 104.84V136.33C173.47 138.5 175.23 140.27 177.41 140.27H205.15C214.9 140.27 220.12 140.24 220.55 140.24H232.89C235.06 140.24 236.83 142 236.83 144.18V179.82C236.83 181.99 235.07 183.76 232.89 183.76C226.52 183.76 221.58 185.42 218.08 188.73C214.58 192.04 212.83 196.32 212.83 201.57C212.83 207.57 214.73 211.97 218.55 214.78C222.36 217.59 227.33 219 233.45 219C235.44 219 237.49 218.83 239.61 218.48C241.98 218.09 244.13 219.94 244.13 222.34V230C244.13 231.9 242.77 233.56 240.9 233.87C237.51 234.45 234.15 234.74 230.83 234.74C220.08 234.74 211.24 232.02 204.31 226.59C197.38 221.15 193.91 213.38 193.91 203.26C193.91 195.27 196.22 188.58 200.84 183.21C204.91 178.48 210.28 175.16 216.96 173.24C218.63 172.76 219.77 171.21 219.77 169.48C219.77 169.48 221.78 156.04 202.34 156.04H177.41C175.24 156.04 173.47 157.8 173.47 159.98V219.21C173.47 221.38 171.71 223.15 169.53 223.15H159.22C157.05 223.15 155.28 221.39 155.28 219.21V186.12C155.28 182.73 151.29 180.93 148.74 183.17L104.42 222.17C103.7 222.8 102.78 223.15 101.82 223.15H84.8399C84.4099 223.15 84.0599 222.8 84.0599 222.37C84.0599 222.15 84.1499 221.94 84.3199 221.79L153.17 159.28C154.48 158.09 154.84 156.16 154.04 154.58C144.26 135.28 118.13 132.66 107.05 144.52C102.13 149.79 99.7599 156.39 99.2299 164.54C99.0999 166.61 97.3799 168.23 95.3099 168.23H88.2099C86.0099 168.23 84.2399 166.42 84.2699 164.22C84.3999 156.09 85.0799 148.76 88.4899 142.46C99.1199 122.81 130.44 115.06 149.01 129.27C151.58 131.23 155.29 129.34 155.29 126.11V104.88C155.29 102.71 153.53 100.94 151.35 100.94H80.3599C78.1899 100.94 76.4199 99.18 76.4199 97V88.3799C76.4199 86.2099 78.1799 84.4399 80.3599 84.4399H245.02C247.19 84.4399 248.96 86.1999 248.96 88.3799V97C248.96 99.17 247.2 100.94 245.02 100.94H177.41C175.24 100.94 173.47 102.7 173.47 104.88V104.84Z" stroke="#EFEDE8" stroke-width="1.76" stroke-miterlimit="10" stroke-linecap="round"/>
<path d="M169.96 101.4V132.89C169.96 135.06 171.72 136.83 173.9 136.83H201.64C211.39 136.83 216.61 136.8 217.04 136.8H229.38C231.55 136.8 233.32 138.56 233.32 140.74V176.38C233.32 178.55 231.56 180.32 229.38 180.32C223.01 180.32 218.07 181.98 214.57 185.29C211.07 188.6 209.32 192.88 209.32 198.13C209.32 204.13 211.22 208.53 215.04 211.34C218.85 214.15 223.82 215.56 229.94 215.56C231.93 215.56 233.98 215.39 236.1 215.04C238.47 214.65 240.62 216.5 240.62 218.9V226.56C240.62 228.46 239.26 230.12 237.39 230.43C234 231.01 230.64 231.3 227.32 231.3C216.57 231.3 207.73 228.58 200.8 223.15C193.87 217.71 190.4 209.94 190.4 199.82C190.4 191.83 192.71 185.14 197.33 179.77C201.4 175.04 206.77 171.72 213.45 169.8C215.12 169.32 216.26 167.77 216.26 166.04C216.26 166.04 218.27 152.6 198.83 152.6H173.9C171.73 152.6 169.96 154.36 169.96 156.54V215.77C169.96 217.94 168.2 219.71 166.02 219.71H155.71C153.54 219.71 151.77 217.95 151.77 215.77V182.68C151.77 179.29 147.78 177.49 145.23 179.73L100.91 218.73C100.19 219.36 99.2702 219.71 98.3102 219.71H81.3301C80.9001 219.71 80.5502 219.36 80.5502 218.93C80.5502 218.71 80.6402 218.5 80.8102 218.35L149.66 155.84C150.97 154.65 151.33 152.72 150.53 151.14C140.75 131.84 114.62 129.22 103.54 141.08C98.6202 146.35 96.2502 152.95 95.7202 161.1C95.5902 163.17 93.8702 164.79 91.8002 164.79H84.7001C82.5001 164.79 80.7301 162.98 80.7601 160.78C80.8901 152.65 81.5702 145.32 84.9802 139.02C95.6102 119.37 126.93 111.62 145.5 125.83C148.07 127.79 151.78 125.9 151.78 122.67V101.44C151.78 99.2699 150.02 97.5 147.84 97.5H76.8502C74.6802 97.5 72.9102 95.7401 72.9102 93.5601V84.9399C72.9102 82.7699 74.6702 81 76.8502 81H241.51C243.68 81 245.45 82.7599 245.45 84.9399V93.5601C245.45 95.7301 243.69 97.5 241.51 97.5H173.9C171.73 97.5 169.96 99.2599 169.96 101.44V101.4Z" stroke="#EFEDE8" stroke-width="1.76" stroke-miterlimit="10" stroke-linecap="round"/>
<path d="M167.05 107.77V139.26C167.05 141.43 168.81 143.2 170.99 143.2H198.73C208.48 143.2 213.7 143.17 214.13 143.17H226.47C228.64 143.17 230.41 144.93 230.41 147.11V182.75C230.41 184.92 228.65 186.69 226.47 186.69C220.1 186.69 215.16 188.35 211.66 191.66C208.16 194.97 206.41 199.25 206.41 204.5C206.41 210.5 208.31 214.9 212.13 217.71C215.94 220.52 220.91 221.93 227.03 221.93C229.02 221.93 231.07 221.76 233.19 221.41C235.56 221.02 237.71 222.87 237.71 225.27V232.93C237.71 234.83 236.35 236.49 234.48 236.8C231.09 237.38 227.73 237.67 224.41 237.67C213.66 237.67 204.82 234.95 197.89 229.52C190.96 224.08 187.49 216.31 187.49 206.19C187.49 198.2 189.8 191.51 194.42 186.14C198.49 181.41 203.86 178.09 210.54 176.17C212.21 175.69 213.35 174.14 213.35 172.41C213.35 172.41 215.36 158.97 195.92 158.97H170.99C168.82 158.97 167.05 160.73 167.05 162.91V222.14C167.05 224.31 165.29 226.08 163.11 226.08H152.8C150.63 226.08 148.86 224.32 148.86 222.14V189.05C148.86 185.66 144.87 183.86 142.32 186.1L98 225.1C97.28 225.73 96.36 226.08 95.4 226.08H78.42C77.99 226.08 77.64 225.73 77.64 225.3C77.64 225.08 77.73 224.87 77.9 224.72L146.75 162.21C148.06 161.02 148.42 159.09 147.62 157.51C137.84 138.21 111.71 135.59 100.63 147.45C95.71 152.72 93.3401 159.32 92.8101 167.47C92.6801 169.54 90.96 171.16 88.89 171.16H81.79C79.59 171.16 77.82 169.35 77.85 167.15C77.98 159.02 78.66 151.69 82.07 145.39C92.7 125.74 124.02 117.99 142.59 132.2C145.16 134.16 148.87 132.27 148.87 129.04V107.81C148.87 105.64 147.11 103.87 144.93 103.87H73.94C71.77 103.87 70 102.11 70 99.9302V91.3101C70 89.1401 71.76 87.3701 73.94 87.3701H238.6C240.77 87.3701 242.54 89.1301 242.54 91.3101V99.9302C242.54 102.1 240.78 103.87 238.6 103.87H170.99C168.82 103.87 167.05 105.63 167.05 107.81V107.77Z" stroke="#EFEDE8" stroke-width="1.76" stroke-miterlimit="10" stroke-linecap="round"/>
</svg>
