<svg  viewBox="0 0 319 319" fill="none" xmlns="http://www.w3.org/2000/svg">
<rect width="318.05" height="318.05" rx="30" fill="#FDF2F2"/>
<g clip-path="url(#clip0_305_149777)">
<path opacity="0.9" d="M209.78 183.16L185.04 159.8V205.72L209.78 229.08V183.16Z" fill="url(#paint0_linear_305_149777)"/>
<path opacity="0.9" d="M209.78 180.2L185.04 156.84H99.2998L124.05 180.2H209.78Z" fill="url(#paint1_linear_305_149777)"/>
<path opacity="0.9" d="M121.74 134.39L97 111.03V156.95L121.74 180.31V134.39Z" fill="#ED1C24"/>
<path opacity="0.9" d="M192.51 132.33L167.77 108.97H99.2998L124.05 132.33H192.51Z" fill="url(#paint2_linear_305_149777)"/>
<path opacity="0.9" d="M208.9 231.51L184.15 208.15H97.8398L122.59 231.51H208.9Z" fill="url(#paint3_linear_305_149777)"/>
<path opacity="0.9" d="M167.77 77L192.51 100.7V128.89L167.77 105.53" fill="#ED1C24"/>
<path opacity="0.9" d="M215.93 135.78L234.45 153.26L215.93 170.74L197.41 153.26L215.93 135.78Z" fill="#ED1C24"/>
</g>
<defs>
<linearGradient id="paint0_linear_305_149777" x1="185.58" y1="206.27" x2="209.24" y2="182.61" gradientUnits="userSpaceOnUse">
<stop stop-color="#D61E25"/>
<stop offset="0.8" stop-color="#912024"/>
<stop offset="1" stop-color="#802124"/>
</linearGradient>
<linearGradient id="paint1_linear_305_149777" x1="209.78" y1="168.52" x2="99.2998" y2="168.52" gradientUnits="userSpaceOnUse">
<stop stop-color="#ED1C24"/>
<stop offset="0.19" stop-color="#E81C24"/>
<stop offset="0.38" stop-color="#DC1C24"/>
<stop offset="0.58" stop-color="#C81D24"/>
<stop offset="0.77" stop-color="#AB1F24"/>
<stop offset="0.97" stop-color="#862024"/>
<stop offset="1" stop-color="#802124"/>
</linearGradient>
<linearGradient id="paint2_linear_305_149777" x1="99.2998" y1="120.65" x2="192.51" y2="120.65" gradientUnits="userSpaceOnUse">
<stop stop-color="#ED1C24"/>
<stop offset="0.36" stop-color="#EA1C24"/>
<stop offset="0.53" stop-color="#E31C24"/>
<stop offset="0.66" stop-color="#D61D24"/>
<stop offset="0.78" stop-color="#C31D24"/>
<stop offset="0.87" stop-color="#AB1E24"/>
<stop offset="0.96" stop-color="#8F2024"/>
<stop offset="1" stop-color="#802124"/>
</linearGradient>
<linearGradient id="paint3_linear_305_149777" x1="97.8398" y1="219.83" x2="208.9" y2="219.83" gradientUnits="userSpaceOnUse">
<stop stop-color="#ED1C24"/>
<stop offset="0.22" stop-color="#E91C24"/>
<stop offset="0.41" stop-color="#DF1C24"/>
<stop offset="0.58" stop-color="#CD1D24"/>
<stop offset="0.75" stop-color="#B51E24"/>
<stop offset="0.91" stop-color="#961F24"/>
<stop offset="1" stop-color="#802124"/>
</linearGradient>
<clipPath id="clip0_305_149777">
<rect width="137.45" height="154.51" fill="white" transform="translate(97 77)"/>
</clipPath>
</defs>
</svg>
