<svg width="319" height="319" viewBox="0 0 319 319" fill="none" xmlns="http://www.w3.org/2000/svg">
<rect width="318.05" height="318.05" rx="30" fill="#F7F5FA"/>
<g filter="url(#filter0_d_304_149496)">
<path d="M188.81 182.24V101.48C188.81 100.56 189.36 99.82 190.03 99.82C203.89 95.75 227.79 100.65 232.15 106.42C233.92 108.18 236.17 105.04 231.35 101.95C211.6 87.65 190.92 83.66 167.1 90.76C155.59 94.64 108.72 105.4 87.1997 82.06C85.3197 80.58 82.8197 81.91 84.1797 83.28C96.9797 93.34 110.11 103.37 122.36 106.48C130.52 108.55 163.13 105.96 167.1 105.83C169.03 105.81 169.7 105.46 169.7 107.69L170.15 145.97C170.15 169.41 144.38 195.72 119.11 178.91C105.39 169.19 111.83 140.5 136.96 140.5C143.55 139.65 130.69 128.18 124.43 128.18H91.4897C84.8997 129.68 106.82 137.59 103.44 143.27C90.0897 168.19 142.61 213.43 170.14 182.25C170.14 182.25 171.94 179.64 172.06 182.25C172.7 198.66 184.88 225.69 197.1 236.12C199.72 237.96 203.28 235.06 196.36 228.86C192.63 225.63 188.8 206.32 188.8 182.25L188.81 182.24Z" fill="url(#paint0_radial_304_149496)"/>
</g>
<defs>
<filter id="filter0_d_304_149496" x="83.791" y="81.4112" width="155.269" height="160.066" filterUnits="userSpaceOnUse" color-interpolation-filters="sRGB">
<feFlood flood-opacity="0" result="BackgroundImageFix"/>
<feColorMatrix in="SourceAlpha" type="matrix" values="0 0 0 0 0 0 0 0 0 0 0 0 0 0 0 0 0 0 127 0" result="hardAlpha"/>
<feOffset dx="4.81" dy="4.81"/>
<feColorMatrix type="matrix" values="0 0 0 0 1 0 0 0 0 1 0 0 0 0 1 0 0 0 0.75 0"/>
<feBlend mode="normal" in2="BackgroundImageFix" result="effect1_dropShadow_304_149496"/>
<feBlend mode="normal" in="SourceGraphic" in2="effect1_dropShadow_304_149496" result="shape"/>
</filter>
<radialGradient id="paint0_radial_304_149496" cx="0" cy="0" r="1" gradientUnits="userSpaceOnUse" gradientTransform="translate(136.61 159.53) scale(96.69 96.69)">
<stop stop-color="#4B4C94"/>
<stop offset="0.27" stop-color="#52478C"/>
<stop offset="0.68" stop-color="#683B77"/>
<stop offset="1" stop-color="#7E2F62"/>
</radialGradient>
</defs>
</svg>
