<svg width="319" height="319" viewBox="0 0 319 319" fill="none" xmlns="http://www.w3.org/2000/svg">
<rect y="0.0999756" width="318.05" height="318.05" rx="30" fill="#F0FBFE"/>
<path d="M226.27 236.15C223.61 233.47 220.95 230.81 218.31 228.12C211.84 221.55 205.34 215.03 198.94 208.39C194.04 203.31 193.74 203.12 186.38 206.66C180.36 209.56 174.8 213.41 168.9 216.6C158.58 222.18 147.55 224.68 135.84 223.19C133.89 222.94 131.83 221.74 130.29 220.43C125.21 216.12 120.26 211.64 115.41 207.06C112.92 204.71 110.77 202.02 108.45 199.5C106.94 197.86 105.13 196.44 103.93 194.6C98.5497 186.34 96.9797 175.7 103.87 167.54C104.32 167.01 104.7 166.41 105.5 165.31C103.09 162.93 100.76 160.4 98.1797 158.14C95.1597 155.49 93.4997 152.26 92.9097 148.35C92.4197 145.11 91.3997 141.88 91.3397 138.64C91.1897 129.12 95.5397 121.87 103.37 116.61C104.27 116.01 105.27 115.55 106.13 114.92C111.61 110.91 117.42 112.69 123.11 114.08C125.44 114.65 125.89 113.76 125.79 111.94C125.4 105.34 124.83 98.75 124.55 92.15C124.42 89.15 124.8 86.13 125 82.22C125.53 82.25 127.33 81.78 128.23 82.48C133.12 86.29 137.59 90.63 142.58 94.29C146.29 97.01 145.85 100.58 145.82 104.22C145.81 106.51 145.43 108.81 145.57 111.09C145.99 118.05 146.44 125.01 147.19 131.93C147.4 133.88 148.75 135.68 149.44 137.6C149.7 138.31 149.57 139.16 149.62 139.95C148.89 139.75 147.87 139.78 147.47 139.3C144.01 135.19 139.44 133.11 134.38 131.89C129.6 130.74 125.18 132.16 121.65 135.08C113.61 141.74 111.16 149.54 113.05 159.92C113.23 160 113.44 160.17 113.59 160.13C118.42 158.94 123.34 157.99 128.05 156.42C130.63 155.56 132.85 153.65 135.25 152.25C136.21 151.69 137.51 150.53 138.15 150.81C139.74 151.5 141.17 152.73 142.43 153.98C145.12 156.65 147.64 159.49 150.26 162.23C152 164.05 153.97 165.68 155.46 167.68C155.8 168.14 154.88 170.16 154.03 170.78C147.59 175.51 140.57 179.22 132.55 180.13C126.58 180.81 123 184.06 121.11 189.26C119.61 193.39 119.53 197.76 120.49 202.18C121.17 205.33 123.21 206.08 125.76 205.75C135.25 204.51 144.34 202.08 152.67 197.05C159.17 193.12 165.9 189.56 172.62 186.01C176.28 184.08 176.48 183.7 174.35 180.33C170.42 174.12 166.73 167.79 166.06 160.24C165.37 152.44 168 146 173.79 140.64C176.47 138.16 179.44 136.62 182.86 135.65C183.9 135.36 184.88 134.87 185.52 134.62C183.8 117.28 184.09 100.25 184.87 82.67C185.97 82.98 187.52 82.99 188.43 83.76C191.21 86.12 193.66 88.87 196.39 91.29C198.16 92.85 200.1 94.28 202.15 95.45C204.82 96.99 205.88 99.01 205.6 102.12C205.04 108.52 204.66 114.94 204.43 121.36C204.27 125.86 204.61 130.39 204.47 134.89C204.3 140.4 207.82 143.82 211.14 147.36C214.64 151.09 218.53 154.48 221.78 158.41C224.41 161.59 225.85 165.21 226.19 169.77C226.61 175.37 224.07 178.64 220.45 181.61C213.64 187.19 206.64 192.56 199.65 197.92C196.25 200.53 195.99 200.86 198.87 204.14C204 210 209.35 215.66 214.56 221.44C218.45 225.74 222.28 230.09 226.12 234.44C226.42 234.78 226.54 235.29 226.75 235.73L226.3 236.09L226.27 236.15ZM207.92 154.08C196.23 151.4 184.06 164.32 186.14 176.19C190.28 173.2 194.29 170.52 198.05 167.52C200.83 165.3 203.16 162.53 205.9 160.26C208 158.51 208.98 156.69 207.93 154.08H207.92Z" fill="url(#paint0_linear_304_149490)"/>
<defs>
<linearGradient id="paint0_linear_304_149490" x1="91.3297" y1="159.13" x2="226.72" y2="159.13" gradientUnits="userSpaceOnUse">
<stop stop-color="#2A3693"/>
<stop offset="0.16" stop-color="#2155A6"/>
<stop offset="0.43" stop-color="#1682C2"/>
<stop offset="0.67" stop-color="#0DA3D7"/>
<stop offset="0.87" stop-color="#08B7E3"/>
<stop offset="1" stop-color="#07BFE8"/>
</linearGradient>
</defs>
</svg>
