<svg  viewBox="0 0 319 319" fill="none" xmlns="http://www.w3.org/2000/svg">
<rect width="318.05" height="318.05" rx="30" fill="#FFF0F6"/>
<path d="M90.6598 146.63L119.11 185.12C121.84 188.4 126.39 193.75 132.74 198.43C153.54 213.76 184.42 189.12 168.81 167.04L158.17 152.58H189.73V219.33L210.33 236.03V103.88H264.03L244.76 82.01H189.74V131.56H128.32L144 155.18C147.77 155.04 152.34 155.03 154.14 156.51C159.5 160.93 155.99 172.82 145.91 177.23C143.6 178.24 129.98 185.81 115.52 172.4C106.01 163.58 81.6398 129.8 81.6398 129.8C80.5198 128.25 78.1698 125.55 74.2998 124C59.5498 118.09 54.6098 130.23 54.0098 130.69L74.6098 147.39C76.8298 142.77 84.1998 138.55 90.6598 146.63Z" fill="url(#paint0_linear_304_149656)"/>
<defs>
<linearGradient id="paint0_linear_304_149656" x1="159.03" y1="236.05" x2="159.03" y2="82.01" gradientUnits="userSpaceOnUse">
<stop stop-color="#FDE2E0"/>
<stop offset="0.05" stop-color="#F9BCC0"/>
<stop offset="0.1" stop-color="#F69AA3"/>
<stop offset="0.14" stop-color="#F3828F"/>
<stop offset="0.19" stop-color="#F27483"/>
<stop offset="0.22" stop-color="#F26F7F"/>
<stop offset="0.59" stop-color="#D7085F"/>
<stop offset="1" stop-color="#BA0052"/>
</linearGradient>
</defs>
</svg>
