<svg width="319" height="319" viewBox="0 0 319 319" fill="none" xmlns="http://www.w3.org/2000/svg">
<rect width="318.05" height="318.05" rx="30" fill="#F0FCFF"/>
<g filter="url(#filter0_d_304_149509)">
<path d="M70.9104 96.96V135.11C70.9104 150.16 90.1104 150.73 94.5004 150.73H192.41C201.78 150.73 201.78 172.53 192.41 172.53H101.63C101.63 157.82 75.4004 157.82 75.4004 172.53C76.1104 197.15 75.8504 198.8 95.3904 198.79V220.59C95.3904 230.6 100.52 235.82 110.93 235.82H206.24V212.23H113.61C107.49 212.15 103.42 208.79 103.42 198.78H193.3C205.97 198.78 208.02 183.45 208.02 174.3H224.64V235.81H247.13V82.23H224.64V148.94H208.02C208.02 139.79 205.96 124.46 193.3 124.46H94.4904C79.5804 124.46 78.4704 107.6 94.4904 107.6H206.24V82.23H94.4904C90.1004 82.23 70.9004 81.91 70.9004 96.95L70.9104 96.96Z" fill="url(#paint0_linear_304_149509)"/>
</g>
<defs>
<filter id="filter0_d_304_149509" x="70.9004" y="82.2294" width="176.23" height="153.591" filterUnits="userSpaceOnUse" color-interpolation-filters="sRGB">
<feFlood flood-opacity="0" result="BackgroundImageFix"/>
<feColorMatrix in="SourceAlpha" type="matrix" values="0 0 0 0 0 0 0 0 0 0 0 0 0 0 0 0 0 0 127 0" result="hardAlpha"/>
<feOffset/>
<feColorMatrix type="matrix" values="0 0 0 0 0.137255 0 0 0 0 0.121569 0 0 0 0 0.12549 0 0 0 0.75 0"/>
<feBlend mode="normal" in2="BackgroundImageFix" result="effect1_dropShadow_304_149509"/>
<feBlend mode="normal" in="SourceGraphic" in2="effect1_dropShadow_304_149509" result="shape"/>
</filter>
<linearGradient id="paint0_linear_304_149509" x1="159.03" y1="235.82" x2="159.03" y2="82.23" gradientUnits="userSpaceOnUse">
<stop stop-color="#CFEDFC"/>
<stop offset="0.15" stop-color="#93D3E2"/>
<stop offset="0.41" stop-color="#33AABA"/>
<stop offset="0.52" stop-color="#0E9AAA"/>
<stop offset="0.73" stop-color="#0C97A9"/>
<stop offset="0.86" stop-color="#098FA6"/>
<stop offset="0.96" stop-color="#0280A2"/>
<stop offset="1" stop-color="#007AA1"/>
</linearGradient>
</defs>
</svg>
